<svg width="100%" viewBox="0 0 422 209" fill="none" xmlns="http://www.w3.org/2000/svg">
<rect x="1.1665" y="0.5" width="420.333" height="208" rx="19.5" fill="#24CBFF" fill-opacity="0.2"/>
<rect x="1.1665" y="0.5" width="420.333" height="208" rx="19.5" stroke="#24CBFF"/>
<path d="M50.2517 42V28.9091H54.675C55.702 28.9091 56.5415 29.0945 57.1935 29.4652C57.8497 29.8317 58.3355 30.3281 58.6509 30.9545C58.9662 31.581 59.1239 32.2798 59.1239 33.0511C59.1239 33.8224 58.9662 34.5234 58.6509 35.1541C58.3398 35.7848 57.8583 36.2876 57.2063 36.6626C56.5543 37.0334 55.7191 37.2188 54.7006 37.2188H51.5301V35.8125H54.6495C55.3526 35.8125 55.9172 35.6911 56.3434 35.4482C56.7695 35.2053 57.0784 34.8771 57.2702 34.4638C57.4662 34.0462 57.5642 33.5753 57.5642 33.0511C57.5642 32.527 57.4662 32.0582 57.2702 31.6449C57.0784 31.2315 56.7674 30.9077 56.337 30.6733C55.9066 30.4347 55.3355 30.3153 54.6239 30.3153H51.837V42H50.2517ZM61.473 42V32.1818H62.9304V33.6648H63.0326C63.2116 33.179 63.5355 32.7848 64.0042 32.4822C64.473 32.1797 65.0014 32.0284 65.5894 32.0284C65.7002 32.0284 65.8387 32.0305 66.0049 32.0348C66.1711 32.0391 66.2968 32.0455 66.3821 32.054V33.5881C66.3309 33.5753 66.2137 33.5561 66.0305 33.5305C65.8515 33.5007 65.6619 33.4858 65.4616 33.4858C64.9843 33.4858 64.5582 33.5859 64.1832 33.7862C63.8125 33.9822 63.5184 34.255 63.3011 34.6044C63.088 34.9496 62.9815 35.3437 62.9815 35.7869V42H61.473ZM71.9879 42.2045C71.0419 42.2045 70.2258 41.9957 69.5397 41.5781C68.8579 41.1562 68.3316 40.5682 67.9609 39.8139C67.5944 39.0554 67.4112 38.1733 67.4112 37.1676C67.4112 36.1619 67.5944 35.2756 67.9609 34.5085C68.3316 33.7372 68.8473 33.1364 69.5078 32.706C70.1725 32.2713 70.9481 32.054 71.8345 32.054C72.3458 32.054 72.8508 32.1392 73.3494 32.3097C73.848 32.4801 74.3018 32.7571 74.7109 33.1406C75.12 33.5199 75.446 34.0227 75.6889 34.6491C75.9318 35.2756 76.0532 36.0469 76.0532 36.9631V37.6023H68.485V36.2983H74.5191C74.5191 35.7443 74.4083 35.25 74.1867 34.8153C73.9694 34.3807 73.6583 34.0376 73.2535 33.7862C72.8529 33.5348 72.3799 33.4091 71.8345 33.4091C71.2336 33.4091 70.7137 33.5582 70.2748 33.8565C69.8402 34.1506 69.5056 34.5341 69.2713 35.0071C69.0369 35.4801 68.9197 35.9872 68.9197 36.5284V37.3977C68.9197 38.1392 69.0475 38.7678 69.3032 39.2834C69.5632 39.7947 69.9233 40.1847 70.3835 40.4531C70.8437 40.7173 71.3785 40.8494 71.9879 40.8494C72.3842 40.8494 72.7421 40.794 73.0617 40.6832C73.3856 40.5682 73.6647 40.3977 73.8991 40.1719C74.1335 39.9418 74.3146 39.6562 74.4424 39.3153L75.8998 39.7244C75.7464 40.2188 75.4886 40.6534 75.1264 41.0284C74.7642 41.3991 74.3167 41.6889 73.784 41.8977C73.2514 42.1023 72.6527 42.2045 71.9879 42.2045ZM83.973 35.6847V37.0909H78.2457V35.6847H83.973ZM90.8972 32.1818V33.4602H85.8091V32.1818H90.8972ZM87.292 29.8295H88.8006V39.1875C88.8006 39.6136 88.8623 39.9332 88.9859 40.1463C89.1138 40.3551 89.2757 40.4957 89.4717 40.5682C89.672 40.6364 89.8829 40.6705 90.1045 40.6705C90.2707 40.6705 90.4071 40.6619 90.5136 40.6449C90.6202 40.6236 90.7054 40.6065 90.7693 40.5938L91.0761 41.9489C90.9739 41.9872 90.8311 42.0256 90.6479 42.0639C90.4646 42.1065 90.2324 42.1278 89.9511 42.1278C89.525 42.1278 89.1074 42.0362 88.6983 41.853C88.2935 41.6697 87.9568 41.3906 87.6883 41.0156C87.4241 40.6406 87.292 40.1676 87.292 39.5966V29.8295ZM96.0555 42.2301C95.4334 42.2301 94.8687 42.1129 94.3616 41.8786C93.8545 41.6399 93.4518 41.2969 93.1535 40.8494C92.8552 40.3977 92.7061 39.8523 92.7061 39.2131C92.7061 38.6506 92.8169 38.1946 93.0385 37.8452C93.2601 37.4915 93.5562 37.2145 93.927 37.0142C94.2977 36.8139 94.7068 36.6648 95.1543 36.5668C95.606 36.4645 96.0598 36.3835 96.5158 36.3239C97.1123 36.2472 97.596 36.1896 97.9668 36.1513C98.3418 36.1087 98.6145 36.0384 98.7849 35.9403C98.9597 35.8423 99.047 35.6719 99.047 35.429V35.3778C99.047 34.7472 98.8744 34.2571 98.5293 33.9077C98.1883 33.5582 97.6706 33.3835 96.976 33.3835C96.2558 33.3835 95.6912 33.5412 95.2821 33.8565C94.873 34.1719 94.5854 34.5085 94.4192 34.8665L92.9873 34.3551C93.243 33.7585 93.5839 33.294 94.0101 32.9616C94.4405 32.625 94.9092 32.3906 95.4163 32.2585C95.9277 32.1222 96.4305 32.054 96.9248 32.054C97.2402 32.054 97.6024 32.0923 98.0115 32.169C98.4248 32.2415 98.8233 32.3928 99.2068 32.6229C99.5946 32.853 99.9163 33.2003 100.172 33.6648C100.428 34.1293 100.556 34.7514 100.556 35.5312V42H99.047V40.6705H98.9703C98.868 40.8835 98.6976 41.1115 98.4589 41.3544C98.2203 41.5973 97.9028 41.804 97.5065 41.9744C97.1102 42.1449 96.6266 42.2301 96.0555 42.2301ZM96.2856 40.875C96.8822 40.875 97.3851 40.7578 97.7942 40.5234C98.2075 40.2891 98.5186 39.9865 98.7274 39.6158C98.9405 39.245 99.047 38.8551 99.047 38.446V37.0653C98.9831 37.142 98.8425 37.2124 98.6251 37.2763C98.4121 37.3359 98.1649 37.3892 97.8837 37.4361C97.6067 37.4787 97.3361 37.517 97.0719 37.5511C96.8119 37.581 96.601 37.6065 96.4391 37.6278C96.047 37.679 95.6805 37.7621 95.3396 37.8771C95.003 37.9879 94.7302 38.1562 94.5214 38.3821C94.3169 38.6037 94.2146 38.9062 94.2146 39.2898C94.2146 39.8139 94.4085 40.2102 94.7963 40.4787C95.1883 40.7429 95.6848 40.875 96.2856 40.875ZM104.434 32.1818L106.786 36.196L109.138 32.1818H110.877L107.707 37.0909L110.877 42H109.138L106.786 38.1903L104.434 42H102.695L105.815 37.0909L102.695 32.1818H104.434ZM118.092 45.6818V32.1818H119.549V33.7415H119.728C119.839 33.571 119.993 33.3537 120.189 33.0895C120.389 32.821 120.674 32.5824 121.045 32.3736C121.42 32.1605 121.927 32.054 122.567 32.054C123.393 32.054 124.122 32.2607 124.753 32.674C125.383 33.0874 125.875 33.6733 126.229 34.4318C126.583 35.1903 126.76 36.0852 126.76 37.1165C126.76 38.1562 126.583 39.0575 126.229 39.8203C125.875 40.5788 125.385 41.1669 124.759 41.5845C124.133 41.9979 123.41 42.2045 122.592 42.2045C121.961 42.2045 121.456 42.1001 121.077 41.8913C120.698 41.6783 120.406 41.4375 120.201 41.169C119.997 40.8963 119.839 40.6705 119.728 40.4915H119.601V45.6818H118.092ZM119.575 37.0909C119.575 37.8324 119.684 38.4865 119.901 39.0533C120.118 39.6158 120.436 40.0568 120.853 40.3764C121.271 40.6918 121.782 40.8494 122.388 40.8494C123.018 40.8494 123.545 40.6832 123.966 40.3509C124.393 40.0142 124.712 39.5625 124.925 38.9957C125.143 38.4247 125.251 37.7898 125.251 37.0909C125.251 36.4006 125.145 35.7784 124.932 35.2244C124.723 34.6662 124.405 34.2251 123.979 33.9013C123.557 33.5732 123.027 33.4091 122.388 33.4091C121.774 33.4091 121.258 33.5646 120.841 33.8757C120.423 34.1825 120.108 34.6129 119.895 35.1669C119.682 35.7166 119.575 36.358 119.575 37.0909ZM129.061 42V32.1818H130.518V33.6648H130.621C130.799 33.179 131.123 32.7848 131.592 32.4822C132.061 32.1797 132.589 32.0284 133.177 32.0284C133.288 32.0284 133.427 32.0305 133.593 32.0348C133.759 32.0391 133.885 32.0455 133.97 32.054V33.5881C133.919 33.5753 133.802 33.5561 133.618 33.5305C133.439 33.5007 133.25 33.4858 133.049 33.4858C132.572 33.4858 132.146 33.5859 131.771 33.7862C131.4 33.9822 131.106 34.255 130.889 34.6044C130.676 34.9496 130.569 35.3437 130.569 35.7869V42H129.061ZM139.448 42.2045C138.562 42.2045 137.784 41.9936 137.115 41.5717C136.45 41.1499 135.93 40.5597 135.555 39.8011C135.184 39.0426 134.999 38.1562 134.999 37.142C134.999 36.1193 135.184 35.2266 135.555 34.4638C135.93 33.701 136.45 33.1087 137.115 32.6868C137.784 32.2649 138.562 32.054 139.448 32.054C140.334 32.054 141.11 32.2649 141.775 32.6868C142.444 33.1087 142.964 33.701 143.334 34.4638C143.709 35.2266 143.897 36.1193 143.897 37.142C143.897 38.1562 143.709 39.0426 143.334 39.8011C142.964 40.5597 142.444 41.1499 141.775 41.5717C141.11 41.9936 140.334 42.2045 139.448 42.2045ZM139.448 40.8494C140.121 40.8494 140.675 40.6768 141.11 40.3317C141.545 39.9865 141.866 39.5327 142.075 38.9702C142.284 38.4077 142.388 37.7983 142.388 37.142C142.388 36.4858 142.284 35.8743 142.075 35.3075C141.866 34.7408 141.545 34.2827 141.11 33.9332C140.675 33.5838 140.121 33.4091 139.448 33.4091C138.775 33.4091 138.221 33.5838 137.786 33.9332C137.351 34.2827 137.03 34.7408 136.821 35.3075C136.612 35.8743 136.508 36.4858 136.508 37.142C136.508 37.7983 136.612 38.4077 136.821 38.9702C137.03 39.5327 137.351 39.9865 137.786 40.3317C138.221 40.6768 138.775 40.8494 139.448 40.8494ZM150.572 32.1818V33.4602H145.279V32.1818H150.572ZM146.864 42V30.8267C146.864 30.2642 146.996 29.7955 147.261 29.4205C147.525 29.0455 147.868 28.7642 148.29 28.5767C148.712 28.3892 149.157 28.2955 149.626 28.2955C149.996 28.2955 150.299 28.3253 150.533 28.3849C150.768 28.4446 150.942 28.5 151.057 28.5511L150.623 29.8551C150.546 29.8295 150.44 29.7976 150.303 29.7592C150.171 29.7209 149.996 29.7017 149.779 29.7017C149.28 29.7017 148.92 29.8274 148.699 30.0788C148.481 30.3303 148.373 30.6989 148.373 31.1847V42H146.864ZM152.686 42V32.1818H154.194V42H152.686ZM153.453 30.5455C153.159 30.5455 152.905 30.4453 152.692 30.245C152.483 30.0447 152.379 29.804 152.379 29.5227C152.379 29.2415 152.483 29.0007 152.692 28.8004C152.905 28.6001 153.159 28.5 153.453 28.5C153.747 28.5 153.998 28.6001 154.207 28.8004C154.42 29.0007 154.527 29.2415 154.527 29.5227C154.527 29.804 154.42 30.0447 154.207 30.245C153.998 30.4453 153.747 30.5455 153.453 30.5455ZM161.227 32.1818V33.4602H156.139V32.1818H161.227ZM157.622 29.8295H159.131V39.1875C159.131 39.6136 159.192 39.9332 159.316 40.1463C159.444 40.3551 159.606 40.4957 159.802 40.5682C160.002 40.6364 160.213 40.6705 160.435 40.6705C160.601 40.6705 160.737 40.6619 160.844 40.6449C160.95 40.6236 161.035 40.6065 161.099 40.5938L161.406 41.9489C161.304 41.9872 161.161 42.0256 160.978 42.0639C160.795 42.1065 160.562 42.1278 160.281 42.1278C159.855 42.1278 159.437 42.0362 159.028 41.853C158.624 41.6697 158.287 41.3906 158.018 41.0156C157.754 40.6406 157.622 40.1676 157.622 39.5966V29.8295ZM168.559 42V32.1818H170.016V33.6648H170.119C170.298 33.179 170.621 32.7848 171.09 32.4822C171.559 32.1797 172.087 32.0284 172.675 32.0284C172.786 32.0284 172.925 32.0305 173.091 32.0348C173.257 32.0391 173.383 32.0455 173.468 32.054V33.5881C173.417 33.5753 173.3 33.5561 173.116 33.5305C172.937 33.5007 172.748 33.4858 172.548 33.4858C172.07 33.4858 171.644 33.5859 171.269 33.7862C170.898 33.9822 170.604 34.255 170.387 34.6044C170.174 34.9496 170.067 35.3437 170.067 35.7869V42H168.559ZM179.074 42.2045C178.128 42.2045 177.312 41.9957 176.626 41.5781C175.944 41.1562 175.418 40.5682 175.047 39.8139C174.68 39.0554 174.497 38.1733 174.497 37.1676C174.497 36.1619 174.68 35.2756 175.047 34.5085C175.418 33.7372 175.933 33.1364 176.594 32.706C177.258 32.2713 178.034 32.054 178.92 32.054C179.432 32.054 179.937 32.1392 180.435 32.3097C180.934 32.4801 181.388 32.7571 181.797 33.1406C182.206 33.5199 182.532 34.0227 182.775 34.6491C183.018 35.2756 183.139 36.0469 183.139 36.9631V37.6023H175.571V36.2983H181.605C181.605 35.7443 181.494 35.25 181.273 34.8153C181.055 34.3807 180.744 34.0376 180.339 33.7862C179.939 33.5348 179.466 33.4091 178.92 33.4091C178.32 33.4091 177.8 33.5582 177.361 33.8565C176.926 34.1506 176.592 34.5341 176.357 35.0071C176.123 35.4801 176.006 35.9872 176.006 36.5284V37.3977C176.006 38.1392 176.133 38.7678 176.389 39.2834C176.649 39.7947 177.009 40.1847 177.469 40.4531C177.93 40.7173 178.464 40.8494 179.074 40.8494C179.47 40.8494 179.828 40.794 180.148 40.6832C180.472 40.5682 180.751 40.3977 180.985 40.1719C181.219 39.9418 181.401 39.6562 181.528 39.3153L182.986 39.7244C182.832 40.2188 182.575 40.6534 182.212 41.0284C181.85 41.3991 181.403 41.6889 180.87 41.8977C180.337 42.1023 179.739 42.2045 179.074 42.2045ZM188.323 42.2301C187.701 42.2301 187.136 42.1129 186.629 41.8786C186.122 41.6399 185.719 41.2969 185.421 40.8494C185.123 40.3977 184.974 39.8523 184.974 39.2131C184.974 38.6506 185.084 38.1946 185.306 37.8452C185.528 37.4915 185.824 37.2145 186.195 37.0142C186.565 36.8139 186.974 36.6648 187.422 36.5668C187.874 36.4645 188.327 36.3835 188.783 36.3239C189.38 36.2472 189.864 36.1896 190.234 36.1513C190.609 36.1087 190.882 36.0384 191.053 35.9403C191.227 35.8423 191.315 35.6719 191.315 35.429V35.3778C191.315 34.7472 191.142 34.2571 190.797 33.9077C190.456 33.5582 189.938 33.3835 189.244 33.3835C188.523 33.3835 187.959 33.5412 187.55 33.8565C187.141 34.1719 186.853 34.5085 186.687 34.8665L185.255 34.3551C185.511 33.7585 185.852 33.294 186.278 32.9616C186.708 32.625 187.177 32.3906 187.684 32.2585C188.195 32.1222 188.698 32.054 189.192 32.054C189.508 32.054 189.87 32.0923 190.279 32.169C190.692 32.2415 191.091 32.3928 191.474 32.6229C191.862 32.853 192.184 33.2003 192.44 33.6648C192.695 34.1293 192.823 34.7514 192.823 35.5312V42H191.315V40.6705H191.238C191.136 40.8835 190.965 41.1115 190.727 41.3544C190.488 41.5973 190.17 41.804 189.774 41.9744C189.378 42.1449 188.894 42.2301 188.323 42.2301ZM188.553 40.875C189.15 40.875 189.653 40.7578 190.062 40.5234C190.475 40.2891 190.786 39.9865 190.995 39.6158C191.208 39.245 191.315 38.8551 191.315 38.446V37.0653C191.251 37.142 191.11 37.2124 190.893 37.2763C190.68 37.3359 190.432 37.3892 190.151 37.4361C189.874 37.4787 189.604 37.517 189.339 37.5511C189.08 37.581 188.869 37.6065 188.707 37.6278C188.315 37.679 187.948 37.7621 187.607 37.8771C187.271 37.9879 186.998 38.1562 186.789 38.3821C186.584 38.6037 186.482 38.9062 186.482 39.2898C186.482 39.8139 186.676 40.2102 187.064 40.4787C187.456 40.7429 187.952 40.875 188.553 40.875ZM199.565 42.2045C198.645 42.2045 197.852 41.9872 197.187 41.5526C196.523 41.1179 196.011 40.5192 195.653 39.7564C195.295 38.9936 195.116 38.1222 195.116 37.142C195.116 36.1449 195.299 35.2649 195.666 34.5021C196.037 33.7351 196.552 33.1364 197.213 32.706C197.878 32.2713 198.653 32.054 199.54 32.054C200.23 32.054 200.852 32.1818 201.406 32.4375C201.96 32.6932 202.414 33.0511 202.768 33.5114C203.121 33.9716 203.341 34.5085 203.426 35.1222H201.917C201.802 34.6747 201.547 34.2784 201.15 33.9332C200.758 33.5838 200.23 33.4091 199.565 33.4091C198.977 33.4091 198.461 33.5625 198.018 33.8693C197.579 34.1719 197.236 34.6001 196.989 35.1541C196.746 35.7038 196.625 36.3494 196.625 37.0909C196.625 37.8494 196.744 38.5099 196.983 39.0724C197.226 39.6349 197.567 40.0717 198.005 40.3828C198.449 40.6939 198.969 40.8494 199.565 40.8494C199.957 40.8494 200.313 40.7812 200.633 40.6449C200.952 40.5085 201.223 40.3125 201.444 40.0568C201.666 39.8011 201.824 39.4943 201.917 39.1364H203.426C203.341 39.7159 203.13 40.2379 202.793 40.7024C202.461 41.1626 202.02 41.5291 201.47 41.8018C200.924 42.0703 200.29 42.2045 199.565 42.2045ZM207.14 36.0938V42H205.631V28.9091H207.14V33.7159H207.268C207.498 33.2088 207.843 32.8061 208.303 32.5078C208.768 32.2053 209.385 32.054 210.157 32.054C210.826 32.054 211.412 32.1882 211.915 32.4567C212.417 32.7209 212.807 33.1278 213.084 33.6776C213.366 34.223 213.506 34.9176 213.506 35.7614V42H211.998V35.8636C211.998 35.0838 211.795 34.4808 211.39 34.0547C210.99 33.6243 210.434 33.4091 209.722 33.4091C209.228 33.4091 208.785 33.5135 208.393 33.7223C208.005 33.9311 207.698 34.2358 207.472 34.6364C207.25 35.0369 207.14 35.5227 207.14 36.0938ZM220.382 42.2045C219.436 42.2045 218.62 41.9957 217.934 41.5781C217.252 41.1562 216.726 40.5682 216.355 39.8139C215.989 39.0554 215.806 38.1733 215.806 37.1676C215.806 36.1619 215.989 35.2756 216.355 34.5085C216.726 33.7372 217.242 33.1364 217.902 32.706C218.567 32.2713 219.343 32.054 220.229 32.054C220.74 32.054 221.245 32.1392 221.744 32.3097C222.242 32.4801 222.696 32.7571 223.105 33.1406C223.515 33.5199 223.841 34.0227 224.083 34.6491C224.326 35.2756 224.448 36.0469 224.448 36.9631V37.6023H216.88V36.2983H222.914C222.914 35.7443 222.803 35.25 222.581 34.8153C222.364 34.3807 222.053 34.0376 221.648 33.7862C221.247 33.5348 220.774 33.4091 220.229 33.4091C219.628 33.4091 219.108 33.5582 218.669 33.8565C218.235 34.1506 217.9 34.5341 217.666 35.0071C217.431 35.4801 217.314 35.9872 217.314 36.5284V37.3977C217.314 38.1392 217.442 38.7678 217.698 39.2834C217.958 39.7947 218.318 40.1847 218.778 40.4531C219.238 40.7173 219.773 40.8494 220.382 40.8494C220.779 40.8494 221.137 40.794 221.456 40.6832C221.78 40.5682 222.059 40.3977 222.294 40.1719C222.528 39.9418 222.709 39.6562 222.837 39.3153L224.294 39.7244C224.141 40.2188 223.883 40.6534 223.521 41.0284C223.159 41.3991 222.711 41.6889 222.179 41.8977C221.646 42.1023 221.047 42.2045 220.382 42.2045ZM230.45 42.2045C229.632 42.2045 228.909 41.9979 228.283 41.5845C227.657 41.1669 227.167 40.5788 226.813 39.8203C226.459 39.0575 226.282 38.1562 226.282 37.1165C226.282 36.0852 226.459 35.1903 226.813 34.4318C227.167 33.6733 227.659 33.0874 228.289 32.674C228.92 32.2607 229.649 32.054 230.475 32.054C231.115 32.054 231.62 32.1605 231.99 32.3736C232.365 32.5824 232.651 32.821 232.847 33.0895C233.047 33.3537 233.203 33.571 233.314 33.7415H233.441V28.9091H234.95V42H233.492V40.4915H233.314C233.203 40.6705 233.045 40.8963 232.841 41.169C232.636 41.4375 232.344 41.6783 231.965 41.8913C231.586 42.1001 231.081 42.2045 230.45 42.2045ZM230.654 40.8494C231.26 40.8494 231.771 40.6918 232.189 40.3764C232.606 40.0568 232.924 39.6158 233.141 39.0533C233.358 38.4865 233.467 37.8324 233.467 37.0909C233.467 36.358 233.36 35.7166 233.147 35.1669C232.934 34.6129 232.619 34.1825 232.201 33.8757C231.784 33.5646 231.268 33.4091 230.654 33.4091C230.015 33.4091 229.483 33.5732 229.056 33.9013C228.635 34.2251 228.317 34.6662 228.104 35.2244C227.895 35.7784 227.791 36.4006 227.791 37.0909C227.791 37.7898 227.897 38.4247 228.11 38.9957C228.328 39.5625 228.647 40.0142 229.069 40.3509C229.495 40.6832 230.024 40.8494 230.654 40.8494Z" fill="#24408E"/>
<path d="M50.7465 81.48C50.9065 79.5867 51.5732 77.88 52.7465 76.36C53.9465 74.84 55.6398 73.64 57.8265 72.76C60.0132 71.8533 62.6398 71.4 65.7065 71.4C68.3998 71.4 70.7332 71.7467 72.7065 72.44C74.6798 73.1333 76.2132 74.0933 77.3065 75.32C78.3998 76.5467 78.9465 78 78.9465 79.68C78.9465 81.04 78.5332 82.28 77.7065 83.4C76.9065 84.4933 75.6532 85.3733 73.9465 86.04C72.2398 86.68 70.0798 86.9867 67.4665 86.96V86.2C69.9998 86.0667 72.1598 86.2667 73.9465 86.8C75.7598 87.3067 77.1598 88.1067 78.1465 89.2C79.1332 90.2933 79.6265 91.6667 79.6265 93.32C79.6265 95.1067 79.0532 96.7067 77.9065 98.12C76.7865 99.5067 75.1465 100.6 72.9865 101.4C70.8265 102.2 68.1998 102.6 65.1065 102.6C62.0932 102.6 59.4665 102.173 57.2265 101.32C54.9865 100.467 53.2398 99.2667 51.9865 97.72C50.7332 96.1733 50.0532 94.36 49.9465 92.28H56.7465C56.9598 93.88 57.7598 95.1067 59.1465 95.96C60.5332 96.8133 62.5198 97.24 65.1065 97.24C67.6132 97.24 69.5065 96.8533 70.7865 96.08C72.0665 95.3067 72.7065 94.2267 72.7065 92.84C72.7065 92.0133 72.4932 91.32 72.0665 90.76C71.6398 90.2 70.9065 89.7867 69.8665 89.52C68.8532 89.2267 67.4665 89.08 65.7065 89.08H60.4265V84.32H65.7065C67.9998 84.32 69.6398 83.9733 70.6265 83.28C71.6132 82.5867 72.1065 81.6933 72.1065 80.6C72.1065 79.3733 71.5465 78.4267 70.4265 77.76C69.3065 77.0933 67.6132 76.76 65.3465 76.76C63.0265 76.76 61.2132 77.1733 59.9065 78C58.5998 78.8 57.8132 79.96 57.5465 81.48H50.7465ZM88.4381 102L105.038 75.56L104.998 77.48H83.5581V72H111.158V77.44L95.9981 102H88.4381ZM119.14 102L135.74 75.56L135.7 77.48H114.26V72H141.86V77.44L126.7 102H119.14ZM145.198 102.36C144.478 102.36 143.812 102.187 143.198 101.84C142.612 101.493 142.145 101.027 141.798 100.44C141.452 99.8267 141.278 99.16 141.278 98.44C141.278 97.6933 141.452 97.0267 141.798 96.44C142.145 95.8267 142.612 95.3467 143.198 95C143.812 94.6533 144.478 94.48 145.198 94.48C145.945 94.48 146.612 94.6533 147.198 95C147.812 95.3467 148.292 95.8267 148.638 96.44C148.985 97.0267 149.158 97.6933 149.158 98.44C149.158 99.16 148.985 99.8267 148.638 100.44C148.292 101.027 147.812 101.493 147.198 101.84C146.612 102.187 145.945 102.36 145.198 102.36ZM154.49 81.48C154.65 79.5867 155.317 77.88 156.49 76.36C157.69 74.84 159.384 73.64 161.57 72.76C163.757 71.8533 166.384 71.4 169.45 71.4C172.144 71.4 174.477 71.7467 176.45 72.44C178.424 73.1333 179.957 74.0933 181.05 75.32C182.144 76.5467 182.69 78 182.69 79.68C182.69 81.04 182.277 82.28 181.45 83.4C180.65 84.4933 179.397 85.3733 177.69 86.04C175.984 86.68 173.824 86.9867 171.21 86.96V86.2C173.744 86.0667 175.904 86.2667 177.69 86.8C179.504 87.3067 180.904 88.1067 181.89 89.2C182.877 90.2933 183.37 91.6667 183.37 93.32C183.37 95.1067 182.797 96.7067 181.65 98.12C180.53 99.5067 178.89 100.6 176.73 101.4C174.57 102.2 171.944 102.6 168.85 102.6C165.837 102.6 163.21 102.173 160.97 101.32C158.73 100.467 156.984 99.2667 155.73 97.72C154.477 96.1733 153.797 94.36 153.69 92.28H160.49C160.704 93.88 161.504 95.1067 162.89 95.96C164.277 96.8133 166.264 97.24 168.85 97.24C171.357 97.24 173.25 96.8533 174.53 96.08C175.81 95.3067 176.45 94.2267 176.45 92.84C176.45 92.0133 176.237 91.32 175.81 90.76C175.384 90.2 174.65 89.7867 173.61 89.52C172.597 89.2267 171.21 89.08 169.45 89.08H164.17V84.32H169.45C171.744 84.32 173.384 83.9733 174.37 83.28C175.357 82.5867 175.85 81.6933 175.85 80.6C175.85 79.3733 175.29 78.4267 174.17 77.76C173.05 77.0933 171.357 76.76 169.09 76.76C166.77 76.76 164.957 77.1733 163.65 78C162.344 78.8 161.557 79.96 161.29 81.48H154.49Z" fill="#24408E"/>
<path d="M202.958 83V69.9091H207.969C208.915 69.9091 209.701 70.0582 210.328 70.3565C210.958 70.6506 211.429 71.0533 211.74 71.5646C212.056 72.076 212.213 72.6555 212.213 73.3033C212.213 73.8359 212.111 74.2919 211.907 74.6712C211.702 75.0462 211.427 75.3509 211.082 75.5852C210.737 75.8196 210.351 75.9879 209.925 76.0902V76.218C210.39 76.2436 210.835 76.3864 211.261 76.6463C211.691 76.902 212.043 77.2642 212.316 77.733C212.588 78.2017 212.725 78.7685 212.725 79.4332C212.725 80.1108 212.561 80.7202 212.233 81.2614C211.904 81.7983 211.41 82.2223 210.75 82.5334C210.089 82.8445 209.258 83 208.257 83H202.958ZM205.329 81.0185H207.88C208.74 81.0185 209.36 80.8544 209.74 80.5263C210.123 80.1939 210.315 79.7678 210.315 79.2479C210.315 78.8601 210.219 78.5107 210.027 78.1996C209.836 77.8842 209.563 77.6371 209.209 77.4581C208.855 77.2749 208.434 77.1832 207.943 77.1832H205.329V81.0185ZM205.329 75.4766H207.675C208.084 75.4766 208.453 75.402 208.781 75.2528C209.109 75.0994 209.367 74.8842 209.554 74.6072C209.746 74.326 209.842 73.9936 209.842 73.6101C209.842 73.103 209.663 72.6854 209.305 72.3572C208.951 72.0291 208.425 71.8651 207.726 71.8651H205.329V75.4766ZM217.159 69.9091V83H214.788V69.9091H217.159ZM219.727 83V69.9091H222.099V81.0121H227.864V83H219.727ZM229.923 83V69.9091H232.294V81.0121H238.06V83H229.923ZM242.489 69.9091V83H240.118V69.9091H242.489ZM256.755 76.4545C256.755 77.8651 256.491 79.0732 255.962 80.0788C255.438 81.0803 254.722 81.8473 253.814 82.38C252.911 82.9126 251.886 83.179 250.74 83.179C249.594 83.179 248.567 82.9126 247.659 82.38C246.755 81.843 246.04 81.0739 245.511 80.0724C244.987 79.0668 244.725 77.8608 244.725 76.4545C244.725 75.044 244.987 73.8381 245.511 72.8366C246.04 71.831 246.755 71.0618 247.659 70.5291C248.567 69.9964 249.594 69.7301 250.74 69.7301C251.886 69.7301 252.911 69.9964 253.814 70.5291C254.722 71.0618 255.438 71.831 255.962 72.8366C256.491 73.8381 256.755 75.044 256.755 76.4545ZM254.371 76.4545C254.371 75.4616 254.215 74.6243 253.904 73.9425C253.597 73.2564 253.171 72.7386 252.625 72.3892C252.08 72.0355 251.451 71.8587 250.74 71.8587C250.028 71.8587 249.4 72.0355 248.854 72.3892C248.309 72.7386 247.88 73.2564 247.569 73.9425C247.263 74.6243 247.109 75.4616 247.109 76.4545C247.109 77.4474 247.263 78.2869 247.569 78.973C247.88 79.6548 248.309 80.1726 248.854 80.5263C249.4 80.8757 250.028 81.0504 250.74 81.0504C251.451 81.0504 252.08 80.8757 252.625 80.5263C253.171 80.1726 253.597 79.6548 253.904 78.973C254.215 78.2869 254.371 77.4474 254.371 76.4545ZM269.755 69.9091V83H267.645L261.477 74.0831H261.368V83H258.997V69.9091H261.119L267.281 78.8324H267.396V69.9091H269.755ZM204.709 91.9091L208.116 102.213H208.25L211.651 91.9091H214.259L209.644 105H206.716L202.108 91.9091H204.709ZM226.741 91.9091V105H224.632L218.463 96.0831H218.355V105H215.983V91.9091H218.105L224.267 100.832H224.382V91.9091H226.741ZM233.761 105H229.325V91.9091H233.85C235.15 91.9091 236.267 92.1712 237.2 92.6953C238.137 93.2152 238.858 93.9631 239.36 94.9389C239.863 95.9148 240.115 97.0824 240.115 98.4418C240.115 99.8054 239.861 100.977 239.354 101.957C238.851 102.937 238.125 103.69 237.174 104.214C236.228 104.738 235.091 105 233.761 105ZM231.696 102.948H233.646C234.558 102.948 235.318 102.782 235.928 102.45C236.537 102.113 236.995 101.612 237.302 100.947C237.609 100.278 237.762 99.4432 237.762 98.4418C237.762 97.4403 237.609 96.6094 237.302 95.9489C236.995 95.2841 236.542 94.7876 235.941 94.4595C235.344 94.1271 234.603 93.9609 233.716 93.9609H231.696V102.948Z" fill="#24408E"/>
<path d="M53.6665 139.25L53.6665 143.75L60.6665 138.75L67.6665 143.75L67.6665 139.25L60.6665 134.25L53.6665 139.25Z" fill="#00A93C"/>
<path d="M53.6665 146.25L53.6665 150.75L60.6665 145.75L67.6665 150.75L67.6665 146.25L60.6665 141.25L53.6665 146.25Z" fill="#00A93C"/>
<path d="M88.4222 151.239C87.2517 151.239 86.2063 151.037 85.2858 150.634C84.371 150.23 83.6466 149.67 83.1125 148.955C82.5841 148.233 82.3 147.398 82.2603 146.449H84.9364C84.9705 146.966 85.1438 147.415 85.4563 147.795C85.7745 148.17 86.1892 148.46 86.7006 148.665C87.212 148.869 87.7801 148.972 88.4051 148.972C89.0926 148.972 89.7006 148.852 90.229 148.614C90.7631 148.375 91.1807 148.043 91.4818 147.616C91.783 147.185 91.9335 146.688 91.9335 146.125C91.9335 145.54 91.783 145.026 91.4818 144.582C91.1864 144.134 90.7517 143.781 90.1779 143.526C89.6097 143.27 88.9222 143.142 88.1154 143.142H86.6409V140.994H88.1154C88.7631 140.994 89.3313 140.878 89.8199 140.645C90.3142 140.412 90.7006 140.088 90.979 139.673C91.2574 139.253 91.3966 138.761 91.3966 138.199C91.3966 137.659 91.2745 137.19 91.0301 136.793C90.7915 136.389 90.4506 136.074 90.0074 135.847C89.5699 135.619 89.0529 135.506 88.4563 135.506C87.8881 135.506 87.3568 135.611 86.8625 135.821C86.3739 136.026 85.9762 136.321 85.6693 136.707C85.3625 137.088 85.1978 137.545 85.175 138.08H82.6267C82.6551 137.136 82.9335 136.307 83.462 135.591C83.996 134.875 84.7006 134.315 85.5756 133.912C86.4506 133.509 87.4222 133.307 88.4904 133.307C89.6097 133.307 90.5756 133.526 91.3881 133.963C92.2063 134.395 92.837 134.972 93.2801 135.693C93.729 136.415 93.9506 137.205 93.9449 138.062C93.9506 139.04 93.6779 139.869 93.1267 140.551C92.5813 141.233 91.854 141.69 90.9449 141.923V142.06C92.104 142.236 93.0017 142.696 93.6381 143.44C94.2801 144.185 94.5983 145.108 94.5926 146.21C94.5983 147.17 94.3313 148.031 93.7915 148.793C93.2574 149.554 92.5273 150.153 91.6012 150.591C90.675 151.023 89.6154 151.239 88.4222 151.239ZM103.891 151.29C102.544 151.284 101.394 150.929 100.439 150.224C99.4847 149.52 98.7546 148.494 98.2489 147.148C97.7432 145.801 97.4904 144.179 97.4904 142.281C97.4904 140.389 97.7432 138.773 98.2489 137.432C98.7603 136.091 99.4932 135.068 100.448 134.364C101.408 133.659 102.556 133.307 103.891 133.307C105.226 133.307 106.371 133.662 107.326 134.372C108.28 135.077 109.01 136.099 109.516 137.44C110.027 138.776 110.283 140.389 110.283 142.281C110.283 144.185 110.03 145.81 109.524 147.156C109.019 148.497 108.289 149.523 107.334 150.233C106.38 150.938 105.232 151.29 103.891 151.29ZM103.891 149.014C105.073 149.014 105.996 148.438 106.661 147.284C107.331 146.131 107.667 144.463 107.667 142.281C107.667 140.832 107.513 139.608 107.206 138.608C106.905 137.602 106.47 136.841 105.902 136.324C105.34 135.801 104.669 135.54 103.891 135.54C102.715 135.54 101.792 136.119 101.121 137.278C100.451 138.437 100.113 140.105 100.107 142.281C100.107 143.736 100.257 144.966 100.559 145.972C100.865 146.972 101.3 147.73 101.863 148.247C102.425 148.759 103.101 149.014 103.891 149.014ZM122.417 147.727V146.807C122.417 146.148 122.554 145.545 122.826 145C123.105 144.449 123.508 144.009 124.037 143.679C124.571 143.344 125.216 143.176 125.971 143.176C126.744 143.176 127.392 143.341 127.914 143.67C128.437 144 128.832 144.44 129.099 144.991C129.372 145.543 129.508 146.148 129.508 146.807V147.727C129.508 148.386 129.372 148.991 129.099 149.543C128.826 150.088 128.426 150.528 127.897 150.864C127.375 151.193 126.733 151.358 125.971 151.358C125.204 151.358 124.556 151.193 124.028 150.864C123.5 150.528 123.099 150.088 122.826 149.543C122.554 148.991 122.417 148.386 122.417 147.727ZM124.403 146.807V147.727C124.403 148.216 124.519 148.659 124.752 149.057C124.985 149.455 125.392 149.653 125.971 149.653C126.545 149.653 126.946 149.455 127.173 149.057C127.4 148.659 127.514 148.216 127.514 147.727V146.807C127.514 146.318 127.403 145.875 127.181 145.477C126.966 145.08 126.562 144.881 125.971 144.881C125.403 144.881 125 145.08 124.761 145.477C124.522 145.875 124.403 146.318 124.403 146.807ZM113.639 137.739V136.818C113.639 136.159 113.775 135.554 114.048 135.003C114.326 134.452 114.73 134.011 115.258 133.682C115.792 133.352 116.437 133.188 117.193 133.188C117.966 133.188 118.613 133.352 119.136 133.682C119.659 134.011 120.054 134.452 120.321 135.003C120.588 135.554 120.721 136.159 120.721 136.818V137.739C120.721 138.398 120.585 139.003 120.312 139.554C120.045 140.099 119.647 140.54 119.119 140.875C118.596 141.205 117.954 141.369 117.193 141.369C116.42 141.369 115.769 141.205 115.241 140.875C114.718 140.54 114.321 140.099 114.048 139.554C113.775 139.003 113.639 138.398 113.639 137.739ZM115.633 136.818V137.739C115.633 138.227 115.747 138.67 115.974 139.068C116.207 139.466 116.613 139.665 117.193 139.665C117.761 139.665 118.159 139.466 118.386 139.068C118.619 138.67 118.735 138.227 118.735 137.739V136.818C118.735 136.33 118.625 135.886 118.403 135.489C118.181 135.091 117.778 134.892 117.193 134.892C116.625 134.892 116.221 135.091 115.983 135.489C115.75 135.886 115.633 136.33 115.633 136.818ZM114.448 151L126.448 133.545H128.485L116.485 151H114.448Z" fill="#24408E"/>
<path d="M149.757 146.273C149.53 146.273 149.327 146.254 149.149 146.216C148.971 146.182 148.848 146.148 148.78 146.114L149.121 144.932C149.447 145.015 149.735 145.045 149.985 145.023C150.235 145 150.456 144.888 150.649 144.688C150.846 144.491 151.026 144.17 151.189 143.727L151.439 143.045L148.212 134.273H149.667L152.076 141.227H152.167L154.576 134.273H156.03L152.326 144.273C152.159 144.723 151.952 145.097 151.706 145.392C151.46 145.691 151.174 145.913 150.848 146.057C150.526 146.201 150.163 146.273 149.757 146.273ZM161.147 143.182C160.306 143.182 159.58 142.996 158.97 142.625C158.364 142.25 157.897 141.727 157.567 141.057C157.241 140.383 157.078 139.598 157.078 138.705C157.078 137.811 157.241 137.023 157.567 136.341C157.897 135.655 158.355 135.121 158.942 134.739C159.533 134.352 160.222 134.159 161.01 134.159C161.465 134.159 161.914 134.235 162.357 134.386C162.8 134.538 163.203 134.784 163.567 135.125C163.931 135.462 164.22 135.909 164.436 136.466C164.652 137.023 164.76 137.708 164.76 138.523V139.091H158.033V137.932H163.397C163.397 137.439 163.298 137 163.101 136.614C162.908 136.227 162.631 135.922 162.272 135.699C161.916 135.475 161.495 135.364 161.01 135.364C160.476 135.364 160.014 135.496 159.624 135.761C159.238 136.023 158.94 136.364 158.732 136.784C158.524 137.205 158.419 137.655 158.419 138.136V138.909C158.419 139.568 158.533 140.127 158.76 140.585C158.991 141.04 159.311 141.386 159.72 141.625C160.13 141.86 160.605 141.977 161.147 141.977C161.499 141.977 161.817 141.928 162.101 141.83C162.389 141.727 162.637 141.576 162.845 141.375C163.054 141.17 163.215 140.917 163.328 140.614L164.624 140.977C164.488 141.417 164.258 141.803 163.936 142.136C163.614 142.466 163.217 142.723 162.743 142.909C162.27 143.091 161.738 143.182 161.147 143.182ZM169.368 143.205C168.815 143.205 168.313 143.1 167.863 142.892C167.412 142.68 167.054 142.375 166.789 141.977C166.524 141.576 166.391 141.091 166.391 140.523C166.391 140.023 166.489 139.617 166.686 139.307C166.883 138.992 167.147 138.746 167.476 138.568C167.806 138.39 168.169 138.258 168.567 138.17C168.969 138.08 169.372 138.008 169.777 137.955C170.308 137.886 170.738 137.835 171.067 137.801C171.4 137.763 171.643 137.701 171.794 137.614C171.95 137.527 172.027 137.375 172.027 137.159V137.114C172.027 136.553 171.874 136.117 171.567 135.807C171.264 135.496 170.804 135.341 170.186 135.341C169.546 135.341 169.044 135.481 168.681 135.761C168.317 136.042 168.061 136.341 167.914 136.659L166.641 136.205C166.868 135.674 167.171 135.261 167.55 134.966C167.933 134.667 168.349 134.458 168.8 134.341C169.255 134.22 169.702 134.159 170.141 134.159C170.421 134.159 170.743 134.193 171.107 134.261C171.474 134.326 171.828 134.46 172.169 134.665C172.514 134.869 172.8 135.178 173.027 135.591C173.255 136.004 173.368 136.557 173.368 137.25V143H172.027V141.818H171.959C171.868 142.008 171.717 142.21 171.505 142.426C171.292 142.642 171.01 142.826 170.658 142.977C170.306 143.129 169.876 143.205 169.368 143.205ZM169.573 142C170.103 142 170.55 141.896 170.914 141.688C171.281 141.479 171.558 141.21 171.743 140.881C171.933 140.551 172.027 140.205 172.027 139.841V138.614C171.97 138.682 171.845 138.744 171.652 138.801C171.463 138.854 171.243 138.902 170.993 138.943C170.747 138.981 170.506 139.015 170.272 139.045C170.041 139.072 169.853 139.095 169.709 139.114C169.361 139.159 169.035 139.233 168.732 139.335C168.433 139.434 168.19 139.583 168.005 139.784C167.823 139.981 167.732 140.25 167.732 140.591C167.732 141.057 167.904 141.409 168.249 141.648C168.597 141.883 169.039 142 169.573 142ZM175.816 143V134.273H177.111V135.591H177.202C177.361 135.159 177.649 134.809 178.066 134.54C178.482 134.271 178.952 134.136 179.475 134.136C179.573 134.136 179.696 134.138 179.844 134.142C179.992 134.146 180.104 134.152 180.179 134.159V135.523C180.134 135.511 180.03 135.494 179.867 135.472C179.708 135.445 179.539 135.432 179.361 135.432C178.937 135.432 178.558 135.521 178.225 135.699C177.895 135.873 177.634 136.116 177.441 136.426C177.251 136.733 177.157 137.083 177.157 137.477V143H175.816ZM186.128 137.386V138.636H181.037V137.386H186.128ZM192.033 143.182C191.245 143.182 190.554 142.994 189.959 142.619C189.368 142.244 188.906 141.72 188.573 141.045C188.243 140.371 188.078 139.583 188.078 138.682C188.078 137.773 188.243 136.979 188.573 136.301C188.906 135.623 189.368 135.097 189.959 134.722C190.554 134.347 191.245 134.159 192.033 134.159C192.821 134.159 193.51 134.347 194.101 134.722C194.696 135.097 195.158 135.623 195.488 136.301C195.821 136.979 195.988 137.773 195.988 138.682C195.988 139.583 195.821 140.371 195.488 141.045C195.158 141.72 194.696 142.244 194.101 142.619C193.51 142.994 192.821 143.182 192.033 143.182ZM192.033 141.977C192.631 141.977 193.124 141.824 193.51 141.517C193.897 141.21 194.183 140.807 194.368 140.307C194.554 139.807 194.647 139.265 194.647 138.682C194.647 138.098 194.554 137.555 194.368 137.051C194.183 136.547 193.897 136.14 193.51 135.83C193.124 135.519 192.631 135.364 192.033 135.364C191.434 135.364 190.942 135.519 190.556 135.83C190.169 136.14 189.883 136.547 189.698 137.051C189.512 137.555 189.419 138.098 189.419 138.682C189.419 139.265 189.512 139.807 189.698 140.307C189.883 140.807 190.169 141.21 190.556 141.517C190.942 141.824 191.434 141.977 192.033 141.977ZM199.375 137.75V143H198.034V134.273H199.33V135.636H199.443C199.648 135.193 199.959 134.837 200.375 134.568C200.792 134.295 201.33 134.159 201.989 134.159C202.58 134.159 203.097 134.28 203.54 134.523C203.983 134.761 204.328 135.125 204.574 135.614C204.82 136.098 204.943 136.712 204.943 137.455V143H203.603V137.545C203.603 136.86 203.425 136.326 203.068 135.943C202.712 135.557 202.224 135.364 201.603 135.364C201.175 135.364 200.792 135.456 200.455 135.642C200.122 135.828 199.858 136.098 199.665 136.455C199.472 136.811 199.375 137.242 199.375 137.75ZM212.394 137.386V138.636H207.303V137.386H212.394ZM215.617 146.273C215.39 146.273 215.187 146.254 215.009 146.216C214.831 146.182 214.708 146.148 214.64 146.114L214.98 144.932C215.306 145.015 215.594 145.045 215.844 145.023C216.094 145 216.316 144.888 216.509 144.688C216.706 144.491 216.886 144.17 217.049 143.727L217.299 143.045L214.071 134.273H215.526L217.935 141.227H218.026L220.435 134.273H221.89L218.185 144.273C218.018 144.723 217.812 145.097 217.566 145.392C217.319 145.691 217.033 145.913 216.708 146.057C216.386 146.201 216.022 146.273 215.617 146.273ZM227.006 143.182C226.165 143.182 225.44 142.996 224.83 142.625C224.224 142.25 223.756 141.727 223.426 141.057C223.101 140.383 222.938 139.598 222.938 138.705C222.938 137.811 223.101 137.023 223.426 136.341C223.756 135.655 224.214 135.121 224.801 134.739C225.392 134.352 226.082 134.159 226.87 134.159C227.324 134.159 227.773 134.235 228.216 134.386C228.659 134.538 229.063 134.784 229.426 135.125C229.79 135.462 230.08 135.909 230.296 136.466C230.512 137.023 230.62 137.708 230.62 138.523V139.091H223.892V137.932H229.256C229.256 137.439 229.158 137 228.961 136.614C228.767 136.227 228.491 135.922 228.131 135.699C227.775 135.475 227.354 135.364 226.87 135.364C226.336 135.364 225.873 135.496 225.483 135.761C225.097 136.023 224.8 136.364 224.591 136.784C224.383 137.205 224.279 137.655 224.279 138.136V138.909C224.279 139.568 224.392 140.127 224.62 140.585C224.851 141.04 225.171 141.386 225.58 141.625C225.989 141.86 226.464 141.977 227.006 141.977C227.358 141.977 227.676 141.928 227.961 141.83C228.248 141.727 228.497 141.576 228.705 141.375C228.913 141.17 229.074 140.917 229.188 140.614L230.483 140.977C230.347 141.417 230.118 141.803 229.796 142.136C229.474 142.466 229.076 142.723 228.603 142.909C228.129 143.091 227.597 143.182 227.006 143.182ZM235.228 143.205C234.675 143.205 234.173 143.1 233.722 142.892C233.271 142.68 232.913 142.375 232.648 141.977C232.383 141.576 232.25 141.091 232.25 140.523C232.25 140.023 232.349 139.617 232.546 139.307C232.743 138.992 233.006 138.746 233.336 138.568C233.665 138.39 234.029 138.258 234.426 138.17C234.828 138.08 235.231 138.008 235.637 137.955C236.167 137.886 236.597 137.835 236.926 137.801C237.26 137.763 237.502 137.701 237.654 137.614C237.809 137.527 237.887 137.375 237.887 137.159V137.114C237.887 136.553 237.733 136.117 237.426 135.807C237.123 135.496 236.663 135.341 236.046 135.341C235.406 135.341 234.904 135.481 234.54 135.761C234.176 136.042 233.921 136.341 233.773 136.659L232.5 136.205C232.728 135.674 233.031 135.261 233.409 134.966C233.792 134.667 234.209 134.458 234.659 134.341C235.114 134.22 235.561 134.159 236 134.159C236.281 134.159 236.603 134.193 236.966 134.261C237.334 134.326 237.688 134.46 238.029 134.665C238.373 134.869 238.659 135.178 238.887 135.591C239.114 136.004 239.228 136.557 239.228 137.25V143H237.887V141.818H237.818C237.728 142.008 237.576 142.21 237.364 142.426C237.152 142.642 236.87 142.826 236.517 142.977C236.165 143.129 235.735 143.205 235.228 143.205ZM235.432 142C235.962 142 236.409 141.896 236.773 141.688C237.14 141.479 237.417 141.21 237.603 140.881C237.792 140.551 237.887 140.205 237.887 139.841V138.614C237.83 138.682 237.705 138.744 237.512 138.801C237.322 138.854 237.103 138.902 236.853 138.943C236.606 138.981 236.366 139.015 236.131 139.045C235.9 139.072 235.712 139.095 235.568 139.114C235.22 139.159 234.894 139.233 234.591 139.335C234.292 139.434 234.05 139.583 233.864 139.784C233.682 139.981 233.591 140.25 233.591 140.591C233.591 141.057 233.764 141.409 234.108 141.648C234.457 141.883 234.898 142 235.432 142ZM241.675 143V134.273H242.97V135.591H243.061C243.22 135.159 243.508 134.809 243.925 134.54C244.342 134.271 244.811 134.136 245.334 134.136C245.433 134.136 245.556 134.138 245.703 134.142C245.851 134.146 245.963 134.152 246.039 134.159V135.523C245.993 135.511 245.889 135.494 245.726 135.472C245.567 135.445 245.399 135.432 245.22 135.432C244.796 135.432 244.417 135.521 244.084 135.699C243.755 135.873 243.493 136.116 243.3 136.426C243.111 136.733 243.016 137.083 243.016 137.477V143H241.675ZM248.628 141.409L248.537 142.023C248.473 142.455 248.374 142.917 248.242 143.409C248.113 143.902 247.979 144.366 247.838 144.801C247.698 145.237 247.583 145.583 247.492 145.841H246.469C246.518 145.598 246.583 145.278 246.662 144.881C246.742 144.483 246.821 144.038 246.901 143.545C246.984 143.057 247.052 142.557 247.105 142.045L247.174 141.409H248.628ZM258.181 143.205C257.628 143.205 257.126 143.1 256.675 142.892C256.224 142.68 255.866 142.375 255.601 141.977C255.336 141.576 255.203 141.091 255.203 140.523C255.203 140.023 255.302 139.617 255.499 139.307C255.696 138.992 255.959 138.746 256.289 138.568C256.618 138.39 256.982 138.258 257.38 138.17C257.781 138.08 258.184 138.008 258.59 137.955C259.12 137.886 259.55 137.835 259.88 137.801C260.213 137.763 260.455 137.701 260.607 137.614C260.762 137.527 260.84 137.375 260.84 137.159V137.114C260.84 136.553 260.686 136.117 260.38 135.807C260.077 135.496 259.616 135.341 258.999 135.341C258.359 135.341 257.857 135.481 257.493 135.761C257.13 136.042 256.874 136.341 256.726 136.659L255.453 136.205C255.681 135.674 255.984 135.261 256.363 134.966C256.745 134.667 257.162 134.458 257.613 134.341C258.067 134.22 258.514 134.159 258.953 134.159C259.234 134.159 259.556 134.193 259.919 134.261C260.287 134.326 260.641 134.46 260.982 134.665C261.327 134.869 261.613 135.178 261.84 135.591C262.067 136.004 262.181 136.557 262.181 137.25V143H260.84V141.818H260.772C260.681 142.008 260.529 142.21 260.317 142.426C260.105 142.642 259.823 142.826 259.47 142.977C259.118 143.129 258.688 143.205 258.181 143.205ZM258.385 142C258.916 142 259.363 141.896 259.726 141.688C260.094 141.479 260.37 141.21 260.556 140.881C260.745 140.551 260.84 140.205 260.84 139.841V138.614C260.783 138.682 260.658 138.744 260.465 138.801C260.275 138.854 260.056 138.902 259.806 138.943C259.559 138.981 259.319 139.015 259.084 139.045C258.853 139.072 258.666 139.095 258.522 139.114C258.173 139.159 257.847 139.233 257.544 139.335C257.245 139.434 257.003 139.583 256.817 139.784C256.635 139.981 256.544 140.25 256.544 140.591C256.544 141.057 256.717 141.409 257.061 141.648C257.41 141.883 257.851 142 258.385 142ZM265.969 137.75V143H264.628V134.273H265.924V135.636H266.037C266.242 135.193 266.552 134.837 266.969 134.568C267.386 134.295 267.924 134.159 268.583 134.159C269.174 134.159 269.691 134.28 270.134 134.523C270.577 134.761 270.922 135.125 271.168 135.614C271.414 136.098 271.537 136.712 271.537 137.455V143H270.196V137.545C270.196 136.86 270.018 136.326 269.662 135.943C269.306 135.557 268.818 135.364 268.196 135.364C267.768 135.364 267.386 135.456 267.049 135.642C266.715 135.828 266.452 136.098 266.259 136.455C266.066 136.811 265.969 137.242 265.969 137.75ZM277.283 143.182C276.556 143.182 275.914 142.998 275.357 142.631C274.8 142.259 274.364 141.737 274.05 141.062C273.736 140.384 273.578 139.583 273.578 138.659C273.578 137.742 273.736 136.947 274.05 136.273C274.364 135.598 274.802 135.078 275.363 134.71C275.923 134.343 276.571 134.159 277.306 134.159C277.874 134.159 278.323 134.254 278.652 134.443C278.986 134.629 279.239 134.841 279.414 135.08C279.592 135.314 279.73 135.508 279.828 135.659H279.942V131.364H281.283V143H279.988V141.659H279.828C279.73 141.818 279.59 142.019 279.408 142.261C279.226 142.5 278.967 142.714 278.63 142.903C278.292 143.089 277.844 143.182 277.283 143.182ZM277.465 141.977C278.003 141.977 278.457 141.837 278.828 141.557C279.2 141.273 279.482 140.881 279.675 140.381C279.868 139.877 279.965 139.295 279.965 138.636C279.965 137.985 279.87 137.415 279.681 136.926C279.491 136.434 279.211 136.051 278.84 135.778C278.469 135.502 278.01 135.364 277.465 135.364C276.897 135.364 276.423 135.509 276.044 135.801C275.669 136.089 275.387 136.481 275.198 136.977C275.012 137.47 274.919 138.023 274.919 138.636C274.919 139.258 275.014 139.822 275.203 140.33C275.397 140.833 275.681 141.235 276.056 141.534C276.434 141.83 276.904 141.977 277.465 141.977ZM292.13 143.159C291.349 143.159 290.66 143.021 290.061 142.744C289.467 142.464 289.003 142.08 288.669 141.591C288.336 141.098 288.171 140.538 288.175 139.909C288.171 139.417 288.268 138.962 288.465 138.545C288.662 138.125 288.931 137.775 289.272 137.494C289.616 137.21 290.001 137.03 290.425 136.955V136.886C289.868 136.742 289.425 136.43 289.095 135.949C288.766 135.464 288.603 134.913 288.607 134.295C288.603 133.705 288.753 133.176 289.056 132.71C289.359 132.244 289.775 131.877 290.306 131.608C290.84 131.339 291.448 131.205 292.13 131.205C292.804 131.205 293.406 131.339 293.936 131.608C294.467 131.877 294.883 132.244 295.186 132.71C295.493 133.176 295.649 133.705 295.652 134.295C295.649 134.913 295.48 135.464 295.147 135.949C294.817 136.43 294.38 136.742 293.834 136.886V136.955C294.255 137.03 294.633 137.21 294.97 137.494C295.308 137.775 295.577 138.125 295.777 138.545C295.978 138.962 296.08 139.417 296.084 139.909C296.08 140.538 295.91 141.098 295.573 141.591C295.239 142.08 294.775 142.464 294.181 142.744C293.59 143.021 292.906 143.159 292.13 143.159ZM292.13 141.909C292.656 141.909 293.111 141.824 293.493 141.653C293.876 141.483 294.171 141.242 294.38 140.932C294.588 140.621 294.694 140.258 294.698 139.841C294.694 139.402 294.58 139.013 294.357 138.676C294.133 138.339 293.828 138.074 293.442 137.881C293.059 137.687 292.622 137.591 292.13 137.591C291.633 137.591 291.19 137.687 290.8 137.881C290.414 138.074 290.109 138.339 289.885 138.676C289.666 139.013 289.558 139.402 289.561 139.841C289.558 140.258 289.658 140.621 289.863 140.932C290.071 141.242 290.368 141.483 290.755 141.653C291.141 141.824 291.599 141.909 292.13 141.909ZM292.13 136.386C292.546 136.386 292.916 136.303 293.238 136.136C293.563 135.97 293.819 135.737 294.005 135.438C294.19 135.138 294.285 134.788 294.289 134.386C294.285 133.992 294.192 133.65 294.01 133.358C293.828 133.062 293.577 132.835 293.255 132.676C292.933 132.513 292.558 132.432 292.13 132.432C291.694 132.432 291.313 132.513 290.988 132.676C290.662 132.835 290.41 133.062 290.232 133.358C290.054 133.65 289.967 133.992 289.97 134.386C289.967 134.788 290.056 135.138 290.238 135.438C290.423 135.737 290.679 135.97 291.005 136.136C291.33 136.303 291.705 136.386 292.13 136.386ZM304.193 140.818V140.205C304.193 139.78 304.281 139.392 304.455 139.04C304.633 138.684 304.89 138.4 305.228 138.188C305.568 137.972 305.981 137.864 306.466 137.864C306.959 137.864 307.372 137.972 307.705 138.188C308.038 138.4 308.29 138.684 308.461 139.04C308.631 139.392 308.716 139.78 308.716 140.205V140.818C308.716 141.242 308.629 141.633 308.455 141.989C308.284 142.341 308.031 142.625 307.693 142.841C307.36 143.053 306.951 143.159 306.466 143.159C305.974 143.159 305.559 143.053 305.222 142.841C304.885 142.625 304.629 142.341 304.455 141.989C304.281 141.633 304.193 141.242 304.193 140.818ZM305.353 140.205V140.818C305.353 141.17 305.436 141.487 305.603 141.767C305.769 142.044 306.057 142.182 306.466 142.182C306.864 142.182 307.144 142.044 307.307 141.767C307.474 141.487 307.557 141.17 307.557 140.818V140.205C307.557 139.852 307.478 139.538 307.318 139.261C307.159 138.981 306.875 138.841 306.466 138.841C306.068 138.841 305.783 138.981 305.608 139.261C305.438 139.538 305.353 139.852 305.353 140.205ZM298.398 134.159V133.545C298.398 133.121 298.485 132.733 298.659 132.381C298.837 132.025 299.095 131.741 299.432 131.528C299.773 131.312 300.186 131.205 300.671 131.205C301.163 131.205 301.576 131.312 301.909 131.528C302.243 131.741 302.495 132.025 302.665 132.381C302.836 132.733 302.921 133.121 302.921 133.545V134.159C302.921 134.583 302.834 134.973 302.659 135.33C302.489 135.682 302.235 135.966 301.898 136.182C301.565 136.394 301.156 136.5 300.671 136.5C300.178 136.5 299.764 136.394 299.426 136.182C299.089 135.966 298.834 135.682 298.659 135.33C298.485 134.973 298.398 134.583 298.398 134.159ZM299.557 133.545V134.159C299.557 134.511 299.64 134.828 299.807 135.108C299.974 135.384 300.262 135.523 300.671 135.523C301.068 135.523 301.349 135.384 301.512 135.108C301.678 134.828 301.762 134.511 301.762 134.159V133.545C301.762 133.193 301.682 132.879 301.523 132.602C301.364 132.322 301.08 132.182 300.671 132.182C300.273 132.182 299.987 132.322 299.813 132.602C299.642 132.879 299.557 133.193 299.557 133.545ZM298.83 143L306.83 131.364H308.125L300.125 143H298.83ZM151.462 162.205C150.909 162.205 150.407 162.1 149.956 161.892C149.506 161.68 149.148 161.375 148.882 160.977C148.617 160.576 148.485 160.091 148.485 159.523C148.485 159.023 148.583 158.617 148.78 158.307C148.977 157.992 149.24 157.746 149.57 157.568C149.899 157.39 150.263 157.258 150.661 157.17C151.062 157.08 151.466 157.008 151.871 156.955C152.401 156.886 152.831 156.835 153.161 156.801C153.494 156.763 153.737 156.701 153.888 156.614C154.043 156.527 154.121 156.375 154.121 156.159V156.114C154.121 155.553 153.968 155.117 153.661 154.807C153.358 154.496 152.898 154.341 152.28 154.341C151.64 154.341 151.138 154.481 150.774 154.761C150.411 155.042 150.155 155.341 150.007 155.659L148.735 155.205C148.962 154.674 149.265 154.261 149.644 153.966C150.026 153.667 150.443 153.458 150.894 153.341C151.348 153.22 151.795 153.159 152.235 153.159C152.515 153.159 152.837 153.193 153.201 153.261C153.568 153.326 153.922 153.46 154.263 153.665C154.608 153.869 154.894 154.178 155.121 154.591C155.348 155.004 155.462 155.557 155.462 156.25V162H154.121V160.818H154.053C153.962 161.008 153.81 161.21 153.598 161.426C153.386 161.642 153.104 161.826 152.752 161.977C152.399 162.129 151.97 162.205 151.462 162.205ZM151.667 161C152.197 161 152.644 160.896 153.007 160.688C153.375 160.479 153.651 160.21 153.837 159.881C154.026 159.551 154.121 159.205 154.121 158.841V157.614C154.064 157.682 153.939 157.744 153.746 157.801C153.557 157.854 153.337 157.902 153.087 157.943C152.841 157.981 152.6 158.015 152.365 158.045C152.134 158.072 151.947 158.095 151.803 158.114C151.454 158.159 151.129 158.233 150.826 158.335C150.526 158.434 150.284 158.583 150.098 158.784C149.917 158.981 149.826 159.25 149.826 159.591C149.826 160.057 149.998 160.409 150.343 160.648C150.691 160.883 151.132 161 151.667 161ZM158.091 162V150.364H159.432V154.659H159.546C159.644 154.508 159.781 154.314 159.955 154.08C160.133 153.841 160.387 153.629 160.716 153.443C161.05 153.254 161.5 153.159 162.068 153.159C162.803 153.159 163.451 153.343 164.012 153.71C164.572 154.078 165.01 154.598 165.324 155.273C165.639 155.947 165.796 156.742 165.796 157.659C165.796 158.583 165.639 159.384 165.324 160.062C165.01 160.737 164.574 161.259 164.017 161.631C163.461 161.998 162.818 162.182 162.091 162.182C161.531 162.182 161.082 162.089 160.745 161.903C160.408 161.714 160.148 161.5 159.966 161.261C159.784 161.019 159.644 160.818 159.546 160.659H159.387V162H158.091ZM159.409 157.636C159.409 158.295 159.506 158.877 159.699 159.381C159.892 159.881 160.175 160.273 160.546 160.557C160.917 160.837 161.372 160.977 161.909 160.977C162.47 160.977 162.938 160.83 163.313 160.534C163.692 160.235 163.976 159.833 164.165 159.33C164.358 158.822 164.455 158.258 164.455 157.636C164.455 157.023 164.36 156.47 164.171 155.977C163.985 155.481 163.703 155.089 163.324 154.801C162.949 154.509 162.478 154.364 161.909 154.364C161.364 154.364 160.906 154.502 160.534 154.778C160.163 155.051 159.883 155.434 159.693 155.926C159.504 156.415 159.409 156.985 159.409 157.636ZM171.392 162.182C170.604 162.182 169.913 161.994 169.318 161.619C168.728 161.244 168.265 160.72 167.932 160.045C167.603 159.371 167.438 158.583 167.438 157.682C167.438 156.773 167.603 155.979 167.932 155.301C168.265 154.623 168.728 154.097 169.318 153.722C169.913 153.347 170.604 153.159 171.392 153.159C172.18 153.159 172.87 153.347 173.461 153.722C174.055 154.097 174.517 154.623 174.847 155.301C175.18 155.979 175.347 156.773 175.347 157.682C175.347 158.583 175.18 159.371 174.847 160.045C174.517 160.72 174.055 161.244 173.461 161.619C172.87 161.994 172.18 162.182 171.392 162.182ZM171.392 160.977C171.991 160.977 172.483 160.824 172.87 160.517C173.256 160.21 173.542 159.807 173.728 159.307C173.913 158.807 174.006 158.265 174.006 157.682C174.006 157.098 173.913 156.555 173.728 156.051C173.542 155.547 173.256 155.14 172.87 154.83C172.483 154.519 171.991 154.364 171.392 154.364C170.794 154.364 170.301 154.519 169.915 154.83C169.529 155.14 169.243 155.547 169.057 156.051C168.872 156.555 168.779 157.098 168.779 157.682C168.779 158.265 168.872 158.807 169.057 159.307C169.243 159.807 169.529 160.21 169.915 160.517C170.301 160.824 170.794 160.977 171.392 160.977ZM184.218 153.273L180.99 162H179.627L176.399 153.273H177.854L180.263 160.227H180.354L182.763 153.273H184.218ZM189.334 162.182C188.493 162.182 187.768 161.996 187.158 161.625C186.552 161.25 186.084 160.727 185.755 160.057C185.429 159.383 185.266 158.598 185.266 157.705C185.266 156.811 185.429 156.023 185.755 155.341C186.084 154.655 186.542 154.121 187.13 153.739C187.72 153.352 188.41 153.159 189.198 153.159C189.652 153.159 190.101 153.235 190.544 153.386C190.988 153.538 191.391 153.784 191.755 154.125C192.118 154.462 192.408 154.909 192.624 155.466C192.84 156.023 192.948 156.708 192.948 157.523V158.091H186.22V156.932H191.584C191.584 156.439 191.486 156 191.289 155.614C191.095 155.227 190.819 154.922 190.459 154.699C190.103 154.475 189.683 154.364 189.198 154.364C188.664 154.364 188.202 154.496 187.811 154.761C187.425 155.023 187.128 155.364 186.919 155.784C186.711 156.205 186.607 156.655 186.607 157.136V157.909C186.607 158.568 186.72 159.127 186.948 159.585C187.179 160.04 187.499 160.386 187.908 160.625C188.317 160.86 188.792 160.977 189.334 160.977C189.686 160.977 190.005 160.928 190.289 160.83C190.577 160.727 190.825 160.576 191.033 160.375C191.241 160.17 191.402 159.917 191.516 159.614L192.811 159.977C192.675 160.417 192.446 160.803 192.124 161.136C191.802 161.466 191.404 161.723 190.931 161.909C190.457 162.091 189.925 162.182 189.334 162.182ZM199.669 162V150.364H201.01V154.659H201.124C201.222 154.508 201.359 154.314 201.533 154.08C201.711 153.841 201.965 153.629 202.294 153.443C202.628 153.254 203.078 153.159 203.647 153.159C204.381 153.159 205.029 153.343 205.59 153.71C206.15 154.078 206.588 154.598 206.902 155.273C207.217 155.947 207.374 156.742 207.374 157.659C207.374 158.583 207.217 159.384 206.902 160.062C206.588 160.737 206.152 161.259 205.595 161.631C205.039 161.998 204.397 162.182 203.669 162.182C203.109 162.182 202.66 162.089 202.323 161.903C201.986 161.714 201.726 161.5 201.544 161.261C201.363 161.019 201.222 160.818 201.124 160.659H200.965V162H199.669ZM200.988 157.636C200.988 158.295 201.084 158.877 201.277 159.381C201.47 159.881 201.753 160.273 202.124 160.557C202.495 160.837 202.95 160.977 203.488 160.977C204.048 160.977 204.516 160.83 204.891 160.534C205.27 160.235 205.554 159.833 205.743 159.33C205.936 158.822 206.033 158.258 206.033 157.636C206.033 157.023 205.938 156.47 205.749 155.977C205.563 155.481 205.281 155.089 204.902 154.801C204.527 154.509 204.056 154.364 203.488 154.364C202.942 154.364 202.484 154.502 202.113 154.778C201.741 155.051 201.461 155.434 201.272 155.926C201.082 156.415 200.988 156.985 200.988 157.636ZM214.925 158.432V153.273H216.266V162H214.925V160.523H214.834C214.63 160.966 214.311 161.343 213.88 161.653C213.448 161.96 212.902 162.114 212.243 162.114C211.698 162.114 211.213 161.994 210.789 161.756C210.364 161.513 210.031 161.15 209.789 160.665C209.546 160.176 209.425 159.561 209.425 158.818V153.273H210.766V158.727C210.766 159.364 210.944 159.871 211.3 160.25C211.66 160.629 212.118 160.818 212.675 160.818C213.008 160.818 213.347 160.733 213.692 160.562C214.041 160.392 214.332 160.131 214.567 159.778C214.806 159.426 214.925 158.977 214.925 158.432ZM222.017 162.182C221.29 162.182 220.648 161.998 220.091 161.631C219.534 161.259 219.099 160.737 218.784 160.062C218.47 159.384 218.313 158.583 218.313 157.659C218.313 156.742 218.47 155.947 218.784 155.273C219.099 154.598 219.536 154.078 220.097 153.71C220.658 153.343 221.305 153.159 222.04 153.159C222.608 153.159 223.057 153.254 223.387 153.443C223.72 153.629 223.974 153.841 224.148 154.08C224.326 154.314 224.464 154.508 224.563 154.659H224.676V150.364H226.017V162H224.722V160.659H224.563C224.464 160.818 224.324 161.019 224.142 161.261C223.961 161.5 223.701 161.714 223.364 161.903C223.027 162.089 222.578 162.182 222.017 162.182ZM222.199 160.977C222.737 160.977 223.192 160.837 223.563 160.557C223.934 160.273 224.216 159.881 224.409 159.381C224.603 158.877 224.699 158.295 224.699 157.636C224.699 156.985 224.604 156.415 224.415 155.926C224.226 155.434 223.945 155.051 223.574 154.778C223.203 154.502 222.745 154.364 222.199 154.364C221.631 154.364 221.158 154.509 220.779 154.801C220.404 155.089 220.122 155.481 219.932 155.977C219.747 156.47 219.654 157.023 219.654 157.636C219.654 158.258 219.748 158.822 219.938 159.33C220.131 159.833 220.415 160.235 220.79 160.534C221.169 160.83 221.639 160.977 222.199 160.977ZM232.182 165.455C231.534 165.455 230.978 165.371 230.512 165.205C230.046 165.042 229.658 164.826 229.347 164.557C229.04 164.292 228.796 164.008 228.614 163.705L229.682 162.955C229.803 163.114 229.957 163.295 230.142 163.5C230.328 163.708 230.582 163.888 230.904 164.04C231.229 164.195 231.656 164.273 232.182 164.273C232.887 164.273 233.468 164.102 233.926 163.761C234.385 163.42 234.614 162.886 234.614 162.159V160.386H234.5C234.402 160.545 234.262 160.742 234.08 160.977C233.902 161.208 233.644 161.415 233.307 161.597C232.974 161.775 232.523 161.864 231.955 161.864C231.25 161.864 230.618 161.697 230.057 161.364C229.5 161.03 229.059 160.545 228.733 159.909C228.411 159.273 228.25 158.5 228.25 157.591C228.25 156.697 228.408 155.919 228.722 155.256C229.036 154.589 229.474 154.074 230.034 153.71C230.595 153.343 231.243 153.159 231.978 153.159C232.546 153.159 232.997 153.254 233.33 153.443C233.667 153.629 233.925 153.841 234.103 154.08C234.284 154.314 234.425 154.508 234.523 154.659H234.659V153.273H235.955V162.25C235.955 163 235.784 163.61 235.443 164.08C235.106 164.553 234.652 164.9 234.08 165.119C233.512 165.343 232.879 165.455 232.182 165.455ZM232.137 160.659C232.675 160.659 233.129 160.536 233.5 160.29C233.872 160.044 234.154 159.689 234.347 159.227C234.54 158.765 234.637 158.212 234.637 157.568C234.637 156.939 234.542 156.384 234.353 155.903C234.163 155.422 233.883 155.045 233.512 154.773C233.14 154.5 232.682 154.364 232.137 154.364C231.568 154.364 231.095 154.508 230.716 154.795C230.341 155.083 230.059 155.47 229.87 155.955C229.684 156.439 229.591 156.977 229.591 157.568C229.591 158.174 229.686 158.71 229.875 159.176C230.068 159.638 230.353 160.002 230.728 160.267C231.106 160.528 231.576 160.659 232.137 160.659ZM242.068 162.182C241.228 162.182 240.502 161.996 239.892 161.625C239.286 161.25 238.818 160.727 238.489 160.057C238.163 159.383 238 158.598 238 157.705C238 156.811 238.163 156.023 238.489 155.341C238.818 154.655 239.277 154.121 239.864 153.739C240.455 153.352 241.144 153.159 241.932 153.159C242.387 153.159 242.836 153.235 243.279 153.386C243.722 153.538 244.125 153.784 244.489 154.125C244.853 154.462 245.142 154.909 245.358 155.466C245.574 156.023 245.682 156.708 245.682 157.523V158.091H238.955V156.932H244.318C244.318 156.439 244.22 156 244.023 155.614C243.83 155.227 243.553 154.922 243.193 154.699C242.837 154.475 242.417 154.364 241.932 154.364C241.398 154.364 240.936 154.496 240.546 154.761C240.159 155.023 239.862 155.364 239.654 155.784C239.445 156.205 239.341 156.655 239.341 157.136V157.909C239.341 158.568 239.455 159.127 239.682 159.585C239.913 160.04 240.233 160.386 240.642 160.625C241.051 160.86 241.527 160.977 242.068 160.977C242.421 160.977 242.739 160.928 243.023 160.83C243.311 160.727 243.559 160.576 243.767 160.375C243.976 160.17 244.137 159.917 244.25 159.614L245.546 159.977C245.409 160.417 245.18 160.803 244.858 161.136C244.536 161.466 244.139 161.723 243.665 161.909C243.192 162.091 242.659 162.182 242.068 162.182ZM251.517 153.273V154.409H246.995V153.273H251.517ZM248.313 151.182H249.654V159.5C249.654 159.879 249.709 160.163 249.818 160.352C249.932 160.538 250.076 160.663 250.25 160.727C250.428 160.788 250.616 160.818 250.813 160.818C250.961 160.818 251.082 160.811 251.176 160.795C251.271 160.777 251.347 160.761 251.404 160.75L251.676 161.955C251.586 161.989 251.459 162.023 251.296 162.057C251.133 162.095 250.926 162.114 250.676 162.114C250.298 162.114 249.926 162.032 249.563 161.869C249.203 161.706 248.904 161.458 248.665 161.125C248.43 160.792 248.313 160.371 248.313 159.864V151.182Z" fill="#24408E"/>
</svg>
