<svg width="100%" viewBox="0 0 341 84" fill="none" xmlns="http://www.w3.org/2000/svg">
<path d="M1.58141 0.909091V14H0.386097V0.909091H1.58141ZM4.82537 14V4.18182H5.9312V5.69034H6.03347C6.22949 5.18324 6.55549 4.7848 7.01145 4.49503C7.47168 4.20099 8.02353 4.05398 8.66699 4.05398C9.34455 4.05398 9.90066 4.21378 10.3353 4.53338C10.7742 4.84872 11.1024 5.28338 11.3197 5.83736H11.4028C11.6244 5.2919 11.9845 4.85937 12.483 4.53977C12.9859 4.21591 13.5953 4.05398 14.3112 4.05398C15.2231 4.05398 15.9433 4.34162 16.4717 4.9169C17.0001 5.48793 17.2643 6.32315 17.2643 7.42259V14H16.1265V7.42259C16.1265 6.64702 15.9284 6.06534 15.532 5.67756C15.1357 5.28977 14.6137 5.09588 13.966 5.09588C13.216 5.09588 12.6386 5.32599 12.2338 5.78622C11.8289 6.24645 11.6265 6.83026 11.6265 7.53764V14H10.4632V7.32031C10.4632 6.65554 10.2778 6.11861 9.90705 5.70952C9.53631 5.30043 9.01429 5.09588 8.341 5.09588C7.88929 5.09588 7.48233 5.20668 7.12012 5.42827C6.76216 5.64986 6.47878 5.95881 6.26998 6.35511C6.06543 6.74716 5.96316 7.19886 5.96316 7.71023V14H4.82537ZM24.246 14.2045C23.3298 14.2045 22.5372 13.9915 21.8682 13.5653C21.1991 13.1349 20.6814 12.5405 20.3149 11.782C19.9527 11.0192 19.7716 10.1413 19.7716 9.14844C19.7716 8.1598 19.9527 7.28196 20.3149 6.51491C20.6814 5.74361 21.1863 5.14062 21.8298 4.70597C22.4775 4.26705 23.2254 4.04759 24.0734 4.04759C24.6061 4.04759 25.1196 4.1456 25.6139 4.34162C26.1082 4.53338 26.5514 4.82954 26.9434 5.23011C27.3398 5.62642 27.653 6.12713 27.8831 6.73224C28.1132 7.3331 28.2282 8.04474 28.2282 8.86719V9.42969H20.5578V8.42614H27.0649C27.0649 7.79545 26.9371 7.22869 26.6814 6.72585C26.43 6.21875 26.0784 5.81818 25.6267 5.52415C25.1792 5.23011 24.6615 5.0831 24.0734 5.0831C23.4513 5.0831 22.9037 5.24929 22.4307 5.58168C21.9577 5.91406 21.5869 6.35298 21.3184 6.89844C21.0542 7.44389 20.92 8.04048 20.9157 8.68821V9.28906C20.9157 10.0689 21.05 10.7507 21.3184 11.3345C21.5912 11.9141 21.9768 12.3636 22.4754 12.6832C22.974 13.0028 23.5642 13.1626 24.246 13.1626C24.7105 13.1626 25.1175 13.0902 25.4669 12.9453C25.8206 12.8004 26.1167 12.6065 26.3554 12.3636C26.5983 12.1165 26.7815 11.8459 26.9051 11.5518L27.9854 11.9034C27.8362 12.3168 27.5912 12.6982 27.2503 13.0476C26.9136 13.397 26.4917 13.6783 25.9846 13.8913C25.4818 14.1001 24.9023 14.2045 24.246 14.2045ZM31.175 4.18182L33.7062 8.36861L36.2375 4.18182H37.5606L34.403 9.09091L37.5606 14H36.2375L33.7062 9.94744L31.175 14H29.8582L32.9775 9.09091L29.8582 4.18182H31.175ZM39.9465 17.6818V4.18182H41.0523V6.05469H41.1865C41.3229 5.76065 41.5104 5.46023 41.749 5.15341C41.9877 4.84233 42.303 4.58026 42.695 4.36719C43.0914 4.15412 43.5899 4.04759 44.1908 4.04759C45.0004 4.04759 45.7078 4.26065 46.3129 4.68679C46.9223 5.10866 47.3953 5.70099 47.732 6.46378C48.0729 7.2223 48.2433 8.10653 48.2433 9.11648C48.2433 10.1307 48.0729 11.0192 47.732 11.782C47.3953 12.5447 46.9223 13.1392 46.3129 13.5653C45.7078 13.9915 45.0047 14.2045 44.2036 14.2045C43.6112 14.2045 43.1148 14.098 42.7142 13.8849C42.3179 13.6719 41.9962 13.4098 41.749 13.0987C41.5061 12.7834 41.3186 12.4766 41.1865 12.1783H41.0843V17.6818H39.9465ZM41.0715 9.0973C41.0715 9.88991 41.1887 10.593 41.423 11.2067C41.6617 11.8161 42.0026 12.2955 42.4458 12.6449C42.8932 12.9901 43.4344 13.1626 44.0693 13.1626C44.7213 13.1626 45.271 12.9837 45.7185 12.6257C46.1702 12.2635 46.5132 11.7756 46.7476 11.1619C46.9862 10.5483 47.1056 9.86009 47.1056 9.0973C47.1056 8.34304 46.9884 7.66335 46.754 7.05824C46.5239 6.45312 46.183 5.97372 45.7313 5.62003C45.2796 5.26207 44.7256 5.0831 44.0693 5.0831C43.4301 5.0831 42.8868 5.25568 42.4394 5.60085C41.9919 5.94176 41.651 6.41477 41.4166 7.01989C41.1865 7.62074 41.0715 8.31321 41.0715 9.0973ZM51.8772 7.86364V14H50.7394V0.909091H51.8772V5.7223H51.9795C52.2096 5.2152 52.5654 4.81037 53.047 4.50781C53.5328 4.20526 54.1464 4.05398 54.8879 4.05398C55.5526 4.05398 56.1365 4.19034 56.6393 4.46307C57.1421 4.73579 57.5342 5.13849 57.8154 5.67116C58.0967 6.20383 58.2373 6.86008 58.2373 7.63991V14H57.0931V7.71023C57.0931 6.90057 56.8673 6.26349 56.4156 5.79901C55.9681 5.33026 55.363 5.09588 54.6002 5.09588C54.0761 5.09588 53.6095 5.20668 53.2004 5.42827C52.7913 5.64986 52.4674 5.96946 52.2288 6.38707C51.9944 6.80043 51.8772 7.29261 51.8772 7.86364ZM63.9758 14.2237C63.3834 14.2237 62.8422 14.1087 62.3522 13.8786C61.8621 13.6442 61.4722 13.3075 61.1824 12.8686C60.8927 12.4254 60.7478 11.8885 60.7478 11.2578C60.7478 10.772 60.8394 10.3629 61.0226 10.0305C61.2059 9.69815 61.4658 9.42543 61.8025 9.21236C62.1391 8.99929 62.5376 8.83097 62.9978 8.70739C63.458 8.58381 63.9651 8.48793 64.5191 8.41974C65.0688 8.35156 65.5333 8.2919 65.9126 8.24077C66.2961 8.18963 66.588 8.10866 66.7883 7.99787C66.9885 7.88707 67.0887 7.7081 67.0887 7.46094V7.23082C67.0887 6.56179 66.8884 6.03551 66.4878 5.65199C66.0915 5.2642 65.5205 5.07031 64.7748 5.07031C64.0674 5.07031 63.49 5.22585 63.0425 5.53693C62.5993 5.84801 62.2883 6.21449 62.1093 6.63636L61.029 6.24645C61.2506 5.70952 61.5574 5.28125 61.9495 4.96165C62.3415 4.63778 62.7805 4.40554 63.2662 4.26491C63.752 4.12003 64.2442 4.04759 64.7428 4.04759C65.1178 4.04759 65.5077 4.09659 65.9126 4.1946C66.3216 4.29261 66.7009 4.46307 67.0503 4.70597C67.3998 4.9446 67.6832 5.27912 67.9005 5.70952C68.1178 6.13565 68.2265 6.67685 68.2265 7.3331V14H67.0887V12.4467H67.0184C66.882 12.7365 66.6796 13.0178 66.4111 13.2905C66.1427 13.5632 65.806 13.7869 65.4012 13.9616C64.9964 14.1364 64.5212 14.2237 63.9758 14.2237ZM64.1292 13.1818C64.7343 13.1818 65.2584 13.0476 65.7016 12.7791C66.1448 12.5107 66.4857 12.1548 66.7243 11.7116C66.9672 11.2642 67.0887 10.772 67.0887 10.2351V8.81605C67.0035 8.89702 66.8607 8.96946 66.6604 9.03338C66.4644 9.0973 66.2364 9.15483 65.9765 9.20597C65.7208 9.25284 65.4651 9.29332 65.2094 9.32741C64.9537 9.36151 64.7236 9.39134 64.5191 9.4169C63.9651 9.48508 63.4921 9.59162 63.1001 9.73651C62.708 9.88139 62.4076 10.0817 62.1988 10.3374C61.99 10.5888 61.8856 10.9126 61.8856 11.3089C61.8856 11.9055 62.0986 12.3679 62.5248 12.696C62.9509 13.0199 63.4857 13.1818 64.1292 13.1818ZM71.2531 14V4.18182H72.3589V5.69034H72.442C72.6381 5.19602 72.979 4.79758 73.4648 4.49503C73.9548 4.18821 74.5088 4.0348 75.1267 4.0348C75.2204 4.0348 75.3248 4.03693 75.4399 4.04119C75.555 4.04545 75.6508 4.04972 75.7275 4.05398V5.21094C75.6764 5.20241 75.5869 5.18963 75.4591 5.17259C75.3312 5.15554 75.1927 5.14702 75.0436 5.14702C74.5322 5.14702 74.0763 5.25568 73.6757 5.47301C73.2794 5.68608 72.9662 5.98224 72.7361 6.36151C72.5059 6.74077 72.3909 7.1733 72.3909 7.65909V14H71.2531ZM77.6691 14V4.18182H78.7749V5.69034H78.8772C79.0732 5.18324 79.3992 4.7848 79.8552 4.49503C80.3154 4.20099 80.8673 4.05398 81.5107 4.05398C82.1883 4.05398 82.7444 4.21378 83.1791 4.53338C83.618 4.84872 83.9461 5.28338 84.1634 5.83736H84.2465C84.4681 5.2919 84.8282 4.85937 85.3268 4.53977C85.8296 4.21591 86.439 4.05398 87.1549 4.05398C88.0669 4.05398 88.787 4.34162 89.3154 4.9169C89.8438 5.48793 90.108 6.32315 90.108 7.42259V14H88.9703V7.42259C88.9703 6.64702 88.7721 6.06534 88.3758 5.67756C87.9795 5.28977 87.4575 5.09588 86.8097 5.09588C86.0597 5.09588 85.4823 5.32599 85.0775 5.78622C84.6727 6.24645 84.4703 6.83026 84.4703 7.53764V14H83.3069V7.32031C83.3069 6.65554 83.1215 6.11861 82.7508 5.70952C82.3801 5.30043 81.858 5.09588 81.1847 5.09588C80.733 5.09588 80.3261 5.20668 79.9639 5.42827C79.6059 5.64986 79.3225 5.95881 79.1137 6.35511C78.9092 6.74716 78.8069 7.19886 78.8069 7.71023V14H77.6691ZM100.362 14L97.3966 4.18182H98.5983L100.925 12.2805H101.008L103.328 4.18182H104.536L106.838 12.2614H106.927L109.254 4.18182H110.456L107.49 14H106.313L103.987 5.95241H103.865L101.539 14H100.362ZM115.409 14.2237C114.817 14.2237 114.276 14.1087 113.786 13.8786C113.296 13.6442 112.906 13.3075 112.616 12.8686C112.326 12.4254 112.181 11.8885 112.181 11.2578C112.181 10.772 112.273 10.3629 112.456 10.0305C112.639 9.69815 112.899 9.42543 113.236 9.21236C113.573 8.99929 113.971 8.83097 114.431 8.70739C114.892 8.58381 115.399 8.48793 115.953 8.41974C116.502 8.35156 116.967 8.2919 117.346 8.24077C117.73 8.18963 118.022 8.10866 118.222 7.99787C118.422 7.88707 118.522 7.7081 118.522 7.46094V7.23082C118.522 6.56179 118.322 6.03551 117.921 5.65199C117.525 5.2642 116.954 5.07031 116.208 5.07031C115.501 5.07031 114.924 5.22585 114.476 5.53693C114.033 5.84801 113.722 6.21449 113.543 6.63636L112.463 6.24645C112.684 5.70952 112.991 5.28125 113.383 4.96165C113.775 4.63778 114.214 4.40554 114.7 4.26491C115.186 4.12003 115.678 4.04759 116.176 4.04759C116.551 4.04759 116.941 4.09659 117.346 4.1946C117.755 4.29261 118.134 4.46307 118.484 4.70597C118.833 4.9446 119.117 5.27912 119.334 5.70952C119.551 6.13565 119.66 6.67685 119.66 7.3331V14H118.522V12.4467H118.452C118.316 12.7365 118.113 13.0178 117.845 13.2905C117.576 13.5632 117.24 13.7869 116.835 13.9616C116.43 14.1364 115.955 14.2237 115.409 14.2237ZM115.563 13.1818C116.168 13.1818 116.692 13.0476 117.135 12.7791C117.578 12.5107 117.919 12.1548 118.158 11.7116C118.401 11.2642 118.522 10.772 118.522 10.2351V8.81605C118.437 8.89702 118.294 8.96946 118.094 9.03338C117.898 9.0973 117.67 9.15483 117.41 9.20597C117.154 9.25284 116.899 9.29332 116.643 9.32741C116.387 9.36151 116.157 9.39134 115.953 9.4169C115.399 9.48508 114.926 9.59162 114.534 9.73651C114.142 9.88139 113.841 10.0817 113.632 10.3374C113.424 10.5888 113.319 10.9126 113.319 11.3089C113.319 11.9055 113.532 12.3679 113.958 12.696C114.384 13.0199 114.919 13.1818 115.563 13.1818ZM129.283 6.33594L128.241 6.62997C128.139 6.33594 127.994 6.0696 127.807 5.83097C127.619 5.59233 127.374 5.4027 127.072 5.26207C126.773 5.12145 126.403 5.05114 125.959 5.05114C125.295 5.05114 124.749 5.20881 124.323 5.52415C123.897 5.83949 123.684 6.24645 123.684 6.74503C123.684 7.1669 123.829 7.50994 124.119 7.77415C124.413 8.03409 124.864 8.24077 125.474 8.39418L126.957 8.75852C127.779 8.95881 128.395 9.27628 128.804 9.71094C129.217 10.1456 129.424 10.6911 129.424 11.3473C129.424 11.9013 129.271 12.3935 128.964 12.8239C128.657 13.2543 128.229 13.593 127.679 13.8402C127.133 14.0831 126.501 14.2045 125.78 14.2045C124.822 14.2045 124.031 13.9893 123.409 13.5589C122.787 13.1243 122.388 12.4979 122.214 11.6797L123.307 11.4112C123.447 11.995 123.722 12.4361 124.131 12.7344C124.545 13.0327 125.088 13.1818 125.761 13.1818C126.516 13.1818 127.119 13.0135 127.57 12.6768C128.022 12.3359 128.248 11.9098 128.248 11.3984C128.248 11.0021 128.116 10.6697 127.851 10.4013C127.587 10.1286 127.187 9.92827 126.65 9.80043L125.045 9.4169C124.193 9.21236 123.562 8.88849 123.153 8.44531C122.744 8.00213 122.54 7.45241 122.54 6.79616C122.54 6.25497 122.687 5.77983 122.981 5.37074C123.275 4.95739 123.68 4.63352 124.195 4.39915C124.711 4.16477 125.299 4.04759 125.959 4.04759C126.859 4.04759 127.577 4.25213 128.114 4.66122C128.655 5.06605 129.045 5.62429 129.283 6.33594ZM139.72 14.2237C139.128 14.2237 138.586 14.1087 138.096 13.8786C137.606 13.6442 137.216 13.3075 136.927 12.8686C136.637 12.4254 136.492 11.8885 136.492 11.2578C136.492 10.772 136.584 10.3629 136.767 10.0305C136.95 9.69815 137.21 9.42543 137.547 9.21236C137.883 8.99929 138.282 8.83097 138.742 8.70739C139.202 8.58381 139.709 8.48793 140.263 8.41974C140.813 8.35156 141.277 8.2919 141.657 8.24077C142.04 8.18963 142.332 8.10866 142.532 7.99787C142.733 7.88707 142.833 7.7081 142.833 7.46094V7.23082C142.833 6.56179 142.633 6.03551 142.232 5.65199C141.836 5.2642 141.265 5.07031 140.519 5.07031C139.812 5.07031 139.234 5.22585 138.787 5.53693C138.343 5.84801 138.032 6.21449 137.853 6.63636L136.773 6.24645C136.995 5.70952 137.302 5.28125 137.694 4.96165C138.086 4.63778 138.525 4.40554 139.01 4.26491C139.496 4.12003 139.988 4.04759 140.487 4.04759C140.862 4.04759 141.252 4.09659 141.657 4.1946C142.066 4.29261 142.445 4.46307 142.794 4.70597C143.144 4.9446 143.427 5.27912 143.645 5.70952C143.862 6.13565 143.971 6.67685 143.971 7.3331V14H142.833V12.4467H142.763C142.626 12.7365 142.424 13.0178 142.155 13.2905C141.887 13.5632 141.55 13.7869 141.145 13.9616C140.741 14.1364 140.265 14.2237 139.72 14.2237ZM139.873 13.1818C140.478 13.1818 141.003 13.0476 141.446 12.7791C141.889 12.5107 142.23 12.1548 142.468 11.7116C142.711 11.2642 142.833 10.772 142.833 10.2351V8.81605C142.748 8.89702 142.605 8.96946 142.405 9.03338C142.209 9.0973 141.981 9.15483 141.721 9.20597C141.465 9.25284 141.209 9.29332 140.954 9.32741C140.698 9.36151 140.468 9.39134 140.263 9.4169C139.709 9.48508 139.236 9.59162 138.844 9.73651C138.452 9.88139 138.152 10.0817 137.943 10.3374C137.734 10.5888 137.63 10.9126 137.63 11.3089C137.63 11.9055 137.843 12.3679 138.269 12.696C138.695 13.0199 139.23 13.1818 139.873 13.1818ZM148.135 0.909091V14H146.997V0.909091H148.135ZM157.742 6.33594L156.7 6.62997C156.598 6.33594 156.453 6.0696 156.266 5.83097C156.078 5.59233 155.833 5.4027 155.531 5.26207C155.232 5.12145 154.862 5.05114 154.418 5.05114C153.754 5.05114 153.208 5.20881 152.782 5.52415C152.356 5.83949 152.143 6.24645 152.143 6.74503C152.143 7.1669 152.288 7.50994 152.578 7.77415C152.872 8.03409 153.323 8.24077 153.933 8.39418L155.416 8.75852C156.238 8.95881 156.854 9.27628 157.263 9.71094C157.676 10.1456 157.883 10.6911 157.883 11.3473C157.883 11.9013 157.729 12.3935 157.423 12.8239C157.116 13.2543 156.688 13.593 156.138 13.8402C155.592 14.0831 154.96 14.2045 154.239 14.2045C153.281 14.2045 152.49 13.9893 151.868 13.5589C151.246 13.1243 150.847 12.4979 150.673 11.6797L151.766 11.4112C151.906 11.995 152.181 12.4361 152.59 12.7344C153.004 13.0327 153.547 13.1818 154.22 13.1818C154.975 13.1818 155.578 13.0135 156.029 12.6768C156.481 12.3359 156.707 11.9098 156.707 11.3984C156.707 11.0021 156.575 10.6697 156.31 10.4013C156.046 10.1286 155.646 9.92827 155.109 9.80043L153.504 9.4169C152.652 9.21236 152.021 8.88849 151.612 8.44531C151.203 8.00213 150.999 7.45241 150.999 6.79616C150.999 6.25497 151.146 5.77983 151.44 5.37074C151.734 4.95739 152.139 4.63352 152.654 4.39915C153.17 4.16477 153.758 4.04759 154.418 4.04759C155.318 4.04759 156.036 4.25213 156.573 4.66122C157.114 5.06605 157.504 5.62429 157.742 6.33594ZM164.19 14.2045C163.342 14.2045 162.592 13.9893 161.94 13.5589C161.293 13.1286 160.785 12.5341 160.419 11.7756C160.052 11.0128 159.869 10.1328 159.869 9.13565C159.869 8.12997 160.052 7.24574 160.419 6.48295C160.785 5.71591 161.293 5.11932 161.94 4.69318C162.592 4.26278 163.342 4.04759 164.19 4.04759C165.038 4.04759 165.786 4.26278 166.434 4.69318C167.082 5.12358 167.589 5.72017 167.955 6.48295C168.326 7.24574 168.511 8.12997 168.511 9.13565C168.511 10.1328 168.328 11.0128 167.962 11.7756C167.595 12.5341 167.086 13.1286 166.434 13.5589C165.786 13.9893 165.038 14.2045 164.19 14.2045ZM164.19 13.1626C164.872 13.1626 165.449 12.9794 165.922 12.6129C166.396 12.2464 166.753 11.7585 166.996 11.1491C167.244 10.5398 167.367 9.86861 167.367 9.13565C167.367 8.4027 167.244 7.7294 166.996 7.11577C166.753 6.50213 166.396 6.00994 165.922 5.6392C165.449 5.26847 164.872 5.0831 164.19 5.0831C163.513 5.0831 162.935 5.26847 162.458 5.6392C161.985 6.00994 161.625 6.50213 161.378 7.11577C161.135 7.7294 161.013 8.4027 161.013 9.13565C161.013 9.86861 161.135 10.5398 161.378 11.1491C161.625 11.7585 161.985 12.2464 162.458 12.6129C162.931 12.9794 163.508 13.1626 164.19 13.1626ZM179.939 4.18182V5.17259H175.253V4.18182H179.939ZM176.717 1.82955H177.861V11.4368C177.861 11.8459 177.932 12.1676 178.072 12.402C178.213 12.6321 178.396 12.7962 178.622 12.8942C178.848 12.9879 179.089 13.0348 179.344 13.0348C179.493 13.0348 179.621 13.0263 179.728 13.0092C179.834 12.9879 179.928 12.9666 180.009 12.9453L180.252 13.9744C180.141 14.017 180.005 14.0554 179.843 14.0895C179.681 14.1278 179.481 14.147 179.242 14.147C178.824 14.147 178.422 14.0554 178.034 13.8722C177.65 13.6889 177.335 13.4162 177.088 13.054C176.841 12.6918 176.717 12.2422 176.717 11.7053V1.82955ZM183.871 7.86364V14H182.734V0.909091H183.871V5.7223H183.974C184.204 5.2152 184.56 4.81037 185.041 4.50781C185.527 4.20526 186.141 4.05398 186.882 4.05398C187.547 4.05398 188.131 4.19034 188.633 4.46307C189.136 4.73579 189.528 5.13849 189.81 5.67116C190.091 6.20383 190.231 6.86008 190.231 7.63991V14H189.087V7.71023C189.087 6.90057 188.861 6.26349 188.41 5.79901C187.962 5.33026 187.357 5.09588 186.594 5.09588C186.07 5.09588 185.604 5.20668 185.195 5.42827C184.785 5.64986 184.462 5.96946 184.223 6.38707C183.989 6.80043 183.871 7.29261 183.871 7.86364ZM197.197 14.2045C196.281 14.2045 195.488 13.9915 194.819 13.5653C194.15 13.1349 193.633 12.5405 193.266 11.782C192.904 11.0192 192.723 10.1413 192.723 9.14844C192.723 8.1598 192.904 7.28196 193.266 6.51491C193.633 5.74361 194.138 5.14062 194.781 4.70597C195.429 4.26705 196.177 4.04759 197.025 4.04759C197.557 4.04759 198.071 4.1456 198.565 4.34162C199.059 4.53338 199.503 4.82954 199.895 5.23011C200.291 5.62642 200.604 6.12713 200.834 6.73224C201.064 7.3331 201.179 8.04474 201.179 8.86719V9.42969H193.509V8.42614H200.016C200.016 7.79545 199.888 7.22869 199.633 6.72585C199.381 6.21875 199.03 5.81818 198.578 5.52415C198.13 5.23011 197.613 5.0831 197.025 5.0831C196.402 5.0831 195.855 5.24929 195.382 5.58168C194.909 5.91406 194.538 6.35298 194.27 6.89844C194.005 7.44389 193.871 8.04048 193.867 8.68821V9.28906C193.867 10.0689 194.001 10.7507 194.27 11.3345C194.542 11.9141 194.928 12.3636 195.427 12.6832C195.925 13.0028 196.515 13.1626 197.197 13.1626C197.662 13.1626 198.069 13.0902 198.418 12.9453C198.772 12.8004 199.068 12.6065 199.307 12.3636C199.549 12.1165 199.733 11.8459 199.856 11.5518L200.937 11.9034C200.787 12.3168 200.542 12.6982 200.201 13.0476C199.865 13.397 199.443 13.6783 198.936 13.8913C198.433 14.1001 197.853 14.2045 197.197 14.2045ZM208.749 14V4.18182H209.855V5.69034H209.957C210.153 5.18324 210.479 4.7848 210.935 4.49503C211.396 4.20099 211.947 4.05398 212.591 4.05398C213.268 4.05398 213.824 4.21378 214.259 4.53338C214.698 4.84872 215.026 5.28338 215.244 5.83736H215.327C215.548 5.2919 215.908 4.85937 216.407 4.53977C216.91 4.21591 217.519 4.05398 218.235 4.05398C219.147 4.05398 219.867 4.34162 220.396 4.9169C220.924 5.48793 221.188 6.32315 221.188 7.42259V14H220.05V7.42259C220.05 6.64702 219.852 6.06534 219.456 5.67756C219.06 5.28977 218.538 5.09588 217.89 5.09588C217.14 5.09588 216.562 5.32599 216.158 5.78622C215.753 6.24645 215.55 6.83026 215.55 7.53764V14H214.387V7.32031C214.387 6.65554 214.202 6.11861 213.831 5.70952C213.46 5.30043 212.938 5.09588 212.265 5.09588C211.813 5.09588 211.406 5.20668 211.044 5.42827C210.686 5.64986 210.403 5.95881 210.194 6.35511C209.989 6.74716 209.887 7.19886 209.887 7.71023V14H208.749ZM226.943 14.2237C226.35 14.2237 225.809 14.1087 225.319 13.8786C224.829 13.6442 224.439 13.3075 224.149 12.8686C223.859 12.4254 223.715 11.8885 223.715 11.2578C223.715 10.772 223.806 10.3629 223.989 10.0305C224.173 9.69815 224.433 9.42543 224.769 9.21236C225.106 8.99929 225.504 8.83097 225.965 8.70739C226.425 8.58381 226.932 8.48793 227.486 8.41974C228.036 8.35156 228.5 8.2919 228.879 8.24077C229.263 8.18963 229.555 8.10866 229.755 7.99787C229.955 7.88707 230.055 7.7081 230.055 7.46094V7.23082C230.055 6.56179 229.855 6.03551 229.455 5.65199C229.058 5.2642 228.487 5.07031 227.742 5.07031C227.034 5.07031 226.457 5.22585 226.009 5.53693C225.566 5.84801 225.255 6.21449 225.076 6.63636L223.996 6.24645C224.217 5.70952 224.524 5.28125 224.916 4.96165C225.308 4.63778 225.747 4.40554 226.233 4.26491C226.719 4.12003 227.211 4.04759 227.71 4.04759C228.085 4.04759 228.475 4.09659 228.879 4.1946C229.288 4.29261 229.668 4.46307 230.017 4.70597C230.367 4.9446 230.65 5.27912 230.867 5.70952C231.085 6.13565 231.193 6.67685 231.193 7.3331V14H230.055V12.4467H229.985C229.849 12.7365 229.646 13.0178 229.378 13.2905C229.109 13.5632 228.773 13.7869 228.368 13.9616C227.963 14.1364 227.488 14.2237 226.943 14.2237ZM227.096 13.1818C227.701 13.1818 228.225 13.0476 228.668 12.7791C229.112 12.5107 229.453 12.1548 229.691 11.7116C229.934 11.2642 230.055 10.772 230.055 10.2351V8.81605C229.97 8.89702 229.828 8.96946 229.627 9.03338C229.431 9.0973 229.203 9.15483 228.943 9.20597C228.688 9.25284 228.432 9.29332 228.176 9.32741C227.921 9.36151 227.69 9.39134 227.486 9.4169C226.932 9.48508 226.459 9.59162 226.067 9.73651C225.675 9.88139 225.374 10.0817 225.166 10.3374C224.957 10.5888 224.852 10.9126 224.852 11.3089C224.852 11.9055 225.065 12.3679 225.492 12.696C225.918 13.0199 226.453 13.1818 227.096 13.1818ZM234.22 14V4.18182H235.326V5.69034H235.409C235.605 5.19602 235.946 4.79758 236.432 4.49503C236.922 4.18821 237.476 4.0348 238.093 4.0348C238.187 4.0348 238.292 4.03693 238.407 4.04119C238.522 4.04545 238.618 4.04972 238.694 4.05398V5.21094C238.643 5.20241 238.554 5.18963 238.426 5.17259C238.298 5.15554 238.16 5.14702 238.01 5.14702C237.499 5.14702 237.043 5.25568 236.642 5.47301C236.246 5.68608 235.933 5.98224 235.703 6.36151C235.473 6.74077 235.358 7.1733 235.358 7.65909V14H234.22ZM241.671 10.2926L241.659 8.80327H241.914L246.517 4.18182H247.955L243.41 8.73295L243.308 8.75213L241.671 10.2926ZM240.636 14V0.909091H241.774V14H240.636ZM246.753 14L242.764 8.95668L243.583 8.17045L248.21 14H246.753ZM253.658 14.2045C252.742 14.2045 251.949 13.9915 251.28 13.5653C250.611 13.1349 250.093 12.5405 249.727 11.782C249.365 11.0192 249.184 10.1413 249.184 9.14844C249.184 8.1598 249.365 7.28196 249.727 6.51491C250.093 5.74361 250.598 5.14062 251.242 4.70597C251.89 4.26705 252.638 4.04759 253.486 4.04759C254.018 4.04759 254.532 4.1456 255.026 4.34162C255.52 4.53338 255.964 4.82954 256.356 5.23011C256.752 5.62642 257.065 6.12713 257.295 6.73224C257.525 7.3331 257.64 8.04474 257.64 8.86719V9.42969H249.97V8.42614H256.477C256.477 7.79545 256.349 7.22869 256.093 6.72585C255.842 6.21875 255.491 5.81818 255.039 5.52415C254.591 5.23011 254.074 5.0831 253.486 5.0831C252.863 5.0831 252.316 5.24929 251.843 5.58168C251.37 5.91406 250.999 6.35298 250.731 6.89844C250.466 7.44389 250.332 8.04048 250.328 8.68821V9.28906C250.328 10.0689 250.462 10.7507 250.731 11.3345C251.003 11.9141 251.389 12.3636 251.888 12.6832C252.386 13.0028 252.976 13.1626 253.658 13.1626C254.123 13.1626 254.53 13.0902 254.879 12.9453C255.233 12.8004 255.529 12.6065 255.767 12.3636C256.01 12.1165 256.194 11.8459 256.317 11.5518L257.397 11.9034C257.248 12.3168 257.003 12.6982 256.662 13.0476C256.326 13.397 255.904 13.6783 255.397 13.8913C254.894 14.1001 254.314 14.2045 253.658 14.2045ZM264.015 4.18182V5.17259H259.329V4.18182H264.015ZM260.793 1.82955H261.937V11.4368C261.937 11.8459 262.008 12.1676 262.148 12.402C262.289 12.6321 262.472 12.7962 262.698 12.8942C262.924 12.9879 263.165 13.0348 263.42 13.0348C263.57 13.0348 263.697 13.0263 263.804 13.0092C263.91 12.9879 264.004 12.9666 264.085 12.9453L264.328 13.9744C264.217 14.017 264.081 14.0554 263.919 14.0895C263.757 14.1278 263.557 14.147 263.318 14.147C262.9 14.147 262.498 14.0554 262.11 13.8722C261.726 13.6889 261.411 13.4162 261.164 13.054C260.917 12.6918 260.793 12.2422 260.793 11.7053V1.82955ZM272.799 0.909091V14H271.661V0.909091H272.799ZM279.779 14.2045C278.863 14.2045 278.07 13.9915 277.401 13.5653C276.732 13.1349 276.215 12.5405 275.848 11.782C275.486 11.0192 275.305 10.1413 275.305 9.14844C275.305 8.1598 275.486 7.28196 275.848 6.51491C276.215 5.74361 276.72 5.14062 277.363 4.70597C278.011 4.26705 278.759 4.04759 279.607 4.04759C280.139 4.04759 280.653 4.1456 281.147 4.34162C281.641 4.53338 282.085 4.82954 282.477 5.23011C282.873 5.62642 283.186 6.12713 283.416 6.73224C283.646 7.3331 283.761 8.04474 283.761 8.86719V9.42969H276.091V8.42614H282.598C282.598 7.79545 282.47 7.22869 282.215 6.72585C281.963 6.21875 281.612 5.81818 281.16 5.52415C280.712 5.23011 280.195 5.0831 279.607 5.0831C278.984 5.0831 278.437 5.24929 277.964 5.58168C277.491 5.91406 277.12 6.35298 276.852 6.89844C276.587 7.44389 276.453 8.04048 276.449 8.68821V9.28906C276.449 10.0689 276.583 10.7507 276.852 11.3345C277.124 11.9141 277.51 12.3636 278.009 12.6832C278.507 13.0028 279.097 13.1626 279.779 13.1626C280.244 13.1626 280.651 13.0902 281 12.9453C281.354 12.8004 281.65 12.6065 281.889 12.3636C282.131 12.1165 282.315 11.8459 282.438 11.5518L283.519 11.9034C283.369 12.3168 283.124 12.6982 282.783 13.0476C282.447 13.397 282.025 13.6783 281.518 13.8913C281.015 14.1001 280.435 14.2045 279.779 14.2045ZM289.011 14.2237C288.419 14.2237 287.877 14.1087 287.387 13.8786C286.897 13.6442 286.507 13.3075 286.218 12.8686C285.928 12.4254 285.783 11.8885 285.783 11.2578C285.783 10.772 285.875 10.3629 286.058 10.0305C286.241 9.69815 286.501 9.42543 286.838 9.21236C287.174 8.99929 287.573 8.83097 288.033 8.70739C288.493 8.58381 289 8.48793 289.554 8.41974C290.104 8.35156 290.568 8.2919 290.948 8.24077C291.331 8.18963 291.623 8.10866 291.823 7.99787C292.024 7.88707 292.124 7.7081 292.124 7.46094V7.23082C292.124 6.56179 291.924 6.03551 291.523 5.65199C291.127 5.2642 290.556 5.07031 289.81 5.07031C289.103 5.07031 288.525 5.22585 288.078 5.53693C287.634 5.84801 287.323 6.21449 287.144 6.63636L286.064 6.24645C286.286 5.70952 286.593 5.28125 286.985 4.96165C287.377 4.63778 287.816 4.40554 288.301 4.26491C288.787 4.12003 289.279 4.04759 289.778 4.04759C290.153 4.04759 290.543 4.09659 290.948 4.1946C291.357 4.29261 291.736 4.46307 292.085 4.70597C292.435 4.9446 292.718 5.27912 292.936 5.70952C293.153 6.13565 293.262 6.67685 293.262 7.3331V14H292.124V12.4467H292.054C291.917 12.7365 291.715 13.0178 291.446 13.2905C291.178 13.5632 290.841 13.7869 290.436 13.9616C290.032 14.1364 289.556 14.2237 289.011 14.2237ZM289.164 13.1818C289.769 13.1818 290.294 13.0476 290.737 12.7791C291.18 12.5107 291.521 12.1548 291.759 11.7116C292.002 11.2642 292.124 10.772 292.124 10.2351V8.81605C292.039 8.89702 291.896 8.96946 291.696 9.03338C291.5 9.0973 291.272 9.15483 291.012 9.20597C290.756 9.25284 290.5 9.29332 290.245 9.32741C289.989 9.36151 289.759 9.39134 289.554 9.4169C289 9.48508 288.527 9.59162 288.135 9.73651C287.743 9.88139 287.443 10.0817 287.234 10.3374C287.025 10.5888 286.921 10.9126 286.921 11.3089C286.921 11.9055 287.134 12.3679 287.56 12.696C287.986 13.0199 288.521 13.1818 289.164 13.1818ZM299.823 14.2045C299.018 14.2045 298.312 13.9915 297.707 13.5653C297.102 13.1392 296.629 12.5447 296.288 11.782C295.952 11.0192 295.783 10.1307 295.783 9.11648C295.783 8.10653 295.952 7.2223 296.288 6.46378C296.629 5.70099 297.104 5.10866 297.714 4.68679C298.323 4.26065 299.033 4.04759 299.842 4.04759C300.439 4.04759 300.935 4.15412 301.332 4.36719C301.728 4.57599 302.045 4.83594 302.284 5.14702C302.523 5.4581 302.708 5.76065 302.84 6.05469H302.942V0.909091H304.087V14H302.974V12.1783H302.84C302.708 12.4766 302.521 12.7834 302.278 13.0987C302.035 13.4098 301.713 13.6719 301.312 13.8849C300.916 14.098 300.42 14.2045 299.823 14.2045ZM299.957 13.1626C300.592 13.1626 301.133 12.9901 301.581 12.6449C302.028 12.2955 302.369 11.8161 302.604 11.2067C302.842 10.593 302.962 9.88991 302.962 9.0973C302.962 8.31321 302.844 7.62074 302.61 7.01989C302.376 6.41477 302.035 5.94176 301.587 5.60085C301.14 5.25568 300.597 5.0831 299.957 5.0831C299.301 5.0831 298.747 5.26207 298.295 5.62003C297.848 5.97372 297.507 6.45312 297.273 7.05824C297.043 7.66335 296.927 8.34304 296.927 9.0973C296.927 9.86009 297.045 10.5483 297.279 11.1619C297.513 11.7756 297.854 12.2635 298.302 12.6257C298.753 12.9837 299.305 13.1626 299.957 13.1626ZM311.297 14.2045C310.381 14.2045 309.588 13.9915 308.919 13.5653C308.25 13.1349 307.732 12.5405 307.366 11.782C307.003 11.0192 306.822 10.1413 306.822 9.14844C306.822 8.1598 307.003 7.28196 307.366 6.51491C307.732 5.74361 308.237 5.14062 308.881 4.70597C309.528 4.26705 310.276 4.04759 311.124 4.04759C311.657 4.04759 312.17 4.1456 312.665 4.34162C313.159 4.53338 313.602 4.82954 313.994 5.23011C314.391 5.62642 314.704 6.12713 314.934 6.73224C315.164 7.3331 315.279 8.04474 315.279 8.86719V9.42969H307.609V8.42614H314.116C314.116 7.79545 313.988 7.22869 313.732 6.72585C313.481 6.21875 313.129 5.81818 312.677 5.52415C312.23 5.23011 311.712 5.0831 311.124 5.0831C310.502 5.0831 309.954 5.24929 309.481 5.58168C309.008 5.91406 308.638 6.35298 308.369 6.89844C308.105 7.44389 307.971 8.04048 307.967 8.68821V9.28906C307.967 10.0689 308.101 10.7507 308.369 11.3345C308.642 11.9141 309.028 12.3636 309.526 12.6832C310.025 13.0028 310.615 13.1626 311.297 13.1626C311.761 13.1626 312.168 13.0902 312.518 12.9453C312.871 12.8004 313.168 12.6065 313.406 12.3636C313.649 12.1165 313.832 11.8459 313.956 11.5518L315.036 11.9034C314.887 12.3168 314.642 12.6982 314.301 13.0476C313.964 13.397 313.543 13.6783 313.035 13.8913C312.533 14.1001 311.953 14.2045 311.297 14.2045ZM317.786 14V4.18182H318.892V5.69034H318.975C319.171 5.19602 319.512 4.79758 319.998 4.49503C320.488 4.18821 321.042 4.0348 321.66 4.0348C321.754 4.0348 321.858 4.03693 321.973 4.04119C322.088 4.04545 322.184 4.04972 322.261 4.05398V5.21094C322.21 5.20241 322.12 5.18963 321.992 5.17259C321.864 5.15554 321.726 5.14702 321.577 5.14702C321.065 5.14702 320.609 5.25568 320.209 5.47301C319.813 5.68608 319.499 5.98224 319.269 6.36151C319.039 6.74077 318.924 7.1733 318.924 7.65909V14H317.786ZM329.278 14V4.18182H330.422V14H329.278ZM329.859 2.49432C329.625 2.49432 329.425 2.41548 329.258 2.25781C329.092 2.09588 329.009 1.90199 329.009 1.67614C329.009 1.45028 329.092 1.25852 329.258 1.10085C329.425 0.93892 329.625 0.857954 329.859 0.857954C330.094 0.857954 330.294 0.93892 330.46 1.10085C330.626 1.25852 330.709 1.45028 330.709 1.67614C330.709 1.90199 330.626 2.09588 330.46 2.25781C330.294 2.41548 330.094 2.49432 329.859 2.49432ZM334.569 7.86364V14H333.431V4.18182H334.537V5.7223H334.639C334.869 5.21946 335.227 4.81676 335.713 4.5142C336.203 4.20739 336.808 4.05398 337.528 4.05398C338.189 4.05398 338.768 4.19247 339.267 4.46946C339.77 4.74219 340.16 5.14489 340.437 5.67756C340.718 6.21023 340.858 6.86435 340.858 7.63991V14H339.721V7.71023C339.721 6.90483 339.495 6.26776 339.043 5.79901C338.596 5.33026 337.995 5.09588 337.241 5.09588C336.725 5.09588 336.267 5.20668 335.866 5.42827C335.466 5.64986 335.148 5.96946 334.914 6.38707C334.684 6.80043 334.569 7.29261 334.569 7.86364ZM19.4504 26.1818V27.1726H14.765V26.1818H19.4504ZM16.2288 23.8295H17.373V33.4368C17.373 33.8459 17.4433 34.1676 17.5839 34.402C17.7245 34.6321 17.9078 34.7962 18.1336 34.8942C18.3595 34.9879 18.6002 35.0348 18.8559 35.0348C19.0051 35.0348 19.1329 35.0263 19.2394 35.0092C19.346 34.9879 19.4397 34.9666 19.5207 34.9453L19.7636 35.9744C19.6528 36.017 19.5164 36.0554 19.3545 36.0895C19.1926 36.1278 18.9923 36.147 18.7536 36.147C18.336 36.147 17.9333 36.0554 17.5455 35.8722C17.162 35.6889 16.8467 35.4162 16.5995 35.054C16.3524 34.6918 16.2288 34.2422 16.2288 33.7053V23.8295ZM23.3831 29.8636V36H22.2453V22.9091H23.3831V27.7223H23.4854C23.7155 27.2152 24.0713 26.8104 24.5528 26.5078C25.0386 26.2053 25.6523 26.054 26.3937 26.054C27.0585 26.054 27.6423 26.1903 28.1452 26.4631C28.648 26.7358 29.04 27.1385 29.3213 27.6712C29.6025 28.2038 29.7432 28.8601 29.7432 29.6399V36H28.599V29.7102C28.599 28.9006 28.3731 28.2635 27.9214 27.799C27.474 27.3303 26.8689 27.0959 26.1061 27.0959C25.5819 27.0959 25.1153 27.2067 24.7062 27.4283C24.2971 27.6499 23.9733 27.9695 23.7346 28.3871C23.5003 28.8004 23.3831 29.2926 23.3831 29.8636ZM36.7089 36.2045C35.7927 36.2045 35.0001 35.9915 34.3311 35.5653C33.662 35.1349 33.1443 34.5405 32.7778 33.782C32.4156 33.0192 32.2345 32.1413 32.2345 31.1484C32.2345 30.1598 32.4156 29.282 32.7778 28.5149C33.1443 27.7436 33.6492 27.1406 34.2927 26.706C34.9404 26.267 35.6883 26.0476 36.5363 26.0476C37.069 26.0476 37.5825 26.1456 38.0768 26.3416C38.5711 26.5334 39.0143 26.8295 39.4063 27.2301C39.8026 27.6264 40.1159 28.1271 40.346 28.7322C40.5761 29.3331 40.6911 30.0447 40.6911 30.8672V31.4297H33.0207V30.4261H39.5278C39.5278 29.7955 39.3999 29.2287 39.1443 28.7259C38.8928 28.2187 38.5413 27.8182 38.0896 27.5241C37.6421 27.2301 37.1244 27.0831 36.5363 27.0831C35.9142 27.0831 35.3666 27.2493 34.8936 27.5817C34.4205 27.9141 34.0498 28.353 33.7813 28.8984C33.5171 29.4439 33.3829 30.0405 33.3786 30.6882V31.2891C33.3786 32.0689 33.5129 32.7507 33.7813 33.3345C34.0541 33.9141 34.4397 34.3636 34.9383 34.6832C35.4369 35.0028 36.0271 35.1626 36.7089 35.1626C37.1734 35.1626 37.5803 35.0902 37.9298 34.9453C38.2835 34.8004 38.5796 34.6065 38.8183 34.3636C39.0612 34.1165 39.2444 33.8459 39.368 33.5518L40.4482 33.9034C40.2991 34.3168 40.0541 34.6982 39.7132 35.0476C39.3765 35.397 38.9546 35.6783 38.4475 35.8913C37.9447 36.1001 37.3651 36.2045 36.7089 36.2045ZM48.2609 36V26.1818H49.3667V27.6903H49.4498C49.6459 27.196 49.9868 26.7976 50.4726 26.495C50.9626 26.1882 51.5166 26.0348 52.1345 26.0348C52.2282 26.0348 52.3327 26.0369 52.4477 26.0412C52.5628 26.0455 52.6586 26.0497 52.7354 26.054V27.2109C52.6842 27.2024 52.5947 27.1896 52.4669 27.1726C52.339 27.1555 52.2006 27.147 52.0514 27.147C51.54 27.147 51.0841 27.2557 50.6835 27.473C50.2872 27.6861 49.974 27.9822 49.7439 28.3615C49.5138 28.7408 49.3987 29.1733 49.3987 29.6591V36H48.2609ZM57.4191 36.2237C56.8268 36.2237 56.2856 36.1087 55.7955 35.8786C55.3055 35.6442 54.9156 35.3075 54.6258 34.8686C54.336 34.4254 54.1911 33.8885 54.1911 33.2578C54.1911 32.772 54.2828 32.3629 54.466 32.0305C54.6492 31.6982 54.9092 31.4254 55.2458 31.2124C55.5825 30.9993 55.9809 30.831 56.4411 30.7074C56.9014 30.5838 57.4085 30.4879 57.9624 30.4197C58.5122 30.3516 58.9767 30.2919 59.3559 30.2408C59.7394 30.1896 60.0313 30.1087 60.2316 29.9979C60.4319 29.8871 60.532 29.7081 60.532 29.4609V29.2308C60.532 28.5618 60.3318 28.0355 59.9312 27.652C59.5349 27.2642 58.9639 27.0703 58.2181 27.0703C57.5107 27.0703 56.9333 27.2259 56.4859 27.5369C56.0427 27.848 55.7316 28.2145 55.5526 28.6364L54.4724 28.2464C54.694 27.7095 55.0008 27.2812 55.3928 26.9616C55.7849 26.6378 56.2238 26.4055 56.7096 26.2649C57.1954 26.12 57.6876 26.0476 58.1862 26.0476C58.5612 26.0476 58.9511 26.0966 59.3559 26.1946C59.765 26.2926 60.1443 26.4631 60.4937 26.706C60.8431 26.9446 61.1265 27.2791 61.3438 27.7095C61.5612 28.1357 61.6698 28.6768 61.6698 29.3331V36H60.532V34.4467H60.4617C60.3254 34.7365 60.123 35.0178 59.8545 35.2905C59.586 35.5632 59.2494 35.7869 58.8445 35.9616C58.4397 36.1364 57.9646 36.2237 57.4191 36.2237ZM57.5725 35.1818C58.1776 35.1818 58.7018 35.0476 59.145 34.7791C59.5882 34.5107 59.9291 34.1548 60.1677 33.7116C60.4106 33.2642 60.532 32.772 60.532 32.2351V30.8161C60.4468 30.897 60.3041 30.9695 60.1038 31.0334C59.9078 31.0973 59.6798 31.1548 59.4198 31.206C59.1642 31.2528 58.9085 31.2933 58.6528 31.3274C58.3971 31.3615 58.167 31.3913 57.9624 31.4169C57.4085 31.4851 56.9355 31.5916 56.5434 31.7365C56.1514 31.8814 55.8509 32.0817 55.6421 32.3374C55.4333 32.5888 55.3289 32.9126 55.3289 33.3089C55.3289 33.9055 55.542 34.3679 55.9681 34.696C56.3943 35.0199 56.9291 35.1818 57.5725 35.1818ZM64.6965 39.6818V26.1818H65.8023V28.0547H65.9365C66.0729 27.7607 66.2604 27.4602 66.499 27.1534C66.7377 26.8423 67.053 26.5803 67.445 26.3672C67.8414 26.1541 68.3399 26.0476 68.9408 26.0476C69.7504 26.0476 70.4578 26.2607 71.0629 26.6868C71.6723 27.1087 72.1453 27.701 72.482 28.4638C72.8229 29.2223 72.9933 30.1065 72.9933 31.1165C72.9933 32.1307 72.8229 33.0192 72.482 33.782C72.1453 34.5447 71.6723 35.1392 71.0629 35.5653C70.4578 35.9915 69.7547 36.2045 68.9536 36.2045C68.3612 36.2045 67.8648 36.098 67.4642 35.8849C67.0679 35.6719 66.7462 35.4098 66.499 35.0987C66.2561 34.7834 66.0686 34.4766 65.9365 34.1783H65.8343V39.6818H64.6965ZM65.8215 31.0973C65.8215 31.8899 65.9387 32.593 66.173 33.2067C66.4117 33.8161 66.7526 34.2955 67.1958 34.6449C67.6432 34.9901 68.1844 35.1626 68.8193 35.1626C69.4713 35.1626 70.021 34.9837 70.4685 34.6257C70.9202 34.2635 71.2632 33.7756 71.4976 33.1619C71.7362 32.5483 71.8556 31.8601 71.8556 31.0973C71.8556 30.343 71.7384 29.6634 71.504 29.0582C71.2739 28.4531 70.933 27.9737 70.4813 27.62C70.0296 27.2621 69.4756 27.0831 68.8193 27.0831C68.1801 27.0831 67.6368 27.2557 67.1894 27.6009C66.7419 27.9418 66.401 28.4148 66.1666 29.0199C65.9365 29.6207 65.8215 30.3132 65.8215 31.0973ZM75.5022 36V26.1818H76.6464V36H75.5022ZM76.0839 24.4943C75.8495 24.4943 75.6492 24.4155 75.483 24.2578C75.3169 24.0959 75.2338 23.902 75.2338 23.6761C75.2338 23.4503 75.3169 23.2585 75.483 23.1009C75.6492 22.9389 75.8495 22.858 76.0839 22.858C76.3183 22.858 76.5186 22.9389 76.6847 23.1009C76.8509 23.2585 76.934 23.4503 76.934 23.6761C76.934 23.902 76.8509 24.0959 76.6847 24.2578C76.5186 24.4155 76.3183 24.4943 76.0839 24.4943ZM83.1903 36.2045C82.3849 36.2045 81.6796 35.9915 81.0745 35.5653C80.4694 35.1392 79.9964 34.5447 79.6555 33.782C79.3188 33.0192 79.1505 32.1307 79.1505 31.1165C79.1505 30.1065 79.3188 29.2223 79.6555 28.4638C79.9964 27.701 80.4715 27.1087 81.0809 26.6868C81.6903 26.2607 82.3998 26.0476 83.2094 26.0476C83.806 26.0476 84.3025 26.1541 84.6988 26.3672C85.0951 26.576 85.4126 26.8359 85.6512 27.147C85.8898 27.4581 86.0752 27.7607 86.2073 28.0547H86.3096V22.9091H87.4537V36H86.3415V34.1783H86.2073C86.0752 34.4766 85.8877 34.7834 85.6448 35.0987C85.4019 35.4098 85.0802 35.6719 84.6796 35.8849C84.2833 36.098 83.7868 36.2045 83.1903 36.2045ZM83.3245 35.1626C83.9594 35.1626 84.5006 34.9901 84.9481 34.6449C85.3955 34.2955 85.7364 33.8161 85.9708 33.2067C86.2094 32.593 86.3287 31.8899 86.3287 31.0973C86.3287 30.3132 86.2116 29.6207 85.9772 29.0199C85.7428 28.4148 85.4019 27.9418 84.9545 27.6009C84.507 27.2557 83.9637 27.0831 83.3245 27.0831C82.6682 27.0831 82.1143 27.2621 81.6626 27.62C81.2151 27.9737 80.8742 28.4531 80.6398 29.0582C80.4097 29.6634 80.2947 30.343 80.2947 31.0973C80.2947 31.8601 80.4118 32.5483 80.6462 33.1619C80.8806 33.7756 81.2215 34.2635 81.6689 34.6257C82.1206 34.9837 82.6725 35.1626 83.3245 35.1626ZM91.8323 22.9091V36H90.6945V22.9091H91.8323ZM95.6356 39.6818C95.4097 39.6818 95.1988 39.6605 95.0028 39.6179C94.8067 39.5753 94.6512 39.5284 94.5361 39.4773L94.843 38.4737C95.2307 38.593 95.5759 38.6357 95.8785 38.6016C96.181 38.5717 96.4495 38.4354 96.6839 38.1925C96.9182 37.9538 97.127 37.5874 97.3103 37.093L97.6682 36.0959L94.0567 26.1818H95.2904L98.2052 34.4979H98.2947L101.209 26.1818H102.443L98.2883 37.5533C98.1135 38.0263 97.8983 38.4205 97.6427 38.7358C97.387 39.0554 97.0908 39.2919 96.7542 39.4453C96.4218 39.603 96.0489 39.6818 95.6356 39.6818ZM113.477 39.8864C112.808 39.8864 112.222 39.799 111.72 39.6243C111.217 39.4538 110.793 39.2195 110.448 38.9212C110.102 38.6229 109.834 38.2884 109.642 37.9176L110.575 37.304C110.716 37.5511 110.903 37.794 111.138 38.0327C111.377 38.2713 111.685 38.4695 112.065 38.6271C112.448 38.7848 112.919 38.8636 113.477 38.8636C114.347 38.8636 115.048 38.6463 115.58 38.2116C116.117 37.777 116.386 37.1016 116.386 36.1854V33.9737H116.283C116.151 34.272 115.962 34.5703 115.715 34.8686C115.467 35.1626 115.144 35.4077 114.743 35.6037C114.347 35.7997 113.854 35.8977 113.266 35.8977C112.482 35.8977 111.786 35.7038 111.176 35.3161C110.571 34.9283 110.094 34.3743 109.744 33.6541C109.399 32.9297 109.227 32.0668 109.227 31.0653C109.227 30.0724 109.395 29.1989 109.732 28.4446C110.073 27.6903 110.548 27.1023 111.157 26.6804C111.766 26.2585 112.476 26.0476 113.286 26.0476C113.886 26.0476 114.385 26.1541 114.781 26.3672C115.178 26.576 115.495 26.8359 115.734 27.147C115.977 27.4581 116.166 27.7607 116.303 28.0547H116.418V26.1818H117.53V36.2557C117.53 37.0866 117.353 37.7706 116.999 38.3075C116.646 38.8445 116.164 39.2408 115.555 39.4964C114.945 39.7564 114.253 39.8864 113.477 39.8864ZM113.401 34.8558C114.031 34.8558 114.57 34.7045 115.018 34.402C115.465 34.0952 115.808 33.6562 116.047 33.0852C116.286 32.5142 116.405 31.8345 116.405 31.0462C116.405 30.2791 116.288 29.5994 116.053 29.0071C115.819 28.4105 115.478 27.9418 115.031 27.6009C114.587 27.2557 114.044 27.0831 113.401 27.0831C112.744 27.0831 112.19 27.2599 111.739 27.6136C111.287 27.9673 110.946 28.4446 110.716 29.0455C110.486 29.642 110.371 30.3089 110.371 31.0462C110.371 31.7962 110.488 32.4588 110.722 33.0341C110.957 33.6051 111.3 34.0526 111.752 34.3764C112.203 34.696 112.753 34.8558 113.401 34.8558ZM120.542 36V26.1818H121.648V27.6903H121.731C121.927 27.196 122.268 26.7976 122.754 26.495C123.244 26.1882 123.798 26.0348 124.416 26.0348C124.509 26.0348 124.614 26.0369 124.729 26.0412C124.844 26.0455 124.94 26.0497 125.017 26.054V27.2109C124.965 27.2024 124.876 27.1896 124.748 27.1726C124.62 27.1555 124.482 27.147 124.333 27.147C123.821 27.147 123.365 27.2557 122.965 27.473C122.568 27.6861 122.255 27.9822 122.025 28.3615C121.795 28.7408 121.68 29.1733 121.68 29.6591V36H120.542ZM130.475 36.2045C129.627 36.2045 128.877 35.9893 128.225 35.5589C127.578 35.1286 127.071 34.5341 126.704 33.7756C126.338 33.0128 126.154 32.1328 126.154 31.1357C126.154 30.13 126.338 29.2457 126.704 28.483C127.071 27.7159 127.578 27.1193 128.225 26.6932C128.877 26.2628 129.627 26.0476 130.475 26.0476C131.323 26.0476 132.071 26.2628 132.719 26.6932C133.367 27.1236 133.874 27.7202 134.24 28.483C134.611 29.2457 134.796 30.13 134.796 31.1357C134.796 32.1328 134.613 33.0128 134.247 33.7756C133.88 34.5341 133.371 35.1286 132.719 35.5589C132.071 35.9893 131.323 36.2045 130.475 36.2045ZM130.475 35.1626C131.157 35.1626 131.735 34.9794 132.208 34.6129C132.681 34.2464 133.039 33.7585 133.282 33.1491C133.529 32.5398 133.652 31.8686 133.652 31.1357C133.652 30.4027 133.529 29.7294 133.282 29.1158C133.039 28.5021 132.681 28.0099 132.208 27.6392C131.735 27.2685 131.157 27.0831 130.475 27.0831C129.798 27.0831 129.22 27.2685 128.743 27.6392C128.27 28.0099 127.91 28.5021 127.663 29.1158C127.42 29.7294 127.299 30.4027 127.299 31.1357C127.299 31.8686 127.42 32.5398 127.663 33.1491C127.91 33.7585 128.27 34.2464 128.743 34.6129C129.216 34.9794 129.794 35.1626 130.475 35.1626ZM139.14 36L136.174 26.1818H137.376L139.702 34.2805H139.785L142.106 26.1818H143.314L145.615 34.2614H145.704L148.031 26.1818H149.233L146.267 36H145.091L142.764 27.9524H142.643L140.316 36H139.14ZM151.457 36V26.1818H152.601V36H151.457ZM152.039 24.4943C151.805 24.4943 151.604 24.4155 151.438 24.2578C151.272 24.0959 151.189 23.902 151.189 23.6761C151.189 23.4503 151.272 23.2585 151.438 23.1009C151.604 22.9389 151.805 22.858 152.039 22.858C152.273 22.858 152.474 22.9389 152.64 23.1009C152.806 23.2585 152.889 23.4503 152.889 23.6761C152.889 23.902 152.806 24.0959 152.64 24.2578C152.474 24.4155 152.273 24.4943 152.039 24.4943ZM156.748 29.8636V36H155.611V26.1818H156.716V27.7223H156.819C157.049 27.2195 157.407 26.8168 157.892 26.5142C158.383 26.2074 158.988 26.054 159.708 26.054C160.368 26.054 160.948 26.1925 161.446 26.4695C161.949 26.7422 162.339 27.1449 162.616 27.6776C162.897 28.2102 163.038 28.8643 163.038 29.6399V36H161.9V29.7102C161.9 28.9048 161.674 28.2678 161.223 27.799C160.775 27.3303 160.174 27.0959 159.42 27.0959C158.905 27.0959 158.446 27.2067 158.046 27.4283C157.645 27.6499 157.328 27.9695 157.093 28.3871C156.863 28.8004 156.748 29.2926 156.748 29.8636ZM169.78 39.8864C169.111 39.8864 168.525 39.799 168.022 39.6243C167.519 39.4538 167.095 39.2195 166.75 38.9212C166.405 38.6229 166.137 38.2884 165.945 37.9176L166.878 37.304C167.019 37.5511 167.206 37.794 167.441 38.0327C167.679 38.2713 167.988 38.4695 168.367 38.6271C168.751 38.7848 169.222 38.8636 169.78 38.8636C170.649 38.8636 171.35 38.6463 171.883 38.2116C172.42 37.777 172.688 37.1016 172.688 36.1854V33.9737H172.586C172.454 34.272 172.264 34.5703 172.017 34.8686C171.77 35.1626 171.446 35.4077 171.046 35.6037C170.649 35.7997 170.157 35.8977 169.569 35.8977C168.785 35.8977 168.088 35.7038 167.479 35.3161C166.874 34.9283 166.397 34.3743 166.047 33.6541C165.702 32.9297 165.529 32.0668 165.529 31.0653C165.529 30.0724 165.698 29.1989 166.034 28.4446C166.375 27.6903 166.85 27.1023 167.46 26.6804C168.069 26.2585 168.779 26.0476 169.588 26.0476C170.189 26.0476 170.688 26.1541 171.084 26.3672C171.48 26.576 171.798 26.8359 172.036 27.147C172.279 27.4581 172.469 27.7607 172.605 28.0547H172.72V26.1818H173.833V36.2557C173.833 37.0866 173.656 37.7706 173.302 38.3075C172.948 38.8445 172.467 39.2408 171.858 39.4964C171.248 39.7564 170.556 39.8864 169.78 39.8864ZM169.703 34.8558C170.334 34.8558 170.873 34.7045 171.321 34.402C171.768 34.0952 172.111 33.6562 172.35 33.0852C172.588 32.5142 172.708 31.8345 172.708 31.0462C172.708 30.2791 172.59 29.5994 172.356 29.0071C172.122 28.4105 171.781 27.9418 171.333 27.6009C170.89 27.2557 170.347 27.0831 169.703 27.0831C169.047 27.0831 168.493 27.2599 168.041 27.6136C167.59 27.9673 167.249 28.4446 167.019 29.0455C166.789 29.642 166.674 30.3089 166.674 31.0462C166.674 31.7962 166.791 32.4588 167.025 33.0341C167.259 33.6051 167.603 34.0526 168.054 34.3764C168.506 34.696 169.056 34.8558 169.703 34.8558ZM182.144 36V22.9091H189.738V23.983H183.339V28.9112H189.335V29.9851H183.339V34.9261H189.866V36H182.144ZM192.039 23.983V22.9091H201.531V23.983H197.383V36H196.187V23.983H192.039ZM213.93 27H212.728C212.639 26.5526 212.477 26.1392 212.242 25.7599C212.012 25.3764 211.723 25.0419 211.373 24.7564C211.024 24.4709 210.627 24.2493 210.184 24.0916C209.741 23.9339 209.262 23.8551 208.746 23.8551C207.919 23.8551 207.165 24.0703 206.483 24.5007C205.806 24.9311 205.262 25.5639 204.853 26.3991C204.448 27.2301 204.246 28.2486 204.246 29.4545C204.246 30.669 204.448 31.6918 204.853 32.5227C205.262 33.3537 205.806 33.9844 206.483 34.4148C207.165 34.8409 207.919 35.054 208.746 35.054C209.262 35.054 209.741 34.9751 210.184 34.8175C210.627 34.6598 211.024 34.4403 211.373 34.1591C211.723 33.8736 212.012 33.5391 212.242 33.1555C212.477 32.772 212.639 32.3565 212.728 31.9091H213.93C213.823 32.5099 213.623 33.0703 213.329 33.5902C213.039 34.1058 212.669 34.5575 212.217 34.9453C211.769 35.3331 211.254 35.6357 210.67 35.853C210.086 36.0703 209.445 36.179 208.746 36.179C207.647 36.179 206.671 35.9041 205.818 35.3544C204.966 34.8004 204.297 34.0206 203.811 33.0149C203.33 32.0092 203.089 30.8224 203.089 29.4545C203.089 28.0866 203.33 26.8999 203.811 25.8942C204.297 24.8885 204.966 24.1108 205.818 23.5611C206.671 23.0071 207.647 22.7301 208.746 22.7301C209.445 22.7301 210.086 22.8388 210.67 23.0561C211.254 23.2692 211.769 23.5717 212.217 23.9638C212.669 24.3516 213.039 24.8033 213.329 25.3189C213.623 25.8345 213.823 26.3949 213.93 27ZM225.399 36.2045C224.521 36.2045 223.756 35.9851 223.104 35.5462C222.456 35.1072 221.954 34.5064 221.596 33.7436C221.238 32.9808 221.059 32.1115 221.059 31.1357C221.059 30.1513 221.24 29.2756 221.602 28.5085C221.968 27.7415 222.476 27.1406 223.123 26.706C223.771 26.267 224.523 26.0476 225.38 26.0476C226.036 26.0476 226.63 26.1754 227.163 26.4311C227.696 26.6825 228.135 27.0384 228.48 27.4986C228.829 27.9545 229.049 28.4872 229.138 29.0966H227.988C227.868 28.5426 227.581 28.0696 227.125 27.6776C226.673 27.2812 226.098 27.0831 225.399 27.0831C224.772 27.0831 224.218 27.2536 223.737 27.5945C223.255 27.9311 222.878 28.402 222.606 29.0071C222.337 29.608 222.203 30.3047 222.203 31.0973C222.203 31.8942 222.335 32.5994 222.599 33.2131C222.863 33.8224 223.234 34.2997 223.711 34.6449C224.193 34.9901 224.755 35.1626 225.399 35.1626C225.834 35.1626 226.23 35.0817 226.588 34.9197C226.95 34.7536 227.253 34.5192 227.495 34.2166C227.743 33.9141 227.909 33.554 227.994 33.1364H229.145C229.059 33.7287 228.848 34.2571 228.512 34.7216C228.179 35.1818 227.747 35.544 227.214 35.8082C226.686 36.0724 226.081 36.2045 225.399 36.2045ZM232.721 29.8636V36H231.583V22.9091H232.721V27.7223H232.823C233.053 27.2152 233.409 26.8104 233.891 26.5078C234.377 26.2053 234.99 26.054 235.732 26.054C236.396 26.054 236.98 26.1903 237.483 26.4631C237.986 26.7358 238.378 27.1385 238.659 27.6712C238.94 28.2038 239.081 28.8601 239.081 29.6399V36H237.937V29.7102C237.937 28.9006 237.711 28.2635 237.259 27.799C236.812 27.3303 236.207 27.0959 235.444 27.0959C234.92 27.0959 234.453 27.2067 234.044 27.4283C233.635 27.6499 233.311 27.9695 233.073 28.3871C232.838 28.8004 232.721 29.2926 232.721 29.8636ZM244.82 36.2237C244.227 36.2237 243.686 36.1087 243.196 35.8786C242.706 35.6442 242.316 35.3075 242.026 34.8686C241.736 34.4254 241.592 33.8885 241.592 33.2578C241.592 32.772 241.683 32.3629 241.866 32.0305C242.05 31.6982 242.31 31.4254 242.646 31.2124C242.983 30.9993 243.381 30.831 243.842 30.7074C244.302 30.5838 244.809 30.4879 245.363 30.4197C245.913 30.3516 246.377 30.2919 246.756 30.2408C247.14 30.1896 247.432 30.1087 247.632 29.9979C247.832 29.8871 247.932 29.7081 247.932 29.4609V29.2308C247.932 28.5618 247.732 28.0355 247.332 27.652C246.935 27.2642 246.364 27.0703 245.619 27.0703C244.911 27.0703 244.334 27.2259 243.886 27.5369C243.443 27.848 243.132 28.2145 242.953 28.6364L241.873 28.2464C242.094 27.7095 242.401 27.2812 242.793 26.9616C243.185 26.6378 243.624 26.4055 244.11 26.2649C244.596 26.12 245.088 26.0476 245.587 26.0476C245.962 26.0476 246.351 26.0966 246.756 26.1946C247.165 26.2926 247.545 26.4631 247.894 26.706C248.244 26.9446 248.527 27.2791 248.744 27.7095C248.962 28.1357 249.07 28.6768 249.07 29.3331V36H247.932V34.4467H247.862C247.726 34.7365 247.523 35.0178 247.255 35.2905C246.986 35.5632 246.65 35.7869 246.245 35.9616C245.84 36.1364 245.365 36.2237 244.82 36.2237ZM244.973 35.1818C245.578 35.1818 246.102 35.0476 246.545 34.7791C246.989 34.5107 247.329 34.1548 247.568 33.7116C247.811 33.2642 247.932 32.772 247.932 32.2351V30.8161C247.847 30.897 247.704 30.9695 247.504 31.0334C247.308 31.0973 247.08 31.1548 246.82 31.206C246.565 31.2528 246.309 31.2933 246.053 31.3274C245.797 31.3615 245.567 31.3913 245.363 31.4169C244.809 31.4851 244.336 31.5916 243.944 31.7365C243.552 31.8814 243.251 32.0817 243.043 32.3374C242.834 32.5888 242.729 32.9126 242.729 33.3089C242.729 33.9055 242.942 34.3679 243.369 34.696C243.795 35.0199 244.329 35.1818 244.973 35.1818ZM253.235 29.8636V36H252.097V26.1818H253.203V27.7223H253.305C253.535 27.2195 253.893 26.8168 254.379 26.5142C254.869 26.2074 255.474 26.054 256.194 26.054C256.855 26.054 257.434 26.1925 257.933 26.4695C258.436 26.7422 258.826 27.1449 259.103 27.6776C259.384 28.2102 259.524 28.8643 259.524 29.6399V36H258.387V29.7102C258.387 28.9048 258.161 28.2678 257.709 27.799C257.262 27.3303 256.661 27.0959 255.907 27.0959C255.391 27.0959 254.933 27.2067 254.532 27.4283C254.132 27.6499 253.814 27.9695 253.58 28.3871C253.35 28.8004 253.235 29.2926 253.235 29.8636ZM263.658 29.8636V36H262.521V26.1818H263.627V27.7223H263.729C263.959 27.2195 264.317 26.8168 264.803 26.5142C265.293 26.2074 265.898 26.054 266.618 26.054C267.278 26.054 267.858 26.1925 268.357 26.4695C268.859 26.7422 269.249 27.1449 269.526 27.6776C269.808 28.2102 269.948 28.8643 269.948 29.6399V36H268.81V29.7102C268.81 28.9048 268.585 28.2678 268.133 27.799C267.685 27.3303 267.085 27.0959 266.33 27.0959C265.815 27.0959 265.357 27.2067 264.956 27.4283C264.555 27.6499 264.238 27.9695 264.004 28.3871C263.774 28.8004 263.658 29.2926 263.658 29.8636ZM276.914 36.2045C275.998 36.2045 275.205 35.9915 274.536 35.5653C273.867 35.1349 273.349 34.5405 272.983 33.782C272.621 33.0192 272.44 32.1413 272.44 31.1484C272.44 30.1598 272.621 29.282 272.983 28.5149C273.349 27.7436 273.854 27.1406 274.498 26.706C275.146 26.267 275.893 26.0476 276.741 26.0476C277.274 26.0476 277.788 26.1456 278.282 26.3416C278.776 26.5334 279.219 26.8295 279.611 27.2301C280.008 27.6264 280.321 28.1271 280.551 28.7322C280.781 29.3331 280.896 30.0447 280.896 30.8672V31.4297H273.226V30.4261H279.733C279.733 29.7955 279.605 29.2287 279.349 28.7259C279.098 28.2187 278.746 27.8182 278.295 27.5241C277.847 27.2301 277.329 27.0831 276.741 27.0831C276.119 27.0831 275.572 27.2493 275.099 27.5817C274.626 27.9141 274.255 28.353 273.986 28.8984C273.722 29.4439 273.588 30.0405 273.584 30.6882V31.2891C273.584 32.0689 273.718 32.7507 273.986 33.3345C274.259 33.9141 274.645 34.3636 275.143 34.6832C275.642 35.0028 276.232 35.1626 276.914 35.1626C277.378 35.1626 277.785 35.0902 278.135 34.9453C278.489 34.8004 278.785 34.6065 279.023 34.3636C279.266 34.1165 279.449 33.8459 279.573 33.5518L280.653 33.9034C280.504 34.3168 280.259 34.6982 279.918 35.0476C279.582 35.397 279.16 35.6783 278.653 35.8913C278.15 36.1001 277.57 36.2045 276.914 36.2045ZM284.541 22.9091V36H283.403V22.9091H284.541ZM294.794 36L291.828 26.1818H293.03L295.357 34.2805H295.44L297.76 26.1818H298.968L301.269 34.2614H301.359L303.685 26.1818H304.887L301.921 36H300.745L298.418 27.9524H298.297L295.97 36H294.794ZM307.112 36V26.1818H308.256V36H307.112ZM307.693 24.4943C307.459 24.4943 307.259 24.4155 307.092 24.2578C306.926 24.0959 306.843 23.902 306.843 23.6761C306.843 23.4503 306.926 23.2585 307.092 23.1009C307.259 22.9389 307.459 22.858 307.693 22.858C307.928 22.858 308.128 22.9389 308.294 23.1009C308.46 23.2585 308.543 23.4503 308.543 23.6761C308.543 23.902 308.46 24.0959 308.294 24.2578C308.128 24.4155 307.928 24.4943 307.693 24.4943ZM315.132 26.1818V27.1726H310.447V26.1818H315.132ZM311.91 23.8295H313.055V33.4368C313.055 33.8459 313.125 34.1676 313.266 34.402C313.406 34.6321 313.589 34.7962 313.815 34.8942C314.041 34.9879 314.282 35.0348 314.538 35.0348C314.687 35.0348 314.815 35.0263 314.921 35.0092C315.028 34.9879 315.121 34.9666 315.202 34.9453L315.445 35.9744C315.334 36.017 315.198 36.0554 315.036 36.0895C314.874 36.1278 314.674 36.147 314.435 36.147C314.018 36.147 313.615 36.0554 313.227 35.8722C312.844 35.6889 312.528 35.4162 312.281 35.054C312.034 34.6918 311.91 34.2422 311.91 33.7053V23.8295ZM319.065 29.8636V36H317.927V22.9091H319.065V27.7223H319.167C319.397 27.2152 319.753 26.8104 320.234 26.5078C320.72 26.2053 321.334 26.054 322.075 26.054C322.74 26.054 323.324 26.1903 323.827 26.4631C324.33 26.7358 324.722 27.1385 325.003 27.6712C325.284 28.2038 325.425 28.8601 325.425 29.6399V36H324.281V29.7102C324.281 28.9006 324.055 28.2635 323.603 27.799C323.156 27.3303 322.551 27.0959 321.788 27.0959C321.264 27.0959 320.797 27.2067 320.388 27.4283C319.979 27.6499 319.655 27.9695 319.416 28.3871C319.182 28.8004 319.065 29.2926 319.065 29.8636ZM23.5772 50.3359L22.5353 50.63C22.4331 50.3359 22.2882 50.0696 22.1007 49.831C21.9132 49.5923 21.6681 49.4027 21.3656 49.2621C21.0673 49.1214 20.6966 49.0511 20.2534 49.0511C19.5886 49.0511 19.0431 49.2088 18.617 49.5241C18.1909 49.8395 17.9778 50.2464 17.9778 50.745C17.9778 51.1669 18.1227 51.5099 18.4125 51.7741C18.7065 52.0341 19.1582 52.2408 19.7676 52.3942L21.2505 52.7585C22.073 52.9588 22.6887 53.2763 23.0978 53.7109C23.5112 54.1456 23.7179 54.6911 23.7179 55.3473C23.7179 55.9013 23.5645 56.3935 23.2576 56.8239C22.9508 57.2543 22.5225 57.593 21.9728 57.8402C21.4274 58.0831 20.7946 58.2045 20.0744 58.2045C19.1156 58.2045 18.3251 57.9893 17.7029 57.5589C17.0808 57.1243 16.6824 56.4979 16.5076 55.6797L17.6007 55.4112C17.7413 55.995 18.0162 56.4361 18.4252 56.7344C18.8386 57.0327 19.3819 57.1818 20.0552 57.1818C20.8095 57.1818 21.4125 57.0135 21.8642 56.6768C22.3159 56.3359 22.5417 55.9098 22.5417 55.3984C22.5417 55.0021 22.4096 54.6697 22.1454 54.4013C21.8812 54.1286 21.4806 53.9283 20.9437 53.8004L19.3393 53.4169C18.487 53.2124 17.8564 52.8885 17.4473 52.4453C17.0382 52.0021 16.8336 51.4524 16.8336 50.7962C16.8336 50.255 16.9806 49.7798 17.2747 49.3707C17.5687 48.9574 17.9735 48.6335 18.4892 48.3991C19.0048 48.1648 19.5929 48.0476 20.2534 48.0476C21.1525 48.0476 21.8706 48.2521 22.4075 48.6612C22.9487 49.0661 23.3386 49.6243 23.5772 50.3359ZM28.9513 58.2237C28.359 58.2237 27.8178 58.1087 27.3278 57.8786C26.8377 57.6442 26.4478 57.3075 26.158 56.8686C25.8683 56.4254 25.7234 55.8885 25.7234 55.2578C25.7234 54.772 25.815 54.3629 25.9982 54.0305C26.1815 53.6982 26.4414 53.4254 26.7781 53.2124C27.1147 52.9993 27.5131 52.831 27.9734 52.7074C28.4336 52.5838 28.9407 52.4879 29.4947 52.4197C30.0444 52.3516 30.5089 52.2919 30.8881 52.2408C31.2717 52.1896 31.5636 52.1087 31.7638 51.9979C31.9641 51.8871 32.0643 51.7081 32.0643 51.4609V51.2308C32.0643 50.5618 31.864 50.0355 31.4634 49.652C31.0671 49.2642 30.4961 49.0703 29.7504 49.0703C29.043 49.0703 28.4656 49.2259 28.0181 49.5369C27.5749 49.848 27.2638 50.2145 27.0849 50.6364L26.0046 50.2464C26.2262 49.7095 26.533 49.2812 26.9251 48.9616C27.3171 48.6378 27.756 48.4055 28.2418 48.2649C28.7276 48.12 29.2198 48.0476 29.7184 48.0476C30.0934 48.0476 30.4833 48.0966 30.8881 48.1946C31.2972 48.2926 31.6765 48.4631 32.0259 48.706C32.3754 48.9446 32.6587 49.2791 32.8761 49.7095C33.0934 50.1357 33.2021 50.6768 33.2021 51.3331V58H32.0643V56.4467H31.994C31.8576 56.7365 31.6552 57.0178 31.3867 57.2905C31.1183 57.5632 30.7816 57.7869 30.3768 57.9616C29.9719 58.1364 29.4968 58.2237 28.9513 58.2237ZM29.1048 57.1818C29.7099 57.1818 30.234 57.0476 30.6772 56.7791C31.1204 56.5107 31.4613 56.1548 31.6999 55.7116C31.9428 55.2642 32.0643 54.772 32.0643 54.2351V52.8161C31.979 52.897 31.8363 52.9695 31.636 53.0334C31.44 53.0973 31.212 53.1548 30.9521 53.206C30.6964 53.2528 30.4407 53.2933 30.185 53.3274C29.9293 53.3615 29.6992 53.3913 29.4947 53.4169C28.9407 53.4851 28.4677 53.5916 28.0756 53.7365C27.6836 53.8814 27.3832 54.0817 27.1744 54.3374C26.9656 54.5888 26.8612 54.9126 26.8612 55.3089C26.8612 55.9055 27.0742 56.3679 27.5004 56.696C27.9265 57.0199 28.4613 57.1818 29.1048 57.1818ZM37.3665 44.9091V58H36.2287V44.9091H37.3665ZM44.3466 58.2045C43.4304 58.2045 42.6378 57.9915 41.9688 57.5653C41.2997 57.1349 40.782 56.5405 40.4155 55.782C40.0533 55.0192 39.8722 54.1413 39.8722 53.1484C39.8722 52.1598 40.0533 51.282 40.4155 50.5149C40.782 49.7436 41.2869 49.1406 41.9304 48.706C42.5781 48.267 43.326 48.0476 44.174 48.0476C44.7067 48.0476 45.2202 48.1456 45.7145 48.3416C46.2088 48.5334 46.652 48.8295 47.044 49.2301C47.4403 49.6264 47.7536 50.1271 47.9837 50.7322C48.2138 51.3331 48.3288 52.0447 48.3288 52.8672V53.4297H40.6584V52.4261H47.1655C47.1655 51.7955 47.0376 51.2287 46.782 50.7259C46.5305 50.2187 46.179 49.8182 45.7273 49.5241C45.2798 49.2301 44.7621 49.0831 44.174 49.0831C43.5518 49.0831 43.0043 49.2493 42.5312 49.5817C42.0582 49.9141 41.6875 50.353 41.419 50.8984C41.1548 51.4439 41.0206 52.0405 41.0163 52.6882V53.2891C41.0163 54.0689 41.1506 54.7507 41.419 55.3345C41.6918 55.9141 42.0774 56.3636 42.576 56.6832C43.0746 57.0028 43.6648 57.1626 44.3466 57.1626C44.8111 57.1626 45.218 57.0902 45.5675 56.9453C45.9212 56.8004 46.2173 56.6065 46.456 56.3636C46.6989 56.1165 46.8821 55.8459 47.0057 55.5518L48.0859 55.9034C47.9368 56.3168 47.6918 56.6982 47.3509 57.0476C47.0142 57.397 46.5923 57.6783 46.0852 57.8913C45.5824 58.1001 45.0028 58.2045 44.3466 58.2045ZM57.4327 50.3359L56.3908 50.63C56.2885 50.3359 56.1436 50.0696 55.9561 49.831C55.7686 49.5923 55.5236 49.4027 55.2211 49.2621C54.9228 49.1214 54.552 49.0511 54.1088 49.0511C53.4441 49.0511 52.8986 49.2088 52.4725 49.5241C52.0463 49.8395 51.8333 50.2464 51.8333 50.745C51.8333 51.1669 51.9782 51.5099 52.2679 51.7741C52.562 52.0341 53.0137 52.2408 53.623 52.3942L55.106 52.7585C55.9284 52.9588 56.5442 53.2763 56.9533 53.7109C57.3667 54.1456 57.5733 54.6911 57.5733 55.3473C57.5733 55.9013 57.4199 56.3935 57.1131 56.8239C56.8063 57.2543 56.378 57.593 55.8283 57.8402C55.2828 58.0831 54.65 58.2045 53.9299 58.2045C52.9711 58.2045 52.1806 57.9893 51.5584 57.5589C50.9363 57.1243 50.5378 56.4979 50.3631 55.6797L51.4561 55.4112C51.5968 55.995 51.8716 56.4361 52.2807 56.7344C52.6941 57.0327 53.2374 57.1818 53.9107 57.1818C54.665 57.1818 55.2679 57.0135 55.7196 56.6768C56.1713 56.3359 56.3972 55.9098 56.3972 55.3984C56.3972 55.0021 56.2651 54.6697 56.0009 54.4013C55.7367 54.1286 55.3361 53.9283 54.7992 53.8004L53.1948 53.4169C52.3425 53.2124 51.7118 52.8885 51.3027 52.4453C50.8936 52.0021 50.6891 51.4524 50.6891 50.7962C50.6891 50.255 50.8361 49.7798 51.1301 49.3707C51.4242 48.9574 51.829 48.6335 52.3446 48.3991C52.8603 48.1648 53.4483 48.0476 54.1088 48.0476C55.008 48.0476 55.726 48.2521 56.263 48.6612C56.8042 49.0661 57.1941 49.6243 57.4327 50.3359ZM67.8693 58.2237C67.277 58.2237 66.7358 58.1087 66.2457 57.8786C65.7557 57.6442 65.3658 57.3075 65.076 56.8686C64.7862 56.4254 64.6413 55.8885 64.6413 55.2578C64.6413 54.772 64.733 54.3629 64.9162 54.0305C65.0994 53.6982 65.3594 53.4254 65.696 53.2124C66.0327 52.9993 66.4311 52.831 66.8913 52.7074C67.3516 52.5838 67.8587 52.4879 68.4126 52.4197C68.9624 52.3516 69.4268 52.2919 69.8061 52.2408C70.1896 52.1896 70.4815 52.1087 70.6818 51.9979C70.8821 51.8871 70.9822 51.7081 70.9822 51.4609V51.2308C70.9822 50.5618 70.782 50.0355 70.3814 49.652C69.9851 49.2642 69.4141 49.0703 68.6683 49.0703C67.9609 49.0703 67.3835 49.2259 66.9361 49.5369C66.4929 49.848 66.1818 50.2145 66.0028 50.6364L64.9226 50.2464C65.1442 49.7095 65.451 49.2812 65.843 48.9616C66.2351 48.6378 66.674 48.4055 67.1598 48.2649C67.6456 48.12 68.1378 48.0476 68.6364 48.0476C69.0114 48.0476 69.4013 48.0966 69.8061 48.1946C70.2152 48.2926 70.5945 48.4631 70.9439 48.706C71.2933 48.9446 71.5767 49.2791 71.794 49.7095C72.0114 50.1357 72.12 50.6768 72.12 51.3331V58H70.9822V56.4467H70.9119C70.7756 56.7365 70.5732 57.0178 70.3047 57.2905C70.0362 57.5632 69.6996 57.7869 69.2947 57.9616C68.8899 58.1364 68.4148 58.2237 67.8693 58.2237ZM68.0227 57.1818C68.6278 57.1818 69.152 57.0476 69.5952 56.7791C70.0384 56.5107 70.3793 56.1548 70.6179 55.7116C70.8608 55.2642 70.9822 54.772 70.9822 54.2351V52.8161C70.897 52.897 70.7543 52.9695 70.554 53.0334C70.358 53.0973 70.13 53.1548 69.87 53.206C69.6143 53.2528 69.3587 53.2933 69.103 53.3274C68.8473 53.3615 68.6172 53.3913 68.4126 53.4169C67.8587 53.4851 67.3857 53.5916 66.9936 53.7365C66.6016 53.8814 66.3011 54.0817 66.0923 54.3374C65.8835 54.5888 65.7791 54.9126 65.7791 55.3089C65.7791 55.9055 65.9922 56.3679 66.4183 56.696C66.8445 57.0199 67.3793 57.1818 68.0227 57.1818ZM79.0138 48.1818V49.1726H74.3285V48.1818H79.0138ZM75.7923 45.8295H76.9364V55.4368C76.9364 55.8459 77.0067 56.1676 77.1474 56.402C77.288 56.6321 77.4712 56.7962 77.6971 56.8942C77.9229 56.9879 78.1637 57.0348 78.4194 57.0348C78.5685 57.0348 78.6964 57.0263 78.8029 57.0092C78.9094 56.9879 79.0032 56.9666 79.0842 56.9453L79.3271 57.9744C79.2163 58.017 79.0799 58.0554 78.918 58.0895C78.756 58.1278 78.5558 58.147 78.3171 58.147C77.8995 58.147 77.4968 58.0554 77.109 57.8722C76.7255 57.6889 76.4102 57.4162 76.163 57.054C75.9158 56.6918 75.7923 56.2422 75.7923 55.7053V45.8295ZM90.6554 44.9091V58H89.46V46.1619H89.3833L86.3152 48.201V46.9609L89.4089 44.9091H90.6554ZM94.8102 58.0959C94.5588 58.0959 94.3414 58.0064 94.1582 57.8274C93.9792 57.6442 93.8897 57.4268 93.8897 57.1754C93.8897 56.9197 93.9792 56.7024 94.1582 56.5234C94.3414 56.3445 94.5588 56.255 94.8102 56.255C95.0659 56.255 95.2832 56.3445 95.4622 56.5234C95.6412 56.7024 95.7306 56.9197 95.7306 57.1754C95.7306 57.3416 95.688 57.495 95.6028 57.6357C95.5218 57.7763 95.411 57.8892 95.2704 57.9744C95.1341 58.0554 94.9806 58.0959 94.8102 58.0959ZM102.263 58.179C101.428 58.179 100.684 58.0213 100.032 57.706C99.3805 57.3906 98.8691 56.9602 98.4984 56.4148C98.1277 55.8651 97.9423 55.245 97.9423 54.5547C97.9423 54.0135 98.0552 53.5085 98.2811 53.0398C98.5069 52.5668 98.818 52.1705 99.2143 51.8509C99.6106 51.527 100.056 51.3161 100.55 51.218V51.1477C99.9068 50.9602 99.389 50.5916 98.997 50.0419C98.6049 49.4879 98.411 48.8594 98.4153 48.1562C98.411 47.5043 98.5772 46.9205 98.9139 46.4048C99.2505 45.8892 99.7086 45.4822 100.288 45.1839C100.872 44.8814 101.53 44.7301 102.263 44.7301C102.992 44.7301 103.646 44.8814 104.226 45.1839C104.805 45.4822 105.263 45.8892 105.6 46.4048C105.941 46.9205 106.113 47.5043 106.118 48.1562C106.113 48.8551 105.915 49.4837 105.523 50.0419C105.131 50.5959 104.616 50.9645 103.976 51.1477V51.218C104.471 51.3118 104.914 51.5206 105.306 51.8445C105.698 52.1683 106.009 52.5668 106.239 53.0398C106.469 53.5085 106.584 54.0135 106.584 54.5547C106.584 55.245 106.397 55.8651 106.022 56.4148C105.651 56.9602 105.14 57.3906 104.488 57.706C103.84 58.0213 103.099 58.179 102.263 58.179ZM102.263 57.1051C102.885 57.1051 103.431 56.9943 103.9 56.7727C104.373 56.5469 104.741 56.2379 105.006 55.8459C105.274 55.4538 105.408 55.0043 105.408 54.4972C105.408 53.973 105.27 53.5064 104.993 53.0973C104.716 52.6839 104.341 52.358 103.868 52.1193C103.395 51.8764 102.86 51.755 102.263 51.755C101.667 51.755 101.13 51.8764 100.653 52.1193C100.18 52.358 99.8045 52.6839 99.5275 53.0973C99.2548 53.5064 99.1184 53.973 99.1184 54.4972C99.1184 55.0043 99.2484 55.4538 99.5083 55.8459C99.7725 56.2379 100.141 56.5469 100.614 56.7727C101.091 56.9943 101.641 57.1051 102.263 57.1051ZM102.263 50.7322C102.775 50.7322 103.233 50.6236 103.638 50.4062C104.042 50.1889 104.362 49.8928 104.596 49.5178C104.835 49.1385 104.956 48.7081 104.961 48.2266C104.956 47.7493 104.837 47.3274 104.603 46.9609C104.368 46.5902 104.049 46.3026 103.644 46.098C103.243 45.8892 102.783 45.7848 102.263 45.7848C101.743 45.7848 101.279 45.8892 100.87 46.098C100.465 46.3026 100.145 46.5902 99.911 46.9609C99.6809 47.3274 99.568 47.7493 99.5723 48.2266C99.568 48.7081 99.6831 49.1385 99.9174 49.5178C100.156 49.8928 100.478 50.1889 100.883 50.4062C101.292 50.6236 101.752 50.7322 102.263 50.7322ZM109.987 48.1818L112.518 52.3686L115.049 48.1818H116.372L113.214 53.0909L116.372 58H115.049L112.518 53.9474L109.987 58H108.67L111.789 53.0909L108.67 48.1818H109.987ZM124.958 51.8636V58H123.82V44.9091H124.958V49.7223H125.061C125.291 49.2152 125.646 48.8104 126.128 48.5078C126.614 48.2053 127.227 48.054 127.969 48.054C128.634 48.054 129.218 48.1903 129.72 48.4631C130.223 48.7358 130.615 49.1385 130.896 49.6712C131.178 50.2038 131.318 50.8601 131.318 51.6399V58H130.174V51.7102C130.174 50.9006 129.948 50.2635 129.497 49.799C129.049 49.3303 128.444 49.0959 127.681 49.0959C127.157 49.0959 126.691 49.2067 126.281 49.4283C125.872 49.6499 125.548 49.9695 125.31 50.3871C125.075 50.8004 124.958 51.2926 124.958 51.8636ZM134.327 58V48.1818H135.472V58H134.327ZM134.909 46.4943C134.675 46.4943 134.474 46.4155 134.308 46.2578C134.142 46.0959 134.059 45.902 134.059 45.6761C134.059 45.4503 134.142 45.2585 134.308 45.1009C134.474 44.9389 134.675 44.858 134.909 44.858C135.143 44.858 135.344 44.9389 135.51 45.1009C135.676 45.2585 135.759 45.4503 135.759 45.6761C135.759 45.902 135.676 46.0959 135.51 46.2578C135.344 46.4155 135.143 46.4943 134.909 46.4943ZM142.226 61.8864C141.557 61.8864 140.971 61.799 140.469 61.6243C139.966 61.4538 139.542 61.2195 139.197 60.9212C138.851 60.6229 138.583 60.2884 138.391 59.9176L139.324 59.304C139.465 59.5511 139.653 59.794 139.887 60.0327C140.126 60.2713 140.434 60.4695 140.814 60.6271C141.197 60.7848 141.668 60.8636 142.226 60.8636C143.096 60.8636 143.797 60.6463 144.329 60.2116C144.866 59.777 145.135 59.1016 145.135 58.1854V55.9737H145.032C144.9 56.272 144.711 56.5703 144.464 56.8686C144.216 57.1626 143.893 57.4077 143.492 57.6037C143.096 57.7997 142.604 57.8977 142.015 57.8977C141.231 57.8977 140.535 57.7038 139.925 57.3161C139.32 56.9283 138.843 56.3743 138.493 55.6541C138.148 54.9297 137.976 54.0668 137.976 53.0653C137.976 52.0724 138.144 51.1989 138.481 50.4446C138.822 49.6903 139.297 49.1023 139.906 48.6804C140.515 48.2585 141.225 48.0476 142.035 48.0476C142.635 48.0476 143.134 48.1541 143.53 48.3672C143.927 48.576 144.244 48.8359 144.483 49.147C144.726 49.4581 144.915 49.7607 145.052 50.0547H145.167V48.1818H146.279V58.2557C146.279 59.0866 146.102 59.7706 145.748 60.3075C145.395 60.8445 144.913 61.2408 144.304 61.4964C143.694 61.7564 143.002 61.8864 142.226 61.8864ZM142.15 56.8558C142.78 56.8558 143.319 56.7045 143.767 56.402C144.214 56.0952 144.557 55.6562 144.796 55.0852C145.035 54.5142 145.154 53.8345 145.154 53.0462C145.154 52.2791 145.037 51.5994 144.802 51.0071C144.568 50.4105 144.227 49.9418 143.78 49.6009C143.336 49.2557 142.793 49.0831 142.15 49.0831C141.493 49.0831 140.939 49.2599 140.488 49.6136C140.036 49.9673 139.695 50.4446 139.465 51.0455C139.235 51.642 139.12 52.3089 139.12 53.0462C139.12 53.7962 139.237 54.4588 139.471 55.0341C139.706 55.6051 140.049 56.0526 140.501 56.3764C140.952 56.696 141.502 56.8558 142.15 56.8558ZM150.429 51.8636V58H149.291V44.9091H150.429V49.7223H150.531C150.761 49.2152 151.117 48.8104 151.599 48.5078C152.085 48.2053 152.698 48.054 153.44 48.054C154.104 48.054 154.688 48.1903 155.191 48.4631C155.694 48.7358 156.086 49.1385 156.367 49.6712C156.648 50.2038 156.789 50.8601 156.789 51.6399V58H155.645V51.7102C155.645 50.9006 155.419 50.2635 154.967 49.799C154.52 49.3303 153.915 49.0959 153.152 49.0959C152.628 49.0959 152.161 49.2067 151.752 49.4283C151.343 49.6499 151.019 49.9695 150.781 50.3871C150.546 50.8004 150.429 51.2926 150.429 51.8636ZM163.755 58.2045C162.839 58.2045 162.046 57.9915 161.377 57.5653C160.708 57.1349 160.19 56.5405 159.824 55.782C159.461 55.0192 159.28 54.1413 159.28 53.1484C159.28 52.1598 159.461 51.282 159.824 50.5149C160.19 49.7436 160.695 49.1406 161.339 48.706C161.986 48.267 162.734 48.0476 163.582 48.0476C164.115 48.0476 164.628 48.1456 165.123 48.3416C165.617 48.5334 166.06 48.8295 166.452 49.2301C166.849 49.6264 167.162 50.1271 167.392 50.7322C167.622 51.3331 167.737 52.0447 167.737 52.8672V53.4297H160.067V52.4261H166.574C166.574 51.7955 166.446 51.2287 166.19 50.7259C165.939 50.2187 165.587 49.8182 165.135 49.5241C164.688 49.2301 164.17 49.0831 163.582 49.0831C162.96 49.0831 162.412 49.2493 161.939 49.5817C161.466 49.9141 161.096 50.353 160.827 50.8984C160.563 51.4439 160.429 52.0405 160.425 52.6882V53.2891C160.425 54.0689 160.559 54.7507 160.827 55.3345C161.1 55.9141 161.486 56.3636 161.984 56.6832C162.483 57.0028 163.073 57.1626 163.755 57.1626C164.219 57.1626 164.626 57.0902 164.976 56.9453C165.329 56.8004 165.626 56.6065 165.864 56.3636C166.107 56.1165 166.29 55.8459 166.414 55.5518L167.494 55.9034C167.345 56.3168 167.1 56.6982 166.759 57.0476C166.422 57.397 166.001 57.6783 165.493 57.8913C164.991 58.1001 164.411 58.2045 163.755 58.2045ZM170.244 58V48.1818H171.35V49.6903H171.433C171.629 49.196 171.97 48.7976 172.456 48.495C172.946 48.1882 173.5 48.0348 174.118 48.0348C174.212 48.0348 174.316 48.0369 174.431 48.0412C174.546 48.0455 174.642 48.0497 174.719 48.054V49.2109C174.668 49.2024 174.578 49.1896 174.45 49.1726C174.322 49.1555 174.184 49.147 174.035 49.147C173.523 49.147 173.067 49.2557 172.667 49.473C172.271 49.6861 171.957 49.9822 171.727 50.3615C171.497 50.7408 171.382 51.1733 171.382 51.6591V58H170.244ZM185.59 48.1818V49.1726H180.905V48.1818H185.59ZM182.368 45.8295H183.513V55.4368C183.513 55.8459 183.583 56.1676 183.724 56.402C183.864 56.6321 184.047 56.7962 184.273 56.8942C184.499 56.9879 184.74 57.0348 184.996 57.0348C185.145 57.0348 185.273 57.0263 185.379 57.0092C185.486 56.9879 185.579 56.9666 185.66 56.9453L185.903 57.9744C185.792 58.017 185.656 58.0554 185.494 58.0895C185.332 58.1278 185.132 58.147 184.893 58.147C184.476 58.147 184.073 58.0554 183.685 57.8722C183.302 57.6889 182.986 57.4162 182.739 57.054C182.492 56.6918 182.368 56.2422 182.368 55.7053V45.8295ZM189.523 51.8636V58H188.385V44.9091H189.523V49.7223H189.625C189.855 49.2152 190.211 48.8104 190.692 48.5078C191.178 48.2053 191.792 48.054 192.533 48.054C193.198 48.054 193.782 48.1903 194.285 48.4631C194.788 48.7358 195.18 49.1385 195.461 49.6712C195.742 50.2038 195.883 50.8601 195.883 51.6399V58H194.739V51.7102C194.739 50.9006 194.513 50.2635 194.061 49.799C193.614 49.3303 193.009 49.0959 192.246 49.0959C191.722 49.0959 191.255 49.2067 190.846 49.4283C190.437 49.6499 190.113 49.9695 189.874 50.3871C189.64 50.8004 189.523 51.2926 189.523 51.8636ZM201.621 58.2237C201.029 58.2237 200.488 58.1087 199.998 57.8786C199.508 57.6442 199.118 57.3075 198.828 56.8686C198.538 56.4254 198.393 55.8885 198.393 55.2578C198.393 54.772 198.485 54.3629 198.668 54.0305C198.851 53.6982 199.111 53.4254 199.448 53.2124C199.785 52.9993 200.183 52.831 200.643 52.7074C201.104 52.5838 201.611 52.4879 202.165 52.4197C202.714 52.3516 203.179 52.2919 203.558 52.2408C203.942 52.1896 204.233 52.1087 204.434 51.9979C204.634 51.8871 204.734 51.7081 204.734 51.4609V51.2308C204.734 50.5618 204.534 50.0355 204.133 49.652C203.737 49.2642 203.166 49.0703 202.42 49.0703C201.713 49.0703 201.135 49.2259 200.688 49.5369C200.245 49.848 199.934 50.2145 199.755 50.6364L198.675 50.2464C198.896 49.7095 199.203 49.2812 199.595 48.9616C199.987 48.6378 200.426 48.4055 200.912 48.2649C201.398 48.12 201.89 48.0476 202.388 48.0476C202.763 48.0476 203.153 48.0966 203.558 48.1946C203.967 48.2926 204.346 48.4631 204.696 48.706C205.045 48.9446 205.329 49.2791 205.546 49.7095C205.763 50.1357 205.872 50.6768 205.872 51.3331V58H204.734V56.4467H204.664C204.528 56.7365 204.325 57.0178 204.057 57.2905C203.788 57.5632 203.452 57.7869 203.047 57.9616C202.642 58.1364 202.167 58.2237 201.621 58.2237ZM201.775 57.1818C202.38 57.1818 202.904 57.0476 203.347 56.7791C203.79 56.5107 204.131 56.1548 204.37 55.7116C204.613 55.2642 204.734 54.772 204.734 54.2351V52.8161C204.649 52.897 204.506 52.9695 204.306 53.0334C204.11 53.0973 203.882 53.1548 203.622 53.206C203.366 53.2528 203.111 53.2933 202.855 53.3274C202.599 53.3615 202.369 53.3913 202.165 53.4169C201.611 53.4851 201.138 53.5916 200.746 53.7365C200.354 53.8814 200.053 54.0817 199.844 54.3374C199.635 54.5888 199.531 54.9126 199.531 55.3089C199.531 55.9055 199.744 56.3679 200.17 56.696C200.596 57.0199 201.131 57.1818 201.775 57.1818ZM210.036 51.8636V58H208.899V48.1818H210.004V49.7223H210.107C210.337 49.2195 210.695 48.8168 211.181 48.5142C211.671 48.2074 212.276 48.054 212.996 48.054C213.656 48.054 214.236 48.1925 214.735 48.4695C215.237 48.7422 215.627 49.1449 215.904 49.6776C216.186 50.2102 216.326 50.8643 216.326 51.6399V58H215.188V51.7102C215.188 50.9048 214.963 50.2678 214.511 49.799C214.063 49.3303 213.463 49.0959 212.708 49.0959C212.193 49.0959 211.735 49.2067 211.334 49.4283C210.933 49.6499 210.616 49.9695 210.382 50.3871C210.151 50.8004 210.036 51.2926 210.036 51.8636ZM228.252 48.1818V49.1726H223.567V48.1818H228.252ZM225.031 45.8295H226.175V55.4368C226.175 55.8459 226.245 56.1676 226.386 56.402C226.526 56.6321 226.71 56.7962 226.935 56.8942C227.161 56.9879 227.402 57.0348 227.658 57.0348C227.807 57.0348 227.935 57.0263 228.041 57.0092C228.148 56.9879 228.241 56.9666 228.322 56.9453L228.565 57.9744C228.455 58.017 228.318 58.0554 228.156 58.0895C227.994 58.1278 227.794 58.147 227.555 58.147C227.138 58.147 226.735 58.0554 226.347 57.8722C225.964 57.6889 225.648 57.4162 225.401 57.054C225.154 56.6918 225.031 56.2422 225.031 55.7053V45.8295ZM232.185 51.8636V58H231.047V44.9091H232.185V49.7223H232.287C232.517 49.2152 232.873 48.8104 233.355 48.5078C233.84 48.2053 234.454 48.054 235.195 48.054C235.86 48.054 236.444 48.1903 236.947 48.4631C237.45 48.7358 237.842 49.1385 238.123 49.6712C238.404 50.2038 238.545 50.8601 238.545 51.6399V58H237.401V51.7102C237.401 50.9006 237.175 50.2635 236.723 49.799C236.276 49.3303 235.671 49.0959 234.908 49.0959C234.384 49.0959 233.917 49.2067 233.508 49.4283C233.099 49.6499 232.775 49.9695 232.536 50.3871C232.302 50.8004 232.185 51.2926 232.185 51.8636ZM245.511 58.2045C244.594 58.2045 243.802 57.9915 243.133 57.5653C242.464 57.1349 241.946 56.5405 241.58 55.782C241.217 55.0192 241.036 54.1413 241.036 53.1484C241.036 52.1598 241.217 51.282 241.58 50.5149C241.946 49.7436 242.451 49.1406 243.094 48.706C243.742 48.267 244.49 48.0476 245.338 48.0476C245.871 48.0476 246.384 48.1456 246.879 48.3416C247.373 48.5334 247.816 48.8295 248.208 49.2301C248.604 49.6264 248.918 50.1271 249.148 50.7322C249.378 51.3331 249.493 52.0447 249.493 52.8672V53.4297H241.822V52.4261H248.33C248.33 51.7955 248.202 51.2287 247.946 50.7259C247.695 50.2187 247.343 49.8182 246.891 49.5241C246.444 49.2301 245.926 49.0831 245.338 49.0831C244.716 49.0831 244.168 49.2493 243.695 49.5817C243.222 49.9141 242.852 50.353 242.583 50.8984C242.319 51.4439 242.185 52.0405 242.18 52.6882V53.2891C242.18 54.0689 242.315 54.7507 242.583 55.3345C242.856 55.9141 243.241 56.3636 243.74 56.6832C244.239 57.0028 244.829 57.1626 245.511 57.1626C245.975 57.1626 246.382 57.0902 246.732 56.9453C247.085 56.8004 247.381 56.6065 247.62 56.3636C247.863 56.1165 248.046 55.8459 248.17 55.5518L249.25 55.9034C249.101 56.3168 248.856 56.6982 248.515 57.0476C248.178 57.397 247.756 57.6783 247.249 57.8913C246.746 58.1001 246.167 58.2045 245.511 58.2045ZM263.659 50.3359L262.617 50.63C262.515 50.3359 262.37 50.0696 262.183 49.831C261.995 49.5923 261.75 49.4027 261.448 49.2621C261.149 49.1214 260.779 49.0511 260.335 49.0511C259.671 49.0511 259.125 49.2088 258.699 49.5241C258.273 49.8395 258.06 50.2464 258.06 50.745C258.06 51.1669 258.205 51.5099 258.494 51.7741C258.789 52.0341 259.24 52.2408 259.85 52.3942L261.333 52.7585C262.155 52.9588 262.771 53.2763 263.18 53.7109C263.593 54.1456 263.8 54.6911 263.8 55.3473C263.8 55.9013 263.646 56.3935 263.34 56.8239C263.033 57.2543 262.605 57.593 262.055 57.8402C261.509 58.0831 260.877 58.2045 260.156 58.2045C259.198 58.2045 258.407 57.9893 257.785 57.5589C257.163 57.1243 256.764 56.4979 256.59 55.6797L257.683 55.4112C257.823 55.995 258.098 56.4361 258.507 56.7344C258.921 57.0327 259.464 57.1818 260.137 57.1818C260.892 57.1818 261.494 57.0135 261.946 56.6768C262.398 56.3359 262.624 55.9098 262.624 55.3984C262.624 55.0021 262.492 54.6697 262.227 54.4013C261.963 54.1286 261.563 53.9283 261.026 53.8004L259.421 53.4169C258.569 53.2124 257.938 52.8885 257.529 52.4453C257.12 52.0021 256.916 51.4524 256.916 50.7962C256.916 50.255 257.063 49.7798 257.357 49.3707C257.651 48.9574 258.056 48.6335 258.571 48.3991C259.087 48.1648 259.675 48.0476 260.335 48.0476C261.235 48.0476 261.953 48.2521 262.49 48.6612C263.031 49.0661 263.421 49.6243 263.659 50.3359ZM270.261 58.2045C269.344 58.2045 268.552 57.9915 267.883 57.5653C267.214 57.1349 266.696 56.5405 266.33 55.782C265.967 55.0192 265.786 54.1413 265.786 53.1484C265.786 52.1598 265.967 51.282 266.33 50.5149C266.696 49.7436 267.201 49.1406 267.844 48.706C268.492 48.267 269.24 48.0476 270.088 48.0476C270.621 48.0476 271.134 48.1456 271.629 48.3416C272.123 48.5334 272.566 48.8295 272.958 49.2301C273.354 49.6264 273.668 50.1271 273.898 50.7322C274.128 51.3331 274.243 52.0447 274.243 52.8672V53.4297H266.572V52.4261H273.08C273.08 51.7955 272.952 51.2287 272.696 50.7259C272.445 50.2187 272.093 49.8182 271.641 49.5241C271.194 49.2301 270.676 49.0831 270.088 49.0831C269.466 49.0831 268.918 49.2493 268.445 49.5817C267.972 49.9141 267.602 50.353 267.333 50.8984C267.069 51.4439 266.935 52.0405 266.93 52.6882V53.2891C266.93 54.0689 267.065 54.7507 267.333 55.3345C267.606 55.9141 267.991 56.3636 268.49 56.6832C268.989 57.0028 269.579 57.1626 270.261 57.1626C270.725 57.1626 271.132 57.0902 271.482 56.9453C271.835 56.8004 272.131 56.6065 272.37 56.3636C272.613 56.1165 272.796 55.8459 272.92 55.5518L274 55.9034C273.851 56.3168 273.606 56.6982 273.265 57.0476C272.928 57.397 272.506 57.6783 271.999 57.8913C271.496 58.1001 270.917 58.2045 270.261 58.2045ZM280.585 58.2045C279.708 58.2045 278.943 57.9851 278.291 57.5462C277.643 57.1072 277.14 56.5064 276.782 55.7436C276.424 54.9808 276.245 54.1115 276.245 53.1357C276.245 52.1513 276.426 51.2756 276.789 50.5085C277.155 49.7415 277.662 49.1406 278.31 48.706C278.958 48.267 279.71 48.0476 280.566 48.0476C281.222 48.0476 281.817 48.1754 282.35 48.4311C282.882 48.6825 283.321 49.0384 283.666 49.4986C284.016 49.9545 284.235 50.4872 284.325 51.0966H283.174C283.055 50.5426 282.767 50.0696 282.311 49.6776C281.86 49.2812 281.284 49.0831 280.585 49.0831C279.959 49.0831 279.405 49.2536 278.923 49.5945C278.442 49.9311 278.065 50.402 277.792 51.0071C277.524 51.608 277.389 52.3047 277.389 53.0973C277.389 53.8942 277.521 54.5994 277.786 55.2131C278.05 55.8224 278.421 56.2997 278.898 56.6449C279.379 56.9901 279.942 57.1626 280.585 57.1626C281.02 57.1626 281.416 57.0817 281.774 56.9197C282.137 56.7536 282.439 56.5192 282.682 56.2166C282.929 55.9141 283.095 55.554 283.181 55.1364H284.331C284.246 55.7287 284.035 56.2571 283.698 56.7216C283.366 57.1818 282.933 57.544 282.401 57.8082C281.872 58.0724 281.267 58.2045 280.585 58.2045ZM290.586 58.2045C289.738 58.2045 288.988 57.9893 288.336 57.5589C287.688 57.1286 287.181 56.5341 286.814 55.7756C286.448 55.0128 286.265 54.1328 286.265 53.1357C286.265 52.13 286.448 51.2457 286.814 50.483C287.181 49.7159 287.688 49.1193 288.336 48.6932C288.988 48.2628 289.738 48.0476 290.586 48.0476C291.434 48.0476 292.182 48.2628 292.829 48.6932C293.477 49.1236 293.984 49.7202 294.351 50.483C294.721 51.2457 294.907 52.13 294.907 53.1357C294.907 54.1328 294.724 55.0128 294.357 55.7756C293.991 56.5341 293.481 57.1286 292.829 57.5589C292.182 57.9893 291.434 58.2045 290.586 58.2045ZM290.586 57.1626C291.268 57.1626 291.845 56.9794 292.318 56.6129C292.791 56.2464 293.149 55.7585 293.392 55.1491C293.639 54.5398 293.763 53.8686 293.763 53.1357C293.763 52.4027 293.639 51.7294 293.392 51.1158C293.149 50.5021 292.791 50.0099 292.318 49.6392C291.845 49.2685 291.268 49.0831 290.586 49.0831C289.908 49.0831 289.331 49.2685 288.854 49.6392C288.381 50.0099 288.02 50.5021 287.773 51.1158C287.53 51.7294 287.409 52.4027 287.409 53.1357C287.409 53.8686 287.53 54.5398 287.773 55.1491C288.02 55.7585 288.381 56.2464 288.854 56.6129C289.327 56.9794 289.904 57.1626 290.586 57.1626ZM298.542 51.8636V58H297.404V48.1818H298.51V49.7223H298.613C298.843 49.2195 299.201 48.8168 299.686 48.5142C300.176 48.2074 300.782 48.054 301.502 48.054C302.162 48.054 302.742 48.1925 303.24 48.4695C303.743 48.7422 304.133 49.1449 304.41 49.6776C304.691 50.2102 304.832 50.8643 304.832 51.6399V58H303.694V51.7102C303.694 50.9048 303.468 50.2678 303.017 49.799C302.569 49.3303 301.968 49.0959 301.214 49.0959C300.699 49.0959 300.24 49.2067 299.84 49.4283C299.439 49.6499 299.122 49.9695 298.887 50.3871C298.657 50.8004 298.542 51.2926 298.542 51.8636ZM311.363 58.2045C310.558 58.2045 309.852 57.9915 309.247 57.5653C308.642 57.1392 308.169 56.5447 307.828 55.782C307.492 55.0192 307.323 54.1307 307.323 53.1165C307.323 52.1065 307.492 51.2223 307.828 50.4638C308.169 49.701 308.644 49.1087 309.254 48.6868C309.863 48.2607 310.573 48.0476 311.382 48.0476C311.979 48.0476 312.475 48.1541 312.872 48.3672C313.268 48.576 313.585 48.8359 313.824 49.147C314.063 49.4581 314.248 49.7607 314.38 50.0547H314.482V44.9091H315.627V58H314.514V56.1783H314.38C314.248 56.4766 314.061 56.7834 313.818 57.0987C313.575 57.4098 313.253 57.6719 312.852 57.8849C312.456 58.098 311.96 58.2045 311.363 58.2045ZM311.497 57.1626C312.132 57.1626 312.673 56.9901 313.121 56.6449C313.568 56.2955 313.909 55.8161 314.144 55.2067C314.382 54.593 314.502 53.8899 314.502 53.0973C314.502 52.3132 314.384 51.6207 314.15 51.0199C313.916 50.4148 313.575 49.9418 313.127 49.6009C312.68 49.2557 312.137 49.0831 311.497 49.0831C310.841 49.0831 310.287 49.2621 309.835 49.62C309.388 49.9737 309.047 50.4531 308.813 51.0582C308.583 51.6634 308.468 52.343 308.468 53.0973C308.468 53.8601 308.585 54.5483 308.819 55.1619C309.053 55.7756 309.394 56.2635 309.842 56.6257C310.294 56.9837 310.845 57.1626 311.497 57.1626ZM324.166 51.8509V52.9247H318.72V51.8509H324.166ZM86.9064 83.6818V70.1818H88.0123V72.0547H88.1465C88.2828 71.7607 88.4703 71.4602 88.709 71.1534C88.9476 70.8423 89.263 70.5803 89.655 70.3672C90.0513 70.1541 90.5499 70.0476 91.1507 70.0476C91.9604 70.0476 92.6678 70.2607 93.2729 70.6868C93.8823 71.1087 94.3553 71.701 94.6919 72.4638C95.0328 73.2223 95.2033 74.1065 95.2033 75.1165C95.2033 76.1307 95.0328 77.0192 94.6919 77.782C94.3553 78.5447 93.8823 79.1392 93.2729 79.5653C92.6678 79.9915 91.9647 80.2045 91.1635 80.2045C90.5712 80.2045 90.0748 80.098 89.6742 79.8849C89.2779 79.6719 88.9561 79.4098 88.709 79.0987C88.4661 78.7834 88.2786 78.4766 88.1465 78.1783H88.0442V83.6818H86.9064ZM88.0314 75.0973C88.0314 75.8899 88.1486 76.593 88.383 77.2067C88.6216 77.8161 88.9625 78.2955 89.4057 78.6449C89.8532 78.9901 90.3944 79.1626 91.0293 79.1626C91.6813 79.1626 92.231 78.9837 92.6784 78.6257C93.1301 78.2635 93.4732 77.7756 93.7076 77.1619C93.9462 76.5483 94.0655 75.8601 94.0655 75.0973C94.0655 74.343 93.9483 73.6634 93.714 73.0582C93.4838 72.4531 93.1429 71.9737 92.6912 71.62C92.2395 71.2621 91.6855 71.0831 91.0293 71.0831C90.3901 71.0831 89.8468 71.2557 89.3993 71.6009C88.9519 71.9418 88.611 72.4148 88.3766 73.0199C88.1465 73.6207 88.0314 74.3132 88.0314 75.0973ZM98.8372 66.9091V80H97.6994V66.9091H98.8372ZM104.59 80.2237C103.998 80.2237 103.456 80.1087 102.966 79.8786C102.476 79.6442 102.086 79.3075 101.797 78.8686C101.507 78.4254 101.362 77.8885 101.362 77.2578C101.362 76.772 101.454 76.3629 101.637 76.0305C101.82 75.6982 102.08 75.4254 102.417 75.2124C102.753 74.9993 103.152 74.831 103.612 74.7074C104.072 74.5838 104.579 74.4879 105.133 74.4197C105.683 74.3516 106.148 74.2919 106.527 74.2408C106.91 74.1896 107.202 74.1087 107.403 73.9979C107.603 73.8871 107.703 73.7081 107.703 73.4609V73.2308C107.703 72.5618 107.503 72.0355 107.102 71.652C106.706 71.2642 106.135 71.0703 105.389 71.0703C104.682 71.0703 104.104 71.2259 103.657 71.5369C103.214 71.848 102.903 72.2145 102.724 72.6364L101.643 72.2464C101.865 71.7095 102.172 71.2812 102.564 70.9616C102.956 70.6378 103.395 70.4055 103.881 70.2649C104.366 70.12 104.858 70.0476 105.357 70.0476C105.732 70.0476 106.122 70.0966 106.527 70.1946C106.936 70.2926 107.315 70.4631 107.665 70.706C108.014 70.9446 108.297 71.2791 108.515 71.7095C108.732 72.1357 108.841 72.6768 108.841 73.3331V80H107.703V78.4467H107.633C107.496 78.7365 107.294 79.0178 107.025 79.2905C106.757 79.5632 106.42 79.7869 106.015 79.9616C105.611 80.1364 105.135 80.2237 104.59 80.2237ZM104.743 79.1818C105.349 79.1818 105.873 79.0476 106.316 78.7791C106.759 78.5107 107.1 78.1548 107.339 77.7116C107.581 77.2642 107.703 76.772 107.703 76.2351V74.8161C107.618 74.897 107.475 74.9695 107.275 75.0334C107.079 75.0973 106.851 75.1548 106.591 75.206C106.335 75.2528 106.079 75.2933 105.824 75.3274C105.568 75.3615 105.338 75.3913 105.133 75.4169C104.579 75.4851 104.106 75.5916 103.714 75.7365C103.322 75.8814 103.022 76.0817 102.813 76.3374C102.604 76.5888 102.5 76.9126 102.5 77.3089C102.5 77.9055 102.713 78.3679 103.139 78.696C103.565 79.0199 104.1 79.1818 104.743 79.1818ZM115.703 80.2045C114.825 80.2045 114.06 79.9851 113.408 79.5462C112.76 79.1072 112.257 78.5064 111.899 77.7436C111.541 76.9808 111.362 76.1115 111.362 75.1357C111.362 74.1513 111.544 73.2756 111.906 72.5085C112.272 71.7415 112.779 71.1406 113.427 70.706C114.075 70.267 114.827 70.0476 115.683 70.0476C116.34 70.0476 116.934 70.1754 117.467 70.4311C117.999 70.6825 118.438 71.0384 118.784 71.4986C119.133 71.9545 119.352 72.4872 119.442 73.0966H118.291C118.172 72.5426 117.884 72.0696 117.428 71.6776C116.977 71.2812 116.401 71.0831 115.703 71.0831C115.076 71.0831 114.522 71.2536 114.041 71.5945C113.559 71.9311 113.182 72.402 112.909 73.0071C112.641 73.608 112.507 74.3047 112.507 75.0973C112.507 75.8942 112.639 76.5994 112.903 77.2131C113.167 77.8224 113.538 78.2997 114.015 78.6449C114.497 78.9901 115.059 79.1626 115.703 79.1626C116.137 79.1626 116.534 79.0817 116.892 78.9197C117.254 78.7536 117.556 78.5192 117.799 78.2166C118.046 77.9141 118.213 77.554 118.298 77.1364H119.448C119.363 77.7287 119.152 78.2571 118.816 78.7216C118.483 79.1818 118.051 79.544 117.518 79.8082C116.99 80.0724 116.384 80.2045 115.703 80.2045ZM125.856 80.2045C124.94 80.2045 124.148 79.9915 123.479 79.5653C122.809 79.1349 122.292 78.5405 121.925 77.782C121.563 77.0192 121.382 76.1413 121.382 75.1484C121.382 74.1598 121.563 73.282 121.925 72.5149C122.292 71.7436 122.797 71.1406 123.44 70.706C124.088 70.267 124.836 70.0476 125.684 70.0476C126.216 70.0476 126.73 70.1456 127.224 70.3416C127.719 70.5334 128.162 70.8295 128.554 71.2301C128.95 71.6264 129.263 72.1271 129.493 72.7322C129.724 73.3331 129.839 74.0447 129.839 74.8672V75.4297H122.168V74.4261H128.675C128.675 73.7955 128.547 73.2287 128.292 72.7259C128.04 72.2187 127.689 71.8182 127.237 71.5241C126.79 71.2301 126.272 71.0831 125.684 71.0831C125.062 71.0831 124.514 71.2493 124.041 71.5817C123.568 71.9141 123.197 72.353 122.929 72.8984C122.665 73.4439 122.53 74.0405 122.526 74.6882V75.2891C122.526 76.0689 122.66 76.7507 122.929 77.3345C123.202 77.9141 123.587 78.3636 124.086 78.6832C124.584 79.0028 125.175 79.1626 125.856 79.1626C126.321 79.1626 126.728 79.0902 127.077 78.9453C127.431 78.8004 127.727 78.6065 127.966 78.3636C128.209 78.1165 128.392 77.8459 128.515 77.5518L129.596 77.9034C129.447 78.3168 129.202 78.6982 128.861 79.0476C128.524 79.397 128.102 79.6783 127.595 79.8913C127.092 80.1001 126.513 80.2045 125.856 80.2045ZM140.943 80.2045C140.138 80.2045 139.433 79.9915 138.827 79.5653C138.222 79.1392 137.749 78.5447 137.408 77.782C137.072 77.0192 136.903 76.1307 136.903 75.1165C136.903 74.1065 137.072 73.2223 137.408 72.4638C137.749 71.701 138.224 71.1087 138.834 70.6868C139.443 70.2607 140.153 70.0476 140.962 70.0476C141.559 70.0476 142.055 70.1541 142.452 70.3672C142.848 70.576 143.165 70.8359 143.404 71.147C143.643 71.4581 143.828 71.7607 143.96 72.0547H144.062V66.9091H145.207V80H144.094V78.1783H143.96C143.828 78.4766 143.641 78.7834 143.398 79.0987C143.155 79.4098 142.833 79.6719 142.433 79.8849C142.036 80.098 141.54 80.2045 140.943 80.2045ZM141.077 79.1626C141.712 79.1626 142.254 78.9901 142.701 78.6449C143.148 78.2955 143.489 77.8161 143.724 77.2067C143.962 76.593 144.082 75.8899 144.082 75.0973C144.082 74.3132 143.964 73.6207 143.73 73.0199C143.496 72.4148 143.155 71.9418 142.707 71.6009C142.26 71.2557 141.717 71.0831 141.077 71.0831C140.421 71.0831 139.867 71.2621 139.415 71.62C138.968 71.9737 138.627 72.4531 138.393 73.0582C138.163 73.6634 138.048 74.343 138.048 75.0973C138.048 75.8601 138.165 76.5483 138.399 77.1619C138.634 77.7756 138.974 78.2635 139.422 78.6257C139.874 78.9837 140.425 79.1626 141.077 79.1626ZM152.263 80.2045C151.415 80.2045 150.665 79.9893 150.013 79.5589C149.366 79.1286 148.859 78.5341 148.492 77.7756C148.126 77.0128 147.942 76.1328 147.942 75.1357C147.942 74.13 148.126 73.2457 148.492 72.483C148.859 71.7159 149.366 71.1193 150.013 70.6932C150.665 70.2628 151.415 70.0476 152.263 70.0476C153.112 70.0476 153.859 70.2628 154.507 70.6932C155.155 71.1236 155.662 71.7202 156.028 72.483C156.399 73.2457 156.585 74.13 156.585 75.1357C156.585 76.1328 156.401 77.0128 156.035 77.7756C155.668 78.5341 155.159 79.1286 154.507 79.5589C153.859 79.9893 153.112 80.2045 152.263 80.2045ZM152.263 79.1626C152.945 79.1626 153.523 78.9794 153.996 78.6129C154.469 78.2464 154.827 77.7585 155.07 77.1491C155.317 76.5398 155.44 75.8686 155.44 75.1357C155.44 74.4027 155.317 73.7294 155.07 73.1158C154.827 72.5021 154.469 72.0099 153.996 71.6392C153.523 71.2685 152.945 71.0831 152.263 71.0831C151.586 71.0831 151.009 71.2685 150.531 71.6392C150.058 72.0099 149.698 72.5021 149.451 73.1158C149.208 73.7294 149.087 74.4027 149.087 75.1357C149.087 75.8686 149.208 76.5398 149.451 77.1491C149.698 77.7585 150.058 78.2464 150.531 78.6129C151.004 78.9794 151.582 79.1626 152.263 79.1626ZM159.082 80V70.1818H160.188V71.6903H160.29C160.486 71.1832 160.812 70.7848 161.268 70.495C161.729 70.201 162.28 70.054 162.924 70.054C163.601 70.054 164.157 70.2138 164.592 70.5334C165.031 70.8487 165.359 71.2834 165.577 71.8374H165.66C165.881 71.2919 166.241 70.8594 166.74 70.5398C167.243 70.2159 167.852 70.054 168.568 70.054C169.48 70.054 170.2 70.3416 170.729 70.9169C171.257 71.4879 171.521 72.3232 171.521 73.4226V80H170.383V73.4226C170.383 72.647 170.185 72.0653 169.789 71.6776C169.393 71.2898 168.871 71.0959 168.223 71.0959C167.473 71.0959 166.895 71.326 166.491 71.7862C166.086 72.2464 165.883 72.8303 165.883 73.5376V80H164.72V73.3203C164.72 72.6555 164.535 72.1186 164.164 71.7095C163.793 71.3004 163.271 71.0959 162.598 71.0959C162.146 71.0959 161.739 71.2067 161.377 71.4283C161.019 71.6499 160.736 71.9588 160.527 72.3551C160.322 72.7472 160.22 73.1989 160.22 73.7102V80H159.082ZM178.503 80.2045C177.587 80.2045 176.794 79.9915 176.125 79.5653C175.456 79.1349 174.938 78.5405 174.572 77.782C174.21 77.0192 174.028 76.1413 174.028 75.1484C174.028 74.1598 174.21 73.282 174.572 72.5149C174.938 71.7436 175.443 71.1406 176.087 70.706C176.734 70.267 177.482 70.0476 178.33 70.0476C178.863 70.0476 179.376 70.1456 179.871 70.3416C180.365 70.5334 180.808 70.8295 181.2 71.2301C181.597 71.6264 181.91 72.1271 182.14 72.7322C182.37 73.3331 182.485 74.0447 182.485 74.8672V75.4297H174.815V74.4261H181.322C181.322 73.7955 181.194 73.2287 180.938 72.7259C180.687 72.2187 180.335 71.8182 179.884 71.5241C179.436 71.2301 178.918 71.0831 178.33 71.0831C177.708 71.0831 177.161 71.2493 176.688 71.5817C176.214 71.9141 175.844 72.353 175.575 72.8984C175.311 73.4439 175.177 74.0405 175.173 74.6882V75.2891C175.173 76.0689 175.307 76.7507 175.575 77.3345C175.848 77.9141 176.234 78.3636 176.732 78.6832C177.231 79.0028 177.821 79.1626 178.503 79.1626C178.967 79.1626 179.374 79.0902 179.724 78.9453C180.077 78.8004 180.374 78.6065 180.612 78.3636C180.855 78.1165 181.038 77.8459 181.162 77.5518L182.242 77.9034C182.093 78.3168 181.848 78.6982 181.507 79.0476C181.17 79.397 180.749 79.6783 180.241 79.8913C179.739 80.1001 179.159 80.2045 178.503 80.2045ZM191.589 72.3359L190.547 72.63C190.445 72.3359 190.3 72.0696 190.112 71.831C189.925 71.5923 189.68 71.4027 189.377 71.2621C189.079 71.1214 188.708 71.0511 188.265 71.0511C187.6 71.0511 187.055 71.2088 186.629 71.5241C186.203 71.8395 185.99 72.2464 185.99 72.745C185.99 73.1669 186.134 73.5099 186.424 73.7741C186.718 74.0341 187.17 74.2408 187.779 74.3942L189.262 74.7585C190.085 74.9588 190.7 75.2763 191.11 75.7109C191.523 76.1456 191.73 76.6911 191.73 77.3473C191.73 77.9013 191.576 78.3935 191.269 78.8239C190.963 79.2543 190.534 79.593 189.985 79.8402C189.439 80.0831 188.806 80.2045 188.086 80.2045C187.127 80.2045 186.337 79.9893 185.715 79.5589C185.093 79.1243 184.694 78.4979 184.519 77.6797L185.612 77.4112C185.753 77.995 186.028 78.4361 186.437 78.7344C186.85 79.0327 187.394 79.1818 188.067 79.1818C188.821 79.1818 189.424 79.0135 189.876 78.6768C190.328 78.3359 190.553 77.9098 190.553 77.3984C190.553 77.0021 190.421 76.6697 190.157 76.4013C189.893 76.1286 189.492 75.9283 188.955 75.8004L187.351 75.4169C186.499 75.2124 185.868 74.8885 185.459 74.4453C185.05 74.0021 184.845 73.4524 184.845 72.7962C184.845 72.255 184.992 71.7798 185.286 71.3707C185.58 70.9574 185.985 70.6335 186.501 70.3991C187.017 70.1648 187.605 70.0476 188.265 70.0476C189.164 70.0476 189.882 70.2521 190.419 70.6612C190.96 71.0661 191.35 71.6243 191.589 72.3359ZM198.088 70.1818V71.1726H193.403V70.1818H198.088ZM194.866 67.8295H196.011V77.4368C196.011 77.8459 196.081 78.1676 196.222 78.402C196.362 78.6321 196.545 78.7962 196.771 78.8942C196.997 78.9879 197.238 79.0348 197.494 79.0348C197.643 79.0348 197.771 79.0263 197.877 79.0092C197.984 78.9879 198.077 78.9666 198.158 78.9453L198.401 79.9744C198.29 80.017 198.154 80.0554 197.992 80.0895C197.83 80.1278 197.63 80.147 197.391 80.147C196.974 80.147 196.571 80.0554 196.183 79.8722C195.8 79.6889 195.484 79.4162 195.237 79.054C194.99 78.6918 194.866 78.2422 194.866 77.7053V67.8295ZM200.685 80V70.1818H201.829V80H200.685ZM201.267 68.4943C201.032 68.4943 200.832 68.4155 200.666 68.2578C200.499 68.0959 200.416 67.902 200.416 67.6761C200.416 67.4503 200.499 67.2585 200.666 67.1009C200.832 66.9389 201.032 66.858 201.267 66.858C201.501 66.858 201.701 66.9389 201.867 67.1009C202.034 67.2585 202.117 67.4503 202.117 67.6761C202.117 67.902 202.034 68.0959 201.867 68.2578C201.701 68.4155 201.501 68.4943 201.267 68.4943ZM208.673 80.2045C207.795 80.2045 207.031 79.9851 206.379 79.5462C205.731 79.1072 205.228 78.5064 204.87 77.7436C204.512 76.9808 204.333 76.1115 204.333 75.1357C204.333 74.1513 204.514 73.2756 204.876 72.5085C205.243 71.7415 205.75 71.1406 206.398 70.706C207.045 70.267 207.798 70.0476 208.654 70.0476C209.31 70.0476 209.905 70.1754 210.438 70.4311C210.97 70.6825 211.409 71.0384 211.754 71.4986C212.104 71.9545 212.323 72.4872 212.413 73.0966H211.262C211.143 72.5426 210.855 72.0696 210.399 71.6776C209.947 71.2812 209.372 71.0831 208.673 71.0831C208.047 71.0831 207.493 71.2536 207.011 71.5945C206.53 71.9311 206.153 72.402 205.88 73.0071C205.612 73.608 205.477 74.3047 205.477 75.0973C205.477 75.8942 205.609 76.5994 205.874 77.2131C206.138 77.8224 206.509 78.2997 206.986 78.6449C207.467 78.9901 208.03 79.1626 208.673 79.1626C209.108 79.1626 209.504 79.0817 209.862 78.9197C210.224 78.7536 210.527 78.5192 210.77 78.2166C211.017 77.9141 211.183 77.554 211.268 77.1364H212.419C212.334 77.7287 212.123 78.2571 211.786 78.7216C211.454 79.1818 211.021 79.544 210.489 79.8082C209.96 80.0724 209.355 80.2045 208.673 80.2045ZM223.96 70.1818V71.1726H219.134V70.1818H223.96ZM220.642 80V68.7436C220.642 68.2152 220.764 67.7699 221.007 67.4077C221.254 67.0455 221.576 66.7706 221.972 66.5831C222.368 66.3956 222.788 66.3018 223.231 66.3018C223.529 66.3018 223.777 66.3274 223.973 66.3786C224.173 66.4254 224.331 66.4723 224.446 66.5192L224.113 67.5163C224.028 67.4908 223.924 67.4609 223.8 67.4268C223.676 67.3928 223.521 67.3757 223.333 67.3757C222.839 67.3757 222.458 67.5142 222.189 67.7912C221.921 68.0682 221.787 68.4645 221.787 68.9801L221.78 80H220.642ZM226.243 80V70.1818H227.388V80H226.243ZM226.825 68.4943C226.591 68.4943 226.39 68.4155 226.224 68.2578C226.058 68.0959 225.975 67.902 225.975 67.6761C225.975 67.4503 226.058 67.2585 226.224 67.1009C226.39 66.9389 226.591 66.858 226.825 66.858C227.059 66.858 227.26 66.9389 227.426 67.1009C227.592 67.2585 227.675 67.4503 227.675 67.6761C227.675 67.902 227.592 68.0959 227.426 68.2578C227.26 68.4155 227.059 68.4943 226.825 68.4943ZM230.397 80V70.1818H231.502V71.6903H231.586C231.782 71.196 232.123 70.7976 232.608 70.495C233.098 70.1882 233.652 70.0348 234.27 70.0348C234.364 70.0348 234.468 70.0369 234.583 70.0412C234.699 70.0455 234.794 70.0497 234.871 70.054V71.2109C234.82 71.2024 234.73 71.1896 234.603 71.1726C234.475 71.1555 234.336 71.147 234.187 71.147C233.676 71.147 233.22 71.2557 232.819 71.473C232.423 71.6861 232.11 71.9822 231.88 72.3615C231.65 72.7408 231.534 73.1733 231.534 73.6591V80H230.397ZM236.813 80V70.1818H237.919V71.6903H238.021C238.217 71.1832 238.543 70.7848 238.999 70.495C239.459 70.201 240.011 70.054 240.654 70.054C241.332 70.054 241.888 70.2138 242.323 70.5334C242.762 70.8487 243.09 71.2834 243.307 71.8374H243.39C243.612 71.2919 243.972 70.8594 244.47 70.5398C244.973 70.2159 245.583 70.054 246.298 70.054C247.21 70.054 247.931 70.3416 248.459 70.9169C248.987 71.4879 249.252 72.3232 249.252 73.4226V80H248.114V73.4226C248.114 72.647 247.916 72.0653 247.519 71.6776C247.123 71.2898 246.601 71.0959 245.953 71.0959C245.203 71.0959 244.626 71.326 244.221 71.7862C243.816 72.2464 243.614 72.8303 243.614 73.5376V80H242.45V73.3203C242.45 72.6555 242.265 72.1186 241.894 71.7095C241.524 71.3004 241.002 71.0959 240.328 71.0959C239.877 71.0959 239.47 71.2067 239.107 71.4283C238.749 71.6499 238.466 71.9588 238.257 72.3551C238.053 72.7472 237.95 73.1989 237.95 73.7102V80H236.813ZM253.172 80.0959C252.92 80.0959 252.703 80.0064 252.52 79.8274C252.341 79.6442 252.251 79.4268 252.251 79.1754C252.251 78.9197 252.341 78.7024 252.52 78.5234C252.703 78.3445 252.92 78.255 253.172 78.255C253.427 78.255 253.645 78.3445 253.824 78.5234C254.002 78.7024 254.092 78.9197 254.092 79.1754C254.092 79.3416 254.049 79.495 253.964 79.6357C253.883 79.7763 253.772 79.8892 253.632 79.9744C253.495 80.0554 253.342 80.0959 253.172 80.0959Z" fill="#24408E"/>
</svg>
