<svg width="100%" viewBox="0 0 1296 636" fill="none" xmlns="http://www.w3.org/2000/svg">
<mask id="path-1-inside-1_158_1301" fill="white">
<path d="M0 0H628V72H0V0Z"/>
</mask>
<path d="M0 0H628V72H0V0Z" fill="#272F6D" fill-opacity="0.2"/>
<path d="M628 70H0V74H628V70Z" fill="#272F6D" mask="url(#path-1-inside-1_158_1301)"/>
<path d="M238.758 30.3438V28.4545H250.015V30.3438H245.476V43H243.289V30.3438H238.758ZM264.512 35.7273C264.512 37.2803 264.228 38.6155 263.66 39.733C263.092 40.8456 262.313 41.7027 261.323 42.304C260.338 42.9006 259.219 43.1989 257.964 43.1989C256.704 43.1989 255.58 42.9006 254.59 42.304C253.606 41.7027 252.829 40.8433 252.261 39.7259C251.693 38.6084 251.409 37.2756 251.409 35.7273C251.409 34.1742 251.693 32.8414 252.261 31.7287C252.829 30.6113 253.606 29.7543 254.59 29.1577C255.58 28.5563 256.704 28.2557 257.964 28.2557C259.219 28.2557 260.338 28.5563 261.323 29.1577C262.313 29.7543 263.092 30.6113 263.66 31.7287C264.228 32.8414 264.512 34.1742 264.512 35.7273ZM262.339 35.7273C262.339 34.5436 262.147 33.5469 261.764 32.7372C261.385 31.9228 260.864 31.3073 260.201 30.8906C259.543 30.4692 258.797 30.2585 257.964 30.2585C257.126 30.2585 256.378 30.4692 255.72 30.8906C255.061 31.3073 254.541 31.9228 254.157 32.7372C253.778 33.5469 253.589 34.5436 253.589 35.7273C253.589 36.911 253.778 37.91 254.157 38.7244C254.541 39.5341 255.061 40.1496 255.72 40.571C256.378 40.9877 257.126 41.196 257.964 41.196C258.797 41.196 259.543 40.9877 260.201 40.571C260.864 40.1496 261.385 39.5341 261.764 38.7244C262.147 37.91 262.339 36.911 262.339 35.7273ZM265.906 30.3438V28.4545H277.163V30.3438H272.625V43H270.437V30.3438H265.906ZM279.161 43H276.831L282.066 28.4545H284.601L289.835 43H287.506L283.394 31.0966H283.28L279.161 43ZM279.551 37.304H287.108V39.1506H279.551V37.304ZM291.936 43V28.4545H294.131V41.1108H300.721V43H291.936ZM308.518 28.4545H311.181L315.812 39.7614H315.982L320.613 28.4545H323.276V43H321.188V32.4744H321.053L316.764 42.9787H315.031L310.741 32.4673H310.606V43H308.518V28.4545ZM327.696 43H325.366L330.601 28.4545H333.136L338.371 43H336.041L331.929 31.0966H331.815L327.696 43ZM328.086 37.304H335.643V39.1506H328.086V37.304ZM340.471 43V28.4545H345.656C346.783 28.4545 347.718 28.6487 348.461 29.0369C349.209 29.4252 349.768 29.9626 350.137 30.6491C350.507 31.331 350.691 32.1193 350.691 33.0142C350.691 33.9044 350.504 34.688 350.13 35.3651C349.761 36.0374 349.202 36.5606 348.454 36.9347C347.711 37.3087 346.776 37.4957 345.649 37.4957H341.721V35.6065H345.45C346.16 35.6065 346.738 35.5047 347.183 35.3011C347.633 35.0975 347.962 34.8016 348.17 34.4134C348.378 34.0251 348.482 33.5587 348.482 33.0142C348.482 32.465 348.376 31.9891 348.163 31.5866C347.954 31.1842 347.625 30.8764 347.176 30.6634C346.731 30.4455 346.146 30.3366 345.421 30.3366H342.666V43H340.471ZM347.651 36.4375L351.245 43H348.745L345.222 36.4375H347.651ZM353.362 43V28.4545H355.556V35.4006H355.734L361.835 28.4545H364.597L358.731 35.0028L364.619 43H361.977L357.275 36.5014L355.556 38.4759V43H353.362ZM366.643 43V28.4545H375.762V30.3438H368.838V34.7756H375.286V36.6577H368.838V41.1108H375.847V43H366.643ZM377.976 30.3438V28.4545H389.233V30.3438H384.695V43H382.508V30.3438H377.976Z" fill="#24408E"/>
<mask id="path-4-outside-2_158_1301" maskUnits="userSpaceOnUse" x="0" y="72" width="628" height="55" fill="black">
<rect fill="white" y="72" width="628" height="55"/>
<path d="M0 72H628V126H0V72Z"/>
</mask>
<path d="M0 72H628V126H0V72Z" fill="#E4EAF6" fill-opacity="0.6"/>
<path d="M628 125H0V127H628V125Z" fill="#272F6D" mask="url(#path-4-outside-2_158_1301)"/>
<mask id="path-6-inside-3_158_1301" fill="white">
<path d="M0 72H209.333V126H0V72Z"/>
</mask>
<path d="M208.833 72V126H209.833V72H208.833ZM0.5 126V72H-0.5V126H0.5Z" fill="#E4EAF6" mask="url(#path-6-inside-3_158_1301)"/>
<path d="M69.8171 106V92.9091H74.7262C75.7318 92.9091 76.5756 93.0838 77.2574 93.4332C77.9435 93.7827 78.4612 94.2727 78.8107 94.9034C79.1644 95.5298 79.3412 96.2607 79.3412 97.0959C79.3412 97.9354 79.1622 98.6641 78.8043 99.282C78.4506 99.8956 77.9286 100.371 77.2382 100.707C76.5479 101.04 75.6999 101.206 74.6942 101.206H71.1978V99.2372H74.3746C74.9627 99.2372 75.4442 99.1562 75.8192 98.9943C76.1942 98.8281 76.4712 98.5874 76.6502 98.272C76.8334 97.9524 76.925 97.5604 76.925 97.0959C76.925 96.6314 76.8334 96.2351 76.6502 95.907C76.4669 95.5746 76.1878 95.3232 75.8128 95.1527C75.4378 94.978 74.9541 94.8906 74.3618 94.8906H72.1885V106H69.8171ZM76.5799 100.068L79.8206 106H77.1743L73.9911 100.068H76.5799ZM84.2471 106.198C83.625 106.198 83.0646 106.087 82.566 105.866C82.0717 105.64 81.6796 105.308 81.3899 104.869C81.1044 104.43 80.9616 103.888 80.9616 103.245C80.9616 102.691 81.0639 102.233 81.2684 101.871C81.473 101.509 81.7521 101.219 82.1058 101.001C82.4595 100.784 82.8579 100.62 83.3011 100.509C83.7485 100.394 84.2109 100.311 84.6882 100.26C85.2635 100.2 85.7301 100.147 86.088 100.1C86.446 100.049 86.7059 99.9723 86.8679 99.87C87.034 99.7635 87.1171 99.5994 87.1171 99.3778V99.3395C87.1171 98.858 86.9744 98.4851 86.6889 98.2209C86.4034 97.9567 85.9921 97.8246 85.4552 97.8246C84.8885 97.8246 84.4389 97.9482 84.1065 98.1953C83.7784 98.4425 83.5568 98.7344 83.4417 99.071L81.2812 98.7642C81.4517 98.1676 81.7329 97.669 82.125 97.2685C82.517 96.8636 82.9964 96.5611 83.5632 96.3608C84.1299 96.1562 84.7563 96.054 85.4424 96.054C85.9154 96.054 86.3863 96.1094 86.8551 96.2202C87.3238 96.331 87.7521 96.5142 88.1399 96.7699C88.5277 97.0213 88.8387 97.3643 89.0731 97.799C89.3117 98.2337 89.4311 98.777 89.4311 99.429V106H87.2066V104.651H87.1299C86.9893 104.924 86.7911 105.18 86.5355 105.418C86.284 105.653 85.9666 105.842 85.5831 105.987C85.2038 106.128 84.7585 106.198 84.2471 106.198ZM84.848 104.498C85.3125 104.498 85.7152 104.406 86.0561 104.223C86.397 104.036 86.659 103.788 86.8423 103.482C87.0298 103.175 87.1235 102.84 87.1235 102.478V101.321C87.0511 101.381 86.9275 101.436 86.7528 101.487C86.5823 101.538 86.3906 101.583 86.1775 101.621C85.9644 101.66 85.7535 101.694 85.5447 101.724C85.3359 101.754 85.1548 101.779 85.0014 101.8C84.6562 101.847 84.3473 101.924 84.0745 102.031C83.8018 102.137 83.5866 102.286 83.4289 102.478C83.2713 102.665 83.1924 102.908 83.1924 103.207C83.1924 103.633 83.348 103.955 83.659 104.172C83.9701 104.389 84.3664 104.498 84.848 104.498ZM94.0717 100.247V106H91.7578V96.1818H93.9694V97.8501H94.0845C94.3103 97.3004 94.6704 96.8636 95.1647 96.5398C95.6633 96.2159 96.2791 96.054 97.012 96.054C97.6896 96.054 98.2798 96.1989 98.7826 96.4886C99.2897 96.7784 99.6818 97.1982 99.9588 97.7479C100.24 98.2976 100.379 98.9645 100.374 99.7486V106H98.0603V100.107C98.0603 99.4503 97.8899 98.9368 97.549 98.5661C97.2123 98.1953 96.7457 98.0099 96.1491 98.0099C95.7443 98.0099 95.3842 98.0994 95.0688 98.2784C94.7578 98.4531 94.5127 98.7067 94.3338 99.0391C94.159 99.3714 94.0717 99.7741 94.0717 100.247ZM104.836 102.919L104.83 100.126H105.2L108.729 96.1818H111.432L107.092 101.014H106.613L104.836 102.919ZM102.727 106V92.9091H105.04V106H102.727ZM108.888 106L105.692 101.532L107.252 99.902L111.656 106H108.888ZM116.966 94.897V92.9091H127.411V94.897H123.365V106H121.013V94.897H116.966ZM128.53 92.9091H131.208L134.41 98.7003H134.538L137.741 92.9091H140.419L135.657 101.116V106H133.292V101.116L128.53 92.9091Z" fill="#24408E"/>
<mask id="path-9-inside-4_158_1301" fill="white">
<path d="M209.333 72H418.667V126H209.333V72Z"/>
</mask>
<path d="M418.167 72V126H419.167V72H418.167ZM209.833 126V72H208.833V126H209.833Z" fill="#E4EAF6" mask="url(#path-9-inside-4_158_1301)"/>
<path d="M280.653 106V92.9091H285.563C286.568 92.9091 287.412 93.0838 288.094 93.4332C288.78 93.7827 289.298 94.2727 289.647 94.9034C290.001 95.5298 290.178 96.2607 290.178 97.0959C290.178 97.9354 289.999 98.6641 289.641 99.282C289.287 99.8956 288.765 100.371 288.075 100.707C287.384 101.04 286.536 101.206 285.531 101.206H282.034V99.2372H285.211C285.799 99.2372 286.281 99.1562 286.656 98.9943C287.031 98.8281 287.308 98.5874 287.487 98.272C287.67 97.9524 287.761 97.5604 287.761 97.0959C287.761 96.6314 287.67 96.2351 287.487 95.907C287.303 95.5746 287.024 95.3232 286.649 95.1527C286.274 94.978 285.791 94.8906 285.198 94.8906H283.025V106H280.653ZM287.416 100.068L290.657 106H288.011L284.828 100.068H287.416ZM295.084 106.198C294.461 106.198 293.901 106.087 293.402 105.866C292.908 105.64 292.516 105.308 292.226 104.869C291.941 104.43 291.798 103.888 291.798 103.245C291.798 102.691 291.9 102.233 292.105 101.871C292.309 101.509 292.589 101.219 292.942 101.001C293.296 100.784 293.694 100.62 294.138 100.509C294.585 100.394 295.047 100.311 295.525 100.26C296.1 100.2 296.566 100.147 296.924 100.1C297.282 100.049 297.542 99.9723 297.704 99.87C297.87 99.7635 297.954 99.5994 297.954 99.3778V99.3395C297.954 98.858 297.811 98.4851 297.525 98.2209C297.24 97.9567 296.829 97.8246 296.292 97.8246C295.725 97.8246 295.275 97.9482 294.943 98.1953C294.615 98.4425 294.393 98.7344 294.278 99.071L292.118 98.7642C292.288 98.1676 292.569 97.669 292.961 97.2685C293.353 96.8636 293.833 96.5611 294.4 96.3608C294.966 96.1562 295.593 96.054 296.279 96.054C296.752 96.054 297.223 96.1094 297.691 96.2202C298.16 96.331 298.589 96.5142 298.976 96.7699C299.364 97.0213 299.675 97.3643 299.91 97.799C300.148 98.2337 300.267 98.777 300.267 99.429V106H298.043V104.651H297.966C297.826 104.924 297.628 105.18 297.372 105.418C297.12 105.653 296.803 105.842 296.419 105.987C296.04 106.128 295.595 106.198 295.084 106.198ZM295.684 104.498C296.149 104.498 296.552 104.406 296.892 104.223C297.233 104.036 297.495 103.788 297.679 103.482C297.866 103.175 297.96 102.84 297.96 102.478V101.321C297.888 101.381 297.764 101.436 297.589 101.487C297.419 101.538 297.227 101.583 297.014 101.621C296.801 101.66 296.59 101.694 296.381 101.724C296.172 101.754 295.991 101.779 295.838 101.8C295.493 101.847 295.184 101.924 294.911 102.031C294.638 102.137 294.423 102.286 294.265 102.478C294.108 102.665 294.029 102.908 294.029 103.207C294.029 103.633 294.184 103.955 294.495 104.172C294.807 104.389 295.203 104.498 295.684 104.498ZM304.908 100.247V106H302.594V96.1818H304.806V97.8501H304.921C305.147 97.3004 305.507 96.8636 306.001 96.5398C306.5 96.2159 307.116 96.054 307.848 96.054C308.526 96.054 309.116 96.1989 309.619 96.4886C310.126 96.7784 310.518 97.1982 310.795 97.7479C311.076 98.2976 311.215 98.9645 311.211 99.7486V106H308.897V100.107C308.897 99.4503 308.726 98.9368 308.385 98.5661C308.049 98.1953 307.582 98.0099 306.986 98.0099C306.581 98.0099 306.221 98.0994 305.905 98.2784C305.594 98.4531 305.349 98.7067 305.17 99.0391C304.995 99.3714 304.908 99.7741 304.908 100.247ZM315.672 102.919L315.666 100.126H316.037L319.565 96.1818H322.269L317.929 101.014H317.449L315.672 102.919ZM313.563 106V92.9091H315.877V106H313.563ZM319.725 106L316.529 101.532L318.089 99.902L322.493 106H319.725ZM328.378 106V92.9091H330.75V104.012H336.515V106H328.378ZM336.36 92.9091H339.038L342.241 98.7003H342.369L345.571 92.9091H348.249L343.487 101.116V106H341.122V101.116L336.36 92.9091Z" fill="#24408E"/>
<mask id="path-12-inside-5_158_1301" fill="white">
<path d="M418.667 72H628V126H418.667V72Z"/>
</mask>
<path d="M627.5 72V126H628.5V72H627.5ZM419.167 126V72H418.167V126H419.167Z" fill="#E4EAF6" mask="url(#path-12-inside-5_158_1301)"/>
<path d="M469.929 97.326H467.538C467.47 96.9339 467.345 96.5866 467.161 96.2841C466.978 95.9773 466.75 95.7173 466.477 95.5043C466.205 95.2912 465.894 95.1314 465.544 95.0249C465.199 94.9141 464.826 94.8587 464.426 94.8587C463.714 94.8587 463.083 95.0376 462.533 95.3956C461.984 95.7493 461.553 96.2692 461.242 96.9553C460.931 97.6371 460.776 98.4702 460.776 99.4545C460.776 100.456 460.931 101.3 461.242 101.986C461.558 102.668 461.988 103.183 462.533 103.533C463.083 103.878 463.712 104.05 464.419 104.05C464.811 104.05 465.178 103.999 465.519 103.897C465.864 103.79 466.173 103.635 466.445 103.43C466.722 103.226 466.955 102.974 467.142 102.676C467.334 102.378 467.466 102.037 467.538 101.653L469.929 101.666C469.84 102.288 469.646 102.872 469.347 103.418C469.053 103.963 468.668 104.445 468.19 104.862C467.713 105.276 467.155 105.599 466.516 105.834C465.877 106.064 465.167 106.179 464.387 106.179C463.237 106.179 462.21 105.913 461.306 105.38C460.403 104.847 459.691 104.078 459.171 103.072C458.651 102.067 458.391 100.861 458.391 99.4545C458.391 98.044 458.653 96.8381 459.178 95.8366C459.702 94.831 460.416 94.0618 461.319 93.5291C462.222 92.9964 463.245 92.7301 464.387 92.7301C465.116 92.7301 465.793 92.8324 466.42 93.0369C467.046 93.2415 467.604 93.5419 468.095 93.9382C468.585 94.3303 468.987 94.8118 469.303 95.3828C469.622 95.9496 469.831 96.5973 469.929 97.326ZM483.798 99.4545C483.798 100.865 483.534 102.073 483.006 103.079C482.481 104.08 481.766 104.847 480.858 105.38C479.954 105.913 478.93 106.179 477.783 106.179C476.637 106.179 475.61 105.913 474.702 105.38C473.799 104.843 473.083 104.074 472.555 103.072C472.03 102.067 471.768 100.861 471.768 99.4545C471.768 98.044 472.03 96.8381 472.555 95.8366C473.083 94.831 473.799 94.0618 474.702 93.5291C475.61 92.9964 476.637 92.7301 477.783 92.7301C478.93 92.7301 479.954 92.9964 480.858 93.5291C481.766 94.0618 482.481 94.831 483.006 95.8366C483.534 96.8381 483.798 98.044 483.798 99.4545ZM481.414 99.4545C481.414 98.4616 481.258 97.6243 480.947 96.9425C480.641 96.2564 480.214 95.7386 479.669 95.3892C479.123 95.0355 478.495 94.8587 477.783 94.8587C477.072 94.8587 476.443 95.0355 475.898 95.3892C475.352 95.7386 474.924 96.2564 474.613 96.9425C474.306 97.6243 474.153 98.4616 474.153 99.4545C474.153 100.447 474.306 101.287 474.613 101.973C474.924 102.655 475.352 103.173 475.898 103.526C476.443 103.876 477.072 104.05 477.783 104.05C478.495 104.05 479.123 103.876 479.669 103.526C480.214 103.173 480.641 102.655 480.947 101.973C481.258 101.287 481.414 100.447 481.414 99.4545ZM486.04 106V92.9091H490.949C491.955 92.9091 492.799 93.0838 493.481 93.4332C494.167 93.7827 494.684 94.2727 495.034 94.9034C495.388 95.5298 495.564 96.2607 495.564 97.0959C495.564 97.9354 495.385 98.6641 495.027 99.282C494.674 99.8956 494.152 100.371 493.461 100.707C492.771 101.04 491.923 101.206 490.917 101.206H487.421V99.2372H490.598C491.186 99.2372 491.667 99.1562 492.042 98.9943C492.417 98.8281 492.694 98.5874 492.873 98.272C493.057 97.9524 493.148 97.5604 493.148 97.0959C493.148 96.6314 493.057 96.2351 492.873 95.907C492.69 95.5746 492.411 95.3232 492.036 95.1527C491.661 94.978 491.177 94.8906 490.585 94.8906H488.412V106H486.04ZM492.803 100.068L496.044 106H493.397L490.214 100.068H492.803ZM497.747 106V92.9091H502.656C503.662 92.9091 504.506 93.0966 505.188 93.4716C505.874 93.8466 506.391 94.3622 506.741 95.0185C507.095 95.6705 507.271 96.4119 507.271 97.2429C507.271 98.0824 507.095 98.8281 506.741 99.4801C506.387 100.132 505.865 100.646 505.175 101.021C504.484 101.391 503.634 101.577 502.624 101.577H499.371V99.6271H502.305C502.893 99.6271 503.374 99.5249 503.749 99.3203C504.124 99.1158 504.401 98.8345 504.58 98.4766C504.764 98.1186 504.855 97.7074 504.855 97.2429C504.855 96.7784 504.764 96.3693 504.58 96.0156C504.401 95.6619 504.122 95.3871 503.743 95.1911C503.368 94.9908 502.884 94.8906 502.292 94.8906H500.119V106H497.747ZM521.029 99.4545C521.029 100.865 520.764 102.073 520.236 103.079C519.712 104.08 518.996 104.847 518.088 105.38C517.185 105.913 516.16 106.179 515.014 106.179C513.867 106.179 512.84 105.913 511.933 105.38C511.029 104.843 510.313 104.074 509.785 103.072C509.261 102.067 508.999 100.861 508.999 99.4545C508.999 98.044 509.261 96.8381 509.785 95.8366C510.313 94.831 511.029 94.0618 511.933 93.5291C512.84 92.9964 513.867 92.7301 515.014 92.7301C516.16 92.7301 517.185 92.9964 518.088 93.5291C518.996 94.0618 519.712 94.831 520.236 95.8366C520.764 96.8381 521.029 98.044 521.029 99.4545ZM518.644 99.4545C518.644 98.4616 518.489 97.6243 518.178 96.9425C517.871 96.2564 517.445 95.7386 516.899 95.3892C516.354 95.0355 515.725 94.8587 515.014 94.8587C514.302 94.8587 513.674 95.0355 513.128 95.3892C512.583 95.7386 512.154 96.2564 511.843 96.9425C511.536 97.6243 511.383 98.4616 511.383 99.4545C511.383 100.447 511.536 101.287 511.843 101.973C512.154 102.655 512.583 103.173 513.128 103.526C513.674 103.876 514.302 104.05 515.014 104.05C515.725 104.05 516.354 103.876 516.899 103.526C517.445 103.173 517.871 102.655 518.178 101.973C518.489 101.287 518.644 100.447 518.644 99.4545ZM523.271 106V92.9091H528.18C529.185 92.9091 530.029 93.0838 530.711 93.4332C531.397 93.7827 531.915 94.2727 532.264 94.9034C532.618 95.5298 532.795 96.2607 532.795 97.0959C532.795 97.9354 532.616 98.6641 532.258 99.282C531.904 99.8956 531.382 100.371 530.692 100.707C530.002 101.04 529.153 101.206 528.148 101.206H524.651V99.2372H527.828C528.416 99.2372 528.898 99.1562 529.273 98.9943C529.648 98.8281 529.925 98.5874 530.104 98.272C530.287 97.9524 530.379 97.5604 530.379 97.0959C530.379 96.6314 530.287 96.2351 530.104 95.907C529.921 95.5746 529.641 95.3232 529.266 95.1527C528.891 94.978 528.408 94.8906 527.815 94.8906H525.642V106H523.271ZM530.033 100.068L533.274 106H530.628L527.445 100.068H530.033ZM536.659 106H534.128L538.736 92.9091H541.664L546.279 106H543.748L540.251 95.5938H540.149L536.659 106ZM536.742 100.867H543.645V102.772H536.742V100.867ZM545.846 94.897V92.9091H556.29V94.897H552.244V106H549.892V94.897H545.846ZM560.675 92.9091V106H558.304V92.9091H560.675ZM574.941 99.4545C574.941 100.865 574.677 102.073 574.148 103.079C573.624 104.08 572.908 104.847 572 105.38C571.097 105.913 570.072 106.179 568.926 106.179C567.78 106.179 566.753 105.913 565.845 105.38C564.941 104.843 564.226 104.074 563.697 103.072C563.173 102.067 562.911 100.861 562.911 99.4545C562.911 98.044 563.173 96.8381 563.697 95.8366C564.226 94.831 564.941 94.0618 565.845 93.5291C566.753 92.9964 567.78 92.7301 568.926 92.7301C570.072 92.7301 571.097 92.9964 572 93.5291C572.908 94.0618 573.624 94.831 574.148 95.8366C574.677 96.8381 574.941 98.044 574.941 99.4545ZM572.557 99.4545C572.557 98.4616 572.401 97.6243 572.09 96.9425C571.783 96.2564 571.357 95.7386 570.812 95.3892C570.266 95.0355 569.638 94.8587 568.926 94.8587C568.214 94.8587 567.586 95.0355 567.04 95.3892C566.495 95.7386 566.066 96.2564 565.755 96.9425C565.449 97.6243 565.295 98.4616 565.295 99.4545C565.295 100.447 565.449 101.287 565.755 101.973C566.066 102.655 566.495 103.173 567.04 103.526C567.586 103.876 568.214 104.05 568.926 104.05C569.638 104.05 570.266 103.876 570.812 103.526C571.357 103.173 571.783 102.655 572.09 101.973C572.401 101.287 572.557 100.447 572.557 99.4545ZM587.941 92.9091V106H585.831L579.663 97.0831H579.554V106H577.183V92.9091H579.305L585.467 101.832H585.582V92.9091H587.941Z" fill="#24408E"/>
<mask id="path-15-inside-6_158_1301" fill="white">
<path d="M0 126H209.333V177H0V126Z"/>
</mask>
<path d="M209.333 177V177.5H209.833V177H209.333ZM0 177H-0.5V177.5H0V177ZM208.833 126V177H209.833V126H208.833ZM209.333 176.5H0V177.5H209.333V176.5ZM0.5 177V126H-0.5V177H0.5Z" fill="#E4EAF6" mask="url(#path-15-inside-6_158_1301)"/>
<path d="M105.99 145.364V157H104.928V146.477H104.86L102.132 148.29V147.188L104.882 145.364H105.99Z" fill="#24408E"/>
<mask id="path-18-inside-7_158_1301" fill="white">
<path d="M209.333 126H418.667V177H209.333V126Z"/>
</mask>
<path d="M418.667 177V177.5H419.167V177H418.667ZM209.333 177H208.833V177.5H209.333V177ZM418.167 126V177H419.167V126H418.167ZM418.667 176.5H209.333V177.5H418.667V176.5ZM209.833 177V126H208.833V177H209.833Z" fill="#E4EAF6" mask="url(#path-18-inside-7_158_1301)"/>
<path d="M315.324 145.364V157H314.261V146.477H314.193L311.466 148.29V147.188L314.216 145.364H315.324Z" fill="#24408E"/>
<mask id="path-21-inside-8_158_1301" fill="white">
<path d="M418.667 126H628V177H418.667V126Z"/>
</mask>
<path d="M628 177V177.5H628.5V177H628ZM418.667 177H418.167V177.5H418.667V177ZM627.5 126V177H628.5V126H627.5ZM628 176.5H418.667V177.5H628V176.5ZM419.167 177V126H418.167V177H419.167Z" fill="#E4EAF6" mask="url(#path-21-inside-8_158_1301)"/>
<path d="M442.502 148.273C442.434 147.697 442.157 147.25 441.672 146.932C441.187 146.614 440.593 146.455 439.888 146.455C439.373 146.455 438.922 146.538 438.536 146.705C438.153 146.871 437.854 147.1 437.638 147.392C437.426 147.684 437.32 148.015 437.32 148.386C437.32 148.697 437.394 148.964 437.542 149.188C437.693 149.407 437.886 149.591 438.121 149.739C438.356 149.883 438.602 150.002 438.86 150.097C439.117 150.187 439.354 150.261 439.57 150.318L440.752 150.636C441.055 150.716 441.392 150.826 441.763 150.966C442.138 151.106 442.496 151.297 442.837 151.54C443.182 151.778 443.466 152.085 443.689 152.46C443.913 152.835 444.024 153.295 444.024 153.841C444.024 154.47 443.86 155.038 443.53 155.545C443.204 156.053 442.727 156.456 442.098 156.756C441.473 157.055 440.714 157.205 439.82 157.205C438.987 157.205 438.265 157.07 437.655 156.801C437.049 156.532 436.572 156.157 436.223 155.676C435.879 155.195 435.684 154.636 435.638 154H437.093C437.131 154.439 437.278 154.803 437.536 155.091C437.797 155.375 438.127 155.587 438.524 155.727C438.926 155.864 439.358 155.932 439.82 155.932C440.358 155.932 440.841 155.845 441.269 155.67C441.697 155.492 442.036 155.246 442.286 154.932C442.536 154.614 442.661 154.242 442.661 153.818C442.661 153.432 442.553 153.117 442.337 152.875C442.121 152.633 441.837 152.436 441.485 152.284C441.132 152.133 440.752 152 440.343 151.886L438.911 151.477C438.002 151.216 437.282 150.843 436.752 150.358C436.221 149.873 435.956 149.239 435.956 148.455C435.956 147.803 436.132 147.235 436.485 146.75C436.841 146.261 437.318 145.883 437.917 145.614C438.519 145.341 439.191 145.205 439.934 145.205C440.684 145.205 441.35 145.339 441.934 145.608C442.517 145.873 442.979 146.237 443.32 146.699C443.665 147.161 443.846 147.686 443.865 148.273H442.502ZM446.818 157H445.341L449.614 145.364H451.068L455.341 157H453.864L450.387 147.205H450.296L446.818 157ZM447.364 152.455H453.318V153.705H447.364V152.455ZM466.381 145.364V157H465.017L458.676 147.864H458.563V157H457.154V145.364H458.517L464.881 154.523H464.995V145.364H466.381ZM479.019 151.182C479.019 152.409 478.797 153.47 478.354 154.364C477.911 155.258 477.303 155.947 476.53 156.432C475.757 156.917 474.875 157.159 473.882 157.159C472.89 157.159 472.007 156.917 471.235 156.432C470.462 155.947 469.854 155.258 469.411 154.364C468.968 153.47 468.746 152.409 468.746 151.182C468.746 149.955 468.968 148.894 469.411 148C469.854 147.106 470.462 146.417 471.235 145.932C472.007 145.447 472.89 145.205 473.882 145.205C474.875 145.205 475.757 145.447 476.53 145.932C477.303 146.417 477.911 147.106 478.354 148C478.797 148.894 479.019 149.955 479.019 151.182ZM477.655 151.182C477.655 150.174 477.487 149.324 477.149 148.631C476.816 147.938 476.363 147.413 475.792 147.057C475.223 146.701 474.587 146.523 473.882 146.523C473.178 146.523 472.54 146.701 471.968 147.057C471.399 147.413 470.947 147.938 470.61 148.631C470.276 149.324 470.11 150.174 470.11 151.182C470.11 152.189 470.276 153.04 470.61 153.733C470.947 154.426 471.399 154.951 471.968 155.307C472.54 155.663 473.178 155.841 473.882 155.841C474.587 155.841 475.223 155.663 475.792 155.307C476.363 154.951 476.816 154.426 477.149 153.733C477.487 153.04 477.655 152.189 477.655 151.182ZM481.388 157V145.364H488.365V146.614H482.797V150.545H487.843V151.795H482.797V157H481.388ZM492.188 145.364V157H490.779V145.364H492.188Z" fill="#24408E"/>
<mask id="path-24-inside-9_158_1301" fill="white">
<path d="M0 177H209.333V228H0V177Z"/>
</mask>
<path d="M209.333 228V228.5H209.833V228H209.333ZM0 228H-0.5V228.5H0V228ZM208.833 177V228H209.833V177H208.833ZM209.333 227.5H0V228.5H209.333V227.5ZM0.5 228V177H-0.5V228H0.5Z" fill="#E4EAF6" mask="url(#path-24-inside-9_158_1301)"/>
<path d="M101.079 208V207.222L104.88 202.949C105.376 202.388 105.776 201.909 106.079 201.511C106.382 201.114 106.602 200.746 106.738 200.409C106.878 200.072 106.948 199.722 106.948 199.358C106.948 198.915 106.844 198.528 106.636 198.199C106.431 197.866 106.149 197.606 105.789 197.42C105.43 197.235 105.024 197.142 104.573 197.142C104.096 197.142 103.678 197.244 103.318 197.449C102.962 197.653 102.685 197.934 102.488 198.29C102.291 198.646 102.193 199.055 102.193 199.517H101.176C101.176 198.873 101.323 198.303 101.619 197.807C101.918 197.307 102.325 196.915 102.841 196.631C103.359 196.347 103.947 196.205 104.602 196.205C105.25 196.205 105.825 196.345 106.329 196.625C106.833 196.902 107.229 197.278 107.517 197.756C107.805 198.233 107.948 198.767 107.948 199.358C107.948 199.786 107.873 200.201 107.721 200.602C107.573 201.004 107.318 201.451 106.954 201.943C106.591 202.436 106.087 203.038 105.443 203.75L102.556 206.972V207.045H108.312V208H101.079Z" fill="#24408E"/>
<mask id="path-27-inside-10_158_1301" fill="white">
<path d="M209.333 177H418.667V228H209.333V177Z"/>
</mask>
<path d="M418.667 228V228.5H419.167V228H418.667ZM209.333 228H208.833V228.5H209.333V228ZM418.167 177V228H419.167V177H418.167ZM418.667 227.5H209.333V228.5H418.667V227.5ZM209.833 228V177H208.833V228H209.833Z" fill="#E4EAF6" mask="url(#path-27-inside-10_158_1301)"/>
<path d="M310.413 208V207.222L314.214 202.949C314.71 202.388 315.11 201.909 315.413 201.511C315.716 201.114 315.935 200.746 316.072 200.409C316.212 200.072 316.282 199.722 316.282 199.358C316.282 198.915 316.178 198.528 315.969 198.199C315.765 197.866 315.483 197.606 315.123 197.42C314.763 197.235 314.358 197.142 313.907 197.142C313.43 197.142 313.011 197.244 312.651 197.449C312.295 197.653 312.019 197.934 311.822 198.29C311.625 198.646 311.526 199.055 311.526 199.517H310.509C310.509 198.873 310.657 198.303 310.952 197.807C311.252 197.307 311.659 196.915 312.174 196.631C312.693 196.347 313.28 196.205 313.935 196.205C314.583 196.205 315.159 196.345 315.663 196.625C316.166 196.902 316.562 197.278 316.85 197.756C317.138 198.233 317.282 198.767 317.282 199.358C317.282 199.786 317.206 200.201 317.055 200.602C316.907 201.004 316.651 201.451 316.288 201.943C315.924 202.436 315.42 203.038 314.776 203.75L311.89 206.972V207.045H317.646V208H310.413Z" fill="#24408E"/>
<mask id="path-30-inside-11_158_1301" fill="white">
<path d="M418.667 177H628V228H418.667V177Z"/>
</mask>
<path d="M628 228V228.5H628.5V228H628ZM418.667 228H418.167V228.5H418.667V228ZM627.5 177V228H628.5V177H627.5ZM628 227.5H418.667V228.5H628V227.5ZM419.167 228V177H418.167V228H419.167Z" fill="#E4EAF6" mask="url(#path-30-inside-11_158_1301)"/>
<path d="M440.049 208H436.458V196.364H440.208C441.337 196.364 442.303 196.597 443.106 197.062C443.909 197.525 444.525 198.189 444.953 199.057C445.381 199.92 445.595 200.955 445.595 202.159C445.595 203.371 445.379 204.415 444.947 205.29C444.515 206.161 443.886 206.831 443.061 207.301C442.235 207.767 441.231 208 440.049 208ZM437.867 206.75H439.958C440.921 206.75 441.718 206.564 442.35 206.193C442.983 205.822 443.455 205.294 443.765 204.608C444.076 203.922 444.231 203.106 444.231 202.159C444.231 201.22 444.078 200.411 443.771 199.733C443.464 199.051 443.006 198.528 442.396 198.165C441.786 197.797 441.027 197.614 440.117 197.614H437.867V206.75ZM447.958 208V196.364H449.367V201.545H455.572V196.364H456.981V208H455.572V202.795H449.367V208H447.958ZM467.757 200C467.632 199.617 467.467 199.275 467.262 198.972C467.062 198.665 466.821 198.403 466.541 198.188C466.264 197.972 465.95 197.807 465.598 197.693C465.245 197.58 464.859 197.523 464.439 197.523C463.749 197.523 463.122 197.701 462.558 198.057C461.993 198.413 461.545 198.938 461.211 199.631C460.878 200.324 460.711 201.174 460.711 202.182C460.711 203.189 460.88 204.04 461.217 204.733C461.554 205.426 462.01 205.951 462.586 206.307C463.162 206.663 463.81 206.841 464.529 206.841C465.196 206.841 465.783 206.699 466.291 206.415C466.802 206.127 467.2 205.722 467.484 205.199C467.772 204.672 467.916 204.053 467.916 203.341L468.348 203.432H464.848V202.182H469.279V203.432C469.279 204.39 469.075 205.223 468.666 205.932C468.26 206.64 467.7 207.189 466.984 207.58C466.272 207.966 465.454 208.159 464.529 208.159C463.499 208.159 462.594 207.917 461.814 207.432C461.037 206.947 460.431 206.258 459.995 205.364C459.564 204.47 459.348 203.409 459.348 202.182C459.348 201.261 459.471 200.434 459.717 199.699C459.967 198.96 460.319 198.331 460.774 197.812C461.228 197.294 461.766 196.896 462.387 196.619C463.009 196.343 463.692 196.205 464.439 196.205C465.052 196.205 465.624 196.297 466.154 196.483C466.689 196.665 467.164 196.924 467.581 197.261C468.001 197.595 468.351 197.994 468.632 198.46C468.912 198.922 469.105 199.436 469.211 200H467.757Z" fill="#24408E"/>
<mask id="path-33-inside-12_158_1301" fill="white">
<path d="M0 228H209.333V279H0V228Z"/>
</mask>
<path d="M209.333 279V279.5H209.833V279H209.333ZM0 279H-0.5V279.5H0V279ZM208.833 228V279H209.833V228H208.833ZM209.333 278.5H0V279.5H209.333V278.5ZM0.5 279V228H-0.5V279H0.5Z" fill="#E4EAF6" mask="url(#path-33-inside-12_158_1301)"/>
<path d="M104.709 259.159C103.993 259.159 103.353 259.03 102.789 258.773C102.224 258.511 101.777 258.15 101.448 257.688C101.118 257.225 100.944 256.693 100.925 256.091H101.999C102.018 256.515 102.149 256.886 102.391 257.205C102.633 257.519 102.955 257.765 103.357 257.943C103.758 258.117 104.205 258.205 104.698 258.205C105.236 258.205 105.709 258.104 106.118 257.903C106.531 257.703 106.853 257.428 107.084 257.08C107.319 256.727 107.436 256.33 107.436 255.886C107.436 255.417 107.317 255.002 107.078 254.642C106.84 254.282 106.497 254.002 106.05 253.801C105.607 253.6 105.077 253.5 104.459 253.5H103.777V252.545H104.459C104.963 252.545 105.408 252.455 105.794 252.273C106.184 252.087 106.491 251.828 106.715 251.494C106.938 251.161 107.05 250.769 107.05 250.318C107.05 249.89 106.953 249.513 106.76 249.188C106.567 248.862 106.294 248.606 105.942 248.42C105.594 248.235 105.186 248.142 104.72 248.142C104.27 248.142 103.857 248.229 103.482 248.403C103.107 248.578 102.804 248.824 102.573 249.142C102.345 249.46 102.224 249.837 102.209 250.273H101.181C101.196 249.667 101.363 249.134 101.681 248.676C102.003 248.214 102.429 247.854 102.959 247.597C103.493 247.335 104.084 247.205 104.732 247.205C105.417 247.205 106.01 247.345 106.51 247.625C107.01 247.905 107.397 248.278 107.669 248.744C107.946 249.206 108.084 249.716 108.084 250.273C108.084 250.936 107.904 251.504 107.544 251.977C107.184 252.447 106.7 252.773 106.09 252.955V253.028C106.832 253.176 107.416 253.506 107.84 254.017C108.268 254.525 108.482 255.148 108.482 255.886C108.482 256.508 108.319 257.066 107.993 257.562C107.667 258.055 107.22 258.445 106.652 258.733C106.088 259.017 105.44 259.159 104.709 259.159Z" fill="#24408E"/>
<mask id="path-36-inside-13_158_1301" fill="white">
<path d="M209.333 228H418.667V279H209.333V228Z"/>
</mask>
<path d="M418.667 279V279.5H419.167V279H418.667ZM209.333 279H208.833V279.5H209.333V279ZM418.167 228V279H419.167V228H418.167ZM418.667 278.5H209.333V279.5H418.667V278.5ZM209.833 279V228H208.833V279H209.833Z" fill="#E4EAF6" mask="url(#path-36-inside-13_158_1301)"/>
<path d="M314.043 259.159C313.327 259.159 312.687 259.03 312.122 258.773C311.558 258.511 311.111 258.15 310.781 257.688C310.452 257.225 310.277 256.693 310.259 256.091H311.332C311.351 256.515 311.482 256.886 311.724 257.205C311.967 257.519 312.289 257.765 312.69 257.943C313.092 258.117 313.539 258.205 314.031 258.205C314.569 258.205 315.043 258.104 315.452 257.903C315.865 257.703 316.187 257.428 316.418 257.08C316.652 256.727 316.77 256.33 316.77 255.886C316.77 255.417 316.651 255.002 316.412 254.642C316.173 254.282 315.83 254.002 315.384 253.801C314.94 253.6 314.41 253.5 313.793 253.5H313.111V252.545H313.793C314.296 252.545 314.741 252.455 315.128 252.273C315.518 252.087 315.825 251.828 316.048 251.494C316.272 251.161 316.384 250.769 316.384 250.318C316.384 249.89 316.287 249.513 316.094 249.188C315.901 248.862 315.628 248.606 315.276 248.42C314.927 248.235 314.52 248.142 314.054 248.142C313.603 248.142 313.19 248.229 312.815 248.403C312.44 248.578 312.137 248.824 311.906 249.142C311.679 249.46 311.558 249.837 311.543 250.273H310.514C310.529 249.667 310.696 249.134 311.014 248.676C311.336 248.214 311.762 247.854 312.293 247.597C312.827 247.335 313.418 247.205 314.065 247.205C314.751 247.205 315.344 247.345 315.844 247.625C316.344 247.905 316.73 248.278 317.003 248.744C317.279 249.206 317.418 249.716 317.418 250.273C317.418 250.936 317.238 251.504 316.878 251.977C316.518 252.447 316.033 252.773 315.423 252.955V253.028C316.166 253.176 316.749 253.506 317.173 254.017C317.601 254.525 317.815 255.148 317.815 255.886C317.815 256.508 317.652 257.066 317.327 257.562C317.001 258.055 316.554 258.445 315.986 258.733C315.421 259.017 314.774 259.159 314.043 259.159Z" fill="#24408E"/>
<mask id="path-39-inside-14_158_1301" fill="white">
<path d="M418.667 228H628V279H418.667V228Z"/>
</mask>
<path d="M628 279V279.5H628.5V279H628ZM418.667 279H418.167V279.5H418.667V279ZM627.5 228V279H628.5V228H627.5ZM628 278.5H418.667V279.5H628V278.5ZM419.167 279V228H418.167V279H419.167Z" fill="#E4EAF6" mask="url(#path-39-inside-14_158_1301)"/>
<path d="M436.576 259H435.099L439.372 247.364H440.826L445.099 259H443.622L440.144 249.205H440.054L436.576 259ZM437.122 254.455H443.076V255.705H437.122V254.455ZM453.275 250.273C453.207 249.697 452.93 249.25 452.446 248.932C451.961 248.614 451.366 248.455 450.662 248.455C450.146 248.455 449.696 248.538 449.309 248.705C448.927 248.871 448.627 249.1 448.412 249.392C448.199 249.684 448.093 250.015 448.093 250.386C448.093 250.697 448.167 250.964 448.315 251.188C448.466 251.407 448.66 251.591 448.894 251.739C449.129 251.883 449.376 252.002 449.633 252.097C449.891 252.187 450.127 252.261 450.343 252.318L451.525 252.636C451.828 252.716 452.165 252.826 452.537 252.966C452.912 253.106 453.269 253.297 453.61 253.54C453.955 253.778 454.239 254.085 454.463 254.46C454.686 254.835 454.798 255.295 454.798 255.841C454.798 256.47 454.633 257.038 454.304 257.545C453.978 258.053 453.501 258.456 452.872 258.756C452.247 259.055 451.487 259.205 450.593 259.205C449.76 259.205 449.038 259.07 448.429 258.801C447.823 258.532 447.345 258.157 446.997 257.676C446.652 257.195 446.457 256.636 446.412 256H447.866C447.904 256.439 448.052 256.803 448.309 257.091C448.571 257.375 448.9 257.587 449.298 257.727C449.699 257.864 450.131 257.932 450.593 257.932C451.131 257.932 451.614 257.845 452.042 257.67C452.47 257.492 452.809 257.246 453.059 256.932C453.309 256.614 453.434 256.242 453.434 255.818C453.434 255.432 453.326 255.117 453.11 254.875C452.894 254.633 452.61 254.436 452.258 254.284C451.906 254.133 451.525 254 451.116 253.886L449.684 253.477C448.775 253.216 448.055 252.843 447.525 252.358C446.995 251.873 446.73 251.239 446.73 250.455C446.73 249.803 446.906 249.235 447.258 248.75C447.614 248.261 448.091 247.883 448.69 247.614C449.292 247.341 449.965 247.205 450.707 247.205C451.457 247.205 452.124 247.339 452.707 247.608C453.29 247.873 453.752 248.237 454.093 248.699C454.438 249.161 454.62 249.686 454.639 250.273H453.275ZM456.478 248.614V247.364H465.206V248.614H461.546V259H460.137V248.614H456.478ZM467.38 259V247.364H471.312C472.221 247.364 472.967 247.519 473.551 247.83C474.134 248.136 474.566 248.559 474.846 249.097C475.126 249.634 475.267 250.246 475.267 250.932C475.267 251.617 475.126 252.225 474.846 252.756C474.566 253.286 474.136 253.703 473.556 254.006C472.977 254.305 472.236 254.455 471.335 254.455H468.153V253.182H471.289C471.911 253.182 472.411 253.091 472.789 252.909C473.172 252.727 473.448 252.47 473.619 252.136C473.793 251.799 473.88 251.398 473.88 250.932C473.88 250.466 473.793 250.059 473.619 249.71C473.445 249.362 473.166 249.093 472.784 248.903C472.401 248.71 471.895 248.614 471.267 248.614H468.789V259H467.38ZM472.858 253.773L475.721 259H474.085L471.267 253.773H472.858ZM478.092 259H476.615L480.887 247.364H482.342L486.615 259H485.137L481.66 249.205H481.569L478.092 259ZM478.637 254.455H484.592V255.705H478.637V254.455ZM488.041 259V257.977L494.314 248.614H487.973V247.364H495.995V248.386L489.723 257.75H496.064V259H488.041ZM498.427 259V247.364H505.45V248.614H499.836V252.545H505.086V253.795H499.836V257.75H505.541V259H498.427ZM517.217 247.364V259H515.853L509.512 249.864H509.399V259H507.99V247.364H509.353L515.717 256.523H515.831V247.364H517.217ZM520.037 259V247.364H527.059V248.614H521.446V252.545H526.696V253.795H521.446V257.75H527.15V259H520.037ZM538.963 251H537.554C537.47 250.595 537.324 250.239 537.116 249.932C536.912 249.625 536.662 249.367 536.366 249.159C536.074 248.947 535.751 248.788 535.394 248.682C535.038 248.576 534.667 248.523 534.281 248.523C533.576 248.523 532.938 248.701 532.366 249.057C531.798 249.413 531.345 249.938 531.008 250.631C530.675 251.324 530.508 252.174 530.508 253.182C530.508 254.189 530.675 255.04 531.008 255.733C531.345 256.426 531.798 256.951 532.366 257.307C532.938 257.663 533.576 257.841 534.281 257.841C534.667 257.841 535.038 257.788 535.394 257.682C535.751 257.576 536.074 257.419 536.366 257.21C536.662 256.998 536.912 256.739 537.116 256.432C537.324 256.121 537.47 255.765 537.554 255.364H538.963C538.857 255.958 538.663 256.491 538.383 256.96C538.103 257.43 537.754 257.83 537.338 258.159C536.921 258.485 536.453 258.733 535.934 258.903C535.419 259.074 534.868 259.159 534.281 259.159C533.288 259.159 532.406 258.917 531.633 258.432C530.86 257.947 530.252 257.258 529.809 256.364C529.366 255.47 529.144 254.409 529.144 253.182C529.144 251.955 529.366 250.894 529.809 250C530.252 249.106 530.86 248.417 531.633 247.932C532.406 247.447 533.288 247.205 534.281 247.205C534.868 247.205 535.419 247.29 535.934 247.46C536.453 247.631 536.921 247.881 537.338 248.21C537.754 248.536 538.103 248.934 538.383 249.403C538.663 249.869 538.857 250.402 538.963 251ZM541.717 259H540.24L544.512 247.364H545.967L550.24 259H548.762L545.285 249.205H545.194L541.717 259ZM542.262 254.455H548.217V255.705H542.262V254.455Z" fill="#24408E"/>
<mask id="path-42-inside-15_158_1301" fill="white">
<path d="M0 279H209.333V330H0V279Z"/>
</mask>
<path d="M209.333 330V330.5H209.833V330H209.333ZM0 330H-0.5V330.5H0V330ZM208.833 279V330H209.833V279H208.833ZM209.333 329.5H0V330.5H209.333V329.5ZM0.5 330V279H-0.5V330H0.5Z" fill="#E4EAF6" mask="url(#path-42-inside-15_158_1301)"/>
<path d="M100.676 307.5V306.636L105.863 298.364H106.5V299.812H106.028L101.863 306.472V306.545H108.664V307.5H100.676ZM106.108 310V307.227V306.83V298.364H107.119V310H106.108Z" fill="#24408E"/>
<mask id="path-45-inside-16_158_1301" fill="white">
<path d="M209.333 279H418.667V330H209.333V279Z"/>
</mask>
<path d="M418.667 330V330.5H419.167V330H418.667ZM209.333 330H208.833V330.5H209.333V330ZM418.167 279V330H419.167V279H418.167ZM418.667 329.5H209.333V330.5H418.667V329.5ZM209.833 330V279H208.833V330H209.833Z" fill="#E4EAF6" mask="url(#path-45-inside-16_158_1301)"/>
<path d="M310.009 307.5V306.636L315.197 298.364H315.833V299.812H315.362L311.197 306.472V306.545H317.998V307.5H310.009ZM315.441 310V307.227V306.83V298.364H316.452V310H315.441Z" fill="#24408E"/>
<mask id="path-48-inside-17_158_1301" fill="white">
<path d="M418.667 279H628V330H418.667V279Z"/>
</mask>
<path d="M628 330V330.5H628.5V330H628ZM418.667 330H418.167V330.5H418.667V330ZM627.5 279V330H628.5V279H627.5ZM628 329.5H418.667V330.5H628V329.5ZM419.167 330V279H418.167V330H419.167Z" fill="#E4EAF6" mask="url(#path-48-inside-17_158_1301)"/>
<path d="M445.678 298.364V310H444.314L437.973 300.864H437.86V310H436.451V298.364H437.814L444.178 307.523H444.292V298.364H445.678ZM458.316 304.182C458.316 305.409 458.094 306.47 457.651 307.364C457.208 308.258 456.6 308.947 455.827 309.432C455.054 309.917 454.172 310.159 453.179 310.159C452.187 310.159 451.304 309.917 450.532 309.432C449.759 308.947 449.151 308.258 448.708 307.364C448.265 306.47 448.043 305.409 448.043 304.182C448.043 302.955 448.265 301.894 448.708 301C449.151 300.106 449.759 299.417 450.532 298.932C451.304 298.447 452.187 298.205 453.179 298.205C454.172 298.205 455.054 298.447 455.827 298.932C456.6 299.417 457.208 300.106 457.651 301C458.094 301.894 458.316 302.955 458.316 304.182ZM456.952 304.182C456.952 303.174 456.783 302.324 456.446 301.631C456.113 300.938 455.66 300.413 455.088 300.057C454.52 299.701 453.884 299.523 453.179 299.523C452.475 299.523 451.836 299.701 451.265 300.057C450.696 300.413 450.244 300.938 449.907 301.631C449.573 302.324 449.407 303.174 449.407 304.182C449.407 305.189 449.573 306.04 449.907 306.733C450.244 307.426 450.696 307.951 451.265 308.307C451.836 308.663 452.475 308.841 453.179 308.841C453.884 308.841 454.52 308.663 455.088 308.307C455.66 307.951 456.113 307.426 456.446 306.733C456.783 306.04 456.952 305.189 456.952 304.182ZM460.615 298.364L464.07 308.159H464.206L467.661 298.364H469.138L464.865 310H463.411L459.138 298.364H460.615ZM470.428 310H468.951L473.223 298.364H474.678L478.951 310H477.473L473.996 300.205H473.905L470.428 310ZM470.973 305.455H476.928V306.705H470.973V305.455ZM480.763 310V298.364H484.695C485.604 298.364 486.35 298.519 486.934 298.83C487.517 299.136 487.949 299.559 488.229 300.097C488.509 300.634 488.649 301.246 488.649 301.932C488.649 302.617 488.509 303.225 488.229 303.756C487.949 304.286 487.519 304.703 486.939 305.006C486.36 305.305 485.619 305.455 484.718 305.455H481.536V304.182H484.672C485.293 304.182 485.793 304.091 486.172 303.909C486.555 303.727 486.831 303.47 487.002 303.136C487.176 302.799 487.263 302.398 487.263 301.932C487.263 301.466 487.176 301.059 487.002 300.71C486.827 300.362 486.549 300.093 486.167 299.903C485.784 299.71 485.278 299.614 484.649 299.614H482.172V310H480.763ZM486.24 304.773L489.104 310H487.468L484.649 304.773H486.24ZM490.361 299.614V298.364H499.088V299.614H495.429V310H494.02V299.614H490.361ZM502.672 298.364V310H501.263V298.364H502.672ZM511.861 301.273C511.793 300.697 511.516 300.25 511.032 299.932C510.547 299.614 509.952 299.455 509.247 299.455C508.732 299.455 508.282 299.538 507.895 299.705C507.513 299.871 507.213 300.1 506.997 300.392C506.785 300.684 506.679 301.015 506.679 301.386C506.679 301.697 506.753 301.964 506.901 302.188C507.052 302.407 507.246 302.591 507.48 302.739C507.715 302.883 507.961 303.002 508.219 303.097C508.477 303.187 508.713 303.261 508.929 303.318L510.111 303.636C510.414 303.716 510.751 303.826 511.122 303.966C511.497 304.106 511.855 304.297 512.196 304.54C512.541 304.778 512.825 305.085 513.049 305.46C513.272 305.835 513.384 306.295 513.384 306.841C513.384 307.47 513.219 308.038 512.89 308.545C512.564 309.053 512.086 309.456 511.458 309.756C510.833 310.055 510.073 310.205 509.179 310.205C508.346 310.205 507.624 310.07 507.015 309.801C506.408 309.532 505.931 309.157 505.583 308.676C505.238 308.195 505.043 307.636 504.997 307H506.452C506.49 307.439 506.638 307.803 506.895 308.091C507.157 308.375 507.486 308.587 507.884 308.727C508.285 308.864 508.717 308.932 509.179 308.932C509.717 308.932 510.2 308.845 510.628 308.67C511.056 308.492 511.395 308.246 511.645 307.932C511.895 307.614 512.02 307.242 512.02 306.818C512.02 306.432 511.912 306.117 511.696 305.875C511.48 305.633 511.196 305.436 510.844 305.284C510.492 305.133 510.111 305 509.702 304.886L508.27 304.477C507.361 304.216 506.641 303.843 506.111 303.358C505.581 302.873 505.316 302.239 505.316 301.455C505.316 300.803 505.492 300.235 505.844 299.75C506.2 299.261 506.677 298.883 507.276 298.614C507.878 298.341 508.551 298.205 509.293 298.205C510.043 298.205 510.71 298.339 511.293 298.608C511.876 298.873 512.338 299.237 512.679 299.699C513.024 300.161 513.206 300.686 513.225 301.273H511.861Z" fill="#24408E"/>
<mask id="path-51-inside-18_158_1301" fill="white">
<path d="M0 330H209.333V381H0V330Z"/>
</mask>
<path d="M209.333 381V381.5H209.833V381H209.333ZM0 381H-0.5V381.5H0V381ZM208.833 330V381H209.833V330H208.833ZM209.333 380.5H0V381.5H209.333V380.5ZM0.5 381V330H-0.5V381H0.5Z" fill="#E4EAF6" mask="url(#path-51-inside-18_158_1301)"/>
<path d="M104.6 361.159C103.952 361.159 103.372 361.028 102.861 360.767C102.354 360.502 101.948 360.138 101.645 359.676C101.346 359.214 101.187 358.686 101.168 358.091H102.196C102.23 358.708 102.473 359.216 102.924 359.614C103.374 360.008 103.933 360.205 104.6 360.205C105.119 360.205 105.581 360.081 105.986 359.835C106.391 359.585 106.708 359.244 106.935 358.812C107.166 358.377 107.282 357.886 107.282 357.341C107.278 356.773 107.155 356.273 106.912 355.841C106.67 355.405 106.34 355.064 105.924 354.818C105.511 354.572 105.047 354.449 104.532 354.449C104.141 354.445 103.759 354.509 103.384 354.642C103.009 354.775 102.696 354.945 102.446 355.153L101.384 355.017L102.083 349.364H107.833V350.318H102.975L102.509 354.21H102.566C102.823 353.994 103.136 353.818 103.503 353.682C103.874 353.545 104.266 353.477 104.679 353.477C105.365 353.477 105.98 353.642 106.526 353.972C107.075 354.301 107.509 354.756 107.827 355.335C108.149 355.911 108.31 356.574 108.31 357.324C108.31 358.059 108.149 358.716 107.827 359.295C107.509 359.871 107.069 360.326 106.509 360.659C105.952 360.992 105.316 361.159 104.6 361.159Z" fill="#24408E"/>
<path d="M120 360L128 352L136 360H120Z" fill="#00A93C"/>
<mask id="path-55-inside-19_158_1301" fill="white">
<path d="M209.333 330H418.667V381H209.333V330Z"/>
</mask>
<path d="M418.667 381V381.5H419.167V381H418.667ZM209.333 381H208.833V381.5H209.333V381ZM418.167 330V381H419.167V330H418.167ZM418.667 380.5H209.333V381.5H418.667V380.5ZM209.833 381V330H208.833V381H209.833Z" fill="#E4EAF6" mask="url(#path-55-inside-19_158_1301)"/>
<path d="M310.418 349.364V361H309.355V350.477H309.287L306.56 352.29V351.188L309.31 349.364H310.418ZM317.565 361.159C316.747 361.159 316.048 360.924 315.469 360.455C314.893 359.981 314.45 359.297 314.139 358.403C313.832 357.509 313.679 356.436 313.679 355.182C313.679 353.932 313.832 352.862 314.139 351.972C314.45 351.078 314.895 350.394 315.474 349.92C316.058 349.443 316.755 349.205 317.565 349.205C318.376 349.205 319.071 349.443 319.651 349.92C320.234 350.394 320.679 351.078 320.986 351.972C321.296 352.862 321.452 353.932 321.452 355.182C321.452 356.436 321.296 357.509 320.986 358.403C320.679 359.297 320.236 359.981 319.656 360.455C319.08 360.924 318.384 361.159 317.565 361.159ZM317.565 360.205C318.463 360.205 319.164 359.767 319.668 358.892C320.171 358.013 320.423 356.777 320.423 355.182C320.423 354.121 320.308 353.216 320.077 352.466C319.849 351.712 319.522 351.136 319.094 350.739C318.67 350.341 318.16 350.142 317.565 350.142C316.675 350.142 315.976 350.585 315.469 351.472C314.961 352.354 314.707 353.591 314.707 355.182C314.707 356.242 314.821 357.148 315.048 357.898C315.279 358.648 315.607 359.22 316.031 359.614C316.459 360.008 316.971 360.205 317.565 360.205Z" fill="#24408E"/>
<mask id="path-58-inside-20_158_1301" fill="white">
<path d="M418.667 330H628V381H418.667V330Z"/>
</mask>
<path d="M628 381V381.5H628.5V381H628ZM418.667 381H418.167V381.5H418.667V381ZM627.5 330V381H628.5V330H627.5ZM628 380.5H418.667V381.5H628V380.5ZM419.167 381V330H418.167V381H419.167Z" fill="#E4EAF6" mask="url(#path-58-inside-20_158_1301)"/>
<path d="M438.25 349.364V361H436.142V349.364H438.25ZM440.533 349.364H443.113L446.567 357.795H446.703L450.158 349.364H452.738V361H450.715V353.006H450.607L447.391 360.966H445.88L442.664 352.989H442.556V361H440.533V349.364ZM455.033 361V349.364H462.601V351.131H457.141V354.29H462.209V356.057H457.141V359.233H462.647V361H455.033ZM466.513 349.364L469.076 353.625H469.167L471.74 349.364H474.144L470.559 355.182L474.201 361H471.757L469.167 356.767H469.076L466.485 361H464.053L467.729 355.182L464.098 349.364H466.513ZM475.799 361V349.364H480.162C481.056 349.364 481.806 349.53 482.412 349.864C483.022 350.197 483.482 350.655 483.793 351.239C484.107 351.818 484.265 352.477 484.265 353.216C484.265 353.962 484.107 354.625 483.793 355.205C483.479 355.784 483.015 356.241 482.401 356.574C481.787 356.903 481.032 357.068 480.134 357.068H477.242V355.335H479.85C480.372 355.335 480.801 355.244 481.134 355.062C481.467 354.881 481.713 354.631 481.872 354.312C482.035 353.994 482.117 353.629 482.117 353.216C482.117 352.803 482.035 352.439 481.872 352.125C481.713 351.811 481.465 351.566 481.128 351.392C480.795 351.214 480.365 351.125 479.838 351.125H477.907V361H475.799ZM486.095 361V349.364H488.203V354.29H493.595V349.364H495.709V361H493.595V356.057H488.203V361H486.095ZM499.496 361H497.246L501.343 349.364H503.945L508.047 361H505.797L502.689 351.75H502.598L499.496 361ZM499.57 356.438H505.706V358.131H499.57V356.438ZM509.58 361V349.364H513.943C514.837 349.364 515.587 349.519 516.193 349.83C516.803 350.14 517.264 350.576 517.574 351.136C517.889 351.693 518.046 352.343 518.046 353.085C518.046 353.831 517.887 354.479 517.568 355.028C517.254 355.574 516.79 355.996 516.176 356.295C515.563 356.591 514.809 356.739 513.915 356.739H510.807V354.989H513.631C514.154 354.989 514.582 354.917 514.915 354.773C515.248 354.625 515.495 354.411 515.654 354.131C515.817 353.847 515.898 353.498 515.898 353.085C515.898 352.672 515.817 352.32 515.654 352.028C515.491 351.733 515.243 351.509 514.909 351.358C514.576 351.203 514.146 351.125 513.62 351.125H511.688V361H509.58ZM515.591 355.727L518.472 361H516.12L513.29 355.727H515.591ZM519.986 349.364H522.566L526.02 357.795H526.157L529.611 349.364H532.191V361H530.168V353.006H530.06L526.844 360.966H525.333L522.117 352.989H522.009V361H519.986V349.364Z" fill="#24408E"/>
<path d="M550.667 359.828L555.302 362.625L554.072 357.352L558.167 353.805L552.774 353.347L550.667 348.375L548.559 353.347L543.167 353.805L547.262 357.352L546.032 362.625L550.667 359.828Z" fill="#24CBFF"/>
<mask id="path-62-inside-21_158_1301" fill="white">
<path d="M0 381H209.333V432H0V381Z"/>
</mask>
<path d="M209.333 432V432.5H209.833V432H209.333ZM0 432H-0.5V432.5H0V432ZM208.833 381V432H209.833V381H208.833ZM209.333 431.5H0V432.5H209.333V431.5ZM0.5 432V381H-0.5V432H0.5Z" fill="#E4EAF6" mask="url(#path-62-inside-21_158_1301)"/>
<path d="M104.752 412.159C104.271 412.155 103.801 412.059 103.343 411.869C102.884 411.676 102.471 411.367 102.104 410.943C101.737 410.515 101.445 409.951 101.229 409.25C101.013 408.549 100.905 407.687 100.905 406.665C100.905 405.718 100.988 404.85 101.155 404.062C101.322 403.275 101.572 402.593 101.905 402.017C102.238 401.441 102.655 400.996 103.155 400.682C103.655 400.364 104.24 400.205 104.911 400.205C105.54 400.205 106.095 400.335 106.576 400.597C107.057 400.854 107.447 401.214 107.746 401.676C108.045 402.138 108.233 402.67 108.309 403.273H107.263C107.157 402.659 106.905 402.153 106.507 401.756C106.11 401.358 105.577 401.159 104.911 401.159C103.956 401.159 103.218 401.602 102.695 402.489C102.172 403.371 101.909 404.625 101.905 406.25H101.979C102.165 405.905 102.403 405.608 102.695 405.358C102.99 405.104 103.326 404.907 103.701 404.767C104.076 404.623 104.47 404.551 104.882 404.551C105.53 404.551 106.123 404.716 106.661 405.045C107.199 405.371 107.629 405.82 107.951 406.392C108.273 406.96 108.434 407.61 108.434 408.341C108.434 409.034 108.28 409.672 107.973 410.256C107.67 410.839 107.242 411.303 106.689 411.648C106.14 411.992 105.494 412.163 104.752 412.159ZM104.752 411.205C105.259 411.205 105.712 411.076 106.11 410.818C106.511 410.561 106.827 410.216 107.059 409.784C107.29 409.348 107.405 408.867 107.405 408.341C107.405 407.814 107.29 407.337 107.059 406.909C106.827 406.481 106.511 406.14 106.11 405.886C105.712 405.633 105.259 405.506 104.752 405.506C104.365 405.506 104.006 405.585 103.672 405.744C103.339 405.9 103.049 406.114 102.803 406.386C102.56 406.655 102.375 406.964 102.246 407.312C102.121 407.661 102.074 408.027 102.104 408.409C102.146 408.943 102.284 409.422 102.519 409.847C102.757 410.267 103.068 410.598 103.451 410.841C103.837 411.083 104.271 411.205 104.752 411.205Z" fill="#24408E"/>
<mask id="path-65-inside-22_158_1301" fill="white">
<path d="M209.333 381H418.667V432H209.333V381Z"/>
</mask>
<path d="M418.667 432V432.5H419.167V432H418.667ZM209.333 432H208.833V432.5H209.333V432ZM418.167 381V432H419.167V381H418.167ZM418.667 431.5H209.333V432.5H418.667V431.5ZM209.833 432V381H208.833V432H209.833Z" fill="#E4EAF6" mask="url(#path-65-inside-22_158_1301)"/>
<path d="M314.085 412.159C313.604 412.155 313.134 412.059 312.676 411.869C312.218 411.676 311.805 411.367 311.438 410.943C311.07 410.515 310.778 409.951 310.562 409.25C310.347 408.549 310.239 407.687 310.239 406.665C310.239 405.718 310.322 404.85 310.489 404.062C310.655 403.275 310.905 402.593 311.239 402.017C311.572 401.441 311.989 400.996 312.489 400.682C312.989 400.364 313.574 400.205 314.244 400.205C314.873 400.205 315.428 400.335 315.909 400.597C316.39 400.854 316.78 401.214 317.08 401.676C317.379 402.138 317.566 402.67 317.642 403.273H316.597C316.491 402.659 316.239 402.153 315.841 401.756C315.443 401.358 314.911 401.159 314.244 401.159C313.29 401.159 312.551 401.602 312.028 402.489C311.506 403.371 311.242 404.625 311.239 406.25H311.312C311.498 405.905 311.737 405.608 312.028 405.358C312.324 405.104 312.659 404.907 313.034 404.767C313.409 404.623 313.803 404.551 314.216 404.551C314.864 404.551 315.456 404.716 315.994 405.045C316.532 405.371 316.962 405.82 317.284 406.392C317.606 406.96 317.767 407.61 317.767 408.341C317.767 409.034 317.614 409.672 317.307 410.256C317.004 410.839 316.576 411.303 316.023 411.648C315.473 411.992 314.828 412.163 314.085 412.159ZM314.085 411.205C314.593 411.205 315.045 411.076 315.443 410.818C315.845 410.561 316.161 410.216 316.392 409.784C316.623 409.348 316.739 408.867 316.739 408.341C316.739 407.814 316.623 407.337 316.392 406.909C316.161 406.481 315.845 406.14 315.443 405.886C315.045 405.633 314.593 405.506 314.085 405.506C313.699 405.506 313.339 405.585 313.006 405.744C312.672 405.9 312.383 406.114 312.136 406.386C311.894 406.655 311.708 406.964 311.58 407.312C311.455 407.661 311.407 408.027 311.438 408.409C311.479 408.943 311.617 409.422 311.852 409.847C312.091 410.267 312.402 410.598 312.784 410.841C313.17 411.083 313.604 411.205 314.085 411.205Z" fill="#24408E"/>
<mask id="path-68-inside-23_158_1301" fill="white">
<path d="M418.667 381H628V432H418.667V381Z"/>
</mask>
<path d="M628 432V432.5H628.5V432H628ZM418.667 432H418.167V432.5H418.667V432ZM627.5 381V432H628.5V381H627.5ZM628 431.5H418.667V432.5H628V431.5ZM419.167 432V381H418.167V432H419.167Z" fill="#E4EAF6" mask="url(#path-68-inside-23_158_1301)"/>
<path d="M442.51 403.273C442.441 402.697 442.165 402.25 441.68 401.932C441.195 401.614 440.6 401.455 439.896 401.455C439.381 401.455 438.93 401.538 438.544 401.705C438.161 401.871 437.862 402.1 437.646 402.392C437.434 402.684 437.328 403.015 437.328 403.386C437.328 403.697 437.402 403.964 437.549 404.188C437.701 404.407 437.894 404.591 438.129 404.739C438.364 404.883 438.61 405.002 438.867 405.097C439.125 405.187 439.362 405.261 439.578 405.318L440.76 405.636C441.063 405.716 441.4 405.826 441.771 405.966C442.146 406.106 442.504 406.297 442.845 406.54C443.189 406.778 443.474 407.085 443.697 407.46C443.921 407.835 444.032 408.295 444.032 408.841C444.032 409.47 443.867 410.038 443.538 410.545C443.212 411.053 442.735 411.456 442.106 411.756C441.481 412.055 440.722 412.205 439.828 412.205C438.994 412.205 438.273 412.07 437.663 411.801C437.057 411.532 436.58 411.157 436.231 410.676C435.886 410.195 435.691 409.636 435.646 409H437.1C437.138 409.439 437.286 409.803 437.544 410.091C437.805 410.375 438.135 410.587 438.532 410.727C438.934 410.864 439.366 410.932 439.828 410.932C440.366 410.932 440.849 410.845 441.277 410.67C441.705 410.492 442.044 410.246 442.294 409.932C442.544 409.614 442.669 409.242 442.669 408.818C442.669 408.432 442.561 408.117 442.345 407.875C442.129 407.633 441.845 407.436 441.492 407.284C441.14 407.133 440.76 407 440.35 406.886L438.919 406.477C438.01 406.216 437.29 405.843 436.76 405.358C436.229 404.873 435.964 404.239 435.964 403.455C435.964 402.803 436.14 402.235 436.492 401.75C436.849 401.261 437.326 400.883 437.924 400.614C438.527 400.341 439.199 400.205 439.941 400.205C440.691 400.205 441.358 400.339 441.941 400.608C442.525 400.873 442.987 401.237 443.328 401.699C443.672 402.161 443.854 402.686 443.873 403.273H442.51ZM445.713 401.614V400.364H454.44V401.614H450.781V412H449.372V401.614H445.713ZM456.615 412V400.364H463.637V401.614H458.024V405.545H463.274V406.795H458.024V410.75H463.728V412H456.615ZM466.177 412V400.364H467.586V410.75H472.995V412H466.177ZM475.177 412V400.364H476.586V410.75H481.995V412H475.177ZM485.389 412H483.912L488.184 400.364H489.639L493.912 412H492.434L488.957 402.205H488.866L485.389 412ZM485.934 407.455H491.889V408.705H485.934V407.455ZM495.724 412V400.364H499.656C500.569 400.364 501.315 400.528 501.894 400.858C502.478 401.184 502.91 401.625 503.19 402.182C503.47 402.739 503.61 403.36 503.61 404.045C503.61 404.731 503.47 405.354 503.19 405.915C502.913 406.475 502.485 406.922 501.906 407.256C501.326 407.585 500.584 407.75 499.679 407.75H496.86V406.5H499.633C500.258 406.5 500.76 406.392 501.139 406.176C501.518 405.96 501.792 405.669 501.963 405.301C502.137 404.93 502.224 404.511 502.224 404.045C502.224 403.58 502.137 403.163 501.963 402.795C501.792 402.428 501.516 402.14 501.133 401.932C500.751 401.72 500.243 401.614 499.61 401.614H497.133V412H495.724ZM505.88 412V400.364H507.289V405.545H513.494V400.364H514.903V412H513.494V406.795H507.289V412H505.88ZM518.201 412H516.724L520.997 400.364H522.451L526.724 412H525.247L521.769 402.205H521.679L518.201 412ZM518.747 407.455H524.701V408.705H518.747V407.455ZM528.537 412V400.364H532.468C533.377 400.364 534.124 400.519 534.707 400.83C535.29 401.136 535.722 401.559 536.002 402.097C536.283 402.634 536.423 403.246 536.423 403.932C536.423 404.617 536.283 405.225 536.002 405.756C535.722 406.286 535.292 406.703 534.713 407.006C534.133 407.305 533.393 407.455 532.491 407.455H529.309V406.182H532.446C533.067 406.182 533.567 406.091 533.946 405.909C534.328 405.727 534.605 405.47 534.775 405.136C534.949 404.799 535.037 404.398 535.037 403.932C535.037 403.466 534.949 403.059 534.775 402.71C534.601 402.362 534.323 402.093 533.94 401.903C533.557 401.71 533.052 401.614 532.423 401.614H529.946V412H528.537ZM534.014 406.773L536.877 412H535.241L532.423 406.773H534.014ZM538.771 400.364H540.453L544.407 410.023H544.544L548.498 400.364H550.18V412H548.862V403.159H548.748L545.112 412H543.839L540.203 403.159H540.089V412H538.771V400.364Z" fill="#24408E"/>
<mask id="path-71-inside-24_158_1301" fill="white">
<path d="M0 432H209.333V483H0V432Z"/>
</mask>
<path d="M209.333 483V483.5H209.833V483H209.333ZM0 483H-0.5V483.5H0V483ZM208.833 432V483H209.833V432H208.833ZM209.333 482.5H0V483.5H209.333V482.5ZM0.5 483V432H-0.5V483H0.5Z" fill="#E4EAF6" mask="url(#path-71-inside-24_158_1301)"/>
<path d="M101.789 463L107.091 452.392V452.318H100.983V451.364H108.204V452.364L102.909 463H101.789Z" fill="#24408E"/>
<mask id="path-74-inside-25_158_1301" fill="white">
<path d="M209.333 432H418.667V483H209.333V432Z"/>
</mask>
<path d="M418.667 483V483.5H419.167V483H418.667ZM209.333 483H208.833V483.5H209.333V483ZM418.167 432V483H419.167V432H418.167ZM418.667 482.5H209.333V483.5H418.667V482.5ZM209.833 483V432H208.833V483H209.833Z" fill="#E4EAF6" mask="url(#path-74-inside-25_158_1301)"/>
<path d="M311.123 463L316.424 452.392V452.318H310.316V451.364H317.538V452.364L312.242 463H311.123Z" fill="#24408E"/>
<mask id="path-77-inside-26_158_1301" fill="white">
<path d="M418.667 432H628V483H418.667V432Z"/>
</mask>
<path d="M628 483V483.5H628.5V483H628ZM418.667 483H418.167V483.5H418.667V483ZM627.5 432V483H628.5V432H627.5ZM628 482.5H418.667V483.5H628V482.5ZM419.167 483V432H418.167V483H419.167Z" fill="#E4EAF6" mask="url(#path-77-inside-26_158_1301)"/>
<path d="M444.265 455C444.14 454.617 443.975 454.275 443.77 453.972C443.569 453.665 443.329 453.403 443.049 453.188C442.772 452.972 442.458 452.807 442.105 452.693C441.753 452.58 441.367 452.523 440.946 452.523C440.257 452.523 439.63 452.701 439.066 453.057C438.501 453.413 438.052 453.938 437.719 454.631C437.386 455.324 437.219 456.174 437.219 457.182C437.219 458.189 437.388 459.04 437.725 459.733C438.062 460.426 438.518 460.951 439.094 461.307C439.67 461.663 440.318 461.841 441.037 461.841C441.704 461.841 442.291 461.699 442.799 461.415C443.31 461.127 443.708 460.722 443.992 460.199C444.28 459.672 444.424 459.053 444.424 458.341L444.855 458.432H441.355V457.182H445.787V458.432C445.787 459.39 445.583 460.223 445.174 460.932C444.768 461.64 444.208 462.189 443.492 462.58C442.78 462.966 441.961 463.159 441.037 463.159C440.007 463.159 439.102 462.917 438.321 462.432C437.545 461.947 436.939 461.258 436.503 460.364C436.071 459.47 435.855 458.409 435.855 457.182C435.855 456.261 435.979 455.434 436.225 454.699C436.475 453.96 436.827 453.331 437.282 452.812C437.736 452.294 438.274 451.896 438.895 451.619C439.516 451.343 440.2 451.205 440.946 451.205C441.56 451.205 442.132 451.297 442.662 451.483C443.196 451.665 443.672 451.924 444.088 452.261C444.509 452.595 444.859 452.994 445.14 453.46C445.42 453.922 445.613 454.436 445.719 455H444.265ZM454.564 454.273C454.496 453.697 454.22 453.25 453.735 452.932C453.25 452.614 452.655 452.455 451.951 452.455C451.435 452.455 450.985 452.538 450.598 452.705C450.216 452.871 449.917 453.1 449.701 453.392C449.488 453.684 449.382 454.015 449.382 454.386C449.382 454.697 449.456 454.964 449.604 455.188C449.756 455.407 449.949 455.591 450.184 455.739C450.418 455.883 450.665 456.002 450.922 456.097C451.18 456.187 451.417 456.261 451.632 456.318L452.814 456.636C453.117 456.716 453.454 456.826 453.826 456.966C454.201 457.106 454.559 457.297 454.899 457.54C455.244 457.778 455.528 458.085 455.752 458.46C455.975 458.835 456.087 459.295 456.087 459.841C456.087 460.47 455.922 461.038 455.593 461.545C455.267 462.053 454.79 462.456 454.161 462.756C453.536 463.055 452.776 463.205 451.882 463.205C451.049 463.205 450.327 463.07 449.718 462.801C449.112 462.532 448.634 462.157 448.286 461.676C447.941 461.195 447.746 460.636 447.701 460H449.155C449.193 460.439 449.341 460.803 449.598 461.091C449.86 461.375 450.189 461.587 450.587 461.727C450.988 461.864 451.42 461.932 451.882 461.932C452.42 461.932 452.903 461.845 453.331 461.67C453.759 461.492 454.098 461.246 454.348 460.932C454.598 460.614 454.723 460.242 454.723 459.818C454.723 459.432 454.615 459.117 454.399 458.875C454.184 458.633 453.899 458.436 453.547 458.284C453.195 458.133 452.814 458 452.405 457.886L450.973 457.477C450.064 457.216 449.345 456.843 448.814 456.358C448.284 455.873 448.019 455.239 448.019 454.455C448.019 453.803 448.195 453.235 448.547 452.75C448.903 452.261 449.381 451.883 449.979 451.614C450.581 451.341 451.254 451.205 451.996 451.205C452.746 451.205 453.413 451.339 453.996 451.608C454.579 451.873 455.042 452.237 455.382 452.699C455.727 453.161 455.909 453.686 455.928 454.273H454.564ZM458.404 463V451.364H459.813V457.136H459.949L465.176 451.364H467.017L462.131 456.614L467.017 463H465.313L461.267 457.591L459.813 459.227V463H458.404Z" fill="#24408E"/>
<mask id="path-80-inside-27_158_1301" fill="white">
<path d="M0 483H209.333V534H0V483Z"/>
</mask>
<path d="M209.333 534V534.5H209.833V534H209.333ZM0 534H-0.5V534.5H0V534ZM208.833 483V534H209.833V483H208.833ZM209.333 533.5H0V534.5H209.333V533.5ZM0.5 534V483H-0.5V534H0.5Z" fill="#E4EAF6" mask="url(#path-80-inside-27_158_1301)"/>
<path d="M104.66 514.159C103.918 514.159 103.257 514.019 102.677 513.739C102.098 513.458 101.643 513.076 101.314 512.591C100.984 512.102 100.819 511.551 100.819 510.938C100.819 510.456 100.92 510.008 101.12 509.591C101.321 509.17 101.598 508.818 101.95 508.534C102.302 508.246 102.698 508.059 103.137 507.972V507.909C102.565 507.742 102.105 507.415 101.757 506.926C101.408 506.434 101.236 505.875 101.24 505.25C101.236 504.67 101.384 504.152 101.683 503.693C101.982 503.235 102.389 502.873 102.904 502.608C103.423 502.339 104.009 502.205 104.66 502.205C105.308 502.205 105.889 502.339 106.404 502.608C106.92 502.873 107.327 503.235 107.626 503.693C107.929 504.152 108.082 504.67 108.086 505.25C108.082 505.871 107.906 506.43 107.558 506.926C107.209 507.419 106.751 507.746 106.183 507.909V507.972C106.622 508.055 107.016 508.241 107.365 508.528C107.713 508.816 107.99 509.17 108.194 509.591C108.399 510.008 108.501 510.456 108.501 510.938C108.501 511.551 108.334 512.102 108.001 512.591C107.671 513.076 107.217 513.458 106.637 513.739C106.062 514.019 105.403 514.159 104.66 514.159ZM104.66 513.205C105.213 513.205 105.698 513.106 106.115 512.909C106.535 512.708 106.863 512.434 107.098 512.085C107.336 511.737 107.456 511.337 107.456 510.886C107.456 510.42 107.332 510.006 107.086 509.642C106.84 509.275 106.507 508.985 106.086 508.773C105.666 508.557 105.19 508.449 104.66 508.449C104.13 508.449 103.653 508.557 103.228 508.773C102.808 508.985 102.475 509.275 102.228 509.642C101.986 510.006 101.865 510.42 101.865 510.886C101.865 511.337 101.98 511.737 102.211 512.085C102.446 512.434 102.774 512.708 103.194 512.909C103.618 513.106 104.107 513.205 104.66 513.205ZM104.66 507.54C105.115 507.54 105.522 507.443 105.882 507.25C106.242 507.057 106.526 506.794 106.734 506.46C106.946 506.123 107.054 505.741 107.058 505.312C107.054 504.888 106.948 504.513 106.74 504.188C106.531 503.858 106.247 503.602 105.887 503.42C105.531 503.235 105.122 503.142 104.66 503.142C104.198 503.142 103.785 503.235 103.421 503.42C103.062 503.602 102.778 503.858 102.569 504.188C102.365 504.513 102.264 504.888 102.268 505.312C102.264 505.741 102.367 506.123 102.575 506.46C102.787 506.794 103.073 507.057 103.433 507.25C103.796 507.443 104.206 507.54 104.66 507.54Z" fill="#24408E"/>
<path d="M120 513L128 505L136 513H120Z" fill="#00A93C"/>
<mask id="path-84-inside-28_158_1301" fill="white">
<path d="M209.333 483H418.667V534H209.333V483Z"/>
</mask>
<path d="M418.667 534V534.5H419.167V534H418.667ZM209.333 534H208.833V534.5H209.333V534ZM418.167 483V534H419.167V483H418.167ZM418.667 533.5H209.333V534.5H418.667V533.5ZM209.833 534V483H208.833V534H209.833Z" fill="#E4EAF6" mask="url(#path-84-inside-28_158_1301)"/>
<path d="M310.293 502.364V514H309.23V503.477H309.162L306.435 505.29V504.188L309.185 502.364H310.293ZM317.605 514.159C316.889 514.159 316.249 514.03 315.685 513.773C315.12 513.511 314.673 513.15 314.344 512.688C314.014 512.225 313.84 511.693 313.821 511.091H314.895C314.914 511.515 315.045 511.886 315.287 512.205C315.529 512.519 315.851 512.765 316.253 512.943C316.654 513.117 317.101 513.205 317.594 513.205C318.132 513.205 318.605 513.104 319.014 512.903C319.427 512.703 319.749 512.428 319.98 512.08C320.215 511.727 320.332 511.33 320.332 510.886C320.332 510.417 320.213 510.002 319.974 509.642C319.736 509.282 319.393 509.002 318.946 508.801C318.503 508.6 317.973 508.5 317.355 508.5H316.673V507.545H317.355C317.859 507.545 318.304 507.455 318.69 507.273C319.08 507.087 319.387 506.828 319.611 506.494C319.834 506.161 319.946 505.769 319.946 505.318C319.946 504.89 319.849 504.513 319.656 504.188C319.463 503.862 319.19 503.606 318.838 503.42C318.49 503.235 318.082 503.142 317.616 503.142C317.166 503.142 316.753 503.229 316.378 503.403C316.003 503.578 315.7 503.824 315.469 504.142C315.241 504.46 315.12 504.837 315.105 505.273H314.077C314.092 504.667 314.259 504.134 314.577 503.676C314.899 503.214 315.325 502.854 315.855 502.597C316.389 502.335 316.98 502.205 317.628 502.205C318.313 502.205 318.906 502.345 319.406 502.625C319.906 502.905 320.293 503.278 320.565 503.744C320.842 504.206 320.98 504.716 320.98 505.273C320.98 505.936 320.8 506.504 320.44 506.977C320.08 507.447 319.596 507.773 318.986 507.955V508.028C319.728 508.176 320.312 508.506 320.736 509.017C321.164 509.525 321.378 510.148 321.378 510.886C321.378 511.508 321.215 512.066 320.889 512.562C320.563 513.055 320.116 513.445 319.548 513.733C318.984 514.017 318.336 514.159 317.605 514.159Z" fill="#24408E"/>
<mask id="path-87-inside-29_158_1301" fill="white">
<path d="M418.667 483H628V534H418.667V483Z"/>
</mask>
<path d="M628 534V534.5H628.5V534H628ZM418.667 534H418.167V534.5H418.667V534ZM627.5 483V534H628.5V483H627.5ZM628 533.5H418.667V534.5H628V533.5ZM419.167 534V483H418.167V534H419.167Z" fill="#E4EAF6" mask="url(#path-87-inside-29_158_1301)"/>
<path d="M436.552 514V502.364H440.62C441.431 502.364 442.1 502.504 442.626 502.784C443.153 503.061 443.545 503.434 443.802 503.903C444.06 504.369 444.189 504.886 444.189 505.455C444.189 505.955 444.1 506.367 443.921 506.693C443.747 507.019 443.516 507.277 443.228 507.466C442.944 507.655 442.635 507.795 442.302 507.886V508C442.658 508.023 443.016 508.148 443.376 508.375C443.736 508.602 444.037 508.928 444.279 509.352C444.522 509.777 444.643 510.295 444.643 510.909C444.643 511.492 444.51 512.017 444.245 512.483C443.98 512.949 443.562 513.318 442.99 513.591C442.418 513.864 441.673 514 440.757 514H436.552ZM437.961 512.75H440.757C441.677 512.75 442.331 512.572 442.717 512.216C443.107 511.856 443.302 511.42 443.302 510.909C443.302 510.515 443.202 510.152 443.001 509.818C442.8 509.481 442.514 509.212 442.143 509.011C441.772 508.807 441.332 508.705 440.825 508.705H437.961V512.75ZM437.961 507.477H440.575C440.999 507.477 441.382 507.394 441.723 507.227C442.067 507.061 442.34 506.826 442.541 506.523C442.745 506.22 442.848 505.864 442.848 505.455C442.848 504.943 442.67 504.509 442.314 504.153C441.957 503.794 441.393 503.614 440.62 503.614H437.961V507.477ZM456.777 508.182C456.777 509.409 456.555 510.47 456.112 511.364C455.669 512.258 455.061 512.947 454.288 513.432C453.515 513.917 452.633 514.159 451.64 514.159C450.648 514.159 449.765 513.917 448.992 513.432C448.22 512.947 447.612 512.258 447.169 511.364C446.725 510.47 446.504 509.409 446.504 508.182C446.504 506.955 446.725 505.894 447.169 505C447.612 504.106 448.22 503.417 448.992 502.932C449.765 502.447 450.648 502.205 451.64 502.205C452.633 502.205 453.515 502.447 454.288 502.932C455.061 503.417 455.669 504.106 456.112 505C456.555 505.894 456.777 506.955 456.777 508.182ZM455.413 508.182C455.413 507.174 455.244 506.324 454.907 505.631C454.574 504.938 454.121 504.413 453.549 504.057C452.981 503.701 452.345 503.523 451.64 503.523C450.936 503.523 450.297 503.701 449.725 504.057C449.157 504.413 448.705 504.938 448.367 505.631C448.034 506.324 447.867 507.174 447.867 508.182C447.867 509.189 448.034 510.04 448.367 510.733C448.705 511.426 449.157 511.951 449.725 512.307C450.297 512.663 450.936 512.841 451.64 512.841C452.345 512.841 452.981 512.663 453.549 512.307C454.121 511.951 454.574 511.426 454.907 510.733C455.244 510.04 455.413 509.189 455.413 508.182ZM459.146 514V502.364H466.169V503.614H460.555V507.545H465.805V508.795H460.555V512.75H466.26V514H459.146ZM468.708 514V502.364H470.117V507.545H476.322V502.364H477.731V514H476.322V508.795H470.117V514H468.708ZM481.348 514.091C481.067 514.091 480.827 513.991 480.626 513.79C480.425 513.589 480.325 513.348 480.325 513.068C480.325 512.788 480.425 512.547 480.626 512.347C480.827 512.146 481.067 512.045 481.348 512.045C481.628 512.045 481.868 512.146 482.069 512.347C482.27 512.547 482.37 512.788 482.37 513.068C482.37 513.254 482.323 513.424 482.228 513.58C482.137 513.735 482.014 513.86 481.859 513.955C481.707 514.045 481.537 514.091 481.348 514.091ZM490.867 502.364V514H489.458V502.364H490.867ZM502.92 502.364V514H501.556L495.216 504.864H495.102V514H493.693V502.364H495.056L501.42 511.523H501.534V502.364H502.92ZM513.694 506C513.569 505.617 513.404 505.275 513.2 504.972C512.999 504.665 512.759 504.403 512.478 504.188C512.202 503.972 511.887 503.807 511.535 503.693C511.183 503.58 510.796 503.523 510.376 503.523C509.687 503.523 509.06 503.701 508.495 504.057C507.931 504.413 507.482 504.938 507.149 505.631C506.815 506.324 506.649 507.174 506.649 508.182C506.649 509.189 506.817 510.04 507.154 510.733C507.492 511.426 507.948 511.951 508.524 512.307C509.1 512.663 509.747 512.841 510.467 512.841C511.134 512.841 511.721 512.699 512.228 512.415C512.74 512.127 513.137 511.722 513.421 511.199C513.709 510.672 513.853 510.053 513.853 509.341L514.285 509.432H510.785V508.182H515.217V509.432C515.217 510.39 515.012 511.223 514.603 511.932C514.198 512.64 513.637 513.189 512.921 513.58C512.209 513.966 511.391 514.159 510.467 514.159C509.437 514.159 508.531 513.917 507.751 513.432C506.975 512.947 506.368 512.258 505.933 511.364C505.501 510.47 505.285 509.409 505.285 508.182C505.285 507.261 505.408 506.434 505.654 505.699C505.904 504.96 506.257 504.331 506.711 503.812C507.166 503.294 507.704 502.896 508.325 502.619C508.946 502.343 509.63 502.205 510.376 502.205C510.99 502.205 511.562 502.297 512.092 502.483C512.626 502.665 513.101 502.924 513.518 503.261C513.939 503.595 514.289 503.994 514.569 504.46C514.85 504.922 515.043 505.436 515.149 506H513.694ZM517.63 514V502.364H524.653V503.614H519.039V507.545H524.289V508.795H519.039V512.75H524.744V514H517.63ZM527.193 514V502.364H528.602V512.75H534.011V514H527.193ZM536.988 514.091C536.708 514.091 536.467 513.991 536.267 513.79C536.066 513.589 535.966 513.348 535.966 513.068C535.966 512.788 536.066 512.547 536.267 512.347C536.467 512.146 536.708 512.045 536.988 512.045C537.269 512.045 537.509 512.146 537.71 512.347C537.911 512.547 538.011 512.788 538.011 513.068C538.011 513.254 537.964 513.424 537.869 513.58C537.778 513.735 537.655 513.86 537.5 513.955C537.348 514.045 537.178 514.091 536.988 514.091Z" fill="#24408E"/>
<mask id="path-90-inside-30_158_1301" fill="white">
<path d="M0 534H209.333V585H0V534Z"/>
</mask>
<path d="M209.333 585V585.5H209.833V585H209.333ZM0 585H-0.5V585.5H0V585ZM208.833 534V585H209.833V534H208.833ZM209.333 584.5H0V585.5H209.333V584.5ZM0.5 585V534H-0.5V585H0.5Z" fill="#E4EAF6" mask="url(#path-90-inside-30_158_1301)"/>
<path d="M104.587 553.205C105.072 553.208 105.542 553.307 105.996 553.5C106.454 553.689 106.867 553.996 107.235 554.42C107.602 554.841 107.894 555.402 108.11 556.102C108.326 556.799 108.434 557.657 108.434 558.676C108.434 559.627 108.35 560.498 108.184 561.29C108.017 562.081 107.767 562.767 107.434 563.347C107.104 563.922 106.687 564.369 106.184 564.688C105.684 565.002 105.098 565.159 104.428 565.159C103.803 565.159 103.248 565.028 102.763 564.767C102.282 564.506 101.892 564.144 101.593 563.682C101.293 563.216 101.108 562.678 101.036 562.068H102.081C102.184 562.689 102.434 563.201 102.831 563.602C103.233 564.004 103.765 564.205 104.428 564.205C105.379 564.205 106.117 563.761 106.644 562.875C107.17 561.989 107.434 560.727 107.434 559.091H107.36C107.178 559.432 106.939 559.729 106.644 559.983C106.352 560.237 106.019 560.436 105.644 560.58C105.269 560.72 104.873 560.79 104.456 560.79C103.809 560.79 103.216 560.627 102.678 560.301C102.14 559.972 101.71 559.523 101.388 558.955C101.066 558.383 100.905 557.731 100.905 557C100.905 556.311 101.057 555.678 101.36 555.102C101.667 554.523 102.095 554.061 102.644 553.716C103.197 553.367 103.845 553.197 104.587 553.205ZM104.587 554.159C104.083 554.159 103.631 554.288 103.229 554.545C102.831 554.799 102.515 555.142 102.28 555.574C102.049 556.002 101.934 556.477 101.934 557C101.934 557.527 102.049 558.006 102.28 558.438C102.515 558.866 102.831 559.206 103.229 559.46C103.631 559.71 104.083 559.835 104.587 559.835C104.973 559.835 105.333 559.758 105.667 559.602C106 559.443 106.288 559.227 106.53 558.955C106.776 558.682 106.962 558.373 107.087 558.028C107.216 557.68 107.267 557.314 107.24 556.932C107.195 556.402 107.053 555.928 106.814 555.511C106.579 555.091 106.269 554.761 105.882 554.523C105.5 554.28 105.068 554.159 104.587 554.159Z" fill="#24408E"/>
<mask id="path-93-inside-31_158_1301" fill="white">
<path d="M209.333 534H418.667V585H209.333V534Z"/>
</mask>
<path d="M418.667 585V585.5H419.167V585H418.667ZM209.333 585H208.833V585.5H209.333V585ZM418.167 534V585H419.167V534H418.167ZM418.667 584.5H209.333V585.5H418.667V584.5ZM209.833 585V534H208.833V585H209.833Z" fill="#E4EAF6" mask="url(#path-93-inside-31_158_1301)"/>
<path d="M313.933 565.159C313.286 565.159 312.706 565.028 312.195 564.767C311.687 564.502 311.282 564.138 310.979 563.676C310.679 563.214 310.52 562.686 310.501 562.091H311.53C311.564 562.708 311.806 563.216 312.257 563.614C312.708 564.008 313.267 564.205 313.933 564.205C314.452 564.205 314.914 564.081 315.32 563.835C315.725 563.585 316.041 563.244 316.268 562.812C316.5 562.377 316.615 561.886 316.615 561.341C316.611 560.773 316.488 560.273 316.246 559.841C316.003 559.405 315.674 559.064 315.257 558.818C314.844 558.572 314.38 558.449 313.865 558.449C313.475 558.445 313.092 558.509 312.717 558.642C312.342 558.775 312.03 558.945 311.78 559.153L310.717 559.017L311.416 553.364H317.166V554.318H312.308L311.842 558.21H311.899C312.157 557.994 312.469 557.818 312.837 557.682C313.208 557.545 313.6 557.477 314.013 557.477C314.698 557.477 315.314 557.642 315.859 557.972C316.409 558.301 316.842 558.756 317.161 559.335C317.482 559.911 317.643 560.574 317.643 561.324C317.643 562.059 317.482 562.716 317.161 563.295C316.842 563.871 316.403 564.326 315.842 564.659C315.286 564.992 314.649 565.159 313.933 565.159Z" fill="#24408E"/>
<mask id="path-96-inside-32_158_1301" fill="white">
<path d="M418.667 534H628V585H418.667V534Z"/>
</mask>
<path d="M628 585V585.5H628.5V585H628ZM418.667 585H418.167V585.5H418.667V585ZM627.5 534V585H628.5V534H627.5ZM628 584.5H418.667V585.5H628V584.5ZM419.167 585V534H418.167V585H419.167Z" fill="#E4EAF6" mask="url(#path-96-inside-32_158_1301)"/>
<path d="M435.736 554.614V553.364H444.463V554.614H440.804V565H439.395V554.614H435.736ZM446.638 565V553.364H450.57C451.479 553.364 452.225 553.519 452.809 553.83C453.392 554.136 453.824 554.559 454.104 555.097C454.384 555.634 454.524 556.246 454.524 556.932C454.524 557.617 454.384 558.225 454.104 558.756C453.824 559.286 453.394 559.703 452.814 560.006C452.235 560.305 451.494 560.455 450.593 560.455H447.411V559.182H450.547C451.168 559.182 451.668 559.091 452.047 558.909C452.43 558.727 452.706 558.47 452.877 558.136C453.051 557.799 453.138 557.398 453.138 556.932C453.138 556.466 453.051 556.059 452.877 555.71C452.702 555.362 452.424 555.093 452.042 554.903C451.659 554.71 451.153 554.614 450.524 554.614H448.047V565H446.638ZM452.115 559.773L454.979 565H453.343L450.524 559.773H452.115ZM457.35 565H455.872L460.145 553.364H461.6L465.872 565H464.395L460.918 555.205H460.827L457.35 565ZM457.895 560.455H463.85V561.705H457.895V560.455ZM467.685 565V553.364H471.617C472.53 553.364 473.276 553.528 473.855 553.858C474.439 554.184 474.871 554.625 475.151 555.182C475.431 555.739 475.571 556.36 475.571 557.045C475.571 557.731 475.431 558.354 475.151 558.915C474.874 559.475 474.446 559.922 473.867 560.256C473.287 560.585 472.545 560.75 471.64 560.75H468.821V559.5H471.594C472.219 559.5 472.721 559.392 473.1 559.176C473.479 558.96 473.753 558.669 473.924 558.301C474.098 557.93 474.185 557.511 474.185 557.045C474.185 556.58 474.098 556.163 473.924 555.795C473.753 555.428 473.477 555.14 473.094 554.932C472.711 554.72 472.204 554.614 471.571 554.614H469.094V565H467.685ZM477.841 565V553.364H479.25V558.545H485.455V553.364H486.864V565H485.455V559.795H479.25V565H477.841ZM490.162 565H488.685L492.958 553.364H494.412L498.685 565H497.208L493.73 555.205H493.64L490.162 565ZM490.708 560.455H496.662V561.705H490.708V560.455ZM509.314 557H507.905C507.822 556.595 507.676 556.239 507.468 555.932C507.263 555.625 507.013 555.367 506.718 555.159C506.426 554.947 506.102 554.788 505.746 554.682C505.39 554.576 505.019 554.523 504.632 554.523C503.928 554.523 503.29 554.701 502.718 555.057C502.149 555.413 501.697 555.938 501.36 556.631C501.026 557.324 500.86 558.174 500.86 559.182C500.86 560.189 501.026 561.04 501.36 561.733C501.697 562.426 502.149 562.951 502.718 563.307C503.29 563.663 503.928 563.841 504.632 563.841C505.019 563.841 505.39 563.788 505.746 563.682C506.102 563.576 506.426 563.419 506.718 563.21C507.013 562.998 507.263 562.739 507.468 562.432C507.676 562.121 507.822 561.765 507.905 561.364H509.314C509.208 561.958 509.015 562.491 508.735 562.96C508.454 563.43 508.106 563.83 507.689 564.159C507.273 564.485 506.805 564.733 506.286 564.903C505.771 565.074 505.22 565.159 504.632 565.159C503.64 565.159 502.757 564.917 501.985 564.432C501.212 563.947 500.604 563.258 500.161 562.364C499.718 561.47 499.496 560.409 499.496 559.182C499.496 557.955 499.718 556.894 500.161 556C500.604 555.106 501.212 554.417 501.985 553.932C502.757 553.447 503.64 553.205 504.632 553.205C505.22 553.205 505.771 553.29 506.286 553.46C506.805 553.631 507.273 553.881 507.689 554.21C508.106 554.536 508.454 554.934 508.735 555.403C509.015 555.869 509.208 556.402 509.314 557ZM521.409 559.182C521.409 560.409 521.188 561.47 520.745 562.364C520.301 563.258 519.693 563.947 518.921 564.432C518.148 564.917 517.265 565.159 516.273 565.159C515.281 565.159 514.398 564.917 513.625 564.432C512.853 563.947 512.245 563.258 511.801 562.364C511.358 561.47 511.137 560.409 511.137 559.182C511.137 557.955 511.358 556.894 511.801 556C512.245 555.106 512.853 554.417 513.625 553.932C514.398 553.447 515.281 553.205 516.273 553.205C517.265 553.205 518.148 553.447 518.921 553.932C519.693 554.417 520.301 555.106 520.745 556C521.188 556.894 521.409 557.955 521.409 559.182ZM520.046 559.182C520.046 558.174 519.877 557.324 519.54 556.631C519.207 555.938 518.754 555.413 518.182 555.057C517.614 554.701 516.978 554.523 516.273 554.523C515.568 554.523 514.93 554.701 514.358 555.057C513.79 555.413 513.337 555.938 513 556.631C512.667 557.324 512.5 558.174 512.5 559.182C512.5 560.189 512.667 561.04 513 561.733C513.337 562.426 513.79 562.951 514.358 563.307C514.93 563.663 515.568 563.841 516.273 563.841C516.978 563.841 517.614 563.663 518.182 563.307C518.754 562.951 519.207 562.426 519.54 561.733C519.877 561.04 520.046 560.189 520.046 559.182Z" fill="#24408E"/>
<mask id="path-99-inside-33_158_1301" fill="white">
<path d="M0 585H209.333V636H0V585Z"/>
</mask>
<path d="M209.333 636V636.5H209.833V636H209.333ZM0 636H-0.5V636.5H0V636ZM208.833 585V636H209.833V585H208.833ZM209.333 635.5H0V636.5H209.333V635.5ZM0.5 636V585H-0.5V636H0.5Z" fill="#E4EAF6" mask="url(#path-99-inside-33_158_1301)"/>
<path d="M101.084 604.364V616H100.022V605.477H99.9534L97.2262 607.29V606.188L99.9762 604.364H101.084ZM108.232 616.159C107.414 616.159 106.715 615.924 106.135 615.455C105.559 614.981 105.116 614.297 104.806 613.403C104.499 612.509 104.345 611.436 104.345 610.182C104.345 608.932 104.499 607.862 104.806 606.972C105.116 606.078 105.561 605.394 106.141 604.92C106.724 604.443 107.421 604.205 108.232 604.205C109.042 604.205 109.738 604.443 110.317 604.92C110.9 605.394 111.345 606.078 111.652 606.972C111.963 607.862 112.118 608.932 112.118 610.182C112.118 611.436 111.963 612.509 111.652 613.403C111.345 614.297 110.902 614.981 110.323 615.455C109.747 615.924 109.05 616.159 108.232 616.159ZM108.232 615.205C109.13 615.205 109.83 614.767 110.334 613.892C110.838 613.013 111.09 611.777 111.09 610.182C111.09 609.121 110.974 608.216 110.743 607.466C110.516 606.712 110.188 606.136 109.76 605.739C109.336 605.341 108.827 605.142 108.232 605.142C107.342 605.142 106.643 605.585 106.135 606.472C105.628 607.354 105.374 608.591 105.374 610.182C105.374 611.242 105.488 612.148 105.715 612.898C105.946 613.648 106.274 614.22 106.698 614.614C107.126 615.008 107.637 615.205 108.232 615.205Z" fill="#24408E"/>
<path d="M120 615L128 607L136 615H120Z" fill="#00A93C"/>
<mask id="path-103-inside-34_158_1301" fill="white">
<path d="M209.333 585H418.667V636H209.333V585Z"/>
</mask>
<path d="M418.667 636V636.5H419.167V636H418.667ZM209.333 636H208.833V636.5H209.333V636ZM418.167 585V636H419.167V585H418.167ZM418.667 635.5H209.333V636.5H418.667V635.5ZM209.833 636V585H208.833V636H209.833Z" fill="#E4EAF6" mask="url(#path-103-inside-34_158_1301)"/>
<path d="M310.441 604.364V616H309.379V605.477H309.31L306.583 607.29V606.188L309.333 604.364H310.441ZM313.975 616V615.222L317.776 610.949C318.272 610.388 318.672 609.909 318.975 609.511C319.278 609.114 319.498 608.746 319.634 608.409C319.774 608.072 319.844 607.722 319.844 607.358C319.844 606.915 319.74 606.528 319.532 606.199C319.327 605.866 319.045 605.606 318.685 605.42C318.326 605.235 317.92 605.142 317.469 605.142C316.992 605.142 316.574 605.244 316.214 605.449C315.858 605.653 315.581 605.934 315.384 606.29C315.187 606.646 315.089 607.055 315.089 607.517H314.072C314.072 606.873 314.219 606.303 314.515 605.807C314.814 605.307 315.221 604.915 315.737 604.631C316.255 604.347 316.843 604.205 317.498 604.205C318.146 604.205 318.721 604.345 319.225 604.625C319.729 604.902 320.125 605.278 320.413 605.756C320.701 606.233 320.844 606.767 320.844 607.358C320.844 607.786 320.769 608.201 320.617 608.602C320.469 609.004 320.214 609.451 319.85 609.943C319.487 610.436 318.983 611.038 318.339 611.75L315.452 614.972V615.045H321.208V616H313.975Z" fill="#24408E"/>
<mask id="path-106-inside-35_158_1301" fill="white">
<path d="M418.667 585H628V636H418.667V585Z"/>
</mask>
<path d="M628 636V636.5H628.5V636H628ZM418.667 636H418.167V636.5H418.667V636ZM627.5 585V636H628.5V585H627.5ZM628 635.5H418.667V636.5H628V635.5ZM419.167 636V585H418.167V636H419.167Z" fill="#E4EAF6" mask="url(#path-106-inside-35_158_1301)"/>
<path d="M436.521 604.364H438.203L442.157 614.023H442.294L446.248 604.364H447.93V616H446.612V607.159H446.498L442.862 616H441.589L437.953 607.159H437.839V616H436.521V604.364ZM450.755 616V604.364H457.778V605.614H452.164V609.545H457.414V610.795H452.164V614.75H457.869V616H450.755ZM460.318 616V604.364H464.25C465.159 604.364 465.905 604.519 466.488 604.83C467.072 605.136 467.503 605.559 467.784 606.097C468.064 606.634 468.204 607.246 468.204 607.932C468.204 608.617 468.064 609.225 467.784 609.756C467.503 610.286 467.073 610.703 466.494 611.006C465.914 611.305 465.174 611.455 464.272 611.455H461.091V610.182H464.227C464.848 610.182 465.348 610.091 465.727 609.909C466.109 609.727 466.386 609.47 466.556 609.136C466.731 608.799 466.818 608.398 466.818 607.932C466.818 607.466 466.731 607.059 466.556 606.71C466.382 606.362 466.104 606.093 465.721 605.903C465.339 605.71 464.833 605.614 464.204 605.614H461.727V616H460.318ZM465.795 610.773L468.659 616H467.022L464.204 610.773H465.795ZM479.916 608H478.507C478.423 607.595 478.278 607.239 478.069 606.932C477.865 606.625 477.615 606.367 477.319 606.159C477.028 605.947 476.704 605.788 476.348 605.682C475.992 605.576 475.62 605.523 475.234 605.523C474.529 605.523 473.891 605.701 473.319 606.057C472.751 606.413 472.298 606.938 471.961 607.631C471.628 608.324 471.461 609.174 471.461 610.182C471.461 611.189 471.628 612.04 471.961 612.733C472.298 613.426 472.751 613.951 473.319 614.307C473.891 614.663 474.529 614.841 475.234 614.841C475.62 614.841 475.992 614.788 476.348 614.682C476.704 614.576 477.028 614.419 477.319 614.21C477.615 613.998 477.865 613.739 478.069 613.432C478.278 613.121 478.423 612.765 478.507 612.364H479.916C479.81 612.958 479.617 613.491 479.336 613.96C479.056 614.43 478.707 614.83 478.291 615.159C477.874 615.485 477.406 615.733 476.887 615.903C476.372 616.074 475.821 616.159 475.234 616.159C474.242 616.159 473.359 615.917 472.586 615.432C471.814 614.947 471.206 614.258 470.762 613.364C470.319 612.47 470.098 611.409 470.098 610.182C470.098 608.955 470.319 607.894 470.762 607C471.206 606.106 471.814 605.417 472.586 604.932C473.359 604.447 474.242 604.205 475.234 604.205C475.821 604.205 476.372 604.29 476.887 604.46C477.406 604.631 477.874 604.881 478.291 605.21C478.707 605.536 479.056 605.934 479.336 606.403C479.617 606.869 479.81 607.402 479.916 608ZM482.193 616V604.364H483.602V610.136H483.738L488.966 604.364H490.806L485.92 609.614L490.806 616H489.102L485.056 610.591L483.602 612.227V616H482.193Z" fill="#24408E"/>
</svg>
