<svg width="100%" viewBox="0 0 944 53" fill="none" xmlns="http://www.w3.org/2000/svg">
<path d="M2.36896 0.545454V18H0.775213V0.545454H2.36896ZM6.69425 18V4.90909H8.16868V6.92045H8.30504C8.56641 6.24432 9.00107 5.71307 9.60902 5.3267C10.2227 4.93466 10.9585 4.73864 11.8164 4.73864C12.7198 4.73864 13.4613 4.9517 14.0408 5.37784C14.6261 5.7983 15.0636 6.37784 15.3533 7.11648H15.4641C15.7596 6.3892 16.2397 5.8125 16.9045 5.38636C17.5749 4.95455 18.3874 4.73864 19.342 4.73864C20.5579 4.73864 21.5181 5.12216 22.2227 5.8892C22.9272 6.65057 23.2795 7.7642 23.2795 9.23011V18H21.7624V9.23011C21.7624 8.19602 21.4982 7.42045 20.9698 6.90341C20.4414 6.38636 19.7454 6.12784 18.8817 6.12784C17.8817 6.12784 17.1119 6.43466 16.5721 7.0483C16.0323 7.66193 15.7624 8.44034 15.7624 9.38352V18H14.2113V9.09375C14.2113 8.20739 13.9641 7.49148 13.4698 6.94602C12.9755 6.40057 12.2795 6.12784 11.3817 6.12784C10.7795 6.12784 10.2369 6.27557 9.75391 6.57102C9.27663 6.86648 8.89879 7.27841 8.62038 7.80682C8.34766 8.32955 8.21129 8.93182 8.21129 9.61364V18H6.69425ZM32.5884 18.2727C31.3668 18.2727 30.31 17.9886 29.418 17.4205C28.5259 16.8466 27.8356 16.054 27.3469 15.0426C26.864 14.0256 26.6225 12.8551 26.6225 11.5312C26.6225 10.2131 26.864 9.04261 27.3469 8.01989C27.8356 6.99148 28.5089 6.1875 29.3668 5.60795C30.2305 5.02273 31.2276 4.73011 32.3583 4.73011C33.0685 4.73011 33.7532 4.8608 34.4123 5.12216C35.0714 5.37784 35.6623 5.77273 36.185 6.30682C36.7134 6.83523 37.131 7.50284 37.4379 8.30966C37.7447 9.1108 37.8981 10.0597 37.8981 11.1562V11.9062H27.6708V10.5682H36.3469C36.3469 9.72727 36.1765 8.97159 35.8356 8.30114C35.5004 7.625 35.0316 7.09091 34.4293 6.69886C33.8327 6.30682 33.1424 6.1108 32.3583 6.1108C31.5288 6.1108 30.7987 6.33239 30.168 6.77557C29.5373 7.21875 29.043 7.80398 28.685 8.53125C28.3327 9.25852 28.1538 10.054 28.1481 10.9176V11.7188C28.1481 12.7585 28.3271 13.6676 28.685 14.446C29.0487 15.2187 29.5629 15.8182 30.2276 16.2443C30.8924 16.6705 31.6793 16.8835 32.5884 16.8835C33.2077 16.8835 33.7504 16.7869 34.2163 16.5938C34.6879 16.4006 35.0827 16.142 35.4009 15.8182C35.7248 15.4886 35.9691 15.1278 36.1339 14.7358L37.5742 15.2045C37.3754 15.7557 37.0487 16.2642 36.5941 16.7301C36.1452 17.196 35.5827 17.571 34.9066 17.8551C34.2362 18.1335 33.4634 18.2727 32.5884 18.2727ZM41.8271 4.90909L45.2021 10.4915L48.5771 4.90909H50.3413L46.131 11.4545L50.3413 18H48.5771L45.2021 12.5966L41.8271 18H40.0714L44.2305 11.4545L40.0714 4.90909H41.8271ZM53.5224 22.9091V4.90909H54.9968V7.40625H55.1758C55.3576 7.0142 55.6076 6.61364 55.9258 6.20455C56.244 5.78977 56.6644 5.44034 57.1871 5.15625C57.7156 4.87216 58.3803 4.73011 59.1815 4.73011C60.261 4.73011 61.2042 5.0142 62.011 5.58239C62.8235 6.14489 63.4542 6.93466 63.9031 7.9517C64.3576 8.96307 64.5849 10.142 64.5849 11.4886C64.5849 12.8409 64.3576 14.0256 63.9031 15.0426C63.4542 16.0597 62.8235 16.8523 62.011 17.4205C61.2042 17.9886 60.2667 18.2727 59.1985 18.2727C58.4087 18.2727 57.7468 18.1307 57.2127 17.8466C56.6843 17.5625 56.2553 17.2131 55.9258 16.7983C55.6019 16.3778 55.3519 15.9687 55.1758 15.571H55.0394V22.9091H53.5224ZM55.0224 11.4631C55.0224 12.5199 55.1786 13.4574 55.4911 14.2756C55.8093 15.0881 56.2638 15.7273 56.8548 16.1932C57.4513 16.6534 58.1729 16.8835 59.0195 16.8835C59.8888 16.8835 60.6218 16.6449 61.2184 16.1676C61.8207 15.6847 62.2781 15.0341 62.5906 14.2159C62.9087 13.3977 63.0678 12.4801 63.0678 11.4631C63.0678 10.4574 62.9116 9.55114 62.5991 8.74432C62.2923 7.9375 61.8377 7.2983 61.2354 6.8267C60.6332 6.34943 59.8945 6.1108 59.0195 6.1108C58.1673 6.1108 57.4428 6.34091 56.8462 6.80114C56.2496 7.25568 55.7951 7.88636 55.4826 8.69318C55.1758 9.49432 55.0224 10.4176 55.0224 11.4631ZM69.43 9.81818V18H67.913V0.545454H69.43V6.96307H69.5664C69.8732 6.28693 70.3477 5.74716 70.9897 5.34375C71.6374 4.94034 72.4556 4.73864 73.4442 4.73864C74.3306 4.73864 75.109 4.92045 75.7795 5.28409C76.4499 5.64773 76.9727 6.18466 77.3477 6.89489C77.7227 7.60511 77.9102 8.48011 77.9102 9.51989V18H76.3846V9.61364C76.3846 8.53409 76.0835 7.68466 75.4812 7.06534C74.8846 6.44034 74.0778 6.12784 73.0607 6.12784C72.3619 6.12784 71.7397 6.27557 71.1942 6.57102C70.6488 6.86648 70.217 7.29261 69.8988 7.84943C69.5863 8.40057 69.43 9.05682 69.43 9.81818ZM85.5614 18.2983C84.7717 18.2983 84.0501 18.1449 83.3967 17.8381C82.7433 17.5256 82.2234 17.0767 81.837 16.4915C81.4506 15.9006 81.2575 15.1847 81.2575 14.3438C81.2575 13.696 81.3796 13.1506 81.6239 12.7074C81.8683 12.2642 82.2148 11.9006 82.6637 11.6165C83.1126 11.3324 83.6438 11.108 84.2575 10.9432C84.8711 10.7784 85.5472 10.6506 86.2859 10.5597C87.0188 10.4687 87.6381 10.3892 88.1438 10.321C88.6552 10.2528 89.0444 10.1449 89.3114 9.99716C89.5785 9.84943 89.712 9.6108 89.712 9.28125V8.97443C89.712 8.08239 89.445 7.38068 88.9109 6.86932C88.3825 6.35227 87.6211 6.09375 86.6268 6.09375C85.6836 6.09375 84.9137 6.30114 84.3171 6.71591C83.7262 7.13068 83.3114 7.61932 83.0728 8.18182L81.6325 7.66193C81.9279 6.94602 82.337 6.375 82.8597 5.94886C83.3825 5.51705 83.9677 5.20739 84.6154 5.01989C85.2631 4.8267 85.9194 4.73011 86.5842 4.73011C87.0842 4.73011 87.604 4.79545 88.1438 4.92614C88.6893 5.05682 89.195 5.28409 89.6609 5.60795C90.1268 5.92614 90.5046 6.37216 90.7944 6.94602C91.0842 7.5142 91.229 8.2358 91.229 9.1108V18H89.712V15.929H89.6183C89.4364 16.3153 89.1665 16.6903 88.8086 17.054C88.4506 17.4176 88.0018 17.7159 87.462 17.9489C86.9222 18.1818 86.2887 18.2983 85.5614 18.2983ZM85.766 16.9091C86.5728 16.9091 87.2717 16.7301 87.8626 16.3722C88.4535 16.0142 88.908 15.5398 89.2262 14.9489C89.5501 14.3523 89.712 13.696 89.712 12.9801V11.0881C89.5984 11.196 89.408 11.2926 89.141 11.3778C88.8796 11.4631 88.5756 11.5398 88.229 11.608C87.8881 11.6705 87.5472 11.7244 87.2063 11.7699C86.8654 11.8153 86.5586 11.8551 86.2859 11.8892C85.5472 11.9801 84.9165 12.1222 84.3938 12.3153C83.8711 12.5085 83.4705 12.7756 83.1921 13.1165C82.9137 13.4517 82.7745 13.8835 82.7745 14.4119C82.7745 15.2074 83.0586 15.8239 83.6268 16.2614C84.195 16.6932 84.908 16.9091 85.766 16.9091ZM95.2646 18V4.90909H96.739V6.92045H96.8498C97.1112 6.26136 97.5657 5.73011 98.2134 5.3267C98.8668 4.91761 99.6055 4.71307 100.429 4.71307C100.554 4.71307 100.694 4.71591 100.847 4.72159C101 4.72727 101.128 4.73295 101.23 4.73864V6.28125C101.162 6.26989 101.043 6.25284 100.873 6.23011C100.702 6.20739 100.517 6.19602 100.319 6.19602C99.6367 6.19602 99.0288 6.34091 98.4947 6.63068C97.9663 6.91477 97.5487 7.30966 97.2418 7.81534C96.935 8.32102 96.7816 8.89773 96.7816 9.54545V18H95.2646ZM103.819 18V4.90909H105.294V6.92045H105.43C105.691 6.24432 106.126 5.71307 106.734 5.3267C107.348 4.93466 108.083 4.73864 108.941 4.73864C109.845 4.73864 110.586 4.9517 111.166 5.37784C111.751 5.7983 112.189 6.37784 112.478 7.11648H112.589C112.885 6.3892 113.365 5.8125 114.029 5.38636C114.7 4.95455 115.512 4.73864 116.467 4.73864C117.683 4.73864 118.643 5.12216 119.348 5.8892C120.052 6.65057 120.404 7.7642 120.404 9.23011V18H118.887V9.23011C118.887 8.19602 118.623 7.42045 118.095 6.90341C117.566 6.38636 116.87 6.12784 116.007 6.12784C115.007 6.12784 114.237 6.43466 113.697 7.0483C113.157 7.66193 112.887 8.44034 112.887 9.38352V18H111.336V9.09375C111.336 8.20739 111.089 7.49148 110.595 6.94602C110.1 6.40057 109.404 6.12784 108.507 6.12784C107.904 6.12784 107.362 6.27557 106.879 6.57102C106.402 6.86648 106.024 7.27841 105.745 7.80682C105.473 8.32955 105.336 8.93182 105.336 9.61364V18H103.819ZM134.077 18L130.123 4.90909H131.725L134.827 15.7074H134.938L138.032 4.90909H139.642L142.711 15.6818H142.83L145.932 4.90909H147.534L143.58 18H142.012L138.909 7.26989H138.748L135.645 18H134.077ZM154.14 18.2983C153.35 18.2983 152.628 18.1449 151.975 17.8381C151.321 17.5256 150.801 17.0767 150.415 16.4915C150.029 15.9006 149.836 15.1847 149.836 14.3438C149.836 13.696 149.958 13.1506 150.202 12.7074C150.446 12.2642 150.793 11.9006 151.242 11.6165C151.691 11.3324 152.222 11.108 152.836 10.9432C153.449 10.7784 154.125 10.6506 154.864 10.5597C155.597 10.4687 156.216 10.3892 156.722 10.321C157.233 10.2528 157.623 10.1449 157.89 9.99716C158.157 9.84943 158.29 9.6108 158.29 9.28125V8.97443C158.29 8.08239 158.023 7.38068 157.489 6.86932C156.961 6.35227 156.199 6.09375 155.205 6.09375C154.262 6.09375 153.492 6.30114 152.895 6.71591C152.304 7.13068 151.89 7.61932 151.651 8.18182L150.211 7.66193C150.506 6.94602 150.915 6.375 151.438 5.94886C151.961 5.51705 152.546 5.20739 153.194 5.01989C153.841 4.8267 154.498 4.73011 155.162 4.73011C155.662 4.73011 156.182 4.79545 156.722 4.92614C157.267 5.05682 157.773 5.28409 158.239 5.60795C158.705 5.92614 159.083 6.37216 159.373 6.94602C159.662 7.5142 159.807 8.2358 159.807 9.1108V18H158.29V15.929H158.196C158.015 16.3153 157.745 16.6903 157.387 17.054C157.029 17.4176 156.58 17.7159 156.04 17.9489C155.5 18.1818 154.867 18.2983 154.14 18.2983ZM154.344 16.9091C155.151 16.9091 155.85 16.7301 156.441 16.3722C157.032 16.0142 157.486 15.5398 157.804 14.9489C158.128 14.3523 158.29 13.696 158.29 12.9801V11.0881C158.176 11.196 157.986 11.2926 157.719 11.3778C157.458 11.4631 157.154 11.5398 156.807 11.608C156.466 11.6705 156.125 11.7244 155.784 11.7699C155.444 11.8153 155.137 11.8551 154.864 11.8892C154.125 11.9801 153.495 12.1222 152.972 12.3153C152.449 12.5085 152.049 12.7756 151.77 13.1165C151.492 13.4517 151.353 13.8835 151.353 14.4119C151.353 15.2074 151.637 15.8239 152.205 16.2614C152.773 16.6932 153.486 16.9091 154.344 16.9091ZM172.638 7.78125L171.249 8.1733C171.113 7.78125 170.919 7.42614 170.669 7.10795C170.419 6.78977 170.093 6.53693 169.689 6.34943C169.292 6.16193 168.797 6.06818 168.206 6.06818C167.32 6.06818 166.593 6.27841 166.025 6.69886C165.456 7.11932 165.172 7.66193 165.172 8.3267C165.172 8.8892 165.365 9.34659 165.752 9.69886C166.144 10.0455 166.746 10.321 167.559 10.5256L169.536 11.0114C170.632 11.2784 171.453 11.7017 171.999 12.2812C172.55 12.8608 172.826 13.5881 172.826 14.4631C172.826 15.2017 172.621 15.858 172.212 16.4318C171.803 17.0057 171.232 17.4574 170.499 17.7869C169.772 18.1108 168.928 18.2727 167.968 18.2727C166.689 18.2727 165.635 17.9858 164.806 17.4119C163.976 16.8324 163.445 15.9972 163.212 14.9062L164.669 14.5483C164.857 15.3267 165.223 15.9148 165.769 16.3125C166.32 16.7102 167.044 16.9091 167.942 16.9091C168.948 16.9091 169.752 16.6847 170.354 16.2358C170.956 15.7812 171.257 15.2131 171.257 14.5312C171.257 14.0028 171.081 13.5597 170.729 13.2017C170.377 12.8381 169.843 12.571 169.127 12.4006L166.988 11.8892C165.851 11.6165 165.01 11.1847 164.465 10.5938C163.919 10.0028 163.647 9.26989 163.647 8.39489C163.647 7.6733 163.843 7.03977 164.235 6.49432C164.627 5.94318 165.167 5.51136 165.854 5.19886C166.542 4.88636 167.326 4.73011 168.206 4.73011C169.405 4.73011 170.363 5.00284 171.078 5.54829C171.8 6.08807 172.32 6.83239 172.638 7.78125ZM186.554 18.2983C185.764 18.2983 185.042 18.1449 184.389 17.8381C183.735 17.5256 183.216 17.0767 182.829 16.4915C182.443 15.9006 182.25 15.1847 182.25 14.3438C182.25 13.696 182.372 13.1506 182.616 12.7074C182.86 12.2642 183.207 11.9006 183.656 11.6165C184.105 11.3324 184.636 11.108 185.25 10.9432C185.863 10.7784 186.539 10.6506 187.278 10.5597C188.011 10.4687 188.63 10.3892 189.136 10.321C189.647 10.2528 190.037 10.1449 190.304 9.99716C190.571 9.84943 190.704 9.6108 190.704 9.28125V8.97443C190.704 8.08239 190.437 7.38068 189.903 6.86932C189.375 6.35227 188.613 6.09375 187.619 6.09375C186.676 6.09375 185.906 6.30114 185.309 6.71591C184.718 7.13068 184.304 7.61932 184.065 8.18182L182.625 7.66193C182.92 6.94602 183.329 6.375 183.852 5.94886C184.375 5.51705 184.96 5.20739 185.608 5.01989C186.255 4.8267 186.912 4.73011 187.576 4.73011C188.076 4.73011 188.596 4.79545 189.136 4.92614C189.681 5.05682 190.187 5.28409 190.653 5.60795C191.119 5.92614 191.497 6.37216 191.787 6.94602C192.076 7.5142 192.221 8.2358 192.221 9.1108V18H190.704V15.929H190.61C190.429 16.3153 190.159 16.6903 189.801 17.054C189.443 17.4176 188.994 17.7159 188.454 17.9489C187.914 18.1818 187.281 18.2983 186.554 18.2983ZM186.758 16.9091C187.565 16.9091 188.264 16.7301 188.855 16.3722C189.446 16.0142 189.9 15.5398 190.218 14.9489C190.542 14.3523 190.704 13.696 190.704 12.9801V11.0881C190.591 11.196 190.4 11.2926 190.133 11.3778C189.872 11.4631 189.568 11.5398 189.221 11.608C188.88 11.6705 188.539 11.7244 188.199 11.7699C187.858 11.8153 187.551 11.8551 187.278 11.8892C186.539 11.9801 185.909 12.1222 185.386 12.3153C184.863 12.5085 184.463 12.7756 184.184 13.1165C183.906 13.4517 183.767 13.8835 183.767 14.4119C183.767 15.2074 184.051 15.8239 184.619 16.2614C185.187 16.6932 185.9 16.9091 186.758 16.9091ZM197.774 0.545454V18H196.257V0.545454H197.774ZM210.583 7.78125L209.194 8.1733C209.058 7.78125 208.865 7.42614 208.615 7.10795C208.365 6.78977 208.038 6.53693 207.635 6.34943C207.237 6.16193 206.743 6.06818 206.152 6.06818C205.265 6.06818 204.538 6.27841 203.97 6.69886C203.402 7.11932 203.118 7.66193 203.118 8.3267C203.118 8.8892 203.311 9.34659 203.697 9.69886C204.089 10.0455 204.691 10.321 205.504 10.5256L207.481 11.0114C208.578 11.2784 209.399 11.7017 209.944 12.2812C210.495 12.8608 210.771 13.5881 210.771 14.4631C210.771 15.2017 210.566 15.858 210.157 16.4318C209.748 17.0057 209.177 17.4574 208.444 17.7869C207.717 18.1108 206.873 18.2727 205.913 18.2727C204.635 18.2727 203.581 17.9858 202.751 17.4119C201.922 16.8324 201.39 15.9972 201.157 14.9062L202.615 14.5483C202.802 15.3267 203.169 15.9148 203.714 16.3125C204.265 16.7102 204.99 16.9091 205.887 16.9091C206.893 16.9091 207.697 16.6847 208.299 16.2358C208.902 15.7812 209.203 15.2131 209.203 14.5312C209.203 14.0028 209.027 13.5597 208.674 13.2017C208.322 12.8381 207.788 12.571 207.072 12.4006L204.933 11.8892C203.797 11.6165 202.956 11.1847 202.41 10.5938C201.865 10.0028 201.592 9.26989 201.592 8.39489C201.592 7.6733 201.788 7.03977 202.18 6.49432C202.572 5.94318 203.112 5.51136 203.799 5.19886C204.487 4.88636 205.271 4.73011 206.152 4.73011C207.35 4.73011 208.308 5.00284 209.024 5.54829C209.745 6.08807 210.265 6.83239 210.583 7.78125ZM219.181 18.2727C218.05 18.2727 217.05 17.9858 216.181 17.4119C215.317 16.8381 214.641 16.0455 214.152 15.0341C213.664 14.017 213.419 12.8437 213.419 11.5142C213.419 10.1733 213.664 8.99432 214.152 7.97727C214.641 6.95455 215.317 6.15909 216.181 5.59091C217.05 5.01705 218.05 4.73011 219.181 4.73011C220.311 4.73011 221.309 5.01705 222.172 5.59091C223.036 6.16477 223.712 6.96023 224.201 7.97727C224.695 8.99432 224.942 10.1733 224.942 11.5142C224.942 12.8437 224.698 14.017 224.209 15.0341C223.721 16.0455 223.042 16.8381 222.172 17.4119C221.309 17.9858 220.311 18.2727 219.181 18.2727ZM219.181 16.8835C220.09 16.8835 220.86 16.6392 221.49 16.1506C222.121 15.6619 222.598 15.0114 222.922 14.1989C223.252 13.3864 223.417 12.4915 223.417 11.5142C223.417 10.5369 223.252 9.6392 222.922 8.82102C222.598 8.00284 222.121 7.34659 221.49 6.85227C220.86 6.35795 220.09 6.1108 219.181 6.1108C218.277 6.1108 217.507 6.35795 216.871 6.85227C216.24 7.34659 215.76 8.00284 215.431 8.82102C215.107 9.6392 214.945 10.5369 214.945 11.5142C214.945 12.4915 215.107 13.3864 215.431 14.1989C215.76 15.0114 216.24 15.6619 216.871 16.1506C217.502 16.6392 218.272 16.8835 219.181 16.8835ZM240.179 4.90909V6.23011H233.931V4.90909H240.179ZM235.883 1.77273H237.409V14.5824C237.409 15.1278 237.502 15.5568 237.69 15.8693C237.877 16.1761 238.122 16.3949 238.423 16.5256C238.724 16.6506 239.045 16.7131 239.386 16.7131C239.585 16.7131 239.755 16.7017 239.897 16.679C240.039 16.6506 240.164 16.6222 240.272 16.5938L240.596 17.9659C240.449 18.0227 240.267 18.0739 240.051 18.1193C239.835 18.1705 239.568 18.196 239.25 18.196C238.693 18.196 238.156 18.0739 237.639 17.8295C237.127 17.5852 236.707 17.2216 236.377 16.7386C236.048 16.2557 235.883 15.6562 235.883 14.9403V1.77273ZM245.422 9.81818V18H243.905V0.545454H245.422V6.96307H245.559C245.865 6.28693 246.34 5.74716 246.982 5.34375C247.63 4.94034 248.448 4.73864 249.436 4.73864C250.323 4.73864 251.101 4.92045 251.772 5.28409C252.442 5.64773 252.965 6.18466 253.34 6.89489C253.715 7.60511 253.902 8.48011 253.902 9.51989V18H252.377V9.61364C252.377 8.53409 252.076 7.68466 251.473 7.06534C250.877 6.44034 250.07 6.12784 249.053 6.12784C248.354 6.12784 247.732 6.27557 247.186 6.57102C246.641 6.86648 246.209 7.29261 245.891 7.84943C245.578 8.40057 245.422 9.05682 245.422 9.81818ZM263.19 18.2727C261.968 18.2727 260.912 17.9886 260.02 17.4205C259.127 16.8466 258.437 16.054 257.949 15.0426C257.466 14.0256 257.224 12.8551 257.224 11.5312C257.224 10.2131 257.466 9.04261 257.949 8.01989C258.437 6.99148 259.11 6.1875 259.968 5.60795C260.832 5.02273 261.829 4.73011 262.96 4.73011C263.67 4.73011 264.355 4.8608 265.014 5.12216C265.673 5.37784 266.264 5.77273 266.787 6.30682C267.315 6.83523 267.733 7.50284 268.039 8.30966C268.346 9.1108 268.5 10.0597 268.5 11.1562V11.9062H258.272V10.5682H266.949C266.949 9.72727 266.778 8.97159 266.437 8.30114C266.102 7.625 265.633 7.09091 265.031 6.69886C264.434 6.30682 263.744 6.1108 262.96 6.1108C262.13 6.1108 261.4 6.33239 260.77 6.77557C260.139 7.21875 259.645 7.80398 259.287 8.53125C258.934 9.25852 258.755 10.054 258.75 10.9176V11.7188C258.75 12.7585 258.929 13.6676 259.287 14.446C259.65 15.2187 260.164 15.8182 260.829 16.2443C261.494 16.6705 262.281 16.8835 263.19 16.8835C263.809 16.8835 264.352 16.7869 264.818 16.5938C265.289 16.4006 265.684 16.142 266.002 15.8182C266.326 15.4886 266.571 15.1278 266.735 14.7358L268.176 15.2045C267.977 15.7557 267.65 16.2642 267.196 16.7301C266.747 17.196 266.184 17.571 265.508 17.8551C264.838 18.1335 264.065 18.2727 263.19 18.2727ZM278.593 18V4.90909H280.067V6.92045H280.203C280.465 6.24432 280.9 5.71307 281.507 5.3267C282.121 4.93466 282.857 4.73864 283.715 4.73864C284.618 4.73864 285.36 4.9517 285.939 5.37784C286.525 5.7983 286.962 6.37784 287.252 7.11648H287.363C287.658 6.3892 288.138 5.8125 288.803 5.38636C289.473 4.95455 290.286 4.73864 291.24 4.73864C292.456 4.73864 293.417 5.12216 294.121 5.8892C294.826 6.65057 295.178 7.7642 295.178 9.23011V18H293.661V9.23011C293.661 8.19602 293.397 7.42045 292.868 6.90341C292.34 6.38636 291.644 6.12784 290.78 6.12784C289.78 6.12784 289.01 6.43466 288.471 7.0483C287.931 7.66193 287.661 8.44034 287.661 9.38352V18H286.11V9.09375C286.11 8.20739 285.863 7.49148 285.368 6.94602C284.874 6.40057 284.178 6.12784 283.28 6.12784C282.678 6.12784 282.135 6.27557 281.652 6.57102C281.175 6.86648 280.797 7.27841 280.519 7.80682C280.246 8.32955 280.11 8.93182 280.11 9.61364V18H278.593ZM302.85 18.2983C302.061 18.2983 301.339 18.1449 300.686 17.8381C300.032 17.5256 299.512 17.0767 299.126 16.4915C298.74 15.9006 298.547 15.1847 298.547 14.3438C298.547 13.696 298.669 13.1506 298.913 12.7074C299.157 12.2642 299.504 11.9006 299.953 11.6165C300.402 11.3324 300.933 11.108 301.547 10.9432C302.16 10.7784 302.836 10.6506 303.575 10.5597C304.308 10.4687 304.927 10.3892 305.433 10.321C305.944 10.2528 306.333 10.1449 306.6 9.99716C306.868 9.84943 307.001 9.6108 307.001 9.28125V8.97443C307.001 8.08239 306.734 7.38068 306.2 6.86932C305.672 6.35227 304.91 6.09375 303.916 6.09375C302.973 6.09375 302.203 6.30114 301.606 6.71591C301.015 7.13068 300.6 7.61932 300.362 8.18182L298.922 7.66193C299.217 6.94602 299.626 6.375 300.149 5.94886C300.672 5.51705 301.257 5.20739 301.904 5.01989C302.552 4.8267 303.208 4.73011 303.873 4.73011C304.373 4.73011 304.893 4.79545 305.433 4.92614C305.978 5.05682 306.484 5.28409 306.95 5.60795C307.416 5.92614 307.794 6.37216 308.083 6.94602C308.373 7.5142 308.518 8.2358 308.518 9.1108V18H307.001V15.929H306.907C306.725 16.3153 306.456 16.6903 306.098 17.054C305.74 17.4176 305.291 17.7159 304.751 17.9489C304.211 18.1818 303.578 18.2983 302.85 18.2983ZM303.055 16.9091C303.862 16.9091 304.561 16.7301 305.152 16.3722C305.743 16.0142 306.197 15.5398 306.515 14.9489C306.839 14.3523 307.001 13.696 307.001 12.9801V11.0881C306.887 11.196 306.697 11.2926 306.43 11.3778C306.169 11.4631 305.865 11.5398 305.518 11.608C305.177 11.6705 304.836 11.7244 304.495 11.7699C304.154 11.8153 303.848 11.8551 303.575 11.8892C302.836 11.9801 302.206 12.1222 301.683 12.3153C301.16 12.5085 300.76 12.7756 300.481 13.1165C300.203 13.4517 300.064 13.8835 300.064 14.4119C300.064 15.2074 300.348 15.8239 300.916 16.2614C301.484 16.6932 302.197 16.9091 303.055 16.9091ZM312.554 18V4.90909H314.028V6.92045H314.139C314.4 6.26136 314.855 5.73011 315.502 5.3267C316.156 4.91761 316.895 4.71307 317.718 4.71307C317.843 4.71307 317.983 4.71591 318.136 4.72159C318.289 4.72727 318.417 4.73295 318.52 4.73864V6.28125C318.451 6.26989 318.332 6.25284 318.162 6.23011C317.991 6.20739 317.806 6.19602 317.608 6.19602C316.926 6.19602 316.318 6.34091 315.784 6.63068C315.255 6.91477 314.838 7.30966 314.531 7.81534C314.224 8.32102 314.071 8.89773 314.071 9.54545V18H312.554ZM322.489 13.0568L322.472 11.071H322.813L328.949 4.90909H330.867L324.807 10.9773L324.671 11.0028L322.489 13.0568ZM321.108 18V0.545454H322.625V18H321.108ZM329.265 18L323.946 11.2756L325.037 10.2273L331.208 18H329.265ZM338.471 18.2727C337.25 18.2727 336.193 17.9886 335.301 17.4205C334.409 16.8466 333.718 16.054 333.23 15.0426C332.747 14.0256 332.505 12.8551 332.505 11.5312C332.505 10.2131 332.747 9.04261 333.23 8.01989C333.718 6.99148 334.392 6.1875 335.25 5.60795C336.113 5.02273 337.11 4.73011 338.241 4.73011C338.951 4.73011 339.636 4.8608 340.295 5.12216C340.954 5.37784 341.545 5.77273 342.068 6.30682C342.596 6.83523 343.014 7.50284 343.321 8.30966C343.627 9.1108 343.781 10.0597 343.781 11.1562V11.9062H333.554V10.5682H342.23C342.23 9.72727 342.059 8.97159 341.718 8.30114C341.383 7.625 340.914 7.09091 340.312 6.69886C339.716 6.30682 339.025 6.1108 338.241 6.1108C337.412 6.1108 336.681 6.33239 336.051 6.77557C335.42 7.21875 334.926 7.80398 334.568 8.53125C334.216 9.25852 334.037 10.054 334.031 10.9176V11.7188C334.031 12.7585 334.21 13.6676 334.568 14.446C334.931 15.2187 335.446 15.8182 336.11 16.2443C336.775 16.6705 337.562 16.8835 338.471 16.8835C339.091 16.8835 339.633 16.7869 340.099 16.5938C340.571 16.4006 340.966 16.142 341.284 15.8182C341.608 15.4886 341.852 15.1278 342.017 14.7358L343.457 15.2045C343.258 15.7557 342.931 16.2642 342.477 16.7301C342.028 17.196 341.466 17.571 340.789 17.8551C340.119 18.1335 339.346 18.2727 338.471 18.2727ZM352.28 4.90909V6.23011H346.033V4.90909H352.28ZM347.985 1.77273H349.51V14.5824C349.51 15.1278 349.604 15.5568 349.792 15.8693C349.979 16.1761 350.223 16.3949 350.525 16.5256C350.826 16.6506 351.147 16.7131 351.488 16.7131C351.686 16.7131 351.857 16.7017 351.999 16.679C352.141 16.6506 352.266 16.6222 352.374 16.5938L352.698 17.9659C352.55 18.0227 352.368 18.0739 352.152 18.1193C351.936 18.1705 351.669 18.196 351.351 18.196C350.794 18.196 350.257 18.0739 349.74 17.8295C349.229 17.5852 348.809 17.2216 348.479 16.7386C348.15 16.2557 347.985 15.6562 347.985 14.9403V1.77273ZM363.993 0.545454V18H362.475V0.545454H363.993ZM373.299 18.2727C372.078 18.2727 371.021 17.9886 370.129 17.4205C369.237 16.8466 368.547 16.054 368.058 15.0426C367.575 14.0256 367.333 12.8551 367.333 11.5312C367.333 10.2131 367.575 9.04261 368.058 8.01989C368.547 6.99148 369.22 6.1875 370.078 5.60795C370.941 5.02273 371.939 4.73011 373.069 4.73011C373.779 4.73011 374.464 4.8608 375.123 5.12216C375.782 5.37784 376.373 5.77273 376.896 6.30682C377.424 6.83523 377.842 7.50284 378.149 8.30966C378.456 9.1108 378.609 10.0597 378.609 11.1562V11.9062H368.382V10.5682H377.058C377.058 9.72727 376.887 8.97159 376.547 8.30114C376.211 7.625 375.743 7.09091 375.14 6.69886C374.544 6.30682 373.853 6.1108 373.069 6.1108C372.24 6.1108 371.51 6.33239 370.879 6.77557C370.248 7.21875 369.754 7.80398 369.396 8.53125C369.044 9.25852 368.865 10.054 368.859 10.9176V11.7188C368.859 12.7585 369.038 13.6676 369.396 14.446C369.76 15.2187 370.274 15.8182 370.939 16.2443C371.603 16.6705 372.39 16.8835 373.299 16.8835C373.919 16.8835 374.461 16.7869 374.927 16.5938C375.399 16.4006 375.794 16.142 376.112 15.8182C376.436 15.4886 376.68 15.1278 376.845 14.7358L378.285 15.2045C378.086 15.7557 377.76 16.2642 377.305 16.7301C376.856 17.196 376.294 17.571 375.618 17.8551C374.947 18.1335 374.174 18.2727 373.299 18.2727ZM385.608 18.2983C384.819 18.2983 384.097 18.1449 383.444 17.8381C382.79 17.5256 382.27 17.0767 381.884 16.4915C381.498 15.9006 381.304 15.1847 381.304 14.3438C381.304 13.696 381.426 13.1506 381.671 12.7074C381.915 12.2642 382.262 11.9006 382.711 11.6165C383.159 11.3324 383.691 11.108 384.304 10.9432C384.918 10.7784 385.594 10.6506 386.333 10.5597C387.066 10.4687 387.685 10.3892 388.191 10.321C388.702 10.2528 389.091 10.1449 389.358 9.99716C389.625 9.84943 389.759 9.6108 389.759 9.28125V8.97443C389.759 8.08239 389.492 7.38068 388.958 6.86932C388.429 6.35227 387.668 6.09375 386.674 6.09375C385.73 6.09375 384.961 6.30114 384.364 6.71591C383.773 7.13068 383.358 7.61932 383.12 8.18182L381.679 7.66193C381.975 6.94602 382.384 6.375 382.907 5.94886C383.429 5.51705 384.015 5.20739 384.662 5.01989C385.31 4.8267 385.966 4.73011 386.631 4.73011C387.131 4.73011 387.651 4.79545 388.191 4.92614C388.736 5.05682 389.242 5.28409 389.708 5.60795C390.174 5.92614 390.551 6.37216 390.841 6.94602C391.131 7.5142 391.276 8.2358 391.276 9.1108V18H389.759V15.929H389.665C389.483 16.3153 389.213 16.6903 388.855 17.054C388.498 17.4176 388.049 17.7159 387.509 17.9489C386.969 18.1818 386.336 18.2983 385.608 18.2983ZM385.813 16.9091C386.62 16.9091 387.319 16.7301 387.909 16.3722C388.5 16.0142 388.955 15.5398 389.273 14.9489C389.597 14.3523 389.759 13.696 389.759 12.9801V11.0881C389.645 11.196 389.455 11.2926 389.188 11.3778C388.926 11.4631 388.623 11.5398 388.276 11.608C387.935 11.6705 387.594 11.7244 387.253 11.7699C386.912 11.8153 386.605 11.8551 386.333 11.8892C385.594 11.9801 384.963 12.1222 384.441 12.3153C383.918 12.5085 383.517 12.7756 383.239 13.1165C382.961 13.4517 382.821 13.8835 382.821 14.4119C382.821 15.2074 383.105 15.8239 383.674 16.2614C384.242 16.6932 384.955 16.9091 385.813 16.9091ZM400.025 18.2727C398.951 18.2727 398.01 17.9886 397.203 17.4205C396.397 16.8523 395.766 16.0597 395.311 15.0426C394.863 14.0256 394.638 12.8409 394.638 11.4886C394.638 10.142 394.863 8.96307 395.311 7.9517C395.766 6.93466 396.4 6.14489 397.212 5.58239C398.025 5.0142 398.971 4.73011 400.05 4.73011C400.846 4.73011 401.507 4.87216 402.036 5.15625C402.564 5.43466 402.988 5.78125 403.306 6.19602C403.624 6.6108 403.871 7.0142 404.047 7.40625H404.184V0.545454H405.709V18H404.226V15.571H404.047C403.871 15.9687 403.621 16.3778 403.297 16.7983C402.973 17.2131 402.544 17.5625 402.01 17.8466C401.482 18.1307 400.82 18.2727 400.025 18.2727ZM400.203 16.8835C401.05 16.8835 401.772 16.6534 402.368 16.1932C402.965 15.7273 403.419 15.0881 403.732 14.2756C404.05 13.4574 404.209 12.5199 404.209 11.4631C404.209 10.4176 404.053 9.49432 403.74 8.69318C403.428 7.88636 402.973 7.25568 402.377 6.80114C401.78 6.34091 401.056 6.1108 400.203 6.1108C399.328 6.1108 398.59 6.34943 397.988 6.8267C397.391 7.2983 396.936 7.9375 396.624 8.74432C396.317 9.55114 396.164 10.4574 396.164 11.4631C396.164 12.4801 396.32 13.3977 396.632 14.2159C396.945 15.0341 397.4 15.6847 397.996 16.1676C398.598 16.6449 399.334 16.8835 400.203 16.8835ZM415.323 18.2727C414.101 18.2727 413.044 17.9886 412.152 17.4205C411.26 16.8466 410.57 16.054 410.081 15.0426C409.598 14.0256 409.357 12.8551 409.357 11.5312C409.357 10.2131 409.598 9.04261 410.081 8.01989C410.57 6.99148 411.243 6.1875 412.101 5.60795C412.965 5.02273 413.962 4.73011 415.093 4.73011C415.803 4.73011 416.488 4.8608 417.147 5.12216C417.806 5.37784 418.397 5.77273 418.919 6.30682C419.448 6.83523 419.865 7.50284 420.172 8.30966C420.479 9.1108 420.632 10.0597 420.632 11.1562V11.9062H410.405V10.5682H419.081C419.081 9.72727 418.911 8.97159 418.57 8.30114C418.235 7.625 417.766 7.09091 417.164 6.69886C416.567 6.30682 415.877 6.1108 415.093 6.1108C414.263 6.1108 413.533 6.33239 412.902 6.77557C412.272 7.21875 411.777 7.80398 411.419 8.53125C411.067 9.25852 410.888 10.054 410.882 10.9176V11.7188C410.882 12.7585 411.061 13.6676 411.419 14.446C411.783 15.2187 412.297 15.8182 412.962 16.2443C413.627 16.6705 414.414 16.8835 415.323 16.8835C415.942 16.8835 416.485 16.7869 416.951 16.5938C417.422 16.4006 417.817 16.142 418.135 15.8182C418.459 15.4886 418.703 15.1278 418.868 14.7358L420.309 15.2045C420.11 15.7557 419.783 16.2642 419.328 16.7301C418.88 17.196 418.317 17.571 417.641 17.8551C416.971 18.1335 416.198 18.2727 415.323 18.2727ZM423.975 18V4.90909H425.45V6.92045H425.561C425.822 6.26136 426.277 5.73011 426.924 5.3267C427.578 4.91761 428.316 4.71307 429.14 4.71307C429.265 4.71307 429.404 4.71591 429.558 4.72159C429.711 4.72727 429.839 4.73295 429.941 4.73864V6.28125C429.873 6.26989 429.754 6.25284 429.583 6.23011C429.413 6.20739 429.228 6.19602 429.029 6.19602C428.348 6.19602 427.74 6.34091 427.206 6.63068C426.677 6.91477 426.26 7.30966 425.953 7.81534C425.646 8.32102 425.493 8.89773 425.493 9.54545V18H423.975ZM439.297 18V4.90909H440.823V18H439.297ZM440.073 2.65909C439.76 2.65909 439.493 2.55398 439.272 2.34375C439.05 2.12784 438.939 1.86932 438.939 1.56818C438.939 1.26705 439.05 1.01136 439.272 0.801136C439.493 0.585227 439.76 0.477272 440.073 0.477272C440.385 0.477272 440.652 0.585227 440.874 0.801136C441.096 1.01136 441.206 1.26705 441.206 1.56818C441.206 1.86932 441.096 2.12784 440.874 2.34375C440.652 2.55398 440.385 2.65909 440.073 2.65909ZM446.352 9.81818V18H444.835V4.90909H446.309V6.96307H446.446C446.752 6.29261 447.23 5.75568 447.877 5.35227C448.531 4.94318 449.338 4.73864 450.298 4.73864C451.179 4.73864 451.951 4.9233 452.616 5.29261C453.287 5.65625 453.806 6.19318 454.176 6.90341C454.551 7.61364 454.738 8.4858 454.738 9.51989V18H453.221V9.61364C453.221 8.53977 452.92 7.69034 452.318 7.06534C451.721 6.44034 450.92 6.12784 449.914 6.12784C449.227 6.12784 448.616 6.27557 448.082 6.57102C447.548 6.86648 447.125 7.29261 446.812 7.84943C446.505 8.40057 446.352 9.05682 446.352 9.81818ZM470.64 4.90909V6.23011H464.392V4.90909H470.64ZM466.344 1.77273H467.87V14.5824C467.87 15.1278 467.963 15.5568 468.151 15.8693C468.338 16.1761 468.583 16.3949 468.884 16.5256C469.185 16.6506 469.506 16.7131 469.847 16.7131C470.046 16.7131 470.216 16.7017 470.358 16.679C470.5 16.6506 470.625 16.6222 470.733 16.5938L471.057 17.9659C470.909 18.0227 470.728 18.0739 470.512 18.1193C470.296 18.1705 470.029 18.196 469.711 18.196C469.154 18.196 468.617 18.0739 468.1 17.8295C467.588 17.5852 467.168 17.2216 466.838 16.7386C466.509 16.2557 466.344 15.6562 466.344 14.9403V1.77273ZM475.883 9.81818V18H474.366V0.545454H475.883V6.96307H476.02C476.326 6.28693 476.801 5.74716 477.443 5.34375C478.091 4.94034 478.909 4.73864 479.897 4.73864C480.784 4.73864 481.562 4.92045 482.233 5.28409C482.903 5.64773 483.426 6.18466 483.801 6.89489C484.176 7.60511 484.363 8.48011 484.363 9.51989V18H482.838V9.61364C482.838 8.53409 482.537 7.68466 481.934 7.06534C481.338 6.44034 480.531 6.12784 479.514 6.12784C478.815 6.12784 478.193 6.27557 477.647 6.57102C477.102 6.86648 476.67 7.29261 476.352 7.84943C476.039 8.40057 475.883 9.05682 475.883 9.81818ZM493.651 18.2727C492.429 18.2727 491.373 17.9886 490.48 17.4205C489.588 16.8466 488.898 16.054 488.409 15.0426C487.926 14.0256 487.685 12.8551 487.685 11.5312C487.685 10.2131 487.926 9.04261 488.409 8.01989C488.898 6.99148 489.571 6.1875 490.429 5.60795C491.293 5.02273 492.29 4.73011 493.421 4.73011C494.131 4.73011 494.816 4.8608 495.475 5.12216C496.134 5.37784 496.725 5.77273 497.248 6.30682C497.776 6.83523 498.194 7.50284 498.5 8.30966C498.807 9.1108 498.961 10.0597 498.961 11.1562V11.9062H488.733V10.5682H497.409C497.409 9.72727 497.239 8.97159 496.898 8.30114C496.563 7.625 496.094 7.09091 495.492 6.69886C494.895 6.30682 494.205 6.1108 493.421 6.1108C492.591 6.1108 491.861 6.33239 491.23 6.77557C490.6 7.21875 490.105 7.80398 489.748 8.53125C489.395 9.25852 489.216 10.054 489.211 10.9176V11.7188C489.211 12.7585 489.39 13.6676 489.748 14.446C490.111 15.2187 490.625 15.8182 491.29 16.2443C491.955 16.6705 492.742 16.8835 493.651 16.8835C494.27 16.8835 494.813 16.7869 495.279 16.5938C495.75 16.4006 496.145 16.142 496.463 15.8182C496.787 15.4886 497.032 15.1278 497.196 14.7358L498.637 15.2045C498.438 15.7557 498.111 16.2642 497.657 16.7301C497.208 17.196 496.645 17.571 495.969 17.8551C495.299 18.1335 494.526 18.2727 493.651 18.2727ZM509.054 18V4.90909H510.528V6.92045H510.639C510.9 6.26136 511.355 5.73011 512.002 5.3267C512.656 4.91761 513.395 4.71307 514.218 4.71307C514.343 4.71307 514.483 4.71591 514.636 4.72159C514.789 4.72727 514.917 4.73295 515.02 4.73864V6.28125C514.951 6.26989 514.832 6.25284 514.662 6.23011C514.491 6.20739 514.306 6.19602 514.108 6.19602C513.426 6.19602 512.818 6.34091 512.284 6.63068C511.755 6.91477 511.338 7.30966 511.031 7.81534C510.724 8.32102 510.571 8.89773 510.571 9.54545V18H509.054ZM521.265 18.2983C520.475 18.2983 519.753 18.1449 519.1 17.8381C518.446 17.5256 517.926 17.0767 517.54 16.4915C517.154 15.9006 516.961 15.1847 516.961 14.3438C516.961 13.696 517.083 13.1506 517.327 12.7074C517.571 12.2642 517.918 11.9006 518.367 11.6165C518.816 11.3324 519.347 11.108 519.961 10.9432C520.574 10.7784 521.25 10.6506 521.989 10.5597C522.722 10.4687 523.341 10.3892 523.847 10.321C524.358 10.2528 524.748 10.1449 525.015 9.99716C525.282 9.84943 525.415 9.6108 525.415 9.28125V8.97443C525.415 8.08239 525.148 7.38068 524.614 6.86932C524.086 6.35227 523.324 6.09375 522.33 6.09375C521.387 6.09375 520.617 6.30114 520.02 6.71591C519.429 7.13068 519.015 7.61932 518.776 8.18182L517.336 7.66193C517.631 6.94602 518.04 6.375 518.563 5.94886C519.086 5.51705 519.671 5.20739 520.319 5.01989C520.966 4.8267 521.623 4.73011 522.287 4.73011C522.787 4.73011 523.307 4.79545 523.847 4.92614C524.392 5.05682 524.898 5.28409 525.364 5.60795C525.83 5.92614 526.208 6.37216 526.498 6.94602C526.787 7.5142 526.932 8.2358 526.932 9.1108V18H525.415V15.929H525.321C525.14 16.3153 524.87 16.6903 524.512 17.054C524.154 17.4176 523.705 17.7159 523.165 17.9489C522.625 18.1818 521.992 18.2983 521.265 18.2983ZM521.469 16.9091C522.276 16.9091 522.975 16.7301 523.566 16.3722C524.157 16.0142 524.611 15.5398 524.929 14.9489C525.253 14.3523 525.415 13.696 525.415 12.9801V11.0881C525.301 11.196 525.111 11.2926 524.844 11.3778C524.583 11.4631 524.279 11.5398 523.932 11.608C523.591 11.6705 523.25 11.7244 522.909 11.7699C522.569 11.8153 522.262 11.8551 521.989 11.8892C521.25 11.9801 520.62 12.1222 520.097 12.3153C519.574 12.5085 519.174 12.7756 518.895 13.1165C518.617 13.4517 518.478 13.8835 518.478 14.4119C518.478 15.2074 518.762 15.8239 519.33 16.2614C519.898 16.6932 520.611 16.9091 521.469 16.9091ZM530.968 22.9091V4.90909H532.442V7.40625H532.621C532.803 7.0142 533.053 6.61364 533.371 6.20455C533.689 5.78977 534.11 5.44034 534.632 5.15625C535.161 4.87216 535.826 4.73011 536.627 4.73011C537.706 4.73011 538.65 5.0142 539.456 5.58239C540.269 6.14489 540.9 6.93466 541.348 7.9517C541.803 8.96307 542.03 10.142 542.03 11.4886C542.03 12.8409 541.803 14.0256 541.348 15.0426C540.9 16.0597 540.269 16.8523 539.456 17.4205C538.65 17.9886 537.712 18.2727 536.644 18.2727C535.854 18.2727 535.192 18.1307 534.658 17.8466C534.13 17.5625 533.701 17.2131 533.371 16.7983C533.047 16.3778 532.797 15.9687 532.621 15.571H532.485V22.9091H530.968ZM532.468 11.4631C532.468 12.5199 532.624 13.4574 532.936 14.2756C533.255 15.0881 533.709 15.7273 534.3 16.1932C534.897 16.6534 535.618 16.8835 536.465 16.8835C537.334 16.8835 538.067 16.6449 538.664 16.1676C539.266 15.6847 539.723 15.0341 540.036 14.2159C540.354 13.3977 540.513 12.4801 540.513 11.4631C540.513 10.4574 540.357 9.55114 540.044 8.74432C539.738 7.9375 539.283 7.2983 538.681 6.8267C538.078 6.34943 537.34 6.1108 536.465 6.1108C535.613 6.1108 534.888 6.34091 534.292 6.80114C533.695 7.25568 533.24 7.88636 532.928 8.69318C532.621 9.49432 532.468 10.4176 532.468 11.4631ZM545.375 18V4.90909H546.901V18H545.375ZM546.151 2.65909C545.838 2.65909 545.571 2.55398 545.35 2.34375C545.128 2.12784 545.017 1.86932 545.017 1.56818C545.017 1.26705 545.128 1.01136 545.35 0.801136C545.571 0.585227 545.838 0.477272 546.151 0.477272C546.463 0.477272 546.73 0.585227 546.952 0.801136C547.174 1.01136 547.284 1.26705 547.284 1.56818C547.284 1.86932 547.174 2.12784 546.952 2.34375C546.73 2.55398 546.463 2.65909 546.151 2.65909ZM555.626 18.2727C554.552 18.2727 553.612 17.9886 552.805 17.4205C551.998 16.8523 551.368 16.0597 550.913 15.0426C550.464 14.0256 550.24 12.8409 550.24 11.4886C550.24 10.142 550.464 8.96307 550.913 7.9517C551.368 6.93466 552.001 6.14489 552.814 5.58239C553.626 5.0142 554.572 4.73011 555.652 4.73011C556.447 4.73011 557.109 4.87216 557.637 5.15625C558.166 5.43466 558.589 5.78125 558.907 6.19602C559.225 6.6108 559.473 7.0142 559.649 7.40625H559.785V0.545454H561.311V18H559.828V15.571H559.649C559.473 15.9687 559.223 16.3778 558.899 16.7983C558.575 17.2131 558.146 17.5625 557.612 17.8466C557.083 18.1307 556.422 18.2727 555.626 18.2727ZM555.805 16.8835C556.652 16.8835 557.373 16.6534 557.97 16.1932C558.566 15.7273 559.021 15.0881 559.333 14.2756C559.652 13.4574 559.811 12.5199 559.811 11.4631C559.811 10.4176 559.654 9.49432 559.342 8.69318C559.029 7.88636 558.575 7.25568 557.978 6.80114C557.382 6.34091 556.657 6.1108 555.805 6.1108C554.93 6.1108 554.191 6.34943 553.589 6.8267C552.993 7.2983 552.538 7.9375 552.225 8.74432C551.919 9.55114 551.765 10.4574 551.765 11.4631C551.765 12.4801 551.922 13.3977 552.234 14.2159C552.547 15.0341 553.001 15.6847 553.598 16.1676C554.2 16.6449 554.936 16.8835 555.805 16.8835ZM567.149 0.545454V18H565.632V0.545454H567.149ZM572.22 22.9091C571.919 22.9091 571.637 22.8807 571.376 22.8239C571.115 22.767 570.907 22.7045 570.754 22.6364L571.163 21.2983C571.68 21.4574 572.14 21.5142 572.544 21.4688C572.947 21.429 573.305 21.2472 573.618 20.9233C573.93 20.6051 574.208 20.1165 574.453 19.4574L574.93 18.1278L570.115 4.90909H571.76L575.646 15.9972H575.765L579.652 4.90909H581.297L575.757 20.071C575.524 20.7017 575.237 21.2273 574.896 21.6477C574.555 22.0739 574.16 22.3892 573.711 22.5938C573.268 22.804 572.771 22.9091 572.22 22.9091ZM596.009 23.1818C595.117 23.1818 594.336 23.0653 593.665 22.8324C592.995 22.6051 592.429 22.2926 591.969 21.8949C591.509 21.4972 591.151 21.0511 590.895 20.5568L592.14 19.7386C592.327 20.0682 592.577 20.392 592.89 20.7102C593.208 21.0284 593.62 21.2926 594.125 21.5028C594.637 21.7131 595.265 21.8182 596.009 21.8182C597.168 21.8182 598.103 21.5284 598.813 20.9489C599.529 20.3693 599.887 19.4687 599.887 18.2472V15.2983H599.75C599.574 15.696 599.321 16.0937 598.992 16.4915C598.662 16.8835 598.23 17.2102 597.696 17.4716C597.168 17.733 596.512 17.8636 595.728 17.8636C594.682 17.8636 593.753 17.6051 592.941 17.0881C592.134 16.571 591.498 15.8324 591.032 14.8722C590.571 13.9062 590.341 12.7557 590.341 11.4205C590.341 10.0966 590.566 8.93182 591.015 7.92614C591.469 6.92045 592.103 6.13636 592.915 5.57386C593.728 5.01136 594.674 4.73011 595.753 4.73011C596.554 4.73011 597.219 4.87216 597.748 5.15625C598.276 5.43466 598.699 5.78125 599.017 6.19602C599.341 6.6108 599.594 7.0142 599.776 7.40625H599.929V4.90909H601.412V18.3409C601.412 19.4489 601.176 20.3608 600.705 21.0767C600.233 21.7926 599.591 22.321 598.779 22.6619C597.966 23.0085 597.043 23.1818 596.009 23.1818ZM595.907 16.4744C596.748 16.4744 597.466 16.2727 598.063 15.8693C598.659 15.4602 599.117 14.875 599.435 14.1136C599.753 13.3523 599.912 12.446 599.912 11.3949C599.912 10.3722 599.756 9.46591 599.444 8.67614C599.131 7.88068 598.676 7.25568 598.08 6.80114C597.489 6.34091 596.765 6.1108 595.907 6.1108C595.032 6.1108 594.293 6.34659 593.691 6.81818C593.088 7.28977 592.634 7.92614 592.327 8.72727C592.02 9.52273 591.867 10.4119 591.867 11.3949C591.867 12.3949 592.023 13.2784 592.336 14.0455C592.648 14.8068 593.105 15.4034 593.708 15.8352C594.31 16.2614 595.043 16.4744 595.907 16.4744ZM605.429 18V4.90909H606.903V6.92045H607.014C607.275 6.26136 607.73 5.73011 608.377 5.3267C609.031 4.91761 609.77 4.71307 610.593 4.71307C610.718 4.71307 610.858 4.71591 611.011 4.72159C611.164 4.72727 611.292 4.73295 611.395 4.73864V6.28125C611.326 6.26989 611.207 6.25284 611.037 6.23011C610.866 6.20739 610.681 6.19602 610.483 6.19602C609.801 6.19602 609.193 6.34091 608.659 6.63068C608.13 6.91477 607.713 7.30966 607.406 7.81534C607.099 8.32102 606.946 8.89773 606.946 9.54545V18H605.429ZM618.673 18.2727C617.542 18.2727 616.542 17.9858 615.673 17.4119C614.809 16.8381 614.133 16.0455 613.645 15.0341C613.156 14.017 612.912 12.8437 612.912 11.5142C612.912 10.1733 613.156 8.99432 613.645 7.97727C614.133 6.95455 614.809 6.15909 615.673 5.59091C616.542 5.01705 617.542 4.73011 618.673 4.73011C619.804 4.73011 620.801 5.01705 621.664 5.59091C622.528 6.16477 623.204 6.96023 623.693 7.97727C624.187 8.99432 624.434 10.1733 624.434 11.5142C624.434 12.8437 624.19 14.017 623.701 15.0341C623.213 16.0455 622.534 16.8381 621.664 17.4119C620.801 17.9858 619.804 18.2727 618.673 18.2727ZM618.673 16.8835C619.582 16.8835 620.352 16.6392 620.983 16.1506C621.613 15.6619 622.091 15.0114 622.414 14.1989C622.744 13.3864 622.909 12.4915 622.909 11.5142C622.909 10.5369 622.744 9.6392 622.414 8.82102C622.091 8.00284 621.613 7.34659 620.983 6.85227C620.352 6.35795 619.582 6.1108 618.673 6.1108C617.77 6.1108 617 6.35795 616.363 6.85227C615.733 7.34659 615.252 8.00284 614.923 8.82102C614.599 9.6392 614.437 10.5369 614.437 11.5142C614.437 12.4915 614.599 13.3864 614.923 14.1989C615.252 15.0114 615.733 15.6619 616.363 16.1506C616.994 16.6392 617.764 16.8835 618.673 16.8835ZM630.225 18L626.271 4.90909H627.873L630.975 15.7074H631.086L634.18 4.90909H635.791L638.859 15.6818H638.978L642.081 4.90909H643.683L639.728 18H638.16L635.058 7.26989H634.896L631.794 18H630.225ZM646.649 18V4.90909H648.174V18H646.649ZM647.424 2.65909C647.112 2.65909 646.845 2.55398 646.623 2.34375C646.402 2.12784 646.291 1.86932 646.291 1.56818C646.291 1.26705 646.402 1.01136 646.623 0.801136C646.845 0.585227 647.112 0.477272 647.424 0.477272C647.737 0.477272 648.004 0.585227 648.225 0.801136C648.447 1.01136 648.558 1.26705 648.558 1.56818C648.558 1.86932 648.447 2.12784 648.225 2.34375C648.004 2.55398 647.737 2.65909 647.424 2.65909ZM653.703 9.81818V18H652.186V4.90909H653.661V6.96307H653.797C654.104 6.29261 654.581 5.75568 655.229 5.35227C655.882 4.94318 656.689 4.73864 657.65 4.73864C658.53 4.73864 659.303 4.9233 659.968 5.29261C660.638 5.65625 661.158 6.19318 661.527 6.90341C661.902 7.61364 662.09 8.4858 662.09 9.51989V18H660.573V9.61364C660.573 8.53977 660.272 7.69034 659.669 7.06534C659.073 6.44034 658.272 6.12784 657.266 6.12784C656.578 6.12784 655.968 6.27557 655.434 6.57102C654.9 6.86648 654.476 7.29261 654.164 7.84943C653.857 8.40057 653.703 9.05682 653.703 9.81818ZM671.079 23.1818C670.187 23.1818 669.406 23.0653 668.735 22.8324C668.065 22.6051 667.5 22.2926 667.039 21.8949C666.579 21.4972 666.221 21.0511 665.966 20.5568L667.21 19.7386C667.397 20.0682 667.647 20.392 667.96 20.7102C668.278 21.0284 668.69 21.2926 669.196 21.5028C669.707 21.7131 670.335 21.8182 671.079 21.8182C672.238 21.8182 673.173 21.5284 673.883 20.9489C674.599 20.3693 674.957 19.4687 674.957 18.2472V15.2983H674.821C674.645 15.696 674.392 16.0937 674.062 16.4915C673.733 16.8835 673.301 17.2102 672.767 17.4716C672.238 17.733 671.582 17.8636 670.798 17.8636C669.752 17.8636 668.824 17.6051 668.011 17.0881C667.204 16.571 666.568 15.8324 666.102 14.8722C665.642 13.9062 665.412 12.7557 665.412 11.4205C665.412 10.0966 665.636 8.93182 666.085 7.92614C666.539 6.92045 667.173 6.13636 667.985 5.57386C668.798 5.01136 669.744 4.73011 670.824 4.73011C671.625 4.73011 672.289 4.87216 672.818 5.15625C673.346 5.43466 673.77 5.78125 674.088 6.19602C674.412 6.6108 674.664 7.0142 674.846 7.40625H675V4.90909H676.483V18.3409C676.483 19.4489 676.247 20.3608 675.775 21.0767C675.304 21.7926 674.662 22.321 673.849 22.6619C673.037 23.0085 672.113 23.1818 671.079 23.1818ZM670.977 16.4744C671.818 16.4744 672.537 16.2727 673.133 15.8693C673.73 15.4602 674.187 14.875 674.505 14.1136C674.824 13.3523 674.983 12.446 674.983 11.3949C674.983 10.3722 674.826 9.46591 674.514 8.67614C674.201 7.88068 673.747 7.25568 673.15 6.80114C672.559 6.34091 671.835 6.1108 670.977 6.1108C670.102 6.1108 669.363 6.34659 668.761 6.81818C668.159 7.28977 667.704 7.92614 667.397 8.72727C667.091 9.52273 666.937 10.4119 666.937 11.3949C666.937 12.3949 667.093 13.2784 667.406 14.0455C667.718 14.8068 668.176 15.4034 668.778 15.8352C669.38 16.2614 670.113 16.4744 670.977 16.4744ZM687.564 18V0.545454H697.689V1.97727H689.158V8.5483H697.152V9.98011H689.158V16.5682H697.86V18H687.564ZM700.757 1.97727V0.545454H713.414V1.97727H707.882V18H706.289V1.97727H700.757ZM729.946 6H728.343C728.224 5.40341 728.008 4.85227 727.696 4.34659C727.389 3.83523 727.002 3.3892 726.537 3.00852C726.071 2.62784 725.542 2.33239 724.951 2.12216C724.36 1.91193 723.721 1.80682 723.034 1.80682C721.931 1.80682 720.926 2.09375 720.017 2.66761C719.113 3.24148 718.389 4.08523 717.843 5.19886C717.304 6.30682 717.034 7.66477 717.034 9.27273C717.034 10.892 717.304 12.2557 717.843 13.3636C718.389 14.4716 719.113 15.3125 720.017 15.8864C720.926 16.4545 721.931 16.7386 723.034 16.7386C723.721 16.7386 724.36 16.6335 724.951 16.4233C725.542 16.2131 726.071 15.9205 726.537 15.5455C727.002 15.1648 727.389 14.7187 727.696 14.2074C728.008 13.696 728.224 13.142 728.343 12.5455H729.946C729.804 13.3466 729.537 14.0938 729.145 14.7869C728.758 15.4744 728.264 16.0767 727.662 16.5938C727.065 17.1108 726.377 17.5142 725.599 17.804C724.821 18.0937 723.966 18.2386 723.034 18.2386C721.568 18.2386 720.267 17.8722 719.13 17.1392C717.994 16.4006 717.102 15.3608 716.454 14.0199C715.812 12.679 715.491 11.0966 715.491 9.27273C715.491 7.44886 715.812 5.86648 716.454 4.52557C717.102 3.18466 717.994 2.14773 719.13 1.41477C720.267 0.676136 721.568 0.306818 723.034 0.306818C723.966 0.306818 724.821 0.451704 725.599 0.741477C726.377 1.02557 727.065 1.42898 727.662 1.9517C728.264 2.46875 728.758 3.07102 729.145 3.75852C729.537 4.44602 729.804 5.19318 729.946 6ZM745.238 18.2727C744.067 18.2727 743.047 17.9801 742.178 17.3949C741.314 16.8097 740.644 16.0085 740.167 14.9915C739.689 13.9744 739.451 12.8153 739.451 11.5142C739.451 10.2017 739.692 9.03409 740.175 8.01136C740.664 6.98864 741.34 6.1875 742.203 5.60795C743.067 5.02273 744.07 4.73011 745.212 4.73011C746.087 4.73011 746.88 4.90057 747.59 5.24148C748.3 5.5767 748.885 6.05114 749.346 6.66477C749.811 7.27273 750.104 7.98295 750.223 8.79545H748.689C748.53 8.05682 748.147 7.42614 747.539 6.90341C746.936 6.375 746.169 6.1108 745.238 6.1108C744.402 6.1108 743.664 6.33807 743.022 6.79261C742.38 7.24148 741.877 7.86932 741.513 8.67614C741.155 9.47727 740.976 10.4062 740.976 11.4631C740.976 12.5256 741.152 13.4659 741.505 14.2841C741.857 15.0966 742.351 15.733 742.988 16.1932C743.63 16.6534 744.38 16.8835 745.238 16.8835C745.817 16.8835 746.346 16.7756 746.823 16.5597C747.306 16.3381 747.709 16.0256 748.033 15.6222C748.363 15.2187 748.584 14.7386 748.698 14.1818H750.232C750.118 14.9716 749.837 15.6761 749.388 16.2955C748.945 16.9091 748.368 17.392 747.658 17.7443C746.953 18.0966 746.147 18.2727 745.238 18.2727ZM755 9.81818V18H753.483V0.545454H755V6.96307H755.137C755.444 6.28693 755.918 5.74716 756.56 5.34375C757.208 4.94034 758.026 4.73864 759.015 4.73864C759.901 4.73864 760.679 4.92045 761.35 5.28409C762.02 5.64773 762.543 6.18466 762.918 6.89489C763.293 7.60511 763.48 8.48011 763.48 9.51989V18H761.955V9.61364C761.955 8.53409 761.654 7.68466 761.051 7.06534C760.455 6.44034 759.648 6.12784 758.631 6.12784C757.932 6.12784 757.31 6.27557 756.765 6.57102C756.219 6.86648 755.787 7.29261 755.469 7.84943C755.157 8.40057 755 9.05682 755 9.81818ZM771.132 18.2983C770.342 18.2983 769.62 18.1449 768.967 17.8381C768.314 17.5256 767.794 17.0767 767.407 16.4915C767.021 15.9006 766.828 15.1847 766.828 14.3438C766.828 13.696 766.95 13.1506 767.194 12.7074C767.439 12.2642 767.785 11.9006 768.234 11.6165C768.683 11.3324 769.214 11.108 769.828 10.9432C770.441 10.7784 771.118 10.6506 771.856 10.5597C772.589 10.4687 773.208 10.3892 773.714 10.321C774.225 10.2528 774.615 10.1449 774.882 9.99716C775.149 9.84943 775.282 9.6108 775.282 9.28125V8.97443C775.282 8.08239 775.015 7.38068 774.481 6.86932C773.953 6.35227 773.191 6.09375 772.197 6.09375C771.254 6.09375 770.484 6.30114 769.887 6.71591C769.297 7.13068 768.882 7.61932 768.643 8.18182L767.203 7.66193C767.498 6.94602 767.907 6.375 768.43 5.94886C768.953 5.51705 769.538 5.20739 770.186 5.01989C770.833 4.8267 771.49 4.73011 772.154 4.73011C772.654 4.73011 773.174 4.79545 773.714 4.92614C774.26 5.05682 774.765 5.28409 775.231 5.60795C775.697 5.92614 776.075 6.37216 776.365 6.94602C776.654 7.5142 776.799 8.2358 776.799 9.1108V18H775.282V15.929H775.189C775.007 16.3153 774.737 16.6903 774.379 17.054C774.021 17.4176 773.572 17.7159 773.032 17.9489C772.493 18.1818 771.859 18.2983 771.132 18.2983ZM771.336 16.9091C772.143 16.9091 772.842 16.7301 773.433 16.3722C774.024 16.0142 774.478 15.5398 774.797 14.9489C775.12 14.3523 775.282 13.696 775.282 12.9801V11.0881C775.169 11.196 774.978 11.2926 774.711 11.3778C774.45 11.4631 774.146 11.5398 773.799 11.608C773.458 11.6705 773.118 11.7244 772.777 11.7699C772.436 11.8153 772.129 11.8551 771.856 11.8892C771.118 11.9801 770.487 12.1222 769.964 12.3153C769.441 12.5085 769.041 12.7756 768.762 13.1165C768.484 13.4517 768.345 13.8835 768.345 14.4119C768.345 15.2074 768.629 15.8239 769.197 16.2614C769.765 16.6932 770.478 16.9091 771.336 16.9091ZM782.352 9.81818V18H780.835V4.90909H782.309V6.96307H782.446C782.752 6.29261 783.23 5.75568 783.877 5.35227C784.531 4.94318 785.338 4.73864 786.298 4.73864C787.179 4.73864 787.951 4.9233 788.616 5.29261C789.287 5.65625 789.806 6.19318 790.176 6.90341C790.551 7.61364 790.738 8.4858 790.738 9.51989V18H789.221V9.61364C789.221 8.53977 788.92 7.69034 788.318 7.06534C787.721 6.44034 786.92 6.12784 785.914 6.12784C785.227 6.12784 784.616 6.27557 784.082 6.57102C783.548 6.86648 783.125 7.29261 782.812 7.84943C782.505 8.40057 782.352 9.05682 782.352 9.81818ZM796.25 9.81818V18H794.733V4.90909H796.208V6.96307H796.344C796.651 6.29261 797.128 5.75568 797.776 5.35227C798.429 4.94318 799.236 4.73864 800.196 4.73864C801.077 4.73864 801.85 4.9233 802.515 5.29261C803.185 5.65625 803.705 6.19318 804.074 6.90341C804.449 7.61364 804.637 8.4858 804.637 9.51989V18H803.12V9.61364C803.12 8.53977 802.819 7.69034 802.216 7.06534C801.62 6.44034 800.819 6.12784 799.813 6.12784C799.125 6.12784 798.515 6.27557 797.98 6.57102C797.446 6.86648 797.023 7.29261 796.711 7.84943C796.404 8.40057 796.25 9.05682 796.25 9.81818ZM813.924 18.2727C812.703 18.2727 811.646 17.9886 810.754 17.4205C809.862 16.8466 809.172 16.054 808.683 15.0426C808.2 14.0256 807.958 12.8551 807.958 11.5312C807.958 10.2131 808.2 9.04261 808.683 8.01989C809.172 6.99148 809.845 6.1875 810.703 5.60795C811.566 5.02273 812.564 4.73011 813.694 4.73011C814.404 4.73011 815.089 4.8608 815.748 5.12216C816.407 5.37784 816.998 5.77273 817.521 6.30682C818.049 6.83523 818.467 7.50284 818.774 8.30966C819.081 9.1108 819.234 10.0597 819.234 11.1562V11.9062H809.007V10.5682H817.683C817.683 9.72727 817.512 8.97159 817.172 8.30114C816.836 7.625 816.368 7.09091 815.765 6.69886C815.169 6.30682 814.478 6.1108 813.694 6.1108C812.865 6.1108 812.135 6.33239 811.504 6.77557C810.873 7.21875 810.379 7.80398 810.021 8.53125C809.669 9.25852 809.49 10.054 809.484 10.9176V11.7188C809.484 12.7585 809.663 13.6676 810.021 14.446C810.385 15.2187 810.899 15.8182 811.564 16.2443C812.228 16.6705 813.015 16.8835 813.924 16.8835C814.544 16.8835 815.086 16.7869 815.552 16.5938C816.024 16.4006 816.419 16.142 816.737 15.8182C817.061 15.4886 817.305 15.1278 817.47 14.7358L818.91 15.2045C818.711 15.7557 818.385 16.2642 817.93 16.7301C817.481 17.196 816.919 17.571 816.243 17.8551C815.572 18.1335 814.799 18.2727 813.924 18.2727ZM824.094 0.545454V18H822.577V0.545454H824.094ZM837.765 18L833.81 4.90909H835.412L838.515 15.7074H838.625L841.719 4.90909H843.33L846.398 15.6818H846.517L849.62 4.90909H851.222L847.267 18H845.699L842.597 7.26989H842.435L839.333 18H837.765ZM854.188 18V4.90909H855.713V18H854.188ZM854.963 2.65909C854.651 2.65909 854.384 2.55398 854.162 2.34375C853.941 2.12784 853.83 1.86932 853.83 1.56818C853.83 1.26705 853.941 1.01136 854.162 0.801136C854.384 0.585227 854.651 0.477272 854.963 0.477272C855.276 0.477272 855.543 0.585227 855.765 0.801136C855.986 1.01136 856.097 1.26705 856.097 1.56818C856.097 1.86932 855.986 2.12784 855.765 2.34375C855.543 2.55398 855.276 2.65909 854.963 2.65909ZM864.882 4.90909V6.23011H858.635V4.90909H864.882ZM860.586 1.77273H862.112V14.5824C862.112 15.1278 862.206 15.5568 862.393 15.8693C862.581 16.1761 862.825 16.3949 863.126 16.5256C863.427 16.6506 863.748 16.7131 864.089 16.7131C864.288 16.7131 864.458 16.7017 864.6 16.679C864.743 16.6506 864.868 16.6222 864.975 16.5938L865.299 17.9659C865.152 18.0227 864.97 18.0739 864.754 18.1193C864.538 18.1705 864.271 18.196 863.953 18.196C863.396 18.196 862.859 18.0739 862.342 17.8295C861.831 17.5852 861.41 17.2216 861.081 16.7386C860.751 16.2557 860.586 15.6562 860.586 14.9403V1.77273ZM870.125 9.81818V18H868.608V0.545454H870.125V6.96307H870.262C870.569 6.28693 871.043 5.74716 871.685 5.34375C872.333 4.94034 873.151 4.73864 874.14 4.73864C875.026 4.73864 875.804 4.92045 876.475 5.28409C877.145 5.64773 877.668 6.18466 878.043 6.89489C878.418 7.60511 878.605 8.48011 878.605 9.51989V18H877.08V9.61364C877.08 8.53409 876.779 7.68466 876.176 7.06534C875.58 6.44034 874.773 6.12784 873.756 6.12784C873.057 6.12784 872.435 6.27557 871.89 6.57102C871.344 6.86648 870.912 7.29261 870.594 7.84943C870.282 8.40057 870.125 9.05682 870.125 9.81818ZM898.146 7.78125L896.757 8.1733C896.62 7.78125 896.427 7.42614 896.177 7.10795C895.927 6.78977 895.6 6.53693 895.197 6.34943C894.799 6.16193 894.305 6.06818 893.714 6.06818C892.828 6.06818 892.1 6.27841 891.532 6.69886C890.964 7.11932 890.68 7.66193 890.68 8.3267C890.68 8.8892 890.873 9.34659 891.26 9.69886C891.652 10.0455 892.254 10.321 893.066 10.5256L895.044 11.0114C896.14 11.2784 896.961 11.7017 897.507 12.2812C898.058 12.8608 898.333 13.5881 898.333 14.4631C898.333 15.2017 898.129 15.858 897.72 16.4318C897.311 17.0057 896.74 17.4574 896.007 17.7869C895.279 18.1108 894.436 18.2727 893.475 18.2727C892.197 18.2727 891.143 17.9858 890.314 17.4119C889.484 16.8324 888.953 15.9972 888.72 14.9062L890.177 14.5483C890.365 15.3267 890.731 15.9148 891.277 16.3125C891.828 16.7102 892.552 16.9091 893.45 16.9091C894.456 16.9091 895.26 16.6847 895.862 16.2358C896.464 15.7812 896.765 15.2131 896.765 14.5312C896.765 14.0028 896.589 13.5597 896.237 13.2017C895.885 12.8381 895.35 12.571 894.635 12.4006L892.495 11.8892C891.359 11.6165 890.518 11.1847 889.973 10.5938C889.427 10.0028 889.154 9.26989 889.154 8.39489C889.154 7.6733 889.35 7.03977 889.743 6.49432C890.135 5.94318 890.674 5.51136 891.362 5.19886C892.049 4.88636 892.833 4.73011 893.714 4.73011C894.913 4.73011 895.87 5.00284 896.586 5.54829C897.308 6.08807 897.828 6.83239 898.146 7.78125ZM905.311 18.2983C904.522 18.2983 903.8 18.1449 903.147 17.8381C902.493 17.5256 901.973 17.0767 901.587 16.4915C901.201 15.9006 901.007 15.1847 901.007 14.3438C901.007 13.696 901.13 13.1506 901.374 12.7074C901.618 12.2642 901.965 11.9006 902.414 11.6165C902.863 11.3324 903.394 11.108 904.007 10.9432C904.621 10.7784 905.297 10.6506 906.036 10.5597C906.769 10.4687 907.388 10.3892 907.894 10.321C908.405 10.2528 908.794 10.1449 909.061 9.99716C909.328 9.84943 909.462 9.6108 909.462 9.28125V8.97443C909.462 8.08239 909.195 7.38068 908.661 6.86932C908.132 6.35227 907.371 6.09375 906.377 6.09375C905.434 6.09375 904.664 6.30114 904.067 6.71591C903.476 7.13068 903.061 7.61932 902.823 8.18182L901.382 7.66193C901.678 6.94602 902.087 6.375 902.61 5.94886C903.132 5.51705 903.718 5.20739 904.365 5.01989C905.013 4.8267 905.669 4.73011 906.334 4.73011C906.834 4.73011 907.354 4.79545 907.894 4.92614C908.439 5.05682 908.945 5.28409 909.411 5.60795C909.877 5.92614 910.255 6.37216 910.544 6.94602C910.834 7.5142 910.979 8.2358 910.979 9.1108V18H909.462V15.929H909.368C909.186 16.3153 908.917 16.6903 908.559 17.054C908.201 17.4176 907.752 17.7159 907.212 17.9489C906.672 18.1818 906.039 18.2983 905.311 18.2983ZM905.516 16.9091C906.323 16.9091 907.022 16.7301 907.613 16.3722C908.203 16.0142 908.658 15.5398 908.976 14.9489C909.3 14.3523 909.462 13.696 909.462 12.9801V11.0881C909.348 11.196 909.158 11.2926 908.891 11.3778C908.63 11.4631 908.326 11.5398 907.979 11.608C907.638 11.6705 907.297 11.7244 906.956 11.7699C906.615 11.8153 906.309 11.8551 906.036 11.8892C905.297 11.9801 904.667 12.1222 904.144 12.3153C903.621 12.5085 903.221 12.7756 902.942 13.1165C902.664 13.4517 902.525 13.8835 902.525 14.4119C902.525 15.2074 902.809 15.8239 903.377 16.2614C903.945 16.6932 904.658 16.9091 905.516 16.9091ZM916.532 0.545454V18H915.015V0.545454H916.532ZM925.838 18.2727C924.617 18.2727 923.56 17.9886 922.668 17.4205C921.776 16.8466 921.086 16.054 920.597 15.0426C920.114 14.0256 919.873 12.8551 919.873 11.5312C919.873 10.2131 920.114 9.04261 920.597 8.01989C921.086 6.99148 921.759 6.1875 922.617 5.60795C923.48 5.02273 924.478 4.73011 925.608 4.73011C926.319 4.73011 927.003 4.8608 927.662 5.12216C928.321 5.37784 928.912 5.77273 929.435 6.30682C929.963 6.83523 930.381 7.50284 930.688 8.30966C930.995 9.1108 931.148 10.0597 931.148 11.1562V11.9062H920.921V10.5682H929.597C929.597 9.72727 929.426 8.97159 929.086 8.30114C928.75 7.625 928.282 7.09091 927.679 6.69886C927.083 6.30682 926.392 6.1108 925.608 6.1108C924.779 6.1108 924.049 6.33239 923.418 6.77557C922.787 7.21875 922.293 7.80398 921.935 8.53125C921.583 9.25852 921.404 10.054 921.398 10.9176V11.7188C921.398 12.7585 921.577 13.6676 921.935 14.446C922.299 15.2187 922.813 15.8182 923.478 16.2443C924.142 16.6705 924.929 16.8835 925.838 16.8835C926.458 16.8835 927 16.7869 927.466 16.5938C927.938 16.4006 928.333 16.142 928.651 15.8182C928.975 15.4886 929.219 15.1278 929.384 14.7358L930.824 15.2045C930.625 15.7557 930.299 16.2642 929.844 16.7301C929.395 17.196 928.833 17.571 928.157 17.8551C927.486 18.1335 926.713 18.2727 925.838 18.2727ZM943.287 7.78125L941.897 8.1733C941.761 7.78125 941.568 7.42614 941.318 7.10795C941.068 6.78977 940.741 6.53693 940.338 6.34943C939.94 6.16193 939.446 6.06818 938.855 6.06818C937.968 6.06818 937.241 6.27841 936.673 6.69886C936.105 7.11932 935.821 7.66193 935.821 8.3267C935.821 8.8892 936.014 9.34659 936.4 9.69886C936.792 10.0455 937.395 10.321 938.207 10.5256L940.184 11.0114C941.281 11.2784 942.102 11.7017 942.647 12.2812C943.199 12.8608 943.474 13.5881 943.474 14.4631C943.474 15.2017 943.27 15.858 942.86 16.4318C942.451 17.0057 941.88 17.4574 941.147 17.7869C940.42 18.1108 939.576 18.2727 938.616 18.2727C937.338 18.2727 936.284 17.9858 935.454 17.4119C934.625 16.8324 934.093 15.9972 933.86 14.9062L935.318 14.5483C935.505 15.3267 935.872 15.9148 936.417 16.3125C936.968 16.7102 937.693 16.9091 938.591 16.9091C939.596 16.9091 940.4 16.6847 941.002 16.2358C941.605 15.7812 941.906 15.2131 941.906 14.5312C941.906 14.0028 941.73 13.5597 941.377 13.2017C941.025 12.8381 940.491 12.571 939.775 12.4006L937.636 11.8892C936.5 11.6165 935.659 11.1847 935.113 10.5938C934.568 10.0028 934.295 9.26989 934.295 8.39489C934.295 7.6733 934.491 7.03977 934.883 6.49432C935.275 5.94318 935.815 5.51136 936.502 5.19886C937.19 4.88636 937.974 4.73011 938.855 4.73011C940.054 4.73011 941.011 5.00284 941.727 5.54829C942.449 6.08807 942.968 6.83239 943.287 7.78125ZM195.975 47.2983C195.186 47.2983 194.464 47.1449 193.811 46.8381C193.157 46.5256 192.637 46.0767 192.251 45.4915C191.865 44.9006 191.672 44.1847 191.672 43.3438C191.672 42.696 191.794 42.1506 192.038 41.7074C192.282 41.2642 192.629 40.9006 193.078 40.6165C193.527 40.3324 194.058 40.108 194.672 39.9432C195.285 39.7784 195.961 39.6506 196.7 39.5597C197.433 39.4687 198.052 39.3892 198.558 39.321C199.069 39.2528 199.458 39.1449 199.725 38.9972C199.993 38.8494 200.126 38.6108 200.126 38.2812V37.9744C200.126 37.0824 199.859 36.3807 199.325 35.8693C198.797 35.3523 198.035 35.0938 197.041 35.0938C196.098 35.0938 195.328 35.3011 194.731 35.7159C194.14 36.1307 193.725 36.6193 193.487 37.1818L192.047 36.6619C192.342 35.946 192.751 35.375 193.274 34.9489C193.797 34.517 194.382 34.2074 195.029 34.0199C195.677 33.8267 196.333 33.7301 196.998 33.7301C197.498 33.7301 198.018 33.7955 198.558 33.9261C199.103 34.0568 199.609 34.2841 200.075 34.608C200.541 34.9261 200.919 35.3722 201.208 35.946C201.498 36.5142 201.643 37.2358 201.643 38.1108V47H200.126V44.929H200.032C199.85 45.3153 199.581 45.6903 199.223 46.054C198.865 46.4176 198.416 46.7159 197.876 46.9489C197.336 47.1818 196.703 47.2983 195.975 47.2983ZM196.18 45.9091C196.987 45.9091 197.686 45.7301 198.277 45.3722C198.868 45.0142 199.322 44.5398 199.64 43.9489C199.964 43.3523 200.126 42.696 200.126 41.9801V40.0881C200.012 40.196 199.822 40.2926 199.555 40.3778C199.294 40.4631 198.99 40.5398 198.643 40.608C198.302 40.6705 197.961 40.7244 197.62 40.7699C197.279 40.8153 196.973 40.8551 196.7 40.8892C195.961 40.9801 195.331 41.1222 194.808 41.3153C194.285 41.5085 193.885 41.7756 193.606 42.1165C193.328 42.4517 193.189 42.8835 193.189 43.4119C193.189 44.2074 193.473 44.8239 194.041 45.2614C194.609 45.6932 195.322 45.9091 196.18 45.9091ZM210.835 33.9091V35.2301H204.588V33.9091H210.835ZM206.539 30.7727H208.065V43.5824C208.065 44.1278 208.159 44.5568 208.346 44.8693C208.534 45.1761 208.778 45.3949 209.079 45.5256C209.38 45.6506 209.701 45.7131 210.042 45.7131C210.241 45.7131 210.412 45.7017 210.554 45.679C210.696 45.6506 210.821 45.6222 210.929 45.5938L211.252 46.9659C211.105 47.0227 210.923 47.0739 210.707 47.1193C210.491 47.1705 210.224 47.196 209.906 47.196C209.349 47.196 208.812 47.0739 208.295 46.8295C207.784 46.5852 207.363 46.2216 207.034 45.7386C206.704 45.2557 206.539 44.6562 206.539 43.9403V30.7727ZM226.357 29.5455V47H224.763V31.2159H224.661L220.57 33.9347V32.2812L224.695 29.5455H226.357ZM231.897 47.1278C231.561 47.1278 231.272 47.0085 231.027 46.7699C230.789 46.5256 230.669 46.2358 230.669 45.9006C230.669 45.5597 230.789 45.2699 231.027 45.0312C231.272 44.7926 231.561 44.6733 231.897 44.6733C232.238 44.6733 232.527 44.7926 232.766 45.0312C233.005 45.2699 233.124 45.5597 233.124 45.9006C233.124 46.1222 233.067 46.3267 232.953 46.5142C232.846 46.7017 232.698 46.8523 232.51 46.9659C232.328 47.0739 232.124 47.1278 231.897 47.1278ZM241.834 47.2386C240.721 47.2386 239.729 47.0284 238.86 46.608C237.99 46.1875 237.309 45.6136 236.814 44.8864C236.32 44.1534 236.073 43.3267 236.073 42.4062C236.073 41.6847 236.223 41.0114 236.525 40.3864C236.826 39.7557 237.24 39.2273 237.769 38.8011C238.297 38.3693 238.891 38.0881 239.55 37.9574V37.8636C238.692 37.6136 238.002 37.1222 237.479 36.3892C236.956 35.6506 236.698 34.8125 236.703 33.875C236.698 33.0057 236.919 32.2273 237.368 31.5398C237.817 30.8523 238.428 30.3097 239.201 29.9119C239.979 29.5085 240.857 29.3068 241.834 29.3068C242.806 29.3068 243.678 29.5085 244.451 29.9119C245.223 30.3097 245.834 30.8523 246.283 31.5398C246.738 32.2273 246.968 33.0057 246.973 33.875C246.968 34.8068 246.703 35.6449 246.181 36.3892C245.658 37.1278 244.971 37.6193 244.118 37.8636V37.9574C244.777 38.0824 245.368 38.3608 245.891 38.7926C246.414 39.2244 246.828 39.7557 247.135 40.3864C247.442 41.0114 247.596 41.6847 247.596 42.4062C247.596 43.3267 247.346 44.1534 246.846 44.8864C246.351 45.6136 245.669 46.1875 244.8 46.608C243.936 47.0284 242.948 47.2386 241.834 47.2386ZM241.834 45.8068C242.664 45.8068 243.391 45.6591 244.016 45.3636C244.647 45.0625 245.138 44.6506 245.49 44.1278C245.848 43.6051 246.027 43.0057 246.027 42.3295C246.027 41.6307 245.843 41.0085 245.473 40.4631C245.104 39.9119 244.604 39.4773 243.973 39.1591C243.343 38.8352 242.63 38.6733 241.834 38.6733C241.039 38.6733 240.323 38.8352 239.686 39.1591C239.056 39.4773 238.556 39.9119 238.186 40.4631C237.823 41.0085 237.641 41.6307 237.641 42.3295C237.641 43.0057 237.814 43.6051 238.161 44.1278C238.513 44.6506 239.005 45.0625 239.635 45.3636C240.272 45.6591 241.005 45.8068 241.834 45.8068ZM241.834 37.3097C242.516 37.3097 243.127 37.1648 243.667 36.875C244.206 36.5852 244.632 36.1903 244.945 35.6903C245.263 35.1847 245.425 34.6108 245.431 33.9688C245.425 33.3324 245.266 32.7699 244.953 32.2812C244.641 31.7869 244.215 31.4034 243.675 31.1307C243.141 30.8523 242.527 30.7131 241.834 30.7131C241.141 30.7131 240.522 30.8523 239.976 31.1307C239.436 31.4034 239.01 31.7869 238.698 32.2812C238.391 32.7699 238.24 33.3324 238.246 33.9688C238.24 34.6108 238.394 35.1847 238.706 35.6903C239.025 36.1903 239.453 36.5852 239.993 36.875C240.539 37.1648 241.152 37.3097 241.834 37.3097ZM252.132 33.9091L255.507 39.4915L258.882 33.9091H260.646L256.436 40.4545L260.646 47H258.882L255.507 41.5966L252.132 47H250.376L254.535 40.4545L250.376 33.9091H252.132ZM272.094 38.8182V47H270.577V29.5455H272.094V35.9631H272.23C272.537 35.2869 273.012 34.7472 273.654 34.3438C274.301 33.9403 275.12 33.7386 276.108 33.7386C276.995 33.7386 277.773 33.9205 278.444 34.2841C279.114 34.6477 279.637 35.1847 280.012 35.8949C280.387 36.6051 280.574 37.4801 280.574 38.5199V47H279.049V38.6136C279.049 37.5341 278.748 36.6847 278.145 36.0653C277.549 35.4403 276.742 35.1278 275.725 35.1278C275.026 35.1278 274.404 35.2756 273.858 35.571C273.313 35.8665 272.881 36.2926 272.563 36.8494C272.25 37.4006 272.094 38.0568 272.094 38.8182ZM284.586 47V33.9091H286.112V47H284.586ZM285.362 31.6591C285.049 31.6591 284.782 31.554 284.561 31.3438C284.339 31.1278 284.228 30.8693 284.228 30.5682C284.228 30.267 284.339 30.0114 284.561 29.8011C284.782 29.5852 285.049 29.4773 285.362 29.4773C285.674 29.4773 285.941 29.5852 286.163 29.8011C286.385 30.0114 286.495 30.267 286.495 30.5682C286.495 30.8693 286.385 31.1278 286.163 31.3438C285.941 31.554 285.674 31.6591 285.362 31.6591ZM295.118 52.1818C294.226 52.1818 293.445 52.0653 292.775 51.8324C292.104 51.6051 291.539 51.2926 291.078 50.8949C290.618 50.4972 290.26 50.0511 290.005 49.5568L291.249 48.7386C291.436 49.0682 291.686 49.392 291.999 49.7102C292.317 50.0284 292.729 50.2926 293.235 50.5028C293.746 50.7131 294.374 50.8182 295.118 50.8182C296.277 50.8182 297.212 50.5284 297.922 49.9489C298.638 49.3693 298.996 48.4687 298.996 47.2472V44.2983H298.86C298.684 44.696 298.431 45.0937 298.101 45.4915C297.772 45.8835 297.34 46.2102 296.806 46.4716C296.277 46.733 295.621 46.8636 294.837 46.8636C293.792 46.8636 292.863 46.6051 292.05 46.0881C291.243 45.571 290.607 44.8324 290.141 43.8722C289.681 42.9062 289.451 41.7557 289.451 40.4205C289.451 39.0966 289.675 37.9318 290.124 36.9261C290.578 35.9205 291.212 35.1364 292.025 34.5739C292.837 34.0114 293.783 33.7301 294.863 33.7301C295.664 33.7301 296.328 33.8722 296.857 34.1562C297.385 34.4347 297.809 34.7812 298.127 35.196C298.451 35.6108 298.703 36.0142 298.885 36.4062H299.039V33.9091H300.522V47.3409C300.522 48.4489 300.286 49.3608 299.814 50.0767C299.343 50.7926 298.701 51.321 297.888 51.6619C297.076 52.0085 296.152 52.1818 295.118 52.1818ZM295.016 45.4744C295.857 45.4744 296.576 45.2727 297.172 44.8693C297.769 44.4602 298.226 43.875 298.544 43.1136C298.863 42.3523 299.022 41.446 299.022 40.3949C299.022 39.3722 298.865 38.4659 298.553 37.6761C298.24 36.8807 297.786 36.2557 297.189 35.8011C296.598 35.3409 295.874 35.1108 295.016 35.1108C294.141 35.1108 293.402 35.3466 292.8 35.8182C292.198 36.2898 291.743 36.9261 291.436 37.7273C291.13 38.5227 290.976 39.4119 290.976 40.3949C290.976 41.3949 291.132 42.2784 291.445 43.0455C291.757 43.8068 292.215 44.4034 292.817 44.8352C293.419 45.2614 294.152 45.4744 295.016 45.4744ZM306.055 38.8182V47H304.538V29.5455H306.055V35.9631H306.191C306.498 35.2869 306.973 34.7472 307.615 34.3438C308.262 33.9403 309.081 33.7386 310.069 33.7386C310.956 33.7386 311.734 33.9205 312.404 34.2841C313.075 34.6477 313.598 35.1847 313.973 35.8949C314.348 36.6051 314.535 37.4801 314.535 38.5199V47H313.01V38.6136C313.01 37.5341 312.708 36.6847 312.106 36.0653C311.51 35.4403 310.703 35.1278 309.686 35.1278C308.987 35.1278 308.365 35.2756 307.819 35.571C307.274 35.8665 306.842 36.2926 306.524 36.8494C306.211 37.4006 306.055 38.0568 306.055 38.8182ZM323.823 47.2727C322.601 47.2727 321.544 46.9886 320.652 46.4205C319.76 45.8466 319.07 45.054 318.581 44.0426C318.098 43.0256 317.857 41.8551 317.857 40.5312C317.857 39.2131 318.098 38.0426 318.581 37.0199C319.07 35.9915 319.743 35.1875 320.601 34.608C321.465 34.0227 322.462 33.7301 323.593 33.7301C324.303 33.7301 324.988 33.8608 325.647 34.1222C326.306 34.3778 326.897 34.7727 327.419 35.3068C327.948 35.8352 328.365 36.5028 328.672 37.3097C328.979 38.1108 329.132 39.0597 329.132 40.1562V40.9062H318.905V39.5682H327.581C327.581 38.7273 327.411 37.9716 327.07 37.3011C326.735 36.625 326.266 36.0909 325.664 35.6989C325.067 35.3068 324.377 35.1108 323.593 35.1108C322.763 35.1108 322.033 35.3324 321.402 35.7756C320.772 36.2187 320.277 36.804 319.919 37.5312C319.567 38.2585 319.388 39.054 319.382 39.9176V40.7188C319.382 41.7585 319.561 42.6676 319.919 43.446C320.283 44.2187 320.797 44.8182 321.462 45.2443C322.127 45.6705 322.914 45.8835 323.823 45.8835C324.442 45.8835 324.985 45.7869 325.451 45.5938C325.922 45.4006 326.317 45.142 326.635 44.8182C326.959 44.4886 327.203 44.1278 327.368 43.7358L328.809 44.2045C328.61 44.7557 328.283 45.2642 327.828 45.7301C327.38 46.196 326.817 46.571 326.141 46.8551C325.471 47.1335 324.698 47.2727 323.823 47.2727ZM332.475 47V33.9091H333.95V35.9205H334.061C334.322 35.2614 334.777 34.7301 335.424 34.3267C336.078 33.9176 336.816 33.7131 337.64 33.7131C337.765 33.7131 337.904 33.7159 338.058 33.7216C338.211 33.7273 338.339 33.733 338.441 33.7386V35.2812C338.373 35.2699 338.254 35.2528 338.083 35.2301C337.913 35.2074 337.728 35.196 337.529 35.196C336.848 35.196 336.24 35.3409 335.706 35.6307C335.177 35.9148 334.76 36.3097 334.453 36.8153C334.146 37.321 333.993 37.8977 333.993 38.5455V47H332.475ZM352.936 33.9091V35.2301H346.689V33.9091H352.936ZM348.641 30.7727H350.167V43.5824C350.167 44.1278 350.26 44.5568 350.448 44.8693C350.635 45.1761 350.88 45.3949 351.181 45.5256C351.482 45.6506 351.803 45.7131 352.144 45.7131C352.343 45.7131 352.513 45.7017 352.655 45.679C352.797 45.6506 352.922 45.6222 353.03 45.5938L353.354 46.9659C353.206 47.0227 353.025 47.0739 352.809 47.1193C352.593 47.1705 352.326 47.196 352.007 47.196C351.451 47.196 350.914 47.0739 350.397 46.8295C349.885 46.5852 349.465 46.2216 349.135 45.7386C348.806 45.2557 348.641 44.6562 348.641 43.9403V30.7727ZM358.18 38.8182V47H356.663V29.5455H358.18V35.9631H358.316C358.623 35.2869 359.098 34.7472 359.74 34.3438C360.387 33.9403 361.206 33.7386 362.194 33.7386C363.081 33.7386 363.859 33.9205 364.529 34.2841C365.2 34.6477 365.723 35.1847 366.098 35.8949C366.473 36.6051 366.66 37.4801 366.66 38.5199V47H365.135V38.6136C365.135 37.5341 364.833 36.6847 364.231 36.0653C363.635 35.4403 362.828 35.1278 361.811 35.1278C361.112 35.1278 360.49 35.2756 359.944 35.571C359.399 35.8665 358.967 36.2926 358.649 36.8494C358.336 37.4006 358.18 38.0568 358.18 38.8182ZM374.311 47.2983C373.522 47.2983 372.8 47.1449 372.147 46.8381C371.493 46.5256 370.973 46.0767 370.587 45.4915C370.201 44.9006 370.007 44.1847 370.007 43.3438C370.007 42.696 370.13 42.1506 370.374 41.7074C370.618 41.2642 370.965 40.9006 371.414 40.6165C371.863 40.3324 372.394 40.108 373.007 39.9432C373.621 39.7784 374.297 39.6506 375.036 39.5597C375.769 39.4687 376.388 39.3892 376.894 39.321C377.405 39.2528 377.794 39.1449 378.061 38.9972C378.328 38.8494 378.462 38.6108 378.462 38.2812V37.9744C378.462 37.0824 378.195 36.3807 377.661 35.8693C377.132 35.3523 376.371 35.0938 375.377 35.0938C374.434 35.0938 373.664 35.3011 373.067 35.7159C372.476 36.1307 372.061 36.6193 371.823 37.1818L370.382 36.6619C370.678 35.946 371.087 35.375 371.61 34.9489C372.132 34.517 372.718 34.2074 373.365 34.0199C374.013 33.8267 374.669 33.7301 375.334 33.7301C375.834 33.7301 376.354 33.7955 376.894 33.9261C377.439 34.0568 377.945 34.2841 378.411 34.608C378.877 34.9261 379.255 35.3722 379.544 35.946C379.834 36.5142 379.979 37.2358 379.979 38.1108V47H378.462V44.929H378.368C378.186 45.3153 377.917 45.6903 377.559 46.054C377.201 46.4176 376.752 46.7159 376.212 46.9489C375.672 47.1818 375.039 47.2983 374.311 47.2983ZM374.516 45.9091C375.323 45.9091 376.022 45.7301 376.613 45.3722C377.203 45.0142 377.658 44.5398 377.976 43.9489C378.3 43.3523 378.462 42.696 378.462 41.9801V40.0881C378.348 40.196 378.158 40.2926 377.891 40.3778C377.63 40.4631 377.326 40.5398 376.979 40.608C376.638 40.6705 376.297 40.7244 375.956 40.7699C375.615 40.8153 375.309 40.8551 375.036 40.8892C374.297 40.9801 373.667 41.1222 373.144 41.3153C372.621 41.5085 372.221 41.7756 371.942 42.1165C371.664 42.4517 371.525 42.8835 371.525 43.4119C371.525 44.2074 371.809 44.8239 372.377 45.2614C372.945 45.6932 373.658 45.9091 374.516 45.9091ZM385.532 38.8182V47H384.015V33.9091H385.489V35.9631H385.625C385.932 35.2926 386.409 34.7557 387.057 34.3523C387.711 33.9432 388.517 33.7386 389.478 33.7386C390.358 33.7386 391.131 33.9233 391.796 34.2926C392.466 34.6562 392.986 35.1932 393.355 35.9034C393.73 36.6136 393.918 37.4858 393.918 38.5199V47H392.401V38.6136C392.401 37.5398 392.1 36.6903 391.498 36.0653C390.901 35.4403 390.1 35.1278 389.094 35.1278C388.407 35.1278 387.796 35.2756 387.262 35.571C386.728 35.8665 386.304 36.2926 385.992 36.8494C385.685 37.4006 385.532 38.0568 385.532 38.8182ZM409.819 33.9091V35.2301H403.572V33.9091H409.819ZM405.524 30.7727H407.049V43.5824C407.049 44.1278 407.143 44.5568 407.331 44.8693C407.518 45.1761 407.762 45.3949 408.064 45.5256C408.365 45.6506 408.686 45.7131 409.027 45.7131C409.225 45.7131 409.396 45.7017 409.538 45.679C409.68 45.6506 409.805 45.6222 409.913 45.5938L410.237 46.9659C410.089 47.0227 409.907 47.0739 409.691 47.1193C409.475 47.1705 409.208 47.196 408.89 47.196C408.333 47.196 407.797 47.0739 407.279 46.8295C406.768 46.5852 406.348 46.2216 406.018 45.7386C405.689 45.2557 405.524 44.6562 405.524 43.9403V30.7727ZM415.063 38.8182V47H413.546V29.5455H415.063V35.9631H415.199C415.506 35.2869 415.98 34.7472 416.623 34.3438C417.27 33.9403 418.088 33.7386 419.077 33.7386C419.963 33.7386 420.742 33.9205 421.412 34.2841C422.083 34.6477 422.605 35.1847 422.98 35.8949C423.355 36.6051 423.543 37.4801 423.543 38.5199V47H422.017V38.6136C422.017 37.5341 421.716 36.6847 421.114 36.0653C420.517 35.4403 419.711 35.1278 418.694 35.1278C417.995 35.1278 417.373 35.2756 416.827 35.571C416.282 35.8665 415.85 36.2926 415.532 36.8494C415.219 37.4006 415.063 38.0568 415.063 38.8182ZM432.831 47.2727C431.609 47.2727 430.552 46.9886 429.66 46.4205C428.768 45.8466 428.078 45.054 427.589 44.0426C427.106 43.0256 426.865 41.8551 426.865 40.5312C426.865 39.2131 427.106 38.0426 427.589 37.0199C428.078 35.9915 428.751 35.1875 429.609 34.608C430.473 34.0227 431.47 33.7301 432.6 33.7301C433.311 33.7301 433.995 33.8608 434.654 34.1222C435.314 34.3778 435.904 34.7727 436.427 35.3068C436.956 35.8352 437.373 36.5028 437.68 37.3097C437.987 38.1108 438.14 39.0597 438.14 40.1562V40.9062H427.913V39.5682H436.589C436.589 38.7273 436.419 37.9716 436.078 37.3011C435.743 36.625 435.274 36.0909 434.672 35.6989C434.075 35.3068 433.385 35.1108 432.6 35.1108C431.771 35.1108 431.041 35.3324 430.41 35.7756C429.779 36.2187 429.285 36.804 428.927 37.5312C428.575 38.2585 428.396 39.054 428.39 39.9176V40.7188C428.39 41.7585 428.569 42.6676 428.927 43.446C429.291 44.2187 429.805 44.8182 430.47 45.2443C431.135 45.6705 431.922 45.8835 432.831 45.8835C433.45 45.8835 433.993 45.7869 434.458 45.5938C434.93 45.4006 435.325 45.142 435.643 44.8182C435.967 44.4886 436.211 44.1278 436.376 43.7358L437.816 44.2045C437.618 44.7557 437.291 45.2642 436.836 45.7301C436.387 46.196 435.825 46.571 435.149 46.8551C434.478 47.1335 433.706 47.2727 432.831 47.2727ZM457.029 36.7812L455.64 37.1733C455.503 36.7812 455.31 36.4261 455.06 36.108C454.81 35.7898 454.483 35.5369 454.08 35.3494C453.682 35.1619 453.188 35.0682 452.597 35.0682C451.711 35.0682 450.983 35.2784 450.415 35.6989C449.847 36.1193 449.563 36.6619 449.563 37.3267C449.563 37.8892 449.756 38.3466 450.142 38.6989C450.534 39.0455 451.137 39.321 451.949 39.5256L453.926 40.0114C455.023 40.2784 455.844 40.7017 456.39 41.2812C456.941 41.8608 457.216 42.5881 457.216 43.4631C457.216 44.2017 457.012 44.858 456.603 45.4318C456.194 46.0057 455.623 46.4574 454.89 46.7869C454.162 47.1108 453.319 47.2727 452.358 47.2727C451.08 47.2727 450.026 46.9858 449.196 46.4119C448.367 45.8324 447.836 44.9972 447.603 43.9062L449.06 43.5483C449.248 44.3267 449.614 44.9148 450.159 45.3125C450.711 45.7102 451.435 45.9091 452.333 45.9091C453.338 45.9091 454.142 45.6847 454.745 45.2358C455.347 44.7812 455.648 44.2131 455.648 43.5312C455.648 43.0028 455.472 42.5597 455.12 42.2017C454.767 41.8381 454.233 41.571 453.517 41.4006L451.378 40.8892C450.242 40.6165 449.401 40.1847 448.855 39.5938C448.31 39.0028 448.037 38.2699 448.037 37.3949C448.037 36.6733 448.233 36.0398 448.625 35.4943C449.017 34.9432 449.557 34.5114 450.245 34.1989C450.932 33.8864 451.716 33.7301 452.597 33.7301C453.796 33.7301 454.753 34.0028 455.469 34.5483C456.191 35.0881 456.711 35.8324 457.029 36.7812ZM465.831 47.2727C464.609 47.2727 463.552 46.9886 462.66 46.4205C461.768 45.8466 461.078 45.054 460.589 44.0426C460.106 43.0256 459.865 41.8551 459.865 40.5312C459.865 39.2131 460.106 38.0426 460.589 37.0199C461.078 35.9915 461.751 35.1875 462.609 34.608C463.473 34.0227 464.47 33.7301 465.6 33.7301C466.311 33.7301 466.995 33.8608 467.654 34.1222C468.314 34.3778 468.904 34.7727 469.427 35.3068C469.956 35.8352 470.373 36.5028 470.68 37.3097C470.987 38.1108 471.14 39.0597 471.14 40.1562V40.9062H460.913V39.5682H469.589C469.589 38.7273 469.419 37.9716 469.078 37.3011C468.743 36.625 468.274 36.0909 467.672 35.6989C467.075 35.3068 466.385 35.1108 465.6 35.1108C464.771 35.1108 464.041 35.3324 463.41 35.7756C462.779 36.2187 462.285 36.804 461.927 37.5312C461.575 38.2585 461.396 39.054 461.39 39.9176V40.7188C461.39 41.7585 461.569 42.6676 461.927 43.446C462.291 44.2187 462.805 44.8182 463.47 45.2443C464.135 45.6705 464.922 45.8835 465.831 45.8835C466.45 45.8835 466.993 45.7869 467.458 45.5938C467.93 45.4006 468.325 45.142 468.643 44.8182C468.967 44.4886 469.211 44.1278 469.376 43.7358L470.816 44.2045C470.618 44.7557 470.291 45.2642 469.836 45.7301C469.387 46.196 468.825 46.571 468.149 46.8551C467.478 47.1335 466.706 47.2727 465.831 47.2727ZM479.597 47.2727C478.426 47.2727 477.407 46.9801 476.537 46.3949C475.674 45.8097 475.003 45.0085 474.526 43.9915C474.049 42.9744 473.81 41.8153 473.81 40.5142C473.81 39.2017 474.051 38.0341 474.534 37.0114C475.023 35.9886 475.699 35.1875 476.563 34.608C477.426 34.0227 478.429 33.7301 479.571 33.7301C480.446 33.7301 481.239 33.9006 481.949 34.2415C482.659 34.5767 483.245 35.0511 483.705 35.6648C484.171 36.2727 484.463 36.983 484.583 37.7955H483.049C482.89 37.0568 482.506 36.4261 481.898 35.9034C481.296 35.375 480.529 35.1108 479.597 35.1108C478.762 35.1108 478.023 35.3381 477.381 35.7926C476.739 36.2415 476.236 36.8693 475.873 37.6761C475.515 38.4773 475.336 39.4062 475.336 40.4631C475.336 41.5256 475.512 42.4659 475.864 43.2841C476.216 44.0966 476.711 44.733 477.347 45.1932C477.989 45.6534 478.739 45.8835 479.597 45.8835C480.176 45.8835 480.705 45.7756 481.182 45.5597C481.665 45.3381 482.069 45.0256 482.392 44.6222C482.722 44.2187 482.944 43.7386 483.057 43.1818H484.591C484.478 43.9716 484.196 44.6761 483.748 45.2955C483.304 45.9091 482.728 46.392 482.017 46.7443C481.313 47.0966 480.506 47.2727 479.597 47.2727ZM492.931 47.2727C491.8 47.2727 490.8 46.9858 489.931 46.4119C489.067 45.8381 488.391 45.0455 487.902 44.0341C487.414 43.017 487.169 41.8437 487.169 40.5142C487.169 39.1733 487.414 37.9943 487.902 36.9773C488.391 35.9545 489.067 35.1591 489.931 34.5909C490.8 34.017 491.8 33.7301 492.931 33.7301C494.061 33.7301 495.059 34.017 495.922 34.5909C496.786 35.1648 497.462 35.9602 497.951 36.9773C498.445 37.9943 498.692 39.1733 498.692 40.5142C498.692 41.8437 498.448 43.017 497.959 44.0341C497.471 45.0455 496.792 45.8381 495.922 46.4119C495.059 46.9858 494.061 47.2727 492.931 47.2727ZM492.931 45.8835C493.84 45.8835 494.61 45.6392 495.24 45.1506C495.871 44.6619 496.348 44.0114 496.672 43.1989C497.002 42.3864 497.167 41.4915 497.167 40.5142C497.167 39.5369 497.002 38.6392 496.672 37.821C496.348 37.0028 495.871 36.3466 495.24 35.8523C494.61 35.358 493.84 35.1108 492.931 35.1108C492.027 35.1108 491.257 35.358 490.621 35.8523C489.99 36.3466 489.51 37.0028 489.181 37.821C488.857 38.6392 488.695 39.5369 488.695 40.5142C488.695 41.4915 488.857 42.3864 489.181 43.1989C489.51 44.0114 489.99 44.6619 490.621 45.1506C491.252 45.6392 492.022 45.8835 492.931 45.8835ZM503.539 38.8182V47H502.022V33.9091H503.497V35.9631H503.633C503.94 35.2926 504.417 34.7557 505.065 34.3523C505.718 33.9432 506.525 33.7386 507.485 33.7386C508.366 33.7386 509.139 33.9233 509.804 34.2926C510.474 34.6562 510.994 35.1932 511.363 35.9034C511.738 36.6136 511.926 37.4858 511.926 38.5199V47H510.409V38.6136C510.409 37.5398 510.108 36.6903 509.505 36.0653C508.909 35.4403 508.108 35.1278 507.102 35.1278C506.414 35.1278 505.804 35.2756 505.27 35.571C504.735 35.8665 504.312 36.2926 504 36.8494C503.693 37.4006 503.539 38.0568 503.539 38.8182ZM520.634 47.2727C519.56 47.2727 518.62 46.9886 517.813 46.4205C517.006 45.8523 516.375 45.0597 515.921 44.0426C515.472 43.0256 515.248 41.8409 515.248 40.4886C515.248 39.142 515.472 37.9631 515.921 36.9517C516.375 35.9347 517.009 35.1449 517.821 34.5824C518.634 34.0142 519.58 33.7301 520.659 33.7301C521.455 33.7301 522.117 33.8722 522.645 34.1562C523.174 34.4347 523.597 34.7812 523.915 35.196C524.233 35.6108 524.48 36.0142 524.657 36.4062H524.793V29.5455H526.319V47H524.836V44.571H524.657C524.48 44.9687 524.23 45.3778 523.907 45.7983C523.583 46.2131 523.154 46.5625 522.62 46.8466C522.091 47.1307 521.429 47.2727 520.634 47.2727ZM520.813 45.8835C521.659 45.8835 522.381 45.6534 522.978 45.1932C523.574 44.7273 524.029 44.0881 524.341 43.2756C524.659 42.4574 524.819 41.5199 524.819 40.4631C524.819 39.4176 524.662 38.4943 524.35 37.6932C524.037 36.8864 523.583 36.2557 522.986 35.8011C522.39 35.3409 521.665 35.1108 520.813 35.1108C519.938 35.1108 519.199 35.3494 518.597 35.8267C518 36.2983 517.546 36.9375 517.233 37.7443C516.926 38.5511 516.773 39.4574 516.773 40.4631C516.773 41.4801 516.929 42.3977 517.242 43.2159C517.554 44.0341 518.009 44.6847 518.605 45.1676C519.208 45.6449 519.944 45.8835 520.813 45.8835ZM537.705 38.8011V40.233H530.444V38.8011H537.705ZM541.515 51.9091V33.9091H542.989V36.4062H543.168C543.35 36.0142 543.6 35.6136 543.918 35.2045C544.236 34.7898 544.657 34.4403 545.179 34.1562C545.708 33.8722 546.373 33.7301 547.174 33.7301C548.253 33.7301 549.196 34.0142 550.003 34.5824C550.816 35.1449 551.446 35.9347 551.895 36.9517C552.35 37.9631 552.577 39.142 552.577 40.4886C552.577 41.8409 552.35 43.0256 551.895 44.0426C551.446 45.0597 550.816 45.8523 550.003 46.4205C549.196 46.9886 548.259 47.2727 547.191 47.2727C546.401 47.2727 545.739 47.1307 545.205 46.8466C544.676 46.5625 544.248 46.2131 543.918 45.7983C543.594 45.3778 543.344 44.9687 543.168 44.571H543.032V51.9091H541.515ZM543.015 40.4631C543.015 41.5199 543.171 42.4574 543.483 43.2756C543.801 44.0881 544.256 44.7273 544.847 45.1932C545.444 45.6534 546.165 45.8835 547.012 45.8835C547.881 45.8835 548.614 45.6449 549.211 45.1676C549.813 44.6847 550.27 44.0341 550.583 43.2159C550.901 42.3977 551.06 41.4801 551.06 40.4631C551.06 39.4574 550.904 38.5511 550.591 37.7443C550.284 36.9375 549.83 36.2983 549.228 35.8267C548.625 35.3494 547.887 35.1108 547.012 35.1108C546.159 35.1108 545.435 35.3409 544.838 35.8011C544.242 36.2557 543.787 36.8864 543.475 37.6932C543.168 38.4943 543.015 39.4176 543.015 40.4631ZM557.422 29.5455V47H555.905V29.5455H557.422ZM565.093 47.2983C564.303 47.2983 563.581 47.1449 562.928 46.8381C562.275 46.5256 561.755 46.0767 561.368 45.4915C560.982 44.9006 560.789 44.1847 560.789 43.3438C560.789 42.696 560.911 42.1506 561.155 41.7074C561.4 41.2642 561.746 40.9006 562.195 40.6165C562.644 40.3324 563.175 40.108 563.789 39.9432C564.402 39.7784 565.078 39.6506 565.817 39.5597C566.55 39.4687 567.169 39.3892 567.675 39.321C568.186 39.2528 568.576 39.1449 568.843 38.9972C569.11 38.8494 569.243 38.6108 569.243 38.2812V37.9744C569.243 37.0824 568.976 36.3807 568.442 35.8693C567.914 35.3523 567.152 35.0938 566.158 35.0938C565.215 35.0938 564.445 35.3011 563.848 35.7159C563.257 36.1307 562.843 36.6193 562.604 37.1818L561.164 36.6619C561.459 35.946 561.868 35.375 562.391 34.9489C562.914 34.517 563.499 34.2074 564.147 34.0199C564.794 33.8267 565.451 33.7301 566.115 33.7301C566.615 33.7301 567.135 33.7955 567.675 33.9261C568.221 34.0568 568.726 34.2841 569.192 34.608C569.658 34.9261 570.036 35.3722 570.326 35.946C570.615 36.5142 570.76 37.2358 570.76 38.1108V47H569.243V44.929H569.15C568.968 45.3153 568.698 45.6903 568.34 46.054C567.982 46.4176 567.533 46.7159 566.993 46.9489C566.453 47.1818 565.82 47.2983 565.093 47.2983ZM565.297 45.9091C566.104 45.9091 566.803 45.7301 567.394 45.3722C567.985 45.0142 568.439 44.5398 568.757 43.9489C569.081 43.3523 569.243 42.696 569.243 41.9801V40.0881C569.13 40.196 568.939 40.2926 568.672 40.3778C568.411 40.4631 568.107 40.5398 567.76 40.608C567.419 40.6705 567.078 40.7244 566.738 40.7699C566.397 40.8153 566.09 40.8551 565.817 40.8892C565.078 40.9801 564.448 41.1222 563.925 41.3153C563.402 41.5085 563.002 41.7756 562.723 42.1165C562.445 42.4517 562.306 42.8835 562.306 43.4119C562.306 44.2074 562.59 44.8239 563.158 45.2614C563.726 45.6932 564.439 45.9091 565.297 45.9091ZM579.909 47.2727C578.739 47.2727 577.719 46.9801 576.85 46.3949C575.986 45.8097 575.316 45.0085 574.838 43.9915C574.361 42.9744 574.123 41.8153 574.123 40.5142C574.123 39.2017 574.364 38.0341 574.847 37.0114C575.336 35.9886 576.012 35.1875 576.875 34.608C577.739 34.0227 578.742 33.7301 579.884 33.7301C580.759 33.7301 581.551 33.9006 582.262 34.2415C582.972 34.5767 583.557 35.0511 584.017 35.6648C584.483 36.2727 584.776 36.983 584.895 37.7955H583.361C583.202 37.0568 582.819 36.4261 582.211 35.9034C581.608 35.375 580.841 35.1108 579.909 35.1108C579.074 35.1108 578.336 35.3381 577.694 35.7926C577.051 36.2415 576.549 36.8693 576.185 37.6761C575.827 38.4773 575.648 39.4062 575.648 40.4631C575.648 41.5256 575.824 42.4659 576.176 43.2841C576.529 44.0966 577.023 44.733 577.659 45.1932C578.301 45.6534 579.051 45.8835 579.909 45.8835C580.489 45.8835 581.017 45.7756 581.495 45.5597C581.978 45.3381 582.381 45.0256 582.705 44.6222C583.034 44.2187 583.256 43.7386 583.37 43.1818H584.904C584.79 43.9716 584.509 44.6761 584.06 45.2955C583.617 45.9091 583.04 46.392 582.33 46.7443C581.625 47.0966 580.819 47.2727 579.909 47.2727ZM593.448 47.2727C592.226 47.2727 591.169 46.9886 590.277 46.4205C589.385 45.8466 588.695 45.054 588.206 44.0426C587.723 43.0256 587.482 41.8551 587.482 40.5312C587.482 39.2131 587.723 38.0426 588.206 37.0199C588.695 35.9915 589.368 35.1875 590.226 34.608C591.09 34.0227 592.087 33.7301 593.218 33.7301C593.928 33.7301 594.613 33.8608 595.272 34.1222C595.931 34.3778 596.522 34.7727 597.044 35.3068C597.573 35.8352 597.99 36.5028 598.297 37.3097C598.604 38.1108 598.757 39.0597 598.757 40.1562V40.9062H588.53V39.5682H597.206C597.206 38.7273 597.036 37.9716 596.695 37.3011C596.36 36.625 595.891 36.0909 595.289 35.6989C594.692 35.3068 594.002 35.1108 593.218 35.1108C592.388 35.1108 591.658 35.3324 591.027 35.7756C590.397 36.2187 589.902 36.804 589.544 37.5312C589.192 38.2585 589.013 39.054 589.007 39.9176V40.7188C589.007 41.7585 589.186 42.6676 589.544 43.446C589.908 44.2187 590.422 44.8182 591.087 45.2443C591.752 45.6705 592.539 45.8835 593.448 45.8835C594.067 45.8835 594.61 45.7869 595.076 45.5938C595.547 45.4006 595.942 45.142 596.26 44.8182C596.584 44.4886 596.828 44.1278 596.993 43.7358L598.434 44.2045C598.235 44.7557 597.908 45.2642 597.453 45.7301C597.005 46.196 596.442 46.571 595.766 46.8551C595.096 47.1335 594.323 47.2727 593.448 47.2727ZM613.564 47.2727C612.49 47.2727 611.549 46.9886 610.743 46.4205C609.936 45.8523 609.305 45.0597 608.85 44.0426C608.402 43.0256 608.177 41.8409 608.177 40.4886C608.177 39.142 608.402 37.9631 608.85 36.9517C609.305 35.9347 609.939 35.1449 610.751 34.5824C611.564 34.0142 612.51 33.7301 613.589 33.7301C614.385 33.7301 615.047 33.8722 615.575 34.1562C616.103 34.4347 616.527 34.7812 616.845 35.196C617.163 35.6108 617.41 36.0142 617.586 36.4062H617.723V29.5455H619.248V47H617.765V44.571H617.586C617.41 44.9687 617.16 45.3778 616.836 45.7983C616.512 46.2131 616.083 46.5625 615.549 46.8466C615.021 47.1307 614.359 47.2727 613.564 47.2727ZM613.743 45.8835C614.589 45.8835 615.311 45.6534 615.907 45.1932C616.504 44.7273 616.958 44.0881 617.271 43.2756C617.589 42.4574 617.748 41.5199 617.748 40.4631C617.748 39.4176 617.592 38.4943 617.279 37.6932C616.967 36.8864 616.512 36.2557 615.916 35.8011C615.319 35.3409 614.595 35.1108 613.743 35.1108C612.868 35.1108 612.129 35.3494 611.527 35.8267C610.93 36.2983 610.475 36.9375 610.163 37.7443C609.856 38.5511 609.703 39.4574 609.703 40.4631C609.703 41.4801 609.859 42.3977 610.172 43.2159C610.484 44.0341 610.939 44.6847 611.535 45.1676C612.137 45.6449 612.873 45.8835 613.743 45.8835ZM628.657 47.2727C627.527 47.2727 626.527 46.9858 625.657 46.4119C624.794 45.8381 624.118 45.0455 623.629 44.0341C623.14 43.017 622.896 41.8437 622.896 40.5142C622.896 39.1733 623.14 37.9943 623.629 36.9773C624.118 35.9545 624.794 35.1591 625.657 34.5909C626.527 34.017 627.527 33.7301 628.657 33.7301C629.788 33.7301 630.785 34.017 631.649 34.5909C632.512 35.1648 633.189 35.9602 633.677 36.9773C634.172 37.9943 634.419 39.1733 634.419 40.5142C634.419 41.8437 634.174 43.017 633.686 44.0341C633.197 45.0455 632.518 45.8381 631.649 46.4119C630.785 46.9858 629.788 47.2727 628.657 47.2727ZM628.657 45.8835C629.566 45.8835 630.336 45.6392 630.967 45.1506C631.598 44.6619 632.075 44.0114 632.399 43.1989C632.728 42.3864 632.893 41.4915 632.893 40.5142C632.893 39.5369 632.728 38.6392 632.399 37.821C632.075 37.0028 631.598 36.3466 630.967 35.8523C630.336 35.358 629.566 35.1108 628.657 35.1108C627.754 35.1108 626.984 35.358 626.348 35.8523C625.717 36.3466 625.237 37.0028 624.907 37.821C624.583 38.6392 624.422 39.5369 624.422 40.5142C624.422 41.4915 624.583 42.3864 624.907 43.1989C625.237 44.0114 625.717 44.6619 626.348 45.1506C626.978 45.6392 627.748 45.8835 628.657 45.8835ZM637.749 47V33.9091H639.223V35.9205H639.36C639.621 35.2443 640.056 34.7131 640.664 34.3267C641.277 33.9347 642.013 33.7386 642.871 33.7386C643.775 33.7386 644.516 33.9517 645.096 34.3778C645.681 34.7983 646.118 35.3778 646.408 36.1165H646.519C646.814 35.3892 647.294 34.8125 647.959 34.3864C648.63 33.9545 649.442 33.7386 650.397 33.7386C651.613 33.7386 652.573 34.1222 653.277 34.8892C653.982 35.6506 654.334 36.7642 654.334 38.2301V47H652.817V38.2301C652.817 37.196 652.553 36.4205 652.025 35.9034C651.496 35.3864 650.8 35.1278 649.936 35.1278C648.936 35.1278 648.167 35.4347 647.627 36.0483C647.087 36.6619 646.817 37.4403 646.817 38.3835V47H645.266V38.0938C645.266 37.2074 645.019 36.4915 644.525 35.946C644.03 35.4006 643.334 35.1278 642.436 35.1278C641.834 35.1278 641.292 35.2756 640.809 35.571C640.331 35.8665 639.953 36.2784 639.675 36.8068C639.402 37.3295 639.266 37.9318 639.266 38.6136V47H637.749ZM663.643 47.2727C662.422 47.2727 661.365 46.9886 660.473 46.4205C659.581 45.8466 658.89 45.054 658.402 44.0426C657.919 43.0256 657.677 41.8551 657.677 40.5312C657.677 39.2131 657.919 38.0426 658.402 37.0199C658.89 35.9915 659.564 35.1875 660.422 34.608C661.285 34.0227 662.282 33.7301 663.413 33.7301C664.123 33.7301 664.808 33.8608 665.467 34.1222C666.126 34.3778 666.717 34.7727 667.24 35.3068C667.768 35.8352 668.186 36.5028 668.493 37.3097C668.799 38.1108 668.953 39.0597 668.953 40.1562V40.9062H658.725V39.5682H667.402C667.402 38.7273 667.231 37.9716 666.89 37.3011C666.555 36.625 666.086 36.0909 665.484 35.6989C664.887 35.3068 664.197 35.1108 663.413 35.1108C662.583 35.1108 661.853 35.3324 661.223 35.7756C660.592 36.2187 660.098 36.804 659.74 37.5312C659.387 38.2585 659.208 39.054 659.203 39.9176V40.7188C659.203 41.7585 659.382 42.6676 659.74 43.446C660.103 44.2187 660.618 44.8182 661.282 45.2443C661.947 45.6705 662.734 45.8835 663.643 45.8835C664.262 45.8835 664.805 45.7869 665.271 45.5938C665.743 45.4006 666.137 45.142 666.456 44.8182C666.779 44.4886 667.024 44.1278 667.189 43.7358L668.629 44.2045C668.43 44.7557 668.103 45.2642 667.649 45.7301C667.2 46.196 666.637 46.571 665.961 46.8551C665.291 47.1335 664.518 47.2727 663.643 47.2727ZM681.091 36.7812L679.702 37.1733C679.566 36.7812 679.373 36.4261 679.123 36.108C678.873 35.7898 678.546 35.5369 678.142 35.3494C677.745 35.1619 677.25 35.0682 676.659 35.0682C675.773 35.0682 675.046 35.2784 674.478 35.6989C673.909 36.1193 673.625 36.6619 673.625 37.3267C673.625 37.8892 673.819 38.3466 674.205 38.6989C674.597 39.0455 675.199 39.321 676.012 39.5256L677.989 40.0114C679.086 40.2784 679.907 40.7017 680.452 41.2812C681.003 41.8608 681.279 42.5881 681.279 43.4631C681.279 44.2017 681.074 44.858 680.665 45.4318C680.256 46.0057 679.685 46.4574 678.952 46.7869C678.225 47.1108 677.381 47.2727 676.421 47.2727C675.142 47.2727 674.088 46.9858 673.259 46.4119C672.429 45.8324 671.898 44.9972 671.665 43.9062L673.123 43.5483C673.31 44.3267 673.676 44.9148 674.222 45.3125C674.773 45.7102 675.498 45.9091 676.395 45.9091C677.401 45.9091 678.205 45.6847 678.807 45.2358C679.409 44.7812 679.711 44.2131 679.711 43.5312C679.711 43.0028 679.534 42.5597 679.182 42.2017C678.83 41.8381 678.296 41.571 677.58 41.4006L675.441 40.8892C674.304 40.6165 673.463 40.1847 672.918 39.5938C672.373 39.0028 672.1 38.2699 672.1 37.3949C672.1 36.6733 672.296 36.0398 672.688 35.4943C673.08 34.9432 673.62 34.5114 674.307 34.1989C674.995 33.8864 675.779 33.7301 676.659 33.7301C677.858 33.7301 678.816 34.0028 679.532 34.5483C680.253 35.0881 680.773 35.8324 681.091 36.7812ZM689.757 33.9091V35.2301H683.51V33.9091H689.757ZM685.461 30.7727H686.987V43.5824C686.987 44.1278 687.081 44.5568 687.268 44.8693C687.456 45.1761 687.7 45.3949 688.001 45.5256C688.302 45.6506 688.623 45.7131 688.964 45.7131C689.163 45.7131 689.333 45.7017 689.475 45.679C689.618 45.6506 689.743 45.6222 689.85 45.5938L690.174 46.9659C690.027 47.0227 689.845 47.0739 689.629 47.1193C689.413 47.1705 689.146 47.196 688.828 47.196C688.271 47.196 687.734 47.0739 687.217 46.8295C686.706 46.5852 686.285 46.2216 685.956 45.7386C685.626 45.2557 685.461 44.6562 685.461 43.9403V30.7727ZM693.219 47V33.9091H694.745V47H693.219ZM693.995 31.6591C693.682 31.6591 693.415 31.554 693.194 31.3438C692.972 31.1278 692.861 30.8693 692.861 30.5682C692.861 30.267 692.972 30.0114 693.194 29.8011C693.415 29.5852 693.682 29.4773 693.995 29.4773C694.307 29.4773 694.574 29.5852 694.796 29.8011C695.017 30.0114 695.128 30.267 695.128 30.5682C695.128 30.8693 695.017 31.1278 694.796 31.3438C694.574 31.554 694.307 31.6591 693.995 31.6591ZM703.87 47.2727C702.7 47.2727 701.68 46.9801 700.811 46.3949C699.947 45.8097 699.277 45.0085 698.799 43.9915C698.322 42.9744 698.083 41.8153 698.083 40.5142C698.083 39.2017 698.325 38.0341 698.808 37.0114C699.297 35.9886 699.973 35.1875 700.836 34.608C701.7 34.0227 702.703 33.7301 703.845 33.7301C704.72 33.7301 705.512 33.9006 706.223 34.2415C706.933 34.5767 707.518 35.0511 707.978 35.6648C708.444 36.2727 708.737 36.983 708.856 37.7955H707.322C707.163 37.0568 706.779 36.4261 706.172 35.9034C705.569 35.375 704.802 35.1108 703.87 35.1108C703.035 35.1108 702.297 35.3381 701.654 35.7926C701.012 36.2415 700.51 36.8693 700.146 37.6761C699.788 38.4773 699.609 39.4062 699.609 40.4631C699.609 41.5256 699.785 42.4659 700.137 43.2841C700.49 44.0966 700.984 44.733 701.62 45.1932C702.262 45.6534 703.012 45.8835 703.87 45.8835C704.45 45.8835 704.978 45.7756 705.456 45.5597C705.939 45.3381 706.342 45.0256 706.666 44.6222C706.995 44.2187 707.217 43.7386 707.331 43.1818H708.865C708.751 43.9716 708.47 44.6761 708.021 45.2955C707.578 45.9091 707.001 46.392 706.291 46.7443C705.586 47.0966 704.779 47.2727 703.87 47.2727ZM724.252 33.9091V35.2301H717.818V33.9091H724.252ZM719.829 47V31.9915C719.829 31.2869 719.991 30.6932 720.315 30.2102C720.645 29.7273 721.074 29.3608 721.602 29.1108C722.13 28.8608 722.69 28.7358 723.281 28.7358C723.679 28.7358 724.008 28.7699 724.27 28.8381C724.537 28.9006 724.747 28.9631 724.9 29.0256L724.457 30.3551C724.343 30.321 724.204 30.2812 724.039 30.2358C723.875 30.1903 723.667 30.1676 723.417 30.1676C722.758 30.1676 722.25 30.3523 721.892 30.7216C721.534 31.0909 721.355 31.6193 721.355 32.3068L721.346 47H719.829ZM727.297 47V33.9091H728.823V47H727.297ZM728.073 31.6591C727.76 31.6591 727.493 31.554 727.272 31.3438C727.05 31.1278 726.939 30.8693 726.939 30.5682C726.939 30.267 727.05 30.0114 727.272 29.8011C727.493 29.5852 727.76 29.4773 728.073 29.4773C728.385 29.4773 728.652 29.5852 728.874 29.8011C729.096 30.0114 729.206 30.267 729.206 30.5682C729.206 30.8693 729.096 31.1278 728.874 31.3438C728.652 31.554 728.385 31.6591 728.073 31.6591ZM732.835 47V33.9091H734.309V35.9205H734.42C734.681 35.2614 735.136 34.7301 735.784 34.3267C736.437 33.9176 737.176 33.7131 738 33.7131C738.125 33.7131 738.264 33.7159 738.417 33.7216C738.571 33.7273 738.699 33.733 738.801 33.7386V35.2812C738.733 35.2699 738.613 35.2528 738.443 35.2301C738.272 35.2074 738.088 35.196 737.889 35.196C737.207 35.196 736.599 35.3409 736.065 35.6307C735.537 35.9148 735.119 36.3097 734.812 36.8153C734.505 37.321 734.352 37.8977 734.352 38.5455V47H732.835ZM741.39 47V33.9091H742.864V35.9205H743C743.262 35.2443 743.696 34.7131 744.304 34.3267C744.918 33.9347 745.654 33.7386 746.512 33.7386C747.415 33.7386 748.157 33.9517 748.736 34.3778C749.321 34.7983 749.759 35.3778 750.049 36.1165H750.159C750.455 35.3892 750.935 34.8125 751.6 34.3864C752.27 33.9545 753.083 33.7386 754.037 33.7386C755.253 33.7386 756.213 34.1222 756.918 34.8892C757.623 35.6506 757.975 36.7642 757.975 38.2301V47H756.458V38.2301C756.458 37.196 756.194 36.4205 755.665 35.9034C755.137 35.3864 754.441 35.1278 753.577 35.1278C752.577 35.1278 751.807 35.4347 751.267 36.0483C750.728 36.6619 750.458 37.4403 750.458 38.3835V47H748.907V38.0938C748.907 37.2074 748.659 36.4915 748.165 35.946C747.671 35.4006 746.975 35.1278 746.077 35.1278C745.475 35.1278 744.932 35.2756 744.449 35.571C743.972 35.8665 743.594 36.2784 743.316 36.8068C743.043 37.3295 742.907 37.9318 742.907 38.6136V47H741.39ZM763.201 47.1278C762.866 47.1278 762.576 47.0085 762.332 46.7699C762.093 46.5256 761.974 46.2358 761.974 45.9006C761.974 45.5597 762.093 45.2699 762.332 45.0312C762.576 44.7926 762.866 44.6733 763.201 44.6733C763.542 44.6733 763.832 44.7926 764.071 45.0312C764.309 45.2699 764.429 45.5597 764.429 45.9006C764.429 46.1222 764.372 46.3267 764.258 46.5142C764.15 46.7017 764.002 46.8523 763.815 46.9659C763.633 47.0739 763.429 47.1278 763.201 47.1278Z" fill="#24408E"/>
</svg>
