<svg width="100%" viewBox="0 0 1296 63" fill="none" xmlns="http://www.w3.org/2000/svg">
<line x1="4.37114e-08" y1="0.5" x2="1296" y2="0.500113" stroke="url(#paint0_linear_158_783)"/>
<path d="M13.2443 47.6477L9.51136 51.3807L5.72727 47.6477L9.51136 43.8636L13.2443 47.6477ZM18.0511 52.4545L14.3182 56.2386L10.5852 52.4545L14.3182 48.7216L18.0511 52.4545ZM8.4375 52.4545L4.65341 56.2386L0.869318 52.4545L4.65341 48.7216L8.4375 52.4545ZM13.2443 57.3125L9.51136 61.0455L5.72727 57.3125L9.51136 53.5284L13.2443 57.3125ZM25.5618 59V45.9091H29.9851C31.0078 45.9091 31.8473 46.0838 32.5036 46.4332C33.1598 46.7784 33.6456 47.2536 33.9609 47.8587C34.2763 48.4638 34.4339 49.152 34.4339 49.9233C34.4339 50.6946 34.2763 51.3786 33.9609 51.9751C33.6456 52.5717 33.1619 53.0405 32.5099 53.3814C31.858 53.718 31.0249 53.8864 30.0107 53.8864H26.4311V52.4545H29.9595C30.6584 52.4545 31.2209 52.3523 31.647 52.1477C32.0774 51.9432 32.3885 51.6534 32.5803 51.2784C32.7763 50.8991 32.8743 50.4474 32.8743 49.9233C32.8743 49.3991 32.7763 48.9411 32.5803 48.549C32.3842 48.157 32.071 47.8544 31.6406 47.6413C31.2102 47.424 30.6413 47.3153 29.9339 47.3153H27.147V59H25.5618ZM31.7237 53.1193L34.9453 59H33.1044L29.9339 53.1193H31.7237ZM40.8819 59.2045C39.9359 59.2045 39.1199 58.9957 38.4338 58.5781C37.752 58.1562 37.2257 57.5682 36.8549 56.8139C36.4885 56.0554 36.3052 55.1733 36.3052 54.1676C36.3052 53.1619 36.4885 52.2756 36.8549 51.5085C37.2257 50.7372 37.7413 50.1364 38.4018 49.706C39.0666 49.2713 39.8422 49.054 40.7285 49.054C41.2399 49.054 41.7449 49.1392 42.2434 49.3097C42.742 49.4801 43.1958 49.7571 43.6049 50.1406C44.014 50.5199 44.34 51.0227 44.5829 51.6491C44.8258 52.2756 44.9473 53.0469 44.9473 53.9631V54.6023H37.3791V53.2983H43.4132C43.4132 52.7443 43.3024 52.25 43.0808 51.8153C42.8635 51.3807 42.5524 51.0376 42.1476 50.7862C41.747 50.5348 41.274 50.4091 40.7285 50.4091C40.1277 50.4091 39.6078 50.5582 39.1689 50.8565C38.7342 51.1506 38.3997 51.5341 38.1653 52.0071C37.9309 52.4801 37.8137 52.9872 37.8137 53.5284V54.3977C37.8137 55.1392 37.9416 55.7678 38.1973 56.2834C38.4572 56.7947 38.8173 57.1847 39.2775 57.4531C39.7377 57.7173 40.2726 57.8494 40.8819 57.8494C41.2782 57.8494 41.6362 57.794 41.9558 57.6832C42.2797 57.5682 42.5588 57.3977 42.7931 57.1719C43.0275 56.9418 43.2086 56.6562 43.3365 56.3153L44.7939 56.7244C44.6404 57.2188 44.3826 57.6534 44.0204 58.0284C43.6582 58.3991 43.2108 58.6889 42.6781 58.8977C42.1454 59.1023 41.5467 59.2045 40.8819 59.2045ZM54.9716 49.1818L51.3409 59H49.8068L46.1761 49.1818H47.8125L50.5227 57.0057H50.625L53.3352 49.1818H54.9716ZM60.7276 59.2045C59.7816 59.2045 58.9656 58.9957 58.2795 58.5781C57.5977 58.1562 57.0714 57.5682 56.7006 56.8139C56.3342 56.0554 56.1509 55.1733 56.1509 54.1676C56.1509 53.1619 56.3342 52.2756 56.7006 51.5085C57.0714 50.7372 57.587 50.1364 58.2475 49.706C58.9123 49.2713 59.6879 49.054 60.5742 49.054C61.0856 49.054 61.5906 49.1392 62.0891 49.3097C62.5877 49.4801 63.0415 49.7571 63.4506 50.1406C63.8597 50.5199 64.1857 51.0227 64.4286 51.6491C64.6715 52.2756 64.793 53.0469 64.793 53.9631V54.6023H57.2248V53.2983H63.2589C63.2589 52.7443 63.1481 52.25 62.9265 51.8153C62.7092 51.3807 62.3981 51.0376 61.9933 50.7862C61.5927 50.5348 61.1197 50.4091 60.5742 50.4091C59.9734 50.4091 59.4535 50.5582 59.0146 50.8565C58.5799 51.1506 58.2454 51.5341 58.011 52.0071C57.7766 52.4801 57.6594 52.9872 57.6594 53.5284V54.3977C57.6594 55.1392 57.7873 55.7678 58.043 56.2834C58.3029 56.7947 58.663 57.1847 59.1232 57.4531C59.5835 57.7173 60.1183 57.8494 60.7276 57.8494C61.1239 57.8494 61.4819 57.794 61.8015 57.6832C62.1254 57.5682 62.4045 57.3977 62.6388 57.1719C62.8732 56.9418 63.0543 56.6562 63.1822 56.3153L64.6396 56.7244C64.4862 57.2188 64.2283 57.6534 63.8661 58.0284C63.5039 58.3991 63.0565 58.6889 62.5238 58.8977C61.9911 59.1023 61.3924 59.2045 60.7276 59.2045ZM68.5962 53.0938V59H67.0877V49.1818H68.5451V50.7159H68.6729C68.9031 50.2173 69.2525 49.8168 69.7212 49.5142C70.19 49.2074 70.7951 49.054 71.5366 49.054C72.2013 49.054 72.783 49.1903 73.2816 49.4631C73.7802 49.7315 74.168 50.1406 74.445 50.6903C74.7219 51.2358 74.8604 51.9261 74.8604 52.7614V59H73.3519V52.8636C73.3519 52.0923 73.1516 51.4915 72.7511 51.0611C72.3505 50.6264 71.8008 50.4091 71.1019 50.4091C70.6204 50.4091 70.19 50.5135 69.8107 50.7223C69.4357 50.9311 69.1396 51.2358 68.9222 51.6364C68.7049 52.0369 68.5962 52.5227 68.5962 53.0938ZM83.8045 54.9858V49.1818H85.313V59H83.8045V57.3381H83.7022C83.4721 57.8366 83.1142 58.2607 82.6284 58.6101C82.1426 58.9553 81.5289 59.1278 80.7875 59.1278C80.1738 59.1278 79.6284 58.9936 79.1511 58.7251C78.6738 58.4524 78.2988 58.0433 78.0261 57.4979C77.7534 56.9482 77.617 56.2557 77.617 55.4205V49.1818H79.1255V55.3182C79.1255 56.0341 79.3258 56.6051 79.7264 57.0312C80.1312 57.4574 80.6468 57.6705 81.2733 57.6705C81.6483 57.6705 82.0297 57.5746 82.4174 57.3828C82.8095 57.1911 83.1376 56.897 83.4018 56.5007C83.6703 56.1044 83.8045 55.5994 83.8045 54.9858ZM92.1925 59.2045C91.2464 59.2045 90.4304 58.9957 89.7443 58.5781C89.0625 58.1562 88.5362 57.5682 88.1655 56.8139C87.799 56.0554 87.6158 55.1733 87.6158 54.1676C87.6158 53.1619 87.799 52.2756 88.1655 51.5085C88.5362 50.7372 89.0518 50.1364 89.7124 49.706C90.3771 49.2713 91.1527 49.054 92.0391 49.054C92.5504 49.054 93.0554 49.1392 93.554 49.3097C94.0526 49.4801 94.5064 49.7571 94.9155 50.1406C95.3246 50.5199 95.6506 51.0227 95.8935 51.6491C96.1364 52.2756 96.2578 53.0469 96.2578 53.9631V54.6023H88.6896V53.2983H94.7237C94.7237 52.7443 94.6129 52.25 94.3913 51.8153C94.174 51.3807 93.8629 51.0376 93.4581 50.7862C93.0575 50.5348 92.5845 50.4091 92.0391 50.4091C91.4382 50.4091 90.9183 50.5582 90.4794 50.8565C90.0447 51.1506 89.7102 51.5341 89.4759 52.0071C89.2415 52.4801 89.1243 52.9872 89.1243 53.5284V54.3977C89.1243 55.1392 89.2521 55.7678 89.5078 56.2834C89.7678 56.7947 90.1278 57.1847 90.5881 57.4531C91.0483 57.7173 91.5831 57.8494 92.1925 57.8494C92.5888 57.8494 92.9467 57.794 93.2663 57.6832C93.5902 57.5682 93.8693 57.3977 94.1037 57.1719C94.3381 56.9418 94.5192 56.6562 94.647 56.3153L96.1044 56.7244C95.951 57.2188 95.6932 57.6534 95.331 58.0284C94.9688 58.3991 94.5213 58.6889 93.9886 58.8977C93.456 59.1023 92.8572 59.2045 92.1925 59.2045ZM106.504 59.2301C105.882 59.2301 105.317 59.1129 104.81 58.8786C104.303 58.6399 103.901 58.2969 103.602 57.8494C103.304 57.3977 103.155 56.8523 103.155 56.2131C103.155 55.6506 103.266 55.1946 103.487 54.8452C103.709 54.4915 104.005 54.2145 104.376 54.0142C104.746 53.8139 105.156 53.6648 105.603 53.5668C106.055 53.4645 106.509 53.3835 106.964 53.3239C107.561 53.2472 108.045 53.1896 108.415 53.1513C108.79 53.1087 109.063 53.0384 109.234 52.9403C109.408 52.8423 109.496 52.6719 109.496 52.429V52.3778C109.496 51.7472 109.323 51.2571 108.978 50.9077C108.637 50.5582 108.119 50.3835 107.425 50.3835C106.705 50.3835 106.14 50.5412 105.731 50.8565C105.322 51.1719 105.034 51.5085 104.868 51.8665L103.436 51.3551C103.692 50.7585 104.033 50.294 104.459 49.9616C104.889 49.625 105.358 49.3906 105.865 49.2585C106.376 49.1222 106.879 49.054 107.374 49.054C107.689 49.054 108.051 49.0923 108.46 49.169C108.874 49.2415 109.272 49.3928 109.656 49.6229C110.043 49.853 110.365 50.2003 110.621 50.6648C110.876 51.1293 111.004 51.7514 111.004 52.5312V59H109.496V57.6705H109.419C109.317 57.8835 109.146 58.1115 108.908 58.3544C108.669 58.5973 108.352 58.804 107.955 58.9744C107.559 59.1449 107.075 59.2301 106.504 59.2301ZM106.734 57.875C107.331 57.875 107.834 57.7578 108.243 57.5234C108.656 57.2891 108.967 56.9865 109.176 56.6158C109.389 56.245 109.496 55.8551 109.496 55.446V54.0653C109.432 54.142 109.291 54.2124 109.074 54.2763C108.861 54.3359 108.614 54.3892 108.332 54.4361C108.055 54.4787 107.785 54.517 107.521 54.5511C107.261 54.581 107.05 54.6065 106.888 54.6278C106.496 54.679 106.129 54.7621 105.788 54.8771C105.452 54.9879 105.179 55.1562 104.97 55.3821C104.766 55.6037 104.663 55.9062 104.663 56.2898C104.663 56.8139 104.857 57.2102 105.245 57.4787C105.637 57.7429 106.134 57.875 106.734 57.875ZM115.266 53.0938V59H113.758V49.1818H115.215V50.7159H115.343C115.573 50.2173 115.922 49.8168 116.391 49.5142C116.86 49.2074 117.465 49.054 118.206 49.054C118.871 49.054 119.453 49.1903 119.952 49.4631C120.45 49.7315 120.838 50.1406 121.115 50.6903C121.392 51.2358 121.53 51.9261 121.53 52.7614V59H120.022V52.8636C120.022 52.0923 119.822 51.4915 119.421 51.0611C119.02 50.6264 118.471 50.4091 117.772 50.4091C117.29 50.4091 116.86 50.5135 116.481 50.7223C116.106 50.9311 115.809 51.2358 115.592 51.6364C115.375 52.0369 115.266 52.5227 115.266 53.0938ZM127.994 59.2045C127.176 59.2045 126.454 58.9979 125.827 58.5845C125.201 58.1669 124.711 57.5788 124.357 56.8203C124.004 56.0575 123.827 55.1562 123.827 54.1165C123.827 53.0852 124.004 52.1903 124.357 51.4318C124.711 50.6733 125.203 50.0874 125.834 49.674C126.464 49.2607 127.193 49.054 128.02 49.054C128.659 49.054 129.164 49.1605 129.535 49.3736C129.91 49.5824 130.195 49.821 130.391 50.0895C130.592 50.3537 130.747 50.571 130.858 50.7415H130.986V45.9091H132.494V59H131.037V57.4915H130.858C130.747 57.6705 130.589 57.8963 130.385 58.169C130.18 58.4375 129.888 58.6783 129.509 58.8913C129.13 59.1001 128.625 59.2045 127.994 59.2045ZM128.199 57.8494C128.804 57.8494 129.315 57.6918 129.733 57.3764C130.151 57.0568 130.468 56.6158 130.685 56.0533C130.903 55.4865 131.011 54.8324 131.011 54.0909C131.011 53.358 130.905 52.7166 130.692 52.1669C130.479 51.6129 130.163 51.1825 129.746 50.8757C129.328 50.5646 128.813 50.4091 128.199 50.4091C127.56 50.4091 127.027 50.5732 126.601 50.9013C126.179 51.2251 125.862 51.6662 125.648 52.2244C125.44 52.7784 125.335 53.4006 125.335 54.0909C125.335 54.7898 125.442 55.4247 125.655 55.9957C125.872 56.5625 126.192 57.0142 126.614 57.3509C127.04 57.6832 127.568 57.8494 128.199 57.8494ZM140.734 59V45.9091H145.157C146.184 45.9091 147.023 46.0945 147.675 46.4652C148.332 46.8317 148.817 47.3281 149.133 47.9545C149.448 48.581 149.606 49.2798 149.606 50.0511C149.606 50.8224 149.448 51.5234 149.133 52.1541C148.822 52.7848 148.34 53.2876 147.688 53.6626C147.036 54.0334 146.201 54.2188 145.183 54.2188H142.012V52.8125H145.131C145.835 52.8125 146.399 52.6911 146.825 52.4482C147.251 52.2053 147.56 51.8771 147.752 51.4638C147.948 51.0462 148.046 50.5753 148.046 50.0511C148.046 49.527 147.948 49.0582 147.752 48.6449C147.56 48.2315 147.249 47.9077 146.819 47.6733C146.388 47.4347 145.817 47.3153 145.106 47.3153H142.319V59H140.734ZM151.955 59V49.1818H153.412V50.6648H153.515C153.694 50.179 154.017 49.7848 154.486 49.4822C154.955 49.1797 155.483 49.0284 156.071 49.0284C156.182 49.0284 156.321 49.0305 156.487 49.0348C156.653 49.0391 156.779 49.0455 156.864 49.054V50.5881C156.813 50.5753 156.696 50.5561 156.512 50.5305C156.333 50.5007 156.144 50.4858 155.944 50.4858C155.466 50.4858 155.04 50.5859 154.665 50.7862C154.294 50.9822 154 51.255 153.783 51.6044C153.57 51.9496 153.463 52.3437 153.463 52.7869V59H151.955ZM162.342 59.2045C161.456 59.2045 160.678 58.9936 160.009 58.5717C159.344 58.1499 158.824 57.5597 158.449 56.8011C158.078 56.0426 157.893 55.1562 157.893 54.142C157.893 53.1193 158.078 52.2266 158.449 51.4638C158.824 50.701 159.344 50.1087 160.009 49.6868C160.678 49.2649 161.456 49.054 162.342 49.054C163.228 49.054 164.004 49.2649 164.669 49.6868C165.338 50.1087 165.858 50.701 166.228 51.4638C166.603 52.2266 166.791 53.1193 166.791 54.142C166.791 55.1562 166.603 56.0426 166.228 56.8011C165.858 57.5597 165.338 58.1499 164.669 58.5717C164.004 58.9936 163.228 59.2045 162.342 59.2045ZM162.342 57.8494C163.015 57.8494 163.569 57.6768 164.004 57.3317C164.439 56.9865 164.76 56.5327 164.969 55.9702C165.178 55.4077 165.282 54.7983 165.282 54.142C165.282 53.4858 165.178 52.8743 164.969 52.3075C164.76 51.7408 164.439 51.2827 164.004 50.9332C163.569 50.5838 163.015 50.4091 162.342 50.4091C161.669 50.4091 161.115 50.5838 160.68 50.9332C160.245 51.2827 159.924 51.7408 159.715 52.3075C159.506 52.8743 159.402 53.4858 159.402 54.142C159.402 54.7983 159.506 55.4077 159.715 55.9702C159.924 56.5327 160.245 56.9865 160.68 57.3317C161.115 57.6768 161.669 57.8494 162.342 57.8494ZM173.466 49.1818V50.4602H168.173V49.1818H173.466ZM169.758 59V47.8267C169.758 47.2642 169.89 46.7955 170.155 46.4205C170.419 46.0455 170.762 45.7642 171.184 45.5767C171.606 45.3892 172.051 45.2955 172.52 45.2955C172.89 45.2955 173.193 45.3253 173.427 45.3849C173.662 45.4446 173.836 45.5 173.952 45.5511L173.517 46.8551C173.44 46.8295 173.334 46.7976 173.197 46.7592C173.065 46.7209 172.89 46.7017 172.673 46.7017C172.175 46.7017 171.814 46.8274 171.593 47.0788C171.376 47.3303 171.267 47.6989 171.267 48.1847V59H169.758ZM175.58 59V49.1818H177.088V59H175.58ZM176.347 47.5455C176.053 47.5455 175.799 47.4453 175.586 47.245C175.377 47.0447 175.273 46.804 175.273 46.5227C175.273 46.2415 175.377 46.0007 175.586 45.8004C175.799 45.6001 176.053 45.5 176.347 45.5C176.641 45.5 176.892 45.6001 177.101 45.8004C177.314 46.0007 177.421 46.2415 177.421 46.5227C177.421 46.804 177.314 47.0447 177.101 47.245C176.892 47.4453 176.641 47.5455 176.347 47.5455ZM184.121 49.1818V50.4602H179.033V49.1818H184.121ZM180.516 46.8295H182.025V56.1875C182.025 56.6136 182.086 56.9332 182.21 57.1463C182.338 57.3551 182.5 57.4957 182.696 57.5682C182.896 57.6364 183.107 57.6705 183.329 57.6705C183.495 57.6705 183.631 57.6619 183.738 57.6449C183.844 57.6236 183.93 57.6065 183.993 57.5938L184.3 58.9489C184.198 58.9872 184.055 59.0256 183.872 59.0639C183.689 59.1065 183.456 59.1278 183.175 59.1278C182.749 59.1278 182.331 59.0362 181.922 58.853C181.518 58.6697 181.181 58.3906 180.912 58.0156C180.648 57.6406 180.516 57.1676 180.516 56.5966V46.8295ZM195.416 62.8864C194.687 62.8864 194.061 62.7926 193.537 62.6051C193.013 62.4219 192.576 62.179 192.226 61.8764C191.881 61.5781 191.606 61.2585 191.402 60.9176L192.604 60.0739C192.74 60.2528 192.912 60.4574 193.121 60.6875C193.33 60.9219 193.616 61.1243 193.978 61.2947C194.344 61.4695 194.824 61.5568 195.416 61.5568C196.209 61.5568 196.863 61.3651 197.378 60.9815C197.894 60.598 198.152 59.9972 198.152 59.179V57.1847H198.024C197.913 57.3636 197.756 57.5852 197.551 57.8494C197.351 58.1094 197.061 58.3416 196.682 58.5462C196.307 58.7464 195.8 58.8466 195.16 58.8466C194.368 58.8466 193.656 58.6591 193.025 58.2841C192.399 57.9091 191.903 57.3636 191.536 56.6477C191.174 55.9318 190.993 55.0625 190.993 54.0398C190.993 53.0341 191.17 52.1584 191.523 51.4126C191.877 50.6626 192.369 50.0831 193 49.674C193.631 49.2607 194.359 49.054 195.186 49.054C195.825 49.054 196.332 49.1605 196.707 49.3736C197.086 49.5824 197.376 49.821 197.577 50.0895C197.781 50.3537 197.939 50.571 198.05 50.7415H198.203V49.1818H199.66V59.2812C199.66 60.125 199.469 60.8111 199.085 61.3395C198.706 61.8722 198.194 62.2621 197.551 62.5092C196.912 62.7607 196.2 62.8864 195.416 62.8864ZM195.365 57.4915C195.97 57.4915 196.481 57.353 196.899 57.076C197.317 56.799 197.634 56.4006 197.851 55.8807C198.069 55.3608 198.177 54.7386 198.177 54.0142C198.177 53.3068 198.071 52.6825 197.858 52.1413C197.645 51.6001 197.329 51.1761 196.912 50.8693C196.494 50.5625 195.979 50.4091 195.365 50.4091C194.726 50.4091 194.193 50.571 193.767 50.8949C193.345 51.2187 193.028 51.6534 192.814 52.1989C192.606 52.7443 192.501 53.3494 192.501 54.0142C192.501 54.696 192.608 55.299 192.821 55.8232C193.038 56.343 193.358 56.7521 193.78 57.0504C194.206 57.3445 194.734 57.4915 195.365 57.4915ZM202.422 59V49.1818H203.879V50.6648H203.981C204.16 50.179 204.484 49.7848 204.953 49.4822C205.422 49.1797 205.95 49.0284 206.538 49.0284C206.649 49.0284 206.787 49.0305 206.954 49.0348C207.12 49.0391 207.246 49.0455 207.331 49.054V50.5881C207.28 50.5753 207.162 50.5561 206.979 50.5305C206.8 50.5007 206.611 50.4858 206.41 50.4858C205.933 50.4858 205.507 50.5859 205.132 50.7862C204.761 50.9822 204.467 51.255 204.25 51.6044C204.037 51.9496 203.93 52.3437 203.93 52.7869V59H202.422ZM212.809 59.2045C211.922 59.2045 211.145 58.9936 210.476 58.5717C209.811 58.1499 209.291 57.5597 208.916 56.8011C208.545 56.0426 208.36 55.1562 208.36 54.142C208.36 53.1193 208.545 52.2266 208.916 51.4638C209.291 50.701 209.811 50.1087 210.476 49.6868C211.145 49.2649 211.922 49.054 212.809 49.054C213.695 49.054 214.471 49.2649 215.135 49.6868C215.805 50.1087 216.324 50.701 216.695 51.4638C217.07 52.2266 217.258 53.1193 217.258 54.142C217.258 55.1562 217.07 56.0426 216.695 56.8011C216.324 57.5597 215.805 58.1499 215.135 58.5717C214.471 58.9936 213.695 59.2045 212.809 59.2045ZM212.809 57.8494C213.482 57.8494 214.036 57.6768 214.471 57.3317C214.905 56.9865 215.227 56.5327 215.436 55.9702C215.645 55.4077 215.749 54.7983 215.749 54.142C215.749 53.4858 215.645 52.8743 215.436 52.3075C215.227 51.7408 214.905 51.2827 214.471 50.9332C214.036 50.5838 213.482 50.4091 212.809 50.4091C212.135 50.4091 211.581 50.5838 211.147 50.9332C210.712 51.2827 210.39 51.7408 210.182 52.3075C209.973 52.8743 209.868 53.4858 209.868 54.142C209.868 54.7983 209.973 55.4077 210.182 55.9702C210.39 56.5327 210.712 56.9865 211.147 57.3317C211.581 57.6768 212.135 57.8494 212.809 57.8494ZM221.451 59L218.459 49.1818H220.045L222.167 56.6989H222.269L224.366 49.1818H225.976L228.047 56.6733H228.15L230.272 49.1818H231.857L228.866 59H227.383L225.235 51.4574H225.081L222.934 59H221.451ZM238.121 49.1818V50.4602H233.033V49.1818H238.121ZM234.516 46.8295H236.025V56.1875C236.025 56.6136 236.086 56.9332 236.21 57.1463C236.338 57.3551 236.5 57.4957 236.696 57.5682C236.896 57.6364 237.107 57.6705 237.329 57.6705C237.495 57.6705 237.631 57.6619 237.738 57.6449C237.844 57.6236 237.93 57.6065 237.993 57.5938L238.3 58.9489C238.198 58.9872 238.055 59.0256 237.872 59.0639C237.689 59.1065 237.456 59.1278 237.175 59.1278C236.749 59.1278 236.331 59.0362 235.922 58.853C235.518 58.6697 235.181 58.3906 234.912 58.0156C234.648 57.6406 234.516 57.1676 234.516 56.5966V46.8295ZM242.11 53.0938V59H240.601V45.9091H242.11V50.7159H242.238C242.468 50.2088 242.813 49.8061 243.273 49.5078C243.738 49.2053 244.356 49.054 245.127 49.054C245.796 49.054 246.382 49.1882 246.885 49.4567C247.388 49.7209 247.778 50.1278 248.055 50.6776C248.336 51.223 248.476 51.9176 248.476 52.7614V59H246.968V52.8636C246.968 52.0838 246.765 51.4808 246.361 51.0547C245.96 50.6243 245.404 50.4091 244.692 50.4091C244.198 50.4091 243.755 50.5135 243.363 50.7223C242.975 50.9311 242.668 51.2358 242.442 51.6364C242.221 52.0369 242.11 52.5227 242.11 53.0938ZM259.188 59.2301C258.566 59.2301 258.001 59.1129 257.494 58.8786C256.987 58.6399 256.584 58.2969 256.286 57.8494C255.988 57.3977 255.838 56.8523 255.838 56.2131C255.838 55.6506 255.949 55.1946 256.171 54.8452C256.392 54.4915 256.689 54.2145 257.059 54.0142C257.43 53.8139 257.839 53.6648 258.287 53.5668C258.738 53.4645 259.192 53.3835 259.648 53.3239C260.245 53.2472 260.728 53.1896 261.099 53.1513C261.474 53.1087 261.747 53.0384 261.917 52.9403C262.092 52.8423 262.179 52.6719 262.179 52.429V52.3778C262.179 51.7472 262.007 51.2571 261.662 50.9077C261.321 50.5582 260.803 50.3835 260.108 50.3835C259.388 50.3835 258.824 50.5412 258.414 50.8565C258.005 51.1719 257.718 51.5085 257.551 51.8665L256.12 51.3551C256.375 50.7585 256.716 50.294 257.142 49.9616C257.573 49.625 258.042 49.3906 258.549 49.2585C259.06 49.1222 259.563 49.054 260.057 49.054C260.373 49.054 260.735 49.0923 261.144 49.169C261.557 49.2415 261.956 49.3928 262.339 49.6229C262.727 49.853 263.049 50.2003 263.304 50.6648C263.56 51.1293 263.688 51.7514 263.688 52.5312V59H262.179V57.6705H262.103C262 57.8835 261.83 58.1115 261.591 58.3544C261.353 58.5973 261.035 58.804 260.639 58.9744C260.243 59.1449 259.759 59.2301 259.188 59.2301ZM259.418 57.875C260.015 57.875 260.517 57.7578 260.926 57.5234C261.34 57.2891 261.651 56.9865 261.86 56.6158C262.073 56.245 262.179 55.8551 262.179 55.446V54.0653C262.115 54.142 261.975 54.2124 261.757 54.2763C261.544 54.3359 261.297 54.3892 261.016 54.4361C260.739 54.4787 260.468 54.517 260.204 54.5511C259.944 54.581 259.733 54.6065 259.571 54.6278C259.179 54.679 258.813 54.7621 258.472 54.8771C258.135 54.9879 257.863 55.1562 257.654 55.3821C257.449 55.6037 257.347 55.9062 257.347 56.2898C257.347 56.8139 257.541 57.2102 257.929 57.4787C258.321 57.7429 258.817 57.875 259.418 57.875ZM270.711 49.1818V50.4602H265.623V49.1818H270.711ZM267.106 46.8295H268.615V56.1875C268.615 56.6136 268.676 56.9332 268.8 57.1463C268.928 57.3551 269.09 57.4957 269.286 57.5682C269.486 57.6364 269.697 57.6705 269.919 57.6705C270.085 57.6705 270.221 57.6619 270.328 57.6449C270.434 57.6236 270.519 57.6065 270.583 57.5938L270.89 58.9489C270.788 58.9872 270.645 59.0256 270.462 59.0639C270.279 59.1065 270.046 59.1278 269.765 59.1278C269.339 59.1278 268.921 59.0362 268.512 58.853C268.107 58.6697 267.771 58.3906 267.502 58.0156C267.238 57.6406 267.106 57.1676 267.106 56.5966V46.8295ZM278.043 59V49.1818H279.5V50.6648H279.602C279.781 50.179 280.105 49.7848 280.574 49.4822C281.043 49.1797 281.571 49.0284 282.159 49.0284C282.27 49.0284 282.409 49.0305 282.575 49.0348C282.741 49.0391 282.867 49.0455 282.952 49.054V50.5881C282.901 50.5753 282.784 50.5561 282.6 50.5305C282.421 50.5007 282.232 50.4858 282.031 50.4858C281.554 50.4858 281.128 50.5859 280.753 50.7862C280.382 50.9822 280.088 51.255 279.871 51.6044C279.658 51.9496 279.551 52.3437 279.551 52.7869V59H278.043ZM288.558 59.2045C287.612 59.2045 286.796 58.9957 286.11 58.5781C285.428 58.1562 284.901 57.5682 284.531 56.8139C284.164 56.0554 283.981 55.1733 283.981 54.1676C283.981 53.1619 284.164 52.2756 284.531 51.5085C284.901 50.7372 285.417 50.1364 286.078 49.706C286.742 49.2713 287.518 49.054 288.404 49.054C288.916 49.054 289.421 49.1392 289.919 49.3097C290.418 49.4801 290.872 49.7571 291.281 50.1406C291.69 50.5199 292.016 51.0227 292.259 51.6491C292.502 52.2756 292.623 53.0469 292.623 53.9631V54.6023H285.055V53.2983H291.089C291.089 52.7443 290.978 52.25 290.757 51.8153C290.539 51.3807 290.228 51.0376 289.823 50.7862C289.423 50.5348 288.95 50.4091 288.404 50.4091C287.803 50.4091 287.284 50.5582 286.845 50.8565C286.41 51.1506 286.075 51.5341 285.841 52.0071C285.607 52.4801 285.49 52.9872 285.49 53.5284V54.3977C285.49 55.1392 285.617 55.7678 285.873 56.2834C286.133 56.7947 286.493 57.1847 286.953 57.4531C287.414 57.7173 287.948 57.8494 288.558 57.8494C288.954 57.8494 289.312 57.794 289.632 57.6832C289.955 57.5682 290.235 57.3977 290.469 57.1719C290.703 56.9418 290.884 56.6562 291.012 56.3153L292.47 56.7244C292.316 57.2188 292.058 57.6534 291.696 58.0284C291.334 58.3991 290.887 58.6889 290.354 58.8977C289.821 59.1023 289.222 59.2045 288.558 59.2045ZM298.906 59.2045C297.986 59.2045 297.193 58.9872 296.529 58.5526C295.864 58.1179 295.352 57.5192 294.994 56.7564C294.637 55.9936 294.458 55.1222 294.458 54.142C294.458 53.1449 294.641 52.2649 295.007 51.5021C295.378 50.7351 295.894 50.1364 296.554 49.706C297.219 49.2713 297.994 49.054 298.881 49.054C299.571 49.054 300.193 49.1818 300.747 49.4375C301.301 49.6932 301.755 50.0511 302.109 50.5114C302.463 50.9716 302.682 51.5085 302.767 52.1222H301.259C301.144 51.6747 300.888 51.2784 300.492 50.9332C300.1 50.5838 299.571 50.4091 298.906 50.4091C298.318 50.4091 297.803 50.5625 297.36 50.8693C296.921 51.1719 296.578 51.6001 296.33 52.1541C296.088 52.7038 295.966 53.3494 295.966 54.0909C295.966 54.8494 296.085 55.5099 296.324 56.0724C296.567 56.6349 296.908 57.0717 297.347 57.3828C297.79 57.6939 298.31 57.8494 298.906 57.8494C299.298 57.8494 299.654 57.7812 299.974 57.6449C300.294 57.5085 300.564 57.3125 300.786 57.0568C301.007 56.8011 301.165 56.4943 301.259 56.1364H302.767C302.682 56.7159 302.471 57.2379 302.134 57.7024C301.802 58.1626 301.361 58.5291 300.811 58.8018C300.266 59.0703 299.631 59.2045 298.906 59.2045ZM308.961 59.2045C308.075 59.2045 307.297 58.9936 306.628 58.5717C305.963 58.1499 305.443 57.5597 305.068 56.8011C304.698 56.0426 304.512 55.1562 304.512 54.142C304.512 53.1193 304.698 52.2266 305.068 51.4638C305.443 50.701 305.963 50.1087 306.628 49.6868C307.297 49.2649 308.075 49.054 308.961 49.054C309.847 49.054 310.623 49.2649 311.288 49.6868C311.957 50.1087 312.477 50.701 312.847 51.4638C313.222 52.2266 313.41 53.1193 313.41 54.142C313.41 55.1562 313.222 56.0426 312.847 56.8011C312.477 57.5597 311.957 58.1499 311.288 58.5717C310.623 58.9936 309.847 59.2045 308.961 59.2045ZM308.961 57.8494C309.634 57.8494 310.188 57.6768 310.623 57.3317C311.058 56.9865 311.379 56.5327 311.588 55.9702C311.797 55.4077 311.901 54.7983 311.901 54.142C311.901 53.4858 311.797 52.8743 311.588 52.3075C311.379 51.7408 311.058 51.2827 310.623 50.9332C310.188 50.5838 309.634 50.4091 308.961 50.4091C308.288 50.4091 307.734 50.5838 307.299 50.9332C306.865 51.2827 306.543 51.7408 306.334 52.3075C306.125 52.8743 306.021 53.4858 306.021 54.142C306.021 54.7983 306.125 55.4077 306.334 55.9702C306.543 56.5327 306.865 56.9865 307.299 57.3317C307.734 57.6768 308.288 57.8494 308.961 57.8494ZM315.713 59V49.1818H317.17V50.6648H317.272C317.451 50.179 317.775 49.7848 318.244 49.4822C318.713 49.1797 319.241 49.0284 319.829 49.0284C319.94 49.0284 320.078 49.0305 320.245 49.0348C320.411 49.0391 320.537 49.0455 320.622 49.054V50.5881C320.571 50.5753 320.453 50.5561 320.27 50.5305C320.091 50.5007 319.902 50.4858 319.701 50.4858C319.224 50.4858 318.798 50.5859 318.423 50.7862C318.052 50.9822 317.758 51.255 317.541 51.6044C317.328 51.9496 317.221 52.3437 317.221 52.7869V59H315.713ZM325.819 59.2045C325 59.2045 324.278 58.9979 323.652 58.5845C323.025 58.1669 322.535 57.5788 322.181 56.8203C321.828 56.0575 321.651 55.1562 321.651 54.1165C321.651 53.0852 321.828 52.1903 322.181 51.4318C322.535 50.6733 323.027 50.0874 323.658 49.674C324.289 49.2607 325.017 49.054 325.844 49.054C326.483 49.054 326.988 49.1605 327.359 49.3736C327.734 49.5824 328.02 49.821 328.216 50.0895C328.416 50.3537 328.571 50.571 328.682 50.7415H328.81V45.9091H330.319V59H328.861V57.4915H328.682C328.571 57.6705 328.414 57.8963 328.209 58.169C328.005 58.4375 327.713 58.6783 327.333 58.8913C326.954 59.1001 326.449 59.2045 325.819 59.2045ZM326.023 57.8494C326.628 57.8494 327.14 57.6918 327.557 57.3764C327.975 57.0568 328.292 56.6158 328.51 56.0533C328.727 55.4865 328.836 54.8324 328.836 54.0909C328.836 53.358 328.729 52.7166 328.516 52.1669C328.303 51.6129 327.988 51.1825 327.57 50.8757C327.152 50.5646 326.637 50.4091 326.023 50.4091C325.384 50.4091 324.851 50.5732 324.425 50.9013C324.003 51.2251 323.686 51.6662 323.473 52.2244C323.264 52.7784 323.159 53.4006 323.159 54.0909C323.159 54.7898 323.266 55.4247 323.479 55.9957C323.696 56.5625 324.016 57.0142 324.438 57.3509C324.864 57.6832 325.392 57.8494 326.023 57.8494ZM339.862 53.0938V59H338.353V45.9091H339.862V50.7159H339.99C340.22 50.2088 340.565 49.8061 341.025 49.5078C341.49 49.2053 342.108 49.054 342.879 49.054C343.548 49.054 344.134 49.1882 344.637 49.4567C345.14 49.7209 345.529 50.1278 345.806 50.6776C346.088 51.223 346.228 51.9176 346.228 52.7614V59H344.72V52.8636C344.72 52.0838 344.517 51.4808 344.113 51.0547C343.712 50.6243 343.156 50.4091 342.444 50.4091C341.95 50.4091 341.507 50.5135 341.115 50.7223C340.727 50.9311 340.42 51.2358 340.194 51.6364C339.973 52.0369 339.862 52.5227 339.862 53.0938ZM348.988 59V49.1818H350.497V59H348.988ZM349.755 47.5455C349.461 47.5455 349.208 47.4453 348.994 47.245C348.786 47.0447 348.681 46.804 348.681 46.5227C348.681 46.2415 348.786 46.0007 348.994 45.8004C349.208 45.6001 349.461 45.5 349.755 45.5C350.049 45.5 350.301 45.6001 350.509 45.8004C350.722 46.0007 350.829 46.2415 350.829 46.5227C350.829 46.804 350.722 47.0447 350.509 47.245C350.301 47.4453 350.049 47.5455 349.755 47.5455ZM357.223 62.8864C356.494 62.8864 355.868 62.7926 355.343 62.6051C354.819 62.4219 354.382 62.179 354.033 61.8764C353.688 61.5781 353.413 61.2585 353.208 60.9176L354.41 60.0739C354.547 60.2528 354.719 60.4574 354.928 60.6875C355.137 60.9219 355.422 61.1243 355.784 61.2947C356.151 61.4695 356.63 61.5568 357.223 61.5568C358.015 61.5568 358.669 61.3651 359.185 60.9815C359.701 60.598 359.958 59.9972 359.958 59.179V57.1847H359.831C359.72 57.3636 359.562 57.5852 359.358 57.8494C359.157 58.1094 358.868 58.3416 358.488 58.5462C358.113 58.7464 357.606 58.8466 356.967 58.8466C356.174 58.8466 355.463 58.6591 354.832 58.2841C354.206 57.9091 353.709 57.3636 353.343 56.6477C352.98 55.9318 352.799 55.0625 352.799 54.0398C352.799 53.0341 352.976 52.1584 353.33 51.4126C353.684 50.6626 354.176 50.0831 354.806 49.674C355.437 49.2607 356.166 49.054 356.993 49.054C357.632 49.054 358.139 49.1605 358.514 49.3736C358.893 49.5824 359.183 49.821 359.383 50.0895C359.588 50.3537 359.745 50.571 359.856 50.7415H360.01V49.1818H361.467V59.2812C361.467 60.125 361.275 60.8111 360.892 61.3395C360.512 61.8722 360.001 62.2621 359.358 62.5092C358.718 62.7607 358.007 62.8864 357.223 62.8864ZM357.172 57.4915C357.777 57.4915 358.288 57.353 358.706 57.076C359.123 56.799 359.441 56.4006 359.658 55.8807C359.875 55.3608 359.984 54.7386 359.984 54.0142C359.984 53.3068 359.877 52.6825 359.664 52.1413C359.451 51.6001 359.136 51.1761 358.718 50.8693C358.301 50.5625 357.785 50.4091 357.172 50.4091C356.532 50.4091 356 50.571 355.574 50.8949C355.152 51.2187 354.834 51.6534 354.621 52.1989C354.412 52.7443 354.308 53.3494 354.308 54.0142C354.308 54.696 354.414 55.299 354.627 55.8232C354.845 56.343 355.164 56.7521 355.586 57.0504C356.012 57.3445 356.541 57.4915 357.172 57.4915ZM365.737 53.0938V59H364.228V45.9091H365.737V50.7159H365.865C366.095 50.2088 366.44 49.8061 366.9 49.5078C367.365 49.2053 367.983 49.054 368.754 49.054C369.423 49.054 370.009 49.1882 370.512 49.4567C371.015 49.7209 371.404 50.1278 371.681 50.6776C371.963 51.223 372.103 51.9176 372.103 52.7614V59H370.595V52.8636C370.595 52.0838 370.392 51.4808 369.988 51.0547C369.587 50.6243 369.031 50.4091 368.319 50.4091C367.825 50.4091 367.382 50.5135 366.99 50.7223C366.602 50.9311 366.295 51.2358 366.069 51.6364C365.848 52.0369 365.737 52.5227 365.737 53.0938ZM381.818 51.3807L380.463 51.7642C380.377 51.5384 380.252 51.3189 380.085 51.1058C379.923 50.8885 379.702 50.7095 379.421 50.5689C379.139 50.4283 378.779 50.358 378.34 50.358C377.74 50.358 377.239 50.4964 376.838 50.7734C376.442 51.0462 376.244 51.3935 376.244 51.8153C376.244 52.1903 376.38 52.4865 376.653 52.7038C376.926 52.9212 377.352 53.1023 377.931 53.2472L379.389 53.6051C380.267 53.8182 380.921 54.1442 381.351 54.5831C381.781 55.0178 381.997 55.5781 381.997 56.2642C381.997 56.8267 381.835 57.3295 381.511 57.7727C381.191 58.2159 380.744 58.5653 380.169 58.821C379.593 59.0767 378.924 59.2045 378.161 59.2045C377.16 59.2045 376.331 58.9872 375.675 58.5526C375.019 58.1179 374.603 57.483 374.428 56.6477L375.86 56.2898C375.997 56.8182 376.254 57.2145 376.634 57.4787C377.017 57.7429 377.518 57.875 378.136 57.875C378.839 57.875 379.397 57.7259 379.811 57.4276C380.228 57.125 380.437 56.7628 380.437 56.3409C380.437 56 380.318 55.7145 380.079 55.4844C379.84 55.25 379.474 55.0753 378.98 54.9602L377.343 54.5767C376.444 54.3636 375.784 54.0334 375.362 53.5859C374.944 53.1342 374.735 52.5696 374.735 51.892C374.735 51.3381 374.891 50.848 375.202 50.4219C375.517 49.9957 375.945 49.6612 376.487 49.4183C377.032 49.1754 377.65 49.054 378.34 49.054C379.312 49.054 380.075 49.267 380.629 49.6932C381.187 50.1193 381.583 50.6818 381.818 51.3807ZM389.33 59V49.1818H390.838V59H389.33ZM390.097 47.5455C389.803 47.5455 389.549 47.4453 389.336 47.245C389.127 47.0447 389.023 46.804 389.023 46.5227C389.023 46.2415 389.127 46.0007 389.336 45.8004C389.549 45.6001 389.803 45.5 390.097 45.5C390.391 45.5 390.642 45.6001 390.851 45.8004C391.064 46.0007 391.171 46.2415 391.171 46.5227C391.171 46.804 391.064 47.0447 390.851 47.245C390.642 47.4453 390.391 47.5455 390.097 47.5455ZM395.11 53.0938V59H393.601V49.1818H395.059V50.7159H395.187C395.417 50.2173 395.766 49.8168 396.235 49.5142C396.704 49.2074 397.309 49.054 398.05 49.054C398.715 49.054 399.297 49.1903 399.795 49.4631C400.294 49.7315 400.682 50.1406 400.959 50.6903C401.236 51.2358 401.374 51.9261 401.374 52.7614V59H399.866V52.8636C399.866 52.0923 399.665 51.4915 399.265 51.0611C398.864 50.6264 398.314 50.4091 397.616 50.4091C397.134 50.4091 396.704 50.5135 396.324 50.7223C395.949 50.9311 395.653 51.2358 395.436 51.6364C395.219 52.0369 395.11 52.5227 395.11 53.0938ZM413.463 49.1818V50.4602H408.375V49.1818H413.463ZM409.858 46.8295H411.366V56.1875C411.366 56.6136 411.428 56.9332 411.552 57.1463C411.68 57.3551 411.842 57.4957 412.038 57.5682C412.238 57.6364 412.449 57.6705 412.67 57.6705C412.837 57.6705 412.973 57.6619 413.08 57.6449C413.186 57.6236 413.271 57.6065 413.335 57.5938L413.642 58.9489C413.54 58.9872 413.397 59.0256 413.214 59.0639C413.031 59.1065 412.798 59.1278 412.517 59.1278C412.091 59.1278 411.673 59.0362 411.264 58.853C410.859 58.6697 410.523 58.3906 410.254 58.0156C409.99 57.6406 409.858 57.1676 409.858 56.5966V46.8295ZM417.452 53.0938V59H415.943V45.9091H417.452V50.7159H417.58C417.81 50.2088 418.155 49.8061 418.615 49.5078C419.08 49.2053 419.697 49.054 420.469 49.054C421.138 49.054 421.724 49.1882 422.227 49.4567C422.729 49.7209 423.119 50.1278 423.396 50.6776C423.678 51.223 423.818 51.9176 423.818 52.7614V59H422.31V52.8636C422.31 52.0838 422.107 51.4808 421.702 51.0547C421.302 50.6243 420.746 50.4091 420.034 50.4091C419.54 50.4091 419.097 50.5135 418.705 50.7223C418.317 50.9311 418.01 51.2358 417.784 51.6364C417.563 52.0369 417.452 52.5227 417.452 53.0938ZM430.694 59.2045C429.748 59.2045 428.932 58.9957 428.246 58.5781C427.564 58.1562 427.038 57.5682 426.667 56.8139C426.301 56.0554 426.118 55.1733 426.118 54.1676C426.118 53.1619 426.301 52.2756 426.667 51.5085C427.038 50.7372 427.554 50.1364 428.214 49.706C428.879 49.2713 429.655 49.054 430.541 49.054C431.052 49.054 431.557 49.1392 432.056 49.3097C432.555 49.4801 433.008 49.7571 433.417 50.1406C433.827 50.5199 434.153 51.0227 434.395 51.6491C434.638 52.2756 434.76 53.0469 434.76 53.9631V54.6023H427.192V53.2983H433.226C433.226 52.7443 433.115 52.25 432.893 51.8153C432.676 51.3807 432.365 51.0376 431.96 50.7862C431.559 50.5348 431.086 50.4091 430.541 50.4091C429.94 50.4091 429.42 50.5582 428.981 50.8565C428.547 51.1506 428.212 51.5341 427.978 52.0071C427.743 52.4801 427.626 52.9872 427.626 53.5284V54.3977C427.626 55.1392 427.754 55.7678 428.01 56.2834C428.27 56.7947 428.63 57.1847 429.09 57.4531C429.55 57.7173 430.085 57.8494 430.694 57.8494C431.091 57.8494 431.449 57.794 431.768 57.6832C432.092 57.5682 432.371 57.3977 432.606 57.1719C432.84 56.9418 433.021 56.6562 433.149 56.3153L434.606 56.7244C434.453 57.2188 434.195 57.6534 433.833 58.0284C433.471 58.3991 433.023 58.6889 432.491 58.8977C431.958 59.1023 431.359 59.2045 430.694 59.2045ZM443.089 62.6818C442.833 62.6818 442.605 62.6605 442.405 62.6179C442.204 62.5795 442.066 62.5412 441.989 62.5028L442.373 61.1733C442.739 61.267 443.063 61.3011 443.344 61.2756C443.626 61.25 443.875 61.1243 444.092 60.8984C444.314 60.6768 444.516 60.3168 444.699 59.8182L444.981 59.0511L441.35 49.1818H442.986L445.697 57.0057H445.799L448.509 49.1818H450.145L445.978 60.4318C445.79 60.9389 445.558 61.3587 445.281 61.6911C445.004 62.0277 444.682 62.277 444.316 62.4389C443.954 62.6009 443.545 62.6818 443.089 62.6818ZM455.901 59.2045C454.955 59.2045 454.139 58.9957 453.453 58.5781C452.771 58.1562 452.245 57.5682 451.874 56.8139C451.508 56.0554 451.325 55.1733 451.325 54.1676C451.325 53.1619 451.508 52.2756 451.874 51.5085C452.245 50.7372 452.761 50.1364 453.421 49.706C454.086 49.2713 454.862 49.054 455.748 49.054C456.259 49.054 456.764 49.1392 457.263 49.3097C457.762 49.4801 458.215 49.7571 458.624 50.1406C459.034 50.5199 459.36 51.0227 459.602 51.6491C459.845 52.2756 459.967 53.0469 459.967 53.9631V54.6023H452.399V53.2983H458.433C458.433 52.7443 458.322 52.25 458.1 51.8153C457.883 51.3807 457.572 51.0376 457.167 50.7862C456.767 50.5348 456.294 50.4091 455.748 50.4091C455.147 50.4091 454.627 50.5582 454.188 50.8565C453.754 51.1506 453.419 51.5341 453.185 52.0071C452.95 52.4801 452.833 52.9872 452.833 53.5284V54.3977C452.833 55.1392 452.961 55.7678 453.217 56.2834C453.477 56.7947 453.837 57.1847 454.297 57.4531C454.757 57.7173 455.292 57.8494 455.901 57.8494C456.298 57.8494 456.656 57.794 456.975 57.6832C457.299 57.5682 457.578 57.3977 457.813 57.1719C458.047 56.9418 458.228 56.6562 458.356 56.3153L459.813 56.7244C459.66 57.2188 459.402 57.6534 459.04 58.0284C458.678 58.3991 458.23 58.6889 457.698 58.8977C457.165 59.1023 456.566 59.2045 455.901 59.2045ZM465.151 59.2301C464.529 59.2301 463.964 59.1129 463.457 58.8786C462.95 58.6399 462.547 58.2969 462.249 57.8494C461.95 57.3977 461.801 56.8523 461.801 56.2131C461.801 55.6506 461.912 55.1946 462.134 54.8452C462.355 54.4915 462.651 54.2145 463.022 54.0142C463.393 53.8139 463.802 53.6648 464.249 53.5668C464.701 53.4645 465.155 53.3835 465.611 53.3239C466.208 53.2472 466.691 53.1896 467.062 53.1513C467.437 53.1087 467.71 53.0384 467.88 52.9403C468.055 52.8423 468.142 52.6719 468.142 52.429V52.3778C468.142 51.7472 467.97 51.2571 467.624 50.9077C467.284 50.5582 466.766 50.3835 466.071 50.3835C465.351 50.3835 464.786 50.5412 464.377 50.8565C463.968 51.1719 463.681 51.5085 463.514 51.8665L462.083 51.3551C462.338 50.7585 462.679 50.294 463.105 49.9616C463.536 49.625 464.004 49.3906 464.512 49.2585C465.023 49.1222 465.526 49.054 466.02 49.054C466.335 49.054 466.698 49.0923 467.107 49.169C467.52 49.2415 467.919 49.3928 468.302 49.6229C468.69 49.853 469.012 50.2003 469.267 50.6648C469.523 51.1293 469.651 51.7514 469.651 52.5312V59H468.142V57.6705H468.066C467.963 57.8835 467.793 58.1115 467.554 58.3544C467.316 58.5973 466.998 58.804 466.602 58.9744C466.205 59.1449 465.722 59.2301 465.151 59.2301ZM465.381 57.875C465.977 57.875 466.48 57.7578 466.889 57.5234C467.303 57.2891 467.614 56.9865 467.823 56.6158C468.036 56.245 468.142 55.8551 468.142 55.446V54.0653C468.078 54.142 467.938 54.2124 467.72 54.2763C467.507 54.3359 467.26 54.3892 466.979 54.4361C466.702 54.4787 466.431 54.517 466.167 54.5511C465.907 54.581 465.696 54.6065 465.534 54.6278C465.142 54.679 464.776 54.7621 464.435 54.8771C464.098 54.9879 463.825 55.1562 463.617 55.3821C463.412 55.6037 463.31 55.9062 463.31 56.2898C463.31 56.8139 463.504 57.2102 463.892 57.4787C464.284 57.7429 464.78 57.875 465.381 57.875ZM472.404 59V49.1818H473.862V50.6648H473.964C474.143 50.179 474.467 49.7848 474.935 49.4822C475.404 49.1797 475.933 49.0284 476.521 49.0284C476.631 49.0284 476.77 49.0305 476.936 49.0348C477.102 49.0391 477.228 49.0455 477.313 49.054V50.5881C477.262 50.5753 477.145 50.5561 476.962 50.5305C476.783 50.5007 476.593 50.4858 476.393 50.4858C475.915 50.4858 475.489 50.5859 475.114 50.7862C474.744 50.9822 474.45 51.255 474.232 51.6044C474.019 51.9496 473.913 52.3437 473.913 52.7869V59H472.404Z" fill="#24408E"/>
<defs>
<linearGradient id="paint0_linear_158_783" x1="-4.37114e-08" y1="1.5" x2="1296" y2="1.50011" gradientUnits="userSpaceOnUse">
<stop stop-color="#00A93C"/>
<stop offset="1" stop-color="#24CBFF"/>
</linearGradient>
</defs>
</svg>
