<svg width="100%" viewBox="0 0 333 28" fill="none" xmlns="http://www.w3.org/2000/svg">
<path d="M6.4304 3.50142C6.45028 2.99006 6.2983 2.58949 5.97443 2.29972C5.65341 2.00994 5.20313 1.86506 4.62358 1.86506C4.22017 1.86506 3.85085 1.93608 3.51562 2.07812C3.18324 2.21733 2.90909 2.40909 2.69318 2.65341C2.48011 2.89773 2.34801 3.17614 2.29688 3.48864C2.25994 3.71875 2.27699 3.92045 2.34801 4.09375C2.41903 4.2642 2.52841 4.41193 2.67614 4.53693C2.82386 4.66193 2.9929 4.76847 3.18324 4.85653C3.37642 4.9446 3.57244 5.01847 3.77131 5.07812L4.65341 5.34233C4.91477 5.41903 5.17472 5.51705 5.43324 5.63636C5.69176 5.75568 5.92188 5.90483 6.12358 6.08381C6.32528 6.26278 6.47443 6.48295 6.57102 6.74432C6.67045 7.00568 6.69034 7.31818 6.63068 7.68182C6.55114 8.15341 6.3608 8.57528 6.05966 8.94744C5.76136 9.31676 5.36932 9.60937 4.88352 9.82528C4.39773 10.0412 3.83665 10.1491 3.20028 10.1491C2.60653 10.1491 2.10653 10.0511 1.70028 9.85511C1.29403 9.65625 0.994318 9.3821 0.801136 9.03267C0.607955 8.68324 0.534091 8.27841 0.579545 7.81818H1.39773C1.36648 8.16193 1.4304 8.45312 1.58949 8.69176C1.75142 8.9304 1.98153 9.11222 2.27983 9.23722C2.58097 9.35937 2.92756 9.42045 3.3196 9.42045C3.75426 9.42045 4.15341 9.34801 4.51705 9.20312C4.88068 9.0554 5.1804 8.85085 5.41619 8.58949C5.65483 8.32528 5.80256 8.01847 5.85938 7.66903C5.91051 7.37358 5.875 7.125 5.75284 6.9233C5.63352 6.72159 5.44744 6.55256 5.1946 6.41619C4.9446 6.27699 4.64631 6.15483 4.29972 6.04972L3.30256 5.7429C2.65199 5.54403 2.16761 5.2642 1.84943 4.90341C1.53409 4.54261 1.42188 4.08239 1.51278 3.52273C1.59233 3.05114 1.78693 2.63778 2.09659 2.28267C2.40909 1.92472 2.79688 1.64631 3.25994 1.44744C3.72301 1.24858 4.22301 1.14915 4.75994 1.14915C5.30256 1.14915 5.7642 1.25 6.14489 1.4517C6.52841 1.65341 6.8125 1.93182 6.99716 2.28693C7.18466 2.6392 7.25426 3.04403 7.20597 3.50142H6.4304ZM10.5767 10.1364C10.0028 10.1364 9.51989 9.99148 9.12784 9.7017C8.7358 9.40909 8.45881 9.00426 8.29688 8.48722C8.13494 7.97017 8.10795 7.37358 8.21591 6.69744C8.32386 6.03835 8.53835 5.45881 8.85938 4.95881C9.18324 4.45597 9.58097 4.06534 10.0526 3.78693C10.5241 3.50568 11.0369 3.36506 11.5909 3.36506C12.1676 3.36506 12.6506 3.51136 13.0398 3.80398C13.4318 4.09659 13.7088 4.50142 13.8707 5.01847C14.0355 5.53551 14.0639 6.13352 13.956 6.8125C13.848 7.46875 13.6321 8.04688 13.3082 8.54688C12.9844 9.04403 12.5866 9.43324 12.1151 9.71449C11.6463 9.99574 11.1335 10.1364 10.5767 10.1364ZM10.5852 9.44176C11.0511 9.44176 11.4659 9.31818 11.8295 9.07102C12.196 8.82102 12.4986 8.48864 12.7372 8.07386C12.9759 7.65625 13.1364 7.19744 13.2188 6.69744C13.2955 6.22017 13.2869 5.78125 13.1932 5.38068C13.0994 4.98011 12.919 4.65909 12.652 4.41761C12.3849 4.17614 12.0298 4.0554 11.5866 4.0554C11.1236 4.0554 10.7088 4.18182 10.3423 4.43466C9.97585 4.68466 9.6733 5.01989 9.43466 5.44034C9.19602 5.85795 9.03693 6.31534 8.95739 6.8125C8.87784 7.29261 8.88352 7.73153 8.97443 8.12926C9.06818 8.52699 9.24858 8.84517 9.51562 9.08381C9.78551 9.32244 10.142 9.44176 10.5852 9.44176ZM19.6651 7.49858L20.3427 3.45455H21.1012L20.0103 10H19.2518L19.4308 8.91335H19.3754C19.1708 9.24858 18.881 9.52841 18.506 9.75284C18.1339 9.97443 17.7077 10.0852 17.2276 10.0852C16.81 10.0852 16.4535 9.99432 16.158 9.8125C15.8654 9.62784 15.6566 9.35795 15.5316 9.00284C15.4066 8.64773 15.3867 8.21165 15.4719 7.6946L16.1836 3.45455H16.9421L16.2433 7.64773C16.1609 8.15909 16.2433 8.57102 16.4904 8.88352C16.7404 9.19318 17.1012 9.34801 17.5728 9.34801C17.8683 9.34801 18.1637 9.27699 18.4592 9.13494C18.7575 8.9929 19.016 8.78551 19.2347 8.51278C19.4563 8.23722 19.5998 7.89915 19.6651 7.49858ZM22.0185 10L23.1094 3.45455H23.8466L23.6761 4.46023H23.7315C23.9134 4.13068 24.1847 3.86506 24.5455 3.66335C24.9091 3.45881 25.2969 3.35653 25.7088 3.35653C25.7713 3.35653 25.8409 3.35795 25.9176 3.3608C25.9943 3.3608 26.0582 3.36364 26.1094 3.36932L25.9773 4.14062C25.9432 4.13494 25.8835 4.12642 25.7983 4.11506C25.7159 4.10369 25.6236 4.09801 25.5213 4.09801C25.1804 4.09801 24.8651 4.17045 24.5753 4.31534C24.2884 4.45739 24.0469 4.65483 23.8509 4.90767C23.6577 5.16051 23.5327 5.44886 23.4759 5.77273L22.777 10H22.0185ZM28.6481 10.1364C28.0572 10.1364 27.57 9.99006 27.1864 9.69744C26.8029 9.40483 26.5344 9.00426 26.381 8.49574C26.2305 7.98437 26.2092 7.40483 26.3171 6.7571C26.4251 6.09801 26.6424 5.5142 26.9691 5.00568C27.2958 4.49432 27.6992 4.09375 28.1793 3.80398C28.6623 3.51136 29.1893 3.36506 29.7603 3.36506C30.2006 3.36506 30.5842 3.45028 30.9109 3.62074C31.2376 3.78835 31.4904 4.02557 31.6694 4.33239C31.8484 4.63636 31.9336 4.99148 31.9251 5.39773H31.158C31.1381 5.01989 31.0004 4.7017 30.7447 4.44318C30.4918 4.18466 30.1339 4.0554 29.6708 4.0554C29.2475 4.0554 28.8555 4.16903 28.4947 4.39631C28.1339 4.62074 27.8285 4.93466 27.5785 5.33807C27.3313 5.73864 27.1651 6.20312 27.0799 6.73153C26.989 7.26278 26.9975 7.73295 27.1055 8.14205C27.2134 8.5483 27.4066 8.86648 27.685 9.09659C27.9663 9.3267 28.3214 9.44176 28.7504 9.44176C29.043 9.44176 29.3185 9.38778 29.5771 9.27983C29.8356 9.16903 30.0643 9.01278 30.2631 8.81108C30.462 8.60653 30.614 8.36648 30.7191 8.09091H31.4862C31.3583 8.48864 31.1566 8.84091 30.881 9.14773C30.6083 9.45455 30.2816 9.69602 29.9009 9.87216C29.5202 10.0483 29.1026 10.1364 28.6481 10.1364ZM35.4173 10.1364C34.8065 10.1364 34.3022 9.99432 33.9045 9.71023C33.5067 9.4233 33.2283 9.02699 33.0692 8.52131C32.9102 8.01278 32.886 7.42756 32.9968 6.76562C33.1076 6.10653 33.3263 5.52131 33.6531 5.00994C33.9798 4.49574 34.3832 4.09375 34.8633 3.80398C35.3434 3.51136 35.8647 3.36506 36.4272 3.36506C36.7823 3.36506 37.1147 3.4304 37.4244 3.56108C37.734 3.68892 37.9968 3.88636 38.2127 4.15341C38.4315 4.41761 38.5835 4.75142 38.6687 5.15483C38.7539 5.5554 38.7511 6.02983 38.6602 6.57812L38.6005 6.95312H33.4869L33.5934 6.28409H37.9357C38.0067 5.86364 37.9869 5.4858 37.8761 5.15057C37.7653 4.81534 37.5763 4.54972 37.3093 4.35369C37.0451 4.15483 36.717 4.0554 36.3249 4.0554C35.9244 4.0554 35.5451 4.16761 35.1871 4.39205C34.832 4.61648 34.5309 4.90909 34.2837 5.26989C34.0394 5.62784 33.8817 6.00994 33.8107 6.41619L33.7255 6.91903C33.6346 7.47301 33.646 7.9375 33.7596 8.3125C33.8732 8.68466 34.0792 8.96591 34.3775 9.15625C34.6758 9.34659 35.0579 9.44176 35.5238 9.44176C35.8363 9.44176 36.119 9.39347 36.3718 9.29688C36.6246 9.20028 36.8448 9.07102 37.0323 8.90909C37.2198 8.74432 37.3704 8.56392 37.484 8.3679L38.1616 8.60227C38.0167 8.87784 37.8121 9.1321 37.5479 9.36506C37.2866 9.59801 36.9755 9.78551 36.6147 9.92756C36.2567 10.0668 35.8576 10.1364 35.4173 10.1364ZM40.4851 9.83381C40.3146 9.83381 40.1712 9.77415 40.0547 9.65483C39.9411 9.53551 39.8842 9.39062 39.8842 9.22017C39.8842 9.04972 39.9467 8.90767 40.0717 8.79403C40.1967 8.67756 40.343 8.61932 40.5107 8.61932C40.6783 8.61932 40.8217 8.67898 40.9411 8.7983C41.0604 8.91477 41.1172 9.0554 41.1115 9.22017C41.1087 9.33381 41.0774 9.4375 41.0178 9.53125C40.9609 9.625 40.8857 9.69886 40.7919 9.75284C40.701 9.80682 40.5987 9.83381 40.4851 9.83381ZM41.2692 5.11222C41.0987 5.11222 40.9553 5.05256 40.8388 4.93324C40.7251 4.81392 40.6683 4.66903 40.6683 4.49858C40.6683 4.32812 40.7308 4.18608 40.8558 4.07244C40.9808 3.95597 41.1271 3.89773 41.2947 3.89773C41.4624 3.89773 41.6058 3.95739 41.7251 4.0767C41.8445 4.19318 41.9013 4.33381 41.8956 4.49858C41.8928 4.61222 41.8615 4.71591 41.8018 4.80966C41.745 4.90341 41.6697 4.97727 41.576 5.03125C41.4851 5.08523 41.3828 5.11222 41.2692 5.11222ZM48.7617 1.27273L47.3129 10H46.516L47.9648 1.27273H48.7617ZM53.217 7.27273H54.1033L55.2241 8.75142L55.4116 8.99858L56.7795 10.8182H55.8931L54.8874 9.47585L54.7127 9.23722L53.217 7.27273ZM57.5039 5.68324C57.3533 6.58381 57.0636 7.36648 56.6346 8.03125C56.2056 8.69602 55.6815 9.21023 55.0621 9.57386C54.4428 9.9375 53.7695 10.1193 53.0423 10.1193C52.2951 10.1193 51.6644 9.93324 51.1502 9.56108C50.6388 9.18608 50.2766 8.66051 50.0636 7.98438C49.8505 7.3054 49.8192 6.5071 49.9698 5.58949C50.1204 4.68892 50.4102 3.90625 50.8391 3.24148C51.2681 2.5767 51.7937 2.0625 52.4158 1.69886C53.038 1.33523 53.7141 1.15341 54.4442 1.15341C55.1829 1.15341 55.8079 1.33949 56.3192 1.71165C56.8306 2.08381 57.1942 2.60937 57.4102 3.28835C57.6261 3.96449 57.6573 4.76278 57.5039 5.68324ZM56.7411 5.58949C56.8718 4.81108 56.8548 4.14773 56.69 3.59943C56.5281 3.05114 56.2496 2.6321 55.8548 2.34233C55.4599 2.04972 54.9812 1.90341 54.4187 1.90341C53.8363 1.90341 53.2894 2.05398 52.7781 2.35511C52.2667 2.65341 51.8306 3.08523 51.4698 3.65057C51.109 4.21307 50.8619 4.89062 50.7283 5.68324C50.6005 6.45881 50.6175 7.12216 50.7795 7.6733C50.9414 8.22159 51.2198 8.64205 51.6147 8.93466C52.0124 9.22443 52.494 9.36932 53.0593 9.36932C53.6445 9.36932 54.1928 9.21875 54.7042 8.91761C55.2156 8.61648 55.6502 8.18466 56.0082 7.62216C56.369 7.05682 56.6133 6.37926 56.7411 5.58949ZM59.8722 1.27273L61.3253 8.96449H61.4062L65.4034 1.27273H66.2386L61.6151 10H60.7628L59.0369 1.27273H59.8722ZM68.5312 1.27273L67.0824 10H66.2855L67.7344 1.27273H68.5312ZM69.4155 10H68.5803L73.2038 1.27273H74.0561L75.782 10H74.9467L73.4936 2.30824H73.4382L69.4155 10ZM70.5746 6.65483H74.9041L74.7848 7.37074H70.4553L70.5746 6.65483ZM81.424 6.31818C81.5945 5.29545 81.8828 4.32955 82.2891 3.42045C82.6982 2.51136 83.2109 1.65909 83.8274 0.863636H84.5178C84.2564 1.19602 84.0036 1.57528 83.7592 2.00142C83.5178 2.42472 83.2947 2.87642 83.0902 3.35653C82.8885 3.83665 82.7109 4.32812 82.5575 4.83097C82.407 5.33097 82.2905 5.8267 82.2081 6.31818C82.1001 6.97443 82.0504 7.63636 82.0589 8.30398C82.0675 8.97159 82.1271 9.60511 82.2379 10.2045C82.3516 10.804 82.5092 11.3267 82.7109 11.7727H82.0206C81.6712 10.9744 81.4411 10.1207 81.3303 9.21165C81.2223 8.30256 81.2536 7.33807 81.424 6.31818ZM86.0913 5.90909L85.4137 10H84.6552L85.7461 3.45455H86.4833L86.3129 4.48153H86.381C86.5856 4.14631 86.8683 3.87784 87.229 3.67614C87.5927 3.47159 88.0146 3.36932 88.4947 3.36932C88.9322 3.36932 89.3015 3.46165 89.6026 3.64631C89.9066 3.82812 90.1225 4.09659 90.2504 4.4517C90.381 4.80682 90.4038 5.2429 90.3185 5.75994L89.6069 10H88.8484L89.5472 5.80682C89.6353 5.27273 89.5572 4.84943 89.3129 4.53693C89.0714 4.22159 88.6978 4.06392 88.1921 4.06392C87.8484 4.06392 87.5288 4.13778 87.2333 4.28551C86.9407 4.43324 86.6935 4.64631 86.4918 4.92472C86.2901 5.20028 86.1566 5.52841 86.0913 5.90909ZM94.1783 10.1364C93.6044 10.1364 93.1214 9.99148 92.7294 9.7017C92.3374 9.40909 92.0604 9.00426 91.8984 8.48722C91.7365 7.97017 91.7095 7.37358 91.8175 6.69744C91.9254 6.03835 92.1399 5.45881 92.4609 4.95881C92.7848 4.45597 93.1825 4.06534 93.6541 3.78693C94.1257 3.50568 94.6385 3.36506 95.1925 3.36506C95.7692 3.36506 96.2521 3.51136 96.6413 3.80398C97.0334 4.09659 97.3104 4.50142 97.4723 5.01847C97.6371 5.53551 97.6655 6.13352 97.5575 6.8125C97.4496 7.46875 97.2337 8.04688 96.9098 8.54688C96.5859 9.04403 96.1882 9.43324 95.7166 9.71449C95.2479 9.99574 94.7351 10.1364 94.1783 10.1364ZM94.1868 9.44176C94.6527 9.44176 95.0675 9.31818 95.4311 9.07102C95.7976 8.82102 96.1001 8.48864 96.3388 8.07386C96.5774 7.65625 96.7379 7.19744 96.8203 6.69744C96.897 6.22017 96.8885 5.78125 96.7947 5.38068C96.701 4.98011 96.5206 4.65909 96.2536 4.41761C95.9865 4.17614 95.6314 4.0554 95.1882 4.0554C94.7251 4.0554 94.3104 4.18182 93.9439 4.43466C93.5774 4.68466 93.2749 5.01989 93.0362 5.44034C92.7976 5.85795 92.6385 6.31534 92.5589 6.8125C92.4794 7.29261 92.4851 7.73153 92.576 8.12926C92.6697 8.52699 92.8501 8.84517 93.1172 9.08381C93.3871 9.32244 93.7436 9.44176 94.1868 9.44176ZM102.363 3.45455L102.257 4.11506H99.1289L99.2397 3.45455H102.363ZM100.471 1.88636H101.234L100.169 8.29119C100.123 8.56392 100.135 8.77841 100.203 8.93466C100.271 9.08807 100.376 9.19744 100.518 9.26278C100.66 9.32528 100.816 9.35653 100.987 9.35653C101.086 9.35653 101.172 9.35085 101.243 9.33949C101.316 9.32528 101.382 9.31108 101.439 9.29688L101.494 9.98295C101.412 10.0114 101.314 10.0369 101.2 10.0597C101.086 10.0852 100.95 10.098 100.791 10.098C100.512 10.098 100.255 10.0369 100.02 9.91477C99.7837 9.79261 99.6048 9.6108 99.4826 9.36932C99.3604 9.12784 99.3278 8.82812 99.3846 8.47017L100.471 1.88636ZM105.554 10.1364C104.943 10.1364 104.439 9.99432 104.041 9.71023C103.643 9.4233 103.365 9.02699 103.206 8.52131C103.047 8.01278 103.023 7.42756 103.134 6.76562C103.244 6.10653 103.463 5.52131 103.79 5.00994C104.116 4.49574 104.52 4.09375 105 3.80398C105.48 3.51136 106.001 3.36506 106.564 3.36506C106.919 3.36506 107.251 3.4304 107.561 3.56108C107.871 3.68892 108.134 3.88636 108.349 4.15341C108.568 4.41761 108.72 4.75142 108.805 5.15483C108.891 5.5554 108.888 6.02983 108.797 6.57812L108.737 6.95312H103.624L103.73 6.28409H108.072C108.143 5.86364 108.124 5.4858 108.013 5.15057C107.902 4.81534 107.713 4.54972 107.446 4.35369C107.182 4.15483 106.854 4.0554 106.462 4.0554C106.061 4.0554 105.682 4.16761 105.324 4.39205C104.969 4.61648 104.668 4.90909 104.42 5.26989C104.176 5.62784 104.018 6.00994 103.947 6.41619L103.862 6.91903C103.771 7.47301 103.783 7.9375 103.896 8.3125C104.01 8.68466 104.216 8.96591 104.514 9.15625C104.813 9.34659 105.195 9.44176 105.661 9.44176C105.973 9.44176 106.256 9.39347 106.509 9.29688C106.761 9.20028 106.982 9.07102 107.169 8.90909C107.357 8.74432 107.507 8.56392 107.621 8.3679L108.298 8.60227C108.153 8.87784 107.949 9.1321 107.685 9.36506C107.423 9.59801 107.112 9.78551 106.751 9.92756C106.393 10.0668 105.994 10.1364 105.554 10.1364ZM118.522 4.89062L117.794 5.07812C117.757 4.8821 117.689 4.70597 117.589 4.54972C117.493 4.39062 117.352 4.26562 117.167 4.17472C116.985 4.08097 116.747 4.03409 116.451 4.03409C116.008 4.03409 115.626 4.14205 115.305 4.35795C114.984 4.57102 114.797 4.84375 114.743 5.17614C114.697 5.45455 114.755 5.6804 114.917 5.85369C115.082 6.02699 115.358 6.16335 115.744 6.26278L116.699 6.50568C117.227 6.64205 117.603 6.85511 117.828 7.14489C118.055 7.43466 118.133 7.80114 118.062 8.24432C118 8.61364 117.842 8.94034 117.589 9.22443C117.339 9.50852 117.018 9.73153 116.626 9.89347C116.237 10.0554 115.802 10.1364 115.322 10.1364C114.677 10.1364 114.17 9.99148 113.801 9.7017C113.434 9.41193 113.238 8.99432 113.213 8.44886L113.975 8.27841C113.998 8.66477 114.13 8.95739 114.372 9.15625C114.616 9.35511 114.96 9.45455 115.403 9.45455C115.909 9.45455 116.333 9.33949 116.677 9.10938C117.021 8.87926 117.218 8.59517 117.27 8.2571C117.318 7.99006 117.268 7.76847 117.12 7.59233C116.975 7.41619 116.728 7.28551 116.379 7.20028L115.36 6.9446C114.812 6.8054 114.424 6.58807 114.197 6.29261C113.973 5.99432 113.897 5.62642 113.971 5.18892C114.031 4.82812 114.181 4.51136 114.423 4.23864C114.664 3.96591 114.97 3.75284 115.339 3.59943C115.708 3.44318 116.112 3.36506 116.549 3.36506C117.152 3.36506 117.61 3.50142 117.926 3.77415C118.241 4.04403 118.44 4.41619 118.522 4.89062ZM121.236 10.1491C120.841 10.1491 120.493 10.0724 120.192 9.91903C119.891 9.76278 119.666 9.53835 119.518 9.24574C119.374 8.95028 119.334 8.59233 119.399 8.17188C119.456 7.84801 119.564 7.57528 119.723 7.35369C119.885 7.1321 120.089 6.95028 120.337 6.80824C120.584 6.66335 120.868 6.54972 121.189 6.46733C121.51 6.38494 121.859 6.32244 122.237 6.27983C122.607 6.23437 122.922 6.1946 123.183 6.16051C123.445 6.12642 123.648 6.07244 123.793 5.99858C123.938 5.92472 124.024 5.8054 124.053 5.64062L124.078 5.48722C124.152 5.04119 124.084 4.69034 123.874 4.43466C123.663 4.17614 123.311 4.04688 122.817 4.04688C122.345 4.04688 121.936 4.15199 121.589 4.36222C121.246 4.5696 120.99 4.8125 120.822 5.09091L120.149 4.83097C120.354 4.47301 120.605 4.1875 120.903 3.97443C121.202 3.75852 121.521 3.60369 121.862 3.50994C122.203 3.41335 122.54 3.36506 122.872 3.36506C123.122 3.36506 123.376 3.39773 123.635 3.46307C123.893 3.52841 124.125 3.64205 124.33 3.80398C124.537 3.96307 124.689 4.18608 124.786 4.47301C124.885 4.7571 124.899 5.1179 124.828 5.5554L124.087 10H123.328L123.503 8.96449H123.456C123.337 9.15767 123.172 9.34517 122.962 9.52699C122.754 9.70881 122.506 9.85795 122.216 9.97443C121.926 10.0909 121.599 10.1491 121.236 10.1491ZM121.428 9.45455C121.831 9.45455 122.196 9.36506 122.523 9.18608C122.852 9.0071 123.122 8.76989 123.332 8.47443C123.545 8.17614 123.682 7.84801 123.741 7.49006L123.899 6.54403C123.837 6.59801 123.734 6.64631 123.592 6.68892C123.453 6.73153 123.295 6.76989 123.119 6.80398C122.946 6.83523 122.771 6.86222 122.595 6.88494C122.422 6.90767 122.268 6.92756 122.135 6.9446C121.757 6.99006 121.428 7.06108 121.146 7.15767C120.868 7.25426 120.645 7.38778 120.477 7.55824C120.31 7.72585 120.205 7.94176 120.162 8.20597C120.097 8.60369 120.183 8.91193 120.422 9.13068C120.663 9.34659 120.999 9.45455 121.428 9.45455ZM128.312 1.27273L126.863 10H126.104L127.553 1.27273H128.312ZM131.499 10.1364C130.888 10.1364 130.384 9.99432 129.987 9.71023C129.589 9.4233 129.31 9.02699 129.151 8.52131C128.992 8.01278 128.968 7.42756 129.079 6.76562C129.19 6.10653 129.408 5.52131 129.735 5.00994C130.062 4.49574 130.465 4.09375 130.945 3.80398C131.425 3.51136 131.947 3.36506 132.509 3.36506C132.864 3.36506 133.197 3.4304 133.506 3.56108C133.816 3.68892 134.079 3.88636 134.295 4.15341C134.513 4.41761 134.665 4.75142 134.751 5.15483C134.836 5.5554 134.833 6.02983 134.742 6.57812L134.683 6.95312H129.569L129.675 6.28409H134.018C134.089 5.86364 134.069 5.4858 133.958 5.15057C133.847 4.81534 133.658 4.54972 133.391 4.35369C133.127 4.15483 132.799 4.0554 132.407 4.0554C132.006 4.0554 131.627 4.16761 131.269 4.39205C130.914 4.61648 130.613 4.90909 130.366 5.26989C130.121 5.62784 129.964 6.00994 129.893 6.41619L129.808 6.91903C129.717 7.47301 129.728 7.9375 129.842 8.3125C129.955 8.68466 130.161 8.96591 130.46 9.15625C130.758 9.34659 131.14 9.44176 131.606 9.44176C131.918 9.44176 132.201 9.39347 132.454 9.29688C132.707 9.20028 132.927 9.07102 133.114 8.90909C133.302 8.74432 133.452 8.56392 133.566 8.3679L134.244 8.60227C134.099 8.87784 133.894 9.1321 133.63 9.36506C133.369 9.59801 133.058 9.78551 132.697 9.92756C132.339 10.0668 131.94 10.1364 131.499 10.1364ZM141.093 4.89062L140.364 5.07812C140.327 4.8821 140.259 4.70597 140.159 4.54972C140.063 4.39062 139.922 4.26562 139.738 4.17472C139.556 4.08097 139.317 4.03409 139.022 4.03409C138.578 4.03409 138.196 4.14205 137.875 4.35795C137.554 4.57102 137.367 4.84375 137.313 5.17614C137.267 5.45455 137.326 5.6804 137.488 5.85369C137.652 6.02699 137.928 6.16335 138.314 6.26278L139.269 6.50568C139.797 6.64205 140.174 6.85511 140.398 7.14489C140.625 7.43466 140.703 7.80114 140.632 8.24432C140.57 8.61364 140.412 8.94034 140.159 9.22443C139.909 9.50852 139.588 9.73153 139.196 9.89347C138.807 10.0554 138.373 10.1364 137.892 10.1364C137.248 10.1364 136.74 9.99148 136.371 9.7017C136.005 9.41193 135.809 8.99432 135.783 8.44886L136.546 8.27841C136.569 8.66477 136.701 8.95739 136.942 9.15625C137.186 9.35511 137.53 9.45455 137.973 9.45455C138.479 9.45455 138.904 9.33949 139.248 9.10938C139.591 8.87926 139.789 8.59517 139.84 8.2571C139.888 7.99006 139.838 7.76847 139.691 7.59233C139.546 7.41619 139.299 7.28551 138.949 7.20028L137.931 6.9446C137.382 6.8054 136.995 6.58807 136.767 6.29261C136.543 5.99432 136.468 5.62642 136.542 5.18892C136.601 4.82812 136.752 4.51136 136.993 4.23864C137.235 3.96591 137.54 3.75284 137.909 3.59943C138.279 3.44318 138.682 3.36506 139.12 3.36506C139.722 3.36506 140.181 3.50142 140.496 3.77415C140.811 4.04403 141.01 4.41619 141.093 4.89062ZM149.154 3.45455L149.043 4.11506H145.83L145.937 3.45455H149.154ZM145.852 10L147.1 2.49574C147.157 2.14347 147.286 1.84659 147.488 1.60511C147.692 1.36364 147.937 1.1804 148.221 1.0554C148.505 0.930397 148.796 0.867897 149.094 0.867897C149.293 0.867897 149.455 0.884943 149.58 0.919034C149.705 0.950284 149.803 0.981534 149.874 1.01278L149.55 1.67756C149.494 1.66051 149.425 1.64062 149.346 1.6179C149.269 1.59517 149.168 1.58381 149.043 1.58381C148.714 1.58381 148.444 1.67614 148.234 1.8608C148.023 2.04545 147.888 2.30966 147.829 2.65341L146.61 10H145.852ZM149.586 10L150.676 3.45455H151.439L150.348 10H149.586ZM151.333 2.31676C151.174 2.31676 151.039 2.26278 150.928 2.15483C150.82 2.04687 150.767 1.91619 150.77 1.76278C150.776 1.6179 150.834 1.4929 150.945 1.38778C151.059 1.27983 151.192 1.22585 151.346 1.22585C151.505 1.22585 151.64 1.28125 151.75 1.39205C151.861 1.5 151.914 1.63068 151.908 1.78409C151.905 1.92898 151.847 2.05398 151.733 2.15909C151.62 2.2642 151.486 2.31676 151.333 2.31676ZM154.442 12.5909C153.996 12.5909 153.614 12.5327 153.296 12.4162C152.978 12.3026 152.719 12.1463 152.521 11.9474C152.325 11.7486 152.181 11.5256 152.09 11.2784L152.781 10.8736C152.843 11.0384 152.938 11.2003 153.066 11.3594C153.194 11.5185 153.374 11.6491 153.607 11.7514C153.84 11.8565 154.146 11.9091 154.523 11.9091C155.1 11.9091 155.596 11.7628 156.011 11.4702C156.425 11.1804 156.684 10.7315 156.786 10.1236L157.016 8.64915H156.948C156.832 8.84801 156.675 9.04687 156.479 9.24574C156.283 9.44176 156.04 9.60511 155.751 9.7358C155.464 9.86648 155.124 9.93182 154.732 9.93182C154.21 9.93182 153.766 9.80256 153.403 9.54403C153.039 9.28551 152.782 8.91619 152.631 8.43608C152.481 7.95312 152.462 7.37784 152.576 6.71023C152.684 6.0483 152.891 5.46591 153.198 4.96307C153.508 4.46023 153.888 4.06818 154.34 3.78693C154.795 3.50568 155.292 3.36506 155.832 3.36506C156.232 3.36506 156.553 3.43608 156.795 3.57812C157.036 3.71733 157.219 3.89062 157.344 4.09801C157.472 4.3054 157.565 4.5071 157.621 4.70312H157.698L157.903 3.45455H158.644L157.536 10.1705C157.442 10.7244 157.249 11.1804 156.957 11.5384C156.664 11.8963 156.3 12.1605 155.866 12.331C155.434 12.5043 154.96 12.5909 154.442 12.5909ZM154.903 9.23722C155.323 9.23722 155.701 9.13636 156.036 8.93466C156.374 8.73011 156.657 8.43892 156.884 8.06108C157.114 7.6804 157.272 7.22585 157.357 6.69744C157.442 6.18608 157.438 5.73295 157.344 5.33807C157.254 4.94034 157.076 4.62784 156.812 4.40057C156.55 4.17045 156.207 4.0554 155.781 4.0554C155.34 4.0554 154.951 4.1733 154.613 4.40909C154.278 4.64489 154.001 4.96307 153.782 5.36364C153.566 5.76136 153.417 6.20597 153.335 6.69744C153.255 7.19744 153.258 7.6392 153.343 8.02273C153.431 8.40341 153.604 8.7017 153.863 8.91761C154.121 9.13068 154.468 9.23722 154.903 9.23722ZM164.134 7.49858L164.811 3.45455H165.57L164.479 10H163.721L163.9 8.91335H163.844C163.64 9.24858 163.35 9.52841 162.975 9.75284C162.603 9.97443 162.176 10.0852 161.696 10.0852C161.279 10.0852 160.922 9.99432 160.627 9.8125C160.334 9.62784 160.125 9.35795 160 9.00284C159.875 8.64773 159.855 8.21165 159.941 7.6946L160.652 3.45455H161.411L160.712 7.64773C160.63 8.15909 160.712 8.57102 160.959 8.88352C161.209 9.19318 161.57 9.34801 162.042 9.34801C162.337 9.34801 162.632 9.27699 162.928 9.13494C163.226 8.9929 163.485 8.78551 163.703 8.51278C163.925 8.23722 164.069 7.89915 164.134 7.49858ZM166.487 10L167.578 3.45455H168.315L168.145 4.46023H168.2C168.382 4.13068 168.653 3.86506 169.014 3.66335C169.378 3.45881 169.766 3.35653 170.178 3.35653C170.24 3.35653 170.31 3.35795 170.386 3.3608C170.463 3.3608 170.527 3.36364 170.578 3.36932L170.446 4.14062C170.412 4.13494 170.352 4.12642 170.267 4.11506C170.185 4.10369 170.092 4.09801 169.99 4.09801C169.649 4.09801 169.334 4.17045 169.044 4.31534C168.757 4.45739 168.516 4.65483 168.32 4.90767C168.126 5.16051 168.001 5.44886 167.945 5.77273L167.246 10H166.487ZM173.206 10.1364C172.596 10.1364 172.091 9.99432 171.694 9.71023C171.296 9.4233 171.017 9.02699 170.858 8.52131C170.699 8.01278 170.675 7.42756 170.786 6.76562C170.897 6.10653 171.115 5.52131 171.442 5.00994C171.769 4.49574 172.172 4.09375 172.652 3.80398C173.132 3.51136 173.654 3.36506 174.216 3.36506C174.571 3.36506 174.904 3.4304 175.213 3.56108C175.523 3.68892 175.786 3.88636 176.002 4.15341C176.221 4.41761 176.373 4.75142 176.458 5.15483C176.543 5.5554 176.54 6.02983 176.449 6.57812L176.39 6.95312H171.276L171.382 6.28409H175.725C175.796 5.86364 175.776 5.4858 175.665 5.15057C175.554 4.81534 175.365 4.54972 175.098 4.35369C174.834 4.15483 174.506 4.0554 174.114 4.0554C173.713 4.0554 173.334 4.16761 172.976 4.39205C172.621 4.61648 172.32 4.90909 172.073 5.26989C171.828 5.62784 171.671 6.00994 171.6 6.41619L171.515 6.91903C171.424 7.47301 171.435 7.9375 171.549 8.3125C171.662 8.68466 171.868 8.96591 172.167 9.15625C172.465 9.34659 172.847 9.44176 173.313 9.44176C173.625 9.44176 173.908 9.39347 174.161 9.29688C174.414 9.20028 174.634 9.07102 174.821 8.90909C175.009 8.74432 175.159 8.56392 175.273 8.3679L175.951 8.60227C175.806 8.87784 175.601 9.1321 175.337 9.36506C175.076 9.59801 174.765 9.78551 174.404 9.92756C174.046 10.0668 173.647 10.1364 173.206 10.1364ZM182.8 4.89062L182.071 5.07812C182.034 4.8821 181.966 4.70597 181.866 4.54972C181.77 4.39062 181.629 4.26562 181.445 4.17472C181.263 4.08097 181.024 4.03409 180.729 4.03409C180.286 4.03409 179.903 4.14205 179.582 4.35795C179.261 4.57102 179.074 4.84375 179.02 5.17614C178.974 5.45455 179.033 5.6804 179.195 5.85369C179.359 6.02699 179.635 6.16335 180.021 6.26278L180.976 6.50568C181.504 6.64205 181.881 6.85511 182.105 7.14489C182.332 7.43466 182.411 7.80114 182.339 8.24432C182.277 8.61364 182.119 8.94034 181.866 9.22443C181.616 9.50852 181.295 9.73153 180.903 9.89347C180.514 10.0554 180.08 10.1364 179.599 10.1364C178.955 10.1364 178.447 9.99148 178.078 9.7017C177.712 9.41193 177.516 8.99432 177.49 8.44886L178.253 8.27841C178.276 8.66477 178.408 8.95739 178.649 9.15625C178.893 9.35511 179.237 9.45455 179.68 9.45455C180.186 9.45455 180.611 9.33949 180.955 9.10938C181.298 8.87926 181.496 8.59517 181.547 8.2571C181.595 7.99006 181.545 7.76847 181.398 7.59233C181.253 7.41619 181.006 7.28551 180.656 7.20028L179.638 6.9446C179.089 6.8054 178.702 6.58807 178.474 6.29261C178.25 5.99432 178.175 5.62642 178.249 5.18892C178.308 4.82812 178.459 4.51136 178.7 4.23864C178.942 3.96591 179.247 3.75284 179.616 3.59943C179.986 3.44318 180.389 3.36506 180.827 3.36506C181.429 3.36506 181.888 3.50142 182.203 3.77415C182.518 4.04403 182.717 4.41619 182.8 4.89062ZM187.235 10L188.684 1.27273H189.446L188.884 4.70312H188.952C189.069 4.5071 189.223 4.3054 189.417 4.09801C189.613 3.89062 189.854 3.71733 190.141 3.57812C190.428 3.43608 190.772 3.36506 191.172 3.36506C191.709 3.36506 192.157 3.5071 192.515 3.79119C192.875 4.07244 193.127 4.46733 193.269 4.97585C193.411 5.48153 193.426 6.07102 193.316 6.74432C193.202 7.42045 192.99 8.01278 192.681 8.52131C192.371 9.02983 191.99 9.42614 191.539 9.71023C191.087 9.99432 190.594 10.1364 190.06 10.1364C189.662 10.1364 189.341 10.0653 189.097 9.9233C188.855 9.78125 188.671 9.60653 188.543 9.39915C188.418 9.18892 188.327 8.98437 188.27 8.78551H188.176L187.972 10H187.235ZM188.53 6.73153C188.445 7.25994 188.445 7.72869 188.53 8.13778C188.618 8.54403 188.79 8.86364 189.046 9.09659C189.304 9.3267 189.645 9.44176 190.069 9.44176C190.503 9.44176 190.891 9.32244 191.232 9.08381C191.576 8.84233 191.86 8.51705 192.084 8.10795C192.311 7.69886 192.468 7.24006 192.553 6.73153C192.635 6.22869 192.634 5.77557 192.549 5.37216C192.463 4.96875 192.292 4.64915 192.033 4.41335C191.775 4.17472 191.426 4.0554 190.989 4.0554C190.563 4.0554 190.179 4.17045 189.838 4.40057C189.5 4.62784 189.219 4.94318 188.995 5.34659C188.77 5.74716 188.615 6.20881 188.53 6.73153ZM196.248 10.1491C195.853 10.1491 195.505 10.0724 195.203 9.91903C194.902 9.76278 194.678 9.53835 194.53 9.24574C194.385 8.95028 194.346 8.59233 194.411 8.17188C194.468 7.84801 194.576 7.57528 194.735 7.35369C194.897 7.1321 195.101 6.95028 195.348 6.80824C195.596 6.66335 195.88 6.54972 196.201 6.46733C196.522 6.38494 196.871 6.32244 197.249 6.27983C197.618 6.23437 197.934 6.1946 198.195 6.16051C198.456 6.12642 198.659 6.07244 198.804 5.99858C198.949 5.92472 199.036 5.8054 199.064 5.64062L199.09 5.48722C199.164 5.04119 199.096 4.69034 198.885 4.43466C198.675 4.17614 198.323 4.04688 197.828 4.04688C197.357 4.04688 196.948 4.15199 196.601 4.36222C196.257 4.5696 196.002 4.8125 195.834 5.09091L195.161 4.83097C195.365 4.47301 195.617 4.1875 195.915 3.97443C196.213 3.75852 196.533 3.60369 196.874 3.50994C197.215 3.41335 197.551 3.36506 197.884 3.36506C198.134 3.36506 198.388 3.39773 198.647 3.46307C198.905 3.52841 199.137 3.64205 199.341 3.80398C199.549 3.96307 199.701 4.18608 199.797 4.47301C199.897 4.7571 199.911 5.1179 199.84 5.5554L199.098 10H198.34L198.515 8.96449H198.468C198.348 9.15767 198.184 9.34517 197.973 9.52699C197.766 9.70881 197.517 9.85795 197.228 9.97443C196.938 10.0909 196.611 10.1491 196.248 10.1491ZM196.439 9.45455C196.843 9.45455 197.208 9.36506 197.534 9.18608C197.864 9.0071 198.134 8.76989 198.344 8.47443C198.557 8.17614 198.694 7.84801 198.753 7.49006L198.911 6.54403C198.848 6.59801 198.746 6.64631 198.604 6.68892C198.465 6.73153 198.307 6.76989 198.131 6.80398C197.958 6.83523 197.783 6.86222 197.607 6.88494C197.434 6.90767 197.28 6.92756 197.147 6.9446C196.769 6.99006 196.439 7.06108 196.158 7.15767C195.88 7.25426 195.657 7.38778 195.489 7.55824C195.321 7.72585 195.216 7.94176 195.174 8.20597C195.108 8.60369 195.195 8.91193 195.434 9.13068C195.675 9.34659 196.01 9.45455 196.439 9.45455ZM206.366 4.89062L205.637 5.07812C205.6 4.8821 205.532 4.70597 205.433 4.54972C205.336 4.39062 205.196 4.26562 205.011 4.17472C204.829 4.08097 204.591 4.03409 204.295 4.03409C203.852 4.03409 203.47 4.14205 203.149 4.35795C202.828 4.57102 202.64 4.84375 202.586 5.17614C202.541 5.45455 202.599 5.6804 202.761 5.85369C202.926 6.02699 203.201 6.16335 203.588 6.26278L204.542 6.50568C205.071 6.64205 205.447 6.85511 205.672 7.14489C205.899 7.43466 205.977 7.80114 205.906 8.24432C205.843 8.61364 205.686 8.94034 205.433 9.22443C205.183 9.50852 204.862 9.73153 204.47 9.89347C204.081 10.0554 203.646 10.1364 203.166 10.1364C202.521 10.1364 202.014 9.99148 201.645 9.7017C201.278 9.41193 201.082 8.99432 201.056 8.44886L201.819 8.27841C201.842 8.66477 201.974 8.95739 202.216 9.15625C202.46 9.35511 202.804 9.45455 203.247 9.45455C203.752 9.45455 204.177 9.33949 204.521 9.10938C204.865 8.87926 205.062 8.59517 205.113 8.2571C205.162 7.99006 205.112 7.76847 204.964 7.59233C204.819 7.41619 204.572 7.28551 204.223 7.20028L203.204 6.9446C202.656 6.8054 202.268 6.58807 202.041 6.29261C201.816 5.99432 201.741 5.62642 201.815 5.18892C201.875 4.82812 202.025 4.51136 202.267 4.23864C202.508 3.96591 202.814 3.75284 203.183 3.59943C203.552 3.44318 203.956 3.36506 204.393 3.36506C204.995 3.36506 205.454 3.50142 205.77 3.77415C206.085 4.04403 206.284 4.41619 206.366 4.89062ZM209.898 10.1364C209.287 10.1364 208.783 9.99432 208.385 9.71023C207.987 9.4233 207.709 9.02699 207.55 8.52131C207.391 8.01278 207.366 7.42756 207.477 6.76562C207.588 6.10653 207.807 5.52131 208.134 5.00994C208.46 4.49574 208.864 4.09375 209.344 3.80398C209.824 3.51136 210.345 3.36506 210.908 3.36506C211.263 3.36506 211.595 3.4304 211.905 3.56108C212.214 3.68892 212.477 3.88636 212.693 4.15341C212.912 4.41761 213.064 4.75142 213.149 5.15483C213.234 5.5554 213.232 6.02983 213.141 6.57812L213.081 6.95312H207.967L208.074 6.28409H212.416C212.487 5.86364 212.467 5.4858 212.357 5.15057C212.246 4.81534 212.057 4.54972 211.79 4.35369C211.526 4.15483 211.197 4.0554 210.805 4.0554C210.405 4.0554 210.026 4.16761 209.668 4.39205C209.313 4.61648 209.011 4.90909 208.764 5.26989C208.52 5.62784 208.362 6.00994 208.291 6.41619L208.206 6.91903C208.115 7.47301 208.126 7.9375 208.24 8.3125C208.354 8.68466 208.56 8.96591 208.858 9.15625C209.156 9.34659 209.538 9.44176 210.004 9.44176C210.317 9.44176 210.599 9.39347 210.852 9.29688C211.105 9.20028 211.325 9.07102 211.513 8.90909C211.7 8.74432 211.851 8.56392 211.964 8.3679L212.642 8.60227C212.497 8.87784 212.293 9.1321 212.028 9.36506C211.767 9.59801 211.456 9.78551 211.095 9.92756C210.737 10.0668 210.338 10.1364 209.898 10.1364ZM216.585 10.1364C216.048 10.1364 215.6 9.99432 215.243 9.71023C214.885 9.42614 214.635 9.02983 214.493 8.52131C214.35 8.01278 214.335 7.42045 214.446 6.74432C214.559 6.07102 214.771 5.48153 215.081 4.97585C215.393 4.46733 215.775 4.07244 216.227 3.79119C216.681 3.5071 217.177 3.36506 217.714 3.36506C218.115 3.36506 218.434 3.43608 218.673 3.57812C218.914 3.71733 219.098 3.89062 219.223 4.09801C219.348 4.3054 219.437 4.5071 219.491 4.70312H219.559L220.13 1.27273H220.893L219.444 10H218.707L218.912 8.78551H218.818C218.696 8.98437 218.535 9.18892 218.336 9.39915C218.14 9.60653 217.899 9.78125 217.612 9.9233C217.325 10.0653 216.983 10.1364 216.585 10.1364ZM216.751 9.44176C217.174 9.44176 217.556 9.3267 217.897 9.09659C218.241 8.86364 218.528 8.54403 218.758 8.13778C218.991 7.72869 219.15 7.25994 219.235 6.73153C219.324 6.20881 219.322 5.74716 219.231 5.34659C219.14 4.94318 218.964 4.62784 218.703 4.40057C218.441 4.17045 218.096 4.0554 217.667 4.0554C217.233 4.0554 216.846 4.17472 216.508 4.41335C216.17 4.64915 215.89 4.96875 215.669 5.37216C215.45 5.77557 215.298 6.22869 215.213 6.73153C215.13 7.24006 215.13 7.69886 215.213 8.10795C215.295 8.51705 215.463 8.84233 215.716 9.08381C215.971 9.32244 216.316 9.44176 216.751 9.44176ZM227.549 10.1364C226.975 10.1364 226.493 9.99148 226.1 9.7017C225.708 9.40909 225.431 9.00426 225.27 8.48722C225.108 7.97017 225.081 7.37358 225.189 6.69744C225.297 6.03835 225.511 5.45881 225.832 4.95881C226.156 4.45597 226.554 4.06534 227.025 3.78693C227.497 3.50568 228.01 3.36506 228.564 3.36506C229.14 3.36506 229.623 3.51136 230.012 3.80398C230.404 4.09659 230.681 4.50142 230.843 5.01847C231.008 5.53551 231.037 6.13352 230.929 6.8125C230.821 7.46875 230.605 8.04688 230.281 8.54688C229.957 9.04403 229.559 9.43324 229.088 9.71449C228.619 9.99574 228.106 10.1364 227.549 10.1364ZM227.558 9.44176C228.024 9.44176 228.439 9.31818 228.802 9.07102C229.169 8.82102 229.471 8.48864 229.71 8.07386C229.949 7.65625 230.109 7.19744 230.191 6.69744C230.268 6.22017 230.26 5.78125 230.166 5.38068C230.072 4.98011 229.892 4.65909 229.625 4.41761C229.358 4.17614 229.002 4.0554 228.559 4.0554C228.096 4.0554 227.681 4.18182 227.315 4.43466C226.949 4.68466 226.646 5.01989 226.407 5.44034C226.169 5.85795 226.01 6.31534 225.93 6.8125C225.85 7.29261 225.856 7.73153 225.947 8.12926C226.041 8.52699 226.221 8.84517 226.488 9.08381C226.758 9.32244 227.115 9.44176 227.558 9.44176ZM233.501 5.90909L232.824 10H232.065L233.156 3.45455H233.893L233.723 4.48153H233.791C233.996 4.14631 234.278 3.87784 234.639 3.67614C235.003 3.47159 235.425 3.36932 235.905 3.36932C236.342 3.36932 236.712 3.46165 237.013 3.64631C237.317 3.82812 237.533 4.09659 237.661 4.4517C237.791 4.80682 237.814 5.2429 237.729 5.75994L237.017 10H236.259L236.957 5.80682C237.045 5.27273 236.967 4.84943 236.723 4.53693C236.482 4.22159 236.108 4.06392 235.602 4.06392C235.259 4.06392 234.939 4.13778 234.643 4.28551C234.351 4.43324 234.104 4.64631 233.902 4.92472C233.7 5.20028 233.567 5.52841 233.501 5.90909ZM244.793 1.27273L243.344 10H242.547L243.996 1.27273H244.793ZM249.248 7.27273H250.135L251.255 8.75142L251.443 8.99858L252.811 10.8182H251.924L250.919 9.47585L250.744 9.23722L249.248 7.27273ZM253.535 5.68324C253.385 6.58381 253.095 7.36648 252.666 8.03125C252.237 8.69602 251.713 9.21023 251.093 9.57386C250.474 9.9375 249.801 10.1193 249.074 10.1193C248.326 10.1193 247.696 9.93324 247.181 9.56108C246.67 9.18608 246.308 8.66051 246.095 7.98438C245.882 7.3054 245.85 6.5071 246.001 5.58949C246.152 4.68892 246.441 3.90625 246.87 3.24148C247.299 2.5767 247.825 2.0625 248.447 1.69886C249.069 1.33523 249.745 1.15341 250.475 1.15341C251.214 1.15341 251.839 1.33949 252.35 1.71165C252.862 2.08381 253.225 2.60937 253.441 3.28835C253.657 3.96449 253.689 4.76278 253.535 5.68324ZM252.772 5.58949C252.903 4.81108 252.886 4.14773 252.721 3.59943C252.559 3.05114 252.281 2.6321 251.886 2.34233C251.491 2.04972 251.012 1.90341 250.45 1.90341C249.868 1.90341 249.321 2.05398 248.809 2.35511C248.298 2.65341 247.862 3.08523 247.501 3.65057C247.14 4.21307 246.893 4.89062 246.76 5.68324C246.632 6.45881 246.649 7.12216 246.811 7.6733C246.973 8.22159 247.251 8.64205 247.646 8.93466C248.044 9.22443 248.525 9.36932 249.091 9.36932C249.676 9.36932 250.224 9.21875 250.735 8.91761C251.247 8.61648 251.681 8.18466 252.039 7.62216C252.4 7.05682 252.645 6.37926 252.772 5.58949ZM255.903 1.27273L257.357 8.96449H257.438L261.435 1.27273H262.27L257.646 10H256.794L255.068 1.27273H255.903ZM264.562 1.27273L263.114 10H262.317L263.766 1.27273H264.562ZM265.447 10H264.612L269.235 1.27273H270.087L271.813 10H270.978L269.525 2.30824H269.469L265.447 10ZM266.606 6.65483H270.935L270.816 7.37074H266.487L266.606 6.65483ZM279.156 10.1364C278.545 10.1364 278.04 9.99432 277.643 9.71023C277.245 9.4233 276.967 9.02699 276.808 8.52131C276.648 8.01278 276.624 7.42756 276.735 6.76562C276.846 6.10653 277.065 5.52131 277.391 5.00994C277.718 4.49574 278.121 4.09375 278.602 3.80398C279.082 3.51136 279.603 3.36506 280.165 3.36506C280.521 3.36506 280.853 3.4304 281.163 3.56108C281.472 3.68892 281.735 3.88636 281.951 4.15341C282.17 4.41761 282.322 4.75142 282.407 5.15483C282.492 5.5554 282.489 6.02983 282.398 6.57812L282.339 6.95312H277.225L277.332 6.28409H281.674C281.745 5.86364 281.725 5.4858 281.614 5.15057C281.504 4.81534 281.315 4.54972 281.048 4.35369C280.783 4.15483 280.455 4.0554 280.063 4.0554C279.663 4.0554 279.283 4.16761 278.925 4.39205C278.57 4.61648 278.269 4.90909 278.022 5.26989C277.778 5.62784 277.62 6.00994 277.549 6.41619L277.464 6.91903C277.373 7.47301 277.384 7.9375 277.498 8.3125C277.612 8.68466 277.817 8.96591 278.116 9.15625C278.414 9.34659 278.796 9.44176 279.262 9.44176C279.575 9.44176 279.857 9.39347 280.11 9.29688C280.363 9.20028 280.583 9.07102 280.771 8.90909C280.958 8.74432 281.109 8.56392 281.222 8.3679L281.9 8.60227C281.755 8.87784 281.55 9.1321 281.286 9.36506C281.025 9.59801 280.714 9.78551 280.353 9.92756C279.995 10.0668 279.596 10.1364 279.156 10.1364ZM288.749 4.89062L288.02 5.07812C287.983 4.8821 287.915 4.70597 287.816 4.54972C287.719 4.39062 287.578 4.26562 287.394 4.17472C287.212 4.08097 286.973 4.03409 286.678 4.03409C286.235 4.03409 285.853 4.14205 285.532 4.35795C285.211 4.57102 285.023 4.84375 284.969 5.17614C284.924 5.45455 284.982 5.6804 285.144 5.85369C285.309 6.02699 285.584 6.16335 285.971 6.26278L286.925 6.50568C287.453 6.64205 287.83 6.85511 288.054 7.14489C288.282 7.43466 288.36 7.80114 288.289 8.24432C288.226 8.61364 288.069 8.94034 287.816 9.22443C287.566 9.50852 287.245 9.73153 286.853 9.89347C286.463 10.0554 286.029 10.1364 285.549 10.1364C284.904 10.1364 284.397 9.99148 284.027 9.7017C283.661 9.41193 283.465 8.99432 283.439 8.44886L284.202 8.27841C284.225 8.66477 284.357 8.95739 284.598 9.15625C284.843 9.35511 285.186 9.45455 285.63 9.45455C286.135 9.45455 286.56 9.33949 286.904 9.10938C287.248 8.87926 287.445 8.59517 287.496 8.2571C287.544 7.99006 287.495 7.76847 287.347 7.59233C287.202 7.41619 286.955 7.28551 286.605 7.20028L285.587 6.9446C285.039 6.8054 284.651 6.58807 284.424 6.29261C284.199 5.99432 284.124 5.62642 284.198 5.18892C284.257 4.82812 284.408 4.51136 284.65 4.23864C284.891 3.96591 285.196 3.75284 285.566 3.59943C285.935 3.44318 286.338 3.36506 286.776 3.36506C287.378 3.36506 287.837 3.50142 288.152 3.77415C288.468 4.04403 288.667 4.41619 288.749 4.89062ZM293.32 3.45455L293.214 4.11506H290.086L290.197 3.45455H293.32ZM291.428 1.88636H292.191L291.126 8.29119C291.08 8.56392 291.092 8.77841 291.16 8.93466C291.228 9.08807 291.333 9.19744 291.475 9.26278C291.617 9.32528 291.773 9.35653 291.944 9.35653C292.043 9.35653 292.129 9.35085 292.2 9.33949C292.273 9.32528 292.339 9.31108 292.396 9.29688L292.451 9.98295C292.369 10.0114 292.271 10.0369 292.157 10.0597C292.043 10.0852 291.907 10.098 291.748 10.098C291.469 10.098 291.212 10.0369 290.977 9.91477C290.741 9.79261 290.562 9.6108 290.44 9.36932C290.317 9.12784 290.285 8.82812 290.342 8.47017L291.428 1.88636ZM293.961 10L295.051 3.45455H295.814L294.723 10H293.961ZM295.708 2.31676C295.549 2.31676 295.414 2.26278 295.303 2.15483C295.195 2.04687 295.142 1.91619 295.145 1.76278C295.151 1.6179 295.209 1.4929 295.32 1.38778C295.434 1.27983 295.567 1.22585 295.721 1.22585C295.88 1.22585 296.015 1.28125 296.125 1.39205C296.236 1.5 296.289 1.63068 296.283 1.78409C296.28 1.92898 296.222 2.05398 296.108 2.15909C295.995 2.2642 295.861 2.31676 295.708 2.31676ZM296.729 10L297.82 3.45455H298.558L298.387 4.46023H298.455C298.646 4.12216 298.91 3.85653 299.248 3.66335C299.586 3.46733 299.969 3.36932 300.398 3.36932C300.847 3.36932 301.2 3.47585 301.455 3.68892C301.711 3.89915 301.881 4.18892 301.967 4.55824H302.022C302.227 4.1946 302.515 3.90625 302.887 3.69318C303.259 3.47727 303.684 3.36932 304.161 3.36932C304.766 3.36932 305.214 3.56108 305.504 3.9446C305.793 4.32812 305.877 4.88494 305.755 5.61506L305.022 10H304.263L304.996 5.61506C305.079 5.09801 305.012 4.71023 304.796 4.4517C304.58 4.19318 304.256 4.06392 303.825 4.06392C303.325 4.06392 302.911 4.21733 302.585 4.52415C302.261 4.82812 302.06 5.21733 301.984 5.69176L301.263 10H300.488L301.234 5.54688C301.305 5.10369 301.241 4.74574 301.042 4.47301C300.846 4.20028 300.523 4.06392 300.075 4.06392C299.771 4.06392 299.485 4.1392 299.218 4.28977C298.954 4.4375 298.729 4.64347 298.545 4.90767C298.363 5.16903 298.244 5.46875 298.187 5.80682L297.488 10H296.729ZM308.841 10.1491C308.446 10.1491 308.098 10.0724 307.797 9.91903C307.496 9.76278 307.272 9.53835 307.124 9.24574C306.979 8.95028 306.939 8.59233 307.005 8.17188C307.061 7.84801 307.169 7.57528 307.328 7.35369C307.49 7.1321 307.695 6.95028 307.942 6.80824C308.189 6.66335 308.473 6.54972 308.794 6.46733C309.115 6.38494 309.465 6.32244 309.843 6.27983C310.212 6.23437 310.527 6.1946 310.789 6.16051C311.05 6.12642 311.253 6.07244 311.398 5.99858C311.543 5.92472 311.63 5.8054 311.658 5.64062L311.684 5.48722C311.757 5.04119 311.689 4.69034 311.479 4.43466C311.269 4.17614 310.917 4.04688 310.422 4.04688C309.951 4.04688 309.542 4.15199 309.195 4.36222C308.851 4.5696 308.596 4.8125 308.428 5.09091L307.755 4.83097C307.959 4.47301 308.211 4.1875 308.509 3.97443C308.807 3.75852 309.127 3.60369 309.468 3.50994C309.809 3.41335 310.145 3.36506 310.478 3.36506C310.728 3.36506 310.982 3.39773 311.24 3.46307C311.499 3.52841 311.73 3.64205 311.935 3.80398C312.142 3.96307 312.294 4.18608 312.391 4.47301C312.49 4.7571 312.505 5.1179 312.434 5.5554L311.692 10H310.934L311.108 8.96449H311.061C310.942 9.15767 310.777 9.34517 310.567 9.52699C310.36 9.70881 310.111 9.85795 309.821 9.97443C309.532 10.0909 309.205 10.1491 308.841 10.1491ZM309.033 9.45455C309.436 9.45455 309.801 9.36506 310.128 9.18608C310.458 9.0071 310.728 8.76989 310.938 8.47443C311.151 8.17614 311.287 7.84801 311.347 7.49006L311.505 6.54403C311.442 6.59801 311.34 6.64631 311.198 6.68892C311.059 6.73153 310.901 6.76989 310.725 6.80398C310.551 6.83523 310.377 6.86222 310.201 6.88494C310.027 6.90767 309.874 6.92756 309.74 6.9446C309.363 6.99006 309.033 7.06108 308.752 7.15767C308.473 7.25426 308.25 7.38778 308.083 7.55824C307.915 7.72585 307.81 7.94176 307.767 8.20597C307.702 8.60369 307.789 8.91193 308.027 9.13068C308.269 9.34659 308.604 9.45455 309.033 9.45455ZM317.379 3.45455L317.272 4.11506H314.145L314.255 3.45455H317.379ZM315.487 1.88636H316.25L315.184 8.29119C315.139 8.56392 315.15 8.77841 315.218 8.93466C315.287 9.08807 315.392 9.19744 315.534 9.26278C315.676 9.32528 315.832 9.35653 316.002 9.35653C316.102 9.35653 316.187 9.35085 316.258 9.33949C316.332 9.32528 316.397 9.31108 316.454 9.29688L316.51 9.98295C316.427 10.0114 316.329 10.0369 316.216 10.0597C316.102 10.0852 315.966 10.098 315.806 10.098C315.528 10.098 315.271 10.0369 315.035 9.91477C314.799 9.79261 314.62 9.6108 314.498 9.36932C314.376 9.12784 314.343 8.82812 314.4 8.47017L315.487 1.88636ZM320.57 10.1364C319.959 10.1364 319.455 9.99432 319.057 9.71023C318.659 9.4233 318.381 9.02699 318.222 8.52131C318.063 8.01278 318.038 7.42756 318.149 6.76562C318.26 6.10653 318.479 5.52131 318.805 5.00994C319.132 4.49574 319.536 4.09375 320.016 3.80398C320.496 3.51136 321.017 3.36506 321.58 3.36506C321.935 3.36506 322.267 3.4304 322.577 3.56108C322.886 3.68892 323.149 3.88636 323.365 4.15341C323.584 4.41761 323.736 4.75142 323.821 5.15483C323.906 5.5554 323.903 6.02983 323.812 6.57812L323.753 6.95312H318.639L318.746 6.28409H323.088C323.159 5.86364 323.139 5.4858 323.028 5.15057C322.918 4.81534 322.729 4.54972 322.462 4.35369C322.197 4.15483 321.869 4.0554 321.477 4.0554C321.077 4.0554 320.697 4.16761 320.339 4.39205C319.984 4.61648 319.683 4.90909 319.436 5.26989C319.192 5.62784 319.034 6.00994 318.963 6.41619L318.878 6.91903C318.787 7.47301 318.798 7.9375 318.912 8.3125C319.026 8.68466 319.232 8.96591 319.53 9.15625C319.828 9.34659 320.21 9.44176 320.676 9.44176C320.989 9.44176 321.271 9.39347 321.524 9.29688C321.777 9.20028 321.997 9.07102 322.185 8.90909C322.372 8.74432 322.523 8.56392 322.636 8.3679L323.314 8.60227C323.169 8.87784 322.964 9.1321 322.7 9.36506C322.439 9.59801 322.128 9.78551 321.767 9.92756C321.409 10.0668 321.01 10.1364 320.57 10.1364ZM330.163 4.89062L329.434 5.07812C329.397 4.8821 329.329 4.70597 329.23 4.54972C329.133 4.39062 328.993 4.26562 328.808 4.17472C328.626 4.08097 328.387 4.03409 328.092 4.03409C327.649 4.03409 327.267 4.14205 326.946 4.35795C326.625 4.57102 326.437 4.84375 326.383 5.17614C326.338 5.45455 326.396 5.6804 326.558 5.85369C326.723 6.02699 326.998 6.16335 327.385 6.26278L328.339 6.50568C328.868 6.64205 329.244 6.85511 329.468 7.14489C329.696 7.43466 329.774 7.80114 329.703 8.24432C329.64 8.61364 329.483 8.94034 329.23 9.22443C328.98 9.50852 328.659 9.73153 328.267 9.89347C327.877 10.0554 327.443 10.1364 326.963 10.1364C326.318 10.1364 325.811 9.99148 325.441 9.7017C325.075 9.41193 324.879 8.99432 324.853 8.44886L325.616 8.27841C325.639 8.66477 325.771 8.95739 326.012 9.15625C326.257 9.35511 326.6 9.45455 327.044 9.45455C327.549 9.45455 327.974 9.33949 328.318 9.10938C328.662 8.87926 328.859 8.59517 328.91 8.2571C328.958 7.99006 328.909 7.76847 328.761 7.59233C328.616 7.41619 328.369 7.28551 328.02 7.20028L327.001 6.9446C326.453 6.8054 326.065 6.58807 325.838 6.29261C325.613 5.99432 325.538 5.62642 325.612 5.18892C325.672 4.82812 325.822 4.51136 326.064 4.23864C326.305 3.96591 326.61 3.75284 326.98 3.59943C327.349 3.44318 327.752 3.36506 328.19 3.36506C328.792 3.36506 329.251 3.50142 329.566 3.77415C329.882 4.04403 330.081 4.41619 330.163 4.89062ZM332.514 8.80682L332.352 9.26278C332.25 9.5696 332.125 9.90625 331.977 10.2727C331.83 10.642 331.683 10.9929 331.538 11.3253C331.393 11.6605 331.271 11.929 331.172 12.1307H330.588C330.653 11.9375 330.739 11.6918 330.844 11.3935C330.952 11.0952 331.067 10.7656 331.189 10.4048C331.311 10.044 331.429 9.67045 331.543 9.28409L331.688 8.80682H332.514ZM1.89205 20.9091L1.21449 25H0.455966L1.54688 18.4545H2.28409L2.11364 19.4815H2.18182C2.38636 19.1463 2.66903 18.8778 3.02983 18.6761C3.39347 18.4716 3.81534 18.3693 4.29545 18.3693C4.73295 18.3693 5.10227 18.4616 5.40341 18.6463C5.70739 18.8281 5.9233 19.0966 6.05114 19.4517C6.18182 19.8068 6.20455 20.2429 6.11932 20.7599L5.40767 25H4.64915L5.34801 20.8068C5.43608 20.2727 5.35795 19.8494 5.11364 19.5369C4.87216 19.2216 4.49858 19.0639 3.9929 19.0639C3.64915 19.0639 3.32955 19.1378 3.03409 19.2855C2.74148 19.4332 2.49432 19.6463 2.29261 19.9247C2.09091 20.2003 1.95739 20.5284 1.89205 20.9091ZM9.97905 25.1364C9.40518 25.1364 8.92223 24.9915 8.53018 24.7017C8.13814 24.4091 7.86115 24.0043 7.69922 23.4872C7.53729 22.9702 7.5103 22.3736 7.61825 21.6974C7.72621 21.0384 7.9407 20.4588 8.26172 19.9588C8.58558 19.456 8.98331 19.0653 9.4549 18.7869C9.92649 18.5057 10.4393 18.3651 10.9933 18.3651C11.57 18.3651 12.0529 18.5114 12.4421 18.804C12.8342 19.0966 13.1112 19.5014 13.2731 20.0185C13.4379 20.5355 13.4663 21.1335 13.3583 21.8125C13.2504 22.4688 13.0344 23.0469 12.7106 23.5469C12.3867 24.044 11.989 24.4332 11.5174 24.7145C11.0487 24.9957 10.5359 25.1364 9.97905 25.1364ZM9.98757 24.4418C10.4535 24.4418 10.8683 24.3182 11.2319 24.071C11.5984 23.821 11.9009 23.4886 12.1396 23.0739C12.3782 22.6562 12.5387 22.1974 12.6211 21.6974C12.6978 21.2202 12.6893 20.7812 12.5955 20.3807C12.5018 19.9801 12.3214 19.6591 12.0543 19.4176C11.7873 19.1761 11.4322 19.0554 10.989 19.0554C10.5259 19.0554 10.1112 19.1818 9.74467 19.4347C9.3782 19.6847 9.07564 20.0199 8.837 20.4403C8.59837 20.858 8.43928 21.3153 8.35973 21.8125C8.28018 22.2926 8.28587 22.7315 8.37678 23.1293C8.47053 23.527 8.65092 23.8452 8.91797 24.0838C9.18786 24.3224 9.54439 24.4418 9.98757 24.4418ZM18.1641 18.4545L18.0575 19.1151H14.9297L15.0405 18.4545H18.1641ZM16.272 16.8864H17.0348L15.9695 23.2912C15.924 23.5639 15.9354 23.7784 16.0036 23.9347C16.0717 24.0881 16.1768 24.1974 16.3189 24.2628C16.4609 24.3253 16.6172 24.3565 16.7876 24.3565C16.8871 24.3565 16.9723 24.3509 17.0433 24.3395C17.1172 24.3253 17.1825 24.3111 17.2393 24.2969L17.2947 24.983C17.2124 25.0114 17.1143 25.0369 17.0007 25.0597C16.8871 25.0852 16.7507 25.098 16.5916 25.098C16.3132 25.098 16.0561 25.0369 15.8203 24.9148C15.5845 24.7926 15.4055 24.6108 15.2834 24.3693C15.1612 24.1278 15.1286 23.8281 15.1854 23.4702L16.272 16.8864ZM23.9819 25.1491C23.587 25.1491 23.239 25.0724 22.9379 24.919C22.6367 24.7628 22.4123 24.5384 22.2646 24.2457C22.1197 23.9503 22.0799 23.5923 22.1452 23.1719C22.2021 22.848 22.31 22.5753 22.4691 22.3537C22.631 22.1321 22.8356 21.9503 23.0827 21.8082C23.3299 21.6634 23.614 21.5497 23.935 21.4673C24.256 21.3849 24.6055 21.3224 24.9833 21.2798C25.3526 21.2344 25.668 21.1946 25.9293 21.1605C26.1907 21.1264 26.3938 21.0724 26.5387 20.9986C26.6836 20.9247 26.7702 20.8054 26.7987 20.6406L26.8242 20.4872C26.8981 20.0412 26.8299 19.6903 26.6197 19.4347C26.4094 19.1761 26.0572 19.0469 25.5629 19.0469C25.0913 19.0469 24.6822 19.152 24.3356 19.3622C23.9918 19.5696 23.7362 19.8125 23.5685 20.0909L22.8952 19.831C23.0998 19.473 23.3512 19.1875 23.6495 18.9744C23.9478 18.7585 24.2674 18.6037 24.6083 18.5099C24.9492 18.4134 25.2859 18.3651 25.6183 18.3651C25.8683 18.3651 26.1225 18.3977 26.381 18.4631C26.6396 18.5284 26.8711 18.642 27.0756 18.804C27.283 18.9631 27.435 19.1861 27.5316 19.473C27.631 19.7571 27.6452 20.1179 27.5742 20.5554L26.8327 25H26.0742L26.2489 23.9645H26.2021C26.0827 24.1577 25.918 24.3452 25.7077 24.527C25.5004 24.7088 25.2518 24.858 24.962 24.9744C24.6722 25.0909 24.3455 25.1491 23.9819 25.1491ZM24.1737 24.4545C24.5771 24.4545 24.9421 24.3651 25.2688 24.1861C25.5984 24.0071 25.8683 23.7699 26.0785 23.4744C26.2915 23.1761 26.4279 22.848 26.4876 22.4901L26.6452 21.544C26.5827 21.598 26.4805 21.6463 26.3384 21.6889C26.1992 21.7315 26.0415 21.7699 25.8654 21.804C25.6921 21.8352 25.5174 21.8622 25.3413 21.8849C25.168 21.9077 25.0146 21.9276 24.881 21.9446C24.5032 21.9901 24.1737 22.0611 23.8924 22.1577C23.614 22.2543 23.391 22.3878 23.2234 22.5582C23.0558 22.7259 22.9506 22.9418 22.908 23.206C22.8427 23.6037 22.9293 23.9119 23.168 24.1307C23.4094 24.3466 23.7447 24.4545 24.1737 24.4545ZM31.3903 25.1364C30.7994 25.1364 30.3121 24.9901 29.9286 24.6974C29.5451 24.4048 29.2766 24.0043 29.1232 23.4957C28.9727 22.9844 28.9513 22.4048 29.0593 21.7571C29.1673 21.098 29.3846 20.5142 29.7113 20.0057C30.038 19.4943 30.4414 19.0937 30.9215 18.804C31.4045 18.5114 31.9315 18.3651 32.5025 18.3651C32.9428 18.3651 33.3263 18.4503 33.6531 18.6207C33.9798 18.7884 34.2326 19.0256 34.4116 19.3324C34.5906 19.6364 34.6758 19.9915 34.6673 20.3977H33.9002C33.8803 20.0199 33.7425 19.7017 33.4869 19.4432C33.234 19.1847 32.8761 19.0554 32.413 19.0554C31.9897 19.0554 31.5977 19.169 31.2369 19.3963C30.8761 19.6207 30.5707 19.9347 30.3207 20.3381C30.0735 20.7386 29.9073 21.2031 29.8221 21.7315C29.7312 22.2628 29.7397 22.733 29.8477 23.142C29.9556 23.5483 30.1488 23.8665 30.4272 24.0966C30.7085 24.3267 31.0636 24.4418 31.4925 24.4418C31.7852 24.4418 32.0607 24.3878 32.3192 24.2798C32.5778 24.169 32.8065 24.0128 33.0053 23.8111C33.2042 23.6065 33.3562 23.3665 33.4613 23.0909H34.2283C34.1005 23.4886 33.8988 23.8409 33.6232 24.1477C33.3505 24.4545 33.0238 24.696 32.6431 24.8722C32.2624 25.0483 31.8448 25.1364 31.3903 25.1364ZM39.1992 18.4545L39.0927 19.1151H35.9648L36.0756 18.4545H39.1992ZM37.3072 16.8864H38.07L37.0046 23.2912C36.9592 23.5639 36.9705 23.7784 37.0387 23.9347C37.1069 24.0881 37.212 24.1974 37.354 24.2628C37.4961 24.3253 37.6523 24.3565 37.8228 24.3565C37.9222 24.3565 38.0075 24.3509 38.0785 24.3395C38.1523 24.3253 38.2177 24.3111 38.2745 24.2969L38.3299 24.983C38.2475 25.0114 38.1495 25.0369 38.0359 25.0597C37.9222 25.0852 37.7859 25.098 37.6268 25.098C37.3484 25.098 37.0913 25.0369 36.8555 24.9148C36.6197 24.7926 36.4407 24.6108 36.3185 24.3693C36.1964 24.1278 36.1637 23.8281 36.2205 23.4702L37.3072 16.8864ZM44.4034 22.4986L45.081 18.4545H45.8395L44.7486 25H43.9901L44.169 23.9134H44.1136C43.9091 24.2486 43.6193 24.5284 43.2443 24.7528C42.8722 24.9744 42.446 25.0852 41.9659 25.0852C41.5483 25.0852 41.1918 24.9943 40.8963 24.8125C40.6037 24.6278 40.3949 24.358 40.2699 24.0028C40.1449 23.6477 40.125 23.2116 40.2102 22.6946L40.9219 18.4545H41.6804L40.9815 22.6477C40.8991 23.1591 40.9815 23.571 41.2287 23.8835C41.4787 24.1932 41.8395 24.348 42.3111 24.348C42.6065 24.348 42.902 24.277 43.1974 24.1349C43.4957 23.9929 43.7543 23.7855 43.973 23.5128C44.1946 23.2372 44.3381 22.8991 44.4034 22.4986ZM48.5678 25.1491C48.1729 25.1491 47.8249 25.0724 47.5238 24.919C47.2227 24.7628 46.9982 24.5384 46.8505 24.2457C46.7056 23.9503 46.6658 23.5923 46.7312 23.1719C46.788 22.848 46.896 22.5753 47.055 22.3537C47.217 22.1321 47.4215 21.9503 47.6687 21.8082C47.9158 21.6634 48.1999 21.5497 48.521 21.4673C48.842 21.3849 49.1914 21.3224 49.5692 21.2798C49.9386 21.2344 50.2539 21.1946 50.5153 21.1605C50.7766 21.1264 50.9798 21.0724 51.1246 20.9986C51.2695 20.9247 51.3562 20.8054 51.3846 20.6406L51.4102 20.4872C51.484 20.0412 51.4158 19.6903 51.2056 19.4347C50.9954 19.1761 50.6431 19.0469 50.1488 19.0469C49.6772 19.0469 49.2681 19.152 48.9215 19.3622C48.5778 19.5696 48.3221 19.8125 48.1545 20.0909L47.4812 19.831C47.6857 19.473 47.9371 19.1875 48.2354 18.9744C48.5337 18.7585 48.8533 18.6037 49.1942 18.5099C49.5352 18.4134 49.8718 18.3651 50.2042 18.3651C50.4542 18.3651 50.7085 18.3977 50.967 18.4631C51.2255 18.5284 51.457 18.642 51.6616 18.804C51.869 18.9631 52.021 19.1861 52.1175 19.473C52.217 19.7571 52.2312 20.1179 52.1602 20.5554L51.4187 25H50.6602L50.8349 23.9645H50.788C50.6687 24.1577 50.5039 24.3452 50.2937 24.527C50.0863 24.7088 49.8377 24.858 49.5479 24.9744C49.2582 25.0909 48.9315 25.1491 48.5678 25.1491ZM48.7596 24.4545C49.163 24.4545 49.5281 24.3651 49.8548 24.1861C50.1843 24.0071 50.4542 23.7699 50.6644 23.4744C50.8775 23.1761 51.0138 22.848 51.0735 22.4901L51.2312 21.544C51.1687 21.598 51.0664 21.6463 50.9244 21.6889C50.7852 21.7315 50.6275 21.7699 50.4513 21.804C50.2781 21.8352 50.1033 21.8622 49.9272 21.8849C49.7539 21.9077 49.6005 21.9276 49.467 21.9446C49.0891 21.9901 48.7596 22.0611 48.4783 22.1577C48.1999 22.2543 47.9769 22.3878 47.8093 22.5582C47.6417 22.7259 47.5366 22.9418 47.494 23.206C47.4286 23.6037 47.5153 23.9119 47.7539 24.1307C47.9954 24.3466 48.3306 24.4545 48.7596 24.4545ZM55.6438 16.2727L54.195 25H53.4364L54.8853 16.2727H55.6438ZM59.5472 25L59.6495 24.4162L63.0245 21.2116C63.4648 20.7912 63.8242 20.4318 64.1026 20.1335C64.381 19.8324 64.5941 19.5568 64.7418 19.3068C64.8896 19.054 64.9862 18.7912 65.0316 18.5185C65.0856 18.1861 65.0572 17.8963 64.9464 17.6491C64.8384 17.3991 64.6637 17.2045 64.4222 17.0653C64.1836 16.9261 63.8938 16.8565 63.5529 16.8565C63.195 16.8565 62.8668 16.9332 62.5685 17.0866C62.2702 17.2401 62.0217 17.4517 61.8228 17.7216C61.6268 17.9886 61.4989 18.294 61.4393 18.6378H60.6765C60.756 18.1548 60.9393 17.7273 61.2262 17.3551C61.516 16.9801 61.8739 16.6861 62.3001 16.473C62.7262 16.2599 63.185 16.1534 63.6765 16.1534C64.1651 16.1534 64.5799 16.2585 64.9208 16.4688C65.2617 16.6761 65.5089 16.9588 65.6623 17.3168C65.8157 17.6747 65.8555 18.0753 65.7816 18.5185C65.7248 18.8423 65.6154 19.1548 65.4535 19.456C65.2915 19.7543 65.043 20.0881 64.7077 20.4574C64.3725 20.8267 63.9194 21.2784 63.3484 21.8125L60.7873 24.2287L60.7745 24.2841H65.0913L64.9719 25H59.5472ZM69.5604 25.1193C68.9467 25.1193 68.4524 24.9432 68.0774 24.5909C67.7024 24.2358 67.4567 23.7244 67.3402 23.0568C67.2237 22.3864 67.2422 21.5795 67.3956 20.6364C67.549 19.6989 67.7962 18.8963 68.1371 18.2287C68.478 17.5582 68.8942 17.0455 69.3857 16.6903C69.88 16.3324 70.4325 16.1534 71.0433 16.1534C71.6513 16.1534 72.1442 16.3324 72.522 16.6903C72.8999 17.0455 73.1499 17.5582 73.272 18.2287C73.397 18.8963 73.3814 19.6989 73.2251 20.6364C73.0661 21.5767 72.8161 22.3821 72.4751 23.0526C72.1342 23.7202 71.7152 24.2315 71.218 24.5866C70.7237 24.9418 70.1712 25.1193 69.5604 25.1193ZM69.6669 24.4034C70.3374 24.4034 70.9183 24.0767 71.4098 23.4233C71.9041 22.7699 72.2507 21.8409 72.4496 20.6364C72.5803 19.8494 72.6072 19.1733 72.5305 18.608C72.4567 18.0426 72.2848 17.6094 72.0149 17.3082C71.745 17.0071 71.3871 16.8565 70.9411 16.8565C70.2734 16.8565 69.6939 17.1861 69.2024 17.8452C68.7109 18.5014 68.3658 19.4318 68.1669 20.6364C68.0362 21.4233 68.0078 22.098 68.0817 22.6605C68.1555 23.223 68.326 23.6548 68.593 23.956C68.8601 24.2543 69.218 24.4034 69.6669 24.4034ZM74.2308 25L74.3331 24.4162L77.7081 21.2116C78.1484 20.7912 78.5078 20.4318 78.7862 20.1335C79.0646 19.8324 79.2777 19.5568 79.4254 19.3068C79.5732 19.054 79.6697 18.7912 79.7152 18.5185C79.7692 18.1861 79.7408 17.8963 79.63 17.6491C79.522 17.3991 79.3473 17.2045 79.1058 17.0653C78.8672 16.9261 78.5774 16.8565 78.2365 16.8565C77.8786 16.8565 77.5504 16.9332 77.2521 17.0866C76.9538 17.2401 76.7053 17.4517 76.5064 17.7216C76.3104 17.9886 76.1825 18.294 76.1229 18.6378H75.3601C75.4396 18.1548 75.6229 17.7273 75.9098 17.3551C76.1996 16.9801 76.5575 16.6861 76.9837 16.473C77.4098 16.2599 77.8686 16.1534 78.3601 16.1534C78.8487 16.1534 79.2635 16.2585 79.6044 16.4688C79.9453 16.6761 80.1925 16.9588 80.3459 17.3168C80.4993 17.6747 80.5391 18.0753 80.4652 18.5185C80.4084 18.8423 80.299 19.1548 80.1371 19.456C79.9751 19.7543 79.7266 20.0881 79.3913 20.4574C79.0561 20.8267 78.603 21.2784 78.032 21.8125L75.4709 24.2287L75.4581 24.2841H79.7749L79.6555 25H74.2308ZM84.4059 25.1193C83.8661 25.1193 83.3974 25.0227 82.9996 24.8295C82.6019 24.6335 82.3065 24.3636 82.1133 24.0199C81.9201 23.6733 81.8548 23.2727 81.9173 22.8182H82.7141C82.6772 23.1335 82.7241 23.4105 82.8548 23.6491C82.9854 23.8878 83.1843 24.0739 83.4513 24.2074C83.7212 24.3381 84.0437 24.4034 84.4187 24.4034C84.8164 24.4034 85.1871 24.3295 85.5309 24.1818C85.8746 24.0312 86.1616 23.8224 86.3917 23.5554C86.6246 23.2855 86.7681 22.973 86.8221 22.6179C86.8761 22.277 86.8363 21.9759 86.7028 21.7145C86.5721 21.4503 86.3548 21.2443 86.0508 21.0966C85.7468 20.9489 85.3633 20.875 84.9002 20.875H84.3803L84.4911 20.1591H84.9812C85.359 20.1591 85.707 20.0895 86.0252 19.9503C86.3434 19.8082 86.609 19.6094 86.8221 19.3537C87.0352 19.0952 87.1701 18.7912 87.2269 18.4418C87.2781 18.1293 87.2553 17.8551 87.1587 17.6193C87.065 17.3807 86.9031 17.1946 86.6729 17.0611C86.4428 16.9247 86.1516 16.8565 85.7994 16.8565C85.4613 16.8565 85.1346 16.9219 84.8192 17.0526C84.5039 17.1832 84.2369 17.3679 84.0181 17.6065C83.7994 17.8452 83.6616 18.1278 83.6048 18.4545H82.8335C82.9158 18.0028 83.1033 17.6037 83.396 17.2571C83.6886 16.9105 84.0465 16.6406 84.4698 16.4474C84.8931 16.2514 85.3462 16.1534 85.8292 16.1534C86.3462 16.1534 86.7766 16.2614 87.1204 16.4773C87.467 16.6932 87.7156 16.9787 87.8661 17.3338C88.0167 17.6889 88.0565 18.0781 87.9854 18.5014C87.9087 18.9901 87.7056 19.4062 87.3761 19.75C87.0465 20.0938 86.6417 20.3366 86.1616 20.4787V20.5213C86.7013 20.6321 87.0977 20.8864 87.3505 21.2841C87.6062 21.6818 87.6871 22.1577 87.5934 22.7116C87.5167 23.1889 87.3306 23.6094 87.0352 23.973C86.7397 24.3338 86.3661 24.6151 85.9144 24.8168C85.4627 25.0185 84.9599 25.1193 84.4059 25.1193ZM92.0977 27.4545L93.6062 18.4545H94.3434L94.1388 19.7031H94.2283C94.3477 19.5071 94.5025 19.3054 94.6928 19.098C94.886 18.8906 95.1261 18.7173 95.413 18.5781C95.7028 18.4361 96.0494 18.3651 96.4528 18.3651C96.9925 18.3651 97.44 18.5057 97.7951 18.7869C98.1531 19.0682 98.4031 19.4631 98.5451 19.9716C98.69 20.4801 98.7056 21.071 98.592 21.7443C98.4812 22.4205 98.2695 23.0128 97.957 23.5213C97.6445 24.0298 97.2624 24.4261 96.8107 24.7102C96.3619 24.9943 95.8704 25.1364 95.3363 25.1364C94.9414 25.1364 94.6218 25.0653 94.3775 24.9233C94.136 24.7812 93.9513 24.6065 93.8235 24.3991C93.6957 24.1889 93.6033 23.9844 93.5465 23.7855H93.4783L92.8647 27.4545H92.0977ZM93.8107 21.7315C93.7255 22.2599 93.7255 22.7287 93.8107 23.1378C93.896 23.544 94.0678 23.8636 94.3263 24.0966C94.5849 24.3267 94.9258 24.4418 95.3491 24.4418C95.7837 24.4418 96.1715 24.3224 96.5124 24.0838C96.8533 23.8423 97.1374 23.517 97.3647 23.108C97.592 22.6989 97.7482 22.2401 97.8335 21.7315C97.913 21.2287 97.9102 20.7756 97.8249 20.3722C97.7397 19.9687 97.5692 19.6491 97.3136 19.4134C97.0579 19.1747 96.7099 19.0554 96.2695 19.0554C95.8434 19.0554 95.4599 19.1705 95.119 19.4006C94.7809 19.6278 94.4996 19.9432 94.2752 20.3466C94.0508 20.7472 93.896 21.2088 93.8107 21.7315ZM102.343 25.1364C101.732 25.1364 101.228 24.9943 100.83 24.7102C100.433 24.4233 100.154 24.027 99.995 23.5213C99.8359 23.0128 99.8118 22.4276 99.9226 21.7656C100.033 21.1065 100.252 20.5213 100.579 20.0099C100.906 19.4957 101.309 19.0937 101.789 18.804C102.269 18.5114 102.79 18.3651 103.353 18.3651C103.708 18.3651 104.04 18.4304 104.35 18.5611C104.66 18.6889 104.923 18.8864 105.138 19.1534C105.357 19.4176 105.509 19.7514 105.594 20.1548C105.68 20.5554 105.677 21.0298 105.586 21.5781L105.526 21.9531H100.413L100.519 21.2841H104.862C104.933 20.8636 104.913 20.4858 104.802 20.1506C104.691 19.8153 104.502 19.5497 104.235 19.3537C103.971 19.1548 103.643 19.0554 103.251 19.0554C102.85 19.0554 102.471 19.1676 102.113 19.392C101.758 19.6165 101.457 19.9091 101.21 20.2699C100.965 20.6278 100.808 21.0099 100.737 21.4162L100.651 21.919C100.56 22.473 100.572 22.9375 100.685 23.3125C100.799 23.6847 101.005 23.9659 101.303 24.1562C101.602 24.3466 101.984 24.4418 102.45 24.4418C102.762 24.4418 103.045 24.3935 103.298 24.2969C103.55 24.2003 103.771 24.071 103.958 23.9091C104.146 23.7443 104.296 23.5639 104.41 23.3679L105.087 23.6023C104.942 23.8778 104.738 24.1321 104.474 24.3651C104.212 24.598 103.901 24.7855 103.54 24.9276C103.183 25.0668 102.783 25.1364 102.343 25.1364ZM106.686 25L107.777 18.4545H108.515L108.344 19.4602H108.4C108.581 19.1307 108.853 18.8651 109.213 18.6634C109.577 18.4588 109.965 18.3565 110.377 18.3565C110.439 18.3565 110.509 18.358 110.586 18.3608C110.662 18.3608 110.726 18.3636 110.777 18.3693L110.645 19.1406C110.611 19.1349 110.551 19.1264 110.466 19.1151C110.384 19.1037 110.292 19.098 110.189 19.098C109.848 19.098 109.533 19.1705 109.243 19.3153C108.956 19.4574 108.715 19.6548 108.519 19.9077C108.326 20.1605 108.201 20.4489 108.144 20.7727L107.445 25H106.686ZM115.17 18.4545L115.059 19.1151H111.846L111.952 18.4545H115.17ZM111.867 25L113.116 17.4957C113.173 17.1435 113.302 16.8466 113.504 16.6051C113.708 16.3636 113.952 16.1804 114.237 16.0554C114.521 15.9304 114.812 15.8679 115.11 15.8679C115.309 15.8679 115.471 15.8849 115.596 15.919C115.721 15.9503 115.819 15.9815 115.89 16.0128L115.566 16.6776C115.509 16.6605 115.441 16.6406 115.362 16.6179C115.285 16.5952 115.184 16.5838 115.059 16.5838C114.729 16.5838 114.46 16.6761 114.249 16.8608C114.039 17.0455 113.904 17.3097 113.844 17.6534L112.626 25H111.867ZM117.897 25.1364C117.323 25.1364 116.84 24.9915 116.448 24.7017C116.056 24.4091 115.779 24.0043 115.617 23.4872C115.455 22.9702 115.428 22.3736 115.536 21.6974C115.644 21.0384 115.859 20.4588 116.18 19.9588C116.504 19.456 116.901 19.0653 117.373 18.7869C117.844 18.5057 118.357 18.3651 118.911 18.3651C119.488 18.3651 119.971 18.5114 120.36 18.804C120.752 19.0966 121.029 19.5014 121.191 20.0185C121.356 20.5355 121.384 21.1335 121.276 21.8125C121.168 22.4688 120.952 23.0469 120.629 23.5469C120.305 24.044 119.907 24.4332 119.435 24.7145C118.967 24.9957 118.454 25.1364 117.897 25.1364ZM117.906 24.4418C118.371 24.4418 118.786 24.3182 119.15 24.071C119.516 23.821 119.819 23.4886 120.058 23.0739C120.296 22.6562 120.457 22.1974 120.539 21.6974C120.616 21.2202 120.607 20.7812 120.513 20.3807C120.42 19.9801 120.239 19.6591 119.972 19.4176C119.705 19.1761 119.35 19.0554 118.907 19.0554C118.444 19.0554 118.029 19.1818 117.663 19.4347C117.296 19.6847 116.994 20.0199 116.755 20.4403C116.516 20.858 116.357 21.3153 116.278 21.8125C116.198 22.2926 116.204 22.7315 116.295 23.1293C116.388 23.527 116.569 23.8452 116.836 24.0838C117.106 24.3224 117.462 24.4418 117.906 24.4418ZM122.413 25L123.504 18.4545H124.241L124.071 19.4602H124.126C124.308 19.1307 124.579 18.8651 124.94 18.6634C125.304 18.4588 125.691 18.3565 126.103 18.3565C126.166 18.3565 126.235 18.358 126.312 18.3608C126.389 18.3608 126.453 18.3636 126.504 18.3693L126.372 19.1406C126.338 19.1349 126.278 19.1264 126.193 19.1151C126.11 19.1037 126.018 19.098 125.916 19.098C125.575 19.098 125.26 19.1705 124.97 19.3153C124.683 19.4574 124.441 19.6548 124.245 19.9077C124.052 20.1605 123.927 20.4489 123.87 20.7727L123.172 25H122.413ZM126.702 25L127.793 18.4545H128.53L128.36 19.4602H128.428C128.618 19.1222 128.882 18.8565 129.221 18.6634C129.559 18.4673 129.942 18.3693 130.371 18.3693C130.82 18.3693 131.172 18.4759 131.428 18.6889C131.684 18.8991 131.854 19.1889 131.939 19.5582H131.995C132.199 19.1946 132.488 18.9062 132.86 18.6932C133.232 18.4773 133.657 18.3693 134.134 18.3693C134.739 18.3693 135.186 18.5611 135.476 18.9446C135.766 19.3281 135.85 19.8849 135.728 20.6151L134.995 25H134.236L134.969 20.6151C135.051 20.098 134.985 19.7102 134.769 19.4517C134.553 19.1932 134.229 19.0639 133.797 19.0639C133.297 19.0639 132.884 19.2173 132.557 19.5241C132.233 19.8281 132.033 20.2173 131.956 20.6918L131.236 25H130.461L131.206 20.5469C131.277 20.1037 131.213 19.7457 131.015 19.473C130.819 19.2003 130.496 19.0639 130.047 19.0639C129.743 19.0639 129.458 19.1392 129.191 19.2898C128.926 19.4375 128.702 19.6435 128.517 19.9077C128.336 20.169 128.216 20.4687 128.159 20.8068L127.461 25H126.702ZM138.814 25.1491C138.419 25.1491 138.071 25.0724 137.77 24.919C137.469 24.7628 137.244 24.5384 137.097 24.2457C136.952 23.9503 136.912 23.5923 136.977 23.1719C137.034 22.848 137.142 22.5753 137.301 22.3537C137.463 22.1321 137.668 21.9503 137.915 21.8082C138.162 21.6634 138.446 21.5497 138.767 21.4673C139.088 21.3849 139.438 21.3224 139.815 21.2798C140.185 21.2344 140.5 21.1946 140.761 21.1605C141.023 21.1264 141.226 21.0724 141.371 20.9986C141.516 20.9247 141.602 20.8054 141.631 20.6406L141.656 20.4872C141.73 20.0412 141.662 19.6903 141.452 19.4347C141.241 19.1761 140.889 19.0469 140.395 19.0469C139.923 19.0469 139.514 19.152 139.168 19.3622C138.824 19.5696 138.568 19.8125 138.401 20.0909L137.727 19.831C137.932 19.473 138.183 19.1875 138.482 18.9744C138.78 18.7585 139.099 18.6037 139.44 18.5099C139.781 18.4134 140.118 18.3651 140.45 18.3651C140.7 18.3651 140.955 18.3977 141.213 18.4631C141.472 18.5284 141.703 18.642 141.908 18.804C142.115 18.9631 142.267 19.1861 142.364 19.473C142.463 19.7571 142.477 20.1179 142.406 20.5554L141.665 25H140.906L141.081 23.9645H141.034C140.915 24.1577 140.75 24.3452 140.54 24.527C140.332 24.7088 140.084 24.858 139.794 24.9744C139.504 25.0909 139.178 25.1491 138.814 25.1491ZM139.006 24.4545C139.409 24.4545 139.774 24.3651 140.101 24.1861C140.43 24.0071 140.7 23.7699 140.911 23.4744C141.124 23.1761 141.26 22.848 141.32 22.4901L141.477 21.544C141.415 21.598 141.313 21.6463 141.17 21.6889C141.031 21.7315 140.874 21.7699 140.697 21.804C140.524 21.8352 140.349 21.8622 140.173 21.8849C140 21.9077 139.847 21.9276 139.713 21.9446C139.335 21.9901 139.006 22.0611 138.724 22.1577C138.446 22.2543 138.223 22.3878 138.055 22.5582C137.888 22.7259 137.783 22.9418 137.74 23.206C137.675 23.6037 137.761 23.9119 138 24.1307C138.241 24.3466 138.577 24.4545 139.006 24.4545ZM145.119 20.9091L144.441 25H143.683L144.773 18.4545H145.511L145.34 19.4815H145.408C145.613 19.1463 145.896 18.8778 146.256 18.6761C146.62 18.4716 147.042 18.3693 147.522 18.3693C147.96 18.3693 148.329 18.4616 148.63 18.6463C148.934 18.8281 149.15 19.0966 149.278 19.4517C149.408 19.8068 149.431 20.2429 149.346 20.7599L148.634 25H147.876L148.575 20.8068C148.663 20.2727 148.585 19.8494 148.34 19.5369C148.099 19.2216 147.725 19.0639 147.219 19.0639C146.876 19.0639 146.556 19.1378 146.261 19.2855C145.968 19.4332 145.721 19.6463 145.519 19.9247C145.317 20.2003 145.184 20.5284 145.119 20.9091ZM153.172 25.1364C152.581 25.1364 152.093 24.9901 151.71 24.6974C151.326 24.4048 151.058 24.0043 150.904 23.4957C150.754 22.9844 150.733 22.4048 150.841 21.7571C150.949 21.098 151.166 20.5142 151.493 20.0057C151.819 19.4943 152.223 19.0937 152.703 18.804C153.186 18.5114 153.713 18.3651 154.284 18.3651C154.724 18.3651 155.108 18.4503 155.434 18.6207C155.761 18.7884 156.014 19.0256 156.193 19.3324C156.372 19.6364 156.457 19.9915 156.449 20.3977H155.681C155.662 20.0199 155.524 19.7017 155.268 19.4432C155.015 19.1847 154.657 19.0554 154.194 19.0554C153.771 19.0554 153.379 19.169 153.018 19.3963C152.657 19.6207 152.352 19.9347 152.102 20.3381C151.855 20.7386 151.689 21.2031 151.603 21.7315C151.512 22.2628 151.521 22.733 151.629 23.142C151.737 23.5483 151.93 23.8665 152.208 24.0966C152.49 24.3267 152.845 24.4418 153.274 24.4418C153.566 24.4418 153.842 24.3878 154.1 24.2798C154.359 24.169 154.588 24.0128 154.787 23.8111C154.985 23.6065 155.137 23.3665 155.243 23.0909H156.01C155.882 23.4886 155.68 23.8409 155.404 24.1477C155.132 24.4545 154.805 24.696 154.424 24.8722C154.044 25.0483 153.626 25.1364 153.172 25.1364ZM159.941 25.1364C159.33 25.1364 158.826 24.9943 158.428 24.7102C158.03 24.4233 157.752 24.027 157.593 23.5213C157.434 23.0128 157.409 22.4276 157.52 21.7656C157.631 21.1065 157.85 20.5213 158.176 20.0099C158.503 19.4957 158.907 19.0937 159.387 18.804C159.867 18.5114 160.388 18.3651 160.951 18.3651C161.306 18.3651 161.638 18.4304 161.948 18.5611C162.257 18.6889 162.52 18.8864 162.736 19.1534C162.955 19.4176 163.107 19.7514 163.192 20.1548C163.277 20.5554 163.275 21.0298 163.184 21.5781L163.124 21.9531H158.01L158.117 21.2841H162.459C162.53 20.8636 162.51 20.4858 162.4 20.1506C162.289 19.8153 162.1 19.5497 161.833 19.3537C161.569 19.1548 161.24 19.0554 160.848 19.0554C160.448 19.0554 160.069 19.1676 159.711 19.392C159.355 19.6165 159.054 19.9091 158.807 20.2699C158.563 20.6278 158.405 21.0099 158.334 21.4162L158.249 21.919C158.158 22.473 158.169 22.9375 158.283 23.3125C158.397 23.6847 158.603 23.9659 158.901 24.1562C159.199 24.3466 159.581 24.4418 160.047 24.4418C160.36 24.4418 160.642 24.3935 160.895 24.2969C161.148 24.2003 161.368 24.071 161.556 23.9091C161.743 23.7443 161.894 23.5639 162.007 23.3679L162.685 23.6023C162.54 23.8778 162.336 24.1321 162.071 24.3651C161.81 24.598 161.499 24.7855 161.138 24.9276C160.78 25.0668 160.381 25.1364 159.941 25.1364ZM166.739 21.3182C166.568 22.3409 166.278 23.3068 165.869 24.2159C165.463 25.125 164.952 25.9773 164.335 26.7727H163.645C163.909 26.4375 164.162 26.0582 164.403 25.6349C164.645 25.2116 164.866 24.7599 165.068 24.2798C165.273 23.7997 165.45 23.3082 165.601 22.8054C165.754 22.3026 165.872 21.8068 165.955 21.3182C166.063 20.6619 166.112 20 166.104 19.3324C166.095 18.6648 166.034 18.0312 165.92 17.4318C165.81 16.8324 165.653 16.3097 165.452 15.8636H166.142C166.491 16.6619 166.72 17.5156 166.828 18.4247C166.939 19.3338 166.909 20.2983 166.739 21.3182Z" fill="#24408E"/>
</svg>
