<svg width="100%" viewBox="0 0 422 209" fill="none" xmlns="http://www.w3.org/2000/svg">
<rect x="0.5" y="0.5" width="420.333" height="208" rx="19.5" fill="#24CBFF" fill-opacity="0.2"/>
<rect x="0.5" y="0.5" width="420.333" height="208" rx="19.5" stroke="#24CBFF"/>
<path d="M48.8693 30.3153V28.9091H58.6875V30.3153H54.571V42H52.9858V30.3153H48.8693ZM63.4943 42.2045C62.608 42.2045 61.8303 41.9936 61.1612 41.5717C60.4964 41.1499 59.9766 40.5597 59.6016 39.8011C59.2308 39.0426 59.0455 38.1562 59.0455 37.142C59.0455 36.1193 59.2308 35.2266 59.6016 34.4638C59.9766 33.701 60.4964 33.1087 61.1612 32.6868C61.8303 32.2649 62.608 32.054 63.4943 32.054C64.3807 32.054 65.1563 32.2649 65.821 32.6868C66.4901 33.1087 67.0099 33.701 67.3807 34.4638C67.7557 35.2266 67.9432 36.1193 67.9432 37.142C67.9432 38.1562 67.7557 39.0426 67.3807 39.8011C67.0099 40.5597 66.4901 41.1499 65.821 41.5717C65.1563 41.9936 64.3807 42.2045 63.4943 42.2045ZM63.4943 40.8494C64.1676 40.8494 64.7216 40.6768 65.1562 40.3317C65.5909 39.9865 65.9126 39.5327 66.1214 38.9702C66.3303 38.4077 66.4347 37.7983 66.4347 37.142C66.4347 36.4858 66.3303 35.8743 66.1214 35.3075C65.9126 34.7408 65.5909 34.2827 65.1562 33.9332C64.7216 33.5838 64.1676 33.4091 63.4943 33.4091C62.821 33.4091 62.267 33.5838 61.8324 33.9332C61.3977 34.2827 61.076 34.7408 60.8672 35.3075C60.6584 35.8743 60.554 36.4858 60.554 37.142C60.554 37.7983 60.6584 38.4077 60.8672 38.9702C61.076 39.5327 61.3977 39.9865 61.8324 40.3317C62.267 40.6768 62.821 40.8494 63.4943 40.8494ZM74.5158 32.1818V33.4602H69.4277V32.1818H74.5158ZM70.9107 29.8295H72.4192V39.1875C72.4192 39.6136 72.481 39.9332 72.6046 40.1463C72.7324 40.3551 72.8944 40.4957 73.0904 40.5682C73.2907 40.6364 73.5016 40.6705 73.7232 40.6705C73.8894 40.6705 74.0257 40.6619 74.1323 40.6449C74.2388 40.6236 74.324 40.6065 74.388 40.5938L74.6948 41.9489C74.5925 41.9872 74.4498 42.0256 74.2665 42.0639C74.0833 42.1065 73.851 42.1278 73.5698 42.1278C73.1436 42.1278 72.726 42.0362 72.3169 41.853C71.9121 41.6697 71.5755 41.3906 71.307 41.0156C71.0428 40.6406 70.9107 40.1676 70.9107 39.5966V29.8295ZM79.6742 42.2301C79.052 42.2301 78.4874 42.1129 77.9803 41.8786C77.4732 41.6399 77.0705 41.2969 76.7722 40.8494C76.4739 40.3977 76.3248 39.8523 76.3248 39.2131C76.3248 38.6506 76.4355 38.1946 76.6571 37.8452C76.8787 37.4915 77.1749 37.2145 77.5456 37.0142C77.9164 36.8139 78.3255 36.6648 78.7729 36.5668C79.2246 36.4645 79.6784 36.3835 80.1344 36.3239C80.731 36.2472 81.2147 36.1896 81.5854 36.1513C81.9604 36.1087 82.2331 36.0384 82.4036 35.9403C82.5783 35.8423 82.6657 35.6719 82.6657 35.429V35.3778C82.6657 34.7472 82.4931 34.2571 82.1479 33.9077C81.807 33.5582 81.2892 33.3835 80.5946 33.3835C79.8745 33.3835 79.3098 33.5412 78.9007 33.8565C78.4917 34.1719 78.204 34.5085 78.0378 34.8665L76.606 34.3551C76.8617 33.7585 77.2026 33.294 77.6287 32.9616C78.0591 32.625 78.5279 32.3906 79.035 32.2585C79.5463 32.1222 80.0492 32.054 80.5435 32.054C80.8588 32.054 81.2211 32.0923 81.6301 32.169C82.0435 32.2415 82.4419 32.3928 82.8255 32.6229C83.2132 32.853 83.535 33.2003 83.7907 33.6648C84.0463 34.1293 84.1742 34.7514 84.1742 35.5312V42H82.6657V40.6705H82.589C82.4867 40.8835 82.3162 41.1115 82.0776 41.3544C81.839 41.5973 81.5215 41.804 81.1252 41.9744C80.7289 42.1449 80.2452 42.2301 79.6742 42.2301ZM79.9043 40.875C80.5009 40.875 81.0037 40.7578 81.4128 40.5234C81.8262 40.2891 82.1373 39.9865 82.3461 39.6158C82.5591 39.245 82.6657 38.8551 82.6657 38.446V37.0653C82.6017 37.142 82.4611 37.2124 82.2438 37.2763C82.0307 37.3359 81.7836 37.3892 81.5023 37.4361C81.2253 37.4787 80.9547 37.517 80.6905 37.5511C80.4306 37.581 80.2196 37.6065 80.0577 37.6278C79.6657 37.679 79.2992 37.7621 78.9583 37.8771C78.6216 37.9879 78.3489 38.1562 78.1401 38.3821C77.9355 38.6037 77.8333 38.9062 77.8333 39.2898C77.8333 39.8139 78.0272 40.2102 78.415 40.4787C78.807 40.7429 79.3034 40.875 79.9043 40.875ZM88.4361 28.9091V42H86.9276V28.9091H88.4361ZM100.225 45.8864C99.4959 45.8864 98.8695 45.7926 98.3453 45.6051C97.8212 45.4219 97.3844 45.179 97.035 44.8764C96.6898 44.5781 96.415 44.2585 96.2104 43.9176L97.4121 43.0739C97.5485 43.2528 97.7211 43.4574 97.9299 43.6875C98.1387 43.9219 98.4242 44.1243 98.7864 44.2947C99.1529 44.4695 99.6323 44.5568 100.225 44.5568C101.017 44.5568 101.671 44.3651 102.187 43.9815C102.703 43.598 102.96 42.9972 102.96 42.179V40.1847H102.833C102.722 40.3636 102.564 40.5852 102.36 40.8494C102.159 41.1094 101.869 41.3416 101.49 41.5462C101.115 41.7464 100.608 41.8466 99.9689 41.8466C99.1763 41.8466 98.4647 41.6591 97.834 41.2841C97.2076 40.9091 96.7111 40.3636 96.3446 39.6477C95.9824 38.9318 95.8013 38.0625 95.8013 37.0398C95.8013 36.0341 95.9782 35.1584 96.3319 34.4126C96.6855 33.6626 97.1777 33.0831 97.8084 32.674C98.4391 32.2607 99.1678 32.054 99.9945 32.054C100.634 32.054 101.141 32.1605 101.516 32.3736C101.895 32.5824 102.185 32.821 102.385 33.0895C102.59 33.3537 102.747 33.571 102.858 33.7415H103.012V32.1818H104.469V42.2812C104.469 43.125 104.277 43.8111 103.894 44.3395C103.514 44.8722 103.003 45.2621 102.36 45.5092C101.72 45.7607 101.009 45.8864 100.225 45.8864ZM100.173 40.4915C100.779 40.4915 101.29 40.353 101.708 40.076C102.125 39.799 102.443 39.4006 102.66 38.8807C102.877 38.3608 102.986 37.7386 102.986 37.0142C102.986 36.3068 102.879 35.6825 102.666 35.1413C102.453 34.6001 102.138 34.1761 101.72 33.8693C101.303 33.5625 100.787 33.4091 100.173 33.4091C99.5343 33.4091 99.0016 33.571 98.5755 33.8949C98.1536 34.2187 97.8361 34.6534 97.623 35.1989C97.4142 35.7443 97.3098 36.3494 97.3098 37.0142C97.3098 37.696 97.4164 38.299 97.6294 38.8232C97.8468 39.343 98.1664 39.7521 98.5882 40.0504C99.0144 40.3445 99.5428 40.4915 100.173 40.4915ZM107.23 42V32.1818H108.688V33.6648H108.79C108.969 33.179 109.293 32.7848 109.762 32.4822C110.23 32.1797 110.759 32.0284 111.347 32.0284C111.458 32.0284 111.596 32.0305 111.762 32.0348C111.928 32.0391 112.054 32.0455 112.139 32.054V33.5881C112.088 33.5753 111.971 33.5561 111.788 33.5305C111.609 33.5007 111.419 33.4858 111.219 33.4858C110.742 33.4858 110.316 33.5859 109.941 33.7862C109.57 33.9822 109.276 34.255 109.058 34.6044C108.845 34.9496 108.739 35.3437 108.739 35.7869V42H107.23ZM117.617 42.2045C116.731 42.2045 115.953 41.9936 115.284 41.5717C114.619 41.1499 114.1 40.5597 113.725 39.8011C113.354 39.0426 113.169 38.1562 113.169 37.142C113.169 36.1193 113.354 35.2266 113.725 34.4638C114.1 33.701 114.619 33.1087 115.284 32.6868C115.953 32.2649 116.731 32.054 117.617 32.054C118.504 32.054 119.279 32.2649 119.944 32.6868C120.613 33.1087 121.133 33.701 121.504 34.4638C121.879 35.2266 122.066 36.1193 122.066 37.142C122.066 38.1562 121.879 39.0426 121.504 39.8011C121.133 40.5597 120.613 41.1499 119.944 41.5717C119.279 41.9936 118.504 42.2045 117.617 42.2045ZM117.617 40.8494C118.291 40.8494 118.845 40.6768 119.279 40.3317C119.714 39.9865 120.036 39.5327 120.244 38.9702C120.453 38.4077 120.558 37.7983 120.558 37.142C120.558 36.4858 120.453 35.8743 120.244 35.3075C120.036 34.7408 119.714 34.2827 119.279 33.9332C118.845 33.5838 118.291 33.4091 117.617 33.4091C116.944 33.4091 116.39 33.5838 115.955 33.9332C115.521 34.2827 115.199 34.7408 114.99 35.3075C114.781 35.8743 114.677 36.4858 114.677 37.142C114.677 37.7983 114.781 38.4077 114.99 38.9702C115.199 39.5327 115.521 39.9865 115.955 40.3317C116.39 40.6768 116.944 40.8494 117.617 40.8494ZM131.324 34.3807L129.968 34.7642C129.883 34.5384 129.757 34.3189 129.591 34.1058C129.429 33.8885 129.208 33.7095 128.926 33.5689C128.645 33.4283 128.285 33.358 127.846 33.358C127.245 33.358 126.745 33.4964 126.344 33.7734C125.948 34.0462 125.75 34.3935 125.75 34.8153C125.75 35.1903 125.886 35.4865 126.159 35.7038C126.431 35.9212 126.858 36.1023 127.437 36.2472L128.895 36.6051C129.772 36.8182 130.426 37.1442 130.857 37.5831C131.287 38.0178 131.502 38.5781 131.502 39.2642C131.502 39.8267 131.341 40.3295 131.017 40.7727C130.697 41.2159 130.25 41.5653 129.674 41.821C129.099 42.0767 128.43 42.2045 127.667 42.2045C126.666 42.2045 125.837 41.9872 125.181 41.5526C124.525 41.1179 124.109 40.483 123.934 39.6477L125.366 39.2898C125.502 39.8182 125.76 40.2145 126.14 40.4787C126.523 40.7429 127.024 40.875 127.642 40.875C128.345 40.875 128.903 40.7259 129.316 40.4276C129.734 40.125 129.943 39.7628 129.943 39.3409C129.943 39 129.824 38.7145 129.585 38.4844C129.346 38.25 128.98 38.0753 128.485 37.9602L126.849 37.5767C125.95 37.3636 125.289 37.0334 124.868 36.5859C124.45 36.1342 124.241 35.5696 124.241 34.892C124.241 34.3381 124.397 33.848 124.708 33.4219C125.023 32.9957 125.451 32.6612 125.993 32.4183C126.538 32.1754 127.156 32.054 127.846 32.054C128.818 32.054 129.581 32.267 130.135 32.6932C130.693 33.1193 131.089 33.6818 131.324 34.3807ZM140.728 34.3807L139.373 34.7642C139.287 34.5384 139.162 34.3189 138.996 34.1058C138.834 33.8885 138.612 33.7095 138.331 33.5689C138.05 33.4283 137.689 33.358 137.251 33.358C136.65 33.358 136.149 33.4964 135.748 33.7734C135.352 34.0462 135.154 34.3935 135.154 34.8153C135.154 35.1903 135.29 35.4865 135.563 35.7038C135.836 35.9212 136.262 36.1023 136.841 36.2472L138.299 36.6051C139.177 36.8182 139.831 37.1442 140.261 37.5831C140.692 38.0178 140.907 38.5781 140.907 39.2642C140.907 39.8267 140.745 40.3295 140.421 40.7727C140.101 41.2159 139.654 41.5653 139.079 41.821C138.503 42.0767 137.834 42.2045 137.072 42.2045C136.07 42.2045 135.241 41.9872 134.585 41.5526C133.929 41.1179 133.513 40.483 133.339 39.6477L134.77 39.2898C134.907 39.8182 135.165 40.2145 135.544 40.4787C135.927 40.7429 136.428 40.875 137.046 40.875C137.749 40.875 138.307 40.7259 138.721 40.4276C139.138 40.125 139.347 39.7628 139.347 39.3409C139.347 39 139.228 38.7145 138.989 38.4844C138.751 38.25 138.384 38.0753 137.89 37.9602L136.253 37.5767C135.354 37.3636 134.694 37.0334 134.272 36.5859C133.854 36.1342 133.645 35.5696 133.645 34.892C133.645 34.3381 133.801 33.848 134.112 33.4219C134.427 32.9957 134.856 32.6612 135.397 32.4183C135.942 32.1754 136.56 32.054 137.251 32.054C138.222 32.054 138.985 32.267 139.539 32.6932C140.097 33.1193 140.493 33.6818 140.728 34.3807ZM148.24 42V32.1818H149.697V33.6648H149.8C149.979 33.179 150.303 32.7848 150.771 32.4822C151.24 32.1797 151.768 32.0284 152.357 32.0284C152.467 32.0284 152.606 32.0305 152.772 32.0348C152.938 32.0391 153.064 32.0455 153.149 32.054V33.5881C153.098 33.5753 152.981 33.5561 152.798 33.5305C152.619 33.5007 152.429 33.4858 152.229 33.4858C151.751 33.4858 151.325 33.5859 150.95 33.7862C150.58 33.9822 150.286 34.255 150.068 34.6044C149.855 34.9496 149.749 35.3437 149.749 35.7869V42H148.24ZM158.755 42.2045C157.809 42.2045 156.993 41.9957 156.307 41.5781C155.625 41.1562 155.099 40.5682 154.728 39.8139C154.362 39.0554 154.178 38.1733 154.178 37.1676C154.178 36.1619 154.362 35.2756 154.728 34.5085C155.099 33.7372 155.614 33.1364 156.275 32.706C156.94 32.2713 157.715 32.054 158.602 32.054C159.113 32.054 159.618 32.1392 160.116 32.3097C160.615 32.4801 161.069 32.7571 161.478 33.1406C161.887 33.5199 162.213 34.0227 162.456 34.6491C162.699 35.2756 162.82 36.0469 162.82 36.9631V37.6023H155.252V36.2983H161.286C161.286 35.7443 161.175 35.25 160.954 34.8153C160.737 34.3807 160.425 34.0376 160.021 33.7862C159.62 33.5348 159.147 33.4091 158.602 33.4091C158.001 33.4091 157.481 33.5582 157.042 33.8565C156.607 34.1506 156.273 34.5341 156.038 35.0071C155.804 35.4801 155.687 35.9872 155.687 36.5284V37.3977C155.687 38.1392 155.815 38.7678 156.07 39.2834C156.33 39.7947 156.69 40.1847 157.151 40.4531C157.611 40.7173 158.146 40.8494 158.755 40.8494C159.151 40.8494 159.509 40.794 159.829 40.6832C160.153 40.5682 160.432 40.3977 160.666 40.1719C160.901 39.9418 161.082 39.6562 161.21 39.3153L162.667 39.7244C162.513 40.2188 162.256 40.6534 161.893 41.0284C161.531 41.3991 161.084 41.6889 160.551 41.8977C160.018 42.1023 159.42 42.2045 158.755 42.2045ZM172.845 32.1818L169.214 42H167.68L164.049 32.1818H165.686L168.396 40.0057H168.498L171.208 32.1818H172.845ZM178.601 42.2045C177.655 42.2045 176.839 41.9957 176.153 41.5781C175.471 41.1562 174.944 40.5682 174.574 39.8139C174.207 39.0554 174.024 38.1733 174.024 37.1676C174.024 36.1619 174.207 35.2756 174.574 34.5085C174.944 33.7372 175.46 33.1364 176.121 32.706C176.785 32.2713 177.561 32.054 178.447 32.054C178.959 32.054 179.464 32.1392 179.962 32.3097C180.461 32.4801 180.915 32.7571 181.324 33.1406C181.733 33.5199 182.059 34.0227 182.302 34.6491C182.545 35.2756 182.666 36.0469 182.666 36.9631V37.6023H175.098V36.2983H181.132C181.132 35.7443 181.021 35.25 180.8 34.8153C180.582 34.3807 180.271 34.0376 179.866 33.7862C179.466 33.5348 178.993 33.4091 178.447 33.4091C177.846 33.4091 177.327 33.5582 176.888 33.8565C176.453 34.1506 176.118 34.5341 175.884 35.0071C175.65 35.4801 175.532 35.9872 175.532 36.5284V37.3977C175.532 38.1392 175.66 38.7678 175.916 39.2834C176.176 39.7947 176.536 40.1847 176.996 40.4531C177.456 40.7173 177.991 40.8494 178.601 40.8494C178.997 40.8494 179.355 40.794 179.675 40.6832C179.998 40.5682 180.278 40.3977 180.512 40.1719C180.746 39.9418 180.927 39.6562 181.055 39.3153L182.513 39.7244C182.359 40.2188 182.101 40.6534 181.739 41.0284C181.377 41.3991 180.93 41.6889 180.397 41.8977C179.864 42.1023 179.265 42.2045 178.601 42.2045ZM186.469 36.0938V42H184.961V32.1818H186.418V33.7159H186.546C186.776 33.2173 187.126 32.8168 187.594 32.5142C188.063 32.2074 188.668 32.054 189.41 32.054C190.074 32.054 190.656 32.1903 191.155 32.4631C191.653 32.7315 192.041 33.1406 192.318 33.6903C192.595 34.2358 192.733 34.9261 192.733 35.7614V42H191.225V35.8636C191.225 35.0923 191.025 34.4915 190.624 34.0611C190.224 33.6264 189.674 33.4091 188.975 33.4091C188.493 33.4091 188.063 33.5135 187.684 33.7223C187.309 33.9311 187.013 34.2358 186.795 34.6364C186.578 35.0369 186.469 35.5227 186.469 36.0938ZM201.678 37.9858V32.1818H203.186V42H201.678V40.3381H201.575C201.345 40.8366 200.987 41.2607 200.501 41.6101C200.016 41.9553 199.402 42.1278 198.661 42.1278C198.047 42.1278 197.501 41.9936 197.024 41.7251C196.547 41.4524 196.172 41.0433 195.899 40.4979C195.626 39.9482 195.49 39.2557 195.49 38.4205V32.1818H196.999V38.3182C196.999 39.0341 197.199 39.6051 197.599 40.0312C198.004 40.4574 198.52 40.6705 199.146 40.6705C199.521 40.6705 199.903 40.5746 200.29 40.3828C200.683 40.1911 201.011 39.897 201.275 39.5007C201.543 39.1044 201.678 38.5994 201.678 37.9858ZM210.066 42.2045C209.119 42.2045 208.303 41.9957 207.617 41.5781C206.936 41.1562 206.409 40.5682 206.039 39.8139C205.672 39.0554 205.489 38.1733 205.489 37.1676C205.489 36.1619 205.672 35.2756 206.039 34.5085C206.409 33.7372 206.925 33.1364 207.585 32.706C208.25 32.2713 209.026 32.054 209.912 32.054C210.423 32.054 210.928 32.1392 211.427 32.3097C211.926 32.4801 212.379 32.7571 212.789 33.1406C213.198 33.5199 213.524 34.0227 213.767 34.6491C214.009 35.2756 214.131 36.0469 214.131 36.9631V37.6023H206.563V36.2983H212.597C212.597 35.7443 212.486 35.25 212.264 34.8153C212.047 34.3807 211.736 34.0376 211.331 33.7862C210.931 33.5348 210.458 33.4091 209.912 33.4091C209.311 33.4091 208.791 33.5582 208.352 33.8565C207.918 34.1506 207.583 34.5341 207.349 35.0071C207.115 35.4801 206.997 35.9872 206.997 36.5284V37.3977C206.997 38.1392 207.125 38.7678 207.381 39.2834C207.641 39.7947 208.001 40.1847 208.461 40.4531C208.921 40.7173 209.456 40.8494 210.066 40.8494C210.462 40.8494 210.82 40.794 211.139 40.6832C211.463 40.5682 211.742 40.3977 211.977 40.1719C212.211 39.9418 212.392 39.6562 212.52 39.3153L213.977 39.7244C213.824 40.2188 213.566 40.6534 213.204 41.0284C212.842 41.3991 212.394 41.6889 211.862 41.8977C211.329 42.1023 210.73 42.2045 210.066 42.2045ZM221.488 42V32.1818H222.945V33.6648H223.048C223.227 33.179 223.551 32.7848 224.019 32.4822C224.488 32.1797 225.017 32.0284 225.605 32.0284C225.715 32.0284 225.854 32.0305 226.02 32.0348C226.186 32.0391 226.312 32.0455 226.397 32.054V33.5881C226.346 33.5753 226.229 33.5561 226.046 33.5305C225.867 33.5007 225.677 33.4858 225.477 33.4858C224.999 33.4858 224.573 33.5859 224.198 33.7862C223.828 33.9822 223.534 34.255 223.316 34.6044C223.103 34.9496 222.997 35.3437 222.997 35.7869V42H221.488ZM232.003 42.2045C231.057 42.2045 230.241 41.9957 229.555 41.5781C228.873 41.1562 228.347 40.5682 227.976 39.8139C227.61 39.0554 227.426 38.1733 227.426 37.1676C227.426 36.1619 227.61 35.2756 227.976 34.5085C228.347 33.7372 228.862 33.1364 229.523 32.706C230.188 32.2713 230.963 32.054 231.85 32.054C232.361 32.054 232.866 32.1392 233.365 32.3097C233.863 32.4801 234.317 32.7571 234.726 33.1406C235.135 33.5199 235.461 34.0227 235.704 34.6491C235.947 35.2756 236.068 36.0469 236.068 36.9631V37.6023H228.5V36.2983H234.534C234.534 35.7443 234.423 35.25 234.202 34.8153C233.985 34.3807 233.673 34.0376 233.269 33.7862C232.868 33.5348 232.395 33.4091 231.85 33.4091C231.249 33.4091 230.729 33.5582 230.29 33.8565C229.855 34.1506 229.521 34.5341 229.286 35.0071C229.052 35.4801 228.935 35.9872 228.935 36.5284V37.3977C228.935 38.1392 229.063 38.7678 229.318 39.2834C229.578 39.7947 229.938 40.1847 230.399 40.4531C230.859 40.7173 231.394 40.8494 232.003 40.8494C232.399 40.8494 232.757 40.794 233.077 40.6832C233.401 40.5682 233.68 40.3977 233.914 40.1719C234.149 39.9418 234.33 39.6562 234.458 39.3153L235.915 39.7244C235.762 40.2188 235.504 40.6534 235.142 41.0284C234.779 41.3991 234.332 41.6889 233.799 41.8977C233.267 42.1023 232.668 42.2045 232.003 42.2045ZM241.252 42.2301C240.63 42.2301 240.066 42.1129 239.558 41.8786C239.051 41.6399 238.649 41.2969 238.35 40.8494C238.052 40.3977 237.903 39.8523 237.903 39.2131C237.903 38.6506 238.014 38.1946 238.235 37.8452C238.457 37.4915 238.753 37.2145 239.124 37.0142C239.494 36.8139 239.904 36.6648 240.351 36.5668C240.803 36.4645 241.257 36.3835 241.713 36.3239C242.309 36.2472 242.793 36.1896 243.164 36.1513C243.539 36.1087 243.811 36.0384 243.982 35.9403C244.156 35.8423 244.244 35.6719 244.244 35.429V35.3778C244.244 34.7472 244.071 34.2571 243.726 33.9077C243.385 33.5582 242.867 33.3835 242.173 33.3835C241.453 33.3835 240.888 33.5412 240.479 33.8565C240.07 34.1719 239.782 34.5085 239.616 34.8665L238.184 34.3551C238.44 33.7585 238.781 33.294 239.207 32.9616C239.637 32.625 240.106 32.3906 240.613 32.2585C241.124 32.1222 241.627 32.054 242.122 32.054C242.437 32.054 242.799 32.0923 243.208 32.169C243.622 32.2415 244.02 32.3928 244.404 32.6229C244.791 32.853 245.113 33.2003 245.369 33.6648C245.624 34.1293 245.752 34.7514 245.752 35.5312V42H244.244V40.6705H244.167C244.065 40.8835 243.894 41.1115 243.656 41.3544C243.417 41.5973 243.1 41.804 242.703 41.9744C242.307 42.1449 241.823 42.2301 241.252 42.2301ZM241.482 40.875C242.079 40.875 242.582 40.7578 242.991 40.5234C243.404 40.2891 243.715 39.9865 243.924 39.6158C244.137 39.245 244.244 38.8551 244.244 38.446V37.0653C244.18 37.142 244.039 37.2124 243.822 37.2763C243.609 37.3359 243.362 37.3892 243.08 37.4361C242.803 37.4787 242.533 37.517 242.269 37.5511C242.009 37.581 241.798 37.6065 241.636 37.6278C241.244 37.679 240.877 37.7621 240.536 37.8771C240.2 37.9879 239.927 38.1562 239.718 38.3821C239.514 38.6037 239.411 38.9062 239.411 39.2898C239.411 39.8139 239.605 40.2102 239.993 40.4787C240.385 40.7429 240.882 40.875 241.482 40.875ZM252.494 42.2045C251.574 42.2045 250.781 41.9872 250.116 41.5526C249.452 41.1179 248.94 40.5192 248.582 39.7564C248.224 38.9936 248.045 38.1222 248.045 37.142C248.045 36.1449 248.229 35.2649 248.595 34.5021C248.966 33.7351 249.482 33.1364 250.142 32.706C250.807 32.2713 251.582 32.054 252.469 32.054C253.159 32.054 253.781 32.1818 254.335 32.4375C254.889 32.6932 255.343 33.0511 255.697 33.5114C256.05 33.9716 256.27 34.5085 256.355 35.1222H254.847C254.732 34.6747 254.476 34.2784 254.08 33.9332C253.688 33.5838 253.159 33.4091 252.494 33.4091C251.906 33.4091 251.391 33.5625 250.947 33.8693C250.509 34.1719 250.165 34.6001 249.918 35.1541C249.675 35.7038 249.554 36.3494 249.554 37.0909C249.554 37.8494 249.673 38.5099 249.912 39.0724C250.155 39.6349 250.496 40.0717 250.935 40.3828C251.378 40.6939 251.898 40.8494 252.494 40.8494C252.886 40.8494 253.242 40.7812 253.562 40.6449C253.881 40.5085 254.152 40.3125 254.374 40.0568C254.595 39.8011 254.753 39.4943 254.847 39.1364H256.355C256.27 39.7159 256.059 40.2379 255.722 40.7024C255.39 41.1626 254.949 41.5291 254.399 41.8018C253.854 42.0703 253.219 42.2045 252.494 42.2045ZM260.069 36.0938V42H258.56V28.9091H260.069V33.7159H260.197C260.427 33.2088 260.772 32.8061 261.232 32.5078C261.697 32.2053 262.315 32.054 263.086 32.054C263.755 32.054 264.341 32.1882 264.844 32.4567C265.347 32.7209 265.737 33.1278 266.013 33.6776C266.295 34.223 266.435 34.9176 266.435 35.7614V42H264.927V35.8636C264.927 35.0838 264.724 34.4808 264.32 34.0547C263.919 33.6243 263.363 33.4091 262.651 33.4091C262.157 33.4091 261.714 33.5135 261.322 33.7223C260.934 33.9311 260.627 34.2358 260.401 34.6364C260.18 35.0369 260.069 35.5227 260.069 36.0938ZM273.312 42.2045C272.366 42.2045 271.55 41.9957 270.863 41.5781C270.182 41.1562 269.655 40.5682 269.285 39.8139C268.918 39.0554 268.735 38.1733 268.735 37.1676C268.735 36.1619 268.918 35.2756 269.285 34.5085C269.655 33.7372 270.171 33.1364 270.831 32.706C271.496 32.2713 272.272 32.054 273.158 32.054C273.67 32.054 274.175 32.1392 274.673 32.3097C275.172 32.4801 275.626 32.7571 276.035 33.1406C276.444 33.5199 276.77 34.0227 277.013 34.6491C277.256 35.2756 277.377 36.0469 277.377 36.9631V37.6023H269.809V36.2983H275.843C275.843 35.7443 275.732 35.25 275.51 34.8153C275.293 34.3807 274.982 34.0376 274.577 33.7862C274.177 33.5348 273.704 33.4091 273.158 33.4091C272.557 33.4091 272.037 33.5582 271.599 33.8565C271.164 34.1506 270.829 34.5341 270.595 35.0071C270.361 35.4801 270.243 35.9872 270.243 36.5284V37.3977C270.243 38.1392 270.371 38.7678 270.627 39.2834C270.887 39.7947 271.247 40.1847 271.707 40.4531C272.167 40.7173 272.702 40.8494 273.312 40.8494C273.708 40.8494 274.066 40.794 274.385 40.6832C274.709 40.5682 274.988 40.3977 275.223 40.1719C275.457 39.9418 275.638 39.6562 275.766 39.3153L277.224 39.7244C277.07 40.2188 276.812 40.6534 276.45 41.0284C276.088 41.3991 275.64 41.6889 275.108 41.8977C274.575 42.1023 273.976 42.2045 273.312 42.2045ZM283.379 42.2045C282.561 42.2045 281.839 41.9979 281.212 41.5845C280.586 41.1669 280.096 40.5788 279.742 39.8203C279.388 39.0575 279.211 38.1562 279.211 37.1165C279.211 36.0852 279.388 35.1903 279.742 34.4318C280.096 33.6733 280.588 33.0874 281.219 32.674C281.849 32.2607 282.578 32.054 283.405 32.054C284.044 32.054 284.549 32.1605 284.92 32.3736C285.295 32.5824 285.58 32.821 285.776 33.0895C285.976 33.3537 286.132 33.571 286.243 33.7415H286.371V28.9091H287.879V42H286.422V40.4915H286.243C286.132 40.6705 285.974 40.8963 285.77 41.169C285.565 41.4375 285.273 41.6783 284.894 41.8913C284.515 42.1001 284.01 42.2045 283.379 42.2045ZM283.584 40.8494C284.189 40.8494 284.7 40.6918 285.118 40.3764C285.535 40.0568 285.853 39.6158 286.07 39.0533C286.287 38.4865 286.396 37.8324 286.396 37.0909C286.396 36.358 286.29 35.7166 286.077 35.1669C285.863 34.6129 285.548 34.1825 285.131 33.8757C284.713 33.5646 284.197 33.4091 283.584 33.4091C282.944 33.4091 282.412 33.5732 281.986 33.9013C281.564 34.2251 281.246 34.6662 281.033 35.2244C280.824 35.7784 280.72 36.4006 280.72 37.0909C280.72 37.7898 280.827 38.4247 281.04 38.9957C281.257 39.5625 281.577 40.0142 281.998 40.3509C282.425 40.6832 282.953 40.8494 283.584 40.8494Z" fill="#24408E"/>
<path d="M49.52 82.56C49.68 80.2667 50.4267 78.2933 51.76 76.64C53.0933 74.96 54.8533 73.6667 57.04 72.76C59.2533 71.8533 61.76 71.4 64.56 71.4C67.2267 71.4 69.56 71.8133 71.56 72.64C73.56 73.44 75.12 74.5733 76.24 76.04C77.36 77.5067 77.92 79.2133 77.92 81.16C77.92 82.6533 77.5333 84.04 76.76 85.32C75.9867 86.6 74.7467 87.8933 73.04 89.2C71.36 90.48 69.12 91.8667 66.32 93.36L57.24 98.36L56.72 96.52H78.76V102H49.96V97.2L62.8 89.68C64.9333 88.4533 66.6 87.4 67.8 86.52C69 85.6133 69.8533 84.7733 70.36 84C70.8667 83.2267 71.12 82.4 71.12 81.52C71.12 80.5867 70.8667 79.76 70.36 79.04C69.8533 78.32 69.0933 77.76 68.08 77.36C67.0933 76.96 65.84 76.76 64.32 76.76C62.5333 76.76 61.0667 77.0267 59.92 77.56C58.7733 78.0667 57.9067 78.76 57.32 79.64C56.76 80.52 56.4267 81.4933 56.32 82.56H49.52ZM87.6209 102.36C86.9009 102.36 86.2343 102.187 85.6209 101.84C85.0343 101.493 84.5676 101.027 84.2209 100.44C83.8743 99.8267 83.7009 99.16 83.7009 98.44C83.7009 97.6933 83.8743 97.0267 84.2209 96.44C84.5676 95.8267 85.0343 95.3467 85.6209 95C86.2343 94.6533 86.9009 94.48 87.6209 94.48C88.3676 94.48 89.0343 94.6533 89.6209 95C90.2343 95.3467 90.7143 95.8267 91.0609 96.44C91.4076 97.0267 91.5809 97.6933 91.5809 98.44C91.5809 99.16 91.4076 99.8267 91.0609 100.44C90.7143 101.027 90.2343 101.493 89.6209 101.84C89.0343 102.187 88.3676 102.36 87.6209 102.36ZM107.721 72V102H101.001V74.24L104.361 77.28L91.6009 79.52V74.24L102.721 72H107.721ZM129.126 72V102H122.406V74.24L125.766 77.28L113.006 79.52V74.24L124.126 72H129.126ZM136.05 81.48C136.21 79.5867 136.877 77.88 138.05 76.36C139.25 74.84 140.944 73.64 143.13 72.76C145.317 71.8533 147.944 71.4 151.01 71.4C153.704 71.4 156.037 71.7467 158.01 72.44C159.984 73.1333 161.517 74.0933 162.61 75.32C163.704 76.5467 164.25 78 164.25 79.68C164.25 81.04 163.837 82.28 163.01 83.4C162.21 84.4933 160.957 85.3733 159.25 86.04C157.544 86.68 155.384 86.9867 152.77 86.96V86.2C155.304 86.0667 157.464 86.2667 159.25 86.8C161.064 87.3067 162.464 88.1067 163.45 89.2C164.437 90.2933 164.93 91.6667 164.93 93.32C164.93 95.1067 164.357 96.7067 163.21 98.12C162.09 99.5067 160.45 100.6 158.29 101.4C156.13 102.2 153.504 102.6 150.41 102.6C147.397 102.6 144.77 102.173 142.53 101.32C140.29 100.467 138.544 99.2667 137.29 97.72C136.037 96.1733 135.357 94.36 135.25 92.28H142.05C142.264 93.88 143.064 95.1067 144.45 95.96C145.837 96.8133 147.824 97.24 150.41 97.24C152.917 97.24 154.81 96.8533 156.09 96.08C157.37 95.3067 158.01 94.2267 158.01 92.84C158.01 92.0133 157.797 91.32 157.37 90.76C156.944 90.2 156.21 89.7867 155.17 89.52C154.157 89.2267 152.77 89.08 151.01 89.08H145.73V84.32H151.01C153.304 84.32 154.944 83.9733 155.93 83.28C156.917 82.5867 157.41 81.6933 157.41 80.6C157.41 79.3733 156.85 78.4267 155.73 77.76C154.61 77.0933 152.917 76.76 150.65 76.76C148.33 76.76 146.517 77.1733 145.21 78C143.904 78.8 143.117 79.96 142.85 81.48H136.05Z" fill="#24408E"/>
<path d="M184.291 83V69.9091H189.303C190.249 69.9091 191.035 70.0582 191.661 70.3565C192.292 70.6506 192.763 71.0533 193.074 71.5646C193.389 72.076 193.547 72.6555 193.547 73.3033C193.547 73.8359 193.445 74.2919 193.24 74.6712C193.036 75.0462 192.761 75.3509 192.415 75.5852C192.07 75.8196 191.685 75.9879 191.259 76.0902V76.218C191.723 76.2436 192.168 76.3864 192.594 76.6463C193.025 76.902 193.376 77.2642 193.649 77.733C193.922 78.2017 194.058 78.7685 194.058 79.4332C194.058 80.1108 193.894 80.7202 193.566 81.2614C193.238 81.7983 192.744 82.2223 192.083 82.5334C191.423 82.8445 190.592 83 189.59 83H184.291ZM186.663 81.0185H189.213C190.074 81.0185 190.694 80.8544 191.073 80.5263C191.457 80.1939 191.648 79.7678 191.648 79.2479C191.648 78.8601 191.553 78.5107 191.361 78.1996C191.169 77.8842 190.896 77.6371 190.543 77.4581C190.189 77.2749 189.767 77.1832 189.277 77.1832H186.663V81.0185ZM186.663 75.4766H189.009C189.418 75.4766 189.786 75.402 190.114 75.2528C190.442 75.0994 190.7 74.8842 190.888 74.6072C191.08 74.326 191.175 73.9936 191.175 73.6101C191.175 73.103 190.996 72.6854 190.638 72.3572C190.285 72.0291 189.759 71.8651 189.06 71.8651H186.663V75.4766ZM198.493 69.9091V83H196.121V69.9091H198.493ZM201.061 83V69.9091H203.432V81.0121H209.198V83H201.061ZM211.256 83V69.9091H213.627V81.0121H219.393V83H211.256ZM223.823 69.9091V83H221.451V69.9091H223.823ZM238.088 76.4545C238.088 77.8651 237.824 79.0732 237.296 80.0788C236.771 81.0803 236.056 81.8473 235.148 82.38C234.244 82.9126 233.22 83.179 232.073 83.179C230.927 83.179 229.9 82.9126 228.992 82.38C228.089 81.843 227.373 81.0739 226.845 80.0724C226.32 79.0668 226.058 77.8608 226.058 76.4545C226.058 75.044 226.32 73.8381 226.845 72.8366C227.373 71.831 228.089 71.0618 228.992 70.5291C229.9 69.9964 230.927 69.7301 232.073 69.7301C233.22 69.7301 234.244 69.9964 235.148 70.5291C236.056 71.0618 236.771 71.831 237.296 72.8366C237.824 73.8381 238.088 75.044 238.088 76.4545ZM235.704 76.4545C235.704 75.4616 235.548 74.6243 235.237 73.9425C234.931 73.2564 234.504 72.7386 233.959 72.3892C233.414 72.0355 232.785 71.8587 232.073 71.8587C231.362 71.8587 230.733 72.0355 230.188 72.3892C229.642 72.7386 229.214 73.2564 228.903 73.9425C228.596 74.6243 228.443 75.4616 228.443 76.4545C228.443 77.4474 228.596 78.2869 228.903 78.973C229.214 79.6548 229.642 80.1726 230.188 80.5263C230.733 80.8757 231.362 81.0504 232.073 81.0504C232.785 81.0504 233.414 80.8757 233.959 80.5263C234.504 80.1726 234.931 79.6548 235.237 78.973C235.548 78.2869 235.704 77.4474 235.704 76.4545ZM251.088 69.9091V83H248.979L242.81 74.0831H242.702V83H240.33V69.9091H242.452L248.614 78.8324H248.729V69.9091H251.088ZM186.043 91.9091L189.45 102.213H189.584L192.984 91.9091H195.592L190.977 105H188.05L183.441 91.9091H186.043ZM208.074 91.9091V105H205.965L199.797 96.0831H199.688V105H197.317V91.9091H199.439L205.601 100.832H205.716V91.9091H208.074ZM215.094 105H210.658V91.9091H215.184C216.484 91.9091 217.6 92.1712 218.533 92.6953C219.471 93.2152 220.191 93.9631 220.694 94.9389C221.197 95.9148 221.448 97.0824 221.448 98.4418C221.448 99.8054 221.195 100.977 220.688 101.957C220.185 102.937 219.458 103.69 218.508 104.214C217.562 104.738 216.424 105 215.094 105ZM213.03 102.948H214.979C215.891 102.948 216.652 102.782 217.261 102.45C217.871 102.113 218.329 101.612 218.636 100.947C218.942 100.278 219.096 99.4432 219.096 98.4418C219.096 97.4403 218.942 96.6094 218.636 95.9489C218.329 95.2841 217.875 94.7876 217.274 94.4595C216.678 94.1271 215.936 93.9609 215.05 93.9609H213.03V102.948Z" fill="#24408E"/>
<path d="M53 139.25L53 143.75L60 138.75L67 143.75L67 139.25L60 134.25L53 139.25Z" fill="#00A93C"/>
<path d="M53 146.25L53 150.75L60 145.75L67 150.75L67 146.25L60 141.25L53 146.25Z" fill="#00A93C"/>
<path d="M81.679 151V149.091L87.5852 142.972C88.2159 142.307 88.7358 141.724 89.1449 141.224C89.5597 140.719 89.8693 140.239 90.0739 139.784C90.2784 139.33 90.3807 138.847 90.3807 138.335C90.3807 137.756 90.2443 137.256 89.9716 136.835C89.6989 136.409 89.3267 136.082 88.8551 135.855C88.3835 135.622 87.8523 135.506 87.2614 135.506C86.6364 135.506 86.0909 135.634 85.625 135.889C85.1591 136.145 84.8011 136.506 84.5511 136.972C84.3011 137.437 84.1761 137.983 84.1761 138.608H81.6619C81.6619 137.545 81.9063 136.616 82.3949 135.821C82.8835 135.026 83.554 134.409 84.4062 133.972C85.2585 133.528 86.2273 133.307 87.3125 133.307C88.4091 133.307 89.375 133.526 90.2102 133.963C91.0511 134.395 91.7074 134.986 92.179 135.736C92.6506 136.48 92.8864 137.321 92.8864 138.259C92.8864 138.906 92.7642 139.54 92.5199 140.159C92.2813 140.778 91.8636 141.469 91.267 142.23C90.6705 142.986 89.8409 143.903 88.7784 144.983L85.3097 148.614V148.741H93.1676V151H81.679ZM102.491 151.239C101.713 151.227 100.946 151.085 100.19 150.812C99.4403 150.54 98.7585 150.085 98.1449 149.449C97.5313 148.812 97.0398 147.957 96.6705 146.884C96.3068 145.81 96.125 144.469 96.125 142.861C96.125 141.338 96.2756 139.986 96.5767 138.804C96.8835 137.622 97.3239 136.625 97.8977 135.812C98.4716 134.994 99.1648 134.372 99.9773 133.946C100.79 133.52 101.702 133.307 102.713 133.307C103.753 133.307 104.676 133.511 105.483 133.92C106.29 134.33 106.943 134.895 107.443 135.616C107.949 136.338 108.27 137.159 108.406 138.08H105.807C105.631 137.352 105.281 136.759 104.759 136.298C104.236 135.838 103.554 135.608 102.713 135.608C101.435 135.608 100.438 136.165 99.7216 137.278C99.0114 138.392 98.6534 139.94 98.6477 141.923H98.7756C99.0767 141.429 99.446 141.009 99.8835 140.662C100.327 140.31 100.821 140.04 101.366 139.852C101.918 139.659 102.497 139.562 103.105 139.562C104.116 139.562 105.031 139.81 105.849 140.304C106.673 140.793 107.33 141.469 107.818 142.332C108.307 143.196 108.551 144.185 108.551 145.298C108.551 146.412 108.298 147.42 107.793 148.324C107.293 149.227 106.588 149.943 105.679 150.472C104.77 150.994 103.707 151.25 102.491 151.239ZM102.483 149.023C103.153 149.023 103.753 148.858 104.281 148.528C104.81 148.199 105.227 147.756 105.534 147.199C105.841 146.642 105.994 146.02 105.994 145.332C105.994 144.662 105.844 144.051 105.543 143.5C105.247 142.949 104.838 142.511 104.315 142.188C103.798 141.864 103.207 141.702 102.543 141.702C102.037 141.702 101.568 141.798 101.136 141.991C100.71 142.185 100.335 142.452 100.011 142.793C99.6875 143.134 99.4318 143.526 99.2443 143.969C99.0625 144.406 98.9716 144.869 98.9716 145.358C98.9716 146.011 99.1222 146.616 99.4233 147.173C99.7301 147.73 100.148 148.179 100.676 148.52C101.21 148.855 101.813 149.023 102.483 149.023ZM120.766 147.727V146.807C120.766 146.148 120.903 145.545 121.175 145C121.454 144.449 121.857 144.009 122.386 143.679C122.92 143.344 123.565 143.176 124.32 143.176C125.093 143.176 125.741 143.341 126.263 143.67C126.786 144 127.181 144.44 127.448 144.991C127.721 145.543 127.857 146.148 127.857 146.807V147.727C127.857 148.386 127.721 148.991 127.448 149.543C127.175 150.088 126.775 150.528 126.246 150.864C125.724 151.193 125.082 151.358 124.32 151.358C123.553 151.358 122.906 151.193 122.377 150.864C121.849 150.528 121.448 150.088 121.175 149.543C120.903 148.991 120.766 148.386 120.766 147.727ZM122.752 146.807V147.727C122.752 148.216 122.869 148.659 123.102 149.057C123.335 149.455 123.741 149.653 124.32 149.653C124.894 149.653 125.295 149.455 125.522 149.057C125.749 148.659 125.863 148.216 125.863 147.727V146.807C125.863 146.318 125.752 145.875 125.531 145.477C125.315 145.08 124.911 144.881 124.32 144.881C123.752 144.881 123.349 145.08 123.11 145.477C122.871 145.875 122.752 146.318 122.752 146.807ZM111.988 137.739V136.818C111.988 136.159 112.124 135.554 112.397 135.003C112.675 134.452 113.079 134.011 113.607 133.682C114.141 133.352 114.786 133.188 115.542 133.188C116.315 133.188 116.962 133.352 117.485 133.682C118.008 134.011 118.403 134.452 118.67 135.003C118.937 135.554 119.07 136.159 119.07 136.818V137.739C119.07 138.398 118.934 139.003 118.661 139.554C118.394 140.099 117.996 140.54 117.468 140.875C116.945 141.205 116.303 141.369 115.542 141.369C114.769 141.369 114.119 141.205 113.59 140.875C113.067 140.54 112.67 140.099 112.397 139.554C112.124 139.003 111.988 138.398 111.988 137.739ZM113.982 136.818V137.739C113.982 138.227 114.096 138.67 114.323 139.068C114.556 139.466 114.962 139.665 115.542 139.665C116.11 139.665 116.508 139.466 116.735 139.068C116.968 138.67 117.085 138.227 117.085 137.739V136.818C117.085 136.33 116.974 135.886 116.752 135.489C116.531 135.091 116.127 134.892 115.542 134.892C114.974 134.892 114.57 135.091 114.332 135.489C114.099 135.886 113.982 136.33 113.982 136.818ZM112.798 151L124.798 133.545H126.835L114.835 151H112.798Z" fill="#24408E"/>
<path d="M150.773 143.182C149.955 143.182 149.25 142.989 148.659 142.602C148.068 142.216 147.614 141.684 147.295 141.006C146.977 140.328 146.818 139.553 146.818 138.682C146.818 137.795 146.981 137.013 147.307 136.335C147.636 135.653 148.095 135.121 148.682 134.739C149.273 134.352 149.962 134.159 150.75 134.159C151.364 134.159 151.917 134.273 152.409 134.5C152.902 134.727 153.305 135.045 153.619 135.455C153.934 135.864 154.129 136.341 154.205 136.886H152.864C152.761 136.489 152.534 136.136 152.182 135.83C151.833 135.519 151.364 135.364 150.773 135.364C150.25 135.364 149.792 135.5 149.398 135.773C149.008 136.042 148.703 136.422 148.483 136.915C148.267 137.403 148.159 137.977 148.159 138.636C148.159 139.311 148.265 139.898 148.477 140.398C148.693 140.898 148.996 141.286 149.386 141.562C149.78 141.839 150.242 141.977 150.773 141.977C151.121 141.977 151.438 141.917 151.722 141.795C152.006 141.674 152.246 141.5 152.443 141.273C152.64 141.045 152.78 140.773 152.864 140.455H154.205C154.129 140.97 153.941 141.434 153.642 141.847C153.347 142.256 152.955 142.581 152.466 142.824C151.981 143.062 151.417 143.182 150.773 143.182ZM159.71 143.182C158.922 143.182 158.231 142.994 157.636 142.619C157.045 142.244 156.583 141.72 156.25 141.045C155.92 140.371 155.756 139.583 155.756 138.682C155.756 137.773 155.92 136.979 156.25 136.301C156.583 135.623 157.045 135.097 157.636 134.722C158.231 134.347 158.922 134.159 159.71 134.159C160.498 134.159 161.188 134.347 161.778 134.722C162.373 135.097 162.835 135.623 163.165 136.301C163.498 136.979 163.665 137.773 163.665 138.682C163.665 139.583 163.498 140.371 163.165 141.045C162.835 141.72 162.373 142.244 161.778 142.619C161.188 142.994 160.498 143.182 159.71 143.182ZM159.71 141.977C160.309 141.977 160.801 141.824 161.188 141.517C161.574 141.21 161.86 140.807 162.045 140.307C162.231 139.807 162.324 139.265 162.324 138.682C162.324 138.098 162.231 137.555 162.045 137.051C161.86 136.547 161.574 136.14 161.188 135.83C160.801 135.519 160.309 135.364 159.71 135.364C159.112 135.364 158.619 135.519 158.233 135.83C157.847 136.14 157.561 136.547 157.375 137.051C157.189 137.555 157.097 138.098 157.097 138.682C157.097 139.265 157.189 139.807 157.375 140.307C157.561 140.807 157.847 141.21 158.233 141.517C158.619 141.824 159.112 141.977 159.71 141.977ZM165.712 143V134.273H167.007V135.636H167.121C167.303 135.17 167.596 134.809 168.001 134.551C168.407 134.29 168.893 134.159 169.462 134.159C170.037 134.159 170.517 134.29 170.899 134.551C171.286 134.809 171.587 135.17 171.803 135.636H171.893C172.117 135.186 172.452 134.828 172.899 134.562C173.346 134.294 173.882 134.159 174.507 134.159C175.287 134.159 175.926 134.403 176.422 134.892C176.918 135.377 177.166 136.133 177.166 137.159V143H175.825V137.159C175.825 136.515 175.649 136.055 175.297 135.778C174.945 135.502 174.53 135.364 174.053 135.364C173.439 135.364 172.964 135.549 172.626 135.92C172.289 136.288 172.121 136.754 172.121 137.318V143H170.757V137.023C170.757 136.527 170.596 136.127 170.274 135.824C169.952 135.517 169.537 135.364 169.03 135.364C168.681 135.364 168.356 135.456 168.053 135.642C167.753 135.828 167.511 136.085 167.325 136.415C167.143 136.741 167.053 137.117 167.053 137.545V143H165.712ZM179.618 146.273V134.273H180.913V135.659H181.072C181.171 135.508 181.307 135.314 181.482 135.08C181.66 134.841 181.913 134.629 182.243 134.443C182.576 134.254 183.027 134.159 183.595 134.159C184.33 134.159 184.978 134.343 185.538 134.71C186.099 135.078 186.536 135.598 186.851 136.273C187.165 136.947 187.322 137.742 187.322 138.659C187.322 139.583 187.165 140.384 186.851 141.062C186.536 141.737 186.101 142.259 185.544 142.631C184.987 142.998 184.345 143.182 183.618 143.182C183.057 143.182 182.608 143.089 182.271 142.903C181.934 142.714 181.675 142.5 181.493 142.261C181.311 142.019 181.171 141.818 181.072 141.659H180.959V146.273H179.618ZM180.936 138.636C180.936 139.295 181.033 139.877 181.226 140.381C181.419 140.881 181.701 141.273 182.072 141.557C182.444 141.837 182.898 141.977 183.436 141.977C183.997 141.977 184.464 141.83 184.839 141.534C185.218 141.235 185.502 140.833 185.692 140.33C185.885 139.822 185.982 139.258 185.982 138.636C185.982 138.023 185.887 137.47 185.697 136.977C185.512 136.481 185.23 136.089 184.851 135.801C184.476 135.509 184.004 135.364 183.436 135.364C182.891 135.364 182.432 135.502 182.061 135.778C181.69 136.051 181.41 136.434 181.22 136.926C181.031 137.415 180.936 137.985 180.936 138.636ZM191.936 143.205C191.383 143.205 190.881 143.1 190.43 142.892C189.98 142.68 189.622 142.375 189.357 141.977C189.091 141.576 188.959 141.091 188.959 140.523C188.959 140.023 189.057 139.617 189.254 139.307C189.451 138.992 189.714 138.746 190.044 138.568C190.374 138.39 190.737 138.258 191.135 138.17C191.536 138.08 191.94 138.008 192.345 137.955C192.875 137.886 193.305 137.835 193.635 137.801C193.968 137.763 194.211 137.701 194.362 137.614C194.518 137.527 194.595 137.375 194.595 137.159V137.114C194.595 136.553 194.442 136.117 194.135 135.807C193.832 135.496 193.372 135.341 192.754 135.341C192.114 135.341 191.612 135.481 191.249 135.761C190.885 136.042 190.629 136.341 190.482 136.659L189.209 136.205C189.436 135.674 189.739 135.261 190.118 134.966C190.5 134.667 190.917 134.458 191.368 134.341C191.822 134.22 192.269 134.159 192.709 134.159C192.989 134.159 193.311 134.193 193.675 134.261C194.042 134.326 194.396 134.46 194.737 134.665C195.082 134.869 195.368 135.178 195.595 135.591C195.822 136.004 195.936 136.557 195.936 137.25V143H194.595V141.818H194.527C194.436 142.008 194.285 142.21 194.072 142.426C193.86 142.642 193.578 142.826 193.226 142.977C192.874 143.129 192.444 143.205 191.936 143.205ZM192.141 142C192.671 142 193.118 141.896 193.482 141.688C193.849 141.479 194.125 141.21 194.311 140.881C194.5 140.551 194.595 140.205 194.595 139.841V138.614C194.538 138.682 194.413 138.744 194.22 138.801C194.031 138.854 193.811 138.902 193.561 138.943C193.315 138.981 193.074 139.015 192.839 139.045C192.608 139.072 192.421 139.095 192.277 139.114C191.929 139.159 191.603 139.233 191.3 139.335C191 139.434 190.758 139.583 190.572 139.784C190.391 139.981 190.3 140.25 190.3 140.591C190.3 141.057 190.472 141.409 190.817 141.648C191.165 141.883 191.607 142 192.141 142ZM198.384 143V134.273H199.679V135.591H199.77C199.929 135.159 200.217 134.809 200.634 134.54C201.05 134.271 201.52 134.136 202.043 134.136C202.141 134.136 202.264 134.138 202.412 134.142C202.56 134.146 202.671 134.152 202.747 134.159V135.523C202.702 135.511 202.598 135.494 202.435 135.472C202.276 135.445 202.107 135.432 201.929 135.432C201.505 135.432 201.126 135.521 200.793 135.699C200.463 135.873 200.202 136.116 200.009 136.426C199.819 136.733 199.724 137.083 199.724 137.477V143H198.384ZM207.73 143.182C206.889 143.182 206.164 142.996 205.554 142.625C204.948 142.25 204.48 141.727 204.151 141.057C203.825 140.383 203.662 139.598 203.662 138.705C203.662 137.811 203.825 137.023 204.151 136.341C204.48 135.655 204.938 135.121 205.526 134.739C206.116 134.352 206.806 134.159 207.594 134.159C208.048 134.159 208.497 134.235 208.94 134.386C209.384 134.538 209.787 134.784 210.151 135.125C210.514 135.462 210.804 135.909 211.02 136.466C211.236 137.023 211.344 137.708 211.344 138.523V139.091H204.616V137.932H209.98C209.98 137.439 209.882 137 209.685 136.614C209.491 136.227 209.215 135.922 208.855 135.699C208.499 135.475 208.079 135.364 207.594 135.364C207.06 135.364 206.598 135.496 206.207 135.761C205.821 136.023 205.524 136.364 205.315 136.784C205.107 137.205 205.003 137.655 205.003 138.136V138.909C205.003 139.568 205.116 140.127 205.344 140.585C205.575 141.04 205.895 141.386 206.304 141.625C206.713 141.86 207.188 141.977 207.73 141.977C208.082 141.977 208.401 141.928 208.685 141.83C208.973 141.727 209.221 141.576 209.429 141.375C209.637 141.17 209.798 140.917 209.912 140.614L211.207 140.977C211.071 141.417 210.842 141.803 210.52 142.136C210.198 142.466 209.8 142.723 209.327 142.909C208.853 143.091 208.321 143.182 207.73 143.182ZM216.679 143.182C215.952 143.182 215.31 142.998 214.753 142.631C214.196 142.259 213.76 141.737 213.446 141.062C213.132 140.384 212.974 139.583 212.974 138.659C212.974 137.742 213.132 136.947 213.446 136.273C213.76 135.598 214.198 135.078 214.759 134.71C215.319 134.343 215.967 134.159 216.702 134.159C217.27 134.159 217.719 134.254 218.048 134.443C218.382 134.629 218.635 134.841 218.81 135.08C218.988 135.314 219.126 135.508 219.224 135.659H219.338V131.364H220.679V143H219.384V141.659H219.224C219.126 141.818 218.986 142.019 218.804 142.261C218.622 142.5 218.363 142.714 218.026 142.903C217.688 143.089 217.24 143.182 216.679 143.182ZM216.861 141.977C217.399 141.977 217.853 141.837 218.224 141.557C218.596 141.273 218.878 140.881 219.071 140.381C219.264 139.877 219.361 139.295 219.361 138.636C219.361 137.985 219.266 137.415 219.077 136.926C218.887 136.434 218.607 136.051 218.236 135.778C217.865 135.502 217.406 135.364 216.861 135.364C216.293 135.364 215.819 135.509 215.44 135.801C215.065 136.089 214.783 136.481 214.594 136.977C214.408 137.47 214.315 138.023 214.315 138.636C214.315 139.258 214.41 139.822 214.599 140.33C214.793 140.833 215.077 141.235 215.452 141.534C215.83 141.83 216.3 141.977 216.861 141.977ZM231.616 134.273V135.409H227.094V134.273H231.616ZM228.412 132.182H229.753V140.5C229.753 140.879 229.808 141.163 229.918 141.352C230.031 141.538 230.175 141.663 230.349 141.727C230.527 141.788 230.715 141.818 230.912 141.818C231.06 141.818 231.181 141.811 231.276 141.795C231.37 141.777 231.446 141.761 231.503 141.75L231.776 142.955C231.685 142.989 231.558 143.023 231.395 143.057C231.232 143.095 231.026 143.114 230.776 143.114C230.397 143.114 230.026 143.032 229.662 142.869C229.302 142.706 229.003 142.458 228.764 142.125C228.529 141.792 228.412 141.371 228.412 140.864V132.182ZM237.085 143.182C236.297 143.182 235.606 142.994 235.011 142.619C234.42 142.244 233.958 141.72 233.625 141.045C233.295 140.371 233.131 139.583 233.131 138.682C233.131 137.773 233.295 136.979 233.625 136.301C233.958 135.623 234.42 135.097 235.011 134.722C235.606 134.347 236.297 134.159 237.085 134.159C237.873 134.159 238.563 134.347 239.153 134.722C239.748 135.097 240.21 135.623 240.54 136.301C240.873 136.979 241.04 137.773 241.04 138.682C241.04 139.583 240.873 140.371 240.54 141.045C240.21 141.72 239.748 142.244 239.153 142.619C238.563 142.994 237.873 143.182 237.085 143.182ZM237.085 141.977C237.684 141.977 238.176 141.824 238.562 141.517C238.949 141.21 239.235 140.807 239.42 140.307C239.606 139.807 239.699 139.265 239.699 138.682C239.699 138.098 239.606 137.555 239.42 137.051C239.235 136.547 238.949 136.14 238.562 135.83C238.176 135.519 237.684 135.364 237.085 135.364C236.487 135.364 235.994 135.519 235.608 135.83C235.222 136.14 234.936 136.547 234.75 137.051C234.564 137.555 234.472 138.098 234.472 138.682C234.472 139.265 234.564 139.807 234.75 140.307C234.936 140.807 235.222 141.21 235.608 141.517C235.994 141.824 236.487 141.977 237.085 141.977ZM251.382 134.273V135.409H246.859V134.273H251.382ZM248.178 132.182H249.518V140.5C249.518 140.879 249.573 141.163 249.683 141.352C249.797 141.538 249.941 141.663 250.115 141.727C250.293 141.788 250.481 141.818 250.678 141.818C250.825 141.818 250.946 141.811 251.041 141.795C251.136 141.777 251.212 141.761 251.268 141.75L251.541 142.955C251.45 142.989 251.323 143.023 251.161 143.057C250.998 143.095 250.791 143.114 250.541 143.114C250.162 143.114 249.791 143.032 249.428 142.869C249.068 142.706 248.768 142.458 248.53 142.125C248.295 141.792 248.178 141.371 248.178 140.864V132.182ZM254.928 137.75V143H253.587V131.364H254.928V135.636H255.041C255.246 135.186 255.553 134.828 255.962 134.562C256.375 134.294 256.924 134.159 257.609 134.159C258.204 134.159 258.725 134.278 259.172 134.517C259.619 134.752 259.965 135.114 260.212 135.602C260.462 136.087 260.587 136.705 260.587 137.455V143H259.246V137.545C259.246 136.852 259.066 136.316 258.706 135.938C258.35 135.555 257.856 135.364 257.223 135.364C256.784 135.364 256.39 135.456 256.041 135.642C255.696 135.828 255.424 136.098 255.223 136.455C255.026 136.811 254.928 137.242 254.928 137.75ZM266.699 143.182C265.858 143.182 265.133 142.996 264.523 142.625C263.917 142.25 263.449 141.727 263.119 141.057C262.794 140.383 262.631 139.598 262.631 138.705C262.631 137.811 262.794 137.023 263.119 136.341C263.449 135.655 263.907 135.121 264.494 134.739C265.085 134.352 265.775 134.159 266.562 134.159C267.017 134.159 267.466 134.235 267.909 134.386C268.352 134.538 268.756 134.784 269.119 135.125C269.483 135.462 269.773 135.909 269.989 136.466C270.205 137.023 270.312 137.708 270.312 138.523V139.091H263.585V137.932H268.949C268.949 137.439 268.85 137 268.653 136.614C268.46 136.227 268.184 135.922 267.824 135.699C267.468 135.475 267.047 135.364 266.562 135.364C266.028 135.364 265.566 135.496 265.176 135.761C264.79 136.023 264.492 136.364 264.284 136.784C264.076 137.205 263.972 137.655 263.972 138.136V138.909C263.972 139.568 264.085 140.127 264.312 140.585C264.544 141.04 264.864 141.386 265.273 141.625C265.682 141.86 266.157 141.977 266.699 141.977C267.051 141.977 267.369 141.928 267.653 141.83C267.941 141.727 268.189 141.576 268.398 141.375C268.606 141.17 268.767 140.917 268.881 140.614L270.176 140.977C270.04 141.417 269.811 141.803 269.489 142.136C269.167 142.466 268.769 142.723 268.295 142.909C267.822 143.091 267.29 143.182 266.699 143.182ZM280.398 143.182C279.61 143.182 278.919 142.994 278.324 142.619C277.733 142.244 277.271 141.72 276.938 141.045C276.608 140.371 276.443 139.583 276.443 138.682C276.443 137.773 276.608 136.979 276.938 136.301C277.271 135.623 277.733 135.097 278.324 134.722C278.919 134.347 279.61 134.159 280.398 134.159C281.186 134.159 281.875 134.347 282.466 134.722C283.061 135.097 283.523 135.623 283.852 136.301C284.186 136.979 284.352 137.773 284.352 138.682C284.352 139.583 284.186 140.371 283.852 141.045C283.523 141.72 283.061 142.244 282.466 142.619C281.875 142.994 281.186 143.182 280.398 143.182ZM280.398 141.977C280.996 141.977 281.489 141.824 281.875 141.517C282.261 141.21 282.547 140.807 282.733 140.307C282.919 139.807 283.011 139.265 283.011 138.682C283.011 138.098 282.919 137.555 282.733 137.051C282.547 136.547 282.261 136.14 281.875 135.83C281.489 135.519 280.996 135.364 280.398 135.364C279.799 135.364 279.307 135.519 278.92 135.83C278.534 136.14 278.248 136.547 278.062 137.051C277.877 137.555 277.784 138.098 277.784 138.682C277.784 139.265 277.877 139.807 278.062 140.307C278.248 140.807 278.534 141.21 278.92 141.517C279.307 141.824 279.799 141.977 280.398 141.977ZM293.223 134.273L289.996 143H288.632L285.405 134.273H286.859L289.268 141.227H289.359L291.768 134.273H293.223ZM298.339 143.182C297.499 143.182 296.773 142.996 296.163 142.625C295.557 142.25 295.089 141.727 294.76 141.057C294.434 140.383 294.271 139.598 294.271 138.705C294.271 137.811 294.434 137.023 294.76 136.341C295.089 135.655 295.548 135.121 296.135 134.739C296.726 134.352 297.415 134.159 298.203 134.159C298.658 134.159 299.107 134.235 299.55 134.386C299.993 134.538 300.396 134.784 300.76 135.125C301.124 135.462 301.413 135.909 301.629 136.466C301.845 137.023 301.953 137.708 301.953 138.523V139.091H295.226V137.932H300.589C300.589 137.439 300.491 137 300.294 136.614C300.101 136.227 299.824 135.922 299.464 135.699C299.108 135.475 298.688 135.364 298.203 135.364C297.669 135.364 297.207 135.496 296.817 135.761C296.43 136.023 296.133 136.364 295.925 136.784C295.716 137.205 295.612 137.655 295.612 138.136V138.909C295.612 139.568 295.726 140.127 295.953 140.585C296.184 141.04 296.504 141.386 296.913 141.625C297.322 141.86 297.798 141.977 298.339 141.977C298.692 141.977 299.01 141.928 299.294 141.83C299.582 141.727 299.83 141.576 300.038 141.375C300.247 141.17 300.408 140.917 300.521 140.614L301.817 140.977C301.68 141.417 301.451 141.803 301.129 142.136C300.807 142.466 300.41 142.723 299.936 142.909C299.463 143.091 298.93 143.182 298.339 143.182ZM303.993 143V134.273H305.288V135.591H305.379C305.538 135.159 305.826 134.809 306.243 134.54C306.66 134.271 307.129 134.136 307.652 134.136C307.75 134.136 307.874 134.138 308.021 134.142C308.169 134.146 308.281 134.152 308.357 134.159V135.523C308.311 135.511 308.207 135.494 308.044 135.472C307.885 135.445 307.716 135.432 307.538 135.432C307.114 135.432 306.735 135.521 306.402 135.699C306.072 135.873 305.811 136.116 305.618 136.426C305.429 136.733 305.334 137.083 305.334 137.477V143H303.993ZM312.514 143.205C311.961 143.205 311.459 143.1 311.009 142.892C310.558 142.68 310.2 142.375 309.935 141.977C309.67 141.576 309.537 141.091 309.537 140.523C309.537 140.023 309.635 139.617 309.832 139.307C310.029 138.992 310.293 138.746 310.622 138.568C310.952 138.39 311.315 138.258 311.713 138.17C312.115 138.08 312.518 138.008 312.923 137.955C313.454 137.886 313.884 137.835 314.213 137.801C314.546 137.763 314.789 137.701 314.94 137.614C315.096 137.527 315.173 137.375 315.173 137.159V137.114C315.173 136.553 315.02 136.117 314.713 135.807C314.41 135.496 313.95 135.341 313.332 135.341C312.692 135.341 312.19 135.481 311.827 135.761C311.463 136.042 311.207 136.341 311.06 136.659L309.787 136.205C310.014 135.674 310.317 135.261 310.696 134.966C311.079 134.667 311.495 134.458 311.946 134.341C312.401 134.22 312.848 134.159 313.287 134.159C313.567 134.159 313.889 134.193 314.253 134.261C314.62 134.326 314.974 134.46 315.315 134.665C315.66 134.869 315.946 135.178 316.173 135.591C316.401 136.004 316.514 136.557 316.514 137.25V143H315.173V141.818H315.105C315.014 142.008 314.863 142.21 314.651 142.426C314.438 142.642 314.156 142.826 313.804 142.977C313.452 143.129 313.022 143.205 312.514 143.205ZM312.719 142C313.249 142 313.696 141.896 314.06 141.688C314.427 141.479 314.704 141.21 314.889 140.881C315.079 140.551 315.173 140.205 315.173 139.841V138.614C315.116 138.682 314.991 138.744 314.798 138.801C314.609 138.854 314.389 138.902 314.139 138.943C313.893 138.981 313.652 139.015 313.418 139.045C313.187 139.072 312.999 139.095 312.855 139.114C312.507 139.159 312.181 139.233 311.878 139.335C311.579 139.434 311.336 139.583 311.151 139.784C310.969 139.981 310.878 140.25 310.878 140.591C310.878 141.057 311.05 141.409 311.395 141.648C311.743 141.883 312.185 142 312.719 142ZM320.303 131.364V143H318.962V131.364H320.303ZM324.099 131.364V143H322.759V131.364H324.099ZM147.227 162V153.273H148.523V154.636H148.636C148.818 154.17 149.112 153.809 149.517 153.551C149.922 153.29 150.409 153.159 150.977 153.159C151.553 153.159 152.032 153.29 152.415 153.551C152.801 153.809 153.102 154.17 153.318 154.636H153.409C153.633 154.186 153.968 153.828 154.415 153.562C154.862 153.294 155.398 153.159 156.023 153.159C156.803 153.159 157.441 153.403 157.938 153.892C158.434 154.377 158.682 155.133 158.682 156.159V162H157.341V156.159C157.341 155.515 157.165 155.055 156.812 154.778C156.46 154.502 156.045 154.364 155.568 154.364C154.955 154.364 154.479 154.549 154.142 154.92C153.805 155.288 153.636 155.754 153.636 156.318V162H152.273V156.023C152.273 155.527 152.112 155.127 151.79 154.824C151.468 154.517 151.053 154.364 150.545 154.364C150.197 154.364 149.871 154.456 149.568 154.642C149.269 154.828 149.027 155.085 148.841 155.415C148.659 155.741 148.568 156.117 148.568 156.545V162H147.227ZM163.702 162.205C163.149 162.205 162.647 162.1 162.196 161.892C161.745 161.68 161.387 161.375 161.122 160.977C160.857 160.576 160.724 160.091 160.724 159.523C160.724 159.023 160.823 158.617 161.02 158.307C161.217 157.992 161.48 157.746 161.81 157.568C162.139 157.39 162.503 157.258 162.901 157.17C163.302 157.08 163.705 157.008 164.111 156.955C164.641 156.886 165.071 156.835 165.401 156.801C165.734 156.763 165.976 156.701 166.128 156.614C166.283 156.527 166.361 156.375 166.361 156.159V156.114C166.361 155.553 166.207 155.117 165.901 154.807C165.598 154.496 165.137 154.341 164.52 154.341C163.88 154.341 163.378 154.481 163.014 154.761C162.651 155.042 162.395 155.341 162.247 155.659L160.974 155.205C161.202 154.674 161.505 154.261 161.884 153.966C162.266 153.667 162.683 153.458 163.134 153.341C163.588 153.22 164.035 153.159 164.474 153.159C164.755 153.159 165.077 153.193 165.44 153.261C165.808 153.326 166.162 153.46 166.503 153.665C166.848 153.869 167.134 154.178 167.361 154.591C167.588 155.004 167.702 155.557 167.702 156.25V162H166.361V160.818H166.293C166.202 161.008 166.05 161.21 165.838 161.426C165.626 161.642 165.344 161.826 164.991 161.977C164.639 162.129 164.209 162.205 163.702 162.205ZM163.906 161C164.437 161 164.884 160.896 165.247 160.688C165.615 160.479 165.891 160.21 166.077 159.881C166.266 159.551 166.361 159.205 166.361 158.841V157.614C166.304 157.682 166.179 157.744 165.986 157.801C165.796 157.854 165.577 157.902 165.327 157.943C165.08 157.981 164.84 158.015 164.605 158.045C164.374 158.072 164.187 158.095 164.043 158.114C163.694 158.159 163.368 158.233 163.065 158.335C162.766 158.434 162.524 158.583 162.338 158.784C162.156 158.981 162.065 159.25 162.065 159.591C162.065 160.057 162.238 160.409 162.582 160.648C162.931 160.883 163.372 161 163.906 161ZM170.149 162V153.273H171.445V154.591H171.536C171.695 154.159 171.982 153.809 172.399 153.54C172.816 153.271 173.286 153.136 173.808 153.136C173.907 153.136 174.03 153.138 174.178 153.142C174.325 153.146 174.437 153.152 174.513 153.159V154.523C174.467 154.511 174.363 154.494 174.2 154.472C174.041 154.445 173.873 154.432 173.695 154.432C173.27 154.432 172.892 154.521 172.558 154.699C172.229 154.873 171.967 155.116 171.774 155.426C171.585 155.733 171.49 156.083 171.49 156.477V162H170.149ZM177.352 158.818L177.33 157.159H177.602L181.42 153.273H183.08L179.011 157.386H178.898L177.352 158.818ZM176.102 162V150.364H177.443V162H176.102ZM181.648 162L178.239 157.682L179.193 156.75L183.352 162H181.648ZM188.105 162.182C187.264 162.182 186.539 161.996 185.929 161.625C185.323 161.25 184.855 160.727 184.526 160.057C184.2 159.383 184.037 158.598 184.037 157.705C184.037 156.811 184.2 156.023 184.526 155.341C184.855 154.655 185.313 154.121 185.901 153.739C186.491 153.352 187.181 153.159 187.969 153.159C188.423 153.159 188.872 153.235 189.315 153.386C189.759 153.538 190.162 153.784 190.526 154.125C190.889 154.462 191.179 154.909 191.395 155.466C191.611 156.023 191.719 156.708 191.719 157.523V158.091H184.991V156.932H190.355C190.355 156.439 190.257 156 190.06 155.614C189.866 155.227 189.59 154.922 189.23 154.699C188.874 154.475 188.454 154.364 187.969 154.364C187.435 154.364 186.973 154.496 186.582 154.761C186.196 155.023 185.899 155.364 185.69 155.784C185.482 156.205 185.378 156.655 185.378 157.136V157.909C185.378 158.568 185.491 159.127 185.719 159.585C185.95 160.04 186.27 160.386 186.679 160.625C187.088 160.86 187.563 160.977 188.105 160.977C188.457 160.977 188.776 160.928 189.06 160.83C189.348 160.727 189.596 160.576 189.804 160.375C190.012 160.17 190.173 159.917 190.287 159.614L191.582 159.977C191.446 160.417 191.217 160.803 190.895 161.136C190.573 161.466 190.175 161.723 189.702 161.909C189.228 162.091 188.696 162.182 188.105 162.182ZM197.554 153.273V154.409H193.031V153.273H197.554ZM194.349 151.182H195.69V159.5C195.69 159.879 195.745 160.163 195.855 160.352C195.969 160.538 196.113 160.663 196.287 160.727C196.465 160.788 196.652 160.818 196.849 160.818C196.997 160.818 197.118 160.811 197.213 160.795C197.308 160.777 197.384 160.761 197.44 160.75L197.713 161.955C197.622 161.989 197.495 162.023 197.332 162.057C197.17 162.095 196.963 162.114 196.713 162.114C196.334 162.114 195.963 162.032 195.599 161.869C195.24 161.706 194.94 161.458 194.702 161.125C194.467 160.792 194.349 160.371 194.349 159.864V151.182ZM207.594 165.455C206.946 165.455 206.389 165.371 205.923 165.205C205.457 165.042 205.069 164.826 204.759 164.557C204.452 164.292 204.207 164.008 204.026 163.705L205.094 162.955C205.215 163.114 205.368 163.295 205.554 163.5C205.74 163.708 205.993 163.888 206.315 164.04C206.641 164.195 207.067 164.273 207.594 164.273C208.298 164.273 208.88 164.102 209.338 163.761C209.796 163.42 210.026 162.886 210.026 162.159V160.386H209.912C209.813 160.545 209.673 160.742 209.491 160.977C209.313 161.208 209.056 161.415 208.719 161.597C208.385 161.775 207.935 161.864 207.366 161.864C206.662 161.864 206.029 161.697 205.469 161.364C204.912 161.03 204.471 160.545 204.145 159.909C203.823 159.273 203.662 158.5 203.662 157.591C203.662 156.697 203.819 155.919 204.134 155.256C204.448 154.589 204.885 154.074 205.446 153.71C206.007 153.343 206.654 153.159 207.389 153.159C207.957 153.159 208.408 153.254 208.741 153.443C209.079 153.629 209.336 153.841 209.514 154.08C209.696 154.314 209.836 154.508 209.935 154.659H210.071V153.273H211.366V162.25C211.366 163 211.196 163.61 210.855 164.08C210.518 164.553 210.063 164.9 209.491 165.119C208.923 165.343 208.291 165.455 207.594 165.455ZM207.548 160.659C208.086 160.659 208.541 160.536 208.912 160.29C209.283 160.044 209.565 159.689 209.759 159.227C209.952 158.765 210.048 158.212 210.048 157.568C210.048 156.939 209.954 156.384 209.764 155.903C209.575 155.422 209.295 155.045 208.923 154.773C208.552 154.5 208.094 154.364 207.548 154.364C206.98 154.364 206.507 154.508 206.128 154.795C205.753 155.083 205.471 155.47 205.281 155.955C205.096 156.439 205.003 156.977 205.003 157.568C205.003 158.174 205.098 158.71 205.287 159.176C205.48 159.638 205.764 160.002 206.139 160.267C206.518 160.528 206.988 160.659 207.548 160.659ZM213.821 162V153.273H215.116V154.591H215.207C215.366 154.159 215.654 153.809 216.071 153.54C216.488 153.271 216.957 153.136 217.48 153.136C217.579 153.136 217.702 153.138 217.849 153.142C217.997 153.146 218.109 153.152 218.185 153.159V154.523C218.139 154.511 218.035 154.494 217.872 154.472C217.713 154.445 217.545 154.432 217.366 154.432C216.942 154.432 216.563 154.521 216.23 154.699C215.901 154.873 215.639 155.116 215.446 155.426C215.257 155.733 215.162 156.083 215.162 156.477V162H213.821ZM223.054 162.182C222.266 162.182 221.575 161.994 220.98 161.619C220.389 161.244 219.927 160.72 219.594 160.045C219.264 159.371 219.099 158.583 219.099 157.682C219.099 156.773 219.264 155.979 219.594 155.301C219.927 154.623 220.389 154.097 220.98 153.722C221.575 153.347 222.266 153.159 223.054 153.159C223.842 153.159 224.531 153.347 225.122 153.722C225.717 154.097 226.179 154.623 226.509 155.301C226.842 155.979 227.009 156.773 227.009 157.682C227.009 158.583 226.842 159.371 226.509 160.045C226.179 160.72 225.717 161.244 225.122 161.619C224.531 161.994 223.842 162.182 223.054 162.182ZM223.054 160.977C223.652 160.977 224.145 160.824 224.531 160.517C224.918 160.21 225.204 159.807 225.389 159.307C225.575 158.807 225.668 158.265 225.668 157.682C225.668 157.098 225.575 156.555 225.389 156.051C225.204 155.547 224.918 155.14 224.531 154.83C224.145 154.519 223.652 154.364 223.054 154.364C222.455 154.364 221.963 154.519 221.577 154.83C221.19 155.14 220.904 155.547 220.719 156.051C220.533 156.555 220.44 157.098 220.44 157.682C220.44 158.265 220.533 158.807 220.719 159.307C220.904 159.807 221.19 160.21 221.577 160.517C221.963 160.824 222.455 160.977 223.054 160.977ZM230.736 162L228.077 153.273H229.486L231.372 159.955H231.463L233.327 153.273H234.759L236.599 159.932H236.69L238.577 153.273H239.986L237.327 162H236.009L234.099 155.295H233.963L232.054 162H230.736ZM245.554 153.273V154.409H241.031V153.273H245.554ZM242.349 151.182H243.69V159.5C243.69 159.879 243.745 160.163 243.855 160.352C243.969 160.538 244.113 160.663 244.287 160.727C244.465 160.788 244.652 160.818 244.849 160.818C244.997 160.818 245.118 160.811 245.213 160.795C245.308 160.777 245.384 160.761 245.44 160.75L245.713 161.955C245.622 161.989 245.495 162.023 245.332 162.057C245.17 162.095 244.963 162.114 244.713 162.114C244.334 162.114 243.963 162.032 243.599 161.869C243.24 161.706 242.94 161.458 242.702 161.125C242.467 160.792 242.349 160.371 242.349 159.864V151.182ZM249.099 156.75V162H247.759V150.364H249.099V154.636H249.213C249.418 154.186 249.724 153.828 250.134 153.562C250.546 153.294 251.096 153.159 251.781 153.159C252.376 153.159 252.897 153.278 253.344 153.517C253.791 153.752 254.137 154.114 254.384 154.602C254.634 155.087 254.759 155.705 254.759 156.455V162H253.418V156.545C253.418 155.852 253.238 155.316 252.878 154.938C252.522 154.555 252.027 154.364 251.395 154.364C250.955 154.364 250.562 154.456 250.213 154.642C249.868 154.828 249.596 155.098 249.395 155.455C249.198 155.811 249.099 156.242 249.099 156.75ZM265.257 162.182C264.469 162.182 263.778 161.994 263.183 161.619C262.592 161.244 262.13 160.72 261.797 160.045C261.467 159.371 261.303 158.583 261.303 157.682C261.303 156.773 261.467 155.979 261.797 155.301C262.13 154.623 262.592 154.097 263.183 153.722C263.778 153.347 264.469 153.159 265.257 153.159C266.045 153.159 266.734 153.347 267.325 153.722C267.92 154.097 268.382 154.623 268.712 155.301C269.045 155.979 269.212 156.773 269.212 157.682C269.212 158.583 269.045 159.371 268.712 160.045C268.382 160.72 267.92 161.244 267.325 161.619C266.734 161.994 266.045 162.182 265.257 162.182ZM265.257 160.977C265.856 160.977 266.348 160.824 266.734 160.517C267.121 160.21 267.407 159.807 267.592 159.307C267.778 158.807 267.871 158.265 267.871 157.682C267.871 157.098 267.778 156.555 267.592 156.051C267.407 155.547 267.121 155.14 266.734 154.83C266.348 154.519 265.856 154.364 265.257 154.364C264.659 154.364 264.166 154.519 263.78 154.83C263.393 155.14 263.107 155.547 262.922 156.051C262.736 156.555 262.643 157.098 262.643 157.682C262.643 158.265 262.736 158.807 262.922 159.307C263.107 159.807 263.393 160.21 263.78 160.517C264.166 160.824 264.659 160.977 265.257 160.977ZM275.145 153.273V154.409H270.44V153.273H275.145ZM271.849 162V152.068C271.849 151.568 271.967 151.152 272.202 150.818C272.437 150.485 272.741 150.235 273.116 150.068C273.491 149.902 273.887 149.818 274.304 149.818C274.634 149.818 274.902 149.845 275.111 149.898C275.319 149.951 275.474 150 275.577 150.045L275.19 151.205C275.122 151.182 275.027 151.153 274.906 151.119C274.789 151.085 274.634 151.068 274.44 151.068C273.997 151.068 273.677 151.18 273.48 151.403C273.287 151.627 273.19 151.955 273.19 152.386V162H271.849ZM285.229 162.159C284.448 162.159 283.759 162.021 283.161 161.744C282.566 161.464 282.102 161.08 281.768 160.591C281.435 160.098 281.27 159.538 281.274 158.909C281.27 158.417 281.367 157.962 281.564 157.545C281.761 157.125 282.03 156.775 282.371 156.494C282.715 156.21 283.1 156.03 283.524 155.955V155.886C282.967 155.742 282.524 155.43 282.195 154.949C281.865 154.464 281.702 153.913 281.706 153.295C281.702 152.705 281.852 152.176 282.155 151.71C282.458 151.244 282.875 150.877 283.405 150.608C283.939 150.339 284.547 150.205 285.229 150.205C285.903 150.205 286.505 150.339 287.036 150.608C287.566 150.877 287.982 151.244 288.286 151.71C288.592 152.176 288.748 152.705 288.751 153.295C288.748 153.913 288.579 154.464 288.246 154.949C287.916 155.43 287.479 155.742 286.933 155.886V155.955C287.354 156.03 287.732 156.21 288.07 156.494C288.407 156.775 288.676 157.125 288.876 157.545C289.077 157.962 289.179 158.417 289.183 158.909C289.179 159.538 289.009 160.098 288.672 160.591C288.339 161.08 287.875 161.464 287.28 161.744C286.689 162.021 286.005 162.159 285.229 162.159ZM285.229 160.909C285.755 160.909 286.21 160.824 286.592 160.653C286.975 160.483 287.27 160.242 287.479 159.932C287.687 159.621 287.793 159.258 287.797 158.841C287.793 158.402 287.679 158.013 287.456 157.676C287.232 157.339 286.928 157.074 286.541 156.881C286.159 156.687 285.721 156.591 285.229 156.591C284.732 156.591 284.289 156.687 283.899 156.881C283.513 157.074 283.208 157.339 282.984 157.676C282.765 158.013 282.657 158.402 282.661 158.841C282.657 159.258 282.757 159.621 282.962 159.932C283.17 160.242 283.467 160.483 283.854 160.653C284.24 160.824 284.698 160.909 285.229 160.909ZM285.229 155.386C285.645 155.386 286.015 155.303 286.337 155.136C286.662 154.97 286.918 154.737 287.104 154.438C287.289 154.138 287.384 153.788 287.388 153.386C287.384 152.992 287.291 152.65 287.109 152.358C286.928 152.062 286.676 151.835 286.354 151.676C286.032 151.513 285.657 151.432 285.229 151.432C284.793 151.432 284.412 151.513 284.087 151.676C283.761 151.835 283.509 152.062 283.331 152.358C283.153 152.65 283.066 152.992 283.07 153.386C283.066 153.788 283.155 154.138 283.337 154.438C283.522 154.737 283.778 154.97 284.104 155.136C284.429 155.303 284.804 155.386 285.229 155.386ZM297.293 159.818V159.205C297.293 158.78 297.38 158.392 297.554 158.04C297.732 157.684 297.99 157.4 298.327 157.188C298.668 156.972 299.08 156.864 299.565 156.864C300.058 156.864 300.471 156.972 300.804 157.188C301.137 157.4 301.389 157.684 301.56 158.04C301.73 158.392 301.815 158.78 301.815 159.205V159.818C301.815 160.242 301.728 160.633 301.554 160.989C301.384 161.341 301.13 161.625 300.793 161.841C300.459 162.053 300.05 162.159 299.565 162.159C299.073 162.159 298.658 162.053 298.321 161.841C297.984 161.625 297.728 161.341 297.554 160.989C297.38 160.633 297.293 160.242 297.293 159.818ZM298.452 159.205V159.818C298.452 160.17 298.535 160.487 298.702 160.767C298.868 161.044 299.156 161.182 299.565 161.182C299.963 161.182 300.243 161.044 300.406 160.767C300.573 160.487 300.656 160.17 300.656 159.818V159.205C300.656 158.852 300.577 158.538 300.418 158.261C300.259 157.981 299.974 157.841 299.565 157.841C299.168 157.841 298.882 157.981 298.707 158.261C298.537 158.538 298.452 158.852 298.452 159.205ZM291.497 153.159V152.545C291.497 152.121 291.584 151.733 291.759 151.381C291.937 151.025 292.194 150.741 292.531 150.528C292.872 150.312 293.285 150.205 293.77 150.205C294.262 150.205 294.675 150.312 295.009 150.528C295.342 150.741 295.594 151.025 295.764 151.381C295.935 151.733 296.02 152.121 296.02 152.545V153.159C296.02 153.583 295.933 153.973 295.759 154.33C295.588 154.682 295.334 154.966 294.997 155.182C294.664 155.394 294.255 155.5 293.77 155.5C293.277 155.5 292.863 155.394 292.526 155.182C292.188 154.966 291.933 154.682 291.759 154.33C291.584 153.973 291.497 153.583 291.497 153.159ZM292.656 152.545V153.159C292.656 153.511 292.74 153.828 292.906 154.108C293.073 154.384 293.361 154.523 293.77 154.523C294.168 154.523 294.448 154.384 294.611 154.108C294.777 153.828 294.861 153.511 294.861 153.159V152.545C294.861 152.193 294.781 151.879 294.622 151.602C294.463 151.322 294.179 151.182 293.77 151.182C293.372 151.182 293.086 151.322 292.912 151.602C292.741 151.879 292.656 152.193 292.656 152.545ZM291.929 162L299.929 150.364H301.224L293.224 162H291.929Z" fill="#24408E"/>
</svg>
