<svg width="100%" viewBox="0 0 1296 351" fill="none" xmlns="http://www.w3.org/2000/svg">
<path d="M61.2727 124.727V148H58.5455L45.8636 129.727H45.6364V148H42.8182V124.727H45.5455L58.2727 143.045H58.5V124.727H61.2727ZM77.5483 140.864V130.545H80.2301V148H77.5483V145.045H77.3665C76.9574 145.932 76.321 146.686 75.4574 147.307C74.5938 147.92 73.5028 148.227 72.1847 148.227C71.0938 148.227 70.1241 147.989 69.2756 147.511C68.4271 147.027 67.7604 146.299 67.2756 145.33C66.7907 144.352 66.5483 143.121 66.5483 141.636V130.545H69.2301V141.455C69.2301 142.727 69.5862 143.742 70.2983 144.5C71.018 145.258 71.9347 145.636 73.0483 145.636C73.715 145.636 74.393 145.466 75.0824 145.125C75.7794 144.784 76.3627 144.261 76.8324 143.557C77.3097 142.852 77.5483 141.955 77.5483 140.864ZM85.142 148V130.545H87.733V133.273H87.9602C88.3239 132.341 88.911 131.617 89.7216 131.102C90.5322 130.58 91.5057 130.318 92.642 130.318C93.7936 130.318 94.7519 130.58 95.517 131.102C96.2898 131.617 96.892 132.341 97.3239 133.273H97.5057C97.9527 132.371 98.6231 131.655 99.517 131.125C100.411 130.587 101.483 130.318 102.733 130.318C104.294 130.318 105.57 130.807 106.562 131.784C107.555 132.754 108.051 134.265 108.051 136.318V148H105.369V136.318C105.369 135.03 105.017 134.11 104.312 133.557C103.608 133.004 102.778 132.727 101.824 132.727C100.597 132.727 99.6458 133.098 98.9716 133.841C98.2973 134.576 97.9602 135.508 97.9602 136.636V148H95.233V136.045C95.233 135.053 94.911 134.254 94.267 133.648C93.6231 133.034 92.7936 132.727 91.7784 132.727C91.0814 132.727 90.4299 132.913 89.8239 133.284C89.2254 133.655 88.7405 134.17 88.3693 134.83C88.0057 135.481 87.8239 136.235 87.8239 137.091V148H85.142ZM113.318 148V124.727H116V133.318H116.227C116.424 133.015 116.697 132.629 117.045 132.159C117.402 131.682 117.909 131.258 118.568 130.886C119.235 130.508 120.136 130.318 121.273 130.318C122.742 130.318 124.038 130.686 125.159 131.42C126.28 132.155 127.155 133.197 127.784 134.545C128.413 135.894 128.727 137.485 128.727 139.318C128.727 141.167 128.413 142.769 127.784 144.125C127.155 145.473 126.284 146.519 125.17 147.261C124.057 147.996 122.773 148.364 121.318 148.364C120.197 148.364 119.299 148.178 118.625 147.807C117.951 147.428 117.432 147 117.068 146.523C116.705 146.038 116.424 145.636 116.227 145.318H115.909V148H113.318ZM115.955 139.273C115.955 140.591 116.148 141.754 116.534 142.761C116.92 143.761 117.485 144.545 118.227 145.114C118.97 145.674 119.879 145.955 120.955 145.955C122.076 145.955 123.011 145.659 123.761 145.068C124.519 144.47 125.087 143.667 125.466 142.659C125.852 141.644 126.045 140.515 126.045 139.273C126.045 138.045 125.856 136.939 125.477 135.955C125.106 134.962 124.542 134.178 123.784 133.602C123.034 133.019 122.091 132.727 120.955 132.727C119.864 132.727 118.947 133.004 118.205 133.557C117.462 134.102 116.902 134.867 116.523 135.852C116.144 136.83 115.955 137.97 115.955 139.273ZM140.148 148.364C138.466 148.364 137.015 147.992 135.795 147.25C134.583 146.5 133.648 145.455 132.989 144.114C132.337 142.765 132.011 141.197 132.011 139.409C132.011 137.621 132.337 136.045 132.989 134.682C133.648 133.311 134.564 132.242 135.739 131.477C136.92 130.705 138.299 130.318 139.875 130.318C140.784 130.318 141.682 130.47 142.568 130.773C143.455 131.076 144.261 131.568 144.989 132.25C145.716 132.924 146.295 133.818 146.727 134.932C147.159 136.045 147.375 137.417 147.375 139.045V140.182H133.92V137.864H144.648C144.648 136.879 144.451 136 144.057 135.227C143.67 134.455 143.117 133.845 142.398 133.398C141.686 132.951 140.845 132.727 139.875 132.727C138.807 132.727 137.883 132.992 137.102 133.523C136.33 134.045 135.735 134.727 135.318 135.568C134.902 136.409 134.693 137.311 134.693 138.273V139.818C134.693 141.136 134.92 142.254 135.375 143.17C135.837 144.08 136.477 144.773 137.295 145.25C138.114 145.72 139.064 145.955 140.148 145.955C140.852 145.955 141.489 145.856 142.057 145.659C142.633 145.455 143.129 145.152 143.545 144.75C143.962 144.341 144.284 143.833 144.511 143.227L147.102 143.955C146.83 144.833 146.371 145.606 145.727 146.273C145.083 146.932 144.288 147.447 143.341 147.818C142.394 148.182 141.33 148.364 140.148 148.364ZM151.455 148V130.545H154.045V133.182H154.227C154.545 132.318 155.121 131.617 155.955 131.08C156.788 130.542 157.727 130.273 158.773 130.273C158.97 130.273 159.216 130.277 159.511 130.284C159.807 130.292 160.03 130.303 160.182 130.318V133.045C160.091 133.023 159.883 132.989 159.557 132.943C159.239 132.89 158.902 132.864 158.545 132.864C157.697 132.864 156.939 133.042 156.273 133.398C155.614 133.746 155.091 134.231 154.705 134.852C154.326 135.466 154.136 136.167 154.136 136.955V148H151.455ZM172.724 148V124.727H186.679V127.227H175.543V135.091H185.634V137.591H175.543V148H172.724ZM191.142 148V130.545H193.824V148H191.142ZM192.506 127.636C191.983 127.636 191.532 127.458 191.153 127.102C190.782 126.746 190.597 126.318 190.597 125.818C190.597 125.318 190.782 124.89 191.153 124.534C191.532 124.178 191.983 124 192.506 124C193.028 124 193.475 124.178 193.847 124.534C194.225 124.89 194.415 125.318 194.415 125.818C194.415 126.318 194.225 126.746 193.847 127.102C193.475 127.458 193.028 127.636 192.506 127.636ZM213.009 130.545L206.554 148H203.827L197.372 130.545H200.281L205.099 144.455H205.281L210.099 130.545H213.009ZM223.241 148.364C221.56 148.364 220.109 147.992 218.889 147.25C217.677 146.5 216.741 145.455 216.082 144.114C215.431 142.765 215.105 141.197 215.105 139.409C215.105 137.621 215.431 136.045 216.082 134.682C216.741 133.311 217.658 132.242 218.832 131.477C220.014 130.705 221.393 130.318 222.969 130.318C223.878 130.318 224.776 130.47 225.662 130.773C226.548 131.076 227.355 131.568 228.082 132.25C228.81 132.924 229.389 133.818 229.821 134.932C230.253 136.045 230.469 137.417 230.469 139.045V140.182H217.014V137.864H227.741C227.741 136.879 227.545 136 227.151 135.227C226.764 134.455 226.211 133.845 225.491 133.398C224.779 132.951 223.938 132.727 222.969 132.727C221.901 132.727 220.976 132.992 220.196 133.523C219.423 134.045 218.829 134.727 218.412 135.568C217.995 136.409 217.787 137.311 217.787 138.273V139.818C217.787 141.136 218.014 142.254 218.469 143.17C218.931 144.08 219.571 144.773 220.389 145.25C221.207 145.72 222.158 145.955 223.241 145.955C223.946 145.955 224.582 145.856 225.151 145.659C225.726 145.455 226.223 145.152 226.639 144.75C227.056 144.341 227.378 143.833 227.605 143.227L230.196 143.955C229.923 144.833 229.465 145.606 228.821 146.273C228.177 146.932 227.382 147.447 226.435 147.818C225.488 148.182 224.423 148.364 223.241 148.364ZM243.912 148V124.727H251.776C253.601 124.727 255.094 125.057 256.253 125.716C257.42 126.367 258.283 127.25 258.844 128.364C259.404 129.477 259.685 130.72 259.685 132.091C259.685 133.462 259.404 134.708 258.844 135.83C258.291 136.951 257.435 137.845 256.276 138.511C255.116 139.17 253.632 139.5 251.821 139.5H246.185V137H251.73C252.98 137 253.984 136.784 254.741 136.352C255.499 135.92 256.048 135.337 256.389 134.602C256.738 133.86 256.912 133.023 256.912 132.091C256.912 131.159 256.738 130.326 256.389 129.591C256.048 128.856 255.495 128.28 254.73 127.864C253.965 127.439 252.95 127.227 251.685 127.227H246.73V148H243.912ZM266.543 124.727V148H263.861V124.727H266.543ZM276.591 148.409C275.485 148.409 274.481 148.201 273.58 147.784C272.678 147.36 271.962 146.75 271.432 145.955C270.902 145.152 270.636 144.182 270.636 143.045C270.636 142.045 270.833 141.235 271.227 140.614C271.621 139.985 272.148 139.492 272.807 139.136C273.466 138.78 274.193 138.515 274.989 138.341C275.792 138.159 276.598 138.015 277.409 137.909C278.47 137.773 279.33 137.67 279.989 137.602C280.655 137.527 281.14 137.402 281.443 137.227C281.754 137.053 281.909 136.75 281.909 136.318V136.227C281.909 135.106 281.602 134.235 280.989 133.614C280.383 132.992 279.462 132.682 278.227 132.682C276.947 132.682 275.943 132.962 275.216 133.523C274.489 134.083 273.977 134.682 273.682 135.318L271.136 134.409C271.591 133.348 272.197 132.523 272.955 131.932C273.72 131.333 274.553 130.917 275.455 130.682C276.364 130.439 277.258 130.318 278.136 130.318C278.697 130.318 279.341 130.386 280.068 130.523C280.803 130.652 281.511 130.92 282.193 131.33C282.883 131.739 283.455 132.356 283.909 133.182C284.364 134.008 284.591 135.114 284.591 136.5V148H281.909V145.636H281.773C281.591 146.015 281.288 146.42 280.864 146.852C280.439 147.284 279.875 147.652 279.17 147.955C278.466 148.258 277.606 148.409 276.591 148.409ZM277 146C278.061 146 278.955 145.792 279.682 145.375C280.417 144.958 280.97 144.42 281.341 143.761C281.72 143.102 281.909 142.409 281.909 141.682V139.227C281.795 139.364 281.545 139.489 281.159 139.602C280.78 139.708 280.341 139.803 279.841 139.886C279.348 139.962 278.867 140.03 278.398 140.091C277.936 140.144 277.561 140.189 277.273 140.227C276.576 140.318 275.924 140.466 275.318 140.67C274.72 140.867 274.235 141.167 273.864 141.568C273.5 141.962 273.318 142.5 273.318 143.182C273.318 144.114 273.663 144.818 274.352 145.295C275.049 145.765 275.932 146 277 146ZM290.588 154.545C290.134 154.545 289.728 154.508 289.372 154.432C289.016 154.364 288.77 154.295 288.634 154.227L289.315 151.864C289.967 152.03 290.543 152.091 291.043 152.045C291.543 152 291.986 151.777 292.372 151.375C292.766 150.981 293.126 150.341 293.452 149.455L293.952 148.091L287.497 130.545H290.406L295.224 144.455H295.406L300.224 130.545H303.134L295.724 150.545C295.391 151.447 294.978 152.193 294.486 152.784C293.993 153.383 293.421 153.826 292.77 154.114C292.126 154.402 291.399 154.545 290.588 154.545ZM313.366 148.364C311.685 148.364 310.234 147.992 309.014 147.25C307.802 146.5 306.866 145.455 306.207 144.114C305.556 142.765 305.23 141.197 305.23 139.409C305.23 137.621 305.556 136.045 306.207 134.682C306.866 133.311 307.783 132.242 308.957 131.477C310.139 130.705 311.518 130.318 313.094 130.318C314.003 130.318 314.901 130.47 315.787 130.773C316.673 131.076 317.48 131.568 318.207 132.25C318.935 132.924 319.514 133.818 319.946 134.932C320.378 136.045 320.594 137.417 320.594 139.045V140.182H307.139V137.864H317.866C317.866 136.879 317.67 136 317.276 135.227C316.889 134.455 316.336 133.845 315.616 133.398C314.904 132.951 314.063 132.727 313.094 132.727C312.026 132.727 311.101 132.992 310.321 133.523C309.548 134.045 308.954 134.727 308.537 135.568C308.12 136.409 307.912 137.311 307.912 138.273V139.818C307.912 141.136 308.139 142.254 308.594 143.17C309.056 144.08 309.696 144.773 310.514 145.25C311.332 145.72 312.283 145.955 313.366 145.955C314.071 145.955 314.707 145.856 315.276 145.659C315.851 145.455 316.348 145.152 316.764 144.75C317.181 144.341 317.503 143.833 317.73 143.227L320.321 143.955C320.048 144.833 319.59 145.606 318.946 146.273C318.302 146.932 317.507 147.447 316.56 147.818C315.613 148.182 314.548 148.364 313.366 148.364ZM324.673 148V130.545H327.264V133.182H327.446C327.764 132.318 328.34 131.617 329.173 131.08C330.007 130.542 330.946 130.273 331.991 130.273C332.188 130.273 332.435 130.277 332.73 130.284C333.026 130.292 333.249 130.303 333.401 130.318V133.045C333.31 133.023 333.101 132.989 332.776 132.943C332.457 132.89 332.12 132.864 331.764 132.864C330.916 132.864 330.158 133.042 329.491 133.398C328.832 133.746 328.31 134.231 327.923 134.852C327.545 135.466 327.355 136.167 327.355 136.955V148H324.673ZM345.58 148V130.545H348.261V148H345.58ZM346.943 127.636C346.42 127.636 345.97 127.458 345.591 127.102C345.22 126.746 345.034 126.318 345.034 125.818C345.034 125.318 345.22 124.89 345.591 124.534C345.97 124.178 346.42 124 346.943 124C347.466 124 347.913 124.178 348.284 124.534C348.663 124.89 348.852 125.318 348.852 125.818C348.852 126.318 348.663 126.746 348.284 127.102C347.913 127.458 347.466 127.636 346.943 127.636ZM355.855 137.5V148H353.173V130.545H355.764V133.273H355.991C356.401 132.386 357.022 131.674 357.855 131.136C358.688 130.591 359.764 130.318 361.082 130.318C362.264 130.318 363.298 130.561 364.185 131.045C365.071 131.523 365.76 132.25 366.253 133.227C366.745 134.197 366.991 135.424 366.991 136.909V148H364.31V137.091C364.31 135.72 363.954 134.652 363.241 133.886C362.529 133.114 361.552 132.727 360.31 132.727C359.454 132.727 358.688 132.913 358.014 133.284C357.348 133.655 356.821 134.197 356.435 134.909C356.048 135.621 355.855 136.485 355.855 137.5ZM388.483 130.545V132.818H379.438V130.545H388.483ZM382.074 126.364H384.756V143C384.756 143.758 384.866 144.326 385.085 144.705C385.313 145.076 385.6 145.326 385.949 145.455C386.305 145.576 386.68 145.636 387.074 145.636C387.369 145.636 387.612 145.621 387.801 145.591C387.991 145.553 388.142 145.523 388.256 145.5L388.801 147.909C388.619 147.977 388.366 148.045 388.04 148.114C387.714 148.189 387.301 148.227 386.801 148.227C386.044 148.227 385.301 148.064 384.574 147.739C383.854 147.413 383.256 146.917 382.778 146.25C382.309 145.583 382.074 144.742 382.074 143.727V126.364ZM395.574 137.5V148H392.892V124.727H395.574V133.273H395.801C396.21 132.371 396.824 131.655 397.642 131.125C398.468 130.587 399.566 130.318 400.938 130.318C402.127 130.318 403.169 130.557 404.062 131.034C404.956 131.504 405.65 132.227 406.142 133.205C406.642 134.174 406.892 135.409 406.892 136.909V148H404.21V137.091C404.21 135.705 403.85 134.633 403.131 133.875C402.419 133.11 401.43 132.727 400.165 132.727C399.286 132.727 398.498 132.913 397.801 133.284C397.112 133.655 396.566 134.197 396.165 134.909C395.771 135.621 395.574 136.485 395.574 137.5ZM419.116 148.364C417.435 148.364 415.984 147.992 414.764 147.25C413.552 146.5 412.616 145.455 411.957 144.114C411.306 142.765 410.98 141.197 410.98 139.409C410.98 137.621 411.306 136.045 411.957 134.682C412.616 133.311 413.533 132.242 414.707 131.477C415.889 130.705 417.268 130.318 418.844 130.318C419.753 130.318 420.651 130.47 421.537 130.773C422.423 131.076 423.23 131.568 423.957 132.25C424.685 132.924 425.264 133.818 425.696 134.932C426.128 136.045 426.344 137.417 426.344 139.045V140.182H412.889V137.864H423.616C423.616 136.879 423.42 136 423.026 135.227C422.639 134.455 422.086 133.845 421.366 133.398C420.654 132.951 419.813 132.727 418.844 132.727C417.776 132.727 416.851 132.992 416.071 133.523C415.298 134.045 414.704 134.727 414.287 135.568C413.87 136.409 413.662 137.311 413.662 138.273V139.818C413.662 141.136 413.889 142.254 414.344 143.17C414.806 144.08 415.446 144.773 416.264 145.25C417.082 145.72 418.033 145.955 419.116 145.955C419.821 145.955 420.457 145.856 421.026 145.659C421.601 145.455 422.098 145.152 422.514 144.75C422.931 144.341 423.253 143.833 423.48 143.227L426.071 143.955C425.798 144.833 425.34 145.606 424.696 146.273C424.052 146.932 423.257 147.447 422.31 147.818C421.363 148.182 420.298 148.364 419.116 148.364ZM439.787 148V124.727H453.741V127.227H442.605V135.091H452.696V137.591H442.605V148H439.787ZM463.341 148.409C462.235 148.409 461.231 148.201 460.33 147.784C459.428 147.36 458.712 146.75 458.182 145.955C457.652 145.152 457.386 144.182 457.386 143.045C457.386 142.045 457.583 141.235 457.977 140.614C458.371 139.985 458.898 139.492 459.557 139.136C460.216 138.78 460.943 138.515 461.739 138.341C462.542 138.159 463.348 138.015 464.159 137.909C465.22 137.773 466.08 137.67 466.739 137.602C467.405 137.527 467.89 137.402 468.193 137.227C468.504 137.053 468.659 136.75 468.659 136.318V136.227C468.659 135.106 468.352 134.235 467.739 133.614C467.133 132.992 466.212 132.682 464.977 132.682C463.697 132.682 462.693 132.962 461.966 133.523C461.239 134.083 460.727 134.682 460.432 135.318L457.886 134.409C458.341 133.348 458.947 132.523 459.705 131.932C460.47 131.333 461.303 130.917 462.205 130.682C463.114 130.439 464.008 130.318 464.886 130.318C465.447 130.318 466.091 130.386 466.818 130.523C467.553 130.652 468.261 130.92 468.943 131.33C469.633 131.739 470.205 132.356 470.659 133.182C471.114 134.008 471.341 135.114 471.341 136.5V148H468.659V145.636H468.523C468.341 146.015 468.038 146.42 467.614 146.852C467.189 147.284 466.625 147.652 465.92 147.955C465.216 148.258 464.356 148.409 463.341 148.409ZM463.75 146C464.811 146 465.705 145.792 466.432 145.375C467.167 144.958 467.72 144.42 468.091 143.761C468.47 143.102 468.659 142.409 468.659 141.682V139.227C468.545 139.364 468.295 139.489 467.909 139.602C467.53 139.708 467.091 139.803 466.591 139.886C466.098 139.962 465.617 140.03 465.148 140.091C464.686 140.144 464.311 140.189 464.023 140.227C463.326 140.318 462.674 140.466 462.068 140.67C461.47 140.867 460.985 141.167 460.614 141.568C460.25 141.962 460.068 142.5 460.068 143.182C460.068 144.114 460.413 144.818 461.102 145.295C461.799 145.765 462.682 146 463.75 146ZM488.599 134.455L486.19 135.136C486.039 134.735 485.815 134.345 485.52 133.966C485.232 133.58 484.838 133.261 484.338 133.011C483.838 132.761 483.198 132.636 482.418 132.636C481.349 132.636 480.459 132.883 479.747 133.375C479.043 133.86 478.69 134.477 478.69 135.227C478.69 135.894 478.933 136.42 479.418 136.807C479.902 137.193 480.66 137.515 481.69 137.773L484.281 138.409C485.842 138.788 487.005 139.367 487.77 140.148C488.535 140.92 488.918 141.917 488.918 143.136C488.918 144.136 488.63 145.03 488.054 145.818C487.486 146.606 486.69 147.227 485.668 147.682C484.645 148.136 483.455 148.364 482.099 148.364C480.319 148.364 478.846 147.977 477.679 147.205C476.512 146.432 475.774 145.303 475.463 143.818L478.009 143.182C478.251 144.121 478.709 144.826 479.384 145.295C480.065 145.765 480.955 146 482.054 146C483.304 146 484.296 145.735 485.031 145.205C485.774 144.667 486.145 144.023 486.145 143.273C486.145 142.667 485.933 142.159 485.509 141.75C485.084 141.333 484.433 141.023 483.554 140.818L480.645 140.136C479.046 139.758 477.872 139.17 477.122 138.375C476.38 137.572 476.009 136.568 476.009 135.364C476.009 134.379 476.285 133.508 476.838 132.75C477.399 131.992 478.16 131.398 479.122 130.966C480.092 130.534 481.19 130.318 482.418 130.318C484.145 130.318 485.501 130.697 486.486 131.455C487.478 132.212 488.183 133.212 488.599 134.455ZM500.545 130.545V132.818H491.5V130.545H500.545ZM494.136 126.364H496.818V143C496.818 143.758 496.928 144.326 497.148 144.705C497.375 145.076 497.663 145.326 498.011 145.455C498.367 145.576 498.742 145.636 499.136 145.636C499.432 145.636 499.674 145.621 499.864 145.591C500.053 145.553 500.205 145.523 500.318 145.5L500.864 147.909C500.682 147.977 500.428 148.045 500.102 148.114C499.777 148.189 499.364 148.227 498.864 148.227C498.106 148.227 497.364 148.064 496.636 147.739C495.917 147.413 495.318 146.917 494.841 146.25C494.371 145.583 494.136 144.742 494.136 143.727V126.364ZM513.955 136.773V139.273H503.773V136.773H513.955ZM58.7273 171C58.4773 170.235 58.1477 169.549 57.7386 168.943C57.3371 168.33 56.8561 167.807 56.2955 167.375C55.7424 166.943 55.1136 166.614 54.4091 166.386C53.7045 166.159 52.9318 166.045 52.0909 166.045C50.7121 166.045 49.4583 166.402 48.3295 167.114C47.2008 167.826 46.303 168.875 45.6364 170.261C44.9697 171.648 44.6364 173.348 44.6364 175.364C44.6364 177.379 44.9735 179.08 45.6477 180.466C46.322 181.852 47.2348 182.902 48.3864 183.614C49.5379 184.326 50.8333 184.682 52.2727 184.682C53.6061 184.682 54.7803 184.398 55.7955 183.83C56.8182 183.254 57.6136 182.443 58.1818 181.398C58.7576 180.345 59.0455 179.106 59.0455 177.682L59.9091 177.864H52.9091V175.364H61.7727V177.864C61.7727 179.78 61.3636 181.447 60.5455 182.864C59.7348 184.28 58.6136 185.379 57.1818 186.159C55.7576 186.932 54.1212 187.318 52.2727 187.318C50.2121 187.318 48.4015 186.833 46.8409 185.864C45.2879 184.894 44.0758 183.515 43.2045 181.727C42.3409 179.939 41.9091 177.818 41.9091 175.364C41.9091 173.523 42.1553 171.867 42.6477 170.398C43.1477 168.92 43.8523 167.663 44.7614 166.625C45.6705 165.587 46.7462 164.792 47.9886 164.239C49.2311 163.686 50.5985 163.409 52.0909 163.409C53.3182 163.409 54.4621 163.595 55.5227 163.966C56.5909 164.33 57.5417 164.848 58.375 165.523C59.2159 166.189 59.9167 166.989 60.4773 167.92C61.0379 168.845 61.4242 169.871 61.6364 171H58.7273ZM66.2358 187V169.545H68.8267V172.182H69.0085C69.3267 171.318 69.9025 170.617 70.7358 170.08C71.5691 169.542 72.5085 169.273 73.554 169.273C73.7509 169.273 73.9972 169.277 74.2926 169.284C74.5881 169.292 74.8116 169.303 74.9631 169.318V172.045C74.8722 172.023 74.6638 171.989 74.3381 171.943C74.0199 171.89 73.6828 171.864 73.3267 171.864C72.4782 171.864 71.7206 172.042 71.054 172.398C70.3949 172.746 69.8722 173.231 69.4858 173.852C69.107 174.466 68.9176 175.167 68.9176 175.955V187H66.2358ZM84.7017 187.364C83.1259 187.364 81.7434 186.989 80.554 186.239C79.3722 185.489 78.4479 184.439 77.7812 183.091C77.1222 181.742 76.7926 180.167 76.7926 178.364C76.7926 176.545 77.1222 174.958 77.7812 173.602C78.4479 172.246 79.3722 171.193 80.554 170.443C81.7434 169.693 83.1259 169.318 84.7017 169.318C86.2775 169.318 87.6563 169.693 88.8381 170.443C90.0275 171.193 90.9517 172.246 91.6108 173.602C92.2775 174.958 92.6108 176.545 92.6108 178.364C92.6108 180.167 92.2775 181.742 91.6108 183.091C90.9517 184.439 90.0275 185.489 88.8381 186.239C87.6563 186.989 86.2775 187.364 84.7017 187.364ZM84.7017 184.955C85.8987 184.955 86.8835 184.648 87.6562 184.034C88.429 183.42 89.0009 182.614 89.3722 181.614C89.7434 180.614 89.929 179.53 89.929 178.364C89.929 177.197 89.7434 176.11 89.3722 175.102C89.0009 174.095 88.429 173.28 87.6562 172.659C86.8835 172.038 85.8987 171.727 84.7017 171.727C83.5047 171.727 82.5199 172.038 81.7472 172.659C80.9744 173.28 80.4025 174.095 80.0312 175.102C79.66 176.11 79.4744 177.197 79.4744 178.364C79.4744 179.53 79.66 180.614 80.0312 181.614C80.4025 182.614 80.9744 183.42 81.7472 184.034C82.5199 184.648 83.5047 184.955 84.7017 184.955ZM100.065 187L94.7472 169.545H97.5653L101.338 182.909H101.52L105.247 169.545H108.111L111.793 182.864H111.974L115.747 169.545H118.565L113.247 187H110.611L106.793 173.591H106.52L102.702 187H100.065ZM122.111 187V169.545H124.793V187H122.111ZM123.474 166.636C122.952 166.636 122.501 166.458 122.122 166.102C121.751 165.746 121.565 165.318 121.565 164.818C121.565 164.318 121.751 163.89 122.122 163.534C122.501 163.178 122.952 163 123.474 163C123.997 163 124.444 163.178 124.815 163.534C125.194 163.89 125.384 164.318 125.384 164.818C125.384 165.318 125.194 165.746 124.815 166.102C124.444 166.458 123.997 166.636 123.474 166.636ZM132.386 176.5V187H129.705V169.545H132.295V172.273H132.523C132.932 171.386 133.553 170.674 134.386 170.136C135.22 169.591 136.295 169.318 137.614 169.318C138.795 169.318 139.83 169.561 140.716 170.045C141.602 170.523 142.292 171.25 142.784 172.227C143.277 173.197 143.523 174.424 143.523 175.909V187H140.841V176.091C140.841 174.72 140.485 173.652 139.773 172.886C139.061 172.114 138.083 171.727 136.841 171.727C135.985 171.727 135.22 171.913 134.545 172.284C133.879 172.655 133.352 173.197 132.966 173.909C132.58 174.621 132.386 175.485 132.386 176.5ZM155.469 193.909C154.173 193.909 153.06 193.742 152.128 193.409C151.196 193.083 150.42 192.652 149.798 192.114C149.185 191.583 148.696 191.015 148.332 190.409L150.469 188.909C150.711 189.227 151.018 189.591 151.389 190C151.76 190.417 152.268 190.777 152.912 191.08C153.563 191.39 154.416 191.545 155.469 191.545C156.878 191.545 158.041 191.205 158.957 190.523C159.874 189.841 160.332 188.773 160.332 187.318V183.773H160.105C159.908 184.091 159.628 184.485 159.264 184.955C158.908 185.417 158.393 185.83 157.719 186.193C157.052 186.549 156.151 186.727 155.014 186.727C153.605 186.727 152.34 186.394 151.219 185.727C150.105 185.061 149.223 184.091 148.571 182.818C147.927 181.545 147.605 180 147.605 178.182C147.605 176.394 147.92 174.837 148.548 173.511C149.177 172.178 150.052 171.148 151.173 170.42C152.295 169.686 153.59 169.318 155.06 169.318C156.196 169.318 157.098 169.508 157.764 169.886C158.438 170.258 158.954 170.682 159.31 171.159C159.673 171.629 159.954 172.015 160.151 172.318H160.423V169.545H163.014V187.5C163.014 189 162.673 190.22 161.991 191.159C161.317 192.106 160.408 192.799 159.264 193.239C158.128 193.686 156.863 193.909 155.469 193.909ZM155.378 184.318C156.454 184.318 157.363 184.072 158.105 183.58C158.848 183.087 159.412 182.379 159.798 181.455C160.185 180.53 160.378 179.424 160.378 178.136C160.378 176.879 160.188 175.769 159.81 174.807C159.431 173.845 158.87 173.091 158.128 172.545C157.385 172 156.469 171.727 155.378 171.727C154.241 171.727 153.295 172.015 152.537 172.591C151.787 173.167 151.223 173.939 150.844 174.909C150.473 175.879 150.287 176.955 150.287 178.136C150.287 179.348 150.476 180.42 150.855 181.352C151.241 182.277 151.81 183.004 152.56 183.534C153.317 184.057 154.257 184.318 155.378 184.318ZM178.241 163.727L185.151 183.318H185.423L192.332 163.727H195.287L186.741 187H183.832L175.287 163.727H178.241ZM198.548 187V169.545H201.23V187H198.548ZM199.912 166.636C199.389 166.636 198.938 166.458 198.56 166.102C198.188 165.746 198.003 165.318 198.003 164.818C198.003 164.318 198.188 163.89 198.56 163.534C198.938 163.178 199.389 163 199.912 163C200.435 163 200.882 163.178 201.253 163.534C201.632 163.89 201.821 164.318 201.821 164.818C201.821 165.318 201.632 165.746 201.253 166.102C200.882 166.458 200.435 166.636 199.912 166.636ZM213.46 187.364C211.778 187.364 210.328 186.992 209.108 186.25C207.896 185.5 206.96 184.455 206.301 183.114C205.65 181.765 205.324 180.197 205.324 178.409C205.324 176.621 205.65 175.045 206.301 173.682C206.96 172.311 207.877 171.242 209.051 170.477C210.233 169.705 211.612 169.318 213.188 169.318C214.097 169.318 214.994 169.47 215.881 169.773C216.767 170.076 217.574 170.568 218.301 171.25C219.028 171.924 219.608 172.818 220.04 173.932C220.472 175.045 220.688 176.417 220.688 178.045V179.182H207.233V176.864H217.96C217.96 175.879 217.763 175 217.369 174.227C216.983 173.455 216.43 172.845 215.71 172.398C214.998 171.951 214.157 171.727 213.188 171.727C212.119 171.727 211.195 171.992 210.415 172.523C209.642 173.045 209.047 173.727 208.631 174.568C208.214 175.409 208.006 176.311 208.006 177.273V178.818C208.006 180.136 208.233 181.254 208.688 182.17C209.15 183.08 209.79 183.773 210.608 184.25C211.426 184.72 212.377 184.955 213.46 184.955C214.165 184.955 214.801 184.856 215.369 184.659C215.945 184.455 216.441 184.152 216.858 183.75C217.275 183.341 217.597 182.833 217.824 182.227L220.415 182.955C220.142 183.833 219.684 184.606 219.04 185.273C218.396 185.932 217.6 186.447 216.653 186.818C215.706 187.182 214.642 187.364 213.46 187.364ZM232.358 169.545V171.818H223.312V169.545H232.358ZM225.949 165.364H228.631V182C228.631 182.758 228.741 183.326 228.96 183.705C229.188 184.076 229.475 184.326 229.824 184.455C230.18 184.576 230.555 184.636 230.949 184.636C231.244 184.636 231.487 184.621 231.676 184.591C231.866 184.553 232.017 184.523 232.131 184.5L232.676 186.909C232.494 186.977 232.241 187.045 231.915 187.114C231.589 187.189 231.176 187.227 230.676 187.227C229.919 187.227 229.176 187.064 228.449 186.739C227.729 186.413 227.131 185.917 226.653 185.25C226.184 184.583 225.949 183.742 225.949 182.727V165.364ZM239.074 176.5V187H236.392V169.545H238.983V172.273H239.21C239.619 171.386 240.241 170.674 241.074 170.136C241.907 169.591 242.983 169.318 244.301 169.318C245.483 169.318 246.517 169.561 247.403 170.045C248.29 170.523 248.979 171.25 249.472 172.227C249.964 173.197 250.21 174.424 250.21 175.909V187H247.528V176.091C247.528 174.72 247.172 173.652 246.46 172.886C245.748 172.114 244.771 171.727 243.528 171.727C242.672 171.727 241.907 171.913 241.233 172.284C240.566 172.655 240.04 173.197 239.653 173.909C239.267 174.621 239.074 175.485 239.074 176.5ZM260.247 187.409C259.141 187.409 258.137 187.201 257.236 186.784C256.334 186.36 255.618 185.75 255.088 184.955C254.558 184.152 254.293 183.182 254.293 182.045C254.293 181.045 254.49 180.235 254.884 179.614C255.277 178.985 255.804 178.492 256.463 178.136C257.122 177.78 257.849 177.515 258.645 177.341C259.448 177.159 260.255 177.015 261.065 176.909C262.126 176.773 262.986 176.67 263.645 176.602C264.312 176.527 264.796 176.402 265.099 176.227C265.41 176.053 265.565 175.75 265.565 175.318V175.227C265.565 174.106 265.259 173.235 264.645 172.614C264.039 171.992 263.118 171.682 261.884 171.682C260.603 171.682 259.599 171.962 258.872 172.523C258.145 173.083 257.634 173.682 257.338 174.318L254.793 173.409C255.247 172.348 255.853 171.523 256.611 170.932C257.376 170.333 258.209 169.917 259.111 169.682C260.02 169.439 260.914 169.318 261.793 169.318C262.353 169.318 262.997 169.386 263.724 169.523C264.459 169.652 265.168 169.92 265.849 170.33C266.539 170.739 267.111 171.356 267.565 172.182C268.02 173.008 268.247 174.114 268.247 175.5V187H265.565V184.636H265.429C265.247 185.015 264.944 185.42 264.52 185.852C264.096 186.284 263.531 186.652 262.827 186.955C262.122 187.258 261.262 187.409 260.247 187.409ZM260.656 185C261.717 185 262.611 184.792 263.338 184.375C264.073 183.958 264.626 183.42 264.997 182.761C265.376 182.102 265.565 181.409 265.565 180.682V178.227C265.452 178.364 265.202 178.489 264.815 178.602C264.437 178.708 263.997 178.803 263.497 178.886C263.005 178.962 262.524 179.03 262.054 179.091C261.592 179.144 261.217 179.189 260.929 179.227C260.232 179.318 259.58 179.466 258.974 179.67C258.376 179.867 257.891 180.167 257.52 180.568C257.156 180.962 256.974 181.5 256.974 182.182C256.974 183.114 257.319 183.818 258.009 184.295C258.705 184.765 259.588 185 260.656 185ZM273.142 187V169.545H275.733V172.273H275.96C276.324 171.341 276.911 170.617 277.722 170.102C278.532 169.58 279.506 169.318 280.642 169.318C281.794 169.318 282.752 169.58 283.517 170.102C284.29 170.617 284.892 171.341 285.324 172.273H285.506C285.953 171.371 286.623 170.655 287.517 170.125C288.411 169.587 289.483 169.318 290.733 169.318C292.294 169.318 293.57 169.807 294.562 170.784C295.555 171.754 296.051 173.265 296.051 175.318V187H293.369V175.318C293.369 174.03 293.017 173.11 292.312 172.557C291.608 172.004 290.778 171.727 289.824 171.727C288.597 171.727 287.646 172.098 286.972 172.841C286.297 173.576 285.96 174.508 285.96 175.636V187H283.233V175.045C283.233 174.053 282.911 173.254 282.267 172.648C281.623 172.034 280.794 171.727 279.778 171.727C279.081 171.727 278.43 171.913 277.824 172.284C277.225 172.655 276.741 173.17 276.369 173.83C276.006 174.481 275.824 175.235 275.824 176.091V187H273.142ZM308.273 187.364C306.591 187.364 305.14 186.992 303.92 186.25C302.708 185.5 301.773 184.455 301.114 183.114C300.462 181.765 300.136 180.197 300.136 178.409C300.136 176.621 300.462 175.045 301.114 173.682C301.773 172.311 302.689 171.242 303.864 170.477C305.045 169.705 306.424 169.318 308 169.318C308.909 169.318 309.807 169.47 310.693 169.773C311.58 170.076 312.386 170.568 313.114 171.25C313.841 171.924 314.42 172.818 314.852 173.932C315.284 175.045 315.5 176.417 315.5 178.045V179.182H302.045V176.864H312.773C312.773 175.879 312.576 175 312.182 174.227C311.795 173.455 311.242 172.845 310.523 172.398C309.811 171.951 308.97 171.727 308 171.727C306.932 171.727 306.008 171.992 305.227 172.523C304.455 173.045 303.86 173.727 303.443 174.568C303.027 175.409 302.818 176.311 302.818 177.273V178.818C302.818 180.136 303.045 181.254 303.5 182.17C303.962 183.08 304.602 183.773 305.42 184.25C306.239 184.72 307.189 184.955 308.273 184.955C308.977 184.955 309.614 184.856 310.182 184.659C310.758 184.455 311.254 184.152 311.67 183.75C312.087 183.341 312.409 182.833 312.636 182.227L315.227 182.955C314.955 183.833 314.496 184.606 313.852 185.273C313.208 185.932 312.413 186.447 311.466 186.818C310.519 187.182 309.455 187.364 308.273 187.364ZM331.943 173.455L329.534 174.136C329.383 173.735 329.159 173.345 328.864 172.966C328.576 172.58 328.182 172.261 327.682 172.011C327.182 171.761 326.542 171.636 325.761 171.636C324.693 171.636 323.803 171.883 323.091 172.375C322.386 172.86 322.034 173.477 322.034 174.227C322.034 174.894 322.277 175.42 322.761 175.807C323.246 176.193 324.004 176.515 325.034 176.773L327.625 177.409C329.186 177.788 330.348 178.367 331.114 179.148C331.879 179.92 332.261 180.917 332.261 182.136C332.261 183.136 331.973 184.03 331.398 184.818C330.83 185.606 330.034 186.227 329.011 186.682C327.989 187.136 326.799 187.364 325.443 187.364C323.663 187.364 322.189 186.977 321.023 186.205C319.856 185.432 319.117 184.303 318.807 182.818L321.352 182.182C321.595 183.121 322.053 183.826 322.727 184.295C323.409 184.765 324.299 185 325.398 185C326.648 185 327.64 184.735 328.375 184.205C329.117 183.667 329.489 183.023 329.489 182.273C329.489 181.667 329.277 181.159 328.852 180.75C328.428 180.333 327.777 180.023 326.898 179.818L323.989 179.136C322.39 178.758 321.216 178.17 320.466 177.375C319.723 176.572 319.352 175.568 319.352 174.364C319.352 173.379 319.629 172.508 320.182 171.75C320.742 170.992 321.504 170.398 322.466 169.966C323.436 169.534 324.534 169.318 325.761 169.318C327.489 169.318 328.845 169.697 329.83 170.455C330.822 171.212 331.527 172.212 331.943 173.455ZM343.616 187.364C341.935 187.364 340.484 186.992 339.264 186.25C338.052 185.5 337.116 184.455 336.457 183.114C335.806 181.765 335.48 180.197 335.48 178.409C335.48 176.621 335.806 175.045 336.457 173.682C337.116 172.311 338.033 171.242 339.207 170.477C340.389 169.705 341.768 169.318 343.344 169.318C344.253 169.318 345.151 169.47 346.037 169.773C346.923 170.076 347.73 170.568 348.457 171.25C349.185 171.924 349.764 172.818 350.196 173.932C350.628 175.045 350.844 176.417 350.844 178.045V179.182H337.389V176.864H348.116C348.116 175.879 347.92 175 347.526 174.227C347.139 173.455 346.586 172.845 345.866 172.398C345.154 171.951 344.313 171.727 343.344 171.727C342.276 171.727 341.351 171.992 340.571 172.523C339.798 173.045 339.204 173.727 338.787 174.568C338.37 175.409 338.162 176.311 338.162 177.273V178.818C338.162 180.136 338.389 181.254 338.844 182.17C339.306 183.08 339.946 183.773 340.764 184.25C341.582 184.72 342.533 184.955 343.616 184.955C344.321 184.955 344.957 184.856 345.526 184.659C346.101 184.455 346.598 184.152 347.014 183.75C347.431 183.341 347.753 182.833 347.98 182.227L350.571 182.955C350.298 183.833 349.84 184.606 349.196 185.273C348.552 185.932 347.757 186.447 346.81 186.818C345.863 187.182 344.798 187.364 343.616 187.364ZM364.287 187V163.727H372.151C373.976 163.727 375.469 164.057 376.628 164.716C377.795 165.367 378.658 166.25 379.219 167.364C379.779 168.477 380.06 169.72 380.06 171.091C380.06 172.462 379.779 173.708 379.219 174.83C378.666 175.951 377.81 176.845 376.651 177.511C375.491 178.17 374.007 178.5 372.196 178.5H366.56V176H372.105C373.355 176 374.359 175.784 375.116 175.352C375.874 174.92 376.423 174.337 376.764 173.602C377.113 172.86 377.287 172.023 377.287 171.091C377.287 170.159 377.113 169.326 376.764 168.591C376.423 167.856 375.87 167.28 375.105 166.864C374.34 166.439 373.325 166.227 372.06 166.227H367.105V187H364.287ZM386.918 176.5V187H384.236V163.727H386.918V172.273H387.145C387.554 171.371 388.168 170.655 388.986 170.125C389.812 169.587 390.91 169.318 392.281 169.318C393.471 169.318 394.512 169.557 395.406 170.034C396.3 170.504 396.993 171.227 397.486 172.205C397.986 173.174 398.236 174.409 398.236 175.909V187H395.554V176.091C395.554 174.705 395.194 173.633 394.474 172.875C393.762 172.11 392.774 171.727 391.509 171.727C390.63 171.727 389.842 171.913 389.145 172.284C388.455 172.655 387.91 173.197 387.509 173.909C387.115 174.621 386.918 175.485 386.918 176.5ZM408.278 187.409C407.172 187.409 406.169 187.201 405.267 186.784C404.366 186.36 403.65 185.75 403.119 184.955C402.589 184.152 402.324 183.182 402.324 182.045C402.324 181.045 402.521 180.235 402.915 179.614C403.309 178.985 403.835 178.492 404.494 178.136C405.153 177.78 405.881 177.515 406.676 177.341C407.479 177.159 408.286 177.015 409.097 176.909C410.157 176.773 411.017 176.67 411.676 176.602C412.343 176.527 412.828 176.402 413.131 176.227C413.441 176.053 413.597 175.75 413.597 175.318V175.227C413.597 174.106 413.29 173.235 412.676 172.614C412.07 171.992 411.15 171.682 409.915 171.682C408.634 171.682 407.631 171.962 406.903 172.523C406.176 173.083 405.665 173.682 405.369 174.318L402.824 173.409C403.278 172.348 403.884 171.523 404.642 170.932C405.407 170.333 406.241 169.917 407.142 169.682C408.051 169.439 408.945 169.318 409.824 169.318C410.384 169.318 411.028 169.386 411.756 169.523C412.491 169.652 413.199 169.92 413.881 170.33C414.57 170.739 415.142 171.356 415.597 172.182C416.051 173.008 416.278 174.114 416.278 175.5V187H413.597V184.636H413.46C413.278 185.015 412.975 185.42 412.551 185.852C412.127 186.284 411.563 186.652 410.858 186.955C410.153 187.258 409.294 187.409 408.278 187.409ZM408.688 185C409.748 185 410.642 184.792 411.369 184.375C412.104 183.958 412.657 183.42 413.028 182.761C413.407 182.102 413.597 181.409 413.597 180.682V178.227C413.483 178.364 413.233 178.489 412.847 178.602C412.468 178.708 412.028 178.803 411.528 178.886C411.036 178.962 410.555 179.03 410.085 179.091C409.623 179.144 409.248 179.189 408.96 179.227C408.263 179.318 407.612 179.466 407.006 179.67C406.407 179.867 405.922 180.167 405.551 180.568C405.188 180.962 405.006 181.5 405.006 182.182C405.006 183.114 405.35 183.818 406.04 184.295C406.737 184.765 407.619 185 408.688 185ZM421.173 187V169.545H423.764V172.182H423.946C424.264 171.318 424.84 170.617 425.673 170.08C426.507 169.542 427.446 169.273 428.491 169.273C428.688 169.273 428.935 169.277 429.23 169.284C429.526 169.292 429.749 169.303 429.901 169.318V172.045C429.81 172.023 429.601 171.989 429.276 171.943C428.957 171.89 428.62 171.864 428.264 171.864C427.416 171.864 426.658 172.042 425.991 172.398C425.332 172.746 424.81 173.231 424.423 173.852C424.045 174.466 423.855 175.167 423.855 175.955V187H421.173ZM433.08 187V169.545H435.67V172.273H435.898C436.261 171.341 436.848 170.617 437.659 170.102C438.47 169.58 439.443 169.318 440.58 169.318C441.731 169.318 442.689 169.58 443.455 170.102C444.227 170.617 444.83 171.341 445.261 172.273H445.443C445.89 171.371 446.561 170.655 447.455 170.125C448.348 169.587 449.42 169.318 450.67 169.318C452.231 169.318 453.508 169.807 454.5 170.784C455.492 171.754 455.989 173.265 455.989 175.318V187H453.307V175.318C453.307 174.03 452.955 173.11 452.25 172.557C451.545 172.004 450.716 171.727 449.761 171.727C448.534 171.727 447.583 172.098 446.909 172.841C446.235 173.576 445.898 174.508 445.898 175.636V187H443.17V175.045C443.17 174.053 442.848 173.254 442.205 172.648C441.561 172.034 440.731 171.727 439.716 171.727C439.019 171.727 438.367 171.913 437.761 172.284C437.163 172.655 436.678 173.17 436.307 173.83C435.943 174.481 435.761 175.235 435.761 176.091V187H433.08ZM466.028 187.409C464.922 187.409 463.919 187.201 463.017 186.784C462.116 186.36 461.4 185.75 460.869 184.955C460.339 184.152 460.074 183.182 460.074 182.045C460.074 181.045 460.271 180.235 460.665 179.614C461.059 178.985 461.585 178.492 462.244 178.136C462.903 177.78 463.631 177.515 464.426 177.341C465.229 177.159 466.036 177.015 466.847 176.909C467.907 176.773 468.767 176.67 469.426 176.602C470.093 176.527 470.578 176.402 470.881 176.227C471.191 176.053 471.347 175.75 471.347 175.318V175.227C471.347 174.106 471.04 173.235 470.426 172.614C469.82 171.992 468.9 171.682 467.665 171.682C466.384 171.682 465.381 171.962 464.653 172.523C463.926 173.083 463.415 173.682 463.119 174.318L460.574 173.409C461.028 172.348 461.634 171.523 462.392 170.932C463.157 170.333 463.991 169.917 464.892 169.682C465.801 169.439 466.695 169.318 467.574 169.318C468.134 169.318 468.778 169.386 469.506 169.523C470.241 169.652 470.949 169.92 471.631 170.33C472.32 170.739 472.892 171.356 473.347 172.182C473.801 173.008 474.028 174.114 474.028 175.5V187H471.347V184.636H471.21C471.028 185.015 470.725 185.42 470.301 185.852C469.877 186.284 469.313 186.652 468.608 186.955C467.903 187.258 467.044 187.409 466.028 187.409ZM466.438 185C467.498 185 468.392 184.792 469.119 184.375C469.854 183.958 470.407 183.42 470.778 182.761C471.157 182.102 471.347 181.409 471.347 180.682V178.227C471.233 178.364 470.983 178.489 470.597 178.602C470.218 178.708 469.778 178.803 469.278 178.886C468.786 178.962 468.305 179.03 467.835 179.091C467.373 179.144 466.998 179.189 466.71 179.227C466.013 179.318 465.362 179.466 464.756 179.67C464.157 179.867 463.672 180.167 463.301 180.568C462.938 180.962 462.756 181.5 462.756 182.182C462.756 183.114 463.1 183.818 463.79 184.295C464.487 184.765 465.369 185 466.438 185ZM486.014 187.364C484.378 187.364 482.969 186.977 481.787 186.205C480.605 185.432 479.696 184.367 479.06 183.011C478.423 181.655 478.105 180.106 478.105 178.364C478.105 176.591 478.431 175.027 479.082 173.67C479.741 172.307 480.658 171.242 481.832 170.477C483.014 169.705 484.393 169.318 485.969 169.318C487.196 169.318 488.302 169.545 489.287 170C490.272 170.455 491.079 171.091 491.707 171.909C492.336 172.727 492.726 173.682 492.878 174.773H490.196C489.991 173.977 489.537 173.273 488.832 172.659C488.135 172.038 487.196 171.727 486.014 171.727C484.969 171.727 484.052 172 483.264 172.545C482.484 173.083 481.874 173.845 481.435 174.83C481.003 175.807 480.787 176.955 480.787 178.273C480.787 179.621 480.999 180.795 481.423 181.795C481.855 182.795 482.461 183.572 483.241 184.125C484.029 184.678 484.954 184.955 486.014 184.955C486.711 184.955 487.344 184.833 487.912 184.591C488.48 184.348 488.961 184 489.355 183.545C489.749 183.091 490.029 182.545 490.196 181.909H492.878C492.726 182.939 492.351 183.867 491.753 184.693C491.162 185.511 490.378 186.163 489.401 186.648C488.431 187.125 487.302 187.364 486.014 187.364ZM504.116 187.364C502.435 187.364 500.984 186.992 499.764 186.25C498.552 185.5 497.616 184.455 496.957 183.114C496.306 181.765 495.98 180.197 495.98 178.409C495.98 176.621 496.306 175.045 496.957 173.682C497.616 172.311 498.533 171.242 499.707 170.477C500.889 169.705 502.268 169.318 503.844 169.318C504.753 169.318 505.651 169.47 506.537 169.773C507.423 170.076 508.23 170.568 508.957 171.25C509.685 171.924 510.264 172.818 510.696 173.932C511.128 175.045 511.344 176.417 511.344 178.045V179.182H497.889V176.864H508.616C508.616 175.879 508.42 175 508.026 174.227C507.639 173.455 507.086 172.845 506.366 172.398C505.654 171.951 504.813 171.727 503.844 171.727C502.776 171.727 501.851 171.992 501.071 172.523C500.298 173.045 499.704 173.727 499.287 174.568C498.87 175.409 498.662 176.311 498.662 177.273V178.818C498.662 180.136 498.889 181.254 499.344 182.17C499.806 183.08 500.446 183.773 501.264 184.25C502.082 184.72 503.033 184.955 504.116 184.955C504.821 184.955 505.457 184.856 506.026 184.659C506.601 184.455 507.098 184.152 507.514 183.75C507.931 183.341 508.253 182.833 508.48 182.227L511.071 182.955C510.798 183.833 510.34 184.606 509.696 185.273C509.052 185.932 508.257 186.447 507.31 186.818C506.363 187.182 505.298 187.364 504.116 187.364ZM526.423 179.864V169.545H529.105V187H526.423V184.045H526.241C525.832 184.932 525.196 185.686 524.332 186.307C523.469 186.92 522.378 187.227 521.06 187.227C519.969 187.227 518.999 186.989 518.151 186.511C517.302 186.027 516.635 185.299 516.151 184.33C515.666 183.352 515.423 182.121 515.423 180.636V169.545H518.105V180.455C518.105 181.727 518.461 182.742 519.173 183.5C519.893 184.258 520.81 184.636 521.923 184.636C522.59 184.636 523.268 184.466 523.957 184.125C524.654 183.784 525.238 183.261 525.707 182.557C526.185 181.852 526.423 180.955 526.423 179.864ZM541.608 169.545V171.818H532.562V169.545H541.608ZM535.199 165.364H537.881V182C537.881 182.758 537.991 183.326 538.21 183.705C538.438 184.076 538.725 184.326 539.074 184.455C539.43 184.576 539.805 184.636 540.199 184.636C540.494 184.636 540.737 184.621 540.926 184.591C541.116 184.553 541.267 184.523 541.381 184.5L541.926 186.909C541.744 186.977 541.491 187.045 541.165 187.114C540.839 187.189 540.426 187.227 539.926 187.227C539.169 187.227 538.426 187.064 537.699 186.739C536.979 186.413 536.381 185.917 535.903 185.25C535.434 184.583 535.199 183.742 535.199 182.727V165.364ZM545.642 187V169.545H548.324V187H545.642ZM547.006 166.636C546.483 166.636 546.032 166.458 545.653 166.102C545.282 165.746 545.097 165.318 545.097 164.818C545.097 164.318 545.282 163.89 545.653 163.534C546.032 163.178 546.483 163 547.006 163C547.528 163 547.975 163.178 548.347 163.534C548.725 163.89 548.915 164.318 548.915 164.818C548.915 165.318 548.725 165.746 548.347 166.102C547.975 166.458 547.528 166.636 547.006 166.636ZM560.327 187.364C558.69 187.364 557.281 186.977 556.099 186.205C554.918 185.432 554.009 184.367 553.372 183.011C552.736 181.655 552.418 180.106 552.418 178.364C552.418 176.591 552.743 175.027 553.395 173.67C554.054 172.307 554.971 171.242 556.145 170.477C557.327 169.705 558.705 169.318 560.281 169.318C561.509 169.318 562.615 169.545 563.599 170C564.584 170.455 565.391 171.091 566.02 171.909C566.649 172.727 567.039 173.682 567.19 174.773H564.509C564.304 173.977 563.849 173.273 563.145 172.659C562.448 172.038 561.509 171.727 560.327 171.727C559.281 171.727 558.365 172 557.577 172.545C556.796 173.083 556.187 173.845 555.747 174.83C555.315 175.807 555.099 176.955 555.099 178.273C555.099 179.621 555.312 180.795 555.736 181.795C556.168 182.795 556.774 183.572 557.554 184.125C558.342 184.678 559.266 184.955 560.327 184.955C561.024 184.955 561.656 184.833 562.224 184.591C562.793 184.348 563.274 184 563.668 183.545C564.062 183.091 564.342 182.545 564.509 181.909H567.19C567.039 182.939 566.664 183.867 566.065 184.693C565.474 185.511 564.69 186.163 563.713 186.648C562.743 187.125 561.615 187.364 560.327 187.364ZM576.247 187.409C575.141 187.409 574.137 187.201 573.236 186.784C572.334 186.36 571.618 185.75 571.088 184.955C570.558 184.152 570.293 183.182 570.293 182.045C570.293 181.045 570.49 180.235 570.884 179.614C571.277 178.985 571.804 178.492 572.463 178.136C573.122 177.78 573.849 177.515 574.645 177.341C575.448 177.159 576.255 177.015 577.065 176.909C578.126 176.773 578.986 176.67 579.645 176.602C580.312 176.527 580.796 176.402 581.099 176.227C581.41 176.053 581.565 175.75 581.565 175.318V175.227C581.565 174.106 581.259 173.235 580.645 172.614C580.039 171.992 579.118 171.682 577.884 171.682C576.603 171.682 575.599 171.962 574.872 172.523C574.145 173.083 573.634 173.682 573.338 174.318L570.793 173.409C571.247 172.348 571.853 171.523 572.611 170.932C573.376 170.333 574.209 169.917 575.111 169.682C576.02 169.439 576.914 169.318 577.793 169.318C578.353 169.318 578.997 169.386 579.724 169.523C580.459 169.652 581.168 169.92 581.849 170.33C582.539 170.739 583.111 171.356 583.565 172.182C584.02 173.008 584.247 174.114 584.247 175.5V187H581.565V184.636H581.429C581.247 185.015 580.944 185.42 580.52 185.852C580.096 186.284 579.531 186.652 578.827 186.955C578.122 187.258 577.262 187.409 576.247 187.409ZM576.656 185C577.717 185 578.611 184.792 579.338 184.375C580.073 183.958 580.626 183.42 580.997 182.761C581.376 182.102 581.565 181.409 581.565 180.682V178.227C581.452 178.364 581.202 178.489 580.815 178.602C580.437 178.708 579.997 178.803 579.497 178.886C579.005 178.962 578.524 179.03 578.054 179.091C577.592 179.144 577.217 179.189 576.929 179.227C576.232 179.318 575.58 179.466 574.974 179.67C574.376 179.867 573.891 180.167 573.52 180.568C573.156 180.962 572.974 181.5 572.974 182.182C572.974 183.114 573.319 183.818 574.009 184.295C574.705 184.765 575.588 185 576.656 185ZM591.824 163.727V187H589.142V163.727H591.824ZM55.5455 208.545C55.4091 207.394 54.8561 206.5 53.8864 205.864C52.9167 205.227 51.7273 204.909 50.3182 204.909C49.2879 204.909 48.3864 205.076 47.6136 205.409C46.8485 205.742 46.25 206.201 45.8182 206.784C45.3939 207.367 45.1818 208.03 45.1818 208.773C45.1818 209.394 45.3295 209.928 45.625 210.375C45.928 210.814 46.3144 211.182 46.7841 211.477C47.2538 211.765 47.7462 212.004 48.2614 212.193C48.7765 212.375 49.25 212.523 49.6818 212.636L52.0455 213.273C52.6515 213.432 53.3258 213.652 54.0682 213.932C54.8182 214.212 55.5341 214.595 56.2159 215.08C56.9053 215.557 57.4735 216.17 57.9205 216.92C58.3674 217.67 58.5909 218.591 58.5909 219.682C58.5909 220.939 58.2614 222.076 57.6023 223.091C56.9508 224.106 55.9962 224.913 54.7386 225.511C53.4886 226.11 51.9697 226.409 50.1818 226.409C48.5152 226.409 47.072 226.14 45.8523 225.602C44.6402 225.064 43.6856 224.314 42.9886 223.352C42.2992 222.39 41.9091 221.273 41.8182 220H44.7273C44.803 220.879 45.0985 221.606 45.6136 222.182C46.1364 222.75 46.7955 223.174 47.5909 223.455C48.3939 223.727 49.2576 223.864 50.1818 223.864C51.2576 223.864 52.2235 223.689 53.0795 223.341C53.9356 222.985 54.6136 222.492 55.1136 221.864C55.6136 221.227 55.8636 220.485 55.8636 219.636C55.8636 218.864 55.6477 218.235 55.2159 217.75C54.7841 217.265 54.2159 216.871 53.5114 216.568C52.8068 216.265 52.0455 216 51.2273 215.773L48.3636 214.955C46.5455 214.432 45.1061 213.686 44.0455 212.716C42.9848 211.746 42.4545 210.477 42.4545 208.909C42.4545 207.606 42.8068 206.47 43.5114 205.5C44.2235 204.523 45.178 203.765 46.375 203.227C47.5795 202.682 48.9242 202.409 50.4091 202.409C51.9091 202.409 53.2424 202.678 54.4091 203.216C55.5758 203.746 56.5 204.473 57.1818 205.398C57.8712 206.322 58.2348 207.371 58.2727 208.545H55.5455ZM70.179 226.364C68.4972 226.364 67.0464 225.992 65.8267 225.25C64.6146 224.5 63.679 223.455 63.0199 222.114C62.3684 220.765 62.0426 219.197 62.0426 217.409C62.0426 215.621 62.3684 214.045 63.0199 212.682C63.679 211.311 64.5956 210.242 65.7699 209.477C66.9517 208.705 68.3305 208.318 69.9062 208.318C70.8153 208.318 71.7131 208.47 72.5994 208.773C73.4858 209.076 74.2926 209.568 75.0199 210.25C75.7472 210.924 76.3267 211.818 76.7585 212.932C77.1903 214.045 77.4062 215.417 77.4062 217.045V218.182H63.9517V215.864H74.679C74.679 214.879 74.482 214 74.0881 213.227C73.7017 212.455 73.1487 211.845 72.429 211.398C71.7169 210.951 70.8759 210.727 69.9062 210.727C68.8381 210.727 67.9138 210.992 67.1335 211.523C66.3608 212.045 65.7661 212.727 65.3494 213.568C64.9328 214.409 64.7244 215.311 64.7244 216.273V217.818C64.7244 219.136 64.9517 220.254 65.4062 221.17C65.8684 222.08 66.5085 222.773 67.3267 223.25C68.1449 223.72 69.0956 223.955 70.179 223.955C70.8835 223.955 71.5199 223.856 72.0881 223.659C72.6638 223.455 73.16 223.152 73.5767 222.75C73.9934 222.341 74.3153 221.833 74.5426 221.227L77.1335 221.955C76.8608 222.833 76.4025 223.606 75.7585 224.273C75.1146 224.932 74.3191 225.447 73.3722 225.818C72.4252 226.182 71.3608 226.364 70.179 226.364ZM88.5767 226.364C86.9403 226.364 85.5313 225.977 84.3494 225.205C83.1676 224.432 82.2585 223.367 81.6222 222.011C80.9858 220.655 80.6676 219.106 80.6676 217.364C80.6676 215.591 80.9934 214.027 81.6449 212.67C82.304 211.307 83.2206 210.242 84.3949 209.477C85.5767 208.705 86.9555 208.318 88.5312 208.318C89.7585 208.318 90.8646 208.545 91.8494 209C92.8343 209.455 93.6411 210.091 94.2699 210.909C94.8987 211.727 95.2888 212.682 95.4403 213.773H92.7585C92.554 212.977 92.0994 212.273 91.3949 211.659C90.6979 211.038 89.7585 210.727 88.5767 210.727C87.5313 210.727 86.6146 211 85.8267 211.545C85.0464 212.083 84.4366 212.845 83.9972 213.83C83.5653 214.807 83.3494 215.955 83.3494 217.273C83.3494 218.621 83.5616 219.795 83.9858 220.795C84.4176 221.795 85.0237 222.572 85.804 223.125C86.5919 223.678 87.5161 223.955 88.5767 223.955C89.2737 223.955 89.9062 223.833 90.4744 223.591C91.0426 223.348 91.5237 223 91.9176 222.545C92.3116 222.091 92.5919 221.545 92.7585 220.909H95.4403C95.2888 221.939 94.9138 222.867 94.3153 223.693C93.7244 224.511 92.9403 225.163 91.9631 225.648C90.9934 226.125 89.8646 226.364 88.5767 226.364ZM106.952 208.545V210.818H97.9062V208.545H106.952ZM100.543 204.364H103.224V221C103.224 221.758 103.334 222.326 103.554 222.705C103.781 223.076 104.069 223.326 104.418 223.455C104.774 223.576 105.149 223.636 105.543 223.636C105.838 223.636 106.08 223.621 106.27 223.591C106.459 223.553 106.611 223.523 106.724 223.5L107.27 225.909C107.088 225.977 106.834 226.045 106.509 226.114C106.183 226.189 105.77 226.227 105.27 226.227C104.512 226.227 103.77 226.064 103.043 225.739C102.323 225.413 101.724 224.917 101.247 224.25C100.777 223.583 100.543 222.742 100.543 221.727V204.364ZM117.889 226.364C116.313 226.364 114.931 225.989 113.741 225.239C112.56 224.489 111.635 223.439 110.969 222.091C110.31 220.742 109.98 219.167 109.98 217.364C109.98 215.545 110.31 213.958 110.969 212.602C111.635 211.246 112.56 210.193 113.741 209.443C114.931 208.693 116.313 208.318 117.889 208.318C119.465 208.318 120.844 208.693 122.026 209.443C123.215 210.193 124.139 211.246 124.798 212.602C125.465 213.958 125.798 215.545 125.798 217.364C125.798 219.167 125.465 220.742 124.798 222.091C124.139 223.439 123.215 224.489 122.026 225.239C120.844 225.989 119.465 226.364 117.889 226.364ZM117.889 223.955C119.086 223.955 120.071 223.648 120.844 223.034C121.616 222.42 122.188 221.614 122.56 220.614C122.931 219.614 123.116 218.53 123.116 217.364C123.116 216.197 122.931 215.11 122.56 214.102C122.188 213.095 121.616 212.28 120.844 211.659C120.071 211.038 119.086 210.727 117.889 210.727C116.692 210.727 115.707 211.038 114.935 211.659C114.162 212.28 113.59 213.095 113.219 214.102C112.848 215.11 112.662 216.197 112.662 217.364C112.662 218.53 112.848 219.614 113.219 220.614C113.59 221.614 114.162 222.42 114.935 223.034C115.707 223.648 116.692 223.955 117.889 223.955ZM129.892 226V208.545H132.483V211.182H132.665C132.983 210.318 133.559 209.617 134.392 209.08C135.225 208.542 136.165 208.273 137.21 208.273C137.407 208.273 137.653 208.277 137.949 208.284C138.244 208.292 138.468 208.303 138.619 208.318V211.045C138.528 211.023 138.32 210.989 137.994 210.943C137.676 210.89 137.339 210.864 136.983 210.864C136.134 210.864 135.377 211.042 134.71 211.398C134.051 211.746 133.528 212.231 133.142 212.852C132.763 213.466 132.574 214.167 132.574 214.955V226H129.892Z" fill="#24408E"/>
</svg>
