<svg width="100%" viewBox="0 0 351 54" fill="none" xmlns="http://www.w3.org/2000/svg">
<mask id="path-1-inside-1_158_2783" fill="white">
<path d="M0 0H351V54H0V0Z"/>
</mask>
<path d="M0 0H351V54H0V0Z" fill="#24CBFF" fill-opacity="0.2"/>
<path d="M351 51H0V57H351V51Z" fill="#24CBFF" mask="url(#path-1-inside-1_158_2783)"/>
<path d="M145.078 25.0447C144.954 24.657 144.788 24.3097 144.579 24.0028C144.375 23.6918 144.13 23.4276 143.844 23.2102C143.559 22.9886 143.233 22.8203 142.866 22.7053C142.504 22.5902 142.106 22.5327 141.671 22.5327C140.934 22.5327 140.269 22.7223 139.677 23.1016C139.084 23.4808 138.616 24.0369 138.27 24.7699C137.929 25.4986 137.759 26.3913 137.759 27.4482C137.759 28.5092 137.932 29.4062 138.277 30.1392C138.622 30.8722 139.095 31.4283 139.696 31.8075C140.297 32.1868 140.981 32.3764 141.748 32.3764C142.459 32.3764 143.079 32.2315 143.608 31.9418C144.14 31.652 144.552 31.2429 144.841 30.7145C145.135 30.1818 145.282 29.5554 145.282 28.8352L145.794 28.9311H142.048V27.3011H147.194V28.7905C147.194 29.8899 146.959 30.8445 146.491 31.6541C146.026 32.4595 145.383 33.0817 144.56 33.5206C143.742 33.9595 142.804 34.179 141.748 34.179C140.563 34.179 139.523 33.9062 138.628 33.3608C137.738 32.8153 137.043 32.0419 136.544 31.0405C136.046 30.0348 135.797 28.8416 135.797 27.4609C135.797 26.4169 135.941 25.4794 136.231 24.6484C136.521 23.8175 136.928 23.1122 137.452 22.5327C137.981 21.9489 138.601 21.5036 139.312 21.1967C140.028 20.8857 140.81 20.7301 141.658 20.7301C142.366 20.7301 143.024 20.8345 143.633 21.0433C144.247 21.2521 144.792 21.5483 145.27 21.9318C145.751 22.3153 146.15 22.7713 146.465 23.2997C146.78 23.8239 146.993 24.4055 147.104 25.0447H145.078ZM149.701 34V20.9091H154.367C155.381 20.9091 156.223 21.0838 156.892 21.4332C157.565 21.7827 158.068 22.2663 158.4 22.8842C158.733 23.4979 158.899 24.2074 158.899 25.0128C158.899 25.8139 158.731 26.5192 158.394 27.1286C158.062 27.7337 157.559 28.2045 156.886 28.5412C156.217 28.8778 155.375 29.0462 154.361 29.0462H150.826V27.3459H154.182C154.821 27.3459 155.341 27.2543 155.741 27.071C156.146 26.8878 156.442 26.6214 156.63 26.272C156.817 25.9226 156.911 25.5028 156.911 25.0128C156.911 24.5185 156.815 24.0902 156.623 23.728C156.436 23.3658 156.14 23.0888 155.735 22.897C155.334 22.701 154.808 22.603 154.156 22.603H151.676V34H149.701ZM156.163 28.0938L159.398 34H157.148L153.977 28.0938H156.163ZM172.674 27.4545C172.674 28.8523 172.418 30.054 171.907 31.0597C171.396 32.0611 170.695 32.8324 169.804 33.3736C168.918 33.9105 167.91 34.179 166.78 34.179C165.647 34.179 164.635 33.9105 163.744 33.3736C162.858 32.8324 162.159 32.0589 161.648 31.0533C161.136 30.0476 160.881 28.848 160.881 27.4545C160.881 26.0568 161.136 24.8572 161.648 23.8558C162.159 22.8501 162.858 22.0788 163.744 21.5419C164.635 21.0007 165.647 20.7301 166.78 20.7301C167.91 20.7301 168.918 21.0007 169.804 21.5419C170.695 22.0788 171.396 22.8501 171.907 23.8558C172.418 24.8572 172.674 26.0568 172.674 27.4545ZM170.718 27.4545C170.718 26.3892 170.545 25.4922 170.2 24.7635C169.859 24.0305 169.391 23.4766 168.794 23.1016C168.202 22.7223 167.53 22.5327 166.78 22.5327C166.026 22.5327 165.353 22.7223 164.761 23.1016C164.168 23.4766 163.699 24.0305 163.354 24.7635C163.013 25.4922 162.843 26.3892 162.843 27.4545C162.843 28.5199 163.013 29.419 163.354 30.152C163.699 30.8807 164.168 31.4347 164.761 31.8139C165.353 32.1889 166.026 32.3764 166.78 32.3764C167.53 32.3764 168.202 32.1889 168.794 31.8139C169.391 31.4347 169.859 30.8807 170.2 30.152C170.545 29.419 170.718 28.5199 170.718 27.4545ZM177.541 34L173.911 20.9091H175.988L178.539 31.0469H178.66L181.313 20.9091H183.371L186.024 31.0533H186.145L188.689 20.9091H190.773L187.136 34H185.148L182.393 24.1946H182.291L179.536 34H177.541ZM191.928 22.6094V20.9091H202.06V22.6094H197.975V34H196.006V22.6094H191.928ZM204.299 34V20.9091H206.274V26.598H212.8V20.9091H214.782V34H212.8V28.2919H206.274V34H204.299Z" fill="#24408E"/>
</svg>
