<svg width="100%" viewBox="0 0 351 22" fill="none" xmlns="http://www.w3.org/2000/svg">
<path d="M8.532 18.252C6.996 18.252 5.646 17.958 4.482 17.37C3.318 16.782 2.412 15.966 1.764 14.922C1.116 13.866 0.792 12.642 0.792 11.25C0.792 9.858 1.116 8.64 1.764 7.596C2.412 6.54 3.318 5.718 4.482 5.13C5.646 4.542 6.996 4.248 8.532 4.248C10.068 4.248 11.418 4.542 12.582 5.13C13.746 5.718 14.652 6.54 15.3 7.596C15.948 8.64 16.272 9.858 16.272 11.25C16.272 12.642 15.948 13.866 15.3 14.922C14.652 15.966 13.746 16.782 12.582 17.37C11.418 17.958 10.068 18.252 8.532 18.252ZM8.532 16.128C9.624 16.128 10.566 15.93 11.358 15.534C12.15 15.138 12.762 14.574 13.194 13.842C13.638 13.11 13.86 12.246 13.86 11.25C13.86 10.254 13.638 9.39 13.194 8.658C12.762 7.926 12.15 7.362 11.358 6.966C10.566 6.57 9.624 6.372 8.532 6.372C7.452 6.372 6.51 6.57 5.706 6.966C4.914 7.362 4.296 7.926 3.852 8.658C3.42 9.39 3.204 10.254 3.204 11.25C3.204 12.246 3.42 13.11 3.852 13.842C4.296 14.574 4.914 15.138 5.706 15.534C6.51 15.93 7.452 16.128 8.532 16.128ZM24.8981 16.992H23.7821L29.5961 4.5H32.1341L25.6181 18H22.9721L16.4561 4.5H19.0121L24.8981 16.992ZM44.5499 10.26V12.24H35.1179V10.26H44.5499ZM36.6839 11.25L35.7299 17.28L34.5959 15.948H45.0719V18H33.2999L34.3799 11.25L33.2999 4.5H44.9819V6.552H34.5959L35.7299 5.22L36.6839 11.25ZM49.2051 10.584H54.6951C55.4871 10.584 56.1111 10.404 56.5671 10.044C57.0351 9.684 57.2691 9.192 57.2691 8.568C57.2691 7.932 57.0351 7.44 56.5671 7.092C56.1111 6.732 55.4871 6.552 54.6951 6.552H48.8631L49.9251 5.22V18H47.5491V4.5H54.9111C55.8591 4.5 56.6871 4.674 57.3951 5.022C58.1151 5.358 58.6731 5.832 59.0691 6.444C59.4771 7.044 59.6811 7.752 59.6811 8.568C59.6811 9.36 59.4771 10.062 59.0691 10.674C58.6731 11.274 58.1151 11.748 57.3951 12.096C56.6871 12.432 55.8591 12.6 54.9111 12.6H49.2051V10.584ZM51.8691 11.682H54.6591L60.0231 18H57.1791L51.8691 11.682ZM63.6225 14.904V12.942H73.0545V14.904H63.6225ZM69.8865 4.5L76.3665 18H73.8285L67.9425 5.4H68.8605L62.9745 18H60.4365L66.9165 4.5H69.8865ZM80.388 4.5V16.938L79.326 15.912H89.496V18H78.012V4.5H80.388ZM93.6771 4.5V16.938L92.6151 15.912H102.785V18H91.3011V4.5H93.6771ZM115.849 4.5C116.857 4.5 117.727 4.68 118.459 5.04C119.203 5.4 119.773 5.904 120.169 6.552C120.577 7.188 120.781 7.926 120.781 8.766C120.781 9.606 120.577 10.35 120.169 10.998C119.773 11.634 119.203 12.132 118.459 12.492C117.727 12.852 116.857 13.032 115.849 13.032H109.783V10.98H115.759C116.575 10.98 117.211 10.782 117.667 10.386C118.135 9.99 118.369 9.45 118.369 8.766C118.369 8.082 118.135 7.542 117.667 7.146C117.211 6.75 116.575 6.552 115.759 6.552H110.017L111.079 5.364V18H108.703V4.5H115.849ZM133.513 10.26V12.24H124.081V10.26H133.513ZM125.647 11.25L124.693 17.28L123.559 15.948H134.035V18H122.263L123.343 11.25L122.263 4.5H133.945V6.552H123.559L124.693 5.22L125.647 11.25ZM138.168 10.584H143.658C144.45 10.584 145.074 10.404 145.53 10.044C145.998 9.684 146.232 9.192 146.232 8.568C146.232 7.932 145.998 7.44 145.53 7.092C145.074 6.732 144.45 6.552 143.658 6.552H137.826L138.888 5.22V18H136.512V4.5H143.874C144.822 4.5 145.65 4.674 146.358 5.022C147.078 5.358 147.636 5.832 148.032 6.444C148.44 7.044 148.644 7.752 148.644 8.568C148.644 9.36 148.44 10.062 148.032 10.674C147.636 11.274 147.078 11.748 146.358 12.096C145.65 12.432 144.822 12.6 143.874 12.6H138.168V10.584ZM140.832 11.682H143.622L148.986 18H146.142L140.832 11.682ZM152.254 10.404H161.956V12.492H152.254V10.404ZM162.244 4.5V6.588H152.182L153.478 5.238V18H151.102V4.5H162.244ZM171.288 18.252C169.752 18.252 168.402 17.958 167.238 17.37C166.074 16.782 165.168 15.966 164.52 14.922C163.872 13.866 163.548 12.642 163.548 11.25C163.548 9.858 163.872 8.64 164.52 7.596C165.168 6.54 166.074 5.718 167.238 5.13C168.402 4.542 169.752 4.248 171.288 4.248C172.824 4.248 174.174 4.542 175.338 5.13C176.502 5.718 177.408 6.54 178.056 7.596C178.704 8.64 179.028 9.858 179.028 11.25C179.028 12.642 178.704 13.866 178.056 14.922C177.408 15.966 176.502 16.782 175.338 17.37C174.174 17.958 172.824 18.252 171.288 18.252ZM171.288 16.128C172.38 16.128 173.322 15.93 174.114 15.534C174.906 15.138 175.518 14.574 175.95 13.842C176.394 13.11 176.616 12.246 176.616 11.25C176.616 10.254 176.394 9.39 175.95 8.658C175.518 7.926 174.906 7.362 174.114 6.966C173.322 6.57 172.38 6.372 171.288 6.372C170.208 6.372 169.266 6.57 168.462 6.966C167.67 7.362 167.052 7.926 166.608 8.658C166.176 9.39 165.96 10.254 165.96 11.25C165.96 12.246 166.176 13.11 166.608 13.842C167.052 14.574 167.67 15.138 168.462 15.534C169.266 15.93 170.208 16.128 171.288 16.128ZM182.992 10.584H188.482C189.274 10.584 189.898 10.404 190.354 10.044C190.822 9.684 191.056 9.192 191.056 8.568C191.056 7.932 190.822 7.44 190.354 7.092C189.898 6.732 189.274 6.552 188.482 6.552H182.65L183.712 5.22V18H181.336V4.5H188.698C189.646 4.5 190.474 4.674 191.182 5.022C191.902 5.358 192.46 5.832 192.856 6.444C193.264 7.044 193.468 7.752 193.468 8.568C193.468 9.36 193.264 10.062 192.856 10.674C192.46 11.274 191.902 11.748 191.182 12.096C190.474 12.432 189.646 12.6 188.698 12.6H182.992V10.584ZM185.656 11.682H188.446L193.81 18H190.966L185.656 11.682ZM214.088 4.5V18H211.82V5.22L212.558 5.256L206.276 18H203.738L197.456 5.274L198.194 5.238V18H195.926V4.5H199.562L205.61 16.974H204.422L210.452 4.5H214.088ZM218.908 14.904V12.942H228.34V14.904H218.908ZM225.172 4.5L231.652 18H229.114L223.228 5.4H224.146L218.26 18H215.722L222.202 4.5H225.172ZM245.807 16.56L244.835 16.668V4.5H247.139V18H244.115L234.647 5.832L235.601 5.724V18H233.297V4.5H236.393L245.807 16.56ZM264.393 12.654C264.273 13.758 263.883 14.736 263.223 15.588C262.575 16.428 261.723 17.082 260.667 17.55C259.611 18.018 258.405 18.252 257.049 18.252C255.537 18.252 254.211 17.958 253.071 17.37C251.931 16.782 251.043 15.966 250.407 14.922C249.771 13.866 249.453 12.642 249.453 11.25C249.453 9.858 249.771 8.64 250.407 7.596C251.043 6.54 251.931 5.718 253.071 5.13C254.211 4.542 255.537 4.248 257.049 4.248C258.405 4.248 259.611 4.482 260.667 4.95C261.723 5.418 262.575 6.072 263.223 6.912C263.883 7.752 264.273 8.73 264.393 9.846H261.999C261.867 9.126 261.579 8.508 261.135 7.992C260.703 7.476 260.139 7.08 259.443 6.804C258.747 6.516 257.943 6.372 257.031 6.372C255.975 6.372 255.057 6.57 254.277 6.966C253.509 7.362 252.915 7.926 252.495 8.658C252.075 9.39 251.865 10.254 251.865 11.25C251.865 12.246 252.075 13.11 252.495 13.842C252.915 14.574 253.509 15.138 254.277 15.534C255.057 15.93 255.975 16.128 257.031 16.128C257.943 16.128 258.747 15.99 259.443 15.714C260.139 15.438 260.703 15.042 261.135 14.526C261.579 13.998 261.867 13.374 261.999 12.654H264.393ZM277.355 10.26V12.24H267.923V10.26H277.355ZM269.489 11.25L268.535 17.28L267.401 15.948H277.877V18H266.105L267.185 11.25L266.105 4.5H277.787V6.552H267.401L268.535 5.22L269.489 11.25Z" fill="#24408E"/>
</svg>
