<svg width="100%" viewBox="0 0 422 209" fill="none" xmlns="http://www.w3.org/2000/svg">
<rect x="0.833496" y="0.5" width="420.333" height="208" rx="19.5" fill="#00A93C" fill-opacity="0.2"/>
<rect x="0.833496" y="0.5" width="420.333" height="208" rx="19.5" stroke="#00A93C"/>
<path d="M60.2994 28.9091V42H58.7653L51.6318 31.7216H51.504V42H49.9187V28.9091H51.4528L58.6119 39.2131H58.7397V28.9091H60.2994ZM67.3834 42.2045C66.4374 42.2045 65.6213 41.9957 64.9352 41.5781C64.2534 41.1562 63.7271 40.5682 63.3564 39.8139C62.9899 39.0554 62.8067 38.1733 62.8067 37.1676C62.8067 36.1619 62.9899 35.2756 63.3564 34.5085C63.7271 33.7372 64.2428 33.1364 64.9033 32.706C65.568 32.2713 66.3436 32.054 67.23 32.054C67.7413 32.054 68.2463 32.1392 68.7449 32.3097C69.2435 32.4801 69.6973 32.7571 70.1064 33.1406C70.5155 33.5199 70.8415 34.0227 71.0844 34.6491C71.3273 35.2756 71.4487 36.0469 71.4487 36.9631V37.6023H63.8805V36.2983H69.9146C69.9146 35.7443 69.8038 35.25 69.5823 34.8153C69.3649 34.3807 69.0538 34.0376 68.649 33.7862C68.2484 33.5348 67.7754 33.4091 67.23 33.4091C66.6291 33.4091 66.1092 33.5582 65.6703 33.8565C65.2357 34.1506 64.9011 34.5341 64.6668 35.0071C64.4324 35.4801 64.3152 35.9872 64.3152 36.5284V37.3977C64.3152 38.1392 64.443 38.7678 64.6987 39.2834C64.9587 39.7947 65.3188 40.1847 65.779 40.4531C66.2392 40.7173 66.774 40.8494 67.3834 40.8494C67.7797 40.8494 68.1377 40.794 68.4573 40.6832C68.7811 40.5682 69.0602 40.3977 69.2946 40.1719C69.529 39.9418 69.7101 39.6562 69.8379 39.3153L71.2953 39.7244C71.1419 40.2188 70.8841 40.6534 70.5219 41.0284C70.1597 41.3991 69.7122 41.6889 69.1796 41.8977C68.6469 42.1023 68.0482 42.2045 67.3834 42.2045ZM78.0134 32.1818V33.4602H72.9253V32.1818H78.0134ZM74.4082 29.8295H75.9168V39.1875C75.9168 39.6136 75.9786 39.9332 76.1021 40.1463C76.23 40.3551 76.3919 40.4957 76.5879 40.5682C76.7882 40.6364 76.9992 40.6705 77.2207 40.6705C77.3869 40.6705 77.5233 40.6619 77.6298 40.6449C77.7364 40.6236 77.8216 40.6065 77.8855 40.5938L78.1923 41.9489C78.0901 41.9872 77.9473 42.0256 77.7641 42.0639C77.5808 42.1065 77.3486 42.1278 77.0673 42.1278C76.6412 42.1278 76.2236 42.0362 75.8145 41.853C75.4097 41.6697 75.073 41.3906 74.8046 41.0156C74.5403 40.6406 74.4082 40.1676 74.4082 39.5966V29.8295ZM85.345 42V32.1818H86.8024V33.6648H86.9047C87.0837 33.179 87.4075 32.7848 87.8763 32.4822C88.345 32.1797 88.8734 32.0284 89.4615 32.0284C89.5723 32.0284 89.7108 32.0305 89.877 32.0348C90.0432 32.0391 90.1689 32.0455 90.2541 32.054V33.5881C90.203 33.5753 90.0858 33.5561 89.9026 33.5305C89.7236 33.5007 89.534 33.4858 89.3337 33.4858C88.8564 33.4858 88.4303 33.5859 88.0553 33.7862C87.6845 33.9822 87.3905 34.255 87.1732 34.6044C86.9601 34.9496 86.8536 35.3437 86.8536 35.7869V42H85.345ZM95.86 42.2045C94.9139 42.2045 94.0979 41.9957 93.4118 41.5781C92.73 41.1562 92.2037 40.5682 91.833 39.8139C91.4665 39.0554 91.2832 38.1733 91.2832 37.1676C91.2832 36.1619 91.4665 35.2756 91.833 34.5085C92.2037 33.7372 92.7193 33.1364 93.3798 32.706C94.0446 32.2713 94.8202 32.054 95.7065 32.054C96.2179 32.054 96.7229 32.1392 97.2215 32.3097C97.72 32.4801 98.1739 32.7571 98.583 33.1406C98.9921 33.5199 99.318 34.0227 99.5609 34.6491C99.8038 35.2756 99.9253 36.0469 99.9253 36.9631V37.6023H92.3571V36.2983H98.3912C98.3912 35.7443 98.2804 35.25 98.0588 34.8153C97.8415 34.3807 97.5304 34.0376 97.1256 33.7862C96.725 33.5348 96.252 33.4091 95.7065 33.4091C95.1057 33.4091 94.5858 33.5582 94.1469 33.8565C93.7122 34.1506 93.3777 34.5341 93.1433 35.0071C92.909 35.4801 92.7918 35.9872 92.7918 36.5284V37.3977C92.7918 38.1392 92.9196 38.7678 93.1753 39.2834C93.4352 39.7947 93.7953 40.1847 94.2555 40.4531C94.7158 40.7173 95.2506 40.8494 95.86 40.8494C96.2563 40.8494 96.6142 40.794 96.9338 40.6832C97.2577 40.5682 97.5368 40.3977 97.7712 40.1719C98.0055 39.9418 98.1867 39.6562 98.3145 39.3153L99.7719 39.7244C99.6185 40.2188 99.3607 40.6534 98.9984 41.0284C98.6362 41.3991 98.1888 41.6889 97.6561 41.8977C97.1234 42.1023 96.5247 42.2045 95.86 42.2045ZM109.95 32.1818L106.319 42H104.785L101.154 32.1818H102.791L105.501 40.0057H105.603L108.313 32.1818H109.95ZM115.706 42.2045C114.76 42.2045 113.944 41.9957 113.258 41.5781C112.576 41.1562 112.049 40.5682 111.679 39.8139C111.312 39.0554 111.129 38.1733 111.129 37.1676C111.129 36.1619 111.312 35.2756 111.679 34.5085C112.049 33.7372 112.565 33.1364 113.226 32.706C113.89 32.2713 114.666 32.054 115.552 32.054C116.064 32.054 116.569 32.1392 117.067 32.3097C117.566 32.4801 118.02 32.7571 118.429 33.1406C118.838 33.5199 119.164 34.0227 119.407 34.6491C119.65 35.2756 119.771 36.0469 119.771 36.9631V37.6023H112.203V36.2983H118.237C118.237 35.7443 118.126 35.25 117.905 34.8153C117.687 34.3807 117.376 34.0376 116.971 33.7862C116.571 33.5348 116.098 33.4091 115.552 33.4091C114.951 33.4091 114.432 33.5582 113.993 33.8565C113.558 34.1506 113.223 34.5341 112.989 35.0071C112.755 35.4801 112.637 35.9872 112.637 36.5284V37.3977C112.637 38.1392 112.765 38.7678 113.021 39.2834C113.281 39.7947 113.641 40.1847 114.101 40.4531C114.561 40.7173 115.096 40.8494 115.706 40.8494C116.102 40.8494 116.46 40.794 116.78 40.6832C117.103 40.5682 117.383 40.3977 117.617 40.1719C117.851 39.9418 118.032 39.6562 118.16 39.3153L119.618 39.7244C119.464 40.2188 119.206 40.6534 118.844 41.0284C118.482 41.3991 118.034 41.6889 117.502 41.8977C116.969 42.1023 116.37 42.2045 115.706 42.2045ZM123.574 36.0938V42H122.066V32.1818H123.523V33.7159H123.651C123.881 33.2173 124.231 32.8168 124.699 32.5142C125.168 32.2074 125.773 32.054 126.515 32.054C127.179 32.054 127.761 32.1903 128.26 32.4631C128.758 32.7315 129.146 33.1406 129.423 33.6903C129.7 34.2358 129.838 34.9261 129.838 35.7614V42H128.33V35.8636C128.33 35.0923 128.13 34.4915 127.729 34.0611C127.329 33.6264 126.779 33.4091 126.08 33.4091C125.598 33.4091 125.168 33.5135 124.789 33.7223C124.414 33.9311 124.118 34.2358 123.9 34.6364C123.683 35.0369 123.574 35.5227 123.574 36.0938ZM138.783 37.9858V32.1818H140.291V42H138.783V40.3381H138.68C138.45 40.8366 138.092 41.2607 137.606 41.6101C137.121 41.9553 136.507 42.1278 135.765 42.1278C135.152 42.1278 134.606 41.9936 134.129 41.7251C133.652 41.4524 133.277 41.0433 133.004 40.4979C132.731 39.9482 132.595 39.2557 132.595 38.4205V32.1818H134.104V38.3182C134.104 39.0341 134.304 39.6051 134.704 40.0312C135.109 40.4574 135.625 40.6705 136.251 40.6705C136.626 40.6705 137.008 40.5746 137.395 40.3828C137.788 40.1911 138.116 39.897 138.38 39.5007C138.648 39.1044 138.783 38.5994 138.783 37.9858ZM147.17 42.2045C146.224 42.2045 145.408 41.9957 144.722 41.5781C144.041 41.1562 143.514 40.5682 143.144 39.8139C142.777 39.0554 142.594 38.1733 142.594 37.1676C142.594 36.1619 142.777 35.2756 143.144 34.5085C143.514 33.7372 144.03 33.1364 144.69 32.706C145.355 32.2713 146.131 32.054 147.017 32.054C147.528 32.054 148.033 32.1392 148.532 32.3097C149.031 32.4801 149.484 32.7571 149.894 33.1406C150.303 33.5199 150.629 34.0227 150.871 34.6491C151.114 35.2756 151.236 36.0469 151.236 36.9631V37.6023H143.668V36.2983H149.702C149.702 35.7443 149.591 35.25 149.369 34.8153C149.152 34.3807 148.841 34.0376 148.436 33.7862C148.036 33.5348 147.563 33.4091 147.017 33.4091C146.416 33.4091 145.896 33.5582 145.457 33.8565C145.023 34.1506 144.688 34.5341 144.454 35.0071C144.22 35.4801 144.102 35.9872 144.102 36.5284V37.3977C144.102 38.1392 144.23 38.7678 144.486 39.2834C144.746 39.7947 145.106 40.1847 145.566 40.4531C146.026 40.7173 146.561 40.8494 147.17 40.8494C147.567 40.8494 147.925 40.794 148.244 40.6832C148.568 40.5682 148.847 40.3977 149.082 40.1719C149.316 39.9418 149.497 39.6562 149.625 39.3153L151.082 39.7244C150.929 40.2188 150.671 40.6534 150.309 41.0284C149.947 41.3991 149.499 41.6889 148.967 41.8977C148.434 42.1023 147.835 42.2045 147.17 42.2045ZM158.593 42V32.1818H160.05V33.6648H160.153C160.332 33.179 160.656 32.7848 161.124 32.4822C161.593 32.1797 162.121 32.0284 162.71 32.0284C162.82 32.0284 162.959 32.0305 163.125 32.0348C163.291 32.0391 163.417 32.0455 163.502 32.054V33.5881C163.451 33.5753 163.334 33.5561 163.151 33.5305C162.972 33.5007 162.782 33.4858 162.582 33.4858C162.104 33.4858 161.678 33.5859 161.303 33.7862C160.933 33.9822 160.639 34.255 160.421 34.6044C160.208 34.9496 160.102 35.3437 160.102 35.7869V42H158.593ZM169.108 42.2045C168.162 42.2045 167.346 41.9957 166.66 41.5781C165.978 41.1562 165.452 40.5682 165.081 39.8139C164.715 39.0554 164.531 38.1733 164.531 37.1676C164.531 36.1619 164.715 35.2756 165.081 34.5085C165.452 33.7372 165.967 33.1364 166.628 32.706C167.293 32.2713 168.068 32.054 168.955 32.054C169.466 32.054 169.971 32.1392 170.47 32.3097C170.968 32.4801 171.422 32.7571 171.831 33.1406C172.24 33.5199 172.566 34.0227 172.809 34.6491C173.052 35.2756 173.173 36.0469 173.173 36.9631V37.6023H165.605V36.2983H171.639C171.639 35.7443 171.528 35.25 171.307 34.8153C171.09 34.3807 170.778 34.0376 170.374 33.7862C169.973 33.5348 169.5 33.4091 168.955 33.4091C168.354 33.4091 167.834 33.5582 167.395 33.8565C166.96 34.1506 166.626 34.5341 166.391 35.0071C166.157 35.4801 166.04 35.9872 166.04 36.5284V37.3977C166.04 38.1392 166.168 38.7678 166.423 39.2834C166.683 39.7947 167.043 40.1847 167.504 40.4531C167.964 40.7173 168.499 40.8494 169.108 40.8494C169.504 40.8494 169.862 40.794 170.182 40.6832C170.506 40.5682 170.785 40.3977 171.019 40.1719C171.254 39.9418 171.435 39.6562 171.563 39.3153L173.02 39.7244C172.867 40.2188 172.609 40.6534 172.246 41.0284C171.884 41.3991 171.437 41.6889 170.904 41.8977C170.371 42.1023 169.773 42.2045 169.108 42.2045ZM178.357 42.2301C177.735 42.2301 177.17 42.1129 176.663 41.8786C176.156 41.6399 175.754 41.2969 175.455 40.8494C175.157 40.3977 175.008 39.8523 175.008 39.2131C175.008 38.6506 175.119 38.1946 175.34 37.8452C175.562 37.4915 175.858 37.2145 176.229 37.0142C176.599 36.8139 177.009 36.6648 177.456 36.5668C177.908 36.4645 178.362 36.3835 178.818 36.3239C179.414 36.2472 179.898 36.1896 180.269 36.1513C180.644 36.1087 180.916 36.0384 181.087 35.9403C181.261 35.8423 181.349 35.6719 181.349 35.429V35.3778C181.349 34.7472 181.176 34.2571 180.831 33.9077C180.49 33.5582 179.972 33.3835 179.278 33.3835C178.558 33.3835 177.993 33.5412 177.584 33.8565C177.175 34.1719 176.887 34.5085 176.721 34.8665L175.289 34.3551C175.545 33.7585 175.886 33.294 176.312 32.9616C176.742 32.625 177.211 32.3906 177.718 32.2585C178.229 32.1222 178.732 32.054 179.227 32.054C179.542 32.054 179.904 32.0923 180.313 32.169C180.727 32.2415 181.125 32.3928 181.509 32.6229C181.896 32.853 182.218 33.2003 182.474 33.6648C182.729 34.1293 182.857 34.7514 182.857 35.5312V42H181.349V40.6705H181.272C181.17 40.8835 180.999 41.1115 180.761 41.3544C180.522 41.5973 180.205 41.804 179.808 41.9744C179.412 42.1449 178.928 42.2301 178.357 42.2301ZM178.587 40.875C179.184 40.875 179.687 40.7578 180.096 40.5234C180.509 40.2891 180.82 39.9865 181.029 39.6158C181.242 39.245 181.349 38.8551 181.349 38.446V37.0653C181.285 37.142 181.144 37.2124 180.927 37.2763C180.714 37.3359 180.467 37.3892 180.185 37.4361C179.908 37.4787 179.638 37.517 179.374 37.5511C179.114 37.581 178.903 37.6065 178.741 37.6278C178.349 37.679 177.982 37.7621 177.641 37.8771C177.305 37.9879 177.032 38.1562 176.823 38.3821C176.619 38.6037 176.516 38.9062 176.516 39.2898C176.516 39.8139 176.71 40.2102 177.098 40.4787C177.49 40.7429 177.987 40.875 178.587 40.875ZM189.599 42.2045C188.679 42.2045 187.886 41.9872 187.221 41.5526C186.557 41.1179 186.045 40.5192 185.687 39.7564C185.329 38.9936 185.15 38.1222 185.15 37.142C185.15 36.1449 185.334 35.2649 185.7 34.5021C186.071 33.7351 186.587 33.1364 187.247 32.706C187.912 32.2713 188.687 32.054 189.574 32.054C190.264 32.054 190.886 32.1818 191.44 32.4375C191.994 32.6932 192.448 33.0511 192.802 33.5114C193.155 33.9716 193.375 34.5085 193.46 35.1222H191.952C191.837 34.6747 191.581 34.2784 191.185 33.9332C190.792 33.5838 190.264 33.4091 189.599 33.4091C189.011 33.4091 188.496 33.5625 188.052 33.8693C187.614 34.1719 187.27 34.6001 187.023 35.1541C186.78 35.7038 186.659 36.3494 186.659 37.0909C186.659 37.8494 186.778 38.5099 187.017 39.0724C187.26 39.6349 187.601 40.0717 188.04 40.3828C188.483 40.6939 189.003 40.8494 189.599 40.8494C189.991 40.8494 190.347 40.7812 190.667 40.6449C190.986 40.5085 191.257 40.3125 191.479 40.0568C191.7 39.8011 191.858 39.4943 191.952 39.1364H193.46C193.375 39.7159 193.164 40.2379 192.827 40.7024C192.495 41.1626 192.054 41.5291 191.504 41.8018C190.959 42.0703 190.324 42.2045 189.599 42.2045ZM197.174 36.0938V42H195.665V28.9091H197.174V33.7159H197.302C197.532 33.2088 197.877 32.8061 198.337 32.5078C198.802 32.2053 199.42 32.054 200.191 32.054C200.86 32.054 201.446 32.1882 201.949 32.4567C202.452 32.7209 202.841 33.1278 203.118 33.6776C203.4 34.223 203.54 34.9176 203.54 35.7614V42H202.032V35.8636C202.032 35.0838 201.829 34.4808 201.425 34.0547C201.024 33.6243 200.468 33.4091 199.756 33.4091C199.262 33.4091 198.819 33.5135 198.427 33.7223C198.039 33.9311 197.732 34.2358 197.506 34.6364C197.285 35.0369 197.174 35.5227 197.174 36.0938ZM210.417 42.2045C209.471 42.2045 208.655 41.9957 207.968 41.5781C207.287 41.1562 206.76 40.5682 206.39 39.8139C206.023 39.0554 205.84 38.1733 205.84 37.1676C205.84 36.1619 206.023 35.2756 206.39 34.5085C206.76 33.7372 207.276 33.1364 207.936 32.706C208.601 32.2713 209.377 32.054 210.263 32.054C210.775 32.054 211.28 32.1392 211.778 32.3097C212.277 32.4801 212.731 32.7571 213.14 33.1406C213.549 33.5199 213.875 34.0227 214.118 34.6491C214.36 35.2756 214.482 36.0469 214.482 36.9631V37.6023H206.914V36.2983H212.948C212.948 35.7443 212.837 35.25 212.615 34.8153C212.398 34.3807 212.087 34.0376 211.682 33.7862C211.282 33.5348 210.809 33.4091 210.263 33.4091C209.662 33.4091 209.142 33.5582 208.704 33.8565C208.269 34.1506 207.934 34.5341 207.7 35.0071C207.466 35.4801 207.348 35.9872 207.348 36.5284V37.3977C207.348 38.1392 207.476 38.7678 207.732 39.2834C207.992 39.7947 208.352 40.1847 208.812 40.4531C209.272 40.7173 209.807 40.8494 210.417 40.8494C210.813 40.8494 211.171 40.794 211.49 40.6832C211.814 40.5682 212.093 40.3977 212.328 40.1719C212.562 39.9418 212.743 39.6562 212.871 39.3153L214.329 39.7244C214.175 40.2188 213.917 40.6534 213.555 41.0284C213.193 41.3991 212.745 41.6889 212.213 41.8977C211.68 42.1023 211.081 42.2045 210.417 42.2045ZM220.484 42.2045C219.666 42.2045 218.944 41.9979 218.317 41.5845C217.691 41.1669 217.201 40.5788 216.847 39.8203C216.493 39.0575 216.316 38.1562 216.316 37.1165C216.316 36.0852 216.493 35.1903 216.847 34.4318C217.201 33.6733 217.693 33.0874 218.324 32.674C218.954 32.2607 219.683 32.054 220.51 32.054C221.149 32.054 221.654 32.1605 222.025 32.3736C222.4 32.5824 222.685 32.821 222.881 33.0895C223.081 33.3537 223.237 33.571 223.348 33.7415H223.476V28.9091H224.984V42H223.527V40.4915H223.348C223.237 40.6705 223.079 40.8963 222.875 41.169C222.67 41.4375 222.378 41.6783 221.999 41.8913C221.62 42.1001 221.115 42.2045 220.484 42.2045ZM220.689 40.8494C221.294 40.8494 221.805 40.6918 222.223 40.3764C222.64 40.0568 222.958 39.6158 223.175 39.0533C223.392 38.4865 223.501 37.8324 223.501 37.0909C223.501 36.358 223.395 35.7166 223.182 35.1669C222.968 34.6129 222.653 34.1825 222.235 33.8757C221.818 33.5646 221.302 33.4091 220.689 33.4091C220.049 33.4091 219.517 33.5732 219.091 33.9013C218.669 34.2251 218.351 34.6662 218.138 35.2244C217.929 35.7784 217.825 36.4006 217.825 37.0909C217.825 37.7898 217.932 38.4247 218.145 38.9957C218.362 39.5625 218.682 40.0142 219.103 40.3509C219.53 40.6832 220.058 40.8494 220.689 40.8494Z" fill="#24408E"/>
<path d="M64.8935 72V102H58.1735V74.24L61.5335 77.28L48.7735 79.52V74.24L59.8935 72H64.8935ZM75.2982 102.36C74.5782 102.36 73.9115 102.187 73.2982 101.84C72.7115 101.493 72.2449 101.027 71.8982 100.44C71.5515 99.8267 71.3782 99.16 71.3782 98.44C71.3782 97.6933 71.5515 97.0267 71.8982 96.44C72.2449 95.8267 72.7115 95.3467 73.2982 95C73.9115 94.6533 74.5782 94.48 75.2982 94.48C76.0449 94.48 76.7115 94.6533 77.2982 95C77.9115 95.3467 78.3915 95.8267 78.7382 96.44C79.0849 97.0267 79.2582 97.6933 79.2582 98.44C79.2582 99.16 79.0849 99.8267 78.7382 100.44C78.3915 101.027 77.9115 101.493 77.2982 101.84C76.7115 102.187 76.0449 102.36 75.2982 102.36ZM97.8451 102.6C95.3917 102.6 93.1917 102.227 91.2451 101.48C89.3251 100.733 87.7651 99.7067 86.5651 98.4C85.3651 97.0933 84.6184 95.6267 84.3251 94H90.7651C91.1651 94.96 91.8984 95.7733 92.9651 96.44C94.0317 97.08 95.6051 97.4 97.6851 97.4C99.8984 97.4 101.698 97 103.085 96.2C104.472 95.3733 105.498 94.2 106.165 92.68C106.832 91.16 107.165 89.3467 107.165 87.24C107.165 84.9467 106.792 83.0133 106.045 81.44C105.325 79.8667 104.232 78.68 102.765 77.88C101.325 77.0533 99.5517 76.64 97.4451 76.64C95.9251 76.64 94.6451 76.8533 93.6051 77.28C92.5651 77.7067 91.7784 78.2933 91.2451 79.04C90.7117 79.76 90.4451 80.6 90.4451 81.56C90.4451 82.4667 90.6851 83.28 91.1651 84C91.6451 84.6933 92.3784 85.24 93.3651 85.64C94.3784 86.04 95.6184 86.24 97.0851 86.24C99.1117 86.24 101.005 85.7733 102.765 84.84C104.525 83.9067 106.045 82.6267 107.325 81L109.885 82.76C109.058 84.4133 107.952 85.8933 106.565 87.2C105.205 88.5067 103.605 89.5467 101.765 90.32C99.9251 91.0667 97.8584 91.44 95.5651 91.44C93.1384 91.44 91.0317 91.04 89.2451 90.24C87.4584 89.44 86.0717 88.32 85.0851 86.88C84.1251 85.4133 83.6451 83.7067 83.6451 81.76C83.6451 79.7333 84.1917 77.9467 85.2851 76.4C86.4051 74.8267 88.0051 73.6 90.0851 72.72C92.1651 71.84 94.6451 71.4 97.5251 71.4C101.072 71.4 104.045 72.0667 106.445 73.4C108.845 74.7067 110.645 76.5333 111.845 78.88C113.072 81.2267 113.672 83.9333 113.645 87C113.672 90.04 113.072 92.7333 111.845 95.08C110.645 97.4267 108.872 99.2667 106.525 100.6C104.178 101.933 101.285 102.6 97.8451 102.6ZM133.078 102.6C130.625 102.6 128.425 102.227 126.478 101.48C124.558 100.733 122.998 99.7067 121.798 98.4C120.598 97.0933 119.851 95.6267 119.558 94H125.998C126.398 94.96 127.131 95.7733 128.198 96.44C129.265 97.08 130.838 97.4 132.918 97.4C135.131 97.4 136.931 97 138.318 96.2C139.705 95.3733 140.731 94.2 141.398 92.68C142.065 91.16 142.398 89.3467 142.398 87.24C142.398 84.9467 142.025 83.0133 141.278 81.44C140.558 79.8667 139.465 78.68 137.998 77.88C136.558 77.0533 134.785 76.64 132.678 76.64C131.158 76.64 129.878 76.8533 128.838 77.28C127.798 77.7067 127.011 78.2933 126.478 79.04C125.945 79.76 125.678 80.6 125.678 81.56C125.678 82.4667 125.918 83.28 126.398 84C126.878 84.6933 127.611 85.24 128.598 85.64C129.611 86.04 130.851 86.24 132.318 86.24C134.345 86.24 136.238 85.7733 137.998 84.84C139.758 83.9067 141.278 82.6267 142.558 81L145.118 82.76C144.291 84.4133 143.185 85.8933 141.798 87.2C140.438 88.5067 138.838 89.5467 136.998 90.32C135.158 91.0667 133.091 91.44 130.798 91.44C128.371 91.44 126.265 91.04 124.478 90.24C122.691 89.44 121.305 88.32 120.318 86.88C119.358 85.4133 118.878 83.7067 118.878 81.76C118.878 79.7333 119.425 77.9467 120.518 76.4C121.638 74.8267 123.238 73.6 125.318 72.72C127.398 71.84 129.878 71.4 132.758 71.4C136.305 71.4 139.278 72.0667 141.678 73.4C144.078 74.7067 145.878 76.5333 147.078 78.88C148.305 81.2267 148.905 83.9333 148.878 87C148.905 90.04 148.305 92.7333 147.078 95.08C145.878 97.4267 144.105 99.2667 141.758 100.6C139.411 101.933 136.518 102.6 133.078 102.6ZM179.271 72V102H172.551V74.92H174.871L158.471 93.08L158.391 90.84H184.391V96.04H153.311V91.24L170.671 72H179.271Z" fill="#24408E"/>
<path d="M203.625 83V69.9091H208.636C209.582 69.9091 210.368 70.0582 210.995 70.3565C211.625 70.6506 212.096 71.0533 212.407 71.5646C212.723 72.076 212.88 72.6555 212.88 73.3033C212.88 73.8359 212.778 74.2919 212.574 74.6712C212.369 75.0462 212.094 75.3509 211.749 75.5852C211.404 75.8196 211.018 75.9879 210.592 76.0902V76.218C211.057 76.2436 211.502 76.3864 211.928 76.6463C212.358 76.902 212.71 77.2642 212.983 77.733C213.255 78.2017 213.392 78.7685 213.392 79.4332C213.392 80.1108 213.228 80.7202 212.9 81.2614C212.571 81.7983 212.077 82.2223 211.417 82.5334C210.756 82.8445 209.925 83 208.924 83H203.625ZM205.996 81.0185H208.547C209.407 81.0185 210.027 80.8544 210.407 80.5263C210.79 80.1939 210.982 79.7678 210.982 79.2479C210.982 78.8601 210.886 78.5107 210.694 78.1996C210.503 77.8842 210.23 77.6371 209.876 77.4581C209.522 77.2749 209.101 77.1832 208.61 77.1832H205.996V81.0185ZM205.996 75.4766H208.342C208.751 75.4766 209.12 75.402 209.448 75.2528C209.776 75.0994 210.034 74.8842 210.221 74.6072C210.413 74.326 210.509 73.9936 210.509 73.6101C210.509 73.103 210.33 72.6854 209.972 72.3572C209.618 72.0291 209.092 71.8651 208.393 71.8651H205.996V75.4766ZM217.826 69.9091V83H215.455V69.9091H217.826ZM220.394 83V69.9091H222.766V81.0121H228.531V83H220.394ZM230.59 83V69.9091H232.961V81.0121H238.727V83H230.59ZM243.156 69.9091V83H240.785V69.9091H243.156ZM257.422 76.4545C257.422 77.8651 257.158 79.0732 256.629 80.0788C256.105 81.0803 255.389 81.8473 254.481 82.38C253.578 82.9126 252.553 83.179 251.407 83.179C250.261 83.179 249.234 82.9126 248.326 82.38C247.422 81.843 246.707 81.0739 246.178 80.0724C245.654 79.0668 245.392 77.8608 245.392 76.4545C245.392 75.044 245.654 73.8381 246.178 72.8366C246.707 71.831 247.422 71.0618 248.326 70.5291C249.234 69.9964 250.261 69.7301 251.407 69.7301C252.553 69.7301 253.578 69.9964 254.481 70.5291C255.389 71.0618 256.105 71.831 256.629 72.8366C257.158 73.8381 257.422 75.044 257.422 76.4545ZM255.038 76.4545C255.038 75.4616 254.882 74.6243 254.571 73.9425C254.264 73.2564 253.838 72.7386 253.292 72.3892C252.747 72.0355 252.118 71.8587 251.407 71.8587C250.695 71.8587 250.067 72.0355 249.521 72.3892C248.976 72.7386 248.547 73.2564 248.236 73.9425C247.93 74.6243 247.776 75.4616 247.776 76.4545C247.776 77.4474 247.93 78.2869 248.236 78.973C248.547 79.6548 248.976 80.1726 249.521 80.5263C250.067 80.8757 250.695 81.0504 251.407 81.0504C252.118 81.0504 252.747 80.8757 253.292 80.5263C253.838 80.1726 254.264 79.6548 254.571 78.973C254.882 78.2869 255.038 77.4474 255.038 76.4545ZM270.422 69.9091V83H268.312L262.144 74.0831H262.035V83H259.664V69.9091H261.786L267.948 78.8324H268.063V69.9091H270.422ZM205.376 91.9091L208.783 102.213H208.917L212.318 91.9091H214.926L210.311 105H207.383L202.775 91.9091H205.376ZM227.408 91.9091V105H225.299L219.13 96.0831H219.022V105H216.65V91.9091H218.772L224.934 100.832H225.049V91.9091H227.408ZM234.428 105H229.992V91.9091H234.517C235.817 91.9091 236.934 92.1712 237.867 92.6953C238.804 93.2152 239.525 93.9631 240.027 94.9389C240.53 95.9148 240.782 97.0824 240.782 98.4418C240.782 99.8054 240.528 100.977 240.021 101.957C239.518 102.937 238.792 103.69 237.841 104.214C236.895 104.738 235.758 105 234.428 105ZM232.363 102.948H234.313C235.225 102.948 235.985 102.782 236.595 102.45C237.204 102.113 237.662 101.612 237.969 100.947C238.276 100.278 238.429 99.4432 238.429 98.4418C238.429 97.4403 238.276 96.6094 237.969 95.9489C237.662 95.2841 237.208 94.7876 236.608 94.4595C236.011 94.1271 235.27 93.9609 234.383 93.9609H232.363V102.948Z" fill="#24408E"/>
<path d="M53.3335 139.25L53.3335 143.75L60.3335 138.75L67.3335 143.75L67.3335 139.25L60.3335 134.25L53.3335 139.25Z" fill="#00A93C"/>
<path d="M53.3335 146.25L53.3335 150.75L60.3335 145.75L67.3335 150.75L67.3335 146.25L60.3335 141.25L53.3335 146.25Z" fill="#00A93C"/>
<path d="M82.0125 151V149.091L87.9187 142.972C88.5494 142.307 89.0693 141.724 89.4784 141.224C89.8932 140.719 90.2028 140.239 90.4074 139.784C90.6119 139.33 90.7142 138.847 90.7142 138.335C90.7142 137.756 90.5778 137.256 90.3051 136.835C90.0324 136.409 89.6602 136.082 89.1886 135.855C88.717 135.622 88.1858 135.506 87.5949 135.506C86.9699 135.506 86.4244 135.634 85.9585 135.889C85.4926 136.145 85.1346 136.506 84.8846 136.972C84.6346 137.437 84.5096 137.983 84.5096 138.608H81.9954C81.9954 137.545 82.2397 136.616 82.7284 135.821C83.217 135.026 83.8875 134.409 84.7397 133.972C85.592 133.528 86.5608 133.307 87.646 133.307C88.7426 133.307 89.7085 133.526 90.5437 133.963C91.3846 134.395 92.0409 134.986 92.5125 135.736C92.9841 136.48 93.2199 137.321 93.2199 138.259C93.2199 138.906 93.0977 139.54 92.8534 140.159C92.6147 140.778 92.1971 141.469 91.6005 142.23C91.004 142.986 90.1744 143.903 89.1119 144.983L85.6432 148.614V148.741H93.5011V151H82.0125ZM103.353 133.545V151H100.711V136.188H100.609L96.4329 138.915V136.392L100.788 133.545H103.353ZM117.186 147.727V146.807C117.186 146.148 117.322 145.545 117.595 145C117.873 144.449 118.277 144.009 118.805 143.679C119.339 143.344 119.984 143.176 120.74 143.176C121.512 143.176 122.16 143.341 122.683 143.67C123.206 144 123.601 144.44 123.868 144.991C124.14 145.543 124.277 146.148 124.277 146.807V147.727C124.277 148.386 124.14 148.991 123.868 149.543C123.595 150.088 123.194 150.528 122.666 150.864C122.143 151.193 121.501 151.358 120.74 151.358C119.973 151.358 119.325 151.193 118.797 150.864C118.268 150.528 117.868 150.088 117.595 149.543C117.322 148.991 117.186 148.386 117.186 147.727ZM119.172 146.807V147.727C119.172 148.216 119.288 148.659 119.521 149.057C119.754 149.455 120.16 149.653 120.74 149.653C121.314 149.653 121.714 149.455 121.941 149.057C122.169 148.659 122.282 148.216 122.282 147.727V146.807C122.282 146.318 122.172 145.875 121.95 145.477C121.734 145.08 121.331 144.881 120.74 144.881C120.172 144.881 119.768 145.08 119.53 145.477C119.291 145.875 119.172 146.318 119.172 146.807ZM108.407 137.739V136.818C108.407 136.159 108.544 135.554 108.816 135.003C109.095 134.452 109.498 134.011 110.027 133.682C110.561 133.352 111.206 133.188 111.961 133.188C112.734 133.188 113.382 133.352 113.905 133.682C114.427 134.011 114.822 134.452 115.089 135.003C115.356 135.554 115.49 136.159 115.49 136.818V137.739C115.49 138.398 115.353 139.003 115.081 139.554C114.814 140.099 114.416 140.54 113.887 140.875C113.365 141.205 112.723 141.369 111.961 141.369C111.189 141.369 110.538 141.205 110.01 140.875C109.487 140.54 109.089 140.099 108.816 139.554C108.544 139.003 108.407 138.398 108.407 137.739ZM110.402 136.818V137.739C110.402 138.227 110.515 138.67 110.743 139.068C110.976 139.466 111.382 139.665 111.961 139.665C112.53 139.665 112.927 139.466 113.155 139.068C113.387 138.67 113.504 138.227 113.504 137.739V136.818C113.504 136.33 113.393 135.886 113.172 135.489C112.95 135.091 112.547 134.892 111.961 134.892C111.393 134.892 110.99 135.091 110.751 135.489C110.518 135.886 110.402 136.33 110.402 136.818ZM109.217 151L121.217 133.545H123.254L111.254 151H109.217Z" fill="#24408E"/>
<path d="M147.106 143.182C146.318 143.182 145.627 142.994 145.032 142.619C144.441 142.244 143.979 141.72 143.646 141.045C143.316 140.371 143.152 139.583 143.152 138.682C143.152 137.773 143.316 136.979 143.646 136.301C143.979 135.623 144.441 135.097 145.032 134.722C145.627 134.347 146.318 134.159 147.106 134.159C147.894 134.159 148.583 134.347 149.174 134.722C149.769 135.097 150.231 135.623 150.561 136.301C150.894 136.979 151.061 137.773 151.061 138.682C151.061 139.583 150.894 140.371 150.561 141.045C150.231 141.72 149.769 142.244 149.174 142.619C148.583 142.994 147.894 143.182 147.106 143.182ZM147.106 141.977C147.705 141.977 148.197 141.824 148.583 141.517C148.97 141.21 149.256 140.807 149.441 140.307C149.627 139.807 149.72 139.265 149.72 138.682C149.72 138.098 149.627 137.555 149.441 137.051C149.256 136.547 148.97 136.14 148.583 135.83C148.197 135.519 147.705 135.364 147.106 135.364C146.508 135.364 146.015 135.519 145.629 135.83C145.243 136.14 144.957 136.547 144.771 137.051C144.585 137.555 144.493 138.098 144.493 138.682C144.493 139.265 144.585 139.807 144.771 140.307C144.957 140.807 145.243 141.21 145.629 141.517C146.015 141.824 146.508 141.977 147.106 141.977ZM159.932 134.273L156.704 143H155.341L152.113 134.273H153.568L155.977 141.227H156.068L158.477 134.273H159.932ZM165.048 143.182C164.207 143.182 163.482 142.996 162.872 142.625C162.266 142.25 161.798 141.727 161.468 141.057C161.143 140.383 160.98 139.598 160.98 138.705C160.98 137.811 161.143 137.023 161.468 136.341C161.798 135.655 162.256 135.121 162.843 134.739C163.434 134.352 164.124 134.159 164.912 134.159C165.366 134.159 165.815 134.235 166.258 134.386C166.701 134.538 167.105 134.784 167.468 135.125C167.832 135.462 168.122 135.909 168.338 136.466C168.554 137.023 168.662 137.708 168.662 138.523V139.091H161.934V137.932H167.298C167.298 137.439 167.2 137 167.003 136.614C166.809 136.227 166.533 135.922 166.173 135.699C165.817 135.475 165.396 135.364 164.912 135.364C164.378 135.364 163.915 135.496 163.525 135.761C163.139 136.023 162.842 136.364 162.633 136.784C162.425 137.205 162.321 137.655 162.321 138.136V138.909C162.321 139.568 162.434 140.127 162.662 140.585C162.893 141.04 163.213 141.386 163.622 141.625C164.031 141.86 164.506 141.977 165.048 141.977C165.4 141.977 165.718 141.928 166.003 141.83C166.29 141.727 166.539 141.576 166.747 141.375C166.955 141.17 167.116 140.917 167.23 140.614L168.525 140.977C168.389 141.417 168.16 141.803 167.838 142.136C167.516 142.466 167.118 142.723 166.645 142.909C166.171 143.091 165.639 143.182 165.048 143.182ZM170.701 143V134.273H171.997V135.591H172.088C172.247 135.159 172.535 134.809 172.951 134.54C173.368 134.271 173.838 134.136 174.36 134.136C174.459 134.136 174.582 134.138 174.73 134.142C174.878 134.146 174.989 134.152 175.065 134.159V135.523C175.02 135.511 174.915 135.494 174.753 135.472C174.593 135.445 174.425 135.432 174.247 135.432C173.823 135.432 173.444 135.521 173.11 135.699C172.781 135.873 172.52 136.116 172.326 136.426C172.137 136.733 172.042 137.083 172.042 137.477V143H170.701ZM184.95 134.273V135.409H180.427V134.273H184.95ZM181.745 132.182H183.086V140.5C183.086 140.879 183.141 141.163 183.251 141.352C183.365 141.538 183.509 141.663 183.683 141.727C183.861 141.788 184.048 141.818 184.245 141.818C184.393 141.818 184.514 141.811 184.609 141.795C184.704 141.777 184.78 141.761 184.836 141.75L185.109 142.955C185.018 142.989 184.891 143.023 184.728 143.057C184.566 143.095 184.359 143.114 184.109 143.114C183.73 143.114 183.359 143.032 182.995 142.869C182.636 142.706 182.336 142.458 182.098 142.125C181.863 141.792 181.745 141.371 181.745 140.864V132.182ZM188.495 137.75V143H187.155V131.364H188.495V135.636H188.609C188.814 135.186 189.12 134.828 189.53 134.562C189.942 134.294 190.492 134.159 191.177 134.159C191.772 134.159 192.293 134.278 192.74 134.517C193.187 134.752 193.533 135.114 193.78 135.602C194.03 136.087 194.155 136.705 194.155 137.455V143H192.814V137.545C192.814 136.852 192.634 136.316 192.274 135.938C191.918 135.555 191.423 135.364 190.791 135.364C190.351 135.364 189.958 135.456 189.609 135.642C189.264 135.828 188.992 136.098 188.791 136.455C188.594 136.811 188.495 137.242 188.495 137.75ZM200.267 143.182C199.426 143.182 198.7 142.996 198.091 142.625C197.485 142.25 197.017 141.727 196.687 141.057C196.361 140.383 196.199 139.598 196.199 138.705C196.199 137.811 196.361 137.023 196.687 136.341C197.017 135.655 197.475 135.121 198.062 134.739C198.653 134.352 199.342 134.159 200.13 134.159C200.585 134.159 201.034 134.235 201.477 134.386C201.92 134.538 202.324 134.784 202.687 135.125C203.051 135.462 203.341 135.909 203.557 136.466C203.772 137.023 203.88 137.708 203.88 138.523V139.091H197.153V137.932H202.517C202.517 137.439 202.418 137 202.221 136.614C202.028 136.227 201.752 135.922 201.392 135.699C201.036 135.475 200.615 135.364 200.13 135.364C199.596 135.364 199.134 135.496 198.744 135.761C198.358 136.023 198.06 136.364 197.852 136.784C197.644 137.205 197.539 137.655 197.539 138.136V138.909C197.539 139.568 197.653 140.127 197.88 140.585C198.111 141.04 198.432 141.386 198.841 141.625C199.25 141.86 199.725 141.977 200.267 141.977C200.619 141.977 200.937 141.928 201.221 141.83C201.509 141.727 201.757 141.576 201.966 141.375C202.174 141.17 202.335 140.917 202.449 140.614L203.744 140.977C203.608 141.417 203.378 141.803 203.057 142.136C202.735 142.466 202.337 142.723 201.863 142.909C201.39 143.091 200.858 143.182 200.267 143.182ZM216.602 136.227L215.397 136.568C215.322 136.367 215.21 136.172 215.062 135.983C214.918 135.79 214.721 135.631 214.471 135.506C214.221 135.381 213.901 135.318 213.511 135.318C212.977 135.318 212.532 135.441 212.176 135.688C211.824 135.93 211.647 136.239 211.647 136.614C211.647 136.947 211.769 137.21 212.011 137.403C212.253 137.597 212.632 137.758 213.147 137.886L214.443 138.205C215.223 138.394 215.805 138.684 216.187 139.074C216.57 139.46 216.761 139.958 216.761 140.568C216.761 141.068 216.617 141.515 216.329 141.909C216.045 142.303 215.647 142.614 215.136 142.841C214.625 143.068 214.03 143.182 213.352 143.182C212.462 143.182 211.725 142.989 211.142 142.602C210.558 142.216 210.189 141.652 210.034 140.909L211.307 140.591C211.428 141.061 211.657 141.413 211.994 141.648C212.335 141.883 212.78 142 213.329 142C213.954 142 214.45 141.867 214.818 141.602C215.189 141.333 215.375 141.011 215.375 140.636C215.375 140.333 215.269 140.08 215.057 139.875C214.844 139.667 214.519 139.511 214.079 139.409L212.625 139.068C211.825 138.879 211.238 138.585 210.863 138.188C210.492 137.786 210.307 137.284 210.307 136.682C210.307 136.189 210.445 135.754 210.721 135.375C211.002 134.996 211.382 134.699 211.863 134.483C212.348 134.267 212.897 134.159 213.511 134.159C214.375 134.159 215.053 134.348 215.545 134.727C216.041 135.106 216.394 135.606 216.602 136.227ZM221.348 143.205C220.795 143.205 220.293 143.1 219.842 142.892C219.391 142.68 219.033 142.375 218.768 141.977C218.503 141.576 218.37 141.091 218.37 140.523C218.37 140.023 218.469 139.617 218.666 139.307C218.863 138.992 219.126 138.746 219.456 138.568C219.785 138.39 220.149 138.258 220.547 138.17C220.948 138.08 221.351 138.008 221.757 137.955C222.287 137.886 222.717 137.835 223.047 137.801C223.38 137.763 223.622 137.701 223.774 137.614C223.929 137.527 224.007 137.375 224.007 137.159V137.114C224.007 136.553 223.853 136.117 223.547 135.807C223.244 135.496 222.783 135.341 222.166 135.341C221.526 135.341 221.024 135.481 220.66 135.761C220.297 136.042 220.041 136.341 219.893 136.659L218.62 136.205C218.848 135.674 219.151 135.261 219.53 134.966C219.912 134.667 220.329 134.458 220.78 134.341C221.234 134.22 221.681 134.159 222.12 134.159C222.401 134.159 222.723 134.193 223.086 134.261C223.454 134.326 223.808 134.46 224.149 134.665C224.494 134.869 224.78 135.178 225.007 135.591C225.234 136.004 225.348 136.557 225.348 137.25V143H224.007V141.818H223.939C223.848 142.008 223.696 142.21 223.484 142.426C223.272 142.642 222.99 142.826 222.637 142.977C222.285 143.129 221.855 143.205 221.348 143.205ZM221.552 142C222.083 142 222.53 141.896 222.893 141.688C223.261 141.479 223.537 141.21 223.723 140.881C223.912 140.551 224.007 140.205 224.007 139.841V138.614C223.95 138.682 223.825 138.744 223.632 138.801C223.442 138.854 223.223 138.902 222.973 138.943C222.726 138.981 222.486 139.015 222.251 139.045C222.02 139.072 221.833 139.095 221.689 139.114C221.34 139.159 221.014 139.233 220.711 139.335C220.412 139.434 220.17 139.583 219.984 139.784C219.802 139.981 219.711 140.25 219.711 140.591C219.711 141.057 219.884 141.409 220.228 141.648C220.577 141.883 221.018 142 221.552 142ZM227.795 143V134.273H229.091V135.636H229.204C229.386 135.17 229.68 134.809 230.085 134.551C230.49 134.29 230.977 134.159 231.545 134.159C232.121 134.159 232.6 134.29 232.983 134.551C233.369 134.809 233.67 135.17 233.886 135.636H233.977C234.2 135.186 234.536 134.828 234.983 134.562C235.43 134.294 235.966 134.159 236.591 134.159C237.371 134.159 238.009 134.403 238.505 134.892C239.002 135.377 239.25 136.133 239.25 137.159V143H237.909V137.159C237.909 136.515 237.733 136.055 237.38 135.778C237.028 135.502 236.613 135.364 236.136 135.364C235.522 135.364 235.047 135.549 234.71 135.92C234.373 136.288 234.204 136.754 234.204 137.318V143H232.841V137.023C232.841 136.527 232.68 136.127 232.358 135.824C232.036 135.517 231.621 135.364 231.113 135.364C230.765 135.364 230.439 135.456 230.136 135.642C229.837 135.828 229.594 136.085 229.409 136.415C229.227 136.741 229.136 137.117 229.136 137.545V143H227.795ZM245.36 143.182C244.52 143.182 243.794 142.996 243.184 142.625C242.578 142.25 242.11 141.727 241.781 141.057C241.455 140.383 241.292 139.598 241.292 138.705C241.292 137.811 241.455 137.023 241.781 136.341C242.11 135.655 242.569 135.121 243.156 134.739C243.747 134.352 244.436 134.159 245.224 134.159C245.679 134.159 246.128 134.235 246.571 134.386C247.014 134.538 247.417 134.784 247.781 135.125C248.145 135.462 248.434 135.909 248.65 136.466C248.866 137.023 248.974 137.708 248.974 138.523V139.091H242.247V137.932H247.61C247.61 137.439 247.512 137 247.315 136.614C247.122 136.227 246.845 135.922 246.485 135.699C246.129 135.475 245.709 135.364 245.224 135.364C244.69 135.364 244.228 135.496 243.838 135.761C243.451 136.023 243.154 136.364 242.946 136.784C242.737 137.205 242.633 137.655 242.633 138.136V138.909C242.633 139.568 242.747 140.127 242.974 140.585C243.205 141.04 243.525 141.386 243.934 141.625C244.343 141.86 244.819 141.977 245.36 141.977C245.713 141.977 246.031 141.928 246.315 141.83C246.603 141.727 246.851 141.576 247.059 141.375C247.268 141.17 247.429 140.917 247.542 140.614L248.838 140.977C248.701 141.417 248.472 141.803 248.15 142.136C247.828 142.466 247.431 142.723 246.957 142.909C246.484 143.091 245.951 143.182 245.36 143.182ZM255.514 146.273V134.273H256.809V135.659H256.968C257.067 135.508 257.203 135.314 257.378 135.08C257.556 134.841 257.809 134.629 258.139 134.443C258.472 134.254 258.923 134.159 259.491 134.159C260.226 134.159 260.874 134.343 261.434 134.71C261.995 135.078 262.432 135.598 262.747 136.273C263.061 136.947 263.218 137.742 263.218 138.659C263.218 139.583 263.061 140.384 262.747 141.062C262.432 141.737 261.997 142.259 261.44 142.631C260.883 142.998 260.241 143.182 259.514 143.182C258.953 143.182 258.504 143.089 258.167 142.903C257.83 142.714 257.571 142.5 257.389 142.261C257.207 142.019 257.067 141.818 256.968 141.659H256.855V146.273H255.514ZM256.832 138.636C256.832 139.295 256.929 139.877 257.122 140.381C257.315 140.881 257.597 141.273 257.968 141.557C258.34 141.837 258.794 141.977 259.332 141.977C259.893 141.977 260.36 141.83 260.735 141.534C261.114 141.235 261.398 140.833 261.588 140.33C261.781 139.822 261.878 139.258 261.878 138.636C261.878 138.023 261.783 137.47 261.593 136.977C261.408 136.481 261.126 136.089 260.747 135.801C260.372 135.509 259.9 135.364 259.332 135.364C258.787 135.364 258.328 135.502 257.957 135.778C257.586 136.051 257.306 136.434 257.116 136.926C256.927 137.415 256.832 137.985 256.832 138.636ZM268.923 143.182C268.082 143.182 267.357 142.996 266.747 142.625C266.141 142.25 265.673 141.727 265.343 141.057C265.018 140.383 264.855 139.598 264.855 138.705C264.855 137.811 265.018 137.023 265.343 136.341C265.673 135.655 266.131 135.121 266.718 134.739C267.309 134.352 267.999 134.159 268.787 134.159C269.241 134.159 269.69 134.235 270.133 134.386C270.576 134.538 270.98 134.784 271.343 135.125C271.707 135.462 271.997 135.909 272.213 136.466C272.429 137.023 272.537 137.708 272.537 138.523V139.091H265.809V137.932H271.173C271.173 137.439 271.075 137 270.878 136.614C270.684 136.227 270.408 135.922 270.048 135.699C269.692 135.475 269.271 135.364 268.787 135.364C268.253 135.364 267.79 135.496 267.4 135.761C267.014 136.023 266.717 136.364 266.508 136.784C266.3 137.205 266.196 137.655 266.196 138.136V138.909C266.196 139.568 266.309 140.127 266.537 140.585C266.768 141.04 267.088 141.386 267.497 141.625C267.906 141.86 268.381 141.977 268.923 141.977C269.275 141.977 269.593 141.928 269.878 141.83C270.165 141.727 270.414 141.576 270.622 141.375C270.83 141.17 270.991 140.917 271.105 140.614L272.4 140.977C272.264 141.417 272.035 141.803 271.713 142.136C271.391 142.466 270.993 142.723 270.52 142.909C270.046 143.091 269.514 143.182 268.923 143.182ZM274.576 143V134.273H275.872V135.591H275.963C276.122 135.159 276.41 134.809 276.826 134.54C277.243 134.271 277.713 134.136 278.235 134.136C278.334 134.136 278.457 134.138 278.605 134.142C278.753 134.146 278.864 134.152 278.94 134.159V135.523C278.895 135.511 278.79 135.494 278.628 135.472C278.468 135.445 278.3 135.432 278.122 135.432C277.698 135.432 277.319 135.521 276.985 135.699C276.656 135.873 276.395 136.116 276.201 136.426C276.012 136.733 275.917 137.083 275.917 137.477V143H274.576ZM280.53 143V134.273H281.87V143H280.53ZM281.211 132.818C280.95 132.818 280.725 132.729 280.535 132.551C280.35 132.373 280.257 132.159 280.257 131.909C280.257 131.659 280.35 131.445 280.535 131.267C280.725 131.089 280.95 131 281.211 131C281.473 131 281.696 131.089 281.882 131.267C282.071 131.445 282.166 131.659 282.166 131.909C282.166 132.159 282.071 132.373 281.882 132.551C281.696 132.729 281.473 132.818 281.211 132.818ZM287.872 143.182C287.084 143.182 286.393 142.994 285.798 142.619C285.207 142.244 284.745 141.72 284.412 141.045C284.082 140.371 283.917 139.583 283.917 138.682C283.917 137.773 284.082 136.979 284.412 136.301C284.745 135.623 285.207 135.097 285.798 134.722C286.393 134.347 287.084 134.159 287.872 134.159C288.66 134.159 289.349 134.347 289.94 134.722C290.535 135.097 290.997 135.623 291.326 136.301C291.66 136.979 291.826 137.773 291.826 138.682C291.826 139.583 291.66 140.371 291.326 141.045C290.997 141.72 290.535 142.244 289.94 142.619C289.349 142.994 288.66 143.182 287.872 143.182ZM287.872 141.977C288.47 141.977 288.963 141.824 289.349 141.517C289.735 141.21 290.021 140.807 290.207 140.307C290.393 139.807 290.485 139.265 290.485 138.682C290.485 138.098 290.393 137.555 290.207 137.051C290.021 136.547 289.735 136.14 289.349 135.83C288.963 135.519 288.47 135.364 287.872 135.364C287.273 135.364 286.781 135.519 286.395 135.83C286.008 136.14 285.722 136.547 285.537 137.051C285.351 137.555 285.258 138.098 285.258 138.682C285.258 139.265 285.351 139.807 285.537 140.307C285.722 140.807 286.008 141.21 286.395 141.517C286.781 141.824 287.273 141.977 287.872 141.977ZM297.169 143.182C296.441 143.182 295.799 142.998 295.243 142.631C294.686 142.259 294.25 141.737 293.936 141.062C293.621 140.384 293.464 139.583 293.464 138.659C293.464 137.742 293.621 136.947 293.936 136.273C294.25 135.598 294.688 135.078 295.248 134.71C295.809 134.343 296.457 134.159 297.191 134.159C297.76 134.159 298.208 134.254 298.538 134.443C298.871 134.629 299.125 134.841 299.299 135.08C299.477 135.314 299.616 135.508 299.714 135.659H299.828V131.364H301.169V143H299.873V141.659H299.714C299.616 141.818 299.476 142.019 299.294 142.261C299.112 142.5 298.852 142.714 298.515 142.903C298.178 143.089 297.729 143.182 297.169 143.182ZM297.351 141.977C297.888 141.977 298.343 141.837 298.714 141.557C299.085 141.273 299.368 140.881 299.561 140.381C299.754 139.877 299.851 139.295 299.851 138.636C299.851 137.985 299.756 137.415 299.566 136.926C299.377 136.434 299.097 136.051 298.726 135.778C298.354 135.502 297.896 135.364 297.351 135.364C296.782 135.364 296.309 135.509 295.93 135.801C295.555 136.089 295.273 136.481 295.083 136.977C294.898 137.47 294.805 138.023 294.805 138.636C294.805 139.258 294.9 139.822 295.089 140.33C295.282 140.833 295.566 141.235 295.941 141.534C296.32 141.83 296.79 141.977 297.351 141.977ZM305.811 141.409L305.72 142.023C305.655 142.455 305.557 142.917 305.424 143.409C305.296 143.902 305.161 144.366 305.021 144.801C304.881 145.237 304.765 145.583 304.674 145.841H303.652C303.701 145.598 303.765 145.278 303.845 144.881C303.924 144.483 304.004 144.038 304.083 143.545C304.167 143.057 304.235 142.557 304.288 142.045L304.356 141.409H305.811ZM315.363 143.205C314.81 143.205 314.308 143.1 313.858 142.892C313.407 142.68 313.049 142.375 312.784 141.977C312.519 141.576 312.386 141.091 312.386 140.523C312.386 140.023 312.485 139.617 312.682 139.307C312.878 138.992 313.142 138.746 313.471 138.568C313.801 138.39 314.164 138.258 314.562 138.17C314.964 138.08 315.367 138.008 315.772 137.955C316.303 137.886 316.733 137.835 317.062 137.801C317.396 137.763 317.638 137.701 317.789 137.614C317.945 137.527 318.022 137.375 318.022 137.159V137.114C318.022 136.553 317.869 136.117 317.562 135.807C317.259 135.496 316.799 135.341 316.182 135.341C315.541 135.341 315.039 135.481 314.676 135.761C314.312 136.042 314.057 136.341 313.909 136.659L312.636 136.205C312.863 135.674 313.166 135.261 313.545 134.966C313.928 134.667 314.344 134.458 314.795 134.341C315.25 134.22 315.697 134.159 316.136 134.159C316.416 134.159 316.738 134.193 317.102 134.261C317.469 134.326 317.824 134.46 318.164 134.665C318.509 134.869 318.795 135.178 319.022 135.591C319.25 136.004 319.363 136.557 319.363 137.25V143H318.022V141.818H317.954C317.863 142.008 317.712 142.21 317.5 142.426C317.288 142.642 317.005 142.826 316.653 142.977C316.301 143.129 315.871 143.205 315.363 143.205ZM315.568 142C316.098 142 316.545 141.896 316.909 141.688C317.276 141.479 317.553 141.21 317.738 140.881C317.928 140.551 318.022 140.205 318.022 139.841V138.614C317.966 138.682 317.841 138.744 317.647 138.801C317.458 138.854 317.238 138.902 316.988 138.943C316.742 138.981 316.502 139.015 316.267 139.045C316.036 139.072 315.848 139.095 315.704 139.114C315.356 139.159 315.03 139.233 314.727 139.335C314.428 139.434 314.185 139.583 314 139.784C313.818 139.981 313.727 140.25 313.727 140.591C313.727 141.057 313.899 141.409 314.244 141.648C314.592 141.883 315.034 142 315.568 142ZM323.152 137.75V143H321.811V134.273H323.106V135.636H323.22C323.424 135.193 323.735 134.837 324.152 134.568C324.568 134.295 325.106 134.159 325.765 134.159C326.356 134.159 326.873 134.28 327.316 134.523C327.76 134.761 328.104 135.125 328.351 135.614C328.597 136.098 328.72 136.712 328.72 137.455V143H327.379V137.545C327.379 136.86 327.201 136.326 326.845 135.943C326.489 135.557 326 135.364 325.379 135.364C324.951 135.364 324.568 135.456 324.231 135.642C323.898 135.828 323.635 136.098 323.441 136.455C323.248 136.811 323.152 137.242 323.152 137.75ZM334.466 143.182C333.738 143.182 333.096 142.998 332.539 142.631C331.983 142.259 331.547 141.737 331.233 141.062C330.918 140.384 330.761 139.583 330.761 138.659C330.761 137.742 330.918 136.947 331.233 136.273C331.547 135.598 331.985 135.078 332.545 134.71C333.106 134.343 333.753 134.159 334.488 134.159C335.057 134.159 335.505 134.254 335.835 134.443C336.168 134.629 336.422 134.841 336.596 135.08C336.774 135.314 336.913 135.508 337.011 135.659H337.125V131.364H338.466V143H337.17V141.659H337.011C336.913 141.818 336.772 142.019 336.591 142.261C336.409 142.5 336.149 142.714 335.812 142.903C335.475 143.089 335.026 143.182 334.466 143.182ZM334.647 141.977C335.185 141.977 335.64 141.837 336.011 141.557C336.382 141.273 336.664 140.881 336.858 140.381C337.051 139.877 337.147 139.295 337.147 138.636C337.147 137.985 337.053 137.415 336.863 136.926C336.674 136.434 336.394 136.051 336.022 135.778C335.651 135.502 335.193 135.364 334.647 135.364C334.079 135.364 333.606 135.509 333.227 135.801C332.852 136.089 332.57 136.481 332.38 136.977C332.195 137.47 332.102 138.023 332.102 138.636C332.102 139.258 332.197 139.822 332.386 140.33C332.579 140.833 332.863 141.235 333.238 141.534C333.617 141.83 334.087 141.977 334.647 141.977ZM147.22 162.182C146.379 162.182 145.654 161.996 145.044 161.625C144.438 161.25 143.97 160.727 143.64 160.057C143.315 159.383 143.152 158.598 143.152 157.705C143.152 156.811 143.315 156.023 143.64 155.341C143.97 154.655 144.428 154.121 145.015 153.739C145.606 153.352 146.296 153.159 147.083 153.159C147.538 153.159 147.987 153.235 148.43 153.386C148.873 153.538 149.277 153.784 149.64 154.125C150.004 154.462 150.294 154.909 150.51 155.466C150.726 156.023 150.833 156.708 150.833 157.523V158.091H144.106V156.932H149.47C149.47 156.439 149.371 156 149.174 155.614C148.981 155.227 148.705 154.922 148.345 154.699C147.989 154.475 147.568 154.364 147.083 154.364C146.549 154.364 146.087 154.496 145.697 154.761C145.311 155.023 145.013 155.364 144.805 155.784C144.597 156.205 144.493 156.655 144.493 157.136V157.909C144.493 158.568 144.606 159.127 144.833 159.585C145.065 160.04 145.385 160.386 145.794 160.625C146.203 160.86 146.678 160.977 147.22 160.977C147.572 160.977 147.89 160.928 148.174 160.83C148.462 160.727 148.71 160.576 148.919 160.375C149.127 160.17 149.288 159.917 149.402 159.614L150.697 159.977C150.561 160.417 150.332 160.803 150.01 161.136C149.688 161.466 149.29 161.723 148.816 161.909C148.343 162.091 147.811 162.182 147.22 162.182ZM153.639 153.273L155.73 156.841L157.821 153.273H159.366L156.548 157.636L159.366 162H157.821L155.73 158.614L153.639 162H152.093L154.866 157.636L152.093 153.273H153.639ZM164.466 162.182C163.647 162.182 162.943 161.989 162.352 161.602C161.761 161.216 161.307 160.684 160.988 160.006C160.67 159.328 160.511 158.553 160.511 157.682C160.511 156.795 160.674 156.013 161 155.335C161.329 154.653 161.788 154.121 162.375 153.739C162.966 153.352 163.655 153.159 164.443 153.159C165.057 153.159 165.61 153.273 166.102 153.5C166.594 153.727 166.998 154.045 167.312 154.455C167.627 154.864 167.822 155.341 167.897 155.886H166.557C166.454 155.489 166.227 155.136 165.875 154.83C165.526 154.519 165.057 154.364 164.466 154.364C163.943 154.364 163.485 154.5 163.091 154.773C162.7 155.042 162.396 155.422 162.176 155.915C161.96 156.403 161.852 156.977 161.852 157.636C161.852 158.311 161.958 158.898 162.17 159.398C162.386 159.898 162.689 160.286 163.079 160.562C163.473 160.839 163.935 160.977 164.466 160.977C164.814 160.977 165.13 160.917 165.414 160.795C165.699 160.674 165.939 160.5 166.136 160.273C166.333 160.045 166.473 159.773 166.557 159.455H167.897C167.822 159.97 167.634 160.434 167.335 160.847C167.039 161.256 166.647 161.581 166.159 161.824C165.674 162.062 165.11 162.182 164.466 162.182ZM173.517 162.182C172.676 162.182 171.95 161.996 171.341 161.625C170.735 161.25 170.267 160.727 169.937 160.057C169.611 159.383 169.449 158.598 169.449 157.705C169.449 156.811 169.611 156.023 169.937 155.341C170.267 154.655 170.725 154.121 171.312 153.739C171.903 153.352 172.592 153.159 173.38 153.159C173.835 153.159 174.284 153.235 174.727 153.386C175.17 153.538 175.574 153.784 175.937 154.125C176.301 154.462 176.591 154.909 176.807 155.466C177.022 156.023 177.13 156.708 177.13 157.523V158.091H170.403V156.932H175.767C175.767 156.439 175.668 156 175.471 155.614C175.278 155.227 175.002 154.922 174.642 154.699C174.286 154.475 173.865 154.364 173.38 154.364C172.846 154.364 172.384 154.496 171.994 154.761C171.608 155.023 171.31 155.364 171.102 155.784C170.894 156.205 170.789 156.655 170.789 157.136V157.909C170.789 158.568 170.903 159.127 171.13 159.585C171.361 160.04 171.682 160.386 172.091 160.625C172.5 160.86 172.975 160.977 173.517 160.977C173.869 160.977 174.187 160.928 174.471 160.83C174.759 160.727 175.007 160.576 175.216 160.375C175.424 160.17 175.585 159.917 175.699 159.614L176.994 159.977C176.858 160.417 176.628 160.803 176.307 161.136C175.985 161.466 175.587 161.723 175.113 161.909C174.64 162.091 174.108 162.182 173.517 162.182ZM182.829 162.182C181.988 162.182 181.263 161.996 180.653 161.625C180.047 161.25 179.579 160.727 179.25 160.057C178.924 159.383 178.761 158.598 178.761 157.705C178.761 156.811 178.924 156.023 179.25 155.341C179.579 154.655 180.038 154.121 180.625 153.739C181.216 153.352 181.905 153.159 182.693 153.159C183.147 153.159 183.596 153.235 184.039 153.386C184.483 153.538 184.886 153.784 185.25 154.125C185.613 154.462 185.903 154.909 186.119 155.466C186.335 156.023 186.443 156.708 186.443 157.523V158.091H179.716V156.932H185.079C185.079 156.439 184.981 156 184.784 155.614C184.591 155.227 184.314 154.922 183.954 154.699C183.598 154.475 183.178 154.364 182.693 154.364C182.159 154.364 181.697 154.496 181.307 154.761C180.92 155.023 180.623 155.364 180.414 155.784C180.206 156.205 180.102 156.655 180.102 157.136V157.909C180.102 158.568 180.216 159.127 180.443 159.585C180.674 160.04 180.994 160.386 181.403 160.625C181.812 160.86 182.288 160.977 182.829 160.977C183.182 160.977 183.5 160.928 183.784 160.83C184.072 160.727 184.32 160.576 184.528 160.375C184.736 160.17 184.897 159.917 185.011 159.614L186.307 159.977C186.17 160.417 185.941 160.803 185.619 161.136C185.297 161.466 184.899 161.723 184.426 161.909C183.952 162.091 183.42 162.182 182.829 162.182ZM191.778 162.182C191.051 162.182 190.409 161.998 189.852 161.631C189.295 161.259 188.86 160.737 188.545 160.062C188.231 159.384 188.074 158.583 188.074 157.659C188.074 156.742 188.231 155.947 188.545 155.273C188.86 154.598 189.297 154.078 189.858 153.71C190.418 153.343 191.066 153.159 191.801 153.159C192.369 153.159 192.818 153.254 193.147 153.443C193.481 153.629 193.735 153.841 193.909 154.08C194.087 154.314 194.225 154.508 194.324 154.659H194.437V150.364H195.778V162H194.483V160.659H194.324C194.225 160.818 194.085 161.019 193.903 161.261C193.721 161.5 193.462 161.714 193.125 161.903C192.788 162.089 192.339 162.182 191.778 162.182ZM191.96 160.977C192.498 160.977 192.952 160.837 193.324 160.557C193.695 160.273 193.977 159.881 194.17 159.381C194.363 158.877 194.46 158.295 194.46 157.636C194.46 156.985 194.365 156.415 194.176 155.926C193.986 155.434 193.706 155.051 193.335 154.778C192.964 154.502 192.505 154.364 191.96 154.364C191.392 154.364 190.918 154.509 190.539 154.801C190.164 155.089 189.882 155.481 189.693 155.977C189.507 156.47 189.414 157.023 189.414 157.636C189.414 158.258 189.509 158.822 189.699 159.33C189.892 159.833 190.176 160.235 190.551 160.534C190.93 160.83 191.399 160.977 191.96 160.977ZM198.42 162V153.273H199.761V162H198.42ZM199.102 151.818C198.841 151.818 198.615 151.729 198.426 151.551C198.24 151.373 198.147 151.159 198.147 150.909C198.147 150.659 198.24 150.445 198.426 150.267C198.615 150.089 198.841 150 199.102 150C199.363 150 199.587 150.089 199.772 150.267C199.962 150.445 200.057 150.659 200.057 150.909C200.057 151.159 199.962 151.373 199.772 151.551C199.587 151.729 199.363 151.818 199.102 151.818ZM203.558 156.75V162H202.217V153.273H203.512V154.636H203.626C203.831 154.193 204.141 153.837 204.558 153.568C204.975 153.295 205.512 153.159 206.172 153.159C206.762 153.159 207.28 153.28 207.723 153.523C208.166 153.761 208.511 154.125 208.757 154.614C209.003 155.098 209.126 155.712 209.126 156.455V162H207.785V156.545C207.785 155.86 207.607 155.326 207.251 154.943C206.895 154.557 206.406 154.364 205.785 154.364C205.357 154.364 204.975 154.456 204.637 154.642C204.304 154.828 204.041 155.098 203.848 155.455C203.655 155.811 203.558 156.242 203.558 156.75ZM215.099 165.455C214.451 165.455 213.895 165.371 213.429 165.205C212.963 165.042 212.575 164.826 212.264 164.557C211.957 164.292 211.713 164.008 211.531 163.705L212.599 162.955C212.72 163.114 212.874 163.295 213.059 163.5C213.245 163.708 213.499 163.888 213.821 164.04C214.146 164.195 214.573 164.273 215.099 164.273C215.804 164.273 216.385 164.102 216.843 163.761C217.302 163.42 217.531 162.886 217.531 162.159V160.386H217.417C217.319 160.545 217.179 160.742 216.997 160.977C216.819 161.208 216.561 161.415 216.224 161.597C215.891 161.775 215.44 161.864 214.872 161.864C214.167 161.864 213.535 161.697 212.974 161.364C212.417 161.03 211.976 160.545 211.65 159.909C211.328 159.273 211.167 158.5 211.167 157.591C211.167 156.697 211.324 155.919 211.639 155.256C211.953 154.589 212.391 154.074 212.951 153.71C213.512 153.343 214.16 153.159 214.895 153.159C215.463 153.159 215.914 153.254 216.247 153.443C216.584 153.629 216.842 153.841 217.02 154.08C217.201 154.314 217.342 154.508 217.44 154.659H217.576V153.273H218.872V162.25C218.872 163 218.701 163.61 218.36 164.08C218.023 164.553 217.569 164.9 216.997 165.119C216.429 165.343 215.796 165.455 215.099 165.455ZM215.054 160.659C215.592 160.659 216.046 160.536 216.417 160.29C216.789 160.044 217.071 159.689 217.264 159.227C217.457 158.765 217.554 158.212 217.554 157.568C217.554 156.939 217.459 156.384 217.27 155.903C217.08 155.422 216.8 155.045 216.429 154.773C216.057 154.5 215.599 154.364 215.054 154.364C214.485 154.364 214.012 154.508 213.633 154.795C213.258 155.083 212.976 155.47 212.787 155.955C212.601 156.439 212.508 156.977 212.508 157.568C212.508 158.174 212.603 158.71 212.792 159.176C212.985 159.638 213.27 160.002 213.645 160.267C214.023 160.528 214.493 160.659 215.054 160.659ZM226.008 162V150.364H227.349V154.659H227.463C227.561 154.508 227.698 154.314 227.872 154.08C228.05 153.841 228.304 153.629 228.633 153.443C228.967 153.254 229.417 153.159 229.985 153.159C230.72 153.159 231.368 153.343 231.929 153.71C232.489 154.078 232.927 154.598 233.241 155.273C233.556 155.947 233.713 156.742 233.713 157.659C233.713 158.583 233.556 159.384 233.241 160.062C232.927 160.737 232.491 161.259 231.934 161.631C231.378 161.998 230.735 162.182 230.008 162.182C229.448 162.182 228.999 162.089 228.662 161.903C228.324 161.714 228.065 161.5 227.883 161.261C227.701 161.019 227.561 160.818 227.463 160.659H227.304V162H226.008ZM227.326 157.636C227.326 158.295 227.423 158.877 227.616 159.381C227.809 159.881 228.092 160.273 228.463 160.557C228.834 160.837 229.289 160.977 229.826 160.977C230.387 160.977 230.855 160.83 231.23 160.534C231.609 160.235 231.893 159.833 232.082 159.33C232.275 158.822 232.372 158.258 232.372 157.636C232.372 157.023 232.277 156.47 232.088 155.977C231.902 155.481 231.62 155.089 231.241 154.801C230.866 154.509 230.395 154.364 229.826 154.364C229.281 154.364 228.823 154.502 228.451 154.778C228.08 155.051 227.8 155.434 227.61 155.926C227.421 156.415 227.326 156.985 227.326 157.636ZM241.264 158.432V153.273H242.605V162H241.264V160.523H241.173C240.968 160.966 240.65 161.343 240.218 161.653C239.787 161.96 239.241 162.114 238.582 162.114C238.037 162.114 237.552 161.994 237.128 161.756C236.703 161.513 236.37 161.15 236.128 160.665C235.885 160.176 235.764 159.561 235.764 158.818V153.273H237.105V158.727C237.105 159.364 237.283 159.871 237.639 160.25C237.999 160.629 238.457 160.818 239.014 160.818C239.347 160.818 239.686 160.733 240.031 160.562C240.379 160.392 240.671 160.131 240.906 159.778C241.145 159.426 241.264 158.977 241.264 158.432ZM248.356 162.182C247.629 162.182 246.987 161.998 246.43 161.631C245.873 161.259 245.438 160.737 245.123 160.062C244.809 159.384 244.652 158.583 244.652 157.659C244.652 156.742 244.809 155.947 245.123 155.273C245.438 154.598 245.875 154.078 246.436 153.71C246.996 153.343 247.644 153.159 248.379 153.159C248.947 153.159 249.396 153.254 249.726 153.443C250.059 153.629 250.313 153.841 250.487 154.08C250.665 154.314 250.803 154.508 250.902 154.659H251.015V150.364H252.356V162H251.061V160.659H250.902C250.803 160.818 250.663 161.019 250.481 161.261C250.299 161.5 250.04 161.714 249.703 161.903C249.366 162.089 248.917 162.182 248.356 162.182ZM248.538 160.977C249.076 160.977 249.53 160.837 249.902 160.557C250.273 160.273 250.555 159.881 250.748 159.381C250.941 158.877 251.038 158.295 251.038 157.636C251.038 156.985 250.943 156.415 250.754 155.926C250.565 155.434 250.284 155.051 249.913 154.778C249.542 154.502 249.083 154.364 248.538 154.364C247.97 154.364 247.496 154.509 247.118 154.801C246.743 155.089 246.46 155.481 246.271 155.977C246.085 156.47 245.993 157.023 245.993 157.636C245.993 158.258 246.087 158.822 246.277 159.33C246.47 159.833 246.754 160.235 247.129 160.534C247.508 160.83 247.977 160.977 248.538 160.977ZM258.521 165.455C257.873 165.455 257.316 165.371 256.851 165.205C256.385 165.042 255.996 164.826 255.686 164.557C255.379 164.292 255.135 164.008 254.953 163.705L256.021 162.955C256.142 163.114 256.296 163.295 256.481 163.5C256.667 163.708 256.921 163.888 257.243 164.04C257.568 164.195 257.994 164.273 258.521 164.273C259.226 164.273 259.807 164.102 260.265 163.761C260.724 163.42 260.953 162.886 260.953 162.159V160.386H260.839C260.741 160.545 260.601 160.742 260.419 160.977C260.241 161.208 259.983 161.415 259.646 161.597C259.313 161.775 258.862 161.864 258.294 161.864C257.589 161.864 256.957 161.697 256.396 161.364C255.839 161.03 255.398 160.545 255.072 159.909C254.75 159.273 254.589 158.5 254.589 157.591C254.589 156.697 254.746 155.919 255.061 155.256C255.375 154.589 255.813 154.074 256.373 153.71C256.934 153.343 257.582 153.159 258.316 153.159C258.885 153.159 259.335 153.254 259.669 153.443C260.006 153.629 260.263 153.841 260.441 154.08C260.623 154.314 260.763 154.508 260.862 154.659H260.998V153.273H262.294V162.25C262.294 163 262.123 163.61 261.782 164.08C261.445 164.553 260.991 164.9 260.419 165.119C259.851 165.343 259.218 165.455 258.521 165.455ZM258.476 160.659C259.013 160.659 259.468 160.536 259.839 160.29C260.21 160.044 260.493 159.689 260.686 159.227C260.879 158.765 260.976 158.212 260.976 157.568C260.976 156.939 260.881 156.384 260.691 155.903C260.502 155.422 260.222 155.045 259.851 154.773C259.479 154.5 259.021 154.364 258.476 154.364C257.907 154.364 257.434 154.508 257.055 154.795C256.68 155.083 256.398 155.47 256.208 155.955C256.023 156.439 255.93 156.977 255.93 157.568C255.93 158.174 256.025 158.71 256.214 159.176C256.407 159.638 256.691 160.002 257.066 160.267C257.445 160.528 257.915 160.659 258.476 160.659ZM268.407 162.182C267.566 162.182 266.841 161.996 266.231 161.625C265.625 161.25 265.157 160.727 264.828 160.057C264.502 159.383 264.339 158.598 264.339 157.705C264.339 156.811 264.502 156.023 264.828 155.341C265.157 154.655 265.616 154.121 266.203 153.739C266.794 153.352 267.483 153.159 268.271 153.159C268.726 153.159 269.174 153.235 269.618 153.386C270.061 153.538 270.464 153.784 270.828 154.125C271.191 154.462 271.481 154.909 271.697 155.466C271.913 156.023 272.021 156.708 272.021 157.523V158.091H265.294V156.932H270.657C270.657 156.439 270.559 156 270.362 155.614C270.169 155.227 269.892 154.922 269.532 154.699C269.176 154.475 268.756 154.364 268.271 154.364C267.737 154.364 267.275 154.496 266.885 154.761C266.498 155.023 266.201 155.364 265.993 155.784C265.784 156.205 265.68 156.655 265.68 157.136V157.909C265.68 158.568 265.794 159.127 266.021 159.585C266.252 160.04 266.572 160.386 266.981 160.625C267.39 160.86 267.866 160.977 268.407 160.977C268.76 160.977 269.078 160.928 269.362 160.83C269.65 160.727 269.898 160.576 270.106 160.375C270.315 160.17 270.476 159.917 270.589 159.614L271.885 159.977C271.748 160.417 271.519 160.803 271.197 161.136C270.875 161.466 270.477 161.723 270.004 161.909C269.53 162.091 268.998 162.182 268.407 162.182ZM277.856 153.273V154.409H273.333V153.273H277.856ZM274.652 151.182H275.993V159.5C275.993 159.879 276.048 160.163 276.157 160.352C276.271 160.538 276.415 160.663 276.589 160.727C276.767 160.788 276.955 160.818 277.152 160.818C277.299 160.818 277.421 160.811 277.515 160.795C277.61 160.777 277.686 160.761 277.743 160.75L278.015 161.955C277.924 161.989 277.798 162.023 277.635 162.057C277.472 162.095 277.265 162.114 277.015 162.114C276.637 162.114 276.265 162.032 275.902 161.869C275.542 161.706 275.243 161.458 275.004 161.125C274.769 160.792 274.652 160.371 274.652 159.864V151.182ZM283.439 162.182C282.598 162.182 281.872 161.996 281.262 161.625C280.656 161.25 280.189 160.727 279.859 160.057C279.533 159.383 279.37 158.598 279.37 157.705C279.37 156.811 279.533 156.023 279.859 155.341C280.189 154.655 280.647 154.121 281.234 153.739C281.825 153.352 282.514 153.159 283.302 153.159C283.757 153.159 284.206 153.235 284.649 153.386C285.092 153.538 285.495 153.784 285.859 154.125C286.223 154.462 286.512 154.909 286.728 155.466C286.944 156.023 287.052 156.708 287.052 157.523V158.091H280.325V156.932H285.689C285.689 156.439 285.59 156 285.393 155.614C285.2 155.227 284.923 154.922 284.564 154.699C284.208 154.475 283.787 154.364 283.302 154.364C282.768 154.364 282.306 154.496 281.916 154.761C281.53 155.023 281.232 155.364 281.024 155.784C280.816 156.205 280.711 156.655 280.711 157.136V157.909C280.711 158.568 280.825 159.127 281.052 159.585C281.283 160.04 281.603 160.386 282.012 160.625C282.422 160.86 282.897 160.977 283.439 160.977C283.791 160.977 284.109 160.928 284.393 160.83C284.681 160.727 284.929 160.576 285.137 160.375C285.346 160.17 285.507 159.917 285.62 159.614L286.916 159.977C286.78 160.417 286.55 160.803 286.228 161.136C285.906 161.466 285.509 161.723 285.035 161.909C284.562 162.091 284.03 162.182 283.439 162.182ZM292.387 162.182C291.66 162.182 291.018 161.998 290.461 161.631C289.905 161.259 289.469 160.737 289.155 160.062C288.84 159.384 288.683 158.583 288.683 157.659C288.683 156.742 288.84 155.947 289.155 155.273C289.469 154.598 289.906 154.078 290.467 153.71C291.028 153.343 291.675 153.159 292.41 153.159C292.978 153.159 293.427 153.254 293.757 153.443C294.09 153.629 294.344 153.841 294.518 154.08C294.696 154.314 294.834 154.508 294.933 154.659H295.047V150.364H296.387V162H295.092V160.659H294.933C294.834 160.818 294.694 161.019 294.512 161.261C294.331 161.5 294.071 161.714 293.734 161.903C293.397 162.089 292.948 162.182 292.387 162.182ZM292.569 160.977C293.107 160.977 293.562 160.837 293.933 160.557C294.304 160.273 294.586 159.881 294.78 159.381C294.973 158.877 295.069 158.295 295.069 157.636C295.069 156.985 294.975 156.415 294.785 155.926C294.596 155.434 294.316 155.051 293.944 154.778C293.573 154.502 293.115 154.364 292.569 154.364C292.001 154.364 291.528 154.509 291.149 154.801C290.774 155.089 290.492 155.481 290.302 155.977C290.117 156.47 290.024 157.023 290.024 157.636C290.024 158.258 290.119 158.822 290.308 159.33C290.501 159.833 290.785 160.235 291.16 160.534C291.539 160.83 292.009 160.977 292.569 160.977ZM143.561 181V172.273H144.856V173.591H144.947C145.106 173.159 145.394 172.809 145.811 172.54C146.227 172.271 146.697 172.136 147.22 172.136C147.318 172.136 147.441 172.138 147.589 172.142C147.737 172.146 147.849 172.152 147.924 172.159V173.523C147.879 173.511 147.775 173.494 147.612 173.472C147.453 173.445 147.284 173.432 147.106 173.432C146.682 173.432 146.303 173.521 145.97 173.699C145.64 173.873 145.379 174.116 145.186 174.426C144.996 174.733 144.902 175.083 144.902 175.477V181H143.561ZM152.907 181.182C152.066 181.182 151.341 180.996 150.731 180.625C150.125 180.25 149.657 179.727 149.328 179.057C149.002 178.383 148.839 177.598 148.839 176.705C148.839 175.811 149.002 175.023 149.328 174.341C149.657 173.655 150.116 173.121 150.703 172.739C151.294 172.352 151.983 172.159 152.771 172.159C153.226 172.159 153.674 172.235 154.118 172.386C154.561 172.538 154.964 172.784 155.328 173.125C155.691 173.462 155.981 173.909 156.197 174.466C156.413 175.023 156.521 175.708 156.521 176.523V177.091H149.794V175.932H155.157C155.157 175.439 155.059 175 154.862 174.614C154.669 174.227 154.392 173.922 154.032 173.699C153.676 173.475 153.256 173.364 152.771 173.364C152.237 173.364 151.775 173.496 151.385 173.761C150.998 174.023 150.701 174.364 150.493 174.784C150.284 175.205 150.18 175.655 150.18 176.136V176.909C150.18 177.568 150.294 178.127 150.521 178.585C150.752 179.04 151.072 179.386 151.481 179.625C151.89 179.86 152.366 179.977 152.907 179.977C153.26 179.977 153.578 179.928 153.862 179.83C154.15 179.727 154.398 179.576 154.606 179.375C154.815 179.17 154.976 178.917 155.089 178.614L156.385 178.977C156.248 179.417 156.019 179.803 155.697 180.136C155.375 180.466 154.977 180.723 154.504 180.909C154.03 181.091 153.498 181.182 152.907 181.182ZM165.432 172.273L162.204 181H160.841L157.613 172.273H159.068L161.477 179.227H161.568L163.977 172.273H165.432ZM170.548 181.182C169.707 181.182 168.982 180.996 168.372 180.625C167.766 180.25 167.298 179.727 166.968 179.057C166.643 178.383 166.48 177.598 166.48 176.705C166.48 175.811 166.643 175.023 166.968 174.341C167.298 173.655 167.756 173.121 168.343 172.739C168.934 172.352 169.624 172.159 170.412 172.159C170.866 172.159 171.315 172.235 171.758 172.386C172.201 172.538 172.605 172.784 172.968 173.125C173.332 173.462 173.622 173.909 173.838 174.466C174.054 175.023 174.162 175.708 174.162 176.523V177.091H167.434V175.932H172.798C172.798 175.439 172.7 175 172.503 174.614C172.309 174.227 172.033 173.922 171.673 173.699C171.317 173.475 170.896 173.364 170.412 173.364C169.878 173.364 169.415 173.496 169.025 173.761C168.639 174.023 168.342 174.364 168.133 174.784C167.925 175.205 167.821 175.655 167.821 176.136V176.909C167.821 177.568 167.934 178.127 168.162 178.585C168.393 179.04 168.713 179.386 169.122 179.625C169.531 179.86 170.006 179.977 170.548 179.977C170.9 179.977 171.218 179.928 171.503 179.83C171.79 179.727 172.039 179.576 172.247 179.375C172.455 179.17 172.616 178.917 172.73 178.614L174.025 178.977C173.889 179.417 173.66 179.803 173.338 180.136C173.016 180.466 172.618 180.723 172.145 180.909C171.671 181.091 171.139 181.182 170.548 181.182ZM177.542 175.75V181H176.201V172.273H177.497V173.636H177.61C177.815 173.193 178.126 172.837 178.542 172.568C178.959 172.295 179.497 172.159 180.156 172.159C180.747 172.159 181.264 172.28 181.707 172.523C182.15 172.761 182.495 173.125 182.741 173.614C182.987 174.098 183.11 174.712 183.11 175.455V181H181.77V175.545C181.77 174.86 181.592 174.326 181.235 173.943C180.879 173.557 180.391 173.364 179.77 173.364C179.342 173.364 178.959 173.456 178.622 173.642C178.289 173.828 178.025 174.098 177.832 174.455C177.639 174.811 177.542 175.242 177.542 175.75ZM191.061 177.432V172.273H192.402V181H191.061V179.523H190.97C190.765 179.966 190.447 180.343 190.015 180.653C189.583 180.96 189.038 181.114 188.379 181.114C187.833 181.114 187.349 180.994 186.924 180.756C186.5 180.513 186.167 180.15 185.924 179.665C185.682 179.176 185.561 178.561 185.561 177.818V172.273H186.902V177.727C186.902 178.364 187.08 178.871 187.436 179.25C187.796 179.629 188.254 179.818 188.811 179.818C189.144 179.818 189.483 179.733 189.828 179.562C190.176 179.392 190.468 179.131 190.703 178.778C190.941 178.426 191.061 177.977 191.061 177.432ZM198.517 181.182C197.676 181.182 196.95 180.996 196.341 180.625C195.735 180.25 195.267 179.727 194.937 179.057C194.611 178.383 194.449 177.598 194.449 176.705C194.449 175.811 194.611 175.023 194.937 174.341C195.267 173.655 195.725 173.121 196.312 172.739C196.903 172.352 197.592 172.159 198.38 172.159C198.835 172.159 199.284 172.235 199.727 172.386C200.17 172.538 200.574 172.784 200.937 173.125C201.301 173.462 201.591 173.909 201.807 174.466C202.022 175.023 202.13 175.708 202.13 176.523V177.091H195.403V175.932H200.767C200.767 175.439 200.668 175 200.471 174.614C200.278 174.227 200.002 173.922 199.642 173.699C199.286 173.475 198.865 173.364 198.38 173.364C197.846 173.364 197.384 173.496 196.994 173.761C196.608 174.023 196.31 174.364 196.102 174.784C195.894 175.205 195.789 175.655 195.789 176.136V176.909C195.789 177.568 195.903 178.127 196.13 178.585C196.361 179.04 196.682 179.386 197.091 179.625C197.5 179.86 197.975 179.977 198.517 179.977C198.869 179.977 199.187 179.928 199.471 179.83C199.759 179.727 200.007 179.576 200.216 179.375C200.424 179.17 200.585 178.917 200.699 178.614L201.994 178.977C201.858 179.417 201.628 179.803 201.307 180.136C200.985 180.466 200.587 180.723 200.113 180.909C199.64 181.091 199.108 181.182 198.517 181.182ZM208.852 181V169.364H210.193V173.659H210.307C210.405 173.508 210.541 173.314 210.716 173.08C210.894 172.841 211.147 172.629 211.477 172.443C211.81 172.254 212.261 172.159 212.829 172.159C213.564 172.159 214.212 172.343 214.772 172.71C215.333 173.078 215.771 173.598 216.085 174.273C216.399 174.947 216.557 175.742 216.557 176.659C216.557 177.583 216.399 178.384 216.085 179.062C215.771 179.737 215.335 180.259 214.778 180.631C214.221 180.998 213.579 181.182 212.852 181.182C212.291 181.182 211.842 181.089 211.505 180.903C211.168 180.714 210.909 180.5 210.727 180.261C210.545 180.019 210.405 179.818 210.307 179.659H210.147V181H208.852ZM210.17 176.636C210.17 177.295 210.267 177.877 210.46 178.381C210.653 178.881 210.935 179.273 211.307 179.557C211.678 179.837 212.132 179.977 212.67 179.977C213.231 179.977 213.699 179.83 214.074 179.534C214.452 179.235 214.736 178.833 214.926 178.33C215.119 177.822 215.216 177.258 215.216 176.636C215.216 176.023 215.121 175.47 214.932 174.977C214.746 174.481 214.464 174.089 214.085 173.801C213.71 173.509 213.238 173.364 212.67 173.364C212.125 173.364 211.666 173.502 211.295 173.778C210.924 174.051 210.644 174.434 210.454 174.926C210.265 175.415 210.17 175.985 210.17 176.636ZM219.159 184.273C218.932 184.273 218.729 184.254 218.551 184.216C218.373 184.182 218.25 184.148 218.182 184.114L218.522 182.932C218.848 183.015 219.136 183.045 219.386 183.023C219.636 183 219.858 182.888 220.051 182.688C220.248 182.491 220.428 182.17 220.591 181.727L220.841 181.045L217.613 172.273H219.068L221.477 179.227H221.568L223.977 172.273H225.432L221.727 182.273C221.56 182.723 221.354 183.097 221.108 183.392C220.861 183.691 220.575 183.913 220.25 184.057C219.928 184.201 219.564 184.273 219.159 184.273ZM235.77 169.364V181H234.36V170.841H234.292L231.451 172.727V171.295L234.36 169.364H235.77ZM238.843 178.614V177.455L243.957 169.364H244.798V171.159H244.23L240.366 177.273V177.364H247.253V178.614H238.843ZM244.321 181V178.261V177.722V169.364H245.662V181H244.321ZM255.314 178.818V178.205C255.314 177.78 255.401 177.392 255.575 177.04C255.753 176.684 256.011 176.4 256.348 176.188C256.689 175.972 257.101 175.864 257.586 175.864C258.079 175.864 258.492 175.972 258.825 176.188C259.158 176.4 259.41 176.684 259.581 177.04C259.751 177.392 259.836 177.78 259.836 178.205V178.818C259.836 179.242 259.749 179.633 259.575 179.989C259.405 180.341 259.151 180.625 258.814 180.841C258.48 181.053 258.071 181.159 257.586 181.159C257.094 181.159 256.679 181.053 256.342 180.841C256.005 180.625 255.749 180.341 255.575 179.989C255.401 179.633 255.314 179.242 255.314 178.818ZM256.473 178.205V178.818C256.473 179.17 256.556 179.487 256.723 179.767C256.889 180.044 257.177 180.182 257.586 180.182C257.984 180.182 258.264 180.044 258.427 179.767C258.594 179.487 258.677 179.17 258.677 178.818V178.205C258.677 177.852 258.598 177.538 258.439 177.261C258.28 176.981 257.995 176.841 257.586 176.841C257.189 176.841 256.903 176.981 256.728 177.261C256.558 177.538 256.473 177.852 256.473 178.205ZM249.518 172.159V171.545C249.518 171.121 249.605 170.733 249.78 170.381C249.958 170.025 250.215 169.741 250.552 169.528C250.893 169.312 251.306 169.205 251.791 169.205C252.283 169.205 252.696 169.312 253.03 169.528C253.363 169.741 253.615 170.025 253.785 170.381C253.956 170.733 254.041 171.121 254.041 171.545V172.159C254.041 172.583 253.954 172.973 253.78 173.33C253.609 173.682 253.355 173.966 253.018 174.182C252.685 174.394 252.276 174.5 251.791 174.5C251.298 174.5 250.884 174.394 250.547 174.182C250.209 173.966 249.954 173.682 249.78 173.33C249.605 172.973 249.518 172.583 249.518 172.159ZM250.677 171.545V172.159C250.677 172.511 250.761 172.828 250.927 173.108C251.094 173.384 251.382 173.523 251.791 173.523C252.189 173.523 252.469 173.384 252.632 173.108C252.798 172.828 252.882 172.511 252.882 172.159V171.545C252.882 171.193 252.802 170.879 252.643 170.602C252.484 170.322 252.2 170.182 251.791 170.182C251.393 170.182 251.107 170.322 250.933 170.602C250.762 170.879 250.677 171.193 250.677 171.545ZM249.95 181L257.95 169.364H259.245L251.245 181H249.95Z" fill="#24408E"/>
</svg>
