<svg width="100%" viewBox="0 0 1296 77" fill="none" xmlns="http://www.w3.org/2000/svg">
<mask id="path-1-inside-1_158_1298" fill="white">
<path d="M0 0H1296V77H0V0Z"/>
</mask>
<path d="M0 0H1296V77H0V0Z" fill="#4986E8" fill-opacity="0.2"/>
<path d="M0 3H1296V-3H0V3Z" fill="#4986E8" mask="url(#path-1-inside-1_158_1298)"/>
<path d="M513.56 29.5455V47H511.14L502.268 34.1989H502.106V47H499.472V29.5455H501.91L510.79 42.3636H510.952V29.5455H513.56ZM525.49 41.571V33.9091H528.047V47H525.541V44.733H525.405C525.104 45.4318 524.621 46.0142 523.956 46.4801C523.297 46.9403 522.476 47.1705 521.493 47.1705C520.652 47.1705 519.908 46.9858 519.26 46.6165C518.618 46.2415 518.112 45.6875 517.743 44.9545C517.379 44.2216 517.197 43.3153 517.197 42.2358V33.9091H519.746V41.929C519.746 42.821 519.993 43.5312 520.487 44.0597C520.982 44.5881 521.624 44.8523 522.413 44.8523C522.891 44.8523 523.365 44.733 523.837 44.4943C524.314 44.2557 524.709 43.8949 525.021 43.4119C525.339 42.929 525.496 42.3153 525.49 41.571ZM531.471 47V33.9091H533.917V36.0398H534.079C534.352 35.3182 534.798 34.7557 535.417 34.3523C536.036 33.9432 536.778 33.7386 537.641 33.7386C538.516 33.7386 539.249 33.9432 539.84 34.3523C540.437 34.7614 540.877 35.3239 541.161 36.0398H541.298C541.61 35.3409 542.107 34.7841 542.789 34.3693C543.471 33.9489 544.283 33.7386 545.227 33.7386C546.414 33.7386 547.383 34.1108 548.133 34.8551C548.888 35.5994 549.266 36.7216 549.266 38.2216V47H546.718V38.4602C546.718 37.5739 546.477 36.9318 545.994 36.5341C545.511 36.1364 544.934 35.9375 544.263 35.9375C543.434 35.9375 542.789 36.1932 542.329 36.7045C541.869 37.2102 541.638 37.8608 541.638 38.6562V47H539.099V38.2983C539.099 37.5881 538.877 37.017 538.434 36.5852C537.991 36.1534 537.414 35.9375 536.704 35.9375C536.221 35.9375 535.775 36.0653 535.366 36.321C534.962 36.571 534.636 36.9205 534.386 37.3693C534.141 37.8182 534.019 38.3381 534.019 38.929V47H531.471ZM552.886 47V29.5455H555.435V36.0312H555.588C555.736 35.7585 555.949 35.4432 556.227 35.0852C556.506 34.7273 556.892 34.4148 557.386 34.1477C557.881 33.875 558.534 33.7386 559.347 33.7386C560.403 33.7386 561.347 34.0057 562.176 34.5398C563.006 35.0739 563.656 35.8437 564.128 36.8494C564.605 37.8551 564.844 39.0653 564.844 40.4801C564.844 41.8949 564.608 43.108 564.136 44.1193C563.665 45.125 563.017 45.9006 562.193 46.446C561.369 46.9858 560.429 47.2557 559.372 47.2557C558.577 47.2557 557.926 47.1222 557.42 46.8551C556.92 46.5881 556.528 46.2756 556.244 45.9176C555.96 45.5597 555.741 45.2415 555.588 44.9631H555.375V47H552.886ZM555.384 40.4545C555.384 41.375 555.517 42.1818 555.784 42.875C556.051 43.5682 556.438 44.1108 556.943 44.5028C557.449 44.8892 558.068 45.0824 558.801 45.0824C559.562 45.0824 560.199 44.8807 560.71 44.4773C561.222 44.0682 561.608 43.5142 561.869 42.8153C562.136 42.1165 562.27 41.3295 562.27 40.4545C562.27 39.5909 562.139 38.8153 561.878 38.1278C561.622 37.4403 561.236 36.8977 560.719 36.5C560.207 36.1023 559.568 35.9034 558.801 35.9034C558.062 35.9034 557.438 36.0937 556.926 36.4744C556.42 36.8551 556.037 37.3864 555.776 38.0682C555.514 38.75 555.384 39.5455 555.384 40.4545ZM573.347 47.2642C572.058 47.2642 570.947 46.9886 570.015 46.4375C569.089 45.8807 568.373 45.0994 567.867 44.0938C567.367 43.0824 567.117 41.8977 567.117 40.5398C567.117 39.1989 567.367 38.017 567.867 36.9943C568.373 35.9716 569.077 35.1733 569.981 34.5994C570.89 34.0256 571.952 33.7386 573.168 33.7386C573.907 33.7386 574.623 33.8608 575.316 34.1051C576.009 34.3494 576.631 34.733 577.183 35.2557C577.734 35.7784 578.168 36.4574 578.487 37.2926C578.805 38.1222 578.964 39.1307 578.964 40.3182V41.2216H568.558V39.3125H576.467C576.467 38.642 576.33 38.0483 576.058 37.5312C575.785 37.0085 575.401 36.5966 574.907 36.2955C574.418 35.9943 573.844 35.8438 573.185 35.8438C572.469 35.8438 571.844 36.0199 571.31 36.3722C570.782 36.7187 570.373 37.1733 570.083 37.7358C569.799 38.2926 569.657 38.8977 569.657 39.5511V41.0426C569.657 41.9176 569.81 42.6619 570.117 43.2756C570.43 43.8892 570.864 44.358 571.421 44.6818C571.978 45 572.629 45.1591 573.373 45.1591C573.856 45.1591 574.296 45.0909 574.694 44.9545C575.092 44.8125 575.435 44.6023 575.725 44.3239C576.015 44.0455 576.237 43.7017 576.39 43.2926L578.802 43.7273C578.609 44.4375 578.262 45.0597 577.762 45.5938C577.268 46.1222 576.646 46.5341 575.896 46.8295C575.151 47.1193 574.302 47.2642 573.347 47.2642ZM581.791 47V33.9091H584.254V35.9886H584.391C584.629 35.2841 585.05 34.7301 585.652 34.3267C586.26 33.9176 586.947 33.7131 587.714 33.7131C587.874 33.7131 588.061 33.7187 588.277 33.7301C588.499 33.7415 588.672 33.7557 588.797 33.7727V36.2102C588.695 36.1818 588.513 36.1506 588.251 36.1165C587.99 36.0767 587.729 36.0568 587.467 36.0568C586.865 36.0568 586.328 36.1847 585.857 36.4403C585.391 36.6903 585.021 37.0398 584.749 37.4886C584.476 37.9318 584.339 38.4375 584.339 39.0057V47H581.791ZM612.72 38.2727C612.72 40.1364 612.379 41.7386 611.697 43.0795C611.016 44.4148 610.081 45.4432 608.893 46.1648C607.712 46.8807 606.368 47.2386 604.862 47.2386C603.351 47.2386 602.001 46.8807 600.814 46.1648C599.632 45.4432 598.7 44.4119 598.018 43.071C597.337 41.7301 596.996 40.1307 596.996 38.2727C596.996 36.4091 597.337 34.8097 598.018 33.4744C598.7 32.1335 599.632 31.1051 600.814 30.3892C602.001 29.6676 603.351 29.3068 604.862 29.3068C606.368 29.3068 607.712 29.6676 608.893 30.3892C610.081 31.1051 611.016 32.1335 611.697 33.4744C612.379 34.8097 612.72 36.4091 612.72 38.2727ZM610.112 38.2727C610.112 36.8523 609.882 35.6562 609.422 34.6847C608.967 33.7074 608.342 32.9688 607.547 32.4688C606.757 31.9631 605.862 31.7102 604.862 31.7102C603.857 31.7102 602.959 31.9631 602.169 32.4688C601.379 32.9688 600.754 33.7074 600.294 34.6847C599.839 35.6562 599.612 36.8523 599.612 38.2727C599.612 39.6932 599.839 40.892 600.294 41.8693C600.754 42.8409 601.379 43.5795 602.169 44.0852C602.959 44.5852 603.857 44.8352 604.862 44.8352C605.862 44.8352 606.757 44.5852 607.547 44.0852C608.342 43.5795 608.967 42.8409 609.422 41.8693C609.882 40.892 610.112 39.6932 610.112 38.2727ZM618.347 39.2273V47H615.799V33.9091H618.245V36.0398H618.407C618.708 35.3466 619.18 34.7898 619.822 34.3693C620.469 33.9489 621.285 33.7386 622.268 33.7386C623.16 33.7386 623.941 33.9261 624.612 34.3011C625.282 34.6705 625.802 35.2216 626.171 35.9545C626.54 36.6875 626.725 37.5937 626.725 38.6733V47H624.177V38.9801C624.177 38.0312 623.93 37.2898 623.435 36.7557C622.941 36.2159 622.262 35.946 621.398 35.946C620.808 35.946 620.282 36.0739 619.822 36.3295C619.367 36.5852 619.006 36.9602 618.739 37.4545C618.478 37.9432 618.347 38.5341 618.347 39.2273ZM635.785 47.2642C634.495 47.2642 633.384 46.9886 632.452 46.4375C631.526 45.8807 630.81 45.0994 630.305 44.0938C629.805 43.0824 629.555 41.8977 629.555 40.5398C629.555 39.1989 629.805 38.017 630.305 36.9943C630.81 35.9716 631.515 35.1733 632.418 34.5994C633.327 34.0256 634.39 33.7386 635.606 33.7386C636.344 33.7386 637.06 33.8608 637.754 34.1051C638.447 34.3494 639.069 34.733 639.62 35.2557C640.171 35.7784 640.606 36.4574 640.924 37.2926C641.242 38.1222 641.401 39.1307 641.401 40.3182V41.2216H630.995V39.3125H638.904C638.904 38.642 638.768 38.0483 638.495 37.5312C638.222 37.0085 637.839 36.5966 637.344 36.2955C636.856 35.9943 636.282 35.8438 635.623 35.8438C634.907 35.8438 634.282 36.0199 633.748 36.3722C633.219 36.7187 632.81 37.1733 632.521 37.7358C632.237 38.2926 632.094 38.8977 632.094 39.5511V41.0426C632.094 41.9176 632.248 42.6619 632.555 43.2756C632.867 43.8892 633.302 44.358 633.859 44.6818C634.415 45 635.066 45.1591 635.81 45.1591C636.293 45.1591 636.734 45.0909 637.131 44.9545C637.529 44.8125 637.873 44.6023 638.163 44.3239C638.452 44.0455 638.674 43.7017 638.827 43.2926L641.239 43.7273C641.046 44.4375 640.7 45.0597 640.2 45.5938C639.705 46.1222 639.083 46.5341 638.333 46.8295C637.589 47.1193 636.739 47.2642 635.785 47.2642ZM650.58 47V33.9091H653.129V47H650.58ZM651.867 31.8892C651.424 31.8892 651.043 31.7415 650.725 31.446C650.413 31.1449 650.256 30.7869 650.256 30.3722C650.256 29.9517 650.413 29.5937 650.725 29.2983C651.043 28.9972 651.424 28.8466 651.867 28.8466C652.31 28.8466 652.688 28.9972 653.001 29.2983C653.319 29.5937 653.478 29.9517 653.478 30.3722C653.478 30.7869 653.319 31.1449 653.001 31.446C652.688 31.7415 652.31 31.8892 651.867 31.8892ZM659.105 39.2273V47H656.557V33.9091H659.003V36.0398H659.165C659.466 35.3466 659.938 34.7898 660.58 34.3693C661.227 33.9489 662.043 33.7386 663.026 33.7386C663.918 33.7386 664.699 33.9261 665.369 34.3011C666.04 34.6705 666.56 35.2216 666.929 35.9545C667.298 36.6875 667.483 37.5937 667.483 38.6733V47H664.935V38.9801C664.935 38.0312 664.688 37.2898 664.193 36.7557C663.699 36.2159 663.02 35.946 662.156 35.946C661.565 35.946 661.04 36.0739 660.58 36.3295C660.125 36.5852 659.764 36.9602 659.497 37.4545C659.236 37.9432 659.105 38.5341 659.105 39.2273ZM678.931 47H676.136L682.417 29.5455H685.46L691.741 47H688.945L684.011 32.7159H683.874L678.931 47ZM679.4 40.1648H688.468V42.3807H679.4V40.1648ZM696.605 39.2273V47H694.057V33.9091H696.503V36.0398H696.665C696.966 35.3466 697.438 34.7898 698.08 34.3693C698.727 33.9489 699.543 33.7386 700.526 33.7386C701.418 33.7386 702.199 33.9261 702.869 34.3011C703.54 34.6705 704.06 35.2216 704.429 35.9545C704.798 36.6875 704.983 37.5937 704.983 38.6733V47H702.435V38.9801C702.435 38.0312 702.188 37.2898 701.693 36.7557C701.199 36.2159 700.52 35.946 699.656 35.946C699.065 35.946 698.54 36.0739 698.08 36.3295C697.625 36.5852 697.264 36.9602 696.997 37.4545C696.736 37.9432 696.605 38.5341 696.605 39.2273ZM714.511 33.9091V35.9545H707.361V33.9091H714.511ZM709.278 30.7727H711.827V43.1562C711.827 43.6506 711.901 44.0227 712.048 44.2727C712.196 44.517 712.386 44.6847 712.619 44.7756C712.858 44.8608 713.116 44.9034 713.395 44.9034C713.599 44.9034 713.778 44.8892 713.932 44.8608C714.085 44.8324 714.205 44.8097 714.29 44.7926L714.75 46.8977C714.602 46.9545 714.392 47.0114 714.119 47.0682C713.847 47.1307 713.506 47.1648 713.097 47.1705C712.426 47.1818 711.801 47.0625 711.222 46.8125C710.642 46.5625 710.173 46.1761 709.815 45.6534C709.457 45.1307 709.278 44.4744 709.278 43.6847V30.7727ZM717.33 47V33.9091H719.879V47H717.33ZM718.617 31.8892C718.174 31.8892 717.793 31.7415 717.475 31.446C717.163 31.1449 717.006 30.7869 717.006 30.3722C717.006 29.9517 717.163 29.5937 717.475 29.2983C717.793 28.9972 718.174 28.8466 718.617 28.8466C719.06 28.8466 719.438 28.9972 719.751 29.2983C720.069 29.5937 720.228 29.9517 720.228 30.3722C720.228 30.7869 720.069 31.1449 719.751 31.446C719.438 31.7415 719.06 31.8892 718.617 31.8892ZM723.511 47V29.5455H726.06V36.0312H726.213C726.361 35.7585 726.574 35.4432 726.852 35.0852C727.131 34.7273 727.517 34.4148 728.011 34.1477C728.506 33.875 729.159 33.7386 729.972 33.7386C731.028 33.7386 731.972 34.0057 732.801 34.5398C733.631 35.0739 734.281 35.8437 734.753 36.8494C735.23 37.8551 735.469 39.0653 735.469 40.4801C735.469 41.8949 735.233 43.108 734.761 44.1193C734.29 45.125 733.642 45.9006 732.818 46.446C731.994 46.9858 731.054 47.2557 729.997 47.2557C729.202 47.2557 728.551 47.1222 728.045 46.8551C727.545 46.5881 727.153 46.2756 726.869 45.9176C726.585 45.5597 726.366 45.2415 726.213 44.9631H726V47H723.511ZM726.009 40.4545C726.009 41.375 726.142 42.1818 726.409 42.875C726.676 43.5682 727.063 44.1108 727.568 44.5028C728.074 44.8892 728.693 45.0824 729.426 45.0824C730.188 45.0824 730.824 44.8807 731.335 44.4773C731.847 44.0682 732.233 43.5142 732.494 42.8153C732.761 42.1165 732.895 41.3295 732.895 40.4545C732.895 39.5909 732.764 38.8153 732.503 38.1278C732.247 37.4403 731.861 36.8977 731.344 36.5C730.832 36.1023 730.193 35.9034 729.426 35.9034C728.688 35.9034 728.062 36.0937 727.551 36.4744C727.045 36.8551 726.662 37.3864 726.401 38.0682C726.139 38.75 726.009 39.5455 726.009 40.4545ZM738.33 47V33.9091H740.879V47H738.33ZM739.617 31.8892C739.174 31.8892 738.793 31.7415 738.475 31.446C738.163 31.1449 738.006 30.7869 738.006 30.3722C738.006 29.9517 738.163 29.5937 738.475 29.2983C738.793 28.9972 739.174 28.8466 739.617 28.8466C740.06 28.8466 740.438 28.9972 740.751 29.2983C741.069 29.5937 741.228 29.9517 741.228 30.3722C741.228 30.7869 741.069 31.1449 740.751 31.446C740.438 31.7415 740.06 31.8892 739.617 31.8892ZM749.821 47.2642C748.594 47.2642 747.523 46.983 746.608 46.4205C745.693 45.858 744.983 45.071 744.477 44.0597C743.972 43.0483 743.719 41.8665 743.719 40.5142C743.719 39.1562 743.972 37.9687 744.477 36.9517C744.983 35.9347 745.693 35.1449 746.608 34.5824C747.523 34.0199 748.594 33.7386 749.821 33.7386C751.048 33.7386 752.119 34.0199 753.034 34.5824C753.949 35.1449 754.659 35.9347 755.165 36.9517C755.67 37.9687 755.923 39.1562 755.923 40.5142C755.923 41.8665 755.67 43.0483 755.165 44.0597C754.659 45.071 753.949 45.858 753.034 46.4205C752.119 46.983 751.048 47.2642 749.821 47.2642ZM749.83 45.125C750.625 45.125 751.284 44.9148 751.807 44.4943C752.33 44.0739 752.716 43.5142 752.966 42.8153C753.222 42.1165 753.349 41.3466 753.349 40.5057C753.349 39.6705 753.222 38.9034 752.966 38.2045C752.716 37.5 752.33 36.9347 751.807 36.5085C751.284 36.0824 750.625 35.8693 749.83 35.8693C749.028 35.8693 748.364 36.0824 747.835 36.5085C747.313 36.9347 746.923 37.5 746.668 38.2045C746.418 38.9034 746.293 39.6705 746.293 40.5057C746.293 41.3466 746.418 42.1165 746.668 42.8153C746.923 43.5142 747.313 44.0739 747.835 44.4943C748.364 44.9148 749.028 45.125 749.83 45.125ZM764.879 33.9091V35.9545H757.728V33.9091H764.879ZM759.646 30.7727H762.194V43.1562C762.194 43.6506 762.268 44.0227 762.415 44.2727C762.563 44.517 762.754 44.6847 762.987 44.7756C763.225 44.8608 763.484 44.9034 763.762 44.9034C763.967 44.9034 764.146 44.8892 764.299 44.8608C764.452 44.8324 764.572 44.8097 764.657 44.7926L765.117 46.8977C764.969 46.9545 764.759 47.0114 764.487 47.0682C764.214 47.1307 763.873 47.1648 763.464 47.1705C762.793 47.1818 762.168 47.0625 761.589 46.8125C761.009 46.5625 760.54 46.1761 760.183 45.6534C759.825 45.1307 759.646 44.4744 759.646 43.6847V30.7727ZM767.697 47V33.9091H770.246V47H767.697ZM768.984 31.8892C768.541 31.8892 768.161 31.7415 767.842 31.446C767.53 31.1449 767.374 30.7869 767.374 30.3722C767.374 29.9517 767.53 29.5937 767.842 29.2983C768.161 28.9972 768.541 28.8466 768.984 28.8466C769.428 28.8466 769.805 28.9972 770.118 29.2983C770.436 29.5937 770.595 29.9517 770.595 30.3722C770.595 30.7869 770.436 31.1449 770.118 31.446C769.805 31.7415 769.428 31.8892 768.984 31.8892ZM779.188 47.2642C777.921 47.2642 776.83 46.9773 775.915 46.4034C775.006 45.8239 774.308 45.0256 773.819 44.0085C773.33 42.9915 773.086 41.8267 773.086 40.5142C773.086 39.1847 773.336 38.0114 773.836 36.9943C774.336 35.9716 775.04 35.1733 775.95 34.5994C776.859 34.0256 777.93 33.7386 779.163 33.7386C780.157 33.7386 781.043 33.9233 781.822 34.2926C782.6 34.6562 783.228 35.1676 783.705 35.8267C784.188 36.4858 784.475 37.2557 784.566 38.1364H782.086C781.95 37.5227 781.637 36.9943 781.148 36.5511C780.665 36.108 780.018 35.8864 779.205 35.8864C778.495 35.8864 777.873 36.0739 777.339 36.4489C776.81 36.8182 776.398 37.3466 776.103 38.0341C775.808 38.7159 775.66 39.5227 775.66 40.4545C775.66 41.4091 775.805 42.233 776.094 42.9261C776.384 43.6193 776.793 44.1562 777.322 44.5369C777.856 44.9176 778.484 45.108 779.205 45.108C779.688 45.108 780.126 45.0199 780.518 44.8438C780.915 44.6619 781.248 44.4034 781.515 44.0682C781.788 43.733 781.978 43.3295 782.086 42.858H784.566C784.475 43.7045 784.2 44.4602 783.739 45.125C783.279 45.7898 782.663 46.3125 781.89 46.6932C781.123 47.0739 780.222 47.2642 779.188 47.2642ZM797.101 37.1051L794.791 37.5142C794.695 37.2187 794.541 36.9375 794.331 36.6705C794.126 36.4034 793.848 36.1847 793.496 36.0142C793.143 35.8437 792.703 35.7585 792.175 35.7585C791.453 35.7585 790.851 35.9205 790.368 36.2443C789.885 36.5625 789.643 36.9744 789.643 37.4801C789.643 37.9176 789.805 38.2699 790.129 38.5369C790.453 38.804 790.976 39.0227 791.697 39.1932L793.777 39.6705C794.982 39.9489 795.879 40.3778 796.47 40.9574C797.061 41.5369 797.357 42.2898 797.357 43.2159C797.357 44 797.129 44.6989 796.675 45.3125C796.226 45.9205 795.598 46.3977 794.791 46.7443C793.99 47.0909 793.061 47.2642 792.004 47.2642C790.538 47.2642 789.342 46.9517 788.416 46.3267C787.49 45.696 786.922 44.8011 786.712 43.642L789.175 43.267C789.328 43.9091 789.643 44.3949 790.121 44.7244C790.598 45.0483 791.22 45.2102 791.987 45.2102C792.822 45.2102 793.49 45.0369 793.99 44.6903C794.49 44.3381 794.74 43.9091 794.74 43.4034C794.74 42.9943 794.587 42.6506 794.28 42.3722C793.979 42.0937 793.516 41.8835 792.891 41.7415L790.675 41.2557C789.453 40.9773 788.55 40.5341 787.964 39.9261C787.385 39.3182 787.095 38.5483 787.095 37.6165C787.095 36.8437 787.311 36.1676 787.743 35.5881C788.175 35.0085 788.771 34.5568 789.533 34.233C790.294 33.9034 791.166 33.7386 792.149 33.7386C793.564 33.7386 794.678 34.0455 795.49 34.6591C796.303 35.267 796.839 36.0824 797.101 37.1051Z" fill="#24408E"/>
</svg>
