<svg width="100%" viewBox="0 0 1920 1051" fill="none" xmlns="http://www.w3.org/2000/svg">
<path d="M333.944 744.72C329.752 744.72 326.072 743.936 322.904 742.368C319.768 740.8 317.32 738.624 315.56 735.84C313.8 733.024 312.92 729.744 312.92 726C312.92 722.256 313.8 718.992 315.56 716.208C317.32 713.392 319.768 711.2 322.904 709.632C326.072 708.064 329.752 707.28 333.944 707.28C338.136 707.28 341.8 708.064 344.936 709.632C348.104 711.2 350.568 713.392 352.328 716.208C354.088 718.992 354.968 722.256 354.968 726C354.968 729.744 354.088 733.024 352.328 735.84C350.568 738.624 348.104 740.8 344.936 742.368C341.8 743.936 338.136 744.72 333.944 744.72ZM333.944 737.472C336.568 737.472 338.824 737.008 340.712 736.08C342.632 735.152 344.104 733.824 345.128 732.096C346.184 730.368 346.712 728.336 346.712 726C346.712 723.664 346.184 721.632 345.128 719.904C344.104 718.176 342.632 716.848 340.712 715.92C338.824 714.992 336.568 714.528 333.944 714.528C331.352 714.528 329.096 714.992 327.176 715.92C325.256 716.848 323.768 718.176 322.712 719.904C321.688 721.632 321.176 723.664 321.176 726C321.176 728.336 321.688 730.368 322.712 732.096C323.768 733.824 325.256 735.152 327.176 736.08C329.096 737.008 331.352 737.472 333.944 737.472ZM368.267 728.208C368.267 730.128 368.635 731.776 369.371 733.152C370.107 734.528 371.179 735.6 372.587 736.368C374.027 737.104 375.755 737.472 377.771 737.472C379.819 737.472 381.547 737.104 382.955 736.368C384.363 735.6 385.435 734.528 386.171 733.152C386.907 731.776 387.275 730.128 387.275 728.208V708H395.435V728.592C395.435 731.824 394.699 734.656 393.227 737.088C391.755 739.488 389.691 741.36 387.035 742.704C384.379 744.048 381.291 744.72 377.771 744.72C374.251 744.72 371.163 744.048 368.507 742.704C365.883 741.36 363.819 739.488 362.315 737.088C360.843 734.656 360.107 731.824 360.107 728.592V708H368.267V728.208ZM408.016 723.984H421.888C423.712 723.984 425.152 723.568 426.208 722.736C427.296 721.872 427.84 720.688 427.84 719.184C427.84 717.68 427.296 716.512 426.208 715.68C425.152 714.848 423.712 714.432 421.888 714.432H406.816L410.512 710.256V744H402.352V708H422.848C425.472 708 427.776 708.48 429.76 709.44C431.744 710.368 433.296 711.664 434.416 713.328C435.536 714.992 436.096 716.944 436.096 719.184C436.096 721.392 435.536 723.328 434.416 724.992C433.296 726.656 431.744 727.968 429.76 728.928C427.776 729.856 425.472 730.32 422.848 730.32H408.016V723.984ZM414.256 727.152H423.568L437.152 744H427.6L414.256 727.152ZM320.6 800.416V793.792H345.56V800.416H320.6ZM338.504 772L355.352 808H346.664L331.928 775.312H334.616L319.88 808H311.192L328.04 772H338.504ZM396.141 793.36C395.789 796.4 394.717 799.088 392.925 801.424C391.165 803.728 388.829 805.52 385.917 806.8C383.037 808.08 379.741 808.72 376.029 808.72C371.933 808.72 368.333 807.936 365.229 806.368C362.157 804.8 359.757 802.624 358.029 799.84C356.301 797.024 355.437 793.744 355.437 790C355.437 786.256 356.301 782.992 358.029 780.208C359.757 777.392 362.157 775.2 365.229 773.632C368.333 772.064 371.933 771.28 376.029 771.28C379.741 771.28 383.037 771.92 385.917 773.2C388.829 774.48 391.165 776.272 392.925 778.576C394.717 780.88 395.789 783.568 396.141 786.64H387.933C387.613 784.944 386.925 783.488 385.869 782.272C384.813 781.024 383.453 780.064 381.789 779.392C380.125 778.72 378.189 778.384 375.981 778.384C373.453 778.384 371.261 778.864 369.405 779.824C367.581 780.752 366.173 782.096 365.181 783.856C364.189 785.584 363.693 787.632 363.693 790C363.693 792.368 364.189 794.432 365.181 796.192C366.173 797.92 367.581 799.264 369.405 800.224C371.261 801.152 373.453 801.616 375.981 801.616C378.189 801.616 380.125 801.296 381.789 800.656C383.453 799.984 384.813 799.04 385.869 797.824C386.925 796.576 387.613 795.088 387.933 793.36H396.141ZM401.462 772H409.622V808H401.462V772ZM430.262 772H438.422V808H430.262V772ZM405.926 786.208H433.862V793.36H405.926V786.208ZM445.805 772H453.965V808H445.805V772ZM491.081 786.88V793.12H465.305V786.88H491.081ZM470.777 790L468.377 805.264L464.825 801.232H492.569V808H460.169L462.953 790L460.169 772H492.329V778.768H464.825L468.377 774.736L470.777 790ZM517.994 804.4H514.394L529.082 772H537.722L520.634 808H511.466L494.426 772H503.162L517.994 804.4ZM571.378 786.88V793.12H545.602V786.88H571.378ZM551.074 790L548.674 805.264L545.122 801.232H572.866V808H540.466L543.25 790L540.466 772H572.626V778.768H545.122L548.674 774.736L551.074 790ZM629.615 772V808H621.839V774.736L623.903 774.88L608.543 808H600.143L584.783 774.976L586.799 774.784V808H579.071V772H591.599L606.095 804.064H602.591L617.087 772H629.615ZM666.722 786.88V793.12H640.946V786.88H666.722ZM646.418 790L644.018 805.264L640.466 801.232H668.21V808H635.81L638.594 790L635.81 772H667.97V778.768H640.466L644.018 774.736L646.418 790ZM707.775 802.624L704.943 803.056V772H712.863V808H702.543L679.503 776.944L682.287 776.512V808H674.415V772H684.975L707.775 802.624ZM731.684 775.648H739.796V808H731.684V775.648ZM717.332 772H754.1V779.2H717.332V772ZM755.698 796.24H763.954C764.146 797.456 764.674 798.528 765.538 799.456C766.434 800.352 767.618 801.056 769.09 801.568C770.594 802.048 772.322 802.288 774.274 802.288C777.122 802.288 779.362 801.888 780.994 801.088C782.658 800.256 783.49 799.104 783.49 797.632C783.49 796.48 783.01 795.6 782.05 794.992C781.122 794.352 779.378 793.888 776.818 793.6L769.57 792.784C764.898 792.272 761.506 791.184 759.394 789.52C757.314 787.824 756.274 785.472 756.274 782.464C756.274 780.096 756.962 778.08 758.338 776.416C759.746 774.752 761.714 773.488 764.242 772.624C766.77 771.728 769.746 771.28 773.17 771.28C776.498 771.28 779.458 771.776 782.05 772.768C784.642 773.728 786.706 775.088 788.242 776.848C789.778 778.576 790.61 780.608 790.738 782.944H782.482C782.322 781.888 781.842 780.976 781.042 780.208C780.274 779.408 779.202 778.8 777.826 778.384C776.45 777.936 774.834 777.712 772.978 777.712C770.386 777.712 768.322 778.096 766.786 778.864C765.25 779.632 764.482 780.72 764.482 782.128C764.482 783.216 764.93 784.064 765.826 784.672C766.754 785.248 768.37 785.68 770.674 785.968L778.21 786.88C781.538 787.232 784.178 787.808 786.13 788.608C788.114 789.376 789.522 790.416 790.354 791.728C791.218 793.04 791.65 794.704 791.65 796.72C791.65 799.12 790.914 801.232 789.442 803.056C788.002 804.848 785.97 806.24 783.346 807.232C780.722 808.224 777.65 808.72 774.13 808.72C770.546 808.72 767.394 808.208 764.674 807.184C761.954 806.128 759.81 804.672 758.242 802.816C756.674 800.928 755.826 798.736 755.698 796.24Z" fill="#24CBFF"/>
</svg>
