<svg width="100%" viewBox="0 0 375 812" fill="none" xmlns="http://www.w3.org/2000/svg">
<path d="M27.296 581.48C24.5013 581.48 22.048 580.957 19.936 579.912C17.8453 578.867 16.2133 577.416 15.04 575.56C13.8667 573.683 13.28 571.496 13.28 569C13.28 566.504 13.8667 564.328 15.04 562.472C16.2133 560.595 17.8453 559.133 19.936 558.088C22.048 557.043 24.5013 556.52 27.296 556.52C30.0907 556.52 32.5333 557.043 34.624 558.088C36.736 559.133 38.3787 560.595 39.552 562.472C40.7253 564.328 41.312 566.504 41.312 569C41.312 571.496 40.7253 573.683 39.552 575.56C38.3787 577.416 36.736 578.867 34.624 579.912C32.5333 580.957 30.0907 581.48 27.296 581.48ZM27.296 576.648C29.0453 576.648 30.5493 576.339 31.808 575.72C33.088 575.101 34.0693 574.216 34.752 573.064C35.456 571.912 35.808 570.557 35.808 569C35.808 567.443 35.456 566.088 34.752 564.936C34.0693 563.784 33.088 562.899 31.808 562.28C30.5493 561.661 29.0453 561.352 27.296 561.352C25.568 561.352 24.064 561.661 22.784 562.28C21.504 562.899 20.512 563.784 19.808 564.936C19.1253 566.088 18.784 567.443 18.784 569C18.784 570.557 19.1253 571.912 19.808 573.064C20.512 574.216 21.504 575.101 22.784 575.72C24.064 576.339 25.568 576.648 27.296 576.648ZM50.1778 570.472C50.1778 571.752 50.4231 572.851 50.9138 573.768C51.4044 574.685 52.1191 575.4 53.0578 575.912C54.0178 576.403 55.1698 576.648 56.5138 576.648C57.8791 576.648 59.0311 576.403 59.9698 575.912C60.9084 575.4 61.6231 574.685 62.1138 573.768C62.6044 572.851 62.8498 571.752 62.8498 570.472V557H68.2898V570.728C68.2898 572.883 67.7991 574.771 66.8178 576.392C65.8364 577.992 64.4604 579.24 62.6898 580.136C60.9191 581.032 58.8604 581.48 56.5138 581.48C54.1671 581.48 52.1084 581.032 50.3378 580.136C48.5884 579.24 47.2124 577.992 46.2098 576.392C45.2284 574.771 44.7378 572.883 44.7378 570.728V557H50.1778V570.472ZM76.6775 567.656H85.9255C87.1415 567.656 88.1015 567.379 88.8055 566.824C89.5308 566.248 89.8935 565.459 89.8935 564.456C89.8935 563.453 89.5308 562.675 88.8055 562.12C88.1015 561.565 87.1415 561.288 85.9255 561.288H75.8775L78.3415 558.504V581H72.9015V557H86.5655C88.3148 557 89.8508 557.32 91.1735 557.96C92.4962 558.579 93.5308 559.443 94.2775 560.552C95.0242 561.661 95.3975 562.963 95.3975 564.456C95.3975 565.928 95.0242 567.219 94.2775 568.328C93.5308 569.437 92.4962 570.312 91.1735 570.952C89.8508 571.571 88.3148 571.88 86.5655 571.88H76.6775V567.656ZM80.8375 569.768H87.0455L96.1015 581H89.7335L80.8375 569.768ZM18.4 615.944V611.528H35.04V615.944H18.4ZM30.336 597L41.568 621H35.776L25.952 599.208H27.744L17.92 621H12.128L23.36 597H30.336ZM68.7605 611.24C68.5258 613.267 67.8112 615.059 66.6165 616.616C65.4432 618.152 63.8858 619.347 61.9445 620.2C60.0245 621.053 57.8272 621.48 55.3525 621.48C52.6218 621.48 50.2218 620.957 48.1525 619.912C46.1045 618.867 44.5045 617.416 43.3525 615.56C42.2005 613.683 41.6245 611.496 41.6245 609C41.6245 606.504 42.2005 604.328 43.3525 602.472C44.5045 600.595 46.1045 599.133 48.1525 598.088C50.2218 597.043 52.6218 596.52 55.3525 596.52C57.8272 596.52 60.0245 596.947 61.9445 597.8C63.8858 598.653 65.4432 599.848 66.6165 601.384C67.8112 602.92 68.5258 604.712 68.7605 606.76H63.2885C63.0752 605.629 62.6165 604.659 61.9125 603.848C61.2085 603.016 60.3018 602.376 59.1925 601.928C58.0832 601.48 56.7925 601.256 55.3205 601.256C53.6352 601.256 52.1738 601.576 50.9365 602.216C49.7205 602.835 48.7818 603.731 48.1205 604.904C47.4592 606.056 47.1285 607.421 47.1285 609C47.1285 610.579 47.4592 611.955 48.1205 613.128C48.7818 614.28 49.7205 615.176 50.9365 615.816C52.1738 616.435 53.6352 616.744 55.3205 616.744C56.7925 616.744 58.0832 616.531 59.1925 616.104C60.3018 615.656 61.2085 615.027 61.9125 614.216C62.6165 613.384 63.0752 612.392 63.2885 611.24H68.7605ZM72.3078 597H77.7478V621H72.3078V597ZM91.5078 597H96.9478V621H91.5078V597ZM75.2838 606.472H93.9078V611.24H75.2838V606.472ZM101.87 597H107.31V621H101.87V597ZM132.054 606.92V611.08H114.87V606.92H132.054ZM118.518 609L116.918 619.176L114.55 616.488H133.046V621H111.446L113.302 609L111.446 597H132.886V601.512H114.55L116.918 598.824L118.518 609ZM149.996 618.6H147.596L157.388 597H163.148L151.756 621H145.644L134.284 597H140.108L149.996 618.6ZM185.585 606.92V611.08H168.401V606.92H185.585ZM172.049 609L170.449 619.176L168.081 616.488H186.577V621H164.977L166.833 609L164.977 597H186.417V601.512H168.081L170.449 598.824L172.049 609ZM224.41 597V621H219.226V598.824L220.602 598.92L210.362 621H204.762L194.522 598.984L195.866 598.856V621H190.714V597H199.066L208.73 618.376H206.394L216.058 597H224.41ZM251.548 617.416L249.66 617.704V597H254.94V621H248.06L232.7 600.296L234.556 600.008V621H229.308V597H236.348L251.548 617.416ZM267.487 599.432H272.895V621H267.487V599.432ZM257.919 597H282.431V601.8H257.919V597Z" fill="#24CBFF"/>
</svg>
