<svg width="100%" viewBox="0 0 1296 30" fill="none" xmlns="http://www.w3.org/2000/svg">
<path d="M11.376 24.336C9.328 24.336 7.528 23.944 5.976 23.16C4.424 22.376 3.216 21.288 2.352 19.896C1.488 18.488 1.056 16.856 1.056 15C1.056 13.144 1.488 11.52 2.352 10.128C3.216 8.72 4.424 7.624 5.976 6.84C7.528 6.056 9.328 5.664 11.376 5.664C13.424 5.664 15.224 6.056 16.776 6.84C18.328 7.624 19.536 8.72 20.4 10.128C21.264 11.52 21.696 13.144 21.696 15C21.696 16.856 21.264 18.488 20.4 19.896C19.536 21.288 18.328 22.376 16.776 23.16C15.224 23.944 13.424 24.336 11.376 24.336ZM11.376 21.504C12.832 21.504 14.088 21.24 15.144 20.712C16.2 20.184 17.016 19.432 17.592 18.456C18.184 17.48 18.48 16.328 18.48 15C18.48 13.672 18.184 12.52 17.592 11.544C17.016 10.568 16.2 9.816 15.144 9.288C14.088 8.76 12.832 8.496 11.376 8.496C9.936 8.496 8.68 8.76 7.608 9.288C6.552 9.816 5.728 10.568 5.136 11.544C4.56 12.52 4.272 13.672 4.272 15C4.272 16.328 4.56 17.48 5.136 18.456C5.728 19.432 6.552 20.184 7.608 20.712C8.68 21.24 9.936 21.504 11.376 21.504ZM33.1974 22.656H31.7094L39.4614 6H42.8454L34.1574 24H30.6294L21.9414 6H25.3494L33.1974 22.656ZM59.3998 13.68V16.32H46.8238V13.68H59.3998ZM48.9118 15L47.6398 23.04L46.1278 21.264H60.0958V24H44.3998L45.8398 15L44.3998 6H59.9758V8.736H46.1278L47.6398 6.96L48.9118 15ZM65.6068 14.112H72.9268C73.9828 14.112 74.8148 13.872 75.4228 13.392C76.0468 12.912 76.3588 12.256 76.3588 11.424C76.3588 10.576 76.0468 9.92 75.4228 9.456C74.8148 8.976 73.9828 8.736 72.9268 8.736H65.1508L66.5668 6.96V24H63.3988V6H73.2148C74.4788 6 75.5828 6.232 76.5268 6.696C77.4868 7.144 78.2308 7.776 78.7588 8.592C79.3028 9.392 79.5748 10.336 79.5748 11.424C79.5748 12.48 79.3028 13.416 78.7588 14.232C78.2308 15.032 77.4868 15.664 76.5268 16.128C75.5828 16.576 74.4788 16.8 73.2148 16.8H65.6068V14.112ZM69.1588 15.576H72.8788L80.0308 24H76.2388L69.1588 15.576ZM84.8301 19.872V17.256H97.4061V19.872H84.8301ZM93.1821 6L101.822 24H98.4381L90.5901 7.2H91.8141L83.9661 24H80.5821L89.2221 6H93.1821ZM107.184 6V22.584L105.768 21.216H119.328V24H104.016V6H107.184ZM124.903 6V22.584L123.487 21.216H137.047V24H121.735V6H124.903ZM154.466 6C155.81 6 156.97 6.24 157.946 6.72C158.938 7.2 159.698 7.872 160.226 8.736C160.77 9.584 161.042 10.568 161.042 11.688C161.042 12.808 160.77 13.8 160.226 14.664C159.698 15.512 158.938 16.176 157.946 16.656C156.97 17.136 155.81 17.376 154.466 17.376H146.378V14.64H154.346C155.434 14.64 156.282 14.376 156.89 13.848C157.514 13.32 157.826 12.6 157.826 11.688C157.826 10.776 157.514 10.056 156.89 9.528C156.282 9 155.434 8.736 154.346 8.736H146.69L148.106 7.152V24H144.938V6H154.466ZM178.017 13.68V16.32H165.441V13.68H178.017ZM167.529 15L166.257 23.04L164.745 21.264H178.713V24H163.017L164.457 15L163.017 6H178.593V8.736H164.745L166.257 6.96L167.529 15ZM184.224 14.112H191.544C192.6 14.112 193.432 13.872 194.04 13.392C194.664 12.912 194.976 12.256 194.976 11.424C194.976 10.576 194.664 9.92 194.04 9.456C193.432 8.976 192.6 8.736 191.544 8.736H183.768L185.184 6.96V24H182.016V6H191.832C193.096 6 194.2 6.232 195.144 6.696C196.104 7.144 196.848 7.776 197.376 8.592C197.92 9.392 198.192 10.336 198.192 11.424C198.192 12.48 197.92 13.416 197.376 14.232C196.848 15.032 196.104 15.664 195.144 16.128C194.2 16.576 193.096 16.8 191.832 16.8H184.224V14.112ZM187.776 15.576H191.496L198.648 24H194.856L187.776 15.576ZM203.005 13.872H215.941V16.656H203.005V13.872ZM216.325 6V8.784H202.909L204.637 6.984V24H201.469V6H216.325ZM228.384 24.336C226.336 24.336 224.536 23.944 222.984 23.16C221.432 22.376 220.224 21.288 219.36 19.896C218.496 18.488 218.064 16.856 218.064 15C218.064 13.144 218.496 11.52 219.36 10.128C220.224 8.72 221.432 7.624 222.984 6.84C224.536 6.056 226.336 5.664 228.384 5.664C230.432 5.664 232.232 6.056 233.784 6.84C235.336 7.624 236.544 8.72 237.408 10.128C238.272 11.52 238.704 13.144 238.704 15C238.704 16.856 238.272 18.488 237.408 19.896C236.544 21.288 235.336 22.376 233.784 23.16C232.232 23.944 230.432 24.336 228.384 24.336ZM228.384 21.504C229.84 21.504 231.096 21.24 232.152 20.712C233.208 20.184 234.024 19.432 234.6 18.456C235.192 17.48 235.488 16.328 235.488 15C235.488 13.672 235.192 12.52 234.6 11.544C234.024 10.568 233.208 9.816 232.152 9.288C231.096 8.76 229.84 8.496 228.384 8.496C226.944 8.496 225.688 8.76 224.616 9.288C223.56 9.816 222.736 10.568 222.144 11.544C221.568 12.52 221.28 13.672 221.28 15C221.28 16.328 221.568 17.48 222.144 18.456C222.736 19.432 223.56 20.184 224.616 20.712C225.688 21.24 226.944 21.504 228.384 21.504ZM243.99 14.112H251.31C252.366 14.112 253.198 13.872 253.806 13.392C254.43 12.912 254.742 12.256 254.742 11.424C254.742 10.576 254.43 9.92 253.806 9.456C253.198 8.976 252.366 8.736 251.31 8.736H243.534L244.95 6.96V24H241.782V6H251.598C252.862 6 253.966 6.232 254.91 6.696C255.87 7.144 256.614 7.776 257.142 8.592C257.686 9.392 257.958 10.336 257.958 11.424C257.958 12.48 257.686 13.416 257.142 14.232C256.614 15.032 255.87 15.664 254.91 16.128C253.966 16.576 252.862 16.8 251.598 16.8H243.99V14.112ZM247.542 15.576H251.262L258.414 24H254.622L247.542 15.576ZM285.451 6V24H282.427V6.96L283.411 7.008L275.035 24H271.651L263.275 7.032L264.259 6.984V24H261.235V6H266.083L274.147 22.632H272.563L280.603 6H285.451ZM291.877 19.872V17.256H304.453V19.872H291.877ZM300.229 6L308.869 24H305.485L297.637 7.2H298.861L291.013 24H287.629L296.269 6H300.229ZM327.743 22.08L326.447 22.224V6H329.519V24H325.487L312.863 7.776L314.135 7.632V24H311.063V6H315.191L327.743 22.08ZM352.523 16.872C352.363 18.344 351.843 19.648 350.963 20.784C350.099 21.904 348.963 22.776 347.555 23.4C346.147 24.024 344.539 24.336 342.731 24.336C340.715 24.336 338.947 23.944 337.427 23.16C335.907 22.376 334.723 21.288 333.875 19.896C333.027 18.488 332.603 16.856 332.603 15C332.603 13.144 333.027 11.52 333.875 10.128C334.723 8.72 335.907 7.624 337.427 6.84C338.947 6.056 340.715 5.664 342.731 5.664C344.539 5.664 346.147 5.976 347.555 6.6C348.963 7.224 350.099 8.096 350.963 9.216C351.843 10.336 352.363 11.64 352.523 13.128H349.331C349.155 12.168 348.771 11.344 348.179 10.656C347.603 9.968 346.851 9.44 345.923 9.072C344.995 8.688 343.923 8.496 342.707 8.496C341.299 8.496 340.075 8.76 339.035 9.288C338.011 9.816 337.219 10.568 336.659 11.544C336.099 12.52 335.819 13.672 335.819 15C335.819 16.328 336.099 17.48 336.659 18.456C337.219 19.432 338.011 20.184 339.035 20.712C340.075 21.24 341.299 21.504 342.707 21.504C343.923 21.504 344.995 21.32 345.923 20.952C346.851 20.584 347.603 20.056 348.179 19.368C348.771 18.664 349.155 17.832 349.331 16.872H352.523ZM369.806 13.68V16.32H357.23V13.68H369.806ZM359.318 15L358.046 23.04L356.534 21.264H370.502V24H354.806L356.246 15L354.806 6H370.382V8.736H356.534L358.046 6.96L359.318 15Z" fill="#24408E"/>
</svg>
