<svg width="100%" viewBox="0 0 1920 1111" fill="none" xmlns="http://www.w3.org/2000/svg">
<path d="M321.531 96.2756C321.455 95.6032 321.143 95.0824 320.594 94.7131C320.045 94.339 319.353 94.152 318.52 94.152C317.923 94.152 317.407 94.2467 316.972 94.4361C316.536 94.6207 316.197 94.8764 315.956 95.2031C315.719 95.5251 315.601 95.892 315.601 96.304C315.601 96.6496 315.681 96.9479 315.842 97.1989C316.008 97.4498 316.223 97.6605 316.489 97.831C316.759 97.9967 317.047 98.1364 317.355 98.25C317.663 98.3589 317.959 98.4489 318.243 98.5199L319.663 98.8892C320.127 99.0028 320.603 99.1567 321.091 99.3509C321.579 99.545 322.031 99.8007 322.447 100.118C322.864 100.435 323.2 100.828 323.456 101.297C323.716 101.766 323.847 102.327 323.847 102.98C323.847 103.804 323.634 104.536 323.207 105.175C322.786 105.814 322.173 106.318 321.368 106.688C320.568 107.057 319.599 107.241 318.463 107.241C317.374 107.241 316.432 107.069 315.636 106.723C314.841 106.377 314.218 105.887 313.768 105.253C313.319 104.614 313.07 103.856 313.023 102.98H315.224C315.267 103.506 315.438 103.944 315.736 104.294C316.039 104.64 316.425 104.898 316.893 105.068C317.367 105.234 317.885 105.317 318.449 105.317C319.069 105.317 319.621 105.22 320.104 105.026C320.591 104.827 320.975 104.552 321.254 104.202C321.534 103.847 321.673 103.432 321.673 102.959C321.673 102.528 321.55 102.175 321.304 101.901C321.063 101.626 320.733 101.399 320.317 101.219C319.905 101.039 319.438 100.88 318.918 100.743L317.199 100.274C316.034 99.9569 315.111 99.4905 314.429 98.875C313.752 98.2595 313.413 97.4451 313.413 96.4318C313.413 95.5937 313.641 94.8622 314.095 94.2372C314.55 93.6122 315.165 93.1269 315.942 92.7812C316.718 92.4309 317.594 92.2557 318.57 92.2557C319.554 92.2557 320.423 92.4285 321.176 92.7741C321.934 93.1198 322.53 93.5956 322.966 94.2017C323.402 94.803 323.629 95.4943 323.648 96.2756H321.531ZM338.578 91.517H340.34C340.34 92.8286 340.027 93.8442 339.402 94.5639C338.777 95.2836 337.828 95.6435 336.554 95.6435V94.1946C337.274 94.1946 337.79 93.9602 338.103 93.4915C338.42 93.018 338.578 92.3598 338.578 91.517ZM339.104 99.7273C339.104 101.28 338.82 102.616 338.252 103.733C337.684 104.846 336.905 105.703 335.915 106.304C334.93 106.901 333.81 107.199 332.556 107.199C331.296 107.199 330.172 106.901 329.182 106.304C328.197 105.703 327.421 104.843 326.853 103.726C326.284 102.608 326 101.276 326 99.7273C326 98.1742 326.284 96.8414 326.853 95.7287C327.421 94.6113 328.197 93.7543 329.182 93.1577C330.172 92.5563 331.296 92.2557 332.556 92.2557C333.81 92.2557 334.93 92.5563 335.915 93.1577C336.905 93.7543 337.684 94.6113 338.252 95.7287C338.82 96.8414 339.104 98.1742 339.104 99.7273ZM336.931 99.7273C336.931 98.5436 336.739 97.5469 336.355 96.7372C335.977 95.9228 335.456 95.3073 334.793 94.8906C334.135 94.4692 333.389 94.2585 332.556 94.2585C331.718 94.2585 330.97 94.4692 330.311 94.8906C329.653 95.3073 329.132 95.9228 328.749 96.7372C328.37 97.5469 328.181 98.5436 328.181 99.7273C328.181 100.911 328.37 101.91 328.749 102.724C329.132 103.534 329.653 104.15 330.311 104.571C330.97 104.988 331.718 105.196 332.556 105.196C333.389 105.196 334.135 104.988 334.793 104.571C335.456 104.15 335.977 103.534 336.355 102.724C336.739 101.91 336.931 100.911 336.931 99.7273ZM352.213 107H348.619V105.082H352.092C353.2 105.082 354.121 104.874 354.855 104.457C355.589 104.036 356.138 103.428 356.503 102.632C356.867 101.832 357.05 100.857 357.05 99.706C357.05 98.5649 356.867 97.5966 356.503 96.8011C356.143 96.0057 355.606 95.402 354.891 94.9901C354.176 94.5781 353.288 94.3722 352.227 94.3722H348.541V92.4545H352.362C353.787 92.4545 355.011 92.7457 356.034 93.3281C357.057 93.9058 357.84 94.7367 358.385 95.821C358.934 96.9006 359.209 98.1955 359.209 99.706C359.209 101.221 358.932 102.523 358.378 103.612C357.829 104.701 357.033 105.539 355.991 106.126C354.95 106.709 353.69 107 352.213 107ZM349.699 92.4545V107H347.504V92.4545H349.699ZM345.331 100.175V98.7116H351.858V100.175H345.331ZM374.573 99.7273C374.573 101.28 374.289 102.616 373.721 103.733C373.152 104.846 372.373 105.703 371.384 106.304C370.399 106.901 369.279 107.199 368.025 107.199C366.765 107.199 365.641 106.901 364.651 106.304C363.666 105.703 362.89 104.843 362.321 103.726C361.753 102.608 361.469 101.276 361.469 99.7273C361.469 98.1742 361.753 96.8414 362.321 95.7287C362.89 94.6113 363.666 93.7543 364.651 93.1577C365.641 92.5563 366.765 92.2557 368.025 92.2557C369.279 92.2557 370.399 92.5563 371.384 93.1577C372.373 93.7543 373.152 94.6113 373.721 95.7287C374.289 96.8414 374.573 98.1742 374.573 99.7273ZM372.4 99.7273C372.4 98.5436 372.208 97.5469 371.824 96.7372C371.445 95.9228 370.925 95.3073 370.262 94.8906C369.604 94.4692 368.858 94.2585 368.025 94.2585C367.186 94.2585 366.438 94.4692 365.78 94.8906C365.122 95.3073 364.601 95.9228 364.218 96.7372C363.839 97.5469 363.65 98.5436 363.65 99.7273C363.65 100.911 363.839 101.91 364.218 102.724C364.601 103.534 365.122 104.15 365.78 104.571C366.438 104.988 367.186 105.196 368.025 105.196C368.858 105.196 369.604 104.988 370.262 104.571C370.925 104.15 371.445 103.534 371.824 102.724C372.208 101.91 372.4 100.911 372.4 99.7273ZM368.799 88.7188L371.696 91.1832H369.601L368.025 89.777L366.441 91.1832H364.353L367.215 88.7188H368.799ZM363.628 87L365.091 89.6065H363.564L361.448 87H363.628ZM381.885 94.3438V92.4545H393.142V94.3438H388.603V107H386.416V94.3438H381.885ZM407.639 99.7273C407.639 101.28 407.355 102.616 406.787 103.733C406.219 104.846 405.44 105.703 404.45 106.304C403.465 106.901 402.346 107.199 401.091 107.199C399.831 107.199 398.707 106.901 397.717 106.304C396.732 105.703 395.956 104.843 395.388 103.726C394.82 102.608 394.536 101.276 394.536 99.7273C394.536 98.1742 394.82 96.8414 395.388 95.7287C395.956 94.6113 396.732 93.7543 397.717 93.1577C398.707 92.5563 399.831 92.2557 401.091 92.2557C402.346 92.2557 403.465 92.5563 404.45 93.1577C405.44 93.7543 406.219 94.6113 406.787 95.7287C407.355 96.8414 407.639 98.1742 407.639 99.7273ZM405.466 99.7273C405.466 98.5436 405.274 97.5469 404.891 96.7372C404.512 95.9228 403.991 95.3073 403.328 94.8906C402.67 94.4692 401.924 94.2585 401.091 94.2585C400.253 94.2585 399.505 94.4692 398.847 94.8906C398.188 95.3073 397.668 95.9228 397.284 96.7372C396.905 97.5469 396.716 98.5436 396.716 99.7273C396.716 100.911 396.905 101.91 397.284 102.724C397.668 103.534 398.188 104.15 398.847 104.571C399.505 104.988 400.253 105.196 401.091 105.196C401.924 105.196 402.67 104.988 403.328 104.571C403.991 104.15 404.512 103.534 404.891 102.724C405.274 101.91 405.466 100.911 405.466 99.7273ZM402.014 88.8466L404.749 91.3111H402.881L401.062 89.6989L399.266 91.3111H397.398L400.125 88.8466H402.014ZM405.153 89.983H403.832L403.79 88.7614C404.188 88.733 404.481 88.6785 404.67 88.598C404.86 88.5175 404.955 88.3802 404.955 88.1861C404.955 87.9588 404.831 87.8026 404.585 87.7173C404.339 87.6274 404.029 87.5824 403.655 87.5824L403.719 86.5739C404.609 86.5739 405.284 86.7183 405.743 87.0071C406.202 87.2912 406.432 87.6795 406.432 88.1719C406.432 88.5743 406.299 88.8726 406.034 89.0668C405.769 89.2562 405.475 89.3722 405.153 89.4148V89.983ZM427.749 97.1847H425.533C425.448 96.7112 425.29 96.2945 425.058 95.9347C424.826 95.5748 424.541 95.2694 424.205 95.0185C423.869 94.7675 423.493 94.5781 423.076 94.4503C422.664 94.3224 422.226 94.2585 421.762 94.2585C420.924 94.2585 420.174 94.4692 419.511 94.8906C418.853 95.312 418.332 95.9299 417.948 96.7443C417.569 97.5587 417.38 98.553 417.38 99.7273C417.38 100.911 417.569 101.91 417.948 102.724C418.332 103.539 418.855 104.154 419.518 104.571C420.181 104.988 420.926 105.196 421.755 105.196C422.214 105.196 422.65 105.134 423.062 105.011C423.478 104.884 423.855 104.696 424.191 104.45C424.527 104.204 424.811 103.903 425.043 103.548C425.28 103.188 425.443 102.777 425.533 102.312L427.749 102.32C427.631 103.035 427.401 103.693 427.06 104.294C426.724 104.891 426.291 105.407 425.761 105.842C425.235 106.273 424.634 106.607 423.957 106.844C423.28 107.08 422.541 107.199 421.741 107.199C420.481 107.199 419.359 106.901 418.374 106.304C417.389 105.703 416.613 104.843 416.045 103.726C415.481 102.608 415.2 101.276 415.2 99.7273C415.2 98.1742 415.484 96.8414 416.052 95.7287C416.62 94.6113 417.397 93.7543 418.381 93.1577C419.366 92.5563 420.486 92.2557 421.741 92.2557C422.513 92.2557 423.232 92.367 423.9 92.5895C424.572 92.8073 425.176 93.1293 425.711 93.5554C426.246 93.9768 426.689 94.4929 427.039 95.1037C427.389 95.7098 427.626 96.4034 427.749 97.1847ZM430.375 107V92.4545H432.57V98.7756H439.821V92.4545H442.023V107H439.821V100.658H432.57V107H430.375ZM458.323 91.6946H460.077C460.077 92.6368 459.94 93.4323 459.665 94.081C459.395 94.7296 458.95 95.2244 458.33 95.5653C457.714 95.9015 456.888 96.0696 455.851 96.0696V94.6065C456.533 94.6065 457.051 94.4953 457.407 94.2727C457.766 94.0455 458.008 93.7164 458.131 93.2855C458.259 92.8499 458.323 92.3196 458.323 91.6946ZM454.573 92.4545H456.775V102.021C456.775 103.039 456.535 103.941 456.057 104.727C455.579 105.509 454.907 106.124 454.04 106.574C453.174 107.019 452.158 107.241 450.993 107.241C449.833 107.241 448.82 107.019 447.953 106.574C447.087 106.124 446.415 105.509 445.936 104.727C445.458 103.941 445.219 103.039 445.219 102.021V92.4545H447.414V101.844C447.414 102.502 447.558 103.087 447.847 103.598C448.141 104.109 448.555 104.512 449.09 104.805C449.625 105.094 450.259 105.239 450.993 105.239C451.732 105.239 452.369 105.094 452.904 104.805C453.444 104.512 453.855 104.109 454.14 103.598C454.428 103.087 454.573 102.502 454.573 101.844V92.4545ZM450.12 90.9986L451.782 87.7244H454.019L451.817 90.9986H450.12ZM474.019 97.1847H471.803C471.718 96.7112 471.559 96.2945 471.327 95.9347C471.095 95.5748 470.811 95.2694 470.475 95.0185C470.139 94.7675 469.762 94.5781 469.346 94.4503C468.934 94.3224 468.496 94.2585 468.032 94.2585C467.194 94.2585 466.443 94.4692 465.78 94.8906C465.122 95.312 464.601 95.9299 464.218 96.7443C463.839 97.5587 463.65 98.553 463.65 99.7273C463.65 100.911 463.839 101.91 464.218 102.724C464.601 103.539 465.124 104.154 465.787 104.571C466.45 104.988 467.196 105.196 468.025 105.196C468.484 105.196 468.919 105.134 469.331 105.011C469.748 104.884 470.124 104.696 470.461 104.45C470.797 104.204 471.081 103.903 471.313 103.548C471.55 103.188 471.713 102.777 471.803 102.312L474.019 102.32C473.9 103.035 473.671 103.693 473.33 104.294C472.994 104.891 472.56 105.407 472.03 105.842C471.505 106.273 470.903 106.607 470.226 106.844C469.549 107.08 468.81 107.199 468.01 107.199C466.751 107.199 465.629 106.901 464.644 106.304C463.659 105.703 462.882 104.843 462.314 103.726C461.751 102.608 461.469 101.276 461.469 99.7273C461.469 98.1742 461.753 96.8414 462.321 95.7287C462.89 94.6113 463.666 93.7543 464.651 93.1577C465.636 92.5563 466.756 92.2557 468.01 92.2557C468.782 92.2557 469.502 92.367 470.169 92.5895C470.842 92.8073 471.445 93.1293 471.98 93.5554C472.516 93.9768 472.958 94.4929 473.309 95.1037C473.659 95.7098 473.896 96.4034 474.019 97.1847ZM325.679 121.185H323.463C323.378 120.711 323.219 120.295 322.987 119.935C322.755 119.575 322.471 119.269 322.135 119.018C321.799 118.768 321.422 118.578 321.006 118.45C320.594 118.322 320.156 118.259 319.692 118.259C318.854 118.259 318.103 118.469 317.44 118.891C316.782 119.312 316.261 119.93 315.878 120.744C315.499 121.559 315.31 122.553 315.31 123.727C315.31 124.911 315.499 125.91 315.878 126.724C316.261 127.539 316.785 128.154 317.447 128.571C318.11 128.988 318.856 129.196 319.685 129.196C320.144 129.196 320.58 129.134 320.991 129.011C321.408 128.884 321.785 128.696 322.121 128.45C322.457 128.204 322.741 127.903 322.973 127.548C323.21 127.188 323.373 126.777 323.463 126.312L325.679 126.32C325.561 127.035 325.331 127.693 324.99 128.294C324.654 128.891 324.221 129.407 323.69 129.842C323.165 130.273 322.563 130.607 321.886 130.844C321.209 131.08 320.471 131.199 319.67 131.199C318.411 131.199 317.289 130.901 316.304 130.304C315.319 129.703 314.543 128.843 313.974 127.726C313.411 126.608 313.129 125.276 313.129 123.727C313.129 122.174 313.413 120.841 313.982 119.729C314.55 118.611 315.326 117.754 316.311 117.158C317.296 116.556 318.416 116.256 319.67 116.256C320.442 116.256 321.162 116.367 321.83 116.589C322.502 116.807 323.106 117.129 323.641 117.555C324.176 117.977 324.618 118.493 324.969 119.104C325.319 119.71 325.556 120.403 325.679 121.185ZM340.94 123.727C340.94 125.28 340.656 126.616 340.088 127.733C339.52 128.846 338.741 129.703 337.751 130.304C336.766 130.901 335.646 131.199 334.392 131.199C333.132 131.199 332.008 130.901 331.018 130.304C330.033 129.703 329.257 128.843 328.689 127.726C328.12 126.608 327.836 125.276 327.836 123.727C327.836 122.174 328.12 120.841 328.689 119.729C329.257 118.611 330.033 117.754 331.018 117.158C332.008 116.556 333.132 116.256 334.392 116.256C335.646 116.256 336.766 116.556 337.751 117.158C338.741 117.754 339.52 118.611 340.088 119.729C340.656 120.841 340.94 122.174 340.94 123.727ZM338.767 123.727C338.767 122.544 338.575 121.547 338.191 120.737C337.813 119.923 337.292 119.307 336.629 118.891C335.971 118.469 335.225 118.259 334.392 118.259C333.554 118.259 332.806 118.469 332.147 118.891C331.489 119.307 330.968 119.923 330.585 120.737C330.206 121.547 330.017 122.544 330.017 123.727C330.017 124.911 330.206 125.91 330.585 126.724C330.968 127.534 331.489 128.15 332.147 128.571C332.806 128.988 333.554 129.196 334.392 129.196C335.225 129.196 335.971 128.988 336.629 128.571C337.292 128.15 337.813 127.534 338.191 126.724C338.575 125.91 338.767 124.911 338.767 123.727ZM335.848 115.148L334.392 113.244L332.929 115.148H331.011V115.041L333.504 112.03H335.272L337.772 115.041V115.148H335.848ZM355.416 116.455V131H353.399L346.006 120.332H345.871V131H343.676V116.455H345.707L353.108 127.136H353.243V116.455H355.416ZM368.461 121.05C368.324 120.619 368.139 120.233 367.907 119.892C367.68 119.546 367.408 119.253 367.091 119.011C366.773 118.765 366.411 118.578 366.004 118.45C365.601 118.322 365.159 118.259 364.676 118.259C363.857 118.259 363.118 118.469 362.46 118.891C361.802 119.312 361.281 119.93 360.897 120.744C360.519 121.554 360.329 122.546 360.329 123.72C360.329 124.899 360.521 125.896 360.904 126.71C361.288 127.525 361.814 128.143 362.481 128.564C363.149 128.985 363.909 129.196 364.761 129.196C365.552 129.196 366.241 129.035 366.828 128.713C367.42 128.391 367.877 127.937 368.199 127.349C368.525 126.758 368.689 126.062 368.689 125.261L369.257 125.368H365.095V123.557H370.812V125.212C370.812 126.433 370.552 127.494 370.031 128.393C369.515 129.288 368.8 129.98 367.886 130.467C366.977 130.955 365.935 131.199 364.761 131.199C363.445 131.199 362.289 130.896 361.295 130.29C360.306 129.684 359.534 128.824 358.98 127.712C358.426 126.594 358.149 125.268 358.149 123.734C358.149 122.574 358.31 121.533 358.632 120.609C358.954 119.686 359.406 118.902 359.988 118.259C360.575 117.61 361.264 117.115 362.055 116.774C362.85 116.429 363.719 116.256 364.662 116.256C365.448 116.256 366.179 116.372 366.856 116.604C367.538 116.836 368.144 117.165 368.674 117.591C369.209 118.017 369.652 118.524 370.002 119.111C370.353 119.693 370.59 120.339 370.713 121.05H368.461ZM378.174 118.344V116.455H389.431V118.344H384.892V131H382.705V118.344H378.174ZM390.796 116.455H393.289L397.089 123.067H397.245L401.045 116.455H403.538L398.261 125.29V131H396.073V125.29L390.796 116.455ZM422.984 121.185H420.768C420.683 120.711 420.524 120.295 420.292 119.935C420.06 119.575 419.776 119.269 419.44 119.018C419.103 118.768 418.727 118.578 418.31 118.45C417.898 118.322 417.46 118.259 416.996 118.259C416.158 118.259 415.408 118.469 414.745 118.891C414.087 119.312 413.566 119.93 413.183 120.744C412.804 121.559 412.614 122.553 412.614 123.727C412.614 124.911 412.804 125.91 413.183 126.724C413.566 127.539 414.089 128.154 414.752 128.571C415.415 128.988 416.161 129.196 416.989 129.196C417.449 129.196 417.884 129.134 418.296 129.011C418.713 128.884 419.089 128.696 419.425 128.45C419.762 128.204 420.046 127.903 420.278 127.548C420.514 127.188 420.678 126.777 420.768 126.312L422.984 126.32C422.865 127.035 422.636 127.693 422.295 128.294C421.959 128.891 421.525 129.407 420.995 129.842C420.469 130.273 419.868 130.607 419.191 130.844C418.514 131.08 417.775 131.199 416.975 131.199C415.716 131.199 414.594 130.901 413.609 130.304C412.624 129.703 411.847 128.843 411.279 127.726C410.716 126.608 410.434 125.276 410.434 123.727C410.434 122.174 410.718 120.841 411.286 119.729C411.854 118.611 412.631 117.754 413.616 117.158C414.601 116.556 415.72 116.256 416.975 116.256C417.747 116.256 418.467 116.367 419.134 116.589C419.807 116.807 420.41 117.129 420.945 117.555C421.48 117.977 421.923 118.493 422.273 119.104C422.624 119.71 422.861 120.403 422.984 121.185ZM425.61 131V116.455H430.794C431.926 116.455 432.864 116.661 433.607 117.072C434.35 117.484 434.907 118.048 435.276 118.763C435.645 119.473 435.83 120.273 435.83 121.163C435.83 122.058 435.643 122.863 435.269 123.578C434.9 124.288 434.341 124.852 433.593 125.268C432.849 125.68 431.914 125.886 430.787 125.886H427.222V124.026H430.588C431.303 124.026 431.883 123.902 432.328 123.656C432.774 123.405 433.1 123.064 433.309 122.634C433.517 122.203 433.621 121.713 433.621 121.163C433.621 120.614 433.517 120.126 433.309 119.7C433.1 119.274 432.771 118.94 432.321 118.699C431.876 118.457 431.289 118.337 430.56 118.337H427.804V131H425.61ZM443.112 131H438.403V116.455H443.261C444.686 116.455 445.91 116.746 446.933 117.328C447.955 117.906 448.739 118.737 449.283 119.821C449.833 120.901 450.107 122.196 450.107 123.706C450.107 125.221 449.83 126.523 449.276 127.612C448.727 128.701 447.932 129.539 446.89 130.126C445.848 130.709 444.589 131 443.112 131ZM440.597 129.082H442.991C444.099 129.082 445.02 128.874 445.754 128.457C446.487 128.036 447.037 127.428 447.401 126.632C447.766 125.832 447.948 124.857 447.948 123.706C447.948 122.565 447.766 121.597 447.401 120.801C447.041 120.006 446.504 119.402 445.789 118.99C445.074 118.578 444.186 118.372 443.126 118.372H440.597V129.082ZM452.836 131V116.455H458.021C459.153 116.455 460.09 116.661 460.833 117.072C461.577 117.484 462.133 118.048 462.502 118.763C462.872 119.473 463.056 120.273 463.056 121.163C463.056 122.058 462.869 122.863 462.495 123.578C462.126 124.288 461.567 124.852 460.819 125.268C460.076 125.68 459.141 125.886 458.014 125.886H454.449V124.026H457.815C458.53 124.026 459.11 123.902 459.555 123.656C460 123.405 460.327 123.064 460.535 122.634C460.743 122.203 460.848 121.713 460.848 121.163C460.848 120.614 460.743 120.126 460.535 119.7C460.327 119.274 459.998 118.94 459.548 118.699C459.103 118.457 458.516 118.337 457.787 118.337H455.031V131H452.836ZM473.117 116.455V131H470.922V116.455H473.117ZM476.313 116.455H478.976L483.607 127.761H483.777L488.408 116.455H491.071V131H488.983V120.474H488.848L484.559 130.979H482.826L478.536 120.467H478.401V131H476.313V116.455ZM494.262 131V116.455H503.381V118.344H496.457V122.776H502.906V124.658H496.457V129.111H503.467V131H494.262ZM507.84 116.455L511.32 122.143H511.434L514.914 116.455H517.456L512.925 123.727L517.485 131H514.928L511.434 125.389H511.32L507.826 131H505.269L509.907 123.727L505.297 116.455H507.84ZM519.633 131V116.455H524.818C525.949 116.455 526.887 116.661 527.63 117.072C528.374 117.484 528.93 118.048 529.299 118.763C529.669 119.473 529.853 120.273 529.853 121.163C529.853 122.058 529.666 122.863 529.292 123.578C528.923 124.288 528.364 124.852 527.616 125.268C526.873 125.68 525.938 125.886 524.811 125.886H521.245V124.026H524.612C525.327 124.026 525.907 123.902 526.352 123.656C526.797 123.405 527.124 123.064 527.332 122.634C527.54 122.203 527.645 121.713 527.645 121.163C527.645 120.614 527.54 120.126 527.332 119.7C527.124 119.274 526.795 118.94 526.345 118.699C525.9 118.457 525.313 118.337 524.583 118.337H521.828V131H519.633ZM532.426 131V116.455H534.621V122.776H541.872V116.455H544.074V131H541.872V124.658H534.621V131H532.426ZM548.499 131H546.169L551.403 116.455H553.939L559.173 131H556.844L552.732 119.097H552.618L548.499 131ZM548.889 125.304H556.446V127.151H548.889V125.304ZM561.274 131V116.455H566.458C567.585 116.455 568.52 116.649 569.264 117.037C570.012 117.425 570.571 117.963 570.94 118.649C571.309 119.331 571.494 120.119 571.494 121.014C571.494 121.904 571.307 122.688 570.933 123.365C570.564 124.037 570.005 124.561 569.257 124.935C568.513 125.309 567.578 125.496 566.451 125.496H562.524V123.607H566.252C566.963 123.607 567.54 123.505 567.985 123.301C568.435 123.098 568.764 122.802 568.973 122.413C569.181 122.025 569.285 121.559 569.285 121.014C569.285 120.465 569.179 119.989 568.966 119.587C568.757 119.184 568.428 118.876 567.978 118.663C567.533 118.446 566.949 118.337 566.224 118.337H563.468V131H561.274ZM568.454 124.438L572.048 131H569.548L566.025 124.438H568.454ZM574.164 116.455H576.828L581.458 127.761H581.629L586.26 116.455H588.923V131H586.835V120.474H586.7L582.41 130.979H580.677L576.387 120.467H576.252V131H574.164V116.455Z" fill="#24408E"/>
</svg>
