<svg width="100%" viewBox="0 0 1920 1051" fill="none" xmlns="http://www.w3.org/2000/svg">
<path d="M328.568 761.792H338.36L354.2 778.592H344.168L328.568 761.792ZM333.944 776.72C329.752 776.72 326.072 775.936 322.904 774.368C319.768 772.8 317.32 770.624 315.56 767.84C313.8 765.024 312.92 761.744 312.92 758C312.92 754.256 313.8 750.992 315.56 748.208C317.32 745.392 319.768 743.2 322.904 741.632C326.072 740.064 329.752 739.28 333.944 739.28C338.136 739.28 341.8 740.064 344.936 741.632C348.104 743.2 350.568 745.392 352.328 748.208C354.088 750.992 354.968 754.256 354.968 758C354.968 761.744 354.088 765.024 352.328 767.84C350.568 770.624 348.104 772.8 344.936 774.368C341.8 775.936 338.136 776.72 333.944 776.72ZM333.944 769.472C336.568 769.472 338.824 769.008 340.712 768.08C342.632 767.152 344.104 765.824 345.128 764.096C346.184 762.368 346.712 760.336 346.712 758C346.712 755.664 346.184 753.632 345.128 751.904C344.104 750.176 342.632 748.848 340.712 747.92C338.824 746.992 336.568 746.528 333.944 746.528C331.352 746.528 329.096 746.992 327.176 747.92C325.256 748.848 323.768 750.176 322.712 751.904C321.688 753.632 321.176 755.664 321.176 758C321.176 760.336 321.688 762.368 322.712 764.096C323.768 765.824 325.256 767.152 327.176 768.08C329.096 769.008 331.352 769.472 333.944 769.472ZM368.314 760.208C368.314 762.128 368.682 763.776 369.418 765.152C370.154 766.528 371.226 767.6 372.634 768.368C374.074 769.104 375.802 769.472 377.818 769.472C379.866 769.472 381.594 769.104 383.002 768.368C384.41 767.6 385.482 766.528 386.218 765.152C386.954 763.776 387.322 762.128 387.322 760.208V740H395.482V760.592C395.482 763.824 394.746 766.656 393.274 769.088C391.802 771.488 389.738 773.36 387.082 774.704C384.426 776.048 381.338 776.72 377.818 776.72C374.298 776.72 371.21 776.048 368.554 774.704C365.93 773.36 363.866 771.488 362.362 769.088C360.89 766.656 360.154 763.824 360.154 760.592V740H368.314V760.208ZM406.194 768.416V761.792H431.154V768.416H406.194ZM424.098 740L440.946 776H432.258L417.522 743.312H420.21L405.474 776H396.786L413.634 740H424.098ZM416.994 737.888L415.362 735.152C416.898 734.896 417.986 734.592 418.626 734.24C419.298 733.856 419.634 733.44 419.634 732.992C419.634 732.576 419.378 732.272 418.866 732.08C418.354 731.888 417.602 731.792 416.61 731.792C415.842 731.792 415.138 731.84 414.498 731.936C413.858 732.032 413.186 732.144 412.482 732.272V727.952C413.122 727.76 413.97 727.584 415.026 727.424C416.114 727.264 417.234 727.184 418.386 727.184C421.01 727.184 423.01 727.568 424.386 728.336C425.794 729.072 426.498 730.256 426.498 731.888C426.498 733.36 425.762 734.592 424.29 735.584C422.818 736.576 420.386 737.344 416.994 737.888ZM478.181 770.624L475.349 771.056V740H483.269V776H472.949L449.909 744.944L452.693 744.512V776H444.821V740H455.381L478.181 770.624ZM512.777 743.648H520.889V776H512.777V743.648ZM498.425 740H535.193V747.2H498.425V740ZM545.407 755.984H559.279C561.103 755.984 562.543 755.568 563.599 754.736C564.687 753.872 565.231 752.688 565.231 751.184C565.231 749.68 564.687 748.512 563.599 747.68C562.543 746.848 561.103 746.432 559.279 746.432H544.207L547.903 742.256V776H539.743V740H560.239C562.863 740 565.167 740.48 567.151 741.44C569.135 742.368 570.687 743.664 571.807 745.328C572.927 746.992 573.487 748.944 573.487 751.184C573.487 753.392 572.927 755.328 571.807 756.992C570.687 758.656 569.135 759.968 567.151 760.928C565.167 761.856 562.863 762.32 560.239 762.32H545.407V755.984ZM551.647 759.152H560.959L574.543 776H564.991L551.647 759.152ZM579.587 740H587.747V776H579.587V740ZM583.667 786.848C582.227 786.848 581.043 786.464 580.115 785.696C579.219 784.96 578.771 783.968 578.771 782.72C578.771 781.44 579.219 780.416 580.115 779.648C581.043 778.912 582.227 778.544 583.667 778.544C585.139 778.544 586.323 778.912 587.219 779.648C588.115 780.416 588.563 781.44 588.563 782.72C588.563 783.968 588.115 784.96 587.219 785.696C586.323 786.464 585.139 786.848 583.667 786.848ZM646.36 761.36C646.008 764.4 644.936 767.088 643.144 769.424C641.384 771.728 639.048 773.52 636.136 774.8C633.256 776.08 629.96 776.72 626.248 776.72C622.152 776.72 618.552 775.936 615.448 774.368C612.376 772.8 609.976 770.624 608.248 767.84C606.52 765.024 605.656 761.744 605.656 758C605.656 754.256 606.52 750.992 608.248 748.208C609.976 745.392 612.376 743.2 615.448 741.632C618.552 740.064 622.152 739.28 626.248 739.28C629.96 739.28 633.256 739.92 636.136 741.2C639.048 742.48 641.384 744.272 643.144 746.576C644.936 748.88 646.008 751.568 646.36 754.64H638.152C637.832 752.944 637.144 751.488 636.088 750.272C635.032 749.024 633.672 748.064 632.008 747.392C630.344 746.72 628.408 746.384 626.2 746.384C623.672 746.384 621.48 746.864 619.624 747.824C617.8 748.752 616.392 750.096 615.4 751.856C614.408 753.584 613.912 755.632 613.912 758C613.912 760.368 614.408 762.432 615.4 764.192C616.392 765.92 617.8 767.264 619.624 768.224C621.48 769.152 623.672 769.616 626.2 769.616C628.408 769.616 630.344 769.296 632.008 768.656C633.672 767.984 635.032 767.04 636.088 765.824C637.144 764.576 637.832 763.088 638.152 761.36H646.36ZM670.928 776.72C666.736 776.72 663.056 775.936 659.888 774.368C656.752 772.8 654.304 770.624 652.544 767.84C650.784 765.024 649.904 761.744 649.904 758C649.904 754.256 650.784 750.992 652.544 748.208C654.304 745.392 656.752 743.2 659.888 741.632C663.056 740.064 666.736 739.28 670.928 739.28C675.12 739.28 678.784 740.064 681.92 741.632C685.088 743.2 687.552 745.392 689.312 748.208C691.072 750.992 691.952 754.256 691.952 758C691.952 761.744 691.072 765.024 689.312 767.84C687.552 770.624 685.088 772.8 681.92 774.368C678.784 775.936 675.12 776.72 670.928 776.72ZM670.928 769.472C673.552 769.472 675.808 769.008 677.696 768.08C679.616 767.152 681.088 765.824 682.112 764.096C683.168 762.368 683.696 760.336 683.696 758C683.696 755.664 683.168 753.632 682.112 751.904C681.088 750.176 679.616 748.848 677.696 747.92C675.808 746.992 673.552 746.528 670.928 746.528C668.336 746.528 666.08 746.992 664.16 747.92C662.24 748.848 660.752 750.176 659.696 751.904C658.672 753.632 658.16 755.664 658.16 758C658.16 760.336 658.672 762.368 659.696 764.096C660.752 765.824 662.24 767.152 664.16 768.08C666.08 769.008 668.336 769.472 670.928 769.472ZM666.56 729.488H675.248L682.448 737.216H675.584L669.104 732.224H672.704L666.224 737.216H659.408L666.56 729.488ZM730.931 770.624L728.099 771.056V740H736.019V776H725.699L702.659 744.944L705.443 744.512V776H697.571V740H708.131L730.931 770.624ZM779.8 760.4C779.768 762.576 779.336 764.656 778.504 766.64C777.704 768.592 776.552 770.336 775.048 771.872C773.544 773.376 771.688 774.56 769.48 775.424C767.272 776.288 764.712 776.72 761.8 776.72C758.984 776.72 756.344 776.304 753.88 775.472C751.448 774.608 749.304 773.376 747.448 771.776C745.624 770.176 744.2 768.224 743.176 765.92C742.152 763.584 741.64 760.944 741.64 758C741.64 755.056 742.152 752.432 743.176 750.128C744.232 747.792 745.688 745.824 747.544 744.224C749.4 742.624 751.576 741.408 754.072 740.576C756.568 739.712 759.288 739.28 762.232 739.28C766.072 739.28 769.4 739.888 772.216 741.104C775.032 742.288 777.304 743.936 779.032 746.048C780.792 748.16 781.88 750.576 782.296 753.296H774.088C773.768 751.824 773.064 750.56 771.976 749.504C770.92 748.448 769.56 747.632 767.896 747.056C766.264 746.48 764.376 746.192 762.232 746.192C759.704 746.192 757.512 746.656 755.656 747.584C753.832 748.48 752.408 749.808 751.384 751.568C750.392 753.328 749.896 755.472 749.896 758C749.896 760.528 750.424 762.688 751.48 764.48C752.536 766.272 754.04 767.648 755.992 768.608C757.944 769.536 760.248 770 762.904 770C765.496 770 767.768 769.6 769.72 768.8C771.672 767.968 773.208 766.816 774.328 765.344C775.48 763.84 776.136 762.064 776.296 760.016L779.8 760.4ZM764.008 763.712V757.808H782.68V776H776.824L775.72 761.408L777.4 763.712H764.008ZM811.371 743.648H819.483V776H811.371V743.648ZM797.019 740H833.787V747.2H797.019V740ZM852.113 776V758.624H860.273V776H852.113ZM835.169 740H844.241L858.113 757.52H854.177L868.049 740H877.121L858.785 763.184L853.553 763.232L835.169 740Z" fill="#24CBFF"/>
</svg>
