<svg width="100%" viewBox="0 0 375 812" fill="none" xmlns="http://www.w3.org/2000/svg">
<path d="M23.712 571.528H30.24L40.8 582.728H34.112L23.712 571.528ZM27.296 581.48C24.5013 581.48 22.048 580.957 19.936 579.912C17.8453 578.867 16.2133 577.416 15.04 575.56C13.8667 573.683 13.28 571.496 13.28 569C13.28 566.504 13.8667 564.328 15.04 562.472C16.2133 560.595 17.8453 559.133 19.936 558.088C22.048 557.043 24.5013 556.52 27.296 556.52C30.0907 556.52 32.5333 557.043 34.624 558.088C36.736 559.133 38.3787 560.595 39.552 562.472C40.7253 564.328 41.312 566.504 41.312 569C41.312 571.496 40.7253 573.683 39.552 575.56C38.3787 577.416 36.736 578.867 34.624 579.912C32.5333 580.957 30.0907 581.48 27.296 581.48ZM27.296 576.648C29.0453 576.648 30.5493 576.339 31.808 575.72C33.088 575.101 34.0693 574.216 34.752 573.064C35.456 571.912 35.808 570.557 35.808 569C35.808 567.443 35.456 566.088 34.752 564.936C34.0693 563.784 33.088 562.899 31.808 562.28C30.5493 561.661 29.0453 561.352 27.296 561.352C25.568 561.352 24.064 561.661 22.784 562.28C21.504 562.899 20.512 563.784 19.808 564.936C19.1253 566.088 18.784 567.443 18.784 569C18.784 570.557 19.1253 571.912 19.808 573.064C20.512 574.216 21.504 575.101 22.784 575.72C24.064 576.339 25.568 576.648 27.296 576.648ZM50.209 570.472C50.209 571.752 50.4543 572.851 50.945 573.768C51.4357 574.685 52.1503 575.4 53.089 575.912C54.049 576.403 55.201 576.648 56.545 576.648C57.9103 576.648 59.0623 576.403 60.001 575.912C60.9397 575.4 61.6543 574.685 62.145 573.768C62.6357 572.851 62.881 571.752 62.881 570.472V557H68.321V570.728C68.321 572.883 67.8303 574.771 66.849 576.392C65.8677 577.992 64.4917 579.24 62.721 580.136C60.9503 581.032 58.8917 581.48 56.545 581.48C54.1983 581.48 52.1397 581.032 50.369 580.136C48.6197 579.24 47.2437 577.992 46.241 576.392C45.2597 574.771 44.769 572.883 44.769 570.728V557H50.209V570.472ZM75.4625 575.944V571.528H92.1025V575.944H75.4625ZM87.3985 557L98.6305 581H92.8385L83.0145 559.208H84.8065L74.9825 581H69.1905L80.4225 557H87.3985ZM82.6625 555.592L81.5745 553.768C82.5985 553.597 83.3238 553.395 83.7505 553.16C84.1985 552.904 84.4225 552.627 84.4225 552.328C84.4225 552.051 84.2518 551.848 83.9105 551.72C83.5692 551.592 83.0678 551.528 82.4065 551.528C81.8945 551.528 81.4252 551.56 80.9985 551.624C80.5718 551.688 80.1238 551.763 79.6545 551.848V548.968C80.0812 548.84 80.6465 548.723 81.3505 548.616C82.0758 548.509 82.8225 548.456 83.5905 548.456C85.3398 548.456 86.6732 548.712 87.5905 549.224C88.5292 549.715 88.9985 550.504 88.9985 551.592C88.9985 552.573 88.5078 553.395 87.5265 554.056C86.5452 554.717 84.9238 555.229 82.6625 555.592ZM123.454 577.416L121.566 577.704V557H126.846V581H119.966L104.606 560.296L106.462 560.008V581H101.214V557H108.254L123.454 577.416ZM146.518 559.432H151.926V581H146.518V559.432ZM136.95 557H161.462V561.8H136.95V557ZM168.271 567.656H177.519C178.735 567.656 179.695 567.379 180.399 566.824C181.125 566.248 181.487 565.459 181.487 564.456C181.487 563.453 181.125 562.675 180.399 562.12C179.695 561.565 178.735 561.288 177.519 561.288H167.471L169.935 558.504V581H164.495V557H178.159C179.909 557 181.445 557.32 182.767 557.96C184.09 558.579 185.125 559.443 185.871 560.552C186.618 561.661 186.991 562.963 186.991 564.456C186.991 565.928 186.618 567.219 185.871 568.328C185.125 569.437 184.09 570.312 182.767 570.952C181.445 571.571 179.909 571.88 178.159 571.88H168.271V567.656ZM172.431 569.768H178.639L187.695 581H181.327L172.431 569.768ZM191.058 557H196.498V581H191.058V557ZM193.778 588.232C192.818 588.232 192.028 587.976 191.41 587.464C190.812 586.973 190.514 586.312 190.514 585.48C190.514 584.627 190.812 583.944 191.41 583.432C192.028 582.941 192.818 582.696 193.778 582.696C194.759 582.696 195.548 582.941 196.146 583.432C196.743 583.944 197.042 584.627 197.042 585.48C197.042 586.312 196.743 586.973 196.146 587.464C195.548 587.976 194.759 588.232 193.778 588.232ZM40.448 611.24C40.2133 613.267 39.4987 615.059 38.304 616.616C37.1307 618.152 35.5733 619.347 33.632 620.2C31.712 621.053 29.5147 621.48 27.04 621.48C24.3093 621.48 21.9093 620.957 19.84 619.912C17.792 618.867 16.192 617.416 15.04 615.56C13.888 613.683 13.312 611.496 13.312 609C13.312 606.504 13.888 604.328 15.04 602.472C16.192 600.595 17.792 599.133 19.84 598.088C21.9093 597.043 24.3093 596.52 27.04 596.52C29.5147 596.52 31.712 596.947 33.632 597.8C35.5733 598.653 37.1307 599.848 38.304 601.384C39.4987 602.92 40.2133 604.712 40.448 606.76H34.976C34.7627 605.629 34.304 604.659 33.6 603.848C32.896 603.016 31.9893 602.376 30.88 601.928C29.7707 601.48 28.48 601.256 27.008 601.256C25.3227 601.256 23.8613 601.576 22.624 602.216C21.408 602.835 20.4693 603.731 19.808 604.904C19.1467 606.056 18.816 607.421 18.816 609C18.816 610.579 19.1467 611.955 19.808 613.128C20.4693 614.28 21.408 615.176 22.624 615.816C23.8613 616.435 25.3227 616.744 27.008 616.744C28.48 616.744 29.7707 616.531 30.88 616.104C31.9893 615.656 32.896 615.027 33.6 614.216C34.304 613.384 34.7627 612.392 34.976 611.24H40.448ZM56.8273 621.48C54.0326 621.48 51.5793 620.957 49.4673 619.912C47.3766 618.867 45.7446 617.416 44.5713 615.56C43.3979 613.683 42.8113 611.496 42.8113 609C42.8113 606.504 43.3979 604.328 44.5713 602.472C45.7446 600.595 47.3766 599.133 49.4673 598.088C51.5793 597.043 54.0326 596.52 56.8273 596.52C59.6219 596.52 62.0646 597.043 64.1553 598.088C66.2673 599.133 67.9099 600.595 69.0833 602.472C70.2566 604.328 70.8433 606.504 70.8433 609C70.8433 611.496 70.2566 613.683 69.0833 615.56C67.9099 617.416 66.2673 618.867 64.1553 619.912C62.0646 620.957 59.6219 621.48 56.8273 621.48ZM56.8273 616.648C58.5766 616.648 60.0806 616.339 61.3393 615.72C62.6193 615.101 63.6006 614.216 64.2833 613.064C64.9873 611.912 65.3393 610.557 65.3393 609C65.3393 607.443 64.9873 606.088 64.2833 604.936C63.6006 603.784 62.6193 602.899 61.3393 602.28C60.0806 601.661 58.5766 601.352 56.8273 601.352C55.0993 601.352 53.5953 601.661 52.3153 602.28C51.0353 602.899 50.0433 603.784 49.3393 604.936C48.6566 606.088 48.3153 607.443 48.3153 609C48.3153 610.557 48.6566 611.912 49.3393 613.064C50.0433 614.216 51.0353 615.101 52.3153 615.72C53.5953 616.339 55.0993 616.648 56.8273 616.648ZM53.9153 589.992H59.7073L64.5073 595.144H59.9313L55.6113 591.816H58.0113L53.6913 595.144H49.1473L53.9153 589.992ZM96.829 617.416L94.941 617.704V597H100.221V621H93.341L77.981 600.296L79.837 600.008V621H74.589V597H81.629L96.829 617.416ZM129.408 610.6C129.387 612.051 129.099 613.437 128.544 614.76C128.011 616.061 127.243 617.224 126.24 618.248C125.238 619.251 124 620.04 122.528 620.616C121.056 621.192 119.35 621.48 117.408 621.48C115.531 621.48 113.771 621.203 112.128 620.648C110.507 620.072 109.078 619.251 107.84 618.184C106.624 617.117 105.675 615.816 104.992 614.28C104.31 612.723 103.968 610.963 103.968 609C103.968 607.037 104.31 605.288 104.992 603.752C105.696 602.195 106.667 600.883 107.904 599.816C109.142 598.749 110.592 597.939 112.256 597.384C113.92 596.808 115.734 596.52 117.696 596.52C120.256 596.52 122.475 596.925 124.352 597.736C126.23 598.525 127.744 599.624 128.896 601.032C130.07 602.44 130.795 604.051 131.072 605.864H125.6C125.387 604.883 124.918 604.04 124.192 603.336C123.488 602.632 122.582 602.088 121.472 601.704C120.384 601.32 119.126 601.128 117.696 601.128C116.011 601.128 114.55 601.437 113.312 602.056C112.096 602.653 111.147 603.539 110.464 604.712C109.803 605.885 109.472 607.315 109.472 609C109.472 610.685 109.824 612.125 110.528 613.32C111.232 614.515 112.235 615.432 113.536 616.072C114.838 616.691 116.374 617 118.144 617C119.872 617 121.387 616.733 122.688 616.2C123.99 615.645 125.014 614.877 125.76 613.896C126.528 612.893 126.966 611.709 127.072 610.344L129.408 610.6ZM118.88 612.808V608.872H131.328V621H127.424L126.688 611.272L127.808 612.808H118.88ZM150.456 599.432H155.864V621H150.456V599.432ZM140.888 597H165.4V601.8H140.888V597ZM177.617 621V609.416H183.057V621H177.617ZM166.321 597H172.369L181.617 608.68H178.993L188.241 597H194.289L182.065 612.456L178.577 612.488L166.321 597Z" fill="#24CBFF"/>
</svg>
