<svg width="100%" viewBox="0 0 1301 25" fill="none" xmlns="http://www.w3.org/2000/svg">
<path d="M1.43466 20V5.45455H7.00284C8.05398 5.45455 8.92756 5.62026 9.62358 5.9517C10.3243 6.27841 10.8475 6.72585 11.1932 7.29403C11.5436 7.86222 11.7188 8.50616 11.7188 9.22585C11.7188 9.81771 11.6051 10.3243 11.3778 10.7457C11.1506 11.1624 10.8452 11.5009 10.4616 11.7614C10.0781 12.0218 9.64962 12.2088 9.17614 12.3224V12.4645C9.69224 12.4929 10.187 12.6515 10.6605 12.9403C11.1387 13.2244 11.5294 13.6269 11.8324 14.1477C12.1354 14.6686 12.2869 15.2983 12.2869 16.0369C12.2869 16.7898 12.1046 17.4669 11.7401 18.0682C11.3755 18.6648 10.8262 19.1359 10.0923 19.4815C9.35843 19.8272 8.43513 20 7.32244 20H1.43466ZM4.0696 17.7983H6.90341C7.85985 17.7983 8.54877 17.616 8.97017 17.2514C9.39631 16.8821 9.60938 16.4086 9.60938 15.831C9.60938 15.4001 9.50284 15.0118 9.28977 14.6662C9.0767 14.3158 8.77367 14.0412 8.38068 13.8423C7.98769 13.6387 7.51894 13.5369 6.97443 13.5369H4.0696V17.7983ZM4.0696 11.6406H6.67614C7.13068 11.6406 7.54025 11.5578 7.90483 11.392C8.26941 11.2216 8.55587 10.9825 8.7642 10.6747C8.97727 10.3622 9.08381 9.9929 9.08381 9.56676C9.08381 9.00331 8.88494 8.5393 8.48722 8.17472C8.09422 7.81013 7.50947 7.62784 6.73295 7.62784H4.0696V11.6406ZM16.4471 20H13.6346L18.7553 5.45455H22.0082L27.136 20H24.3235L20.4386 8.4375H20.3249L16.4471 20ZM16.5394 14.2969H24.2099V16.4134H16.5394V14.2969ZM41.005 5.45455V20H38.6612L31.8075 10.0923H31.6868V20H29.0518V5.45455H31.4098L38.2564 15.3693H38.3842V5.45455H41.005ZM53.766 20H50.0799V17.7202H53.6381C54.6514 17.7202 55.4966 17.5355 56.1737 17.1662C56.8507 16.7921 57.3597 16.2358 57.7006 15.4972C58.0415 14.7538 58.212 13.8258 58.212 12.7131C58.212 11.6004 58.0415 10.6771 57.7006 9.94318C57.3597 9.20455 56.8555 8.65294 56.1879 8.28835C55.525 7.91903 54.7011 7.73438 53.7163 7.73438H50.0018V5.45455H53.8654C55.3095 5.45455 56.5501 5.74574 57.587 6.32812C58.6287 6.90578 59.4289 7.73674 59.9876 8.82102C60.5463 9.9053 60.8256 11.2027 60.8256 12.7131C60.8256 14.2282 60.5439 15.5303 59.9805 16.6193C59.4218 17.7083 58.6145 18.544 57.5586 19.1264C56.5075 19.7088 55.2433 20 53.766 20ZM51.4719 5.45455V20H48.837V5.45455H51.4719ZM46.7347 13.196V11.5767H53.5458V13.196H46.7347ZM65.9641 5.45455V20H63.3292V5.45455H65.9641ZM68.8175 20V5.45455H78.2777V7.66335H71.4524V11.6122H77.7876V13.821H71.4524V17.7912H78.3345V20H68.8175ZM74.343 1.91051L77.2266 4.24716H75.0888L73.5547 2.94034L71.9993 4.24716H69.8757L72.7308 1.91051H74.343ZM69.0447 0.198863L70.6143 2.8267H69.0092L66.7933 0.198863H69.0447ZM90.1349 5.45455H92.7699V14.9574C92.7699 15.9991 92.5237 16.9152 92.0312 17.706C91.5436 18.4967 90.857 19.1146 89.9716 19.5597C89.0862 20 88.0516 20.2202 86.8679 20.2202C85.6795 20.2202 84.6425 20 83.7571 19.5597C82.8717 19.1146 82.1851 18.4967 81.6974 17.706C81.2098 16.9152 80.9659 15.9991 80.9659 14.9574V5.45455H83.6009V14.7372C83.6009 15.3433 83.7334 15.883 83.9986 16.3565C84.2685 16.83 84.6473 17.2017 85.1349 17.4716C85.6226 17.7367 86.2003 17.8693 86.8679 17.8693C87.5355 17.8693 88.1132 17.7367 88.6009 17.4716C89.0933 17.2017 89.4721 16.83 89.7372 16.3565C90.0024 15.883 90.1349 15.3433 90.1349 14.7372V5.45455ZM100.595 20V5.45455H103.23V11.6122H109.97V5.45455H112.612V20H109.97V13.821H103.23V20H100.595ZM117.346 20H114.533L119.654 5.45455H122.907L128.034 20H125.222L121.337 8.4375H121.223L117.346 20ZM117.438 14.2969H125.108V16.4134H117.438V14.2969ZM120.343 4.01989L118.162 0.774148H120.684L122.267 4.01989H120.343ZM141.903 5.45455V20H139.56L132.706 10.0923H132.585V20H129.95V5.45455H132.308L139.155 15.3693H139.283V5.45455H141.903ZM144.775 20V5.45455H147.409V11.6122H154.15V5.45455H156.792V20H154.15V13.821H147.409V20H144.775ZM167.253 5.45455V20H164.618V5.45455H167.253ZM170.107 5.45455H173.331L177.649 15.9943H177.82L182.138 5.45455H185.362V20H182.834V10.0071H182.699L178.679 19.9574H176.79L172.77 9.9858H172.635V20H170.107V5.45455ZM188.232 20V5.45455H197.692V7.66335H190.866V11.6122H197.202V13.821H190.866V17.7912H197.749V20H188.232ZM202.582 5.45455L205.785 10.7812H205.898L209.116 5.45455H212.12L207.638 12.7273L212.191 20H209.137L205.898 14.7088H205.785L202.546 20H199.506L204.102 12.7273L199.563 5.45455H202.582ZM214.189 20V5.45455H219.643C220.761 5.45455 221.698 5.66288 222.456 6.07955C223.218 6.49621 223.793 7.06913 224.181 7.7983C224.574 8.52273 224.771 9.34659 224.771 10.2699C224.771 11.2027 224.574 12.0312 224.181 12.7557C223.788 13.4801 223.208 14.0507 222.441 14.4673C221.674 14.8793 220.73 15.0852 219.608 15.0852H215.993V12.919H219.252C219.906 12.919 220.441 12.8054 220.858 12.5781C221.274 12.3509 221.582 12.0384 221.781 11.6406C221.984 11.2429 222.086 10.786 222.086 10.2699C222.086 9.75379 221.984 9.29924 221.781 8.90625C221.582 8.51326 221.272 8.20786 220.85 7.99006C220.434 7.76752 219.896 7.65625 219.238 7.65625H216.824V20H214.189ZM227.06 20V5.45455H229.695V11.6122H236.435V5.45455H239.077V20H236.435V13.821H229.695V20H227.06ZM243.81 20H240.998L246.119 5.45455H249.371L254.499 20H251.687L247.802 8.4375H247.688L243.81 20ZM243.903 14.2969H251.573V16.4134H243.903V14.2969ZM256.415 20V5.45455H261.87C262.987 5.45455 263.925 5.64867 264.682 6.03693C265.444 6.42519 266.02 6.9697 266.408 7.67045C266.801 8.36648 266.998 9.1785 266.998 10.1065C266.998 11.0393 266.799 11.849 266.401 12.5355C266.008 13.2173 265.428 13.7453 264.661 14.1193C263.894 14.4886 262.952 14.6733 261.834 14.6733H257.949V12.4858H261.479C262.132 12.4858 262.667 12.3958 263.084 12.2159C263.501 12.0312 263.809 11.7637 264.007 11.4134C264.211 11.0582 264.313 10.6226 264.313 10.1065C264.313 9.59044 264.211 9.15009 264.007 8.78551C263.804 8.41619 263.494 8.13684 263.077 7.94744C262.66 7.75331 262.123 7.65625 261.465 7.65625H259.05V20H256.415ZM263.929 13.4091L267.53 20H264.59L261.053 13.4091H263.929ZM269.423 5.45455H272.647L276.966 15.9943H277.136L281.454 5.45455H284.679V20H282.15V10.0071H282.015L277.995 19.9574H276.106L272.086 9.9858H271.951V20H269.423V5.45455Z" fill="#24CBFF"/>
</svg>
