<svg width="100%" viewBox="0 0 351 26" fill="none" xmlns="http://www.w3.org/2000/svg">
<path d="M1.43466 21V6.45455H4.0696V12.6122H10.8097V6.45455H13.4517V21H10.8097V14.821H4.0696V21H1.43466ZM29.3146 13.7273C29.3146 15.2945 29.0211 16.6368 28.4339 17.7543C27.8516 18.867 27.0561 19.7192 26.0476 20.3111C25.0438 20.9029 23.9051 21.1989 22.6314 21.1989C21.3577 21.1989 20.2166 20.9029 19.2081 20.3111C18.2043 19.7145 17.4089 18.8598 16.8217 17.7472C16.2393 16.6297 15.9482 15.2898 15.9482 13.7273C15.9482 12.16 16.2393 10.8201 16.8217 9.70739C17.4089 8.58996 18.2043 7.73532 19.2081 7.14347C20.2166 6.55161 21.3577 6.25568 22.6314 6.25568C23.9051 6.25568 25.0438 6.55161 26.0476 7.14347C27.0561 7.73532 27.8516 8.58996 28.4339 9.70739C29.0211 10.8201 29.3146 12.16 29.3146 13.7273ZM26.6655 13.7273C26.6655 12.6241 26.4927 11.6937 26.147 10.9361C25.8061 10.1738 25.3326 9.59848 24.7266 9.21023C24.1205 8.81723 23.4221 8.62074 22.6314 8.62074C21.8407 8.62074 21.1423 8.81723 20.5362 9.21023C19.9302 9.59848 19.4543 10.1738 19.1087 10.9361C18.7678 11.6937 18.5973 12.6241 18.5973 13.7273C18.5973 14.8305 18.7678 15.7633 19.1087 16.5256C19.4543 17.2831 19.9302 17.8584 20.5362 18.2514C21.1423 18.6397 21.8407 18.8338 22.6314 18.8338C23.4221 18.8338 24.1205 18.6397 24.7266 18.2514C25.3326 17.8584 25.8061 17.2831 26.147 16.5256C26.4927 15.7633 26.6655 14.8305 26.6655 13.7273ZM24.0732 5.14773L22.6314 3.32955L21.1896 5.14773H18.9382V5.0483L21.63 1.98011H23.6399L26.3246 5.0483V5.14773H24.0732ZM22.6385 24.9276C22.2266 24.9276 21.8738 24.7902 21.5803 24.5156C21.2914 24.241 21.147 23.9119 21.147 23.5284C21.147 23.1449 21.2914 22.8158 21.5803 22.5412C21.8738 22.2666 22.2242 22.1293 22.6314 22.1293C23.0433 22.1293 23.3937 22.2666 23.6825 22.5412C23.9761 22.8158 24.1229 23.1449 24.1229 23.5284C24.1229 23.9119 23.9761 24.241 23.6825 24.5156C23.3937 24.7902 23.0457 24.9276 22.6385 24.9276ZM34.4407 6.45455V21H31.8058V6.45455H34.4407ZM47.1839 21H43.4979V18.7202H47.0561C48.0694 18.7202 48.9145 18.5355 49.5916 18.1662C50.2687 17.7921 50.7777 17.2358 51.1186 16.4972C51.4595 15.7538 51.63 14.8258 51.63 13.7131C51.63 12.6004 51.4595 11.6771 51.1186 10.9432C50.7777 10.2045 50.2734 9.65294 49.6058 9.28835C48.9429 8.91903 48.1191 8.73438 47.1342 8.73438H43.4197V6.45455H47.2834C48.7275 6.45455 49.968 6.74574 51.005 7.32812C52.0466 7.90578 52.8468 8.73674 53.4055 9.82102C53.9643 10.9053 54.2436 12.2027 54.2436 13.7131C54.2436 15.2282 53.9619 16.5303 53.3984 17.6193C52.8397 18.7083 52.0324 19.544 50.9766 20.1264C49.9254 20.7088 48.6612 21 47.1839 21ZM44.8899 6.45455V21H42.255V6.45455H44.8899ZM40.1527 14.196V12.5767H46.9638V14.196H40.1527ZM69.7443 13.7273C69.7443 15.2945 69.4508 16.6368 68.8636 17.7543C68.2813 18.867 67.4858 19.7192 66.4773 20.3111C65.4735 20.9029 64.3348 21.1989 63.0611 21.1989C61.7874 21.1989 60.6463 20.9029 59.6378 20.3111C58.634 19.7145 57.8385 18.8598 57.2514 17.7472C56.669 16.6297 56.3778 15.2898 56.3778 13.7273C56.3778 12.16 56.669 10.8201 57.2514 9.70739C57.8385 8.58996 58.634 7.73532 59.6378 7.14347C60.6463 6.55161 61.7874 6.25568 63.0611 6.25568C64.3348 6.25568 65.4735 6.55161 66.4773 7.14347C67.4858 7.73532 68.2813 8.58996 68.8636 9.70739C69.4508 10.8201 69.7443 12.16 69.7443 13.7273ZM67.0952 13.7273C67.0952 12.6241 66.9223 11.6937 66.5767 10.9361C66.2358 10.1738 65.7623 9.59848 65.1562 9.21023C64.5502 8.81723 63.8518 8.62074 63.0611 8.62074C62.2704 8.62074 61.572 8.81723 60.9659 9.21023C60.3598 9.59848 59.884 10.1738 59.5384 10.9361C59.1974 11.6937 59.027 12.6241 59.027 13.7273C59.027 14.8305 59.1974 15.7633 59.5384 16.5256C59.884 17.2831 60.3598 17.8584 60.9659 18.2514C61.572 18.6397 62.2704 18.8338 63.0611 18.8338C63.8518 18.8338 64.5502 18.6397 65.1562 18.2514C65.7623 17.8584 66.2358 17.2831 66.5767 16.5256C66.9223 15.7633 67.0952 14.8305 67.0952 13.7273ZM63.8565 2.91051L66.7401 5.24716H64.6023L63.0682 3.94034L61.5128 5.24716H59.3892L62.2443 2.91051H63.8565ZM58.5582 1.19886L60.1278 3.8267H58.5227L56.3068 1.19886H58.5582ZM84.1886 6.45455V21H81.8448L74.9911 11.0923H74.8704V21H72.2354V6.45455H74.5934L81.44 16.3693H81.5678V6.45455H84.1886ZM96.804 11.0994C96.6856 10.7159 96.5223 10.3726 96.3139 10.0696C96.1103 9.76184 95.8641 9.49905 95.5753 9.28125C95.2912 9.06345 94.9645 8.90009 94.5952 8.79119C94.2259 8.67756 93.8234 8.62074 93.3878 8.62074C92.6065 8.62074 91.9105 8.81723 91.2997 9.21023C90.6889 9.60322 90.2083 10.1809 89.858 10.9432C89.5123 11.7008 89.3395 12.6241 89.3395 13.7131C89.3395 14.8116 89.5123 15.742 89.858 16.5043C90.2036 17.2666 90.6842 17.8466 91.2997 18.2443C91.9152 18.6373 92.6302 18.8338 93.4446 18.8338C94.1832 18.8338 94.8224 18.6918 95.3622 18.4077C95.9067 18.1236 96.3258 17.7211 96.6193 17.2003C96.9129 16.6747 97.0597 16.0592 97.0597 15.3537L97.6562 15.446H93.7074V13.3864H99.6094V15.1335C99.6094 16.3788 99.3442 17.456 98.8139 18.3651C98.2836 19.2741 97.5545 19.9749 96.6264 20.4673C95.6984 20.955 94.633 21.1989 93.4304 21.1989C92.0904 21.1989 90.9138 20.8982 89.9006 20.2969C88.892 19.6908 88.1037 18.8314 87.5355 17.7188C86.9721 16.6013 86.6903 15.2756 86.6903 13.7415C86.6903 12.5672 86.8561 11.5185 87.1875 10.5952C87.5237 9.67188 87.9924 8.88826 88.5938 8.24432C89.1951 7.59564 89.9006 7.10322 90.7102 6.76705C91.5199 6.42614 92.4006 6.25568 93.3523 6.25568C94.1572 6.25568 94.9077 6.37405 95.6037 6.6108C96.2997 6.8428 96.9176 7.17424 97.4574 7.60511C98.0019 8.03598 98.4493 8.54735 98.7997 9.1392C99.1501 9.73106 99.3797 10.3845 99.4886 11.0994H96.804ZM112.537 16.1136H114.924L116.337 17.946L117.346 19.1392L119.767 22.25H117.211L115.563 20.1619L114.86 19.1676L112.537 16.1136ZM120.115 13.7273C120.115 15.2945 119.822 16.6368 119.235 17.7543C118.652 18.867 117.857 19.7192 116.848 20.3111C115.845 20.9029 114.706 21.1989 113.432 21.1989C112.158 21.1989 111.017 20.9029 110.009 20.3111C109.005 19.7145 108.21 18.8598 107.623 17.7472C107.04 16.6297 106.749 15.2898 106.749 13.7273C106.749 12.16 107.04 10.8201 107.623 9.70739C108.21 8.58996 109.005 7.73532 110.009 7.14347C111.017 6.55161 112.158 6.25568 113.432 6.25568C114.706 6.25568 115.845 6.55161 116.848 7.14347C117.857 7.73532 118.652 8.58996 119.235 9.70739C119.822 10.8201 120.115 12.16 120.115 13.7273ZM117.466 13.7273C117.466 12.6241 117.293 11.6937 116.948 10.9361C116.607 10.1738 116.133 9.59848 115.527 9.21023C114.921 8.81723 114.223 8.62074 113.432 8.62074C112.641 8.62074 111.943 8.81723 111.337 9.21023C110.731 9.59848 110.255 10.1738 109.909 10.9361C109.569 11.6937 109.398 12.6241 109.398 13.7273C109.398 14.8305 109.569 15.7633 109.909 16.5256C110.255 17.2831 110.731 17.8584 111.337 18.2514C111.943 18.6397 112.641 18.8338 113.432 18.8338C114.223 18.8338 114.921 18.6397 115.527 18.2514C116.133 17.8584 116.607 17.2831 116.948 16.5256C117.293 15.7633 117.466 14.8305 117.466 13.7273ZM131.795 6.45455H134.43V15.9574C134.43 16.9991 134.184 17.9152 133.691 18.706C133.204 19.4967 132.517 20.1146 131.632 20.5597C130.746 21 129.712 21.2202 128.528 21.2202C127.34 21.2202 126.303 21 125.417 20.5597C124.532 20.1146 123.845 19.4967 123.358 18.706C122.87 17.9152 122.626 16.9991 122.626 15.9574V6.45455H125.261V15.7372C125.261 16.3433 125.394 16.883 125.659 17.3565C125.929 17.83 126.307 18.2017 126.795 18.4716C127.283 18.7367 127.86 18.8693 128.528 18.8693C129.196 18.8693 129.773 18.7367 130.261 18.4716C130.753 18.2017 131.132 17.83 131.397 17.3565C131.663 16.883 131.795 16.3433 131.795 15.7372V6.45455ZM139.162 21H136.349L141.47 6.45455H144.723L149.851 21H147.038L143.153 9.4375H143.04L139.162 21ZM139.254 15.2969H146.925V17.4134H139.254V15.2969ZM144.084 4.92045H142.124L142.024 3.55682C142.526 3.53788 142.881 3.47396 143.089 3.36506C143.298 3.25142 143.4 3.09517 143.395 2.89631C143.4 2.64062 143.262 2.46307 142.983 2.36364C142.704 2.2642 142.358 2.21449 141.946 2.21449L142.01 0.94318C143.184 0.94318 144.074 1.11364 144.68 1.45455C145.286 1.79545 145.587 2.25947 145.582 2.84659C145.587 3.2964 145.433 3.63258 145.121 3.85511C144.808 4.07292 144.463 4.21023 144.084 4.26705V4.92045ZM163.72 6.45455V21H161.376L154.522 11.0923H154.402V21H151.767V6.45455H154.125L160.971 16.3693H161.099V6.45455H163.72ZM170.913 8.66335V6.45455H182.518V8.66335H178.022V21H175.408V8.66335H170.913ZM184.755 21V6.45455H190.21C191.327 6.45455 192.264 6.64867 193.022 7.03693C193.784 7.42519 194.36 7.9697 194.748 8.67045C195.141 9.36648 195.337 10.1785 195.337 11.1065C195.337 12.0393 195.138 12.849 194.741 13.5355C194.348 14.2173 193.768 14.7453 193.001 15.1193C192.234 15.4886 191.291 15.6733 190.174 15.6733H186.289V13.4858H189.819C190.472 13.4858 191.007 13.3958 191.424 13.2159C191.841 13.0312 192.148 12.7637 192.347 12.4134C192.551 12.0582 192.653 11.6226 192.653 11.1065C192.653 10.5904 192.551 10.1501 192.347 9.78551C192.144 9.41619 191.834 9.13684 191.417 8.94744C191 8.75331 190.463 8.65625 189.805 8.65625H187.39V21H184.755ZM192.269 14.4091L195.87 21H192.93L189.393 14.4091H192.269ZM200.398 6.45455V21H197.763V6.45455H200.398ZM199.077 24.9276C198.665 24.9276 198.312 24.7902 198.018 24.5156C197.73 24.241 197.585 23.9119 197.585 23.5284C197.585 23.1449 197.73 22.8158 198.018 22.5412C198.312 22.2666 198.662 22.1293 199.07 22.1293C199.482 22.1293 199.832 22.2666 200.121 22.5412C200.414 22.8158 200.561 23.1449 200.561 23.5284C200.561 23.9119 200.414 24.241 200.121 24.5156C199.832 24.7902 199.484 24.9276 199.077 24.9276ZM210.847 6.45455V21H208.212V6.45455H210.847ZM213.7 6.45455H216.925L221.243 16.9943H221.413L225.732 6.45455H228.956V21H226.428V11.0071H226.293L222.273 20.9574H220.384L216.364 10.9858H216.229V21H213.7V6.45455ZM231.825 21V6.45455H241.286V8.66335H234.46V12.6122H240.795V14.821H234.46V18.7912H241.342V21H231.825ZM246.175 6.45455L249.379 11.7812H249.492L252.71 6.45455H255.714L251.232 13.7273L255.785 21H252.731L249.492 15.7088H249.379L246.14 21H243.1L247.695 13.7273L243.157 6.45455H246.175ZM257.782 21V6.45455H263.237C264.354 6.45455 265.292 6.66288 266.049 7.07955C266.812 7.49621 267.387 8.06913 267.775 8.7983C268.168 9.52273 268.365 10.3466 268.365 11.2699C268.365 12.2027 268.168 13.0312 267.775 13.7557C267.382 14.4801 266.802 15.0507 266.035 15.4673C265.268 15.8793 264.324 16.0852 263.201 16.0852H259.586V13.919H262.846C263.5 13.919 264.035 13.8054 264.451 13.5781C264.868 13.3509 265.176 13.0384 265.375 12.6406C265.578 12.2429 265.68 11.786 265.68 11.2699C265.68 10.7538 265.578 10.2992 265.375 9.90625C265.176 9.51326 264.866 9.20786 264.444 8.99006C264.028 8.76752 263.49 8.65625 262.832 8.65625H260.417V21H257.782ZM270.653 21V6.45455H273.288V12.6122H280.028V6.45455H282.67V21H280.028V14.821H273.288V21H270.653ZM287.404 21H284.592L289.712 6.45455H292.965L298.093 21H295.281L291.396 9.4375H291.282L287.404 21ZM287.496 15.2969H295.167V17.4134H287.496V15.2969ZM300.009 21V6.45455H305.463C306.581 6.45455 307.518 6.64867 308.276 7.03693C309.038 7.42519 309.614 7.9697 310.002 8.67045C310.395 9.36648 310.591 10.1785 310.591 11.1065C310.591 12.0393 310.392 12.849 309.995 13.5355C309.602 14.2173 309.022 14.7453 308.255 15.1193C307.488 15.4886 306.545 15.6733 305.428 15.6733H301.543V13.4858H305.073C305.726 13.4858 306.261 13.3958 306.678 13.2159C307.095 13.0312 307.402 12.7637 307.601 12.4134C307.805 12.0582 307.907 11.6226 307.907 11.1065C307.907 10.5904 307.805 10.1501 307.601 9.78551C307.398 9.41619 307.087 9.13684 306.671 8.94744C306.254 8.75331 305.717 8.65625 305.059 8.65625H302.644V21H300.009ZM307.523 14.4091L311.124 21H308.184L304.647 14.4091H307.523ZM313.017 6.45455H316.241L320.559 16.9943H320.73L325.048 6.45455H328.272V21H325.744V11.0071H325.609L321.589 20.9574H319.7L315.68 10.9858H315.545V21H313.017V6.45455Z" fill="#24CBFF"/>
</svg>
