<svg width="100%" viewBox="0 0 351 139" fill="none" xmlns="http://www.w3.org/2000/svg">
<rect x="0.5" y="0.5" width="350" height="138" rx="13.5" fill="#24CBFF" fill-opacity="0.2"/>
<rect x="0.5" y="0.5" width="350" height="138" rx="13.5" stroke="#24CBFF"/>
<path d="M17.4091 39V27.3636H21.4773C22.2879 27.3636 22.9564 27.5038 23.483 27.7841C24.0095 28.0606 24.4015 28.4337 24.6591 28.9034C24.9167 29.3693 25.0455 29.8864 25.0455 30.4545C25.0455 30.9545 24.9564 31.3674 24.7784 31.6932C24.6042 32.0189 24.3731 32.2765 24.0852 32.4659C23.8011 32.6553 23.4924 32.7955 23.1591 32.8864V33C23.5152 33.0227 23.8731 33.1477 24.233 33.375C24.5928 33.6023 24.8939 33.928 25.1364 34.3523C25.3788 34.7765 25.5 35.2955 25.5 35.9091C25.5 36.4924 25.3674 37.017 25.1023 37.483C24.8371 37.9489 24.4186 38.3182 23.8466 38.5909C23.2746 38.8636 22.5303 39 21.6136 39H17.4091ZM18.8182 37.75H21.6136C22.5341 37.75 23.1875 37.572 23.5739 37.2159C23.964 36.8561 24.1591 36.4205 24.1591 35.9091C24.1591 35.5152 24.0587 35.1515 23.858 34.8182C23.6572 34.4811 23.3712 34.2121 23 34.0114C22.6288 33.8068 22.1894 33.7045 21.6818 33.7045H18.8182V37.75ZM18.8182 32.4773H21.4318C21.8561 32.4773 22.2386 32.3939 22.5795 32.2273C22.9242 32.0606 23.197 31.8258 23.3977 31.5227C23.6023 31.2197 23.7045 30.8636 23.7045 30.4545C23.7045 29.9432 23.5265 29.5095 23.1705 29.1534C22.8144 28.7936 22.25 28.6136 21.4773 28.6136H18.8182V32.4773ZM30.2017 39.2045C29.6487 39.2045 29.1468 39.1004 28.696 38.892C28.2453 38.6799 27.8873 38.375 27.6222 37.9773C27.357 37.5758 27.2244 37.0909 27.2244 36.5227C27.2244 36.0227 27.3229 35.6174 27.5199 35.3068C27.7169 34.9924 27.9801 34.7462 28.3097 34.5682C28.6392 34.3902 29.0028 34.2576 29.4006 34.1705C29.8021 34.0795 30.2055 34.0076 30.6108 33.9545C31.1411 33.8864 31.571 33.8352 31.9006 33.8011C32.2339 33.7633 32.4763 33.7008 32.6278 33.6136C32.7831 33.5265 32.8608 33.375 32.8608 33.1591V33.1136C32.8608 32.553 32.7074 32.1174 32.4006 31.8068C32.0975 31.4962 31.6373 31.3409 31.0199 31.3409C30.3797 31.3409 29.8778 31.4811 29.5142 31.7614C29.1506 32.0417 28.8949 32.3409 28.7472 32.6591L27.4744 32.2045C27.7017 31.6742 28.0047 31.2614 28.3835 30.9659C28.7661 30.6667 29.1828 30.4583 29.6335 30.3409C30.0881 30.2197 30.535 30.1591 30.9744 30.1591C31.2547 30.1591 31.5767 30.1932 31.9403 30.2614C32.3078 30.3258 32.6619 30.4602 33.0028 30.6648C33.3475 30.8693 33.6335 31.178 33.8608 31.5909C34.0881 32.0038 34.2017 32.5568 34.2017 33.25V39H32.8608V37.8182H32.7926C32.7017 38.0076 32.5502 38.2102 32.3381 38.4261C32.1259 38.642 31.8438 38.8258 31.4915 38.9773C31.1392 39.1288 30.7093 39.2045 30.2017 39.2045ZM30.4062 38C30.9366 38 31.3835 37.8958 31.7472 37.6875C32.1146 37.4792 32.3911 37.2102 32.5767 36.8807C32.7661 36.5511 32.8608 36.2045 32.8608 35.8409V34.6136C32.804 34.6818 32.679 34.7443 32.4858 34.8011C32.2964 34.8542 32.0767 34.9015 31.8267 34.9432C31.5805 34.9811 31.34 35.0152 31.1051 35.0455C30.8741 35.072 30.6866 35.0947 30.5426 35.1136C30.1941 35.1591 29.8684 35.233 29.5653 35.3352C29.2661 35.4337 29.0237 35.5833 28.8381 35.7841C28.6563 35.9811 28.5653 36.25 28.5653 36.5909C28.5653 37.0568 28.7377 37.4091 29.0824 37.6477C29.4309 37.8826 29.8722 38 30.4062 38ZM30.4517 29.0909L31.8381 26.4545H33.4062L31.6335 29.0909H30.4517ZM40.1946 39.1818C39.4067 39.1818 38.7154 38.9943 38.1207 38.6193C37.5298 38.2443 37.0677 37.7197 36.7344 37.0455C36.4048 36.3712 36.2401 35.5833 36.2401 34.6818C36.2401 33.7727 36.4048 32.9792 36.7344 32.3011C37.0677 31.6231 37.5298 31.0966 38.1207 30.7216C38.7154 30.3466 39.4067 30.1591 40.1946 30.1591C40.9825 30.1591 41.6719 30.3466 42.2628 30.7216C42.8575 31.0966 43.3196 31.6231 43.6491 32.3011C43.9825 32.9792 44.1491 33.7727 44.1491 34.6818C44.1491 35.5833 43.9825 36.3712 43.6491 37.0455C43.3196 37.7197 42.8575 38.2443 42.2628 38.6193C41.6719 38.9943 40.9825 39.1818 40.1946 39.1818ZM40.1946 37.9773C40.7931 37.9773 41.2855 37.8239 41.6719 37.517C42.0582 37.2102 42.3442 36.8068 42.5298 36.3068C42.7154 35.8068 42.8082 35.2652 42.8082 34.6818C42.8082 34.0985 42.7154 33.5549 42.5298 33.0511C42.3442 32.5473 42.0582 32.1402 41.6719 31.8295C41.2855 31.5189 40.7931 31.3636 40.1946 31.3636C39.5961 31.3636 39.1037 31.5189 38.7173 31.8295C38.331 32.1402 38.045 32.5473 37.8594 33.0511C37.6738 33.5549 37.581 34.0985 37.581 34.6818C37.581 35.2652 37.6738 35.8068 37.8594 36.3068C38.045 36.8068 38.331 37.2102 38.7173 37.517C39.1037 37.8239 39.5961 37.9773 40.1946 37.9773ZM54.2415 39.1818C53.4233 39.1818 52.7188 38.9886 52.1278 38.6023C51.5369 38.2159 51.0824 37.6837 50.7642 37.0057C50.446 36.3277 50.2869 35.553 50.2869 34.6818C50.2869 33.7955 50.4498 33.0133 50.7756 32.3352C51.1051 31.6534 51.5634 31.1212 52.1506 30.7386C52.7415 30.3523 53.4309 30.1591 54.2188 30.1591C54.8324 30.1591 55.3854 30.2727 55.8778 30.5C56.3703 30.7273 56.7737 31.0455 57.0881 31.4545C57.4025 31.8636 57.5975 32.3409 57.6733 32.8864H56.3324C56.2301 32.4886 56.0028 32.1364 55.6506 31.8295C55.3021 31.5189 54.8324 31.3636 54.2415 31.3636C53.7188 31.3636 53.2604 31.5 52.8665 31.7727C52.4763 32.0417 52.1714 32.4223 51.9517 32.9148C51.7358 33.4034 51.6278 33.9773 51.6278 34.6364C51.6278 35.3106 51.7339 35.8977 51.946 36.3977C52.1619 36.8977 52.465 37.286 52.8551 37.5625C53.2491 37.839 53.7112 37.9773 54.2415 37.9773C54.59 37.9773 54.9062 37.9167 55.1903 37.7955C55.4744 37.6742 55.715 37.5 55.9119 37.2727C56.1089 37.0455 56.2491 36.7727 56.3324 36.4545H57.6733C57.5975 36.9697 57.41 37.4337 57.1108 37.8466C56.8153 38.2557 56.4233 38.5814 55.9347 38.8239C55.4498 39.0625 54.8854 39.1818 54.2415 39.1818ZM62.2017 39.2045C61.6487 39.2045 61.1468 39.1004 60.696 38.892C60.2453 38.6799 59.8873 38.375 59.6222 37.9773C59.357 37.5758 59.2244 37.0909 59.2244 36.5227C59.2244 36.0227 59.3229 35.6174 59.5199 35.3068C59.7169 34.9924 59.9801 34.7462 60.3097 34.5682C60.6392 34.3902 61.0028 34.2576 61.4006 34.1705C61.8021 34.0795 62.2055 34.0076 62.6108 33.9545C63.1411 33.8864 63.571 33.8352 63.9006 33.8011C64.2339 33.7633 64.4763 33.7008 64.6278 33.6136C64.7831 33.5265 64.8608 33.375 64.8608 33.1591V33.1136C64.8608 32.553 64.7074 32.1174 64.4006 31.8068C64.0975 31.4962 63.6373 31.3409 63.0199 31.3409C62.3797 31.3409 61.8778 31.4811 61.5142 31.7614C61.1506 32.0417 60.8949 32.3409 60.7472 32.6591L59.4744 32.2045C59.7017 31.6742 60.0047 31.2614 60.3835 30.9659C60.7661 30.6667 61.1828 30.4583 61.6335 30.3409C62.0881 30.2197 62.535 30.1591 62.9744 30.1591C63.2547 30.1591 63.5767 30.1932 63.9403 30.2614C64.3078 30.3258 64.6619 30.4602 65.0028 30.6648C65.3475 30.8693 65.6335 31.178 65.8608 31.5909C66.0881 32.0038 66.2017 32.5568 66.2017 33.25V39H64.8608V37.8182H64.7926C64.7017 38.0076 64.5502 38.2102 64.3381 38.4261C64.1259 38.642 63.8438 38.8258 63.4915 38.9773C63.1392 39.1288 62.7093 39.2045 62.2017 39.2045ZM62.4062 38C62.9366 38 63.3835 37.8958 63.7472 37.6875C64.1146 37.4792 64.3911 37.2102 64.5767 36.8807C64.7661 36.5511 64.8608 36.2045 64.8608 35.8409V34.6136C64.804 34.6818 64.679 34.7443 64.4858 34.8011C64.2964 34.8542 64.0767 34.9015 63.8267 34.9432C63.5805 34.9811 63.34 35.0152 63.1051 35.0455C62.8741 35.072 62.6866 35.0947 62.5426 35.1136C62.1941 35.1591 61.8684 35.233 61.5653 35.3352C61.2661 35.4337 61.0237 35.5833 60.8381 35.7841C60.6563 35.9811 60.5653 36.25 60.5653 36.5909C60.5653 37.0568 60.7377 37.4091 61.0824 37.6477C61.4309 37.8826 61.8722 38 62.4062 38ZM62.4517 29.0909L63.8381 26.4545H65.4062L63.6335 29.0909H62.4517ZM72.1946 39.1818C71.4067 39.1818 70.7154 38.9943 70.1207 38.6193C69.5298 38.2443 69.0677 37.7197 68.7344 37.0455C68.4048 36.3712 68.2401 35.5833 68.2401 34.6818C68.2401 33.7727 68.4048 32.9792 68.7344 32.3011C69.0677 31.6231 69.5298 31.0966 70.1207 30.7216C70.7154 30.3466 71.4067 30.1591 72.1946 30.1591C72.9825 30.1591 73.6719 30.3466 74.2628 30.7216C74.8575 31.0966 75.3196 31.6231 75.6491 32.3011C75.9825 32.9792 76.1491 33.7727 76.1491 34.6818C76.1491 35.5833 75.9825 36.3712 75.6491 37.0455C75.3196 37.7197 74.8575 38.2443 74.2628 38.6193C73.6719 38.9943 72.9825 39.1818 72.1946 39.1818ZM72.1946 37.9773C72.7931 37.9773 73.2855 37.8239 73.6719 37.517C74.0582 37.2102 74.3442 36.8068 74.5298 36.3068C74.7154 35.8068 74.8082 35.2652 74.8082 34.6818C74.8082 34.0985 74.7154 33.5549 74.5298 33.0511C74.3442 32.5473 74.0582 32.1402 73.6719 31.8295C73.2855 31.5189 72.7931 31.3636 72.1946 31.3636C71.5961 31.3636 71.1037 31.5189 70.7173 31.8295C70.331 32.1402 70.045 32.5473 69.8594 33.0511C69.6738 33.5549 69.581 34.0985 69.581 34.6818C69.581 35.2652 69.6738 35.8068 69.8594 36.3068C70.045 36.8068 70.331 37.2102 70.7173 37.517C71.1037 37.8239 71.5961 37.9773 72.1946 37.9773ZM86.4915 30.2727V31.4091H81.9688V30.2727H86.4915ZM83.2869 28.1818H84.6278V36.5C84.6278 36.8788 84.6828 37.1629 84.7926 37.3523C84.9063 37.5379 85.0502 37.6629 85.2244 37.7273C85.4025 37.7879 85.59 37.8182 85.7869 37.8182C85.9347 37.8182 86.0559 37.8106 86.1506 37.7955C86.2453 37.7765 86.321 37.7614 86.3778 37.75L86.6506 38.9545C86.5597 38.9886 86.4328 39.0227 86.2699 39.0568C86.107 39.0947 85.9006 39.1136 85.6506 39.1136C85.2718 39.1136 84.9006 39.0322 84.5369 38.8693C84.1771 38.7064 83.8778 38.4583 83.6392 38.125C83.4044 37.7917 83.2869 37.3712 83.2869 36.8636V28.1818ZM91.0767 39.2045C90.5237 39.2045 90.0218 39.1004 89.571 38.892C89.1203 38.6799 88.7623 38.375 88.4972 37.9773C88.232 37.5758 88.0994 37.0909 88.0994 36.5227C88.0994 36.0227 88.1979 35.6174 88.3949 35.3068C88.5919 34.9924 88.8551 34.7462 89.1847 34.5682C89.5142 34.3902 89.8778 34.2576 90.2756 34.1705C90.6771 34.0795 91.0805 34.0076 91.4858 33.9545C92.0161 33.8864 92.446 33.8352 92.7756 33.8011C93.1089 33.7633 93.3513 33.7008 93.5028 33.6136C93.6581 33.5265 93.7358 33.375 93.7358 33.1591V33.1136C93.7358 32.553 93.5824 32.1174 93.2756 31.8068C92.9725 31.4962 92.5123 31.3409 91.8949 31.3409C91.2547 31.3409 90.7528 31.4811 90.3892 31.7614C90.0256 32.0417 89.7699 32.3409 89.6222 32.6591L88.3494 32.2045C88.5767 31.6742 88.8797 31.2614 89.2585 30.9659C89.6411 30.6667 90.0578 30.4583 90.5085 30.3409C90.9631 30.2197 91.41 30.1591 91.8494 30.1591C92.1297 30.1591 92.4517 30.1932 92.8153 30.2614C93.1828 30.3258 93.5369 30.4602 93.8778 30.6648C94.2225 30.8693 94.5085 31.178 94.7358 31.5909C94.9631 32.0038 95.0767 32.5568 95.0767 33.25V39H93.7358V37.8182H93.6676C93.5767 38.0076 93.4252 38.2102 93.2131 38.4261C93.0009 38.642 92.7188 38.8258 92.3665 38.9773C92.0142 39.1288 91.5843 39.2045 91.0767 39.2045ZM91.2812 38C91.8116 38 92.2585 37.8958 92.6222 37.6875C92.9896 37.4792 93.2661 37.2102 93.4517 36.8807C93.6411 36.5511 93.7358 36.2045 93.7358 35.8409V34.6136C93.679 34.6818 93.554 34.7443 93.3608 34.8011C93.1714 34.8542 92.9517 34.9015 92.7017 34.9432C92.4555 34.9811 92.215 35.0152 91.9801 35.0455C91.7491 35.072 91.5616 35.0947 91.4176 35.1136C91.0691 35.1591 90.7434 35.233 90.4403 35.3352C90.1411 35.4337 89.8987 35.5833 89.7131 35.7841C89.5313 35.9811 89.4403 36.25 89.4403 36.5909C89.4403 37.0568 89.6127 37.4091 89.9574 37.6477C90.3059 37.8826 90.7472 38 91.2812 38ZM91.3722 29.0909L89.5994 26.4545H91.1676L92.554 29.0909H91.3722ZM97.5241 39V30.2727H98.8651V39H97.5241ZM98.206 28.8182C97.9446 28.8182 97.7192 28.7292 97.5298 28.5511C97.3442 28.3731 97.2514 28.1591 97.2514 27.9091C97.2514 27.6591 97.3442 27.4451 97.5298 27.267C97.7192 27.089 97.9446 27 98.206 27C98.4673 27 98.6908 27.089 98.8764 27.267C99.0658 27.4451 99.1605 27.6591 99.1605 27.9091C99.1605 28.1591 99.0658 28.3731 98.8764 28.5511C98.6908 28.7292 98.4673 28.8182 98.206 28.8182ZM109.366 39.1818C108.548 39.1818 107.844 38.9886 107.253 38.6023C106.662 38.2159 106.207 37.6837 105.889 37.0057C105.571 36.3277 105.412 35.553 105.412 34.6818C105.412 33.7955 105.575 33.0133 105.901 32.3352C106.23 31.6534 106.688 31.1212 107.276 30.7386C107.866 30.3523 108.556 30.1591 109.344 30.1591C109.957 30.1591 110.51 30.2727 111.003 30.5C111.495 30.7273 111.899 31.0455 112.213 31.4545C112.527 31.8636 112.723 32.3409 112.798 32.8864H111.457C111.355 32.4886 111.128 32.1364 110.776 31.8295C110.427 31.5189 109.957 31.3636 109.366 31.3636C108.844 31.3636 108.385 31.5 107.991 31.7727C107.601 32.0417 107.296 32.4223 107.077 32.9148C106.861 33.4034 106.753 33.9773 106.753 34.6364C106.753 35.3106 106.859 35.8977 107.071 36.3977C107.287 36.8977 107.59 37.286 107.98 37.5625C108.374 37.839 108.836 37.9773 109.366 37.9773C109.715 37.9773 110.031 37.9167 110.315 37.7955C110.599 37.6742 110.84 37.5 111.037 37.2727C111.234 37.0455 111.374 36.7727 111.457 36.4545H112.798C112.723 36.9697 112.535 37.4337 112.236 37.8466C111.94 38.2557 111.548 38.5814 111.06 38.8239C110.575 39.0625 110.01 39.1818 109.366 39.1818ZM116.099 33.75V39H114.759V27.3636H116.099V31.6364H116.213C116.418 31.1856 116.724 30.8277 117.134 30.5625C117.546 30.2936 118.096 30.1591 118.781 30.1591C119.376 30.1591 119.897 30.2784 120.344 30.517C120.791 30.7519 121.137 31.1136 121.384 31.6023C121.634 32.0871 121.759 32.7045 121.759 33.4545V39H120.418V33.5455C120.418 32.8523 120.238 32.3163 119.878 31.9375C119.522 31.5549 119.027 31.3636 118.395 31.3636C117.955 31.3636 117.562 31.4564 117.213 31.642C116.868 31.8277 116.596 32.0985 116.395 32.4545C116.198 32.8106 116.099 33.2424 116.099 33.75ZM124.212 39V30.2727H125.553V39H124.212ZM124.28 29.0909L125.666 26.4545H127.234L125.462 29.0909H124.28ZM129.349 33.75V39H128.009V30.2727H129.304V31.6364H129.418C129.622 31.1932 129.933 30.8371 130.349 30.5682C130.766 30.2955 131.304 30.1591 131.963 30.1591C132.554 30.1591 133.071 30.2803 133.514 30.5227C133.957 30.7614 134.302 31.125 134.548 31.6136C134.795 32.0985 134.918 32.7121 134.918 33.4545V39H133.577V33.5455C133.577 32.8598 133.399 32.3258 133.043 31.9432C132.687 31.5568 132.198 31.3636 131.577 31.3636C131.149 31.3636 130.766 31.4564 130.429 31.642C130.096 31.8277 129.832 32.0985 129.639 32.4545C129.446 32.8106 129.349 33.2424 129.349 33.75ZM138.709 33.75V39H137.368V27.3636H138.709V31.6364H138.822C139.027 31.1856 139.334 30.8277 139.743 30.5625C140.156 30.2936 140.705 30.1591 141.391 30.1591C141.985 30.1591 142.506 30.2784 142.953 30.517C143.4 30.7519 143.747 31.1136 143.993 31.6023C144.243 32.0871 144.368 32.7045 144.368 33.4545V39H143.027V33.5455C143.027 32.8523 142.847 32.3163 142.487 31.9375C142.131 31.5549 141.637 31.3636 141.004 31.3636C140.565 31.3636 140.171 31.4564 139.822 31.642C139.478 31.8277 139.205 32.0985 139.004 32.4545C138.807 32.8106 138.709 33.2424 138.709 33.75ZM152.912 27.3636V39H151.503V27.3636H152.912ZM155.737 27.3636H157.419L161.374 37.0227H161.51L165.464 27.3636H167.146V39H165.828V30.1591H165.714L162.078 39H160.805L157.169 30.1591H157.055V39H155.737V27.3636ZM169.972 39V27.3636H176.994V28.6136H171.381V32.5455H176.631V33.7955H171.381V37.75H177.085V39H169.972ZM180.216 27.3636L183.216 32.2045H183.307L186.307 27.3636H187.966L184.307 33.1818L187.966 39H186.307L183.307 34.25H183.216L180.216 39H178.557L182.307 33.1818L178.557 27.3636H180.216ZM189.8 39V27.3636H193.732C194.644 27.3636 195.391 27.5284 195.97 27.858C196.554 28.1837 196.985 28.625 197.266 29.1818C197.546 29.7386 197.686 30.3598 197.686 31.0455C197.686 31.7311 197.546 32.3542 197.266 32.9148C196.989 33.4754 196.561 33.9223 195.982 34.2557C195.402 34.5852 194.66 34.75 193.754 34.75H190.936V33.5H193.709C194.334 33.5 194.836 33.392 195.214 33.1761C195.593 32.9602 195.868 32.6686 196.038 32.3011C196.213 31.9299 196.3 31.5114 196.3 31.0455C196.3 30.5795 196.213 30.1629 196.038 29.7955C195.868 29.428 195.591 29.1402 195.209 28.9318C194.826 28.7197 194.319 28.6136 193.686 28.6136H191.209V39H189.8ZM199.956 39V27.3636H201.365V32.5455H207.57V27.3636H208.979V39H207.57V33.7955H201.365V39H199.956ZM212.277 39H210.8L215.072 27.3636H216.527L220.8 39H219.322L215.845 29.2045H215.754L212.277 39ZM212.822 34.4545H218.777V35.7045H212.822V34.4545ZM222.612 39V27.3636H226.544C227.453 27.3636 228.199 27.5189 228.783 27.8295C229.366 28.1364 229.798 28.5587 230.078 29.0966C230.358 29.6345 230.499 30.2462 230.499 30.9318C230.499 31.6174 230.358 32.2254 230.078 32.7557C229.798 33.286 229.368 33.7027 228.788 34.0057C228.209 34.3049 227.468 34.4545 226.567 34.4545H223.385V33.1818H226.521C227.143 33.1818 227.643 33.0909 228.021 32.9091C228.404 32.7273 228.68 32.4697 228.851 32.1364C229.025 31.7992 229.112 31.3977 229.112 30.9318C229.112 30.4659 229.025 30.0587 228.851 29.7102C228.677 29.3617 228.398 29.0928 228.016 28.9034C227.633 28.7102 227.127 28.6136 226.499 28.6136H224.021V39H222.612ZM228.089 33.7727L230.953 39H229.317L226.499 33.7727H228.089ZM232.847 27.3636H234.528L238.483 37.0227H238.619L242.574 27.3636H244.256V39H242.938V30.1591H242.824L239.188 39H237.915L234.278 30.1591H234.165V39H232.847V27.3636ZM256.399 32.5568V33.8068H251.308V32.5568H256.399ZM263.236 39V37.9773L267.077 33.7727C267.527 33.2803 267.899 32.8523 268.19 32.4886C268.482 32.1212 268.698 31.7765 268.838 31.4545C268.982 31.1288 269.054 30.7879 269.054 30.4318C269.054 30.0227 268.955 29.6686 268.759 29.3693C268.565 29.0701 268.3 28.839 267.963 28.6761C267.626 28.5133 267.247 28.4318 266.827 28.4318C266.38 28.4318 265.99 28.5246 265.656 28.7102C265.327 28.892 265.071 29.1477 264.889 29.4773C264.711 29.8068 264.622 30.1932 264.622 30.6364H263.281C263.281 29.9545 263.438 29.3561 263.753 28.8409C264.067 28.3258 264.495 27.9242 265.037 27.6364C265.582 27.3485 266.194 27.2045 266.872 27.2045C267.554 27.2045 268.158 27.3485 268.685 27.6364C269.211 27.9242 269.624 28.3125 269.923 28.8011C270.223 29.2898 270.372 29.8333 270.372 30.4318C270.372 30.8598 270.295 31.2784 270.139 31.6875C269.988 32.0928 269.723 32.5455 269.344 33.0455C268.969 33.5417 268.448 34.1477 267.781 34.8636L265.168 37.6591V37.75H270.577V39H263.236ZM276.719 39.1591C275.863 39.1591 275.134 38.9261 274.531 38.4602C273.929 37.9905 273.469 37.3106 273.151 36.4205C272.832 35.5265 272.673 34.447 272.673 33.1818C272.673 31.9242 272.832 30.8504 273.151 29.9602C273.473 29.0663 273.935 28.3845 274.537 27.9148C275.143 27.4413 275.87 27.2045 276.719 27.2045C277.567 27.2045 278.293 27.4413 278.895 27.9148C279.501 28.3845 279.963 29.0663 280.281 29.9602C280.603 30.8504 280.764 31.9242 280.764 33.1818C280.764 34.447 280.605 35.5265 280.287 36.4205C279.969 37.3106 279.509 37.9905 278.906 38.4602C278.304 38.9261 277.575 39.1591 276.719 39.1591ZM276.719 37.9091C277.567 37.9091 278.226 37.5 278.696 36.6818C279.166 35.8636 279.401 34.697 279.401 33.1818C279.401 32.1742 279.293 31.3163 279.077 30.608C278.865 29.8996 278.558 29.3598 278.156 28.9886C277.759 28.6174 277.279 28.4318 276.719 28.4318C275.878 28.4318 275.221 28.8466 274.747 29.6761C274.274 30.5019 274.037 31.6705 274.037 33.1818C274.037 34.1894 274.143 35.0455 274.355 35.75C274.567 36.4545 274.872 36.9905 275.27 37.358C275.671 37.7254 276.154 37.9091 276.719 37.9091ZM282.923 39V37.9773L286.764 33.7727C287.215 33.2803 287.586 32.8523 287.878 32.4886C288.17 32.1212 288.385 31.7765 288.526 31.4545C288.67 31.1288 288.741 30.7879 288.741 30.4318C288.741 30.0227 288.643 29.6686 288.446 29.3693C288.253 29.0701 287.988 28.839 287.651 28.6761C287.313 28.5133 286.935 28.4318 286.514 28.4318C286.067 28.4318 285.677 28.5246 285.344 28.7102C285.014 28.892 284.759 29.1477 284.577 29.4773C284.399 29.8068 284.31 30.1932 284.31 30.6364H282.969C282.969 29.9545 283.126 29.3561 283.44 28.8409C283.755 28.3258 284.183 27.9242 284.724 27.6364C285.27 27.3485 285.882 27.2045 286.56 27.2045C287.241 27.2045 287.846 27.3485 288.372 27.6364C288.899 27.9242 289.312 28.3125 289.611 28.8011C289.91 29.2898 290.06 29.8333 290.06 30.4318C290.06 30.8598 289.982 31.2784 289.827 31.6875C289.675 32.0928 289.41 32.5455 289.031 33.0455C288.656 33.5417 288.135 34.1477 287.469 34.8636L284.855 37.6591V37.75H290.264V39H282.923ZM296.543 39.1591C295.793 39.1591 295.124 39.0303 294.537 38.7727C293.954 38.5152 293.49 38.1572 293.145 37.6989C292.804 37.2367 292.618 36.7008 292.588 36.0909H294.02C294.05 36.4659 294.179 36.7898 294.406 37.0625C294.634 37.3314 294.931 37.5398 295.298 37.6875C295.666 37.8352 296.073 37.9091 296.52 37.9091C297.02 37.9091 297.463 37.822 297.849 37.6477C298.236 37.4735 298.539 37.2311 298.759 36.9205C298.978 36.6098 299.088 36.25 299.088 35.8409C299.088 35.4129 298.982 35.036 298.77 34.7102C298.558 34.3807 298.247 34.1231 297.838 33.9375C297.429 33.7519 296.929 33.6591 296.338 33.6591H295.406V32.4091H296.338C296.8 32.4091 297.205 32.3258 297.554 32.1591C297.906 31.9924 298.181 31.7576 298.378 31.4545C298.579 31.1515 298.679 30.7955 298.679 30.3864C298.679 29.9924 298.592 29.6496 298.418 29.358C298.243 29.0663 297.997 28.839 297.679 28.6761C297.365 28.5133 296.993 28.4318 296.565 28.4318C296.164 28.4318 295.785 28.5057 295.429 28.6534C295.077 28.7973 294.789 29.0076 294.565 29.2841C294.342 29.5568 294.221 29.8864 294.202 30.2727H292.838C292.861 29.6629 293.045 29.1288 293.389 28.6705C293.734 28.2083 294.185 27.8485 294.741 27.5909C295.302 27.3333 295.918 27.2045 296.588 27.2045C297.308 27.2045 297.925 27.3504 298.44 27.642C298.955 27.9299 299.351 28.3106 299.628 28.7841C299.904 29.2576 300.043 29.7689 300.043 30.3182C300.043 30.9735 299.87 31.5322 299.526 31.9943C299.185 32.4564 298.721 32.7765 298.134 32.9545V33.0455C298.868 33.1667 299.442 33.4792 299.855 33.983C300.268 34.483 300.474 35.1023 300.474 35.8409C300.474 36.4735 300.302 37.0417 299.957 37.5455C299.616 38.0455 299.151 38.4394 298.56 38.7273C297.969 39.0152 297.296 39.1591 296.543 39.1591Z" fill="#24408E"/>
<path d="M17.3849 51.3182C17.5554 50.2955 17.8438 49.3295 18.25 48.4205C18.6591 47.5114 19.1719 46.6591 19.7884 45.8636H20.4787C20.2173 46.196 19.9645 46.5753 19.7202 47.0014C19.4787 47.4247 19.2557 47.8764 19.0511 48.3565C18.8494 48.8366 18.6719 49.3281 18.5185 49.831C18.3679 50.331 18.2514 50.8267 18.169 51.3182C18.0611 51.9744 18.0114 52.6364 18.0199 53.304C18.0284 53.9716 18.0881 54.6051 18.1989 55.2045C18.3125 55.804 18.4702 56.3267 18.6719 56.7727H17.9815C17.6321 55.9744 17.402 55.1207 17.2912 54.2116C17.1832 53.3026 17.2145 52.3381 17.3849 51.3182ZM20.207 57.4545L21.7156 48.4545H22.4528L22.2482 49.7031H22.3377C22.457 49.5071 22.6119 49.3054 22.8022 49.098C22.9954 48.8906 23.2354 48.7173 23.5224 48.5781C23.8121 48.4361 24.1587 48.3651 24.5621 48.3651C25.1019 48.3651 25.5494 48.5057 25.9045 48.7869C26.2624 49.0682 26.5124 49.4631 26.6545 49.9716C26.7994 50.4801 26.815 51.071 26.7013 51.7443C26.5906 52.4205 26.3789 53.0128 26.0664 53.5213C25.7539 54.0298 25.3718 54.4261 24.9201 54.7102C24.4712 54.9943 23.9798 55.1364 23.4457 55.1364C23.0508 55.1364 22.7312 55.0653 22.4869 54.9233C22.2454 54.7812 22.0607 54.6065 21.9329 54.3991C21.805 54.1889 21.7127 53.9844 21.6559 53.7855H21.5877L20.9741 57.4545H20.207ZM21.9201 51.7315C21.8349 52.2599 21.8349 52.7287 21.9201 53.1378C22.0053 53.544 22.1772 53.8636 22.4357 54.0966C22.6942 54.3267 23.0352 54.4418 23.4585 54.4418C23.8931 54.4418 24.2809 54.3224 24.6218 54.0838C24.9627 53.8423 25.2468 53.517 25.4741 53.108C25.7013 52.6989 25.8576 52.2401 25.9428 51.7315C26.0224 51.2287 26.0195 50.7756 25.9343 50.3722C25.8491 49.9687 25.6786 49.6491 25.4229 49.4134C25.1673 49.1747 24.8192 49.0554 24.3789 49.0554C23.9528 49.0554 23.5692 49.1705 23.2283 49.4006C22.8903 49.6278 22.609 49.9432 22.3846 50.3466C22.1602 50.7472 22.0053 51.2088 21.9201 51.7315ZM29.2592 50.9091L28.5817 55H27.8232L29.272 46.2727H30.0305L29.5021 49.4815H29.5703C29.7749 49.1406 30.0561 48.8707 30.4141 48.6719C30.772 48.4702 31.1996 48.3693 31.6967 48.3693C32.1371 48.3693 32.5092 48.4602 32.8132 48.642C33.12 48.8239 33.3374 49.0923 33.4652 49.4474C33.5959 49.8026 33.6186 50.2401 33.5334 50.7599L32.8217 55H32.0589L32.7578 50.8068C32.8459 50.267 32.7663 49.8423 32.5192 49.5327C32.2749 49.2202 31.8999 49.0639 31.3942 49.0639C31.0476 49.0639 30.7237 49.1378 30.4226 49.2855C30.1243 49.4332 29.8714 49.6463 29.6641 49.9247C29.4595 50.2003 29.3246 50.5284 29.2592 50.9091ZM34.8278 55L35.9187 48.4545H36.6815L35.5906 55H34.8278ZM36.5749 47.3168C36.4158 47.3168 36.2809 47.2628 36.1701 47.1548C36.0621 47.0469 36.0096 46.9162 36.0124 46.7628C36.0181 46.6179 36.0763 46.4929 36.1871 46.3878C36.3008 46.2798 36.4343 46.2259 36.5877 46.2259C36.7468 46.2259 36.8817 46.2812 36.9925 46.392C37.1033 46.5 37.1559 46.6307 37.1502 46.7841C37.1474 46.929 37.0891 47.054 36.9755 47.1591C36.8619 47.2642 36.7283 47.3168 36.5749 47.3168ZM40.2259 55.1364C39.6151 55.1364 39.1108 54.9943 38.7131 54.7102C38.3153 54.4233 38.0369 54.027 37.8778 53.5213C37.7188 53.0128 37.6946 52.4276 37.8054 51.7656C37.9162 51.1065 38.1349 50.5213 38.4616 50.0099C38.7884 49.4957 39.1918 49.0937 39.6719 48.804C40.152 48.5114 40.6733 48.3651 41.2358 48.3651C41.5909 48.3651 41.9233 48.4304 42.233 48.5611C42.5426 48.6889 42.8054 48.8864 43.0213 49.1534C43.2401 49.4176 43.392 49.7514 43.4773 50.1548C43.5625 50.5554 43.5597 51.0298 43.4688 51.5781L43.4091 51.9531H38.2955L38.402 51.2841H42.7443C42.8153 50.8636 42.7955 50.4858 42.6847 50.1506C42.5739 49.8153 42.3849 49.5497 42.1179 49.3537C41.8537 49.1548 41.5256 49.0554 41.1335 49.0554C40.733 49.0554 40.3537 49.1676 39.9957 49.392C39.6406 49.6165 39.3395 49.9091 39.0923 50.2699C38.848 50.6278 38.6903 51.0099 38.6193 51.4162L38.5341 51.919C38.4432 52.473 38.4545 52.9375 38.5682 53.3125C38.6818 53.6847 38.8878 53.9659 39.1861 54.1562C39.4844 54.3466 39.8665 54.4418 40.3324 54.4418C40.6449 54.4418 40.9276 54.3935 41.1804 54.2969C41.4332 54.2003 41.6534 54.071 41.8409 53.9091C42.0284 53.7443 42.179 53.5639 42.2926 53.3679L42.9702 53.6023C42.8253 53.8778 42.6207 54.1321 42.3565 54.3651C42.0952 54.598 41.7841 54.7855 41.4233 54.9276C41.0653 55.0668 40.6662 55.1364 40.2259 55.1364ZM42.3011 47.7045L41.4915 46.4815L40.2855 47.7045H39.5185L39.527 47.6491L41.2486 45.9318H41.8878L43.0511 47.6491L43.0384 47.7045H42.3011ZM46.0053 50.9091L45.3278 55H44.5692L45.6602 48.4545H46.3974L46.2269 49.4815H46.2951C46.4996 49.1463 46.7823 48.8778 47.1431 48.6761C47.5067 48.4716 47.9286 48.3693 48.4087 48.3693C48.8462 48.3693 49.2156 48.4616 49.5167 48.6463C49.8207 48.8281 50.0366 49.0966 50.1644 49.4517C50.2951 49.8068 50.3178 50.2429 50.2326 50.7599L49.521 55H48.7624L49.4613 50.8068C49.5494 50.2727 49.4712 49.8494 49.2269 49.5369C48.9854 49.2216 48.6119 49.0639 48.1062 49.0639C47.7624 49.0639 47.4428 49.1378 47.1474 49.2855C46.8548 49.4332 46.6076 49.6463 46.4059 49.9247C46.2042 50.2003 46.0707 50.5284 46.0053 50.9091ZM55.0511 55L56.5 46.2727H57.2628L56.7003 49.7031H56.7685C56.8849 49.5071 57.0398 49.3054 57.233 49.098C57.429 48.8906 57.6705 48.7173 57.9574 48.5781C58.2443 48.4361 58.5881 48.3651 58.9886 48.3651C59.5256 48.3651 59.973 48.5071 60.331 48.7912C60.6918 49.0724 60.9432 49.4673 61.0852 49.9759C61.2273 50.4815 61.2429 51.071 61.1321 51.7443C61.0185 52.4205 60.8068 53.0128 60.4972 53.5213C60.1875 54.0298 59.8068 54.4261 59.3551 54.7102C58.9034 54.9943 58.4105 55.1364 57.8764 55.1364C57.4787 55.1364 57.1577 55.0653 56.9134 54.9233C56.6719 54.7812 56.4872 54.6065 56.3594 54.3991C56.2344 54.1889 56.1435 53.9844 56.0866 53.7855H55.9929L55.7884 55H55.0511ZM56.3466 51.7315C56.2614 52.2599 56.2614 52.7287 56.3466 53.1378C56.4347 53.544 56.6065 53.8636 56.8622 54.0966C57.1207 54.3267 57.4616 54.4418 57.8849 54.4418C58.3196 54.4418 58.7074 54.3224 59.0483 54.0838C59.392 53.8423 59.6761 53.517 59.9006 53.108C60.1278 52.6989 60.2841 52.2401 60.3693 51.7315C60.4517 51.2287 60.4503 50.7756 60.3651 50.3722C60.2798 49.9687 60.108 49.6491 59.8494 49.4134C59.5909 49.1747 59.2429 49.0554 58.8054 49.0554C58.3793 49.0554 57.9957 49.1705 57.6548 49.4006C57.3168 49.6278 57.0355 49.9432 56.8111 50.3466C56.5866 50.7472 56.4318 51.2088 56.3466 51.7315ZM64.0639 55.1491C63.669 55.1491 63.321 55.0724 63.0199 54.919C62.7188 54.7628 62.4943 54.5384 62.3466 54.2457C62.2017 53.9503 62.1619 53.5923 62.2273 53.1719C62.2841 52.848 62.392 52.5753 62.5511 52.3537C62.7131 52.1321 62.9176 51.9503 63.1648 51.8082C63.4119 51.6634 63.696 51.5497 64.017 51.4673C64.3381 51.3849 64.6875 51.3224 65.0653 51.2798C65.4347 51.2344 65.75 51.1946 66.0114 51.1605C66.2727 51.1264 66.4759 51.0724 66.6207 50.9986C66.7656 50.9247 66.8523 50.8054 66.8807 50.6406L66.9062 50.4872C66.9801 50.0412 66.9119 49.6903 66.7017 49.4347C66.4915 49.1761 66.1392 49.0469 65.6449 49.0469C65.1733 49.0469 64.7642 49.152 64.4176 49.3622C64.0739 49.5696 63.8182 49.8125 63.6506 50.0909L62.9773 49.831C63.1818 49.473 63.4332 49.1875 63.7315 48.9744C64.0298 48.7585 64.3494 48.6037 64.6903 48.5099C65.0313 48.4134 65.3679 48.3651 65.7003 48.3651C65.9503 48.3651 66.2045 48.3977 66.4631 48.4631C66.7216 48.5284 66.9531 48.642 67.1577 48.804C67.3651 48.9631 67.517 49.1861 67.6136 49.473C67.7131 49.7571 67.7273 50.1179 67.6562 50.5554L66.9148 55H66.1562L66.331 53.9645H66.2841C66.1648 54.1577 66 54.3452 65.7898 54.527C65.5824 54.7088 65.3338 54.858 65.044 54.9744C64.7543 55.0909 64.4276 55.1491 64.0639 55.1491ZM64.2557 54.4545C64.6591 54.4545 65.0241 54.3651 65.3509 54.1861C65.6804 54.0071 65.9503 53.7699 66.1605 53.4744C66.3736 53.1761 66.5099 52.848 66.5696 52.4901L66.7273 51.544C66.6648 51.598 66.5625 51.6463 66.4205 51.6889C66.2813 51.7315 66.1236 51.7699 65.9474 51.804C65.7741 51.8352 65.5994 51.8622 65.4233 51.8849C65.25 51.9077 65.0966 51.9276 64.9631 51.9446C64.5852 51.9901 64.2557 52.0611 63.9744 52.1577C63.696 52.2543 63.473 52.3878 63.3054 52.5582C63.1378 52.7259 63.0327 52.9418 62.9901 53.206C62.9247 53.6037 63.0114 53.9119 63.25 54.1307C63.4915 54.3466 63.8267 54.4545 64.2557 54.4545ZM66.2287 47.5852H65.581L65.7259 46.6946C66.0298 46.6776 66.2514 46.6307 66.3906 46.554C66.5298 46.4744 66.6151 46.3523 66.6463 46.1875C66.6776 46 66.6122 45.8636 66.4503 45.7784C66.2912 45.6932 66.0668 45.6491 65.777 45.6463L65.9048 45.1264C66.4361 45.1264 66.821 45.2273 67.0597 45.429C67.2983 45.6278 67.3935 45.8906 67.3452 46.2173C67.2969 46.4986 67.1733 46.7102 66.9744 46.8523C66.7784 46.9915 66.5554 47.0753 66.3054 47.1037L66.2287 47.5852ZM70.3686 50.9091L69.6911 55H68.9325L70.0234 48.4545H70.7607L70.5902 49.4815H70.6584C70.8629 49.1463 71.1456 48.8778 71.5064 48.6761C71.87 48.4716 72.2919 48.3693 72.772 48.3693C73.2095 48.3693 73.5788 48.4616 73.88 48.6463C74.1839 48.8281 74.3999 49.0966 74.5277 49.4517C74.6584 49.8068 74.6811 50.2429 74.5959 50.7599L73.8842 55H73.1257L73.8246 50.8068C73.9126 50.2727 73.8345 49.8494 73.5902 49.5369C73.3487 49.2216 72.9751 49.0639 72.4695 49.0639C72.1257 49.0639 71.8061 49.1378 71.5107 49.2855C71.218 49.4332 70.9709 49.6463 70.7692 49.9247C70.5675 50.2003 70.4339 50.5284 70.3686 50.9091ZM82.9258 48.4545L82.8192 49.1151H79.6914L79.8022 48.4545H82.9258ZM81.0337 46.8864H81.7965L80.7312 53.2912C80.6857 53.5639 80.6971 53.7784 80.7653 53.9347C80.8335 54.0881 80.9386 54.1974 81.0806 54.2628C81.2227 54.3253 81.3789 54.3565 81.5494 54.3565C81.6488 54.3565 81.734 54.3509 81.805 54.3395C81.8789 54.3253 81.9442 54.3111 82.0011 54.2969L82.0565 54.983C81.9741 55.0114 81.8761 55.0369 81.7624 55.0597C81.6488 55.0852 81.5124 55.098 81.3533 55.098C81.0749 55.098 80.8178 55.0369 80.582 54.9148C80.3462 54.7926 80.1673 54.6108 80.0451 54.3693C79.9229 54.1278 79.8903 53.8281 79.9471 53.4702L81.0337 46.8864ZM83.5661 55L84.657 48.4545H85.4197L84.3288 55H83.5661ZM85.3132 47.3168C85.1541 47.3168 85.0192 47.2628 84.9084 47.1548C84.8004 47.0469 84.7479 46.9162 84.7507 46.7628C84.7564 46.6179 84.8146 46.4929 84.9254 46.3878C85.0391 46.2798 85.1726 46.2259 85.326 46.2259C85.4851 46.2259 85.62 46.2812 85.7308 46.392C85.8416 46.5 85.8942 46.6307 85.8885 46.7841C85.8857 46.929 85.8274 47.054 85.7138 47.1591C85.6001 47.2642 85.4666 47.3168 85.3132 47.3168ZM88.9641 55.1364C88.3533 55.1364 87.8491 54.9943 87.4513 54.7102C87.0536 54.4233 86.7752 54.027 86.6161 53.5213C86.457 53.0128 86.4329 52.4276 86.5437 51.7656C86.6545 51.1065 86.8732 50.5213 87.1999 50.0099C87.5266 49.4957 87.93 49.0937 88.4102 48.804C88.8903 48.5114 89.4116 48.3651 89.9741 48.3651C90.3292 48.3651 90.6616 48.4304 90.9712 48.5611C91.2809 48.6889 91.5437 48.8864 91.7596 49.1534C91.9783 49.4176 92.1303 49.7514 92.2156 50.1548C92.3008 50.5554 92.2979 51.0298 92.207 51.5781L92.1474 51.9531H87.0337L87.1403 51.2841H91.4826C91.5536 50.8636 91.5337 50.4858 91.4229 50.1506C91.3121 49.8153 91.1232 49.5497 90.8562 49.3537C90.592 49.1548 90.2638 49.0554 89.8718 49.0554C89.4712 49.0554 89.092 49.1676 88.734 49.392C88.3789 49.6165 88.0778 49.9091 87.8306 50.2699C87.5863 50.6278 87.4286 51.0099 87.3576 51.4162L87.2724 51.919C87.1815 52.473 87.1928 52.9375 87.3065 53.3125C87.4201 53.6847 87.6261 53.9659 87.9244 54.1562C88.2227 54.3466 88.6048 54.4418 89.0707 54.4418C89.3832 54.4418 89.6658 54.3935 89.9187 54.2969C90.1715 54.2003 90.3917 54.071 90.5792 53.9091C90.7667 53.7443 90.9173 53.5639 91.0309 53.3679L91.7085 53.6023C91.5636 53.8778 91.359 54.1321 91.0948 54.3651C90.8335 54.598 90.5224 54.7855 90.1616 54.9276C89.8036 55.0668 89.4045 55.1364 88.9641 55.1364ZM88.0565 47.5767L90.0039 45.9957H90.6516L92.0877 47.5767H91.1545L90.2468 46.5369L89.011 47.5767H88.0565ZM91.8661 46.5284L93.0167 45.0071H93.9585L92.5479 46.5284H91.8661ZM94.7436 50.9091L94.0661 55H93.3075L94.3984 48.4545H95.1357L94.9652 49.4815H95.0334C95.2379 49.1463 95.5206 48.8778 95.8814 48.6761C96.245 48.4716 96.6669 48.3693 97.147 48.3693C97.5845 48.3693 97.9538 48.4616 98.255 48.6463C98.5589 48.8281 98.7749 49.0966 98.9027 49.4517C99.0334 49.8068 99.0561 50.2429 98.9709 50.7599L98.2592 55H97.5007L98.1996 50.8068C98.2876 50.2727 98.2095 49.8494 97.9652 49.5369C97.7237 49.2216 97.3501 49.0639 96.8445 49.0639C96.5007 49.0639 96.1811 49.1378 95.8857 49.2855C95.593 49.4332 95.3459 49.6463 95.1442 49.9247C94.9425 50.2003 94.8089 50.5284 94.7436 50.9091ZM102.345 57.5909C101.899 57.5909 101.517 57.5327 101.199 57.4162C100.88 57.3026 100.622 57.1463 100.423 56.9474C100.227 56.7486 100.083 56.5256 99.9925 56.2784L100.683 55.8736C100.745 56.0384 100.841 56.2003 100.968 56.3594C101.096 56.5185 101.277 56.6491 101.51 56.7514C101.743 56.8565 102.048 56.9091 102.426 56.9091C103.002 56.9091 103.498 56.7628 103.913 56.4702C104.328 56.1804 104.586 55.7315 104.689 55.1236L104.919 53.6491H104.85C104.734 53.848 104.578 54.0469 104.382 54.2457C104.186 54.4418 103.943 54.6051 103.653 54.7358C103.366 54.8665 103.027 54.9318 102.635 54.9318C102.112 54.9318 101.669 54.8026 101.305 54.544C100.941 54.2855 100.684 53.9162 100.534 53.4361C100.383 52.9531 100.365 52.3778 100.478 51.7102C100.586 51.0483 100.794 50.4659 101.1 49.9631C101.41 49.4602 101.791 49.0682 102.243 48.7869C102.697 48.5057 103.194 48.3651 103.734 48.3651C104.135 48.3651 104.456 48.4361 104.697 48.5781C104.939 48.7173 105.122 48.8906 105.247 49.098C105.375 49.3054 105.467 49.5071 105.524 49.7031H105.6L105.805 48.4545H106.547L105.439 55.1705C105.345 55.7244 105.152 56.1804 104.859 56.5384C104.566 56.8963 104.203 57.1605 103.768 57.331C103.336 57.5043 102.862 57.5909 102.345 57.5909ZM102.805 54.2372C103.225 54.2372 103.603 54.1364 103.939 53.9347C104.277 53.7301 104.559 53.4389 104.787 53.0611C105.017 52.6804 105.174 52.2259 105.26 51.6974C105.345 51.1861 105.341 50.733 105.247 50.3381C105.156 49.9403 104.978 49.6278 104.714 49.4006C104.453 49.1705 104.109 49.0554 103.683 49.0554C103.243 49.0554 102.853 49.1733 102.515 49.4091C102.18 49.6449 101.903 49.9631 101.684 50.3636C101.468 50.7614 101.319 51.206 101.237 51.6974C101.157 52.1974 101.16 52.6392 101.245 53.0227C101.333 53.4034 101.507 53.7017 101.765 53.9176C102.024 54.1307 102.37 54.2372 102.805 54.2372ZM112.458 46.2727L113.911 53.9645H113.992L117.989 46.2727H118.825L114.201 55H113.349L111.623 46.2727H112.458ZM118.722 55L119.813 48.4545H120.576L119.485 55H118.722ZM120.469 47.3168C120.31 47.3168 120.175 47.2628 120.065 47.1548C119.957 47.0469 119.904 46.9162 119.907 46.7628C119.913 46.6179 119.971 46.4929 120.082 46.3878C120.195 46.2798 120.329 46.2259 120.482 46.2259C120.641 46.2259 120.776 46.2812 120.887 46.392C120.998 46.5 121.05 46.6307 121.045 46.7841C121.042 46.929 120.984 47.054 120.87 47.1591C120.756 47.2642 120.623 47.3168 120.469 47.3168ZM124.12 55.1364C123.51 55.1364 123.005 54.9943 122.608 54.7102C122.21 54.4233 121.931 54.027 121.772 53.5213C121.613 53.0128 121.589 52.4276 121.7 51.7656C121.811 51.1065 122.029 50.5213 122.356 50.0099C122.683 49.4957 123.086 49.0937 123.566 48.804C124.047 48.5114 124.568 48.3651 125.13 48.3651C125.485 48.3651 125.818 48.4304 126.127 48.5611C126.437 48.6889 126.7 48.8864 126.916 49.1534C127.135 49.4176 127.287 49.7514 127.372 50.1548C127.457 50.5554 127.454 51.0298 127.363 51.5781L127.304 51.9531H122.19L122.297 51.2841H126.639C126.71 50.8636 126.69 50.4858 126.579 50.1506C126.468 49.8153 126.279 49.5497 126.012 49.3537C125.748 49.1548 125.42 49.0554 125.028 49.0554C124.627 49.0554 124.248 49.1676 123.89 49.392C123.535 49.6165 123.234 49.9091 122.987 50.2699C122.743 50.6278 122.585 51.0099 122.514 51.4162L122.429 51.919C122.338 52.473 122.349 52.9375 122.463 53.3125C122.576 53.6847 122.782 53.9659 123.081 54.1562C123.379 54.3466 123.761 54.4418 124.227 54.4418C124.539 54.4418 124.822 54.3935 125.075 54.2969C125.328 54.2003 125.548 54.071 125.735 53.9091C125.923 53.7443 126.074 53.5639 126.187 53.3679L126.865 53.6023C126.72 53.8778 126.515 54.1321 126.251 54.3651C125.99 54.598 125.679 54.7855 125.318 54.9276C124.96 55.0668 124.561 55.1364 124.12 55.1364ZM126.196 47.7045L125.386 46.4815L124.18 47.7045H123.413L123.422 47.6491L125.143 45.9318H125.782L126.946 47.6491L126.933 47.7045H126.196ZM123.728 57.0795C123.569 57.0795 123.434 57.0241 123.324 56.9134C123.213 56.8054 123.16 56.6747 123.166 56.5213C123.169 56.3764 123.227 56.2514 123.341 56.1463C123.454 56.0412 123.588 55.9886 123.741 55.9886C123.9 55.9886 124.034 56.0426 124.142 56.1506C124.252 56.2614 124.306 56.3935 124.304 56.5469C124.298 56.6918 124.238 56.8168 124.125 56.9219C124.014 57.027 123.882 57.0795 123.728 57.0795ZM132.133 48.4545L132.026 49.1151H128.898L129.009 48.4545H132.133ZM130.241 46.8864H131.004L129.938 53.2912C129.893 53.5639 129.904 53.7784 129.972 53.9347C130.04 54.0881 130.146 54.1974 130.288 54.2628C130.43 54.3253 130.586 54.3565 130.756 54.3565C130.856 54.3565 130.941 54.3509 131.012 54.3395C131.086 54.3253 131.151 54.3111 131.208 54.2969L131.263 54.983C131.181 55.0114 131.083 55.0369 130.969 55.0597C130.856 55.0852 130.719 55.098 130.56 55.098C130.282 55.098 130.025 55.0369 129.789 54.9148C129.553 54.7926 129.374 54.6108 129.252 54.3693C129.13 54.1278 129.097 53.8281 129.154 53.4702L130.241 46.8864ZM135.219 51.3182C135.049 52.3409 134.759 53.3068 134.35 54.2159C133.944 55.125 133.432 55.9773 132.816 56.7727H132.125C132.39 56.4375 132.642 56.0582 132.884 55.6349C133.125 55.2116 133.347 54.7599 133.549 54.2798C133.753 53.7997 133.931 53.3082 134.081 52.8054C134.235 52.3026 134.353 51.8068 134.435 51.3182C134.543 50.6619 134.593 50 134.584 49.3324C134.576 48.6648 134.515 48.0312 134.401 47.4318C134.29 46.8324 134.134 46.3097 133.932 45.8636H134.623C134.972 46.6619 135.201 47.5156 135.309 48.4247C135.419 49.3338 135.39 50.2983 135.219 51.3182Z" fill="black"/>
</svg>
