<svg width="100%" viewBox="0 0 351 24" fill="none" xmlns="http://www.w3.org/2000/svg">
<path d="M5.868 7.598H8.244V20H5.868V7.598ZM0.288 6.5H13.824V8.588H0.288V6.5ZM15.0718 16.904V14.942H24.5038V16.904H15.0718ZM21.3358 6.5L27.8158 20H25.2778L19.3918 7.4H20.3098L14.4238 20H11.8858L18.3658 6.5H21.3358ZM19.2478 5.654L18.7078 4.736C19.2838 4.64 19.7038 4.52 19.9678 4.376C20.2318 4.232 20.3638 4.07 20.3638 3.89C20.3638 3.722 20.2558 3.602 20.0398 3.53C19.8358 3.446 19.5418 3.404 19.1578 3.404C18.8578 3.404 18.5818 3.422 18.3298 3.458C18.0898 3.494 17.8378 3.542 17.5738 3.602V2.198C17.8018 2.138 18.0958 2.078 18.4558 2.018C18.8278 1.958 19.2178 1.928 19.6258 1.928C20.5138 1.928 21.1978 2.066 21.6778 2.342C22.1698 2.606 22.4158 3.02 22.4158 3.584C22.4158 4.1 22.1638 4.532 21.6598 4.88C21.1678 5.216 20.3638 5.474 19.2478 5.654ZM29.4612 6.5H31.8372V20H29.4612V6.5ZM45.9743 18.992H44.8583L50.6723 6.5H53.2103L46.6943 20H44.0483L37.5323 6.5H40.0883L45.9743 18.992ZM65.626 12.26V14.24H56.194V12.26H65.626ZM57.76 13.25L56.806 19.28L55.672 17.948H66.148V20H54.376L55.456 13.25L54.376 6.5H66.058V8.552H55.672L56.806 7.22L57.76 13.25ZM63.412 0.685999L64.906 3.17H63.016L61.144 0.685999H63.412ZM58.984 2.666H61.612L64.276 5.402H62.134L59.794 3.53H60.802L58.462 5.402H56.338L58.984 2.666ZM81.579 13.304L81.813 12.782C82.881 12.794 83.751 12.956 84.423 13.268C85.107 13.58 85.605 14 85.917 14.528C86.241 15.056 86.403 15.65 86.403 16.31C86.403 17.03 86.229 17.666 85.881 18.218C85.545 18.77 85.047 19.208 84.387 19.532C83.727 19.844 82.905 20 81.921 20H72.921L73.983 13.07L72.921 6.5H81.597C82.845 6.5 83.805 6.794 84.477 7.382C85.161 7.958 85.503 8.756 85.503 9.776C85.503 10.316 85.371 10.844 85.107 11.36C84.855 11.864 84.441 12.296 83.865 12.656C83.301 13.004 82.539 13.22 81.579 13.304ZM75.315 19.334L74.397 18.092H81.651C82.395 18.092 82.971 17.924 83.379 17.588C83.799 17.24 84.009 16.748 84.009 16.112C84.009 15.44 83.763 14.918 83.271 14.546C82.791 14.174 82.077 13.988 81.129 13.988H75.279V12.152H80.895C81.531 12.152 82.059 11.978 82.479 11.63C82.899 11.27 83.109 10.76 83.109 10.1C83.109 9.608 82.935 9.206 82.587 8.894C82.239 8.57 81.735 8.408 81.075 8.408H74.397L75.315 7.166L76.269 13.07L75.315 19.334ZM89.7788 16.904V14.942H99.2108V16.904H89.7788ZM96.0428 6.5L102.523 20H99.9848L94.0988 7.4H95.0168L89.1308 20H86.5928L93.0728 6.5H96.0428ZM95.5568 2.666H98.3288L95.3768 5.402H92.9288L95.5568 2.666ZM110.45 20.252C108.914 20.252 107.564 19.958 106.4 19.37C105.236 18.782 104.33 17.966 103.682 16.922C103.034 15.866 102.71 14.642 102.71 13.25C102.71 11.858 103.034 10.64 103.682 9.596C104.33 8.54 105.236 7.718 106.4 7.13C107.564 6.542 108.914 6.248 110.45 6.248C111.986 6.248 113.336 6.542 114.5 7.13C115.664 7.718 116.57 8.54 117.218 9.596C117.866 10.64 118.19 11.858 118.19 13.25C118.19 14.642 117.866 15.866 117.218 16.922C116.57 17.966 115.664 18.782 114.5 19.37C113.336 19.958 111.986 20.252 110.45 20.252ZM110.45 18.128C111.542 18.128 112.484 17.93 113.276 17.534C114.068 17.138 114.68 16.574 115.112 15.842C115.556 15.11 115.778 14.246 115.778 13.25C115.778 12.254 115.556 11.39 115.112 10.658C114.68 9.926 114.068 9.362 113.276 8.966C112.484 8.57 111.542 8.372 110.45 8.372C109.37 8.372 108.428 8.57 107.624 8.966C106.832 9.362 106.214 9.926 105.77 10.658C105.338 11.39 105.122 12.254 105.122 13.25C105.122 14.246 105.338 15.11 105.77 15.842C106.214 16.574 106.832 17.138 107.624 17.534C108.428 17.93 109.37 18.128 110.45 18.128ZM139.5 14.654C139.38 15.758 138.99 16.736 138.33 17.588C137.682 18.428 136.83 19.082 135.774 19.55C134.718 20.018 133.512 20.252 132.156 20.252C130.644 20.252 129.318 19.958 128.178 19.37C127.038 18.782 126.15 17.966 125.514 16.922C124.878 15.866 124.56 14.642 124.56 13.25C124.56 11.858 124.878 10.64 125.514 9.596C126.15 8.54 127.038 7.718 128.178 7.13C129.318 6.542 130.644 6.248 132.156 6.248C133.512 6.248 134.718 6.482 135.774 6.95C136.83 7.418 137.682 8.072 138.33 8.912C138.99 9.752 139.38 10.73 139.5 11.846H137.106C136.974 11.126 136.686 10.508 136.242 9.992C135.81 9.476 135.246 9.08 134.55 8.804C133.854 8.516 133.05 8.372 132.138 8.372C131.082 8.372 130.164 8.57 129.384 8.966C128.616 9.362 128.022 9.926 127.602 10.658C127.182 11.39 126.972 12.254 126.972 13.25C126.972 14.246 127.182 15.11 127.602 15.842C128.022 16.574 128.616 17.138 129.384 17.534C130.164 17.93 131.082 18.128 132.138 18.128C133.05 18.128 133.854 17.99 134.55 17.714C135.246 17.438 135.81 17.042 136.242 16.526C136.686 15.998 136.974 15.374 137.106 14.654H139.5ZM142.865 16.904V14.942H152.297V16.904H142.865ZM149.129 6.5L155.609 20H153.071L147.185 7.4H148.103L142.217 20H139.679L146.159 6.5H149.129ZM148.643 2.666H151.415L148.463 5.402H146.015L148.643 2.666ZM163.536 20.252C162 20.252 160.65 19.958 159.486 19.37C158.322 18.782 157.416 17.966 156.768 16.922C156.12 15.866 155.796 14.642 155.796 13.25C155.796 11.858 156.12 10.64 156.768 9.596C157.416 8.54 158.322 7.718 159.486 7.13C160.65 6.542 162 6.248 163.536 6.248C165.072 6.248 166.422 6.542 167.586 7.13C168.75 7.718 169.656 8.54 170.304 9.596C170.952 10.64 171.276 11.858 171.276 13.25C171.276 14.642 170.952 15.866 170.304 16.922C169.656 17.966 168.75 18.782 167.586 19.37C166.422 19.958 165.072 20.252 163.536 20.252ZM163.536 18.128C164.628 18.128 165.57 17.93 166.362 17.534C167.154 17.138 167.766 16.574 168.198 15.842C168.642 15.11 168.864 14.246 168.864 13.25C168.864 12.254 168.642 11.39 168.198 10.658C167.766 9.926 167.154 9.362 166.362 8.966C165.57 8.57 164.628 8.372 163.536 8.372C162.456 8.372 161.514 8.57 160.71 8.966C159.918 9.362 159.3 9.926 158.856 10.658C158.424 11.39 158.208 12.254 158.208 13.25C158.208 14.246 158.424 15.11 158.856 15.842C159.3 16.574 159.918 17.138 160.71 17.534C161.514 17.93 162.456 18.128 163.536 18.128ZM182.071 7.598H184.447V20H182.071V7.598ZM176.491 6.5H190.027V8.588H176.491V6.5ZM191.275 16.904V14.942H200.707V16.904H191.275ZM197.539 6.5L204.019 20H201.481L195.595 7.4H196.513L190.627 20H188.089L194.569 6.5H197.539ZM194.803 2.666L197.431 5.402H194.983L192.031 2.666H194.803ZM205.664 6.5H208.04V20H205.664V6.5ZM230.063 14.654C229.943 15.758 229.553 16.736 228.893 17.588C228.245 18.428 227.393 19.082 226.337 19.55C225.281 20.018 224.075 20.252 222.719 20.252C221.207 20.252 219.881 19.958 218.741 19.37C217.601 18.782 216.713 17.966 216.077 16.922C215.441 15.866 215.123 14.642 215.123 13.25C215.123 11.858 215.441 10.64 216.077 9.596C216.713 8.54 217.601 7.718 218.741 7.13C219.881 6.542 221.207 6.248 222.719 6.248C224.075 6.248 225.281 6.482 226.337 6.95C227.393 7.418 228.245 8.072 228.893 8.912C229.553 9.752 229.943 10.73 230.063 11.846H227.669C227.537 11.126 227.249 10.508 226.805 9.992C226.373 9.476 225.809 9.08 225.113 8.804C224.417 8.516 223.613 8.372 222.701 8.372C221.645 8.372 220.727 8.57 219.947 8.966C219.179 9.362 218.585 9.926 218.165 10.658C217.745 11.39 217.535 12.254 217.535 13.25C217.535 14.246 217.745 15.11 218.165 15.842C218.585 16.574 219.179 17.138 219.947 17.534C220.727 17.93 221.645 18.128 222.701 18.128C223.613 18.128 224.417 17.99 225.113 17.714C225.809 17.438 226.373 17.042 226.805 16.526C227.249 15.998 227.537 15.374 227.669 14.654H230.063ZM232.242 6.5H234.618V20H232.242V6.5ZM243.222 6.5H245.598V20H243.222V6.5ZM233.52 12.152H244.356V14.24H233.52V12.152ZM248.625 6.5H251.001V20H248.625V6.5ZM250.803 2.666H253.575L250.623 5.402H248.175L250.803 2.666ZM266.532 18.56L265.56 18.668V6.5H267.864V20H264.84L255.372 7.832L256.326 7.724V20H254.022V6.5H257.118L266.532 18.56ZM270.879 6.5H273.255V20H270.879V6.5ZM281.859 6.5H284.235V20H281.859V6.5ZM272.157 12.152H282.993V14.24H272.157V12.152Z" fill="#24408E"/>
</svg>
