<svg width="100%" viewBox="0 0 1296 98" fill="none" xmlns="http://www.w3.org/2000/svg">
<rect x="0.5" y="0.5" width="1295" height="97" rx="19.5" fill="#24CBFF" fill-opacity="0.2"/>
<rect x="0.5" y="0.5" width="1295" height="97" rx="19.5" stroke="#24CBFF"/>
<path d="M49.5852 42V28.9091H54.1619C55.0739 28.9091 55.826 29.0668 56.4183 29.3821C57.0107 29.6932 57.4517 30.1129 57.7415 30.6413C58.0313 31.1655 58.1761 31.7472 58.1761 32.3864C58.1761 32.9489 58.076 33.4134 57.8757 33.7798C57.6797 34.1463 57.4197 34.4361 57.0959 34.6491C56.7763 34.8622 56.429 35.0199 56.054 35.1222V35.25C56.4545 35.2756 56.8572 35.4162 57.2621 35.6719C57.6669 35.9276 58.0057 36.294 58.2784 36.7713C58.5511 37.2486 58.6875 37.8324 58.6875 38.5227C58.6875 39.179 58.5384 39.7692 58.2401 40.2933C57.9418 40.8175 57.4709 41.233 56.8274 41.5398C56.1839 41.8466 55.3466 42 54.3153 42H49.5852ZM51.1705 40.5938H54.3153C55.3509 40.5938 56.0859 40.3935 56.5206 39.9929C56.9595 39.5881 57.179 39.098 57.179 38.5227C57.179 38.0795 57.0661 37.6705 56.8402 37.2955C56.6143 36.9162 56.2926 36.6136 55.875 36.3878C55.4574 36.1577 54.9631 36.0426 54.392 36.0426H51.1705V40.5938ZM51.1705 34.6619H54.1108C54.5881 34.6619 55.0185 34.5682 55.402 34.3807C55.7898 34.1932 56.0966 33.929 56.3224 33.5881C56.5526 33.2472 56.6676 32.8466 56.6676 32.3864C56.6676 31.8111 56.4673 31.3232 56.0668 30.9226C55.6662 30.5178 55.0313 30.3153 54.1619 30.3153H51.1705V34.6619ZM63.9769 42.2301C63.3548 42.2301 62.7901 42.1129 62.283 41.8786C61.7759 41.6399 61.3732 41.2969 61.0749 40.8494C60.7766 40.3977 60.6275 39.8523 60.6275 39.2131C60.6275 38.6506 60.7383 38.1946 60.9599 37.8452C61.1815 37.4915 61.4776 37.2145 61.8484 37.0142C62.2191 36.8139 62.6282 36.6648 63.0756 36.5668C63.5273 36.4645 63.9812 36.3835 64.4371 36.3239C65.0337 36.2472 65.5174 36.1896 65.8881 36.1513C66.2631 36.1087 66.5359 36.0384 66.7063 35.9403C66.881 35.8423 66.9684 35.6719 66.9684 35.429V35.3778C66.9684 34.7472 66.7958 34.2571 66.4506 33.9077C66.1097 33.5582 65.592 33.3835 64.8974 33.3835C64.1772 33.3835 63.6126 33.5412 63.2035 33.8565C62.7944 34.1719 62.5067 34.5085 62.3406 34.8665L60.9087 34.3551C61.1644 33.7585 61.5053 33.294 61.9315 32.9616C62.3619 32.625 62.8306 32.3906 63.3377 32.2585C63.8491 32.1222 64.3519 32.054 64.8462 32.054C65.1616 32.054 65.5238 32.0923 65.9329 32.169C66.3462 32.2415 66.7447 32.3928 67.1282 32.6229C67.516 32.853 67.8377 33.2003 68.0934 33.6648C68.3491 34.1293 68.4769 34.7514 68.4769 35.5312V42H66.9684V40.6705H66.8917C66.7894 40.8835 66.619 41.1115 66.3803 41.3544C66.1417 41.5973 65.8242 41.804 65.4279 41.9744C65.0316 42.1449 64.5479 42.2301 63.9769 42.2301ZM64.207 40.875C64.8036 40.875 65.3065 40.7578 65.7156 40.5234C66.1289 40.2891 66.44 39.9865 66.6488 39.6158C66.8619 39.245 66.9684 38.8551 66.9684 38.446V37.0653C66.9045 37.142 66.7638 37.2124 66.5465 37.2763C66.3335 37.3359 66.0863 37.3892 65.805 37.4361C65.5281 37.4787 65.2575 37.517 64.9933 37.5511C64.7333 37.581 64.5224 37.6065 64.3604 37.6278C63.9684 37.679 63.6019 37.7621 63.261 37.8771C62.9244 37.9879 62.6516 38.1562 62.4428 38.3821C62.2383 38.6037 62.136 38.9062 62.136 39.2898C62.136 39.8139 62.3299 40.2102 62.7177 40.4787C63.1097 40.7429 63.6062 40.875 64.207 40.875ZM64.2582 30.8523L65.8178 27.8864H67.582L65.5877 30.8523H64.2582ZM75.2189 42.2045C74.3326 42.2045 73.5549 41.9936 72.8858 41.5717C72.2211 41.1499 71.7012 40.5597 71.3262 39.8011C70.9554 39.0426 70.7701 38.1562 70.7701 37.142C70.7701 36.1193 70.9554 35.2266 71.3262 34.4638C71.7012 33.701 72.2211 33.1087 72.8858 32.6868C73.5549 32.2649 74.3326 32.054 75.2189 32.054C76.1053 32.054 76.8809 32.2649 77.5456 32.6868C78.2147 33.1087 78.7346 33.701 79.1053 34.4638C79.4803 35.2266 79.6678 36.1193 79.6678 37.142C79.6678 38.1562 79.4803 39.0426 79.1053 39.8011C78.7346 40.5597 78.2147 41.1499 77.5456 41.5717C76.8809 41.9936 76.1053 42.2045 75.2189 42.2045ZM75.2189 40.8494C75.8922 40.8494 76.4462 40.6768 76.8809 40.3317C77.3155 39.9865 77.6373 39.5327 77.8461 38.9702C78.0549 38.4077 78.1593 37.7983 78.1593 37.142C78.1593 36.4858 78.0549 35.8743 77.8461 35.3075C77.6373 34.7408 77.3155 34.2827 76.8809 33.9332C76.4462 33.5838 75.8922 33.4091 75.2189 33.4091C74.5456 33.4091 73.9917 33.5838 73.557 33.9332C73.1223 34.2827 72.8006 34.7408 72.5918 35.3075C72.383 35.8743 72.2786 36.4858 72.2786 37.142C72.2786 37.7983 72.383 38.4077 72.5918 38.9702C72.8006 39.5327 73.1223 39.9865 73.557 40.3317C73.9917 40.6768 74.5456 40.8494 75.2189 40.8494ZM91.0217 42.2045C90.1012 42.2045 89.3086 41.9872 88.6438 41.5526C87.979 41.1179 87.4677 40.5192 87.1097 39.7564C86.7518 38.9936 86.5728 38.1222 86.5728 37.142C86.5728 36.1449 86.756 35.2649 87.1225 34.5021C87.4933 33.7351 88.0089 33.1364 88.6694 32.706C89.3342 32.2713 90.1097 32.054 90.9961 32.054C91.6864 32.054 92.3086 32.1818 92.8626 32.4375C93.4165 32.6932 93.8704 33.0511 94.2241 33.5114C94.5778 33.9716 94.7972 34.5085 94.8825 35.1222H93.3739C93.2589 34.6747 93.0032 34.2784 92.6069 33.9332C92.2148 33.5838 91.6864 33.4091 91.0217 33.4091C90.4336 33.4091 89.918 33.5625 89.4748 33.8693C89.0359 34.1719 88.6928 34.6001 88.4457 35.1541C88.2028 35.7038 88.0813 36.3494 88.0813 37.0909C88.0813 37.8494 88.2006 38.5099 88.4393 39.0724C88.6822 39.6349 89.0231 40.0717 89.462 40.3828C89.9052 40.6939 90.4251 40.8494 91.0217 40.8494C91.4137 40.8494 91.7695 40.7812 92.0891 40.6449C92.4087 40.5085 92.6793 40.3125 92.9009 40.0568C93.1225 39.8011 93.2802 39.4943 93.3739 39.1364H94.8825C94.7972 39.7159 94.5863 40.2379 94.2496 40.7024C93.9173 41.1626 93.4762 41.5291 92.9265 41.8018C92.381 42.0703 91.7461 42.2045 91.0217 42.2045ZM99.9769 42.2301C99.3548 42.2301 98.7901 42.1129 98.283 41.8786C97.7759 41.6399 97.3732 41.2969 97.0749 40.8494C96.7766 40.3977 96.6275 39.8523 96.6275 39.2131C96.6275 38.6506 96.7383 38.1946 96.9599 37.8452C97.1815 37.4915 97.4776 37.2145 97.8484 37.0142C98.2191 36.8139 98.6282 36.6648 99.0756 36.5668C99.5273 36.4645 99.9812 36.3835 100.437 36.3239C101.034 36.2472 101.517 36.1896 101.888 36.1513C102.263 36.1087 102.536 36.0384 102.706 35.9403C102.881 35.8423 102.968 35.6719 102.968 35.429V35.3778C102.968 34.7472 102.796 34.2571 102.451 33.9077C102.11 33.5582 101.592 33.3835 100.897 33.3835C100.177 33.3835 99.6126 33.5412 99.2035 33.8565C98.7944 34.1719 98.5067 34.5085 98.3406 34.8665L96.9087 34.3551C97.1644 33.7585 97.5053 33.294 97.9315 32.9616C98.3619 32.625 98.8306 32.3906 99.3377 32.2585C99.8491 32.1222 100.352 32.054 100.846 32.054C101.162 32.054 101.524 32.0923 101.933 32.169C102.346 32.2415 102.745 32.3928 103.128 32.6229C103.516 32.853 103.838 33.2003 104.093 33.6648C104.349 34.1293 104.477 34.7514 104.477 35.5312V42H102.968V40.6705H102.892C102.789 40.8835 102.619 41.1115 102.38 41.3544C102.142 41.5973 101.824 41.804 101.428 41.9744C101.032 42.1449 100.548 42.2301 99.9769 42.2301ZM100.207 40.875C100.804 40.875 101.306 40.7578 101.716 40.5234C102.129 40.2891 102.44 39.9865 102.649 39.6158C102.862 39.245 102.968 38.8551 102.968 38.446V37.0653C102.904 37.142 102.764 37.2124 102.547 37.2763C102.333 37.3359 102.086 37.3892 101.805 37.4361C101.528 37.4787 101.257 37.517 100.993 37.5511C100.733 37.581 100.522 37.6065 100.36 37.6278C99.9684 37.679 99.6019 37.7621 99.261 37.8771C98.9244 37.9879 98.6516 38.1562 98.4428 38.3821C98.2383 38.6037 98.136 38.9062 98.136 39.2898C98.136 39.8139 98.3299 40.2102 98.7177 40.4787C99.1097 40.7429 99.6062 40.875 100.207 40.875ZM100.258 30.8523L101.818 27.8864H103.582L101.588 30.8523H100.258ZM111.219 42.2045C110.333 42.2045 109.555 41.9936 108.886 41.5717C108.221 41.1499 107.701 40.5597 107.326 39.8011C106.955 39.0426 106.77 38.1562 106.77 37.142C106.77 36.1193 106.955 35.2266 107.326 34.4638C107.701 33.701 108.221 33.1087 108.886 32.6868C109.555 32.2649 110.333 32.054 111.219 32.054C112.105 32.054 112.881 32.2649 113.546 32.6868C114.215 33.1087 114.735 33.701 115.105 34.4638C115.48 35.2266 115.668 36.1193 115.668 37.142C115.668 38.1562 115.48 39.0426 115.105 39.8011C114.735 40.5597 114.215 41.1499 113.546 41.5717C112.881 41.9936 112.105 42.2045 111.219 42.2045ZM111.219 40.8494C111.892 40.8494 112.446 40.6768 112.881 40.3317C113.316 39.9865 113.637 39.5327 113.846 38.9702C114.055 38.4077 114.159 37.7983 114.159 37.142C114.159 36.4858 114.055 35.8743 113.846 35.3075C113.637 34.7408 113.316 34.2827 112.881 33.9332C112.446 33.5838 111.892 33.4091 111.219 33.4091C110.546 33.4091 109.992 33.5838 109.557 33.9332C109.122 34.2827 108.801 34.7408 108.592 35.3075C108.383 35.8743 108.279 36.4858 108.279 37.142C108.279 37.7983 108.383 38.4077 108.592 38.9702C108.801 39.5327 109.122 39.9865 109.557 40.3317C109.992 40.6768 110.546 40.8494 111.219 40.8494ZM127.303 32.1818V33.4602H122.215V32.1818H127.303ZM123.698 29.8295H125.206V39.1875C125.206 39.6136 125.268 39.9332 125.392 40.1463C125.52 40.3551 125.681 40.4957 125.877 40.5682C126.078 40.6364 126.289 40.6705 126.51 40.6705C126.676 40.6705 126.813 40.6619 126.919 40.6449C127.026 40.6236 127.111 40.6065 127.175 40.5938L127.482 41.9489C127.38 41.9872 127.237 42.0256 127.054 42.0639C126.87 42.1065 126.638 42.1278 126.357 42.1278C125.931 42.1278 125.513 42.0362 125.104 41.853C124.699 41.6697 124.363 41.3906 124.094 41.0156C123.83 40.6406 123.698 40.1676 123.698 39.5966V29.8295ZM132.461 42.2301C131.839 42.2301 131.275 42.1129 130.767 41.8786C130.26 41.6399 129.858 41.2969 129.559 40.8494C129.261 40.3977 129.112 39.8523 129.112 39.2131C129.112 38.6506 129.223 38.1946 129.444 37.8452C129.666 37.4915 129.962 37.2145 130.333 37.0142C130.703 36.8139 131.113 36.6648 131.56 36.5668C132.012 36.4645 132.466 36.3835 132.922 36.3239C133.518 36.2472 134.002 36.1896 134.373 36.1513C134.748 36.1087 135.02 36.0384 135.191 35.9403C135.365 35.8423 135.453 35.6719 135.453 35.429V35.3778C135.453 34.7472 135.28 34.2571 134.935 33.9077C134.594 33.5582 134.076 33.3835 133.382 33.3835C132.662 33.3835 132.097 33.5412 131.688 33.8565C131.279 34.1719 130.991 34.5085 130.825 34.8665L129.393 34.3551C129.649 33.7585 129.99 33.294 130.416 32.9616C130.846 32.625 131.315 32.3906 131.822 32.2585C132.333 32.1222 132.836 32.054 133.331 32.054C133.646 32.054 134.008 32.0923 134.417 32.169C134.831 32.2415 135.229 32.3928 135.613 32.6229C136 32.853 136.322 33.2003 136.578 33.6648C136.833 34.1293 136.961 34.7514 136.961 35.5312V42H135.453V40.6705H135.376C135.274 40.8835 135.103 41.1115 134.865 41.3544C134.626 41.5973 134.309 41.804 133.912 41.9744C133.516 42.1449 133.032 42.2301 132.461 42.2301ZM132.691 40.875C133.288 40.875 133.791 40.7578 134.2 40.5234C134.613 40.2891 134.924 39.9865 135.133 39.6158C135.346 39.245 135.453 38.8551 135.453 38.446V37.0653C135.389 37.142 135.248 37.2124 135.031 37.2763C134.818 37.3359 134.571 37.3892 134.289 37.4361C134.012 37.4787 133.742 37.517 133.478 37.5511C133.218 37.581 133.007 37.6065 132.845 37.6278C132.453 37.679 132.086 37.7621 131.745 37.8771C131.409 37.9879 131.136 38.1562 130.927 38.3821C130.723 38.6037 130.62 38.9062 130.62 39.2898C130.62 39.8139 130.814 40.2102 131.202 40.4787C131.594 40.7429 132.091 40.875 132.691 40.875ZM132.794 30.8523L130.799 27.8864H132.564L134.123 30.8523H132.794ZM139.715 42V32.1818H141.223V42H139.715ZM140.482 30.5455C140.188 30.5455 139.934 30.4453 139.721 30.245C139.512 30.0447 139.408 29.804 139.408 29.5227C139.408 29.2415 139.512 29.0007 139.721 28.8004C139.934 28.6001 140.188 28.5 140.482 28.5C140.776 28.5 141.027 28.6001 141.236 28.8004C141.449 29.0007 141.556 29.2415 141.556 29.5227C141.556 29.804 141.449 30.0447 141.236 30.245C141.027 30.4453 140.776 30.5455 140.482 30.5455ZM153.037 42.2045C152.117 42.2045 151.324 41.9872 150.659 41.5526C149.995 41.1179 149.483 40.5192 149.125 39.7564C148.767 38.9936 148.588 38.1222 148.588 37.142C148.588 36.1449 148.772 35.2649 149.138 34.5021C149.509 33.7351 150.025 33.1364 150.685 32.706C151.35 32.2713 152.125 32.054 153.012 32.054C153.702 32.054 154.324 32.1818 154.878 32.4375C155.432 32.6932 155.886 33.0511 156.24 33.5114C156.593 33.9716 156.813 34.5085 156.898 35.1222H155.39C155.275 34.6747 155.019 34.2784 154.623 33.9332C154.23 33.5838 153.702 33.4091 153.037 33.4091C152.449 33.4091 151.934 33.5625 151.49 33.8693C151.051 34.1719 150.708 34.6001 150.461 35.1541C150.218 35.7038 150.097 36.3494 150.097 37.0909C150.097 37.8494 150.216 38.5099 150.455 39.0724C150.698 39.6349 151.039 40.0717 151.478 40.3828C151.921 40.6939 152.441 40.8494 153.037 40.8494C153.429 40.8494 153.785 40.7812 154.105 40.6449C154.424 40.5085 154.695 40.3125 154.917 40.0568C155.138 39.8011 155.296 39.4943 155.39 39.1364H156.898C156.813 39.7159 156.602 40.2379 156.265 40.7024C155.933 41.1626 155.492 41.5291 154.942 41.8018C154.397 42.0703 153.762 42.2045 153.037 42.2045ZM160.612 36.0938V42H159.103V28.9091H160.612V33.7159H160.74C160.97 33.2088 161.315 32.8061 161.775 32.5078C162.24 32.2053 162.858 32.054 163.629 32.054C164.298 32.054 164.884 32.1882 165.387 32.4567C165.89 32.7209 166.279 33.1278 166.556 33.6776C166.838 34.223 166.978 34.9176 166.978 35.7614V42H165.47V35.8636C165.47 35.0838 165.267 34.4808 164.863 34.0547C164.462 33.6243 163.906 33.4091 163.194 33.4091C162.7 33.4091 162.257 33.5135 161.865 33.7223C161.477 33.9311 161.17 34.2358 160.944 34.6364C160.723 35.0369 160.612 35.5227 160.612 36.0938ZM169.738 42V32.1818H171.247V42H169.738ZM169.815 30.8523L171.374 27.8864H173.139L171.144 30.8523H169.815ZM175.518 36.0938V42H174.01V32.1818H175.467V33.7159H175.595C175.825 33.2173 176.174 32.8168 176.643 32.5142C177.112 32.2074 177.717 32.054 178.458 32.054C179.123 32.054 179.705 32.1903 180.203 32.4631C180.702 32.7315 181.09 33.1406 181.367 33.6903C181.644 34.2358 181.782 34.9261 181.782 35.7614V42H180.274V35.8636C180.274 35.0923 180.074 34.4915 179.673 34.0611C179.272 33.6264 178.723 33.4091 178.024 33.4091C177.542 33.4091 177.112 33.5135 176.733 33.7223C176.358 33.9311 176.061 34.2358 175.844 34.6364C175.627 35.0369 175.518 35.5227 175.518 36.0938ZM186.047 36.0938V42H184.539V28.9091H186.047V33.7159H186.175C186.405 33.2088 186.751 32.8061 187.211 32.5078C187.675 32.2053 188.293 32.054 189.064 32.054C189.733 32.054 190.319 32.1882 190.822 32.4567C191.325 32.7209 191.715 33.1278 191.992 33.6776C192.273 34.223 192.414 34.9176 192.414 35.7614V42H190.905V35.8636C190.905 35.0838 190.703 34.4808 190.298 34.0547C189.898 33.6243 189.341 33.4091 188.63 33.4091C188.135 33.4091 187.692 33.5135 187.3 33.7223C186.912 33.9311 186.606 34.2358 186.38 34.6364C186.158 35.0369 186.047 35.5227 186.047 36.0938ZM202.026 28.9091V42H200.441V28.9091H202.026ZM205.204 28.9091H207.096L211.545 39.7756H211.699L216.148 28.9091H218.04V42H216.557V32.054H216.429L212.338 42H210.906L206.815 32.054H206.687V42H205.204V28.9091ZM221.218 42V28.9091H229.119V30.3153H222.803V34.7386H228.71V36.1449H222.803V40.5938H229.221V42H221.218ZM232.743 28.9091L236.118 34.3551H236.22L239.595 28.9091H241.462L237.345 35.4545L241.462 42H239.595L236.22 36.6562H236.118L232.743 42H230.876L235.095 35.4545L230.876 28.9091H232.743ZM243.525 42V28.9091H247.948C248.975 28.9091 249.814 29.0945 250.466 29.4652C251.123 29.8317 251.608 30.3281 251.924 30.9545C252.239 31.581 252.397 32.2798 252.397 33.0511C252.397 33.8224 252.239 34.5234 251.924 35.1541C251.613 35.7848 251.131 36.2876 250.479 36.6626C249.827 37.0334 248.992 37.2188 247.974 37.2188H244.803V35.8125H247.922C248.626 35.8125 249.19 35.6911 249.616 35.4482C250.042 35.2053 250.351 34.8771 250.543 34.4638C250.739 34.0462 250.837 33.5753 250.837 33.0511C250.837 32.527 250.739 32.0582 250.543 31.6449C250.351 31.2315 250.04 30.9077 249.61 30.6733C249.18 30.4347 248.608 30.3153 247.897 30.3153H245.11V42H243.525ZM254.95 42V28.9091H256.536V34.7386H263.516V28.9091H265.101V42H263.516V36.1449H256.536V42H254.95ZM268.812 42H267.15L271.956 28.9091H273.593L278.4 42H276.738L272.826 30.9801H272.724L268.812 42ZM269.425 36.8864H276.124V38.2926H269.425V36.8864ZM280.439 42V28.9091H284.862C285.885 28.9091 286.724 29.0838 287.381 29.4332C288.037 29.7784 288.523 30.2536 288.838 30.8587C289.153 31.4638 289.311 32.152 289.311 32.9233C289.311 33.6946 289.153 34.3786 288.838 34.9751C288.523 35.5717 288.039 36.0405 287.387 36.3814C286.735 36.718 285.902 36.8864 284.888 36.8864H281.308V35.4545H284.836C285.535 35.4545 286.098 35.3523 286.524 35.1477C286.954 34.9432 287.265 34.6534 287.457 34.2784C287.653 33.8991 287.751 33.4474 287.751 32.9233C287.751 32.3991 287.653 31.9411 287.457 31.549C287.261 31.157 286.948 30.8544 286.518 30.6413C286.087 30.424 285.518 30.3153 284.811 30.3153H282.024V42H280.439ZM286.601 36.1193L289.822 42H287.981L284.811 36.1193H286.601ZM291.952 28.9091H293.844L298.293 39.7756H298.447L302.896 28.9091H304.788V42H303.305V32.054H303.177L299.086 42H297.654L293.563 32.054H293.435V42H291.952V28.9091ZM318.449 34.7514V36.1577H312.722V34.7514H318.449ZM326.14 42V40.8494L330.461 36.1193C330.968 35.5653 331.386 35.0838 331.714 34.6747C332.042 34.2614 332.285 33.8736 332.443 33.5114C332.605 33.1449 332.686 32.7614 332.686 32.3608C332.686 31.9006 332.575 31.5021 332.353 31.1655C332.136 30.8288 331.838 30.5689 331.458 30.3857C331.079 30.2024 330.653 30.1108 330.18 30.1108C329.677 30.1108 329.238 30.2152 328.863 30.424C328.493 30.6286 328.205 30.9162 328 31.2869C327.8 31.6577 327.7 32.0923 327.7 32.5909H326.191C326.191 31.8239 326.368 31.1506 326.722 30.571C327.076 29.9915 327.557 29.5398 328.167 29.2159C328.78 28.892 329.468 28.7301 330.231 28.7301C330.998 28.7301 331.678 28.892 332.27 29.2159C332.863 29.5398 333.327 29.9766 333.664 30.5263C334 31.076 334.169 31.6875 334.169 32.3608C334.169 32.8423 334.081 33.3132 333.907 33.7734C333.736 34.2294 333.438 34.7386 333.012 35.3011C332.59 35.8594 332.004 36.5412 331.254 37.3466L328.314 40.4915V40.5938H334.399V42H326.14ZM341.309 42.179C340.346 42.179 339.525 41.9169 338.848 41.3928C338.17 40.8643 337.652 40.0994 337.294 39.098C336.936 38.0923 336.757 36.8778 336.757 35.4545C336.757 34.0398 336.936 32.8317 337.294 31.8303C337.657 30.8246 338.176 30.0575 338.854 29.5291C339.536 28.9964 340.354 28.7301 341.309 28.7301C342.263 28.7301 343.079 28.9964 343.757 29.5291C344.439 30.0575 344.958 30.8246 345.316 31.8303C345.679 32.8317 345.86 34.0398 345.86 35.4545C345.86 36.8778 345.681 38.0923 345.323 39.098C344.965 40.0994 344.447 40.8643 343.77 41.3928C343.092 41.9169 342.272 42.179 341.309 42.179ZM341.309 40.7727C342.263 40.7727 343.005 40.3125 343.533 39.392C344.061 38.4716 344.326 37.1591 344.326 35.4545C344.326 34.321 344.204 33.3558 343.961 32.5589C343.723 31.7621 343.377 31.1548 342.926 30.7372C342.478 30.3196 341.939 30.1108 341.309 30.1108C340.363 30.1108 339.623 30.5774 339.091 31.5107C338.558 32.4396 338.292 33.7543 338.292 35.4545C338.292 36.5881 338.411 37.5511 338.65 38.3438C338.888 39.1364 339.231 39.7393 339.679 40.1527C340.13 40.5661 340.674 40.7727 341.309 40.7727ZM348.289 42V40.8494L352.61 36.1193C353.117 35.5653 353.534 35.0838 353.863 34.6747C354.191 34.2614 354.434 33.8736 354.591 33.5114C354.753 33.1449 354.834 32.7614 354.834 32.3608C354.834 31.9006 354.723 31.5021 354.502 31.1655C354.284 30.8288 353.986 30.5689 353.607 30.3857C353.228 30.2024 352.801 30.1108 352.328 30.1108C351.826 30.1108 351.387 30.2152 351.012 30.424C350.641 30.6286 350.353 30.9162 350.149 31.2869C349.949 31.6577 349.848 32.0923 349.848 32.5909H348.34C348.34 31.8239 348.517 31.1506 348.87 30.571C349.224 29.9915 349.706 29.5398 350.315 29.2159C350.929 28.892 351.617 28.7301 352.38 28.7301C353.147 28.7301 353.826 28.892 354.419 29.2159C355.011 29.5398 355.475 29.9766 355.812 30.5263C356.149 31.076 356.317 31.6875 356.317 32.3608C356.317 32.8423 356.23 33.3132 356.055 33.7734C355.885 34.2294 355.586 34.7386 355.16 35.3011C354.738 35.8594 354.152 36.5412 353.402 37.3466L350.462 40.4915V40.5938H356.547V42H348.289ZM363.61 42.179C362.767 42.179 362.015 42.0341 361.354 41.7443C360.698 41.4545 360.176 41.0518 359.788 40.5362C359.404 40.0163 359.196 39.4134 359.162 38.7273H360.772C360.806 39.1491 360.951 39.5135 361.207 39.8203C361.463 40.1229 361.797 40.3572 362.211 40.5234C362.624 40.6896 363.082 40.7727 363.585 40.7727C364.147 40.7727 364.646 40.6747 365.081 40.4787C365.515 40.2827 365.856 40.0099 366.103 39.6605C366.35 39.3111 366.474 38.9062 366.474 38.446C366.474 37.9645 366.355 37.5405 366.116 37.174C365.877 36.8033 365.528 36.5135 365.068 36.3047C364.608 36.0959 364.045 35.9915 363.38 35.9915H362.332V34.5852H363.38C363.9 34.5852 364.356 34.4915 364.748 34.304C365.145 34.1165 365.453 33.8523 365.675 33.5114C365.901 33.1705 366.014 32.7699 366.014 32.3097C366.014 31.8665 365.916 31.4808 365.72 31.1527C365.524 30.8246 365.247 30.5689 364.889 30.3857C364.535 30.2024 364.118 30.1108 363.636 30.1108C363.184 30.1108 362.758 30.1939 362.358 30.3601C361.961 30.522 361.637 30.7585 361.386 31.0696C361.135 31.3764 360.998 31.7472 360.977 32.1818H359.443C359.468 31.4957 359.675 30.8949 360.063 30.3793C360.451 29.8594 360.958 29.4545 361.584 29.1648C362.215 28.875 362.907 28.7301 363.662 28.7301C364.471 28.7301 365.166 28.8942 365.745 29.2223C366.325 29.5462 366.77 29.9744 367.081 30.5071C367.392 31.0398 367.548 31.6151 367.548 32.233C367.548 32.9702 367.354 33.5987 366.966 34.1186C366.583 34.6385 366.061 34.9986 365.4 35.1989V35.3011C366.227 35.4375 366.873 35.7891 367.337 36.3558C367.801 36.9183 368.034 37.6151 368.034 38.446C368.034 39.1577 367.84 39.7969 367.452 40.3636C367.069 40.9261 366.544 41.3693 365.88 41.6932C365.215 42.017 364.458 42.179 363.61 42.179Z" fill="#24408E"/>
<path d="M49.8466 65.0909C50.0739 63.7273 50.4583 62.4394 51 61.2273C51.5455 60.0152 52.2292 58.8788 53.0511 57.8182H53.9716C53.6231 58.2614 53.286 58.767 52.9602 59.3352C52.6383 59.8996 52.3409 60.5019 52.0682 61.142C51.7992 61.7822 51.5625 62.4375 51.358 63.108C51.1572 63.7746 51.0019 64.4356 50.892 65.0909C50.7481 65.9659 50.6818 66.8485 50.6932 67.7386C50.7045 68.6288 50.7841 69.4735 50.9318 70.2727C51.0833 71.072 51.2936 71.7689 51.5625 72.3636H50.642C50.1761 71.2992 49.8693 70.161 49.7216 68.9489C49.5777 67.7367 49.6193 66.4508 49.8466 65.0909ZM53.6094 73.2727L55.6207 61.2727H56.6037L56.331 62.9375H56.4503C56.6094 62.6761 56.8158 62.4072 57.0696 62.1307C57.3272 61.8542 57.6473 61.6231 58.0298 61.4375C58.4162 61.2481 58.8783 61.1534 59.4162 61.1534C60.1359 61.1534 60.7325 61.3409 61.206 61.7159C61.6832 62.0909 62.0166 62.6174 62.206 63.2955C62.3991 63.9735 62.42 64.7614 62.2685 65.6591C62.1207 66.5606 61.8385 67.3504 61.4219 68.0284C61.0052 68.7064 60.4957 69.2348 59.8935 69.6136C59.295 69.9924 58.6397 70.1818 57.9276 70.1818C57.401 70.1818 56.9749 70.0871 56.6491 69.8977C56.3272 69.7083 56.081 69.4754 55.9105 69.1989C55.7401 68.9186 55.617 68.6458 55.5412 68.3807H55.4503L54.6321 73.2727H53.6094ZM55.8935 65.642C55.7798 66.3466 55.7798 66.9716 55.8935 67.517C56.0071 68.0587 56.2363 68.4848 56.581 68.7955C56.9257 69.1023 57.3802 69.2557 57.9446 69.2557C58.5241 69.2557 59.0412 69.0966 59.4957 68.7784C59.9503 68.4564 60.3291 68.0227 60.6321 67.4773C60.9351 66.9318 61.1435 66.3201 61.2571 65.642C61.3632 64.9716 61.3594 64.3674 61.2457 63.8295C61.1321 63.2917 60.9048 62.8655 60.5639 62.5511C60.223 62.233 59.759 62.0739 59.1719 62.0739C58.6037 62.0739 58.0923 62.2273 57.6378 62.5341C57.187 62.8371 56.812 63.2576 56.5128 63.7955C56.2135 64.3295 56.0071 64.9451 55.8935 65.642ZM65.679 64.5455L64.7756 70H63.7642L65.696 58.3636H66.7074L66.0028 62.642H66.0938C66.3665 62.1875 66.7415 61.8277 67.2188 61.5625C67.696 61.2936 68.2661 61.1591 68.929 61.1591C69.5161 61.1591 70.0123 61.2803 70.4176 61.5227C70.8267 61.7652 71.1165 62.1231 71.2869 62.5966C71.4612 63.0701 71.4915 63.6534 71.3778 64.3466L70.429 70H69.4119L70.3438 64.4091C70.4612 63.6894 70.3551 63.1231 70.0256 62.7102C69.6998 62.2936 69.1998 62.0852 68.5256 62.0852C68.0634 62.0852 67.6316 62.1837 67.2301 62.3807C66.8324 62.5777 66.4953 62.8617 66.2188 63.233C65.946 63.6004 65.7661 64.0379 65.679 64.5455ZM73.1037 70L74.5582 61.2727H75.5753L74.1207 70H73.1037ZM75.4332 59.7557C75.2211 59.7557 75.0412 59.6837 74.8935 59.5398C74.7495 59.3958 74.6795 59.2216 74.6832 59.017C74.6908 58.8239 74.7685 58.6572 74.9162 58.517C75.0677 58.3731 75.2457 58.3011 75.4503 58.3011C75.6624 58.3011 75.8423 58.375 75.9901 58.5227C76.1378 58.6667 76.2079 58.8409 76.2003 59.0455C76.1965 59.2386 76.1188 59.4053 75.9673 59.5455C75.8158 59.6856 75.6378 59.7557 75.4332 59.7557ZM80.3011 70.1818C79.4867 70.1818 78.8144 69.9924 78.2841 69.6136C77.7538 69.2311 77.3826 68.7027 77.1705 68.0284C76.9583 67.3504 76.9261 66.5701 77.0739 65.6875C77.2216 64.8087 77.5133 64.0284 77.9489 63.3466C78.3845 62.661 78.9223 62.125 79.5625 61.7386C80.2027 61.3485 80.8977 61.1534 81.6477 61.1534C82.1212 61.1534 82.5644 61.2405 82.9773 61.4148C83.3902 61.5852 83.7405 61.8485 84.0284 62.2045C84.3201 62.5568 84.5227 63.0019 84.6364 63.5398C84.75 64.0739 84.7462 64.7064 84.625 65.4375L84.5455 65.9375H77.7273L77.8693 65.0455H83.6591C83.7538 64.4848 83.7273 63.9811 83.5795 63.5341C83.4318 63.0871 83.1799 62.733 82.8239 62.4716C82.4716 62.2064 82.0341 62.0739 81.5114 62.0739C80.9773 62.0739 80.4716 62.2235 79.9943 62.5227C79.5208 62.822 79.1193 63.2121 78.7898 63.6932C78.464 64.1705 78.2538 64.6799 78.1591 65.2216L78.0455 65.892C77.9242 66.6307 77.9394 67.25 78.0909 67.75C78.2424 68.2462 78.517 68.6212 78.9148 68.875C79.3125 69.1288 79.822 69.2557 80.4432 69.2557C80.8598 69.2557 81.2367 69.1913 81.5739 69.0625C81.911 68.9337 82.2045 68.7614 82.4545 68.5455C82.7045 68.3258 82.9053 68.0852 83.0568 67.8239L83.9602 68.1364C83.767 68.5038 83.4943 68.8428 83.142 69.1534C82.7936 69.464 82.3788 69.714 81.8977 69.9034C81.4205 70.089 80.8883 70.1818 80.3011 70.1818ZM83.0682 60.2727L81.9886 58.642L80.3807 60.2727H79.358L79.3693 60.1989L81.6648 57.9091H82.517L84.0682 60.1989L84.0511 60.2727H83.0682ZM88.0071 64.5455L87.1037 70H86.0923L87.5469 61.2727H88.5298L88.3026 62.642H88.3935C88.6662 62.1951 89.0431 61.8371 89.5241 61.5682C90.009 61.2955 90.5715 61.1591 91.2116 61.1591C91.795 61.1591 92.2874 61.2822 92.6889 61.5284C93.0942 61.7708 93.3821 62.1288 93.5526 62.6023C93.7268 63.0758 93.7571 63.6572 93.6435 64.3466L92.6946 70H91.6832L92.6151 64.4091C92.7325 63.697 92.6283 63.1326 92.3026 62.7159C91.9806 62.2955 91.4825 62.0852 90.8082 62.0852C90.3499 62.0852 89.9238 62.1837 89.5298 62.3807C89.1397 62.5777 88.8101 62.8617 88.5412 63.233C88.2723 63.6004 88.0942 64.0379 88.0071 64.5455ZM100.068 70L102 58.3636H103.017L102.267 62.9375H102.358C102.513 62.6761 102.72 62.4072 102.977 62.1307C103.239 61.8542 103.561 61.6231 103.943 61.4375C104.326 61.2481 104.784 61.1534 105.318 61.1534C106.034 61.1534 106.631 61.3428 107.108 61.7216C107.589 62.0966 107.924 62.6231 108.114 63.3011C108.303 63.9754 108.324 64.7614 108.176 65.6591C108.025 66.5606 107.742 67.3504 107.33 68.0284C106.917 68.7064 106.409 69.2348 105.807 69.6136C105.205 69.9924 104.547 70.1818 103.835 70.1818C103.305 70.1818 102.877 70.0871 102.551 69.8977C102.229 69.7083 101.983 69.4754 101.812 69.1989C101.646 68.9186 101.525 68.6458 101.449 68.3807H101.324L101.051 70H100.068ZM101.795 65.642C101.682 66.3466 101.682 66.9716 101.795 67.517C101.913 68.0587 102.142 68.4848 102.483 68.7955C102.828 69.1023 103.282 69.2557 103.847 69.2557C104.426 69.2557 104.943 69.0966 105.398 68.7784C105.856 68.4564 106.235 68.0227 106.534 67.4773C106.837 66.9318 107.045 66.3201 107.159 65.642C107.269 64.9716 107.267 64.3674 107.153 63.8295C107.04 63.2917 106.811 62.8655 106.466 62.5511C106.121 62.233 105.657 62.0739 105.074 62.0739C104.506 62.0739 103.994 62.2273 103.54 62.5341C103.089 62.8371 102.714 63.2576 102.415 63.7955C102.116 64.3295 101.909 64.9451 101.795 65.642ZM112.085 70.1989C111.559 70.1989 111.095 70.0966 110.693 69.892C110.292 69.6837 109.992 69.3845 109.795 68.9943C109.602 68.6004 109.549 68.1231 109.636 67.5625C109.712 67.1307 109.856 66.767 110.068 66.4716C110.284 66.1761 110.557 65.9337 110.886 65.7443C111.216 65.5511 111.595 65.3996 112.023 65.2898C112.451 65.1799 112.917 65.0966 113.42 65.0398C113.913 64.9792 114.333 64.9261 114.682 64.8807C115.03 64.8352 115.301 64.7633 115.494 64.6648C115.688 64.5663 115.803 64.4072 115.841 64.1875L115.875 63.983C115.973 63.3883 115.883 62.9205 115.602 62.5795C115.322 62.2348 114.852 62.0625 114.193 62.0625C113.564 62.0625 113.019 62.2027 112.557 62.483C112.098 62.7595 111.758 63.0833 111.534 63.4545L110.636 63.108C110.909 62.6307 111.244 62.25 111.642 61.9659C112.04 61.678 112.466 61.4716 112.92 61.3466C113.375 61.2178 113.824 61.1534 114.267 61.1534C114.6 61.1534 114.939 61.197 115.284 61.2841C115.629 61.3712 115.938 61.5227 116.21 61.7386C116.487 61.9508 116.689 62.2481 116.818 62.6307C116.951 63.0095 116.97 63.4905 116.875 64.0739L115.886 70H114.875L115.108 68.6193H115.045C114.886 68.8769 114.667 69.1269 114.386 69.3693C114.11 69.6117 113.778 69.8106 113.392 69.9659C113.006 70.1212 112.57 70.1989 112.085 70.1989ZM112.341 69.2727C112.879 69.2727 113.366 69.1534 113.801 68.9148C114.241 68.6761 114.6 68.3598 114.881 67.9659C115.165 67.5682 115.347 67.1307 115.426 66.6534L115.636 65.392C115.553 65.464 115.417 65.5284 115.227 65.5852C115.042 65.642 114.831 65.6932 114.597 65.7386C114.366 65.7803 114.133 65.8163 113.898 65.8466C113.667 65.8769 113.462 65.9034 113.284 65.9261C112.78 65.9867 112.341 66.0814 111.966 66.2102C111.595 66.339 111.297 66.517 111.074 66.7443C110.85 66.9678 110.71 67.2557 110.653 67.608C110.566 68.1383 110.682 68.5492 111 68.8409C111.322 69.1288 111.769 69.2727 112.341 69.2727ZM114.972 60.1136H114.108L114.301 58.9261C114.706 58.9034 115.002 58.8409 115.188 58.7386C115.373 58.6326 115.487 58.4697 115.528 58.25C115.57 58 115.483 57.8182 115.267 57.7045C115.055 57.5909 114.756 57.5322 114.369 57.5284L114.54 56.8352C115.248 56.8352 115.761 56.9697 116.08 57.2386C116.398 57.5038 116.525 57.8542 116.46 58.2898C116.396 58.6648 116.231 58.947 115.966 59.1364C115.705 59.322 115.407 59.4337 115.074 59.4716L114.972 60.1136ZM120.491 64.5455L119.588 70H118.577L120.031 61.2727H121.014L120.787 62.642H120.878C121.151 62.1951 121.527 61.8371 122.009 61.5682C122.493 61.2955 123.056 61.1591 123.696 61.1591C124.279 61.1591 124.772 61.2822 125.173 61.5284C125.579 61.7708 125.866 62.1288 126.037 62.6023C126.211 63.0758 126.241 63.6572 126.128 64.3466L125.179 70H124.168L125.099 64.4091C125.217 63.697 125.113 63.1326 124.787 62.7159C124.465 62.2955 123.967 62.0852 123.293 62.0852C122.834 62.0852 122.408 62.1837 122.014 62.3807C121.624 62.5777 121.295 62.8617 121.026 63.233C120.757 63.6004 120.579 64.0379 120.491 64.5455ZM137.234 61.2727L137.092 62.1534H132.922L133.07 61.2727H137.234ZM134.712 59.1818H135.729L134.308 67.7216C134.248 68.0852 134.263 68.3712 134.354 68.5795C134.445 68.7841 134.585 68.9299 134.774 69.017C134.964 69.1004 135.172 69.142 135.399 69.142C135.532 69.142 135.645 69.1345 135.74 69.1193C135.839 69.1004 135.926 69.0814 136.001 69.0625L136.075 69.9773C135.965 70.0152 135.835 70.0492 135.683 70.0795C135.532 70.1136 135.35 70.1307 135.138 70.1307C134.767 70.1307 134.424 70.0492 134.109 69.8864C133.795 69.7235 133.556 69.4811 133.393 69.1591C133.231 68.8371 133.187 68.4375 133.263 67.9602L134.712 59.1818ZM138.088 70L139.543 61.2727H140.56L139.105 70H138.088ZM140.418 59.7557C140.205 59.7557 140.026 59.6837 139.878 59.5398C139.734 59.3958 139.664 59.2216 139.668 59.017C139.675 58.8239 139.753 58.6572 139.901 58.517C140.052 58.3731 140.23 58.3011 140.435 58.3011C140.647 58.3011 140.827 58.375 140.974 58.5227C141.122 58.6667 141.192 58.8409 141.185 59.0455C141.181 59.2386 141.103 59.4053 140.952 59.5455C140.8 59.6856 140.622 59.7557 140.418 59.7557ZM145.286 70.1818C144.471 70.1818 143.799 69.9924 143.268 69.6136C142.738 69.2311 142.367 68.7027 142.155 68.0284C141.943 67.3504 141.911 66.5701 142.058 65.6875C142.206 64.8087 142.498 64.0284 142.933 63.3466C143.369 62.661 143.907 62.125 144.547 61.7386C145.187 61.3485 145.882 61.1534 146.632 61.1534C147.106 61.1534 147.549 61.2405 147.962 61.4148C148.375 61.5852 148.725 61.8485 149.013 62.2045C149.304 62.5568 149.507 63.0019 149.621 63.5398C149.734 64.0739 149.731 64.7064 149.609 65.4375L149.53 65.9375H142.712L142.854 65.0455H148.643C148.738 64.4848 148.712 63.9811 148.564 63.5341C148.416 63.0871 148.164 62.733 147.808 62.4716C147.456 62.2064 147.018 62.0739 146.496 62.0739C145.962 62.0739 145.456 62.2235 144.979 62.5227C144.505 62.822 144.104 63.2121 143.774 63.6932C143.448 64.1705 143.238 64.6799 143.143 65.2216L143.03 65.892C142.909 66.6307 142.924 67.25 143.075 67.75C143.227 68.2462 143.501 68.6212 143.899 68.875C144.297 69.1288 144.806 69.2557 145.428 69.2557C145.844 69.2557 146.221 69.1913 146.558 69.0625C146.895 68.9337 147.189 68.7614 147.439 68.5455C147.689 68.3258 147.89 68.0852 148.041 67.8239L148.945 68.1364C148.751 68.5038 148.479 68.8428 148.126 69.1534C147.778 69.464 147.363 69.714 146.882 69.9034C146.405 70.089 145.873 70.1818 145.286 70.1818ZM144.075 60.1023L146.672 57.9943H147.536L149.45 60.1023H148.206L146.996 58.7159L145.348 60.1023H144.075ZM149.155 58.7045L150.689 56.6761H151.945L150.064 58.7045H149.155ZM152.991 64.5455L152.088 70H151.077L152.531 61.2727H153.514L153.287 62.642H153.378C153.651 62.1951 154.027 61.8371 154.509 61.5682C154.993 61.2955 155.556 61.1591 156.196 61.1591C156.779 61.1591 157.272 61.2822 157.673 61.5284C158.079 61.7708 158.366 62.1288 158.537 62.6023C158.711 63.0758 158.741 63.6572 158.628 64.3466L157.679 70H156.668L157.599 64.4091C157.717 63.697 157.613 63.1326 157.287 62.7159C156.965 62.2955 156.467 62.0852 155.793 62.0852C155.334 62.0852 154.908 62.1837 154.514 62.3807C154.124 62.5777 153.795 62.8617 153.526 63.233C153.257 63.6004 153.079 64.0379 152.991 64.5455ZM163.126 73.4545C162.532 73.4545 162.022 73.3769 161.598 73.2216C161.174 73.0701 160.829 72.8617 160.564 72.5966C160.303 72.3314 160.111 72.0341 159.99 71.7045L160.911 71.1648C160.994 71.3845 161.121 71.6004 161.291 71.8125C161.462 72.0246 161.702 72.1989 162.013 72.3352C162.323 72.4754 162.731 72.5455 163.234 72.5455C164.003 72.5455 164.664 72.3504 165.217 71.9602C165.77 71.5739 166.115 70.9754 166.251 70.1648L166.558 68.1989H166.467C166.312 68.464 166.104 68.7292 165.842 68.9943C165.581 69.2557 165.257 69.4735 164.871 69.6477C164.488 69.822 164.036 69.9091 163.513 69.9091C162.816 69.9091 162.225 69.7367 161.74 69.392C161.255 69.0473 160.912 68.5549 160.712 67.9148C160.511 67.2708 160.486 66.5038 160.638 65.6136C160.782 64.7311 161.058 63.9545 161.467 63.2841C161.88 62.6136 162.388 62.0909 162.99 61.7159C163.596 61.3409 164.259 61.1534 164.979 61.1534C165.513 61.1534 165.941 61.2481 166.263 61.4375C166.585 61.6231 166.829 61.8542 166.996 62.1307C167.166 62.4072 167.289 62.6761 167.365 62.9375H167.467L167.74 61.2727H168.729L167.251 70.2273C167.126 70.9659 166.869 71.5739 166.479 72.0511C166.089 72.5284 165.604 72.8807 165.024 73.108C164.448 73.339 163.816 73.4545 163.126 73.4545ZM163.74 68.983C164.301 68.983 164.804 68.8485 165.251 68.5795C165.702 68.3068 166.079 67.9186 166.382 67.4148C166.689 66.9072 166.899 66.3011 167.013 65.5966C167.126 64.9148 167.121 64.3106 166.996 63.7841C166.875 63.2538 166.638 62.8371 166.286 62.5341C165.937 62.2273 165.479 62.0739 164.911 62.0739C164.323 62.0739 163.804 62.2311 163.354 62.5455C162.907 62.8598 162.537 63.2841 162.246 63.8182C161.958 64.3485 161.759 64.9413 161.649 65.5966C161.543 66.2633 161.547 66.8523 161.661 67.3636C161.778 67.8712 162.009 68.2689 162.354 68.5568C162.698 68.8409 163.161 68.983 163.74 68.983ZM176.611 58.3636L178.548 68.6193H178.656L183.986 58.3636H185.099L178.935 70H177.798L175.497 58.3636H176.611ZM184.963 70L186.418 61.2727H187.435L185.98 70H184.963ZM187.293 59.7557C187.08 59.7557 186.901 59.6837 186.753 59.5398C186.609 59.3958 186.539 59.2216 186.543 59.017C186.55 58.8239 186.628 58.6572 186.776 58.517C186.927 58.3731 187.105 58.3011 187.31 58.3011C187.522 58.3011 187.702 58.375 187.849 58.5227C187.997 58.6667 188.067 58.8409 188.06 59.0455C188.056 59.2386 187.978 59.4053 187.827 59.5455C187.675 59.6856 187.497 59.7557 187.293 59.7557ZM192.161 70.1818C191.346 70.1818 190.674 69.9924 190.143 69.6136C189.613 69.2311 189.242 68.7027 189.03 68.0284C188.818 67.3504 188.786 66.5701 188.933 65.6875C189.081 64.8087 189.373 64.0284 189.808 63.3466C190.244 62.661 190.782 62.125 191.422 61.7386C192.062 61.3485 192.757 61.1534 193.507 61.1534C193.981 61.1534 194.424 61.2405 194.837 61.4148C195.25 61.5852 195.6 61.8485 195.888 62.2045C196.179 62.5568 196.382 63.0019 196.496 63.5398C196.609 64.0739 196.606 64.7064 196.484 65.4375L196.405 65.9375H189.587L189.729 65.0455H195.518C195.613 64.4848 195.587 63.9811 195.439 63.5341C195.291 63.0871 195.039 62.733 194.683 62.4716C194.331 62.2064 193.893 62.0739 193.371 62.0739C192.837 62.0739 192.331 62.2235 191.854 62.5227C191.38 62.822 190.979 63.2121 190.649 63.6932C190.323 64.1705 190.113 64.6799 190.018 65.2216L189.905 65.892C189.784 66.6307 189.799 67.25 189.95 67.75C190.102 68.2462 190.376 68.6212 190.774 68.875C191.172 69.1288 191.681 69.2557 192.303 69.2557C192.719 69.2557 193.096 69.1913 193.433 69.0625C193.77 68.9337 194.064 68.7614 194.314 68.5455C194.564 68.3258 194.765 68.0852 194.916 67.8239L195.82 68.1364C195.626 68.5038 195.354 68.8428 195.001 69.1534C194.653 69.464 194.238 69.714 193.757 69.9034C193.28 70.089 192.748 70.1818 192.161 70.1818ZM194.928 60.2727L193.848 58.642L192.24 60.2727H191.217L191.229 60.1989L193.524 57.9091H194.376L195.928 60.1989L195.911 60.2727H194.928ZM191.638 72.7727C191.426 72.7727 191.246 72.6989 191.098 72.5511C190.95 72.4072 190.88 72.233 190.888 72.0284C190.892 71.8352 190.969 71.6686 191.121 71.5284C191.272 71.3883 191.45 71.3182 191.655 71.3182C191.867 71.3182 192.045 71.3902 192.189 71.5341C192.337 71.6818 192.409 71.858 192.405 72.0625C192.397 72.2557 192.318 72.4223 192.166 72.5625C192.018 72.7027 191.842 72.7727 191.638 72.7727ZM202.844 61.2727L202.702 62.1534H198.531L198.679 61.2727H202.844ZM200.321 59.1818H201.338L199.918 67.7216C199.857 68.0852 199.872 68.3712 199.963 68.5795C200.054 68.7841 200.194 68.9299 200.384 69.017C200.573 69.1004 200.781 69.142 201.009 69.142C201.141 69.142 201.255 69.1345 201.349 69.1193C201.448 69.1004 201.535 69.0814 201.611 69.0625L201.685 69.9773C201.575 70.0152 201.444 70.0492 201.293 70.0795C201.141 70.1136 200.959 70.1307 200.747 70.1307C200.376 70.1307 200.033 70.0492 199.719 69.8864C199.404 69.7235 199.166 69.4811 199.003 69.1591C198.84 68.8371 198.796 68.4375 198.872 67.9602L200.321 59.1818ZM206.959 65.0909C206.732 66.4545 206.345 67.7424 205.8 68.9545C205.258 70.1667 204.576 71.303 203.754 72.3636H202.834C203.186 71.9167 203.523 71.411 203.845 70.8466C204.167 70.2822 204.463 69.6799 204.732 69.0398C205.004 68.3996 205.241 67.7443 205.442 67.0739C205.646 66.4034 205.804 65.7424 205.913 65.0909C206.057 64.2159 206.124 63.3333 206.112 62.4432C206.101 61.553 206.019 60.7083 205.868 59.9091C205.72 59.1098 205.512 58.4129 205.243 57.8182H206.163C206.629 58.8826 206.934 60.0208 207.078 61.233C207.226 62.4451 207.186 63.7311 206.959 65.0909Z" fill="black"/>
</svg>
