<svg width="100%" viewBox="0 0 1296 98" fill="none" xmlns="http://www.w3.org/2000/svg">
<rect x="0.5" y="0.5" width="1295" height="97" rx="19.5" fill="#24CBFF" fill-opacity="0.2"/>
<rect x="0.5" y="0.5" width="1295" height="97" rx="19.5" stroke="#24CBFF"/>
<path d="M49.5852 42V28.9091H54.1619C55.0739 28.9091 55.826 29.0668 56.4183 29.3821C57.0107 29.6932 57.4517 30.1129 57.7415 30.6413C58.0313 31.1655 58.1761 31.7472 58.1761 32.3864C58.1761 32.9489 58.076 33.4134 57.8757 33.7798C57.6797 34.1463 57.4197 34.4361 57.0959 34.6491C56.7763 34.8622 56.429 35.0199 56.054 35.1222V35.25C56.4545 35.2756 56.8572 35.4162 57.2621 35.6719C57.6669 35.9276 58.0057 36.294 58.2784 36.7713C58.5511 37.2486 58.6875 37.8324 58.6875 38.5227C58.6875 39.179 58.5384 39.7692 58.2401 40.2933C57.9418 40.8175 57.4709 41.233 56.8274 41.5398C56.1839 41.8466 55.3466 42 54.3153 42H49.5852ZM51.1705 40.5938H54.3153C55.3509 40.5938 56.0859 40.3935 56.5206 39.9929C56.9595 39.5881 57.179 39.098 57.179 38.5227C57.179 38.0795 57.0661 37.6705 56.8402 37.2955C56.6143 36.9162 56.2926 36.6136 55.875 36.3878C55.4574 36.1577 54.9631 36.0426 54.392 36.0426H51.1705V40.5938ZM51.1705 34.6619H54.1108C54.5881 34.6619 55.0185 34.5682 55.402 34.3807C55.7898 34.1932 56.0966 33.929 56.3224 33.5881C56.5526 33.2472 56.6676 32.8466 56.6676 32.3864C56.6676 31.8111 56.4673 31.3232 56.0668 30.9226C55.6662 30.5178 55.0313 30.3153 54.1619 30.3153H51.1705V34.6619ZM63.9769 42.2301C63.3548 42.2301 62.7901 42.1129 62.283 41.8786C61.7759 41.6399 61.3732 41.2969 61.0749 40.8494C60.7766 40.3977 60.6275 39.8523 60.6275 39.2131C60.6275 38.6506 60.7383 38.1946 60.9599 37.8452C61.1815 37.4915 61.4776 37.2145 61.8484 37.0142C62.2191 36.8139 62.6282 36.6648 63.0756 36.5668C63.5273 36.4645 63.9812 36.3835 64.4371 36.3239C65.0337 36.2472 65.5174 36.1896 65.8881 36.1513C66.2631 36.1087 66.5359 36.0384 66.7063 35.9403C66.881 35.8423 66.9684 35.6719 66.9684 35.429V35.3778C66.9684 34.7472 66.7958 34.2571 66.4506 33.9077C66.1097 33.5582 65.592 33.3835 64.8974 33.3835C64.1772 33.3835 63.6126 33.5412 63.2035 33.8565C62.7944 34.1719 62.5067 34.5085 62.3406 34.8665L60.9087 34.3551C61.1644 33.7585 61.5053 33.294 61.9315 32.9616C62.3619 32.625 62.8306 32.3906 63.3377 32.2585C63.8491 32.1222 64.3519 32.054 64.8462 32.054C65.1616 32.054 65.5238 32.0923 65.9329 32.169C66.3462 32.2415 66.7447 32.3928 67.1282 32.6229C67.516 32.853 67.8377 33.2003 68.0934 33.6648C68.3491 34.1293 68.4769 34.7514 68.4769 35.5312V42H66.9684V40.6705H66.8917C66.7894 40.8835 66.619 41.1115 66.3803 41.3544C66.1417 41.5973 65.8242 41.804 65.4279 41.9744C65.0316 42.1449 64.5479 42.2301 63.9769 42.2301ZM64.207 40.875C64.8036 40.875 65.3065 40.7578 65.7156 40.5234C66.1289 40.2891 66.44 39.9865 66.6488 39.6158C66.8619 39.245 66.9684 38.8551 66.9684 38.446V37.0653C66.9045 37.142 66.7638 37.2124 66.5465 37.2763C66.3335 37.3359 66.0863 37.3892 65.805 37.4361C65.5281 37.4787 65.2575 37.517 64.9933 37.5511C64.7333 37.581 64.5224 37.6065 64.3604 37.6278C63.9684 37.679 63.6019 37.7621 63.261 37.8771C62.9244 37.9879 62.6516 38.1562 62.4428 38.3821C62.2383 38.6037 62.136 38.9062 62.136 39.2898C62.136 39.8139 62.3299 40.2102 62.7177 40.4787C63.1097 40.7429 63.6062 40.875 64.207 40.875ZM64.2582 30.8523L65.8178 27.8864H67.582L65.5877 30.8523H64.2582ZM75.2189 42.2045C74.3326 42.2045 73.5549 41.9936 72.8858 41.5717C72.2211 41.1499 71.7012 40.5597 71.3262 39.8011C70.9554 39.0426 70.7701 38.1562 70.7701 37.142C70.7701 36.1193 70.9554 35.2266 71.3262 34.4638C71.7012 33.701 72.2211 33.1087 72.8858 32.6868C73.5549 32.2649 74.3326 32.054 75.2189 32.054C76.1053 32.054 76.8809 32.2649 77.5456 32.6868C78.2147 33.1087 78.7346 33.701 79.1053 34.4638C79.4803 35.2266 79.6678 36.1193 79.6678 37.142C79.6678 38.1562 79.4803 39.0426 79.1053 39.8011C78.7346 40.5597 78.2147 41.1499 77.5456 41.5717C76.8809 41.9936 76.1053 42.2045 75.2189 42.2045ZM75.2189 40.8494C75.8922 40.8494 76.4462 40.6768 76.8809 40.3317C77.3155 39.9865 77.6373 39.5327 77.8461 38.9702C78.0549 38.4077 78.1593 37.7983 78.1593 37.142C78.1593 36.4858 78.0549 35.8743 77.8461 35.3075C77.6373 34.7408 77.3155 34.2827 76.8809 33.9332C76.4462 33.5838 75.8922 33.4091 75.2189 33.4091C74.5456 33.4091 73.9917 33.5838 73.557 33.9332C73.1223 34.2827 72.8006 34.7408 72.5918 35.3075C72.383 35.8743 72.2786 36.4858 72.2786 37.142C72.2786 37.7983 72.383 38.4077 72.5918 38.9702C72.8006 39.5327 73.1223 39.9865 73.557 40.3317C73.9917 40.6768 74.5456 40.8494 75.2189 40.8494ZM91.0217 42.2045C90.1012 42.2045 89.3086 41.9872 88.6438 41.5526C87.979 41.1179 87.4677 40.5192 87.1097 39.7564C86.7518 38.9936 86.5728 38.1222 86.5728 37.142C86.5728 36.1449 86.756 35.2649 87.1225 34.5021C87.4933 33.7351 88.0089 33.1364 88.6694 32.706C89.3342 32.2713 90.1097 32.054 90.9961 32.054C91.6864 32.054 92.3086 32.1818 92.8626 32.4375C93.4165 32.6932 93.8704 33.0511 94.2241 33.5114C94.5778 33.9716 94.7972 34.5085 94.8825 35.1222H93.3739C93.2589 34.6747 93.0032 34.2784 92.6069 33.9332C92.2148 33.5838 91.6864 33.4091 91.0217 33.4091C90.4336 33.4091 89.918 33.5625 89.4748 33.8693C89.0359 34.1719 88.6928 34.6001 88.4457 35.1541C88.2028 35.7038 88.0813 36.3494 88.0813 37.0909C88.0813 37.8494 88.2006 38.5099 88.4393 39.0724C88.6822 39.6349 89.0231 40.0717 89.462 40.3828C89.9052 40.6939 90.4251 40.8494 91.0217 40.8494C91.4137 40.8494 91.7695 40.7812 92.0891 40.6449C92.4087 40.5085 92.6793 40.3125 92.9009 40.0568C93.1225 39.8011 93.2802 39.4943 93.3739 39.1364H94.8825C94.7972 39.7159 94.5863 40.2379 94.2496 40.7024C93.9173 41.1626 93.4762 41.5291 92.9265 41.8018C92.381 42.0703 91.7461 42.2045 91.0217 42.2045ZM99.9769 42.2301C99.3548 42.2301 98.7901 42.1129 98.283 41.8786C97.7759 41.6399 97.3732 41.2969 97.0749 40.8494C96.7766 40.3977 96.6275 39.8523 96.6275 39.2131C96.6275 38.6506 96.7383 38.1946 96.9599 37.8452C97.1815 37.4915 97.4776 37.2145 97.8484 37.0142C98.2191 36.8139 98.6282 36.6648 99.0756 36.5668C99.5273 36.4645 99.9812 36.3835 100.437 36.3239C101.034 36.2472 101.517 36.1896 101.888 36.1513C102.263 36.1087 102.536 36.0384 102.706 35.9403C102.881 35.8423 102.968 35.6719 102.968 35.429V35.3778C102.968 34.7472 102.796 34.2571 102.451 33.9077C102.11 33.5582 101.592 33.3835 100.897 33.3835C100.177 33.3835 99.6126 33.5412 99.2035 33.8565C98.7944 34.1719 98.5067 34.5085 98.3406 34.8665L96.9087 34.3551C97.1644 33.7585 97.5053 33.294 97.9315 32.9616C98.3619 32.625 98.8306 32.3906 99.3377 32.2585C99.8491 32.1222 100.352 32.054 100.846 32.054C101.162 32.054 101.524 32.0923 101.933 32.169C102.346 32.2415 102.745 32.3928 103.128 32.6229C103.516 32.853 103.838 33.2003 104.093 33.6648C104.349 34.1293 104.477 34.7514 104.477 35.5312V42H102.968V40.6705H102.892C102.789 40.8835 102.619 41.1115 102.38 41.3544C102.142 41.5973 101.824 41.804 101.428 41.9744C101.032 42.1449 100.548 42.2301 99.9769 42.2301ZM100.207 40.875C100.804 40.875 101.306 40.7578 101.716 40.5234C102.129 40.2891 102.44 39.9865 102.649 39.6158C102.862 39.245 102.968 38.8551 102.968 38.446V37.0653C102.904 37.142 102.764 37.2124 102.547 37.2763C102.333 37.3359 102.086 37.3892 101.805 37.4361C101.528 37.4787 101.257 37.517 100.993 37.5511C100.733 37.581 100.522 37.6065 100.36 37.6278C99.9684 37.679 99.6019 37.7621 99.261 37.8771C98.9244 37.9879 98.6516 38.1562 98.4428 38.3821C98.2383 38.6037 98.136 38.9062 98.136 39.2898C98.136 39.8139 98.3299 40.2102 98.7177 40.4787C99.1097 40.7429 99.6062 40.875 100.207 40.875ZM100.258 30.8523L101.818 27.8864H103.582L101.588 30.8523H100.258ZM111.219 42.2045C110.333 42.2045 109.555 41.9936 108.886 41.5717C108.221 41.1499 107.701 40.5597 107.326 39.8011C106.955 39.0426 106.77 38.1562 106.77 37.142C106.77 36.1193 106.955 35.2266 107.326 34.4638C107.701 33.701 108.221 33.1087 108.886 32.6868C109.555 32.2649 110.333 32.054 111.219 32.054C112.105 32.054 112.881 32.2649 113.546 32.6868C114.215 33.1087 114.735 33.701 115.105 34.4638C115.48 35.2266 115.668 36.1193 115.668 37.142C115.668 38.1562 115.48 39.0426 115.105 39.8011C114.735 40.5597 114.215 41.1499 113.546 41.5717C112.881 41.9936 112.105 42.2045 111.219 42.2045ZM111.219 40.8494C111.892 40.8494 112.446 40.6768 112.881 40.3317C113.316 39.9865 113.637 39.5327 113.846 38.9702C114.055 38.4077 114.159 37.7983 114.159 37.142C114.159 36.4858 114.055 35.8743 113.846 35.3075C113.637 34.7408 113.316 34.2827 112.881 33.9332C112.446 33.5838 111.892 33.4091 111.219 33.4091C110.546 33.4091 109.992 33.5838 109.557 33.9332C109.122 34.2827 108.801 34.7408 108.592 35.3075C108.383 35.8743 108.279 36.4858 108.279 37.142C108.279 37.7983 108.383 38.4077 108.592 38.9702C108.801 39.5327 109.122 39.9865 109.557 40.3317C109.992 40.6768 110.546 40.8494 111.219 40.8494ZM127.303 32.1818V33.4602H122.215V32.1818H127.303ZM123.698 29.8295H125.206V39.1875C125.206 39.6136 125.268 39.9332 125.392 40.1463C125.52 40.3551 125.681 40.4957 125.877 40.5682C126.078 40.6364 126.289 40.6705 126.51 40.6705C126.676 40.6705 126.813 40.6619 126.919 40.6449C127.026 40.6236 127.111 40.6065 127.175 40.5938L127.482 41.9489C127.38 41.9872 127.237 42.0256 127.054 42.0639C126.87 42.1065 126.638 42.1278 126.357 42.1278C125.931 42.1278 125.513 42.0362 125.104 41.853C124.699 41.6697 124.363 41.3906 124.094 41.0156C123.83 40.6406 123.698 40.1676 123.698 39.5966V29.8295ZM132.461 42.2301C131.839 42.2301 131.275 42.1129 130.767 41.8786C130.26 41.6399 129.858 41.2969 129.559 40.8494C129.261 40.3977 129.112 39.8523 129.112 39.2131C129.112 38.6506 129.223 38.1946 129.444 37.8452C129.666 37.4915 129.962 37.2145 130.333 37.0142C130.703 36.8139 131.113 36.6648 131.56 36.5668C132.012 36.4645 132.466 36.3835 132.922 36.3239C133.518 36.2472 134.002 36.1896 134.373 36.1513C134.748 36.1087 135.02 36.0384 135.191 35.9403C135.365 35.8423 135.453 35.6719 135.453 35.429V35.3778C135.453 34.7472 135.28 34.2571 134.935 33.9077C134.594 33.5582 134.076 33.3835 133.382 33.3835C132.662 33.3835 132.097 33.5412 131.688 33.8565C131.279 34.1719 130.991 34.5085 130.825 34.8665L129.393 34.3551C129.649 33.7585 129.99 33.294 130.416 32.9616C130.846 32.625 131.315 32.3906 131.822 32.2585C132.333 32.1222 132.836 32.054 133.331 32.054C133.646 32.054 134.008 32.0923 134.417 32.169C134.831 32.2415 135.229 32.3928 135.613 32.6229C136 32.853 136.322 33.2003 136.578 33.6648C136.833 34.1293 136.961 34.7514 136.961 35.5312V42H135.453V40.6705H135.376C135.274 40.8835 135.103 41.1115 134.865 41.3544C134.626 41.5973 134.309 41.804 133.912 41.9744C133.516 42.1449 133.032 42.2301 132.461 42.2301ZM132.691 40.875C133.288 40.875 133.791 40.7578 134.2 40.5234C134.613 40.2891 134.924 39.9865 135.133 39.6158C135.346 39.245 135.453 38.8551 135.453 38.446V37.0653C135.389 37.142 135.248 37.2124 135.031 37.2763C134.818 37.3359 134.571 37.3892 134.289 37.4361C134.012 37.4787 133.742 37.517 133.478 37.5511C133.218 37.581 133.007 37.6065 132.845 37.6278C132.453 37.679 132.086 37.7621 131.745 37.8771C131.409 37.9879 131.136 38.1562 130.927 38.3821C130.723 38.6037 130.62 38.9062 130.62 39.2898C130.62 39.8139 130.814 40.2102 131.202 40.4787C131.594 40.7429 132.091 40.875 132.691 40.875ZM132.794 30.8523L130.799 27.8864H132.564L134.123 30.8523H132.794ZM139.715 42V32.1818H141.223V42H139.715ZM140.482 30.5455C140.188 30.5455 139.934 30.4453 139.721 30.245C139.512 30.0447 139.408 29.804 139.408 29.5227C139.408 29.2415 139.512 29.0007 139.721 28.8004C139.934 28.6001 140.188 28.5 140.482 28.5C140.776 28.5 141.027 28.6001 141.236 28.8004C141.449 29.0007 141.556 29.2415 141.556 29.5227C141.556 29.804 141.449 30.0447 141.236 30.245C141.027 30.4453 140.776 30.5455 140.482 30.5455ZM153.037 42.2045C152.117 42.2045 151.324 41.9872 150.659 41.5526C149.995 41.1179 149.483 40.5192 149.125 39.7564C148.767 38.9936 148.588 38.1222 148.588 37.142C148.588 36.1449 148.772 35.2649 149.138 34.5021C149.509 33.7351 150.025 33.1364 150.685 32.706C151.35 32.2713 152.125 32.054 153.012 32.054C153.702 32.054 154.324 32.1818 154.878 32.4375C155.432 32.6932 155.886 33.0511 156.24 33.5114C156.593 33.9716 156.813 34.5085 156.898 35.1222H155.39C155.275 34.6747 155.019 34.2784 154.623 33.9332C154.23 33.5838 153.702 33.4091 153.037 33.4091C152.449 33.4091 151.934 33.5625 151.49 33.8693C151.051 34.1719 150.708 34.6001 150.461 35.1541C150.218 35.7038 150.097 36.3494 150.097 37.0909C150.097 37.8494 150.216 38.5099 150.455 39.0724C150.698 39.6349 151.039 40.0717 151.478 40.3828C151.921 40.6939 152.441 40.8494 153.037 40.8494C153.429 40.8494 153.785 40.7812 154.105 40.6449C154.424 40.5085 154.695 40.3125 154.917 40.0568C155.138 39.8011 155.296 39.4943 155.39 39.1364H156.898C156.813 39.7159 156.602 40.2379 156.265 40.7024C155.933 41.1626 155.492 41.5291 154.942 41.8018C154.397 42.0703 153.762 42.2045 153.037 42.2045ZM160.612 36.0938V42H159.103V28.9091H160.612V33.7159H160.74C160.97 33.2088 161.315 32.8061 161.775 32.5078C162.24 32.2053 162.858 32.054 163.629 32.054C164.298 32.054 164.884 32.1882 165.387 32.4567C165.89 32.7209 166.279 33.1278 166.556 33.6776C166.838 34.223 166.978 34.9176 166.978 35.7614V42H165.47V35.8636C165.47 35.0838 165.267 34.4808 164.863 34.0547C164.462 33.6243 163.906 33.4091 163.194 33.4091C162.7 33.4091 162.257 33.5135 161.865 33.7223C161.477 33.9311 161.17 34.2358 160.944 34.6364C160.723 35.0369 160.612 35.5227 160.612 36.0938ZM169.738 42V32.1818H171.247V42H169.738ZM169.815 30.8523L171.374 27.8864H173.139L171.144 30.8523H169.815ZM175.518 36.0938V42H174.01V32.1818H175.467V33.7159H175.595C175.825 33.2173 176.174 32.8168 176.643 32.5142C177.112 32.2074 177.717 32.054 178.458 32.054C179.123 32.054 179.705 32.1903 180.203 32.4631C180.702 32.7315 181.09 33.1406 181.367 33.6903C181.644 34.2358 181.782 34.9261 181.782 35.7614V42H180.274V35.8636C180.274 35.0923 180.074 34.4915 179.673 34.0611C179.272 33.6264 178.723 33.4091 178.024 33.4091C177.542 33.4091 177.112 33.5135 176.733 33.7223C176.358 33.9311 176.061 34.2358 175.844 34.6364C175.627 35.0369 175.518 35.5227 175.518 36.0938ZM186.047 36.0938V42H184.539V28.9091H186.047V33.7159H186.175C186.405 33.2088 186.751 32.8061 187.211 32.5078C187.675 32.2053 188.293 32.054 189.064 32.054C189.733 32.054 190.319 32.1882 190.822 32.4567C191.325 32.7209 191.715 33.1278 191.992 33.6776C192.273 34.223 192.414 34.9176 192.414 35.7614V42H190.905V35.8636C190.905 35.0838 190.703 34.4808 190.298 34.0547C189.898 33.6243 189.341 33.4091 188.63 33.4091C188.135 33.4091 187.692 33.5135 187.3 33.7223C186.912 33.9311 186.606 34.2358 186.38 34.6364C186.158 35.0369 186.047 35.5227 186.047 36.0938ZM202.026 28.9091V42H200.441V28.9091H202.026ZM205.204 28.9091H207.096L211.545 39.7756H211.699L216.148 28.9091H218.04V42H216.557V32.054H216.429L212.338 42H210.906L206.815 32.054H206.687V42H205.204V28.9091ZM221.218 42V28.9091H229.119V30.3153H222.803V34.7386H228.71V36.1449H222.803V40.5938H229.221V42H221.218ZM232.743 28.9091L236.118 34.3551H236.22L239.595 28.9091H241.462L237.345 35.4545L241.462 42H239.595L236.22 36.6562H236.118L232.743 42H230.876L235.095 35.4545L230.876 28.9091H232.743ZM243.525 42V28.9091H247.948C248.975 28.9091 249.814 29.0945 250.466 29.4652C251.123 29.8317 251.608 30.3281 251.924 30.9545C252.239 31.581 252.397 32.2798 252.397 33.0511C252.397 33.8224 252.239 34.5234 251.924 35.1541C251.613 35.7848 251.131 36.2876 250.479 36.6626C249.827 37.0334 248.992 37.2188 247.974 37.2188H244.803V35.8125H247.922C248.626 35.8125 249.19 35.6911 249.616 35.4482C250.042 35.2053 250.351 34.8771 250.543 34.4638C250.739 34.0462 250.837 33.5753 250.837 33.0511C250.837 32.527 250.739 32.0582 250.543 31.6449C250.351 31.2315 250.04 30.9077 249.61 30.6733C249.18 30.4347 248.608 30.3153 247.897 30.3153H245.11V42H243.525ZM254.95 42V28.9091H256.536V34.7386H263.516V28.9091H265.101V42H263.516V36.1449H256.536V42H254.95ZM268.812 42H267.15L271.956 28.9091H273.593L278.4 42H276.738L272.826 30.9801H272.724L268.812 42ZM269.425 36.8864H276.124V38.2926H269.425V36.8864ZM280.439 42V28.9091H284.862C285.885 28.9091 286.724 29.0838 287.381 29.4332C288.037 29.7784 288.523 30.2536 288.838 30.8587C289.153 31.4638 289.311 32.152 289.311 32.9233C289.311 33.6946 289.153 34.3786 288.838 34.9751C288.523 35.5717 288.039 36.0405 287.387 36.3814C286.735 36.718 285.902 36.8864 284.888 36.8864H281.308V35.4545H284.836C285.535 35.4545 286.098 35.3523 286.524 35.1477C286.954 34.9432 287.265 34.6534 287.457 34.2784C287.653 33.8991 287.751 33.4474 287.751 32.9233C287.751 32.3991 287.653 31.9411 287.457 31.549C287.261 31.157 286.948 30.8544 286.518 30.6413C286.087 30.424 285.518 30.3153 284.811 30.3153H282.024V42H280.439ZM286.601 36.1193L289.822 42H287.981L284.811 36.1193H286.601ZM291.952 28.9091H293.844L298.293 39.7756H298.447L302.896 28.9091H304.788V42H303.305V32.054H303.177L299.086 42H297.654L293.563 32.054H293.435V42H291.952V28.9091ZM318.449 34.7514V36.1577H312.722V34.7514H318.449ZM326.14 42V40.8494L330.461 36.1193C330.968 35.5653 331.386 35.0838 331.714 34.6747C332.042 34.2614 332.285 33.8736 332.443 33.5114C332.605 33.1449 332.686 32.7614 332.686 32.3608C332.686 31.9006 332.575 31.5021 332.353 31.1655C332.136 30.8288 331.838 30.5689 331.458 30.3857C331.079 30.2024 330.653 30.1108 330.18 30.1108C329.677 30.1108 329.238 30.2152 328.863 30.424C328.493 30.6286 328.205 30.9162 328 31.2869C327.8 31.6577 327.7 32.0923 327.7 32.5909H326.191C326.191 31.8239 326.368 31.1506 326.722 30.571C327.076 29.9915 327.557 29.5398 328.167 29.2159C328.78 28.892 329.468 28.7301 330.231 28.7301C330.998 28.7301 331.678 28.892 332.27 29.2159C332.863 29.5398 333.327 29.9766 333.664 30.5263C334 31.076 334.169 31.6875 334.169 32.3608C334.169 32.8423 334.081 33.3132 333.907 33.7734C333.736 34.2294 333.438 34.7386 333.012 35.3011C332.59 35.8594 332.004 36.5412 331.254 37.3466L328.314 40.4915V40.5938H334.399V42H326.14ZM341.309 42.179C340.346 42.179 339.525 41.9169 338.848 41.3928C338.17 40.8643 337.652 40.0994 337.294 39.098C336.936 38.0923 336.757 36.8778 336.757 35.4545C336.757 34.0398 336.936 32.8317 337.294 31.8303C337.657 30.8246 338.176 30.0575 338.854 29.5291C339.536 28.9964 340.354 28.7301 341.309 28.7301C342.263 28.7301 343.079 28.9964 343.757 29.5291C344.439 30.0575 344.958 30.8246 345.316 31.8303C345.679 32.8317 345.86 34.0398 345.86 35.4545C345.86 36.8778 345.681 38.0923 345.323 39.098C344.965 40.0994 344.447 40.8643 343.77 41.3928C343.092 41.9169 342.272 42.179 341.309 42.179ZM341.309 40.7727C342.263 40.7727 343.005 40.3125 343.533 39.392C344.061 38.4716 344.326 37.1591 344.326 35.4545C344.326 34.321 344.204 33.3558 343.961 32.5589C343.723 31.7621 343.377 31.1548 342.926 30.7372C342.478 30.3196 341.939 30.1108 341.309 30.1108C340.363 30.1108 339.623 30.5774 339.091 31.5107C338.558 32.4396 338.292 33.7543 338.292 35.4545C338.292 36.5881 338.411 37.5511 338.65 38.3438C338.888 39.1364 339.231 39.7393 339.679 40.1527C340.13 40.5661 340.674 40.7727 341.309 40.7727ZM348.289 42V40.8494L352.61 36.1193C353.117 35.5653 353.534 35.0838 353.863 34.6747C354.191 34.2614 354.434 33.8736 354.591 33.5114C354.753 33.1449 354.834 32.7614 354.834 32.3608C354.834 31.9006 354.723 31.5021 354.502 31.1655C354.284 30.8288 353.986 30.5689 353.607 30.3857C353.228 30.2024 352.801 30.1108 352.328 30.1108C351.826 30.1108 351.387 30.2152 351.012 30.424C350.641 30.6286 350.353 30.9162 350.149 31.2869C349.949 31.6577 349.848 32.0923 349.848 32.5909H348.34C348.34 31.8239 348.517 31.1506 348.87 30.571C349.224 29.9915 349.706 29.5398 350.315 29.2159C350.929 28.892 351.617 28.7301 352.38 28.7301C353.147 28.7301 353.826 28.892 354.419 29.2159C355.011 29.5398 355.475 29.9766 355.812 30.5263C356.149 31.076 356.317 31.6875 356.317 32.3608C356.317 32.8423 356.23 33.3132 356.055 33.7734C355.885 34.2294 355.586 34.7386 355.16 35.3011C354.738 35.8594 354.152 36.5412 353.402 37.3466L350.462 40.4915V40.5938H356.547V42H348.289ZM363.61 42.179C362.767 42.179 362.015 42.0341 361.354 41.7443C360.698 41.4545 360.176 41.0518 359.788 40.5362C359.404 40.0163 359.196 39.4134 359.162 38.7273H360.772C360.806 39.1491 360.951 39.5135 361.207 39.8203C361.463 40.1229 361.797 40.3572 362.211 40.5234C362.624 40.6896 363.082 40.7727 363.585 40.7727C364.147 40.7727 364.646 40.6747 365.081 40.4787C365.515 40.2827 365.856 40.0099 366.103 39.6605C366.35 39.3111 366.474 38.9062 366.474 38.446C366.474 37.9645 366.355 37.5405 366.116 37.174C365.877 36.8033 365.528 36.5135 365.068 36.3047C364.608 36.0959 364.045 35.9915 363.38 35.9915H362.332V34.5852H363.38C363.9 34.5852 364.356 34.4915 364.748 34.304C365.145 34.1165 365.453 33.8523 365.675 33.5114C365.901 33.1705 366.014 32.7699 366.014 32.3097C366.014 31.8665 365.916 31.4808 365.72 31.1527C365.524 30.8246 365.247 30.5689 364.889 30.3857C364.535 30.2024 364.118 30.1108 363.636 30.1108C363.184 30.1108 362.758 30.1939 362.358 30.3601C361.961 30.522 361.637 30.7585 361.386 31.0696C361.135 31.3764 360.998 31.7472 360.977 32.1818H359.443C359.468 31.4957 359.675 30.8949 360.063 30.3793C360.451 29.8594 360.958 29.4545 361.584 29.1648C362.215 28.875 362.907 28.7301 363.662 28.7301C364.471 28.7301 365.166 28.8942 365.745 29.2223C366.325 29.5462 366.77 29.9744 367.081 30.5071C367.392 31.0398 367.548 31.6151 367.548 32.233C367.548 32.9702 367.354 33.5987 366.966 34.1186C366.583 34.6385 366.061 34.9986 365.4 35.1989V35.3011C366.227 35.4375 366.873 35.7891 367.337 36.3558C367.801 36.9183 368.034 37.6151 368.034 38.446C368.034 39.1577 367.84 39.7969 367.452 40.3636C367.069 40.9261 366.544 41.3693 365.88 41.6932C365.215 42.017 364.458 42.179 363.61 42.179Z" fill="#24408E"/>
<path d="M50 64.1818C50.2273 62.8182 50.6117 61.5303 51.1534 60.3182C51.6989 59.1061 52.3826 57.9697 53.2045 56.9091H54.125C53.7765 57.3523 53.4394 57.858 53.1136 58.4261C52.7917 58.9905 52.4943 59.5928 52.2216 60.233C51.9527 60.8731 51.7159 61.5284 51.5114 62.1989C51.3106 62.8655 51.1553 63.5265 51.0455 64.1818C50.9015 65.0568 50.8352 65.9394 50.8466 66.8295C50.858 67.7197 50.9375 68.5644 51.0852 69.3636C51.2367 70.1629 51.447 70.8598 51.7159 71.4545H50.7955C50.3295 70.3902 50.0227 69.2519 49.875 68.0398C49.7311 66.8277 49.7727 65.5417 50 64.1818ZM54.3651 70L56.2969 58.3636H63.0469L62.8878 59.3182H57.2003L56.473 63.6989H61.8026L61.6435 64.6534H56.3139L55.5866 69.0455H61.3878L61.2287 70H54.3651ZM65.5696 64.5455L64.6662 70H63.6548L65.1094 61.2727H66.0923L65.8651 62.642H65.956C66.2287 62.1951 66.6056 61.8371 67.0866 61.5682C67.5715 61.2955 68.134 61.1591 68.7741 61.1591C69.3575 61.1591 69.8499 61.2822 70.2514 61.5284C70.6567 61.7708 70.9446 62.1288 71.1151 62.6023C71.2893 63.0758 71.3196 63.6572 71.206 64.3466L70.2571 70H69.2457L70.1776 64.4091C70.295 63.697 70.1908 63.1326 69.8651 62.7159C69.5431 62.2955 69.045 62.0852 68.3707 62.0852C67.9124 62.0852 67.4863 62.1837 67.0923 62.3807C66.7022 62.5777 66.3726 62.8617 66.1037 63.233C65.8348 63.6004 65.6567 64.0379 65.5696 64.5455ZM75.7045 73.4545C75.1098 73.4545 74.6004 73.3769 74.1761 73.2216C73.7519 73.0701 73.4072 72.8617 73.142 72.5966C72.8807 72.3314 72.6894 72.0341 72.5682 71.7045L73.4886 71.1648C73.572 71.3845 73.6989 71.6004 73.8693 71.8125C74.0398 72.0246 74.2803 72.1989 74.5909 72.3352C74.9015 72.4754 75.3087 72.5455 75.8125 72.5455C76.5814 72.5455 77.2424 72.3504 77.7955 71.9602C78.3485 71.5739 78.6932 70.9754 78.8295 70.1648L79.1364 68.1989H79.0455C78.8902 68.464 78.6818 68.7292 78.4205 68.9943C78.1591 69.2557 77.8352 69.4735 77.4489 69.6477C77.0663 69.822 76.6136 69.9091 76.0909 69.9091C75.3939 69.9091 74.803 69.7367 74.3182 69.392C73.8333 69.0473 73.4905 68.5549 73.2898 67.9148C73.089 67.2708 73.0644 66.5038 73.2159 65.6136C73.3598 64.7311 73.6364 63.9545 74.0455 63.2841C74.4583 62.6136 74.9659 62.0909 75.5682 61.7159C76.1742 61.3409 76.8371 61.1534 77.5568 61.1534C78.0909 61.1534 78.5189 61.2481 78.8409 61.4375C79.1629 61.6231 79.4072 61.8542 79.5739 62.1307C79.7443 62.4072 79.8674 62.6761 79.9432 62.9375H80.0455L80.3182 61.2727H81.3068L79.8295 70.2273C79.7045 70.9659 79.447 71.5739 79.0568 72.0511C78.6667 72.5284 78.1818 72.8807 77.6023 73.108C77.0265 73.339 76.3939 73.4545 75.7045 73.4545ZM76.3182 68.983C76.8788 68.983 77.3826 68.8485 77.8295 68.5795C78.2803 68.3068 78.6572 67.9186 78.9602 67.4148C79.267 66.9072 79.4773 66.3011 79.5909 65.5966C79.7045 64.9148 79.6989 64.3106 79.5739 63.7841C79.4527 63.2538 79.2159 62.8371 78.8636 62.5341C78.5152 62.2273 78.0568 62.0739 77.4886 62.0739C76.9015 62.0739 76.3826 62.2311 75.9318 62.5455C75.4848 62.8598 75.1155 63.2841 74.8239 63.8182C74.536 64.3485 74.3371 64.9413 74.2273 65.5966C74.1212 66.2633 74.125 66.8523 74.2386 67.3636C74.3561 67.8712 74.5871 68.2689 74.9318 68.5568C75.2765 68.8409 75.7386 68.983 76.3182 68.983ZM85.473 58.3636L83.5412 70H82.5298L84.4616 58.3636H85.473ZM86.2287 70L87.6832 61.2727H88.7003L87.2457 70H86.2287ZM88.5582 59.7557C88.3461 59.7557 88.1662 59.6837 88.0185 59.5398C87.8745 59.3958 87.8045 59.2216 87.8082 59.017C87.8158 58.8239 87.8935 58.6572 88.0412 58.517C88.1927 58.3731 88.3707 58.3011 88.5753 58.3011C88.7874 58.3011 88.9673 58.375 89.1151 58.5227C89.2628 58.6667 89.3329 58.8409 89.3253 59.0455C89.3215 59.2386 89.2438 59.4053 89.0923 59.5455C88.9408 59.6856 88.7628 59.7557 88.5582 59.7557ZM96.9205 63.1875L95.9489 63.4375C95.8996 63.1761 95.8087 62.9413 95.6761 62.733C95.5473 62.5208 95.3598 62.3542 95.1136 62.233C94.8712 62.108 94.553 62.0455 94.1591 62.0455C93.5682 62.0455 93.0587 62.1894 92.6307 62.4773C92.2027 62.7614 91.9527 63.125 91.8807 63.5682C91.8201 63.9394 91.8977 64.2405 92.1136 64.4716C92.3333 64.7027 92.7008 64.8845 93.2159 65.017L94.4886 65.3409C95.1932 65.5227 95.6951 65.8068 95.9943 66.1932C96.2973 66.5795 96.4015 67.0682 96.3068 67.6591C96.2235 68.1515 96.0133 68.5871 95.6761 68.9659C95.3428 69.3447 94.9148 69.642 94.392 69.858C93.8731 70.0739 93.2936 70.1818 92.6534 70.1818C91.7936 70.1818 91.1174 69.9886 90.625 69.6023C90.1364 69.2159 89.875 68.6591 89.8409 67.9318L90.858 67.7045C90.8883 68.2197 91.0644 68.6098 91.3864 68.875C91.7121 69.1402 92.1705 69.2727 92.7614 69.2727C93.4356 69.2727 94.0019 69.1193 94.4602 68.8125C94.9186 68.5057 95.1818 68.1269 95.25 67.6761C95.3144 67.3201 95.2481 67.0246 95.0511 66.7898C94.858 66.5549 94.5284 66.3807 94.0625 66.267L92.7045 65.9261C91.9735 65.7405 91.4564 65.4508 91.1534 65.0568C90.8542 64.6591 90.7538 64.1686 90.8523 63.5852C90.9318 63.1042 91.1326 62.6818 91.4545 62.3182C91.7765 61.9545 92.1837 61.6705 92.6761 61.4659C93.1686 61.2576 93.7064 61.1534 94.2898 61.1534C95.0928 61.1534 95.7045 61.3352 96.125 61.6989C96.5455 62.0587 96.8106 62.5549 96.9205 63.1875ZM100.038 64.5455L99.1349 70H98.1236L100.055 58.3636H101.067L100.362 62.642H100.453C100.726 62.1875 101.101 61.8277 101.578 61.5625C102.055 61.2936 102.625 61.1591 103.288 61.1591C103.875 61.1591 104.372 61.2803 104.777 61.5227C105.186 61.7652 105.476 62.1231 105.646 62.5966C105.821 63.0701 105.851 63.6534 105.737 64.3466L104.788 70H103.771L104.703 64.4091C104.821 63.6894 104.714 63.1231 104.385 62.7102C104.059 62.2936 103.559 62.0852 102.885 62.0852C102.423 62.0852 101.991 62.1837 101.589 62.3807C101.192 62.5777 100.855 62.8617 100.578 63.233C100.305 63.6004 100.125 64.0379 100.038 64.5455ZM120.162 61.2727L115.52 70H114.44L112.707 61.2727H113.759L115.122 68.6648H115.196L119.02 61.2727H120.162ZM123.879 70.1818C123.065 70.1818 122.393 69.9924 121.862 69.6136C121.332 69.2311 120.961 68.7027 120.749 68.0284C120.536 67.3504 120.504 66.5701 120.652 65.6875C120.8 64.8087 121.091 64.0284 121.527 63.3466C121.963 62.661 122.5 62.125 123.141 61.7386C123.781 61.3485 124.476 61.1534 125.226 61.1534C125.699 61.1534 126.143 61.2405 126.555 61.4148C126.968 61.5852 127.319 61.8485 127.607 62.2045C127.898 62.5568 128.101 63.0019 128.214 63.5398C128.328 64.0739 128.324 64.7064 128.203 65.4375L128.124 65.9375H121.305L121.447 65.0455H127.237C127.332 64.4848 127.305 63.9811 127.158 63.5341C127.01 63.0871 126.758 62.733 126.402 62.4716C126.05 62.2064 125.612 62.0739 125.089 62.0739C124.555 62.0739 124.05 62.2235 123.572 62.5227C123.099 62.822 122.697 63.2121 122.368 63.6932C122.042 64.1705 121.832 64.6799 121.737 65.2216L121.624 65.892C121.502 66.6307 121.518 67.25 121.669 67.75C121.821 68.2462 122.095 68.6212 122.493 68.875C122.891 69.1288 123.4 69.2557 124.021 69.2557C124.438 69.2557 124.815 69.1913 125.152 69.0625C125.489 68.9337 125.783 68.7614 126.033 68.5455C126.283 68.3258 126.483 68.0852 126.635 67.8239L127.538 68.1364C127.345 68.5038 127.072 68.8428 126.72 69.1534C126.372 69.464 125.957 69.714 125.476 69.9034C124.999 70.089 124.466 70.1818 123.879 70.1818ZM129.67 70L131.125 61.2727H132.108L131.881 62.6136H131.955C132.197 62.1742 132.559 61.8201 133.04 61.5511C133.525 61.2784 134.042 61.142 134.591 61.142C134.674 61.142 134.767 61.1439 134.869 61.1477C134.972 61.1477 135.057 61.1515 135.125 61.1591L134.949 62.1875C134.903 62.1799 134.824 62.1686 134.71 62.1534C134.6 62.1383 134.477 62.1307 134.341 62.1307C133.886 62.1307 133.466 62.2273 133.08 62.4205C132.697 62.6098 132.375 62.8731 132.114 63.2102C131.856 63.5473 131.689 63.9318 131.614 64.3636L130.682 70H129.67ZM142.389 63.1875L141.418 63.4375C141.368 63.1761 141.277 62.9413 141.145 62.733C141.016 62.5208 140.829 62.3542 140.582 62.233C140.34 62.108 140.022 62.0455 139.628 62.0455C139.037 62.0455 138.527 62.1894 138.099 62.4773C137.671 62.7614 137.421 63.125 137.349 63.5682C137.289 63.9394 137.366 64.2405 137.582 64.4716C137.802 64.7027 138.17 64.8845 138.685 65.017L139.957 65.3409C140.662 65.5227 141.164 65.8068 141.463 66.1932C141.766 66.5795 141.87 67.0682 141.776 67.6591C141.692 68.1515 141.482 68.5871 141.145 68.9659C140.812 69.3447 140.384 69.642 139.861 69.858C139.342 70.0739 138.762 70.1818 138.122 70.1818C137.262 70.1818 136.586 69.9886 136.094 69.6023C135.605 69.2159 135.344 68.6591 135.31 67.9318L136.327 67.7045C136.357 68.2197 136.533 68.6098 136.855 68.875C137.181 69.1402 137.639 69.2727 138.23 69.2727C138.904 69.2727 139.471 69.1193 139.929 68.8125C140.387 68.5057 140.651 68.1269 140.719 67.6761C140.783 67.3201 140.717 67.0246 140.52 66.7898C140.327 66.5549 139.997 66.3807 139.531 66.267L138.173 65.9261C137.442 65.7405 136.925 65.4508 136.622 65.0568C136.323 64.6591 136.223 64.1686 136.321 63.5852C136.401 63.1042 136.601 62.6818 136.923 62.3182C137.245 61.9545 137.652 61.6705 138.145 61.4659C138.637 61.2576 139.175 61.1534 139.759 61.1534C140.562 61.1534 141.173 61.3352 141.594 61.6989C142.014 62.0587 142.279 62.5549 142.389 63.1875ZM143.604 70L145.058 61.2727H146.075L144.621 70H143.604ZM145.933 59.7557C145.721 59.7557 145.541 59.6837 145.393 59.5398C145.25 59.3958 145.179 59.2216 145.183 59.017C145.191 58.8239 145.268 58.6572 145.416 58.517C145.568 58.3731 145.746 58.3011 145.95 58.3011C146.162 58.3011 146.342 58.375 146.49 58.5227C146.638 58.6667 146.708 58.8409 146.7 59.0455C146.696 59.2386 146.619 59.4053 146.467 59.5455C146.316 59.6856 146.138 59.7557 145.933 59.7557ZM150.727 70.1818C149.962 70.1818 149.318 69.9886 148.795 69.6023C148.273 69.2121 147.903 68.6723 147.688 67.983C147.472 67.2936 147.436 66.4981 147.58 65.5966C147.723 64.7178 148.009 63.9451 148.438 63.2784C148.869 62.608 149.4 62.0871 150.028 61.7159C150.657 61.3409 151.341 61.1534 152.08 61.1534C152.848 61.1534 153.492 61.3485 154.011 61.7386C154.534 62.1288 154.903 62.6686 155.119 63.358C155.339 64.0473 155.377 64.8447 155.233 65.75C155.089 66.625 154.801 67.3958 154.369 68.0625C153.938 68.7254 153.407 69.2443 152.778 69.6193C152.153 69.9943 151.47 70.1818 150.727 70.1818ZM150.739 69.2557C151.36 69.2557 151.913 69.0909 152.398 68.7614C152.886 68.428 153.29 67.9848 153.608 67.4318C153.926 66.875 154.14 66.2633 154.25 65.5966C154.352 64.9602 154.341 64.375 154.216 63.8409C154.091 63.3068 153.85 62.8788 153.494 62.5568C153.138 62.2348 152.665 62.0739 152.074 62.0739C151.456 62.0739 150.903 62.2424 150.415 62.5795C149.926 62.9129 149.523 63.3598 149.205 63.9205C148.886 64.4773 148.674 65.0871 148.568 65.75C148.462 66.3902 148.47 66.9754 148.591 67.5057C148.716 68.036 148.956 68.4602 149.312 68.7784C149.672 69.0966 150.148 69.2557 150.739 69.2557ZM158.663 64.5455L157.76 70H156.749L158.203 61.2727H159.186L158.959 62.642H159.05C159.322 62.1951 159.699 61.8371 160.18 61.5682C160.665 61.2955 161.228 61.1591 161.868 61.1591C162.451 61.1591 162.944 61.2822 163.345 61.5284C163.75 61.7708 164.038 62.1288 164.209 62.6023C164.383 63.0758 164.413 63.6572 164.3 64.3466L163.351 70H162.339L163.271 64.4091C163.389 63.697 163.285 63.1326 162.959 62.7159C162.637 62.2955 162.139 62.0852 161.464 62.0852C161.006 62.0852 160.58 62.1837 160.186 62.3807C159.796 62.5777 159.466 62.8617 159.197 63.233C158.929 63.6004 158.75 64.0379 158.663 64.5455ZM169.287 65.0909C169.06 66.4545 168.673 67.7424 168.128 68.9545C167.586 70.1667 166.904 71.303 166.082 72.3636H165.162C165.514 71.9167 165.851 71.411 166.173 70.8466C166.495 70.2822 166.791 69.6799 167.06 69.0398C167.332 68.3996 167.569 67.7443 167.77 67.0739C167.974 66.4034 168.132 65.7424 168.241 65.0909C168.385 64.2159 168.452 63.3333 168.44 62.4432C168.429 61.553 168.348 60.7083 168.196 59.9091C168.048 59.1098 167.84 58.4129 167.571 57.8182H168.491C168.957 58.8826 169.262 60.0208 169.406 61.233C169.554 62.4451 169.514 63.7311 169.287 65.0909Z" fill="black"/>
</svg>
