<svg width="100%" viewBox="0 0 351 139" fill="none" xmlns="http://www.w3.org/2000/svg">
<rect x="0.5" y="0.5" width="350" height="138" rx="13.5" fill="#24CBFF" fill-opacity="0.2"/>
<rect x="0.5" y="0.5" width="350" height="138" rx="13.5" stroke="#24CBFF"/>
<path d="M17.4091 39V27.3636H21.4773C22.2879 27.3636 22.9564 27.5038 23.483 27.7841C24.0095 28.0606 24.4015 28.4337 24.6591 28.9034C24.9167 29.3693 25.0455 29.8864 25.0455 30.4545C25.0455 30.9545 24.9564 31.3674 24.7784 31.6932C24.6042 32.0189 24.3731 32.2765 24.0852 32.4659C23.8011 32.6553 23.4924 32.7955 23.1591 32.8864V33C23.5152 33.0227 23.8731 33.1477 24.233 33.375C24.5928 33.6023 24.8939 33.928 25.1364 34.3523C25.3788 34.7765 25.5 35.2955 25.5 35.9091C25.5 36.4924 25.3674 37.017 25.1023 37.483C24.8371 37.9489 24.4186 38.3182 23.8466 38.5909C23.2746 38.8636 22.5303 39 21.6136 39H17.4091ZM18.8182 37.75H21.6136C22.5341 37.75 23.1875 37.572 23.5739 37.2159C23.964 36.8561 24.1591 36.4205 24.1591 35.9091C24.1591 35.5152 24.0587 35.1515 23.858 34.8182C23.6572 34.4811 23.3712 34.2121 23 34.0114C22.6288 33.8068 22.1894 33.7045 21.6818 33.7045H18.8182V37.75ZM18.8182 32.4773H21.4318C21.8561 32.4773 22.2386 32.3939 22.5795 32.2273C22.9242 32.0606 23.197 31.8258 23.3977 31.5227C23.6023 31.2197 23.7045 30.8636 23.7045 30.4545C23.7045 29.9432 23.5265 29.5095 23.1705 29.1534C22.8144 28.7936 22.25 28.6136 21.4773 28.6136H18.8182V32.4773ZM30.2017 39.2045C29.6487 39.2045 29.1468 39.1004 28.696 38.892C28.2453 38.6799 27.8873 38.375 27.6222 37.9773C27.357 37.5758 27.2244 37.0909 27.2244 36.5227C27.2244 36.0227 27.3229 35.6174 27.5199 35.3068C27.7169 34.9924 27.9801 34.7462 28.3097 34.5682C28.6392 34.3902 29.0028 34.2576 29.4006 34.1705C29.8021 34.0795 30.2055 34.0076 30.6108 33.9545C31.1411 33.8864 31.571 33.8352 31.9006 33.8011C32.2339 33.7633 32.4763 33.7008 32.6278 33.6136C32.7831 33.5265 32.8608 33.375 32.8608 33.1591V33.1136C32.8608 32.553 32.7074 32.1174 32.4006 31.8068C32.0975 31.4962 31.6373 31.3409 31.0199 31.3409C30.3797 31.3409 29.8778 31.4811 29.5142 31.7614C29.1506 32.0417 28.8949 32.3409 28.7472 32.6591L27.4744 32.2045C27.7017 31.6742 28.0047 31.2614 28.3835 30.9659C28.7661 30.6667 29.1828 30.4583 29.6335 30.3409C30.0881 30.2197 30.535 30.1591 30.9744 30.1591C31.2547 30.1591 31.5767 30.1932 31.9403 30.2614C32.3078 30.3258 32.6619 30.4602 33.0028 30.6648C33.3475 30.8693 33.6335 31.178 33.8608 31.5909C34.0881 32.0038 34.2017 32.5568 34.2017 33.25V39H32.8608V37.8182H32.7926C32.7017 38.0076 32.5502 38.2102 32.3381 38.4261C32.1259 38.642 31.8438 38.8258 31.4915 38.9773C31.1392 39.1288 30.7093 39.2045 30.2017 39.2045ZM30.4062 38C30.9366 38 31.3835 37.8958 31.7472 37.6875C32.1146 37.4792 32.3911 37.2102 32.5767 36.8807C32.7661 36.5511 32.8608 36.2045 32.8608 35.8409V34.6136C32.804 34.6818 32.679 34.7443 32.4858 34.8011C32.2964 34.8542 32.0767 34.9015 31.8267 34.9432C31.5805 34.9811 31.34 35.0152 31.1051 35.0455C30.8741 35.072 30.6866 35.0947 30.5426 35.1136C30.1941 35.1591 29.8684 35.233 29.5653 35.3352C29.2661 35.4337 29.0237 35.5833 28.8381 35.7841C28.6563 35.9811 28.5653 36.25 28.5653 36.5909C28.5653 37.0568 28.7377 37.4091 29.0824 37.6477C29.4309 37.8826 29.8722 38 30.4062 38ZM30.4517 29.0909L31.8381 26.4545H33.4062L31.6335 29.0909H30.4517ZM40.1946 39.1818C39.4067 39.1818 38.7154 38.9943 38.1207 38.6193C37.5298 38.2443 37.0677 37.7197 36.7344 37.0455C36.4048 36.3712 36.2401 35.5833 36.2401 34.6818C36.2401 33.7727 36.4048 32.9792 36.7344 32.3011C37.0677 31.6231 37.5298 31.0966 38.1207 30.7216C38.7154 30.3466 39.4067 30.1591 40.1946 30.1591C40.9825 30.1591 41.6719 30.3466 42.2628 30.7216C42.8575 31.0966 43.3196 31.6231 43.6491 32.3011C43.9825 32.9792 44.1491 33.7727 44.1491 34.6818C44.1491 35.5833 43.9825 36.3712 43.6491 37.0455C43.3196 37.7197 42.8575 38.2443 42.2628 38.6193C41.6719 38.9943 40.9825 39.1818 40.1946 39.1818ZM40.1946 37.9773C40.7931 37.9773 41.2855 37.8239 41.6719 37.517C42.0582 37.2102 42.3442 36.8068 42.5298 36.3068C42.7154 35.8068 42.8082 35.2652 42.8082 34.6818C42.8082 34.0985 42.7154 33.5549 42.5298 33.0511C42.3442 32.5473 42.0582 32.1402 41.6719 31.8295C41.2855 31.5189 40.7931 31.3636 40.1946 31.3636C39.5961 31.3636 39.1037 31.5189 38.7173 31.8295C38.331 32.1402 38.045 32.5473 37.8594 33.0511C37.6738 33.5549 37.581 34.0985 37.581 34.6818C37.581 35.2652 37.6738 35.8068 37.8594 36.3068C38.045 36.8068 38.331 37.2102 38.7173 37.517C39.1037 37.8239 39.5961 37.9773 40.1946 37.9773ZM54.2415 39.1818C53.4233 39.1818 52.7188 38.9886 52.1278 38.6023C51.5369 38.2159 51.0824 37.6837 50.7642 37.0057C50.446 36.3277 50.2869 35.553 50.2869 34.6818C50.2869 33.7955 50.4498 33.0133 50.7756 32.3352C51.1051 31.6534 51.5634 31.1212 52.1506 30.7386C52.7415 30.3523 53.4309 30.1591 54.2188 30.1591C54.8324 30.1591 55.3854 30.2727 55.8778 30.5C56.3703 30.7273 56.7737 31.0455 57.0881 31.4545C57.4025 31.8636 57.5975 32.3409 57.6733 32.8864H56.3324C56.2301 32.4886 56.0028 32.1364 55.6506 31.8295C55.3021 31.5189 54.8324 31.3636 54.2415 31.3636C53.7188 31.3636 53.2604 31.5 52.8665 31.7727C52.4763 32.0417 52.1714 32.4223 51.9517 32.9148C51.7358 33.4034 51.6278 33.9773 51.6278 34.6364C51.6278 35.3106 51.7339 35.8977 51.946 36.3977C52.1619 36.8977 52.465 37.286 52.8551 37.5625C53.2491 37.839 53.7112 37.9773 54.2415 37.9773C54.59 37.9773 54.9062 37.9167 55.1903 37.7955C55.4744 37.6742 55.715 37.5 55.9119 37.2727C56.1089 37.0455 56.2491 36.7727 56.3324 36.4545H57.6733C57.5975 36.9697 57.41 37.4337 57.1108 37.8466C56.8153 38.2557 56.4233 38.5814 55.9347 38.8239C55.4498 39.0625 54.8854 39.1818 54.2415 39.1818ZM62.2017 39.2045C61.6487 39.2045 61.1468 39.1004 60.696 38.892C60.2453 38.6799 59.8873 38.375 59.6222 37.9773C59.357 37.5758 59.2244 37.0909 59.2244 36.5227C59.2244 36.0227 59.3229 35.6174 59.5199 35.3068C59.7169 34.9924 59.9801 34.7462 60.3097 34.5682C60.6392 34.3902 61.0028 34.2576 61.4006 34.1705C61.8021 34.0795 62.2055 34.0076 62.6108 33.9545C63.1411 33.8864 63.571 33.8352 63.9006 33.8011C64.2339 33.7633 64.4763 33.7008 64.6278 33.6136C64.7831 33.5265 64.8608 33.375 64.8608 33.1591V33.1136C64.8608 32.553 64.7074 32.1174 64.4006 31.8068C64.0975 31.4962 63.6373 31.3409 63.0199 31.3409C62.3797 31.3409 61.8778 31.4811 61.5142 31.7614C61.1506 32.0417 60.8949 32.3409 60.7472 32.6591L59.4744 32.2045C59.7017 31.6742 60.0047 31.2614 60.3835 30.9659C60.7661 30.6667 61.1828 30.4583 61.6335 30.3409C62.0881 30.2197 62.535 30.1591 62.9744 30.1591C63.2547 30.1591 63.5767 30.1932 63.9403 30.2614C64.3078 30.3258 64.6619 30.4602 65.0028 30.6648C65.3475 30.8693 65.6335 31.178 65.8608 31.5909C66.0881 32.0038 66.2017 32.5568 66.2017 33.25V39H64.8608V37.8182H64.7926C64.7017 38.0076 64.5502 38.2102 64.3381 38.4261C64.1259 38.642 63.8438 38.8258 63.4915 38.9773C63.1392 39.1288 62.7093 39.2045 62.2017 39.2045ZM62.4062 38C62.9366 38 63.3835 37.8958 63.7472 37.6875C64.1146 37.4792 64.3911 37.2102 64.5767 36.8807C64.7661 36.5511 64.8608 36.2045 64.8608 35.8409V34.6136C64.804 34.6818 64.679 34.7443 64.4858 34.8011C64.2964 34.8542 64.0767 34.9015 63.8267 34.9432C63.5805 34.9811 63.34 35.0152 63.1051 35.0455C62.8741 35.072 62.6866 35.0947 62.5426 35.1136C62.1941 35.1591 61.8684 35.233 61.5653 35.3352C61.2661 35.4337 61.0237 35.5833 60.8381 35.7841C60.6563 35.9811 60.5653 36.25 60.5653 36.5909C60.5653 37.0568 60.7377 37.4091 61.0824 37.6477C61.4309 37.8826 61.8722 38 62.4062 38ZM62.4517 29.0909L63.8381 26.4545H65.4062L63.6335 29.0909H62.4517ZM72.1946 39.1818C71.4067 39.1818 70.7154 38.9943 70.1207 38.6193C69.5298 38.2443 69.0677 37.7197 68.7344 37.0455C68.4048 36.3712 68.2401 35.5833 68.2401 34.6818C68.2401 33.7727 68.4048 32.9792 68.7344 32.3011C69.0677 31.6231 69.5298 31.0966 70.1207 30.7216C70.7154 30.3466 71.4067 30.1591 72.1946 30.1591C72.9825 30.1591 73.6719 30.3466 74.2628 30.7216C74.8575 31.0966 75.3196 31.6231 75.6491 32.3011C75.9825 32.9792 76.1491 33.7727 76.1491 34.6818C76.1491 35.5833 75.9825 36.3712 75.6491 37.0455C75.3196 37.7197 74.8575 38.2443 74.2628 38.6193C73.6719 38.9943 72.9825 39.1818 72.1946 39.1818ZM72.1946 37.9773C72.7931 37.9773 73.2855 37.8239 73.6719 37.517C74.0582 37.2102 74.3442 36.8068 74.5298 36.3068C74.7154 35.8068 74.8082 35.2652 74.8082 34.6818C74.8082 34.0985 74.7154 33.5549 74.5298 33.0511C74.3442 32.5473 74.0582 32.1402 73.6719 31.8295C73.2855 31.5189 72.7931 31.3636 72.1946 31.3636C71.5961 31.3636 71.1037 31.5189 70.7173 31.8295C70.331 32.1402 70.045 32.5473 69.8594 33.0511C69.6738 33.5549 69.581 34.0985 69.581 34.6818C69.581 35.2652 69.6738 35.8068 69.8594 36.3068C70.045 36.8068 70.331 37.2102 70.7173 37.517C71.1037 37.8239 71.5961 37.9773 72.1946 37.9773ZM86.4915 30.2727V31.4091H81.9688V30.2727H86.4915ZM83.2869 28.1818H84.6278V36.5C84.6278 36.8788 84.6828 37.1629 84.7926 37.3523C84.9063 37.5379 85.0502 37.6629 85.2244 37.7273C85.4025 37.7879 85.59 37.8182 85.7869 37.8182C85.9347 37.8182 86.0559 37.8106 86.1506 37.7955C86.2453 37.7765 86.321 37.7614 86.3778 37.75L86.6506 38.9545C86.5597 38.9886 86.4328 39.0227 86.2699 39.0568C86.107 39.0947 85.9006 39.1136 85.6506 39.1136C85.2718 39.1136 84.9006 39.0322 84.5369 38.8693C84.1771 38.7064 83.8778 38.4583 83.6392 38.125C83.4044 37.7917 83.2869 37.3712 83.2869 36.8636V28.1818ZM91.0767 39.2045C90.5237 39.2045 90.0218 39.1004 89.571 38.892C89.1203 38.6799 88.7623 38.375 88.4972 37.9773C88.232 37.5758 88.0994 37.0909 88.0994 36.5227C88.0994 36.0227 88.1979 35.6174 88.3949 35.3068C88.5919 34.9924 88.8551 34.7462 89.1847 34.5682C89.5142 34.3902 89.8778 34.2576 90.2756 34.1705C90.6771 34.0795 91.0805 34.0076 91.4858 33.9545C92.0161 33.8864 92.446 33.8352 92.7756 33.8011C93.1089 33.7633 93.3513 33.7008 93.5028 33.6136C93.6581 33.5265 93.7358 33.375 93.7358 33.1591V33.1136C93.7358 32.553 93.5824 32.1174 93.2756 31.8068C92.9725 31.4962 92.5123 31.3409 91.8949 31.3409C91.2547 31.3409 90.7528 31.4811 90.3892 31.7614C90.0256 32.0417 89.7699 32.3409 89.6222 32.6591L88.3494 32.2045C88.5767 31.6742 88.8797 31.2614 89.2585 30.9659C89.6411 30.6667 90.0578 30.4583 90.5085 30.3409C90.9631 30.2197 91.41 30.1591 91.8494 30.1591C92.1297 30.1591 92.4517 30.1932 92.8153 30.2614C93.1828 30.3258 93.5369 30.4602 93.8778 30.6648C94.2225 30.8693 94.5085 31.178 94.7358 31.5909C94.9631 32.0038 95.0767 32.5568 95.0767 33.25V39H93.7358V37.8182H93.6676C93.5767 38.0076 93.4252 38.2102 93.2131 38.4261C93.0009 38.642 92.7188 38.8258 92.3665 38.9773C92.0142 39.1288 91.5843 39.2045 91.0767 39.2045ZM91.2812 38C91.8116 38 92.2585 37.8958 92.6222 37.6875C92.9896 37.4792 93.2661 37.2102 93.4517 36.8807C93.6411 36.5511 93.7358 36.2045 93.7358 35.8409V34.6136C93.679 34.6818 93.554 34.7443 93.3608 34.8011C93.1714 34.8542 92.9517 34.9015 92.7017 34.9432C92.4555 34.9811 92.215 35.0152 91.9801 35.0455C91.7491 35.072 91.5616 35.0947 91.4176 35.1136C91.0691 35.1591 90.7434 35.233 90.4403 35.3352C90.1411 35.4337 89.8987 35.5833 89.7131 35.7841C89.5313 35.9811 89.4403 36.25 89.4403 36.5909C89.4403 37.0568 89.6127 37.4091 89.9574 37.6477C90.3059 37.8826 90.7472 38 91.2812 38ZM91.3722 29.0909L89.5994 26.4545H91.1676L92.554 29.0909H91.3722ZM97.5241 39V30.2727H98.8651V39H97.5241ZM98.206 28.8182C97.9446 28.8182 97.7192 28.7292 97.5298 28.5511C97.3442 28.3731 97.2514 28.1591 97.2514 27.9091C97.2514 27.6591 97.3442 27.4451 97.5298 27.267C97.7192 27.089 97.9446 27 98.206 27C98.4673 27 98.6908 27.089 98.8764 27.267C99.0658 27.4451 99.1605 27.6591 99.1605 27.9091C99.1605 28.1591 99.0658 28.3731 98.8764 28.5511C98.6908 28.7292 98.4673 28.8182 98.206 28.8182ZM109.366 39.1818C108.548 39.1818 107.844 38.9886 107.253 38.6023C106.662 38.2159 106.207 37.6837 105.889 37.0057C105.571 36.3277 105.412 35.553 105.412 34.6818C105.412 33.7955 105.575 33.0133 105.901 32.3352C106.23 31.6534 106.688 31.1212 107.276 30.7386C107.866 30.3523 108.556 30.1591 109.344 30.1591C109.957 30.1591 110.51 30.2727 111.003 30.5C111.495 30.7273 111.899 31.0455 112.213 31.4545C112.527 31.8636 112.723 32.3409 112.798 32.8864H111.457C111.355 32.4886 111.128 32.1364 110.776 31.8295C110.427 31.5189 109.957 31.3636 109.366 31.3636C108.844 31.3636 108.385 31.5 107.991 31.7727C107.601 32.0417 107.296 32.4223 107.077 32.9148C106.861 33.4034 106.753 33.9773 106.753 34.6364C106.753 35.3106 106.859 35.8977 107.071 36.3977C107.287 36.8977 107.59 37.286 107.98 37.5625C108.374 37.839 108.836 37.9773 109.366 37.9773C109.715 37.9773 110.031 37.9167 110.315 37.7955C110.599 37.6742 110.84 37.5 111.037 37.2727C111.234 37.0455 111.374 36.7727 111.457 36.4545H112.798C112.723 36.9697 112.535 37.4337 112.236 37.8466C111.94 38.2557 111.548 38.5814 111.06 38.8239C110.575 39.0625 110.01 39.1818 109.366 39.1818ZM116.099 33.75V39H114.759V27.3636H116.099V31.6364H116.213C116.418 31.1856 116.724 30.8277 117.134 30.5625C117.546 30.2936 118.096 30.1591 118.781 30.1591C119.376 30.1591 119.897 30.2784 120.344 30.517C120.791 30.7519 121.137 31.1136 121.384 31.6023C121.634 32.0871 121.759 32.7045 121.759 33.4545V39H120.418V33.5455C120.418 32.8523 120.238 32.3163 119.878 31.9375C119.522 31.5549 119.027 31.3636 118.395 31.3636C117.955 31.3636 117.562 31.4564 117.213 31.642C116.868 31.8277 116.596 32.0985 116.395 32.4545C116.198 32.8106 116.099 33.2424 116.099 33.75ZM124.212 39V30.2727H125.553V39H124.212ZM124.28 29.0909L125.666 26.4545H127.234L125.462 29.0909H124.28ZM129.349 33.75V39H128.009V30.2727H129.304V31.6364H129.418C129.622 31.1932 129.933 30.8371 130.349 30.5682C130.766 30.2955 131.304 30.1591 131.963 30.1591C132.554 30.1591 133.071 30.2803 133.514 30.5227C133.957 30.7614 134.302 31.125 134.548 31.6136C134.795 32.0985 134.918 32.7121 134.918 33.4545V39H133.577V33.5455C133.577 32.8598 133.399 32.3258 133.043 31.9432C132.687 31.5568 132.198 31.3636 131.577 31.3636C131.149 31.3636 130.766 31.4564 130.429 31.642C130.096 31.8277 129.832 32.0985 129.639 32.4545C129.446 32.8106 129.349 33.2424 129.349 33.75ZM138.709 33.75V39H137.368V27.3636H138.709V31.6364H138.822C139.027 31.1856 139.334 30.8277 139.743 30.5625C140.156 30.2936 140.705 30.1591 141.391 30.1591C141.985 30.1591 142.506 30.2784 142.953 30.517C143.4 30.7519 143.747 31.1136 143.993 31.6023C144.243 32.0871 144.368 32.7045 144.368 33.4545V39H143.027V33.5455C143.027 32.8523 142.847 32.3163 142.487 31.9375C142.131 31.5549 141.637 31.3636 141.004 31.3636C140.565 31.3636 140.171 31.4564 139.822 31.642C139.478 31.8277 139.205 32.0985 139.004 32.4545C138.807 32.8106 138.709 33.2424 138.709 33.75ZM152.912 27.3636V39H151.503V27.3636H152.912ZM155.737 27.3636H157.419L161.374 37.0227H161.51L165.464 27.3636H167.146V39H165.828V30.1591H165.714L162.078 39H160.805L157.169 30.1591H157.055V39H155.737V27.3636ZM169.972 39V27.3636H176.994V28.6136H171.381V32.5455H176.631V33.7955H171.381V37.75H177.085V39H169.972ZM180.216 27.3636L183.216 32.2045H183.307L186.307 27.3636H187.966L184.307 33.1818L187.966 39H186.307L183.307 34.25H183.216L180.216 39H178.557L182.307 33.1818L178.557 27.3636H180.216ZM189.8 39V27.3636H193.732C194.644 27.3636 195.391 27.5284 195.97 27.858C196.554 28.1837 196.985 28.625 197.266 29.1818C197.546 29.7386 197.686 30.3598 197.686 31.0455C197.686 31.7311 197.546 32.3542 197.266 32.9148C196.989 33.4754 196.561 33.9223 195.982 34.2557C195.402 34.5852 194.66 34.75 193.754 34.75H190.936V33.5H193.709C194.334 33.5 194.836 33.392 195.214 33.1761C195.593 32.9602 195.868 32.6686 196.038 32.3011C196.213 31.9299 196.3 31.5114 196.3 31.0455C196.3 30.5795 196.213 30.1629 196.038 29.7955C195.868 29.428 195.591 29.1402 195.209 28.9318C194.826 28.7197 194.319 28.6136 193.686 28.6136H191.209V39H189.8ZM199.956 39V27.3636H201.365V32.5455H207.57V27.3636H208.979V39H207.57V33.7955H201.365V39H199.956ZM212.277 39H210.8L215.072 27.3636H216.527L220.8 39H219.322L215.845 29.2045H215.754L212.277 39ZM212.822 34.4545H218.777V35.7045H212.822V34.4545ZM222.612 39V27.3636H226.544C227.453 27.3636 228.199 27.5189 228.783 27.8295C229.366 28.1364 229.798 28.5587 230.078 29.0966C230.358 29.6345 230.499 30.2462 230.499 30.9318C230.499 31.6174 230.358 32.2254 230.078 32.7557C229.798 33.286 229.368 33.7027 228.788 34.0057C228.209 34.3049 227.468 34.4545 226.567 34.4545H223.385V33.1818H226.521C227.143 33.1818 227.643 33.0909 228.021 32.9091C228.404 32.7273 228.68 32.4697 228.851 32.1364C229.025 31.7992 229.112 31.3977 229.112 30.9318C229.112 30.4659 229.025 30.0587 228.851 29.7102C228.677 29.3617 228.398 29.0928 228.016 28.9034C227.633 28.7102 227.127 28.6136 226.499 28.6136H224.021V39H222.612ZM228.089 33.7727L230.953 39H229.317L226.499 33.7727H228.089ZM232.847 27.3636H234.528L238.483 37.0227H238.619L242.574 27.3636H244.256V39H242.938V30.1591H242.824L239.188 39H237.915L234.278 30.1591H234.165V39H232.847V27.3636ZM256.399 32.5568V33.8068H251.308V32.5568H256.399ZM263.236 39V37.9773L267.077 33.7727C267.527 33.2803 267.899 32.8523 268.19 32.4886C268.482 32.1212 268.698 31.7765 268.838 31.4545C268.982 31.1288 269.054 30.7879 269.054 30.4318C269.054 30.0227 268.955 29.6686 268.759 29.3693C268.565 29.0701 268.3 28.839 267.963 28.6761C267.626 28.5133 267.247 28.4318 266.827 28.4318C266.38 28.4318 265.99 28.5246 265.656 28.7102C265.327 28.892 265.071 29.1477 264.889 29.4773C264.711 29.8068 264.622 30.1932 264.622 30.6364H263.281C263.281 29.9545 263.438 29.3561 263.753 28.8409C264.067 28.3258 264.495 27.9242 265.037 27.6364C265.582 27.3485 266.194 27.2045 266.872 27.2045C267.554 27.2045 268.158 27.3485 268.685 27.6364C269.211 27.9242 269.624 28.3125 269.923 28.8011C270.223 29.2898 270.372 29.8333 270.372 30.4318C270.372 30.8598 270.295 31.2784 270.139 31.6875C269.988 32.0928 269.723 32.5455 269.344 33.0455C268.969 33.5417 268.448 34.1477 267.781 34.8636L265.168 37.6591V37.75H270.577V39H263.236ZM276.719 39.1591C275.863 39.1591 275.134 38.9261 274.531 38.4602C273.929 37.9905 273.469 37.3106 273.151 36.4205C272.832 35.5265 272.673 34.447 272.673 33.1818C272.673 31.9242 272.832 30.8504 273.151 29.9602C273.473 29.0663 273.935 28.3845 274.537 27.9148C275.143 27.4413 275.87 27.2045 276.719 27.2045C277.567 27.2045 278.293 27.4413 278.895 27.9148C279.501 28.3845 279.963 29.0663 280.281 29.9602C280.603 30.8504 280.764 31.9242 280.764 33.1818C280.764 34.447 280.605 35.5265 280.287 36.4205C279.969 37.3106 279.509 37.9905 278.906 38.4602C278.304 38.9261 277.575 39.1591 276.719 39.1591ZM276.719 37.9091C277.567 37.9091 278.226 37.5 278.696 36.6818C279.166 35.8636 279.401 34.697 279.401 33.1818C279.401 32.1742 279.293 31.3163 279.077 30.608C278.865 29.8996 278.558 29.3598 278.156 28.9886C277.759 28.6174 277.279 28.4318 276.719 28.4318C275.878 28.4318 275.221 28.8466 274.747 29.6761C274.274 30.5019 274.037 31.6705 274.037 33.1818C274.037 34.1894 274.143 35.0455 274.355 35.75C274.567 36.4545 274.872 36.9905 275.27 37.358C275.671 37.7254 276.154 37.9091 276.719 37.9091ZM282.923 39V37.9773L286.764 33.7727C287.215 33.2803 287.586 32.8523 287.878 32.4886C288.17 32.1212 288.385 31.7765 288.526 31.4545C288.67 31.1288 288.741 30.7879 288.741 30.4318C288.741 30.0227 288.643 29.6686 288.446 29.3693C288.253 29.0701 287.988 28.839 287.651 28.6761C287.313 28.5133 286.935 28.4318 286.514 28.4318C286.067 28.4318 285.677 28.5246 285.344 28.7102C285.014 28.892 284.759 29.1477 284.577 29.4773C284.399 29.8068 284.31 30.1932 284.31 30.6364H282.969C282.969 29.9545 283.126 29.3561 283.44 28.8409C283.755 28.3258 284.183 27.9242 284.724 27.6364C285.27 27.3485 285.882 27.2045 286.56 27.2045C287.241 27.2045 287.846 27.3485 288.372 27.6364C288.899 27.9242 289.312 28.3125 289.611 28.8011C289.91 29.2898 290.06 29.8333 290.06 30.4318C290.06 30.8598 289.982 31.2784 289.827 31.6875C289.675 32.0928 289.41 32.5455 289.031 33.0455C288.656 33.5417 288.135 34.1477 287.469 34.8636L284.855 37.6591V37.75H290.264V39H282.923ZM296.543 39.1591C295.793 39.1591 295.124 39.0303 294.537 38.7727C293.954 38.5152 293.49 38.1572 293.145 37.6989C292.804 37.2367 292.618 36.7008 292.588 36.0909H294.02C294.05 36.4659 294.179 36.7898 294.406 37.0625C294.634 37.3314 294.931 37.5398 295.298 37.6875C295.666 37.8352 296.073 37.9091 296.52 37.9091C297.02 37.9091 297.463 37.822 297.849 37.6477C298.236 37.4735 298.539 37.2311 298.759 36.9205C298.978 36.6098 299.088 36.25 299.088 35.8409C299.088 35.4129 298.982 35.036 298.77 34.7102C298.558 34.3807 298.247 34.1231 297.838 33.9375C297.429 33.7519 296.929 33.6591 296.338 33.6591H295.406V32.4091H296.338C296.8 32.4091 297.205 32.3258 297.554 32.1591C297.906 31.9924 298.181 31.7576 298.378 31.4545C298.579 31.1515 298.679 30.7955 298.679 30.3864C298.679 29.9924 298.592 29.6496 298.418 29.358C298.243 29.0663 297.997 28.839 297.679 28.6761C297.365 28.5133 296.993 28.4318 296.565 28.4318C296.164 28.4318 295.785 28.5057 295.429 28.6534C295.077 28.7973 294.789 29.0076 294.565 29.2841C294.342 29.5568 294.221 29.8864 294.202 30.2727H292.838C292.861 29.6629 293.045 29.1288 293.389 28.6705C293.734 28.2083 294.185 27.8485 294.741 27.5909C295.302 27.3333 295.918 27.2045 296.588 27.2045C297.308 27.2045 297.925 27.3504 298.44 27.642C298.955 27.9299 299.351 28.3106 299.628 28.7841C299.904 29.2576 300.043 29.7689 300.043 30.3182C300.043 30.9735 299.87 31.5322 299.526 31.9943C299.185 32.4564 298.721 32.7765 298.134 32.9545V33.0455C298.868 33.1667 299.442 33.4792 299.855 33.983C300.268 34.483 300.474 35.1023 300.474 35.8409C300.474 36.4735 300.302 37.0417 299.957 37.5455C299.616 38.0455 299.151 38.4394 298.56 38.7273C297.969 39.0152 297.296 39.1591 296.543 39.1591Z" fill="#24408E"/>
<path d="M17.5 50.6364C17.6705 49.6136 17.9588 48.6477 18.3651 47.7386C18.7741 46.8295 19.2869 45.9773 19.9034 45.1818H20.5938C20.3324 45.5142 20.0795 45.8935 19.8352 46.3196C19.5938 46.7429 19.3707 47.1946 19.1662 47.6747C18.9645 48.1548 18.7869 48.6463 18.6335 49.1491C18.483 49.6491 18.3665 50.1449 18.2841 50.6364C18.1761 51.2926 18.1264 51.9545 18.1349 52.6222C18.1435 53.2898 18.2031 53.9233 18.3139 54.5227C18.4276 55.1222 18.5852 55.6449 18.7869 56.0909H18.0966C17.7472 55.2926 17.517 54.4389 17.4062 53.5298C17.2983 52.6207 17.3295 51.6562 17.5 50.6364ZM20.7738 55L22.2227 46.2727H27.2852L27.1658 46.9886H22.9002L22.3548 50.2741H26.3519L26.2326 50.9901H22.2354L21.69 54.2841H26.0408L25.9215 55H20.7738ZM29.1772 50.9091L28.4996 55H27.7411L28.832 48.4545H29.5692L29.3988 49.4815H29.467C29.6715 49.1463 29.9542 48.8778 30.315 48.6761C30.6786 48.4716 31.1005 48.3693 31.5806 48.3693C32.0181 48.3693 32.3874 48.4616 32.6886 48.6463C32.9925 48.8281 33.2085 49.0966 33.3363 49.4517C33.467 49.8068 33.4897 50.2429 33.4045 50.7599L32.6928 55H31.9343L32.6332 50.8068C32.7212 50.2727 32.6431 49.8494 32.3988 49.5369C32.1573 49.2216 31.7837 49.0639 31.2781 49.0639C30.9343 49.0639 30.6147 49.1378 30.3192 49.2855C30.0266 49.4332 29.7795 49.6463 29.5778 49.9247C29.3761 50.2003 29.2425 50.5284 29.1772 50.9091ZM36.7784 57.5909C36.3324 57.5909 35.9503 57.5327 35.6321 57.4162C35.3139 57.3026 35.0554 57.1463 34.8565 56.9474C34.6605 56.7486 34.517 56.5256 34.4261 56.2784L35.1165 55.8736C35.179 56.0384 35.2741 56.2003 35.402 56.3594C35.5298 56.5185 35.7102 56.6491 35.9432 56.7514C36.1761 56.8565 36.4815 56.9091 36.8594 56.9091C37.4361 56.9091 37.9318 56.7628 38.3466 56.4702C38.7614 56.1804 39.0199 55.7315 39.1222 55.1236L39.3523 53.6491H39.2841C39.1676 53.848 39.0114 54.0469 38.8153 54.2457C38.6193 54.4418 38.3764 54.6051 38.0866 54.7358C37.7997 54.8665 37.4602 54.9318 37.0682 54.9318C36.5455 54.9318 36.1023 54.8026 35.7386 54.544C35.375 54.2855 35.1179 53.9162 34.9673 53.4361C34.8168 52.9531 34.7983 52.3778 34.9119 51.7102C35.0199 51.0483 35.2273 50.4659 35.5341 49.9631C35.8438 49.4602 36.2244 49.0682 36.6761 48.7869C37.1307 48.5057 37.6278 48.3651 38.1676 48.3651C38.5682 48.3651 38.8892 48.4361 39.1307 48.5781C39.3722 48.7173 39.5554 48.8906 39.6804 49.098C39.8082 49.3054 39.9006 49.5071 39.9574 49.7031H40.0341L40.2386 48.4545H40.9801L39.8722 55.1705C39.7784 55.7244 39.5852 56.1804 39.2926 56.5384C39 56.8963 38.6364 57.1605 38.2017 57.331C37.7699 57.5043 37.2955 57.5909 36.7784 57.5909ZM37.2386 54.2372C37.6591 54.2372 38.0369 54.1364 38.3722 53.9347C38.7102 53.7301 38.9929 53.4389 39.2202 53.0611C39.4503 52.6804 39.608 52.2259 39.6932 51.6974C39.7784 51.1861 39.7741 50.733 39.6804 50.3381C39.5895 49.9403 39.4119 49.6278 39.1477 49.4006C38.8864 49.1705 38.5426 49.0554 38.1165 49.0554C37.6761 49.0554 37.2869 49.1733 36.9489 49.4091C36.6136 49.6449 36.3366 49.9631 36.1179 50.3636C35.902 50.7614 35.7528 51.206 35.6705 51.6974C35.5909 52.1974 35.5938 52.6392 35.679 53.0227C35.767 53.4034 35.9403 53.7017 36.1989 53.9176C36.4574 54.1307 36.804 54.2372 37.2386 54.2372ZM44.1048 46.2727L42.6559 55H41.8974L43.3462 46.2727H44.1048ZM44.6715 55L45.7624 48.4545H46.5252L45.4343 55H44.6715ZM46.4187 47.3168C46.2596 47.3168 46.1246 47.2628 46.0138 47.1548C45.9059 47.0469 45.8533 46.9162 45.8562 46.7628C45.8619 46.6179 45.9201 46.4929 46.0309 46.3878C46.1445 46.2798 46.2781 46.2259 46.4315 46.2259C46.5906 46.2259 46.7255 46.2812 46.8363 46.392C46.9471 46.5 46.9996 46.6307 46.994 46.7841C46.9911 46.929 46.9329 47.054 46.8192 47.1591C46.7056 47.2642 46.5721 47.3168 46.4187 47.3168ZM52.6903 49.8906L51.9616 50.0781C51.9247 49.8821 51.8565 49.706 51.7571 49.5497C51.6605 49.3906 51.5199 49.2656 51.3352 49.1747C51.1534 49.081 50.9148 49.0341 50.6193 49.0341C50.1761 49.0341 49.794 49.142 49.473 49.358C49.152 49.571 48.9645 49.8437 48.9105 50.1761C48.8651 50.4545 48.9233 50.6804 49.0852 50.8537C49.25 51.027 49.5256 51.1634 49.9119 51.2628L50.8665 51.5057C51.3949 51.642 51.7713 51.8551 51.9957 52.1449C52.223 52.4347 52.3011 52.8011 52.2301 53.2443C52.1676 53.6136 52.0099 53.9403 51.7571 54.2244C51.5071 54.5085 51.1861 54.7315 50.794 54.8935C50.4048 55.0554 49.9702 55.1364 49.4901 55.1364C48.8452 55.1364 48.3381 54.9915 47.9688 54.7017C47.6023 54.4119 47.4063 53.9943 47.3807 53.4489L48.1435 53.2784C48.1662 53.6648 48.2983 53.9574 48.5398 54.1562C48.7841 54.3551 49.1278 54.4545 49.571 54.4545C50.0767 54.4545 50.5014 54.3395 50.8452 54.1094C51.1889 53.8793 51.3864 53.5952 51.4375 53.2571C51.4858 52.9901 51.4361 52.7685 51.2884 52.5923C51.1435 52.4162 50.8963 52.2855 50.5469 52.2003L49.5284 51.9446C48.9801 51.8054 48.5923 51.5881 48.3651 51.2926C48.1406 50.9943 48.0653 50.6264 48.1392 50.1889C48.1989 49.8281 48.3494 49.5114 48.5909 49.2386C48.8324 48.9659 49.1378 48.7528 49.5071 48.5994C49.8764 48.4432 50.2798 48.3651 50.7173 48.3651C51.3196 48.3651 51.7784 48.5014 52.0938 48.7741C52.4091 49.044 52.608 49.4162 52.6903 49.8906ZM55.0288 50.9091L54.3512 55H53.5927L55.0415 46.2727H55.8001L55.2717 49.4815H55.3398C55.5444 49.1406 55.8256 48.8707 56.1836 48.6719C56.5415 48.4702 56.9691 48.3693 57.4663 48.3693C57.9066 48.3693 58.2788 48.4602 58.5827 48.642C58.8896 48.8239 59.1069 49.0923 59.2347 49.4474C59.3654 49.8026 59.3881 50.2401 59.3029 50.7599L58.5913 55H57.8285L58.5273 50.8068C58.6154 50.267 58.5359 49.8423 58.2887 49.5327C58.0444 49.2202 57.6694 49.0639 57.1637 49.0639C56.8171 49.0639 56.4933 49.1378 56.1921 49.2855C55.8938 49.4332 55.641 49.6463 55.4336 49.9247C55.229 50.2003 55.0941 50.5284 55.0288 50.9091ZM70.1214 48.4545L66.6399 55H65.8303L64.5305 48.4545H65.3189L66.3416 53.9986H66.397L69.2649 48.4545H70.1214ZM72.9094 55.1364C72.2987 55.1364 71.7944 54.9943 71.3967 54.7102C70.9989 54.4233 70.7205 54.027 70.5614 53.5213C70.4023 53.0128 70.3782 52.4276 70.489 51.7656C70.5998 51.1065 70.8185 50.5213 71.1452 50.0099C71.4719 49.4957 71.8754 49.0937 72.3555 48.804C72.8356 48.5114 73.3569 48.3651 73.9194 48.3651C74.2745 48.3651 74.6069 48.4304 74.9165 48.5611C75.2262 48.6889 75.489 48.8864 75.7049 49.1534C75.9237 49.4176 76.0756 49.7514 76.1609 50.1548C76.2461 50.5554 76.2433 51.0298 76.1523 51.5781L76.0927 51.9531H70.979L71.0856 51.2841H75.4279C75.4989 50.8636 75.479 50.4858 75.3683 50.1506C75.2575 49.8153 75.0685 49.5497 74.8015 49.3537C74.5373 49.1548 74.2092 49.0554 73.8171 49.0554C73.4165 49.0554 73.0373 49.1676 72.6793 49.392C72.3242 49.6165 72.0231 49.9091 71.7759 50.2699C71.5316 50.6278 71.3739 51.0099 71.3029 51.4162L71.2177 51.919C71.1268 52.473 71.1381 52.9375 71.2518 53.3125C71.3654 53.6847 71.5714 53.9659 71.8697 54.1562C72.168 54.3466 72.5501 54.4418 73.016 54.4418C73.3285 54.4418 73.6112 54.3935 73.864 54.2969C74.1168 54.2003 74.337 54.071 74.5245 53.9091C74.712 53.7443 74.8626 53.5639 74.9762 53.3679L75.6538 53.6023C75.5089 53.8778 75.3043 54.1321 75.0401 54.3651C74.7788 54.598 74.4677 54.7855 74.1069 54.9276C73.7489 55.0668 73.3498 55.1364 72.9094 55.1364ZM77.2528 55L78.3438 48.4545H79.081L78.9105 49.4602H78.9659C79.1477 49.1307 79.419 48.8651 79.7798 48.6634C80.1435 48.4588 80.5313 48.3565 80.9432 48.3565C81.0057 48.3565 81.0753 48.358 81.152 48.3608C81.2287 48.3608 81.2926 48.3636 81.3438 48.3693L81.2116 49.1406C81.1776 49.1349 81.1179 49.1264 81.0327 49.1151C80.9503 49.1037 80.858 49.098 80.7557 49.098C80.4148 49.098 80.0994 49.1705 79.8097 49.3153C79.5227 49.4574 79.2813 49.6548 79.0852 49.9077C78.892 50.1605 78.767 50.4489 78.7102 50.7727L78.0114 55H77.2528ZM86.7919 49.8906L86.0632 50.0781C86.0263 49.8821 85.9581 49.706 85.8587 49.5497C85.7621 49.3906 85.6214 49.2656 85.4368 49.1747C85.255 49.081 85.0163 49.0341 84.7209 49.0341C84.2777 49.0341 83.8956 49.142 83.5746 49.358C83.2536 49.571 83.0661 49.8437 83.0121 50.1761C82.9666 50.4545 83.0249 50.6804 83.1868 50.8537C83.3516 51.027 83.6271 51.1634 84.0135 51.2628L84.968 51.5057C85.4964 51.642 85.8729 51.8551 86.0973 52.1449C86.3246 52.4347 86.4027 52.8011 86.3317 53.2443C86.2692 53.6136 86.1115 53.9403 85.8587 54.2244C85.6087 54.5085 85.2876 54.7315 84.8956 54.8935C84.5064 55.0554 84.0717 55.1364 83.5916 55.1364C82.9467 55.1364 82.4396 54.9915 82.0703 54.7017C81.7038 54.4119 81.5078 53.9943 81.4822 53.4489L82.245 53.2784C82.2678 53.6648 82.3999 53.9574 82.6413 54.1562C82.8857 54.3551 83.2294 54.4545 83.6726 54.4545C84.1783 54.4545 84.603 54.3395 84.9467 54.1094C85.2905 53.8793 85.4879 53.5952 85.5391 53.2571C85.5874 52.9901 85.5376 52.7685 85.3899 52.5923C85.245 52.4162 84.9979 52.2855 84.6484 52.2003L83.63 51.9446C83.0817 51.8054 82.6939 51.5881 82.4666 51.2926C82.2422 50.9943 82.1669 50.6264 82.2408 50.1889C82.3004 49.8281 82.451 49.5114 82.6925 49.2386C82.9339 48.9659 83.2393 48.7528 83.6087 48.5994C83.978 48.4432 84.3814 48.3651 84.8189 48.3651C85.4212 48.3651 85.88 48.5014 86.1953 48.7741C86.5107 49.044 86.7095 49.4162 86.7919 49.8906ZM87.7028 55L88.7937 48.4545H89.5565L88.4656 55H87.7028ZM89.4499 47.3168C89.2908 47.3168 89.1559 47.2628 89.0451 47.1548C88.9371 47.0469 88.8846 46.9162 88.8874 46.7628C88.8931 46.6179 88.9513 46.4929 89.0621 46.3878C89.1758 46.2798 89.3093 46.2259 89.4627 46.2259C89.6218 46.2259 89.7567 46.2812 89.8675 46.392C89.9783 46.5 90.0309 46.6307 90.0252 46.7841C90.0224 46.929 89.9641 47.054 89.8505 47.1591C89.7369 47.2642 89.6033 47.3168 89.4499 47.3168ZM93.0455 55.1364C92.4716 55.1364 91.9886 54.9915 91.5966 54.7017C91.2045 54.4091 90.9276 54.0043 90.7656 53.4872C90.6037 52.9702 90.5767 52.3736 90.6847 51.6974C90.7926 51.0384 91.0071 50.4588 91.3281 49.9588C91.652 49.456 92.0497 49.0653 92.5213 48.7869C92.9929 48.5057 93.5057 48.3651 94.0597 48.3651C94.6364 48.3651 95.1193 48.5114 95.5085 48.804C95.9006 49.0966 96.1776 49.5014 96.3395 50.0185C96.5043 50.5355 96.5327 51.1335 96.4247 51.8125C96.3168 52.4688 96.1009 53.0469 95.777 53.5469C95.4531 54.044 95.0554 54.4332 94.5838 54.7145C94.1151 54.9957 93.6023 55.1364 93.0455 55.1364ZM93.054 54.4418C93.5199 54.4418 93.9347 54.3182 94.2983 54.071C94.6648 53.821 94.9673 53.4886 95.206 53.0739C95.4446 52.6562 95.6051 52.1974 95.6875 51.6974C95.7642 51.2202 95.7557 50.7812 95.6619 50.3807C95.5682 49.9801 95.3878 49.6591 95.1207 49.4176C94.8537 49.1761 94.4986 49.0554 94.0554 49.0554C93.5923 49.0554 93.1776 49.1818 92.8111 49.4347C92.4446 49.6847 92.142 50.0199 91.9034 50.4403C91.6648 50.858 91.5057 51.3153 91.4261 51.8125C91.3466 52.2926 91.3523 52.7315 91.4432 53.1293C91.5369 53.527 91.7173 53.8452 91.9844 54.0838C92.2543 54.3224 92.6108 54.4418 93.054 54.4418ZM98.9975 50.9091L98.32 55H97.5614L98.6523 48.4545H99.3896L99.2191 49.4815H99.2873C99.4918 49.1463 99.7745 48.8778 100.135 48.6761C100.499 48.4716 100.921 48.3693 101.401 48.3693C101.838 48.3693 102.208 48.4616 102.509 48.6463C102.813 48.8281 103.029 49.0966 103.157 49.4517C103.287 49.8068 103.31 50.2429 103.225 50.7599L102.513 55H101.755L102.453 50.8068C102.542 50.2727 102.463 49.8494 102.219 49.5369C101.978 49.2216 101.604 49.0639 101.098 49.0639C100.755 49.0639 100.435 49.1378 100.14 49.2855C99.8469 49.4332 99.5998 49.6463 99.3981 49.9247C99.1964 50.2003 99.0629 50.5284 98.9975 50.9091ZM106.965 51.3182C106.795 52.3409 106.505 53.3068 106.096 54.2159C105.69 55.125 105.178 55.9773 104.562 56.7727H103.871C104.136 56.4375 104.388 56.0582 104.63 55.6349C104.871 55.2116 105.093 54.7599 105.295 54.2798C105.499 53.7997 105.677 53.3082 105.827 52.8054C105.981 52.3026 106.099 51.8068 106.181 51.3182C106.289 50.6619 106.339 50 106.33 49.3324C106.322 48.6648 106.261 48.0312 106.147 47.4318C106.036 46.8324 105.88 46.3097 105.678 45.8636H106.369C106.718 46.6619 106.947 47.5156 107.055 48.4247C107.165 49.3338 107.136 50.2983 106.965 51.3182Z" fill="black"/>
</svg>
