<svg width="100%" viewBox="0 0 1296 32" fill="none" xmlns="http://www.w3.org/2000/svg">
<path d="M7.824 9.464H10.992V26H7.824V9.464ZM0.384 8H18.432V10.784H0.384V8ZM20.0957 21.872V19.256H32.6717V21.872H20.0957ZM28.4477 8L37.0877 26H33.7037L25.8557 9.2H27.0797L19.2317 26H15.8477L24.4877 8H28.4477ZM25.6637 6.872L24.9437 5.648C25.7117 5.52 26.2717 5.36 26.6237 5.168C26.9757 4.976 27.1517 4.76 27.1517 4.52C27.1517 4.296 27.0077 4.136 26.7197 4.04C26.4477 3.928 26.0557 3.872 25.5437 3.872C25.1437 3.872 24.7757 3.896 24.4397 3.944C24.1197 3.992 23.7837 4.056 23.4317 4.136V2.264C23.7357 2.184 24.1277 2.104 24.6077 2.024C25.1037 1.944 25.6237 1.904 26.1677 1.904C27.3517 1.904 28.2637 2.088 28.9037 2.456C29.5597 2.808 29.8877 3.36 29.8877 4.112C29.8877 4.8 29.5517 5.376 28.8797 5.84C28.2237 6.288 27.1517 6.632 25.6637 6.872ZM39.2816 8H42.4496V26H39.2816V8ZM61.299 24.656H59.811L67.563 8H70.947L62.259 26H58.731L50.043 8H53.451L61.299 24.656ZM87.5014 15.68V18.32H74.9254V15.68H87.5014ZM77.0134 17L75.7414 25.04L74.2294 23.264H88.1974V26H72.5014L73.9414 17L72.5014 8H88.0774V10.736H74.2294L75.7414 8.96L77.0134 17ZM84.5494 0.247998L86.5414 3.56H84.0214L81.5254 0.247998H84.5494ZM78.6454 2.888H82.1494L85.7014 6.536H82.8454L79.7254 4.04H81.0694L77.9494 6.536H75.1174L78.6454 2.888ZM108.772 17.072L109.084 16.376C110.508 16.392 111.668 16.608 112.564 17.024C113.476 17.44 114.14 18 114.556 18.704C114.988 19.408 115.204 20.2 115.204 21.08C115.204 22.04 114.972 22.888 114.508 23.624C114.06 24.36 113.396 24.944 112.516 25.376C111.636 25.792 110.54 26 109.228 26H97.2279L98.6439 16.76L97.2279 8H108.796C110.46 8 111.74 8.392 112.636 9.176C113.548 9.944 114.004 11.008 114.004 12.368C114.004 13.088 113.828 13.792 113.476 14.48C113.14 15.152 112.588 15.728 111.82 16.208C111.068 16.672 110.052 16.96 108.772 17.072ZM100.42 25.112L99.1959 23.456H108.868C109.86 23.456 110.628 23.232 111.172 22.784C111.732 22.32 112.012 21.664 112.012 20.816C112.012 19.92 111.684 19.224 111.028 18.728C110.388 18.232 109.436 17.984 108.172 17.984H100.372V15.536H107.86C108.708 15.536 109.412 15.304 109.972 14.84C110.532 14.36 110.812 13.68 110.812 12.8C110.812 12.144 110.58 11.608 110.116 11.192C109.652 10.76 108.98 10.544 108.1 10.544H99.1959L100.42 8.888L101.692 16.76L100.42 25.112ZM119.705 21.872V19.256H132.281V21.872H119.705ZM128.057 8L136.697 26H133.313L125.465 9.2H126.689L118.841 26H115.457L124.097 8H128.057ZM127.409 2.888H131.105L127.169 6.536H123.905L127.409 2.888ZM147.267 26.336C145.219 26.336 143.419 25.944 141.867 25.16C140.315 24.376 139.107 23.288 138.243 21.896C137.379 20.488 136.947 18.856 136.947 17C136.947 15.144 137.379 13.52 138.243 12.128C139.107 10.72 140.315 9.624 141.867 8.84C143.419 8.056 145.219 7.664 147.267 7.664C149.315 7.664 151.115 8.056 152.667 8.84C154.219 9.624 155.427 10.72 156.291 12.128C157.155 13.52 157.587 15.144 157.587 17C157.587 18.856 157.155 20.488 156.291 21.896C155.427 23.288 154.219 24.376 152.667 25.16C151.115 25.944 149.315 26.336 147.267 26.336ZM147.267 23.504C148.723 23.504 149.979 23.24 151.035 22.712C152.091 22.184 152.907 21.432 153.483 20.456C154.075 19.48 154.371 18.328 154.371 17C154.371 15.672 154.075 14.52 153.483 13.544C152.907 12.568 152.091 11.816 151.035 11.288C149.979 10.76 148.723 10.496 147.267 10.496C145.827 10.496 144.571 10.76 143.499 11.288C142.443 11.816 141.619 12.568 141.027 13.544C140.451 14.52 140.163 15.672 140.163 17C140.163 18.328 140.451 19.48 141.027 20.456C141.619 21.432 142.443 22.184 143.499 22.712C144.571 23.24 145.827 23.504 147.267 23.504ZM186 18.872C185.84 20.344 185.32 21.648 184.44 22.784C183.576 23.904 182.44 24.776 181.032 25.4C179.624 26.024 178.016 26.336 176.208 26.336C174.192 26.336 172.424 25.944 170.904 25.16C169.384 24.376 168.2 23.288 167.352 21.896C166.504 20.488 166.08 18.856 166.08 17C166.08 15.144 166.504 13.52 167.352 12.128C168.2 10.72 169.384 9.624 170.904 8.84C172.424 8.056 174.192 7.664 176.208 7.664C178.016 7.664 179.624 7.976 181.032 8.6C182.44 9.224 183.576 10.096 184.44 11.216C185.32 12.336 185.84 13.64 186 15.128H182.808C182.632 14.168 182.248 13.344 181.656 12.656C181.08 11.968 180.328 11.44 179.4 11.072C178.472 10.688 177.4 10.496 176.184 10.496C174.776 10.496 173.552 10.76 172.512 11.288C171.488 11.816 170.696 12.568 170.136 13.544C169.576 14.52 169.296 15.672 169.296 17C169.296 18.328 169.576 19.48 170.136 20.456C170.696 21.432 171.488 22.184 172.512 22.712C173.552 23.24 174.776 23.504 176.184 23.504C177.4 23.504 178.472 23.32 179.4 22.952C180.328 22.584 181.08 22.056 181.656 21.368C182.248 20.664 182.632 19.832 182.808 18.872H186ZM190.486 21.872V19.256H203.062V21.872H190.486ZM198.838 8L207.478 26H204.094L196.246 9.2H197.47L189.622 26H186.238L194.878 8H198.838ZM198.19 2.888H201.886L197.95 6.536H194.686L198.19 2.888ZM218.048 26.336C216 26.336 214.2 25.944 212.648 25.16C211.096 24.376 209.888 23.288 209.024 21.896C208.16 20.488 207.728 18.856 207.728 17C207.728 15.144 208.16 13.52 209.024 12.128C209.888 10.72 211.096 9.624 212.648 8.84C214.2 8.056 216 7.664 218.048 7.664C220.096 7.664 221.896 8.056 223.448 8.84C225 9.624 226.208 10.72 227.072 12.128C227.936 13.52 228.368 15.144 228.368 17C228.368 18.856 227.936 20.488 227.072 21.896C226.208 23.288 225 24.376 223.448 25.16C221.896 25.944 220.096 26.336 218.048 26.336ZM218.048 23.504C219.504 23.504 220.76 23.24 221.816 22.712C222.872 22.184 223.688 21.432 224.264 20.456C224.856 19.48 225.152 18.328 225.152 17C225.152 15.672 224.856 14.52 224.264 13.544C223.688 12.568 222.872 11.816 221.816 11.288C220.76 10.76 219.504 10.496 218.048 10.496C216.608 10.496 215.352 10.76 214.28 11.288C213.224 11.816 212.4 12.568 211.808 13.544C211.232 14.52 210.944 15.672 210.944 17C210.944 18.328 211.232 19.48 211.808 20.456C212.4 21.432 213.224 22.184 214.28 22.712C215.352 23.24 216.608 23.504 218.048 23.504ZM242.762 9.464H245.93V26H242.762V9.464ZM235.322 8H253.37V10.784H235.322V8ZM255.033 21.872V19.256H267.609V21.872H255.033ZM263.385 8L272.025 26H268.641L260.793 9.2H262.017L254.169 26H250.785L259.425 8H263.385ZM259.737 2.888L263.241 6.536H259.977L256.041 2.888H259.737ZM274.219 8H277.387V26H274.219V8ZM306.75 18.872C306.59 20.344 306.07 21.648 305.19 22.784C304.326 23.904 303.19 24.776 301.782 25.4C300.374 26.024 298.766 26.336 296.958 26.336C294.942 26.336 293.174 25.944 291.654 25.16C290.134 24.376 288.95 23.288 288.102 21.896C287.254 20.488 286.83 18.856 286.83 17C286.83 15.144 287.254 13.52 288.102 12.128C288.95 10.72 290.134 9.624 291.654 8.84C293.174 8.056 294.942 7.664 296.958 7.664C298.766 7.664 300.374 7.976 301.782 8.6C303.19 9.224 304.326 10.096 305.19 11.216C306.07 12.336 306.59 13.64 306.75 15.128H303.558C303.382 14.168 302.998 13.344 302.406 12.656C301.83 11.968 301.078 11.44 300.15 11.072C299.222 10.688 298.15 10.496 296.934 10.496C295.526 10.496 294.302 10.76 293.262 11.288C292.238 11.816 291.446 12.568 290.886 13.544C290.326 14.52 290.046 15.672 290.046 17C290.046 18.328 290.326 19.48 290.886 20.456C291.446 21.432 292.238 22.184 293.262 22.712C294.302 23.24 295.526 23.504 296.934 23.504C298.15 23.504 299.222 23.32 300.15 22.952C301.078 22.584 301.83 22.056 302.406 21.368C302.998 20.664 303.382 19.832 303.558 18.872H306.75ZM309.657 8H312.825V26H309.657V8ZM324.297 8H327.465V26H324.297V8ZM311.361 15.536H325.809V18.32H311.361V15.536ZM331.5 8H334.668V26H331.5V8ZM334.404 2.888H338.1L334.164 6.536H330.9L334.404 2.888ZM355.376 24.08L354.08 24.224V8H357.152V26H353.12L340.496 9.776L341.768 9.632V26H338.696V8H342.824L355.376 24.08ZM361.172 8H364.34V26H361.172V8ZM375.812 8H378.98V26H375.812V8ZM362.876 15.536H377.324V18.32H362.876V15.536Z" fill="#24408E"/>
</svg>
