<svg width="100%" viewBox="0 0 154 48" fill="none" xmlns="http://www.w3.org/2000/svg">
<path d="M0 8C0 3.58172 3.58172 0 8 0H146C150.418 0 154 3.58172 154 8V40C154 44.4183 150.418 48 146 48H8C3.58172 48 0 44.4183 0 40V8Z" fill="#24408E"/>
<path d="M34 27V30H22V27H20V30C20 31.1 20.9 32 22 32H34C35.1 32 36 31.1 36 30V27H34ZM33 23L31.59 21.59L29 24.17V16H27V24.17L24.41 21.59L23 23L28 28L33 23Z" fill="white"/>
<path d="M53.216 18.976H55.328V30H53.216V18.976ZM48.256 18H60.288V19.856H48.256V18ZM66.8064 30L66.4544 26.64L66.8704 25.472L66.4544 24.32L66.8064 20.944H68.9504L68.4704 25.472L68.9504 30H66.8064ZM67.4464 25.472C67.2437 26.4213 66.9077 27.2533 66.4384 27.968C65.969 28.6827 65.3877 29.2373 64.6944 29.632C64.0117 30.0267 63.249 30.224 62.4064 30.224C61.521 30.224 60.737 30.0267 60.0544 29.632C59.3717 29.2267 58.8384 28.6667 58.4544 27.952C58.0704 27.2373 57.8784 26.4107 57.8784 25.472C57.8784 24.5227 58.0704 23.696 58.4544 22.992C58.8384 22.2773 59.3717 21.7227 60.0544 21.328C60.737 20.9227 61.521 20.72 62.4064 20.72C63.249 20.72 64.0117 20.9173 64.6944 21.312C65.3877 21.7067 65.969 22.2613 66.4384 22.976C66.9184 23.68 67.2544 24.512 67.4464 25.472ZM59.9904 25.472C59.9904 26.08 60.113 26.6187 60.3584 27.088C60.6144 27.5467 60.961 27.9093 61.3984 28.176C61.8357 28.432 62.337 28.56 62.9024 28.56C63.4784 28.56 64.0117 28.432 64.5024 28.176C64.993 27.9093 65.425 27.5467 65.7984 27.088C66.1824 26.6187 66.4864 26.08 66.7104 25.472C66.4864 24.864 66.1824 24.3307 65.7984 23.872C65.425 23.4027 64.993 23.04 64.5024 22.784C64.0117 22.5173 63.4784 22.384 62.9024 22.384C62.337 22.384 61.8357 22.5173 61.3984 22.784C60.961 23.04 60.6144 23.4027 60.3584 23.872C60.113 24.3307 59.9904 24.864 59.9904 25.472ZM62.9984 20.192L62.5504 19.456C62.8917 19.36 63.153 19.232 63.3344 19.072C63.5264 18.912 63.6224 18.7307 63.6224 18.528C63.6224 18.336 63.5317 18.192 63.3504 18.096C63.1797 17.9893 62.929 17.936 62.5984 17.936C62.3957 17.936 62.2037 17.9467 62.0224 17.968C61.841 17.9893 61.6597 18.0213 61.4784 18.064V16.816C61.6597 16.7627 61.889 16.72 62.1664 16.688C62.4437 16.6453 62.737 16.624 63.0464 16.624C63.7717 16.624 64.337 16.7627 64.7424 17.04C65.1477 17.3173 65.3504 17.7013 65.3504 18.192C65.3504 18.672 65.1584 19.0827 64.7744 19.424C64.401 19.7547 63.809 20.0107 62.9984 20.192ZM70.4721 20.88L71.5121 21.072L72.5521 20.88V30H70.4721V20.88ZM71.5121 19.744C71.1175 19.744 70.7921 19.6373 70.5361 19.424C70.2801 19.2 70.1521 18.912 70.1521 18.56C70.1521 18.208 70.2801 17.9253 70.5361 17.712C70.7921 17.488 71.1175 17.376 71.5121 17.376C71.9175 17.376 72.2428 17.488 72.4881 17.712C72.7441 17.9253 72.8721 18.208 72.8721 18.56C72.8721 18.912 72.7441 19.2 72.4881 19.424C72.2428 19.6373 71.9175 19.744 71.5121 19.744ZM76.5465 30L80.9145 24.832L80.8985 25.856L76.8025 20.944H79.1865L82.2905 24.624H81.4105L84.5305 20.944H86.8345L82.6585 25.888L82.5785 24.688L87.0905 30H84.7065L81.3145 26.032H82.2265L78.8665 30H76.5465ZM91.4022 30.224C90.5702 30.224 89.8609 30.0533 89.2742 29.712C88.6982 29.3707 88.2556 28.88 87.9462 28.24C87.6369 27.6 87.4822 26.8373 87.4822 25.952V20.944H89.5622V25.632C89.5622 26.5707 89.7756 27.2853 90.2022 27.776C90.6396 28.256 91.2636 28.496 92.0742 28.496C92.6609 28.496 93.1622 28.368 93.5782 28.112C94.0049 27.856 94.3356 27.4933 94.5702 27.024C94.8049 26.544 94.9222 25.9893 94.9222 25.36L95.6422 25.76C95.5569 26.688 95.3222 27.488 94.9382 28.16C94.5542 28.8213 94.0582 29.3333 93.4502 29.696C92.8422 30.048 92.1596 30.224 91.4022 30.224ZM95.4502 30L94.9222 26.736V20.944H97.0022V27.056L97.5302 30H95.4502ZM103.857 30.224C102.758 30.224 101.793 30.0267 100.961 29.632C100.14 29.2267 99.4943 28.6667 99.025 27.952C98.5663 27.2373 98.337 26.4107 98.337 25.472C98.337 24.5227 98.5663 23.696 99.025 22.992C99.4943 22.2773 100.14 21.7227 100.961 21.328C101.793 20.9227 102.758 20.72 103.857 20.72C104.956 20.72 105.916 20.9227 106.737 21.328C107.569 21.7227 108.214 22.2773 108.673 22.992C109.142 23.696 109.377 24.5227 109.377 25.472C109.377 26.4107 109.142 27.2373 108.673 27.952C108.214 28.6667 107.569 29.2267 106.737 29.632C105.916 30.0267 104.956 30.224 103.857 30.224ZM103.857 28.592C104.561 28.592 105.164 28.464 105.665 28.208C106.177 27.952 106.572 27.5947 106.849 27.136C107.126 26.6667 107.265 26.112 107.265 25.472C107.265 24.832 107.126 24.2827 106.849 23.824C106.572 23.3547 106.177 22.992 105.665 22.736C105.164 22.48 104.561 22.352 103.857 22.352C103.164 22.352 102.561 22.48 102.049 22.736C101.537 22.992 101.142 23.3547 100.865 23.824C100.588 24.2827 100.449 24.832 100.449 25.472C100.449 26.112 100.588 26.6667 100.865 27.136C101.142 27.5947 101.537 27.952 102.049 28.208C102.561 28.464 103.164 28.592 103.857 28.592ZM107.361 15.216H109.361L107.825 17.808H106.209L107.361 15.216ZM102.737 17.216H104.977L107.265 19.968H105.489L103.409 17.872H104.305L102.241 19.968H100.449L102.737 17.216ZM110.156 20.944H112.236L112.78 24.208V30H110.7V23.904L110.156 20.944ZM116.38 20.72C117.233 20.72 117.958 20.8907 118.556 21.232C119.153 21.5733 119.606 22.064 119.916 22.704C120.236 23.3333 120.396 24.096 120.396 24.992V30H118.316V25.328C118.316 24.3787 118.092 23.664 117.644 23.184C117.206 22.6933 116.561 22.448 115.708 22.448C115.121 22.448 114.604 22.5813 114.156 22.848C113.718 23.104 113.377 23.4667 113.132 23.936C112.897 24.4053 112.78 24.9547 112.78 25.584L112.044 25.184C112.14 24.2453 112.385 23.4453 112.78 22.784C113.174 22.1227 113.681 21.616 114.3 21.264C114.918 20.9013 115.612 20.72 116.38 20.72ZM130.222 27.776V26.176L130.302 25.888V24.144L130.222 23.824V20.944H132.302V27.584C132.302 28.7467 132.057 29.7173 131.566 30.496C131.076 31.2853 130.404 31.8773 129.55 32.272C128.697 32.6667 127.716 32.864 126.606 32.864C125.796 32.864 125.049 32.7573 124.366 32.544C123.684 32.3307 123.022 32.0053 122.382 31.568V29.84C123.033 30.352 123.705 30.7093 124.398 30.912C125.092 31.1253 125.785 31.232 126.478 31.232C127.694 31.232 128.622 30.9333 129.262 30.336C129.902 29.7387 130.222 28.8853 130.222 27.776ZM125.87 29.296C125.038 29.296 124.292 29.12 123.63 28.768C122.969 28.4053 122.446 27.904 122.062 27.264C121.678 26.624 121.486 25.872 121.486 25.008C121.486 24.144 121.678 23.392 122.062 22.752C122.446 22.112 122.969 21.616 123.63 21.264C124.292 20.9013 125.038 20.72 125.87 20.72C126.489 20.72 127.06 20.816 127.582 21.008C128.116 21.2 128.59 21.456 129.006 21.776C129.433 22.0853 129.79 22.432 130.078 22.816C130.377 23.1893 130.606 23.5733 130.766 23.968C130.926 24.352 131.006 24.704 131.006 25.024C131.006 25.44 130.884 25.8987 130.638 26.4C130.393 26.8907 130.041 27.3547 129.582 27.792C129.134 28.2293 128.596 28.592 127.966 28.88C127.337 29.1573 126.638 29.296 125.87 29.296ZM126.51 27.76C127.268 27.76 127.961 27.5413 128.59 27.104C129.23 26.6667 129.801 25.968 130.302 25.008C129.801 24.0267 129.23 23.3227 128.59 22.896C127.961 22.4587 127.268 22.24 126.51 22.24C125.892 22.24 125.364 22.3573 124.926 22.592C124.489 22.8267 124.153 23.152 123.918 23.568C123.694 23.984 123.582 24.464 123.582 25.008C123.582 25.5413 123.694 26.016 123.918 26.432C124.153 26.848 124.489 27.1733 124.926 27.408C125.364 27.6427 125.892 27.76 126.51 27.76Z" fill="white"/>
</svg>
