<svg width="100%" viewBox="0 0 1920 1051" fill="none" xmlns="http://www.w3.org/2000/svg">
<path d="M337.784 758.24L338.552 756.608C341.336 756.672 343.64 757.12 345.464 757.952C347.288 758.752 348.632 759.856 349.496 761.264C350.36 762.64 350.792 764.224 350.792 766.016C350.792 767.936 350.328 769.648 349.4 771.152C348.504 772.656 347.176 773.84 345.416 774.704C343.656 775.568 341.448 776 338.792 776H313.544L316.328 757.52L313.544 740H337.88C341.208 740 343.784 740.784 345.608 742.352C347.464 743.888 348.392 746.016 348.392 748.736C348.392 750.208 348.04 751.632 347.336 753.008C346.664 754.384 345.544 755.552 343.976 756.512C342.44 757.44 340.376 758.016 337.784 758.24ZM321.608 773.936L318.488 770H337.112C338.84 770 340.168 769.6 341.096 768.8C342.056 767.968 342.536 766.816 342.536 765.344C342.536 763.84 341.992 762.656 340.904 761.792C339.816 760.896 338.216 760.448 336.104 760.448H320.936V754.592H335.144C336.584 754.592 337.768 754.192 338.696 753.392C339.656 752.56 340.136 751.408 340.136 749.936C340.136 748.816 339.736 747.888 338.936 747.152C338.136 746.384 336.984 746 335.48 746H318.488L321.608 742.064L324.152 757.52L321.608 773.936ZM360.397 768.416V761.792H385.357V768.416H360.397ZM378.301 740L395.149 776H386.461L371.725 743.312H374.413L359.677 776H350.989L367.837 740H378.301ZM374.989 729.488H384.253L376.141 737.216H367.933L374.989 729.488ZM416.21 776.72C412.018 776.72 408.338 775.936 405.17 774.368C402.034 772.8 399.586 770.624 397.826 767.84C396.066 765.024 395.186 761.744 395.186 758C395.186 754.256 396.066 750.992 397.826 748.208C399.586 745.392 402.034 743.2 405.17 741.632C408.338 740.064 412.018 739.28 416.21 739.28C420.402 739.28 424.066 740.064 427.202 741.632C430.37 743.2 432.834 745.392 434.594 748.208C436.354 750.992 437.234 754.256 437.234 758C437.234 761.744 436.354 765.024 434.594 767.84C432.834 770.624 430.37 772.8 427.202 774.368C424.066 775.936 420.402 776.72 416.21 776.72ZM416.21 769.472C418.834 769.472 421.09 769.008 422.978 768.08C424.898 767.152 426.37 765.824 427.394 764.096C428.45 762.368 428.978 760.336 428.978 758C428.978 755.664 428.45 753.632 427.394 751.904C426.37 750.176 424.898 748.848 422.978 747.92C421.09 746.992 418.834 746.528 416.21 746.528C413.618 746.528 411.362 746.992 409.442 747.92C407.522 748.848 406.034 750.176 404.978 751.904C403.954 753.632 403.442 755.664 403.442 758C403.442 760.336 403.954 762.368 404.978 764.096C406.034 765.824 407.522 767.152 409.442 768.08C411.362 769.008 413.618 769.472 416.21 769.472ZM494.11 761.36C493.758 764.4 492.686 767.088 490.894 769.424C489.134 771.728 486.798 773.52 483.886 774.8C481.006 776.08 477.71 776.72 473.998 776.72C469.902 776.72 466.302 775.936 463.198 774.368C460.126 772.8 457.726 770.624 455.998 767.84C454.27 765.024 453.406 761.744 453.406 758C453.406 754.256 454.27 750.992 455.998 748.208C457.726 745.392 460.126 743.2 463.198 741.632C466.302 740.064 469.902 739.28 473.998 739.28C477.71 739.28 481.006 739.92 483.886 741.2C486.798 742.48 489.134 744.272 490.894 746.576C492.686 748.88 493.758 751.568 494.11 754.64H485.902C485.582 752.944 484.894 751.488 483.838 750.272C482.782 749.024 481.422 748.064 479.758 747.392C478.094 746.72 476.158 746.384 473.95 746.384C471.422 746.384 469.23 746.864 467.374 747.824C465.55 748.752 464.142 750.096 463.15 751.856C462.158 753.584 461.662 755.632 461.662 758C461.662 760.368 462.158 762.432 463.15 764.192C464.142 765.92 465.55 767.264 467.374 768.224C469.23 769.152 471.422 769.616 473.95 769.616C476.158 769.616 478.094 769.296 479.758 768.656C481.422 767.984 482.782 767.04 483.838 765.824C484.894 764.576 485.582 763.088 485.902 761.36H494.11ZM503.553 768.416V761.792H528.513V768.416H503.553ZM521.457 740L538.305 776H529.617L514.881 743.312H517.569L502.833 776H494.145L510.993 740H521.457ZM518.145 729.488H527.409L519.297 737.216H511.089L518.145 729.488ZM559.366 776.72C555.174 776.72 551.494 775.936 548.326 774.368C545.19 772.8 542.742 770.624 540.982 767.84C539.222 765.024 538.342 761.744 538.342 758C538.342 754.256 539.222 750.992 540.982 748.208C542.742 745.392 545.19 743.2 548.326 741.632C551.494 740.064 555.174 739.28 559.366 739.28C563.558 739.28 567.222 740.064 570.358 741.632C573.526 743.2 575.99 745.392 577.75 748.208C579.51 750.992 580.39 754.256 580.39 758C580.39 761.744 579.51 765.024 577.75 767.84C575.99 770.624 573.526 772.8 570.358 774.368C567.222 775.936 563.558 776.72 559.366 776.72ZM559.366 769.472C561.99 769.472 564.246 769.008 566.134 768.08C568.054 767.152 569.526 765.824 570.55 764.096C571.606 762.368 572.134 760.336 572.134 758C572.134 755.664 571.606 753.632 570.55 751.904C569.526 750.176 568.054 748.848 566.134 747.92C564.246 746.992 561.99 746.528 559.366 746.528C556.774 746.528 554.518 746.992 552.598 747.92C550.678 748.848 549.19 750.176 548.134 751.904C547.11 753.632 546.598 755.664 546.598 758C546.598 760.336 547.11 762.368 548.134 764.096C549.19 765.824 550.678 767.152 552.598 768.08C554.518 769.008 556.774 769.472 559.366 769.472ZM608.168 743.648H616.28V776H608.168V743.648ZM593.816 740H630.584V747.2H593.816V740ZM634.991 768.416V761.792H659.951V768.416H634.991ZM652.895 740L669.743 776H661.055L646.319 743.312H649.007L634.271 776H625.583L642.431 740H652.895ZM645.167 729.488L652.223 737.216H644.015L635.903 729.488H645.167ZM673.618 740H681.778V776H673.618V740ZM740.391 761.36C740.039 764.4 738.967 767.088 737.175 769.424C735.415 771.728 733.079 773.52 730.167 774.8C727.287 776.08 723.991 776.72 720.279 776.72C716.183 776.72 712.583 775.936 709.479 774.368C706.407 772.8 704.007 770.624 702.279 767.84C700.551 765.024 699.687 761.744 699.687 758C699.687 754.256 700.551 750.992 702.279 748.208C704.007 745.392 706.407 743.2 709.479 741.632C712.583 740.064 716.183 739.28 720.279 739.28C723.991 739.28 727.287 739.92 730.167 741.2C733.079 742.48 735.415 744.272 737.175 746.576C738.967 748.88 740.039 751.568 740.391 754.64H732.183C731.863 752.944 731.175 751.488 730.119 750.272C729.063 749.024 727.703 748.064 726.039 747.392C724.375 746.72 722.439 746.384 720.231 746.384C717.703 746.384 715.511 746.864 713.655 747.824C711.831 748.752 710.423 750.096 709.431 751.856C708.439 753.584 707.943 755.632 707.943 758C707.943 760.368 708.439 762.432 709.431 764.192C710.423 765.92 711.831 767.264 713.655 768.224C715.511 769.152 717.703 769.616 720.231 769.616C722.439 769.616 724.375 769.296 726.039 768.656C727.703 767.984 729.063 767.04 730.119 765.824C731.175 764.576 731.863 763.088 732.183 761.36H740.391ZM745.712 740H753.872V776H745.712V740ZM774.512 740H782.672V776H774.512V740ZM750.176 754.208H778.112V761.36H750.176V754.208ZM790.055 740H798.215V776H790.055V740ZM796.007 729.488H805.271L797.159 737.216H788.951L796.007 729.488ZM838.931 770.624L836.099 771.056V740H844.019V776H833.699L810.659 744.944L813.443 744.512V776H805.571V740H816.131L838.931 770.624ZM851.368 740H859.528V776H851.368V740ZM880.168 740H888.328V776H880.168V740ZM855.832 754.208H883.768V761.36H855.832V754.208Z" fill="#24CBFF"/>
</svg>
