<svg width="100%" viewBox="0 0 375 812" fill="none" xmlns="http://www.w3.org/2000/svg">
<path d="M29.856 569.16L30.368 568.072C32.224 568.115 33.76 568.413 34.976 568.968C36.192 569.501 37.088 570.237 37.664 571.176C38.24 572.093 38.528 573.149 38.528 574.344C38.528 575.624 38.2187 576.765 37.6 577.768C37.0027 578.771 36.1173 579.56 34.944 580.136C33.7707 580.712 32.2987 581 30.528 581H13.696L15.552 568.68L13.696 557H29.92C32.1387 557 33.856 557.523 35.072 558.568C36.3093 559.592 36.928 561.011 36.928 562.824C36.928 563.805 36.6933 564.755 36.224 565.672C35.776 566.589 35.0293 567.368 33.984 568.008C32.96 568.627 31.584 569.011 29.856 569.16ZM19.072 579.624L16.992 577H29.408C30.56 577 31.4453 576.733 32.064 576.2C32.704 575.645 33.024 574.877 33.024 573.896C33.024 572.893 32.6613 572.104 31.936 571.528C31.2107 570.931 30.144 570.632 28.736 570.632H18.624V566.728H28.096C29.056 566.728 29.8453 566.461 30.464 565.928C31.104 565.373 31.424 564.605 31.424 563.624C31.424 562.877 31.1573 562.259 30.624 561.768C30.0907 561.256 29.3227 561 28.32 561H16.992L19.072 558.376L20.768 568.68L19.072 579.624ZM44.9313 575.944V571.528H61.5713V575.944H44.9313ZM56.8673 557L68.0993 581H62.3073L52.4833 559.208H54.2753L44.4513 581H38.6593L49.8913 557H56.8673ZM54.6593 549.992H60.8353L55.4272 555.144H49.9553L54.6593 549.992ZM82.1398 581.48C79.3451 581.48 76.8918 580.957 74.7798 579.912C72.6891 578.867 71.0571 577.416 69.8838 575.56C68.7104 573.683 68.1238 571.496 68.1238 569C68.1238 566.504 68.7104 564.328 69.8838 562.472C71.0571 560.595 72.6891 559.133 74.7798 558.088C76.8918 557.043 79.3451 556.52 82.1398 556.52C84.9344 556.52 87.3771 557.043 89.4678 558.088C91.5798 559.133 93.2224 560.595 94.3958 562.472C95.5691 564.328 96.1558 566.504 96.1558 569C96.1558 571.496 95.5691 573.683 94.3958 575.56C93.2224 577.416 91.5798 578.867 89.4678 579.912C87.3771 580.957 84.9344 581.48 82.1398 581.48ZM82.1398 576.648C83.8891 576.648 85.3931 576.339 86.6518 575.72C87.9318 575.101 88.9131 574.216 89.5958 573.064C90.2998 571.912 90.6518 570.557 90.6518 569C90.6518 567.443 90.2998 566.088 89.5958 564.936C88.9131 563.784 87.9318 562.899 86.6518 562.28C85.3931 561.661 83.8891 561.352 82.1398 561.352C80.4118 561.352 78.9078 561.661 77.6278 562.28C76.3478 562.899 75.3558 563.784 74.6518 564.936C73.9691 566.088 73.6278 567.443 73.6278 569C73.6278 570.557 73.9691 571.912 74.6518 573.064C75.3558 574.216 76.3478 575.101 77.6278 575.72C78.9078 576.339 80.4118 576.648 82.1398 576.648ZM134.073 571.24C133.838 573.267 133.124 575.059 131.929 576.616C130.756 578.152 129.198 579.347 127.257 580.2C125.337 581.053 123.14 581.48 120.665 581.48C117.934 581.48 115.534 580.957 113.465 579.912C111.417 578.867 109.817 577.416 108.665 575.56C107.513 573.683 106.937 571.496 106.937 569C106.937 566.504 107.513 564.328 108.665 562.472C109.817 560.595 111.417 559.133 113.465 558.088C115.534 557.043 117.934 556.52 120.665 556.52C123.14 556.52 125.337 556.947 127.257 557.8C129.198 558.653 130.756 559.848 131.929 561.384C133.124 562.92 133.838 564.712 134.073 566.76H128.601C128.388 565.629 127.929 564.659 127.225 563.848C126.521 563.016 125.614 562.376 124.505 561.928C123.396 561.48 122.105 561.256 120.633 561.256C118.948 561.256 117.486 561.576 116.249 562.216C115.033 562.835 114.094 563.731 113.433 564.904C112.772 566.056 112.441 567.421 112.441 569C112.441 570.579 112.772 571.955 113.433 573.128C114.094 574.28 115.033 575.176 116.249 575.816C117.486 576.435 118.948 576.744 120.633 576.744C122.105 576.744 123.396 576.531 124.505 576.104C125.614 575.656 126.521 575.027 127.225 574.216C127.929 573.384 128.388 572.392 128.601 571.24H134.073ZM140.369 575.944V571.528H157.009V575.944H140.369ZM152.305 557L163.537 581H157.745L147.921 559.208H149.713L139.889 581H134.097L145.329 557H152.305ZM150.097 549.992H156.273L150.865 555.144H145.393L150.097 549.992ZM177.577 581.48C174.783 581.48 172.329 580.957 170.217 579.912C168.127 578.867 166.495 577.416 165.321 575.56C164.148 573.683 163.561 571.496 163.561 569C163.561 566.504 164.148 564.328 165.321 562.472C166.495 560.595 168.127 559.133 170.217 558.088C172.329 557.043 174.783 556.52 177.577 556.52C180.372 556.52 182.815 557.043 184.905 558.088C187.017 559.133 188.66 560.595 189.833 562.472C191.007 564.328 191.593 566.504 191.593 569C191.593 571.496 191.007 573.683 189.833 575.56C188.66 577.416 187.017 578.867 184.905 579.912C182.815 580.957 180.372 581.48 177.577 581.48ZM177.577 576.648C179.327 576.648 180.831 576.339 182.089 575.72C183.369 575.101 184.351 574.216 185.033 573.064C185.737 571.912 186.089 570.557 186.089 569C186.089 567.443 185.737 566.088 185.033 564.936C184.351 563.784 183.369 562.899 182.089 562.28C180.831 561.661 179.327 561.352 177.577 561.352C175.849 561.352 174.345 561.661 173.065 562.28C171.785 562.899 170.793 563.784 170.089 564.936C169.407 566.088 169.065 567.443 169.065 569C169.065 570.557 169.407 571.912 170.089 573.064C170.793 574.216 171.785 575.101 173.065 575.72C174.345 576.339 175.849 576.648 177.577 576.648ZM22.112 599.432H27.52V621H22.112V599.432ZM12.544 597H37.056V601.8H12.544V597ZM39.9938 615.944V611.528H56.6338V615.944H39.9938ZM51.9298 597L63.1618 621H57.3698L47.5458 599.208H49.3378L39.5138 621H33.7218L44.9538 597H51.9298ZM46.7778 589.992L51.4818 595.144H46.0098L40.6018 589.992H46.7778ZM65.7453 597H71.1853V621H65.7453V597ZM110.261 611.24C110.026 613.267 109.311 615.059 108.117 616.616C106.943 618.152 105.386 619.347 103.445 620.2C101.525 621.053 99.3272 621.48 96.8525 621.48C94.1218 621.48 91.7218 620.957 89.6525 619.912C87.6045 618.867 86.0045 617.416 84.8525 615.56C83.7005 613.683 83.1245 611.496 83.1245 609C83.1245 606.504 83.7005 604.328 84.8525 602.472C86.0045 600.595 87.6045 599.133 89.6525 598.088C91.7218 597.043 94.1218 596.52 96.8525 596.52C99.3272 596.52 101.525 596.947 103.445 597.8C105.386 598.653 106.943 599.848 108.117 601.384C109.311 602.92 110.026 604.712 110.261 606.76H104.789C104.575 605.629 104.117 604.659 103.413 603.848C102.709 603.016 101.802 602.376 100.693 601.928C99.5832 601.48 98.2925 601.256 96.8205 601.256C95.1352 601.256 93.6738 601.576 92.4365 602.216C91.2205 602.835 90.2818 603.731 89.6205 604.904C88.9592 606.056 88.6285 607.421 88.6285 609C88.6285 610.579 88.9592 611.955 89.6205 613.128C90.2818 614.28 91.2205 615.176 92.4365 615.816C93.6738 616.435 95.1352 616.744 96.8205 616.744C98.2925 616.744 99.5832 616.531 100.693 616.104C101.802 615.656 102.709 615.027 103.413 614.216C104.117 613.384 104.575 612.392 104.789 611.24H110.261ZM113.808 597H119.248V621H113.808V597ZM133.008 597H138.448V621H133.008V597ZM116.784 606.472H135.408V611.24H116.784V606.472ZM143.37 597H148.81V621H143.37V597ZM147.338 589.992H153.514L148.106 595.144H142.634L147.338 589.992ZM175.954 617.416L174.066 617.704V597H179.346V621H172.466L157.106 600.296L158.962 600.008V621H153.714V597H160.754L175.954 617.416ZM184.245 597H189.685V621H184.245V597ZM203.445 597H208.885V621H203.445V597ZM187.221 606.472H205.845V611.24H187.221V606.472Z" fill="#24CBFF"/>
</svg>
