<svg width="100%" viewBox="0 0 140 40" fill="none" xmlns="http://www.w3.org/2000/svg">
<path d="M0 8C0 3.58172 3.58172 0 8 0H132C136.418 0 140 3.58172 140 8V32C140 36.4183 136.418 40 132 40H8C3.58172 40 0 36.4183 0 32V8Z" fill="#24408E"/>
<path d="M23.9993 22.0001V24.0001H15.9993V22.0001H14.666V24.0001C14.666 24.7334 15.266 25.3334 15.9993 25.3334H23.9993C24.7327 25.3334 25.3327 24.7334 25.3327 24.0001V22.0001H23.9993ZM23.3327 19.3334L22.3927 18.3934L20.666 20.1134V14.6667H19.3327V20.1134L17.606 18.3934L16.666 19.3334L19.9993 22.6667L23.3327 19.3334Z" fill="white"/>
<path d="M40.564 15.354H42.412V25H40.564V15.354ZM36.224 14.5H46.752V16.124H36.224V14.5ZM52.4556 25L52.1476 22.06L52.5116 21.038L52.1476 20.03L52.4556 17.076H54.3316L53.9116 21.038L54.3316 25H52.4556ZM53.0156 21.038C52.8382 21.8687 52.5442 22.5967 52.1336 23.222C51.7229 23.8473 51.2142 24.3327 50.6076 24.678C50.0102 25.0233 49.3429 25.196 48.6056 25.196C47.8309 25.196 47.1449 25.0233 46.5476 24.678C45.9502 24.3233 45.4836 23.8333 45.1476 23.208C44.8116 22.5827 44.6436 21.8593 44.6436 21.038C44.6436 20.2073 44.8116 19.484 45.1476 18.868C45.4836 18.2427 45.9502 17.7573 46.5476 17.412C47.1449 17.0573 47.8309 16.88 48.6056 16.88C49.3429 16.88 50.0102 17.0527 50.6076 17.398C51.2142 17.7433 51.7229 18.2287 52.1336 18.854C52.5536 19.47 52.8476 20.198 53.0156 21.038ZM46.4916 21.038C46.4916 21.57 46.5989 22.0413 46.8136 22.452C47.0376 22.8533 47.3409 23.1707 47.7236 23.404C48.1062 23.628 48.5449 23.74 49.0396 23.74C49.5436 23.74 50.0102 23.628 50.4396 23.404C50.8689 23.1707 51.2469 22.8533 51.5736 22.452C51.9096 22.0413 52.1756 21.57 52.3716 21.038C52.1756 20.506 51.9096 20.0393 51.5736 19.638C51.2469 19.2273 50.8689 18.91 50.4396 18.686C50.0102 18.4527 49.5436 18.336 49.0396 18.336C48.5449 18.336 48.1062 18.4527 47.7236 18.686C47.3409 18.91 47.0376 19.2273 46.8136 19.638C46.5989 20.0393 46.4916 20.506 46.4916 21.038ZM49.1236 16.418L48.7316 15.774C49.0302 15.69 49.2589 15.578 49.4176 15.438C49.5856 15.298 49.6696 15.1393 49.6696 14.962C49.6696 14.794 49.5902 14.668 49.4316 14.584C49.2822 14.4907 49.0629 14.444 48.7736 14.444C48.5962 14.444 48.4282 14.4533 48.2696 14.472C48.1109 14.4907 47.9522 14.5187 47.7936 14.556V13.464C47.9522 13.4173 48.1529 13.38 48.3956 13.352C48.6382 13.3147 48.8949 13.296 49.1656 13.296C49.8002 13.296 50.2949 13.4173 50.6496 13.66C51.0042 13.9027 51.1816 14.2387 51.1816 14.668C51.1816 15.088 51.0136 15.4473 50.6776 15.746C50.3509 16.0353 49.8329 16.2593 49.1236 16.418ZM55.6631 17.02L56.5731 17.188L57.4831 17.02V25H55.6631V17.02ZM56.5731 16.026C56.2278 16.026 55.9431 15.9327 55.7191 15.746C55.4951 15.55 55.3831 15.298 55.3831 14.99C55.3831 14.682 55.4951 14.4347 55.7191 14.248C55.9431 14.052 56.2278 13.954 56.5731 13.954C56.9278 13.954 57.2124 14.052 57.4271 14.248C57.6511 14.4347 57.7631 14.682 57.7631 14.99C57.7631 15.298 57.6511 15.55 57.4271 15.746C57.2124 15.9327 56.9278 16.026 56.5731 16.026ZM62.2743 14.22H64.0943V19.806L63.8143 20.324V21.794L64.0943 22.382V25H62.2743V14.22ZM63.3663 21.038C63.5436 20.198 63.8376 19.47 64.2483 18.854C64.6589 18.2287 65.1629 17.7433 65.7603 17.398C66.3669 17.0527 67.0389 16.88 67.7763 16.88C68.5509 16.88 69.2369 17.0573 69.8343 17.412C70.4316 17.7573 70.8983 18.2427 71.2343 18.868C71.5703 19.484 71.7383 20.2073 71.7383 21.038C71.7383 21.8593 71.5703 22.5827 71.2343 23.208C70.8983 23.8333 70.4316 24.3233 69.8343 24.678C69.2369 25.0233 68.5509 25.196 67.7763 25.196C67.0389 25.196 66.3669 25.0233 65.7603 24.678C65.1629 24.3327 64.6589 23.8473 64.2483 23.222C63.8376 22.5967 63.5436 21.8687 63.3663 21.038ZM69.8903 21.038C69.8903 20.506 69.7783 20.0393 69.5543 19.638C69.3396 19.2273 69.0409 18.91 68.6583 18.686C68.2756 18.4527 67.8369 18.336 67.3423 18.336C66.8476 18.336 66.3809 18.4527 65.9423 18.686C65.5129 18.91 65.1349 19.2273 64.8083 19.638C64.4816 20.0393 64.2156 20.506 64.0103 21.038C64.2156 21.57 64.4816 22.0413 64.8083 22.452C65.1349 22.8533 65.5129 23.1707 65.9423 23.404C66.3809 23.628 66.8476 23.74 67.3423 23.74C67.8369 23.74 68.2756 23.628 68.6583 23.404C69.0409 23.1707 69.3396 22.8533 69.5543 22.452C69.7783 22.0413 69.8903 21.57 69.8903 21.038ZM80.2248 25L79.9168 22.06L80.2808 21.038L79.9168 20.03L80.2248 17.076H82.1008L81.6808 21.038L82.1008 25H80.2248ZM80.7848 21.038C80.6075 21.8687 80.3135 22.5967 79.9028 23.222C79.4921 23.8473 78.9835 24.3327 78.3768 24.678C77.7795 25.0233 77.1121 25.196 76.3748 25.196C75.6001 25.196 74.9141 25.0233 74.3168 24.678C73.7195 24.3233 73.2528 23.8333 72.9168 23.208C72.5808 22.5827 72.4128 21.8593 72.4128 21.038C72.4128 20.2073 72.5808 19.484 72.9168 18.868C73.2528 18.2427 73.7195 17.7573 74.3168 17.412C74.9141 17.0573 75.6001 16.88 76.3748 16.88C77.1121 16.88 77.7795 17.0527 78.3768 17.398C78.9835 17.7433 79.4921 18.2287 79.9028 18.854C80.3228 19.47 80.6168 20.198 80.7848 21.038ZM74.2608 21.038C74.2608 21.57 74.3681 22.0413 74.5828 22.452C74.8068 22.8533 75.1101 23.1707 75.4928 23.404C75.8755 23.628 76.3141 23.74 76.8088 23.74C77.3128 23.74 77.7795 23.628 78.2088 23.404C78.6381 23.1707 79.0161 22.8533 79.3428 22.452C79.6788 22.0413 79.9448 21.57 80.1408 21.038C79.9448 20.506 79.6788 20.0393 79.3428 19.638C79.0161 19.2273 78.6381 18.91 78.2088 18.686C77.7795 18.4527 77.3128 18.336 76.8088 18.336C76.3141 18.336 75.8755 18.4527 75.4928 18.686C75.1101 18.91 74.8068 19.2273 74.5828 19.638C74.3681 20.0393 74.2608 20.506 74.2608 21.038ZM77.9148 13.814H79.7348L77.9568 16.222H76.2068L77.9148 13.814ZM87.8143 25.196C86.853 25.196 86.0083 25.0233 85.2803 24.678C84.5617 24.3233 83.997 23.8333 83.5863 23.208C83.185 22.5827 82.9843 21.8593 82.9843 21.038C82.9843 20.2073 83.185 19.484 83.5863 18.868C83.997 18.2427 84.5617 17.7573 85.2803 17.412C86.0083 17.0573 86.853 16.88 87.8143 16.88C88.7757 16.88 89.6157 17.0573 90.3343 17.412C91.0623 17.7573 91.627 18.2427 92.0283 18.868C92.439 19.484 92.6443 20.2073 92.6443 21.038C92.6443 21.8593 92.439 22.5827 92.0283 23.208C91.627 23.8333 91.0623 24.3233 90.3343 24.678C89.6157 25.0233 88.7757 25.196 87.8143 25.196ZM87.8143 23.768C88.4303 23.768 88.9577 23.656 89.3963 23.432C89.8443 23.208 90.1897 22.8953 90.4323 22.494C90.675 22.0833 90.7963 21.598 90.7963 21.038C90.7963 20.478 90.675 19.9973 90.4323 19.596C90.1897 19.1853 89.8443 18.868 89.3963 18.644C88.9577 18.42 88.4303 18.308 87.8143 18.308C87.2077 18.308 86.6803 18.42 86.2323 18.644C85.7843 18.868 85.439 19.1853 85.1963 19.596C84.9537 19.9973 84.8323 20.478 84.8323 21.038C84.8323 21.598 84.9537 22.0833 85.1963 22.494C85.439 22.8953 85.7843 23.208 86.2323 23.432C86.6803 23.656 87.2077 23.768 87.8143 23.768ZM105.739 21.878C105.645 22.5313 105.389 23.11 104.969 23.614C104.549 24.1087 104.012 24.496 103.359 24.776C102.705 25.056 101.977 25.196 101.175 25.196C100.26 25.196 99.4528 25.0233 98.7528 24.678C98.0621 24.3233 97.5208 23.8333 97.1288 23.208C96.7368 22.5827 96.5408 21.8593 96.5408 21.038C96.5408 20.2167 96.7368 19.4933 97.1288 18.868C97.5208 18.2427 98.0621 17.7573 98.7528 17.412C99.4528 17.0573 100.26 16.88 101.175 16.88C101.977 16.88 102.705 17.02 103.359 17.3C104.012 17.58 104.549 17.972 104.969 18.476C105.389 18.9707 105.645 19.5493 105.739 20.212H103.905C103.774 19.6147 103.461 19.148 102.967 18.812C102.472 18.476 101.875 18.308 101.175 18.308C100.615 18.308 100.125 18.42 99.7048 18.644C99.2848 18.8587 98.9581 19.1713 98.7248 19.582C98.5008 19.9833 98.3888 20.4687 98.3888 21.038C98.3888 21.598 98.5008 22.0833 98.7248 22.494C98.9581 22.9047 99.2848 23.222 99.7048 23.446C100.125 23.6607 100.615 23.768 101.175 23.768C101.884 23.768 102.486 23.5953 102.981 23.25C103.475 22.9047 103.783 22.4473 103.905 21.878H105.739ZM114.092 25L113.784 22.06L114.148 21.038L113.784 20.03L114.092 17.076H115.968L115.548 21.038L115.968 25H114.092ZM114.652 21.038C114.474 21.8687 114.18 22.5967 113.77 23.222C113.359 23.8473 112.85 24.3327 112.244 24.678C111.646 25.0233 110.979 25.196 110.242 25.196C109.467 25.196 108.781 25.0233 108.184 24.678C107.586 24.3233 107.12 23.8333 106.784 23.208C106.448 22.5827 106.28 21.8593 106.28 21.038C106.28 20.2073 106.448 19.484 106.784 18.868C107.12 18.2427 107.586 17.7573 108.184 17.412C108.781 17.0573 109.467 16.88 110.242 16.88C110.979 16.88 111.646 17.0527 112.244 17.398C112.85 17.7433 113.359 18.2287 113.77 18.854C114.19 19.47 114.484 20.198 114.652 21.038ZM108.128 21.038C108.128 21.57 108.235 22.0413 108.45 22.452C108.674 22.8533 108.977 23.1707 109.36 23.404C109.742 23.628 110.181 23.74 110.676 23.74C111.18 23.74 111.646 23.628 112.076 23.404C112.505 23.1707 112.883 22.8533 113.21 22.452C113.546 22.0413 113.812 21.57 114.008 21.038C113.812 20.506 113.546 20.0393 113.21 19.638C112.883 19.2273 112.505 18.91 112.076 18.686C111.646 18.4527 111.18 18.336 110.676 18.336C110.181 18.336 109.742 18.4527 109.36 18.686C108.977 18.91 108.674 19.2273 108.45 19.638C108.235 20.0393 108.128 20.506 108.128 21.038ZM111.782 13.814H113.602L111.824 16.222H110.074L111.782 13.814ZM121.681 25.196C120.72 25.196 119.875 25.0233 119.147 24.678C118.429 24.3233 117.864 23.8333 117.453 23.208C117.052 22.5827 116.851 21.8593 116.851 21.038C116.851 20.2073 117.052 19.484 117.453 18.868C117.864 18.2427 118.429 17.7573 119.147 17.412C119.875 17.0573 120.72 16.88 121.681 16.88C122.643 16.88 123.483 17.0573 124.201 17.412C124.929 17.7573 125.494 18.2427 125.895 18.868C126.306 19.484 126.511 20.2073 126.511 21.038C126.511 21.8593 126.306 22.5827 125.895 23.208C125.494 23.8333 124.929 24.3233 124.201 24.678C123.483 25.0233 122.643 25.196 121.681 25.196ZM121.681 23.768C122.297 23.768 122.825 23.656 123.263 23.432C123.711 23.208 124.057 22.8953 124.299 22.494C124.542 22.0833 124.663 21.598 124.663 21.038C124.663 20.478 124.542 19.9973 124.299 19.596C124.057 19.1853 123.711 18.868 123.263 18.644C122.825 18.42 122.297 18.308 121.681 18.308C121.075 18.308 120.547 18.42 120.099 18.644C119.651 18.868 119.306 19.1853 119.063 19.596C118.821 19.9973 118.699 20.478 118.699 21.038C118.699 21.598 118.821 22.0833 119.063 22.494C119.306 22.8953 119.651 23.208 120.099 23.432C120.547 23.656 121.075 23.768 121.681 23.768Z" fill="white"/>
</svg>
