<svg width="100%" viewBox="0 0 127 40" fill="none" xmlns="http://www.w3.org/2000/svg">
<path d="M0 8C0 3.58172 3.58172 0 8 0H119C123.418 0 127 3.58172 127 8V32C127 36.4183 123.418 40 119 40H8C3.58172 40 0 36.4183 0 32V8Z" fill="#24408E"/>
<path d="M20.0001 22.0001V24.0001H12.0001V22.0001H10.6667V24.0001C10.6667 24.7334 11.2667 25.3334 12.0001 25.3334H20.0001C20.7334 25.3334 21.3334 24.7334 21.3334 24.0001V22.0001H20.0001ZM19.3334 19.3334L18.3934 18.3934L16.6667 20.1134V14.6667H15.3334V20.1134L13.6067 18.3934L12.6667 19.3334L16.0001 22.6667L19.3334 19.3334Z" fill="white"/>
<path d="M36.564 15.354H38.412V25H36.564V15.354ZM32.224 14.5H42.752V16.124H32.224V14.5ZM48.4556 25L48.1476 22.06L48.5116 21.038L48.1476 20.03L48.4556 17.076H50.3316L49.9116 21.038L50.3316 25H48.4556ZM49.0156 21.038C48.8382 21.8687 48.5442 22.5967 48.1336 23.222C47.7229 23.8473 47.2142 24.3327 46.6076 24.678C46.0102 25.0233 45.3429 25.196 44.6056 25.196C43.8309 25.196 43.1449 25.0233 42.5476 24.678C41.9502 24.3233 41.4836 23.8333 41.1476 23.208C40.8116 22.5827 40.6436 21.8593 40.6436 21.038C40.6436 20.2073 40.8116 19.484 41.1476 18.868C41.4836 18.2427 41.9502 17.7573 42.5476 17.412C43.1449 17.0573 43.8309 16.88 44.6056 16.88C45.3429 16.88 46.0102 17.0527 46.6076 17.398C47.2142 17.7433 47.7229 18.2287 48.1336 18.854C48.5536 19.47 48.8476 20.198 49.0156 21.038ZM42.4916 21.038C42.4916 21.57 42.5989 22.0413 42.8136 22.452C43.0376 22.8533 43.3409 23.1707 43.7236 23.404C44.1062 23.628 44.5449 23.74 45.0396 23.74C45.5436 23.74 46.0102 23.628 46.4396 23.404C46.8689 23.1707 47.2469 22.8533 47.5736 22.452C47.9096 22.0413 48.1756 21.57 48.3716 21.038C48.1756 20.506 47.9096 20.0393 47.5736 19.638C47.2469 19.2273 46.8689 18.91 46.4396 18.686C46.0102 18.4527 45.5436 18.336 45.0396 18.336C44.5449 18.336 44.1062 18.4527 43.7236 18.686C43.3409 18.91 43.0376 19.2273 42.8136 19.638C42.5989 20.0393 42.4916 20.506 42.4916 21.038ZM45.1236 16.418L44.7316 15.774C45.0302 15.69 45.2589 15.578 45.4176 15.438C45.5856 15.298 45.6696 15.1393 45.6696 14.962C45.6696 14.794 45.5902 14.668 45.4316 14.584C45.2822 14.4907 45.0629 14.444 44.7736 14.444C44.5962 14.444 44.4282 14.4533 44.2696 14.472C44.1109 14.4907 43.9522 14.5187 43.7936 14.556V13.464C43.9522 13.4173 44.1529 13.38 44.3956 13.352C44.6382 13.3147 44.8949 13.296 45.1656 13.296C45.8002 13.296 46.2949 13.4173 46.6496 13.66C47.0042 13.9027 47.1816 14.2387 47.1816 14.668C47.1816 15.088 47.0136 15.4473 46.6776 15.746C46.3509 16.0353 45.8329 16.2593 45.1236 16.418ZM51.6631 17.02L52.5731 17.188L53.4831 17.02V25H51.6631V17.02ZM52.5731 16.026C52.2278 16.026 51.9431 15.9327 51.7191 15.746C51.4951 15.55 51.3831 15.298 51.3831 14.99C51.3831 14.682 51.4951 14.4347 51.7191 14.248C51.9431 14.052 52.2278 13.954 52.5731 13.954C52.9278 13.954 53.2124 14.052 53.4271 14.248C53.6511 14.4347 53.7631 14.682 53.7631 14.99C53.7631 15.298 53.6511 15.55 53.4271 15.746C53.2124 15.9327 52.9278 16.026 52.5731 16.026ZM67.0243 21.878C66.9309 22.5313 66.6743 23.11 66.2543 23.614C65.8343 24.1087 65.2976 24.496 64.6443 24.776C63.9909 25.056 63.2629 25.196 62.4603 25.196C61.5456 25.196 60.7383 25.0233 60.0383 24.678C59.3476 24.3233 58.8063 23.8333 58.4143 23.208C58.0223 22.5827 57.8263 21.8593 57.8263 21.038C57.8263 20.2167 58.0223 19.4933 58.4143 18.868C58.8063 18.2427 59.3476 17.7573 60.0383 17.412C60.7383 17.0573 61.5456 16.88 62.4603 16.88C63.2629 16.88 63.9909 17.02 64.6443 17.3C65.2976 17.58 65.8343 17.972 66.2543 18.476C66.6743 18.9707 66.9309 19.5493 67.0243 20.212H65.1903C65.0596 19.6147 64.7469 19.148 64.2523 18.812C63.7576 18.476 63.1603 18.308 62.4603 18.308C61.9003 18.308 61.4103 18.42 60.9903 18.644C60.5703 18.8587 60.2436 19.1713 60.0103 19.582C59.7863 19.9833 59.6743 20.4687 59.6743 21.038C59.6743 21.598 59.7863 22.0833 60.0103 22.494C60.2436 22.9047 60.5703 23.222 60.9903 23.446C61.4103 23.6607 61.9003 23.768 62.4603 23.768C63.1696 23.768 63.7716 23.5953 64.2663 23.25C64.7609 22.9047 65.0689 22.4473 65.1903 21.878H67.0243ZM67.9851 14.22H69.8051V25H67.9851V14.22ZM72.9551 16.88C73.7018 16.88 74.3365 17.0293 74.8591 17.328C75.3818 17.6267 75.7785 18.056 76.0491 18.616C76.3291 19.1667 76.4691 19.834 76.4691 20.618V25H74.6491V20.912C74.6491 20.0813 74.4531 19.456 74.0611 19.036C73.6785 18.6067 73.1138 18.392 72.3671 18.392C71.8538 18.392 71.4011 18.5087 71.0091 18.742C70.6265 18.966 70.3278 19.2833 70.1131 19.694C69.9078 20.1047 69.8051 20.5853 69.8051 21.136L69.1611 20.786C69.2451 19.9647 69.4598 19.2647 69.8051 18.686C70.1505 18.1073 70.5938 17.664 71.1351 17.356C71.6765 17.0387 72.2831 16.88 72.9551 16.88ZM81.1917 25.196C80.4637 25.196 79.8431 25.0467 79.3297 24.748C78.8257 24.4493 78.4384 24.02 78.1677 23.46C77.8971 22.9 77.7617 22.2327 77.7617 21.458V17.076H79.5817V21.178C79.5817 21.9993 79.7684 22.6247 80.1417 23.054C80.5244 23.474 81.0704 23.684 81.7797 23.684C82.2931 23.684 82.7317 23.572 83.0957 23.348C83.4691 23.124 83.7584 22.8067 83.9637 22.396C84.1691 21.976 84.2717 21.4907 84.2717 20.94L84.9017 21.29C84.8271 22.102 84.6217 22.802 84.2857 23.39C83.9497 23.9687 83.5157 24.4167 82.9837 24.734C82.4517 25.042 81.8544 25.196 81.1917 25.196ZM84.7337 25L84.2717 22.144V17.076H86.0917V22.424L86.5537 25H84.7337ZM88.2477 16.46C88.2477 16.9827 88.0377 17.4027 87.6177 17.72C87.1977 18.028 86.6284 18.182 85.9097 18.182C85.8817 18.182 85.8491 18.182 85.8117 18.182C85.7744 18.182 85.7464 18.182 85.7277 18.182V17.09C85.7464 17.09 85.7557 17.09 85.7557 17.09C85.7557 17.09 85.7604 17.09 85.7697 17.09C86.0777 17.09 86.3204 17.0153 86.4977 16.866C86.6751 16.7167 86.7637 16.516 86.7637 16.264C86.7637 16.1147 86.7311 15.9513 86.6657 15.774C86.6097 15.5873 86.5257 15.4147 86.4137 15.256H87.8837C88.1264 15.6387 88.2477 16.04 88.2477 16.46ZM92.5682 25.196C91.6068 25.196 90.7622 25.0233 90.0342 24.678C89.3155 24.3233 88.7508 23.8333 88.3402 23.208C87.9388 22.5827 87.7382 21.8593 87.7382 21.038C87.7382 20.2073 87.9388 19.484 88.3402 18.868C88.7508 18.2427 89.3155 17.7573 90.0342 17.412C90.7622 17.0573 91.6068 16.88 92.5682 16.88C92.9322 16.88 93.2355 16.9033 93.4782 16.95C93.7302 16.9873 93.9588 17.0247 94.1642 17.062C94.2948 17.09 94.4302 17.1133 94.5702 17.132C94.7102 17.1413 94.8548 17.146 95.0042 17.146C95.4148 17.146 95.7228 17.0713 95.9282 16.922C96.1335 16.7633 96.2362 16.5393 96.2362 16.25C96.2362 16.0913 96.2082 15.9187 96.1522 15.732C96.0962 15.5453 96.0215 15.3867 95.9282 15.256H97.3982C97.6128 15.6293 97.7202 16.0307 97.7202 16.46C97.7202 16.908 97.5802 17.2813 97.3002 17.58C97.0202 17.8693 96.6188 18.0513 96.0962 18.126C96.5068 18.4713 96.8242 18.8913 97.0482 19.386C97.2815 19.8807 97.3982 20.4313 97.3982 21.038C97.3982 21.8593 97.1928 22.5827 96.7822 23.208C96.3808 23.8333 95.8162 24.3233 95.0882 24.678C94.3695 25.0233 93.5295 25.196 92.5682 25.196ZM92.5682 23.768C93.1842 23.768 93.7115 23.656 94.1502 23.432C94.5982 23.208 94.9435 22.8953 95.1862 22.494C95.4288 22.0833 95.5502 21.598 95.5502 21.038C95.5502 20.478 95.4288 19.9973 95.1862 19.596C94.9435 19.1853 94.5982 18.868 94.1502 18.644C93.7115 18.42 93.1842 18.308 92.5682 18.308C91.9615 18.308 91.4342 18.42 90.9862 18.644C90.5382 18.868 90.1928 19.1853 89.9502 19.596C89.7075 19.9973 89.5862 20.478 89.5862 21.038C89.5862 21.598 89.7075 22.0833 89.9502 22.494C90.1928 22.8953 90.5382 23.208 90.9862 23.432C91.4342 23.656 91.9615 23.768 92.5682 23.768ZM98.1206 17.076H99.9406L100.417 19.932V25H98.5966V19.666L98.1206 17.076ZM103.567 16.88C104.313 16.88 104.948 17.0293 105.471 17.328C105.993 17.6267 106.39 18.056 106.661 18.616C106.941 19.1667 107.081 19.834 107.081 20.618V25H105.261V20.912C105.261 20.0813 105.065 19.456 104.673 19.036C104.29 18.6067 103.725 18.392 102.979 18.392C102.465 18.392 102.013 18.5087 101.621 18.742C101.238 18.966 100.939 19.2833 100.725 19.694C100.519 20.1047 100.417 20.5853 100.417 21.136L99.7726 20.786C99.8566 19.9647 100.071 19.2647 100.417 18.686C100.762 18.1073 101.205 17.664 101.747 17.356C102.288 17.0387 102.895 16.88 103.567 16.88ZM115.679 23.054V21.654L115.749 21.402V19.876L115.679 19.596V17.076H117.499V22.886C117.499 23.9033 117.284 24.7527 116.855 25.434C116.426 26.1247 115.838 26.6427 115.091 26.988C114.344 27.3333 113.486 27.506 112.515 27.506C111.806 27.506 111.152 27.4127 110.555 27.226C109.958 27.0393 109.379 26.7547 108.819 26.372V24.86C109.388 25.308 109.976 25.6207 110.583 25.798C111.19 25.9847 111.796 26.078 112.403 26.078C113.467 26.078 114.279 25.8167 114.839 25.294C115.399 24.7713 115.679 24.0247 115.679 23.054ZM111.871 24.384C111.143 24.384 110.49 24.23 109.911 23.922C109.332 23.6047 108.875 23.166 108.539 22.606C108.203 22.046 108.035 21.388 108.035 20.632C108.035 19.876 108.203 19.218 108.539 18.658C108.875 18.098 109.332 17.664 109.911 17.356C110.49 17.0387 111.143 16.88 111.871 16.88C112.412 16.88 112.912 16.964 113.369 17.132C113.836 17.3 114.251 17.524 114.615 17.804C114.988 18.0747 115.301 18.378 115.553 18.714C115.814 19.0407 116.015 19.3767 116.155 19.722C116.295 20.058 116.365 20.366 116.365 20.646C116.365 21.01 116.258 21.4113 116.043 21.85C115.828 22.2793 115.52 22.6853 115.119 23.068C114.727 23.4507 114.256 23.768 113.705 24.02C113.154 24.2627 112.543 24.384 111.871 24.384ZM112.431 23.04C113.094 23.04 113.7 22.8487 114.251 22.466C114.811 22.0833 115.31 21.472 115.749 20.632C115.31 19.7733 114.811 19.1573 114.251 18.784C113.7 18.4013 113.094 18.21 112.431 18.21C111.89 18.21 111.428 18.3127 111.045 18.518C110.662 18.7233 110.368 19.008 110.163 19.372C109.967 19.736 109.869 20.156 109.869 20.632C109.869 21.0987 109.967 21.514 110.163 21.878C110.368 22.242 110.662 22.5267 111.045 22.732C111.428 22.9373 111.89 23.04 112.431 23.04Z" fill="white"/>
</svg>
