<svg width="100%" viewBox="0 0 1920 70" fill="none" xmlns="http://www.w3.org/2000/svg">
<rect x="1288.5" y="5.5" width="469" height="58" rx="19.5" stroke="url(#paint0_linear_158_1021)"/>
<path d="M1396.3 30V18.3636H1398.4V28.233H1403.53V30H1396.3ZM1405.36 30V18.3636H1412.93V20.1307H1407.47V23.2898H1412.53V25.0568H1407.47V28.233H1412.97V30H1405.36ZM1416.57 30H1414.32L1418.42 18.3636H1421.02L1425.12 30H1422.87L1419.76 20.75H1419.67L1416.57 30ZM1416.65 25.4375H1422.78V27.1307H1416.65V25.4375ZM1426.66 30V18.3636H1431.02C1431.91 18.3636 1432.66 18.5189 1433.27 18.8295C1433.88 19.1402 1434.34 19.5758 1434.65 20.1364C1434.96 20.6932 1435.12 21.3428 1435.12 22.0852C1435.12 22.8314 1434.96 23.4792 1434.64 24.0284C1434.33 24.5739 1433.87 24.9962 1433.25 25.2955C1432.64 25.5909 1431.88 25.7386 1430.99 25.7386H1427.88V23.9886H1430.71C1431.23 23.9886 1431.66 23.9167 1431.99 23.7727C1432.32 23.625 1432.57 23.411 1432.73 23.1307C1432.89 22.8466 1432.97 22.4981 1432.97 22.0852C1432.97 21.6723 1432.89 21.3201 1432.73 21.0284C1432.57 20.733 1432.32 20.5095 1431.99 20.358C1431.65 20.2027 1431.22 20.125 1430.7 20.125H1428.76V30H1426.66ZM1432.67 24.7273L1435.55 30H1433.2L1430.37 24.7273H1432.67ZM1446.62 18.3636V30H1444.75L1439.27 22.0739H1439.17V30H1437.06V18.3636H1438.95L1444.43 26.2955H1444.53V18.3636H1446.62ZM1451.03 18.3636V30H1448.92V18.3636H1451.03ZM1462.87 18.3636V30H1461L1455.52 22.0739H1455.42V30H1453.31V18.3636H1455.2L1460.68 26.2955H1460.78V18.3636H1462.87ZM1472.97 22.0795C1472.87 21.7727 1472.74 21.4981 1472.57 21.2557C1472.41 21.0095 1472.21 20.7992 1471.98 20.625C1471.76 20.4508 1471.5 20.3201 1471.2 20.233C1470.9 20.142 1470.58 20.0966 1470.23 20.0966C1469.61 20.0966 1469.05 20.2538 1468.56 20.5682C1468.07 20.8826 1467.69 21.3447 1467.41 21.9545C1467.13 22.5606 1467 23.2992 1467 24.1705C1467 25.0492 1467.13 25.7936 1467.41 26.4034C1467.69 27.0133 1468.07 27.4773 1468.56 27.7955C1469.06 28.1098 1469.63 28.267 1470.28 28.267C1470.87 28.267 1471.38 28.1534 1471.81 27.9261C1472.25 27.6989 1472.58 27.3769 1472.82 26.9602C1473.05 26.5398 1473.17 26.0473 1473.17 25.483L1473.65 25.5568H1470.49V23.9091H1475.21V25.3068C1475.21 26.303 1475 27.1648 1474.57 27.892C1474.15 28.6193 1473.57 29.1799 1472.82 29.5739C1472.08 29.964 1471.23 30.1591 1470.27 30.1591C1469.2 30.1591 1468.25 29.9186 1467.44 29.4375C1466.64 28.9527 1466.01 28.2652 1465.55 27.375C1465.1 26.4811 1464.88 25.4205 1464.88 24.1932C1464.88 23.2538 1465.01 22.4148 1465.27 21.6761C1465.54 20.9375 1465.92 20.3106 1466.4 19.7955C1466.88 19.2765 1467.44 18.8826 1468.09 18.6136C1468.74 18.3409 1469.44 18.2045 1470.21 18.2045C1470.85 18.2045 1471.45 18.2992 1472.01 18.4886C1472.56 18.6742 1473.06 18.9394 1473.49 19.2841C1473.92 19.6288 1474.28 20.0379 1474.56 20.5114C1474.84 20.9848 1475.03 21.5076 1475.11 22.0795H1472.97ZM1482.71 30H1480.46L1484.56 18.3636H1487.16L1491.26 30H1489.01L1485.91 20.75H1485.81L1482.71 30ZM1482.79 25.4375H1488.92V27.1307H1482.79V25.4375ZM1502.36 18.3636V30H1500.48L1495 22.0739H1494.9V30H1492.8V18.3636H1494.68L1500.16 26.2955H1500.26V18.3636H1502.36ZM1508.6 30H1504.66V18.3636H1508.68C1509.83 18.3636 1510.83 18.5966 1511.66 19.0625C1512.49 19.5246 1513.13 20.1894 1513.58 21.0568C1514.02 21.9242 1514.25 22.9621 1514.25 24.1705C1514.25 25.3826 1514.02 26.4242 1513.57 27.2955C1513.12 28.1667 1512.48 28.8352 1511.63 29.3011C1510.79 29.767 1509.78 30 1508.6 30ZM1506.76 28.1761H1508.5C1509.31 28.1761 1509.98 28.0284 1510.52 27.733C1511.07 27.4337 1511.47 26.9886 1511.75 26.3977C1512.02 25.803 1512.16 25.0606 1512.16 24.1705C1512.16 23.2803 1512.02 22.5417 1511.75 21.9545C1511.47 21.3636 1511.07 20.9223 1510.54 20.6307C1510.01 20.3352 1509.35 20.1875 1508.56 20.1875H1506.76V28.1761ZM1522.33 18.3636V30H1520.22V18.3636H1522.33ZM1524.61 18.3636H1527.19L1530.64 26.7955H1530.78L1534.23 18.3636H1536.81V30H1534.79V22.0057H1534.68L1531.47 29.9659H1529.96L1526.74 21.9886H1526.63V30H1524.61V18.3636ZM1539.11 30V18.3636H1543.47C1544.37 18.3636 1545.12 18.5303 1545.72 18.8636C1546.33 19.197 1546.79 19.6553 1547.1 20.2386C1547.42 20.8182 1547.57 21.4773 1547.57 22.2159C1547.57 22.9621 1547.42 23.625 1547.1 24.2045C1546.79 24.7841 1546.32 25.2405 1545.71 25.5739C1545.1 25.9034 1544.34 26.0682 1543.44 26.0682H1540.55V24.3352H1543.16C1543.68 24.3352 1544.11 24.2443 1544.44 24.0625C1544.78 23.8807 1545.02 23.6307 1545.18 23.3125C1545.35 22.9943 1545.43 22.6288 1545.43 22.2159C1545.43 21.803 1545.35 21.4394 1545.18 21.125C1545.02 20.8106 1544.78 20.5663 1544.44 20.392C1544.1 20.214 1543.67 20.125 1543.15 20.125H1541.22V30H1539.11ZM1549.41 30V18.3636H1553.77C1554.66 18.3636 1555.41 18.5189 1556.02 18.8295C1556.63 19.1402 1557.09 19.5758 1557.4 20.1364C1557.71 20.6932 1557.87 21.3428 1557.87 22.0852C1557.87 22.8314 1557.71 23.4792 1557.39 24.0284C1557.08 24.5739 1556.62 24.9962 1556 25.2955C1555.39 25.5909 1554.63 25.7386 1553.74 25.7386H1550.63V23.9886H1553.46C1553.98 23.9886 1554.41 23.9167 1554.74 23.7727C1555.07 23.625 1555.32 23.411 1555.48 23.1307C1555.64 22.8466 1555.72 22.4981 1555.72 22.0852C1555.72 21.6723 1555.64 21.3201 1555.48 21.0284C1555.32 20.733 1555.07 20.5095 1554.74 20.358C1554.4 20.2027 1553.97 20.125 1553.45 20.125H1551.51V30H1549.41ZM1555.42 24.7273L1558.3 30H1555.95L1553.12 24.7273H1555.42ZM1570.21 24.1818C1570.21 25.4356 1569.97 26.5095 1569.5 27.4034C1569.04 28.2936 1568.4 28.9754 1567.6 29.4489C1566.79 29.9223 1565.88 30.1591 1564.86 30.1591C1563.84 30.1591 1562.93 29.9223 1562.12 29.4489C1561.32 28.9716 1560.68 28.2879 1560.22 27.3977C1559.75 26.5038 1559.52 25.4318 1559.52 24.1818C1559.52 22.928 1559.75 21.8561 1560.22 20.9659C1560.68 20.072 1561.32 19.3883 1562.12 18.9148C1562.93 18.4413 1563.84 18.2045 1564.86 18.2045C1565.88 18.2045 1566.79 18.4413 1567.6 18.9148C1568.4 19.3883 1569.04 20.072 1569.5 20.9659C1569.97 21.8561 1570.21 22.928 1570.21 24.1818ZM1568.09 24.1818C1568.09 23.2992 1567.95 22.5549 1567.68 21.9489C1567.4 21.339 1567.02 20.8788 1566.54 20.5682C1566.05 20.2538 1565.5 20.0966 1564.86 20.0966C1564.23 20.0966 1563.67 20.2538 1563.19 20.5682C1562.7 20.8788 1562.32 21.339 1562.04 21.9489C1561.77 22.5549 1561.64 23.2992 1561.64 24.1818C1561.64 25.0644 1561.77 25.8106 1562.04 26.4205C1562.32 27.0265 1562.7 27.4867 1563.19 27.8011C1563.67 28.1117 1564.23 28.267 1564.86 28.267C1565.5 28.267 1566.05 28.1117 1566.54 27.8011C1567.02 27.4867 1567.4 27.0265 1567.68 26.4205C1567.95 25.8106 1568.09 25.0644 1568.09 24.1818ZM1573.13 18.3636L1576.16 27.5227H1576.28L1579.3 18.3636H1581.62L1577.52 30H1574.92L1570.82 18.3636H1573.13ZM1583.16 30V18.3636H1590.72V20.1307H1585.26V23.2898H1590.33V25.0568H1585.26V28.233H1590.77V30H1583.16ZM1592.87 18.3636H1595.45L1598.91 26.7955H1599.04L1602.5 18.3636H1605.08V30H1603.06V22.0057H1602.95L1599.73 29.9659H1598.22L1595 21.9886H1594.9V30H1592.87V18.3636ZM1607.37 30V18.3636H1614.94V20.1307H1609.48V23.2898H1614.55V25.0568H1609.48V28.233H1614.99V30H1607.37ZM1626.66 18.3636V30H1624.78L1619.3 22.0739H1619.2V30H1617.09V18.3636H1618.98L1624.46 26.2955H1624.56V18.3636H1626.66ZM1628.44 20.1307V18.3636H1637.73V20.1307H1634.13V30H1632.04V20.1307H1628.44ZM1648.65 24.5341V25.4886H1643.81V24.5341H1648.65ZM1333.98 37.3636V49H1332.92V37.3636H1333.98ZM1340.46 40.2727V41.1534H1336.17V40.2727H1340.46ZM1337.51 49V38.9943C1337.51 38.5246 1337.62 38.1288 1337.83 37.8068C1338.05 37.4848 1338.34 37.2405 1338.69 37.0739C1339.04 36.9072 1339.42 36.8239 1339.81 36.8239C1340.07 36.8239 1340.29 36.8466 1340.47 36.892C1340.65 36.9337 1340.79 36.9754 1340.89 37.017L1340.59 37.9034C1340.52 37.8807 1340.43 37.8542 1340.32 37.8239C1340.21 37.7936 1340.07 37.7784 1339.9 37.7784C1339.46 37.7784 1339.12 37.9015 1338.88 38.1477C1338.64 38.3939 1338.53 38.7462 1338.53 39.2045L1338.52 49H1337.51ZM1347.68 52.2727C1347.48 52.2727 1347.29 52.2538 1347.12 52.2159C1346.94 52.178 1346.81 52.1364 1346.7 52.0909L1346.98 51.1989C1347.32 51.3049 1347.63 51.3428 1347.9 51.3125C1348.17 51.286 1348.4 51.1648 1348.61 50.9489C1348.82 50.7367 1349.01 50.411 1349.17 49.9716L1349.49 49.0852L1346.28 40.2727H1347.37L1349.96 47.6648H1350.04L1352.63 40.2727H1353.73L1350.04 50.3807C1349.88 50.8011 1349.69 51.1515 1349.46 51.4318C1349.24 51.7159 1348.97 51.9261 1348.67 52.0625C1348.38 52.2027 1348.05 52.2727 1347.68 52.2727ZM1358.79 49.1818C1358.04 49.1818 1357.37 48.9905 1356.79 48.608C1356.21 48.2254 1355.76 47.697 1355.44 47.0227C1355.11 46.3447 1354.95 45.5625 1354.95 44.6761C1354.95 43.7822 1355.11 42.9962 1355.44 42.3182C1355.76 41.6364 1356.21 41.1061 1356.79 40.7273C1357.37 40.3447 1358.04 40.1534 1358.79 40.1534C1359.54 40.1534 1360.21 40.3447 1360.78 40.7273C1361.36 41.1098 1361.81 41.6402 1362.14 42.3182C1362.47 42.9962 1362.63 43.7822 1362.63 44.6761C1362.63 45.5625 1362.47 46.3447 1362.14 47.0227C1361.82 47.697 1361.36 48.2254 1360.78 48.608C1360.21 48.9905 1359.54 49.1818 1358.79 49.1818ZM1358.79 48.2557C1359.4 48.2557 1359.91 48.0928 1360.33 47.767C1360.75 47.4413 1361.07 47.0076 1361.28 46.4659C1361.5 45.9242 1361.61 45.3277 1361.61 44.6761C1361.61 44.0246 1361.5 43.4261 1361.28 42.8807C1361.07 42.3352 1360.75 41.8977 1360.33 41.5682C1359.91 41.2386 1359.4 41.0739 1358.79 41.0739C1358.19 41.0739 1357.67 41.2386 1357.25 41.5682C1356.83 41.8977 1356.51 42.3352 1356.29 42.8807C1356.07 43.4261 1355.97 44.0246 1355.97 44.6761C1355.97 45.3277 1356.07 45.9242 1356.29 46.4659C1356.51 47.0076 1356.83 47.4413 1357.25 47.767C1357.67 48.0928 1358.18 48.2557 1358.79 48.2557ZM1370.4 45.6648V40.2727H1371.41V49H1370.4V47.5511H1370.32C1370.11 47.9981 1369.79 48.3712 1369.35 48.6705C1368.9 48.9659 1368.36 49.1136 1367.72 49.1136C1367.16 49.1136 1366.67 48.9924 1366.24 48.75C1365.81 48.5038 1365.47 48.1439 1365.22 47.6705C1364.97 47.197 1364.85 46.6155 1364.85 45.9261V40.2727H1365.86V45.8636C1365.86 46.5455 1366.06 47.0947 1366.46 47.5114C1366.87 47.9242 1367.38 48.1307 1368.01 48.1307C1368.4 48.1307 1368.78 48.036 1369.15 47.8466C1369.51 47.6572 1369.81 47.3807 1370.04 47.017C1370.28 46.6496 1370.4 46.1989 1370.4 45.6648ZM1382.02 40.2727V41.1534H1377.86V40.2727H1382.02ZM1379.16 38.1818H1380.18V46.7216C1380.18 47.0852 1380.24 47.3712 1380.36 47.5795C1380.49 47.7841 1380.65 47.9299 1380.85 48.017C1381.05 48.1004 1381.27 48.142 1381.49 48.142C1381.63 48.142 1381.74 48.1345 1381.84 48.1193C1381.93 48.1004 1382.01 48.0814 1382.09 48.0625L1382.3 48.9773C1382.2 49.0152 1382.08 49.0492 1381.94 49.0795C1381.79 49.1136 1381.62 49.1307 1381.4 49.1307C1381.03 49.1307 1380.67 49.0492 1380.33 48.8864C1379.99 48.7235 1379.71 48.4811 1379.49 48.1591C1379.27 47.8371 1379.16 47.4375 1379.16 46.9602V38.1818ZM1385.52 43.5455V49H1384.51V37.3636H1385.52V41.642H1385.61C1385.81 41.1913 1386.13 40.8314 1386.56 40.5625C1386.99 40.2936 1387.54 40.1591 1388.19 40.1591C1388.79 40.1591 1389.3 40.2803 1389.75 40.5227C1390.2 40.7652 1390.55 41.1231 1390.8 41.5966C1391.05 42.0701 1391.17 42.6534 1391.17 43.3466V49H1390.15V43.4091C1390.15 42.6894 1389.95 42.1231 1389.55 41.7102C1389.15 41.2936 1388.62 41.0852 1387.94 41.0852C1387.47 41.0852 1387.06 41.1837 1386.69 41.3807C1386.33 41.5777 1386.04 41.8617 1385.83 42.233C1385.62 42.6004 1385.52 43.0379 1385.52 43.5455ZM1393.85 49V40.2727H1394.86V49H1393.85ZM1394.36 38.7727C1394.16 38.7727 1393.98 38.7027 1393.83 38.5625C1393.68 38.4186 1393.61 38.2462 1393.61 38.0455C1393.61 37.8447 1393.68 37.6742 1393.83 37.5341C1393.98 37.3902 1394.16 37.3182 1394.36 37.3182C1394.57 37.3182 1394.75 37.3902 1394.9 37.5341C1395.05 37.6742 1395.12 37.8447 1395.12 38.0455C1395.12 38.2462 1395.05 38.4186 1394.9 38.5625C1394.75 38.7027 1394.57 38.7727 1394.36 38.7727ZM1398.55 43.5455V49H1397.54V40.2727H1398.52V41.642H1398.61C1398.82 41.1951 1399.13 40.8371 1399.57 40.5682C1400 40.2955 1400.54 40.1591 1401.18 40.1591C1401.77 40.1591 1402.28 40.2822 1402.73 40.5284C1403.17 40.7708 1403.52 41.1288 1403.77 41.6023C1404.02 42.0758 1404.14 42.6572 1404.14 43.3466V49H1403.13V43.4091C1403.13 42.6932 1402.93 42.1269 1402.53 41.7102C1402.13 41.2936 1401.6 41.0852 1400.92 41.0852C1400.47 41.0852 1400.06 41.1837 1399.7 41.3807C1399.35 41.5777 1399.06 41.8617 1398.86 42.233C1398.65 42.6004 1398.55 43.0379 1398.55 43.5455ZM1407.72 45.7045L1407.71 44.3807H1407.94L1412.03 40.2727H1413.31L1409.27 44.3182L1409.18 44.3352L1407.72 45.7045ZM1406.8 49V37.3636H1407.82V49H1406.8ZM1412.24 49L1408.7 44.517L1409.42 43.8182L1413.54 49H1412.24ZM1420.41 52.2727C1420.21 52.2727 1420.03 52.2538 1419.85 52.2159C1419.68 52.178 1419.54 52.1364 1419.44 52.0909L1419.71 51.1989C1420.05 51.3049 1420.36 51.3428 1420.63 51.3125C1420.9 51.286 1421.14 51.1648 1421.35 50.9489C1421.55 50.7367 1421.74 50.411 1421.9 49.9716L1422.22 49.0852L1419.01 40.2727H1420.11L1422.7 47.6648H1422.78L1425.37 40.2727H1426.47L1422.77 50.3807C1422.62 50.8011 1422.43 51.1515 1422.2 51.4318C1421.97 51.7159 1421.71 51.9261 1421.41 52.0625C1421.11 52.2027 1420.78 52.2727 1420.41 52.2727ZM1431.52 49.1818C1430.77 49.1818 1430.1 48.9905 1429.52 48.608C1428.95 48.2254 1428.5 47.697 1428.17 47.0227C1427.85 46.3447 1427.68 45.5625 1427.68 44.6761C1427.68 43.7822 1427.85 42.9962 1428.17 42.3182C1428.5 41.6364 1428.95 41.1061 1429.52 40.7273C1430.1 40.3447 1430.77 40.1534 1431.52 40.1534C1432.28 40.1534 1432.94 40.3447 1433.52 40.7273C1434.09 41.1098 1434.54 41.6402 1434.87 42.3182C1435.2 42.9962 1435.37 43.7822 1435.37 44.6761C1435.37 45.5625 1435.2 46.3447 1434.88 47.0227C1434.55 47.697 1434.1 48.2254 1433.52 48.608C1432.94 48.9905 1432.28 49.1818 1431.52 49.1818ZM1431.52 48.2557C1432.13 48.2557 1432.64 48.0928 1433.06 47.767C1433.48 47.4413 1433.8 47.0076 1434.02 46.4659C1434.24 45.9242 1434.35 45.3277 1434.35 44.6761C1434.35 44.0246 1434.24 43.4261 1434.02 42.8807C1433.8 42.3352 1433.48 41.8977 1433.06 41.5682C1432.64 41.2386 1432.13 41.0739 1431.52 41.0739C1430.92 41.0739 1430.41 41.2386 1429.98 41.5682C1429.56 41.8977 1429.24 42.3352 1429.02 42.8807C1428.81 43.4261 1428.7 44.0246 1428.7 44.6761C1428.7 45.3277 1428.81 45.9242 1429.02 46.4659C1429.24 47.0076 1429.56 47.4413 1429.98 47.767C1430.4 48.0928 1430.92 48.2557 1431.52 48.2557ZM1443.13 45.6648V40.2727H1444.14V49H1443.13V47.5511H1443.05C1442.85 47.9981 1442.52 48.3712 1442.08 48.6705C1441.64 48.9659 1441.09 49.1136 1440.45 49.1136C1439.9 49.1136 1439.4 48.9924 1438.97 48.75C1438.54 48.5038 1438.2 48.1439 1437.95 47.6705C1437.71 47.197 1437.59 46.6155 1437.59 45.9261V40.2727H1438.6V45.8636C1438.6 46.5455 1438.8 47.0947 1439.2 47.5114C1439.6 47.9242 1440.12 48.1307 1440.74 48.1307C1441.14 48.1307 1441.52 48.036 1441.88 47.8466C1442.24 47.6572 1442.54 47.3807 1442.78 47.017C1443.01 46.6496 1443.13 46.1989 1443.13 45.6648ZM1447.97 37.3636V38.3864C1447.97 38.697 1447.92 39.0284 1447.8 39.3807C1447.69 39.7292 1447.53 40.0682 1447.32 40.3977C1447.1 40.7235 1446.85 41.0076 1446.54 41.25L1445.99 40.767C1446.28 40.4337 1446.52 40.0644 1446.71 39.6591C1446.91 39.25 1447.01 38.8314 1447.01 38.4034V37.3636H1447.97ZM1449.51 49V40.2727H1450.49V41.6136H1450.56C1450.74 41.1742 1451.04 40.8201 1451.47 40.5511C1451.91 40.2784 1452.4 40.142 1452.95 40.142C1453.03 40.142 1453.13 40.1439 1453.23 40.1477C1453.33 40.1515 1453.42 40.1553 1453.48 40.1591V41.1875C1453.44 41.1799 1453.36 41.1686 1453.25 41.1534C1453.13 41.1383 1453.01 41.1307 1452.88 41.1307C1452.42 41.1307 1452.02 41.2273 1451.66 41.4205C1451.31 41.6098 1451.03 41.8731 1450.83 42.2102C1450.62 42.5473 1450.52 42.9318 1450.52 43.3636V49H1449.51ZM1458.47 49.1818C1457.66 49.1818 1456.95 48.9924 1456.36 48.6136C1455.76 48.2311 1455.3 47.7027 1454.98 47.0284C1454.66 46.3504 1454.5 45.5701 1454.5 44.6875C1454.5 43.8087 1454.66 43.0284 1454.98 42.3466C1455.3 41.661 1455.75 41.125 1456.33 40.7386C1456.9 40.3485 1457.57 40.1534 1458.32 40.1534C1458.79 40.1534 1459.25 40.2405 1459.69 40.4148C1460.13 40.5852 1460.52 40.8485 1460.87 41.2045C1461.22 41.5568 1461.5 42.0019 1461.71 42.5398C1461.91 43.0739 1462.01 43.7064 1462.01 44.4375V44.9375H1455.19V44.0455H1460.98C1460.98 43.4848 1460.87 42.9811 1460.64 42.5341C1460.41 42.0833 1460.1 41.7273 1459.7 41.4659C1459.3 41.2045 1458.84 41.0739 1458.32 41.0739C1457.77 41.0739 1457.28 41.2216 1456.86 41.517C1456.44 41.8125 1456.11 42.2027 1455.87 42.6875C1455.64 43.1723 1455.52 43.7027 1455.51 44.2784V44.8125C1455.51 45.5057 1455.63 46.1117 1455.87 46.6307C1456.11 47.1458 1456.46 47.5455 1456.9 47.8295C1457.34 48.1136 1457.87 48.2557 1458.47 48.2557C1458.89 48.2557 1459.25 48.1913 1459.56 48.0625C1459.87 47.9337 1460.14 47.7614 1460.35 47.5455C1460.56 47.3258 1460.73 47.0852 1460.84 46.8239L1461.8 47.1364C1461.66 47.5038 1461.45 47.8428 1461.14 48.1534C1460.84 48.464 1460.47 48.714 1460.02 48.9034C1459.57 49.089 1459.06 49.1818 1458.47 49.1818ZM1472.18 40.2727V41.1534H1468.01V40.2727H1472.18ZM1469.32 38.1818H1470.33V46.7216C1470.33 47.0852 1470.39 47.3712 1470.52 47.5795C1470.64 47.7841 1470.81 47.9299 1471.01 48.017C1471.21 48.1004 1471.42 48.142 1471.65 48.142C1471.78 48.142 1471.9 48.1345 1471.99 48.1193C1472.09 48.1004 1472.17 48.0814 1472.24 48.0625L1472.46 48.9773C1472.36 49.0152 1472.24 49.0492 1472.09 49.0795C1471.95 49.1136 1471.77 49.1307 1471.56 49.1307C1471.19 49.1307 1470.83 49.0492 1470.49 48.8864C1470.14 48.7235 1469.86 48.4811 1469.64 48.1591C1469.43 47.8371 1469.32 47.4375 1469.32 46.9602V38.1818ZM1475.67 43.5455V49H1474.66V37.3636H1475.67V41.642H1475.77C1475.97 41.1913 1476.29 40.8314 1476.71 40.5625C1477.15 40.2936 1477.69 40.1591 1478.35 40.1591C1478.94 40.1591 1479.46 40.2803 1479.91 40.5227C1480.35 40.7652 1480.7 41.1231 1480.95 41.5966C1481.2 42.0701 1481.33 42.6534 1481.33 43.3466V49H1480.31V43.4091C1480.31 42.6894 1480.11 42.1231 1479.71 41.7102C1479.31 41.2936 1478.77 41.0852 1478.1 41.0852C1477.63 41.0852 1477.21 41.1837 1476.85 41.3807C1476.49 41.5777 1476.2 41.8617 1475.99 42.233C1475.78 42.6004 1475.67 43.0379 1475.67 43.5455ZM1487.52 49.1818C1486.71 49.1818 1486 48.9924 1485.41 48.6136C1484.81 48.2311 1484.35 47.7027 1484.03 47.0284C1483.7 46.3504 1483.54 45.5701 1483.54 44.6875C1483.54 43.8087 1483.7 43.0284 1484.03 42.3466C1484.35 41.661 1484.8 41.125 1485.37 40.7386C1485.95 40.3485 1486.61 40.1534 1487.37 40.1534C1487.84 40.1534 1488.3 40.2405 1488.74 40.4148C1489.18 40.5852 1489.57 40.8485 1489.92 41.2045C1490.27 41.5568 1490.55 42.0019 1490.75 42.5398C1490.96 43.0739 1491.06 43.7064 1491.06 44.4375V44.9375H1484.24V44.0455H1490.03C1490.03 43.4848 1489.91 42.9811 1489.68 42.5341C1489.46 42.0833 1489.15 41.7273 1488.75 41.4659C1488.35 41.2045 1487.89 41.0739 1487.37 41.0739C1486.81 41.0739 1486.33 41.2216 1485.91 41.517C1485.49 41.8125 1485.16 42.2027 1484.92 42.6875C1484.68 43.1723 1484.56 43.7027 1484.56 44.2784V44.8125C1484.56 45.5057 1484.68 46.1117 1484.92 46.6307C1485.16 47.1458 1485.5 47.5455 1485.95 47.8295C1486.39 48.1136 1486.91 48.2557 1487.52 48.2557C1487.93 48.2557 1488.29 48.1913 1488.61 48.0625C1488.92 47.9337 1489.18 47.7614 1489.39 47.5455C1489.61 47.3258 1489.77 47.0852 1489.88 46.8239L1490.84 47.1364C1490.71 47.5038 1490.49 47.8428 1490.19 48.1534C1489.89 48.464 1489.52 48.714 1489.07 48.9034C1488.62 49.089 1488.1 49.1818 1487.52 49.1818ZM1498 49V37.3636H1499.02V41.9375H1499.11C1499.22 41.6761 1499.38 41.4072 1499.6 41.1307C1499.81 40.8542 1500.09 40.6231 1500.44 40.4375C1500.79 40.2481 1501.24 40.1534 1501.77 40.1534C1502.49 40.1534 1503.12 40.3428 1503.66 40.7216C1504.2 41.0966 1504.62 41.6231 1504.92 42.3011C1505.23 42.9754 1505.38 43.7614 1505.38 44.6591C1505.38 45.5606 1505.23 46.3504 1504.92 47.0284C1504.63 47.7064 1504.21 48.2348 1503.66 48.6136C1503.13 48.9924 1502.5 49.1818 1501.79 49.1818C1501.26 49.1818 1500.81 49.0871 1500.46 48.8977C1500.11 48.7083 1499.82 48.4754 1499.61 48.1989C1499.39 47.9186 1499.22 47.6458 1499.11 47.3807H1498.98V49H1498ZM1499 44.642C1499 45.3466 1499.1 45.9716 1499.31 46.517C1499.52 47.0587 1499.83 47.4848 1500.22 47.7955C1500.62 48.1023 1501.1 48.2557 1501.66 48.2557C1502.24 48.2557 1502.73 48.0966 1503.13 47.7784C1503.54 47.4564 1503.84 47.0227 1504.05 46.4773C1504.26 45.9318 1504.36 45.3201 1504.36 44.642C1504.36 43.9716 1504.26 43.3674 1504.05 42.8295C1503.85 42.2917 1503.54 41.8655 1503.14 41.5511C1502.74 41.233 1502.25 41.0739 1501.66 41.0739C1501.1 41.0739 1500.61 41.2273 1500.21 41.5341C1499.82 41.8371 1499.52 42.2576 1499.31 42.7955C1499.1 43.3295 1499 43.9451 1499 44.642ZM1511.13 49.1818C1510.31 49.1818 1509.61 48.9924 1509.02 48.6136C1508.42 48.2311 1507.96 47.7027 1507.63 47.0284C1507.31 46.3504 1507.15 45.5701 1507.15 44.6875C1507.15 43.8087 1507.31 43.0284 1507.63 42.3466C1507.96 41.661 1508.41 41.125 1508.98 40.7386C1509.56 40.3485 1510.22 40.1534 1510.98 40.1534C1511.45 40.1534 1511.91 40.2405 1512.35 40.4148C1512.78 40.5852 1513.18 40.8485 1513.53 41.2045C1513.88 41.5568 1514.16 42.0019 1514.36 42.5398C1514.57 43.0739 1514.67 43.7064 1514.67 44.4375V44.9375H1507.85V44.0455H1513.63C1513.63 43.4848 1513.52 42.9811 1513.29 42.5341C1513.07 42.0833 1512.76 41.7273 1512.36 41.4659C1511.96 41.2045 1511.5 41.0739 1510.98 41.0739C1510.42 41.0739 1509.94 41.2216 1509.52 41.517C1509.1 41.8125 1508.77 42.2027 1508.53 42.6875C1508.29 43.1723 1508.17 43.7027 1508.17 44.2784V44.8125C1508.17 45.5057 1508.29 46.1117 1508.53 46.6307C1508.77 47.1458 1509.11 47.5455 1509.56 47.8295C1510 48.1136 1510.52 48.2557 1511.13 48.2557C1511.54 48.2557 1511.9 48.1913 1512.21 48.0625C1512.53 47.9337 1512.79 47.7614 1513 47.5455C1513.22 47.3258 1513.38 47.0852 1513.49 46.8239L1514.45 47.1364C1514.32 47.5038 1514.1 47.8428 1513.8 48.1534C1513.5 48.464 1513.13 48.714 1512.67 48.9034C1512.23 49.089 1511.71 49.1818 1511.13 49.1818ZM1522.76 42.1875L1521.84 42.4489C1521.74 42.1875 1521.62 41.9508 1521.45 41.7386C1521.28 41.5265 1521.06 41.358 1520.8 41.233C1520.53 41.108 1520.2 41.0455 1519.81 41.0455C1519.22 41.0455 1518.73 41.1856 1518.35 41.4659C1517.97 41.7462 1517.78 42.108 1517.78 42.5511C1517.78 42.9261 1517.91 43.2311 1518.17 43.4659C1518.43 43.697 1518.83 43.8807 1519.38 44.017L1520.69 44.3409C1521.42 44.5189 1521.97 44.8011 1522.34 45.1875C1522.7 45.5739 1522.89 46.0587 1522.89 46.642C1522.89 47.1345 1522.75 47.572 1522.48 47.9545C1522.2 48.3371 1521.82 48.6383 1521.34 48.858C1520.85 49.0739 1520.29 49.1818 1519.65 49.1818C1518.8 49.1818 1518.09 48.9905 1517.54 48.608C1516.99 48.2216 1516.63 47.6648 1516.48 46.9375L1517.45 46.6989C1517.57 47.2178 1517.82 47.6098 1518.18 47.875C1518.55 48.1402 1519.03 48.2727 1519.63 48.2727C1520.3 48.2727 1520.84 48.1231 1521.24 47.8239C1521.64 47.5208 1521.84 47.142 1521.84 46.6875C1521.84 46.3352 1521.72 46.0398 1521.49 45.8011C1521.25 45.5587 1520.9 45.3807 1520.42 45.267L1518.99 44.9261C1518.24 44.7443 1517.68 44.4564 1517.31 44.0625C1516.95 43.6686 1516.77 43.1799 1516.77 42.5966C1516.77 42.1155 1516.9 41.6932 1517.16 41.3295C1517.42 40.9621 1517.78 40.6742 1518.24 40.4659C1518.7 40.2576 1519.22 40.1534 1519.81 40.1534C1520.61 40.1534 1521.24 40.3352 1521.72 40.6989C1522.2 41.0587 1522.55 41.5549 1522.76 42.1875ZM1528.54 40.2727V41.1534H1524.37V40.2727H1528.54ZM1525.67 38.1818H1526.69V46.7216C1526.69 47.0852 1526.75 47.3712 1526.88 47.5795C1527 47.7841 1527.17 47.9299 1527.37 48.017C1527.57 48.1004 1527.78 48.142 1528.01 48.142C1528.14 48.142 1528.26 48.1345 1528.35 48.1193C1528.45 48.1004 1528.53 48.0814 1528.6 48.0625L1528.82 48.9773C1528.72 49.0152 1528.6 49.0492 1528.45 49.0795C1528.31 49.1136 1528.13 49.1307 1527.92 49.1307C1527.55 49.1307 1527.19 49.0492 1526.85 48.8864C1526.5 48.7235 1526.22 48.4811 1526 48.1591C1525.78 47.8371 1525.67 47.4375 1525.67 46.9602V38.1818ZM1532.52 47.4091L1532.41 48.017C1532.35 48.4261 1532.26 48.8769 1532.14 49.3693C1532.02 49.8617 1531.9 50.3295 1531.78 50.7727C1531.65 51.2159 1531.55 51.572 1531.45 51.8409H1530.68C1530.73 51.5833 1530.79 51.2557 1530.86 50.858C1530.94 50.4602 1531.02 50.0189 1531.11 49.5341C1531.19 49.053 1531.27 48.5568 1531.34 48.0455L1531.41 47.4091H1532.52ZM1540.4 52.2727C1540.2 52.2727 1540.01 52.2538 1539.84 52.2159C1539.66 52.178 1539.52 52.1364 1539.42 52.0909L1539.69 51.1989C1540.04 51.3049 1540.35 51.3428 1540.62 51.3125C1540.88 51.286 1541.12 51.1648 1541.33 50.9489C1541.54 50.7367 1541.72 50.411 1541.89 49.9716L1542.21 49.0852L1539 40.2727H1540.09L1542.68 47.6648H1542.76L1545.35 40.2727H1546.45L1542.76 50.3807C1542.6 50.8011 1542.41 51.1515 1542.18 51.4318C1541.96 51.7159 1541.69 51.9261 1541.39 52.0625C1541.1 52.2027 1540.77 52.2727 1540.4 52.2727ZM1551.51 49.1818C1550.75 49.1818 1550.09 48.9905 1549.51 48.608C1548.93 48.2254 1548.48 47.697 1548.16 47.0227C1547.83 46.3447 1547.67 45.5625 1547.67 44.6761C1547.67 43.7822 1547.83 42.9962 1548.16 42.3182C1548.48 41.6364 1548.93 41.1061 1549.51 40.7273C1550.09 40.3447 1550.75 40.1534 1551.51 40.1534C1552.26 40.1534 1552.93 40.3447 1553.5 40.7273C1554.08 41.1098 1554.53 41.6402 1554.86 42.3182C1555.18 42.9962 1555.35 43.7822 1555.35 44.6761C1555.35 45.5625 1555.19 46.3447 1554.86 47.0227C1554.54 47.697 1554.08 48.2254 1553.5 48.608C1552.93 48.9905 1552.26 49.1818 1551.51 49.1818ZM1551.51 48.2557C1552.11 48.2557 1552.63 48.0928 1553.05 47.767C1553.47 47.4413 1553.79 47.0076 1554 46.4659C1554.22 45.9242 1554.33 45.3277 1554.33 44.6761C1554.33 44.0246 1554.22 43.4261 1554 42.8807C1553.79 42.3352 1553.47 41.8977 1553.05 41.5682C1552.63 41.2386 1552.11 41.0739 1551.51 41.0739C1550.91 41.0739 1550.39 41.2386 1549.97 41.5682C1549.55 41.8977 1549.23 42.3352 1549.01 42.8807C1548.79 43.4261 1548.68 44.0246 1548.68 44.6761C1548.68 45.3277 1548.79 45.9242 1549.01 46.4659C1549.23 47.0076 1549.55 47.4413 1549.97 47.767C1550.39 48.0928 1550.9 48.2557 1551.51 48.2557ZM1563.12 45.6648V40.2727H1564.13V49H1563.12V47.5511H1563.04C1562.83 47.9981 1562.51 48.3712 1562.06 48.6705C1561.62 48.9659 1561.08 49.1136 1560.44 49.1136C1559.88 49.1136 1559.39 48.9924 1558.96 48.75C1558.52 48.5038 1558.19 48.1439 1557.94 47.6705C1557.69 47.197 1557.57 46.6155 1557.57 45.9261V40.2727H1558.58V45.8636C1558.58 46.5455 1558.78 47.0947 1559.18 47.5114C1559.58 47.9242 1560.1 48.1307 1560.73 48.1307C1561.12 48.1307 1561.5 48.036 1561.87 47.8466C1562.23 47.6572 1562.53 47.3807 1562.76 47.017C1563 46.6496 1563.12 46.1989 1563.12 45.6648ZM1567.96 37.3636V38.3864C1567.96 38.697 1567.9 39.0284 1567.79 39.3807C1567.68 39.7292 1567.52 40.0682 1567.3 40.3977C1567.09 40.7235 1566.83 41.0076 1566.53 41.25L1565.98 40.767C1566.26 40.4337 1566.5 40.0644 1566.7 39.6591C1566.89 39.25 1566.99 38.8314 1566.99 38.4034V37.3636H1567.96ZM1569.49 49V40.2727H1570.47V41.6136H1570.55C1570.72 41.1742 1571.03 40.8201 1571.46 40.5511C1571.89 40.2784 1572.39 40.142 1572.93 40.142C1573.02 40.142 1573.11 40.1439 1573.21 40.1477C1573.32 40.1515 1573.4 40.1553 1573.47 40.1591V41.1875C1573.42 41.1799 1573.34 41.1686 1573.23 41.1534C1573.12 41.1383 1572.99 41.1307 1572.86 41.1307C1572.41 41.1307 1572 41.2273 1571.64 41.4205C1571.29 41.6098 1571.01 41.8731 1570.81 42.2102C1570.61 42.5473 1570.5 42.9318 1570.5 43.3636V49H1569.49ZM1578.46 49.1818C1577.64 49.1818 1576.94 48.9924 1576.34 48.6136C1575.75 48.2311 1575.29 47.7027 1574.96 47.0284C1574.64 46.3504 1574.48 45.5701 1574.48 44.6875C1574.48 43.8087 1574.64 43.0284 1574.96 42.3466C1575.29 41.661 1575.74 41.125 1576.31 40.7386C1576.89 40.3485 1577.55 40.1534 1578.3 40.1534C1578.78 40.1534 1579.23 40.2405 1579.67 40.4148C1580.11 40.5852 1580.51 40.8485 1580.86 41.2045C1581.21 41.5568 1581.49 42.0019 1581.69 42.5398C1581.89 43.0739 1582 43.7064 1582 44.4375V44.9375H1575.18V44.0455H1580.96C1580.96 43.4848 1580.85 42.9811 1580.62 42.5341C1580.4 42.0833 1580.09 41.7273 1579.68 41.4659C1579.29 41.2045 1578.83 41.0739 1578.3 41.0739C1577.75 41.0739 1577.26 41.2216 1576.84 41.517C1576.42 41.8125 1576.09 42.2027 1575.86 42.6875C1575.62 43.1723 1575.5 43.7027 1575.5 44.2784V44.8125C1575.5 45.5057 1575.62 46.1117 1575.86 46.6307C1576.1 47.1458 1576.44 47.5455 1576.88 47.8295C1577.33 48.1136 1577.85 48.2557 1578.46 48.2557C1578.87 48.2557 1579.23 48.1913 1579.54 48.0625C1579.86 47.9337 1580.12 47.7614 1580.33 47.5455C1580.55 47.3258 1580.71 47.0852 1580.82 46.8239L1581.78 47.1364C1581.65 47.5038 1581.43 47.8428 1581.13 48.1534C1580.83 48.464 1580.45 48.714 1580 48.9034C1579.56 49.089 1579.04 49.1818 1578.46 49.1818ZM1588.94 49V37.3636H1589.95V41.9375H1590.04C1590.16 41.6761 1590.32 41.4072 1590.53 41.1307C1590.75 40.8542 1591.03 40.6231 1591.38 40.4375C1591.73 40.2481 1592.17 40.1534 1592.71 40.1534C1593.42 40.1534 1594.05 40.3428 1594.6 40.7216C1595.14 41.0966 1595.56 41.6231 1595.86 42.3011C1596.17 42.9754 1596.32 43.7614 1596.32 44.6591C1596.32 45.5606 1596.17 46.3504 1595.86 47.0284C1595.56 47.7064 1595.14 48.2348 1594.6 48.6136C1594.06 48.9924 1593.44 49.1818 1592.73 49.1818C1592.2 49.1818 1591.75 49.0871 1591.4 48.8977C1591.04 48.7083 1590.76 48.4754 1590.54 48.1989C1590.33 47.9186 1590.16 47.6458 1590.04 47.3807H1589.92V49H1588.94ZM1589.94 44.642C1589.94 45.3466 1590.04 45.9716 1590.25 46.517C1590.46 47.0587 1590.76 47.4848 1591.16 47.7955C1591.56 48.1023 1592.04 48.2557 1592.6 48.2557C1593.18 48.2557 1593.67 48.0966 1594.07 47.7784C1594.47 47.4564 1594.78 47.0227 1594.99 46.4773C1595.2 45.9318 1595.3 45.3201 1595.3 44.642C1595.3 43.9716 1595.2 43.3674 1594.99 42.8295C1594.78 42.2917 1594.48 41.8655 1594.08 41.5511C1593.68 41.233 1593.18 41.0739 1592.6 41.0739C1592.03 41.0739 1591.55 41.2273 1591.15 41.5341C1590.76 41.8371 1590.46 42.2576 1590.25 42.7955C1590.04 43.3295 1589.94 43.9451 1589.94 44.642ZM1602.07 49.1818C1601.25 49.1818 1600.55 48.9924 1599.95 48.6136C1599.36 48.2311 1598.9 47.7027 1598.57 47.0284C1598.25 46.3504 1598.09 45.5701 1598.09 44.6875C1598.09 43.8087 1598.25 43.0284 1598.57 42.3466C1598.9 41.661 1599.35 41.125 1599.92 40.7386C1600.49 40.3485 1601.16 40.1534 1601.91 40.1534C1602.39 40.1534 1602.84 40.2405 1603.28 40.4148C1603.72 40.5852 1604.12 40.8485 1604.46 41.2045C1604.82 41.5568 1605.1 42.0019 1605.3 42.5398C1605.5 43.0739 1605.61 43.7064 1605.61 44.4375V44.9375H1598.79V44.0455H1604.57C1604.57 43.4848 1604.46 42.9811 1604.23 42.5341C1604.01 42.0833 1603.7 41.7273 1603.29 41.4659C1602.9 41.2045 1602.44 41.0739 1601.91 41.0739C1601.36 41.0739 1600.87 41.2216 1600.45 41.517C1600.03 41.8125 1599.7 42.2027 1599.46 42.6875C1599.23 43.1723 1599.11 43.7027 1599.11 44.2784V44.8125C1599.11 45.5057 1599.23 46.1117 1599.46 46.6307C1599.71 47.1458 1600.05 47.5455 1600.49 47.8295C1600.94 48.1136 1601.46 48.2557 1602.07 48.2557C1602.48 48.2557 1602.84 48.1913 1603.15 48.0625C1603.47 47.9337 1603.73 47.7614 1603.94 47.5455C1604.16 47.3258 1604.32 47.0852 1604.43 46.8239L1605.39 47.1364C1605.26 47.5038 1605.04 47.8428 1604.74 48.1534C1604.44 48.464 1604.06 48.714 1603.61 48.9034C1603.17 49.089 1602.65 49.1818 1602.07 49.1818ZM1607.85 49V40.2727H1608.86V49H1607.85ZM1608.36 38.7727C1608.16 38.7727 1607.98 38.7027 1607.83 38.5625C1607.68 38.4186 1607.61 38.2462 1607.61 38.0455C1607.61 37.8447 1607.68 37.6742 1607.83 37.5341C1607.98 37.3902 1608.16 37.3182 1608.36 37.3182C1608.57 37.3182 1608.75 37.3902 1608.9 37.5341C1609.05 37.6742 1609.12 37.8447 1609.12 38.0455C1609.12 38.2462 1609.05 38.4186 1608.9 38.5625C1608.75 38.7027 1608.57 38.7727 1608.36 38.7727ZM1612.55 43.5455V49H1611.54V40.2727H1612.52V41.642H1612.61C1612.82 41.1951 1613.13 40.8371 1613.57 40.5682C1614 40.2955 1614.54 40.1591 1615.18 40.1591C1615.77 40.1591 1616.28 40.2822 1616.73 40.5284C1617.17 40.7708 1617.52 41.1288 1617.77 41.6023C1618.02 42.0758 1618.14 42.6572 1618.14 43.3466V49H1617.13V43.4091C1617.13 42.6932 1616.93 42.1269 1616.53 41.7102C1616.13 41.2936 1615.6 41.0852 1614.92 41.0852C1614.47 41.0852 1614.06 41.1837 1613.7 41.3807C1613.35 41.5777 1613.06 41.8617 1612.86 42.233C1612.65 42.6004 1612.55 43.0379 1612.55 43.5455ZM1624.13 52.4545C1623.54 52.4545 1623.02 52.3769 1622.57 52.2216C1622.12 52.0701 1621.75 51.8617 1621.44 51.5966C1621.13 51.3314 1620.89 51.0341 1620.72 50.7045L1621.55 50.1591C1621.68 50.3788 1621.85 50.5947 1622.05 50.8068C1622.27 51.0189 1622.54 51.1951 1622.88 51.3352C1623.22 51.4754 1623.64 51.5455 1624.13 51.5455C1624.91 51.5455 1625.53 51.3523 1626 50.9659C1626.48 50.5795 1626.72 49.9792 1626.72 49.1648V47.1989H1626.63C1626.51 47.464 1626.34 47.7292 1626.12 47.9943C1625.9 48.2557 1625.61 48.4735 1625.26 48.6477C1624.91 48.822 1624.47 48.9091 1623.95 48.9091C1623.25 48.9091 1622.63 48.7367 1622.09 48.392C1621.55 48.0473 1621.13 47.5549 1620.82 46.9148C1620.51 46.2708 1620.36 45.5038 1620.36 44.6136C1620.36 43.7311 1620.5 42.9545 1620.8 42.2841C1621.11 41.6136 1621.53 41.0909 1622.07 40.7159C1622.61 40.3409 1623.24 40.1534 1623.96 40.1534C1624.5 40.1534 1624.94 40.2481 1625.29 40.4375C1625.64 40.6231 1625.93 40.8542 1626.14 41.1307C1626.36 41.4072 1626.52 41.6761 1626.64 41.9375H1626.75V40.2727H1627.74V49.2273C1627.74 49.9659 1627.58 50.5739 1627.26 51.0511C1626.95 51.5284 1626.52 51.8807 1625.98 52.108C1625.44 52.339 1624.82 52.4545 1624.13 52.4545ZM1624.07 47.983C1624.63 47.983 1625.11 47.8485 1625.5 47.5795C1625.9 47.3068 1626.21 46.9167 1626.42 46.4091C1626.63 45.9015 1626.74 45.2973 1626.74 44.5966C1626.74 43.9148 1626.63 43.3106 1626.42 42.7841C1626.21 42.2538 1625.91 41.8371 1625.51 41.5341C1625.12 41.2273 1624.64 41.0739 1624.07 41.0739C1623.48 41.0739 1622.99 41.2311 1622.59 41.5455C1622.19 41.8598 1621.88 42.2841 1621.68 42.8182C1621.47 43.3485 1621.37 43.9413 1621.37 44.5966C1621.37 45.2633 1621.48 45.8523 1621.68 46.3636C1621.89 46.8712 1622.2 47.2689 1622.6 47.5568C1623 47.8409 1623.49 47.983 1624.07 47.983ZM1635.92 37.3636V49H1634.91V37.3636H1635.92ZM1642.13 49.1818C1641.31 49.1818 1640.61 48.9924 1640.02 48.6136C1639.42 48.2311 1638.96 47.7027 1638.63 47.0284C1638.31 46.3504 1638.15 45.5701 1638.15 44.6875C1638.15 43.8087 1638.31 43.0284 1638.63 42.3466C1638.96 41.661 1639.41 41.125 1639.98 40.7386C1640.56 40.3485 1641.22 40.1534 1641.98 40.1534C1642.45 40.1534 1642.91 40.2405 1643.35 40.4148C1643.78 40.5852 1644.18 40.8485 1644.53 41.2045C1644.88 41.5568 1645.16 42.0019 1645.36 42.5398C1645.57 43.0739 1645.67 43.7064 1645.67 44.4375V44.9375H1638.85V44.0455H1644.63C1644.63 43.4848 1644.52 42.9811 1644.29 42.5341C1644.07 42.0833 1643.76 41.7273 1643.36 41.4659C1642.96 41.2045 1642.5 41.0739 1641.98 41.0739C1641.42 41.0739 1640.94 41.2216 1640.52 41.517C1640.1 41.8125 1639.77 42.2027 1639.53 42.6875C1639.29 43.1723 1639.17 43.7027 1639.17 44.2784V44.8125C1639.17 45.5057 1639.29 46.1117 1639.53 46.6307C1639.77 47.1458 1640.11 47.5455 1640.56 47.8295C1641 48.1136 1641.52 48.2557 1642.13 48.2557C1642.54 48.2557 1642.9 48.1913 1643.21 48.0625C1643.53 47.9337 1643.79 47.7614 1644 47.5455C1644.22 47.3258 1644.38 47.0852 1644.49 46.8239L1645.45 47.1364C1645.32 47.5038 1645.1 47.8428 1644.8 48.1534C1644.5 48.464 1644.13 48.714 1643.67 48.9034C1643.23 49.089 1642.71 49.1818 1642.13 49.1818ZM1651.49 40.2727V41.1534H1647.2V40.2727H1651.49ZM1648.54 49V38.9943C1648.54 38.5246 1648.65 38.1288 1648.86 37.8068C1649.08 37.4848 1649.37 37.2405 1649.72 37.0739C1650.07 36.9072 1650.45 36.8239 1650.84 36.8239C1651.11 36.8239 1651.33 36.8466 1651.5 36.892C1651.68 36.9337 1651.82 36.9754 1651.92 37.017L1651.62 37.9034C1651.55 37.8807 1651.46 37.8542 1651.35 37.8239C1651.24 37.7936 1651.1 37.7784 1650.93 37.7784C1650.49 37.7784 1650.15 37.9015 1649.91 38.1477C1649.68 38.3939 1649.56 38.7462 1649.56 39.2045L1649.55 49H1648.54ZM1656.94 40.2727V41.1534H1652.78V40.2727H1656.94ZM1654.08 38.1818H1655.1V46.7216C1655.1 47.0852 1655.16 47.3712 1655.29 47.5795C1655.41 47.7841 1655.57 47.9299 1655.77 48.017C1655.97 48.1004 1656.19 48.142 1656.42 48.142C1656.55 48.142 1656.66 48.1345 1656.76 48.1193C1656.85 48.1004 1656.94 48.0814 1657.01 48.0625L1657.22 48.9773C1657.12 49.0152 1657 49.0492 1656.86 49.0795C1656.72 49.1136 1656.54 49.1307 1656.33 49.1307C1655.95 49.1307 1655.6 49.0492 1655.25 48.8864C1654.91 48.7235 1654.63 48.4811 1654.41 48.1591C1654.19 47.8371 1654.08 47.4375 1654.08 46.9602V38.1818ZM1663.95 49V37.3636H1664.97V41.9375H1665.06C1665.17 41.6761 1665.34 41.4072 1665.55 41.1307C1665.76 40.8542 1666.05 40.6231 1666.39 40.4375C1666.75 40.2481 1667.19 40.1534 1667.72 40.1534C1668.44 40.1534 1669.07 40.3428 1669.61 40.7216C1670.15 41.0966 1670.57 41.6231 1670.88 42.3011C1671.18 42.9754 1671.33 43.7614 1671.33 44.6591C1671.33 45.5606 1671.18 46.3504 1670.88 47.0284C1670.58 47.7064 1670.16 48.2348 1669.62 48.6136C1669.08 48.9924 1668.45 49.1818 1667.74 49.1818C1667.21 49.1818 1666.77 49.0871 1666.41 48.8977C1666.06 48.7083 1665.78 48.4754 1665.56 48.1989C1665.34 47.9186 1665.18 47.6458 1665.06 47.3807H1664.93V49H1663.95ZM1664.95 44.642C1664.95 45.3466 1665.06 45.9716 1665.26 46.517C1665.48 47.0587 1665.78 47.4848 1666.17 47.7955C1666.57 48.1023 1667.05 48.2557 1667.62 48.2557C1668.2 48.2557 1668.69 48.0966 1669.09 47.7784C1669.49 47.4564 1669.79 47.0227 1670 46.4773C1670.21 45.9318 1670.32 45.3201 1670.32 44.642C1670.32 43.9716 1670.21 43.3674 1670 42.8295C1669.8 42.2917 1669.5 41.8655 1669.09 41.5511C1668.69 41.233 1668.2 41.0739 1667.62 41.0739C1667.05 41.0739 1666.57 41.2273 1666.17 41.5341C1665.77 41.8371 1665.47 42.2576 1665.26 42.7955C1665.06 43.3295 1664.95 43.9451 1664.95 44.642ZM1677.08 49.1818C1676.27 49.1818 1675.56 48.9924 1674.97 48.6136C1674.37 48.2311 1673.91 47.7027 1673.59 47.0284C1673.27 46.3504 1673.11 45.5701 1673.11 44.6875C1673.11 43.8087 1673.27 43.0284 1673.59 42.3466C1673.91 41.661 1674.36 41.125 1674.93 40.7386C1675.51 40.3485 1676.18 40.1534 1676.93 40.1534C1677.4 40.1534 1677.86 40.2405 1678.3 40.4148C1678.74 40.5852 1679.13 40.8485 1679.48 41.2045C1679.83 41.5568 1680.11 42.0019 1680.32 42.5398C1680.52 43.0739 1680.62 43.7064 1680.62 44.4375V44.9375H1673.8V44.0455H1679.59C1679.59 43.4848 1679.47 42.9811 1679.25 42.5341C1679.02 42.0833 1678.71 41.7273 1678.31 41.4659C1677.91 41.2045 1677.45 41.0739 1676.93 41.0739C1676.38 41.0739 1675.89 41.2216 1675.47 41.517C1675.05 41.8125 1674.72 42.2027 1674.48 42.6875C1674.25 43.1723 1674.13 43.7027 1674.12 44.2784V44.8125C1674.12 45.5057 1674.24 46.1117 1674.48 46.6307C1674.72 47.1458 1675.07 47.5455 1675.51 47.8295C1675.95 48.1136 1676.48 48.2557 1677.08 48.2557C1677.5 48.2557 1677.86 48.1913 1678.17 48.0625C1678.48 47.9337 1678.75 47.7614 1678.96 47.5455C1679.17 47.3258 1679.34 47.0852 1679.45 46.8239L1680.41 47.1364C1680.27 47.5038 1680.06 47.8428 1679.75 48.1534C1679.45 48.464 1679.08 48.714 1678.63 48.9034C1678.18 49.089 1677.67 49.1818 1677.08 49.1818ZM1683.86 43.5455V49H1682.85V37.3636H1683.86V41.642H1683.95C1684.16 41.1913 1684.47 40.8314 1684.9 40.5625C1685.33 40.2936 1685.88 40.1591 1686.54 40.1591C1687.13 40.1591 1687.65 40.2803 1688.1 40.5227C1688.54 40.7652 1688.89 41.1231 1689.14 41.5966C1689.39 42.0701 1689.52 42.6534 1689.52 43.3466V49H1688.5V43.4091C1688.5 42.6894 1688.3 42.1231 1687.9 41.7102C1687.5 41.2936 1686.96 41.0852 1686.28 41.0852C1685.82 41.0852 1685.4 41.1837 1685.04 41.3807C1684.67 41.5777 1684.39 41.8617 1684.17 42.233C1683.97 42.6004 1683.86 43.0379 1683.86 43.5455ZM1692.19 49V40.2727H1693.21V49H1692.19ZM1692.71 38.7727C1692.5 38.7727 1692.32 38.7027 1692.17 38.5625C1692.03 38.4186 1691.95 38.2462 1691.95 38.0455C1691.95 37.8447 1692.03 37.6742 1692.17 37.5341C1692.32 37.3902 1692.5 37.3182 1692.71 37.3182C1692.92 37.3182 1693.09 37.3902 1693.24 37.5341C1693.39 37.6742 1693.46 37.8447 1693.46 38.0455C1693.46 38.2462 1693.39 38.4186 1693.24 38.5625C1693.09 38.7027 1692.92 38.7727 1692.71 38.7727ZM1696.89 43.5455V49H1695.88V40.2727H1696.87V41.642H1696.96C1697.16 41.1951 1697.48 40.8371 1697.91 40.5682C1698.35 40.2955 1698.88 40.1591 1699.52 40.1591C1700.11 40.1591 1700.63 40.2822 1701.07 40.5284C1701.52 40.7708 1701.86 41.1288 1702.11 41.6023C1702.36 42.0758 1702.48 42.6572 1702.48 43.3466V49H1701.47V43.4091C1701.47 42.6932 1701.27 42.1269 1700.87 41.7102C1700.47 41.2936 1699.94 41.0852 1699.27 41.0852C1698.81 41.0852 1698.4 41.1837 1698.05 41.3807C1697.69 41.5777 1697.41 41.8617 1697.2 42.233C1697 42.6004 1696.89 43.0379 1696.89 43.5455ZM1708.29 49.1818C1707.57 49.1818 1706.95 48.9924 1706.41 48.6136C1705.87 48.2348 1705.45 47.7064 1705.15 47.0284C1704.85 46.3504 1704.7 45.5606 1704.7 44.6591C1704.7 43.7614 1704.85 42.9754 1705.15 42.3011C1705.45 41.6231 1705.87 41.0966 1706.41 40.7216C1706.96 40.3428 1707.59 40.1534 1708.31 40.1534C1708.84 40.1534 1709.28 40.2481 1709.63 40.4375C1709.98 40.6231 1710.27 40.8542 1710.48 41.1307C1710.69 41.4072 1710.85 41.6761 1710.97 41.9375H1711.06V37.3636H1712.08V49H1711.09V47.3807H1710.97C1710.85 47.6458 1710.69 47.9186 1710.47 48.1989C1710.26 48.4754 1709.97 48.7083 1709.61 48.8977C1709.26 49.0871 1708.82 49.1818 1708.29 49.1818ZM1708.41 48.2557C1708.97 48.2557 1709.45 48.1023 1709.85 47.7955C1710.25 47.4848 1710.55 47.0587 1710.76 46.517C1710.97 45.9716 1711.08 45.3466 1711.08 44.642C1711.08 43.9451 1710.98 43.3295 1710.77 42.7955C1710.56 42.2576 1710.26 41.8371 1709.86 41.5341C1709.46 41.2273 1708.98 41.0739 1708.41 41.0739C1707.83 41.0739 1707.33 41.233 1706.93 41.5511C1706.53 41.8655 1706.23 42.2917 1706.02 42.8295C1705.82 43.3674 1705.72 43.9716 1705.72 44.642C1705.72 45.3201 1705.82 45.9318 1706.03 46.4773C1706.24 47.0227 1706.54 47.4564 1706.94 47.7784C1707.34 48.0966 1707.83 48.2557 1708.41 48.2557Z" fill="white"/>
<path d="M1282.67 35C1282.67 37.9455 1285.05 40.3333 1288 40.3333C1290.95 40.3333 1293.33 37.9455 1293.33 35C1293.33 32.0545 1290.95 29.6667 1288 29.6667C1285.05 29.6667 1282.67 32.0545 1282.67 35ZM1265 36H1288V34H1265V36Z" fill="url(#paint1_linear_158_1021)"/>
<circle cx="1233" cy="35" r="35" fill="url(#paint2_linear_158_1021)"/>
<circle cx="1233" cy="35" r="27" fill="white"/>
<path d="M1224.02 44.36C1222 44.36 1220.26 43.976 1218.79 43.208C1217.33 42.424 1216.2 41.328 1215.4 39.92C1214.6 38.512 1214.2 36.872 1214.2 35C1214.2 33.128 1214.6 31.488 1215.4 30.08C1216.2 28.672 1217.33 27.584 1218.79 26.816C1220.26 26.032 1222 25.64 1224.02 25.64C1226.02 25.64 1227.75 26.032 1229.2 26.816C1230.67 27.584 1231.81 28.672 1232.61 30.08C1233.41 31.488 1233.81 33.128 1233.81 35C1233.81 36.872 1233.41 38.512 1232.61 39.92C1231.81 41.328 1230.67 42.424 1229.2 43.208C1227.75 43.976 1226.02 44.36 1224.02 44.36ZM1224.02 41.048C1225.83 41.048 1227.23 40.52 1228.22 39.464C1229.23 38.392 1229.73 36.904 1229.73 35C1229.73 33.08 1229.23 31.592 1228.22 30.536C1227.23 29.48 1225.83 28.952 1224.02 28.952C1222.21 28.952 1220.8 29.48 1219.79 30.536C1218.79 31.592 1218.28 33.08 1218.28 35C1218.28 36.92 1218.79 38.408 1219.79 39.464C1220.8 40.52 1222.21 41.048 1224.02 41.048ZM1237.92 26H1251.55V29.12H1239.17L1240.82 28.28L1239.81 35.312H1238.73C1239.1 34.736 1239.59 34.2 1240.2 33.704C1240.82 33.208 1241.58 32.808 1242.48 32.504C1243.37 32.2 1244.41 32.048 1245.57 32.048C1247.13 32.048 1248.45 32.312 1249.56 32.84C1250.66 33.352 1251.5 34.064 1252.08 34.976C1252.67 35.872 1252.97 36.896 1252.97 38.048C1252.97 39.28 1252.62 40.368 1251.93 41.312C1251.25 42.256 1250.27 43 1249.01 43.544C1247.74 44.088 1246.24 44.36 1244.49 44.36C1242.77 44.36 1241.26 44.112 1239.98 43.616C1238.7 43.104 1237.69 42.408 1236.96 41.528C1236.24 40.648 1235.81 39.672 1235.69 38.6H1239.74C1239.93 39.384 1240.44 40.008 1241.25 40.472C1242.07 40.92 1243.15 41.144 1244.49 41.144C1245.39 41.144 1246.17 41.024 1246.82 40.784C1247.48 40.528 1247.98 40.168 1248.33 39.704C1248.7 39.24 1248.89 38.688 1248.89 38.048C1248.89 37.424 1248.73 36.88 1248.41 36.416C1248.1 35.936 1247.64 35.568 1247.01 35.312C1246.41 35.056 1245.63 34.928 1244.69 34.928C1243.92 34.928 1243.22 35.016 1242.6 35.192C1241.99 35.368 1241.46 35.6 1241.01 35.888C1240.58 36.16 1240.21 36.448 1239.91 36.752H1236.43L1237.92 26Z" fill="#000C74"/>
<defs>
<linearGradient id="paint0_linear_158_1021" x1="1288" y1="34.5" x2="1758" y2="34.5" gradientUnits="userSpaceOnUse">
<stop stop-color="#00A93C"/>
<stop offset="1" stop-color="#24CBFF"/>
</linearGradient>
<linearGradient id="paint1_linear_158_1021" x1="1265" y1="35.5" x2="1288" y2="35.5" gradientUnits="userSpaceOnUse">
<stop stop-color="#00A93C"/>
<stop offset="1" stop-color="#24CBFF"/>
</linearGradient>
<linearGradient id="paint2_linear_158_1021" x1="1198" y1="35" x2="1268" y2="35" gradientUnits="userSpaceOnUse">
<stop stop-color="#00A93C"/>
<stop offset="1" stop-color="#000C74"/>
</linearGradient>
</defs>
</svg>
