<svg width="100%" viewBox="0 0 1920 70" fill="none" xmlns="http://www.w3.org/2000/svg">
<rect x="1245.5" y="5.5" width="436" height="58" rx="19.5" stroke="url(#paint0_linear_158_989)"/>
<path d="M1291.12 32.2898H1289C1288.94 31.9413 1288.83 31.6326 1288.66 31.3636C1288.5 31.0909 1288.3 30.8598 1288.06 30.6705C1287.81 30.4811 1287.54 30.339 1287.23 30.2443C1286.92 30.1458 1286.59 30.0966 1286.23 30.0966C1285.6 30.0966 1285.04 30.2557 1284.55 30.5739C1284.06 30.8883 1283.68 31.3504 1283.4 31.9602C1283.13 32.5663 1282.99 33.3068 1282.99 34.1818C1282.99 35.072 1283.13 35.822 1283.4 36.4318C1283.68 37.0379 1284.06 37.4962 1284.55 37.8068C1285.04 38.1136 1285.6 38.267 1286.23 38.267C1286.57 38.267 1286.9 38.2216 1287.2 38.1307C1287.51 38.036 1287.78 37.8977 1288.03 37.7159C1288.27 37.5341 1288.48 37.3106 1288.65 37.0455C1288.82 36.7803 1288.93 36.4773 1289 36.1364L1291.12 36.1477C1291.04 36.7008 1290.87 37.2197 1290.61 37.7045C1290.35 38.1894 1290 38.6174 1289.58 38.9886C1289.15 39.3561 1288.66 39.6439 1288.09 39.8523C1287.52 40.0568 1286.89 40.1591 1286.2 40.1591C1285.17 40.1591 1284.26 39.9223 1283.46 39.4489C1282.66 38.9754 1282.02 38.2917 1281.56 37.3977C1281.1 36.5038 1280.87 35.4318 1280.87 34.1818C1280.87 32.928 1281.1 31.8561 1281.57 30.9659C1282.03 30.072 1282.67 29.3883 1283.47 28.9148C1284.27 28.4413 1285.18 28.2045 1286.2 28.2045C1286.85 28.2045 1287.45 28.2955 1288 28.4773C1288.56 28.6591 1289.06 28.9261 1289.49 29.2784C1289.93 29.6269 1290.29 30.0549 1290.57 30.5625C1290.85 31.0663 1291.04 31.642 1291.12 32.2898ZM1300.39 28.3636H1302.5V35.9659C1302.5 36.7992 1302.3 37.5322 1301.91 38.1648C1301.52 38.7973 1300.97 39.2917 1300.26 39.6477C1299.55 40 1298.72 40.1761 1297.78 40.1761C1296.82 40.1761 1296 40 1295.29 39.6477C1294.58 39.2917 1294.03 38.7973 1293.64 38.1648C1293.25 37.5322 1293.05 36.7992 1293.05 35.9659V28.3636H1295.16V35.7898C1295.16 36.2746 1295.27 36.7064 1295.48 37.0852C1295.7 37.464 1296 37.7614 1296.39 37.9773C1296.78 38.1894 1297.24 38.2955 1297.78 38.2955C1298.31 38.2955 1298.77 38.1894 1299.16 37.9773C1299.56 37.7614 1299.86 37.464 1300.07 37.0852C1300.28 36.7064 1300.39 36.2746 1300.39 35.7898V28.3636ZM1311.11 31.5625C1311.06 31.0663 1310.84 30.6799 1310.44 30.4034C1310.05 30.1269 1309.54 29.9886 1308.92 29.9886C1308.48 29.9886 1308.1 30.0549 1307.79 30.1875C1307.47 30.3201 1307.23 30.5 1307.07 30.7273C1306.9 30.9545 1306.81 31.214 1306.81 31.5057C1306.81 31.7481 1306.87 31.9583 1306.98 32.1364C1307.09 32.3144 1307.24 32.4659 1307.44 32.5909C1307.63 32.7121 1307.84 32.8144 1308.08 32.8977C1308.31 32.9811 1308.55 33.0511 1308.79 33.108L1309.88 33.3807C1310.32 33.483 1310.74 33.6212 1311.15 33.7955C1311.56 33.9697 1311.92 34.1894 1312.24 34.4545C1312.57 34.7197 1312.83 35.0398 1313.02 35.4148C1313.21 35.7898 1313.3 36.2292 1313.3 36.733C1313.3 37.4148 1313.13 38.0152 1312.78 38.5341C1312.43 39.0492 1311.92 39.4527 1311.27 39.7443C1310.61 40.0322 1309.82 40.1761 1308.88 40.1761C1307.98 40.1761 1307.19 40.036 1306.53 39.7557C1305.86 39.4754 1305.35 39.0663 1304.97 38.5284C1304.6 37.9905 1304.4 37.3352 1304.37 36.5625H1306.44C1306.47 36.9678 1306.6 37.3049 1306.82 37.5739C1307.04 37.8428 1307.32 38.0436 1307.67 38.1761C1308.03 38.3087 1308.43 38.375 1308.87 38.375C1309.33 38.375 1309.73 38.3068 1310.07 38.1705C1310.42 38.0303 1310.69 37.8371 1310.89 37.5909C1311.09 37.3409 1311.19 37.0492 1311.19 36.7159C1311.19 36.4129 1311.1 36.1629 1310.92 35.9659C1310.75 35.7652 1310.51 35.5985 1310.19 35.4659C1309.88 35.3295 1309.52 35.2083 1309.1 35.1023L1307.78 34.7614C1306.82 34.5152 1306.06 34.142 1305.5 33.642C1304.95 33.1383 1304.67 32.4697 1304.67 31.6364C1304.67 30.9508 1304.86 30.3504 1305.23 29.8352C1305.61 29.3201 1306.12 28.9205 1306.76 28.6364C1307.4 28.3485 1308.13 28.2045 1308.95 28.2045C1309.77 28.2045 1310.5 28.3485 1311.12 28.6364C1311.74 28.9205 1312.23 29.3163 1312.59 29.8239C1312.95 30.3277 1313.13 30.9072 1313.14 31.5625H1311.11ZM1314.67 30.1307V28.3636H1323.95V30.1307H1320.36V40H1318.26V30.1307H1314.67ZM1335.62 34.1818C1335.62 35.4356 1335.39 36.5095 1334.92 37.4034C1334.45 38.2936 1333.82 38.9754 1333.01 39.4489C1332.21 39.9223 1331.3 40.1591 1330.28 40.1591C1329.26 40.1591 1328.35 39.9223 1327.54 39.4489C1326.74 38.9716 1326.1 38.2879 1325.63 37.3977C1325.16 36.5038 1324.93 35.4318 1324.93 34.1818C1324.93 32.928 1325.16 31.8561 1325.63 30.9659C1326.1 30.072 1326.74 29.3883 1327.54 28.9148C1328.35 28.4413 1329.26 28.2045 1330.28 28.2045C1331.3 28.2045 1332.21 28.4413 1333.01 28.9148C1333.82 29.3883 1334.45 30.072 1334.92 30.9659C1335.39 31.8561 1335.62 32.928 1335.62 34.1818ZM1333.5 34.1818C1333.5 33.2992 1333.37 32.5549 1333.09 31.9489C1332.82 31.339 1332.44 30.8788 1331.95 30.5682C1331.47 30.2538 1330.91 30.0966 1330.28 30.0966C1329.64 30.0966 1329.09 30.2538 1328.6 30.5682C1328.12 30.8788 1327.74 31.339 1327.46 31.9489C1327.19 32.5549 1327.05 33.2992 1327.05 34.1818C1327.05 35.0644 1327.19 35.8106 1327.46 36.4205C1327.74 37.0265 1328.12 37.4867 1328.6 37.8011C1329.09 38.1117 1329.64 38.267 1330.28 38.267C1330.91 38.267 1331.47 38.1117 1331.95 37.8011C1332.44 37.4867 1332.82 37.0265 1333.09 36.4205C1333.37 35.8106 1333.5 35.0644 1333.5 34.1818ZM1337.62 28.3636H1340.2L1343.65 36.7955H1343.79L1347.24 28.3636H1349.82V40H1347.8V32.0057H1347.69L1344.47 39.9659H1342.96L1339.75 31.9886H1339.64V40H1337.62V28.3636ZM1352.12 40V28.3636H1359.68V30.1307H1354.22V33.2898H1359.29V35.0568H1354.22V38.233H1359.73V40H1352.12ZM1361.84 40V28.3636H1366.2C1367.09 28.3636 1367.84 28.5189 1368.45 28.8295C1369.06 29.1402 1369.52 29.5758 1369.83 30.1364C1370.14 30.6932 1370.3 31.3428 1370.3 32.0852C1370.3 32.8314 1370.14 33.4792 1369.82 34.0284C1369.51 34.5739 1369.05 34.9962 1368.43 35.2955C1367.82 35.5909 1367.06 35.7386 1366.17 35.7386H1363.06V33.9886H1365.89C1366.41 33.9886 1366.84 33.9167 1367.17 33.7727C1367.5 33.625 1367.75 33.411 1367.91 33.1307C1368.07 32.8466 1368.15 32.4981 1368.15 32.0852C1368.15 31.6723 1368.07 31.3201 1367.91 31.0284C1367.75 30.733 1367.5 30.5095 1367.16 30.358C1366.83 30.2027 1366.4 30.125 1365.88 30.125H1363.94V40H1361.84ZM1367.85 34.7273L1370.73 40H1368.38L1365.55 34.7273H1367.85ZM1376.21 40V28.3636H1383.66V30.1307H1378.32V33.2898H1383.15V35.0568H1378.32V40H1376.21ZM1395.98 34.1818C1395.98 35.4356 1395.75 36.5095 1395.28 37.4034C1394.81 38.2936 1394.18 38.9754 1393.37 39.4489C1392.57 39.9223 1391.66 40.1591 1390.64 40.1591C1389.62 40.1591 1388.7 39.9223 1387.9 39.4489C1387.09 38.9716 1386.46 38.2879 1385.99 37.3977C1385.52 36.5038 1385.29 35.4318 1385.29 34.1818C1385.29 32.928 1385.52 31.8561 1385.99 30.9659C1386.46 30.072 1387.09 29.3883 1387.9 28.9148C1388.7 28.4413 1389.62 28.2045 1390.64 28.2045C1391.66 28.2045 1392.57 28.4413 1393.37 28.9148C1394.18 29.3883 1394.81 30.072 1395.28 30.9659C1395.75 31.8561 1395.98 32.928 1395.98 34.1818ZM1393.86 34.1818C1393.86 33.2992 1393.73 32.5549 1393.45 31.9489C1393.18 31.339 1392.8 30.8788 1392.31 30.5682C1391.83 30.2538 1391.27 30.0966 1390.64 30.0966C1390 30.0966 1389.45 30.2538 1388.96 30.5682C1388.48 30.8788 1388.09 31.339 1387.82 31.9489C1387.55 32.5549 1387.41 33.2992 1387.41 34.1818C1387.41 35.0644 1387.55 35.8106 1387.82 36.4205C1388.09 37.0265 1388.48 37.4867 1388.96 37.8011C1389.45 38.1117 1390 38.267 1390.64 38.267C1391.27 38.267 1391.83 38.1117 1392.31 37.8011C1392.8 37.4867 1393.18 37.0265 1393.45 36.4205C1393.73 35.8106 1393.86 35.0644 1393.86 34.1818ZM1407.94 32.2898H1405.81C1405.75 31.9413 1405.64 31.6326 1405.48 31.3636C1405.31 31.0909 1405.11 30.8598 1404.87 30.6705C1404.63 30.4811 1404.35 30.339 1404.04 30.2443C1403.73 30.1458 1403.4 30.0966 1403.04 30.0966C1402.41 30.0966 1401.85 30.2557 1401.36 30.5739C1400.87 30.8883 1400.49 31.3504 1400.21 31.9602C1399.94 32.5663 1399.8 33.3068 1399.8 34.1818C1399.8 35.072 1399.94 35.822 1400.21 36.4318C1400.49 37.0379 1400.88 37.4962 1401.36 37.8068C1401.85 38.1136 1402.41 38.267 1403.04 38.267C1403.39 38.267 1403.71 38.2216 1404.02 38.1307C1404.32 38.036 1404.6 37.8977 1404.84 37.7159C1405.09 37.5341 1405.29 37.3106 1405.46 37.0455C1405.63 36.7803 1405.75 36.4773 1405.81 36.1364L1407.94 36.1477C1407.86 36.7008 1407.68 37.2197 1407.42 37.7045C1407.16 38.1894 1406.81 38.6174 1406.39 38.9886C1405.97 39.3561 1405.47 39.6439 1404.9 39.8523C1404.33 40.0568 1403.7 40.1591 1403.01 40.1591C1401.99 40.1591 1401.07 39.9223 1400.27 39.4489C1399.47 38.9754 1398.84 38.2917 1398.37 37.3977C1397.91 36.5038 1397.68 35.4318 1397.68 34.1818C1397.68 32.928 1397.91 31.8561 1398.38 30.9659C1398.85 30.072 1399.48 29.3883 1400.28 28.9148C1401.09 28.4413 1401.99 28.2045 1403.01 28.2045C1403.66 28.2045 1404.26 28.2955 1404.82 28.4773C1405.37 28.6591 1405.87 28.9261 1406.31 29.2784C1406.74 29.6269 1407.1 30.0549 1407.38 30.5625C1407.66 31.0663 1407.85 31.642 1407.94 32.2898ZM1417.2 28.3636H1419.31V35.9659C1419.31 36.7992 1419.11 37.5322 1418.72 38.1648C1418.33 38.7973 1417.78 39.2917 1417.07 39.6477C1416.36 40 1415.54 40.1761 1414.59 40.1761C1413.64 40.1761 1412.81 40 1412.1 39.6477C1411.39 39.2917 1410.84 38.7973 1410.45 38.1648C1410.06 37.5322 1409.87 36.7992 1409.87 35.9659V28.3636H1411.97V35.7898C1411.97 36.2746 1412.08 36.7064 1412.29 37.0852C1412.51 37.464 1412.81 37.7614 1413.2 37.9773C1413.59 38.1894 1414.05 38.2955 1414.59 38.2955C1415.12 38.2955 1415.58 38.1894 1415.97 37.9773C1416.37 37.7614 1416.67 37.464 1416.88 37.0852C1417.1 36.7064 1417.2 36.2746 1417.2 35.7898V28.3636ZM1427.92 31.5625C1427.87 31.0663 1427.65 30.6799 1427.25 30.4034C1426.86 30.1269 1426.36 29.9886 1425.73 29.9886C1425.29 29.9886 1424.92 30.0549 1424.6 30.1875C1424.29 30.3201 1424.05 30.5 1423.88 30.7273C1423.71 30.9545 1423.63 31.214 1423.62 31.5057C1423.62 31.7481 1423.68 31.9583 1423.79 32.1364C1423.9 32.3144 1424.06 32.4659 1424.25 32.5909C1424.44 32.7121 1424.66 32.8144 1424.89 32.8977C1425.13 32.9811 1425.36 33.0511 1425.6 33.108L1426.69 33.3807C1427.13 33.483 1427.55 33.6212 1427.96 33.7955C1428.37 33.9697 1428.73 34.1894 1429.06 34.4545C1429.38 34.7197 1429.64 35.0398 1429.83 35.4148C1430.02 35.7898 1430.11 36.2292 1430.11 36.733C1430.11 37.4148 1429.94 38.0152 1429.59 38.5341C1429.24 39.0492 1428.74 39.4527 1428.08 39.7443C1427.42 40.0322 1426.63 40.1761 1425.7 40.1761C1424.79 40.1761 1424.01 40.036 1423.34 39.7557C1422.68 39.4754 1422.16 39.0663 1421.78 38.5284C1421.41 37.9905 1421.21 37.3352 1421.18 36.5625H1423.25C1423.28 36.9678 1423.41 37.3049 1423.63 37.5739C1423.85 37.8428 1424.13 38.0436 1424.49 38.1761C1424.84 38.3087 1425.24 38.375 1425.68 38.375C1426.14 38.375 1426.54 38.3068 1426.88 38.1705C1427.23 38.0303 1427.51 37.8371 1427.7 37.5909C1427.9 37.3409 1428 37.0492 1428 36.7159C1428 36.4129 1427.91 36.1629 1427.74 35.9659C1427.56 35.7652 1427.32 35.5985 1427 35.4659C1426.69 35.3295 1426.33 35.2083 1425.91 35.1023L1424.59 34.7614C1423.63 34.5152 1422.87 34.142 1422.32 33.642C1421.76 33.1383 1421.49 32.4697 1421.49 31.6364C1421.49 30.9508 1421.67 30.3504 1422.04 29.8352C1422.42 29.3201 1422.93 28.9205 1423.57 28.6364C1424.22 28.3485 1424.95 28.2045 1425.76 28.2045C1426.59 28.2045 1427.31 28.3485 1427.93 28.6364C1428.56 28.9205 1429.05 29.3163 1429.4 29.8239C1429.76 30.3277 1429.94 30.9072 1429.95 31.5625H1427.92ZM1441.12 33.7045V34.6591H1436.28V33.7045H1441.12ZM1448.39 40H1447.28L1451.51 28.3636H1452.65L1456.88 40H1455.77L1452.12 29.7443H1452.04L1448.39 40ZM1449.19 35.5398H1454.96V36.4943H1449.19V35.5398ZM1459.67 28.3636V40H1458.66V28.3636H1459.67ZM1464.29 40L1461.65 31.2727H1462.72L1464.79 38.4716H1464.86L1466.92 31.2727H1468L1470.04 38.4545H1470.12L1472.19 31.2727H1473.26L1470.62 40H1469.58L1467.51 32.8466H1467.4L1465.33 40H1464.29ZM1477.66 40.1989C1477.14 40.1989 1476.66 40.0966 1476.22 39.892C1475.78 39.6837 1475.44 39.3845 1475.18 38.9943C1474.92 38.6004 1474.79 38.1231 1474.79 37.5625C1474.79 37.1307 1474.88 36.767 1475.04 36.4716C1475.2 36.1761 1475.43 35.9337 1475.73 35.7443C1476.03 35.5549 1476.38 35.4053 1476.79 35.2955C1477.2 35.1856 1477.65 35.1004 1478.15 35.0398C1478.63 34.9792 1479.05 34.9261 1479.38 34.8807C1479.73 34.8352 1479.99 34.7633 1480.16 34.6648C1480.34 34.5663 1480.43 34.4072 1480.43 34.1875V33.983C1480.43 33.3883 1480.25 32.9205 1479.9 32.5795C1479.54 32.2348 1479.04 32.0625 1478.37 32.0625C1477.74 32.0625 1477.23 32.2008 1476.83 32.4773C1476.44 32.7538 1476.16 33.0795 1476 33.4545L1475.04 33.108C1475.24 32.6307 1475.51 32.25 1475.86 31.9659C1476.21 31.678 1476.6 31.4716 1477.03 31.3466C1477.46 31.2178 1477.9 31.1534 1478.35 31.1534C1478.68 31.1534 1479.03 31.197 1479.38 31.2841C1479.75 31.3712 1480.09 31.5227 1480.4 31.7386C1480.71 31.9508 1480.96 32.2481 1481.15 32.6307C1481.35 33.0095 1481.44 33.4905 1481.44 34.0739V40H1480.43V38.6193H1480.37C1480.25 38.8769 1480.07 39.1269 1479.83 39.3693C1479.59 39.6117 1479.29 39.8106 1478.93 39.9659C1478.57 40.1212 1478.15 40.1989 1477.66 40.1989ZM1477.8 39.2727C1478.34 39.2727 1478.8 39.1534 1479.2 38.9148C1479.59 38.6761 1479.89 38.3598 1480.11 37.9659C1480.32 37.5682 1480.43 37.1307 1480.43 36.6534V35.392C1480.35 35.464 1480.23 35.5284 1480.05 35.5852C1479.88 35.642 1479.67 35.6932 1479.44 35.7386C1479.21 35.7803 1478.99 35.8163 1478.76 35.8466C1478.53 35.8769 1478.33 35.9034 1478.15 35.9261C1477.65 35.9867 1477.23 36.0814 1476.88 36.2102C1476.54 36.339 1476.27 36.517 1476.08 36.7443C1475.9 36.9678 1475.81 37.2557 1475.81 37.608C1475.81 38.1383 1475.99 38.5492 1476.37 38.8409C1476.75 39.1288 1477.23 39.2727 1477.8 39.2727ZM1484.52 43.2727C1484.32 43.2727 1484.14 43.2538 1483.96 43.2159C1483.79 43.178 1483.65 43.1364 1483.55 43.0909L1483.82 42.1989C1484.16 42.3049 1484.47 42.3428 1484.74 42.3125C1485.01 42.286 1485.25 42.1648 1485.46 41.9489C1485.66 41.7367 1485.85 41.411 1486.01 40.9716L1486.33 40.0852L1483.12 31.2727H1484.22L1486.81 38.6648H1486.89L1489.48 31.2727H1490.58L1486.88 41.3807C1486.73 41.8011 1486.54 42.1515 1486.31 42.4318C1486.08 42.7159 1485.82 42.9261 1485.52 43.0625C1485.22 43.2027 1484.89 43.2727 1484.52 43.2727ZM1498.42 33.1875L1497.49 33.4489C1497.4 33.1875 1497.27 32.9508 1497.11 32.7386C1496.94 32.5265 1496.72 32.358 1496.45 32.233C1496.19 32.108 1495.86 32.0455 1495.46 32.0455C1494.87 32.0455 1494.39 32.1856 1494.01 32.4659C1493.63 32.7462 1493.44 33.108 1493.44 33.5511C1493.44 33.9261 1493.57 34.2311 1493.83 34.4659C1494.09 34.697 1494.49 34.8807 1495.03 35.017L1496.35 35.3409C1497.08 35.5189 1497.63 35.8011 1497.99 36.1875C1498.36 36.5739 1498.54 37.0587 1498.54 37.642C1498.54 38.1345 1498.41 38.572 1498.13 38.9545C1497.86 39.3371 1497.48 39.6383 1496.99 39.858C1496.51 40.0739 1495.94 40.1818 1495.3 40.1818C1494.45 40.1818 1493.75 39.9905 1493.2 39.608C1492.64 39.2216 1492.29 38.6648 1492.13 37.9375L1493.11 37.6989C1493.23 38.2178 1493.47 38.6098 1493.84 38.875C1494.21 39.1402 1494.69 39.2727 1495.29 39.2727C1495.96 39.2727 1496.49 39.1231 1496.89 38.8239C1497.3 38.5208 1497.5 38.142 1497.5 37.6875C1497.5 37.3352 1497.38 37.0398 1497.14 36.8011C1496.91 36.5587 1496.55 36.3807 1496.08 36.267L1494.65 35.9261C1493.89 35.7443 1493.33 35.4564 1492.97 35.0625C1492.61 34.6686 1492.42 34.1799 1492.42 33.5966C1492.42 33.1155 1492.55 32.6932 1492.82 32.3295C1493.08 31.9621 1493.44 31.6742 1493.89 31.4659C1494.35 31.2576 1494.88 31.1534 1495.46 31.1534C1496.26 31.1534 1496.9 31.3352 1497.38 31.6989C1497.86 32.0587 1498.21 32.5549 1498.42 33.1875ZM1506.27 28.3636V40H1505.26V28.3636H1506.27ZM1512.47 40.1818C1511.66 40.1818 1510.95 39.9924 1510.36 39.6136C1509.76 39.2311 1509.3 38.7027 1508.98 38.0284C1508.66 37.3504 1508.5 36.5701 1508.5 35.6875C1508.5 34.8087 1508.66 34.0284 1508.98 33.3466C1509.3 32.661 1509.75 32.125 1510.33 31.7386C1510.9 31.3485 1511.57 31.1534 1512.32 31.1534C1512.79 31.1534 1513.25 31.2405 1513.69 31.4148C1514.13 31.5852 1514.52 31.8485 1514.87 32.2045C1515.22 32.5568 1515.5 33.0019 1515.71 33.5398C1515.91 34.0739 1516.01 34.7064 1516.01 35.4375V35.9375H1509.19V35.0455H1514.98C1514.98 34.4848 1514.87 33.9811 1514.64 33.5341C1514.41 33.0833 1514.1 32.7273 1513.7 32.4659C1513.3 32.2045 1512.84 32.0739 1512.32 32.0739C1511.77 32.0739 1511.28 32.2216 1510.86 32.517C1510.44 32.8125 1510.11 33.2027 1509.87 33.6875C1509.64 34.1723 1509.52 34.7027 1509.51 35.2784V35.8125C1509.51 36.5057 1509.63 37.1117 1509.87 37.6307C1510.11 38.1458 1510.46 38.5455 1510.9 38.8295C1511.34 39.1136 1511.87 39.2557 1512.47 39.2557C1512.89 39.2557 1513.25 39.1913 1513.56 39.0625C1513.87 38.9337 1514.14 38.7614 1514.35 38.5455C1514.56 38.3258 1514.73 38.0852 1514.84 37.8239L1515.8 38.1364C1515.66 38.5038 1515.45 38.8428 1515.14 39.1534C1514.84 39.464 1514.47 39.714 1514.02 39.9034C1513.57 40.089 1513.06 40.1818 1512.47 40.1818ZM1520.68 40.1989C1520.15 40.1989 1519.67 40.0966 1519.24 39.892C1518.8 39.6837 1518.45 39.3845 1518.2 38.9943C1517.94 38.6004 1517.81 38.1231 1517.81 37.5625C1517.81 37.1307 1517.89 36.767 1518.05 36.4716C1518.22 36.1761 1518.45 35.9337 1518.75 35.7443C1519.05 35.5549 1519.4 35.4053 1519.81 35.2955C1520.22 35.1856 1520.67 35.1004 1521.16 35.0398C1521.65 34.9792 1522.06 34.9261 1522.4 34.8807C1522.74 34.8352 1523 34.7633 1523.18 34.6648C1523.36 34.5663 1523.45 34.4072 1523.45 34.1875V33.983C1523.45 33.3883 1523.27 32.9205 1522.91 32.5795C1522.56 32.2348 1522.05 32.0625 1521.39 32.0625C1520.76 32.0625 1520.25 32.2008 1519.85 32.4773C1519.46 32.7538 1519.18 33.0795 1519.02 33.4545L1518.06 33.108C1518.26 32.6307 1518.53 32.25 1518.88 31.9659C1519.23 31.678 1519.62 31.4716 1520.05 31.3466C1520.48 31.2178 1520.92 31.1534 1521.36 31.1534C1521.69 31.1534 1522.04 31.197 1522.4 31.2841C1522.76 31.3712 1523.1 31.5227 1523.41 31.7386C1523.72 31.9508 1523.97 32.2481 1524.17 32.6307C1524.36 33.0095 1524.46 33.4905 1524.46 34.0739V40H1523.45V38.6193H1523.38C1523.26 38.8769 1523.08 39.1269 1522.84 39.3693C1522.61 39.6117 1522.31 39.8106 1521.95 39.9659C1521.59 40.1212 1521.16 40.1989 1520.68 40.1989ZM1520.82 39.2727C1521.35 39.2727 1521.82 39.1534 1522.21 38.9148C1522.61 38.6761 1522.91 38.3598 1523.12 37.9659C1523.34 37.5682 1523.45 37.1307 1523.45 36.6534V35.392C1523.37 35.464 1523.24 35.5284 1523.07 35.5852C1522.89 35.642 1522.69 35.6932 1522.46 35.7386C1522.23 35.7803 1522 35.8163 1521.78 35.8466C1521.55 35.8769 1521.34 35.9034 1521.16 35.9261C1520.67 35.9867 1520.25 36.0814 1519.9 36.2102C1519.55 36.339 1519.29 36.517 1519.1 36.7443C1518.91 36.9678 1518.82 37.2557 1518.82 37.608C1518.82 38.1383 1519.01 38.5492 1519.39 38.8409C1519.77 39.1288 1520.24 39.2727 1520.82 39.2727ZM1530.29 40.1818C1529.57 40.1818 1528.95 39.9924 1528.41 39.6136C1527.87 39.2348 1527.45 38.7064 1527.15 38.0284C1526.85 37.3504 1526.7 36.5606 1526.7 35.6591C1526.7 34.7614 1526.85 33.9754 1527.15 33.3011C1527.45 32.6231 1527.87 32.0966 1528.41 31.7216C1528.96 31.3428 1529.59 31.1534 1530.31 31.1534C1530.84 31.1534 1531.28 31.2481 1531.63 31.4375C1531.98 31.6231 1532.27 31.8542 1532.48 32.1307C1532.69 32.4072 1532.85 32.6761 1532.97 32.9375H1533.06V28.3636H1534.08V40H1533.09V38.3807H1532.97C1532.85 38.6458 1532.69 38.9186 1532.47 39.1989C1532.26 39.4754 1531.97 39.7083 1531.61 39.8977C1531.26 40.0871 1530.82 40.1818 1530.29 40.1818ZM1530.41 39.2557C1530.97 39.2557 1531.45 39.1023 1531.85 38.7955C1532.25 38.4848 1532.55 38.0587 1532.76 37.517C1532.97 36.9716 1533.08 36.3466 1533.08 35.642C1533.08 34.9451 1532.98 34.3295 1532.77 33.7955C1532.56 33.2576 1532.26 32.8371 1531.86 32.5341C1531.46 32.2273 1530.98 32.0739 1530.41 32.0739C1529.83 32.0739 1529.33 32.233 1528.93 32.5511C1528.53 32.8655 1528.23 33.2917 1528.02 33.8295C1527.82 34.3674 1527.72 34.9716 1527.72 35.642C1527.72 36.3201 1527.82 36.9318 1528.03 37.4773C1528.24 38.0227 1528.54 38.4564 1528.94 38.7784C1529.34 39.0966 1529.83 39.2557 1530.41 39.2557ZM1536.97 40V31.2727H1537.99V40H1536.97ZM1537.49 29.7727C1537.28 29.7727 1537.1 29.7027 1536.95 29.5625C1536.81 29.4186 1536.73 29.2462 1536.73 29.0455C1536.73 28.8447 1536.81 28.6742 1536.95 28.5341C1537.1 28.3902 1537.28 28.3182 1537.49 28.3182C1537.7 28.3182 1537.88 28.3902 1538.02 28.5341C1538.17 28.6742 1538.24 28.8447 1538.24 29.0455C1538.24 29.2462 1538.17 29.4186 1538.02 29.5625C1537.88 29.7027 1537.7 29.7727 1537.49 29.7727ZM1541.67 34.5455V40H1540.66V31.2727H1541.65V32.642H1541.74C1541.94 32.1951 1542.26 31.8371 1542.69 31.5682C1543.13 31.2955 1543.67 31.1591 1544.31 31.1591C1544.89 31.1591 1545.41 31.2822 1545.85 31.5284C1546.3 31.7708 1546.64 32.1288 1546.89 32.6023C1547.14 33.0758 1547.27 33.6572 1547.27 34.3466V40H1546.25V34.4091C1546.25 33.6932 1546.05 33.1269 1545.65 32.7102C1545.25 32.2936 1544.72 32.0852 1544.05 32.0852C1543.59 32.0852 1543.18 32.1837 1542.83 32.3807C1542.47 32.5777 1542.19 32.8617 1541.98 33.233C1541.78 33.6004 1541.67 34.0379 1541.67 34.5455ZM1553.26 43.4545C1552.66 43.4545 1552.14 43.3769 1551.7 43.2216C1551.25 43.0701 1550.87 42.8617 1550.57 42.5966C1550.26 42.3314 1550.02 42.0341 1549.85 41.7045L1550.68 41.1591C1550.8 41.3788 1550.97 41.5947 1551.18 41.8068C1551.39 42.0189 1551.67 42.1951 1552 42.3352C1552.34 42.4754 1552.76 42.5455 1553.26 42.5455C1554.03 42.5455 1554.65 42.3523 1555.13 41.9659C1555.61 41.5795 1555.84 40.9792 1555.84 40.1648V38.1989H1555.75C1555.64 38.464 1555.47 38.7292 1555.25 38.9943C1555.03 39.2557 1554.74 39.4735 1554.38 39.6477C1554.03 39.822 1553.59 39.9091 1553.07 39.9091C1552.37 39.9091 1551.75 39.7367 1551.21 39.392C1550.68 39.0473 1550.25 38.5549 1549.94 37.9148C1549.63 37.2708 1549.48 36.5038 1549.48 35.6136C1549.48 34.7311 1549.63 33.9545 1549.93 33.2841C1550.23 32.6136 1550.65 32.0909 1551.2 31.7159C1551.74 31.3409 1552.37 31.1534 1553.09 31.1534C1553.62 31.1534 1554.07 31.2481 1554.42 31.4375C1554.77 31.6231 1555.05 31.8542 1555.26 32.1307C1555.48 32.4072 1555.65 32.6761 1555.77 32.9375H1555.87V31.2727H1556.86V40.2273C1556.86 40.9659 1556.7 41.5739 1556.39 42.0511C1556.07 42.5284 1555.65 42.8807 1555.11 43.108C1554.56 43.339 1553.95 43.4545 1553.26 43.4545ZM1553.19 38.983C1553.75 38.983 1554.23 38.8485 1554.63 38.5795C1555.03 38.3068 1555.33 37.9167 1555.54 37.4091C1555.75 36.9015 1555.86 36.2973 1555.86 35.5966C1555.86 34.9148 1555.76 34.3106 1555.55 33.7841C1555.34 33.2538 1555.04 32.8371 1554.64 32.5341C1554.25 32.2273 1553.76 32.0739 1553.19 32.0739C1552.61 32.0739 1552.11 32.2311 1551.71 32.5455C1551.31 32.8598 1551.01 33.2841 1550.8 33.8182C1550.6 34.3485 1550.5 34.9413 1550.5 35.5966C1550.5 36.2633 1550.6 36.8523 1550.81 37.3636C1551.02 37.8712 1551.32 38.2689 1551.72 38.5568C1552.13 38.8409 1552.61 38.983 1553.19 38.983ZM1564.05 40V31.2727H1565.07V40H1564.05ZM1564.57 29.7727C1564.36 29.7727 1564.18 29.7027 1564.03 29.5625C1563.88 29.4186 1563.81 29.2462 1563.81 29.0455C1563.81 28.8447 1563.88 28.6742 1564.03 28.5341C1564.18 28.3902 1564.36 28.3182 1564.57 28.3182C1564.78 28.3182 1564.95 28.3902 1565.1 28.5341C1565.25 28.6742 1565.32 28.8447 1565.32 29.0455C1565.32 29.2462 1565.25 29.4186 1565.1 29.5625C1564.95 29.7027 1564.78 29.7727 1564.57 29.7727ZM1568.75 34.5455V40H1567.74V31.2727H1568.72V32.642H1568.82C1569.02 32.1951 1569.34 31.8371 1569.77 31.5682C1570.21 31.2955 1570.74 31.1591 1571.38 31.1591C1571.97 31.1591 1572.49 31.2822 1572.93 31.5284C1573.38 31.7708 1573.72 32.1288 1573.97 32.6023C1574.22 33.0758 1574.34 33.6572 1574.34 34.3466V40H1573.33V34.4091C1573.33 33.6932 1573.13 33.1269 1572.73 32.7102C1572.33 32.2936 1571.8 32.0852 1571.13 32.0852C1570.67 32.0852 1570.26 32.1837 1569.91 32.3807C1569.55 32.5777 1569.27 32.8617 1569.06 33.233C1568.86 33.6004 1568.75 34.0379 1568.75 34.5455ZM1587.37 33.1875L1586.44 33.4489C1586.35 33.1875 1586.22 32.9508 1586.06 32.7386C1585.89 32.5265 1585.67 32.358 1585.4 32.233C1585.14 32.108 1584.81 32.0455 1584.42 32.0455C1583.83 32.0455 1583.34 32.1856 1582.96 32.4659C1582.58 32.7462 1582.39 33.108 1582.39 33.5511C1582.39 33.9261 1582.52 34.2311 1582.78 34.4659C1583.04 34.697 1583.44 34.8807 1583.98 35.017L1585.3 35.3409C1586.03 35.5189 1586.58 35.8011 1586.94 36.1875C1587.31 36.5739 1587.5 37.0587 1587.5 37.642C1587.5 38.1345 1587.36 38.572 1587.09 38.9545C1586.81 39.3371 1586.43 39.6383 1585.94 39.858C1585.46 40.0739 1584.9 40.1818 1584.26 40.1818C1583.4 40.1818 1582.7 39.9905 1582.15 39.608C1581.6 39.2216 1581.24 38.6648 1581.09 37.9375L1582.06 37.6989C1582.18 38.2178 1582.43 38.6098 1582.79 38.875C1583.16 39.1402 1583.64 39.2727 1584.24 39.2727C1584.91 39.2727 1585.45 39.1231 1585.85 38.8239C1586.25 38.5208 1586.45 38.142 1586.45 37.6875C1586.45 37.3352 1586.33 37.0398 1586.1 36.8011C1585.86 36.5587 1585.51 36.3807 1585.03 36.267L1583.6 35.9261C1582.85 35.7443 1582.29 35.4564 1581.92 35.0625C1581.56 34.6686 1581.38 34.1799 1581.38 33.5966C1581.38 33.1155 1581.51 32.6932 1581.77 32.3295C1582.03 31.9621 1582.39 31.6742 1582.85 31.4659C1583.31 31.2576 1583.83 31.1534 1584.42 31.1534C1585.22 31.1534 1585.85 31.3352 1586.33 31.6989C1586.81 32.0587 1587.16 32.5549 1587.37 33.1875ZM1593.24 40.1818C1592.42 40.1818 1591.72 39.9924 1591.12 39.6136C1590.53 39.2311 1590.07 38.7027 1589.74 38.0284C1589.42 37.3504 1589.26 36.5701 1589.26 35.6875C1589.26 34.8087 1589.42 34.0284 1589.74 33.3466C1590.07 32.661 1590.52 32.125 1591.09 31.7386C1591.67 31.3485 1592.33 31.1534 1593.09 31.1534C1593.56 31.1534 1594.02 31.2405 1594.45 31.4148C1594.89 31.5852 1595.29 31.8485 1595.64 32.2045C1595.99 32.5568 1596.27 33.0019 1596.47 33.5398C1596.68 34.0739 1596.78 34.7064 1596.78 35.4375V35.9375H1589.96V35.0455H1595.74C1595.74 34.4848 1595.63 33.9811 1595.4 33.5341C1595.18 33.0833 1594.87 32.7273 1594.47 32.4659C1594.07 32.2045 1593.61 32.0739 1593.09 32.0739C1592.53 32.0739 1592.05 32.2216 1591.62 32.517C1591.2 32.8125 1590.88 33.2027 1590.64 33.6875C1590.4 34.1723 1590.28 34.7027 1590.28 35.2784V35.8125C1590.28 36.5057 1590.4 37.1117 1590.64 37.6307C1590.88 38.1458 1591.22 38.5455 1591.66 38.8295C1592.11 39.1136 1592.63 39.2557 1593.24 39.2557C1593.65 39.2557 1594.01 39.1913 1594.32 39.0625C1594.64 38.9337 1594.9 38.7614 1595.11 38.5455C1595.33 38.3258 1595.49 38.0852 1595.6 37.8239L1596.56 38.1364C1596.43 38.5038 1596.21 38.8428 1595.91 39.1534C1595.61 39.464 1595.23 39.714 1594.78 39.9034C1594.34 40.089 1593.82 40.1818 1593.24 40.1818ZM1599.01 40V31.2727H1599.99V32.6136H1600.06C1600.24 32.1742 1600.54 31.8201 1600.97 31.5511C1601.41 31.2784 1601.9 31.142 1602.45 31.142C1602.53 31.142 1602.63 31.1439 1602.73 31.1477C1602.83 31.1515 1602.92 31.1553 1602.98 31.1591V32.1875C1602.94 32.1799 1602.86 32.1686 1602.75 32.1534C1602.63 32.1383 1602.51 32.1307 1602.38 32.1307C1601.92 32.1307 1601.52 32.2273 1601.16 32.4205C1600.81 32.6098 1600.53 32.8731 1600.33 33.2102C1600.12 33.5473 1600.02 33.9318 1600.02 34.3636V40H1599.01ZM1611.73 31.2727L1608.54 40H1607.46L1604.28 31.2727H1605.37L1607.96 38.6648H1608.04L1610.63 31.2727H1611.73ZM1613.72 40V31.2727H1614.74V40H1613.72ZM1614.24 29.7727C1614.03 29.7727 1613.85 29.7027 1613.7 29.5625C1613.56 29.4186 1613.48 29.2462 1613.48 29.0455C1613.48 28.8447 1613.56 28.6742 1613.7 28.5341C1613.85 28.3902 1614.03 28.3182 1614.24 28.3182C1614.45 28.3182 1614.63 28.3902 1614.77 28.5341C1614.92 28.6742 1614.99 28.8447 1614.99 29.0455C1614.99 29.2462 1614.92 29.4186 1614.77 29.5625C1614.63 29.7027 1614.45 29.7727 1614.24 29.7727ZM1620.82 40.1818C1620.04 40.1818 1619.36 39.9867 1618.78 39.5966C1618.21 39.2064 1617.76 38.6723 1617.44 37.9943C1617.12 37.3163 1616.96 36.5436 1616.96 35.6761C1616.96 34.8011 1617.13 34.0227 1617.45 33.3409C1617.77 32.6591 1618.22 32.125 1618.8 31.7386C1619.38 31.3485 1620.04 31.1534 1620.81 31.1534C1621.39 31.1534 1621.92 31.267 1622.39 31.4943C1622.86 31.7178 1623.25 32.0341 1623.56 32.4432C1623.87 32.8485 1624.07 33.322 1624.15 33.8636H1623.12C1623.02 33.3712 1622.76 32.9508 1622.36 32.6023C1621.96 32.25 1621.44 32.0739 1620.82 32.0739C1620.27 32.0739 1619.77 32.2254 1619.35 32.5284C1618.92 32.8277 1618.58 33.2462 1618.34 33.7841C1618.1 34.3182 1617.98 34.9375 1617.98 35.642C1617.98 36.3504 1618.1 36.9773 1618.33 37.5227C1618.57 38.0644 1618.9 38.4886 1619.32 38.7955C1619.75 39.1023 1620.25 39.2557 1620.82 39.2557C1621.21 39.2557 1621.56 39.1837 1621.88 39.0398C1622.2 38.892 1622.47 38.6837 1622.69 38.4148C1622.91 38.1458 1623.05 37.8258 1623.13 37.4545H1624.15C1624.08 37.9811 1623.89 38.4508 1623.59 38.8636C1623.29 39.2727 1622.91 39.5947 1622.44 39.8295C1621.97 40.0644 1621.43 40.1818 1620.82 40.1818ZM1629.85 40.1818C1629.03 40.1818 1628.33 39.9924 1627.73 39.6136C1627.14 39.2311 1626.68 38.7027 1626.35 38.0284C1626.03 37.3504 1625.87 36.5701 1625.87 35.6875C1625.87 34.8087 1626.03 34.0284 1626.35 33.3466C1626.68 32.661 1627.13 32.125 1627.7 31.7386C1628.28 31.3485 1628.94 31.1534 1629.69 31.1534C1630.17 31.1534 1630.62 31.2405 1631.06 31.4148C1631.5 31.5852 1631.9 31.8485 1632.25 32.2045C1632.6 32.5568 1632.88 33.0019 1633.08 33.5398C1633.29 34.0739 1633.39 34.7064 1633.39 35.4375V35.9375H1626.57V35.0455H1632.35C1632.35 34.4848 1632.24 33.9811 1632.01 33.5341C1631.79 33.0833 1631.48 32.7273 1631.08 32.4659C1630.68 32.2045 1630.22 32.0739 1629.69 32.0739C1629.14 32.0739 1628.65 32.2216 1628.23 32.517C1627.81 32.8125 1627.48 33.2027 1627.25 33.6875C1627.01 34.1723 1626.89 34.7027 1626.89 35.2784V35.8125C1626.89 36.5057 1627.01 37.1117 1627.25 37.6307C1627.49 38.1458 1627.83 38.5455 1628.27 38.8295C1628.72 39.1136 1629.24 39.2557 1629.85 39.2557C1630.26 39.2557 1630.62 39.1913 1630.93 39.0625C1631.25 38.9337 1631.51 38.7614 1631.72 38.5455C1631.94 38.3258 1632.1 38.0852 1632.21 37.8239L1633.17 38.1364C1633.04 38.5038 1632.82 38.8428 1632.52 39.1534C1632.22 39.464 1631.84 39.714 1631.39 39.9034C1630.95 40.089 1630.43 40.1818 1629.85 40.1818ZM1641.48 33.1875L1640.55 33.4489C1640.46 33.1875 1640.33 32.9508 1640.17 32.7386C1640 32.5265 1639.78 32.358 1639.51 32.233C1639.25 32.108 1638.92 32.0455 1638.53 32.0455C1637.93 32.0455 1637.45 32.1856 1637.07 32.4659C1636.69 32.7462 1636.5 33.108 1636.5 33.5511C1636.5 33.9261 1636.63 34.2311 1636.89 34.4659C1637.15 34.697 1637.55 34.8807 1638.09 35.017L1639.41 35.3409C1640.14 35.5189 1640.69 35.8011 1641.05 36.1875C1641.42 36.5739 1641.61 37.0587 1641.61 37.642C1641.61 38.1345 1641.47 38.572 1641.2 38.9545C1640.92 39.3371 1640.54 39.6383 1640.05 39.858C1639.57 40.0739 1639.01 40.1818 1638.37 40.1818C1637.51 40.1818 1636.81 39.9905 1636.26 39.608C1635.71 39.2216 1635.35 38.6648 1635.2 37.9375L1636.17 37.6989C1636.29 38.2178 1636.54 38.6098 1636.9 38.875C1637.27 39.1402 1637.75 39.2727 1638.35 39.2727C1639.02 39.2727 1639.56 39.1231 1639.96 38.8239C1640.36 38.5208 1640.56 38.142 1640.56 37.6875C1640.56 37.3352 1640.44 37.0398 1640.21 36.8011C1639.97 36.5587 1639.62 36.3807 1639.14 36.267L1637.71 35.9261C1636.96 35.7443 1636.39 35.4564 1636.03 35.0625C1635.67 34.6686 1635.49 34.1799 1635.49 33.5966C1635.49 33.1155 1635.62 32.6932 1635.88 32.3295C1636.14 31.9621 1636.5 31.6742 1636.96 31.4659C1637.42 31.2576 1637.94 31.1534 1638.53 31.1534C1639.32 31.1534 1639.96 31.3352 1640.44 31.6989C1640.92 32.0587 1641.27 32.5549 1641.48 33.1875Z" fill="white"/>
<path d="M1239.67 35C1239.67 37.9455 1242.05 40.3333 1245 40.3333C1247.95 40.3333 1250.33 37.9455 1250.33 35C1250.33 32.0545 1247.95 29.6667 1245 29.6667C1242.05 29.6667 1239.67 32.0545 1239.67 35ZM1222 36H1245V34H1222V36Z" fill="url(#paint1_linear_158_989)"/>
<circle cx="1190" cy="35" r="35" fill="url(#paint2_linear_158_989)"/>
<circle cx="1190" cy="35" r="27" fill="white"/>
<path d="M1184.16 44.36C1182.15 44.36 1180.4 43.976 1178.93 43.208C1177.47 42.424 1176.35 41.328 1175.55 39.92C1174.75 38.512 1174.35 36.872 1174.35 35C1174.35 33.128 1174.75 31.488 1175.55 30.08C1176.35 28.672 1177.47 27.584 1178.93 26.816C1180.4 26.032 1182.15 25.64 1184.16 25.64C1186.16 25.64 1187.89 26.032 1189.35 26.816C1190.82 27.584 1191.95 28.672 1192.75 30.08C1193.55 31.488 1193.95 33.128 1193.95 35C1193.95 36.872 1193.55 38.512 1192.75 39.92C1191.95 41.328 1190.82 42.424 1189.35 43.208C1187.89 43.976 1186.16 44.36 1184.16 44.36ZM1184.16 41.048C1185.97 41.048 1187.37 40.52 1188.36 39.464C1189.37 38.392 1189.87 36.904 1189.87 35C1189.87 33.08 1189.37 31.592 1188.36 30.536C1187.37 29.48 1185.97 28.952 1184.16 28.952C1182.35 28.952 1180.95 29.48 1179.94 30.536C1178.93 31.592 1178.43 33.08 1178.43 35C1178.43 36.92 1178.93 38.408 1179.94 39.464C1180.95 40.52 1182.35 41.048 1184.16 41.048ZM1204.81 26V44H1200.78V27.344L1202.8 29.168L1195.14 30.512V27.344L1201.81 26H1204.81Z" fill="#000C74"/>
<defs>
<linearGradient id="paint0_linear_158_989" x1="1245" y1="34.5" x2="1682" y2="34.5" gradientUnits="userSpaceOnUse">
<stop stop-color="#00A93C"/>
<stop offset="1" stop-color="#24CBFF"/>
</linearGradient>
<linearGradient id="paint1_linear_158_989" x1="1222" y1="35.5" x2="1245" y2="35.5" gradientUnits="userSpaceOnUse">
<stop stop-color="#00A93C"/>
<stop offset="1" stop-color="#24CBFF"/>
</linearGradient>
<linearGradient id="paint2_linear_158_989" x1="1155" y1="35" x2="1225" y2="35" gradientUnits="userSpaceOnUse">
<stop stop-color="#00A93C"/>
<stop offset="1" stop-color="#000C74"/>
</linearGradient>
</defs>
</svg>
