<svg width="100%" viewBox="0 0 1920 70" fill="none" xmlns="http://www.w3.org/2000/svg">
<rect x="1323.5" y="5.5" width="415" height="58" rx="19.5" stroke="url(#paint0_linear_158_1013)"/>
<path d="M1371.61 40V28.3636H1379.18V30.1307H1373.72V33.2898H1378.78V35.0568H1373.72V38.233H1379.22V40H1371.61ZM1390.89 28.3636V40H1389.01L1383.53 32.0739H1383.44V40H1381.33V28.3636H1383.21L1388.69 36.2955H1388.79V28.3636H1390.89ZM1392.68 30.1307V28.3636H1401.96V30.1307H1398.36V40H1396.27V30.1307H1392.68ZM1403.75 40V28.3636H1405.86V33.2898H1411.25V28.3636H1413.36V40H1411.25V35.0568H1405.86V40H1403.75ZM1422.99 28.3636H1425.1V35.9659C1425.1 36.7992 1424.9 37.5322 1424.51 38.1648C1424.12 38.7973 1423.57 39.2917 1422.86 39.6477C1422.15 40 1421.32 40.1761 1420.38 40.1761C1419.43 40.1761 1418.6 40 1417.89 39.6477C1417.18 39.2917 1416.63 38.7973 1416.24 38.1648C1415.85 37.5322 1415.66 36.7992 1415.66 35.9659V28.3636H1417.76V35.7898C1417.76 36.2746 1417.87 36.7064 1418.08 37.0852C1418.3 37.464 1418.6 37.7614 1418.99 37.9773C1419.38 38.1894 1419.84 38.2955 1420.38 38.2955C1420.91 38.2955 1421.37 38.1894 1421.76 37.9773C1422.16 37.7614 1422.46 37.464 1422.67 37.0852C1422.88 36.7064 1422.99 36.2746 1422.99 35.7898V28.3636ZM1433.71 31.5625C1433.66 31.0663 1433.44 30.6799 1433.04 30.4034C1432.65 30.1269 1432.15 29.9886 1431.52 29.9886C1431.08 29.9886 1430.7 30.0549 1430.39 30.1875C1430.08 30.3201 1429.83 30.5 1429.67 30.7273C1429.5 30.9545 1429.42 31.214 1429.41 31.5057C1429.41 31.7481 1429.47 31.9583 1429.58 32.1364C1429.69 32.3144 1429.84 32.4659 1430.04 32.5909C1430.23 32.7121 1430.44 32.8144 1430.68 32.8977C1430.91 32.9811 1431.15 33.0511 1431.39 33.108L1432.48 33.3807C1432.92 33.483 1433.34 33.6212 1433.75 33.7955C1434.16 33.9697 1434.52 34.1894 1434.84 34.4545C1435.17 34.7197 1435.43 35.0398 1435.62 35.4148C1435.81 35.7898 1435.9 36.2292 1435.9 36.733C1435.9 37.4148 1435.73 38.0152 1435.38 38.5341C1435.03 39.0492 1434.53 39.4527 1433.87 39.7443C1433.21 40.0322 1432.42 40.1761 1431.49 40.1761C1430.58 40.1761 1429.8 40.036 1429.13 39.7557C1428.47 39.4754 1427.95 39.0663 1427.57 38.5284C1427.2 37.9905 1427 37.3352 1426.97 36.5625H1429.04C1429.07 36.9678 1429.2 37.3049 1429.42 37.5739C1429.64 37.8428 1429.92 38.0436 1430.28 38.1761C1430.63 38.3087 1431.03 38.375 1431.47 38.375C1431.93 38.375 1432.33 38.3068 1432.67 38.1705C1433.02 38.0303 1433.3 37.8371 1433.49 37.5909C1433.69 37.3409 1433.79 37.0492 1433.79 36.7159C1433.79 36.4129 1433.7 36.1629 1433.53 35.9659C1433.35 35.7652 1433.11 35.5985 1432.79 35.4659C1432.48 35.3295 1432.12 35.2083 1431.7 35.1023L1430.38 34.7614C1429.42 34.5152 1428.66 34.142 1428.11 33.642C1427.55 33.1383 1427.28 32.4697 1427.28 31.6364C1427.28 30.9508 1427.46 30.3504 1427.83 29.8352C1428.21 29.3201 1428.72 28.9205 1429.36 28.6364C1430.01 28.3485 1430.73 28.2045 1431.55 28.2045C1432.37 28.2045 1433.1 28.3485 1433.72 28.6364C1434.34 28.9205 1434.83 29.3163 1435.19 29.8239C1435.55 30.3277 1435.73 30.9072 1435.74 31.5625H1433.71ZM1439.89 28.3636V40H1437.78V28.3636H1439.89ZM1443.67 40H1441.42L1445.51 28.3636H1448.11L1452.22 40H1449.97L1446.86 30.75H1446.77L1443.67 40ZM1443.74 35.4375H1449.88V37.1307H1443.74V35.4375ZM1459.89 31.5625C1459.83 31.0663 1459.61 30.6799 1459.22 30.4034C1458.83 30.1269 1458.32 29.9886 1457.69 29.9886C1457.25 29.9886 1456.88 30.0549 1456.56 30.1875C1456.25 30.3201 1456.01 30.5 1455.84 30.7273C1455.67 30.9545 1455.59 31.214 1455.58 31.5057C1455.58 31.7481 1455.64 31.9583 1455.75 32.1364C1455.86 32.3144 1456.02 32.4659 1456.21 32.5909C1456.4 32.7121 1456.62 32.8144 1456.85 32.8977C1457.09 32.9811 1457.32 33.0511 1457.56 33.108L1458.65 33.3807C1459.09 33.483 1459.51 33.6212 1459.92 33.7955C1460.33 33.9697 1460.69 34.1894 1461.02 34.4545C1461.34 34.7197 1461.6 35.0398 1461.79 35.4148C1461.98 35.7898 1462.07 36.2292 1462.07 36.733C1462.07 37.4148 1461.9 38.0152 1461.55 38.5341C1461.2 39.0492 1460.7 39.4527 1460.04 39.7443C1459.38 40.0322 1458.59 40.1761 1457.66 40.1761C1456.75 40.1761 1455.97 40.036 1455.3 39.7557C1454.64 39.4754 1454.12 39.0663 1453.74 38.5284C1453.37 37.9905 1453.17 37.3352 1453.14 36.5625H1455.22C1455.25 36.9678 1455.37 37.3049 1455.59 37.5739C1455.81 37.8428 1456.1 38.0436 1456.45 38.1761C1456.8 38.3087 1457.2 38.375 1457.64 38.375C1458.1 38.375 1458.5 38.3068 1458.85 38.1705C1459.19 38.0303 1459.47 37.8371 1459.66 37.5909C1459.86 37.3409 1459.96 37.0492 1459.97 36.7159C1459.96 36.4129 1459.87 36.1629 1459.7 35.9659C1459.52 35.7652 1459.28 35.5985 1458.97 35.4659C1458.65 35.3295 1458.29 35.2083 1457.87 35.1023L1456.55 34.7614C1455.59 34.5152 1454.83 34.142 1454.28 33.642C1453.72 33.1383 1453.45 32.4697 1453.45 31.6364C1453.45 30.9508 1453.63 30.3504 1454 29.8352C1454.38 29.3201 1454.89 28.9205 1455.53 28.6364C1456.18 28.3485 1456.91 28.2045 1457.72 28.2045C1458.55 28.2045 1459.27 28.3485 1459.89 28.6364C1460.52 28.9205 1461.01 29.3163 1461.36 29.8239C1461.72 30.3277 1461.9 30.9072 1461.91 31.5625H1459.89ZM1463.95 28.3636H1466.53L1469.99 36.7955H1470.12L1473.58 28.3636H1476.16V40H1474.13V32.0057H1474.03L1470.81 39.9659H1469.3L1466.08 31.9886H1465.98V40H1463.95V28.3636ZM1487.58 33.7045V34.6591H1482.74V33.7045H1487.58ZM1498.24 40H1494.83V28.3636H1498.45C1499.56 28.3636 1500.51 28.5947 1501.29 29.0568C1502.09 29.5189 1502.69 30.1818 1503.11 31.0455C1503.53 31.9091 1503.74 32.9451 1503.74 34.1534C1503.74 35.3731 1503.53 36.4205 1503.1 37.2955C1502.67 38.1667 1502.04 38.8352 1501.22 39.3011C1500.4 39.767 1499.41 40 1498.24 40ZM1495.9 39.0455H1498.18C1499.18 39.0455 1500.02 38.8485 1500.69 38.4545C1501.37 38.0606 1501.87 37.4981 1502.21 36.767C1502.55 36.036 1502.72 35.1648 1502.72 34.1534C1502.71 33.1496 1502.54 32.286 1502.22 31.5625C1501.89 30.839 1501.4 30.2841 1500.76 29.8977C1500.12 29.5114 1499.33 29.3182 1498.39 29.3182H1495.9V39.0455ZM1509.5 40.1818C1508.75 40.1818 1508.08 39.9905 1507.5 39.608C1506.92 39.2254 1506.47 38.697 1506.15 38.0227C1505.82 37.3447 1505.66 36.5625 1505.66 35.6761C1505.66 34.7822 1505.82 33.9962 1506.15 33.3182C1506.47 32.6364 1506.92 32.1061 1507.5 31.7273C1508.08 31.3447 1508.75 31.1534 1509.5 31.1534C1510.25 31.1534 1510.92 31.3447 1511.5 31.7273C1512.07 32.1098 1512.52 32.6402 1512.85 33.3182C1513.18 33.9962 1513.34 34.7822 1513.34 35.6761C1513.34 36.5625 1513.18 37.3447 1512.85 38.0227C1512.53 38.697 1512.07 39.2254 1511.5 39.608C1510.92 39.9905 1510.25 40.1818 1509.5 40.1818ZM1509.5 39.2557C1510.11 39.2557 1510.62 39.0928 1511.04 38.767C1511.46 38.4413 1511.78 38.0076 1512 37.4659C1512.21 36.9242 1512.32 36.3277 1512.32 35.6761C1512.32 35.0246 1512.21 34.4261 1512 33.8807C1511.78 33.3352 1511.46 32.8977 1511.04 32.5682C1510.62 32.2386 1510.11 32.0739 1509.5 32.0739C1508.9 32.0739 1508.39 32.2386 1507.96 32.5682C1507.54 32.8977 1507.22 33.3352 1507 33.8807C1506.78 34.4261 1506.68 35.0246 1506.68 35.6761C1506.68 36.3277 1506.78 36.9242 1507 37.4659C1507.22 38.0076 1507.54 38.4413 1507.96 38.767C1508.38 39.0928 1508.89 39.2557 1509.5 39.2557ZM1521.07 34.5455V40H1520.06V31.2727H1521.04V32.642H1521.14C1521.34 32.1951 1521.66 31.8371 1522.09 31.5682C1522.53 31.2955 1523.06 31.1591 1523.7 31.1591C1524.29 31.1591 1524.81 31.2822 1525.25 31.5284C1525.7 31.7708 1526.04 32.1288 1526.29 32.6023C1526.54 33.0758 1526.66 33.6572 1526.66 34.3466V40H1525.65V34.4091C1525.65 33.6932 1525.45 33.1269 1525.05 32.7102C1524.65 32.2936 1524.12 32.0852 1523.45 32.0852C1522.99 32.0852 1522.58 32.1837 1522.23 32.3807C1521.87 32.5777 1521.59 32.8617 1521.38 33.233C1521.18 33.6004 1521.07 34.0379 1521.07 34.5455ZM1532.72 40.1818C1531.97 40.1818 1531.3 39.9905 1530.72 39.608C1530.14 39.2254 1529.69 38.697 1529.37 38.0227C1529.04 37.3447 1528.88 36.5625 1528.88 35.6761C1528.88 34.7822 1529.04 33.9962 1529.37 33.3182C1529.69 32.6364 1530.14 32.1061 1530.72 31.7273C1531.3 31.3447 1531.97 31.1534 1532.72 31.1534C1533.47 31.1534 1534.14 31.3447 1534.71 31.7273C1535.29 32.1098 1535.74 32.6402 1536.07 33.3182C1536.4 33.9962 1536.56 34.7822 1536.56 35.6761C1536.56 36.5625 1536.4 37.3447 1536.07 38.0227C1535.75 38.697 1535.29 39.2254 1534.71 39.608C1534.14 39.9905 1533.47 40.1818 1532.72 40.1818ZM1532.72 39.2557C1533.33 39.2557 1533.84 39.0928 1534.26 38.767C1534.68 38.4413 1535 38.0076 1535.21 37.4659C1535.43 36.9242 1535.54 36.3277 1535.54 35.6761C1535.54 35.0246 1535.43 34.4261 1535.21 33.8807C1535 33.3352 1534.68 32.8977 1534.26 32.5682C1533.84 32.2386 1533.33 32.0739 1532.72 32.0739C1532.12 32.0739 1531.6 32.2386 1531.18 32.5682C1530.76 32.8977 1530.44 33.3352 1530.22 33.8807C1530 34.4261 1529.9 35.0246 1529.9 35.6761C1529.9 36.3277 1530 36.9242 1530.22 37.4659C1530.44 38.0076 1530.76 38.4413 1531.18 38.767C1531.6 39.0928 1532.11 39.2557 1532.72 39.2557ZM1542.22 31.2727V32.1534H1538.05V31.2727H1542.22ZM1539.35 29.1818H1540.37V37.7216C1540.37 38.0852 1540.43 38.3712 1540.56 38.5795C1540.68 38.7841 1540.85 38.9299 1541.05 39.017C1541.25 39.1004 1541.46 39.142 1541.69 39.142C1541.82 39.142 1541.94 39.1345 1542.03 39.1193C1542.13 39.1004 1542.21 39.0814 1542.28 39.0625L1542.5 39.9773C1542.4 40.0152 1542.28 40.0492 1542.13 40.0795C1541.99 40.1136 1541.81 40.1307 1541.6 40.1307C1541.23 40.1307 1540.87 40.0492 1540.52 39.8864C1540.18 39.7235 1539.9 39.4811 1539.68 39.1591C1539.46 38.8371 1539.35 38.4375 1539.35 37.9602V29.1818ZM1550.03 28.3636V40H1549.01V28.3636H1550.03ZM1556.23 40.1818C1555.42 40.1818 1554.71 39.9924 1554.12 39.6136C1553.52 39.2311 1553.06 38.7027 1552.74 38.0284C1552.41 37.3504 1552.25 36.5701 1552.25 35.6875C1552.25 34.8087 1552.41 34.0284 1552.74 33.3466C1553.06 32.661 1553.51 32.125 1554.08 31.7386C1554.66 31.3485 1555.32 31.1534 1556.08 31.1534C1556.55 31.1534 1557.01 31.2405 1557.45 31.4148C1557.89 31.5852 1558.28 31.8485 1558.63 32.2045C1558.98 32.5568 1559.26 33.0019 1559.46 33.5398C1559.67 34.0739 1559.77 34.7064 1559.77 35.4375V35.9375H1552.95V35.0455H1558.74C1558.74 34.4848 1558.62 33.9811 1558.4 33.5341C1558.17 33.0833 1557.86 32.7273 1557.46 32.4659C1557.06 32.2045 1556.6 32.0739 1556.08 32.0739C1555.52 32.0739 1555.04 32.2216 1554.62 32.517C1554.2 32.8125 1553.87 33.2027 1553.63 33.6875C1553.39 34.1723 1553.27 34.7027 1553.27 35.2784V35.8125C1553.27 36.5057 1553.39 37.1117 1553.63 37.6307C1553.87 38.1458 1554.21 38.5455 1554.66 38.8295C1555.1 39.1136 1555.62 39.2557 1556.23 39.2557C1556.64 39.2557 1557.01 39.1913 1557.32 39.0625C1557.63 38.9337 1557.89 38.7614 1558.11 38.5455C1558.32 38.3258 1558.48 38.0852 1558.59 37.8239L1559.55 38.1364C1559.42 38.5038 1559.2 38.8428 1558.9 39.1534C1558.6 39.464 1558.23 39.714 1557.78 39.9034C1557.33 40.089 1556.81 40.1818 1556.23 40.1818ZM1564.44 40.1989C1563.91 40.1989 1563.43 40.0966 1562.99 39.892C1562.56 39.6837 1562.21 39.3845 1561.95 38.9943C1561.7 38.6004 1561.57 38.1231 1561.57 37.5625C1561.57 37.1307 1561.65 36.767 1561.81 36.4716C1561.97 36.1761 1562.21 35.9337 1562.5 35.7443C1562.8 35.5549 1563.16 35.4053 1563.57 35.2955C1563.98 35.1856 1564.43 35.1004 1564.92 35.0398C1565.41 34.9792 1565.82 34.9261 1566.16 34.8807C1566.5 34.8352 1566.76 34.7633 1566.94 34.6648C1567.11 34.5663 1567.2 34.4072 1567.2 34.1875V33.983C1567.2 33.3883 1567.03 32.9205 1566.67 32.5795C1566.32 32.2348 1565.81 32.0625 1565.15 32.0625C1564.52 32.0625 1564 32.2008 1563.61 32.4773C1563.21 32.7538 1562.94 33.0795 1562.78 33.4545L1561.82 33.108C1562.01 32.6307 1562.29 32.25 1562.64 31.9659C1562.98 31.678 1563.37 31.4716 1563.81 31.3466C1564.24 31.2178 1564.68 31.1534 1565.12 31.1534C1565.45 31.1534 1565.8 31.197 1566.16 31.2841C1566.52 31.3712 1566.86 31.5227 1567.17 31.7386C1567.48 31.9508 1567.73 32.2481 1567.93 32.6307C1568.12 33.0095 1568.22 33.4905 1568.22 34.0739V40H1567.2V38.6193H1567.14C1567.02 38.8769 1566.84 39.1269 1566.6 39.3693C1566.36 39.6117 1566.06 39.8106 1565.7 39.9659C1565.34 40.1212 1564.92 40.1989 1564.44 40.1989ZM1564.57 39.2727C1565.11 39.2727 1565.58 39.1534 1565.97 38.9148C1566.36 38.6761 1566.67 38.3598 1566.88 37.9659C1567.1 37.5682 1567.2 37.1307 1567.2 36.6534V35.392C1567.13 35.464 1567 35.5284 1566.82 35.5852C1566.65 35.642 1566.45 35.6932 1566.22 35.7386C1565.99 35.7803 1565.76 35.8163 1565.53 35.8466C1565.31 35.8769 1565.1 35.9034 1564.92 35.9261C1564.43 35.9867 1564.01 36.0814 1563.66 36.2102C1563.31 36.339 1563.04 36.517 1562.86 36.7443C1562.67 36.9678 1562.58 37.2557 1562.58 37.608C1562.58 38.1383 1562.77 38.5492 1563.15 38.8409C1563.53 39.1288 1564 39.2727 1564.57 39.2727ZM1577.35 31.2727L1574.16 40H1573.08L1569.89 31.2727H1570.99L1573.58 38.6648H1573.66L1576.25 31.2727H1577.35ZM1582.54 40.1818C1581.73 40.1818 1581.02 39.9924 1580.43 39.6136C1579.83 39.2311 1579.37 38.7027 1579.05 38.0284C1578.73 37.3504 1578.57 36.5701 1578.57 35.6875C1578.57 34.8087 1578.73 34.0284 1579.05 33.3466C1579.37 32.661 1579.82 32.125 1580.4 31.7386C1580.97 31.3485 1581.64 31.1534 1582.39 31.1534C1582.86 31.1534 1583.32 31.2405 1583.76 31.4148C1584.2 31.5852 1584.59 31.8485 1584.94 32.2045C1585.29 32.5568 1585.57 33.0019 1585.78 33.5398C1585.98 34.0739 1586.08 34.7064 1586.08 35.4375V35.9375H1579.26V35.0455H1585.05C1585.05 34.4848 1584.94 33.9811 1584.71 33.5341C1584.48 33.0833 1584.17 32.7273 1583.77 32.4659C1583.37 32.2045 1582.91 32.0739 1582.39 32.0739C1581.84 32.0739 1581.35 32.2216 1580.93 32.517C1580.51 32.8125 1580.18 33.2027 1579.94 33.6875C1579.71 34.1723 1579.59 34.7027 1579.58 35.2784V35.8125C1579.58 36.5057 1579.7 37.1117 1579.94 37.6307C1580.18 38.1458 1580.53 38.5455 1580.97 38.8295C1581.41 39.1136 1581.94 39.2557 1582.54 39.2557C1582.96 39.2557 1583.32 39.1913 1583.63 39.0625C1583.94 38.9337 1584.21 38.7614 1584.42 38.5455C1584.63 38.3258 1584.8 38.0852 1584.91 37.8239L1585.87 38.1364C1585.73 38.5038 1585.52 38.8428 1585.21 39.1534C1584.91 39.464 1584.54 39.714 1584.09 39.9034C1583.64 40.089 1583.13 40.1818 1582.54 40.1818ZM1598.36 36.6648V31.2727H1599.37V40H1598.36V38.5511H1598.28C1598.07 38.9981 1597.75 39.3712 1597.31 39.6705C1596.86 39.9659 1596.32 40.1136 1595.68 40.1136C1595.12 40.1136 1594.63 39.9924 1594.2 39.75C1593.77 39.5038 1593.43 39.1439 1593.18 38.6705C1592.93 38.197 1592.81 37.6155 1592.81 36.9261V31.2727H1593.82V36.8636C1593.82 37.5455 1594.02 38.0947 1594.43 38.5114C1594.83 38.9242 1595.34 39.1307 1595.97 39.1307C1596.36 39.1307 1596.74 39.036 1597.11 38.8466C1597.47 38.6572 1597.77 38.3807 1598 38.017C1598.24 37.6496 1598.36 37.1989 1598.36 36.6648ZM1603.06 34.5455V40H1602.05V31.2727H1603.03V32.642H1603.12C1603.32 32.1951 1603.64 31.8371 1604.07 31.5682C1604.51 31.2955 1605.05 31.1591 1605.69 31.1591C1606.28 31.1591 1606.79 31.2822 1607.23 31.5284C1607.68 31.7708 1608.03 32.1288 1608.27 32.6023C1608.52 33.0758 1608.65 33.6572 1608.65 34.3466V40H1607.64V34.4091C1607.64 33.6932 1607.44 33.1269 1607.03 32.7102C1606.64 32.2936 1606.1 32.0852 1605.43 32.0852C1604.97 32.0852 1604.57 32.1837 1604.21 32.3807C1603.85 32.5777 1603.57 32.8617 1603.36 33.233C1603.16 33.6004 1603.06 34.0379 1603.06 34.5455ZM1614.75 31.2727V32.1534H1610.58V31.2727H1614.75ZM1611.89 29.1818H1612.9V37.7216C1612.9 38.0852 1612.97 38.3712 1613.09 38.5795C1613.22 38.7841 1613.38 38.9299 1613.58 39.017C1613.78 39.1004 1613.99 39.142 1614.22 39.142C1614.35 39.142 1614.47 39.1345 1614.56 39.1193C1614.66 39.1004 1614.74 39.0814 1614.81 39.0625L1615.03 39.9773C1614.93 40.0152 1614.81 40.0492 1614.66 40.0795C1614.52 40.1136 1614.34 40.1307 1614.13 40.1307C1613.76 40.1307 1613.4 40.0492 1613.06 39.8864C1612.72 39.7235 1612.43 39.4811 1612.22 39.1591C1612 38.8371 1611.89 38.4375 1611.89 37.9602V29.1818ZM1617.06 40V31.2727H1618.07V40H1617.06ZM1617.57 29.7727C1617.37 29.7727 1617.19 29.7027 1617.04 29.5625C1616.89 29.4186 1616.82 29.2462 1616.82 29.0455C1616.82 28.8447 1616.89 28.6742 1617.04 28.5341C1617.19 28.3902 1617.37 28.3182 1617.57 28.3182C1617.78 28.3182 1617.96 28.3902 1618.11 28.5341C1618.26 28.6742 1618.33 28.8447 1618.33 29.0455C1618.33 29.2462 1618.26 29.4186 1618.11 29.5625C1617.96 29.7027 1617.78 29.7727 1617.57 29.7727ZM1621.76 28.3636V40H1620.75V28.3636H1621.76ZM1628.95 40V31.2727H1629.97V40H1628.95ZM1629.47 29.7727C1629.26 29.7727 1629.08 29.7027 1628.93 29.5625C1628.78 29.4186 1628.71 29.2462 1628.71 29.0455C1628.71 28.8447 1628.78 28.6742 1628.93 28.5341C1629.08 28.3902 1629.26 28.3182 1629.47 28.3182C1629.67 28.3182 1629.85 28.3902 1630 28.5341C1630.15 28.6742 1630.22 28.8447 1630.22 29.0455C1630.22 29.2462 1630.15 29.4186 1630 29.5625C1629.85 29.7027 1629.67 29.7727 1629.47 29.7727ZM1636.08 31.2727V32.1534H1631.91V31.2727H1636.08ZM1633.21 29.1818H1634.23V37.7216C1634.23 38.0852 1634.29 38.3712 1634.42 38.5795C1634.54 38.7841 1634.71 38.9299 1634.91 39.017C1635.11 39.1004 1635.32 39.142 1635.55 39.142C1635.68 39.142 1635.8 39.1345 1635.89 39.1193C1635.98 39.1004 1636.07 39.0814 1636.14 39.0625L1636.36 39.9773C1636.26 40.0152 1636.14 40.0492 1635.99 40.0795C1635.85 40.1136 1635.67 40.1307 1635.46 40.1307C1635.09 40.1307 1634.73 40.0492 1634.38 39.8864C1634.04 39.7235 1633.76 39.4811 1633.54 39.1591C1633.32 38.8371 1633.21 38.4375 1633.21 37.9602V29.1818ZM1639.67 28.3636V29.3864C1639.67 29.697 1639.61 30.0284 1639.5 30.3807C1639.39 30.7292 1639.23 31.0682 1639.01 31.3977C1638.8 31.7235 1638.54 32.0076 1638.24 32.25L1637.69 31.767C1637.97 31.4337 1638.21 31.0644 1638.41 30.6591C1638.61 30.25 1638.7 29.8314 1638.7 29.4034V28.3636H1639.67ZM1646.21 33.1875L1645.28 33.4489C1645.19 33.1875 1645.06 32.9508 1644.89 32.7386C1644.73 32.5265 1644.51 32.358 1644.24 32.233C1643.98 32.108 1643.65 32.0455 1643.25 32.0455C1642.66 32.0455 1642.18 32.1856 1641.8 32.4659C1641.42 32.7462 1641.23 33.108 1641.23 33.5511C1641.23 33.9261 1641.36 34.2311 1641.62 34.4659C1641.88 34.697 1642.28 34.8807 1642.82 35.017L1644.14 35.3409C1644.87 35.5189 1645.42 35.8011 1645.78 36.1875C1646.15 36.5739 1646.33 37.0587 1646.33 37.642C1646.33 38.1345 1646.2 38.572 1645.92 38.9545C1645.65 39.3371 1645.27 39.6383 1644.78 39.858C1644.3 40.0739 1643.73 40.1818 1643.09 40.1818C1642.24 40.1818 1641.54 39.9905 1640.99 39.608C1640.43 39.2216 1640.08 38.6648 1639.92 37.9375L1640.89 37.6989C1641.02 38.2178 1641.26 38.6098 1641.63 38.875C1641.99 39.1402 1642.48 39.2727 1643.08 39.2727C1643.75 39.2727 1644.28 39.1231 1644.68 38.8239C1645.09 38.5208 1645.29 38.142 1645.29 37.6875C1645.29 37.3352 1645.17 37.0398 1644.93 36.8011C1644.7 36.5587 1644.34 36.3807 1643.87 36.267L1642.44 35.9261C1641.68 35.7443 1641.12 35.4564 1640.76 35.0625C1640.39 34.6686 1640.21 34.1799 1640.21 33.5966C1640.21 33.1155 1640.34 32.6932 1640.6 32.3295C1640.87 31.9621 1641.23 31.6742 1641.68 31.4659C1642.14 31.2576 1642.67 31.1534 1643.25 31.1534C1644.05 31.1534 1644.69 31.3352 1645.17 31.6989C1645.65 32.0587 1645.99 32.5549 1646.21 33.1875ZM1656.19 40.1818C1655.47 40.1818 1654.85 39.9924 1654.31 39.6136C1653.77 39.2348 1653.35 38.7064 1653.05 38.0284C1652.75 37.3504 1652.6 36.5606 1652.6 35.6591C1652.6 34.7614 1652.75 33.9754 1653.05 33.3011C1653.35 32.6231 1653.77 32.0966 1654.31 31.7216C1654.85 31.3428 1655.49 31.1534 1656.21 31.1534C1656.74 31.1534 1657.18 31.2481 1657.53 31.4375C1657.88 31.6231 1658.16 31.8542 1658.38 32.1307C1658.59 32.4072 1658.75 32.6761 1658.87 32.9375H1658.96V28.3636H1659.98V40H1658.99V38.3807H1658.87C1658.75 38.6458 1658.59 38.9186 1658.37 39.1989C1658.15 39.4754 1657.87 39.7083 1657.51 39.8977C1657.16 40.0871 1656.72 40.1818 1656.19 40.1818ZM1656.31 39.2557C1656.87 39.2557 1657.35 39.1023 1657.75 38.7955C1658.15 38.4848 1658.45 38.0587 1658.66 37.517C1658.87 36.9716 1658.98 36.3466 1658.98 35.642C1658.98 34.9451 1658.87 34.3295 1658.67 33.7955C1658.46 33.2576 1658.15 32.8371 1657.76 32.5341C1657.36 32.2273 1656.88 32.0739 1656.31 32.0739C1655.72 32.0739 1655.23 32.233 1654.83 32.5511C1654.43 32.8655 1654.13 33.2917 1653.92 33.8295C1653.72 34.3674 1653.61 34.9716 1653.61 35.642C1653.61 36.3201 1653.72 36.9318 1653.93 37.4773C1654.14 38.0227 1654.44 38.4564 1654.84 38.7784C1655.24 39.0966 1655.73 39.2557 1656.31 39.2557ZM1666.25 40.1818C1665.5 40.1818 1664.83 39.9905 1664.25 39.608C1663.67 39.2254 1663.22 38.697 1662.9 38.0227C1662.57 37.3447 1662.41 36.5625 1662.41 35.6761C1662.41 34.7822 1662.57 33.9962 1662.9 33.3182C1663.22 32.6364 1663.67 32.1061 1664.25 31.7273C1664.83 31.3447 1665.5 31.1534 1666.25 31.1534C1667 31.1534 1667.67 31.3447 1668.25 31.7273C1668.82 32.1098 1669.27 32.6402 1669.6 33.3182C1669.93 33.9962 1670.09 34.7822 1670.09 35.6761C1670.09 36.5625 1669.93 37.3447 1669.6 38.0227C1669.28 38.697 1668.82 39.2254 1668.25 39.608C1667.67 39.9905 1667 40.1818 1666.25 40.1818ZM1666.25 39.2557C1666.86 39.2557 1667.37 39.0928 1667.79 38.767C1668.21 38.4413 1668.53 38.0076 1668.75 37.4659C1668.96 36.9242 1669.07 36.3277 1669.07 35.6761C1669.07 35.0246 1668.96 34.4261 1668.75 33.8807C1668.53 33.3352 1668.21 32.8977 1667.79 32.5682C1667.37 32.2386 1666.86 32.0739 1666.25 32.0739C1665.65 32.0739 1665.14 32.2386 1664.71 32.5682C1664.29 32.8977 1663.97 33.3352 1663.75 33.8807C1663.53 34.4261 1663.43 35.0246 1663.43 35.6761C1663.43 36.3277 1663.53 36.9242 1663.75 37.4659C1663.97 38.0076 1664.29 38.4413 1664.71 38.767C1665.13 39.0928 1665.64 39.2557 1666.25 39.2557ZM1673.32 34.5455V40H1672.31V31.2727H1673.29V32.642H1673.39C1673.59 32.1951 1673.91 31.8371 1674.34 31.5682C1674.78 31.2955 1675.31 31.1591 1675.95 31.1591C1676.54 31.1591 1677.06 31.2822 1677.5 31.5284C1677.95 31.7708 1678.29 32.1288 1678.54 32.6023C1678.79 33.0758 1678.91 33.6572 1678.91 34.3466V40H1677.9V34.4091C1677.9 33.6932 1677.7 33.1269 1677.3 32.7102C1676.9 32.2936 1676.37 32.0852 1675.7 32.0852C1675.24 32.0852 1674.83 32.1837 1674.48 32.3807C1674.12 32.5777 1673.84 32.8617 1673.63 33.233C1673.43 33.6004 1673.32 34.0379 1673.32 34.5455ZM1685.11 40.1818C1684.29 40.1818 1683.59 39.9924 1682.99 39.6136C1682.4 39.2311 1681.94 38.7027 1681.61 38.0284C1681.29 37.3504 1681.13 36.5701 1681.13 35.6875C1681.13 34.8087 1681.29 34.0284 1681.61 33.3466C1681.94 32.661 1682.39 32.125 1682.96 31.7386C1683.53 31.3485 1684.2 31.1534 1684.95 31.1534C1685.43 31.1534 1685.88 31.2405 1686.32 31.4148C1686.76 31.5852 1687.16 31.8485 1687.5 32.2045C1687.86 32.5568 1688.13 33.0019 1688.34 33.5398C1688.54 34.0739 1688.65 34.7064 1688.65 35.4375V35.9375H1681.83V35.0455H1687.61C1687.61 34.4848 1687.5 33.9811 1687.27 33.5341C1687.05 33.0833 1686.73 32.7273 1686.33 32.4659C1685.94 32.2045 1685.48 32.0739 1684.95 32.0739C1684.4 32.0739 1683.91 32.2216 1683.49 32.517C1683.07 32.8125 1682.74 33.2027 1682.5 33.6875C1682.27 34.1723 1682.15 34.7027 1682.15 35.2784V35.8125C1682.15 36.5057 1682.26 37.1117 1682.5 37.6307C1682.75 38.1458 1683.09 38.5455 1683.53 38.8295C1683.98 39.1136 1684.5 39.2557 1685.11 39.2557C1685.52 39.2557 1685.88 39.1913 1686.19 39.0625C1686.51 38.9337 1686.77 38.7614 1686.98 38.5455C1687.2 38.3258 1687.36 38.0852 1687.47 37.8239L1688.43 38.1364C1688.3 38.5038 1688.08 38.8428 1687.78 39.1534C1687.48 39.464 1687.1 39.714 1686.65 39.9034C1686.2 40.089 1685.69 40.1818 1685.11 40.1818Z" fill="white"/>
<path d="M1317.67 35C1317.67 37.9455 1320.05 40.3333 1323 40.3333C1325.95 40.3333 1328.33 37.9455 1328.33 35C1328.33 32.0545 1325.95 29.6667 1323 29.6667C1320.05 29.6667 1317.67 32.0545 1317.67 35ZM1300 36H1323V34H1300V36Z" fill="url(#paint1_linear_158_1013)"/>
<circle cx="1268" cy="35" r="35" fill="url(#paint2_linear_158_1013)"/>
<circle cx="1268" cy="35" r="27" fill="white"/>
<path d="M1258.03 44.36C1256.01 44.36 1254.27 43.976 1252.79 43.208C1251.34 42.424 1250.21 41.328 1249.41 39.92C1248.61 38.512 1248.21 36.872 1248.21 35C1248.21 33.128 1248.61 31.488 1249.41 30.08C1250.21 28.672 1251.34 27.584 1252.79 26.816C1254.27 26.032 1256.01 25.64 1258.03 25.64C1260.03 25.64 1261.75 26.032 1263.21 26.816C1264.68 27.584 1265.82 28.672 1266.62 30.08C1267.42 31.488 1267.82 33.128 1267.82 35C1267.82 36.872 1267.42 38.512 1266.62 39.92C1265.82 41.328 1264.68 42.424 1263.21 43.208C1261.75 43.976 1260.03 44.36 1258.03 44.36ZM1258.03 41.048C1259.83 41.048 1261.23 40.52 1262.23 39.464C1263.23 38.392 1263.74 36.904 1263.74 35C1263.74 33.08 1263.23 31.592 1262.23 30.536C1261.23 29.48 1259.83 28.952 1258.03 28.952C1256.22 28.952 1254.81 29.48 1253.8 30.536C1252.79 31.592 1252.29 33.08 1252.29 35C1252.29 36.92 1252.79 38.408 1253.8 39.464C1254.81 40.52 1256.22 41.048 1258.03 41.048ZM1285.08 26V44H1281.05V27.752H1282.44L1272.6 38.648L1272.55 37.304H1288.15V40.424H1269.5V37.544L1279.92 26H1285.08Z" fill="#000C74"/>
<defs>
<linearGradient id="paint0_linear_158_1013" x1="1323" y1="34.5" x2="1739" y2="34.5" gradientUnits="userSpaceOnUse">
<stop stop-color="#00A93C"/>
<stop offset="1" stop-color="#24CBFF"/>
</linearGradient>
<linearGradient id="paint1_linear_158_1013" x1="1300" y1="35.5" x2="1323" y2="35.5" gradientUnits="userSpaceOnUse">
<stop stop-color="#00A93C"/>
<stop offset="1" stop-color="#24CBFF"/>
</linearGradient>
<linearGradient id="paint2_linear_158_1013" x1="1233" y1="35" x2="1303" y2="35" gradientUnits="userSpaceOnUse">
<stop stop-color="#00A93C"/>
<stop offset="1" stop-color="#000C74"/>
</linearGradient>
</defs>
</svg>
