<svg width="100%" viewBox="0 0 1920 70" fill="none" xmlns="http://www.w3.org/2000/svg">
<rect x="1297.5" y="5.5" width="425" height="58" rx="19.5" stroke="url(#paint0_linear_158_997)"/>
<path d="M1456.13 22.2898H1454.01C1453.95 21.9413 1453.83 21.6326 1453.67 21.3636C1453.51 21.0909 1453.31 20.8598 1453.06 20.6705C1452.82 20.4811 1452.54 20.339 1452.23 20.2443C1451.93 20.1458 1451.6 20.0966 1451.24 20.0966C1450.61 20.0966 1450.05 20.2557 1449.56 20.5739C1449.07 20.8883 1448.69 21.3504 1448.41 21.9602C1448.13 22.5663 1448 23.3068 1448 24.1818C1448 25.072 1448.13 25.822 1448.41 26.4318C1448.69 27.0379 1449.07 27.4962 1449.56 27.8068C1450.05 28.1136 1450.6 28.267 1451.23 28.267C1451.58 28.267 1451.91 28.2216 1452.21 28.1307C1452.52 28.036 1452.79 27.8977 1453.03 27.7159C1453.28 27.5341 1453.49 27.3106 1453.65 27.0455C1453.82 26.7803 1453.94 26.4773 1454.01 26.1364L1456.13 26.1477C1456.05 26.7008 1455.88 27.2197 1455.61 27.7045C1455.35 28.1894 1455.01 28.6174 1454.59 28.9886C1454.16 29.3561 1453.67 29.6439 1453.1 29.8523C1452.53 30.0568 1451.9 30.1591 1451.21 30.1591C1450.18 30.1591 1449.27 29.9223 1448.47 29.4489C1447.66 28.9754 1447.03 28.2917 1446.57 27.3977C1446.11 26.5038 1445.88 25.4318 1445.88 24.1818C1445.88 22.928 1446.11 21.8561 1446.57 20.9659C1447.04 20.072 1447.67 19.3883 1448.48 18.9148C1449.28 18.4413 1450.19 18.2045 1451.21 18.2045C1451.85 18.2045 1452.46 18.2955 1453.01 18.4773C1453.57 18.6591 1454.07 18.9261 1454.5 19.2784C1454.94 19.6269 1455.29 20.0549 1455.57 20.5625C1455.86 21.0663 1456.04 21.642 1456.13 22.2898ZM1468.46 24.1818C1468.46 25.4356 1468.22 26.5095 1467.75 27.4034C1467.29 28.2936 1466.65 28.9754 1465.85 29.4489C1465.04 29.9223 1464.13 30.1591 1463.11 30.1591C1462.09 30.1591 1461.18 29.9223 1460.37 29.4489C1459.57 28.9716 1458.93 28.2879 1458.47 27.3977C1458 26.5038 1457.77 25.4318 1457.77 24.1818C1457.77 22.928 1458 21.8561 1458.47 20.9659C1458.93 20.072 1459.57 19.3883 1460.37 18.9148C1461.18 18.4413 1462.09 18.2045 1463.11 18.2045C1464.13 18.2045 1465.04 18.4413 1465.85 18.9148C1466.65 19.3883 1467.29 20.072 1467.75 20.9659C1468.22 21.8561 1468.46 22.928 1468.46 24.1818ZM1466.34 24.1818C1466.34 23.2992 1466.2 22.5549 1465.93 21.9489C1465.65 21.339 1465.27 20.8788 1464.79 20.5682C1464.3 20.2538 1463.75 20.0966 1463.11 20.0966C1462.48 20.0966 1461.92 20.2538 1461.44 20.5682C1460.95 20.8788 1460.57 21.339 1460.29 21.9489C1460.02 22.5549 1459.89 23.2992 1459.89 24.1818C1459.89 25.0644 1460.02 25.8106 1460.29 26.4205C1460.57 27.0265 1460.95 27.4867 1461.44 27.8011C1461.92 28.1117 1462.48 28.267 1463.11 28.267C1463.75 28.267 1464.3 28.1117 1464.79 27.8011C1465.27 27.4867 1465.65 27.0265 1465.93 26.4205C1466.2 25.8106 1466.34 25.0644 1466.34 24.1818ZM1480.85 24.1818C1480.85 25.4356 1480.62 26.5095 1480.15 27.4034C1479.68 28.2936 1479.04 28.9754 1478.24 29.4489C1477.43 29.9223 1476.52 30.1591 1475.5 30.1591C1474.48 30.1591 1473.57 29.9223 1472.76 29.4489C1471.96 28.9716 1471.33 28.2879 1470.86 27.3977C1470.39 26.5038 1470.16 25.4318 1470.16 24.1818C1470.16 22.928 1470.39 21.8561 1470.86 20.9659C1471.33 20.072 1471.96 19.3883 1472.76 18.9148C1473.57 18.4413 1474.48 18.2045 1475.5 18.2045C1476.52 18.2045 1477.43 18.4413 1478.24 18.9148C1479.04 19.3883 1479.68 20.072 1480.15 20.9659C1480.62 21.8561 1480.85 22.928 1480.85 24.1818ZM1478.73 24.1818C1478.73 23.2992 1478.59 22.5549 1478.32 21.9489C1478.04 21.339 1477.66 20.8788 1477.18 20.5682C1476.69 20.2538 1476.14 20.0966 1475.5 20.0966C1474.87 20.0966 1474.31 20.2538 1473.83 20.5682C1473.34 20.8788 1472.96 21.339 1472.69 21.9489C1472.41 22.5549 1472.28 23.2992 1472.28 24.1818C1472.28 25.0644 1472.41 25.8106 1472.69 26.4205C1472.96 27.0265 1473.34 27.4867 1473.83 27.8011C1474.31 28.1117 1474.87 28.267 1475.5 28.267C1476.14 28.267 1476.69 28.1117 1477.18 27.8011C1477.66 27.4867 1478.04 27.0265 1478.32 26.4205C1478.59 25.8106 1478.73 25.0644 1478.73 24.1818ZM1482.84 30V18.3636H1487.21C1488.1 18.3636 1488.85 18.5303 1489.46 18.8636C1490.07 19.197 1490.53 19.6553 1490.84 20.2386C1491.15 20.8182 1491.31 21.4773 1491.31 22.2159C1491.31 22.9621 1491.15 23.625 1490.84 24.2045C1490.52 24.7841 1490.06 25.2405 1489.45 25.5739C1488.83 25.9034 1488.08 26.0682 1487.18 26.0682H1484.29V24.3352H1486.89C1487.42 24.3352 1487.84 24.2443 1488.18 24.0625C1488.51 23.8807 1488.76 23.6307 1488.92 23.3125C1489.08 22.9943 1489.16 22.6288 1489.16 22.2159C1489.16 21.803 1489.08 21.4394 1488.92 21.125C1488.76 20.8106 1488.51 20.5663 1488.17 20.392C1487.84 20.214 1487.41 20.125 1486.88 20.125H1484.95V30H1482.84ZM1493.14 30V18.3636H1500.71V20.1307H1495.25V23.2898H1500.32V25.0568H1495.25V28.233H1500.75V30H1493.14ZM1502.86 30V18.3636H1507.22C1508.12 18.3636 1508.87 18.5189 1509.47 18.8295C1510.08 19.1402 1510.54 19.5758 1510.85 20.1364C1511.17 20.6932 1511.32 21.3428 1511.32 22.0852C1511.32 22.8314 1511.17 23.4792 1510.85 24.0284C1510.53 24.5739 1510.07 24.9962 1509.46 25.2955C1508.84 25.5909 1508.09 25.7386 1507.19 25.7386H1504.09V23.9886H1506.91C1507.43 23.9886 1507.86 23.9167 1508.19 23.7727C1508.53 23.625 1508.77 23.411 1508.93 23.1307C1509.1 22.8466 1509.18 22.4981 1509.18 22.0852C1509.18 21.6723 1509.1 21.3201 1508.93 21.0284C1508.77 20.733 1508.52 20.5095 1508.19 20.358C1507.85 20.2027 1507.42 20.125 1506.9 20.125H1504.97V30H1502.86ZM1508.87 24.7273L1511.75 30H1509.4L1506.57 24.7273H1508.87ZM1514.76 30H1512.51L1516.61 18.3636H1519.21L1523.31 30H1521.06L1517.95 20.75H1517.86L1514.76 30ZM1514.83 25.4375H1520.97V27.1307H1514.83V25.4375ZM1522.93 20.1307V18.3636H1532.21V20.1307H1528.61V30H1526.52V20.1307H1522.93ZM1536.11 18.3636V30H1534V18.3636H1536.11ZM1548.79 24.1818C1548.79 25.4356 1548.55 26.5095 1548.08 27.4034C1547.62 28.2936 1546.98 28.9754 1546.17 29.4489C1545.37 29.9223 1544.46 30.1591 1543.44 30.1591C1542.42 30.1591 1541.51 29.9223 1540.7 29.4489C1539.9 28.9716 1539.26 28.2879 1538.79 27.3977C1538.33 26.5038 1538.09 25.4318 1538.09 24.1818C1538.09 22.928 1538.33 21.8561 1538.79 20.9659C1539.26 20.072 1539.9 19.3883 1540.7 18.9148C1541.51 18.4413 1542.42 18.2045 1543.44 18.2045C1544.46 18.2045 1545.37 18.4413 1546.17 18.9148C1546.98 19.3883 1547.62 20.072 1548.08 20.9659C1548.55 21.8561 1548.79 22.928 1548.79 24.1818ZM1546.67 24.1818C1546.67 23.2992 1546.53 22.5549 1546.25 21.9489C1545.98 21.339 1545.6 20.8788 1545.12 20.5682C1544.63 20.2538 1544.07 20.0966 1543.44 20.0966C1542.81 20.0966 1542.25 20.2538 1541.76 20.5682C1541.28 20.8788 1540.9 21.339 1540.62 21.9489C1540.35 22.5549 1540.21 23.2992 1540.21 24.1818C1540.21 25.0644 1540.35 25.8106 1540.62 26.4205C1540.9 27.0265 1541.28 27.4867 1541.76 27.8011C1542.25 28.1117 1542.81 28.267 1543.44 28.267C1544.07 28.267 1544.63 28.1117 1545.12 27.8011C1545.6 27.4867 1545.98 27.0265 1546.25 26.4205C1546.53 25.8106 1546.67 25.0644 1546.67 24.1818ZM1560.34 18.3636V30H1558.47L1552.99 22.0739H1552.89V30H1550.78V18.3636H1552.67L1558.14 26.2955H1558.25V18.3636H1560.34ZM1571.77 24.5341V25.4886H1566.93V24.5341H1571.77ZM1338.89 49L1335.7 37.3636H1336.78L1339.42 47.3693H1339.51L1342.14 37.3636H1343.37L1346.01 47.3693H1346.1L1348.74 37.3636H1349.82L1346.63 49H1345.5L1342.8 39.1307H1342.72L1340.02 49H1338.89ZM1352.54 43.5455V49H1351.53V37.3636H1352.54V41.642H1352.63C1352.84 41.1913 1353.15 40.8314 1353.58 40.5625C1354.01 40.2936 1354.56 40.1591 1355.22 40.1591C1355.81 40.1591 1356.33 40.2803 1356.77 40.5227C1357.22 40.7652 1357.57 41.1231 1357.82 41.5966C1358.07 42.0701 1358.2 42.6534 1358.2 43.3466V49H1357.18V43.4091C1357.18 42.6894 1356.98 42.1231 1356.58 41.7102C1356.18 41.2936 1355.64 41.0852 1354.96 41.0852C1354.5 41.0852 1354.08 41.1837 1353.72 41.3807C1353.35 41.5777 1353.07 41.8617 1352.85 42.233C1352.65 42.6004 1352.54 43.0379 1352.54 43.5455ZM1364.39 49.1818C1363.57 49.1818 1362.87 48.9924 1362.27 48.6136C1361.68 48.2311 1361.22 47.7027 1360.89 47.0284C1360.57 46.3504 1360.41 45.5701 1360.41 44.6875C1360.41 43.8087 1360.57 43.0284 1360.89 42.3466C1361.22 41.661 1361.67 41.125 1362.24 40.7386C1362.82 40.3485 1363.48 40.1534 1364.23 40.1534C1364.71 40.1534 1365.16 40.2405 1365.6 40.4148C1366.04 40.5852 1366.44 40.8485 1366.78 41.2045C1367.14 41.5568 1367.42 42.0019 1367.62 42.5398C1367.82 43.0739 1367.93 43.7064 1367.93 44.4375V44.9375H1361.11V44.0455H1366.89C1366.89 43.4848 1366.78 42.9811 1366.55 42.5341C1366.33 42.0833 1366.02 41.7273 1365.61 41.4659C1365.22 41.2045 1364.76 41.0739 1364.23 41.0739C1363.68 41.0739 1363.19 41.2216 1362.77 41.517C1362.35 41.8125 1362.02 42.2027 1361.78 42.6875C1361.55 43.1723 1361.43 43.7027 1361.43 44.2784V44.8125C1361.43 45.5057 1361.55 46.1117 1361.78 46.6307C1362.03 47.1458 1362.37 47.5455 1362.81 47.8295C1363.26 48.1136 1363.78 48.2557 1364.39 48.2557C1364.8 48.2557 1365.16 48.1913 1365.47 48.0625C1365.79 47.9337 1366.05 47.7614 1366.26 47.5455C1366.48 47.3258 1366.64 47.0852 1366.75 46.8239L1367.71 47.1364C1367.58 47.5038 1367.36 47.8428 1367.06 48.1534C1366.76 48.464 1366.38 48.714 1365.93 48.9034C1365.49 49.089 1364.97 49.1818 1364.39 49.1818ZM1371.17 43.5455V49H1370.16V40.2727H1371.14V41.642H1371.23C1371.43 41.1951 1371.75 40.8371 1372.18 40.5682C1372.62 40.2955 1373.16 40.1591 1373.8 40.1591C1374.38 40.1591 1374.9 40.2822 1375.34 40.5284C1375.79 40.7708 1376.14 41.1288 1376.38 41.6023C1376.63 42.0758 1376.76 42.6572 1376.76 43.3466V49H1375.75V43.4091C1375.75 42.6932 1375.55 42.1269 1375.14 41.7102C1374.75 41.2936 1374.21 41.0852 1373.54 41.0852C1373.08 41.0852 1372.68 41.1837 1372.32 41.3807C1371.96 41.5777 1371.68 41.8617 1371.47 42.233C1371.27 42.6004 1371.17 43.0379 1371.17 43.5455ZM1386.36 49.1989C1385.83 49.1989 1385.35 49.0966 1384.92 48.892C1384.48 48.6837 1384.13 48.3845 1383.88 47.9943C1383.62 47.6004 1383.49 47.1231 1383.49 46.5625C1383.49 46.1307 1383.57 45.767 1383.73 45.4716C1383.9 45.1761 1384.13 44.9337 1384.43 44.7443C1384.73 44.5549 1385.08 44.4053 1385.49 44.2955C1385.9 44.1856 1386.35 44.1004 1386.84 44.0398C1387.33 43.9792 1387.74 43.9261 1388.08 43.8807C1388.42 43.8352 1388.68 43.7633 1388.86 43.6648C1389.04 43.5663 1389.13 43.4072 1389.13 43.1875V42.983C1389.13 42.3883 1388.95 41.9205 1388.59 41.5795C1388.24 41.2348 1387.73 41.0625 1387.07 41.0625C1386.44 41.0625 1385.93 41.2008 1385.53 41.4773C1385.14 41.7538 1384.86 42.0795 1384.7 42.4545L1383.74 42.108C1383.94 41.6307 1384.21 41.25 1384.56 40.9659C1384.91 40.678 1385.3 40.4716 1385.73 40.3466C1386.16 40.2178 1386.6 40.1534 1387.04 40.1534C1387.37 40.1534 1387.72 40.197 1388.08 40.2841C1388.44 40.3712 1388.78 40.5227 1389.09 40.7386C1389.4 40.9508 1389.65 41.2481 1389.85 41.6307C1390.04 42.0095 1390.14 42.4905 1390.14 43.0739V49H1389.13V47.6193H1389.06C1388.94 47.8769 1388.76 48.1269 1388.52 48.3693C1388.28 48.6117 1387.99 48.8106 1387.63 48.9659C1387.27 49.1212 1386.84 49.1989 1386.36 49.1989ZM1386.5 48.2727C1387.03 48.2727 1387.5 48.1534 1387.89 47.9148C1388.29 47.6761 1388.59 47.3598 1388.8 46.9659C1389.02 46.5682 1389.13 46.1307 1389.13 45.6534V44.392C1389.05 44.464 1388.92 44.5284 1388.75 44.5852C1388.57 44.642 1388.37 44.6932 1388.14 44.7386C1387.91 44.7803 1387.68 44.8163 1387.46 44.8466C1387.23 44.8769 1387.02 44.9034 1386.84 44.9261C1386.35 44.9867 1385.93 45.0814 1385.58 45.2102C1385.23 45.339 1384.96 45.517 1384.78 45.7443C1384.59 45.9678 1384.5 46.2557 1384.5 46.608C1384.5 47.1383 1384.69 47.5492 1385.07 47.8409C1385.45 48.1288 1385.92 48.2727 1386.5 48.2727ZM1397.33 52.2727V40.2727H1398.31V41.9375H1398.43C1398.55 41.6761 1398.72 41.4091 1398.93 41.1364C1399.14 40.8598 1399.42 40.6269 1399.77 40.4375C1400.12 40.2481 1400.57 40.1534 1401.1 40.1534C1401.82 40.1534 1402.45 40.3428 1402.99 40.7216C1403.53 41.0966 1403.95 41.6231 1404.25 42.3011C1404.55 42.9754 1404.7 43.7614 1404.7 44.6591C1404.7 45.5606 1404.55 46.3504 1404.25 47.0284C1403.95 47.7064 1403.53 48.2348 1402.99 48.6136C1402.45 48.9924 1401.82 49.1818 1401.11 49.1818C1400.58 49.1818 1400.14 49.0871 1399.79 48.8977C1399.44 48.7083 1399.15 48.4754 1398.93 48.1989C1398.71 47.9186 1398.55 47.6458 1398.43 47.3807H1398.34V52.2727H1397.33ZM1398.33 44.642C1398.33 45.3466 1398.43 45.9716 1398.64 46.517C1398.85 47.0587 1399.16 47.4848 1399.55 47.7955C1399.95 48.1023 1400.43 48.2557 1400.99 48.2557C1401.57 48.2557 1402.06 48.0966 1402.46 47.7784C1402.86 47.4564 1403.16 47.0227 1403.37 46.4773C1403.58 45.9318 1403.69 45.3201 1403.69 44.642C1403.69 43.9716 1403.59 43.3674 1403.38 42.8295C1403.17 42.2917 1402.87 41.8655 1402.47 41.5511C1402.07 41.233 1401.58 41.0739 1400.99 41.0739C1400.42 41.0739 1399.94 41.2273 1399.54 41.5341C1399.15 41.8371 1398.84 42.2576 1398.63 42.7955C1398.43 43.3295 1398.33 43.9451 1398.33 44.642ZM1406.92 49V40.2727H1407.9V41.6136H1407.98C1408.15 41.1742 1408.46 40.8201 1408.89 40.5511C1409.32 40.2784 1409.82 40.142 1410.36 40.142C1410.45 40.142 1410.54 40.1439 1410.64 40.1477C1410.75 40.1515 1410.83 40.1553 1410.9 40.1591V41.1875C1410.85 41.1799 1410.77 41.1686 1410.66 41.1534C1410.55 41.1383 1410.42 41.1307 1410.29 41.1307C1409.84 41.1307 1409.43 41.2273 1409.07 41.4205C1408.72 41.6098 1408.44 41.8731 1408.24 42.2102C1408.03 42.5473 1407.93 42.9318 1407.93 43.3636V49H1406.92ZM1415.75 49.1818C1415 49.1818 1414.33 48.9905 1413.75 48.608C1413.17 48.2254 1412.72 47.697 1412.4 47.0227C1412.07 46.3447 1411.91 45.5625 1411.91 44.6761C1411.91 43.7822 1412.07 42.9962 1412.4 42.3182C1412.72 41.6364 1413.17 41.1061 1413.75 40.7273C1414.33 40.3447 1415 40.1534 1415.75 40.1534C1416.5 40.1534 1417.17 40.3447 1417.75 40.7273C1418.32 41.1098 1418.77 41.6402 1419.1 42.3182C1419.43 42.9962 1419.59 43.7822 1419.59 44.6761C1419.59 45.5625 1419.43 46.3447 1419.1 47.0227C1418.78 47.697 1418.32 48.2254 1417.75 48.608C1417.17 48.9905 1416.5 49.1818 1415.75 49.1818ZM1415.75 48.2557C1416.36 48.2557 1416.87 48.0928 1417.29 47.767C1417.71 47.4413 1418.03 47.0076 1418.25 46.4659C1418.46 45.9242 1418.57 45.3277 1418.57 44.6761C1418.57 44.0246 1418.46 43.4261 1418.25 42.8807C1418.03 42.3352 1417.71 41.8977 1417.29 41.5682C1416.87 41.2386 1416.36 41.0739 1415.75 41.0739C1415.15 41.0739 1414.64 41.2386 1414.21 41.5682C1413.79 41.8977 1413.47 42.3352 1413.25 42.8807C1413.03 43.4261 1412.93 44.0246 1412.93 44.6761C1412.93 45.3277 1413.03 45.9242 1413.25 46.4659C1413.47 47.0076 1413.79 47.4413 1414.21 47.767C1414.63 48.0928 1415.14 48.2557 1415.75 48.2557ZM1422.02 49V37.3636H1423.04V41.9375H1423.13C1423.24 41.6761 1423.41 41.4072 1423.62 41.1307C1423.83 40.8542 1424.12 40.6231 1424.47 40.4375C1424.82 40.2481 1425.26 40.1534 1425.79 40.1534C1426.51 40.1534 1427.14 40.3428 1427.68 40.7216C1428.22 41.0966 1428.65 41.6231 1428.95 42.3011C1429.25 42.9754 1429.4 43.7614 1429.4 44.6591C1429.4 45.5606 1429.25 46.3504 1428.95 47.0284C1428.65 47.7064 1428.23 48.2348 1427.69 48.6136C1427.15 48.9924 1426.52 49.1818 1425.81 49.1818C1425.28 49.1818 1424.84 49.0871 1424.48 48.8977C1424.13 48.7083 1423.85 48.4754 1423.63 48.1989C1423.41 47.9186 1423.25 47.6458 1423.13 47.3807H1423V49H1422.02ZM1423.02 44.642C1423.02 45.3466 1423.13 45.9716 1423.33 46.517C1423.55 47.0587 1423.85 47.4848 1424.24 47.7955C1424.64 48.1023 1425.12 48.2557 1425.69 48.2557C1426.27 48.2557 1426.76 48.0966 1427.16 47.7784C1427.56 47.4564 1427.86 47.0227 1428.07 46.4773C1428.28 45.9318 1428.39 45.3201 1428.39 44.642C1428.39 43.9716 1428.28 43.3674 1428.07 42.8295C1427.87 42.2917 1427.57 41.8655 1427.16 41.5511C1426.76 41.233 1426.27 41.0739 1425.69 41.0739C1425.12 41.0739 1424.64 41.2273 1424.24 41.5341C1423.84 41.8371 1423.54 42.2576 1423.33 42.7955C1423.13 43.3295 1423.02 43.9451 1423.02 44.642ZM1432.64 37.3636V49H1431.62V37.3636H1432.64ZM1438.84 49.1818C1438.03 49.1818 1437.32 48.9924 1436.73 48.6136C1436.13 48.2311 1435.67 47.7027 1435.35 47.0284C1435.02 46.3504 1434.86 45.5701 1434.86 44.6875C1434.86 43.8087 1435.02 43.0284 1435.35 42.3466C1435.67 41.661 1436.12 41.125 1436.69 40.7386C1437.27 40.3485 1437.93 40.1534 1438.69 40.1534C1439.16 40.1534 1439.62 40.2405 1440.06 40.4148C1440.5 40.5852 1440.89 40.8485 1441.24 41.2045C1441.59 41.5568 1441.87 42.0019 1442.07 42.5398C1442.28 43.0739 1442.38 43.7064 1442.38 44.4375V44.9375H1435.56V44.0455H1441.35C1441.35 43.4848 1441.23 42.9811 1441 42.5341C1440.78 42.0833 1440.47 41.7273 1440.07 41.4659C1439.67 41.2045 1439.21 41.0739 1438.69 41.0739C1438.13 41.0739 1437.65 41.2216 1437.23 41.517C1436.81 41.8125 1436.48 42.2027 1436.24 42.6875C1436 43.1723 1435.88 43.7027 1435.88 44.2784V44.8125C1435.88 45.5057 1436 46.1117 1436.24 46.6307C1436.48 47.1458 1436.82 47.5455 1437.27 47.8295C1437.71 48.1136 1438.23 48.2557 1438.84 48.2557C1439.25 48.2557 1439.61 48.1913 1439.93 48.0625C1440.24 47.9337 1440.5 47.7614 1440.72 47.5455C1440.93 47.3258 1441.09 47.0852 1441.2 46.8239L1442.16 47.1364C1442.03 47.5038 1441.81 47.8428 1441.51 48.1534C1441.21 48.464 1440.84 48.714 1440.39 48.9034C1439.94 49.089 1439.42 49.1818 1438.84 49.1818ZM1444.61 49V40.2727H1445.59V41.6136H1445.68C1445.86 41.1629 1446.15 40.8087 1446.55 40.5511C1446.96 40.2898 1447.45 40.1591 1448.02 40.1591C1448.63 40.1591 1449.12 40.3011 1449.51 40.5852C1449.9 40.8655 1450.19 41.2519 1450.38 41.7443H1450.46C1450.65 41.2595 1450.97 40.875 1451.42 40.5909C1451.86 40.303 1452.4 40.1591 1453.04 40.1591C1453.85 40.1591 1454.49 40.4148 1454.96 40.9261C1455.43 41.4337 1455.67 42.1761 1455.67 43.1534V49H1454.65V43.1534C1454.65 42.464 1454.48 41.947 1454.13 41.6023C1453.77 41.2576 1453.31 41.0852 1452.73 41.0852C1452.07 41.0852 1451.55 41.2898 1451.19 41.6989C1450.83 42.108 1450.65 42.6269 1450.65 43.2557V49H1449.62V43.0625C1449.62 42.4716 1449.46 41.9943 1449.13 41.6307C1448.8 41.267 1448.33 41.0852 1447.73 41.0852C1447.33 41.0852 1446.97 41.1837 1446.65 41.3807C1446.33 41.5777 1446.08 41.8523 1445.89 42.2045C1445.71 42.553 1445.62 42.9545 1445.62 43.4091V49H1444.61ZM1466.24 49.1818C1465.48 49.1818 1464.81 48.9905 1464.24 48.608C1463.66 48.2254 1463.21 47.697 1462.88 47.0227C1462.56 46.3447 1462.39 45.5625 1462.39 44.6761C1462.39 43.7822 1462.56 42.9962 1462.88 42.3182C1463.21 41.6364 1463.66 41.1061 1464.24 40.7273C1464.81 40.3447 1465.48 40.1534 1466.24 40.1534C1466.99 40.1534 1467.65 40.3447 1468.23 40.7273C1468.81 41.1098 1469.26 41.6402 1469.58 42.3182C1469.91 42.9962 1470.08 43.7822 1470.08 44.6761C1470.08 45.5625 1469.91 46.3447 1469.59 47.0227C1469.26 47.697 1468.81 48.2254 1468.23 48.608C1467.65 48.9905 1466.99 49.1818 1466.24 49.1818ZM1466.24 48.2557C1466.84 48.2557 1467.35 48.0928 1467.77 47.767C1468.2 47.4413 1468.51 47.0076 1468.73 46.4659C1468.95 45.9242 1469.06 45.3277 1469.06 44.6761C1469.06 44.0246 1468.95 43.4261 1468.73 42.8807C1468.51 42.3352 1468.2 41.8977 1467.77 41.5682C1467.35 41.2386 1466.84 41.0739 1466.24 41.0739C1465.63 41.0739 1465.12 41.2386 1464.7 41.5682C1464.27 41.8977 1463.95 42.3352 1463.74 42.8807C1463.52 43.4261 1463.41 44.0246 1463.41 44.6761C1463.41 45.3277 1463.52 45.9242 1463.74 46.4659C1463.95 47.0076 1464.27 47.4413 1464.7 47.767C1465.12 48.0928 1465.63 48.2557 1466.24 48.2557ZM1475.71 49.1818C1474.92 49.1818 1474.25 48.9867 1473.67 48.5966C1473.09 48.2064 1472.64 47.6723 1472.32 46.9943C1472.01 46.3163 1471.85 45.5436 1471.85 44.6761C1471.85 43.8011 1472.01 43.0227 1472.33 42.3409C1472.66 41.6591 1473.11 41.125 1473.68 40.7386C1474.26 40.3485 1474.93 40.1534 1475.69 40.1534C1476.27 40.1534 1476.8 40.267 1477.27 40.4943C1477.75 40.7178 1478.14 41.0341 1478.44 41.4432C1478.75 41.8485 1478.95 42.322 1479.03 42.8636H1478.01C1477.9 42.3712 1477.64 41.9508 1477.24 41.6023C1476.84 41.25 1476.33 41.0739 1475.71 41.0739C1475.15 41.0739 1474.66 41.2254 1474.23 41.5284C1473.8 41.8277 1473.46 42.2462 1473.22 42.7841C1472.98 43.3182 1472.86 43.9375 1472.86 44.642C1472.86 45.3504 1472.98 45.9773 1473.22 46.5227C1473.45 47.0644 1473.78 47.4886 1474.21 47.7955C1474.63 48.1023 1475.13 48.2557 1475.71 48.2557C1476.09 48.2557 1476.44 48.1837 1476.76 48.0398C1477.08 47.892 1477.35 47.6837 1477.57 47.4148C1477.79 47.1458 1477.94 46.8258 1478.01 46.4545H1479.03C1478.96 46.9811 1478.77 47.4508 1478.47 47.8636C1478.18 48.2727 1477.79 48.5947 1477.32 48.8295C1476.85 49.0644 1476.31 49.1818 1475.71 49.1818ZM1484.61 49.1818C1483.83 49.1818 1483.15 48.9867 1482.57 48.5966C1482 48.2064 1481.55 47.6723 1481.23 46.9943C1480.91 46.3163 1480.75 45.5436 1480.75 44.6761C1480.75 43.8011 1480.91 43.0227 1481.24 42.3409C1481.56 41.6591 1482.01 41.125 1482.59 40.7386C1483.16 40.3485 1483.83 40.1534 1484.59 40.1534C1485.18 40.1534 1485.71 40.267 1486.18 40.4943C1486.65 40.7178 1487.04 41.0341 1487.35 41.4432C1487.66 41.8485 1487.86 42.322 1487.94 42.8636H1486.91C1486.81 42.3712 1486.55 41.9508 1486.15 41.6023C1485.74 41.25 1485.23 41.0739 1484.61 41.0739C1484.05 41.0739 1483.56 41.2254 1483.13 41.5284C1482.71 41.8277 1482.37 42.2462 1482.13 42.7841C1481.89 43.3182 1481.77 43.9375 1481.77 44.642C1481.77 45.3504 1481.89 45.9773 1482.12 46.5227C1482.36 47.0644 1482.69 47.4886 1483.11 47.7955C1483.54 48.1023 1484.04 48.2557 1484.61 48.2557C1485 48.2557 1485.35 48.1837 1485.67 48.0398C1485.99 47.892 1486.26 47.6837 1486.48 47.4148C1486.69 47.1458 1486.84 46.8258 1486.92 46.4545H1487.94C1487.87 46.9811 1487.68 47.4508 1487.38 47.8636C1487.08 48.2727 1486.7 48.5947 1486.23 48.8295C1485.76 49.0644 1485.22 49.1818 1484.61 49.1818ZM1495.65 45.6648V40.2727H1496.67V49H1495.65V47.5511H1495.57C1495.37 47.9981 1495.05 48.3712 1494.6 48.6705C1494.16 48.9659 1493.62 49.1136 1492.98 49.1136C1492.42 49.1136 1491.93 48.9924 1491.5 48.75C1491.06 48.5038 1490.72 48.1439 1490.48 47.6705C1490.23 47.197 1490.11 46.6155 1490.11 45.9261V40.2727H1491.12V45.8636C1491.12 46.5455 1491.32 47.0947 1491.72 47.5114C1492.12 47.9242 1492.64 48.1307 1493.27 48.1307C1493.66 48.1307 1494.04 48.036 1494.4 47.8466C1494.77 47.6572 1495.07 47.3807 1495.3 47.017C1495.54 46.6496 1495.65 46.1989 1495.65 45.6648ZM1499.34 49V40.2727H1500.33V41.6136H1500.4C1500.57 41.1742 1500.88 40.8201 1501.31 40.5511C1501.74 40.2784 1502.24 40.142 1502.79 40.142C1502.87 40.142 1502.96 40.1439 1503.06 40.1477C1503.17 40.1515 1503.25 40.1553 1503.32 40.1591V41.1875C1503.27 41.1799 1503.2 41.1686 1503.08 41.1534C1502.97 41.1383 1502.84 41.1307 1502.71 41.1307C1502.26 41.1307 1501.85 41.2273 1501.5 41.4205C1501.14 41.6098 1500.87 41.8731 1500.66 42.2102C1500.46 42.5473 1500.35 42.9318 1500.35 43.3636V49H1499.34ZM1510.91 42.1875L1509.98 42.4489C1509.89 42.1875 1509.76 41.9508 1509.6 41.7386C1509.43 41.5265 1509.21 41.358 1508.94 41.233C1508.68 41.108 1508.35 41.0455 1507.96 41.0455C1507.36 41.0455 1506.88 41.1856 1506.5 41.4659C1506.12 41.7462 1505.93 42.108 1505.93 42.5511C1505.93 42.9261 1506.06 43.2311 1506.32 43.4659C1506.58 43.697 1506.98 43.8807 1507.52 44.017L1508.84 44.3409C1509.57 44.5189 1510.12 44.8011 1510.48 45.1875C1510.85 45.5739 1511.03 46.0587 1511.03 46.642C1511.03 47.1345 1510.9 47.572 1510.63 47.9545C1510.35 48.3371 1509.97 48.6383 1509.48 48.858C1509 49.0739 1508.44 49.1818 1507.8 49.1818C1506.94 49.1818 1506.24 48.9905 1505.69 48.608C1505.14 48.2216 1504.78 47.6648 1504.63 46.9375L1505.6 46.6989C1505.72 47.2178 1505.97 47.6098 1506.33 47.875C1506.7 48.1402 1507.18 48.2727 1507.78 48.2727C1508.45 48.2727 1508.99 48.1231 1509.39 47.8239C1509.79 47.5208 1509.99 47.142 1509.99 46.6875C1509.99 46.3352 1509.87 46.0398 1509.64 45.8011C1509.4 45.5587 1509.05 45.3807 1508.57 45.267L1507.14 44.9261C1506.39 44.7443 1505.82 44.4564 1505.46 44.0625C1505.1 43.6686 1504.92 43.1799 1504.92 42.5966C1504.92 42.1155 1505.05 41.6932 1505.31 41.3295C1505.57 40.9621 1505.93 40.6742 1506.39 40.4659C1506.85 40.2576 1507.37 40.1534 1507.96 40.1534C1508.75 40.1534 1509.39 40.3352 1509.87 40.6989C1510.35 41.0587 1510.7 41.5549 1510.91 42.1875ZM1514.93 47.4091L1514.83 48.017C1514.76 48.4261 1514.67 48.8769 1514.56 49.3693C1514.44 49.8617 1514.32 50.3295 1514.19 50.7727C1514.07 51.2159 1513.96 51.572 1513.87 51.8409H1513.09C1513.14 51.5833 1513.2 51.2557 1513.28 50.858C1513.36 50.4602 1513.44 50.0189 1513.52 49.5341C1513.61 49.053 1513.68 48.5568 1513.75 48.0455L1513.83 47.4091H1514.93ZM1525.52 49.1818C1524.74 49.1818 1524.06 48.9867 1523.48 48.5966C1522.9 48.2064 1522.46 47.6723 1522.14 46.9943C1521.82 46.3163 1521.66 45.5436 1521.66 44.6761C1521.66 43.8011 1521.82 43.0227 1522.14 42.3409C1522.47 41.6591 1522.92 41.125 1523.5 40.7386C1524.07 40.3485 1524.74 40.1534 1525.5 40.1534C1526.08 40.1534 1526.61 40.267 1527.09 40.4943C1527.56 40.7178 1527.95 41.0341 1528.26 41.4432C1528.57 41.8485 1528.76 42.322 1528.84 42.8636H1527.82C1527.71 42.3712 1527.46 41.9508 1527.05 41.6023C1526.65 41.25 1526.14 41.0739 1525.52 41.0739C1524.96 41.0739 1524.47 41.2254 1524.04 41.5284C1523.61 41.8277 1523.28 42.2462 1523.03 42.7841C1522.8 43.3182 1522.68 43.9375 1522.68 44.642C1522.68 45.3504 1522.79 45.9773 1523.03 46.5227C1523.26 47.0644 1523.59 47.4886 1524.02 47.7955C1524.45 48.1023 1524.95 48.2557 1525.52 48.2557C1525.9 48.2557 1526.26 48.1837 1526.57 48.0398C1526.9 47.892 1527.17 47.6837 1527.38 47.4148C1527.6 47.1458 1527.75 46.8258 1527.82 46.4545H1528.85C1528.77 46.9811 1528.58 47.4508 1528.28 47.8636C1527.99 48.2727 1527.6 48.5947 1527.13 48.8295C1526.66 49.0644 1526.12 49.1818 1525.52 49.1818ZM1534.41 49.1818C1533.65 49.1818 1532.99 48.9905 1532.41 48.608C1531.83 48.2254 1531.38 47.697 1531.05 47.0227C1530.73 46.3447 1530.57 45.5625 1530.57 44.6761C1530.57 43.7822 1530.73 42.9962 1531.05 42.3182C1531.38 41.6364 1531.83 41.1061 1532.41 40.7273C1532.99 40.3447 1533.65 40.1534 1534.41 40.1534C1535.16 40.1534 1535.83 40.3447 1536.4 40.7273C1536.98 41.1098 1537.43 41.6402 1537.75 42.3182C1538.08 42.9962 1538.25 43.7822 1538.25 44.6761C1538.25 45.5625 1538.08 46.3447 1537.76 47.0227C1537.43 47.697 1536.98 48.2254 1536.4 48.608C1535.83 48.9905 1535.16 49.1818 1534.41 49.1818ZM1534.41 48.2557C1535.01 48.2557 1535.53 48.0928 1535.95 47.767C1536.37 47.4413 1536.69 47.0076 1536.9 46.4659C1537.12 45.9242 1537.23 45.3277 1537.23 44.6761C1537.23 44.0246 1537.12 43.4261 1536.9 42.8807C1536.69 42.3352 1536.37 41.8977 1535.95 41.5682C1535.53 41.2386 1535.01 41.0739 1534.41 41.0739C1533.8 41.0739 1533.29 41.2386 1532.87 41.5682C1532.45 41.8977 1532.13 42.3352 1531.91 42.8807C1531.69 43.4261 1531.58 44.0246 1531.58 44.6761C1531.58 45.3277 1531.69 45.9242 1531.91 46.4659C1532.13 47.0076 1532.45 47.4413 1532.87 47.767C1533.29 48.0928 1533.8 48.2557 1534.41 48.2557ZM1541.48 43.5455V49H1540.47V40.2727H1541.45V41.642H1541.54C1541.75 41.1951 1542.06 40.8371 1542.5 40.5682C1542.93 40.2955 1543.47 40.1591 1544.11 40.1591C1544.7 40.1591 1545.21 40.2822 1545.66 40.5284C1546.1 40.7708 1546.45 41.1288 1546.7 41.6023C1546.95 42.0758 1547.07 42.6572 1547.07 43.3466V49H1546.06V43.4091C1546.06 42.6932 1545.86 42.1269 1545.46 41.7102C1545.06 41.2936 1544.52 41.0852 1543.85 41.0852C1543.4 41.0852 1542.99 41.1837 1542.63 41.3807C1542.28 41.5777 1541.99 41.8617 1541.79 42.233C1541.58 42.6004 1541.48 43.0379 1541.48 43.5455ZM1555.6 42.1875L1554.67 42.4489C1554.58 42.1875 1554.45 41.9508 1554.28 41.7386C1554.12 41.5265 1553.9 41.358 1553.63 41.233C1553.37 41.108 1553.04 41.0455 1552.64 41.0455C1552.05 41.0455 1551.57 41.1856 1551.19 41.4659C1550.81 41.7462 1550.62 42.108 1550.62 42.5511C1550.62 42.9261 1550.75 43.2311 1551.01 43.4659C1551.27 43.697 1551.67 43.8807 1552.21 44.017L1553.53 44.3409C1554.26 44.5189 1554.81 44.8011 1555.17 45.1875C1555.54 45.5739 1555.72 46.0587 1555.72 46.642C1555.72 47.1345 1555.59 47.572 1555.31 47.9545C1555.04 48.3371 1554.66 48.6383 1554.17 48.858C1553.69 49.0739 1553.12 49.1818 1552.48 49.1818C1551.63 49.1818 1550.93 48.9905 1550.38 48.608C1549.82 48.2216 1549.47 47.6648 1549.31 46.9375L1550.28 46.6989C1550.41 47.2178 1550.65 47.6098 1551.02 47.875C1551.39 48.1402 1551.87 48.2727 1552.47 48.2727C1553.14 48.2727 1553.67 48.1231 1554.07 47.8239C1554.48 47.5208 1554.68 47.142 1554.68 46.6875C1554.68 46.3352 1554.56 46.0398 1554.32 45.8011C1554.09 45.5587 1553.73 45.3807 1553.26 45.267L1551.83 44.9261C1551.07 44.7443 1550.51 44.4564 1550.15 44.0625C1549.78 43.6686 1549.6 43.1799 1549.6 42.5966C1549.6 42.1155 1549.73 41.6932 1550 41.3295C1550.26 40.9621 1550.62 40.6742 1551.07 40.4659C1551.53 40.2576 1552.06 40.1534 1552.64 40.1534C1553.44 40.1534 1554.08 40.3352 1554.56 40.6989C1555.04 41.0587 1555.39 41.5549 1555.6 42.1875ZM1557.95 49V40.2727H1558.97V49H1557.95ZM1558.47 38.7727C1558.26 38.7727 1558.08 38.7027 1557.93 38.5625C1557.78 38.4186 1557.71 38.2462 1557.71 38.0455C1557.71 37.8447 1557.78 37.6742 1557.93 37.5341C1558.08 37.3902 1558.26 37.3182 1558.47 37.3182C1558.67 37.3182 1558.85 37.3902 1559 37.5341C1559.15 37.6742 1559.22 37.8447 1559.22 38.0455C1559.22 38.2462 1559.15 38.4186 1559 38.5625C1558.85 38.7027 1558.67 38.7727 1558.47 38.7727ZM1564.78 49.1818C1564.07 49.1818 1563.44 48.9924 1562.9 48.6136C1562.36 48.2348 1561.94 47.7064 1561.64 47.0284C1561.34 46.3504 1561.19 45.5606 1561.19 44.6591C1561.19 43.7614 1561.34 42.9754 1561.64 42.3011C1561.94 41.6231 1562.37 41.0966 1562.91 40.7216C1563.45 40.3428 1564.08 40.1534 1564.8 40.1534C1565.33 40.1534 1565.77 40.2481 1566.12 40.4375C1566.48 40.6231 1566.76 40.8542 1566.97 41.1307C1567.18 41.4072 1567.35 41.6761 1567.46 41.9375H1567.55V37.3636H1568.57V49H1567.58V47.3807H1567.46C1567.35 47.6458 1567.18 47.9186 1566.96 48.1989C1566.75 48.4754 1566.46 48.7083 1566.11 48.8977C1565.75 49.0871 1565.31 49.1818 1564.78 49.1818ZM1564.9 48.2557C1565.47 48.2557 1565.95 48.1023 1566.34 47.7955C1566.74 47.4848 1567.05 47.0587 1567.25 46.517C1567.47 45.9716 1567.57 45.3466 1567.57 44.642C1567.57 43.9451 1567.47 43.3295 1567.26 42.7955C1567.05 42.2576 1566.75 41.8371 1566.35 41.5341C1565.95 41.2273 1565.47 41.0739 1564.9 41.0739C1564.32 41.0739 1563.83 41.233 1563.42 41.5511C1563.03 41.8655 1562.72 42.2917 1562.51 42.8295C1562.31 43.3674 1562.21 43.9716 1562.21 44.642C1562.21 45.3201 1562.31 45.9318 1562.52 46.4773C1562.73 47.0227 1563.03 47.4564 1563.43 47.7784C1563.83 48.0966 1564.32 48.2557 1564.9 48.2557ZM1574.98 49.1818C1574.17 49.1818 1573.46 48.9924 1572.87 48.6136C1572.27 48.2311 1571.81 47.7027 1571.49 47.0284C1571.16 46.3504 1571 45.5701 1571 44.6875C1571 43.8087 1571.16 43.0284 1571.49 42.3466C1571.81 41.661 1572.26 41.125 1572.83 40.7386C1573.41 40.3485 1574.07 40.1534 1574.83 40.1534C1575.3 40.1534 1575.76 40.2405 1576.2 40.4148C1576.64 40.5852 1577.03 40.8485 1577.38 41.2045C1577.73 41.5568 1578.01 42.0019 1578.21 42.5398C1578.42 43.0739 1578.52 43.7064 1578.52 44.4375V44.9375H1571.7V44.0455H1577.49C1577.49 43.4848 1577.37 42.9811 1577.15 42.5341C1576.92 42.0833 1576.61 41.7273 1576.21 41.4659C1575.81 41.2045 1575.35 41.0739 1574.83 41.0739C1574.27 41.0739 1573.79 41.2216 1573.37 41.517C1572.95 41.8125 1572.62 42.2027 1572.38 42.6875C1572.14 43.1723 1572.02 43.7027 1572.02 44.2784V44.8125C1572.02 45.5057 1572.14 46.1117 1572.38 46.6307C1572.62 47.1458 1572.96 47.5455 1573.41 47.8295C1573.85 48.1136 1574.37 48.2557 1574.98 48.2557C1575.39 48.2557 1575.76 48.1913 1576.07 48.0625C1576.38 47.9337 1576.64 47.7614 1576.86 47.5455C1577.07 47.3258 1577.23 47.0852 1577.34 46.8239L1578.3 47.1364C1578.17 47.5038 1577.95 47.8428 1577.65 48.1534C1577.35 48.464 1576.98 48.714 1576.53 48.9034C1576.08 49.089 1575.56 49.1818 1574.98 49.1818ZM1580.75 49V40.2727H1581.73V41.6136H1581.81C1581.98 41.1742 1582.28 40.8201 1582.72 40.5511C1583.15 40.2784 1583.64 40.142 1584.19 40.142C1584.28 40.142 1584.37 40.1439 1584.47 40.1477C1584.57 40.1515 1584.66 40.1553 1584.73 40.1591V41.1875C1584.68 41.1799 1584.6 41.1686 1584.49 41.1534C1584.37 41.1383 1584.25 41.1307 1584.12 41.1307C1583.66 41.1307 1583.26 41.2273 1582.9 41.4205C1582.55 41.6098 1582.27 41.8731 1582.07 42.2102C1581.86 42.5473 1581.76 42.9318 1581.76 43.3636V49H1580.75ZM1591.66 52.2727C1591.46 52.2727 1591.27 52.2538 1591.09 52.2159C1590.92 52.178 1590.78 52.1364 1590.68 52.0909L1590.95 51.1989C1591.3 51.3049 1591.6 51.3428 1591.87 51.3125C1592.14 51.286 1592.38 51.1648 1592.59 50.9489C1592.8 50.7367 1592.98 50.411 1593.15 49.9716L1593.46 49.0852L1590.25 40.2727H1591.35L1593.94 47.6648H1594.02L1596.61 40.2727H1597.71L1594.01 50.3807C1593.86 50.8011 1593.67 51.1515 1593.44 51.4318C1593.21 51.7159 1592.95 51.9261 1592.65 52.0625C1592.36 52.2027 1592.02 52.2727 1591.66 52.2727ZM1602.77 49.1818C1602.01 49.1818 1601.35 48.9905 1600.77 48.608C1600.19 48.2254 1599.74 47.697 1599.41 47.0227C1599.09 46.3447 1598.93 45.5625 1598.93 44.6761C1598.93 43.7822 1599.09 42.9962 1599.41 42.3182C1599.74 41.6364 1600.19 41.1061 1600.77 40.7273C1601.35 40.3447 1602.01 40.1534 1602.77 40.1534C1603.52 40.1534 1604.18 40.3447 1604.76 40.7273C1605.34 41.1098 1605.79 41.6402 1606.11 42.3182C1606.44 42.9962 1606.61 43.7822 1606.61 44.6761C1606.61 45.5625 1606.44 46.3447 1606.12 47.0227C1605.79 47.697 1605.34 48.2254 1604.76 48.608C1604.18 48.9905 1603.52 49.1818 1602.77 49.1818ZM1602.77 48.2557C1603.37 48.2557 1603.89 48.0928 1604.31 47.767C1604.73 47.4413 1605.04 47.0076 1605.26 46.4659C1605.48 45.9242 1605.59 45.3277 1605.59 44.6761C1605.59 44.0246 1605.48 43.4261 1605.26 42.8807C1605.04 42.3352 1604.73 41.8977 1604.31 41.5682C1603.89 41.2386 1603.37 41.0739 1602.77 41.0739C1602.16 41.0739 1601.65 41.2386 1601.23 41.5682C1600.81 41.8977 1600.49 42.3352 1600.27 42.8807C1600.05 43.4261 1599.94 44.0246 1599.94 44.6761C1599.94 45.3277 1600.05 45.9242 1600.27 46.4659C1600.49 47.0076 1600.81 47.4413 1601.23 47.767C1601.65 48.0928 1602.16 48.2557 1602.77 48.2557ZM1614.37 45.6648V40.2727H1615.38V49H1614.37V47.5511H1614.29C1614.09 47.9981 1613.76 48.3712 1613.32 48.6705C1612.88 48.9659 1612.34 49.1136 1611.7 49.1136C1611.14 49.1136 1610.65 48.9924 1610.21 48.75C1609.78 48.5038 1609.44 48.1439 1609.2 47.6705C1608.95 47.197 1608.83 46.6155 1608.83 45.9261V40.2727H1609.84V45.8636C1609.84 46.5455 1610.04 47.0947 1610.44 47.5114C1610.84 47.9242 1611.36 48.1307 1611.99 48.1307C1612.38 48.1307 1612.76 48.036 1613.12 47.8466C1613.49 47.6572 1613.79 47.3807 1614.02 47.017C1614.26 46.6496 1614.37 46.1989 1614.37 45.6648ZM1618.06 49V40.2727H1619.04V41.6136H1619.12C1619.29 41.1742 1619.6 40.8201 1620.03 40.5511C1620.46 40.2784 1620.96 40.142 1621.5 40.142C1621.59 40.142 1621.68 40.1439 1621.78 40.1477C1621.89 40.1515 1621.97 40.1553 1622.04 40.1591V41.1875C1621.99 41.1799 1621.91 41.1686 1621.8 41.1534C1621.69 41.1383 1621.56 41.1307 1621.43 41.1307C1620.98 41.1307 1620.57 41.2273 1620.22 41.4205C1619.86 41.6098 1619.58 41.8731 1619.38 42.2102C1619.18 42.5473 1619.07 42.9318 1619.07 43.3636V49H1618.06ZM1629.63 42.1875L1628.7 42.4489C1628.61 42.1875 1628.48 41.9508 1628.32 41.7386C1628.15 41.5265 1627.93 41.358 1627.66 41.233C1627.4 41.108 1627.07 41.0455 1626.67 41.0455C1626.08 41.0455 1625.6 41.1856 1625.22 41.4659C1624.84 41.7462 1624.65 42.108 1624.65 42.5511C1624.65 42.9261 1624.78 43.2311 1625.04 43.4659C1625.3 43.697 1625.7 43.8807 1626.24 44.017L1627.56 44.3409C1628.29 44.5189 1628.84 44.8011 1629.2 45.1875C1629.57 45.5739 1629.75 46.0587 1629.75 46.642C1629.75 47.1345 1629.62 47.572 1629.34 47.9545C1629.07 48.3371 1628.69 48.6383 1628.2 48.858C1627.72 49.0739 1627.16 49.1818 1626.51 49.1818C1625.66 49.1818 1624.96 48.9905 1624.41 48.608C1623.85 48.2216 1623.5 47.6648 1623.34 46.9375L1624.32 46.6989C1624.44 47.2178 1624.69 47.6098 1625.05 47.875C1625.42 48.1402 1625.9 48.2727 1626.5 48.2727C1627.17 48.2727 1627.7 48.1231 1628.11 47.8239C1628.51 47.5208 1628.71 47.142 1628.71 46.6875C1628.71 46.3352 1628.59 46.0398 1628.36 45.8011C1628.12 45.5587 1627.76 45.3807 1627.29 45.267L1625.86 44.9261C1625.1 44.7443 1624.54 44.4564 1624.18 44.0625C1623.82 43.6686 1623.63 43.1799 1623.63 42.5966C1623.63 42.1155 1623.76 41.6932 1624.03 41.3295C1624.29 40.9621 1624.65 40.6742 1625.11 40.4659C1625.56 40.2576 1626.09 40.1534 1626.67 40.1534C1627.47 40.1534 1628.11 40.3352 1628.59 40.6989C1629.07 41.0587 1629.42 41.5549 1629.63 42.1875ZM1635.5 49.1818C1634.68 49.1818 1633.98 48.9924 1633.38 48.6136C1632.79 48.2311 1632.33 47.7027 1632 47.0284C1631.68 46.3504 1631.52 45.5701 1631.52 44.6875C1631.52 43.8087 1631.68 43.0284 1632 42.3466C1632.33 41.661 1632.78 41.125 1633.35 40.7386C1633.92 40.3485 1634.59 40.1534 1635.34 40.1534C1635.82 40.1534 1636.27 40.2405 1636.71 40.4148C1637.15 40.5852 1637.55 40.8485 1637.89 41.2045C1638.25 41.5568 1638.52 42.0019 1638.73 42.5398C1638.93 43.0739 1639.04 43.7064 1639.04 44.4375V44.9375H1632.22V44.0455H1638C1638 43.4848 1637.89 42.9811 1637.66 42.5341C1637.44 42.0833 1637.13 41.7273 1636.72 41.4659C1636.33 41.2045 1635.87 41.0739 1635.34 41.0739C1634.79 41.0739 1634.3 41.2216 1633.88 41.517C1633.46 41.8125 1633.13 42.2027 1632.89 42.6875C1632.66 43.1723 1632.54 43.7027 1632.54 44.2784V44.8125C1632.54 45.5057 1632.66 46.1117 1632.89 46.6307C1633.14 47.1458 1633.48 47.5455 1633.92 47.8295C1634.37 48.1136 1634.89 48.2557 1635.5 48.2557C1635.91 48.2557 1636.27 48.1913 1636.58 48.0625C1636.9 47.9337 1637.16 47.7614 1637.37 47.5455C1637.59 47.3258 1637.75 47.0852 1637.86 46.8239L1638.82 47.1364C1638.69 47.5038 1638.47 47.8428 1638.17 48.1534C1637.87 48.464 1637.49 48.714 1637.04 48.9034C1636.59 49.089 1636.08 49.1818 1635.5 49.1818ZM1642.28 37.3636V49H1641.26V37.3636H1642.28ZM1648.54 40.2727V41.1534H1644.25V40.2727H1648.54ZM1645.59 49V38.9943C1645.59 38.5246 1645.7 38.1288 1645.92 37.8068C1646.14 37.4848 1646.42 37.2405 1646.78 37.0739C1647.13 36.9072 1647.5 36.8239 1647.9 36.8239C1648.16 36.8239 1648.38 36.8466 1648.55 36.892C1648.73 36.9337 1648.87 36.9754 1648.98 37.017L1648.68 37.9034C1648.6 37.8807 1648.51 37.8542 1648.4 37.8239C1648.29 37.7936 1648.15 37.7784 1647.99 37.7784C1647.55 37.7784 1647.21 37.9015 1646.97 38.1477C1646.73 38.3939 1646.61 38.7462 1646.61 39.2045L1646.61 49H1645.59ZM1658.65 40.2727V41.1534H1654.36V40.2727H1658.65ZM1655.7 49V38.9943C1655.7 38.5246 1655.81 38.1288 1656.03 37.8068C1656.25 37.4848 1656.53 37.2405 1656.89 37.0739C1657.24 36.9072 1657.61 36.8239 1658 36.8239C1658.27 36.8239 1658.49 36.8466 1658.66 36.892C1658.84 36.9337 1658.98 36.9754 1659.08 37.017L1658.79 37.9034C1658.71 37.8807 1658.62 37.8542 1658.51 37.8239C1658.4 37.7936 1658.26 37.7784 1658.1 37.7784C1657.66 37.7784 1657.32 37.9015 1657.08 38.1477C1656.84 38.3939 1656.72 38.7462 1656.72 39.2045L1656.72 49H1655.7ZM1660.68 49V40.2727H1661.7V49H1660.68ZM1661.2 38.7727C1660.99 38.7727 1660.81 38.7027 1660.67 38.5625C1660.52 38.4186 1660.44 38.2462 1660.44 38.0455C1660.44 37.8447 1660.52 37.6742 1660.67 37.5341C1660.81 37.3902 1660.99 37.3182 1661.2 37.3182C1661.41 37.3182 1661.59 37.3902 1661.73 37.5341C1661.88 37.6742 1661.96 37.8447 1661.96 38.0455C1661.96 38.2462 1661.88 38.4186 1661.73 38.5625C1661.59 38.7027 1661.41 38.7727 1661.2 38.7727ZM1664.37 49V40.2727H1665.36V41.6136H1665.43C1665.61 41.1742 1665.91 40.8201 1666.34 40.5511C1666.78 40.2784 1667.27 40.142 1667.82 40.142C1667.9 40.142 1667.99 40.1439 1668.1 40.1477C1668.2 40.1515 1668.28 40.1553 1668.35 40.1591V41.1875C1668.31 41.1799 1668.23 41.1686 1668.11 41.1534C1668 41.1383 1667.88 41.1307 1667.74 41.1307C1667.29 41.1307 1666.88 41.2273 1666.53 41.4205C1666.18 41.6098 1665.9 41.8731 1665.69 42.2102C1665.49 42.5473 1665.39 42.9318 1665.39 43.3636V49H1664.37ZM1675.94 42.1875L1675.01 42.4489C1674.92 42.1875 1674.8 41.9508 1674.63 41.7386C1674.46 41.5265 1674.24 41.358 1673.98 41.233C1673.71 41.108 1673.38 41.0455 1672.99 41.0455C1672.4 41.0455 1671.91 41.1856 1671.53 41.4659C1671.15 41.7462 1670.96 42.108 1670.96 42.5511C1670.96 42.9261 1671.09 43.2311 1671.35 43.4659C1671.61 43.697 1672.01 43.8807 1672.55 44.017L1673.87 44.3409C1674.6 44.5189 1675.15 44.8011 1675.51 45.1875C1675.88 45.5739 1676.07 46.0587 1676.07 46.642C1676.07 47.1345 1675.93 47.572 1675.66 47.9545C1675.38 48.3371 1675 48.6383 1674.51 48.858C1674.03 49.0739 1673.47 49.1818 1672.83 49.1818C1671.98 49.1818 1671.27 48.9905 1670.72 48.608C1670.17 48.2216 1669.81 47.6648 1669.66 46.9375L1670.63 46.6989C1670.75 47.2178 1671 47.6098 1671.36 47.875C1671.73 48.1402 1672.21 48.2727 1672.81 48.2727C1673.48 48.2727 1674.02 48.1231 1674.42 47.8239C1674.82 47.5208 1675.02 47.142 1675.02 46.6875C1675.02 46.3352 1674.9 46.0398 1674.67 45.8011C1674.43 45.5587 1674.08 45.3807 1673.6 45.267L1672.17 44.9261C1671.42 44.7443 1670.86 44.4564 1670.49 44.0625C1670.13 43.6686 1669.95 43.1799 1669.95 42.5966C1669.95 42.1155 1670.08 41.6932 1670.34 41.3295C1670.6 40.9621 1670.96 40.6742 1671.42 40.4659C1671.88 40.2576 1672.4 40.1534 1672.99 40.1534C1673.79 40.1534 1674.42 40.3352 1674.9 40.6989C1675.38 41.0587 1675.73 41.5549 1675.94 42.1875ZM1681.72 40.2727V41.1534H1677.55V40.2727H1681.72ZM1678.85 38.1818H1679.87V46.7216C1679.87 47.0852 1679.93 47.3712 1680.06 47.5795C1680.18 47.7841 1680.35 47.9299 1680.55 48.017C1680.75 48.1004 1680.96 48.142 1681.19 48.142C1681.32 48.142 1681.44 48.1345 1681.53 48.1193C1681.63 48.1004 1681.71 48.0814 1681.78 48.0625L1682 48.9773C1681.9 49.0152 1681.78 49.0492 1681.63 49.0795C1681.49 49.1136 1681.31 49.1307 1681.1 49.1307C1680.73 49.1307 1680.37 49.0492 1680.02 48.8864C1679.68 48.7235 1679.4 48.4811 1679.18 48.1591C1678.96 47.8371 1678.85 47.4375 1678.85 46.9602V38.1818Z" fill="white"/>
<path d="M1291.67 35C1291.67 37.9455 1294.05 40.3333 1297 40.3333C1299.95 40.3333 1302.33 37.9455 1302.33 35C1302.33 32.0545 1299.95 29.6667 1297 29.6667C1294.05 29.6667 1291.67 32.0545 1291.67 35ZM1274 36H1297V34H1274V36Z" fill="url(#paint1_linear_158_997)"/>
<circle cx="1242" cy="35" r="35" fill="url(#paint2_linear_158_997)"/>
<circle cx="1242" cy="35" r="27" fill="white"/>
<path d="M1232.27 44.36C1230.26 44.36 1228.51 43.976 1227.04 43.208C1225.58 42.424 1224.46 41.328 1223.66 39.92C1222.86 38.512 1222.46 36.872 1222.46 35C1222.46 33.128 1222.86 31.488 1223.66 30.08C1224.46 28.672 1225.58 27.584 1227.04 26.816C1228.51 26.032 1230.26 25.64 1232.27 25.64C1234.27 25.64 1236 26.032 1237.46 26.816C1238.93 27.584 1240.06 28.672 1240.86 30.08C1241.66 31.488 1242.06 33.128 1242.06 35C1242.06 36.872 1241.66 38.512 1240.86 39.92C1240.06 41.328 1238.93 42.424 1237.46 43.208C1236 43.976 1234.27 44.36 1232.27 44.36ZM1232.27 41.048C1234.08 41.048 1235.48 40.52 1236.47 39.464C1237.48 38.392 1237.98 36.904 1237.98 35C1237.98 33.08 1237.48 31.592 1236.47 30.536C1235.48 29.48 1234.08 28.952 1232.27 28.952C1230.46 28.952 1229.06 29.48 1228.05 30.536C1227.04 31.592 1226.54 33.08 1226.54 35C1226.54 36.92 1227.04 38.408 1228.05 39.464C1229.06 40.52 1230.46 41.048 1232.27 41.048ZM1244.08 32.336C1244.18 30.96 1244.63 29.776 1245.43 28.784C1246.23 27.776 1247.28 27 1248.6 26.456C1249.92 25.912 1251.43 25.64 1253.11 25.64C1254.71 25.64 1256.11 25.888 1257.31 26.384C1258.51 26.864 1259.44 27.544 1260.12 28.424C1260.79 29.304 1261.12 30.328 1261.12 31.496C1261.12 32.392 1260.89 33.224 1260.43 33.992C1259.96 34.76 1259.22 35.536 1258.2 36.32C1257.19 37.088 1255.84 37.92 1254.16 38.816L1248.72 41.816L1248.4 40.712H1261.63V44H1244.35V41.12L1252.05 36.608C1253.33 35.872 1254.33 35.24 1255.05 34.712C1255.77 34.168 1256.28 33.664 1256.59 33.2C1256.89 32.736 1257.04 32.24 1257.04 31.712C1257.04 31.152 1256.89 30.656 1256.59 30.224C1256.28 29.792 1255.83 29.456 1255.22 29.216C1254.63 28.976 1253.88 28.856 1252.96 28.856C1251.89 28.856 1251.01 29.016 1250.32 29.336C1249.64 29.64 1249.12 30.056 1248.76 30.584C1248.43 31.112 1248.23 31.696 1248.16 32.336H1244.08Z" fill="#000C74"/>
<defs>
<linearGradient id="paint0_linear_158_997" x1="1297" y1="34.5" x2="1723" y2="34.5" gradientUnits="userSpaceOnUse">
<stop stop-color="#00A93C"/>
<stop offset="1" stop-color="#24CBFF"/>
</linearGradient>
<linearGradient id="paint1_linear_158_997" x1="1274" y1="35.5" x2="1297" y2="35.5" gradientUnits="userSpaceOnUse">
<stop stop-color="#00A93C"/>
<stop offset="1" stop-color="#24CBFF"/>
</linearGradient>
<linearGradient id="paint2_linear_158_997" x1="1207" y1="35" x2="1277" y2="35" gradientUnits="userSpaceOnUse">
<stop stop-color="#00A93C"/>
<stop offset="1" stop-color="#000C74"/>
</linearGradient>
</defs>
</svg>
