<svg width="100%" viewBox="0 0 1920 70" fill="none" xmlns="http://www.w3.org/2000/svg">
<rect x="1332.5" y="5.5" width="410" height="58" rx="19.5" stroke="url(#paint0_linear_158_1005)"/>
<path d="M1468.76 30V18.3636H1473.13C1474.02 18.3636 1474.77 18.5303 1475.38 18.8636C1475.99 19.197 1476.45 19.6553 1476.76 20.2386C1477.07 20.8182 1477.23 21.4773 1477.23 22.2159C1477.23 22.9621 1477.07 23.625 1476.76 24.2045C1476.44 24.7841 1475.98 25.2405 1475.37 25.5739C1474.75 25.9034 1474 26.0682 1473.1 26.0682H1470.21V24.3352H1472.82C1473.34 24.3352 1473.77 24.2443 1474.1 24.0625C1474.43 23.8807 1474.68 23.6307 1474.84 23.3125C1475 22.9943 1475.08 22.6288 1475.08 22.2159C1475.08 21.803 1475 21.4394 1474.84 21.125C1474.68 20.8106 1474.43 20.5663 1474.09 20.392C1473.76 20.214 1473.33 20.125 1472.8 20.125H1470.87V30H1468.76ZM1479.06 30V18.3636H1486.63V20.1307H1481.17V23.2898H1486.24V25.0568H1481.17V28.233H1486.68V30H1479.06ZM1488.78 30V18.3636H1493.14C1494.04 18.3636 1494.79 18.5189 1495.39 18.8295C1496 19.1402 1496.46 19.5758 1496.77 20.1364C1497.09 20.6932 1497.25 21.3428 1497.25 22.0852C1497.25 22.8314 1497.09 23.4792 1496.77 24.0284C1496.45 24.5739 1495.99 24.9962 1495.38 25.2955C1494.76 25.5909 1494.01 25.7386 1493.12 25.7386H1490.01V23.9886H1492.83C1493.35 23.9886 1493.78 23.9167 1494.12 23.7727C1494.45 23.625 1494.7 23.411 1494.85 23.1307C1495.02 22.8466 1495.1 22.4981 1495.1 22.0852C1495.1 21.6723 1495.02 21.3201 1494.85 21.0284C1494.69 20.733 1494.44 20.5095 1494.11 20.358C1493.78 20.2027 1493.35 20.125 1492.82 20.125H1490.89V30H1488.78ZM1494.79 24.7273L1497.67 30H1495.32L1492.49 24.7273H1494.79ZM1505.51 21.5625C1505.46 21.0663 1505.23 20.6799 1504.84 20.4034C1504.45 20.1269 1503.94 19.9886 1503.32 19.9886C1502.88 19.9886 1502.5 20.0549 1502.19 20.1875C1501.87 20.3201 1501.63 20.5 1501.47 20.7273C1501.3 20.9545 1501.21 21.214 1501.21 21.5057C1501.21 21.7481 1501.26 21.9583 1501.37 22.1364C1501.49 22.3144 1501.64 22.4659 1501.83 22.5909C1502.03 22.7121 1502.24 22.8144 1502.48 22.8977C1502.71 22.9811 1502.95 23.0511 1503.19 23.108L1504.28 23.3807C1504.72 23.483 1505.14 23.6212 1505.54 23.7955C1505.95 23.9697 1506.32 24.1894 1506.64 24.4545C1506.97 24.7197 1507.22 25.0398 1507.41 25.4148C1507.6 25.7898 1507.7 26.2292 1507.7 26.733C1507.7 27.4148 1507.52 28.0152 1507.18 28.5341C1506.83 29.0492 1506.32 29.4527 1505.66 29.7443C1505.01 30.0322 1504.22 30.1761 1503.28 30.1761C1502.38 30.1761 1501.59 30.036 1500.93 29.7557C1500.26 29.4754 1499.74 29.0663 1499.37 28.5284C1499 27.9905 1498.8 27.3352 1498.77 26.5625H1500.84C1500.87 26.9678 1501 27.3049 1501.22 27.5739C1501.43 27.8428 1501.72 28.0436 1502.07 28.1761C1502.43 28.3087 1502.83 28.375 1503.27 28.375C1503.72 28.375 1504.13 28.3068 1504.47 28.1705C1504.82 28.0303 1505.09 27.8371 1505.29 27.5909C1505.49 27.3409 1505.59 27.0492 1505.59 26.7159C1505.59 26.4129 1505.5 26.1629 1505.32 25.9659C1505.15 25.7652 1504.9 25.5985 1504.59 25.4659C1504.28 25.3295 1503.92 25.2083 1503.5 25.1023L1502.18 24.7614C1501.22 24.5152 1500.46 24.142 1499.9 23.642C1499.35 23.1383 1499.07 22.4697 1499.07 21.6364C1499.07 20.9508 1499.26 20.3504 1499.63 19.8352C1500 19.3201 1500.51 18.9205 1501.16 18.6364C1501.8 18.3485 1502.53 18.2045 1503.35 18.2045C1504.17 18.2045 1504.9 18.3485 1505.52 18.6364C1506.14 18.9205 1506.63 19.3163 1506.99 19.8239C1507.34 20.3277 1507.53 20.9072 1507.54 21.5625H1505.51ZM1509.58 30V18.3636H1517.15V20.1307H1511.69V23.2898H1516.75V25.0568H1511.69V28.233H1517.19V30H1509.58ZM1520.85 18.3636L1523.88 27.5227H1524L1527.02 18.3636H1529.34L1525.24 30H1522.64L1518.54 18.3636H1520.85ZM1530.87 30V18.3636H1538.44V20.1307H1532.98V23.2898H1538.05V25.0568H1532.98V28.233H1538.49V30H1530.87ZM1540.59 30V18.3636H1544.96C1545.85 18.3636 1546.6 18.5189 1547.21 18.8295C1547.82 19.1402 1548.28 19.5758 1548.59 20.1364C1548.9 20.6932 1549.06 21.3428 1549.06 22.0852C1549.06 22.8314 1548.9 23.4792 1548.58 24.0284C1548.27 24.5739 1547.8 24.9962 1547.19 25.2955C1546.58 25.5909 1545.82 25.7386 1544.93 25.7386H1541.82V23.9886H1544.64C1545.17 23.9886 1545.59 23.9167 1545.93 23.7727C1546.26 23.625 1546.51 23.411 1546.67 23.1307C1546.83 22.8466 1546.91 22.4981 1546.91 22.0852C1546.91 21.6723 1546.83 21.3201 1546.67 21.0284C1546.5 20.733 1546.26 20.5095 1545.92 20.358C1545.59 20.2027 1545.16 20.125 1544.63 20.125H1542.7V30H1540.59ZM1546.6 24.7273L1549.49 30H1547.13L1544.3 24.7273H1546.6ZM1552.49 30H1550.24L1554.34 18.3636H1556.94L1561.04 30H1558.79L1555.69 20.75H1555.6L1552.49 30ZM1552.57 25.4375H1558.7V27.1307H1552.57V25.4375ZM1572.14 18.3636V30H1570.26L1564.78 22.0739H1564.69V30H1562.58V18.3636H1564.46L1569.94 26.2955H1570.04V18.3636H1572.14ZM1584.4 22.2898H1582.27C1582.21 21.9413 1582.1 21.6326 1581.94 21.3636C1581.77 21.0909 1581.57 20.8598 1581.33 20.6705C1581.09 20.4811 1580.81 20.339 1580.5 20.2443C1580.19 20.1458 1579.86 20.0966 1579.5 20.0966C1578.87 20.0966 1578.31 20.2557 1577.82 20.5739C1577.33 20.8883 1576.95 21.3504 1576.68 21.9602C1576.4 22.5663 1576.26 23.3068 1576.26 24.1818C1576.26 25.072 1576.4 25.822 1576.68 26.4318C1576.96 27.0379 1577.34 27.4962 1577.82 27.8068C1578.31 28.1136 1578.87 28.267 1579.5 28.267C1579.85 28.267 1580.17 28.2216 1580.48 28.1307C1580.78 28.036 1581.06 27.8977 1581.3 27.7159C1581.55 27.5341 1581.75 27.3106 1581.92 27.0455C1582.09 26.7803 1582.21 26.4773 1582.27 26.1364L1584.4 26.1477C1584.32 26.7008 1584.15 27.2197 1583.88 27.7045C1583.62 28.1894 1583.28 28.6174 1582.85 28.9886C1582.43 29.3561 1581.93 29.6439 1581.36 29.8523C1580.79 30.0568 1580.16 30.1591 1579.47 30.1591C1578.45 30.1591 1577.54 29.9223 1576.73 29.4489C1575.93 28.9754 1575.3 28.2917 1574.83 27.3977C1574.37 26.5038 1574.14 25.4318 1574.14 24.1818C1574.14 22.928 1574.37 21.8561 1574.84 20.9659C1575.31 20.072 1575.94 19.3883 1576.74 18.9148C1577.55 18.4413 1578.46 18.2045 1579.47 18.2045C1580.12 18.2045 1580.72 18.2955 1581.28 18.4773C1581.83 18.6591 1582.33 18.9261 1582.77 19.2784C1583.2 19.6269 1583.56 20.0549 1583.84 20.5625C1584.12 21.0663 1584.31 21.642 1584.4 22.2898ZM1586.33 30V18.3636H1593.9V20.1307H1588.44V23.2898H1593.5V25.0568H1588.44V28.233H1593.94V30H1586.33ZM1605.18 24.5341V25.4886H1600.34V24.5341H1605.18ZM1417.33 49H1413.92V37.3636H1417.53C1418.64 37.3636 1419.59 37.5947 1420.38 38.0568C1421.17 38.5189 1421.78 39.1818 1422.2 40.0455C1422.62 40.9091 1422.83 41.9451 1422.83 43.1534C1422.83 44.3731 1422.61 45.4205 1422.18 46.2955C1421.75 47.1667 1421.13 47.8352 1420.31 48.3011C1419.49 48.767 1418.5 49 1417.33 49ZM1414.98 48.0455H1417.27C1418.27 48.0455 1419.1 47.8485 1419.78 47.4545C1420.45 47.0606 1420.96 46.4981 1421.3 45.767C1421.63 45.036 1421.8 44.1648 1421.8 43.1534C1421.8 42.1496 1421.63 41.286 1421.3 40.5625C1420.98 39.839 1420.49 39.2841 1419.85 38.8977C1419.21 38.5114 1418.41 38.3182 1417.47 38.3182H1414.98V48.0455ZM1428.59 49.1818C1427.83 49.1818 1427.17 48.9905 1426.59 48.608C1426.01 48.2254 1425.56 47.697 1425.23 47.0227C1424.91 46.3447 1424.75 45.5625 1424.75 44.6761C1424.75 43.7822 1424.91 42.9962 1425.23 42.3182C1425.56 41.6364 1426.01 41.1061 1426.59 40.7273C1427.17 40.3447 1427.83 40.1534 1428.59 40.1534C1429.34 40.1534 1430.01 40.3447 1430.58 40.7273C1431.16 41.1098 1431.61 41.6402 1431.93 42.3182C1432.26 42.9962 1432.43 43.7822 1432.43 44.6761C1432.43 45.5625 1432.26 46.3447 1431.94 47.0227C1431.61 47.697 1431.16 48.2254 1430.58 48.608C1430.01 48.9905 1429.34 49.1818 1428.59 49.1818ZM1428.59 48.2557C1429.19 48.2557 1429.71 48.0928 1430.13 47.767C1430.55 47.4413 1430.87 47.0076 1431.08 46.4659C1431.3 45.9242 1431.41 45.3277 1431.41 44.6761C1431.41 44.0246 1431.3 43.4261 1431.08 42.8807C1430.87 42.3352 1430.55 41.8977 1430.13 41.5682C1429.71 41.2386 1429.19 41.0739 1428.59 41.0739C1427.98 41.0739 1427.47 41.2386 1427.05 41.5682C1426.63 41.8977 1426.31 42.3352 1426.09 42.8807C1425.87 43.4261 1425.76 44.0246 1425.76 44.6761C1425.76 45.3277 1425.87 45.9242 1426.09 46.4659C1426.31 47.0076 1426.63 47.4413 1427.05 47.767C1427.47 48.0928 1427.98 48.2557 1428.59 48.2557ZM1435.66 43.5455V49H1434.65V40.2727H1435.63V41.642H1435.72C1435.93 41.1951 1436.24 40.8371 1436.68 40.5682C1437.11 40.2955 1437.65 40.1591 1438.29 40.1591C1438.88 40.1591 1439.39 40.2822 1439.84 40.5284C1440.28 40.7708 1440.63 41.1288 1440.88 41.6023C1441.12 42.0758 1441.25 42.6572 1441.25 43.3466V49H1440.24V43.4091C1440.24 42.6932 1440.04 42.1269 1439.64 41.7102C1439.24 41.2936 1438.7 41.0852 1438.03 41.0852C1437.58 41.0852 1437.17 41.1837 1436.81 41.3807C1436.46 41.5777 1436.17 41.8617 1435.97 42.233C1435.76 42.6004 1435.66 43.0379 1435.66 43.5455ZM1444.78 37.3636V41.2443H1443.82V37.3636H1444.78ZM1450.8 40.2727V41.1534H1446.64V40.2727H1450.8ZM1447.94 38.1818H1448.96V46.7216C1448.96 47.0852 1449.02 47.3712 1449.14 47.5795C1449.27 47.7841 1449.43 47.9299 1449.63 48.017C1449.83 48.1004 1450.05 48.142 1450.28 48.142C1450.41 48.142 1450.52 48.1345 1450.62 48.1193C1450.71 48.1004 1450.79 48.0814 1450.87 48.0625L1451.08 48.9773C1450.98 49.0152 1450.86 49.0492 1450.72 49.0795C1450.57 49.1136 1450.4 49.1307 1450.18 49.1307C1449.81 49.1307 1449.46 49.0492 1449.11 48.8864C1448.77 48.7235 1448.49 48.4811 1448.27 48.1591C1448.05 47.8371 1447.94 47.4375 1447.94 46.9602V38.1818ZM1463.46 42.1875L1462.54 42.4489C1462.45 42.1875 1462.32 41.9508 1462.15 41.7386C1461.99 41.5265 1461.77 41.358 1461.5 41.233C1461.23 41.108 1460.9 41.0455 1460.51 41.0455C1459.92 41.0455 1459.43 41.1856 1459.06 41.4659C1458.68 41.7462 1458.49 42.108 1458.49 42.5511C1458.49 42.9261 1458.62 43.2311 1458.87 43.4659C1459.13 43.697 1459.54 43.8807 1460.08 44.017L1461.4 44.3409C1462.13 44.5189 1462.67 44.8011 1463.04 45.1875C1463.41 45.5739 1463.59 46.0587 1463.59 46.642C1463.59 47.1345 1463.45 47.572 1463.18 47.9545C1462.91 48.3371 1462.53 48.6383 1462.04 48.858C1461.55 49.0739 1460.99 49.1818 1460.35 49.1818C1459.5 49.1818 1458.8 48.9905 1458.24 48.608C1457.69 48.2216 1457.34 47.6648 1457.18 46.9375L1458.15 46.6989C1458.28 47.2178 1458.52 47.6098 1458.88 47.875C1459.25 48.1402 1459.74 48.2727 1460.33 48.2727C1461 48.2727 1461.54 48.1231 1461.94 47.8239C1462.34 47.5208 1462.54 47.142 1462.54 46.6875C1462.54 46.3352 1462.43 46.0398 1462.19 45.8011C1461.96 45.5587 1461.6 45.3807 1461.12 45.267L1459.7 44.9261C1458.94 44.7443 1458.38 44.4564 1458.02 44.0625C1457.65 43.6686 1457.47 43.1799 1457.47 42.5966C1457.47 42.1155 1457.6 41.6932 1457.86 41.3295C1458.12 40.9621 1458.48 40.6742 1458.94 40.4659C1459.4 40.2576 1459.92 40.1534 1460.51 40.1534C1461.31 40.1534 1461.95 40.3352 1462.42 40.6989C1462.91 41.0587 1463.25 41.5549 1463.46 42.1875ZM1468.24 49.1989C1467.71 49.1989 1467.23 49.0966 1466.8 48.892C1466.36 48.6837 1466.02 48.3845 1465.76 47.9943C1465.5 47.6004 1465.37 47.1231 1465.37 46.5625C1465.37 46.1307 1465.45 45.767 1465.62 45.4716C1465.78 45.1761 1466.01 44.9337 1466.31 44.7443C1466.61 44.5549 1466.96 44.4053 1467.37 44.2955C1467.78 44.1856 1468.23 44.1004 1468.72 44.0398C1469.21 43.9792 1469.63 43.9261 1469.96 43.8807C1470.3 43.8352 1470.56 43.7633 1470.74 43.6648C1470.92 43.5663 1471.01 43.4072 1471.01 43.1875V42.983C1471.01 42.3883 1470.83 41.9205 1470.47 41.5795C1470.12 41.2348 1469.61 41.0625 1468.95 41.0625C1468.32 41.0625 1467.81 41.2008 1467.41 41.4773C1467.02 41.7538 1466.74 42.0795 1466.58 42.4545L1465.62 42.108C1465.82 41.6307 1466.09 41.25 1466.44 40.9659C1466.79 40.678 1467.18 40.4716 1467.61 40.3466C1468.04 40.2178 1468.48 40.1534 1468.92 40.1534C1469.26 40.1534 1469.6 40.197 1469.96 40.2841C1470.33 40.3712 1470.66 40.5227 1470.97 40.7386C1471.29 40.9508 1471.54 41.2481 1471.73 41.6307C1471.92 42.0095 1472.02 42.4905 1472.02 43.0739V49H1471.01V47.6193H1470.95C1470.82 47.8769 1470.64 48.1269 1470.41 48.3693C1470.17 48.6117 1469.87 48.8106 1469.51 48.9659C1469.15 49.1212 1468.73 49.1989 1468.24 49.1989ZM1468.38 48.2727C1468.92 48.2727 1469.38 48.1534 1469.78 47.9148C1470.17 47.6761 1470.47 47.3598 1470.68 46.9659C1470.9 46.5682 1471.01 46.1307 1471.01 45.6534V44.392C1470.93 44.464 1470.81 44.5284 1470.63 44.5852C1470.45 44.642 1470.25 44.6932 1470.02 44.7386C1469.79 44.7803 1469.57 44.8163 1469.34 44.8466C1469.11 44.8769 1468.91 44.9034 1468.72 44.9261C1468.23 44.9867 1467.81 45.0814 1467.46 45.2102C1467.11 45.339 1466.85 45.517 1466.66 45.7443C1466.48 45.9678 1466.38 46.2557 1466.38 46.608C1466.38 47.1383 1466.57 47.5492 1466.95 47.8409C1467.33 48.1288 1467.81 48.2727 1468.38 48.2727ZM1475.1 52.2727C1474.9 52.2727 1474.71 52.2538 1474.54 52.2159C1474.37 52.178 1474.23 52.1364 1474.12 52.0909L1474.4 51.1989C1474.74 51.3049 1475.05 51.3428 1475.32 51.3125C1475.59 51.286 1475.83 51.1648 1476.03 50.9489C1476.24 50.7367 1476.43 50.411 1476.59 49.9716L1476.91 49.0852L1473.7 40.2727H1474.8L1477.39 47.6648H1477.47L1480.06 40.2727H1481.15L1477.46 50.3807C1477.3 50.8011 1477.11 51.1515 1476.89 51.4318C1476.66 51.7159 1476.4 51.9261 1476.1 52.0625C1475.8 52.2027 1475.47 52.2727 1475.1 52.2727ZM1488.64 43.5455V49H1487.63V40.2727H1488.62V41.642H1488.71C1488.91 41.1951 1489.23 40.8371 1489.66 40.5682C1490.1 40.2955 1490.63 40.1591 1491.27 40.1591C1491.86 40.1591 1492.38 40.2822 1492.82 40.5284C1493.27 40.7708 1493.61 41.1288 1493.86 41.6023C1494.11 42.0758 1494.23 42.6572 1494.23 43.3466V49H1493.22V43.4091C1493.22 42.6932 1493.02 42.1269 1492.62 41.7102C1492.22 41.2936 1491.69 41.0852 1491.02 41.0852C1490.56 41.0852 1490.15 41.1837 1489.8 41.3807C1489.44 41.5777 1489.16 41.8617 1488.95 42.233C1488.75 42.6004 1488.64 43.0379 1488.64 43.5455ZM1500.29 49.1818C1499.54 49.1818 1498.87 48.9905 1498.29 48.608C1497.71 48.2254 1497.26 47.697 1496.94 47.0227C1496.61 46.3447 1496.45 45.5625 1496.45 44.6761C1496.45 43.7822 1496.61 42.9962 1496.94 42.3182C1497.26 41.6364 1497.71 41.1061 1498.29 40.7273C1498.87 40.3447 1499.54 40.1534 1500.29 40.1534C1501.04 40.1534 1501.71 40.3447 1502.28 40.7273C1502.86 41.1098 1503.31 41.6402 1503.64 42.3182C1503.97 42.9962 1504.13 43.7822 1504.13 44.6761C1504.13 45.5625 1503.97 46.3447 1503.64 47.0227C1503.32 47.697 1502.86 48.2254 1502.28 48.608C1501.71 48.9905 1501.04 49.1818 1500.29 49.1818ZM1500.29 48.2557C1500.9 48.2557 1501.41 48.0928 1501.83 47.767C1502.25 47.4413 1502.57 47.0076 1502.78 46.4659C1503 45.9242 1503.11 45.3277 1503.11 44.6761C1503.11 44.0246 1503 43.4261 1502.78 42.8807C1502.57 42.3352 1502.25 41.8977 1501.83 41.5682C1501.41 41.2386 1500.9 41.0739 1500.29 41.0739C1499.69 41.0739 1499.17 41.2386 1498.75 41.5682C1498.33 41.8977 1498.01 42.3352 1497.79 42.8807C1497.57 43.4261 1497.47 44.0246 1497.47 44.6761C1497.47 45.3277 1497.57 45.9242 1497.79 46.4659C1498.01 47.0076 1498.33 47.4413 1498.75 47.767C1499.17 48.0928 1499.68 48.2557 1500.29 48.2557ZM1508.03 47.4091L1507.93 48.017C1507.87 48.4261 1507.78 48.8769 1507.66 49.3693C1507.54 49.8617 1507.42 50.3295 1507.29 50.7727C1507.17 51.2159 1507.06 51.572 1506.97 51.8409H1506.19C1506.24 51.5833 1506.3 51.2557 1506.38 50.858C1506.46 50.4602 1506.54 50.0189 1506.62 49.5341C1506.71 49.053 1506.78 48.5568 1506.85 48.0455L1506.93 47.4091H1508.03ZM1515.21 52.2727V40.2727H1516.19V41.9375H1516.31C1516.43 41.6761 1516.6 41.4091 1516.81 41.1364C1517.02 40.8598 1517.3 40.6269 1517.65 40.4375C1518.01 40.2481 1518.45 40.1534 1518.98 40.1534C1519.7 40.1534 1520.33 40.3428 1520.87 40.7216C1521.41 41.0966 1521.83 41.6231 1522.13 42.3011C1522.43 42.9754 1522.59 43.7614 1522.59 44.6591C1522.59 45.5606 1522.43 46.3504 1522.13 47.0284C1521.83 47.7064 1521.41 48.2348 1520.87 48.6136C1520.33 48.9924 1519.71 49.1818 1518.99 49.1818C1518.47 49.1818 1518.03 49.0871 1517.67 48.8977C1517.32 48.7083 1517.03 48.4754 1516.81 48.1989C1516.6 47.9186 1516.43 47.6458 1516.31 47.3807H1516.22V52.2727H1515.21ZM1516.21 44.642C1516.21 45.3466 1516.31 45.9716 1516.52 46.517C1516.73 47.0587 1517.04 47.4848 1517.43 47.7955C1517.83 48.1023 1518.31 48.2557 1518.88 48.2557C1519.45 48.2557 1519.94 48.0966 1520.34 47.7784C1520.74 47.4564 1521.05 47.0227 1521.26 46.4773C1521.47 45.9318 1521.57 45.3201 1521.57 44.642C1521.57 43.9716 1521.47 43.3674 1521.26 42.8295C1521.06 42.2917 1520.75 41.8655 1520.35 41.5511C1519.95 41.233 1519.46 41.0739 1518.88 41.0739C1518.31 41.0739 1517.82 41.2273 1517.43 41.5341C1517.03 41.8371 1516.73 42.2576 1516.52 42.7955C1516.31 43.3295 1516.21 43.9451 1516.21 44.642ZM1525.82 37.3636V49H1524.8V37.3636H1525.82ZM1532.02 49.1818C1531.21 49.1818 1530.5 48.9924 1529.91 48.6136C1529.31 48.2311 1528.85 47.7027 1528.53 47.0284C1528.2 46.3504 1528.04 45.5701 1528.04 44.6875C1528.04 43.8087 1528.2 43.0284 1528.53 42.3466C1528.85 41.661 1529.3 41.125 1529.87 40.7386C1530.45 40.3485 1531.11 40.1534 1531.87 40.1534C1532.34 40.1534 1532.8 40.2405 1533.24 40.4148C1533.68 40.5852 1534.07 40.8485 1534.42 41.2045C1534.77 41.5568 1535.05 42.0019 1535.25 42.5398C1535.46 43.0739 1535.56 43.7064 1535.56 44.4375V44.9375H1528.74V44.0455H1534.53C1534.53 43.4848 1534.41 42.9811 1534.18 42.5341C1533.96 42.0833 1533.65 41.7273 1533.25 41.4659C1532.85 41.2045 1532.39 41.0739 1531.87 41.0739C1531.31 41.0739 1530.83 41.2216 1530.41 41.517C1529.99 41.8125 1529.66 42.2027 1529.42 42.6875C1529.18 43.1723 1529.06 43.7027 1529.06 44.2784V44.8125C1529.06 45.5057 1529.18 46.1117 1529.42 46.6307C1529.66 47.1458 1530 47.5455 1530.45 47.8295C1530.89 48.1136 1531.41 48.2557 1532.02 48.2557C1532.43 48.2557 1532.79 48.1913 1533.11 48.0625C1533.42 47.9337 1533.68 47.7614 1533.89 47.5455C1534.11 47.3258 1534.27 47.0852 1534.38 46.8239L1535.34 47.1364C1535.21 47.5038 1534.99 47.8428 1534.69 48.1534C1534.39 48.464 1534.02 48.714 1533.57 48.9034C1533.12 49.089 1532.6 49.1818 1532.02 49.1818ZM1540.23 49.1989C1539.7 49.1989 1539.22 49.0966 1538.78 48.892C1538.35 48.6837 1538 48.3845 1537.74 47.9943C1537.49 47.6004 1537.36 47.1231 1537.36 46.5625C1537.36 46.1307 1537.44 45.767 1537.6 45.4716C1537.76 45.1761 1537.99 44.9337 1538.29 44.7443C1538.59 44.5549 1538.95 44.4053 1539.36 44.2955C1539.77 44.1856 1540.22 44.1004 1540.71 44.0398C1541.2 43.9792 1541.61 43.9261 1541.95 43.8807C1542.29 43.8352 1542.55 43.7633 1542.73 43.6648C1542.9 43.5663 1542.99 43.4072 1542.99 43.1875V42.983C1542.99 42.3883 1542.81 41.9205 1542.46 41.5795C1542.11 41.2348 1541.6 41.0625 1540.94 41.0625C1540.31 41.0625 1539.79 41.2008 1539.4 41.4773C1539 41.7538 1538.73 42.0795 1538.57 42.4545L1537.61 42.108C1537.8 41.6307 1538.08 41.25 1538.42 40.9659C1538.77 40.678 1539.16 40.4716 1539.6 40.3466C1540.03 40.2178 1540.46 40.1534 1540.91 40.1534C1541.24 40.1534 1541.59 40.197 1541.95 40.2841C1542.31 40.3712 1542.65 40.5227 1542.96 40.7386C1543.27 40.9508 1543.52 41.2481 1543.71 41.6307C1543.91 42.0095 1544 42.4905 1544 43.0739V49H1542.99V47.6193H1542.93C1542.81 47.8769 1542.63 48.1269 1542.39 48.3693C1542.15 48.6117 1541.85 48.8106 1541.49 48.9659C1541.13 49.1212 1540.71 49.1989 1540.23 49.1989ZM1540.36 48.2727C1540.9 48.2727 1541.37 48.1534 1541.76 47.9148C1542.15 47.6761 1542.46 47.3598 1542.67 46.9659C1542.88 46.5682 1542.99 46.1307 1542.99 45.6534V44.392C1542.92 44.464 1542.79 44.5284 1542.61 44.5852C1542.44 44.642 1542.24 44.6932 1542 44.7386C1541.78 44.7803 1541.55 44.8163 1541.32 44.8466C1541.1 44.8769 1540.89 44.9034 1540.71 44.9261C1540.22 44.9867 1539.8 45.0814 1539.45 45.2102C1539.1 45.339 1538.83 45.517 1538.65 45.7443C1538.46 45.9678 1538.37 46.2557 1538.37 46.608C1538.37 47.1383 1538.56 47.5492 1538.94 47.8409C1539.31 48.1288 1539.79 48.2727 1540.36 48.2727ZM1552.56 42.1875L1551.63 42.4489C1551.54 42.1875 1551.41 41.9508 1551.25 41.7386C1551.08 41.5265 1550.86 41.358 1550.59 41.233C1550.33 41.108 1550 41.0455 1549.6 41.0455C1549.01 41.0455 1548.53 41.1856 1548.15 41.4659C1547.77 41.7462 1547.58 42.108 1547.58 42.5511C1547.58 42.9261 1547.71 43.2311 1547.97 43.4659C1548.23 43.697 1548.63 43.8807 1549.17 44.017L1550.49 44.3409C1551.22 44.5189 1551.77 44.8011 1552.13 45.1875C1552.5 45.5739 1552.68 46.0587 1552.68 46.642C1552.68 47.1345 1552.55 47.572 1552.27 47.9545C1552 48.3371 1551.62 48.6383 1551.13 48.858C1550.65 49.0739 1550.08 49.1818 1549.44 49.1818C1548.59 49.1818 1547.89 48.9905 1547.34 48.608C1546.78 48.2216 1546.43 47.6648 1546.27 46.9375L1547.25 46.6989C1547.37 47.2178 1547.62 47.6098 1547.98 47.875C1548.35 48.1402 1548.83 48.2727 1549.43 48.2727C1550.1 48.2727 1550.63 48.1231 1551.04 47.8239C1551.44 47.5208 1551.64 47.142 1551.64 46.6875C1551.64 46.3352 1551.52 46.0398 1551.29 45.8011C1551.05 45.5587 1550.69 45.3807 1550.22 45.267L1548.79 44.9261C1548.03 44.7443 1547.47 44.4564 1547.11 44.0625C1546.75 43.6686 1546.56 43.1799 1546.56 42.5966C1546.56 42.1155 1546.69 41.6932 1546.96 41.3295C1547.22 40.9621 1547.58 40.6742 1548.04 40.4659C1548.49 40.2576 1549.02 40.1534 1549.6 40.1534C1550.4 40.1534 1551.04 40.3352 1551.52 40.6989C1552 41.0587 1552.35 41.5549 1552.56 42.1875ZM1558.43 49.1818C1557.61 49.1818 1556.91 48.9924 1556.31 48.6136C1555.72 48.2311 1555.26 47.7027 1554.93 47.0284C1554.61 46.3504 1554.45 45.5701 1554.45 44.6875C1554.45 43.8087 1554.61 43.0284 1554.93 42.3466C1555.26 41.661 1555.71 41.125 1556.28 40.7386C1556.85 40.3485 1557.52 40.1534 1558.27 40.1534C1558.75 40.1534 1559.2 40.2405 1559.64 40.4148C1560.08 40.5852 1560.48 40.8485 1560.82 41.2045C1561.18 41.5568 1561.45 42.0019 1561.66 42.5398C1561.86 43.0739 1561.97 43.7064 1561.97 44.4375V44.9375H1555.15V44.0455H1560.93C1560.93 43.4848 1560.82 42.9811 1560.59 42.5341C1560.37 42.0833 1560.05 41.7273 1559.65 41.4659C1559.26 41.2045 1558.8 41.0739 1558.27 41.0739C1557.72 41.0739 1557.23 41.2216 1556.81 41.517C1556.39 41.8125 1556.06 42.2027 1555.82 42.6875C1555.59 43.1723 1555.47 43.7027 1555.47 44.2784V44.8125C1555.47 45.5057 1555.59 46.1117 1555.82 46.6307C1556.07 47.1458 1556.41 47.5455 1556.85 47.8295C1557.3 48.1136 1557.82 48.2557 1558.43 48.2557C1558.84 48.2557 1559.2 48.1913 1559.51 48.0625C1559.83 47.9337 1560.09 47.7614 1560.3 47.5455C1560.52 47.3258 1560.68 47.0852 1560.79 46.8239L1561.75 47.1364C1561.62 47.5038 1561.4 47.8428 1561.1 48.1534C1560.8 48.464 1560.42 48.714 1559.97 48.9034C1559.52 49.089 1559.01 49.1818 1558.43 49.1818ZM1572.02 52.4545C1571.43 52.4545 1570.91 52.3769 1570.46 52.2216C1570.01 52.0701 1569.64 51.8617 1569.33 51.5966C1569.02 51.3314 1568.79 51.0341 1568.62 50.7045L1569.44 50.1591C1569.57 50.3788 1569.74 50.5947 1569.94 50.8068C1570.16 51.0189 1570.43 51.1951 1570.77 51.3352C1571.11 51.4754 1571.53 51.5455 1572.02 51.5455C1572.8 51.5455 1573.42 51.3523 1573.89 50.9659C1574.37 50.5795 1574.61 49.9792 1574.61 49.1648V47.1989H1574.52C1574.4 47.464 1574.23 47.7292 1574.01 47.9943C1573.79 48.2557 1573.51 48.4735 1573.15 48.6477C1572.8 48.822 1572.36 48.9091 1571.84 48.9091C1571.14 48.9091 1570.52 48.7367 1569.98 48.392C1569.44 48.0473 1569.02 47.5549 1568.71 46.9148C1568.4 46.2708 1568.25 45.5038 1568.25 44.6136C1568.25 43.7311 1568.4 42.9545 1568.69 42.2841C1569 41.6136 1569.42 41.0909 1569.96 40.7159C1570.5 40.3409 1571.13 40.1534 1571.85 40.1534C1572.39 40.1534 1572.83 40.2481 1573.18 40.4375C1573.54 40.6231 1573.82 40.8542 1574.03 41.1307C1574.25 41.4072 1574.41 41.6761 1574.54 41.9375H1574.64V40.2727H1575.63V49.2273C1575.63 49.9659 1575.47 50.5739 1575.15 51.0511C1574.84 51.5284 1574.41 51.8807 1573.87 52.108C1573.33 52.339 1572.71 52.4545 1572.02 52.4545ZM1571.96 47.983C1572.52 47.983 1573 47.8485 1573.39 47.5795C1573.79 47.3068 1574.1 46.9167 1574.31 46.4091C1574.52 45.9015 1574.63 45.2973 1574.63 44.5966C1574.63 43.9148 1574.52 43.3106 1574.31 42.7841C1574.11 42.2538 1573.8 41.8371 1573.4 41.5341C1573.01 41.2273 1572.53 41.0739 1571.96 41.0739C1571.37 41.0739 1570.88 41.2311 1570.48 41.5455C1570.08 41.8598 1569.77 42.2841 1569.57 42.8182C1569.37 43.3485 1569.26 43.9413 1569.26 44.5966C1569.26 45.2633 1569.37 45.8523 1569.58 46.3636C1569.78 46.8712 1570.09 47.2689 1570.49 47.5568C1570.89 47.8409 1571.38 47.983 1571.96 47.983ZM1578.32 49V40.2727H1579.33V49H1578.32ZM1578.83 38.7727C1578.62 38.7727 1578.45 38.7027 1578.3 38.5625C1578.15 38.4186 1578.08 38.2462 1578.08 38.0455C1578.08 37.8447 1578.15 37.6742 1578.3 37.5341C1578.45 37.3902 1578.62 37.3182 1578.83 37.3182C1579.04 37.3182 1579.22 37.3902 1579.37 37.5341C1579.51 37.6742 1579.59 37.8447 1579.59 38.0455C1579.59 38.2462 1579.51 38.4186 1579.37 38.5625C1579.22 38.7027 1579.04 38.7727 1578.83 38.7727ZM1588.76 40.2727L1585.58 49H1584.5L1581.31 40.2727H1582.4L1585 47.6648H1585.08L1587.67 40.2727H1588.76ZM1593.96 49.1818C1593.14 49.1818 1592.44 48.9924 1591.84 48.6136C1591.25 48.2311 1590.79 47.7027 1590.46 47.0284C1590.14 46.3504 1589.98 45.5701 1589.98 44.6875C1589.98 43.8087 1590.14 43.0284 1590.46 42.3466C1590.79 41.661 1591.24 41.125 1591.81 40.7386C1592.39 40.3485 1593.05 40.1534 1593.8 40.1534C1594.28 40.1534 1594.73 40.2405 1595.17 40.4148C1595.61 40.5852 1596.01 40.8485 1596.36 41.2045C1596.71 41.5568 1596.99 42.0019 1597.19 42.5398C1597.39 43.0739 1597.5 43.7064 1597.5 44.4375V44.9375H1590.68V44.0455H1596.46C1596.46 43.4848 1596.35 42.9811 1596.12 42.5341C1595.9 42.0833 1595.59 41.7273 1595.18 41.4659C1594.79 41.2045 1594.33 41.0739 1593.8 41.0739C1593.25 41.0739 1592.76 41.2216 1592.34 41.517C1591.92 41.8125 1591.59 42.2027 1591.36 42.6875C1591.12 43.1723 1591 43.7027 1591 44.2784V44.8125C1591 45.5057 1591.12 46.1117 1591.36 46.6307C1591.6 47.1458 1591.94 47.5455 1592.38 47.8295C1592.83 48.1136 1593.35 48.2557 1593.96 48.2557C1594.37 48.2557 1594.73 48.1913 1595.04 48.0625C1595.36 47.9337 1595.62 47.7614 1595.83 47.5455C1596.05 47.3258 1596.21 47.0852 1596.32 46.8239L1597.28 47.1364C1597.15 47.5038 1596.93 47.8428 1596.63 48.1534C1596.33 48.464 1595.95 48.714 1595.5 48.9034C1595.06 49.089 1594.54 49.1818 1593.96 49.1818ZM1610.09 42.1875L1609.16 42.4489C1609.07 42.1875 1608.94 41.9508 1608.78 41.7386C1608.61 41.5265 1608.39 41.358 1608.12 41.233C1607.86 41.108 1607.53 41.0455 1607.13 41.0455C1606.54 41.0455 1606.06 41.1856 1605.68 41.4659C1605.3 41.7462 1605.11 42.108 1605.11 42.5511C1605.11 42.9261 1605.24 43.2311 1605.5 43.4659C1605.76 43.697 1606.16 43.8807 1606.7 44.017L1608.02 44.3409C1608.75 44.5189 1609.3 44.8011 1609.66 45.1875C1610.03 45.5739 1610.21 46.0587 1610.21 46.642C1610.21 47.1345 1610.08 47.572 1609.81 47.9545C1609.53 48.3371 1609.15 48.6383 1608.66 48.858C1608.18 49.0739 1607.62 49.1818 1606.98 49.1818C1606.12 49.1818 1605.42 48.9905 1604.87 48.608C1604.31 48.2216 1603.96 47.6648 1603.81 46.9375L1604.78 46.6989C1604.9 47.2178 1605.15 47.6098 1605.51 47.875C1605.88 48.1402 1606.36 48.2727 1606.96 48.2727C1607.63 48.2727 1608.17 48.1231 1608.57 47.8239C1608.97 47.5208 1609.17 47.142 1609.17 46.6875C1609.17 46.3352 1609.05 46.0398 1608.82 45.8011C1608.58 45.5587 1608.23 45.3807 1607.75 45.267L1606.32 44.9261C1605.56 44.7443 1605 44.4564 1604.64 44.0625C1604.28 43.6686 1604.1 43.1799 1604.1 42.5966C1604.1 42.1155 1604.23 41.6932 1604.49 41.3295C1604.75 40.9621 1605.11 40.6742 1605.57 40.4659C1606.03 40.2576 1606.55 40.1534 1607.13 40.1534C1607.93 40.1534 1608.57 40.3352 1609.05 40.6989C1609.53 41.0587 1609.88 41.5549 1610.09 42.1875ZM1615.82 49.1818C1615.07 49.1818 1614.4 48.9905 1613.82 48.608C1613.25 48.2254 1612.79 47.697 1612.47 47.0227C1612.14 46.3447 1611.98 45.5625 1611.98 44.6761C1611.98 43.7822 1612.14 42.9962 1612.47 42.3182C1612.79 41.6364 1613.25 41.1061 1613.82 40.7273C1614.4 40.3447 1615.07 40.1534 1615.82 40.1534C1616.57 40.1534 1617.24 40.3447 1617.82 40.7273C1618.39 41.1098 1618.84 41.6402 1619.17 42.3182C1619.5 42.9962 1619.66 43.7822 1619.66 44.6761C1619.66 45.5625 1619.5 46.3447 1619.17 47.0227C1618.85 47.697 1618.39 48.2254 1617.82 48.608C1617.24 48.9905 1616.57 49.1818 1615.82 49.1818ZM1615.82 48.2557C1616.43 48.2557 1616.94 48.0928 1617.36 47.767C1617.78 47.4413 1618.1 47.0076 1618.32 46.4659C1618.54 45.9242 1618.64 45.3277 1618.64 44.6761C1618.64 44.0246 1618.54 43.4261 1618.32 42.8807C1618.1 42.3352 1617.78 41.8977 1617.36 41.5682C1616.94 41.2386 1616.43 41.0739 1615.82 41.0739C1615.22 41.0739 1614.71 41.2386 1614.28 41.5682C1613.86 41.8977 1613.54 42.3352 1613.32 42.8807C1613.11 43.4261 1613 44.0246 1613 44.6761C1613 45.3277 1613.11 45.9242 1613.32 46.4659C1613.54 47.0076 1613.86 47.4413 1614.28 47.767C1614.7 48.0928 1615.21 48.2557 1615.82 48.2557ZM1622.89 37.3636V49H1621.88V37.3636H1622.89ZM1631.12 45.6648V40.2727H1632.13V49H1631.12V47.5511H1631.04C1630.83 47.9981 1630.51 48.3712 1630.06 48.6705C1629.62 48.9659 1629.08 49.1136 1628.44 49.1136C1627.88 49.1136 1627.39 48.9924 1626.96 48.75C1626.52 48.5038 1626.19 48.1439 1625.94 47.6705C1625.69 47.197 1625.57 46.6155 1625.57 45.9261V40.2727H1626.58V45.8636C1626.58 46.5455 1626.78 47.0947 1627.18 47.5114C1627.58 47.9242 1628.1 48.1307 1628.73 48.1307C1629.12 48.1307 1629.5 48.036 1629.87 47.8466C1630.23 47.6572 1630.53 47.3807 1630.76 47.017C1631 46.6496 1631.12 46.1989 1631.12 45.6648ZM1638.24 40.2727V41.1534H1634.08V40.2727H1638.24ZM1635.38 38.1818H1636.39V46.7216C1636.39 47.0852 1636.46 47.3712 1636.58 47.5795C1636.71 47.7841 1636.87 47.9299 1637.07 48.017C1637.27 48.1004 1637.49 48.142 1637.71 48.142C1637.85 48.142 1637.96 48.1345 1638.05 48.1193C1638.15 48.1004 1638.23 48.0814 1638.3 48.0625L1638.52 48.9773C1638.42 49.0152 1638.3 49.0492 1638.16 49.0795C1638.01 49.1136 1637.83 49.1307 1637.62 49.1307C1637.25 49.1307 1636.89 49.0492 1636.55 48.8864C1636.21 48.7235 1635.93 48.4811 1635.71 48.1591C1635.49 47.8371 1635.38 47.4375 1635.38 46.9602V38.1818ZM1640.55 49V40.2727H1641.57V49H1640.55ZM1641.07 38.7727C1640.86 38.7727 1640.68 38.7027 1640.53 38.5625C1640.38 38.4186 1640.31 38.2462 1640.31 38.0455C1640.31 37.8447 1640.38 37.6742 1640.53 37.5341C1640.68 37.3902 1640.86 37.3182 1641.07 37.3182C1641.28 37.3182 1641.45 37.3902 1641.6 37.5341C1641.75 37.6742 1641.82 37.8447 1641.82 38.0455C1641.82 38.2462 1641.75 38.4186 1641.6 38.5625C1641.45 38.7027 1641.28 38.7727 1641.07 38.7727ZM1647.63 49.1818C1646.88 49.1818 1646.21 48.9905 1645.63 48.608C1645.06 48.2254 1644.61 47.697 1644.28 47.0227C1643.96 46.3447 1643.79 45.5625 1643.79 44.6761C1643.79 43.7822 1643.96 42.9962 1644.28 42.3182C1644.61 41.6364 1645.06 41.1061 1645.63 40.7273C1646.21 40.3447 1646.88 40.1534 1647.63 40.1534C1648.39 40.1534 1649.05 40.3447 1649.63 40.7273C1650.2 41.1098 1650.65 41.6402 1650.98 42.3182C1651.31 42.9962 1651.47 43.7822 1651.47 44.6761C1651.47 45.5625 1651.31 46.3447 1650.99 47.0227C1650.66 47.697 1650.21 48.2254 1649.63 48.608C1649.05 48.9905 1648.39 49.1818 1647.63 49.1818ZM1647.63 48.2557C1648.24 48.2557 1648.75 48.0928 1649.17 47.767C1649.59 47.4413 1649.91 47.0076 1650.13 46.4659C1650.35 45.9242 1650.46 45.3277 1650.46 44.6761C1650.46 44.0246 1650.35 43.4261 1650.13 42.8807C1649.91 42.3352 1649.59 41.8977 1649.17 41.5682C1648.75 41.2386 1648.24 41.0739 1647.63 41.0739C1647.03 41.0739 1646.52 41.2386 1646.09 41.5682C1645.67 41.8977 1645.35 42.3352 1645.13 42.8807C1644.92 43.4261 1644.81 44.0246 1644.81 44.6761C1644.81 45.3277 1644.92 45.9242 1645.13 46.4659C1645.35 47.0076 1645.67 47.4413 1646.09 47.767C1646.51 48.0928 1647.03 48.2557 1647.63 48.2557ZM1654.71 43.5455V49H1653.69V40.2727H1654.68V41.642H1654.77C1654.97 41.1951 1655.29 40.8371 1655.72 40.5682C1656.16 40.2955 1656.7 40.1591 1657.34 40.1591C1657.92 40.1591 1658.44 40.2822 1658.88 40.5284C1659.33 40.7708 1659.68 41.1288 1659.92 41.6023C1660.17 42.0758 1660.3 42.6572 1660.3 43.3466V49H1659.29V43.4091C1659.29 42.6932 1659.08 42.1269 1658.68 41.7102C1658.29 41.2936 1657.75 41.0852 1657.08 41.0852C1656.62 41.0852 1656.22 41.1837 1655.86 41.3807C1655.5 41.5777 1655.22 41.8617 1655.01 42.233C1654.81 42.6004 1654.71 43.0379 1654.71 43.5455Z" fill="white"/>
<path d="M1326.67 35C1326.67 37.9455 1329.05 40.3333 1332 40.3333C1334.95 40.3333 1337.33 37.9455 1337.33 35C1337.33 32.0545 1334.95 29.6667 1332 29.6667C1329.05 29.6667 1326.67 32.0545 1326.67 35ZM1309 36H1332V34H1309V36Z" fill="url(#paint1_linear_158_1005)"/>
<circle cx="1277" cy="35" r="35" fill="url(#paint2_linear_158_1005)"/>
<circle cx="1277" cy="35" r="27" fill="white"/>
<path d="M1267.15 44.36C1265.14 44.36 1263.39 43.976 1261.92 43.208C1260.47 42.424 1259.34 41.328 1258.54 39.92C1257.74 38.512 1257.34 36.872 1257.34 35C1257.34 33.128 1257.74 31.488 1258.54 30.08C1259.34 28.672 1260.47 27.584 1261.92 26.816C1263.39 26.032 1265.14 25.64 1267.15 25.64C1269.15 25.64 1270.88 26.032 1272.34 26.816C1273.81 27.584 1274.95 28.672 1275.75 30.08C1276.55 31.488 1276.95 33.128 1276.95 35C1276.95 36.872 1276.55 38.512 1275.75 39.92C1274.95 41.328 1273.81 42.424 1272.34 43.208C1270.88 43.976 1269.15 44.36 1267.15 44.36ZM1267.15 41.048C1268.96 41.048 1270.36 40.52 1271.35 39.464C1272.36 38.392 1272.87 36.904 1272.87 35C1272.87 33.08 1272.36 31.592 1271.35 30.536C1270.36 29.48 1268.96 28.952 1267.15 28.952C1265.35 28.952 1263.94 29.48 1262.93 30.536C1261.92 31.592 1261.42 33.08 1261.42 35C1261.42 36.92 1261.92 38.408 1262.93 39.464C1263.94 40.52 1265.35 41.048 1267.15 41.048ZM1279.3 31.688C1279.4 30.552 1279.8 29.528 1280.5 28.616C1281.22 27.704 1282.24 26.984 1283.55 26.456C1284.86 25.912 1286.44 25.64 1288.28 25.64C1289.89 25.64 1291.29 25.848 1292.48 26.264C1293.66 26.68 1294.58 27.256 1295.24 27.992C1295.89 28.728 1296.22 29.6 1296.22 30.608C1296.22 31.424 1295.97 32.168 1295.48 32.84C1295 33.496 1294.25 34.024 1293.22 34.424C1292.2 34.808 1290.9 34.992 1289.33 34.976V34.52C1290.85 34.44 1292.15 34.56 1293.22 34.88C1294.31 35.184 1295.15 35.664 1295.74 36.32C1296.33 36.976 1296.63 37.8 1296.63 38.792C1296.63 39.864 1296.29 40.824 1295.6 41.672C1294.93 42.504 1293.94 43.16 1292.65 43.64C1291.35 44.12 1289.77 44.36 1287.92 44.36C1286.11 44.36 1284.53 44.104 1283.19 43.592C1281.85 43.08 1280.8 42.36 1280.05 41.432C1279.29 40.504 1278.89 39.416 1278.82 38.168H1282.9C1283.03 39.128 1283.51 39.864 1284.34 40.376C1285.17 40.888 1286.37 41.144 1287.92 41.144C1289.42 41.144 1290.56 40.912 1291.33 40.448C1292.09 39.984 1292.48 39.336 1292.48 38.504C1292.48 38.008 1292.35 37.592 1292.09 37.256C1291.84 36.92 1291.4 36.672 1290.77 36.512C1290.17 36.336 1289.33 36.248 1288.28 36.248H1285.11V33.392H1288.28C1289.65 33.392 1290.64 33.184 1291.23 32.768C1291.82 32.352 1292.12 31.816 1292.12 31.16C1292.12 30.424 1291.78 29.856 1291.11 29.456C1290.44 29.056 1289.42 28.856 1288.06 28.856C1286.67 28.856 1285.58 29.104 1284.8 29.6C1284.01 30.08 1283.54 30.776 1283.38 31.688H1279.3Z" fill="#000C74"/>
<defs>
<linearGradient id="paint0_linear_158_1005" x1="1332" y1="34.5" x2="1743" y2="34.5" gradientUnits="userSpaceOnUse">
<stop stop-color="#00A93C"/>
<stop offset="1" stop-color="#24CBFF"/>
</linearGradient>
<linearGradient id="paint1_linear_158_1005" x1="1309" y1="35.5" x2="1332" y2="35.5" gradientUnits="userSpaceOnUse">
<stop stop-color="#00A93C"/>
<stop offset="1" stop-color="#24CBFF"/>
</linearGradient>
<linearGradient id="paint2_linear_158_1005" x1="1242" y1="35" x2="1312" y2="35" gradientUnits="userSpaceOnUse">
<stop stop-color="#00A93C"/>
<stop offset="1" stop-color="#000C74"/>
</linearGradient>
</defs>
</svg>
