<svg width="100%" viewBox="0 0 1920 70" fill="none" xmlns="http://www.w3.org/2000/svg">
<rect x="1220.5" y="5.5" width="486" height="58" rx="19.5" stroke="url(#paint0_linear_158_1029)"/>
<path d="M1264.61 40V28.3636H1272.18V30.1307H1266.72V33.2898H1271.78V35.0568H1266.72V38.233H1272.22V40H1264.61ZM1274.33 40V28.3636H1281.78V30.1307H1276.44V33.2898H1281.27V35.0568H1276.44V40H1274.33ZM1283.7 40V28.3636H1291.16V30.1307H1285.81V33.2898H1290.65V35.0568H1285.81V40H1283.7ZM1295.19 28.3636V40H1293.08V28.3636H1295.19ZM1307.43 32.2898H1305.3C1305.24 31.9413 1305.13 31.6326 1304.97 31.3636C1304.81 31.0909 1304.6 30.8598 1304.36 30.6705C1304.12 30.4811 1303.84 30.339 1303.53 30.2443C1303.22 30.1458 1302.89 30.0966 1302.54 30.0966C1301.9 30.0966 1301.34 30.2557 1300.85 30.5739C1300.37 30.8883 1299.98 31.3504 1299.71 31.9602C1299.43 32.5663 1299.29 33.3068 1299.29 34.1818C1299.29 35.072 1299.43 35.822 1299.71 36.4318C1299.99 37.0379 1300.37 37.4962 1300.85 37.8068C1301.34 38.1136 1301.9 38.267 1302.53 38.267C1302.88 38.267 1303.2 38.2216 1303.51 38.1307C1303.81 38.036 1304.09 37.8977 1304.33 37.7159C1304.58 37.5341 1304.78 37.3106 1304.95 37.0455C1305.12 36.7803 1305.24 36.4773 1305.3 36.1364L1307.43 36.1477C1307.35 36.7008 1307.18 37.2197 1306.91 37.7045C1306.65 38.1894 1306.31 38.6174 1305.88 38.9886C1305.46 39.3561 1304.96 39.6439 1304.39 39.8523C1303.83 40.0568 1303.2 40.1591 1302.5 40.1591C1301.48 40.1591 1300.57 39.9223 1299.76 39.4489C1298.96 38.9754 1298.33 38.2917 1297.87 37.3977C1297.4 36.5038 1297.17 35.4318 1297.17 34.1818C1297.17 32.928 1297.41 31.8561 1297.87 30.9659C1298.34 30.072 1298.97 29.3883 1299.77 28.9148C1300.58 28.4413 1301.49 28.2045 1302.5 28.2045C1303.15 28.2045 1303.75 28.2955 1304.31 28.4773C1304.87 28.6591 1305.36 28.9261 1305.8 29.2784C1306.23 29.6269 1306.59 30.0549 1306.87 30.5625C1307.16 31.0663 1307.34 31.642 1307.43 32.2898ZM1311.47 28.3636V40H1309.36V28.3636H1311.47ZM1313.75 40V28.3636H1321.32V30.1307H1315.86V33.2898H1320.93V35.0568H1315.86V38.233H1321.36V40H1313.75ZM1333.03 28.3636V40H1331.16L1325.67 32.0739H1325.58V40H1323.47V28.3636H1325.35L1330.83 36.2955H1330.93V28.3636H1333.03ZM1345.29 32.2898H1343.16C1343.1 31.9413 1342.99 31.6326 1342.83 31.3636C1342.66 31.0909 1342.46 30.8598 1342.22 30.6705C1341.98 30.4811 1341.7 30.339 1341.39 30.2443C1341.08 30.1458 1340.75 30.0966 1340.4 30.0966C1339.76 30.0966 1339.2 30.2557 1338.71 30.5739C1338.23 30.8883 1337.84 31.3504 1337.57 31.9602C1337.29 32.5663 1337.15 33.3068 1337.15 34.1818C1337.15 35.072 1337.29 35.822 1337.57 36.4318C1337.85 37.0379 1338.23 37.4962 1338.71 37.8068C1339.2 38.1136 1339.76 38.267 1340.39 38.267C1340.74 38.267 1341.06 38.2216 1341.37 38.1307C1341.67 38.036 1341.95 37.8977 1342.19 37.7159C1342.44 37.5341 1342.64 37.3106 1342.81 37.0455C1342.98 36.7803 1343.1 36.4773 1343.16 36.1364L1345.29 36.1477C1345.21 36.7008 1345.04 37.2197 1344.77 37.7045C1344.51 38.1894 1344.17 38.6174 1343.74 38.9886C1343.32 39.3561 1342.82 39.6439 1342.25 39.8523C1341.69 40.0568 1341.05 40.1591 1340.36 40.1591C1339.34 40.1591 1338.43 39.9223 1337.62 39.4489C1336.82 38.9754 1336.19 38.2917 1335.73 37.3977C1335.26 36.5038 1335.03 35.4318 1335.03 34.1818C1335.03 32.928 1335.26 31.8561 1335.73 30.9659C1336.2 30.072 1336.83 29.3883 1337.63 28.9148C1338.44 28.4413 1339.35 28.2045 1340.36 28.2045C1341.01 28.2045 1341.61 28.2955 1342.17 28.4773C1342.73 28.6591 1343.22 28.9261 1343.66 29.2784C1344.09 29.6269 1344.45 30.0549 1344.73 30.5625C1345.01 31.0663 1345.2 31.642 1345.29 32.2898ZM1346.42 28.3636H1348.8L1351.65 33.5114H1351.76L1354.61 28.3636H1356.99L1352.76 35.6591V40H1350.66V35.6591L1346.42 28.3636ZM1366.4 40H1362.45V28.3636H1366.48C1367.63 28.3636 1368.62 28.5966 1369.45 29.0625C1370.29 29.5246 1370.93 30.1894 1371.37 31.0568C1371.82 31.9242 1372.04 32.9621 1372.04 34.1705C1372.04 35.3826 1371.82 36.4242 1371.37 37.2955C1370.92 38.1667 1370.27 38.8352 1369.43 39.3011C1368.59 39.767 1367.58 40 1366.4 40ZM1364.56 38.1761H1366.29C1367.1 38.1761 1367.78 38.0284 1368.32 37.733C1368.86 37.4337 1369.27 36.9886 1369.54 36.3977C1369.82 35.803 1369.95 35.0606 1369.95 34.1705C1369.95 33.2803 1369.82 32.5417 1369.54 31.9545C1369.27 31.3636 1368.87 30.9223 1368.33 30.6307C1367.8 30.3352 1367.14 30.1875 1366.36 30.1875H1364.56V38.1761ZM1374.05 40V28.3636H1378.41C1379.3 28.3636 1380.05 28.5189 1380.66 28.8295C1381.27 29.1402 1381.73 29.5758 1382.04 30.1364C1382.35 30.6932 1382.51 31.3428 1382.51 32.0852C1382.51 32.8314 1382.35 33.4792 1382.03 34.0284C1381.72 34.5739 1381.26 34.9962 1380.64 35.2955C1380.03 35.5909 1379.28 35.7386 1378.38 35.7386H1375.27V33.9886H1378.1C1378.62 33.9886 1379.05 33.9167 1379.38 33.7727C1379.71 33.625 1379.96 33.411 1380.12 33.1307C1380.28 32.8466 1380.36 32.4981 1380.36 32.0852C1380.36 31.6723 1380.28 31.3201 1380.12 31.0284C1379.96 30.733 1379.71 30.5095 1379.38 30.358C1379.04 30.2027 1378.61 30.125 1378.09 30.125H1376.15V40H1374.05ZM1380.06 34.7273L1382.94 40H1380.59L1377.76 34.7273H1380.06ZM1386.56 28.3636V40H1384.45V28.3636H1386.56ZM1390.4 28.3636L1393.43 37.5227H1393.55L1396.57 28.3636H1398.89L1394.79 40H1392.18L1388.09 28.3636H1390.4ZM1400.42 40V28.3636H1407.99V30.1307H1402.53V33.2898H1407.6V35.0568H1402.53V38.233H1408.03V40H1400.42ZM1419.27 33.7045V34.6591H1414.43V33.7045H1419.27ZM1426.52 40V28.3636H1427.58V39.0455H1433.13V40H1426.52ZM1438.84 40.1818C1438.03 40.1818 1437.32 39.9924 1436.73 39.6136C1436.13 39.2311 1435.67 38.7027 1435.35 38.0284C1435.02 37.3504 1434.86 36.5701 1434.86 35.6875C1434.86 34.8087 1435.02 34.0284 1435.35 33.3466C1435.67 32.661 1436.12 32.125 1436.69 31.7386C1437.27 31.3485 1437.93 31.1534 1438.69 31.1534C1439.16 31.1534 1439.62 31.2405 1440.06 31.4148C1440.5 31.5852 1440.89 31.8485 1441.24 32.2045C1441.59 32.5568 1441.87 33.0019 1442.07 33.5398C1442.28 34.0739 1442.38 34.7064 1442.38 35.4375V35.9375H1435.56V35.0455H1441.35C1441.35 34.4848 1441.23 33.9811 1441 33.5341C1440.78 33.0833 1440.47 32.7273 1440.07 32.4659C1439.67 32.2045 1439.21 32.0739 1438.69 32.0739C1438.13 32.0739 1437.65 32.2216 1437.23 32.517C1436.81 32.8125 1436.48 33.2027 1436.24 33.6875C1436 34.1723 1435.88 34.7027 1435.88 35.2784V35.8125C1435.88 36.5057 1436 37.1117 1436.24 37.6307C1436.48 38.1458 1436.82 38.5455 1437.27 38.8295C1437.71 39.1136 1438.23 39.2557 1438.84 39.2557C1439.25 39.2557 1439.61 39.1913 1439.93 39.0625C1440.24 38.9337 1440.5 38.7614 1440.72 38.5455C1440.93 38.3258 1441.09 38.0852 1441.2 37.8239L1442.16 38.1364C1442.03 38.5038 1441.81 38.8428 1441.51 39.1534C1441.21 39.464 1440.84 39.714 1440.39 39.9034C1439.94 40.089 1439.42 40.1818 1438.84 40.1818ZM1448.05 31.2727V32.1534H1443.88V31.2727H1448.05ZM1445.18 29.1818H1446.2V37.7216C1446.2 38.0852 1446.26 38.3712 1446.39 38.5795C1446.51 38.7841 1446.67 38.9299 1446.88 39.017C1447.08 39.1004 1447.29 39.142 1447.52 39.142C1447.65 39.142 1447.76 39.1345 1447.86 39.1193C1447.95 39.1004 1448.04 39.0814 1448.11 39.0625L1448.32 39.9773C1448.23 40.0152 1448.1 40.0492 1447.96 40.0795C1447.82 40.1136 1447.64 40.1307 1447.43 40.1307C1447.06 40.1307 1446.7 40.0492 1446.35 39.8864C1446.01 39.7235 1445.73 39.4811 1445.51 39.1591C1445.29 38.8371 1445.18 38.4375 1445.18 37.9602V29.1818ZM1451.21 28.3636V32.2443H1450.25V28.3636H1451.21ZM1459.66 33.1875L1458.73 33.4489C1458.64 33.1875 1458.51 32.9508 1458.35 32.7386C1458.18 32.5265 1457.96 32.358 1457.69 32.233C1457.43 32.108 1457.1 32.0455 1456.71 32.0455C1456.11 32.0455 1455.63 32.1856 1455.25 32.4659C1454.87 32.7462 1454.68 33.108 1454.68 33.5511C1454.68 33.9261 1454.81 34.2311 1455.07 34.4659C1455.33 34.697 1455.73 34.8807 1456.27 35.017L1457.59 35.3409C1458.32 35.5189 1458.87 35.8011 1459.23 36.1875C1459.6 36.5739 1459.78 37.0587 1459.78 37.642C1459.78 38.1345 1459.65 38.572 1459.38 38.9545C1459.1 39.3371 1458.72 39.6383 1458.23 39.858C1457.75 40.0739 1457.19 40.1818 1456.55 40.1818C1455.69 40.1818 1454.99 39.9905 1454.44 39.608C1453.89 39.2216 1453.53 38.6648 1453.38 37.9375L1454.35 37.6989C1454.47 38.2178 1454.72 38.6098 1455.08 38.875C1455.45 39.1402 1455.93 39.2727 1456.53 39.2727C1457.2 39.2727 1457.74 39.1231 1458.14 38.8239C1458.54 38.5208 1458.74 38.142 1458.74 37.6875C1458.74 37.3352 1458.62 37.0398 1458.39 36.8011C1458.15 36.5587 1457.8 36.3807 1457.32 36.267L1455.89 35.9261C1455.14 35.7443 1454.57 35.4564 1454.21 35.0625C1453.85 34.6686 1453.67 34.1799 1453.67 33.5966C1453.67 33.1155 1453.8 32.6932 1454.06 32.3295C1454.32 31.9621 1454.68 31.6742 1455.14 31.4659C1455.6 31.2576 1456.12 31.1534 1456.71 31.1534C1457.5 31.1534 1458.14 31.3352 1458.62 31.6989C1459.1 32.0587 1459.45 32.5549 1459.66 33.1875ZM1468.44 40L1465.8 31.2727H1466.87L1468.94 38.4716H1469.01L1471.07 31.2727H1472.15L1474.19 38.4545H1474.27L1476.34 31.2727H1477.41L1474.77 40H1473.73L1471.66 32.8466H1471.55L1469.48 40H1468.44ZM1482.47 40.1818C1481.72 40.1818 1481.05 39.9905 1480.47 39.608C1479.89 39.2254 1479.44 38.697 1479.12 38.0227C1478.79 37.3447 1478.63 36.5625 1478.63 35.6761C1478.63 34.7822 1478.79 33.9962 1479.12 33.3182C1479.44 32.6364 1479.89 32.1061 1480.47 31.7273C1481.05 31.3447 1481.72 31.1534 1482.47 31.1534C1483.22 31.1534 1483.89 31.3447 1484.46 31.7273C1485.04 32.1098 1485.49 32.6402 1485.82 33.3182C1486.15 33.9962 1486.31 34.7822 1486.31 35.6761C1486.31 36.5625 1486.15 37.3447 1485.82 38.0227C1485.5 38.697 1485.04 39.2254 1484.46 39.608C1483.89 39.9905 1483.22 40.1818 1482.47 40.1818ZM1482.47 39.2557C1483.08 39.2557 1483.59 39.0928 1484.01 38.767C1484.43 38.4413 1484.75 38.0076 1484.96 37.4659C1485.18 36.9242 1485.29 36.3277 1485.29 35.6761C1485.29 35.0246 1485.18 34.4261 1484.96 33.8807C1484.75 33.3352 1484.43 32.8977 1484.01 32.5682C1483.59 32.2386 1483.08 32.0739 1482.47 32.0739C1481.87 32.0739 1481.35 32.2386 1480.93 32.5682C1480.51 32.8977 1480.19 33.3352 1479.97 33.8807C1479.75 34.4261 1479.65 35.0246 1479.65 35.6761C1479.65 36.3277 1479.75 36.9242 1479.97 37.4659C1480.19 38.0076 1480.51 38.4413 1480.93 38.767C1481.35 39.0928 1481.86 39.2557 1482.47 39.2557ZM1488.53 40V31.2727H1489.51V32.6136H1489.59C1489.76 32.1742 1490.06 31.8201 1490.5 31.5511C1490.93 31.2784 1491.42 31.142 1491.97 31.142C1492.06 31.142 1492.15 31.1439 1492.25 31.1477C1492.35 31.1515 1492.44 31.1553 1492.51 31.1591V32.1875C1492.46 32.1799 1492.38 32.1686 1492.27 32.1534C1492.16 32.1383 1492.03 32.1307 1491.9 32.1307C1491.45 32.1307 1491.04 32.2273 1490.68 32.4205C1490.33 32.6098 1490.05 32.8731 1489.85 33.2102C1489.64 33.5473 1489.54 33.9318 1489.54 34.3636V40H1488.53ZM1495.15 36.7045L1495.14 35.3807H1495.37L1499.46 31.2727H1500.74L1496.7 35.3182L1496.61 35.3352L1495.15 36.7045ZM1494.23 40V28.3636H1495.25V40H1494.23ZM1499.67 40L1496.13 35.517L1496.85 34.8182L1500.97 40H1499.67ZM1510.58 31.2727V32.1534H1506.41V31.2727H1510.58ZM1507.71 29.1818H1508.73V37.7216C1508.73 38.0852 1508.79 38.3712 1508.92 38.5795C1509.04 38.7841 1509.21 38.9299 1509.41 39.017C1509.61 39.1004 1509.82 39.142 1510.05 39.142C1510.18 39.142 1510.3 39.1345 1510.39 39.1193C1510.48 39.1004 1510.57 39.0814 1510.64 39.0625L1510.86 39.9773C1510.76 40.0152 1510.64 40.0492 1510.49 40.0795C1510.35 40.1136 1510.17 40.1307 1509.96 40.1307C1509.59 40.1307 1509.23 40.0492 1508.88 39.8864C1508.54 39.7235 1508.26 39.4811 1508.04 39.1591C1507.82 38.8371 1507.71 38.4375 1507.71 37.9602V29.1818ZM1516.17 40.1818C1515.42 40.1818 1514.75 39.9905 1514.17 39.608C1513.6 39.2254 1513.15 38.697 1512.82 38.0227C1512.49 37.3447 1512.33 36.5625 1512.33 35.6761C1512.33 34.7822 1512.49 33.9962 1512.82 33.3182C1513.15 32.6364 1513.6 32.1061 1514.17 31.7273C1514.75 31.3447 1515.42 31.1534 1516.17 31.1534C1516.93 31.1534 1517.59 31.3447 1518.17 31.7273C1518.74 32.1098 1519.19 32.6402 1519.52 33.3182C1519.85 33.9962 1520.01 34.7822 1520.01 35.6761C1520.01 36.5625 1519.85 37.3447 1519.52 38.0227C1519.2 38.697 1518.75 39.2254 1518.17 39.608C1517.59 39.9905 1516.93 40.1818 1516.17 40.1818ZM1516.17 39.2557C1516.78 39.2557 1517.29 39.0928 1517.71 38.767C1518.13 38.4413 1518.45 38.0076 1518.67 37.4659C1518.89 36.9242 1519 36.3277 1519 35.6761C1519 35.0246 1518.89 34.4261 1518.67 33.8807C1518.45 33.3352 1518.13 32.8977 1517.71 32.5682C1517.29 32.2386 1516.78 32.0739 1516.17 32.0739C1515.57 32.0739 1515.06 32.2386 1514.63 32.5682C1514.21 32.8977 1513.89 33.3352 1513.67 33.8807C1513.46 34.4261 1513.35 35.0246 1513.35 35.6761C1513.35 36.3277 1513.46 36.9242 1513.67 37.4659C1513.89 38.0076 1514.21 38.4413 1514.63 38.767C1515.05 39.0928 1515.57 39.2557 1516.17 39.2557ZM1525.56 43.4545C1524.97 43.4545 1524.45 43.3769 1524 43.2216C1523.55 43.0701 1523.18 42.8617 1522.87 42.5966C1522.56 42.3314 1522.32 42.0341 1522.15 41.7045L1522.98 41.1591C1523.11 41.3788 1523.28 41.5947 1523.48 41.8068C1523.7 42.0189 1523.97 42.1951 1524.31 42.3352C1524.65 42.4754 1525.07 42.5455 1525.56 42.5455C1526.34 42.5455 1526.96 42.3523 1527.43 41.9659C1527.91 41.5795 1528.15 40.9792 1528.15 40.1648V38.1989H1528.06C1527.94 38.464 1527.77 38.7292 1527.55 38.9943C1527.33 39.2557 1527.04 39.4735 1526.69 39.6477C1526.34 39.822 1525.9 39.9091 1525.38 39.9091C1524.68 39.9091 1524.06 39.7367 1523.52 39.392C1522.98 39.0473 1522.56 38.5549 1522.25 37.9148C1521.94 37.2708 1521.78 36.5038 1521.78 35.6136C1521.78 34.7311 1521.93 33.9545 1522.23 33.2841C1522.54 32.6136 1522.96 32.0909 1523.5 31.7159C1524.04 31.3409 1524.67 31.1534 1525.39 31.1534C1525.93 31.1534 1526.37 31.2481 1526.72 31.4375C1527.07 31.6231 1527.36 31.8542 1527.57 32.1307C1527.78 32.4072 1527.95 32.6761 1528.07 32.9375H1528.18V31.2727H1529.17V40.2273C1529.17 40.9659 1529.01 41.5739 1528.69 42.0511C1528.38 42.5284 1527.95 42.8807 1527.41 43.108C1526.87 43.339 1526.25 43.4545 1525.56 43.4545ZM1525.5 38.983C1526.06 38.983 1526.53 38.8485 1526.93 38.5795C1527.33 38.3068 1527.64 37.9167 1527.85 37.4091C1528.06 36.9015 1528.17 36.2973 1528.17 35.5966C1528.17 34.9148 1528.06 34.3106 1527.85 33.7841C1527.64 33.2538 1527.34 32.8371 1526.94 32.5341C1526.55 32.2273 1526.07 32.0739 1525.5 32.0739C1524.91 32.0739 1524.42 32.2311 1524.02 32.5455C1523.62 32.8598 1523.31 33.2841 1523.11 33.8182C1522.9 34.3485 1522.8 34.9413 1522.8 35.5966C1522.8 36.2633 1522.91 36.8523 1523.11 37.3636C1523.32 37.8712 1523.63 38.2689 1524.03 38.5568C1524.43 38.8409 1524.92 38.983 1525.5 38.983ZM1535.37 40.1818C1534.56 40.1818 1533.85 39.9924 1533.26 39.6136C1532.66 39.2311 1532.2 38.7027 1531.88 38.0284C1531.56 37.3504 1531.39 36.5701 1531.39 35.6875C1531.39 34.8087 1531.56 34.0284 1531.88 33.3466C1532.2 32.661 1532.65 32.125 1533.22 31.7386C1533.8 31.3485 1534.46 31.1534 1535.22 31.1534C1535.69 31.1534 1536.15 31.2405 1536.59 31.4148C1537.03 31.5852 1537.42 31.8485 1537.77 32.2045C1538.12 32.5568 1538.4 33.0019 1538.6 33.5398C1538.81 34.0739 1538.91 34.7064 1538.91 35.4375V35.9375H1532.09V35.0455H1537.88C1537.88 34.4848 1537.76 33.9811 1537.54 33.5341C1537.31 33.0833 1537 32.7273 1536.6 32.4659C1536.2 32.2045 1535.74 32.0739 1535.22 32.0739C1534.67 32.0739 1534.18 32.2216 1533.76 32.517C1533.34 32.8125 1533.01 33.2027 1532.77 33.6875C1532.53 34.1723 1532.42 34.7027 1532.41 35.2784V35.8125C1532.41 36.5057 1532.53 37.1117 1532.77 37.6307C1533.01 38.1458 1533.35 38.5455 1533.8 38.8295C1534.24 39.1136 1534.77 39.2557 1535.37 39.2557C1535.78 39.2557 1536.15 39.1913 1536.46 39.0625C1536.77 38.9337 1537.03 38.7614 1537.25 38.5455C1537.46 38.3258 1537.63 38.0852 1537.74 37.8239L1538.7 38.1364C1538.56 38.5038 1538.34 38.8428 1538.04 39.1534C1537.74 39.464 1537.37 39.714 1536.92 39.9034C1536.47 40.089 1535.95 40.1818 1535.37 40.1818ZM1544.58 31.2727V32.1534H1540.41V31.2727H1544.58ZM1541.71 29.1818H1542.73V37.7216C1542.73 38.0852 1542.79 38.3712 1542.92 38.5795C1543.04 38.7841 1543.21 38.9299 1543.41 39.017C1543.61 39.1004 1543.82 39.142 1544.05 39.142C1544.18 39.142 1544.3 39.1345 1544.39 39.1193C1544.48 39.1004 1544.57 39.0814 1544.64 39.0625L1544.86 39.9773C1544.76 40.0152 1544.64 40.0492 1544.49 40.0795C1544.35 40.1136 1544.17 40.1307 1543.96 40.1307C1543.59 40.1307 1543.23 40.0492 1542.88 39.8864C1542.54 39.7235 1542.26 39.4811 1542.04 39.1591C1541.82 38.8371 1541.71 38.4375 1541.71 37.9602V29.1818ZM1548.07 34.5455V40H1547.06V28.3636H1548.07V32.642H1548.16C1548.37 32.1913 1548.68 31.8314 1549.11 31.5625C1549.54 31.2936 1550.09 31.1591 1550.75 31.1591C1551.34 31.1591 1551.86 31.2803 1552.31 31.5227C1552.75 31.7652 1553.1 32.1231 1553.35 32.5966C1553.6 33.0701 1553.73 33.6534 1553.73 34.3466V40H1552.71V34.4091C1552.71 33.6894 1552.51 33.1231 1552.11 32.7102C1551.71 32.2936 1551.17 32.0852 1550.49 32.0852C1550.03 32.0852 1549.61 32.1837 1549.25 32.3807C1548.89 32.5777 1548.6 32.8617 1548.39 33.233C1548.18 33.6004 1548.07 34.0379 1548.07 34.5455ZM1559.92 40.1818C1559.1 40.1818 1558.4 39.9924 1557.8 39.6136C1557.21 39.2311 1556.75 38.7027 1556.42 38.0284C1556.1 37.3504 1555.94 36.5701 1555.94 35.6875C1555.94 34.8087 1556.1 34.0284 1556.42 33.3466C1556.75 32.661 1557.2 32.125 1557.77 31.7386C1558.35 31.3485 1559.01 31.1534 1559.76 31.1534C1560.24 31.1534 1560.69 31.2405 1561.13 31.4148C1561.57 31.5852 1561.97 31.8485 1562.32 32.2045C1562.67 32.5568 1562.95 33.0019 1563.15 33.5398C1563.36 34.0739 1563.46 34.7064 1563.46 35.4375V35.9375H1556.64V35.0455H1562.42C1562.42 34.4848 1562.31 33.9811 1562.08 33.5341C1561.86 33.0833 1561.55 32.7273 1561.15 32.4659C1560.75 32.2045 1560.29 32.0739 1559.76 32.0739C1559.21 32.0739 1558.73 32.2216 1558.3 32.517C1557.88 32.8125 1557.55 33.2027 1557.32 33.6875C1557.08 34.1723 1556.96 34.7027 1556.96 35.2784V35.8125C1556.96 36.5057 1557.08 37.1117 1557.32 37.6307C1557.56 38.1458 1557.9 38.5455 1558.34 38.8295C1558.79 39.1136 1559.31 39.2557 1559.92 39.2557C1560.33 39.2557 1560.69 39.1913 1561 39.0625C1561.32 38.9337 1561.58 38.7614 1561.79 38.5455C1562.01 38.3258 1562.17 38.0852 1562.28 37.8239L1563.24 38.1364C1563.11 38.5038 1562.89 38.8428 1562.59 39.1534C1562.29 39.464 1561.91 39.714 1561.46 39.9034C1561.02 40.089 1560.5 40.1818 1559.92 40.1818ZM1565.69 40V31.2727H1566.67V32.6136H1566.74C1566.92 32.1742 1567.22 31.8201 1567.65 31.5511C1568.09 31.2784 1568.58 31.142 1569.13 31.142C1569.21 31.142 1569.31 31.1439 1569.41 31.1477C1569.51 31.1515 1569.6 31.1553 1569.66 31.1591V32.1875C1569.62 32.1799 1569.54 32.1686 1569.43 32.1534C1569.31 32.1383 1569.19 32.1307 1569.06 32.1307C1568.6 32.1307 1568.2 32.2273 1567.84 32.4205C1567.49 32.6098 1567.21 32.8731 1567 33.2102C1566.8 33.5473 1566.7 33.9318 1566.7 34.3636V40H1565.69ZM1576.1 40V28.3636H1577.12V32.9375H1577.21C1577.32 32.6761 1577.48 32.4072 1577.7 32.1307C1577.91 31.8542 1578.19 31.6231 1578.54 31.4375C1578.9 31.2481 1579.34 31.1534 1579.87 31.1534C1580.59 31.1534 1581.22 31.3428 1581.76 31.7216C1582.3 32.0966 1582.72 32.6231 1583.03 33.3011C1583.33 33.9754 1583.48 34.7614 1583.48 35.6591C1583.48 36.5606 1583.33 37.3504 1583.03 38.0284C1582.73 38.7064 1582.31 39.2348 1581.76 39.6136C1581.23 39.9924 1580.6 40.1818 1579.89 40.1818C1579.36 40.1818 1578.92 40.0871 1578.56 39.8977C1578.21 39.7083 1577.92 39.4754 1577.71 39.1989C1577.49 38.9186 1577.33 38.6458 1577.21 38.3807H1577.08V40H1576.1ZM1577.1 35.642C1577.1 36.3466 1577.2 36.9716 1577.41 37.517C1577.62 38.0587 1577.93 38.4848 1578.32 38.7955C1578.72 39.1023 1579.2 39.2557 1579.76 39.2557C1580.34 39.2557 1580.83 39.0966 1581.24 38.7784C1581.64 38.4564 1581.94 38.0227 1582.15 37.4773C1582.36 36.9318 1582.46 36.3201 1582.46 35.642C1582.46 34.9716 1582.36 34.3674 1582.15 33.8295C1581.95 33.2917 1581.64 32.8655 1581.24 32.5511C1580.84 32.233 1580.35 32.0739 1579.76 32.0739C1579.2 32.0739 1578.71 32.2273 1578.32 32.5341C1577.92 32.8371 1577.62 33.2576 1577.41 33.7955C1577.2 34.3295 1577.1 34.9451 1577.1 35.642ZM1586.09 43.2727C1585.89 43.2727 1585.71 43.2538 1585.53 43.2159C1585.36 43.178 1585.22 43.1364 1585.12 43.0909L1585.39 42.1989C1585.73 42.3049 1586.04 42.3428 1586.31 42.3125C1586.58 42.286 1586.82 42.1648 1587.03 41.9489C1587.23 41.7367 1587.42 41.411 1587.58 40.9716L1587.9 40.0852L1584.69 31.2727H1585.79L1588.38 38.6648H1588.46L1591.05 31.2727H1592.15L1588.45 41.3807C1588.3 41.8011 1588.11 42.1515 1587.88 42.4318C1587.65 42.7159 1587.39 42.9261 1587.09 43.0625C1586.79 43.2027 1586.46 43.2727 1586.09 43.2727ZM1599.64 34.5455V40H1598.62V31.2727H1599.61V32.642H1599.7C1599.9 32.1951 1600.22 31.8371 1600.65 31.5682C1601.09 31.2955 1601.63 31.1591 1602.27 31.1591C1602.85 31.1591 1603.37 31.2822 1603.81 31.5284C1604.26 31.7708 1604.61 32.1288 1604.85 32.6023C1605.1 33.0758 1605.23 33.6572 1605.23 34.3466V40H1604.22V34.4091C1604.22 33.6932 1604.01 33.1269 1603.61 32.7102C1603.22 32.2936 1602.68 32.0852 1602.01 32.0852C1601.55 32.0852 1601.15 32.1837 1600.79 32.3807C1600.43 32.5777 1600.15 32.8617 1599.94 33.233C1599.74 33.6004 1599.64 34.0379 1599.64 34.5455ZM1613.44 36.6648V31.2727H1614.45V40H1613.44V38.5511H1613.36C1613.15 38.9981 1612.83 39.3712 1612.38 39.6705C1611.94 39.9659 1611.4 40.1136 1610.76 40.1136C1610.2 40.1136 1609.71 39.9924 1609.28 39.75C1608.84 39.5038 1608.51 39.1439 1608.26 38.6705C1608.01 38.197 1607.89 37.6155 1607.89 36.9261V31.2727H1608.9V36.8636C1608.9 37.5455 1609.1 38.0947 1609.5 38.5114C1609.91 38.9242 1610.42 39.1307 1611.05 39.1307C1611.44 39.1307 1611.82 39.036 1612.19 38.8466C1612.55 38.6572 1612.85 38.3807 1613.08 38.017C1613.32 37.6496 1613.44 37.1989 1613.44 36.6648ZM1617.12 40V31.2727H1618.11V32.6136H1618.2C1618.37 32.1629 1618.66 31.8087 1619.07 31.5511C1619.48 31.2898 1619.97 31.1591 1620.54 31.1591C1621.14 31.1591 1621.64 31.3011 1622.02 31.5852C1622.41 31.8655 1622.7 32.2519 1622.9 32.7443H1622.97C1623.17 32.2595 1623.49 31.875 1623.93 31.5909C1624.38 31.303 1624.92 31.1591 1625.56 31.1591C1626.37 31.1591 1627.01 31.4148 1627.48 31.9261C1627.95 32.4337 1628.18 33.1761 1628.18 34.1534V40H1627.17V34.1534C1627.17 33.464 1626.99 32.947 1626.64 32.6023C1626.29 32.2576 1625.83 32.0852 1625.25 32.0852C1624.58 32.0852 1624.07 32.2898 1623.71 32.6989C1623.35 33.108 1623.17 33.6269 1623.17 34.2557V40H1622.14V34.0625C1622.14 33.4716 1621.97 32.9943 1621.64 32.6307C1621.31 32.267 1620.85 32.0852 1620.25 32.0852C1619.85 32.0852 1619.49 32.1837 1619.16 32.3807C1618.85 32.5777 1618.59 32.8523 1618.41 33.2045C1618.23 33.553 1618.14 33.9545 1618.14 34.4091V40H1617.12ZM1631.07 40V28.3636H1632.09V32.9375H1632.18C1632.29 32.6761 1632.45 32.4072 1632.67 32.1307C1632.88 31.8542 1633.16 31.6231 1633.51 31.4375C1633.86 31.2481 1634.31 31.1534 1634.84 31.1534C1635.56 31.1534 1636.19 31.3428 1636.73 31.7216C1637.27 32.0966 1637.69 32.6231 1638 33.3011C1638.3 33.9754 1638.45 34.7614 1638.45 35.6591C1638.45 36.5606 1638.3 37.3504 1638 38.0284C1637.7 38.7064 1637.28 39.2348 1636.73 39.6136C1636.2 39.9924 1635.57 40.1818 1634.86 40.1818C1634.33 40.1818 1633.89 40.0871 1633.53 39.8977C1633.18 39.7083 1632.89 39.4754 1632.68 39.1989C1632.46 38.9186 1632.29 38.6458 1632.18 38.3807H1632.05V40H1631.07ZM1632.07 35.642C1632.07 36.3466 1632.17 36.9716 1632.38 37.517C1632.59 38.0587 1632.9 38.4848 1633.29 38.7955C1633.69 39.1023 1634.17 39.2557 1634.73 39.2557C1635.31 39.2557 1635.8 39.0966 1636.21 38.7784C1636.61 38.4564 1636.91 38.0227 1637.12 37.4773C1637.33 36.9318 1637.43 36.3201 1637.43 35.642C1637.43 34.9716 1637.33 34.3674 1637.12 33.8295C1636.92 33.2917 1636.61 32.8655 1636.21 32.5511C1635.81 32.233 1635.32 32.0739 1634.73 32.0739C1634.17 32.0739 1633.68 32.2273 1633.28 32.5341C1632.89 32.8371 1632.59 33.2576 1632.38 33.7955C1632.17 34.3295 1632.07 34.9451 1632.07 35.642ZM1644.2 40.1818C1643.39 40.1818 1642.68 39.9924 1642.09 39.6136C1641.49 39.2311 1641.03 38.7027 1640.71 38.0284C1640.38 37.3504 1640.22 36.5701 1640.22 35.6875C1640.22 34.8087 1640.38 34.0284 1640.71 33.3466C1641.03 32.661 1641.48 32.125 1642.05 31.7386C1642.63 31.3485 1643.29 31.1534 1644.05 31.1534C1644.52 31.1534 1644.98 31.2405 1645.42 31.4148C1645.85 31.5852 1646.25 31.8485 1646.6 32.2045C1646.95 32.5568 1647.23 33.0019 1647.43 33.5398C1647.64 34.0739 1647.74 34.7064 1647.74 35.4375V35.9375H1640.92V35.0455H1646.71C1646.71 34.4848 1646.59 33.9811 1646.36 33.5341C1646.14 33.0833 1645.83 32.7273 1645.43 32.4659C1645.03 32.2045 1644.57 32.0739 1644.05 32.0739C1643.49 32.0739 1643.01 32.2216 1642.59 32.517C1642.17 32.8125 1641.84 33.2027 1641.6 33.6875C1641.36 34.1723 1641.24 34.7027 1641.24 35.2784V35.8125C1641.24 36.5057 1641.36 37.1117 1641.6 37.6307C1641.84 38.1458 1642.18 38.5455 1642.63 38.8295C1643.07 39.1136 1643.59 39.2557 1644.2 39.2557C1644.61 39.2557 1644.97 39.1913 1645.28 39.0625C1645.6 38.9337 1645.86 38.7614 1646.07 38.5455C1646.29 38.3258 1646.45 38.0852 1646.56 37.8239L1647.52 38.1364C1647.39 38.5038 1647.17 38.8428 1646.87 39.1534C1646.57 39.464 1646.2 39.714 1645.75 39.9034C1645.3 40.089 1644.78 40.1818 1644.2 40.1818ZM1649.97 40V31.2727H1650.95V32.6136H1651.02C1651.2 32.1742 1651.5 31.8201 1651.93 31.5511C1652.37 31.2784 1652.86 31.142 1653.41 31.142C1653.49 31.142 1653.59 31.1439 1653.69 31.1477C1653.79 31.1515 1653.88 31.1553 1653.95 31.1591V32.1875C1653.9 32.1799 1653.82 32.1686 1653.71 32.1534C1653.59 32.1383 1653.47 32.1307 1653.34 32.1307C1652.88 32.1307 1652.48 32.2273 1652.12 32.4205C1651.77 32.6098 1651.49 32.8731 1651.29 33.2102C1651.08 33.5473 1650.98 33.9318 1650.98 34.3636V40H1649.97ZM1661.53 33.1875L1660.61 33.4489C1660.52 33.1875 1660.39 32.9508 1660.22 32.7386C1660.06 32.5265 1659.84 32.358 1659.57 32.233C1659.3 32.108 1658.97 32.0455 1658.58 32.0455C1657.99 32.0455 1657.5 32.1856 1657.13 32.4659C1656.75 32.7462 1656.56 33.108 1656.56 33.5511C1656.56 33.9261 1656.69 34.2311 1656.94 34.4659C1657.21 34.697 1657.61 34.8807 1658.15 35.017L1659.47 35.3409C1660.2 35.5189 1660.75 35.8011 1661.11 36.1875C1661.48 36.5739 1661.66 37.0587 1661.66 37.642C1661.66 38.1345 1661.52 38.572 1661.25 38.9545C1660.98 39.3371 1660.6 39.6383 1660.11 39.858C1659.62 40.0739 1659.06 40.1818 1658.42 40.1818C1657.57 40.1818 1656.87 39.9905 1656.31 39.608C1655.76 39.2216 1655.41 38.6648 1655.25 37.9375L1656.22 37.6989C1656.35 38.2178 1656.59 38.6098 1656.96 38.875C1657.32 39.1402 1657.81 39.2727 1658.4 39.2727C1659.07 39.2727 1659.61 39.1231 1660.01 38.8239C1660.41 38.5208 1660.61 38.142 1660.61 37.6875C1660.61 37.3352 1660.5 37.0398 1660.26 36.8011C1660.03 36.5587 1659.67 36.3807 1659.19 36.267L1657.77 35.9261C1657.01 35.7443 1656.45 35.4564 1656.09 35.0625C1655.72 34.6686 1655.54 34.1799 1655.54 33.5966C1655.54 33.1155 1655.67 32.6932 1655.93 32.3295C1656.19 31.9621 1656.55 31.6742 1657.01 31.4659C1657.47 31.2576 1657.99 31.1534 1658.58 31.1534C1659.38 31.1534 1660.02 31.3352 1660.5 31.6989C1660.98 32.0587 1661.32 32.5549 1661.53 33.1875Z" fill="white"/>
<path d="M1214.67 35C1214.67 37.9455 1217.05 40.3333 1220 40.3333C1222.95 40.3333 1225.33 37.9455 1225.33 35C1225.33 32.0545 1222.95 29.6667 1220 29.6667C1217.05 29.6667 1214.67 32.0545 1214.67 35ZM1197 36H1220V34H1197V36Z" fill="url(#paint1_linear_158_1029)"/>
<circle cx="1165" cy="35" r="35" fill="url(#paint2_linear_158_1029)"/>
<circle cx="1165" cy="35" r="27" fill="white"/>
<path d="M1154.92 44.36C1152.9 44.36 1151.16 43.976 1149.69 43.208C1148.23 42.424 1147.1 41.328 1146.3 39.92C1145.5 38.512 1145.1 36.872 1145.1 35C1145.1 33.128 1145.5 31.488 1146.3 30.08C1147.1 28.672 1148.23 27.584 1149.69 26.816C1151.16 26.032 1152.9 25.64 1154.92 25.64C1156.92 25.64 1158.65 26.032 1160.1 26.816C1161.58 27.584 1162.71 28.672 1163.51 30.08C1164.31 31.488 1164.71 33.128 1164.71 35C1164.71 36.872 1164.31 38.512 1163.51 39.92C1162.71 41.328 1161.58 42.424 1160.1 43.208C1158.65 43.976 1156.92 44.36 1154.92 44.36ZM1154.92 41.048C1156.73 41.048 1158.13 40.52 1159.12 39.464C1160.13 38.392 1160.63 36.904 1160.63 35C1160.63 33.08 1160.13 31.592 1159.12 30.536C1158.13 29.48 1156.73 28.952 1154.92 28.952C1153.11 28.952 1151.7 29.48 1150.7 30.536C1149.69 31.592 1149.18 33.08 1149.18 35C1149.18 36.92 1149.69 38.408 1150.7 39.464C1151.7 40.52 1153.11 41.048 1154.92 41.048ZM1176.4 25.64C1177.91 25.64 1179.24 25.864 1180.39 26.312C1181.54 26.76 1182.48 27.376 1183.2 28.16C1183.93 28.928 1184.38 29.808 1184.54 30.8H1180.68C1180.44 30.224 1180 29.744 1179.36 29.36C1178.72 28.96 1177.77 28.76 1176.52 28.76C1175.21 28.76 1174.13 29.008 1173.28 29.504C1172.44 29.984 1171.81 30.68 1171.41 31.592C1171.01 32.488 1170.81 33.576 1170.81 34.856C1170.81 36.216 1171.04 37.376 1171.48 38.336C1171.93 39.28 1172.59 40 1173.45 40.496C1174.33 40.976 1175.4 41.216 1176.67 41.216C1177.58 41.216 1178.35 41.088 1178.97 40.832C1179.6 40.576 1180.07 40.224 1180.39 39.776C1180.71 39.328 1180.87 38.824 1180.87 38.264C1180.87 37.72 1180.72 37.24 1180.44 36.824C1180.15 36.392 1179.71 36.056 1179.12 35.816C1178.52 35.576 1177.78 35.456 1176.88 35.456C1175.67 35.456 1174.53 35.736 1173.48 36.296C1172.42 36.856 1171.5 37.624 1170.72 38.6L1169.2 37.544C1169.72 36.552 1170.38 35.664 1171.2 34.88C1172.01 34.096 1172.97 33.48 1174.08 33.032C1175.18 32.568 1176.42 32.336 1177.8 32.336C1179.25 32.336 1180.52 32.576 1181.59 33.056C1182.66 33.536 1183.48 34.216 1184.06 35.096C1184.65 35.96 1184.95 36.976 1184.95 38.144C1184.95 39.36 1184.61 40.44 1183.94 41.384C1183.28 42.312 1182.33 43.04 1181.08 43.568C1179.85 44.096 1178.36 44.36 1176.62 44.36C1174.49 44.36 1172.71 43.968 1171.27 43.184C1169.83 42.384 1168.75 41.28 1168.03 39.872C1167.31 38.448 1166.95 36.824 1166.95 35C1166.95 33.176 1167.31 31.56 1168.03 30.152C1168.75 28.744 1169.81 27.64 1171.22 26.84C1172.63 26.04 1174.36 25.64 1176.4 25.64Z" fill="#000C74"/>
<defs>
<linearGradient id="paint0_linear_158_1029" x1="1220" y1="34.5" x2="1707" y2="34.5" gradientUnits="userSpaceOnUse">
<stop stop-color="#00A93C"/>
<stop offset="1" stop-color="#24CBFF"/>
</linearGradient>
<linearGradient id="paint1_linear_158_1029" x1="1197" y1="35.5" x2="1220" y2="35.5" gradientUnits="userSpaceOnUse">
<stop stop-color="#00A93C"/>
<stop offset="1" stop-color="#24CBFF"/>
</linearGradient>
<linearGradient id="paint2_linear_158_1029" x1="1130" y1="35" x2="1200" y2="35" gradientUnits="userSpaceOnUse">
<stop stop-color="#00A93C"/>
<stop offset="1" stop-color="#000C74"/>
</linearGradient>
</defs>
</svg>
