<svg width="100%" viewBox="0 0 1296 94" fill="none" xmlns="http://www.w3.org/2000/svg">
<path d="M891.424 22.656H889.936L897.688 6H901.072L892.384 24H888.856L880.168 6H883.576L891.424 22.656ZM902.721 19.872V17.256H915.297V19.872H902.721ZM911.073 6L919.713 24H916.329L908.481 7.2H909.705L901.857 24H898.473L907.113 6H911.073ZM925.075 6V22.584L923.659 21.216H937.219V24H921.907V6H925.075ZM941.639 16.272C941.639 17.344 941.855 18.272 942.287 19.056C942.719 19.84 943.335 20.448 944.135 20.88C944.951 21.296 945.919 21.504 947.039 21.504C948.175 21.504 949.143 21.296 949.943 20.88C950.743 20.448 951.359 19.84 951.791 19.056C952.223 18.272 952.439 17.344 952.439 16.272V6H955.607V16.392C955.607 17.976 955.247 19.368 954.527 20.568C953.807 21.752 952.807 22.68 951.527 23.352C950.247 24.008 948.751 24.336 947.039 24.336C945.343 24.336 943.847 24.008 942.551 23.352C941.271 22.68 940.271 21.752 939.551 20.568C938.831 19.368 938.471 17.976 938.471 16.392V6H941.639V16.272ZM973.783 13.68V16.32H961.207V13.68H973.783ZM963.295 15L962.023 23.04L960.511 21.264H974.479V24H958.783L960.223 15L958.783 6H974.359V8.736H960.511L962.023 6.96L963.295 15ZM976.678 18.144H979.894C979.99 18.864 980.286 19.496 980.782 20.04C981.294 20.584 981.966 21.008 982.798 21.312C983.63 21.6 984.59 21.744 985.678 21.744C987.294 21.744 988.574 21.496 989.518 21C990.462 20.488 990.934 19.8 990.934 18.936C990.934 18.232 990.662 17.704 990.118 17.352C989.574 17 988.59 16.736 987.166 16.56L983.278 16.056C981.102 15.768 979.518 15.232 978.526 14.448C977.55 13.648 977.062 12.52 977.062 11.064C977.062 9.96 977.39 9.008 978.046 8.208C978.718 7.392 979.662 6.768 980.878 6.336C982.094 5.888 983.518 5.664 985.15 5.664C986.766 5.664 988.198 5.904 989.446 6.384C990.694 6.864 991.686 7.536 992.422 8.4C993.174 9.248 993.582 10.248 993.646 11.4H990.43C990.35 10.76 990.078 10.208 989.614 9.744C989.166 9.28 988.558 8.92 987.79 8.664C987.022 8.392 986.118 8.256 985.078 8.256C983.606 8.256 982.43 8.496 981.55 8.976C980.67 9.456 980.23 10.112 980.23 10.944C980.23 11.584 980.486 12.08 980.998 12.432C981.526 12.768 982.438 13.024 983.734 13.2L987.67 13.752C989.286 13.976 990.558 14.28 991.486 14.664C992.43 15.032 993.102 15.536 993.502 16.176C993.902 16.8 994.102 17.608 994.102 18.6C994.102 19.752 993.75 20.76 993.046 21.624C992.342 22.488 991.35 23.16 990.07 23.64C988.806 24.104 987.326 24.336 985.63 24.336C983.902 24.336 982.374 24.08 981.046 23.568C979.734 23.04 978.694 22.312 977.926 21.384C977.158 20.456 976.742 19.376 976.678 18.144Z" fill="#24CBFF"/>
<path d="M882.608 58.3636V70H881.545V58.3636H882.608ZM886.503 64.5455V70H885.491V61.2727H886.474V62.642H886.565C886.77 62.1951 887.088 61.8371 887.52 61.5682C887.955 61.2955 888.493 61.1591 889.134 61.1591C889.721 61.1591 890.236 61.2822 890.679 61.5284C891.126 61.7708 891.473 62.1288 891.719 62.6023C891.969 63.0758 892.094 63.6572 892.094 64.3466V70H891.082V64.4091C891.082 63.6932 890.882 63.1269 890.48 62.7102C890.082 62.2936 889.548 62.0852 888.878 62.0852C888.42 62.0852 888.012 62.1837 887.656 62.3807C887.3 62.5777 887.018 62.8617 886.81 63.233C886.605 63.6004 886.503 64.0379 886.503 64.5455ZM909.767 58.3636V70H908.704V58.3636H909.767ZM912.65 70V61.2727H913.633V62.6136H913.724C913.898 62.1629 914.188 61.8087 914.594 61.5511C915.003 61.2898 915.493 61.1591 916.065 61.1591C916.667 61.1591 917.162 61.3011 917.548 61.5852C917.938 61.8655 918.23 62.2519 918.423 62.7443H918.497C918.694 62.2595 919.014 61.875 919.457 61.5909C919.904 61.303 920.446 61.1591 921.082 61.1591C921.893 61.1591 922.533 61.4148 923.003 61.9261C923.472 62.4337 923.707 63.1761 923.707 64.1534V70H922.696V64.1534C922.696 63.464 922.52 62.947 922.167 62.6023C921.815 62.2576 921.351 62.0852 920.775 62.0852C920.109 62.0852 919.595 62.2898 919.236 62.6989C918.876 63.108 918.696 63.6269 918.696 64.2557V70H917.662V64.0625C917.662 63.4716 917.497 62.9943 917.167 62.6307C916.838 62.267 916.374 62.0852 915.775 62.0852C915.374 62.0852 915.012 62.1837 914.69 62.3807C914.372 62.5777 914.12 62.8523 913.934 63.2045C913.753 63.553 913.662 63.9545 913.662 64.4091V70H912.65ZM929.913 70.1818C929.099 70.1818 928.394 69.9924 927.799 69.6136C927.205 69.2311 926.745 68.7027 926.419 68.0284C926.097 67.3504 925.936 66.5701 925.936 65.6875C925.936 64.8087 926.097 64.0284 926.419 63.3466C926.745 62.661 927.193 62.125 927.765 61.7386C928.341 61.3485 929.006 61.1534 929.76 61.1534C930.233 61.1534 930.69 61.2405 931.129 61.4148C931.568 61.5852 931.962 61.8485 932.311 62.2045C932.663 62.5568 932.942 63.0019 933.146 63.5398C933.351 64.0739 933.453 64.7064 933.453 65.4375V65.9375H926.635V65.0455H932.419C932.419 64.4848 932.305 63.9811 932.078 63.5341C931.854 63.0833 931.542 62.7273 931.14 62.4659C930.743 62.2045 930.282 62.0739 929.76 62.0739C929.207 62.0739 928.72 62.2216 928.299 62.517C927.879 62.8125 927.549 63.2027 927.311 63.6875C927.076 64.1723 926.957 64.7027 926.953 65.2784V65.8125C926.953 66.5057 927.072 67.1117 927.311 67.6307C927.553 68.1458 927.896 68.5455 928.339 68.8295C928.782 69.1136 929.307 69.2557 929.913 69.2557C930.326 69.2557 930.688 69.1913 930.998 69.0625C931.313 68.9337 931.576 68.7614 931.788 68.5455C932.004 68.3258 932.167 68.0852 932.277 67.8239L933.237 68.1364C933.104 68.5038 932.887 68.8428 932.584 69.1534C932.284 69.464 931.909 69.714 931.459 69.9034C931.012 70.089 930.496 70.1818 929.913 70.1818ZM936.072 61.2727L938.322 64.9943L940.572 61.2727H941.748L938.942 65.6364L941.748 70H940.572L938.322 66.3977L936.072 70H934.902L937.674 65.6364L934.902 61.2727H936.072ZM943.869 73.2727V61.2727H944.852V62.9375H944.971C945.093 62.6761 945.259 62.4091 945.471 62.1364C945.683 61.8598 945.964 61.6269 946.312 61.4375C946.665 61.2481 947.108 61.1534 947.642 61.1534C948.362 61.1534 948.99 61.3428 949.528 61.7216C950.07 62.0966 950.49 62.6231 950.79 63.3011C951.093 63.9754 951.244 64.7614 951.244 65.6591C951.244 66.5606 951.093 67.3504 950.79 68.0284C950.49 68.7064 950.07 69.2348 949.528 69.6136C948.99 69.9924 948.365 70.1818 947.653 70.1818C947.127 70.1818 946.685 70.0871 946.329 69.8977C945.977 69.7083 945.691 69.4754 945.471 69.1989C945.255 68.9186 945.089 68.6458 944.971 68.3807H944.88V73.2727H943.869ZM944.869 65.642C944.869 66.3466 944.973 66.9716 945.182 67.517C945.394 68.0587 945.697 68.4848 946.091 68.7955C946.488 69.1023 946.969 69.2557 947.534 69.2557C948.113 69.2557 948.602 69.0966 949 68.7784C949.401 68.4564 949.706 68.0227 949.915 67.4773C950.127 66.9318 950.233 66.3201 950.233 65.642C950.233 64.9716 950.129 64.3674 949.92 63.8295C949.716 63.2917 949.413 62.8655 949.011 62.5511C948.61 62.233 948.117 62.0739 947.534 62.0739C946.966 62.0739 946.483 62.2273 946.085 62.5341C945.687 62.8371 945.384 63.2576 945.176 63.7955C944.971 64.3295 944.869 64.9451 944.869 65.642ZM954.474 64.5455V70H953.463V58.3636H954.474V62.642H954.565C954.77 62.1913 955.086 61.8314 955.514 61.5625C955.946 61.2936 956.491 61.1591 957.15 61.1591C957.741 61.1591 958.26 61.2803 958.707 61.5227C959.154 61.7652 959.503 62.1231 959.753 62.5966C960.003 63.0701 960.128 63.6534 960.128 64.3466V70H959.111V64.4091C959.111 63.6894 958.91 63.1231 958.508 62.7102C958.111 62.2936 957.573 62.0852 956.895 62.0852C956.429 62.0852 956.014 62.1837 955.65 62.3807C955.287 62.5777 954.999 62.8617 954.787 63.233C954.578 63.6004 954.474 64.0379 954.474 64.5455ZM965.228 70.1989C964.702 70.1989 964.221 70.0966 963.785 69.892C963.35 69.6837 963.003 69.3845 962.745 68.9943C962.488 68.6004 962.359 68.1231 962.359 67.5625C962.359 67.1307 962.441 66.767 962.603 66.4716C962.766 66.1761 962.997 65.9337 963.297 65.7443C963.596 65.5549 963.95 65.4053 964.359 65.2955C964.768 65.1856 965.219 65.1004 965.711 65.0398C966.2 64.9792 966.613 64.9261 966.95 64.8807C967.291 64.8352 967.55 64.7633 967.728 64.6648C967.906 64.5663 967.995 64.4072 967.995 64.1875V63.983C967.995 63.3883 967.817 62.9205 967.461 62.5795C967.109 62.2348 966.602 62.0625 965.939 62.0625C965.31 62.0625 964.797 62.2008 964.399 62.4773C964.005 62.7538 963.728 63.0795 963.569 63.4545L962.609 63.108C962.806 62.6307 963.079 62.25 963.427 61.9659C963.776 61.678 964.166 61.4716 964.598 61.3466C965.03 61.2178 965.467 61.1534 965.91 61.1534C966.244 61.1534 966.59 61.197 966.95 61.2841C967.314 61.3712 967.651 61.5227 967.961 61.7386C968.272 61.9508 968.524 62.2481 968.717 62.6307C968.91 63.0095 969.007 63.4905 969.007 64.0739V70H967.995V68.6193H967.933C967.812 68.8769 967.632 69.1269 967.393 69.3693C967.155 69.6117 966.855 69.8106 966.495 69.9659C966.136 70.1212 965.713 70.1989 965.228 70.1989ZM965.365 69.2727C965.903 69.2727 966.369 69.1534 966.763 68.9148C967.156 68.6761 967.46 68.3598 967.672 67.9659C967.888 67.5682 967.995 67.1307 967.995 66.6534V65.392C967.92 65.464 967.793 65.5284 967.615 65.5852C967.441 65.642 967.238 65.6932 967.007 65.7386C966.78 65.7803 966.552 65.8163 966.325 65.8466C966.098 65.8769 965.893 65.9034 965.711 65.9261C965.219 65.9867 964.799 66.0814 964.45 66.2102C964.102 66.339 963.835 66.517 963.649 66.7443C963.463 66.9678 963.37 67.2557 963.37 67.608C963.37 68.1383 963.56 68.5492 963.939 68.8409C964.317 69.1288 964.793 69.2727 965.365 69.2727ZM971.697 70V61.2727H972.68V62.6136H972.754C972.928 62.1742 973.231 61.8201 973.663 61.5511C974.099 61.2784 974.591 61.142 975.14 61.142C975.224 61.142 975.317 61.1439 975.419 61.1477C975.521 61.1515 975.606 61.1553 975.674 61.1591V62.1875C975.629 62.1799 975.549 62.1686 975.436 62.1534C975.322 62.1383 975.199 62.1307 975.067 62.1307C974.612 62.1307 974.207 62.2273 973.851 62.4205C973.498 62.6098 973.22 62.8731 973.015 63.2102C972.811 63.5473 972.709 63.9318 972.709 64.3636V70H971.697ZM977.4 70V61.2727H978.383V62.6136H978.474C978.648 62.1629 978.938 61.8087 979.344 61.5511C979.753 61.2898 980.243 61.1591 980.815 61.1591C981.417 61.1591 981.912 61.3011 982.298 61.5852C982.688 61.8655 982.98 62.2519 983.173 62.7443H983.247C983.444 62.2595 983.764 61.875 984.207 61.5909C984.654 61.303 985.196 61.1591 985.832 61.1591C986.643 61.1591 987.283 61.4148 987.753 61.9261C988.222 62.4337 988.457 63.1761 988.457 64.1534V70H987.446V64.1534C987.446 63.464 987.27 62.947 986.917 62.6023C986.565 62.2576 986.101 62.0852 985.525 62.0852C984.859 62.0852 984.345 62.2898 983.986 62.6989C983.626 63.108 983.446 63.6269 983.446 64.2557V70H982.412V64.0625C982.412 63.4716 982.247 62.9943 981.917 62.6307C981.588 62.267 981.124 62.0852 980.525 62.0852C980.124 62.0852 979.762 62.1837 979.44 62.3807C979.122 62.5777 978.87 62.8523 978.684 63.2045C978.503 63.553 978.412 63.9545 978.412 64.4091V70H977.4ZM991.998 58.3636V62.2443H991.044V58.3636H991.998ZM1000.45 63.1875L999.525 63.4489C999.434 63.1875 999.306 62.9508 999.139 62.7386C998.972 62.5265 998.754 62.358 998.486 62.233C998.22 62.108 997.891 62.0455 997.497 62.0455C996.906 62.0455 996.421 62.1856 996.042 62.4659C995.664 62.7462 995.474 63.108 995.474 63.5511C995.474 63.9261 995.603 64.2311 995.861 64.4659C996.122 64.697 996.523 64.8807 997.065 65.017L998.383 65.3409C999.114 65.5189 999.662 65.8011 1000.03 66.1875C1000.39 66.5739 1000.58 67.0587 1000.58 67.642C1000.58 68.1345 1000.44 68.572 1000.17 68.9545C999.895 69.3371 999.514 69.6383 999.025 69.858C998.54 70.0739 997.978 70.1818 997.338 70.1818C996.486 70.1818 995.783 69.9905 995.23 69.608C994.677 69.2216 994.323 68.6648 994.167 67.9375L995.139 67.6989C995.264 68.2178 995.508 68.6098 995.872 68.875C996.239 69.1402 996.722 69.2727 997.321 69.2727C997.991 69.2727 998.527 69.1231 998.929 68.8239C999.33 68.5208 999.531 68.142 999.531 67.6875C999.531 67.3352 999.414 67.0398 999.179 66.8011C998.944 66.5587 998.588 66.3807 998.111 66.267L996.684 65.9261C995.927 65.7443 995.366 65.4564 995.003 65.0625C994.639 64.6686 994.457 64.1799 994.457 63.5966C994.457 63.1155 994.588 62.6932 994.849 62.3295C995.111 61.9621 995.47 61.6742 995.929 61.4659C996.387 61.2576 996.91 61.1534 997.497 61.1534C998.296 61.1534 998.934 61.3352 999.412 61.6989C999.893 62.0587 1000.24 62.5549 1000.45 63.1875ZM1019.94 70.1818C1019.16 70.1818 1018.48 69.9867 1017.9 69.5966C1017.32 69.2064 1016.87 68.6723 1016.56 67.9943C1016.24 67.3163 1016.08 66.5436 1016.08 65.6761C1016.08 64.8011 1016.24 64.0227 1016.56 63.3409C1016.89 62.6591 1017.34 62.125 1017.91 61.7386C1018.49 61.3485 1019.16 61.1534 1019.92 61.1534C1020.5 61.1534 1021.03 61.267 1021.51 61.4943C1021.98 61.7178 1022.37 62.0341 1022.68 62.4432C1022.99 62.8485 1023.18 63.322 1023.26 63.8636H1022.24C1022.13 63.3712 1021.88 62.9508 1021.47 62.6023C1021.07 62.25 1020.56 62.0739 1019.94 62.0739C1019.38 62.0739 1018.89 62.2254 1018.46 62.5284C1018.03 62.8277 1017.7 63.2462 1017.45 63.7841C1017.22 64.3182 1017.1 64.9375 1017.1 65.642C1017.1 66.3504 1017.21 66.9773 1017.45 67.5227C1017.68 68.0644 1018.01 68.4886 1018.44 68.7955C1018.87 69.1023 1019.37 69.2557 1019.94 69.2557C1020.32 69.2557 1020.68 69.1837 1020.99 69.0398C1021.32 68.892 1021.58 68.6837 1021.8 68.4148C1022.02 68.1458 1022.17 67.8258 1022.24 67.4545H1023.27C1023.19 67.9811 1023 68.4508 1022.7 68.8636C1022.41 69.2727 1022.02 69.5947 1021.55 69.8295C1021.08 70.0644 1020.54 70.1818 1019.94 70.1818ZM1030.98 66.6648V61.2727H1031.99V70H1030.98V68.5511H1030.9C1030.7 68.9981 1030.37 69.3712 1029.93 69.6705C1029.49 69.9659 1028.94 70.1136 1028.3 70.1136C1027.75 70.1136 1027.25 69.9924 1026.82 69.75C1026.39 69.5038 1026.05 69.1439 1025.8 68.6705C1025.56 68.197 1025.43 67.6155 1025.43 66.9261V61.2727H1026.45V66.8636C1026.45 67.5455 1026.65 68.0947 1027.05 68.5114C1027.45 68.9242 1027.96 69.1307 1028.59 69.1307C1028.99 69.1307 1029.37 69.036 1029.73 68.8466C1030.09 68.6572 1030.39 68.3807 1030.63 68.017C1030.86 67.6496 1030.98 67.1989 1030.98 66.6648ZM1035.68 58.3636V70H1034.67V58.3636H1035.68ZM1041.79 61.2727V62.1534H1037.63V61.2727H1041.79ZM1038.93 59.1818H1039.95V67.7216C1039.95 68.0852 1040.01 68.3712 1040.13 68.5795C1040.26 68.7841 1040.42 68.9299 1040.62 69.017C1040.82 69.1004 1041.04 69.142 1041.27 69.142C1041.4 69.142 1041.51 69.1345 1041.61 69.1193C1041.7 69.1004 1041.78 69.0814 1041.86 69.0625L1042.07 69.9773C1041.97 70.0152 1041.85 70.0492 1041.71 70.0795C1041.56 70.1136 1041.39 70.1307 1041.17 70.1307C1040.8 70.1307 1040.45 70.0492 1040.1 69.8864C1039.76 69.7235 1039.48 69.4811 1039.26 69.1591C1039.04 68.8371 1038.93 68.4375 1038.93 67.9602V59.1818ZM1049.64 66.6648V61.2727H1050.65V70H1049.64V68.5511H1049.56C1049.35 68.9981 1049.03 69.3712 1048.58 69.6705C1048.14 69.9659 1047.6 70.1136 1046.96 70.1136C1046.4 70.1136 1045.91 69.9924 1045.48 69.75C1045.04 69.5038 1044.71 69.1439 1044.46 68.6705C1044.21 68.197 1044.09 67.6155 1044.09 66.9261V61.2727H1045.1V66.8636C1045.1 67.5455 1045.3 68.0947 1045.7 68.5114C1046.11 68.9242 1046.62 69.1307 1047.25 69.1307C1047.64 69.1307 1048.02 69.036 1048.39 68.8466C1048.75 68.6572 1049.05 68.3807 1049.28 68.017C1049.52 67.6496 1049.64 67.1989 1049.64 66.6648ZM1053.32 70V61.2727H1054.31V62.6136H1054.38C1054.56 62.1742 1054.86 61.8201 1055.29 61.5511C1055.73 61.2784 1056.22 61.142 1056.77 61.142C1056.85 61.142 1056.94 61.1439 1057.05 61.1477C1057.15 61.1515 1057.23 61.1553 1057.3 61.1591V62.1875C1057.26 62.1799 1057.18 62.1686 1057.06 62.1534C1056.95 62.1383 1056.83 62.1307 1056.69 62.1307C1056.24 62.1307 1055.83 62.2273 1055.48 62.4205C1055.13 62.6098 1054.85 62.8731 1054.64 63.2102C1054.44 63.5473 1054.34 63.9318 1054.34 64.3636V70H1053.32ZM1061.47 70.1989C1060.94 70.1989 1060.46 70.0966 1060.02 69.892C1059.59 69.6837 1059.24 69.3845 1058.98 68.9943C1058.72 68.6004 1058.6 68.1231 1058.6 67.5625C1058.6 67.1307 1058.68 66.767 1058.84 66.4716C1059 66.1761 1059.23 65.9337 1059.53 65.7443C1059.83 65.5549 1060.19 65.4053 1060.6 65.2955C1061.01 65.1856 1061.46 65.1004 1061.95 65.0398C1062.44 64.9792 1062.85 64.9261 1063.19 64.8807C1063.53 64.8352 1063.79 64.7633 1063.97 64.6648C1064.14 64.5663 1064.23 64.4072 1064.23 64.1875V63.983C1064.23 63.3883 1064.05 62.9205 1063.7 62.5795C1063.35 62.2348 1062.84 62.0625 1062.18 62.0625C1061.55 62.0625 1061.03 62.2008 1060.64 62.4773C1060.24 62.7538 1059.97 63.0795 1059.81 63.4545L1058.85 63.108C1059.04 62.6307 1059.32 62.25 1059.66 61.9659C1060.01 61.678 1060.4 61.4716 1060.83 61.3466C1061.27 61.2178 1061.7 61.1534 1062.15 61.1534C1062.48 61.1534 1062.83 61.197 1063.19 61.2841C1063.55 61.3712 1063.89 61.5227 1064.2 61.7386C1064.51 61.9508 1064.76 62.2481 1064.95 62.6307C1065.15 63.0095 1065.24 63.4905 1065.24 64.0739V70H1064.23V68.6193H1064.17C1064.05 68.8769 1063.87 69.1269 1063.63 69.3693C1063.39 69.6117 1063.09 69.8106 1062.73 69.9659C1062.37 70.1212 1061.95 70.1989 1061.47 70.1989ZM1061.6 69.2727C1062.14 69.2727 1062.61 69.1534 1063 68.9148C1063.39 68.6761 1063.7 68.3598 1063.91 67.9659C1064.12 67.5682 1064.23 67.1307 1064.23 66.6534V65.392C1064.16 65.464 1064.03 65.5284 1063.85 65.5852C1063.68 65.642 1063.47 65.6932 1063.24 65.7386C1063.02 65.7803 1062.79 65.8163 1062.56 65.8466C1062.33 65.8769 1062.13 65.9034 1061.95 65.9261C1061.46 65.9867 1061.04 66.0814 1060.69 66.2102C1060.34 66.339 1060.07 66.517 1059.89 66.7443C1059.7 66.9678 1059.61 67.2557 1059.61 67.608C1059.61 68.1383 1059.8 68.5492 1060.18 68.8409C1060.55 69.1288 1061.03 69.2727 1061.6 69.2727ZM1068.95 58.3636V70H1067.93V58.3636H1068.95ZM1085.36 73.2727V61.2727H1086.34V62.9375H1086.46C1086.58 62.6761 1086.75 62.4091 1086.96 62.1364C1087.17 61.8598 1087.45 61.6269 1087.8 61.4375C1088.15 61.2481 1088.6 61.1534 1089.13 61.1534C1089.85 61.1534 1090.48 61.3428 1091.02 61.7216C1091.56 62.0966 1091.98 62.6231 1092.28 63.3011C1092.58 63.9754 1092.73 64.7614 1092.73 65.6591C1092.73 66.5606 1092.58 67.3504 1092.28 68.0284C1091.98 68.7064 1091.56 69.2348 1091.02 69.6136C1090.48 69.9924 1089.85 70.1818 1089.14 70.1818C1088.62 70.1818 1088.17 70.0871 1087.82 69.8977C1087.47 69.7083 1087.18 69.4754 1086.96 69.1989C1086.75 68.9186 1086.58 68.6458 1086.46 68.3807H1086.37V73.2727H1085.36ZM1086.36 65.642C1086.36 66.3466 1086.46 66.9716 1086.67 67.517C1086.88 68.0587 1087.19 68.4848 1087.58 68.7955C1087.98 69.1023 1088.46 69.2557 1089.02 69.2557C1089.6 69.2557 1090.09 69.0966 1090.49 68.7784C1090.89 68.4564 1091.2 68.0227 1091.4 67.4773C1091.62 66.9318 1091.72 66.3201 1091.72 65.642C1091.72 64.9716 1091.62 64.3674 1091.41 63.8295C1091.21 63.2917 1090.9 62.8655 1090.5 62.5511C1090.1 62.233 1089.61 62.0739 1089.02 62.0739C1088.46 62.0739 1087.97 62.2273 1087.57 62.5341C1087.18 62.8371 1086.87 63.2576 1086.67 63.7955C1086.46 64.3295 1086.36 64.9451 1086.36 65.642ZM1094.95 70V61.2727H1095.94V62.6136H1096.01C1096.18 62.1742 1096.49 61.8201 1096.92 61.5511C1097.35 61.2784 1097.85 61.142 1098.4 61.142C1098.48 61.142 1098.57 61.1439 1098.67 61.1477C1098.78 61.1515 1098.86 61.1553 1098.93 61.1591V62.1875C1098.88 62.1799 1098.8 62.1686 1098.69 62.1534C1098.58 62.1383 1098.45 62.1307 1098.32 62.1307C1097.87 62.1307 1097.46 62.2273 1097.11 62.4205C1096.75 62.6098 1096.48 62.8731 1096.27 63.2102C1096.07 63.5473 1095.96 63.9318 1095.96 64.3636V70H1094.95ZM1100.67 70V61.2727H1101.68V70H1100.67ZM1101.18 59.7727C1100.98 59.7727 1100.8 59.7027 1100.65 59.5625C1100.5 59.4186 1100.43 59.2462 1100.43 59.0455C1100.43 58.8447 1100.5 58.6742 1100.65 58.5341C1100.8 58.3902 1100.98 58.3182 1101.18 58.3182C1101.39 58.3182 1101.57 58.3902 1101.72 58.5341C1101.87 58.6742 1101.94 58.8447 1101.94 59.0455C1101.94 59.2462 1101.87 59.4186 1101.72 59.5625C1101.57 59.7027 1101.39 59.7727 1101.18 59.7727ZM1105.37 64.5455V70H1104.36V61.2727H1105.34V62.642H1105.43C1105.64 62.1951 1105.96 61.8371 1106.39 61.5682C1106.82 61.2955 1107.36 61.1591 1108 61.1591C1108.59 61.1591 1109.1 61.2822 1109.55 61.5284C1109.99 61.7708 1110.34 62.1288 1110.59 62.6023C1110.84 63.0758 1110.96 63.6572 1110.96 64.3466V70H1109.95V64.4091C1109.95 63.6932 1109.75 63.1269 1109.35 62.7102C1108.95 62.2936 1108.42 62.0852 1107.75 62.0852C1107.29 62.0852 1106.88 62.1837 1106.52 62.3807C1106.17 62.5777 1105.89 62.8617 1105.68 63.233C1105.47 63.6004 1105.37 64.0379 1105.37 64.5455ZM1117.03 70.1818C1116.25 70.1818 1115.57 69.9867 1114.99 69.5966C1114.42 69.2064 1113.97 68.6723 1113.65 67.9943C1113.33 67.3163 1113.18 66.5436 1113.18 65.6761C1113.18 64.8011 1113.34 64.0227 1113.66 63.3409C1113.98 62.6591 1114.43 62.125 1115.01 61.7386C1115.59 61.3485 1116.25 61.1534 1117.02 61.1534C1117.6 61.1534 1118.13 61.267 1118.6 61.4943C1119.08 61.7178 1119.47 62.0341 1119.77 62.4432C1120.08 62.8485 1120.28 63.322 1120.36 63.8636H1119.33C1119.23 63.3712 1118.97 62.9508 1118.57 62.6023C1118.17 62.25 1117.65 62.0739 1117.03 62.0739C1116.48 62.0739 1115.98 62.2254 1115.56 62.5284C1115.13 62.8277 1114.79 63.2462 1114.55 63.7841C1114.31 64.3182 1114.19 64.9375 1114.19 65.642C1114.19 66.3504 1114.31 66.9773 1114.54 67.5227C1114.78 68.0644 1115.11 68.4886 1115.53 68.7955C1115.96 69.1023 1116.46 69.2557 1117.03 69.2557C1117.42 69.2557 1117.77 69.1837 1118.09 69.0398C1118.41 68.892 1118.68 68.6837 1118.9 68.4148C1119.12 68.1458 1119.26 67.8258 1119.34 67.4545H1120.36C1120.29 67.9811 1120.1 68.4508 1119.8 68.8636C1119.5 69.2727 1119.12 69.5947 1118.65 69.8295C1118.18 70.0644 1117.64 70.1818 1117.03 70.1818ZM1122.54 70V61.2727H1123.56V70H1122.54ZM1123.06 59.7727C1122.85 59.7727 1122.67 59.7027 1122.52 59.5625C1122.38 59.4186 1122.3 59.2462 1122.3 59.0455C1122.3 58.8447 1122.38 58.6742 1122.52 58.5341C1122.67 58.3902 1122.85 58.3182 1123.06 58.3182C1123.27 58.3182 1123.45 58.3902 1123.59 58.5341C1123.74 58.6742 1123.81 58.8447 1123.81 59.0455C1123.81 59.2462 1123.74 59.4186 1123.59 59.5625C1123.45 59.7027 1123.27 59.7727 1123.06 59.7727ZM1126.23 73.2727V61.2727H1127.22V62.9375H1127.34C1127.46 62.6761 1127.62 62.4091 1127.84 62.1364C1128.05 61.8598 1128.33 61.6269 1128.68 61.4375C1129.03 61.2481 1129.47 61.1534 1130.01 61.1534C1130.73 61.1534 1131.35 61.3428 1131.89 61.7216C1132.43 62.0966 1132.85 62.6231 1133.15 63.3011C1133.46 63.9754 1133.61 64.7614 1133.61 65.6591C1133.61 66.5606 1133.46 67.3504 1133.15 68.0284C1132.85 68.7064 1132.43 69.2348 1131.89 69.6136C1131.35 69.9924 1130.73 70.1818 1130.02 70.1818C1129.49 70.1818 1129.05 70.0871 1128.69 69.8977C1128.34 69.7083 1128.06 69.4754 1127.84 69.1989C1127.62 68.9186 1127.45 68.6458 1127.34 68.3807H1127.25V73.2727H1126.23ZM1127.23 65.642C1127.23 66.3466 1127.34 66.9716 1127.55 67.517C1127.76 68.0587 1128.06 68.4848 1128.46 68.7955C1128.85 69.1023 1129.33 69.2557 1129.9 69.2557C1130.48 69.2557 1130.97 69.0966 1131.36 68.7784C1131.77 68.4564 1132.07 68.0227 1132.28 67.4773C1132.49 66.9318 1132.6 66.3201 1132.6 65.642C1132.6 64.9716 1132.49 64.3674 1132.28 63.8295C1132.08 63.2917 1131.78 62.8655 1131.38 62.5511C1130.97 62.233 1130.48 62.0739 1129.9 62.0739C1129.33 62.0739 1128.85 62.2273 1128.45 62.5341C1128.05 62.8371 1127.75 63.2576 1127.54 63.7955C1127.34 64.3295 1127.23 64.9451 1127.23 65.642ZM1136.84 58.3636V70H1135.83V58.3636H1136.84ZM1143.04 70.1818C1142.23 70.1818 1141.52 69.9924 1140.93 69.6136C1140.33 69.2311 1139.87 68.7027 1139.55 68.0284C1139.23 67.3504 1139.07 66.5701 1139.07 65.6875C1139.07 64.8087 1139.23 64.0284 1139.55 63.3466C1139.87 62.661 1140.32 62.125 1140.9 61.7386C1141.47 61.3485 1142.14 61.1534 1142.89 61.1534C1143.36 61.1534 1143.82 61.2405 1144.26 61.4148C1144.7 61.5852 1145.09 61.8485 1145.44 62.2045C1145.79 62.5568 1146.07 63.0019 1146.28 63.5398C1146.48 64.0739 1146.58 64.7064 1146.58 65.4375V65.9375H1139.76V65.0455H1145.55C1145.55 64.4848 1145.44 63.9811 1145.21 63.5341C1144.98 63.0833 1144.67 62.7273 1144.27 62.4659C1143.87 62.2045 1143.41 62.0739 1142.89 62.0739C1142.34 62.0739 1141.85 62.2216 1141.43 62.517C1141.01 62.8125 1140.68 63.2027 1140.44 63.6875C1140.21 64.1723 1140.09 64.7027 1140.08 65.2784V65.8125C1140.08 66.5057 1140.2 67.1117 1140.44 67.6307C1140.68 68.1458 1141.03 68.5455 1141.47 68.8295C1141.91 69.1136 1142.44 69.2557 1143.04 69.2557C1143.46 69.2557 1143.82 69.1913 1144.13 69.0625C1144.44 68.9337 1144.71 68.7614 1144.92 68.5455C1145.13 68.3258 1145.3 68.0852 1145.41 67.8239L1146.37 68.1364C1146.23 68.5038 1146.02 68.8428 1145.71 69.1534C1145.41 69.464 1145.04 69.714 1144.59 69.9034C1144.14 70.089 1143.63 70.1818 1143.04 70.1818ZM1154.68 63.1875L1153.75 63.4489C1153.66 63.1875 1153.53 62.9508 1153.36 62.7386C1153.2 62.5265 1152.98 62.358 1152.71 62.233C1152.44 62.108 1152.11 62.0455 1151.72 62.0455C1151.13 62.0455 1150.65 62.1856 1150.27 62.4659C1149.89 62.7462 1149.7 63.108 1149.7 63.5511C1149.7 63.9261 1149.83 64.2311 1150.08 64.4659C1150.35 64.697 1150.75 64.8807 1151.29 65.017L1152.61 65.3409C1153.34 65.5189 1153.89 65.8011 1154.25 66.1875C1154.62 66.5739 1154.8 67.0587 1154.8 67.642C1154.8 68.1345 1154.66 68.572 1154.39 68.9545C1154.12 69.3371 1153.74 69.6383 1153.25 69.858C1152.76 70.0739 1152.2 70.1818 1151.56 70.1818C1150.71 70.1818 1150.01 69.9905 1149.45 69.608C1148.9 69.2216 1148.55 68.6648 1148.39 67.9375L1149.36 67.6989C1149.49 68.2178 1149.73 68.6098 1150.1 68.875C1150.46 69.1402 1150.95 69.2727 1151.54 69.2727C1152.22 69.2727 1152.75 69.1231 1153.15 68.8239C1153.55 68.5208 1153.75 68.142 1153.75 67.6875C1153.75 67.3352 1153.64 67.0398 1153.4 66.8011C1153.17 66.5587 1152.81 66.3807 1152.33 66.267L1150.91 65.9261C1150.15 65.7443 1149.59 65.4564 1149.23 65.0625C1148.86 64.6686 1148.68 64.1799 1148.68 63.5966C1148.68 63.1155 1148.81 62.6932 1149.07 62.3295C1149.33 61.9621 1149.69 61.6742 1150.15 61.4659C1150.61 61.2576 1151.13 61.1534 1151.72 61.1534C1152.52 61.1534 1153.16 61.3352 1153.64 61.6989C1154.12 62.0587 1154.46 62.5549 1154.68 63.1875ZM1158.7 68.4091L1158.59 69.017C1158.53 69.4261 1158.44 69.8769 1158.32 70.3693C1158.2 70.8617 1158.08 71.3295 1157.96 71.7727C1157.83 72.2159 1157.73 72.572 1157.63 72.8409H1156.86C1156.91 72.5833 1156.97 72.2557 1157.04 71.858C1157.12 71.4602 1157.2 71.0189 1157.29 70.5341C1157.37 70.053 1157.45 69.5568 1157.51 69.0455L1157.59 68.4091H1158.7ZM1184.44 62H1183.37C1183.29 61.6023 1183.14 61.2348 1182.94 60.8977C1182.73 60.5568 1182.47 60.2595 1182.16 60.0057C1181.85 59.7519 1181.5 59.5549 1181.11 59.4148C1180.71 59.2746 1180.29 59.2045 1179.83 59.2045C1179.09 59.2045 1178.42 59.3958 1177.82 59.7784C1177.21 60.161 1176.73 60.7235 1176.37 61.4659C1176.01 62.2045 1175.83 63.1098 1175.83 64.1818C1175.83 65.2614 1176.01 66.1705 1176.37 66.9091C1176.73 67.6477 1177.21 68.2083 1177.82 68.5909C1178.42 68.9697 1179.09 69.1591 1179.83 69.1591C1180.29 69.1591 1180.71 69.089 1181.11 68.9489C1181.5 68.8087 1181.85 68.6136 1182.16 68.3636C1182.47 68.1098 1182.73 67.8125 1182.94 67.4716C1183.14 67.1307 1183.29 66.7614 1183.37 66.3636H1184.44C1184.34 66.8977 1184.16 67.3958 1183.9 67.858C1183.64 68.3163 1183.31 68.7178 1182.91 69.0625C1182.51 69.4072 1182.06 69.6761 1181.54 69.8693C1181.02 70.0625 1180.45 70.1591 1179.83 70.1591C1178.85 70.1591 1177.98 69.9148 1177.22 69.4261C1176.47 68.9337 1175.87 68.2405 1175.44 67.3466C1175.01 66.4527 1174.8 65.3977 1174.8 64.1818C1174.8 62.9659 1175.01 61.911 1175.44 61.017C1175.87 60.1231 1176.47 59.4318 1177.22 58.9432C1177.98 58.4508 1178.85 58.2045 1179.83 58.2045C1180.45 58.2045 1181.02 58.3011 1181.54 58.4943C1182.06 58.6837 1182.51 58.9527 1182.91 59.3011C1183.31 59.6458 1183.64 60.0473 1183.9 60.5057C1184.16 60.964 1184.34 61.4621 1184.44 62ZM1190.11 70.1818C1189.36 70.1818 1188.69 69.9905 1188.11 69.608C1187.54 69.2254 1187.09 68.697 1186.76 68.0227C1186.43 67.3447 1186.27 66.5625 1186.27 65.6761C1186.27 64.7822 1186.43 63.9962 1186.76 63.3182C1187.09 62.6364 1187.54 62.1061 1188.11 61.7273C1188.69 61.3447 1189.36 61.1534 1190.11 61.1534C1190.87 61.1534 1191.53 61.3447 1192.11 61.7273C1192.68 62.1098 1193.13 62.6402 1193.46 63.3182C1193.79 63.9962 1193.95 64.7822 1193.95 65.6761C1193.95 66.5625 1193.79 67.3447 1193.46 68.0227C1193.14 68.697 1192.69 69.2254 1192.11 69.608C1191.53 69.9905 1190.87 70.1818 1190.11 70.1818ZM1190.11 69.2557C1190.72 69.2557 1191.23 69.0928 1191.65 68.767C1192.07 68.4413 1192.39 68.0076 1192.61 67.4659C1192.83 66.9242 1192.94 66.3277 1192.94 65.6761C1192.94 65.0246 1192.83 64.4261 1192.61 63.8807C1192.39 63.3352 1192.07 62.8977 1191.65 62.5682C1191.23 62.2386 1190.72 62.0739 1190.11 62.0739C1189.51 62.0739 1189 62.2386 1188.57 62.5682C1188.15 62.8977 1187.83 63.3352 1187.61 63.8807C1187.4 64.4261 1187.29 65.0246 1187.29 65.6761C1187.29 66.3277 1187.4 66.9242 1187.61 67.4659C1187.83 68.0076 1188.15 68.4413 1188.57 68.767C1188.99 69.0928 1189.51 69.2557 1190.11 69.2557ZM1196.17 70V61.2727H1197.16V62.6136H1197.23C1197.4 62.1742 1197.71 61.8201 1198.14 61.5511C1198.58 61.2784 1199.07 61.142 1199.62 61.142C1199.7 61.142 1199.79 61.1439 1199.9 61.1477C1200 61.1515 1200.08 61.1553 1200.15 61.1591V62.1875C1200.11 62.1799 1200.03 62.1686 1199.91 62.1534C1199.8 62.1383 1199.68 62.1307 1199.54 62.1307C1199.09 62.1307 1198.68 62.2273 1198.33 62.4205C1197.97 62.6098 1197.7 62.8731 1197.49 63.2102C1197.29 63.5473 1197.19 63.9318 1197.19 64.3636V70H1196.17ZM1205.14 70.1818C1204.33 70.1818 1203.62 69.9924 1203.03 69.6136C1202.43 69.2311 1201.97 68.7027 1201.65 68.0284C1201.32 67.3504 1201.16 66.5701 1201.16 65.6875C1201.16 64.8087 1201.32 64.0284 1201.65 63.3466C1201.97 62.661 1202.42 62.125 1202.99 61.7386C1203.57 61.3485 1204.23 61.1534 1204.99 61.1534C1205.46 61.1534 1205.92 61.2405 1206.36 61.4148C1206.79 61.5852 1207.19 61.8485 1207.54 62.2045C1207.89 62.5568 1208.17 63.0019 1208.37 63.5398C1208.58 64.0739 1208.68 64.7064 1208.68 65.4375V65.9375H1201.86V65.0455H1207.65C1207.65 64.4848 1207.53 63.9811 1207.3 63.5341C1207.08 63.0833 1206.77 62.7273 1206.37 62.4659C1205.97 62.2045 1205.51 62.0739 1204.99 62.0739C1204.43 62.0739 1203.95 62.2216 1203.53 62.517C1203.11 62.8125 1202.78 63.2027 1202.54 63.6875C1202.3 64.1723 1202.18 64.7027 1202.18 65.2784V65.8125C1202.18 66.5057 1202.3 67.1117 1202.54 67.6307C1202.78 68.1458 1203.12 68.5455 1203.57 68.8295C1204.01 69.1136 1204.53 69.2557 1205.14 69.2557C1205.55 69.2557 1205.91 69.1913 1206.22 69.0625C1206.54 68.9337 1206.8 68.7614 1207.01 68.5455C1207.23 68.3258 1207.39 68.0852 1207.5 67.8239L1208.46 68.1364C1208.33 68.5038 1208.11 68.8428 1207.81 69.1534C1207.51 69.464 1207.14 69.714 1206.69 69.9034C1206.24 70.089 1205.72 70.1818 1205.14 70.1818ZM1224.87 58.3636L1228.51 68.6193H1228.61L1232.25 58.3636H1233.36L1229.13 70H1227.99L1223.76 58.3636H1224.87ZM1236.77 70.1989C1236.24 70.1989 1235.76 70.0966 1235.33 69.892C1234.89 69.6837 1234.54 69.3845 1234.29 68.9943C1234.03 68.6004 1233.9 68.1231 1233.9 67.5625C1233.9 67.1307 1233.98 66.767 1234.15 66.4716C1234.31 66.1761 1234.54 65.9337 1234.84 65.7443C1235.14 65.5549 1235.49 65.4053 1235.9 65.2955C1236.31 65.1856 1236.76 65.1004 1237.25 65.0398C1237.74 64.9792 1238.15 64.9261 1238.49 64.8807C1238.83 64.8352 1239.09 64.7633 1239.27 64.6648C1239.45 64.5663 1239.54 64.4072 1239.54 64.1875V63.983C1239.54 63.3883 1239.36 62.9205 1239 62.5795C1238.65 62.2348 1238.14 62.0625 1237.48 62.0625C1236.85 62.0625 1236.34 62.2008 1235.94 62.4773C1235.55 62.7538 1235.27 63.0795 1235.11 63.4545L1234.15 63.108C1234.35 62.6307 1234.62 62.25 1234.97 61.9659C1235.32 61.678 1235.71 61.4716 1236.14 61.3466C1236.57 61.2178 1237.01 61.1534 1237.45 61.1534C1237.79 61.1534 1238.13 61.197 1238.49 61.2841C1238.86 61.3712 1239.19 61.5227 1239.5 61.7386C1239.81 61.9508 1240.07 62.2481 1240.26 62.6307C1240.45 63.0095 1240.55 63.4905 1240.55 64.0739V70H1239.54V68.6193H1239.47C1239.35 68.8769 1239.17 69.1269 1238.93 69.3693C1238.7 69.6117 1238.4 69.8106 1238.04 69.9659C1237.68 70.1212 1237.25 70.1989 1236.77 70.1989ZM1236.91 69.2727C1237.44 69.2727 1237.91 69.1534 1238.3 68.9148C1238.7 68.6761 1239 68.3598 1239.21 67.9659C1239.43 67.5682 1239.54 67.1307 1239.54 66.6534V65.392C1239.46 65.464 1239.33 65.5284 1239.16 65.5852C1238.98 65.642 1238.78 65.6932 1238.55 65.7386C1238.32 65.7803 1238.09 65.8163 1237.87 65.8466C1237.64 65.8769 1237.43 65.9034 1237.25 65.9261C1236.76 65.9867 1236.34 66.0814 1235.99 66.2102C1235.64 66.339 1235.38 66.517 1235.19 66.7443C1235 66.9678 1234.91 67.2557 1234.91 67.608C1234.91 68.1383 1235.1 68.5492 1235.48 68.8409C1235.86 69.1288 1236.33 69.2727 1236.91 69.2727ZM1244.25 58.3636V70H1243.24V58.3636H1244.25ZM1252.47 66.6648V61.2727H1253.48V70H1252.47V68.5511H1252.39C1252.19 68.9981 1251.86 69.3712 1251.42 69.6705C1250.98 69.9659 1250.44 70.1136 1249.8 70.1136C1249.24 70.1136 1248.74 69.9924 1248.31 69.75C1247.88 69.5038 1247.54 69.1439 1247.3 68.6705C1247.05 68.197 1246.93 67.6155 1246.93 66.9261V61.2727H1247.94V66.8636C1247.94 67.5455 1248.14 68.0947 1248.54 68.5114C1248.94 68.9242 1249.46 69.1307 1250.09 69.1307C1250.48 69.1307 1250.86 69.036 1251.22 68.8466C1251.59 68.6572 1251.88 68.3807 1252.12 68.017C1252.35 67.6496 1252.47 67.1989 1252.47 66.6648ZM1259.69 70.1818C1258.87 70.1818 1258.17 69.9924 1257.58 69.6136C1256.98 69.2311 1256.52 68.7027 1256.19 68.0284C1255.87 67.3504 1255.71 66.5701 1255.71 65.6875C1255.71 64.8087 1255.87 64.0284 1256.19 63.3466C1256.52 62.661 1256.97 62.125 1257.54 61.7386C1258.12 61.3485 1258.78 61.1534 1259.54 61.1534C1260.01 61.1534 1260.47 61.2405 1260.91 61.4148C1261.34 61.5852 1261.74 61.8485 1262.09 62.2045C1262.44 62.5568 1262.72 63.0019 1262.92 63.5398C1263.13 64.0739 1263.23 64.7064 1263.23 65.4375V65.9375H1256.41V65.0455H1262.19C1262.19 64.4848 1262.08 63.9811 1261.85 63.5341C1261.63 63.0833 1261.32 62.7273 1260.92 62.4659C1260.52 62.2045 1260.06 62.0739 1259.54 62.0739C1258.98 62.0739 1258.5 62.2216 1258.08 62.517C1257.66 62.8125 1257.33 63.2027 1257.09 63.6875C1256.85 64.1723 1256.73 64.7027 1256.73 65.2784V65.8125C1256.73 66.5057 1256.85 67.1117 1257.09 67.6307C1257.33 68.1458 1257.67 68.5455 1258.12 68.8295C1258.56 69.1136 1259.08 69.2557 1259.69 69.2557C1260.1 69.2557 1260.46 69.1913 1260.77 69.0625C1261.09 68.9337 1261.35 68.7614 1261.56 68.5455C1261.78 68.3258 1261.94 68.0852 1262.05 67.8239L1263.01 68.1364C1262.88 68.5038 1262.66 68.8428 1262.36 69.1534C1262.06 69.464 1261.69 69.714 1261.23 69.9034C1260.79 70.089 1260.27 70.1818 1259.69 70.1818ZM1271.32 63.1875L1270.4 63.4489C1270.3 63.1875 1270.18 62.9508 1270.01 62.7386C1269.84 62.5265 1269.62 62.358 1269.36 62.233C1269.09 62.108 1268.76 62.0455 1268.37 62.0455C1267.78 62.0455 1267.29 62.1856 1266.91 62.4659C1266.53 62.7462 1266.34 63.108 1266.34 63.5511C1266.34 63.9261 1266.47 64.2311 1266.73 64.4659C1266.99 64.697 1267.39 64.8807 1267.93 65.017L1269.25 65.3409C1269.98 65.5189 1270.53 65.8011 1270.9 66.1875C1271.26 66.5739 1271.45 67.0587 1271.45 67.642C1271.45 68.1345 1271.31 68.572 1271.04 68.9545C1270.76 69.3371 1270.38 69.6383 1269.9 69.858C1269.41 70.0739 1268.85 70.1818 1268.21 70.1818C1267.36 70.1818 1266.65 69.9905 1266.1 69.608C1265.55 69.2216 1265.19 68.6648 1265.04 67.9375L1266.01 67.6989C1266.13 68.2178 1266.38 68.6098 1266.74 68.875C1267.11 69.1402 1267.59 69.2727 1268.19 69.2727C1268.86 69.2727 1269.4 69.1231 1269.8 68.8239C1270.2 68.5208 1270.4 68.142 1270.4 67.6875C1270.4 67.3352 1270.28 67.0398 1270.05 66.8011C1269.81 66.5587 1269.46 66.3807 1268.98 66.267L1267.55 65.9261C1266.8 65.7443 1266.24 65.4564 1265.87 65.0625C1265.51 64.6686 1265.33 64.1799 1265.33 63.5966C1265.33 63.1155 1265.46 62.6932 1265.72 62.3295C1265.98 61.9621 1266.34 61.6742 1266.8 61.4659C1267.26 61.2576 1267.78 61.1534 1268.37 61.1534C1269.17 61.1534 1269.8 61.3352 1270.28 61.6989C1270.76 62.0587 1271.11 62.5549 1271.32 63.1875ZM1290.51 70.1591C1289.8 70.1591 1289.17 70.0208 1288.64 69.7443C1288.1 69.464 1287.69 69.0833 1287.39 68.6023C1287.1 68.1212 1286.95 67.5777 1286.95 66.9716C1286.95 66.5322 1287.04 66.1364 1287.22 65.7841C1287.4 65.428 1287.66 65.0909 1288 64.7727C1288.34 64.4508 1288.75 64.1174 1289.24 63.7727L1290.93 62.517C1291.33 62.2292 1291.63 61.947 1291.84 61.6705C1292.05 61.3902 1292.16 61.0473 1292.16 60.642C1292.16 60.2519 1292.01 59.9034 1291.72 59.5966C1291.42 59.286 1291.05 59.1307 1290.58 59.1307C1290.25 59.1307 1289.96 59.2121 1289.7 59.375C1289.45 59.5379 1289.25 59.75 1289.1 60.0114C1288.95 60.2689 1288.88 60.5398 1288.88 60.8239C1288.88 61.089 1288.94 61.3561 1289.08 61.625C1289.22 61.8902 1289.4 62.1705 1289.63 62.4659C1289.86 62.7576 1290.12 63.0795 1290.4 63.4318L1295.72 70H1294.49L1289.86 64.3125C1289.47 63.8352 1289.12 63.4091 1288.82 63.0341C1288.52 62.6553 1288.28 62.2917 1288.1 61.9432C1287.93 61.5909 1287.84 61.214 1287.84 60.8125C1287.84 60.3163 1287.96 59.875 1288.19 59.4886C1288.42 59.0985 1288.74 58.7917 1289.14 58.5682C1289.55 58.3447 1290.02 58.233 1290.55 58.233C1291.08 58.233 1291.55 58.3428 1291.94 58.5625C1292.34 58.7822 1292.65 59.0739 1292.86 59.4375C1293.08 59.8011 1293.19 60.2027 1293.19 60.642C1293.19 61.1686 1293.06 61.6345 1292.78 62.0398C1292.52 62.4451 1292.12 62.8428 1291.61 63.233L1289.49 64.8125C1288.91 65.2481 1288.52 65.6515 1288.3 66.0227C1288.09 66.3939 1287.98 66.7102 1287.98 66.9716C1287.98 67.3807 1288.08 67.7576 1288.3 68.1023C1288.51 68.447 1288.8 68.7235 1289.18 68.9318C1289.55 69.1402 1289.99 69.2462 1290.48 69.25C1290.96 69.2462 1291.42 69.1496 1291.85 68.9602C1292.27 68.767 1292.66 68.4924 1292.99 68.1364C1293.34 67.7803 1293.61 67.3542 1293.81 66.858C1294.02 66.3617 1294.14 65.8087 1294.18 65.1989L1295.16 65.2102C1295.14 65.8352 1295.06 66.3655 1294.9 66.8011C1294.75 67.233 1294.58 67.589 1294.38 67.8693C1294.18 68.1496 1294.01 68.375 1293.86 68.5455C1293.82 68.6023 1293.78 68.6591 1293.74 68.7159C1293.7 68.7727 1293.65 68.8295 1293.61 68.8864C1293.23 69.303 1292.76 69.6193 1292.19 69.8352C1291.63 70.0511 1291.07 70.1591 1290.51 70.1591ZM890.659 82H889.591C889.511 81.6023 889.367 81.2348 889.159 80.8977C888.955 80.5568 888.697 80.2595 888.386 80.0057C888.076 79.7519 887.723 79.5549 887.33 79.4148C886.936 79.2746 886.509 79.2045 886.051 79.2045C885.316 79.2045 884.646 79.3958 884.04 79.7784C883.438 80.161 882.955 80.7235 882.591 81.4659C882.231 82.2045 882.051 83.1098 882.051 84.1818C882.051 85.2614 882.231 86.1705 882.591 86.9091C882.955 87.6477 883.438 88.2083 884.04 88.5909C884.646 88.9697 885.316 89.1591 886.051 89.1591C886.509 89.1591 886.936 89.089 887.33 88.9489C887.723 88.8087 888.076 88.6136 888.386 88.3636C888.697 88.1098 888.955 87.8125 889.159 87.4716C889.367 87.1307 889.511 86.7614 889.591 86.3636H890.659C890.564 86.8977 890.386 87.3958 890.125 87.858C889.867 88.3163 889.538 88.7178 889.136 89.0625C888.739 89.4072 888.28 89.6761 887.761 89.8693C887.242 90.0625 886.672 90.1591 886.051 90.1591C885.074 90.1591 884.206 89.9148 883.449 89.4261C882.691 88.9337 882.097 88.2405 881.665 87.3466C881.237 86.4527 881.023 85.3977 881.023 84.1818C881.023 82.9659 881.237 81.911 881.665 81.017C882.097 80.1231 882.691 79.4318 883.449 78.9432C884.206 78.4508 885.074 78.2045 886.051 78.2045C886.672 78.2045 887.242 78.3011 887.761 78.4943C888.28 78.6837 888.739 78.9527 889.136 79.3011C889.538 79.6458 889.867 80.0473 890.125 80.5057C890.386 80.964 890.564 81.4621 890.659 82ZM898.49 86.6648V81.2727H899.501V90H898.49V88.5511H898.411C898.206 88.9981 897.882 89.3712 897.439 89.6705C896.996 89.9659 896.454 90.1136 895.814 90.1136C895.257 90.1136 894.763 89.9924 894.331 89.75C893.899 89.5038 893.56 89.1439 893.314 88.6705C893.068 88.197 892.945 87.6155 892.945 86.9261V81.2727H893.956V86.8636C893.956 87.5455 894.157 88.0947 894.558 88.5114C894.96 88.9242 895.475 89.1307 896.104 89.1307C896.498 89.1307 896.876 89.036 897.24 88.8466C897.604 88.6572 897.903 88.3807 898.138 88.017C898.373 87.6496 898.49 87.1989 898.49 86.6648ZM903.19 78.3636V90H902.179V78.3636H903.19ZM909.304 81.2727V82.1534H905.139V81.2727H909.304ZM906.44 79.1818H907.457V87.7216C907.457 88.0852 907.52 88.3712 907.645 88.5795C907.77 88.7841 907.933 88.9299 908.134 89.017C908.334 89.1004 908.548 89.142 908.776 89.142C908.908 89.142 909.022 89.1345 909.116 89.1193C909.211 89.1004 909.295 89.0814 909.366 89.0625L909.582 89.9773C909.484 90.0152 909.363 90.0492 909.219 90.0795C909.075 90.1136 908.897 90.1307 908.685 90.1307C908.313 90.1307 907.955 90.0492 907.611 89.8864C907.27 89.7235 906.99 89.4811 906.77 89.1591C906.55 88.8371 906.44 88.4375 906.44 87.9602V79.1818ZM917.146 86.6648V81.2727H918.158V90H917.146V88.5511H917.067C916.862 88.9981 916.538 89.3712 916.095 89.6705C915.652 89.9659 915.11 90.1136 914.47 90.1136C913.913 90.1136 913.419 89.9924 912.987 89.75C912.555 89.5038 912.216 89.1439 911.97 88.6705C911.724 88.197 911.601 87.6155 911.601 86.9261V81.2727H912.612V86.8636C912.612 87.5455 912.813 88.0947 913.214 88.5114C913.616 88.9242 914.131 89.1307 914.76 89.1307C915.154 89.1307 915.533 89.036 915.896 88.8466C916.26 88.6572 916.559 88.3807 916.794 88.017C917.029 87.6496 917.146 87.1989 917.146 86.6648ZM920.835 90V81.2727H921.818V82.6136H921.892C922.066 82.1742 922.369 81.8201 922.801 81.5511C923.237 81.2784 923.729 81.142 924.278 81.142C924.362 81.142 924.455 81.1439 924.557 81.1477C924.659 81.1515 924.744 81.1553 924.812 81.1591V82.1875C924.767 82.1799 924.688 82.1686 924.574 82.1534C924.46 82.1383 924.337 82.1307 924.205 82.1307C923.75 82.1307 923.345 82.2273 922.989 82.4205C922.636 82.6098 922.358 82.8731 922.153 83.2102C921.949 83.5473 921.847 83.9318 921.847 84.3636V90H920.835ZM928.976 90.1989C928.449 90.1989 927.968 90.0966 927.533 89.892C927.097 89.6837 926.75 89.3845 926.493 88.9943C926.235 88.6004 926.107 88.1231 926.107 87.5625C926.107 87.1307 926.188 86.767 926.351 86.4716C926.514 86.1761 926.745 85.9337 927.044 85.7443C927.343 85.5549 927.697 85.4053 928.107 85.2955C928.516 85.1856 928.966 85.1004 929.459 85.0398C929.947 84.9792 930.36 84.9261 930.697 84.8807C931.038 84.8352 931.298 84.7633 931.476 84.6648C931.654 84.5663 931.743 84.4072 931.743 84.1875V83.983C931.743 83.3883 931.565 82.9205 931.209 82.5795C930.857 82.2348 930.349 82.0625 929.686 82.0625C929.057 82.0625 928.544 82.2008 928.146 82.4773C927.752 82.7538 927.476 83.0795 927.317 83.4545L926.357 83.108C926.554 82.6307 926.826 82.25 927.175 81.9659C927.523 81.678 927.913 81.4716 928.345 81.3466C928.777 81.2178 929.214 81.1534 929.658 81.1534C929.991 81.1534 930.338 81.197 930.697 81.2841C931.061 81.3712 931.398 81.5227 931.709 81.7386C932.019 81.9508 932.271 82.2481 932.464 82.6307C932.658 83.0095 932.754 83.4905 932.754 84.0739V90H931.743V88.6193H931.68C931.559 88.8769 931.379 89.1269 931.141 89.3693C930.902 89.6117 930.603 89.8106 930.243 89.9659C929.883 90.1212 929.461 90.1989 928.976 90.1989ZM929.112 89.2727C929.65 89.2727 930.116 89.1534 930.51 88.9148C930.904 88.6761 931.207 88.3598 931.419 87.9659C931.635 87.5682 931.743 87.1307 931.743 86.6534V85.392C931.667 85.464 931.54 85.5284 931.362 85.5852C931.188 85.642 930.985 85.6932 930.754 85.7386C930.527 85.7803 930.3 85.8163 930.072 85.8466C929.845 85.8769 929.641 85.9034 929.459 85.9261C928.966 85.9867 928.546 86.0814 928.197 86.2102C927.849 86.339 927.582 86.517 927.396 86.7443C927.211 86.9678 927.118 87.2557 927.118 87.608C927.118 88.1383 927.307 88.5492 927.686 88.8409C928.065 89.1288 928.54 89.2727 929.112 89.2727ZM936.456 78.3636V90H935.445V78.3636H936.456ZM943.842 90V78.3636H947.598C948.424 78.3636 949.113 78.5227 949.666 78.8409C950.223 79.1553 950.642 79.5833 950.922 80.125C951.206 80.6667 951.348 81.2765 951.348 81.9545C951.348 82.6326 951.208 83.2443 950.928 83.7898C950.647 84.3314 950.231 84.7614 949.678 85.0795C949.125 85.3939 948.437 85.5511 947.615 85.5511H944.661V84.5966H947.587C948.196 84.5966 948.702 84.483 949.104 84.2557C949.505 84.0246 949.804 83.7102 950.001 83.3125C950.202 82.9148 950.303 82.4621 950.303 81.9545C950.303 81.447 950.202 80.9943 950.001 80.5966C949.804 80.1989 949.503 79.8864 949.098 79.6591C948.696 79.4318 948.187 79.3182 947.57 79.3182H944.905V90H943.842ZM953.632 90V81.2727H954.615V82.6136H954.689C954.863 82.1742 955.166 81.8201 955.598 81.5511C956.034 81.2784 956.526 81.142 957.075 81.142C957.159 81.142 957.251 81.1439 957.354 81.1477C957.456 81.1515 957.541 81.1553 957.609 81.1591V82.1875C957.564 82.1799 957.484 82.1686 957.371 82.1534C957.257 82.1383 957.134 82.1307 957.001 82.1307C956.547 82.1307 956.142 82.2273 955.786 82.4205C955.433 82.6098 955.155 82.8731 954.95 83.2102C954.746 83.5473 954.643 83.9318 954.643 84.3636V90H953.632ZM959.347 90V81.2727H960.364V90H959.347ZM959.864 79.7727C959.655 79.7727 959.477 79.7027 959.33 79.5625C959.182 79.4186 959.108 79.2462 959.108 79.0455C959.108 78.8447 959.182 78.6742 959.33 78.5341C959.477 78.3902 959.655 78.3182 959.864 78.3182C960.072 78.3182 960.25 78.3902 960.398 78.5341C960.545 78.6742 960.619 78.8447 960.619 79.0455C960.619 79.2462 960.545 79.4186 960.398 79.5625C960.25 79.7027 960.072 79.7727 959.864 79.7727ZM964.05 84.5455V90H963.038V81.2727H964.021V82.642H964.112C964.317 82.1951 964.635 81.8371 965.067 81.5682C965.502 81.2955 966.04 81.1591 966.68 81.1591C967.268 81.1591 967.783 81.2822 968.226 81.5284C968.673 81.7708 969.019 82.1288 969.266 82.6023C969.516 83.0758 969.641 83.6572 969.641 84.3466V90H968.629V84.4091C968.629 83.6932 968.429 83.1269 968.027 82.7102C967.629 82.2936 967.095 82.0852 966.425 82.0852C965.966 82.0852 965.559 82.1837 965.203 82.3807C964.847 82.5777 964.565 82.8617 964.357 83.233C964.152 83.6004 964.05 84.0379 964.05 84.5455ZM975.713 90.1818C974.933 90.1818 974.253 89.9867 973.673 89.5966C973.098 89.2064 972.651 88.6723 972.332 87.9943C972.014 87.3163 971.855 86.5436 971.855 85.6761C971.855 84.8011 972.016 84.0227 972.338 83.3409C972.664 82.6591 973.115 82.125 973.69 81.7386C974.266 81.3485 974.935 81.1534 975.696 81.1534C976.279 81.1534 976.808 81.267 977.281 81.4943C977.755 81.7178 978.145 82.0341 978.452 82.4432C978.762 82.8485 978.957 83.322 979.037 83.8636H978.014C977.908 83.3712 977.652 82.9508 977.247 82.6023C976.846 82.25 976.334 82.0739 975.713 82.0739C975.156 82.0739 974.664 82.2254 974.236 82.5284C973.808 82.8277 973.473 83.2462 973.23 83.7841C972.991 84.3182 972.872 84.9375 972.872 85.642C972.872 86.3504 972.99 86.9773 973.224 87.5227C973.459 88.0644 973.789 88.4886 974.213 88.7955C974.641 89.1023 975.141 89.2557 975.713 89.2557C976.099 89.2557 976.452 89.1837 976.77 89.0398C977.092 88.892 977.361 88.6837 977.577 88.4148C977.796 88.1458 977.944 87.8258 978.02 87.4545H979.043C978.967 87.9811 978.779 88.4508 978.48 88.8636C978.185 89.2727 977.8 89.5947 977.327 89.8295C976.857 90.0644 976.319 90.1818 975.713 90.1818ZM981.222 90V81.2727H982.239V90H981.222ZM981.739 79.7727C981.53 79.7727 981.352 79.7027 981.205 79.5625C981.057 79.4186 980.983 79.2462 980.983 79.0455C980.983 78.8447 981.057 78.6742 981.205 78.5341C981.352 78.3902 981.53 78.3182 981.739 78.3182C981.947 78.3182 982.125 78.3902 982.273 78.5341C982.42 78.6742 982.494 78.8447 982.494 79.0455C982.494 79.2462 982.42 79.4186 982.273 79.5625C982.125 79.7027 981.947 79.7727 981.739 79.7727ZM984.913 93.2727V81.2727H985.896V82.9375H986.016C986.137 82.6761 986.304 82.4091 986.516 82.1364C986.728 81.8598 987.008 81.6269 987.357 81.4375C987.709 81.2481 988.152 81.1534 988.686 81.1534C989.406 81.1534 990.035 81.3428 990.572 81.7216C991.114 82.0966 991.535 82.6231 991.834 83.3011C992.137 83.9754 992.288 84.7614 992.288 85.6591C992.288 86.5606 992.137 87.3504 991.834 88.0284C991.535 88.7064 991.114 89.2348 990.572 89.6136C990.035 89.9924 989.41 90.1818 988.697 90.1818C988.171 90.1818 987.73 90.0871 987.374 89.8977C987.021 89.7083 986.735 89.4754 986.516 89.1989C986.3 88.9186 986.133 88.6458 986.016 88.3807H985.925V93.2727H984.913ZM985.913 85.642C985.913 86.3466 986.018 86.9716 986.226 87.517C986.438 88.0587 986.741 88.4848 987.135 88.7955C987.533 89.1023 988.014 89.2557 988.578 89.2557C989.158 89.2557 989.646 89.0966 990.044 88.7784C990.446 88.4564 990.75 88.0227 990.959 87.4773C991.171 86.9318 991.277 86.3201 991.277 85.642C991.277 84.9716 991.173 84.3674 990.964 83.8295C990.76 83.2917 990.457 82.8655 990.055 82.5511C989.654 82.233 989.161 82.0739 988.578 82.0739C988.01 82.0739 987.527 82.2273 987.129 82.5341C986.732 82.8371 986.429 83.2576 986.22 83.7955C986.016 84.3295 985.913 84.9451 985.913 85.642ZM995.518 78.3636V90H994.507V78.3636H995.518ZM1001.72 90.1818C1000.91 90.1818 1000.2 89.9924 999.609 89.6136C999.015 89.2311 998.554 88.7027 998.229 88.0284C997.907 87.3504 997.746 86.5701 997.746 85.6875C997.746 84.8087 997.907 84.0284 998.229 83.3466C998.554 82.661 999.003 82.125 999.575 81.7386C1000.15 81.3485 1000.82 81.1534 1001.57 81.1534C1002.04 81.1534 1002.5 81.2405 1002.94 81.4148C1003.38 81.5852 1003.77 81.8485 1004.12 82.2045C1004.47 82.5568 1004.75 83.0019 1004.96 83.5398C1005.16 84.0739 1005.26 84.7064 1005.26 85.4375V85.9375H998.445V85.0455H1004.23C1004.23 84.4848 1004.12 83.9811 1003.89 83.5341C1003.66 83.0833 1003.35 82.7273 1002.95 82.4659C1002.55 82.2045 1002.09 82.0739 1001.57 82.0739C1001.02 82.0739 1000.53 82.2216 1000.11 82.517C999.689 82.8125 999.359 83.2027 999.121 83.6875C998.886 84.1723 998.767 84.7027 998.763 85.2784V85.8125C998.763 86.5057 998.882 87.1117 999.121 87.6307C999.363 88.1458 999.706 88.5455 1000.15 88.8295C1000.59 89.1136 1001.12 89.2557 1001.72 89.2557C1002.14 89.2557 1002.5 89.1913 1002.81 89.0625C1003.12 88.9337 1003.39 88.7614 1003.6 88.5455C1003.81 88.3258 1003.98 88.0852 1004.09 87.8239L1005.05 88.1364C1004.91 88.5038 1004.7 88.8428 1004.39 89.1534C1004.09 89.464 1003.72 89.714 1003.27 89.9034C1002.82 90.089 1002.31 90.1818 1001.72 90.1818ZM1013.36 83.1875L1012.43 83.4489C1012.34 83.1875 1012.21 82.9508 1012.04 82.7386C1011.88 82.5265 1011.66 82.358 1011.39 82.233C1011.12 82.108 1010.79 82.0455 1010.4 82.0455C1009.81 82.0455 1009.32 82.1856 1008.95 82.4659C1008.57 82.7462 1008.38 83.108 1008.38 83.5511C1008.38 83.9261 1008.51 84.2311 1008.76 84.4659C1009.03 84.697 1009.43 84.8807 1009.97 85.017L1011.29 85.3409C1012.02 85.5189 1012.57 85.8011 1012.93 86.1875C1013.3 86.5739 1013.48 87.0587 1013.48 87.642C1013.48 88.1345 1013.34 88.572 1013.07 88.9545C1012.8 89.3371 1012.42 89.6383 1011.93 89.858C1011.44 90.0739 1010.88 90.1818 1010.24 90.1818C1009.39 90.1818 1008.69 89.9905 1008.13 89.608C1007.58 89.2216 1007.23 88.6648 1007.07 87.9375L1008.04 87.6989C1008.17 88.2178 1008.41 88.6098 1008.78 88.875C1009.14 89.1402 1009.63 89.2727 1010.22 89.2727C1010.89 89.2727 1011.43 89.1231 1011.83 88.8239C1012.23 88.5208 1012.43 88.142 1012.43 87.6875C1012.43 87.3352 1012.32 87.0398 1012.08 86.8011C1011.85 86.5587 1011.49 86.3807 1011.01 86.267L1009.59 85.9261C1008.83 85.7443 1008.27 85.4564 1007.91 85.0625C1007.54 84.6686 1007.36 84.1799 1007.36 83.5966C1007.36 83.1155 1007.49 82.6932 1007.75 82.3295C1008.01 81.9621 1008.37 81.6742 1008.83 81.4659C1009.29 81.2576 1009.81 81.1534 1010.4 81.1534C1011.2 81.1534 1011.84 81.3352 1012.32 81.6989C1012.8 82.0587 1013.14 82.5549 1013.36 83.1875ZM1020.19 90V81.2727H1021.18V82.6136H1021.27C1021.44 82.1629 1021.73 81.8087 1022.14 81.5511C1022.55 81.2898 1023.04 81.1591 1023.61 81.1591C1024.21 81.1591 1024.71 81.3011 1025.09 81.5852C1025.48 81.8655 1025.77 82.2519 1025.97 82.7443H1026.04C1026.24 82.2595 1026.56 81.875 1027 81.5909C1027.45 81.303 1027.99 81.1591 1028.63 81.1591C1029.44 81.1591 1030.08 81.4148 1030.55 81.9261C1031.02 82.4337 1031.25 83.1761 1031.25 84.1534V90H1030.24V84.1534C1030.24 83.464 1030.06 82.947 1029.71 82.6023C1029.36 82.2576 1028.9 82.0852 1028.32 82.0852C1027.65 82.0852 1027.14 82.2898 1026.78 82.6989C1026.42 83.108 1026.24 83.6269 1026.24 84.2557V90H1025.21V84.0625C1025.21 83.4716 1025.04 82.9943 1024.71 82.6307C1024.38 82.267 1023.92 82.0852 1023.32 82.0852C1022.92 82.0852 1022.56 82.1837 1022.23 82.3807C1021.92 82.5777 1021.66 82.8523 1021.48 83.2045C1021.3 83.553 1021.21 83.9545 1021.21 84.4091V90H1020.19ZM1039.47 86.6648V81.2727H1040.49V90H1039.47V88.5511H1039.39C1039.19 88.9981 1038.87 89.3712 1038.42 89.6705C1037.98 89.9659 1037.44 90.1136 1036.8 90.1136C1036.24 90.1136 1035.75 89.9924 1035.32 89.75C1034.88 89.5038 1034.54 89.1439 1034.3 88.6705C1034.05 88.197 1033.93 87.6155 1033.93 86.9261V81.2727H1034.94V86.8636C1034.94 87.5455 1035.14 88.0947 1035.54 88.5114C1035.94 88.9242 1036.46 89.1307 1037.09 89.1307C1037.48 89.1307 1037.86 89.036 1038.22 88.8466C1038.59 88.6572 1038.89 88.3807 1039.12 88.017C1039.36 87.6496 1039.47 87.1989 1039.47 86.6648ZM1049.03 83.1875L1048.1 83.4489C1048.01 83.1875 1047.88 82.9508 1047.71 82.7386C1047.55 82.5265 1047.33 82.358 1047.06 82.233C1046.8 82.108 1046.47 82.0455 1046.07 82.0455C1045.48 82.0455 1045 82.1856 1044.62 82.4659C1044.24 82.7462 1044.05 83.108 1044.05 83.5511C1044.05 83.9261 1044.18 84.2311 1044.44 84.4659C1044.7 84.697 1045.1 84.8807 1045.64 85.017L1046.96 85.3409C1047.69 85.5189 1048.24 85.8011 1048.6 86.1875C1048.97 86.5739 1049.15 87.0587 1049.15 87.642C1049.15 88.1345 1049.02 88.572 1048.74 88.9545C1048.47 89.3371 1048.09 89.6383 1047.6 89.858C1047.12 90.0739 1046.55 90.1818 1045.91 90.1818C1045.06 90.1818 1044.36 89.9905 1043.81 89.608C1043.25 89.2216 1042.9 88.6648 1042.74 87.9375L1043.71 87.6989C1043.84 88.2178 1044.08 88.6098 1044.45 88.875C1044.81 89.1402 1045.3 89.2727 1045.9 89.2727C1046.57 89.2727 1047.1 89.1231 1047.5 88.8239C1047.91 88.5208 1048.11 88.142 1048.11 87.6875C1048.11 87.3352 1047.99 87.0398 1047.75 86.8011C1047.52 86.5587 1047.16 86.3807 1046.69 86.267L1045.26 85.9261C1044.5 85.7443 1043.94 85.4564 1043.58 85.0625C1043.21 84.6686 1043.03 84.1799 1043.03 83.5966C1043.03 83.1155 1043.16 82.6932 1043.42 82.3295C1043.69 81.9621 1044.05 81.6742 1044.5 81.4659C1044.96 81.2576 1045.49 81.1534 1046.07 81.1534C1046.87 81.1534 1047.51 81.3352 1047.99 81.6989C1048.47 82.0587 1048.81 82.5549 1049.03 83.1875ZM1054.8 81.2727V82.1534H1050.64V81.2727H1054.8ZM1051.94 79.1818H1052.96V87.7216C1052.96 88.0852 1053.02 88.3712 1053.14 88.5795C1053.27 88.7841 1053.43 88.9299 1053.63 89.017C1053.83 89.1004 1054.05 89.142 1054.28 89.142C1054.41 89.142 1054.52 89.1345 1054.62 89.1193C1054.71 89.1004 1054.79 89.0814 1054.87 89.0625L1055.08 89.9773C1054.98 90.0152 1054.86 90.0492 1054.72 90.0795C1054.57 90.1136 1054.4 90.1307 1054.18 90.1307C1053.81 90.1307 1053.46 90.0492 1053.11 89.8864C1052.77 89.7235 1052.49 89.4811 1052.27 89.1591C1052.05 88.8371 1051.94 88.4375 1051.94 87.9602V79.1818ZM1064.93 93.4545C1064.34 93.4545 1063.81 93.3769 1063.37 93.2216C1062.92 93.0701 1062.54 92.8617 1062.24 92.5966C1061.93 92.3314 1061.69 92.0341 1061.52 91.7045L1062.35 91.1591C1062.48 91.3788 1062.64 91.5947 1062.85 91.8068C1063.06 92.0189 1063.34 92.1951 1063.67 92.3352C1064.02 92.4754 1064.43 92.5455 1064.93 92.5455C1065.7 92.5455 1066.33 92.3523 1066.8 91.9659C1067.28 91.5795 1067.52 90.9792 1067.52 90.1648V88.1989H1067.42C1067.31 88.464 1067.14 88.7292 1066.92 88.9943C1066.7 89.2557 1066.41 89.4735 1066.06 89.6477C1065.7 89.822 1065.27 89.9091 1064.74 89.9091C1064.05 89.9091 1063.43 89.7367 1062.88 89.392C1062.35 89.0473 1061.92 88.5549 1061.61 87.9148C1061.31 87.2708 1061.15 86.5038 1061.15 85.6136C1061.15 84.7311 1061.3 83.9545 1061.6 83.2841C1061.9 82.6136 1062.33 82.0909 1062.87 81.7159C1063.41 81.3409 1064.04 81.1534 1064.76 81.1534C1065.29 81.1534 1065.74 81.2481 1066.09 81.4375C1066.44 81.6231 1066.72 81.8542 1066.94 82.1307C1067.15 82.4072 1067.32 82.6761 1067.44 82.9375H1067.54V81.2727H1068.53V90.2273C1068.53 90.9659 1068.38 91.5739 1068.06 92.0511C1067.75 92.5284 1067.32 92.8807 1066.78 93.108C1066.24 93.339 1065.62 93.4545 1064.93 93.4545ZM1064.86 88.983C1065.42 88.983 1065.9 88.8485 1066.3 88.5795C1066.7 88.3068 1067 87.9167 1067.21 87.4091C1067.43 86.9015 1067.53 86.2973 1067.53 85.5966C1067.53 84.9148 1067.43 84.3106 1067.22 83.7841C1067.01 83.2538 1066.71 82.8371 1066.31 82.5341C1065.92 82.2273 1065.43 82.0739 1064.86 82.0739C1064.28 82.0739 1063.79 82.2311 1063.38 82.5455C1062.98 82.8598 1062.68 83.2841 1062.48 83.8182C1062.27 84.3485 1062.17 84.9413 1062.17 85.5966C1062.17 86.2633 1062.27 86.8523 1062.48 87.3636C1062.69 87.8712 1062.99 88.2689 1063.4 88.5568C1063.8 88.8409 1064.29 88.983 1064.86 88.983ZM1074.6 90.1818C1073.85 90.1818 1073.18 89.9905 1072.6 89.608C1072.03 89.2254 1071.58 88.697 1071.25 88.0227C1070.92 87.3447 1070.76 86.5625 1070.76 85.6761C1070.76 84.7822 1070.92 83.9962 1071.25 83.3182C1071.58 82.6364 1072.03 82.1061 1072.6 81.7273C1073.18 81.3447 1073.85 81.1534 1074.6 81.1534C1075.36 81.1534 1076.02 81.3447 1076.6 81.7273C1077.17 82.1098 1077.62 82.6402 1077.95 83.3182C1078.28 83.9962 1078.44 84.7822 1078.44 85.6761C1078.44 86.5625 1078.28 87.3447 1077.95 88.0227C1077.63 88.697 1077.18 89.2254 1076.6 89.608C1076.02 89.9905 1075.36 90.1818 1074.6 90.1818ZM1074.6 89.2557C1075.21 89.2557 1075.72 89.0928 1076.14 88.767C1076.56 88.4413 1076.88 88.0076 1077.1 87.4659C1077.32 86.9242 1077.43 86.3277 1077.43 85.6761C1077.43 85.0246 1077.32 84.4261 1077.1 83.8807C1076.88 83.3352 1076.56 82.8977 1076.14 82.5682C1075.72 82.2386 1075.21 82.0739 1074.6 82.0739C1074 82.0739 1073.49 82.2386 1073.06 82.5682C1072.64 82.8977 1072.32 83.3352 1072.1 83.8807C1071.89 84.4261 1071.78 85.0246 1071.78 85.6761C1071.78 86.3277 1071.89 86.9242 1072.1 87.4659C1072.32 88.0076 1072.64 88.4413 1073.06 88.767C1073.48 89.0928 1074 89.2557 1074.6 89.2557ZM1088.6 81.2727V82.1534H1084.44V81.2727H1088.6ZM1085.74 79.1818H1086.75V87.7216C1086.75 88.0852 1086.82 88.3712 1086.94 88.5795C1087.07 88.7841 1087.23 88.9299 1087.43 89.017C1087.63 89.1004 1087.85 89.142 1088.07 89.142C1088.21 89.142 1088.32 89.1345 1088.41 89.1193C1088.51 89.1004 1088.59 89.0814 1088.66 89.0625L1088.88 89.9773C1088.78 90.0152 1088.66 90.0492 1088.52 90.0795C1088.37 90.1136 1088.19 90.1307 1087.98 90.1307C1087.61 90.1307 1087.25 90.0492 1086.91 89.8864C1086.57 89.7235 1086.29 89.4811 1086.07 89.1591C1085.85 88.8371 1085.74 88.4375 1085.74 87.9602V79.1818ZM1094.2 90.1818C1093.44 90.1818 1092.78 89.9905 1092.2 89.608C1091.62 89.2254 1091.17 88.697 1090.84 88.0227C1090.52 87.3447 1090.36 86.5625 1090.36 85.6761C1090.36 84.7822 1090.52 83.9962 1090.84 83.3182C1091.17 82.6364 1091.62 82.1061 1092.2 81.7273C1092.78 81.3447 1093.44 81.1534 1094.2 81.1534C1094.95 81.1534 1095.61 81.3447 1096.19 81.7273C1096.77 82.1098 1097.22 82.6402 1097.54 83.3182C1097.87 83.9962 1098.04 84.7822 1098.04 85.6761C1098.04 86.5625 1097.87 87.3447 1097.55 88.0227C1097.22 88.697 1096.77 89.2254 1096.19 89.608C1095.61 89.9905 1094.95 90.1818 1094.2 90.1818ZM1094.2 89.2557C1094.8 89.2557 1095.32 89.0928 1095.74 88.767C1096.16 88.4413 1096.47 88.0076 1096.69 87.4659C1096.91 86.9242 1097.02 86.3277 1097.02 85.6761C1097.02 85.0246 1096.91 84.4261 1096.69 83.8807C1096.47 83.3352 1096.16 82.8977 1095.74 82.5682C1095.32 82.2386 1094.8 82.0739 1094.2 82.0739C1093.59 82.0739 1093.08 82.2386 1092.66 82.5682C1092.24 82.8977 1091.92 83.3352 1091.7 83.8807C1091.48 84.4261 1091.37 85.0246 1091.37 85.6761C1091.37 86.3277 1091.48 86.9242 1091.7 87.4659C1091.92 88.0076 1092.24 88.4413 1092.66 88.767C1093.08 89.0928 1093.59 89.2557 1094.2 89.2557ZM1103.59 93.4545C1102.99 93.4545 1102.47 93.3769 1102.02 93.2216C1101.58 93.0701 1101.2 92.8617 1100.89 92.5966C1100.59 92.3314 1100.35 92.0341 1100.18 91.7045L1101.01 91.1591C1101.13 91.3788 1101.3 91.5947 1101.51 91.8068C1101.72 92.0189 1101.99 92.1951 1102.33 92.3352C1102.67 92.4754 1103.09 92.5455 1103.59 92.5455C1104.36 92.5455 1104.98 92.3523 1105.46 91.9659C1105.93 91.5795 1106.17 90.9792 1106.17 90.1648V88.1989H1106.08C1105.96 88.464 1105.79 88.7292 1105.58 88.9943C1105.36 89.2557 1105.07 89.4735 1104.71 89.6477C1104.36 89.822 1103.92 89.9091 1103.4 89.9091C1102.7 89.9091 1102.08 89.7367 1101.54 89.392C1101 89.0473 1100.58 88.5549 1100.27 87.9148C1099.96 87.2708 1099.81 86.5038 1099.81 85.6136C1099.81 84.7311 1099.96 83.9545 1100.26 83.2841C1100.56 82.6136 1100.98 82.0909 1101.52 81.7159C1102.07 81.3409 1102.7 81.1534 1103.42 81.1534C1103.95 81.1534 1104.39 81.2481 1104.75 81.4375C1105.1 81.6231 1105.38 81.8542 1105.59 82.1307C1105.81 82.4072 1105.98 82.6761 1106.1 82.9375H1106.2V81.2727H1107.19V90.2273C1107.19 90.9659 1107.03 91.5739 1106.72 92.0511C1106.4 92.5284 1105.97 92.8807 1105.43 93.108C1104.89 93.339 1104.28 93.4545 1103.59 93.4545ZM1103.52 88.983C1104.08 88.983 1104.56 88.8485 1104.96 88.5795C1105.35 88.3068 1105.66 87.9167 1105.87 87.4091C1106.08 86.9015 1106.19 86.2973 1106.19 85.5966C1106.19 84.9148 1106.08 84.3106 1105.88 83.7841C1105.67 83.2538 1105.37 82.8371 1104.97 82.5341C1104.57 82.2273 1104.09 82.0739 1103.52 82.0739C1102.94 82.0739 1102.44 82.2311 1102.04 82.5455C1101.64 82.8598 1101.34 83.2841 1101.13 83.8182C1100.93 84.3485 1100.83 84.9413 1100.83 85.5966C1100.83 86.2633 1100.93 86.8523 1101.14 87.3636C1101.35 87.8712 1101.65 88.2689 1102.05 88.5568C1102.45 88.8409 1102.94 88.983 1103.52 88.983ZM1113.39 90.1818C1112.58 90.1818 1111.88 89.9924 1111.28 89.6136C1110.69 89.2311 1110.23 88.7027 1109.9 88.0284C1109.58 87.3504 1109.42 86.5701 1109.42 85.6875C1109.42 84.8087 1109.58 84.0284 1109.9 83.3466C1110.23 82.661 1110.68 82.125 1111.25 81.7386C1111.82 81.3485 1112.49 81.1534 1113.24 81.1534C1113.71 81.1534 1114.17 81.2405 1114.61 81.4148C1115.05 81.5852 1115.44 81.8485 1115.79 82.2045C1116.14 82.5568 1116.42 83.0019 1116.63 83.5398C1116.83 84.0739 1116.93 84.7064 1116.93 85.4375V85.9375H1110.12V85.0455H1115.9C1115.9 84.4848 1115.79 83.9811 1115.56 83.5341C1115.34 83.0833 1115.02 82.7273 1114.62 82.4659C1114.22 82.2045 1113.76 82.0739 1113.24 82.0739C1112.69 82.0739 1112.2 82.2216 1111.78 82.517C1111.36 82.8125 1111.03 83.2027 1110.79 83.6875C1110.56 84.1723 1110.44 84.7027 1110.43 85.2784V85.8125C1110.43 86.5057 1110.55 87.1117 1110.79 87.6307C1111.04 88.1458 1111.38 88.5455 1111.82 88.8295C1112.26 89.1136 1112.79 89.2557 1113.39 89.2557C1113.81 89.2557 1114.17 89.1913 1114.48 89.0625C1114.79 88.9337 1115.06 88.7614 1115.27 88.5455C1115.49 88.3258 1115.65 88.0852 1115.76 87.8239L1116.72 88.1364C1116.59 88.5038 1116.37 88.8428 1116.07 89.1534C1115.77 89.464 1115.39 89.714 1114.94 89.9034C1114.49 90.089 1113.98 90.1818 1113.39 90.1818ZM1122.6 81.2727V82.1534H1118.44V81.2727H1122.6ZM1119.74 79.1818H1120.75V87.7216C1120.75 88.0852 1120.82 88.3712 1120.94 88.5795C1121.07 88.7841 1121.23 88.9299 1121.43 89.017C1121.63 89.1004 1121.85 89.142 1122.07 89.142C1122.21 89.142 1122.32 89.1345 1122.41 89.1193C1122.51 89.1004 1122.59 89.0814 1122.66 89.0625L1122.88 89.9773C1122.78 90.0152 1122.66 90.0492 1122.52 90.0795C1122.37 90.1136 1122.19 90.1307 1121.98 90.1307C1121.61 90.1307 1121.25 90.0492 1120.91 89.8864C1120.57 89.7235 1120.29 89.4811 1120.07 89.1591C1119.85 88.8371 1119.74 88.4375 1119.74 87.9602V79.1818ZM1126.1 84.5455V90H1125.09V78.3636H1126.1V82.642H1126.19C1126.39 82.1913 1126.71 81.8314 1127.14 81.5625C1127.57 81.2936 1128.11 81.1591 1128.77 81.1591C1129.36 81.1591 1129.88 81.2803 1130.33 81.5227C1130.78 81.7652 1131.12 82.1231 1131.38 82.5966C1131.62 83.0701 1131.75 83.6534 1131.75 84.3466V90H1130.73V84.4091C1130.73 83.6894 1130.53 83.1231 1130.13 82.7102C1129.73 82.2936 1129.2 82.0852 1128.52 82.0852C1128.05 82.0852 1127.64 82.1837 1127.27 82.3807C1126.91 82.5777 1126.62 82.8617 1126.41 83.233C1126.2 83.6004 1126.1 84.0379 1126.1 84.5455ZM1137.94 90.1818C1137.13 90.1818 1136.42 89.9924 1135.83 89.6136C1135.23 89.2311 1134.77 88.7027 1134.45 88.0284C1134.13 87.3504 1133.96 86.5701 1133.96 85.6875C1133.96 84.8087 1134.13 84.0284 1134.45 83.3466C1134.77 82.661 1135.22 82.125 1135.79 81.7386C1136.37 81.3485 1137.03 81.1534 1137.79 81.1534C1138.26 81.1534 1138.72 81.2405 1139.16 81.4148C1139.6 81.5852 1139.99 81.8485 1140.34 82.2045C1140.69 82.5568 1140.97 83.0019 1141.17 83.5398C1141.38 84.0739 1141.48 84.7064 1141.48 85.4375V85.9375H1134.66V85.0455H1140.45C1140.45 84.4848 1140.33 83.9811 1140.11 83.5341C1139.88 83.0833 1139.57 82.7273 1139.17 82.4659C1138.77 82.2045 1138.31 82.0739 1137.79 82.0739C1137.24 82.0739 1136.75 82.2216 1136.33 82.517C1135.91 82.8125 1135.58 83.2027 1135.34 83.6875C1135.1 84.1723 1134.99 84.7027 1134.98 85.2784V85.8125C1134.98 86.5057 1135.1 87.1117 1135.34 87.6307C1135.58 88.1458 1135.92 88.5455 1136.37 88.8295C1136.81 89.1136 1137.34 89.2557 1137.94 89.2557C1138.35 89.2557 1138.72 89.1913 1139.03 89.0625C1139.34 88.9337 1139.6 88.7614 1139.82 88.5455C1140.03 88.3258 1140.2 88.0852 1140.31 87.8239L1141.27 88.1364C1141.13 88.5038 1140.92 88.8428 1140.61 89.1534C1140.31 89.464 1139.94 89.714 1139.49 89.9034C1139.04 90.089 1138.53 90.1818 1137.94 90.1818ZM1143.71 90V81.2727H1144.69V82.6136H1144.77C1144.94 82.1742 1145.24 81.8201 1145.68 81.5511C1146.11 81.2784 1146.6 81.142 1147.15 81.142C1147.24 81.142 1147.33 81.1439 1147.43 81.1477C1147.53 81.1515 1147.62 81.1553 1147.69 81.1591V82.1875C1147.64 82.1799 1147.56 82.1686 1147.45 82.1534C1147.34 82.1383 1147.21 82.1307 1147.08 82.1307C1146.63 82.1307 1146.22 82.2273 1145.86 82.4205C1145.51 82.6098 1145.23 82.8731 1145.03 83.2102C1144.82 83.5473 1144.72 83.9318 1144.72 84.3636V90H1143.71ZM1149.22 90.0852C1149 90.0852 1148.8 90.0057 1148.64 89.8466C1148.48 89.6837 1148.4 89.4905 1148.4 89.267C1148.4 89.0398 1148.48 88.8466 1148.64 88.6875C1148.8 88.5284 1149 88.4489 1149.22 88.4489C1149.45 88.4489 1149.64 88.5284 1149.8 88.6875C1149.96 88.8466 1150.04 89.0398 1150.04 89.267C1150.04 89.4148 1150 89.5511 1149.92 89.6761C1149.85 89.8011 1149.75 89.9015 1149.63 89.9773C1149.51 90.0492 1149.37 90.0852 1149.22 90.0852Z" fill="white"/>
</svg>
