<svg width="100%" viewBox="0 0 1920 1051" fill="none" xmlns="http://www.w3.org/2000/svg">
<path d="M333.944 776.72C329.752 776.72 326.072 775.936 322.904 774.368C319.768 772.8 317.32 770.624 315.56 767.84C313.8 765.024 312.92 761.744 312.92 758C312.92 754.256 313.8 750.992 315.56 748.208C317.32 745.392 319.768 743.2 322.904 741.632C326.072 740.064 329.752 739.28 333.944 739.28C338.136 739.28 341.8 740.064 344.936 741.632C348.104 743.2 350.568 745.392 352.328 748.208C354.088 750.992 354.968 754.256 354.968 758C354.968 761.744 354.088 765.024 352.328 767.84C350.568 770.624 348.104 772.8 344.936 774.368C341.8 775.936 338.136 776.72 333.944 776.72ZM333.944 769.472C336.568 769.472 338.824 769.008 340.712 768.08C342.632 767.152 344.104 765.824 345.128 764.096C346.184 762.368 346.712 760.336 346.712 758C346.712 755.664 346.184 753.632 345.128 751.904C344.104 750.176 342.632 748.848 340.712 747.92C338.824 746.992 336.568 746.528 333.944 746.528C331.352 746.528 329.096 746.992 327.176 747.92C325.256 748.848 323.768 750.176 322.712 751.904C321.688 753.632 321.176 755.664 321.176 758C321.176 760.336 321.688 762.368 322.712 764.096C323.768 765.824 325.256 767.152 327.176 768.08C329.096 769.008 331.352 769.472 333.944 769.472ZM368.267 760.208C368.267 762.128 368.635 763.776 369.371 765.152C370.107 766.528 371.179 767.6 372.587 768.368C374.027 769.104 375.755 769.472 377.771 769.472C379.819 769.472 381.547 769.104 382.955 768.368C384.363 767.6 385.435 766.528 386.171 765.152C386.907 763.776 387.275 762.128 387.275 760.208V740H395.435V760.592C395.435 763.824 394.699 766.656 393.227 769.088C391.755 771.488 389.691 773.36 387.035 774.704C384.379 776.048 381.291 776.72 377.771 776.72C374.251 776.72 371.163 776.048 368.507 774.704C365.883 773.36 363.819 771.488 362.315 769.088C360.843 766.656 360.107 763.824 360.107 760.592V740H368.267V760.208ZM408.016 755.984H421.888C423.712 755.984 425.152 755.568 426.208 754.736C427.296 753.872 427.84 752.688 427.84 751.184C427.84 749.68 427.296 748.512 426.208 747.68C425.152 746.848 423.712 746.432 421.888 746.432H406.816L410.512 742.256V776H402.352V740H422.848C425.472 740 427.776 740.48 429.76 741.44C431.744 742.368 433.296 743.664 434.416 745.328C435.536 746.992 436.096 748.944 436.096 751.184C436.096 753.392 435.536 755.328 434.416 756.992C433.296 758.656 431.744 759.968 429.76 760.928C427.776 761.856 425.472 762.32 422.848 762.32H408.016V755.984ZM414.256 759.152H423.568L437.152 776H427.6L414.256 759.152ZM452.557 764.24H460.813C461.005 765.456 461.533 766.528 462.397 767.456C463.293 768.352 464.477 769.056 465.949 769.568C467.453 770.048 469.181 770.288 471.133 770.288C473.981 770.288 476.221 769.888 477.853 769.088C479.517 768.256 480.349 767.104 480.349 765.632C480.349 764.48 479.869 763.6 478.909 762.992C477.981 762.352 476.237 761.888 473.677 761.6L466.429 760.784C461.757 760.272 458.365 759.184 456.253 757.52C454.173 755.824 453.133 753.472 453.133 750.464C453.133 748.096 453.821 746.08 455.197 744.416C456.605 742.752 458.573 741.488 461.101 740.624C463.629 739.728 466.605 739.28 470.029 739.28C473.357 739.28 476.317 739.776 478.909 740.768C481.501 741.728 483.565 743.088 485.101 744.848C486.637 746.576 487.469 748.608 487.597 750.944H479.341C479.181 749.888 478.701 748.976 477.901 748.208C477.133 747.408 476.061 746.8 474.685 746.384C473.309 745.936 471.693 745.712 469.837 745.712C467.245 745.712 465.181 746.096 463.645 746.864C462.109 747.632 461.341 748.72 461.341 750.128C461.341 751.216 461.789 752.064 462.685 752.672C463.613 753.248 465.229 753.68 467.533 753.968L475.069 754.88C478.397 755.232 481.037 755.808 482.989 756.608C484.973 757.376 486.381 758.416 487.213 759.728C488.077 761.04 488.509 762.704 488.509 764.72C488.509 767.12 487.773 769.232 486.301 771.056C484.861 772.848 482.829 774.24 480.205 775.232C477.581 776.224 474.509 776.72 470.989 776.72C467.405 776.72 464.253 776.208 461.533 775.184C458.813 774.128 456.669 772.672 455.101 770.816C453.533 768.928 452.685 766.736 452.557 764.24ZM504.106 743.648H512.218V776H504.106V743.648ZM489.754 740H526.522V747.2H489.754V740ZM548.632 776.72C544.44 776.72 540.76 775.936 537.592 774.368C534.456 772.8 532.008 770.624 530.248 767.84C528.488 765.024 527.608 761.744 527.608 758C527.608 754.256 528.488 750.992 530.248 748.208C532.008 745.392 534.456 743.2 537.592 741.632C540.76 740.064 544.44 739.28 548.632 739.28C552.824 739.28 556.488 740.064 559.624 741.632C562.792 743.2 565.256 745.392 567.016 748.208C568.776 750.992 569.656 754.256 569.656 758C569.656 761.744 568.776 765.024 567.016 767.84C565.256 770.624 562.792 772.8 559.624 774.368C556.488 775.936 552.824 776.72 548.632 776.72ZM548.632 769.472C551.256 769.472 553.512 769.008 555.4 768.08C557.32 767.152 558.792 765.824 559.816 764.096C560.872 762.368 561.4 760.336 561.4 758C561.4 755.664 560.872 753.632 559.816 751.904C558.792 750.176 557.32 748.848 555.4 747.92C553.512 746.992 551.256 746.528 548.632 746.528C546.04 746.528 543.784 746.992 541.864 747.92C539.944 748.848 538.456 750.176 537.4 751.904C536.376 753.632 535.864 755.664 535.864 758C535.864 760.336 536.376 762.368 537.4 764.096C538.456 765.824 539.944 767.152 541.864 768.08C543.784 769.008 546.04 769.472 548.632 769.472ZM580.938 755.984H594.81C596.634 755.984 598.074 755.568 599.13 754.736C600.218 753.872 600.762 752.688 600.762 751.184C600.762 749.68 600.218 748.512 599.13 747.68C598.074 746.848 596.634 746.432 594.81 746.432H579.738L583.434 742.256V776H575.274V740H595.77C598.394 740 600.698 740.48 602.682 741.44C604.666 742.368 606.218 743.664 607.338 745.328C608.458 746.992 609.018 748.944 609.018 751.184C609.018 753.392 608.458 755.328 607.338 756.992C606.218 758.656 604.666 759.968 602.682 760.928C600.698 761.856 598.394 762.32 595.77 762.32H580.938V755.984ZM587.178 759.152H596.49L610.074 776H600.522L587.178 759.152ZM626.128 776V758.624H634.288V776H626.128ZM609.184 740H618.256L632.128 757.52H628.192L642.064 740H651.136L632.8 763.184L627.568 763.232L609.184 740Z" fill="#24CBFF"/>
</svg>
