<svg width="100%" viewBox="0 0 375 812" fill="none" xmlns="http://www.w3.org/2000/svg">
<path d="M27.296 581.48C24.5013 581.48 22.048 580.957 19.936 579.912C17.8453 578.867 16.2133 577.416 15.04 575.56C13.8667 573.683 13.28 571.496 13.28 569C13.28 566.504 13.8667 564.328 15.04 562.472C16.2133 560.595 17.8453 559.133 19.936 558.088C22.048 557.043 24.5013 556.52 27.296 556.52C30.0907 556.52 32.5333 557.043 34.624 558.088C36.736 559.133 38.3787 560.595 39.552 562.472C40.7253 564.328 41.312 566.504 41.312 569C41.312 571.496 40.7253 573.683 39.552 575.56C38.3787 577.416 36.736 578.867 34.624 579.912C32.5333 580.957 30.0907 581.48 27.296 581.48ZM27.296 576.648C29.0453 576.648 30.5493 576.339 31.808 575.72C33.088 575.101 34.0693 574.216 34.752 573.064C35.456 571.912 35.808 570.557 35.808 569C35.808 567.443 35.456 566.088 34.752 564.936C34.0693 563.784 33.088 562.899 31.808 562.28C30.5493 561.661 29.0453 561.352 27.296 561.352C25.568 561.352 24.064 561.661 22.784 562.28C21.504 562.899 20.512 563.784 19.808 564.936C19.1253 566.088 18.784 567.443 18.784 569C18.784 570.557 19.1253 571.912 19.808 573.064C20.512 574.216 21.504 575.101 22.784 575.72C24.064 576.339 25.568 576.648 27.296 576.648ZM50.1778 570.472C50.1778 571.752 50.4231 572.851 50.9138 573.768C51.4044 574.685 52.1191 575.4 53.0578 575.912C54.0178 576.403 55.1698 576.648 56.5138 576.648C57.8791 576.648 59.0311 576.403 59.9698 575.912C60.9084 575.4 61.6231 574.685 62.1138 573.768C62.6044 572.851 62.8498 571.752 62.8498 570.472V557H68.2898V570.728C68.2898 572.883 67.7991 574.771 66.8178 576.392C65.8364 577.992 64.4604 579.24 62.6898 580.136C60.9191 581.032 58.8604 581.48 56.5138 581.48C54.1671 581.48 52.1084 581.032 50.3378 580.136C48.5884 579.24 47.2124 577.992 46.2098 576.392C45.2284 574.771 44.7378 572.883 44.7378 570.728V557H50.1778V570.472ZM76.6775 567.656H85.9255C87.1415 567.656 88.1015 567.379 88.8055 566.824C89.5308 566.248 89.8935 565.459 89.8935 564.456C89.8935 563.453 89.5308 562.675 88.8055 562.12C88.1015 561.565 87.1415 561.288 85.9255 561.288H75.8775L78.3415 558.504V581H72.9015V557H86.5655C88.3148 557 89.8508 557.32 91.1735 557.96C92.4962 558.579 93.5308 559.443 94.2775 560.552C95.0242 561.661 95.3975 562.963 95.3975 564.456C95.3975 565.928 95.0242 567.219 94.2775 568.328C93.5308 569.437 92.4962 570.312 91.1735 570.952C89.8508 571.571 88.3148 571.88 86.5655 571.88H76.6775V567.656ZM80.8375 569.768H87.0455L96.1015 581H89.7335L80.8375 569.768ZM106.372 573.16H111.876C112.004 573.971 112.356 574.685 112.932 575.304C113.529 575.901 114.318 576.371 115.3 576.712C116.302 577.032 117.454 577.192 118.756 577.192C120.654 577.192 122.148 576.925 123.236 576.392C124.345 575.837 124.9 575.069 124.9 574.088C124.9 573.32 124.58 572.733 123.94 572.328C123.321 571.901 122.158 571.592 120.452 571.4L115.62 570.856C112.505 570.515 110.244 569.789 108.836 568.68C107.449 567.549 106.756 565.981 106.756 563.976C106.756 562.397 107.214 561.053 108.132 559.944C109.07 558.835 110.382 557.992 112.068 557.416C113.753 556.819 115.737 556.52 118.02 556.52C120.238 556.52 122.212 556.851 123.94 557.512C125.668 558.152 127.044 559.059 128.068 560.232C129.092 561.384 129.646 562.739 129.732 564.296H124.228C124.121 563.592 123.801 562.984 123.267 562.472C122.756 561.939 122.041 561.533 121.124 561.256C120.206 560.957 119.129 560.808 117.892 560.808C116.164 560.808 114.788 561.064 113.764 561.576C112.74 562.088 112.228 562.813 112.228 563.752C112.228 564.477 112.526 565.043 113.124 565.448C113.742 565.832 114.82 566.12 116.356 566.312L121.38 566.92C123.598 567.155 125.358 567.539 126.66 568.072C127.982 568.584 128.921 569.277 129.476 570.152C130.052 571.027 130.34 572.136 130.34 573.48C130.34 575.08 129.849 576.488 128.868 577.704C127.908 578.899 126.553 579.827 124.804 580.488C123.054 581.149 121.006 581.48 118.66 581.48C116.27 581.48 114.169 581.139 112.356 580.456C110.542 579.752 109.113 578.781 108.068 577.544C107.022 576.285 106.457 574.824 106.372 573.16ZM140.737 559.432H146.145V581H140.737V559.432ZM131.169 557H155.681V561.8H131.169V557ZM170.421 581.48C167.626 581.48 165.173 580.957 163.061 579.912C160.97 578.867 159.338 577.416 158.165 575.56C156.992 573.683 156.405 571.496 156.405 569C156.405 566.504 156.992 564.328 158.165 562.472C159.338 560.595 160.97 559.133 163.061 558.088C165.173 557.043 167.626 556.52 170.421 556.52C173.216 556.52 175.658 557.043 177.749 558.088C179.861 559.133 181.504 560.595 182.677 562.472C183.85 564.328 184.437 566.504 184.437 569C184.437 571.496 183.85 573.683 182.677 575.56C181.504 577.416 179.861 578.867 177.749 579.912C175.658 580.957 173.216 581.48 170.421 581.48ZM170.421 576.648C172.17 576.648 173.674 576.339 174.933 575.72C176.213 575.101 177.194 574.216 177.877 573.064C178.581 571.912 178.933 570.557 178.933 569C178.933 567.443 178.581 566.088 177.877 564.936C177.194 563.784 176.213 562.899 174.933 562.28C173.674 561.661 172.17 561.352 170.421 561.352C168.693 561.352 167.189 561.661 165.909 562.28C164.629 562.899 163.637 563.784 162.933 564.936C162.25 566.088 161.909 567.443 161.909 569C161.909 570.557 162.25 571.912 162.933 573.064C163.637 574.216 164.629 575.101 165.909 575.72C167.189 576.339 168.693 576.648 170.421 576.648ZM191.959 567.656H201.207C202.423 567.656 203.383 567.379 204.087 566.824C204.812 566.248 205.175 565.459 205.175 564.456C205.175 563.453 204.812 562.675 204.087 562.12C203.383 561.565 202.423 561.288 201.207 561.288H191.159L193.623 558.504V581H188.183V557H201.847C203.596 557 205.132 557.32 206.455 557.96C207.777 558.579 208.812 559.443 209.559 560.552C210.305 561.661 210.679 562.963 210.679 564.456C210.679 565.928 210.305 567.219 209.559 568.328C208.812 569.437 207.777 570.312 206.455 570.952C205.132 571.571 203.596 571.88 201.847 571.88H191.959V567.656ZM196.119 569.768H202.327L211.383 581H205.015L196.119 569.768ZM222.086 581V569.416H227.526V581H222.086ZM210.79 557H216.838L226.086 568.68H223.462L232.71 557H238.758L226.534 572.456L223.046 572.488L210.79 557Z" fill="#24CBFF"/>
</svg>
