<svg width="100%" viewBox="0 0 1920 1111" fill="none" xmlns="http://www.w3.org/2000/svg">
<path d="M323.442 97.0497C323.304 96.6188 323.12 96.233 322.888 95.892C322.661 95.5464 322.388 95.2528 322.071 95.0114C321.754 94.7652 321.392 94.5781 320.984 94.4503C320.582 94.3224 320.139 94.2585 319.656 94.2585C318.837 94.2585 318.098 94.4692 317.44 94.8906C316.782 95.312 316.261 95.9299 315.878 96.7443C315.499 97.554 315.31 98.5459 315.31 99.7202C315.31 100.899 315.501 101.896 315.885 102.71C316.268 103.525 316.794 104.143 317.462 104.564C318.129 104.985 318.889 105.196 319.741 105.196C320.532 105.196 321.221 105.035 321.808 104.713C322.4 104.391 322.857 103.937 323.179 103.349C323.506 102.758 323.669 102.062 323.669 101.261L324.237 101.368H320.075V99.5568H325.793V101.212C325.793 102.433 325.532 103.494 325.011 104.393C324.495 105.288 323.78 105.98 322.866 106.467C321.957 106.955 320.916 107.199 319.741 107.199C318.425 107.199 317.27 106.896 316.276 106.29C315.286 105.684 314.514 104.824 313.96 103.712C313.406 102.594 313.129 101.268 313.129 99.7344C313.129 98.5743 313.29 97.5327 313.612 96.6094C313.934 95.6861 314.386 94.9025 314.969 94.2585C315.556 93.6098 316.245 93.1151 317.036 92.7741C317.831 92.4285 318.7 92.2557 319.642 92.2557C320.428 92.2557 321.16 92.3717 321.837 92.6037C322.518 92.8357 323.125 93.1648 323.655 93.5909C324.19 94.017 324.633 94.5237 324.983 95.1108C325.333 95.6932 325.57 96.3395 325.693 97.0497H323.442ZM341.213 99.7273C341.213 101.28 340.929 102.616 340.361 103.733C339.793 104.846 339.014 105.703 338.025 106.304C337.04 106.901 335.92 107.199 334.665 107.199C333.406 107.199 332.281 106.901 331.292 106.304C330.307 105.703 329.53 104.843 328.962 103.726C328.394 102.608 328.11 101.276 328.11 99.7273C328.11 98.1742 328.394 96.8414 328.962 95.7287C329.53 94.6113 330.307 93.7543 331.292 93.1577C332.281 92.5563 333.406 92.2557 334.665 92.2557C335.92 92.2557 337.04 92.5563 338.025 93.1577C339.014 93.7543 339.793 94.6113 340.361 95.7287C340.929 96.8414 341.213 98.1742 341.213 99.7273ZM339.04 99.7273C339.04 98.5436 338.848 97.5469 338.465 96.7372C338.086 95.9228 337.565 95.3073 336.902 94.8906C336.244 94.4692 335.498 94.2585 334.665 94.2585C333.827 94.2585 333.079 94.4692 332.421 94.8906C331.763 95.3073 331.242 95.9228 330.858 96.7372C330.48 97.5469 330.29 98.5436 330.29 99.7273C330.29 100.911 330.48 101.91 330.858 102.724C331.242 103.534 331.763 104.15 332.421 104.571C333.079 104.988 333.827 105.196 334.665 105.196C335.498 105.196 336.244 104.988 336.902 104.571C337.565 104.15 338.086 103.534 338.465 102.724C338.848 101.91 339.04 100.911 339.04 99.7273ZM344.498 92.4545L348.547 104.301H348.71L352.758 92.4545H355.13L349.896 107H347.36L342.126 92.4545H344.498ZM357.231 107V92.4545H366.35V94.3438H359.425V98.7756H365.874V100.658H359.425V105.111H366.435V107H357.231ZM369.282 107V92.4545H374.466C375.593 92.4545 376.528 92.6487 377.272 93.0369C378.02 93.4252 378.578 93.9626 378.948 94.6491C379.317 95.331 379.502 96.1193 379.502 97.0142C379.502 97.9044 379.315 98.688 378.941 99.3651C378.571 100.037 378.013 100.561 377.265 100.935C376.521 101.309 375.586 101.496 374.459 101.496H370.532V99.6065H374.26C374.971 99.6065 375.548 99.5047 375.993 99.3011C376.443 99.0975 376.772 98.8016 376.98 98.4134C377.189 98.0251 377.293 97.5587 377.293 97.0142C377.293 96.465 377.186 95.9891 376.973 95.5866C376.765 95.1842 376.436 94.8764 375.986 94.6634C375.541 94.4455 374.956 94.3366 374.232 94.3366H371.476V107H369.282ZM376.462 100.438L380.056 107H377.556L374.033 100.438H376.462ZM393.912 92.4545V107H391.895L384.502 96.3324H384.367V107H382.172V92.4545H384.203L391.604 103.136H391.739V92.4545H393.912ZM398.342 107H396.013L401.247 92.4545H403.783L409.017 107H406.688L402.575 95.0966H402.462L398.342 107ZM398.733 101.304H406.29V103.151H398.733V101.304ZM422.858 92.4545V107H420.841L413.447 96.3324H413.312V107H411.118V92.4545H413.149L420.549 103.136H420.684V92.4545H422.858ZM438.14 97.1847H435.924C435.839 96.7112 435.68 96.2945 435.448 95.9347C435.216 95.5748 434.932 95.2694 434.596 95.0185C434.26 94.7675 433.883 94.5781 433.467 94.4503C433.055 94.3224 432.617 94.2585 432.153 94.2585C431.315 94.2585 430.564 94.4692 429.901 94.8906C429.243 95.312 428.722 95.9299 428.339 96.7443C427.96 97.5587 427.771 98.553 427.771 99.7273C427.771 100.911 427.96 101.91 428.339 102.724C428.722 103.539 429.246 104.154 429.908 104.571C430.571 104.988 431.317 105.196 432.146 105.196C432.605 105.196 433.04 105.134 433.452 105.011C433.869 104.884 434.246 104.696 434.582 104.45C434.918 104.204 435.202 103.903 435.434 103.548C435.671 103.188 435.834 102.777 435.924 102.312L438.14 102.32C438.022 103.035 437.792 103.693 437.451 104.294C437.115 104.891 436.682 105.407 436.151 105.842C435.626 106.273 435.024 106.607 434.347 106.844C433.67 107.08 432.932 107.199 432.131 107.199C430.872 107.199 429.75 106.901 428.765 106.304C427.78 105.703 427.004 104.843 426.435 103.726C425.872 102.608 425.59 101.276 425.59 99.7273C425.59 98.1742 425.874 96.8414 426.442 95.7287C427.011 94.6113 427.787 93.7543 428.772 93.1577C429.757 92.5563 430.877 92.2557 432.131 92.2557C432.903 92.2557 433.623 92.367 434.29 92.5895C434.963 92.8073 435.567 93.1293 436.102 93.5554C436.637 93.9768 437.079 94.4929 437.43 95.1037C437.78 95.7098 438.017 96.4034 438.14 97.1847ZM440.766 107V92.4545H449.885V94.3438H442.961V98.7756H449.409V100.658H442.961V105.111H449.971V107H440.766ZM466.043 96.2756C465.967 95.6032 465.655 95.0824 465.105 94.7131C464.556 94.339 463.865 94.152 463.032 94.152C462.435 94.152 461.919 94.2467 461.483 94.4361C461.048 94.6207 460.709 94.8764 460.468 95.2031C460.231 95.5251 460.113 95.892 460.113 96.304C460.113 96.6496 460.193 96.9479 460.354 97.1989C460.52 97.4498 460.735 97.6605 461 97.831C461.27 97.9967 461.559 98.1364 461.867 98.25C462.175 98.3589 462.471 98.4489 462.755 98.5199L464.175 98.8892C464.639 99.0028 465.115 99.1567 465.603 99.3509C466.09 99.545 466.542 99.8007 466.959 100.118C467.376 100.435 467.712 100.828 467.968 101.297C468.228 101.766 468.358 102.327 468.358 102.98C468.358 103.804 468.145 104.536 467.719 105.175C467.298 105.814 466.685 106.318 465.88 106.688C465.079 107.057 464.111 107.241 462.975 107.241C461.886 107.241 460.944 107.069 460.148 106.723C459.353 106.377 458.73 105.887 458.28 105.253C457.83 104.614 457.582 103.856 457.534 102.98H459.736C459.779 103.506 459.949 103.944 460.248 104.294C460.551 104.64 460.936 104.898 461.405 105.068C461.879 105.234 462.397 105.317 462.961 105.317C463.581 105.317 464.132 105.22 464.615 105.026C465.103 104.827 465.487 104.552 465.766 104.202C466.045 103.847 466.185 103.432 466.185 102.959C466.185 102.528 466.062 102.175 465.816 101.901C465.574 101.626 465.245 101.399 464.828 101.219C464.417 101.039 463.95 100.88 463.429 100.743L461.711 100.274C460.546 99.9569 459.623 99.4905 458.941 98.875C458.264 98.2595 457.925 97.4451 457.925 96.4318C457.925 95.5937 458.152 94.8622 458.607 94.2372C459.061 93.6122 459.677 93.1269 460.453 92.7812C461.23 92.4309 462.106 92.2557 463.081 92.2557C464.066 92.2557 464.935 92.4285 465.688 92.7741C466.445 93.1198 467.042 93.5956 467.478 94.2017C467.913 94.803 468.141 95.4943 468.159 96.2756H466.043ZM470.263 94.3438V92.4545H481.521V94.3438H476.982V107H474.795V94.3438H470.263ZM484.008 107V92.4545H489.193C490.32 92.4545 491.255 92.6487 491.998 93.0369C492.746 93.4252 493.305 93.9626 493.674 94.6491C494.044 95.331 494.228 96.1193 494.228 97.0142C494.228 97.9044 494.041 98.688 493.667 99.3651C493.298 100.037 492.739 100.561 491.991 100.935C491.248 101.309 490.313 101.496 489.186 101.496H485.258V99.6065H488.987C489.697 99.6065 490.275 99.5047 490.72 99.3011C491.17 99.0975 491.499 98.8016 491.707 98.4134C491.915 98.0251 492.02 97.5587 492.02 97.0142C492.02 96.465 491.913 95.9891 491.7 95.5866C491.492 95.1842 491.163 94.8764 490.713 94.6634C490.268 94.4455 489.683 94.3366 488.958 94.3366H486.203V107H484.008ZM491.189 100.438L494.782 107H492.282L488.76 100.438H491.189ZM506.252 92.4545H508.454V102.021C508.454 103.039 508.215 103.941 507.737 104.727C507.259 105.509 506.586 106.124 505.72 106.574C504.853 107.019 503.838 107.241 502.673 107.241C501.513 107.241 500.5 107.019 499.633 106.574C498.767 106.124 498.094 105.509 497.616 104.727C497.138 103.941 496.899 103.039 496.899 102.021V92.4545H499.093V101.844C499.093 102.502 499.238 103.087 499.527 103.598C499.82 104.109 500.234 104.512 500.77 104.805C501.305 105.094 501.939 105.239 502.673 105.239C503.412 105.239 504.048 105.094 504.583 104.805C505.123 104.512 505.535 104.109 505.819 103.598C506.108 103.087 506.252 102.502 506.252 101.844V92.4545ZM523.726 97.1847H521.51C521.425 96.7112 521.266 96.2945 521.034 95.9347C520.802 95.5748 520.518 95.2694 520.182 95.0185C519.846 94.7675 519.469 94.5781 519.053 94.4503C518.641 94.3224 518.203 94.2585 517.739 94.2585C516.901 94.2585 516.15 94.4692 515.487 94.8906C514.829 95.312 514.308 95.9299 513.925 96.7443C513.546 97.5587 513.357 98.553 513.357 99.7273C513.357 100.911 513.546 101.91 513.925 102.724C514.308 103.539 514.831 104.154 515.494 104.571C516.157 104.988 516.903 105.196 517.732 105.196C518.191 105.196 518.626 105.134 519.038 105.011C519.455 104.884 519.831 104.696 520.168 104.45C520.504 104.204 520.788 103.903 521.02 103.548C521.257 103.188 521.42 102.777 521.51 102.312L523.726 102.32C523.607 103.035 523.378 103.693 523.037 104.294C522.701 104.891 522.268 105.407 521.737 105.842C521.212 106.273 520.61 106.607 519.933 106.844C519.256 107.08 518.518 107.199 517.717 107.199C516.458 107.199 515.336 106.901 514.351 106.304C513.366 105.703 512.589 104.843 512.021 103.726C511.458 102.608 511.176 101.276 511.176 99.7273C511.176 98.1742 511.46 96.8414 512.028 95.7287C512.597 94.6113 513.373 93.7543 514.358 93.1577C515.343 92.5563 516.463 92.2557 517.717 92.2557C518.489 92.2557 519.209 92.367 519.876 92.5895C520.549 92.8073 521.152 93.1293 521.688 93.5554C522.223 93.9768 522.665 94.4929 523.016 95.1037C523.366 95.7098 523.603 96.4034 523.726 97.1847ZM525.635 94.3438V92.4545H536.892V94.3438H532.353V107H530.166V94.3438H525.635ZM548.733 92.4545H550.935V102.021C550.935 103.039 550.696 103.941 550.217 104.727C549.739 105.509 549.067 106.124 548.2 106.574C547.334 107.019 546.318 107.241 545.153 107.241C543.993 107.241 542.98 107.019 542.114 106.574C541.247 106.124 540.575 105.509 540.097 104.727C539.618 103.941 539.379 103.039 539.379 102.021V92.4545H541.574V101.844C541.574 102.502 541.718 103.087 542.007 103.598C542.301 104.109 542.715 104.512 543.25 104.805C543.785 105.094 544.42 105.239 545.153 105.239C545.892 105.239 546.529 105.094 547.064 104.805C547.604 104.512 548.016 104.109 548.3 103.598C548.589 103.087 548.733 102.502 548.733 101.844V92.4545ZM554.125 107V92.4545H559.31C560.437 92.4545 561.372 92.6487 562.115 93.0369C562.864 93.4252 563.422 93.9626 563.792 94.6491C564.161 95.331 564.346 96.1193 564.346 97.0142C564.346 97.9044 564.158 98.688 563.784 99.3651C563.415 100.037 562.856 100.561 562.108 100.935C561.365 101.309 560.43 101.496 559.303 101.496H555.375V99.6065H559.104C559.814 99.6065 560.392 99.5047 560.837 99.3011C561.287 99.0975 561.616 98.8016 561.824 98.4134C562.033 98.0251 562.137 97.5587 562.137 97.0142C562.137 96.465 562.03 95.9891 561.817 95.5866C561.609 95.1842 561.28 94.8764 560.83 94.6634C560.385 94.4455 559.8 94.3366 559.076 94.3366H556.32V107H554.125ZM561.306 100.438L564.9 107H562.4L558.877 100.438H561.306ZM567.016 107V92.4545H576.135V94.3438H569.211V98.7756H575.659V100.658H569.211V105.111H576.221V107H567.016Z" fill="#24408E"/>
</svg>
