<svg width="100%" viewBox="0 0 1920 1051" fill="none" xmlns="http://www.w3.org/2000/svg">
<path d="M333.944 744.72C329.752 744.72 326.072 743.936 322.904 742.368C319.768 740.8 317.32 738.624 315.56 735.84C313.8 733.024 312.92 729.744 312.92 726C312.92 722.256 313.8 718.992 315.56 716.208C317.32 713.392 319.768 711.2 322.904 709.632C326.072 708.064 329.752 707.28 333.944 707.28C338.136 707.28 341.8 708.064 344.936 709.632C348.104 711.2 350.568 713.392 352.328 716.208C354.088 718.992 354.968 722.256 354.968 726C354.968 729.744 354.088 733.024 352.328 735.84C350.568 738.624 348.104 740.8 344.936 742.368C341.8 743.936 338.136 744.72 333.944 744.72ZM333.944 737.472C336.568 737.472 338.824 737.008 340.712 736.08C342.632 735.152 344.104 733.824 345.128 732.096C346.184 730.368 346.712 728.336 346.712 726C346.712 723.664 346.184 721.632 345.128 719.904C344.104 718.176 342.632 716.848 340.712 715.92C338.824 714.992 336.568 714.528 333.944 714.528C331.352 714.528 329.096 714.992 327.176 715.92C325.256 716.848 323.768 718.176 322.712 719.904C321.688 721.632 321.176 723.664 321.176 726C321.176 728.336 321.688 730.368 322.712 732.096C323.768 733.824 325.256 735.152 327.176 736.08C329.096 737.008 331.352 737.472 333.944 737.472ZM368.267 728.208C368.267 730.128 368.635 731.776 369.371 733.152C370.107 734.528 371.179 735.6 372.587 736.368C374.027 737.104 375.755 737.472 377.771 737.472C379.819 737.472 381.547 737.104 382.955 736.368C384.363 735.6 385.435 734.528 386.171 733.152C386.907 731.776 387.275 730.128 387.275 728.208V708H395.435V728.592C395.435 731.824 394.699 734.656 393.227 737.088C391.755 739.488 389.691 741.36 387.035 742.704C384.379 744.048 381.291 744.72 377.771 744.72C374.251 744.72 371.163 744.048 368.507 742.704C365.883 741.36 363.819 739.488 362.315 737.088C360.843 734.656 360.107 731.824 360.107 728.592V708H368.267V728.208ZM408.016 723.984H421.888C423.712 723.984 425.152 723.568 426.208 722.736C427.296 721.872 427.84 720.688 427.84 719.184C427.84 717.68 427.296 716.512 426.208 715.68C425.152 714.848 423.712 714.432 421.888 714.432H406.816L410.512 710.256V744H402.352V708H422.848C425.472 708 427.776 708.48 429.76 709.44C431.744 710.368 433.296 711.664 434.416 713.328C435.536 714.992 436.096 716.944 436.096 719.184C436.096 721.392 435.536 723.328 434.416 724.992C433.296 726.656 431.744 727.968 429.76 728.928C427.776 729.856 425.472 730.32 422.848 730.32H408.016V723.984ZM414.256 727.152H423.568L437.152 744H427.6L414.256 727.152ZM351.128 792.4C351.096 794.576 350.664 796.656 349.832 798.64C349.032 800.592 347.88 802.336 346.376 803.872C344.872 805.376 343.016 806.56 340.808 807.424C338.6 808.288 336.04 808.72 333.128 808.72C330.312 808.72 327.672 808.304 325.208 807.472C322.776 806.608 320.632 805.376 318.776 803.776C316.952 802.176 315.528 800.224 314.504 797.92C313.48 795.584 312.968 792.944 312.968 790C312.968 787.056 313.48 784.432 314.504 782.128C315.56 779.792 317.016 777.824 318.872 776.224C320.728 774.624 322.904 773.408 325.4 772.576C327.896 771.712 330.616 771.28 333.56 771.28C337.4 771.28 340.728 771.888 343.544 773.104C346.36 774.288 348.632 775.936 350.36 778.048C352.12 780.16 353.208 782.576 353.624 785.296H345.416C345.096 783.824 344.392 782.56 343.304 781.504C342.248 780.448 340.888 779.632 339.224 779.056C337.592 778.48 335.704 778.192 333.56 778.192C331.032 778.192 328.84 778.656 326.984 779.584C325.16 780.48 323.736 781.808 322.712 783.568C321.72 785.328 321.224 787.472 321.224 790C321.224 792.528 321.752 794.688 322.808 796.48C323.864 798.272 325.368 799.648 327.32 800.608C329.272 801.536 331.576 802 334.232 802C336.824 802 339.096 801.6 341.048 800.8C343 799.968 344.536 798.816 345.656 797.344C346.808 795.84 347.464 794.064 347.624 792.016L351.128 792.4ZM335.336 795.712V789.808H354.008V808H348.152L347.048 793.408L348.728 795.712H335.336ZM379.788 808.72C375.596 808.72 371.916 807.936 368.748 806.368C365.612 804.8 363.164 802.624 361.404 799.84C359.644 797.024 358.764 793.744 358.764 790C358.764 786.256 359.644 782.992 361.404 780.208C363.164 777.392 365.612 775.2 368.748 773.632C371.916 772.064 375.596 771.28 379.788 771.28C383.98 771.28 387.644 772.064 390.78 773.632C393.948 775.2 396.412 777.392 398.172 780.208C399.932 782.992 400.812 786.256 400.812 790C400.812 793.744 399.932 797.024 398.172 799.84C396.412 802.624 393.948 804.8 390.78 806.368C387.644 807.936 383.98 808.72 379.788 808.72ZM379.788 801.472C382.412 801.472 384.668 801.008 386.556 800.08C388.476 799.152 389.948 797.824 390.972 796.096C392.028 794.368 392.556 792.336 392.556 790C392.556 787.664 392.028 785.632 390.972 783.904C389.948 782.176 388.476 780.848 386.556 779.92C384.668 778.992 382.412 778.528 379.788 778.528C377.196 778.528 374.94 778.992 373.02 779.92C371.1 780.848 369.612 782.176 368.556 783.904C367.532 785.632 367.02 787.664 367.02 790C367.02 792.336 367.532 794.368 368.556 796.096C369.612 797.824 371.1 799.152 373.02 800.08C374.94 801.008 377.196 801.472 379.788 801.472ZM424.432 804.4H420.832L435.52 772H444.16L427.072 808H417.904L400.864 772H409.6L424.432 804.4ZM477.815 786.88V793.12H452.039V786.88H477.815ZM457.511 790L455.111 805.264L451.559 801.232H479.303V808H446.903L449.687 790L446.903 772H479.063V778.768H451.559L455.111 774.736L457.511 790ZM491.173 787.984H505.045C506.869 787.984 508.309 787.568 509.365 786.736C510.453 785.872 510.997 784.688 510.997 783.184C510.997 781.68 510.453 780.512 509.365 779.68C508.309 778.848 506.869 778.432 505.045 778.432H489.973L493.669 774.256V808H485.509V772H506.005C508.629 772 510.933 772.48 512.917 773.44C514.901 774.368 516.453 775.664 517.573 777.328C518.693 778.992 519.253 780.944 519.253 783.184C519.253 785.392 518.693 787.328 517.573 788.992C516.453 790.656 514.901 791.968 512.917 792.928C510.933 793.856 508.629 794.32 506.005 794.32H491.173V787.984ZM497.413 791.152H506.725L520.309 808H510.757L497.413 791.152ZM558.712 802.624L555.88 803.056V772H563.8V808H553.48L530.44 776.944L533.224 776.512V808H525.352V772H535.912L558.712 802.624ZM577.053 800.416V793.792H602.013V800.416H577.053ZM594.957 772L611.805 808H603.117L588.381 775.312H591.069L576.333 808H567.645L584.493 772H594.957ZM649.04 802.624L646.208 803.056V772H654.128V808H643.808L620.768 776.944L623.552 776.512V808H615.68V772H626.24L649.04 802.624ZM700.453 793.36C700.101 796.4 699.029 799.088 697.237 801.424C695.477 803.728 693.141 805.52 690.229 806.8C687.349 808.08 684.053 808.72 680.341 808.72C676.245 808.72 672.645 807.936 669.541 806.368C666.469 804.8 664.069 802.624 662.341 799.84C660.613 797.024 659.749 793.744 659.749 790C659.749 786.256 660.613 782.992 662.341 780.208C664.069 777.392 666.469 775.2 669.541 773.632C672.645 772.064 676.245 771.28 680.341 771.28C684.053 771.28 687.349 771.92 690.229 773.2C693.141 774.48 695.477 776.272 697.237 778.576C699.029 780.88 700.101 783.568 700.453 786.64H692.245C691.925 784.944 691.237 783.488 690.181 782.272C689.125 781.024 687.765 780.064 686.101 779.392C684.437 778.72 682.501 778.384 680.293 778.384C677.765 778.384 675.573 778.864 673.717 779.824C671.893 780.752 670.485 782.096 669.493 783.856C668.501 785.584 668.005 787.632 668.005 790C668.005 792.368 668.501 794.432 669.493 796.192C670.485 797.92 671.893 799.264 673.717 800.224C675.573 801.152 677.765 801.616 680.293 801.616C682.501 801.616 684.437 801.296 686.101 800.656C687.765 799.984 689.125 799.04 690.181 797.824C691.237 796.576 691.925 795.088 692.245 793.36H700.453ZM735.44 786.88V793.12H709.664V786.88H735.44ZM715.136 790L712.736 805.264L709.184 801.232H736.928V808H704.528L707.312 790L704.528 772H736.688V778.768H709.184L712.736 774.736L715.136 790Z" fill="#24CBFF"/>
</svg>
