<svg width="100%" viewBox="0 0 375 812" fill="none" xmlns="http://www.w3.org/2000/svg">
<path d="M27.296 581.48C24.5013 581.48 22.048 580.957 19.936 579.912C17.8453 578.867 16.2133 577.416 15.04 575.56C13.8667 573.683 13.28 571.496 13.28 569C13.28 566.504 13.8667 564.328 15.04 562.472C16.2133 560.595 17.8453 559.133 19.936 558.088C22.048 557.043 24.5013 556.52 27.296 556.52C30.0907 556.52 32.5333 557.043 34.624 558.088C36.736 559.133 38.3787 560.595 39.552 562.472C40.7253 564.328 41.312 566.504 41.312 569C41.312 571.496 40.7253 573.683 39.552 575.56C38.3787 577.416 36.736 578.867 34.624 579.912C32.5333 580.957 30.0907 581.48 27.296 581.48ZM27.296 576.648C29.0453 576.648 30.5493 576.339 31.808 575.72C33.088 575.101 34.0693 574.216 34.752 573.064C35.456 571.912 35.808 570.557 35.808 569C35.808 567.443 35.456 566.088 34.752 564.936C34.0693 563.784 33.088 562.899 31.808 562.28C30.5493 561.661 29.0453 561.352 27.296 561.352C25.568 561.352 24.064 561.661 22.784 562.28C21.504 562.899 20.512 563.784 19.808 564.936C19.1253 566.088 18.784 567.443 18.784 569C18.784 570.557 19.1253 571.912 19.808 573.064C20.512 574.216 21.504 575.101 22.784 575.72C24.064 576.339 25.568 576.648 27.296 576.648ZM50.1778 570.472C50.1778 571.752 50.4231 572.851 50.9138 573.768C51.4044 574.685 52.1191 575.4 53.0578 575.912C54.0178 576.403 55.1698 576.648 56.5138 576.648C57.8791 576.648 59.0311 576.403 59.9698 575.912C60.9084 575.4 61.6231 574.685 62.1138 573.768C62.6044 572.851 62.8498 571.752 62.8498 570.472V557H68.2898V570.728C68.2898 572.883 67.7991 574.771 66.8178 576.392C65.8364 577.992 64.4604 579.24 62.6898 580.136C60.9191 581.032 58.8604 581.48 56.5138 581.48C54.1671 581.48 52.1084 581.032 50.3378 580.136C48.5884 579.24 47.2124 577.992 46.2098 576.392C45.2284 574.771 44.7378 572.883 44.7378 570.728V557H50.1778V570.472ZM76.6775 567.656H85.9255C87.1415 567.656 88.1015 567.379 88.8055 566.824C89.5308 566.248 89.8935 565.459 89.8935 564.456C89.8935 563.453 89.5308 562.675 88.8055 562.12C88.1015 561.565 87.1415 561.288 85.9255 561.288H75.8775L78.3415 558.504V581H72.9015V557H86.5655C88.3148 557 89.8508 557.32 91.1735 557.96C92.4962 558.579 93.5308 559.443 94.2775 560.552C95.0242 561.661 95.3975 562.963 95.3975 564.456C95.3975 565.928 95.0242 567.219 94.2775 568.328C93.5308 569.437 92.4962 570.312 91.1735 570.952C89.8508 571.571 88.3148 571.88 86.5655 571.88H76.6775V567.656ZM80.8375 569.768H87.0455L96.1015 581H89.7335L80.8375 569.768ZM38.752 610.6C38.7307 612.051 38.4427 613.437 37.888 614.76C37.3547 616.061 36.5867 617.224 35.584 618.248C34.5813 619.251 33.344 620.04 31.872 620.616C30.4 621.192 28.6933 621.48 26.752 621.48C24.8747 621.48 23.1147 621.203 21.472 620.648C19.8507 620.072 18.4213 619.251 17.184 618.184C15.968 617.117 15.0187 615.816 14.336 614.28C13.6533 612.723 13.312 610.963 13.312 609C13.312 607.037 13.6533 605.288 14.336 603.752C15.04 602.195 16.0107 600.883 17.248 599.816C18.4853 598.749 19.936 597.939 21.6 597.384C23.264 596.808 25.0773 596.52 27.04 596.52C29.6 596.52 31.8187 596.925 33.696 597.736C35.5733 598.525 37.088 599.624 38.24 601.032C39.4133 602.44 40.1387 604.051 40.416 605.864H34.944C34.7307 604.883 34.2613 604.04 33.536 603.336C32.832 602.632 31.9253 602.088 30.816 601.704C29.728 601.32 28.4693 601.128 27.04 601.128C25.3547 601.128 23.8933 601.437 22.656 602.056C21.44 602.653 20.4907 603.539 19.808 604.712C19.1467 605.885 18.816 607.315 18.816 609C18.816 610.685 19.168 612.125 19.872 613.32C20.576 614.515 21.5787 615.432 22.88 616.072C24.1813 616.691 25.7173 617 27.488 617C29.216 617 30.7307 616.733 32.032 616.2C33.3333 615.645 34.3573 614.877 35.104 613.896C35.872 612.893 36.3093 611.709 36.416 610.344L38.752 610.6ZM28.224 612.808V608.872H40.672V621H36.768L36.032 611.272L37.152 612.808H28.224ZM57.8585 621.48C55.0638 621.48 52.6105 620.957 50.4985 619.912C48.4078 618.867 46.7758 617.416 45.6025 615.56C44.4292 613.683 43.8425 611.496 43.8425 609C43.8425 606.504 44.4292 604.328 45.6025 602.472C46.7758 600.595 48.4078 599.133 50.4985 598.088C52.6105 597.043 55.0638 596.52 57.8585 596.52C60.6532 596.52 63.0958 597.043 65.1865 598.088C67.2985 599.133 68.9412 600.595 70.1145 602.472C71.2878 604.328 71.8745 606.504 71.8745 609C71.8745 611.496 71.2878 613.683 70.1145 615.56C68.9412 617.416 67.2985 618.867 65.1865 619.912C63.0958 620.957 60.6532 621.48 57.8585 621.48ZM57.8585 616.648C59.6078 616.648 61.1118 616.339 62.3705 615.72C63.6505 615.101 64.6318 614.216 65.3145 613.064C66.0185 611.912 66.3705 610.557 66.3705 609C66.3705 607.443 66.0185 606.088 65.3145 604.936C64.6318 603.784 63.6505 602.899 62.3705 602.28C61.1118 601.661 59.6078 601.352 57.8585 601.352C56.1305 601.352 54.6265 601.661 53.3465 602.28C52.0665 602.899 51.0745 603.784 50.3705 604.936C49.6878 606.088 49.3465 607.443 49.3465 609C49.3465 610.557 49.6878 611.912 50.3705 613.064C51.0745 614.216 52.0665 615.101 53.3465 615.72C54.6265 616.339 56.1305 616.648 57.8585 616.648ZM87.6213 618.6H85.2213L95.0133 597H100.773L89.3813 621H83.2693L71.9093 597H77.7333L87.6213 618.6ZM123.21 606.92V611.08H106.026V606.92H123.21ZM109.674 609L108.074 619.176L105.706 616.488H124.202V621H102.602L104.458 609L102.602 597H124.042V601.512H105.706L108.074 598.824L109.674 609ZM132.115 607.656H141.363C142.579 607.656 143.539 607.379 144.243 606.824C144.968 606.248 145.331 605.459 145.331 604.456C145.331 603.453 144.968 602.675 144.243 602.12C143.539 601.565 142.579 601.288 141.363 601.288H131.315L133.779 598.504V621H128.339V597H142.003C143.752 597 145.288 597.32 146.611 597.96C147.934 598.579 148.968 599.443 149.715 600.552C150.462 601.661 150.835 602.963 150.835 604.456C150.835 605.928 150.462 607.219 149.715 608.328C148.968 609.437 147.934 610.312 146.611 610.952C145.288 611.571 143.752 611.88 142.003 611.88H132.115V607.656ZM136.275 609.768H142.483L151.539 621H145.171L136.275 609.768ZM177.142 617.416L175.254 617.704V597H180.534V621H173.654L158.294 600.296L160.15 600.008V621H154.902V597H161.942L177.142 617.416ZM189.369 615.944V611.528H206.009V615.944H189.369ZM201.305 597L212.537 621H206.745L196.921 599.208H198.713L188.889 621H183.097L194.329 597H201.305ZM237.36 617.416L235.472 617.704V597H240.752V621H233.872L218.512 600.296L220.368 600.008V621H215.12V597H222.16L237.36 617.416ZM271.636 611.24C271.401 613.267 270.686 615.059 269.492 616.616C268.318 618.152 266.761 619.347 264.82 620.2C262.9 621.053 260.702 621.48 258.228 621.48C255.497 621.48 253.097 620.957 251.028 619.912C248.98 618.867 247.38 617.416 246.228 615.56C245.076 613.683 244.5 611.496 244.5 609C244.5 606.504 245.076 604.328 246.228 602.472C247.38 600.595 248.98 599.133 251.028 598.088C253.097 597.043 255.497 596.52 258.228 596.52C260.702 596.52 262.9 596.947 264.82 597.8C266.761 598.653 268.318 599.848 269.492 601.384C270.686 602.92 271.401 604.712 271.636 606.76H266.164C265.95 605.629 265.492 604.659 264.788 603.848C264.084 603.016 263.177 602.376 262.068 601.928C260.958 601.48 259.668 601.256 258.196 601.256C256.51 601.256 255.049 601.576 253.812 602.216C252.596 602.835 251.657 603.731 250.996 604.904C250.334 606.056 250.004 607.421 250.004 609C250.004 610.579 250.334 611.955 250.996 613.128C251.657 614.28 252.596 615.176 253.812 615.816C255.049 616.435 256.51 616.744 258.196 616.744C259.668 616.744 260.958 616.531 262.068 616.104C263.177 615.656 264.084 615.027 264.788 614.216C265.492 613.384 265.95 612.392 266.164 611.24H271.636ZM294.96 606.92V611.08H277.776V606.92H294.96ZM281.424 609L279.824 619.176L277.456 616.488H295.952V621H274.352L276.208 609L274.352 597H295.792V601.512H277.456L279.824 598.824L281.424 609Z" fill="#24CBFF"/>
</svg>
