<svg width="100%" viewBox="0 0 1296 24" fill="none" xmlns="http://www.w3.org/2000/svg">
<path d="M4.0696 4.45455V19H1.43466V4.45455H4.0696ZM6.92294 4.45455H10.1474L14.4656 14.9943H14.636L18.9542 4.45455H22.1786V19H19.6502V9.0071H19.5153L15.4954 18.9574H13.6062L9.58629 8.9858H9.45135V19H6.92294V4.45455ZM25.0479 19V4.45455H34.5082V6.66335H27.6829V10.6122H34.0181V12.821H27.6829V16.7912H34.565V19H25.0479ZM39.3981 4.45455L42.6012 9.78125H42.7148L45.9322 4.45455H48.9364L44.4549 11.7273L49.0075 19H45.9535L42.7148 13.7088H42.6012L39.3626 19H36.3228L40.918 11.7273L36.3796 4.45455H39.3981ZM51.005 19V4.45455H56.4595C57.5769 4.45455 58.5144 4.66288 59.272 5.07955C60.0343 5.49621 60.6096 6.06913 60.9979 6.7983C61.3909 7.52273 61.5874 8.34659 61.5874 9.26989C61.5874 10.2027 61.3909 11.0312 60.9979 11.7557C60.6049 12.4801 60.0249 13.0507 59.2578 13.4673C58.4908 13.8793 57.5462 14.0852 56.424 14.0852H52.8089V11.919H56.0689C56.7223 11.919 57.2573 11.8054 57.674 11.5781C58.0907 11.3509 58.3984 11.0384 58.5973 10.6406C58.8009 10.2429 58.9027 9.78598 58.9027 9.26989C58.9027 8.75379 58.8009 8.29924 58.5973 7.90625C58.3984 7.51326 58.0883 7.20786 57.6669 6.99006C57.2502 6.76752 56.7128 6.65625 56.0547 6.65625H53.6399V19H51.005ZM63.8761 19V4.45455H66.511V10.6122H73.2511V4.45455H75.8931V19H73.2511V12.821H66.511V19H63.8761ZM80.6268 19H77.8143L82.935 4.45455H86.1879L91.3157 19H88.5032L84.6183 7.4375H84.5046L80.6268 19ZM80.7191 13.2969H88.3896V15.4134H80.7191V13.2969ZM93.2315 19V4.45455H98.6861C99.8035 4.45455 100.741 4.64867 101.499 5.03693C102.261 5.42519 102.836 5.9697 103.224 6.67045C103.617 7.36648 103.814 8.1785 103.814 9.10653C103.814 10.0393 103.615 10.849 103.217 11.5355C102.824 12.2173 102.244 12.7453 101.477 13.1193C100.71 13.4886 99.768 13.6733 98.6506 13.6733H94.7656V11.4858H98.2955C98.9489 11.4858 99.4839 11.3958 99.9006 11.2159C100.317 11.0312 100.625 10.7637 100.824 10.4134C101.027 10.0582 101.129 9.62263 101.129 9.10653C101.129 8.59044 101.027 8.15009 100.824 7.78551C100.62 7.41619 100.31 7.13684 99.8935 6.94744C99.4768 6.75331 98.9394 6.65625 98.2812 6.65625H95.8665V19H93.2315ZM100.746 12.4091L104.347 19H101.406L97.8693 12.4091H100.746ZM106.239 4.45455H109.464L113.782 14.9943H113.952L118.271 4.45455H121.495V19H118.967V9.0071H118.832L114.812 18.9574H112.923L108.903 8.9858H108.768V19H106.239V4.45455ZM126.431 4.45455V5.90341C126.431 6.32008 126.351 6.75331 126.19 7.20312C126.033 7.6482 125.818 8.07434 125.543 8.48153C125.269 8.884 124.956 9.22964 124.606 9.51847L123.413 8.74432C123.673 8.35133 123.9 7.92756 124.094 7.47301C124.289 7.01373 124.386 6.49526 124.386 5.91761V4.45455H126.431ZM136.547 8.45312C136.48 7.83286 136.201 7.34991 135.708 7.00426C135.221 6.65862 134.586 6.4858 133.805 6.4858C133.256 6.4858 132.785 6.56866 132.392 6.73438C131.999 6.90009 131.698 7.125 131.49 7.40909C131.281 7.69318 131.175 8.01752 131.17 8.3821C131.17 8.68513 131.239 8.94792 131.376 9.17045C131.518 9.39299 131.71 9.58239 131.951 9.73864C132.193 9.89015 132.46 10.018 132.754 10.1222C133.047 10.2263 133.343 10.3139 133.642 10.3849L135.005 10.7259C135.555 10.8537 136.083 11.0265 136.589 11.2443C137.1 11.4621 137.557 11.7367 137.96 12.0682C138.367 12.3996 138.689 12.7997 138.926 13.2685C139.163 13.7372 139.281 14.2865 139.281 14.9162C139.281 15.7685 139.063 16.5189 138.627 17.1676C138.192 17.8116 137.562 18.3158 136.738 18.6804C135.919 19.0402 134.927 19.2202 133.762 19.2202C132.631 19.2202 131.648 19.045 130.815 18.6946C129.986 18.3442 129.338 17.8329 128.869 17.1605C128.405 16.4882 128.154 15.669 128.116 14.7031H130.708C130.746 15.2098 130.903 15.6312 131.177 15.9673C131.452 16.3035 131.809 16.5545 132.25 16.7202C132.695 16.8859 133.192 16.9688 133.741 16.9688C134.314 16.9688 134.816 16.8835 135.247 16.7131C135.682 16.5379 136.023 16.2964 136.27 15.9886C136.516 15.6761 136.641 15.3116 136.646 14.8949C136.641 14.5161 136.53 14.2036 136.312 13.9574C136.094 13.7064 135.789 13.4981 135.396 13.3324C135.008 13.1619 134.553 13.0104 134.032 12.8778L132.377 12.4517C131.18 12.1439 130.233 11.6776 129.537 11.0526C128.845 10.4228 128.5 9.58712 128.5 8.54545C128.5 7.68845 128.732 6.93797 129.196 6.29403C129.664 5.65009 130.301 5.15057 131.106 4.79545C131.911 4.43561 132.823 4.25568 133.841 4.25568C134.873 4.25568 135.777 4.43561 136.554 4.79545C137.335 5.15057 137.948 5.64536 138.393 6.27983C138.838 6.90956 139.068 7.634 139.082 8.45312H136.547ZM146.591 19V4.45455H152.159C153.21 4.45455 154.084 4.62026 154.78 4.9517C155.481 5.27841 156.004 5.72585 156.349 6.29403C156.7 6.86222 156.875 7.50616 156.875 8.22585C156.875 8.81771 156.761 9.32434 156.534 9.74574C156.307 10.1624 156.001 10.5009 155.618 10.7614C155.234 11.0218 154.806 11.2088 154.332 11.3224V11.4645C154.848 11.4929 155.343 11.6515 155.817 11.9403C156.295 12.2244 156.686 12.6269 156.989 13.1477C157.292 13.6686 157.443 14.2983 157.443 15.0369C157.443 15.7898 157.261 16.4669 156.896 17.0682C156.532 17.6648 155.982 18.1359 155.249 18.4815C154.515 18.8272 153.591 19 152.479 19H146.591ZM149.226 16.7983H152.06C153.016 16.7983 153.705 16.616 154.126 16.2514C154.553 15.8821 154.766 15.4086 154.766 14.831C154.766 14.4001 154.659 14.0118 154.446 13.6662C154.233 13.3158 153.93 13.0412 153.537 12.8423C153.144 12.6387 152.675 12.5369 152.131 12.5369H149.226V16.7983ZM149.226 10.6406H151.832C152.287 10.6406 152.696 10.5578 153.061 10.392C153.426 10.2216 153.712 9.98248 153.92 9.67472C154.134 9.36222 154.24 8.9929 154.24 8.56676C154.24 8.00331 154.041 7.5393 153.643 7.17472C153.25 6.81013 152.666 6.62784 151.889 6.62784H149.226V10.6406ZM172.733 11.7273C172.733 13.2945 172.439 14.6368 171.852 15.7543C171.27 16.867 170.474 17.7192 169.466 18.3111C168.462 18.9029 167.323 19.1989 166.049 19.1989C164.776 19.1989 163.635 18.9029 162.626 18.3111C161.622 17.7145 160.827 16.8598 160.24 15.7472C159.657 14.6297 159.366 13.2898 159.366 11.7273C159.366 10.16 159.657 8.82008 160.24 7.70739C160.827 6.58996 161.622 5.73532 162.626 5.14347C163.635 4.55161 164.776 4.25568 166.049 4.25568C167.323 4.25568 168.462 4.55161 169.466 5.14347C170.474 5.73532 171.27 6.58996 171.852 7.70739C172.439 8.82008 172.733 10.16 172.733 11.7273ZM170.083 11.7273C170.083 10.6241 169.911 9.69366 169.565 8.93608C169.224 8.17377 168.751 7.59848 168.145 7.21023C167.538 6.81723 166.84 6.62074 166.049 6.62074C165.259 6.62074 164.56 6.81723 163.954 7.21023C163.348 7.59848 162.872 8.17377 162.527 8.93608C162.186 9.69366 162.015 10.6241 162.015 11.7273C162.015 12.8305 162.186 13.7633 162.527 14.5256C162.872 15.2831 163.348 15.8584 163.954 16.2514C164.56 16.6397 165.259 16.8338 166.049 16.8338C166.84 16.8338 167.538 16.6397 168.145 16.2514C168.751 15.8584 169.224 15.2831 169.565 14.5256C169.911 13.7633 170.083 12.8305 170.083 11.7273ZM176.31 19H173.498L178.619 4.45455H181.871L186.999 19H184.187L180.302 7.4375H180.188L176.31 19ZM176.403 13.2969H184.073V15.4134H176.403V13.2969ZM188.915 19V4.45455H194.37C195.487 4.45455 196.425 4.64867 197.182 5.03693C197.944 5.42519 198.52 5.9697 198.908 6.67045C199.301 7.36648 199.498 8.1785 199.498 9.10653C199.498 10.0393 199.299 10.849 198.901 11.5355C198.508 12.2173 197.928 12.7453 197.161 13.1193C196.394 13.4886 195.452 13.6733 194.334 13.6733H190.449V11.4858H193.979C194.632 11.4858 195.167 11.3958 195.584 11.2159C196.001 11.0312 196.309 10.7637 196.507 10.4134C196.711 10.0582 196.813 9.62263 196.813 9.10653C196.813 8.59044 196.711 8.15009 196.507 7.78551C196.304 7.41619 195.994 7.13684 195.577 6.94744C195.16 6.75331 194.623 6.65625 193.965 6.65625H191.55V19H188.915ZM196.429 12.4091L200.03 19H197.09L193.553 12.4091H196.429ZM206.852 19H201.923V4.45455H206.951C208.395 4.45455 209.636 4.74574 210.673 5.32812C211.715 5.90578 212.515 6.73674 213.074 7.82102C213.632 8.9053 213.912 10.2027 213.912 11.7131C213.912 13.2282 213.63 14.5303 213.066 15.6193C212.508 16.7083 211.7 17.544 210.645 18.1264C209.593 18.7088 208.329 19 206.852 19ZM204.558 16.7202H206.724C207.737 16.7202 208.583 16.5355 209.26 16.1662C209.937 15.7921 210.446 15.2358 210.787 14.4972C211.127 13.7538 211.298 12.8258 211.298 11.7131C211.298 10.6004 211.127 9.67708 210.787 8.94318C210.446 8.20455 209.941 7.65294 209.274 7.28835C208.611 6.91903 207.787 6.73438 206.802 6.73438H204.558V16.7202ZM234.373 11.7273C234.373 13.2945 234.08 14.6368 233.493 15.7543C232.91 16.867 232.115 17.7192 231.106 18.3111C230.102 18.9029 228.964 19.1989 227.69 19.1989C226.416 19.1989 225.275 18.9029 224.267 18.3111C223.263 17.7145 222.467 16.8598 221.88 15.7472C221.298 14.6297 221.007 13.2898 221.007 11.7273C221.007 10.16 221.298 8.82008 221.88 7.70739C222.467 6.58996 223.263 5.73532 224.267 5.14347C225.275 4.55161 226.416 4.25568 227.69 4.25568C228.964 4.25568 230.102 4.55161 231.106 5.14347C232.115 5.73532 232.91 6.58996 233.493 7.70739C234.08 8.82008 234.373 10.16 234.373 11.7273ZM231.724 11.7273C231.724 10.6241 231.551 9.69366 231.206 8.93608C230.865 8.17377 230.391 7.59848 229.785 7.21023C229.179 6.81723 228.481 6.62074 227.69 6.62074C226.899 6.62074 226.201 6.81723 225.595 7.21023C224.989 7.59848 224.513 8.17377 224.167 8.93608C223.826 9.69366 223.656 10.6241 223.656 11.7273C223.656 12.8305 223.826 13.7633 224.167 14.5256C224.513 15.2831 224.989 15.8584 225.595 16.2514C226.201 16.6397 226.899 16.8338 227.69 16.8338C228.481 16.8338 229.179 16.6397 229.785 16.2514C230.391 15.8584 230.865 15.2831 231.206 14.5256C231.551 13.7633 231.724 12.8305 231.724 11.7273ZM236.864 19V4.45455H246.183V6.66335H239.499V10.6122H245.543V12.821H239.499V19H236.864ZM258.473 19H253.544V4.45455H258.572C260.017 4.45455 261.257 4.74574 262.294 5.32812C263.336 5.90578 264.136 6.73674 264.695 7.82102C265.253 8.9053 265.533 10.2027 265.533 11.7131C265.533 13.2282 265.251 14.5303 264.688 15.6193C264.129 16.7083 263.321 17.544 262.266 18.1264C261.214 18.7088 259.95 19 258.473 19ZM256.179 16.7202H258.345C259.358 16.7202 260.204 16.5355 260.881 16.1662C261.558 15.7921 262.067 15.2358 262.408 14.4972C262.749 13.7538 262.919 12.8258 262.919 11.7131C262.919 10.6004 262.749 9.67708 262.408 8.94318C262.067 8.20455 261.563 7.65294 260.895 7.28835C260.232 6.91903 259.408 6.73438 258.423 6.73438H256.179V16.7202ZM270.671 4.45455V19H268.036V4.45455H270.671ZM273.525 19V4.45455H278.979C280.096 4.45455 281.034 4.64867 281.792 5.03693C282.554 5.42519 283.129 5.9697 283.517 6.67045C283.91 7.36648 284.107 8.1785 284.107 9.10653C284.107 10.0393 283.908 10.849 283.51 11.5355C283.117 12.2173 282.537 12.7453 281.77 13.1193C281.003 13.4886 280.061 13.6733 278.944 13.6733H275.059V11.4858H278.588C279.242 11.4858 279.777 11.3958 280.194 11.2159C280.61 11.0312 280.918 10.7637 281.117 10.4134C281.32 10.0582 281.422 9.62263 281.422 9.10653C281.422 8.59044 281.32 8.15009 281.117 7.78551C280.913 7.41619 280.603 7.13684 280.186 6.94744C279.77 6.75331 279.232 6.65625 278.574 6.65625H276.159V19H273.525ZM281.039 12.4091L284.64 19H281.699L278.162 12.4091H281.039ZM286.532 19V4.45455H295.993V6.66335H289.167V10.6122H295.502V12.821H289.167V16.7912H296.049V19H286.532ZM311.131 9.36222H308.475C308.399 8.92661 308.259 8.54072 308.056 8.20455C307.852 7.86364 307.599 7.57481 307.296 7.33807C306.993 7.10133 306.647 6.92377 306.259 6.8054C305.875 6.68229 305.461 6.62074 305.016 6.62074C304.225 6.62074 303.525 6.8196 302.914 7.21733C302.303 7.61032 301.825 8.18797 301.479 8.95028C301.133 9.70786 300.961 10.6335 300.961 11.7273C300.961 12.84 301.133 13.7775 301.479 14.5398C301.829 15.2973 302.308 15.8703 302.914 16.2585C303.525 16.642 304.223 16.8338 305.009 16.8338C305.444 16.8338 305.852 16.777 306.23 16.6634C306.614 16.545 306.957 16.3722 307.26 16.1449C307.568 15.9176 307.826 15.6383 308.034 15.3068C308.248 14.9754 308.394 14.5966 308.475 14.1705L311.131 14.1847C311.032 14.8759 310.816 15.5246 310.485 16.1307C310.158 16.7367 309.73 17.2718 309.199 17.7358C308.669 18.1951 308.049 18.5549 307.338 18.8153C306.628 19.071 305.84 19.1989 304.973 19.1989C303.695 19.1989 302.554 18.9029 301.55 18.3111C300.546 17.7192 299.756 16.8646 299.178 15.7472C298.6 14.6297 298.311 13.2898 298.311 11.7273C298.311 10.16 298.603 8.82008 299.185 7.70739C299.767 6.58996 300.56 5.73532 301.564 5.14347C302.568 4.55161 303.704 4.25568 304.973 4.25568C305.783 4.25568 306.536 4.36932 307.232 4.59659C307.928 4.82386 308.548 5.15767 309.093 5.59801C309.637 6.03362 310.085 6.56866 310.435 7.20312C310.79 7.83286 311.022 8.55256 311.131 9.36222ZM312.905 6.66335V4.45455H324.51V6.66335H320.014V19H317.401V6.66335H312.905ZM339.1 11.7273C339.1 13.2945 338.806 14.6368 338.219 15.7543C337.637 16.867 336.841 17.7192 335.833 18.3111C334.829 18.9029 333.69 19.1989 332.417 19.1989C331.143 19.1989 330.002 18.9029 328.993 18.3111C327.989 17.7145 327.194 16.8598 326.607 15.7472C326.025 14.6297 325.733 13.2898 325.733 11.7273C325.733 10.16 326.025 8.82008 326.607 7.70739C327.194 6.58996 327.989 5.73532 328.993 5.14347C330.002 4.55161 331.143 4.25568 332.417 4.25568C333.69 4.25568 334.829 4.55161 335.833 5.14347C336.841 5.73532 337.637 6.58996 338.219 7.70739C338.806 8.82008 339.1 10.16 339.1 11.7273ZM336.451 11.7273C336.451 10.6241 336.278 9.69366 335.932 8.93608C335.591 8.17377 335.118 7.59848 334.512 7.21023C333.906 6.81723 333.207 6.62074 332.417 6.62074C331.626 6.62074 330.927 6.81723 330.321 7.21023C329.715 7.59848 329.239 8.17377 328.894 8.93608C328.553 9.69366 328.382 10.6241 328.382 11.7273C328.382 12.8305 328.553 13.7633 328.894 14.5256C329.239 15.2831 329.715 15.8584 330.321 16.2514C330.927 16.6397 331.626 16.8338 332.417 16.8338C333.207 16.8338 333.906 16.6397 334.512 16.2514C335.118 15.8584 335.591 15.2831 335.932 14.5256C336.278 13.7633 336.451 12.8305 336.451 11.7273ZM341.591 19V4.45455H347.045C348.163 4.45455 349.1 4.64867 349.858 5.03693C350.62 5.42519 351.196 5.9697 351.584 6.67045C351.977 7.36648 352.173 8.1785 352.173 9.10653C352.173 10.0393 351.974 10.849 351.577 11.5355C351.184 12.2173 350.604 12.7453 349.837 13.1193C349.07 13.4886 348.127 13.6733 347.01 13.6733H343.125V11.4858H346.655C347.308 11.4858 347.843 11.3958 348.26 11.2159C348.677 11.0312 348.984 10.7637 349.183 10.4134C349.387 10.0582 349.489 9.62263 349.489 9.10653C349.489 8.59044 349.387 8.15009 349.183 7.78551C348.98 7.41619 348.67 7.13684 348.253 6.94744C347.836 6.75331 347.299 6.65625 346.641 6.65625H344.226V19H341.591ZM349.105 12.4091L352.706 19H349.766L346.229 12.4091H349.105ZM362.504 8.45312C362.437 7.83286 362.158 7.34991 361.665 7.00426C361.178 6.65862 360.543 6.4858 359.762 6.4858C359.213 6.4858 358.742 6.56866 358.349 6.73438C357.956 6.90009 357.655 7.125 357.447 7.40909C357.238 7.69318 357.132 8.01752 357.127 8.3821C357.127 8.68513 357.196 8.94792 357.333 9.17045C357.475 9.39299 357.667 9.58239 357.908 9.73864C358.15 9.89015 358.417 10.018 358.711 10.1222C359.004 10.2263 359.3 10.3139 359.599 10.3849L360.962 10.7259C361.512 10.8537 362.04 11.0265 362.546 11.2443C363.058 11.4621 363.514 11.7367 363.917 12.0682C364.324 12.3996 364.646 12.7997 364.883 13.2685C365.12 13.7372 365.238 14.2865 365.238 14.9162C365.238 15.7685 365.02 16.5189 364.585 17.1676C364.149 17.8116 363.519 18.3158 362.695 18.6804C361.876 19.0402 360.884 19.2202 359.719 19.2202C358.588 19.2202 357.605 19.045 356.772 18.6946C355.943 18.3442 355.295 17.8329 354.826 17.1605C354.362 16.4882 354.111 15.669 354.073 14.7031H356.665C356.703 15.2098 356.86 15.6312 357.134 15.9673C357.409 16.3035 357.766 16.5545 358.207 16.7202C358.652 16.8859 359.149 16.9688 359.698 16.9688C360.271 16.9688 360.773 16.8835 361.204 16.7131C361.639 16.5379 361.98 16.2964 362.227 15.9886C362.473 15.6761 362.598 15.3116 362.603 14.8949C362.598 14.5161 362.487 14.2036 362.269 13.9574C362.051 13.7064 361.746 13.4981 361.353 13.3324C360.965 13.1619 360.51 13.0104 359.989 12.8778L358.335 12.4517C357.137 12.1439 356.19 11.6776 355.494 11.0526C354.802 10.4228 354.457 9.58712 354.457 8.54545C354.457 7.68845 354.689 6.93797 355.153 6.29403C355.621 5.65009 356.258 5.15057 357.063 4.79545C357.868 4.43561 358.78 4.25568 359.798 4.25568C360.83 4.25568 361.734 4.43561 362.511 4.79545C363.292 5.15057 363.905 5.64536 364.35 6.27983C364.795 6.90956 365.025 7.634 365.039 8.45312H362.504Z" fill="#24CBFF"/>
</svg>
