<svg width="100%" height="48" viewBox="0 0 351 48" fill="none" xmlns="http://www.w3.org/2000/svg">
<path d="M4.0696 4.45455V19H1.43466V4.45455H4.0696ZM6.92294 4.45455H10.1474L14.4656 14.9943H14.636L18.9542 4.45455H22.1786V19H19.6502V9.0071H19.5153L15.4954 18.9574H13.6062L9.58629 8.9858H9.45135V19H6.92294V4.45455ZM25.0479 19V4.45455H34.5082V6.66335H27.6829V10.6122H34.0181V12.821H27.6829V16.7912H34.565V19H25.0479ZM39.3981 4.45455L42.6012 9.78125H42.7148L45.9322 4.45455H48.9364L44.4549 11.7273L49.0075 19H45.9535L42.7148 13.7088H42.6012L39.3626 19H36.3228L40.918 11.7273L36.3796 4.45455H39.3981ZM51.005 19V4.45455H56.4595C57.5769 4.45455 58.5144 4.66288 59.272 5.07955C60.0343 5.49621 60.6096 6.06913 60.9979 6.7983C61.3909 7.52273 61.5874 8.34659 61.5874 9.26989C61.5874 10.2027 61.3909 11.0312 60.9979 11.7557C60.6049 12.4801 60.0249 13.0507 59.2578 13.4673C58.4908 13.8793 57.5462 14.0852 56.424 14.0852H52.8089V11.919H56.0689C56.7223 11.919 57.2573 11.8054 57.674 11.5781C58.0907 11.3509 58.3984 11.0384 58.5973 10.6406C58.8009 10.2429 58.9027 9.78598 58.9027 9.26989C58.9027 8.75379 58.8009 8.29924 58.5973 7.90625C58.3984 7.51326 58.0883 7.20786 57.6669 6.99006C57.2502 6.76752 56.7128 6.65625 56.0547 6.65625H53.6399V19H51.005ZM63.8761 19V4.45455H66.511V10.6122H73.2511V4.45455H75.8931V19H73.2511V12.821H66.511V19H63.8761ZM80.6268 19H77.8143L82.935 4.45455H86.1879L91.3157 19H88.5032L84.6183 7.4375H84.5046L80.6268 19ZM80.7191 13.2969H88.3896V15.4134H80.7191V13.2969ZM93.2315 19V4.45455H98.6861C99.8035 4.45455 100.741 4.64867 101.499 5.03693C102.261 5.42519 102.836 5.9697 103.224 6.67045C103.617 7.36648 103.814 8.1785 103.814 9.10653C103.814 10.0393 103.615 10.849 103.217 11.5355C102.824 12.2173 102.244 12.7453 101.477 13.1193C100.71 13.4886 99.768 13.6733 98.6506 13.6733H94.7656V11.4858H98.2955C98.9489 11.4858 99.4839 11.3958 99.9006 11.2159C100.317 11.0312 100.625 10.7637 100.824 10.4134C101.027 10.0582 101.129 9.62263 101.129 9.10653C101.129 8.59044 101.027 8.15009 100.824 7.78551C100.62 7.41619 100.31 7.13684 99.8935 6.94744C99.4768 6.75331 98.9394 6.65625 98.2812 6.65625H95.8665V19H93.2315ZM100.746 12.4091L104.347 19H101.406L97.8693 12.4091H100.746ZM106.239 4.45455H109.464L113.782 14.9943H113.952L118.271 4.45455H121.495V19H118.967V9.0071H118.832L114.812 18.9574H112.923L108.903 8.9858H108.768V19H106.239V4.45455ZM126.431 4.45455V5.90341C126.431 6.32008 126.351 6.75331 126.19 7.20312C126.033 7.6482 125.818 8.07434 125.543 8.48153C125.269 8.884 124.956 9.22964 124.606 9.51847L123.413 8.74432C123.673 8.35133 123.9 7.92756 124.094 7.47301C124.289 7.01373 124.386 6.49526 124.386 5.91761V4.45455H126.431ZM136.547 8.45312C136.48 7.83286 136.201 7.34991 135.708 7.00426C135.221 6.65862 134.586 6.4858 133.805 6.4858C133.256 6.4858 132.785 6.56866 132.392 6.73438C131.999 6.90009 131.698 7.125 131.49 7.40909C131.281 7.69318 131.175 8.01752 131.17 8.3821C131.17 8.68513 131.239 8.94792 131.376 9.17045C131.518 9.39299 131.71 9.58239 131.951 9.73864C132.193 9.89015 132.46 10.018 132.754 10.1222C133.047 10.2263 133.343 10.3139 133.642 10.3849L135.005 10.7259C135.555 10.8537 136.083 11.0265 136.589 11.2443C137.1 11.4621 137.557 11.7367 137.96 12.0682C138.367 12.3996 138.689 12.7997 138.926 13.2685C139.163 13.7372 139.281 14.2865 139.281 14.9162C139.281 15.7685 139.063 16.5189 138.627 17.1676C138.192 17.8116 137.562 18.3158 136.738 18.6804C135.919 19.0402 134.927 19.2202 133.762 19.2202C132.631 19.2202 131.648 19.045 130.815 18.6946C129.986 18.3442 129.338 17.8329 128.869 17.1605C128.405 16.4882 128.154 15.669 128.116 14.7031H130.708C130.746 15.2098 130.903 15.6312 131.177 15.9673C131.452 16.3035 131.809 16.5545 132.25 16.7202C132.695 16.8859 133.192 16.9688 133.741 16.9688C134.314 16.9688 134.816 16.8835 135.247 16.7131C135.682 16.5379 136.023 16.2964 136.27 15.9886C136.516 15.6761 136.641 15.3116 136.646 14.8949C136.641 14.5161 136.53 14.2036 136.312 13.9574C136.094 13.7064 135.789 13.4981 135.396 13.3324C135.008 13.1619 134.553 13.0104 134.032 12.8778L132.377 12.4517C131.18 12.1439 130.233 11.6776 129.537 11.0526C128.845 10.4228 128.5 9.58712 128.5 8.54545C128.5 7.68845 128.732 6.93797 129.196 6.29403C129.664 5.65009 130.301 5.15057 131.106 4.79545C131.911 4.43561 132.823 4.25568 133.841 4.25568C134.873 4.25568 135.777 4.43561 136.554 4.79545C137.335 5.15057 137.948 5.64536 138.393 6.27983C138.838 6.90956 139.068 7.634 139.082 8.45312H136.547ZM146.591 19V4.45455H152.159C153.21 4.45455 154.084 4.62026 154.78 4.9517C155.481 5.27841 156.004 5.72585 156.349 6.29403C156.7 6.86222 156.875 7.50616 156.875 8.22585C156.875 8.81771 156.761 9.32434 156.534 9.74574C156.307 10.1624 156.001 10.5009 155.618 10.7614C155.234 11.0218 154.806 11.2088 154.332 11.3224V11.4645C154.848 11.4929 155.343 11.6515 155.817 11.9403C156.295 12.2244 156.686 12.6269 156.989 13.1477C157.292 13.6686 157.443 14.2983 157.443 15.0369C157.443 15.7898 157.261 16.4669 156.896 17.0682C156.532 17.6648 155.982 18.1359 155.249 18.4815C154.515 18.8272 153.591 19 152.479 19H146.591ZM149.226 16.7983H152.06C153.016 16.7983 153.705 16.616 154.126 16.2514C154.553 15.8821 154.766 15.4086 154.766 14.831C154.766 14.4001 154.659 14.0118 154.446 13.6662C154.233 13.3158 153.93 13.0412 153.537 12.8423C153.144 12.6387 152.675 12.5369 152.131 12.5369H149.226V16.7983ZM149.226 10.6406H151.832C152.287 10.6406 152.696 10.5578 153.061 10.392C153.426 10.2216 153.712 9.98248 153.92 9.67472C154.134 9.36222 154.24 8.9929 154.24 8.56676C154.24 8.00331 154.041 7.5393 153.643 7.17472C153.25 6.81013 152.666 6.62784 151.889 6.62784H149.226V10.6406ZM172.733 11.7273C172.733 13.2945 172.439 14.6368 171.852 15.7543C171.27 16.867 170.474 17.7192 169.466 18.3111C168.462 18.9029 167.323 19.1989 166.049 19.1989C164.776 19.1989 163.635 18.9029 162.626 18.3111C161.622 17.7145 160.827 16.8598 160.24 15.7472C159.657 14.6297 159.366 13.2898 159.366 11.7273C159.366 10.16 159.657 8.82008 160.24 7.70739C160.827 6.58996 161.622 5.73532 162.626 5.14347C163.635 4.55161 164.776 4.25568 166.049 4.25568C167.323 4.25568 168.462 4.55161 169.466 5.14347C170.474 5.73532 171.27 6.58996 171.852 7.70739C172.439 8.82008 172.733 10.16 172.733 11.7273ZM170.083 11.7273C170.083 10.6241 169.911 9.69366 169.565 8.93608C169.224 8.17377 168.751 7.59848 168.145 7.21023C167.538 6.81723 166.84 6.62074 166.049 6.62074C165.259 6.62074 164.56 6.81723 163.954 7.21023C163.348 7.59848 162.872 8.17377 162.527 8.93608C162.186 9.69366 162.015 10.6241 162.015 11.7273C162.015 12.8305 162.186 13.7633 162.527 14.5256C162.872 15.2831 163.348 15.8584 163.954 16.2514C164.56 16.6397 165.259 16.8338 166.049 16.8338C166.84 16.8338 167.538 16.6397 168.145 16.2514C168.751 15.8584 169.224 15.2831 169.565 14.5256C169.911 13.7633 170.083 12.8305 170.083 11.7273ZM176.31 19H173.498L178.619 4.45455H181.871L186.999 19H184.187L180.302 7.4375H180.188L176.31 19ZM176.403 13.2969H184.073V15.4134H176.403V13.2969ZM188.915 19V4.45455H194.37C195.487 4.45455 196.425 4.64867 197.182 5.03693C197.944 5.42519 198.52 5.9697 198.908 6.67045C199.301 7.36648 199.498 8.1785 199.498 9.10653C199.498 10.0393 199.299 10.849 198.901 11.5355C198.508 12.2173 197.928 12.7453 197.161 13.1193C196.394 13.4886 195.452 13.6733 194.334 13.6733H190.449V11.4858H193.979C194.632 11.4858 195.167 11.3958 195.584 11.2159C196.001 11.0312 196.309 10.7637 196.507 10.4134C196.711 10.0582 196.813 9.62263 196.813 9.10653C196.813 8.59044 196.711 8.15009 196.507 7.78551C196.304 7.41619 195.994 7.13684 195.577 6.94744C195.16 6.75331 194.623 6.65625 193.965 6.65625H191.55V19H188.915ZM196.429 12.4091L200.03 19H197.09L193.553 12.4091H196.429ZM206.852 19H201.923V4.45455H206.951C208.395 4.45455 209.636 4.74574 210.673 5.32812C211.715 5.90578 212.515 6.73674 213.074 7.82102C213.632 8.9053 213.912 10.2027 213.912 11.7131C213.912 13.2282 213.63 14.5303 213.066 15.6193C212.508 16.7083 211.7 17.544 210.645 18.1264C209.593 18.7088 208.329 19 206.852 19ZM204.558 16.7202H206.724C207.737 16.7202 208.583 16.5355 209.26 16.1662C209.937 15.7921 210.446 15.2358 210.787 14.4972C211.127 13.7538 211.298 12.8258 211.298 11.7131C211.298 10.6004 211.127 9.67708 210.787 8.94318C210.446 8.20455 209.941 7.65294 209.274 7.28835C208.611 6.91903 207.787 6.73438 206.802 6.73438H204.558V16.7202ZM234.373 11.7273C234.373 13.2945 234.08 14.6368 233.493 15.7543C232.91 16.867 232.115 17.7192 231.106 18.3111C230.102 18.9029 228.964 19.1989 227.69 19.1989C226.416 19.1989 225.275 18.9029 224.267 18.3111C223.263 17.7145 222.467 16.8598 221.88 15.7472C221.298 14.6297 221.007 13.2898 221.007 11.7273C221.007 10.16 221.298 8.82008 221.88 7.70739C222.467 6.58996 223.263 5.73532 224.267 5.14347C225.275 4.55161 226.416 4.25568 227.69 4.25568C228.964 4.25568 230.102 4.55161 231.106 5.14347C232.115 5.73532 232.91 6.58996 233.493 7.70739C234.08 8.82008 234.373 10.16 234.373 11.7273ZM231.724 11.7273C231.724 10.6241 231.551 9.69366 231.206 8.93608C230.865 8.17377 230.391 7.59848 229.785 7.21023C229.179 6.81723 228.481 6.62074 227.69 6.62074C226.899 6.62074 226.201 6.81723 225.595 7.21023C224.989 7.59848 224.513 8.17377 224.167 8.93608C223.826 9.69366 223.656 10.6241 223.656 11.7273C223.656 12.8305 223.826 13.7633 224.167 14.5256C224.513 15.2831 224.989 15.8584 225.595 16.2514C226.201 16.6397 226.899 16.8338 227.69 16.8338C228.481 16.8338 229.179 16.6397 229.785 16.2514C230.391 15.8584 230.865 15.2831 231.206 14.5256C231.551 13.7633 231.724 12.8305 231.724 11.7273ZM236.864 19V4.45455H246.183V6.66335H239.499V10.6122H245.543V12.821H239.499V19H236.864ZM6.36364 43H1.43466V28.4545H6.46307C7.9072 28.4545 9.14773 28.7457 10.1847 29.3281C11.2263 29.9058 12.0265 30.7367 12.5852 31.821C13.1439 32.9053 13.4233 34.2027 13.4233 35.7131C13.4233 37.2282 13.1416 38.5303 12.5781 39.6193C12.0194 40.7083 11.2121 41.544 10.1562 42.1264C9.10511 42.7088 7.84091 43 6.36364 43ZM4.0696 40.7202H6.2358C7.24905 40.7202 8.09422 40.5355 8.77131 40.1662C9.44839 39.7921 9.95739 39.2358 10.2983 38.4972C10.6392 37.7538 10.8097 36.8258 10.8097 35.7131C10.8097 34.6004 10.6392 33.6771 10.2983 32.9432C9.95739 32.2045 9.45313 31.6529 8.78551 31.2884C8.12263 30.919 7.29877 30.7344 6.31392 30.7344H4.0696V40.7202ZM18.5618 28.4545V43H15.9268V28.4545H18.5618ZM21.4151 43V28.4545H26.8697C27.9871 28.4545 28.9246 28.6487 29.6822 29.0369C30.4445 29.4252 31.0198 29.9697 31.408 30.6705C31.801 31.3665 31.9975 32.1785 31.9975 33.1065C31.9975 34.0393 31.7987 34.849 31.4009 35.5355C31.0079 36.2173 30.4279 36.7453 29.6609 37.1193C28.8938 37.4886 27.9516 37.6733 26.8342 37.6733H22.9492V35.4858H26.479C27.1325 35.4858 27.6675 35.3958 28.0842 35.2159C28.5008 35.0312 28.8086 34.7637 29.0075 34.4134C29.2111 34.0582 29.3129 33.6226 29.3129 33.1065C29.3129 32.5904 29.2111 32.1501 29.0075 31.7855C28.8039 31.4162 28.4937 31.1368 28.0771 30.9474C27.6604 30.7533 27.123 30.6562 26.4648 30.6562H24.0501V43H21.4151ZM28.9293 36.4091L32.5302 43H29.5898L26.0529 36.4091H28.9293ZM34.4229 43V28.4545H43.8832V30.6634H37.0579V34.6122H43.3931V36.821H37.0579V40.7912H43.94V43H34.4229ZM59.0217 33.3622H56.3654C56.2897 32.9266 56.15 32.5407 55.9464 32.2045C55.7428 31.8636 55.4895 31.5748 55.1864 31.3381C54.8834 31.1013 54.5378 30.9238 54.1495 30.8054C53.766 30.6823 53.3517 30.6207 52.9066 30.6207C52.1159 30.6207 51.4151 30.8196 50.8043 31.2173C50.1935 31.6103 49.7153 32.188 49.3697 32.9503C49.024 33.7079 48.8512 34.6335 48.8512 35.7273C48.8512 36.84 49.024 37.7775 49.3697 38.5398C49.7201 39.2973 50.1983 39.8703 50.8043 40.2585C51.4151 40.642 52.1135 40.8338 52.8995 40.8338C53.3351 40.8338 53.7423 40.777 54.1211 40.6634C54.5046 40.545 54.8479 40.3722 55.1509 40.1449C55.4587 39.9176 55.7167 39.6383 55.9251 39.3068C56.1381 38.9754 56.2849 38.5966 56.3654 38.1705L59.0217 38.1847C58.9222 38.8759 58.7068 39.5246 58.3754 40.1307C58.0487 40.7367 57.6201 41.2718 57.0898 41.7358C56.5595 42.1951 55.9393 42.5549 55.229 42.8153C54.5188 43.071 53.7305 43.1989 52.864 43.1989C51.5856 43.1989 50.4445 42.9029 49.4407 42.3111C48.4369 41.7192 47.6462 40.8646 47.0685 39.7472C46.4909 38.6297 46.2021 37.2898 46.2021 35.7273C46.2021 34.16 46.4933 32.8201 47.0756 31.7074C47.658 30.59 48.4511 29.7353 49.4549 29.1435C50.4587 28.5516 51.5951 28.2557 52.864 28.2557C53.6737 28.2557 54.4265 28.3693 55.1225 28.5966C55.8185 28.8239 56.4388 29.1577 56.9833 29.598C57.5278 30.0336 57.9753 30.5687 58.3256 31.2031C58.6808 31.8329 58.9128 32.5526 59.0217 33.3622ZM60.7955 30.6634V28.4545H72.4006V30.6634H67.9048V43H65.2912V30.6634H60.7955ZM86.9904 35.7273C86.9904 37.2945 86.6969 38.6368 86.1097 39.7543C85.5273 40.867 84.7319 41.7192 83.7234 42.3111C82.7196 42.9029 81.5808 43.1989 80.3072 43.1989C79.0335 43.1989 77.8924 42.9029 76.8839 42.3111C75.8801 41.7145 75.0846 40.8598 74.4975 39.7472C73.9151 38.6297 73.6239 37.2898 73.6239 35.7273C73.6239 34.16 73.9151 32.8201 74.4975 31.7074C75.0846 30.59 75.8801 29.7353 76.8839 29.1435C77.8924 28.5516 79.0335 28.2557 80.3072 28.2557C81.5808 28.2557 82.7196 28.5516 83.7234 29.1435C84.7319 29.7353 85.5273 30.59 86.1097 31.7074C86.6969 32.8201 86.9904 34.16 86.9904 35.7273ZM84.3413 35.7273C84.3413 34.6241 84.1684 33.6937 83.8228 32.9361C83.4819 32.1738 83.0084 31.5985 82.4023 31.2102C81.7963 30.8172 81.0979 30.6207 80.3072 30.6207C79.5165 30.6207 78.8181 30.8172 78.212 31.2102C77.6059 31.5985 77.1301 32.1738 76.7844 32.9361C76.4435 33.6937 76.2731 34.6241 76.2731 35.7273C76.2731 36.8305 76.4435 37.7633 76.7844 38.5256C77.1301 39.2831 77.6059 39.8584 78.212 40.2514C78.8181 40.6397 79.5165 40.8338 80.3072 40.8338C81.0979 40.8338 81.7963 40.6397 82.4023 40.2514C83.0084 39.8584 83.4819 39.2831 83.8228 38.5256C84.1684 37.7633 84.3413 36.8305 84.3413 35.7273ZM89.4815 43V28.4545H94.9361C96.0535 28.4545 96.991 28.6487 97.7486 29.0369C98.5109 29.4252 99.0862 29.9697 99.4744 30.6705C99.8674 31.3665 100.064 32.1785 100.064 33.1065C100.064 34.0393 99.8651 34.849 99.4673 35.5355C99.0743 36.2173 98.4943 36.7453 97.7273 37.1193C96.9602 37.4886 96.018 37.6733 94.9006 37.6733H91.0156V35.4858H94.5455C95.1989 35.4858 95.7339 35.3958 96.1506 35.2159C96.5672 35.0312 96.875 34.7637 97.0739 34.4134C97.2775 34.0582 97.3793 33.6226 97.3793 33.1065C97.3793 32.5904 97.2775 32.1501 97.0739 31.7855C96.8703 31.4162 96.5601 31.1368 96.1435 30.9474C95.7268 30.7533 95.1894 30.6562 94.5312 30.6562H92.1165V43H89.4815ZM96.9957 36.4091L100.597 43H97.6562L94.1193 36.4091H96.9957ZM110.394 32.4531C110.328 31.8329 110.049 31.3499 109.556 31.0043C109.068 30.6586 108.434 30.4858 107.653 30.4858C107.103 30.4858 106.632 30.5687 106.239 30.7344C105.846 30.9001 105.546 31.125 105.337 31.4091C105.129 31.6932 105.022 32.0175 105.018 32.3821C105.018 32.6851 105.086 32.9479 105.224 33.1705C105.366 33.393 105.558 33.5824 105.799 33.7386C106.04 33.8902 106.308 34.018 106.602 34.1222C106.895 34.2263 107.191 34.3139 107.489 34.3849L108.853 34.7259C109.402 34.8537 109.93 35.0265 110.437 35.2443C110.948 35.4621 111.405 35.7367 111.808 36.0682C112.215 36.3996 112.537 36.7997 112.773 37.2685C113.01 37.7372 113.129 38.2865 113.129 38.9162C113.129 39.7685 112.911 40.5189 112.475 41.1676C112.04 41.8116 111.41 42.3158 110.586 42.6804C109.767 43.0402 108.775 43.2202 107.61 43.2202C106.478 43.2202 105.496 43.045 104.663 42.6946C103.834 42.3442 103.185 41.8329 102.717 41.1605C102.253 40.4882 102.002 39.669 101.964 38.7031H104.556C104.594 39.2098 104.75 39.6312 105.025 39.9673C105.299 40.3035 105.657 40.5545 106.097 40.7202C106.542 40.8859 107.04 40.9688 107.589 40.9688C108.162 40.9688 108.664 40.8835 109.094 40.7131C109.53 40.5379 109.871 40.2964 110.117 39.9886C110.363 39.6761 110.489 39.3116 110.494 38.8949C110.489 38.5161 110.378 38.2036 110.16 37.9574C109.942 37.7064 109.637 37.4981 109.244 37.3324C108.855 37.1619 108.401 37.0104 107.88 36.8778L106.225 36.4517C105.027 36.1439 104.08 35.6776 103.384 35.0526C102.693 34.4228 102.347 33.5871 102.347 32.5455C102.347 31.6884 102.579 30.938 103.043 30.294C103.512 29.6501 104.149 29.1506 104.954 28.7955C105.759 28.4356 106.67 28.2557 107.688 28.2557C108.72 28.2557 109.625 28.4356 110.401 28.7955C111.183 29.1506 111.796 29.6454 112.241 30.2798C112.686 30.9096 112.915 31.634 112.93 32.4531H110.394Z" fill="#24CBFF"/>
</svg>
