<svg width="100%" viewBox="0 0 351 24" fill="none" xmlns="http://www.w3.org/2000/svg">
<path d="M4.0696 4.45455V19H1.43466V4.45455H4.0696ZM6.92294 4.45455H10.1474L14.4656 14.9943H14.636L18.9542 4.45455H22.1786V19H19.6502V9.0071H19.5153L15.4954 18.9574H13.6062L9.58629 8.9858H9.45135V19H6.92294V4.45455ZM25.0479 19V4.45455H34.5082V6.66335H27.6829V10.6122H34.0181V12.821H27.6829V16.7912H34.565V19H25.0479ZM39.3981 4.45455L42.6012 9.78125H42.7148L45.9322 4.45455H48.9364L44.4549 11.7273L49.0075 19H45.9535L42.7148 13.7088H42.6012L39.3626 19H36.3228L40.918 11.7273L36.3796 4.45455H39.3981ZM51.005 19V4.45455H56.4595C57.5769 4.45455 58.5144 4.66288 59.272 5.07955C60.0343 5.49621 60.6096 6.06913 60.9979 6.7983C61.3909 7.52273 61.5874 8.34659 61.5874 9.26989C61.5874 10.2027 61.3909 11.0312 60.9979 11.7557C60.6049 12.4801 60.0249 13.0507 59.2578 13.4673C58.4908 13.8793 57.5462 14.0852 56.424 14.0852H52.8089V11.919H56.0689C56.7223 11.919 57.2573 11.8054 57.674 11.5781C58.0907 11.3509 58.3984 11.0384 58.5973 10.6406C58.8009 10.2429 58.9027 9.78598 58.9027 9.26989C58.9027 8.75379 58.8009 8.29924 58.5973 7.90625C58.3984 7.51326 58.0883 7.20786 57.6669 6.99006C57.2502 6.76752 56.7128 6.65625 56.0547 6.65625H53.6399V19H51.005ZM63.8761 19V4.45455H66.511V10.6122H73.2511V4.45455H75.8931V19H73.2511V12.821H66.511V19H63.8761ZM80.6268 19H77.8143L82.935 4.45455H86.1879L91.3157 19H88.5032L84.6183 7.4375H84.5046L80.6268 19ZM80.7191 13.2969H88.3896V15.4134H80.7191V13.2969ZM93.2315 19V4.45455H98.6861C99.8035 4.45455 100.741 4.64867 101.499 5.03693C102.261 5.42519 102.836 5.9697 103.224 6.67045C103.617 7.36648 103.814 8.1785 103.814 9.10653C103.814 10.0393 103.615 10.849 103.217 11.5355C102.824 12.2173 102.244 12.7453 101.477 13.1193C100.71 13.4886 99.768 13.6733 98.6506 13.6733H94.7656V11.4858H98.2955C98.9489 11.4858 99.4839 11.3958 99.9006 11.2159C100.317 11.0312 100.625 10.7637 100.824 10.4134C101.027 10.0582 101.129 9.62263 101.129 9.10653C101.129 8.59044 101.027 8.15009 100.824 7.78551C100.62 7.41619 100.31 7.13684 99.8935 6.94744C99.4768 6.75331 98.9394 6.65625 98.2812 6.65625H95.8665V19H93.2315ZM100.746 12.4091L104.347 19H101.406L97.8693 12.4091H100.746ZM106.239 4.45455H109.464L113.782 14.9943H113.952L118.271 4.45455H121.495V19H118.967V9.0071H118.832L114.812 18.9574H112.923L108.903 8.9858H108.768V19H106.239V4.45455ZM126.431 4.45455V5.90341C126.431 6.32008 126.351 6.75331 126.19 7.20312C126.033 7.6482 125.818 8.07434 125.543 8.48153C125.269 8.884 124.956 9.22964 124.606 9.51847L123.413 8.74432C123.673 8.35133 123.9 7.92756 124.094 7.47301C124.289 7.01373 124.386 6.49526 124.386 5.91761V4.45455H126.431ZM136.547 8.45312C136.48 7.83286 136.201 7.34991 135.708 7.00426C135.221 6.65862 134.586 6.4858 133.805 6.4858C133.256 6.4858 132.785 6.56866 132.392 6.73438C131.999 6.90009 131.698 7.125 131.49 7.40909C131.281 7.69318 131.175 8.01752 131.17 8.3821C131.17 8.68513 131.239 8.94792 131.376 9.17045C131.518 9.39299 131.71 9.58239 131.951 9.73864C132.193 9.89015 132.46 10.018 132.754 10.1222C133.047 10.2263 133.343 10.3139 133.642 10.3849L135.005 10.7259C135.555 10.8537 136.083 11.0265 136.589 11.2443C137.1 11.4621 137.557 11.7367 137.96 12.0682C138.367 12.3996 138.689 12.7997 138.926 13.2685C139.163 13.7372 139.281 14.2865 139.281 14.9162C139.281 15.7685 139.063 16.5189 138.627 17.1676C138.192 17.8116 137.562 18.3158 136.738 18.6804C135.919 19.0402 134.927 19.2202 133.762 19.2202C132.631 19.2202 131.648 19.045 130.815 18.6946C129.986 18.3442 129.338 17.8329 128.869 17.1605C128.405 16.4882 128.154 15.669 128.116 14.7031H130.708C130.746 15.2098 130.903 15.6312 131.177 15.9673C131.452 16.3035 131.809 16.5545 132.25 16.7202C132.695 16.8859 133.192 16.9688 133.741 16.9688C134.314 16.9688 134.816 16.8835 135.247 16.7131C135.682 16.5379 136.023 16.2964 136.27 15.9886C136.516 15.6761 136.641 15.3116 136.646 14.8949C136.641 14.5161 136.53 14.2036 136.312 13.9574C136.094 13.7064 135.789 13.4981 135.396 13.3324C135.008 13.1619 134.553 13.0104 134.032 12.8778L132.377 12.4517C131.18 12.1439 130.233 11.6776 129.537 11.0526C128.845 10.4228 128.5 9.58712 128.5 8.54545C128.5 7.68845 128.732 6.93797 129.196 6.29403C129.664 5.65009 130.301 5.15057 131.106 4.79545C131.911 4.43561 132.823 4.25568 133.841 4.25568C134.873 4.25568 135.777 4.43561 136.554 4.79545C137.335 5.15057 137.948 5.64536 138.393 6.27983C138.838 6.90956 139.068 7.634 139.082 8.45312H136.547ZM146.591 19V4.45455H156.051V6.66335H149.226V10.6122H155.561V12.821H149.226V16.7912H156.108V19H146.591ZM160.941 4.45455L164.144 9.78125H164.258L167.475 4.45455H170.479L165.998 11.7273L170.55 19H167.496L164.258 13.7088H164.144L160.906 19H157.866L162.461 11.7273L157.923 4.45455H160.941ZM172.548 19V4.45455H182.008V6.66335H175.183V10.6122H181.518V12.821H175.183V16.7912H182.065V19H172.548ZM197.147 9.36222H194.49C194.415 8.92661 194.275 8.54072 194.071 8.20455C193.868 7.86364 193.614 7.57481 193.311 7.33807C193.008 7.10133 192.663 6.92377 192.275 6.8054C191.891 6.68229 191.477 6.62074 191.032 6.62074C190.241 6.62074 189.54 6.8196 188.929 7.21733C188.319 7.61032 187.84 8.18797 187.495 8.95028C187.149 9.70786 186.976 10.6335 186.976 11.7273C186.976 12.84 187.149 13.7775 187.495 14.5398C187.845 15.2973 188.323 15.8703 188.929 16.2585C189.54 16.642 190.239 16.8338 191.025 16.8338C191.46 16.8338 191.867 16.777 192.246 16.6634C192.63 16.545 192.973 16.3722 193.276 16.1449C193.584 15.9176 193.842 15.6383 194.05 15.3068C194.263 14.9754 194.41 14.5966 194.49 14.1705L197.147 14.1847C197.047 14.8759 196.832 15.5246 196.5 16.1307C196.174 16.7367 195.745 17.2718 195.215 17.7358C194.685 18.1951 194.064 18.5549 193.354 18.8153C192.644 19.071 191.855 19.1989 190.989 19.1989C189.711 19.1989 188.569 18.9029 187.566 18.3111C186.562 17.7192 185.771 16.8646 185.194 15.7472C184.616 14.6297 184.327 13.2898 184.327 11.7273C184.327 10.16 184.618 8.82008 185.201 7.70739C185.783 6.58996 186.576 5.73532 187.58 5.14347C188.584 4.55161 189.72 4.25568 190.989 4.25568C191.799 4.25568 192.551 4.36932 193.248 4.59659C193.944 4.82386 194.564 5.15767 195.108 5.59801C195.653 6.03362 196.1 6.56866 196.451 7.20312C196.806 7.83286 197.038 8.55256 197.147 9.36222ZM208.729 4.45455H211.364V13.9574C211.364 14.9991 211.117 15.9152 210.625 16.706C210.137 17.4967 209.451 18.1146 208.565 18.5597C207.68 19 206.645 19.2202 205.462 19.2202C204.273 19.2202 203.236 19 202.351 18.5597C201.465 18.1146 200.779 17.4967 200.291 16.706C199.804 15.9152 199.56 14.9991 199.56 13.9574V4.45455H202.195V13.7372C202.195 14.3433 202.327 14.883 202.592 15.3565C202.862 15.83 203.241 16.2017 203.729 16.4716C204.216 16.7367 204.794 16.8693 205.462 16.8693C206.129 16.8693 206.707 16.7367 207.195 16.4716C207.687 16.2017 208.066 15.83 208.331 15.3565C208.596 14.883 208.729 14.3433 208.729 13.7372V4.45455ZM213.588 6.66335V4.45455H225.194V6.66335H220.698V19H218.084V6.66335H213.588ZM230.066 4.45455V19H227.431V4.45455H230.066ZM234.865 4.45455L238.651 15.9034H238.8L242.578 4.45455H245.476L240.348 19H237.095L231.974 4.45455H234.865ZM247.392 19V4.45455H256.852V6.66335H250.027V10.6122H256.362V12.821H250.027V16.7912H256.909V19H247.392ZM264.501 19V4.45455H270.069C271.12 4.45455 271.994 4.62026 272.69 4.9517C273.391 5.27841 273.914 5.72585 274.26 6.29403C274.61 6.86222 274.785 7.50616 274.785 8.22585C274.785 8.81771 274.672 9.32434 274.444 9.74574C274.217 10.1624 273.912 10.5009 273.528 10.7614C273.145 11.0218 272.716 11.2088 272.243 11.3224V11.4645C272.759 11.4929 273.253 11.6515 273.727 11.9403C274.205 12.2244 274.596 12.6269 274.899 13.1477C275.202 13.6686 275.353 14.2983 275.353 15.0369C275.353 15.7898 275.171 16.4669 274.806 17.0682C274.442 17.6648 273.893 18.1359 273.159 18.4815C272.425 18.8272 271.502 19 270.389 19H264.501ZM267.136 16.7983H269.97C270.926 16.7983 271.615 16.616 272.037 16.2514C272.463 15.8821 272.676 15.4086 272.676 14.831C272.676 14.4001 272.569 14.0118 272.356 13.6662C272.143 13.3158 271.84 13.0412 271.447 12.8423C271.054 12.6387 270.585 12.5369 270.041 12.5369H267.136V16.7983ZM267.136 10.6406H269.743C270.197 10.6406 270.607 10.5578 270.971 10.392C271.336 10.2216 271.622 9.98248 271.831 9.67472C272.044 9.36222 272.15 8.9929 272.15 8.56676C272.15 8.00331 271.951 7.5393 271.554 7.17472C271.161 6.81013 270.576 6.62784 269.799 6.62784H267.136V10.6406ZM290.643 11.7273C290.643 13.2945 290.349 14.6368 289.762 15.7543C289.18 16.867 288.384 17.7192 287.376 18.3111C286.372 18.9029 285.233 19.1989 283.96 19.1989C282.686 19.1989 281.545 18.9029 280.536 18.3111C279.532 17.7145 278.737 16.8598 278.15 15.7472C277.567 14.6297 277.276 13.2898 277.276 11.7273C277.276 10.16 277.567 8.82008 278.15 7.70739C278.737 6.58996 279.532 5.73532 280.536 5.14347C281.545 4.55161 282.686 4.25568 283.96 4.25568C285.233 4.25568 286.372 4.55161 287.376 5.14347C288.384 5.73532 289.18 6.58996 289.762 7.70739C290.349 8.82008 290.643 10.16 290.643 11.7273ZM287.994 11.7273C287.994 10.6241 287.821 9.69366 287.475 8.93608C287.134 8.17377 286.661 7.59848 286.055 7.21023C285.449 6.81723 284.75 6.62074 283.96 6.62074C283.169 6.62074 282.47 6.81723 281.864 7.21023C281.258 7.59848 280.782 8.17377 280.437 8.93608C280.096 9.69366 279.925 10.6241 279.925 11.7273C279.925 12.8305 280.096 13.7633 280.437 14.5256C280.782 15.2831 281.258 15.8584 281.864 16.2514C282.47 16.6397 283.169 16.8338 283.96 16.8338C284.75 16.8338 285.449 16.6397 286.055 16.2514C286.661 15.8584 287.134 15.2831 287.475 14.5256C287.821 13.7633 287.994 12.8305 287.994 11.7273ZM294.221 19H291.408L296.529 4.45455H299.782L304.909 19H302.097L298.212 7.4375H298.098L294.221 19ZM294.313 13.2969H301.983V15.4134H294.313V13.2969ZM306.825 19V4.45455H312.28C313.397 4.45455 314.335 4.64867 315.092 5.03693C315.855 5.42519 316.43 5.9697 316.818 6.67045C317.211 7.36648 317.408 8.1785 317.408 9.10653C317.408 10.0393 317.209 10.849 316.811 11.5355C316.418 12.2173 315.838 12.7453 315.071 13.1193C314.304 13.4886 313.362 13.6733 312.244 13.6733H308.359V11.4858H311.889C312.543 11.4858 313.078 11.3958 313.494 11.2159C313.911 11.0312 314.219 10.7637 314.418 10.4134C314.621 10.0582 314.723 9.62263 314.723 9.10653C314.723 8.59044 314.621 8.15009 314.418 7.78551C314.214 7.41619 313.904 7.13684 313.487 6.94744C313.071 6.75331 312.533 6.65625 311.875 6.65625H309.46V19H306.825ZM314.339 12.4091L317.94 19H315L311.463 12.4091H314.339ZM324.762 19H319.833V4.45455H324.862C326.306 4.45455 327.546 4.74574 328.583 5.32812C329.625 5.90578 330.425 6.73674 330.984 7.82102C331.542 8.9053 331.822 10.2027 331.822 11.7131C331.822 13.2282 331.54 14.5303 330.977 15.6193C330.418 16.7083 329.611 17.544 328.555 18.1264C327.504 18.7088 326.239 19 324.762 19ZM322.468 16.7202H324.634C325.647 16.7202 326.493 16.5355 327.17 16.1662C327.847 15.7921 328.356 15.2358 328.697 14.4972C329.038 13.7538 329.208 12.8258 329.208 11.7131C329.208 10.6004 329.038 9.67708 328.697 8.94318C328.356 8.20455 327.852 7.65294 327.184 7.28835C326.521 6.91903 325.697 6.73438 324.712 6.73438H322.468V16.7202Z" fill="#24CBFF"/>
</svg>
