<svg width="100%" viewBox="0 0 1296 31" fill="none" xmlns="http://www.w3.org/2000/svg">
<path d="M7.824 8.464H10.992V25H7.824V8.464ZM0.384 7H18.432V9.784H0.384V7ZM20.8363 7H24.0043V25H20.8363V7ZM35.4763 7H38.6443V25H35.4763V7ZM22.5403 14.536H36.9883V17.32H22.5403V14.536ZM45.0801 20.872V18.256H57.6561V20.872H45.0801ZM53.4321 7L62.0721 25H58.6881L50.8401 8.2H52.0641L44.2161 25H40.8321L49.4721 7H53.4321ZM49.7841 1.888L53.2881 5.536H50.0241L46.0881 1.888H49.7841ZM80.946 23.08L79.65 23.224V7H82.722V25H78.69L66.066 8.776L67.338 8.632V25H64.266V7H68.394L80.946 23.08ZM86.7426 7H89.9106V25H86.7426V7ZM101.383 7H104.551V25H101.383V7ZM88.4466 14.536H102.895V17.32H88.4466V14.536ZM119.902 8.464H123.07V25H119.902V8.464ZM112.462 7H130.51V9.784H112.462V7ZM135.842 17.272C135.842 18.344 136.058 19.272 136.49 20.056C136.922 20.84 137.538 21.448 138.338 21.88C139.154 22.296 140.122 22.504 141.242 22.504C142.378 22.504 143.346 22.296 144.146 21.88C144.946 21.448 145.562 20.84 145.994 20.056C146.426 19.272 146.642 18.344 146.642 17.272V7H149.81V17.392C149.81 18.976 149.45 20.368 148.73 21.568C148.01 22.752 147.01 23.68 145.73 24.352C144.45 25.008 142.954 25.336 141.242 25.336C139.546 25.336 138.05 25.008 136.754 24.352C135.474 23.68 134.474 22.752 133.754 21.568C133.034 20.368 132.674 18.976 132.674 17.392V7H135.842V17.272ZM153.53 5.92C153.53 6.816 153.17 7.536 152.45 8.08C151.73 8.608 150.754 8.872 149.522 8.872C149.474 8.872 149.418 8.872 149.354 8.872C149.29 8.872 149.242 8.872 149.21 8.872V7C149.242 7 149.258 7 149.258 7C149.258 7 149.266 7 149.282 7C149.81 7 150.226 6.872 150.53 6.616C150.834 6.36 150.986 6.016 150.986 5.584C150.986 5.328 150.93 5.048 150.818 4.744C150.722 4.424 150.578 4.128 150.386 3.856H152.906C153.322 4.512 153.53 5.2 153.53 5.92ZM141.29 29.944C140.698 29.944 140.21 29.776 139.826 29.44C139.442 29.12 139.25 28.696 139.25 28.168C139.25 27.64 139.442 27.208 139.826 26.872C140.21 26.552 140.698 26.392 141.29 26.392C141.898 26.392 142.386 26.552 142.754 26.872C143.138 27.208 143.33 27.64 143.33 28.168C143.33 28.696 143.138 29.12 142.754 29.44C142.386 29.776 141.898 29.944 141.29 29.944ZM157.288 17.272C157.288 18.344 157.504 19.272 157.936 20.056C158.368 20.84 158.984 21.448 159.784 21.88C160.6 22.296 161.568 22.504 162.688 22.504C163.824 22.504 164.792 22.296 165.592 21.88C166.392 21.448 167.008 20.84 167.44 20.056C167.872 19.272 168.088 18.344 168.088 17.272V7H171.256V17.392C171.256 18.976 170.896 20.368 170.176 21.568C169.456 22.752 168.456 23.68 167.176 24.352C165.896 25.008 164.4 25.336 162.688 25.336C160.992 25.336 159.496 25.008 158.2 24.352C156.92 23.68 155.92 22.752 155.2 21.568C154.48 20.368 154.12 18.976 154.12 17.392V7H157.288V17.272ZM189.877 23.656H188.389L196.141 7H199.525L190.837 25H187.309L178.621 7H182.029L189.877 23.656ZM201.174 20.872V18.256H213.75V20.872H201.174ZM209.526 7L218.166 25H214.782L206.934 8.2H208.158L200.31 25H196.926L205.566 7H209.526ZM205.878 1.888L209.382 5.536H206.118L202.182 1.888H205.878ZM243.798 17.176C243.782 18.296 243.566 19.352 243.15 20.344C242.734 21.32 242.142 22.184 241.374 22.936C240.606 23.688 239.67 24.28 238.566 24.712C237.478 25.128 236.23 25.336 234.822 25.336C233.398 25.336 232.078 25.12 230.862 24.688C229.646 24.256 228.582 23.64 227.67 22.84C226.774 22.024 226.078 21.04 225.582 19.888C225.086 18.736 224.838 17.44 224.838 16C224.838 14.56 225.086 13.264 225.582 12.112C226.094 10.96 226.806 9.984 227.718 9.184C228.63 8.368 229.702 7.744 230.934 7.312C232.166 6.88 233.518 6.664 234.99 6.664C236.83 6.664 238.438 6.968 239.814 7.576C241.206 8.168 242.326 8.984 243.174 10.024C244.022 11.064 244.542 12.256 244.734 13.6H241.518C241.342 12.752 240.958 12.016 240.366 11.392C239.79 10.768 239.046 10.288 238.134 9.952C237.222 9.616 236.166 9.448 234.966 9.448C233.558 9.448 232.334 9.712 231.294 10.24C230.27 10.752 229.47 11.496 228.894 12.472C228.334 13.448 228.054 14.624 228.054 16C228.054 17.376 228.342 18.56 228.918 19.552C229.51 20.544 230.342 21.304 231.414 21.832C232.486 22.36 233.75 22.624 235.206 22.624C236.614 22.624 237.846 22.384 238.902 21.904C239.958 21.424 240.79 20.76 241.398 19.912C242.006 19.048 242.334 18.048 242.382 16.912L243.798 17.176ZM235.83 18.544V16.144H244.926V25H242.574L242.19 17.536L242.934 18.544H235.83ZM248.485 7H251.653V25H248.485V7ZM258.08 20.872V18.256H270.656V20.872H258.08ZM266.432 7L275.072 25H271.688L263.84 8.2H265.064L257.216 25H253.832L262.472 7H266.432ZM263.648 5.872L262.928 4.648C263.696 4.52 264.256 4.36 264.608 4.168C264.96 3.976 265.136 3.76 265.136 3.52C265.136 3.296 264.992 3.136 264.704 3.04C264.432 2.928 264.04 2.872 263.528 2.872C263.128 2.872 262.76 2.896 262.424 2.944C262.104 2.992 261.768 3.056 261.416 3.136V1.264C261.72 1.184 262.112 1.104 262.592 1.024C263.088 0.943998 263.608 0.903998 264.152 0.903998C265.336 0.903998 266.248 1.088 266.888 1.456C267.544 1.808 267.872 2.36 267.872 3.112C267.872 3.8 267.536 4.376 266.864 4.84C266.208 5.288 265.136 5.632 263.648 5.872ZM277.266 7H280.434V25H277.266V7ZM295.777 8.464H298.945V25H295.777V8.464ZM288.337 7H306.385V9.784H288.337V7ZM308.789 7H311.957V25H308.789V7ZM323.429 7H326.597V25H323.429V7ZM310.493 14.536H324.941V17.32H310.493V14.536ZM333.561 17.272C333.561 18.344 333.777 19.272 334.209 20.056C334.641 20.84 335.257 21.448 336.057 21.88C336.873 22.296 337.841 22.504 338.961 22.504C340.097 22.504 341.065 22.296 341.865 21.88C342.665 21.448 343.281 20.84 343.713 20.056C344.145 19.272 344.361 18.344 344.361 17.272V7H347.529V17.392C347.529 18.976 347.169 20.368 346.449 21.568C345.729 22.752 344.729 23.68 343.449 24.352C342.169 25.008 340.673 25.336 338.961 25.336C337.265 25.336 335.769 25.008 334.473 24.352C333.193 23.68 332.193 22.752 331.473 21.568C330.753 20.368 330.393 18.976 330.393 17.392V7H333.561V17.272ZM351.249 5.92C351.249 6.816 350.889 7.536 350.169 8.08C349.449 8.608 348.473 8.872 347.241 8.872C347.193 8.872 347.137 8.872 347.073 8.872C347.009 8.872 346.961 8.872 346.929 8.872V7C346.961 7 346.977 7 346.977 7C346.977 7 346.985 7 347.001 7C347.529 7 347.945 6.872 348.249 6.616C348.553 6.36 348.705 6.016 348.705 5.584C348.705 5.328 348.649 5.048 348.537 4.744C348.441 4.424 348.297 4.128 348.105 3.856H350.625C351.041 4.512 351.249 5.2 351.249 5.92ZM361.415 25.336C359.367 25.336 357.567 24.944 356.015 24.16C354.479 23.376 353.279 22.288 352.415 20.896C351.551 19.488 351.119 17.856 351.119 16C351.119 14.144 351.551 12.52 352.415 11.128C353.279 9.72 354.479 8.624 356.015 7.84C357.567 7.056 359.367 6.664 361.415 6.664C362.007 6.664 362.543 6.696 363.023 6.76C363.519 6.808 363.975 6.88 364.391 6.976C364.759 7.056 365.127 7.128 365.495 7.192C365.863 7.24 366.239 7.264 366.623 7.264C367.487 7.264 368.103 7.104 368.471 6.784C368.839 6.464 369.023 6.064 369.023 5.584C369.023 5.312 368.967 5.024 368.855 4.72C368.759 4.416 368.615 4.128 368.423 3.856H371.159C371.351 4.176 371.503 4.528 371.615 4.912C371.727 5.28 371.783 5.648 371.783 6.016C371.783 6.8 371.503 7.456 370.943 7.984C370.383 8.496 369.543 8.824 368.423 8.968C369.463 9.768 370.271 10.768 370.847 11.968C371.423 13.168 371.711 14.512 371.711 16C371.711 17.856 371.279 19.488 370.415 20.896C369.551 22.288 368.343 23.376 366.791 24.16C365.255 24.944 363.463 25.336 361.415 25.336ZM361.415 22.504C362.871 22.504 364.127 22.24 365.183 21.712C366.239 21.184 367.055 20.432 367.631 19.456C368.207 18.48 368.495 17.328 368.495 16C368.495 14.672 368.207 13.52 367.631 12.544C367.055 11.568 366.239 10.816 365.183 10.288C364.127 9.76 362.871 9.496 361.415 9.496C359.975 9.496 358.719 9.76 357.647 10.288C356.591 10.816 355.775 11.568 355.199 12.544C354.623 13.52 354.335 14.672 354.335 16C354.335 17.328 354.623 18.48 355.199 19.456C355.775 20.432 356.591 21.184 357.647 21.712C358.719 22.24 359.975 22.504 361.415 22.504ZM360.527 5.872L359.807 4.648C360.575 4.52 361.135 4.36 361.487 4.168C361.839 3.976 362.015 3.76 362.015 3.52C362.015 3.296 361.871 3.136 361.583 3.04C361.311 2.928 360.919 2.872 360.407 2.872C360.007 2.872 359.639 2.896 359.303 2.944C358.983 2.992 358.647 3.056 358.295 3.136V1.264C358.599 1.184 358.991 1.104 359.471 1.024C359.967 0.943998 360.487 0.903998 361.031 0.903998C362.215 0.903998 363.127 1.088 363.767 1.456C364.423 1.808 364.751 2.36 364.751 3.112C364.751 3.8 364.415 4.376 363.743 4.84C363.087 5.288 362.015 5.632 360.527 5.872ZM391.423 23.08L390.127 23.224V7H393.199V25H389.167L376.543 8.776L377.815 8.632V25H374.743V7H378.871L391.423 23.08ZM415.243 17.176C415.227 18.296 415.011 19.352 414.595 20.344C414.179 21.32 413.587 22.184 412.819 22.936C412.051 23.688 411.115 24.28 410.011 24.712C408.923 25.128 407.675 25.336 406.267 25.336C404.843 25.336 403.523 25.12 402.307 24.688C401.091 24.256 400.027 23.64 399.115 22.84C398.219 22.024 397.523 21.04 397.027 19.888C396.531 18.736 396.283 17.44 396.283 16C396.283 14.56 396.531 13.264 397.027 12.112C397.539 10.96 398.251 9.984 399.163 9.184C400.075 8.368 401.147 7.744 402.379 7.312C403.611 6.88 404.963 6.664 406.435 6.664C408.275 6.664 409.883 6.968 411.259 7.576C412.651 8.168 413.771 8.984 414.619 10.024C415.467 11.064 415.987 12.256 416.179 13.6H412.963C412.787 12.752 412.403 12.016 411.811 11.392C411.235 10.768 410.491 10.288 409.579 9.952C408.667 9.616 407.611 9.448 406.411 9.448C405.003 9.448 403.779 9.712 402.739 10.24C401.715 10.752 400.915 11.496 400.339 12.472C399.779 13.448 399.499 14.624 399.499 16C399.499 17.376 399.787 18.56 400.363 19.552C400.955 20.544 401.787 21.304 402.859 21.832C403.931 22.36 405.195 22.624 406.651 22.624C408.059 22.624 409.291 22.384 410.347 21.904C411.403 21.424 412.235 20.76 412.843 19.912C413.451 19.048 413.779 18.048 413.827 16.912L415.243 17.176ZM407.275 18.544V16.144H416.371V25H414.019L413.635 17.536L414.379 18.544H407.275Z" fill="white"/>
</svg>
