<svg width="100%" viewBox="0 0 351 23" fill="none" xmlns="http://www.w3.org/2000/svg">
<path d="M5.868 6.598H8.244V19H5.868V6.598ZM0.288 5.5H13.824V7.588H0.288V5.5ZM15.6272 5.5H18.0032V19H15.6272V5.5ZM26.6072 5.5H28.9832V19H26.6072V5.5ZM16.9052 11.152H27.7412V13.24H16.9052V11.152ZM33.81 15.904V13.942H43.242V15.904H33.81ZM40.074 5.5L46.554 19H44.016L38.13 6.4H39.048L33.162 19H30.624L37.104 5.5H40.074ZM37.338 1.666L39.966 4.402H37.518L34.566 1.666H37.338ZM60.7095 17.56L59.7375 17.668V5.5H62.0415V19H59.0175L49.5495 6.832L50.5035 6.724V19H48.1995V5.5H51.2955L60.7095 17.56ZM65.0569 5.5H67.4329V19H65.0569V5.5ZM76.0369 5.5H78.4129V19H76.0369V5.5ZM66.3349 11.152H77.1709V13.24H66.3349V11.152ZM89.9266 6.598H92.3026V19H89.9266V6.598ZM84.3466 5.5H97.8826V7.588H84.3466V5.5ZM101.882 13.204C101.882 14.008 102.044 14.704 102.368 15.292C102.692 15.88 103.154 16.336 103.754 16.66C104.366 16.972 105.092 17.128 105.932 17.128C106.784 17.128 107.51 16.972 108.11 16.66C108.71 16.336 109.172 15.88 109.496 15.292C109.82 14.704 109.982 14.008 109.982 13.204V5.5H112.358V13.294C112.358 14.482 112.088 15.526 111.548 16.426C111.008 17.314 110.258 18.01 109.298 18.514C108.338 19.006 107.216 19.252 105.932 19.252C104.66 19.252 103.538 19.006 102.566 18.514C101.606 18.01 100.856 17.314 100.316 16.426C99.7758 15.526 99.5058 14.482 99.5058 13.294V5.5H101.882V13.204ZM115.148 4.69C115.148 5.362 114.878 5.902 114.338 6.31C113.798 6.706 113.066 6.904 112.142 6.904C112.106 6.904 112.064 6.904 112.016 6.904C111.968 6.904 111.932 6.904 111.908 6.904V5.5C111.932 5.5 111.944 5.5 111.944 5.5C111.944 5.5 111.95 5.5 111.962 5.5C112.358 5.5 112.67 5.404 112.898 5.212C113.126 5.02 113.24 4.762 113.24 4.438C113.24 4.246 113.198 4.036 113.114 3.808C113.042 3.568 112.934 3.346 112.79 3.142H114.68C114.992 3.634 115.148 4.15 115.148 4.69ZM105.968 22.708C105.524 22.708 105.158 22.582 104.87 22.33C104.582 22.09 104.438 21.772 104.438 21.376C104.438 20.98 104.582 20.656 104.87 20.404C105.158 20.164 105.524 20.044 105.968 20.044C106.424 20.044 106.79 20.164 107.066 20.404C107.354 20.656 107.498 20.98 107.498 21.376C107.498 21.772 107.354 22.09 107.066 22.33C106.79 22.582 106.424 22.708 105.968 22.708ZM117.966 13.204C117.966 14.008 118.128 14.704 118.452 15.292C118.776 15.88 119.238 16.336 119.838 16.66C120.45 16.972 121.176 17.128 122.016 17.128C122.868 17.128 123.594 16.972 124.194 16.66C124.794 16.336 125.256 15.88 125.58 15.292C125.904 14.704 126.066 14.008 126.066 13.204V5.5H128.442V13.294C128.442 14.482 128.172 15.526 127.632 16.426C127.092 17.314 126.342 18.01 125.382 18.514C124.422 19.006 123.3 19.252 122.016 19.252C120.744 19.252 119.622 19.006 118.65 18.514C117.69 18.01 116.94 17.314 116.4 16.426C115.86 15.526 115.59 14.482 115.59 13.294V5.5H117.966V13.204ZM142.408 17.992H141.292L147.106 5.5H149.644L143.128 19H140.482L133.966 5.5H136.522L142.408 17.992ZM150.88 15.904V13.942H160.312V15.904H150.88ZM157.144 5.5L163.624 19H161.086L155.2 6.4H156.118L150.232 19H147.694L154.174 5.5H157.144ZM154.408 1.666L157.036 4.402H154.588L151.636 1.666H154.408ZM182.848 13.132C182.836 13.972 182.674 14.764 182.362 15.508C182.05 16.24 181.606 16.888 181.03 17.452C180.454 18.016 179.752 18.46 178.924 18.784C178.108 19.096 177.172 19.252 176.116 19.252C175.048 19.252 174.058 19.09 173.146 18.766C172.234 18.442 171.436 17.98 170.752 17.38C170.08 16.768 169.558 16.03 169.186 15.166C168.814 14.302 168.628 13.33 168.628 12.25C168.628 11.17 168.814 10.198 169.186 9.334C169.57 8.47 170.104 7.738 170.788 7.138C171.472 6.526 172.276 6.058 173.2 5.734C174.124 5.41 175.138 5.248 176.242 5.248C177.622 5.248 178.828 5.476 179.86 5.932C180.904 6.376 181.744 6.988 182.38 7.768C183.016 8.548 183.406 9.442 183.55 10.45H181.138C181.006 9.814 180.718 9.262 180.274 8.794C179.842 8.326 179.284 7.966 178.6 7.714C177.916 7.462 177.124 7.336 176.224 7.336C175.168 7.336 174.25 7.534 173.47 7.93C172.702 8.314 172.102 8.872 171.67 9.604C171.25 10.336 171.04 11.218 171.04 12.25C171.04 13.282 171.256 14.17 171.688 14.914C172.132 15.658 172.756 16.228 173.56 16.624C174.364 17.02 175.312 17.218 176.404 17.218C177.46 17.218 178.384 17.038 179.176 16.678C179.968 16.318 180.592 15.82 181.048 15.184C181.504 14.536 181.75 13.786 181.786 12.934L182.848 13.132ZM176.872 14.158V12.358H183.694V19H181.93L181.642 13.402L182.2 14.158H176.872ZM186.364 5.5H188.74V19H186.364V5.5ZM193.56 15.904V13.942H202.992V15.904H193.56ZM199.824 5.5L206.304 19H203.766L197.88 6.4H198.798L192.912 19H190.374L196.854 5.5H199.824ZM197.736 4.654L197.196 3.736C197.772 3.64 198.192 3.52 198.456 3.376C198.72 3.232 198.852 3.07 198.852 2.89C198.852 2.722 198.744 2.602 198.528 2.53C198.324 2.446 198.03 2.404 197.646 2.404C197.346 2.404 197.07 2.422 196.818 2.458C196.578 2.494 196.326 2.542 196.062 2.602V1.198C196.29 1.138 196.584 1.078 196.944 1.018C197.316 0.957999 197.706 0.927999 198.114 0.927999C199.002 0.927999 199.686 1.066 200.166 1.342C200.658 1.606 200.904 2.02 200.904 2.584C200.904 3.1 200.652 3.532 200.148 3.88C199.656 4.216 198.852 4.474 197.736 4.654ZM207.95 5.5H210.326V19H207.95V5.5ZM221.833 6.598H224.209V19H221.833V6.598ZM216.253 5.5H229.789V7.588H216.253V5.5ZM231.592 5.5H233.968V19H231.592V5.5ZM242.572 5.5H244.948V19H242.572V5.5ZM232.87 11.152H243.706V13.24H232.87V11.152ZM250.171 13.204C250.171 14.008 250.333 14.704 250.657 15.292C250.981 15.88 251.443 16.336 252.043 16.66C252.655 16.972 253.381 17.128 254.221 17.128C255.073 17.128 255.799 16.972 256.399 16.66C256.999 16.336 257.461 15.88 257.785 15.292C258.109 14.704 258.271 14.008 258.271 13.204V5.5H260.647V13.294C260.647 14.482 260.377 15.526 259.837 16.426C259.297 17.314 258.547 18.01 257.587 18.514C256.627 19.006 255.505 19.252 254.221 19.252C252.949 19.252 251.827 19.006 250.855 18.514C249.895 18.01 249.145 17.314 248.605 16.426C248.065 15.526 247.795 14.482 247.795 13.294V5.5H250.171V13.204ZM263.437 4.69C263.437 5.362 263.167 5.902 262.627 6.31C262.087 6.706 261.355 6.904 260.431 6.904C260.395 6.904 260.353 6.904 260.305 6.904C260.257 6.904 260.221 6.904 260.197 6.904V5.5C260.221 5.5 260.233 5.5 260.233 5.5C260.233 5.5 260.239 5.5 260.251 5.5C260.647 5.5 260.959 5.404 261.187 5.212C261.415 5.02 261.529 4.762 261.529 4.438C261.529 4.246 261.487 4.036 261.403 3.808C261.331 3.568 261.223 3.346 261.079 3.142H262.969C263.281 3.634 263.437 4.15 263.437 4.69ZM271.061 19.252C269.525 19.252 268.175 18.958 267.011 18.37C265.859 17.782 264.959 16.966 264.311 15.922C263.663 14.866 263.339 13.642 263.339 12.25C263.339 10.858 263.663 9.64 264.311 8.596C264.959 7.54 265.859 6.718 267.011 6.13C268.175 5.542 269.525 5.248 271.061 5.248C271.505 5.248 271.907 5.272 272.267 5.32C272.639 5.356 272.981 5.41 273.293 5.482C273.569 5.542 273.845 5.596 274.121 5.644C274.397 5.68 274.679 5.698 274.967 5.698C275.615 5.698 276.077 5.578 276.353 5.338C276.629 5.098 276.767 4.798 276.767 4.438C276.767 4.234 276.725 4.018 276.641 3.79C276.569 3.562 276.461 3.346 276.317 3.142H278.369C278.513 3.382 278.627 3.646 278.711 3.934C278.795 4.21 278.837 4.486 278.837 4.762C278.837 5.35 278.627 5.842 278.207 6.238C277.787 6.622 277.157 6.868 276.317 6.976C277.097 7.576 277.703 8.326 278.135 9.226C278.567 10.126 278.783 11.134 278.783 12.25C278.783 13.642 278.459 14.866 277.811 15.922C277.163 16.966 276.257 17.782 275.093 18.37C273.941 18.958 272.597 19.252 271.061 19.252ZM271.061 17.128C272.153 17.128 273.095 16.93 273.887 16.534C274.679 16.138 275.291 15.574 275.723 14.842C276.155 14.11 276.371 13.246 276.371 12.25C276.371 11.254 276.155 10.39 275.723 9.658C275.291 8.926 274.679 8.362 273.887 7.966C273.095 7.57 272.153 7.372 271.061 7.372C269.981 7.372 269.039 7.57 268.235 7.966C267.443 8.362 266.831 8.926 266.399 9.658C265.967 10.39 265.751 11.254 265.751 12.25C265.751 13.246 265.967 14.11 266.399 14.842C266.831 15.574 267.443 16.138 268.235 16.534C269.039 16.93 269.981 17.128 271.061 17.128ZM270.395 4.654L269.855 3.736C270.431 3.64 270.851 3.52 271.115 3.376C271.379 3.232 271.511 3.07 271.511 2.89C271.511 2.722 271.403 2.602 271.187 2.53C270.983 2.446 270.689 2.404 270.305 2.404C270.005 2.404 269.729 2.422 269.477 2.458C269.237 2.494 268.985 2.542 268.721 2.602V1.198C268.949 1.138 269.243 1.078 269.603 1.018C269.975 0.957999 270.365 0.927999 270.773 0.927999C271.661 0.927999 272.345 1.066 272.825 1.342C273.317 1.606 273.563 2.02 273.563 2.584C273.563 3.1 273.311 3.532 272.807 3.88C272.315 4.216 271.511 4.474 270.395 4.654ZM293.567 17.56L292.595 17.668V5.5H294.899V19H291.875L282.407 6.832L283.361 6.724V19H281.057V5.5H284.153L293.567 17.56ZM311.432 13.132C311.42 13.972 311.258 14.764 310.946 15.508C310.634 16.24 310.19 16.888 309.614 17.452C309.038 18.016 308.336 18.46 307.508 18.784C306.692 19.096 305.756 19.252 304.7 19.252C303.632 19.252 302.642 19.09 301.73 18.766C300.818 18.442 300.02 17.98 299.336 17.38C298.664 16.768 298.142 16.03 297.77 15.166C297.398 14.302 297.212 13.33 297.212 12.25C297.212 11.17 297.398 10.198 297.77 9.334C298.154 8.47 298.688 7.738 299.372 7.138C300.056 6.526 300.86 6.058 301.784 5.734C302.708 5.41 303.722 5.248 304.826 5.248C306.206 5.248 307.412 5.476 308.444 5.932C309.488 6.376 310.328 6.988 310.964 7.768C311.6 8.548 311.99 9.442 312.134 10.45H309.722C309.59 9.814 309.302 9.262 308.858 8.794C308.426 8.326 307.868 7.966 307.184 7.714C306.5 7.462 305.708 7.336 304.808 7.336C303.752 7.336 302.834 7.534 302.054 7.93C301.286 8.314 300.686 8.872 300.254 9.604C299.834 10.336 299.624 11.218 299.624 12.25C299.624 13.282 299.84 14.17 300.272 14.914C300.716 15.658 301.34 16.228 302.144 16.624C302.948 17.02 303.896 17.218 304.988 17.218C306.044 17.218 306.968 17.038 307.76 16.678C308.552 16.318 309.176 15.82 309.632 15.184C310.088 14.536 310.334 13.786 310.37 12.934L311.432 13.132ZM305.456 14.158V12.358H312.278V19H310.514L310.226 13.402L310.784 14.158H305.456Z" fill="white"/>
</svg>
