<svg width="100%" viewBox="0 0 375 812" fill="none" xmlns="http://www.w3.org/2000/svg">
<path d="M12.864 567.08H26.816V570.856H12.864V567.08ZM26.816 557C29.5893 557 32.0213 557.501 34.112 558.504C36.224 559.507 37.8667 560.904 39.04 562.696C40.2133 564.488 40.8 566.589 40.8 569C40.8 571.389 40.2133 573.491 39.04 575.304C37.8667 577.096 36.224 578.493 34.112 579.496C32.0213 580.499 29.5893 581 26.816 581H15.392V557H26.816ZM20.8 578.856L18.048 576.2H27.2C28.8427 576.2 30.272 575.901 31.488 575.304C32.704 574.707 33.6427 573.864 34.304 572.776C34.9653 571.688 35.296 570.429 35.296 569C35.296 567.549 34.9653 566.291 34.304 565.224C33.6427 564.136 32.704 563.293 31.488 562.696C30.272 562.099 28.8427 561.8 27.2 561.8H18.048L20.8 559.144V578.856ZM57.3898 581.48C54.5951 581.48 52.1418 580.957 50.0298 579.912C47.9391 578.867 46.3071 577.416 45.1338 575.56C43.9604 573.683 43.3738 571.496 43.3738 569C43.3738 566.504 43.9604 564.328 45.1338 562.472C46.3071 560.595 47.9391 559.133 50.0298 558.088C52.1418 557.043 54.5951 556.52 57.3898 556.52C60.1844 556.52 62.6271 557.043 64.7178 558.088C66.8298 559.133 68.4724 560.595 69.6458 562.472C70.8191 564.328 71.4058 566.504 71.4058 569C71.4058 571.496 70.8191 573.683 69.6458 575.56C68.4724 577.416 66.8298 578.867 64.7178 579.912C62.6271 580.957 60.1844 581.48 57.3898 581.48ZM57.3898 576.648C59.1391 576.648 60.6431 576.339 61.9018 575.72C63.1818 575.101 64.1631 574.216 64.8458 573.064C65.5498 571.912 65.9018 570.557 65.9018 569C65.9018 567.443 65.5498 566.088 64.8458 564.936C64.1631 563.784 63.1818 562.899 61.9018 562.28C60.6431 561.661 59.1391 561.352 57.3898 561.352C55.6618 561.352 54.1578 561.661 52.8778 562.28C51.5978 562.899 50.6058 563.784 49.9018 564.936C49.2191 566.088 48.8778 567.443 48.8778 569C48.8778 570.557 49.2191 571.912 49.9018 573.064C50.6058 574.216 51.5978 575.101 52.8778 575.72C54.1578 576.339 55.6618 576.648 57.3898 576.648ZM63.6298 551.72L62.6058 550.216C63.2884 550.003 63.7791 549.768 64.0778 549.512C64.3764 549.256 64.5258 548.989 64.5258 548.712C64.5258 548.051 63.8964 547.72 62.6378 547.72C62.3391 547.72 62.0191 547.741 61.6778 547.784C61.3364 547.805 60.9951 547.859 60.6538 547.944V545.128C61.0164 545 61.4858 544.893 62.0618 544.808C62.6591 544.723 63.2991 544.68 63.9818 544.68C65.5178 544.68 66.7124 544.957 67.5658 545.512C68.4404 546.045 68.8778 546.792 68.8778 547.752C68.8778 548.669 68.4404 549.459 67.5658 550.12C66.7124 550.781 65.4004 551.315 63.6298 551.72ZM54.5098 549.992H60.2698L65.1018 555.144H60.4938L56.1738 551.816H58.6058L54.2858 555.144H49.7098L54.5098 549.992ZM75.1515 557H80.5915V581H75.1515V557ZM127.379 557V581H122.195V558.824L123.571 558.92L113.331 581H107.731L97.4908 558.984L98.8348 558.856V581H93.6828V557H102.035L111.699 578.376H109.363L119.027 557H127.379ZM145.077 581.48C142.303 581.48 139.861 580.957 137.749 579.912C135.658 578.867 134.026 577.416 132.853 575.56C131.679 573.683 131.093 571.496 131.093 569C131.093 566.504 131.679 564.328 132.853 562.472C134.026 560.595 135.658 559.133 137.749 558.088C139.861 557.043 142.303 556.52 145.077 556.52C145.93 556.52 146.687 556.563 147.349 556.648C148.01 556.712 148.618 556.808 149.173 556.936C149.663 557.043 150.143 557.139 150.613 557.224C151.082 557.288 151.562 557.32 152.053 557.32C153.162 557.32 153.951 557.117 154.421 556.712C154.89 556.285 155.125 555.773 155.125 555.176C155.125 554.813 155.05 554.429 154.901 554.024C154.773 553.619 154.559 553.213 154.261 552.808H158.613C158.911 553.299 159.135 553.811 159.285 554.344C159.455 554.877 159.541 555.4 159.541 555.912C159.541 556.979 159.167 557.885 158.421 558.632C157.695 559.357 156.618 559.837 155.189 560.072C156.426 561.139 157.386 562.429 158.069 563.944C158.751 565.459 159.093 567.144 159.093 569C159.093 571.496 158.506 573.683 157.333 575.56C156.159 577.416 154.517 578.867 152.405 579.912C150.314 580.957 147.871 581.48 145.077 581.48ZM145.077 576.648C146.847 576.648 148.362 576.339 149.621 575.72C150.879 575.101 151.85 574.216 152.533 573.064C153.237 571.912 153.589 570.557 153.589 569C153.589 567.443 153.237 566.088 152.533 564.936C151.85 563.784 150.879 562.899 149.621 562.28C148.362 561.661 146.847 561.352 145.077 561.352C143.349 561.352 141.845 561.661 140.565 562.28C139.306 562.899 138.325 563.784 137.621 564.936C136.938 566.088 136.597 567.443 136.597 569C136.597 570.557 136.938 571.912 137.621 573.064C138.325 574.216 139.306 575.101 140.565 575.72C141.845 576.339 143.349 576.648 145.077 576.648ZM146.197 549.992H152.373L146.965 555.144H141.493L146.197 549.992ZM162.902 557H168.342V581H162.902V557Z" fill="#24CBFF"/>
</svg>
