<svg width="100%" viewBox="0 0 1920 1051" fill="none" xmlns="http://www.w3.org/2000/svg">
<path d="M312.296 755.12H333.224V760.784H312.296V755.12ZM333.224 740C337.384 740 341.032 740.752 344.168 742.256C347.336 743.76 349.8 745.856 351.56 748.544C353.32 751.232 354.2 754.384 354.2 758C354.2 761.584 353.32 764.736 351.56 767.456C349.8 770.144 347.336 772.24 344.168 773.744C341.032 775.248 337.384 776 333.224 776H316.088V740H333.224ZM324.2 772.784L320.072 768.8H333.8C336.264 768.8 338.408 768.352 340.232 767.456C342.056 766.56 343.464 765.296 344.456 763.664C345.448 762.032 345.944 760.144 345.944 758C345.944 755.824 345.448 753.936 344.456 752.336C343.464 750.704 342.056 749.44 340.232 748.544C338.408 747.648 336.264 747.2 333.8 747.2H320.072L324.2 743.216V772.784ZM379.085 776.72C374.893 776.72 371.213 775.936 368.045 774.368C364.909 772.8 362.461 770.624 360.701 767.84C358.941 765.024 358.061 761.744 358.061 758C358.061 754.256 358.941 750.992 360.701 748.208C362.461 745.392 364.909 743.2 368.045 741.632C371.213 740.064 374.893 739.28 379.085 739.28C383.277 739.28 386.941 740.064 390.077 741.632C393.245 743.2 395.709 745.392 397.469 748.208C399.229 750.992 400.109 754.256 400.109 758C400.109 761.744 399.229 765.024 397.469 767.84C395.709 770.624 393.245 772.8 390.077 774.368C386.941 775.936 383.277 776.72 379.085 776.72ZM379.085 769.472C381.709 769.472 383.965 769.008 385.853 768.08C387.773 767.152 389.245 765.824 390.269 764.096C391.325 762.368 391.853 760.336 391.853 758C391.853 755.664 391.325 753.632 390.269 751.904C389.245 750.176 387.773 748.848 385.853 747.92C383.965 746.992 381.709 746.528 379.085 746.528C376.493 746.528 374.237 746.992 372.317 747.92C370.397 748.848 368.909 750.176 367.853 751.904C366.829 753.632 366.317 755.664 366.317 758C366.317 760.336 366.829 762.368 367.853 764.096C368.909 765.824 370.397 767.152 372.317 768.08C374.237 769.008 376.493 769.472 379.085 769.472ZM388.445 732.08L386.909 729.824C387.933 729.504 388.669 729.152 389.117 728.768C389.565 728.384 389.789 727.984 389.789 727.568C389.789 726.576 388.845 726.08 386.957 726.08C386.509 726.08 386.029 726.112 385.517 726.176C385.005 726.208 384.493 726.288 383.981 726.416V722.192C384.525 722 385.229 721.84 386.093 721.712C386.989 721.584 387.949 721.52 388.973 721.52C391.277 721.52 393.069 721.936 394.349 722.768C395.661 723.568 396.317 724.688 396.317 726.128C396.317 727.504 395.661 728.688 394.349 729.68C393.069 730.672 391.101 731.472 388.445 732.08ZM374.765 729.488H383.405L390.653 737.216H383.741L377.261 732.224H380.909L374.429 737.216H367.565L374.765 729.488ZM405.727 740H413.887V776H405.727V740ZM484.068 740V776H476.292V742.736L478.356 742.88L462.996 776H454.596L439.236 742.976L441.252 742.784V776H433.524V740H446.052L460.548 772.064H457.044L471.54 740H484.068ZM510.615 776.72C506.455 776.72 502.791 775.936 499.623 774.368C496.487 772.8 494.039 770.624 492.279 767.84C490.519 765.024 489.639 761.744 489.639 758C489.639 754.256 490.519 750.992 492.279 748.208C494.039 745.392 496.487 743.2 499.623 741.632C502.791 740.064 506.455 739.28 510.615 739.28C511.895 739.28 513.031 739.344 514.023 739.472C515.015 739.568 515.927 739.712 516.759 739.904C517.495 740.064 518.215 740.208 518.919 740.336C519.623 740.432 520.343 740.48 521.079 740.48C522.743 740.48 523.927 740.176 524.631 739.568C525.335 738.928 525.687 738.16 525.687 737.264C525.687 736.72 525.575 736.144 525.351 735.536C525.159 734.928 524.839 734.32 524.391 733.712H530.919C531.367 734.448 531.703 735.216 531.927 736.016C532.183 736.816 532.311 737.6 532.311 738.368C532.311 739.968 531.751 741.328 530.631 742.448C529.543 743.536 527.927 744.256 525.783 744.608C527.639 746.208 529.079 748.144 530.103 750.416C531.127 752.688 531.639 755.216 531.639 758C531.639 761.744 530.759 765.024 528.999 767.84C527.239 770.624 524.775 772.8 521.607 774.368C518.471 775.936 514.807 776.72 510.615 776.72ZM510.615 769.472C513.271 769.472 515.543 769.008 517.431 768.08C519.319 767.152 520.775 765.824 521.799 764.096C522.855 762.368 523.383 760.336 523.383 758C523.383 755.664 522.855 753.632 521.799 751.904C520.775 750.176 519.319 748.848 517.431 747.92C515.543 746.992 513.271 746.528 510.615 746.528C508.023 746.528 505.767 746.992 503.847 747.92C501.959 748.848 500.487 750.176 499.431 751.904C498.407 753.632 497.895 755.664 497.895 758C497.895 760.336 498.407 762.368 499.431 764.096C500.487 765.824 501.959 767.152 503.847 768.08C505.767 769.008 508.023 769.472 510.615 769.472ZM512.295 729.488H521.559L513.447 737.216H505.239L512.295 729.488ZM537.352 740H545.512V776H537.352V740Z" fill="#24CBFF"/>
</svg>
