<svg width="100%" viewBox="0 0 351 193" fill="none" xmlns="http://www.w3.org/2000/svg">
<rect x="0.5" y="0.794922" width="350" height="191" rx="19.5" stroke="url(#paint0_linear_158_2251)"/>
<path d="M42.6193 42.2949L39.392 30.6586H41.2386L43.5057 39.6699H43.6136L45.9716 30.6586H47.8011L50.1591 39.6756H50.267L52.5284 30.6586H54.3807L51.1477 42.2949H49.3807L46.9318 33.579H46.8409L44.392 42.2949H42.6193ZM55.9815 42.2949V30.6586H63.277V32.1699H57.7372V35.7154H62.8963V37.2211H57.7372V40.7836H63.3452V42.2949H55.9815ZM79.5213 34.4426H77.7486C77.6804 34.0639 77.5535 33.7305 77.3679 33.4426C77.1823 33.1548 76.955 32.9105 76.6861 32.7097C76.4171 32.5089 76.116 32.3574 75.7827 32.2551C75.4531 32.1529 75.1027 32.1017 74.7315 32.1017C74.0611 32.1017 73.4607 32.2703 72.9304 32.6074C72.4039 32.9445 71.9872 33.4389 71.6804 34.0904C71.3774 34.7419 71.2259 35.5373 71.2259 36.4767C71.2259 37.4237 71.3774 38.223 71.6804 38.8745C71.9872 39.526 72.4058 40.0184 72.9361 40.3517C73.4664 40.6851 74.063 40.8517 74.7259 40.8517C75.0933 40.8517 75.4418 40.8025 75.7713 40.704C76.1046 40.6017 76.4058 40.4521 76.6747 40.2551C76.9437 40.0582 77.1709 39.8176 77.3565 39.5336C77.5459 39.2457 77.6766 38.9161 77.7486 38.5449L79.5213 38.5506C79.4266 39.1226 79.2429 39.6491 78.9702 40.1301C78.7012 40.6074 78.3546 41.0203 77.9304 41.3688C77.5099 41.7135 77.0289 41.9805 76.4872 42.1699C75.9455 42.3593 75.3546 42.454 74.7145 42.454C73.7069 42.454 72.8092 42.2154 72.0213 41.7381C71.2334 41.257 70.6122 40.5695 70.1577 39.6756C69.7069 38.7817 69.4815 37.7154 69.4815 36.4767C69.4815 35.2343 69.7088 34.168 70.1634 33.2779C70.6179 32.3839 71.2391 31.6983 72.027 31.2211C72.8149 30.74 73.7107 30.4995 74.7145 30.4995C75.3319 30.4995 75.9077 30.5885 76.4418 30.7665C76.9796 30.9408 77.4626 31.1983 77.8906 31.5392C78.3187 31.8764 78.6728 32.2892 78.9531 32.7779C79.2334 33.2627 79.4228 33.8176 79.5213 34.4426ZM91.7301 36.4767C91.7301 37.7192 91.5028 38.7873 91.0483 39.6813C90.5938 40.5714 89.9706 41.257 89.179 41.7381C88.3911 42.2154 87.4953 42.454 86.4915 42.454C85.4839 42.454 84.5843 42.2154 83.7926 41.7381C83.0047 41.257 82.3835 40.5695 81.929 39.6756C81.4744 38.7817 81.2472 37.7154 81.2472 36.4767C81.2472 35.2343 81.4744 34.168 81.929 33.2779C82.3835 32.3839 83.0047 31.6983 83.7926 31.2211C84.5843 30.74 85.4839 30.4995 86.4915 30.4995C87.4953 30.4995 88.3911 30.74 89.179 31.2211C89.9706 31.6983 90.5938 32.3839 91.0483 33.2779C91.5028 34.168 91.7301 35.2343 91.7301 36.4767ZM89.9915 36.4767C89.9915 35.5298 89.8381 34.7324 89.5312 34.0847C89.2282 33.4332 88.8116 32.9408 88.2812 32.6074C87.7547 32.2703 87.1581 32.1017 86.4915 32.1017C85.821 32.1017 85.2225 32.2703 84.696 32.6074C84.1695 32.9408 83.7528 33.4332 83.446 34.0847C83.143 34.7324 82.9915 35.5298 82.9915 36.4767C82.9915 37.4237 83.143 38.223 83.446 38.8745C83.7528 39.5222 84.1695 40.0146 84.696 40.3517C85.2225 40.6851 85.821 40.8517 86.4915 40.8517C87.1581 40.8517 87.7547 40.6851 88.2812 40.3517C88.8116 40.0146 89.2282 39.5222 89.5312 38.8745C89.8381 38.223 89.9915 37.4237 89.9915 36.4767ZM103.311 30.6586V42.2949H101.697L95.7827 33.7608H95.6747V42.2949H93.919V30.6586H95.544L101.464 39.204H101.572V30.6586H103.311ZM105.298 32.1699V30.6586H114.304V32.1699H110.673V42.2949H108.923V32.1699H105.298ZM118.05 30.6586V42.2949H116.294V30.6586H118.05ZM129.999 30.6586V42.2949H128.385L122.47 33.7608H122.362V42.2949H120.607V30.6586H122.232L128.152 39.204H128.26V30.6586H129.999ZM140.043 30.6586H141.804V38.312C141.804 39.1264 141.613 39.848 141.23 40.4767C140.848 41.1017 140.31 41.5942 139.616 41.954C138.923 42.3101 138.111 42.4881 137.179 42.4881C136.251 42.4881 135.44 42.3101 134.747 41.954C134.054 41.5942 133.516 41.1017 133.134 40.4767C132.751 39.848 132.56 39.1264 132.56 38.312V30.6586H134.315V38.1699C134.315 38.6964 134.431 39.1642 134.662 39.5733C134.897 39.9824 135.228 40.3044 135.656 40.5392C136.084 40.7703 136.592 40.8858 137.179 40.8858C137.77 40.8858 138.279 40.7703 138.707 40.5392C139.139 40.3044 139.469 39.9824 139.696 39.5733C139.927 39.1642 140.043 38.6964 140.043 38.1699V30.6586ZM144.357 42.2949V30.6586H151.652V32.1699H146.112V35.7154H151.271V37.2211H146.112V40.7836H151.72V42.2949H144.357ZM157.764 42.2949H153.997V30.6586H157.884C159.024 30.6586 160.003 30.8915 160.821 31.3574C161.639 31.8195 162.266 32.4843 162.702 33.3517C163.141 34.2154 163.361 35.2514 163.361 36.4597C163.361 37.6718 163.139 38.7135 162.696 39.5847C162.257 40.4559 161.62 41.1264 160.787 41.5961C159.954 42.062 158.946 42.2949 157.764 42.2949ZM155.753 40.7608H157.668C158.554 40.7608 159.291 40.5942 159.878 40.2608C160.465 39.9237 160.904 39.437 161.196 38.8006C161.488 38.1605 161.634 37.3801 161.634 36.4597C161.634 35.5468 161.488 34.7722 161.196 34.1358C160.908 33.4995 160.478 33.0165 159.906 32.687C159.334 32.3574 158.624 32.1926 157.776 32.1926H155.753V40.7608ZM169.205 32.1699V30.6586H178.21V32.1699H174.58V42.2949H172.83V32.1699H169.205ZM189.808 36.4767C189.808 37.7192 189.581 38.7873 189.126 39.6813C188.672 40.5714 188.049 41.257 187.257 41.7381C186.469 42.2154 185.573 42.454 184.57 42.454C183.562 42.454 182.662 42.2154 181.871 41.7381C181.083 41.257 180.462 40.5695 180.007 39.6756C179.553 38.7817 179.325 37.7154 179.325 36.4767C179.325 35.2343 179.553 34.168 180.007 33.2779C180.462 32.3839 181.083 31.6983 181.871 31.2211C182.662 30.74 183.562 30.4995 184.57 30.4995C185.573 30.4995 186.469 30.74 187.257 31.2211C188.049 31.6983 188.672 32.3839 189.126 33.2779C189.581 34.168 189.808 35.2343 189.808 36.4767ZM188.07 36.4767C188.07 35.5298 187.916 34.7324 187.609 34.0847C187.306 33.4332 186.89 32.9408 186.359 32.6074C185.833 32.2703 185.236 32.1017 184.57 32.1017C183.899 32.1017 183.301 32.2703 182.774 32.6074C182.248 32.9408 181.831 33.4332 181.524 34.0847C181.221 34.7324 181.07 35.5298 181.07 36.4767C181.07 37.4237 181.221 38.223 181.524 38.8745C181.831 39.5222 182.248 40.0146 182.774 40.3517C183.301 40.6851 183.899 40.8517 184.57 40.8517C185.236 40.8517 185.833 40.6851 186.359 40.3517C186.89 40.0146 187.306 39.5222 187.609 38.8745C187.916 38.223 188.07 37.4237 188.07 36.4767ZM196.232 30.6586H198.362L202.067 39.704H202.203L205.908 30.6586H208.038V42.2949H206.368V33.8745H206.26L202.828 42.2779H201.442L198.01 33.8688H197.902V42.2949H196.232V30.6586ZM211.574 42.2949H209.71L213.898 30.6586H215.926L220.114 42.2949H218.25L214.96 32.7722H214.869L211.574 42.2949ZM211.886 37.7381H217.932V39.2154H211.886V37.7381ZM223.55 30.6586V42.2949H221.794V30.6586H223.55ZM235.499 30.6586V42.2949H233.885L227.97 33.7608H227.862V42.2949H226.107V30.6586H227.732L233.652 39.204H233.76V30.6586H235.499ZM237.486 32.1699V30.6586H246.491V32.1699H242.861V42.2949H241.111V32.1699H237.486ZM248.089 42.2949H246.226L250.413 30.6586H252.442L256.629 42.2949H254.766L251.476 32.7722H251.385L248.089 42.2949ZM248.402 37.7381H254.447V39.2154H248.402V37.7381ZM260.065 30.6586V42.2949H258.31V30.6586H260.065ZM272.014 30.6586V42.2949H270.401L264.486 33.7608H264.378V42.2949H262.622V30.6586H264.247L270.168 39.204H270.276V30.6586H272.014ZM288.918 36.4767C288.918 37.7192 288.69 38.7873 288.236 39.6813C287.781 40.5714 287.158 41.257 286.366 41.7381C285.579 42.2154 284.683 42.454 283.679 42.454C282.671 42.454 281.772 42.2154 280.98 41.7381C280.192 41.257 279.571 40.5695 279.116 39.6756C278.662 38.7817 278.435 37.7154 278.435 36.4767C278.435 35.2343 278.662 34.168 279.116 33.2779C279.571 32.3839 280.192 31.6983 280.98 31.2211C281.772 30.74 282.671 30.4995 283.679 30.4995C284.683 30.4995 285.579 30.74 286.366 31.2211C287.158 31.6983 287.781 32.3839 288.236 33.2779C288.69 34.168 288.918 35.2343 288.918 36.4767ZM287.179 36.4767C287.179 35.5298 287.026 34.7324 286.719 34.0847C286.416 33.4332 285.999 32.9408 285.469 32.6074C284.942 32.2703 284.346 32.1017 283.679 32.1017C283.009 32.1017 282.41 32.2703 281.884 32.6074C281.357 32.9408 280.94 33.4332 280.634 34.0847C280.33 34.7324 280.179 35.5298 280.179 36.4767C280.179 37.4237 280.33 38.223 280.634 38.8745C280.94 39.5222 281.357 40.0146 281.884 40.3517C282.41 40.6851 283.009 40.8517 283.679 40.8517C284.346 40.8517 284.942 40.6851 285.469 40.3517C285.999 40.0146 286.416 39.5222 286.719 38.8745C287.026 38.223 287.179 37.4237 287.179 36.4767ZM298.589 30.6586H300.351V38.312C300.351 39.1264 300.16 39.848 299.777 40.4767C299.394 41.1017 298.857 41.5942 298.163 41.954C297.47 42.3101 296.658 42.4881 295.726 42.4881C294.798 42.4881 293.987 42.3101 293.294 41.954C292.601 41.5942 292.063 41.1017 291.68 40.4767C291.298 39.848 291.107 39.1264 291.107 38.312V30.6586H292.862V38.1699C292.862 38.6964 292.978 39.1642 293.209 39.5733C293.444 39.9824 293.775 40.3044 294.203 40.5392C294.631 40.7703 295.139 40.8858 295.726 40.8858C296.317 40.8858 296.826 40.7703 297.254 40.5392C297.686 40.3044 298.016 39.9824 298.243 39.5733C298.474 39.1642 298.589 38.6964 298.589 38.1699V30.6586ZM302.903 42.2949V30.6586H307.051C307.953 30.6586 308.701 30.8139 309.295 31.1245C309.894 31.4351 310.341 31.865 310.636 32.4142C310.932 32.9597 311.08 33.5904 311.08 34.3063C311.08 35.0184 310.93 35.6453 310.631 36.187C310.335 36.7248 309.888 37.1434 309.29 37.4426C308.695 37.7419 307.947 37.8915 307.045 37.8915H303.903V36.3801H306.886C307.455 36.3801 307.917 36.2987 308.273 36.1358C308.633 35.973 308.896 35.7362 309.062 35.4256C309.229 35.115 309.312 34.7419 309.312 34.3063C309.312 33.8669 309.227 33.4862 309.057 33.1642C308.89 32.8423 308.627 32.5961 308.267 32.4256C307.911 32.2514 307.443 32.1642 306.864 32.1642H304.659V42.2949H302.903ZM308.648 37.0449L311.523 42.2949H309.523L306.705 37.0449H308.648ZM45.8253 54.6586H47.956L51.6605 63.704H51.7969L55.5014 54.6586H57.6321V66.2949H55.9616V57.8745H55.8537L52.4219 66.2779H51.0355L47.6037 57.8688H47.4957V66.2949H45.8253V54.6586ZM61.1676 66.2949H59.304L63.4915 54.6586H65.5199L69.7074 66.2949H67.8438L64.554 56.7722H64.4631L61.1676 66.2949ZM61.4801 61.7381H67.5256V63.2154H61.4801V61.7381ZM71.3878 66.2949V54.6586H75.5355C76.437 54.6586 77.1851 54.8139 77.7798 55.1245C78.3783 55.4351 78.8253 55.865 79.1207 56.4142C79.4162 56.9597 79.5639 57.5904 79.5639 58.3063C79.5639 59.0184 79.4143 59.6453 79.1151 60.187C78.8196 60.7248 78.3726 61.1434 77.7741 61.4426C77.1795 61.7419 76.4313 61.8915 75.5298 61.8915H72.3878V60.3801H75.3707C75.9389 60.3801 76.401 60.2987 76.7571 60.1358C77.117 59.973 77.3802 59.7362 77.5469 59.4256C77.7135 59.115 77.7969 58.7419 77.7969 58.3063C77.7969 57.8669 77.7116 57.4862 77.5412 57.1642C77.3745 56.8423 77.1113 56.5961 76.7514 56.4256C76.3954 56.2514 75.9276 56.1642 75.348 56.1642H73.1435V66.2949H71.3878ZM77.1321 61.0449L80.0071 66.2949H78.0071L75.1889 61.0449H77.1321ZM81.7003 66.2949V54.6586H83.456V60.2154H83.598L88.4787 54.6586H90.6889L85.9957 59.8972L90.706 66.2949H88.5923L84.831 61.0961L83.456 62.6756V66.2949H81.7003ZM92.3253 66.2949V54.6586H99.6207V56.1699H94.081V59.7154H99.2401V61.2211H94.081V64.7836H99.6889V66.2949H92.3253ZM101.392 56.1699V54.6586H110.398V56.1699H106.767V66.2949H105.017V56.1699H101.392ZM116.622 66.2949V54.6586H118.378V64.7836H123.651V66.2949H116.622ZM125.653 66.2949V54.6586H132.949V56.1699H127.409V59.7154H132.568V61.2211H127.409V64.7836H133.017V66.2949H125.653ZM136.277 66.2949H134.413L138.601 54.6586H140.629L144.817 66.2949H142.953L139.663 56.7722H139.572L136.277 66.2949ZM136.589 61.7381H142.635V63.2154H136.589V61.7381ZM150.264 66.2949H146.497V54.6586H150.384C151.524 54.6586 152.503 54.8915 153.321 55.3574C154.139 55.8195 154.766 56.4843 155.202 57.3517C155.641 58.2154 155.861 59.2514 155.861 60.4597C155.861 61.6718 155.639 62.7135 155.196 63.5847C154.757 64.4559 154.12 65.1264 153.287 65.5961C152.454 66.062 151.446 66.2949 150.264 66.2949ZM148.253 64.7608H150.168C151.054 64.7608 151.791 64.5942 152.378 64.2608C152.965 63.9237 153.404 63.437 153.696 62.8006C153.988 62.1605 154.134 61.3801 154.134 60.4597C154.134 59.5468 153.988 58.7722 153.696 58.1358C153.408 57.4995 152.978 57.0165 152.406 56.687C151.834 56.3574 151.124 56.1926 150.276 56.1926H148.253V64.7608ZM159.8 54.6586V66.2949H158.044V54.6586H159.8ZM171.749 54.6586V66.2949H170.135L164.22 57.7608H164.112V66.2949H162.357V54.6586H163.982L169.902 63.204H170.01V54.6586H171.749ZM182.185 58.3347C182.075 57.99 181.927 57.6813 181.741 57.4086C181.56 57.132 181.342 56.8972 181.088 56.704C180.834 56.507 180.545 56.3574 180.219 56.2551C179.897 56.1529 179.543 56.1017 179.156 56.1017C178.501 56.1017 177.91 56.2703 177.384 56.6074C176.857 56.9445 176.44 57.4389 176.134 58.0904C175.83 58.7381 175.679 59.5317 175.679 60.4711C175.679 61.4142 175.832 62.2116 176.139 62.8631C176.446 63.5146 176.866 64.0089 177.401 64.3461C177.935 64.6832 178.543 64.8517 179.224 64.8517C179.857 64.8517 180.408 64.723 180.878 64.4654C181.351 64.2078 181.717 63.8442 181.974 63.3745C182.236 62.901 182.366 62.3442 182.366 61.704L182.821 61.7892H179.491V60.3404H184.065V61.6642C184.065 62.6415 183.857 63.49 183.44 64.2097C183.027 64.9256 182.455 65.4786 181.724 65.8688C180.997 66.2589 180.164 66.454 179.224 66.454C178.171 66.454 177.247 66.2116 176.452 65.7267C175.66 65.2419 175.043 64.5544 174.599 63.6642C174.156 62.7703 173.935 61.7097 173.935 60.4824C173.935 59.5544 174.063 58.7211 174.321 57.9824C174.579 57.2438 174.94 56.6169 175.406 56.1017C175.876 55.5828 176.427 55.187 177.06 54.9142C177.696 54.6377 178.391 54.4995 179.145 54.4995C179.774 54.4995 180.359 54.5923 180.901 54.7779C181.446 54.9635 181.931 55.2267 182.355 55.5676C182.783 55.9086 183.137 56.3139 183.418 56.7836C183.698 57.2495 183.887 57.7665 183.986 58.3347H182.185ZM190.528 66.2949V54.6586H194.676C195.581 54.6586 196.331 54.8233 196.926 55.1529C197.521 55.4824 197.966 55.9332 198.261 56.5051C198.557 57.0733 198.705 57.7135 198.705 58.4256C198.705 59.1415 198.555 59.7855 198.256 60.3574C197.96 60.9256 197.513 61.3764 196.915 61.7097C196.32 62.0392 195.572 62.204 194.67 62.204H191.818V60.7154H194.511C195.083 60.7154 195.547 60.6169 195.903 60.4199C196.259 60.2192 196.521 59.9464 196.688 59.6017C196.854 59.257 196.938 58.865 196.938 58.4256C196.938 57.9862 196.854 57.5961 196.688 57.2551C196.521 56.9142 196.258 56.6472 195.898 56.454C195.542 56.2608 195.072 56.1642 194.489 56.1642H192.284V66.2949H190.528ZM210.871 60.4767C210.871 61.7192 210.643 62.7873 210.189 63.6813C209.734 64.5714 209.111 65.257 208.32 65.7381C207.532 66.2154 206.636 66.454 205.632 66.454C204.625 66.454 203.725 66.2154 202.933 65.7381C202.145 65.257 201.524 64.5695 201.07 63.6756C200.615 62.7817 200.388 61.7154 200.388 60.4767C200.388 59.2343 200.615 58.168 201.07 57.2779C201.524 56.3839 202.145 55.6983 202.933 55.2211C203.725 54.74 204.625 54.4995 205.632 54.4995C206.636 54.4995 207.532 54.74 208.32 55.2211C209.111 55.6983 209.734 56.3839 210.189 57.2779C210.643 58.168 210.871 59.2343 210.871 60.4767ZM209.132 60.4767C209.132 59.5298 208.979 58.7324 208.672 58.0847C208.369 57.4332 207.952 56.9408 207.422 56.6074C206.895 56.2703 206.299 56.1017 205.632 56.1017C204.962 56.1017 204.363 56.2703 203.837 56.6074C203.31 56.9408 202.893 57.4332 202.587 58.0847C202.284 58.7324 202.132 59.5298 202.132 60.4767C202.132 61.4237 202.284 62.223 202.587 62.8745C202.893 63.5222 203.31 64.0146 203.837 64.3517C204.363 64.6851 204.962 64.8517 205.632 64.8517C206.299 64.8517 206.895 64.6851 207.422 64.3517C207.952 64.0146 208.369 63.5222 208.672 62.8745C208.979 62.223 209.132 61.4237 209.132 60.4767ZM219.406 57.7154C219.346 57.1775 219.096 56.7608 218.656 56.4654C218.217 56.1661 217.664 56.0165 216.997 56.0165C216.52 56.0165 216.107 56.0923 215.759 56.2438C215.41 56.3915 215.139 56.5961 214.946 56.8574C214.757 57.115 214.662 57.4086 214.662 57.7381C214.662 58.0146 214.726 58.2533 214.855 58.454C214.988 58.6548 215.16 58.8233 215.372 58.9597C215.588 59.0923 215.819 59.204 216.065 59.2949C216.312 59.382 216.548 59.454 216.776 59.5108L217.912 59.8063C218.283 59.8972 218.664 60.0203 219.054 60.1756C219.444 60.3309 219.806 60.5355 220.139 60.7892C220.473 61.043 220.741 61.3574 220.946 61.7324C221.154 62.1074 221.259 62.5563 221.259 63.079C221.259 63.7381 221.088 64.3233 220.747 64.8347C220.41 65.3461 219.92 65.7495 219.276 66.0449C218.635 66.3404 217.861 66.4881 216.952 66.4881C216.08 66.4881 215.327 66.3498 214.69 66.0733C214.054 65.7968 213.556 65.4048 213.196 64.8972C212.836 64.3858 212.637 63.7798 212.599 63.079H214.361C214.395 63.4995 214.531 63.8498 214.77 64.1301C215.012 64.4067 215.321 64.6131 215.696 64.7495C216.075 64.882 216.49 64.9483 216.94 64.9483C217.437 64.9483 217.878 64.8707 218.264 64.7154C218.654 64.5563 218.961 64.3366 219.185 64.0563C219.408 63.7722 219.52 63.4408 219.52 63.062C219.52 62.7173 219.421 62.4351 219.224 62.2154C219.031 61.9957 218.768 61.8139 218.435 61.6699C218.105 61.526 217.732 61.3991 217.315 61.2892L215.94 60.9142C215.009 60.6605 214.27 60.2873 213.724 59.7949C213.183 59.3025 212.912 58.651 212.912 57.8404C212.912 57.1699 213.094 56.5847 213.457 56.0847C213.821 55.5847 214.313 55.1964 214.935 54.9199C215.556 54.6396 216.257 54.4995 217.037 54.4995C217.825 54.4995 218.52 54.6377 219.122 54.9142C219.728 55.1908 220.205 55.5714 220.554 56.0563C220.902 56.5373 221.084 57.0904 221.099 57.7154H219.406ZM225.112 54.6586V66.2949H223.357V54.6586H225.112ZM227.095 56.1699V54.6586H236.101V56.1699H232.47V66.2949H230.72V56.1699H227.095ZM239.847 54.6586V66.2949H238.091V54.6586H239.847ZM252.511 60.4767C252.511 61.7192 252.284 62.7873 251.83 63.6813C251.375 64.5714 250.752 65.257 249.96 65.7381C249.172 66.2154 248.277 66.454 247.273 66.454C246.265 66.454 245.366 66.2154 244.574 65.7381C243.786 65.257 243.165 64.5695 242.71 63.6756C242.256 62.7817 242.028 61.7154 242.028 60.4767C242.028 59.2343 242.256 58.168 242.71 57.2779C243.165 56.3839 243.786 55.6983 244.574 55.2211C245.366 54.74 246.265 54.4995 247.273 54.4995C248.277 54.4995 249.172 54.74 249.96 55.2211C250.752 55.6983 251.375 56.3839 251.83 57.2779C252.284 58.168 252.511 59.2343 252.511 60.4767ZM250.773 60.4767C250.773 59.5298 250.619 58.7324 250.312 58.0847C250.009 57.4332 249.593 56.9408 249.062 56.6074C248.536 56.2703 247.939 56.1017 247.273 56.1017C246.602 56.1017 246.004 56.2703 245.477 56.6074C244.951 56.9408 244.534 57.4332 244.227 58.0847C243.924 58.7324 243.773 59.5298 243.773 60.4767C243.773 61.4237 243.924 62.223 244.227 62.8745C244.534 63.5222 244.951 64.0146 245.477 64.3517C246.004 64.6851 246.602 64.8517 247.273 64.8517C247.939 64.8517 248.536 64.6851 249.062 64.3517C249.593 64.0146 250.009 63.5222 250.312 62.8745C250.619 62.223 250.773 61.4237 250.773 60.4767ZM264.092 54.6586V66.2949H262.479L256.564 57.7608H256.456V66.2949H254.7V54.6586H256.325L262.246 63.204H262.354V54.6586H264.092ZM271.871 66.2949H270.007L274.195 54.6586H276.223L280.411 66.2949H278.547L275.257 56.7722H275.166L271.871 66.2949ZM272.183 61.7381H278.229V63.2154H272.183V61.7381ZM288.344 57.7154C288.283 57.1775 288.033 56.7608 287.594 56.4654C287.154 56.1661 286.601 56.0165 285.935 56.0165C285.457 56.0165 285.045 56.0923 284.696 56.2438C284.348 56.3915 284.077 56.5961 283.884 56.8574C283.694 57.115 283.599 57.4086 283.599 57.7381C283.599 58.0146 283.664 58.2533 283.793 58.454C283.925 58.6548 284.098 58.8233 284.31 58.9597C284.526 59.0923 284.757 59.204 285.003 59.2949C285.249 59.382 285.486 59.454 285.713 59.5108L286.849 59.8063C287.221 59.8972 287.601 60.0203 287.991 60.1756C288.382 60.3309 288.743 60.5355 289.077 60.7892C289.41 61.043 289.679 61.3574 289.884 61.7324C290.092 62.1074 290.196 62.5563 290.196 63.079C290.196 63.7381 290.026 64.3233 289.685 64.8347C289.348 65.3461 288.857 65.7495 288.213 66.0449C287.573 66.3404 286.798 66.4881 285.889 66.4881C285.018 66.4881 284.264 66.3498 283.628 66.0733C282.991 65.7968 282.493 65.4048 282.134 64.8972C281.774 64.3858 281.575 63.7798 281.537 63.079H283.298C283.332 63.4995 283.469 63.8498 283.707 64.1301C283.95 64.4067 284.259 64.6131 284.634 64.7495C285.012 64.882 285.427 64.9483 285.878 64.9483C286.374 64.9483 286.815 64.8707 287.202 64.7154C287.592 64.5563 287.899 64.3366 288.122 64.0563C288.346 63.7722 288.457 63.4408 288.457 63.062C288.457 62.7173 288.359 62.4351 288.162 62.2154C287.969 61.9957 287.705 61.8139 287.372 61.6699C287.043 61.526 286.67 61.3991 286.253 61.2892L284.878 60.9142C283.946 60.6605 283.207 60.2873 282.662 59.7949C282.12 59.3025 281.849 58.651 281.849 57.8404C281.849 57.1699 282.031 56.5847 282.395 56.0847C282.759 55.5847 283.251 55.1964 283.872 54.9199C284.493 54.6396 285.194 54.4995 285.974 54.4995C286.762 54.4995 287.457 54.6377 288.06 54.9142C288.666 55.1908 289.143 55.5714 289.491 56.0563C289.84 56.5373 290.022 57.0904 290.037 57.7154H288.344ZM297.511 66.2949H295.648L299.835 54.6586H301.864L306.051 66.2949H304.188L300.898 56.7722H300.807L297.511 66.2949ZM297.824 61.7381H303.869V63.2154H297.824V61.7381ZM36.1222 78.6586H38.2528L41.9574 87.704H42.0938L45.7983 78.6586H47.929V90.2949H46.2585V81.8745H46.1506L42.7188 90.2779H41.3324L37.9006 81.8688H37.7926V90.2949H36.1222V78.6586ZM51.4645 90.2949H49.6009L53.7884 78.6586H55.8168L60.0043 90.2949H58.1406L54.8509 80.7722H54.7599L51.4645 90.2949ZM51.777 85.7381H57.8224V87.2154H51.777V85.7381ZM71.0767 78.6586V90.2949H69.4631L63.5483 81.7608H63.4403V90.2949H61.6847V78.6586H63.3097L69.2301 87.204H69.3381V78.6586H71.0767ZM81.1207 78.6586H82.8821V86.312C82.8821 87.1264 82.6908 87.848 82.3082 88.4767C81.9257 89.1017 81.3878 89.5942 80.6946 89.954C80.0014 90.3101 79.1889 90.4881 78.2571 90.4881C77.3291 90.4881 76.5185 90.3101 75.8253 89.954C75.1321 89.5942 74.5942 89.1017 74.2116 88.4767C73.8291 87.848 73.6378 87.1264 73.6378 86.312V78.6586H75.3935V86.1699C75.3935 86.6964 75.509 87.1642 75.7401 87.5733C75.9749 87.9824 76.3063 88.3044 76.7344 88.5392C77.1624 88.7703 77.67 88.8858 78.2571 88.8858C78.848 88.8858 79.3575 88.7703 79.7855 88.5392C80.2173 88.3044 80.5469 87.9824 80.7741 87.5733C81.0052 87.1642 81.1207 86.6964 81.1207 86.1699V78.6586ZM85.4347 90.2949V78.6586H92.6506V80.1699H87.1903V83.7154H92.1335V85.2211H87.1903V90.2949H85.4347ZM94.3395 90.2949H92.4759L96.6634 78.6586H98.6918L102.879 90.2949H101.016L97.7259 80.7722H97.6349L94.3395 90.2949ZM94.652 85.7381H100.697V87.2154H94.652V85.7381ZM113.678 82.4426H111.905C111.837 82.0639 111.71 81.7305 111.524 81.4426C111.339 81.1548 111.111 80.9105 110.842 80.7097C110.573 80.5089 110.272 80.3574 109.939 80.2551C109.609 80.1529 109.259 80.1017 108.888 80.1017C108.217 80.1017 107.617 80.2703 107.087 80.6074C106.56 80.9445 106.143 81.4389 105.837 82.0904C105.534 82.7419 105.382 83.5373 105.382 84.4767C105.382 85.4237 105.534 86.223 105.837 86.8745C106.143 87.526 106.562 88.0184 107.092 88.3517C107.623 88.6851 108.219 88.8517 108.882 88.8517C109.25 88.8517 109.598 88.8025 109.928 88.704C110.261 88.6017 110.562 88.4521 110.831 88.2551C111.1 88.0582 111.327 87.8176 111.513 87.5336C111.702 87.2457 111.833 86.9161 111.905 86.5449L113.678 86.5506C113.583 87.1226 113.399 87.6491 113.126 88.1301C112.857 88.6074 112.511 89.0203 112.087 89.3688C111.666 89.7135 111.185 89.9805 110.643 90.1699C110.102 90.3593 109.511 90.454 108.871 90.454C107.863 90.454 106.965 90.2154 106.178 89.7381C105.39 89.257 104.768 88.5695 104.314 87.6756C103.863 86.7817 103.638 85.7154 103.638 84.4767C103.638 83.2343 103.865 82.168 104.32 81.2779C104.774 80.3839 105.395 79.6983 106.183 79.2211C106.971 78.74 107.867 78.4995 108.871 78.4995C109.488 78.4995 110.064 78.5885 110.598 78.7665C111.136 78.9408 111.619 79.1983 112.047 79.5392C112.475 79.8764 112.829 80.2892 113.109 80.7779C113.39 81.2627 113.579 81.8176 113.678 82.4426ZM115.205 80.1699V78.6586H124.21V80.1699H120.58V90.2949H118.83V80.1699H115.205ZM133.683 78.6586H135.445V86.312C135.445 87.1264 135.253 87.848 134.871 88.4767C134.488 89.1017 133.95 89.5942 133.257 89.954C132.564 90.3101 131.751 90.4881 130.82 90.4881C129.892 90.4881 129.081 90.3101 128.388 89.954C127.695 89.5942 127.157 89.1017 126.774 88.4767C126.392 87.848 126.2 87.1264 126.2 86.312V78.6586H127.956V86.1699C127.956 86.6964 128.071 87.1642 128.303 87.5733C128.537 87.9824 128.869 88.3044 129.297 88.5392C129.725 88.7703 130.232 88.8858 130.82 88.8858C131.411 88.8858 131.92 88.7703 132.348 88.5392C132.78 88.3044 133.109 87.9824 133.337 87.5733C133.568 87.1642 133.683 86.6964 133.683 86.1699V78.6586ZM137.997 90.2949V78.6586H142.145C143.046 78.6586 143.795 78.8139 144.389 79.1245C144.988 79.4351 145.435 79.865 145.73 80.4142C146.026 80.9597 146.173 81.5904 146.173 82.3063C146.173 83.0184 146.024 83.6453 145.724 84.187C145.429 84.7248 144.982 85.1434 144.384 85.4426C143.789 85.7419 143.041 85.8915 142.139 85.8915H138.997V84.3801H141.98C142.548 84.3801 143.01 84.2987 143.366 84.1358C143.726 83.973 143.99 83.7362 144.156 83.4256C144.323 83.115 144.406 82.7419 144.406 82.3063C144.406 81.8669 144.321 81.4862 144.151 81.1642C143.984 80.8423 143.721 80.5961 143.361 80.4256C143.005 80.2514 142.537 80.1642 141.957 80.1642H139.753V90.2949H137.997ZM143.741 85.0449L146.616 90.2949H144.616L141.798 85.0449H143.741ZM148.31 90.2949V78.6586H155.605V80.1699H150.065V83.7154H155.224V85.2211H150.065V88.7836H155.673V90.2949H148.31ZM157.95 90.2949V78.6586H162.098C163 78.6586 163.748 78.8139 164.342 79.1245C164.941 79.4351 165.388 79.865 165.683 80.4142C165.979 80.9597 166.126 81.5904 166.126 82.3063C166.126 83.0184 165.977 83.6453 165.678 84.187C165.382 84.7248 164.935 85.1434 164.337 85.4426C163.742 85.7419 162.994 85.8915 162.092 85.8915H158.95V84.3801H161.933C162.501 84.3801 162.964 84.2987 163.32 84.1358C163.679 83.973 163.943 83.7362 164.109 83.4256C164.276 83.115 164.359 82.7419 164.359 82.3063C164.359 81.8669 164.274 81.4862 164.104 81.1642C163.937 80.8423 163.674 80.5961 163.314 80.4256C162.958 80.2514 162.49 80.1642 161.911 80.1642H159.706V90.2949H157.95ZM163.695 85.0449L166.57 90.2949H164.57L161.751 85.0449H163.695ZM173.48 90.2949H171.616L175.804 78.6586H177.832L182.02 90.2949H180.156L176.866 80.7722H176.776L173.48 90.2949ZM173.793 85.7381H179.838V87.2154H173.793V85.7381ZM193.092 78.6586V90.2949H191.479L185.564 81.7608H185.456V90.2949H183.7V78.6586H185.325L191.246 87.204H191.354V78.6586H193.092ZM199.42 90.2949H195.653V78.6586H199.54C200.68 78.6586 201.659 78.8915 202.477 79.3574C203.295 79.8195 203.922 80.4843 204.358 81.3517C204.797 82.2154 205.017 83.2514 205.017 84.4597C205.017 85.6718 204.795 86.7135 204.352 87.5847C203.913 88.4559 203.277 89.1264 202.443 89.5961C201.61 90.062 200.602 90.2949 199.42 90.2949ZM197.409 88.7608H199.324C200.21 88.7608 200.947 88.5942 201.534 88.2608C202.121 87.9237 202.561 87.437 202.852 86.8006C203.144 86.1605 203.29 85.3801 203.29 84.4597C203.29 83.5468 203.144 82.7722 202.852 82.1358C202.564 81.4995 202.134 81.0165 201.562 80.687C200.991 80.3574 200.28 80.1926 199.432 80.1926H197.409V88.7608ZM215.202 90.2949H211.435V78.6586H215.321C216.461 78.6586 217.44 78.8915 218.259 79.3574C219.077 79.8195 219.704 80.4843 220.139 81.3517C220.579 82.2154 220.798 83.2514 220.798 84.4597C220.798 85.6718 220.577 86.7135 220.134 87.5847C219.694 88.4559 219.058 89.1264 218.224 89.5961C217.391 90.062 216.384 90.2949 215.202 90.2949ZM213.19 88.7608H215.105C215.991 88.7608 216.728 88.5942 217.315 88.2608C217.902 87.9237 218.342 87.437 218.634 86.8006C218.925 86.1605 219.071 85.3801 219.071 84.4597C219.071 83.5468 218.925 82.7722 218.634 82.1358C218.346 81.4995 217.916 81.0165 217.344 80.687C216.772 80.3574 216.062 80.1926 215.213 80.1926H213.19V88.7608ZM224.737 78.6586V90.2949H222.982V78.6586H224.737ZM233.641 81.7154C233.58 81.1775 233.33 80.7608 232.891 80.4654C232.451 80.1661 231.898 80.0165 231.232 80.0165C230.754 80.0165 230.341 80.0923 229.993 80.2438C229.644 80.3915 229.374 80.5961 229.18 80.8574C228.991 81.115 228.896 81.4086 228.896 81.7381C228.896 82.0146 228.961 82.2533 229.089 82.454C229.222 82.6548 229.394 82.8233 229.607 82.9597C229.822 83.0923 230.054 83.204 230.3 83.2949C230.546 83.382 230.783 83.454 231.01 83.5108L232.146 83.8063C232.518 83.8972 232.898 84.0203 233.288 84.1756C233.679 84.3309 234.04 84.5355 234.374 84.7892C234.707 85.043 234.976 85.3574 235.18 85.7324C235.389 86.1074 235.493 86.5563 235.493 87.079C235.493 87.7381 235.322 88.3233 234.982 88.8347C234.644 89.3461 234.154 89.7495 233.51 90.0449C232.87 90.3404 232.095 90.4881 231.186 90.4881C230.315 90.4881 229.561 90.3498 228.925 90.0733C228.288 89.7968 227.79 89.4048 227.43 88.8972C227.071 88.3858 226.872 87.7798 226.834 87.079H228.595C228.629 87.4995 228.766 87.8498 229.004 88.1301C229.247 88.4067 229.555 88.6131 229.93 88.7495C230.309 88.882 230.724 88.9483 231.175 88.9483C231.671 88.9483 232.112 88.8707 232.499 88.7154C232.889 88.5563 233.196 88.3366 233.419 88.0563C233.643 87.7722 233.754 87.4408 233.754 87.062C233.754 86.7173 233.656 86.4351 233.459 86.2154C233.266 85.9957 233.002 85.8139 232.669 85.6699C232.339 85.526 231.966 85.3991 231.55 85.2892L230.175 84.9142C229.243 84.6605 228.504 84.2873 227.959 83.7949C227.417 83.3025 227.146 82.651 227.146 81.8404C227.146 81.1699 227.328 80.5847 227.692 80.0847C228.055 79.5847 228.548 79.1964 229.169 78.9199C229.79 78.6396 230.491 78.4995 231.271 78.4995C232.059 78.4995 232.754 78.6377 233.357 78.9142C233.963 79.1908 234.44 79.5714 234.788 80.0563C235.137 80.5373 235.319 81.0904 235.334 81.7154H233.641ZM237.017 80.1699V78.6586H246.023V80.1699H242.392V90.2949H240.642V80.1699H237.017ZM248.013 90.2949V78.6586H252.161C253.062 78.6586 253.81 78.8139 254.405 79.1245C255.003 79.4351 255.45 79.865 255.746 80.4142C256.041 80.9597 256.189 81.5904 256.189 82.3063C256.189 83.0184 256.039 83.6453 255.74 84.187C255.445 84.7248 254.998 85.1434 254.399 85.4426C253.804 85.7419 253.056 85.8915 252.155 85.8915H249.013V84.3801H251.996C252.564 84.3801 253.026 84.2987 253.382 84.1358C253.742 83.973 254.005 83.7362 254.172 83.4256C254.339 83.115 254.422 82.7419 254.422 82.3063C254.422 81.8669 254.337 81.4862 254.166 81.1642C254 80.8423 253.736 80.5961 253.376 80.4256C253.02 80.2514 252.553 80.1642 251.973 80.1642H249.768V90.2949H248.013ZM253.757 85.0449L256.632 90.2949H254.632L251.814 85.0449H253.757ZM260.081 78.6586V90.2949H258.325V78.6586H260.081ZM262.638 90.2949V78.6586H266.899C267.725 78.6586 268.409 78.7949 268.95 79.0676C269.492 79.3366 269.897 79.7021 270.166 80.1642C270.435 80.6226 270.57 81.1396 270.57 81.7154C270.57 82.2002 270.481 82.6093 270.303 82.9426C270.125 83.2722 269.886 83.5373 269.587 83.7381C269.291 83.9351 268.965 84.079 268.609 84.1699V84.2836C268.996 84.3025 269.373 84.4275 269.74 84.6586C270.111 84.8858 270.418 85.2097 270.661 85.6301C270.903 86.0506 271.024 86.562 271.024 87.1642C271.024 87.7589 270.884 88.293 270.604 88.7665C270.327 89.2362 269.899 89.6093 269.32 89.8858C268.74 90.1586 268 90.2949 267.098 90.2949H262.638ZM264.393 88.7892H266.928C267.768 88.7892 268.371 88.6264 268.734 88.3006C269.098 87.9748 269.28 87.5676 269.28 87.079C269.28 86.7116 269.187 86.3745 269.001 86.0676C268.816 85.7608 268.551 85.5165 268.206 85.3347C267.865 85.1529 267.46 85.062 266.99 85.062H264.393V88.7892ZM264.393 83.6926H266.746C267.14 83.6926 267.494 83.6169 267.808 83.4654C268.126 83.3139 268.378 83.1017 268.564 82.829C268.753 82.5525 268.848 82.2267 268.848 81.8517C268.848 81.3707 268.679 80.9673 268.342 80.6415C268.005 80.3158 267.488 80.1529 266.791 80.1529H264.393V83.6926ZM280.589 78.6586H282.351V86.312C282.351 87.1264 282.16 87.848 281.777 88.4767C281.394 89.1017 280.857 89.5942 280.163 89.954C279.47 90.3101 278.658 90.4881 277.726 90.4881C276.798 90.4881 275.987 90.3101 275.294 89.954C274.601 89.5942 274.063 89.1017 273.68 88.4767C273.298 87.848 273.107 87.1264 273.107 86.312V78.6586H274.862V86.1699C274.862 86.6964 274.978 87.1642 275.209 87.5733C275.444 87.9824 275.775 88.3044 276.203 88.5392C276.631 88.7703 277.139 88.8858 277.726 88.8858C278.317 88.8858 278.826 88.7703 279.254 88.5392C279.686 88.3044 280.016 87.9824 280.243 87.5733C280.474 87.1642 280.589 86.6964 280.589 86.1699V78.6586ZM284.33 80.1699V78.6586H293.335V80.1699H289.705V90.2949H287.955V80.1699H284.33ZM304.933 84.4767C304.933 85.7192 304.706 86.7873 304.251 87.6813C303.797 88.5714 303.174 89.257 302.382 89.7381C301.594 90.2154 300.698 90.454 299.695 90.454C298.687 90.454 297.787 90.2154 296.996 89.7381C296.208 89.257 295.587 88.5695 295.132 87.6756C294.678 86.7817 294.45 85.7154 294.45 84.4767C294.45 83.2343 294.678 82.168 295.132 81.2779C295.587 80.3839 296.208 79.6983 296.996 79.2211C297.787 78.74 298.687 78.4995 299.695 78.4995C300.698 78.4995 301.594 78.74 302.382 79.2211C303.174 79.6983 303.797 80.3839 304.251 81.2779C304.706 82.168 304.933 83.2343 304.933 84.4767ZM303.195 84.4767C303.195 83.5298 303.041 82.7324 302.734 82.0847C302.431 81.4332 302.015 80.9408 301.484 80.6074C300.958 80.2703 300.361 80.1017 299.695 80.1017C299.024 80.1017 298.426 80.2703 297.899 80.6074C297.373 80.9408 296.956 81.4332 296.649 82.0847C296.346 82.7324 296.195 83.5298 296.195 84.4767C296.195 85.4237 296.346 86.223 296.649 86.8745C296.956 87.5222 297.373 88.0146 297.899 88.3517C298.426 88.6851 299.024 88.8517 299.695 88.8517C300.361 88.8517 300.958 88.6851 301.484 88.3517C302.015 88.0146 302.431 87.5222 302.734 86.8745C303.041 86.223 303.195 85.4237 303.195 84.4767ZM307.122 90.2949V78.6586H311.27C312.171 78.6586 312.92 78.8139 313.514 79.1245C314.113 79.4351 314.56 79.865 314.855 80.4142C315.151 80.9597 315.298 81.5904 315.298 82.3063C315.298 83.0184 315.149 83.6453 314.849 84.187C314.554 84.7248 314.107 85.1434 313.509 85.4426C312.914 85.7419 312.166 85.8915 311.264 85.8915H308.122V84.3801H311.105C311.673 84.3801 312.135 84.2987 312.491 84.1358C312.851 83.973 313.115 83.7362 313.281 83.4256C313.448 83.115 313.531 82.7419 313.531 82.3063C313.531 81.8669 313.446 81.4862 313.276 81.1642C313.109 80.8423 312.846 80.5961 312.486 80.4256C312.13 80.2514 311.662 80.1642 311.082 80.1642H308.878V90.2949H307.122ZM312.866 85.0449L315.741 90.2949H313.741L310.923 85.0449H312.866ZM53.7848 108.477C53.7848 109.719 53.5575 110.787 53.103 111.681C52.6484 112.571 52.0253 113.257 51.2337 113.738C50.4458 114.215 49.55 114.454 48.5462 114.454C47.5386 114.454 46.639 114.215 45.8473 113.738C45.0594 113.257 44.4382 112.57 43.9837 111.676C43.5291 110.782 43.3018 109.715 43.3018 108.477C43.3018 107.234 43.5291 106.168 43.9837 105.278C44.4382 104.384 45.0594 103.698 45.8473 103.221C46.639 102.74 47.5386 102.499 48.5462 102.499C49.55 102.499 50.4458 102.74 51.2337 103.221C52.0253 103.698 52.6484 104.384 53.103 105.278C53.5575 106.168 53.7848 107.234 53.7848 108.477ZM52.0462 108.477C52.0462 107.53 51.8928 106.732 51.5859 106.085C51.2829 105.433 50.8662 104.941 50.3359 104.607C49.8094 104.27 49.2128 104.102 48.5462 104.102C47.8757 104.102 47.2772 104.27 46.7507 104.607C46.2242 104.941 45.8075 105.433 45.5007 106.085C45.1977 106.732 45.0462 107.53 45.0462 108.477C45.0462 109.424 45.1977 110.223 45.5007 110.874C45.8075 111.522 46.2242 112.015 46.7507 112.352C47.2772 112.685 47.8757 112.852 48.5462 112.852C49.2128 112.852 49.8094 112.685 50.3359 112.352C50.8662 112.015 51.2829 111.522 51.5859 110.874C51.8928 110.223 52.0462 109.424 52.0462 108.477ZM55.9737 114.295V102.659H63.1896V104.17H57.7294V107.715H62.6726V109.221H57.7294V114.295H55.9737ZM69.5831 114.295V102.659H71.3388V107.715H77.1399V102.659H78.9013V114.295H77.1399V109.221H71.3388V114.295H69.5831ZM83.2138 102.659V114.295H81.4581V102.659H83.2138ZM93.6456 106.335C93.5357 105.99 93.388 105.681 93.2024 105.409C93.0206 105.132 92.8028 104.897 92.549 104.704C92.2952 104.507 92.0054 104.357 91.6797 104.255C91.3577 104.153 91.0036 104.102 90.6172 104.102C89.9619 104.102 89.371 104.27 88.8445 104.607C88.3179 104.945 87.9013 105.439 87.5945 106.09C87.2914 106.738 87.1399 107.532 87.1399 108.471C87.1399 109.414 87.2933 110.212 87.6001 110.863C87.907 111.515 88.3274 112.009 88.8615 112.346C89.3956 112.683 90.0036 112.852 90.6854 112.852C91.3179 112.852 91.8691 112.723 92.3388 112.465C92.8123 112.208 93.1778 111.844 93.4354 111.374C93.6967 110.901 93.8274 110.344 93.8274 109.704L94.282 109.789H90.9524V108.34H95.5263V109.664C95.5263 110.642 95.3179 111.49 94.9013 112.21C94.4884 112.926 93.9164 113.479 93.1854 113.869C92.4581 114.259 91.6248 114.454 90.6854 114.454C89.6323 114.454 88.7081 114.212 87.9126 113.727C87.121 113.242 86.5036 112.554 86.0604 111.664C85.6172 110.77 85.3956 109.71 85.3956 108.482C85.3956 107.554 85.5244 106.721 85.782 105.982C86.0395 105.244 86.4013 104.617 86.8672 104.102C87.3369 103.583 87.888 103.187 88.5206 102.914C89.157 102.638 89.852 102.499 90.6058 102.499C91.2346 102.499 91.8198 102.592 92.3615 102.778C92.907 102.963 93.3918 103.227 93.8161 103.568C94.2441 103.909 94.5982 104.314 94.8786 104.784C95.1589 105.249 95.3482 105.767 95.4467 106.335H93.6456ZM97.755 114.295V102.659H99.5107V107.715H105.312V102.659H107.073V114.295H105.312V109.221H99.5107V114.295H97.755ZM118.143 110.522H119.87L121.086 112.107L121.66 112.812L123.597 115.34H121.802L120.506 113.653L120.063 113.039L118.143 110.522ZM123.972 108.477C123.972 109.719 123.745 110.787 123.29 111.681C122.836 112.571 122.213 113.257 121.421 113.738C120.633 114.215 119.737 114.454 118.734 114.454C117.726 114.454 116.826 114.215 116.035 113.738C115.247 113.257 114.626 112.57 114.171 111.676C113.717 110.782 113.489 109.715 113.489 108.477C113.489 107.234 113.717 106.168 114.171 105.278C114.626 104.384 115.247 103.698 116.035 103.221C116.826 102.74 117.726 102.499 118.734 102.499C119.737 102.499 120.633 102.74 121.421 103.221C122.213 103.698 122.836 104.384 123.29 105.278C123.745 106.168 123.972 107.234 123.972 108.477ZM122.234 108.477C122.234 107.53 122.08 106.732 121.773 106.085C121.47 105.433 121.054 104.941 120.523 104.607C119.997 104.27 119.4 104.102 118.734 104.102C118.063 104.102 117.465 104.27 116.938 104.607C116.412 104.941 115.995 105.433 115.688 106.085C115.385 106.732 115.234 107.53 115.234 108.477C115.234 109.424 115.385 110.223 115.688 110.874C115.995 111.522 116.412 112.015 116.938 112.352C117.465 112.685 118.063 112.852 118.734 112.852C119.4 112.852 119.997 112.685 120.523 112.352C121.054 112.015 121.47 111.522 121.773 110.874C122.08 110.223 122.234 109.424 122.234 108.477ZM133.644 102.659H135.406V110.312C135.406 111.126 135.214 111.848 134.832 112.477C134.449 113.102 133.911 113.594 133.218 113.954C132.525 114.31 131.712 114.488 130.781 114.488C129.853 114.488 129.042 114.31 128.349 113.954C127.656 113.594 127.118 113.102 126.735 112.477C126.353 111.848 126.161 111.126 126.161 110.312V102.659H127.917V110.17C127.917 110.696 128.032 111.164 128.263 111.573C128.498 111.982 128.83 112.304 129.258 112.539C129.686 112.77 130.193 112.886 130.781 112.886C131.371 112.886 131.881 112.77 132.309 112.539C132.741 112.304 133.07 111.982 133.298 111.573C133.529 111.164 133.644 110.696 133.644 110.17V102.659ZM138.941 114.295H137.077L141.265 102.659H143.293L147.481 114.295H145.617L142.327 104.772H142.237L138.941 114.295ZM139.254 109.738H145.299V111.215H139.254V109.738ZM149.161 114.295V102.659H150.917V112.784H156.19V114.295H149.161ZM159.948 102.659V114.295H158.192V102.659H159.948ZM161.931 104.17V102.659H170.937V104.17H167.306V114.295H165.556V104.17H161.931ZM172.029 102.659H174.023L177.063 107.948H177.188L180.228 102.659H182.222L178.001 109.727V114.295H176.251V109.727L172.029 102.659ZM189.097 114.295H187.234L191.421 102.659H193.45L197.637 114.295H195.773L192.484 104.772H192.393L189.097 114.295ZM189.41 109.738H195.455V111.215H189.41V109.738ZM208.71 102.659V114.295H207.096L201.181 105.761H201.073V114.295H199.317V102.659H200.942L206.863 111.204H206.971V102.659H208.71ZM210.697 104.17V102.659H219.702V104.17H216.072V114.295H214.322V104.17H210.697ZM223.448 102.659V114.295H221.692V102.659H223.448ZM226.005 114.295V102.659H230.266C231.092 102.659 231.776 102.795 232.317 103.068C232.859 103.337 233.264 103.702 233.533 104.164C233.802 104.623 233.937 105.14 233.937 105.715C233.937 106.2 233.848 106.609 233.67 106.943C233.492 107.272 233.253 107.537 232.954 107.738C232.658 107.935 232.333 108.079 231.977 108.17V108.284C232.363 108.302 232.74 108.427 233.107 108.659C233.478 108.886 233.785 109.21 234.028 109.63C234.27 110.051 234.391 110.562 234.391 111.164C234.391 111.759 234.251 112.293 233.971 112.767C233.694 113.236 233.266 113.609 232.687 113.886C232.107 114.159 231.367 114.295 230.465 114.295H226.005ZM227.761 112.789H230.295C231.136 112.789 231.738 112.626 232.102 112.301C232.465 111.975 232.647 111.568 232.647 111.079C232.647 110.712 232.554 110.374 232.369 110.068C232.183 109.761 231.918 109.517 231.573 109.335C231.232 109.153 230.827 109.062 230.357 109.062H227.761V112.789ZM227.761 107.693H230.113C230.507 107.693 230.861 107.617 231.175 107.465C231.494 107.314 231.746 107.102 231.931 106.829C232.121 106.552 232.215 106.227 232.215 105.852C232.215 105.371 232.047 104.967 231.71 104.642C231.372 104.316 230.855 104.153 230.158 104.153H227.761V107.693ZM238.229 102.659V114.295H236.474V102.659H238.229ZM250.894 108.477C250.894 109.719 250.667 110.787 250.212 111.681C249.758 112.571 249.135 113.257 248.343 113.738C247.555 114.215 246.659 114.454 245.656 114.454C244.648 114.454 243.748 114.215 242.957 113.738C242.169 113.257 241.548 112.57 241.093 111.676C240.638 110.782 240.411 109.715 240.411 108.477C240.411 107.234 240.638 106.168 241.093 105.278C241.548 104.384 242.169 103.698 242.957 103.221C243.748 102.74 244.648 102.499 245.656 102.499C246.659 102.499 247.555 102.74 248.343 103.221C249.135 103.698 249.758 104.384 250.212 105.278C250.667 106.168 250.894 107.234 250.894 108.477ZM249.156 108.477C249.156 107.53 249.002 106.732 248.695 106.085C248.392 105.433 247.976 104.941 247.445 104.607C246.919 104.27 246.322 104.102 245.656 104.102C244.985 104.102 244.387 104.27 243.86 104.607C243.334 104.941 242.917 105.433 242.61 106.085C242.307 106.732 242.156 107.53 242.156 108.477C242.156 109.424 242.307 110.223 242.61 110.874C242.917 111.522 243.334 112.015 243.86 112.352C244.387 112.685 244.985 112.852 245.656 112.852C246.322 112.852 246.919 112.685 247.445 112.352C247.976 112.015 248.392 111.522 248.695 110.874C249.002 110.223 249.156 109.424 249.156 108.477ZM252.009 104.17V102.659H261.015V104.17H257.384V114.295H255.634V104.17H252.009ZM264.761 102.659V114.295H263.005V102.659H264.761ZM276.982 106.443H275.21C275.141 106.064 275.014 105.731 274.829 105.443C274.643 105.155 274.416 104.91 274.147 104.71C273.878 104.509 273.577 104.357 273.244 104.255C272.914 104.153 272.564 104.102 272.192 104.102C271.522 104.102 270.922 104.27 270.391 104.607C269.865 104.945 269.448 105.439 269.141 106.09C268.838 106.742 268.687 107.537 268.687 108.477C268.687 109.424 268.838 110.223 269.141 110.874C269.448 111.526 269.867 112.018 270.397 112.352C270.927 112.685 271.524 112.852 272.187 112.852C272.554 112.852 272.903 112.802 273.232 112.704C273.566 112.602 273.867 112.452 274.136 112.255C274.405 112.058 274.632 111.818 274.817 111.534C275.007 111.246 275.138 110.916 275.21 110.545L276.982 110.551C276.888 111.123 276.704 111.649 276.431 112.13C276.162 112.607 275.816 113.02 275.391 113.369C274.971 113.713 274.49 113.981 273.948 114.17C273.406 114.359 272.816 114.454 272.175 114.454C271.168 114.454 270.27 114.215 269.482 113.738C268.694 113.257 268.073 112.57 267.619 111.676C267.168 110.782 266.942 109.715 266.942 108.477C266.942 107.234 267.17 106.168 267.624 105.278C268.079 104.384 268.7 103.698 269.488 103.221C270.276 102.74 271.172 102.499 272.175 102.499C272.793 102.499 273.369 102.588 273.903 102.767C274.441 102.941 274.924 103.198 275.352 103.539C275.78 103.876 276.134 104.289 276.414 104.778C276.694 105.263 276.884 105.818 276.982 106.443ZM285.43 105.715C285.369 105.177 285.119 104.761 284.68 104.465C284.24 104.166 283.687 104.017 283.021 104.017C282.543 104.017 282.13 104.092 281.782 104.244C281.433 104.392 281.163 104.596 280.969 104.857C280.78 105.115 280.685 105.409 280.685 105.738C280.685 106.015 280.75 106.253 280.879 106.454C281.011 106.655 281.183 106.823 281.396 106.96C281.612 107.092 281.843 107.204 282.089 107.295C282.335 107.382 282.572 107.454 282.799 107.511L283.935 107.806C284.307 107.897 284.687 108.02 285.077 108.176C285.468 108.331 285.829 108.535 286.163 108.789C286.496 109.043 286.765 109.357 286.969 109.732C287.178 110.107 287.282 110.556 287.282 111.079C287.282 111.738 287.112 112.323 286.771 112.835C286.433 113.346 285.943 113.749 285.299 114.045C284.659 114.34 283.884 114.488 282.975 114.488C282.104 114.488 281.35 114.35 280.714 114.073C280.077 113.797 279.579 113.405 279.219 112.897C278.86 112.386 278.661 111.78 278.623 111.079H280.384C280.418 111.499 280.555 111.85 280.793 112.13C281.036 112.407 281.344 112.613 281.719 112.749C282.098 112.882 282.513 112.948 282.964 112.948C283.46 112.948 283.901 112.871 284.288 112.715C284.678 112.556 284.985 112.337 285.208 112.056C285.432 111.772 285.543 111.441 285.543 111.062C285.543 110.717 285.445 110.435 285.248 110.215C285.055 109.996 284.791 109.814 284.458 109.67C284.129 109.526 283.755 109.399 283.339 109.289L281.964 108.914C281.032 108.66 280.293 108.287 279.748 107.795C279.206 107.302 278.935 106.651 278.935 105.84C278.935 105.17 279.117 104.585 279.481 104.085C279.844 103.585 280.337 103.196 280.958 102.92C281.579 102.64 282.28 102.499 283.06 102.499C283.848 102.499 284.543 102.638 285.146 102.914C285.752 103.191 286.229 103.571 286.577 104.056C286.926 104.537 287.108 105.09 287.123 105.715H285.43ZM295.37 102.659V114.295H293.614V102.659H295.37ZM307.319 102.659V114.295H305.705L299.79 105.761H299.683V114.295H297.927V102.659H299.552L305.472 111.204H305.58V102.659H307.319ZM42.4439 126.659L45.6825 136.136H45.8132L49.0518 126.659H50.9496L46.7621 138.295H44.7337L40.5462 126.659H42.4439ZM54.3857 126.659V138.295H52.63V126.659H54.3857ZM56.9425 138.295V126.659H64.2379V128.17H58.6982V131.715H63.8572V133.221H58.6982V136.784H64.3061V138.295H56.9425ZM66.0092 128.17V126.659H75.0149V128.17H71.3842V138.295H69.6342V128.17H66.0092ZM86.397 126.659V138.295H84.7834L78.8686 129.761H78.7607V138.295H77.005V126.659H78.63L84.5504 135.204H84.6584V126.659H86.397ZM89.9411 138.295H88.0774L92.2649 126.659H94.2933L98.4808 138.295H96.6172L93.3274 128.772H93.2365L89.9411 138.295ZM90.2536 133.738H96.299V135.215H90.2536V133.738ZM100.161 126.659H102.292L105.996 135.704H106.133L109.837 126.659H111.968V138.295H110.298V129.874H110.19L106.758 138.278H105.371L101.94 129.869H101.832V138.295H100.161V126.659ZM119.738 138.295H117.874L122.062 126.659H124.09L128.278 138.295H126.414L123.124 128.772H123.033L119.738 138.295ZM120.05 133.738H126.096V135.215H120.05V133.738ZM137.286 130.335C137.176 129.99 137.029 129.681 136.843 129.409C136.661 129.132 136.443 128.897 136.19 128.704C135.936 128.507 135.646 128.357 135.32 128.255C134.998 128.153 134.644 128.102 134.258 128.102C133.603 128.102 133.012 128.27 132.485 128.607C131.959 128.945 131.542 129.439 131.235 130.09C130.932 130.738 130.781 131.532 130.781 132.471C130.781 133.414 130.934 134.212 131.241 134.863C131.548 135.515 131.968 136.009 132.502 136.346C133.036 136.683 133.644 136.852 134.326 136.852C134.959 136.852 135.51 136.723 135.979 136.465C136.453 136.208 136.818 135.844 137.076 135.374C137.337 134.901 137.468 134.344 137.468 133.704L137.923 133.789H134.593V132.34H139.167V133.664C139.167 134.642 138.959 135.49 138.542 136.21C138.129 136.926 137.557 137.479 136.826 137.869C136.099 138.259 135.265 138.454 134.326 138.454C133.273 138.454 132.349 138.212 131.553 137.727C130.762 137.242 130.144 136.554 129.701 135.664C129.258 134.77 129.036 133.71 129.036 132.482C129.036 131.554 129.165 130.721 129.423 129.982C129.68 129.244 130.042 128.617 130.508 128.102C130.978 127.583 131.529 127.187 132.161 126.914C132.798 126.638 133.493 126.499 134.246 126.499C134.875 126.499 135.46 126.592 136.002 126.778C136.548 126.963 137.032 127.227 137.457 127.568C137.885 127.909 138.239 128.314 138.519 128.784C138.799 129.249 138.989 129.767 139.087 130.335H137.286ZM142.019 138.295H140.156L144.343 126.659H146.371L150.559 138.295H148.695L145.406 128.772H145.315L142.019 138.295ZM142.332 133.738H148.377V135.215H142.332V133.738ZM153.995 126.659V138.295H152.239V126.659H153.995ZM165.944 126.659V138.295H164.33L158.415 129.761H158.308V138.295H156.552V126.659H158.177L164.097 135.204H164.205V126.659H165.944ZM174.852 129.715C174.791 129.177 174.541 128.761 174.102 128.465C173.662 128.166 173.109 128.017 172.442 128.017C171.965 128.017 171.552 128.092 171.204 128.244C170.855 128.392 170.585 128.596 170.391 128.857C170.202 129.115 170.107 129.409 170.107 129.738C170.107 130.015 170.172 130.253 170.3 130.454C170.433 130.655 170.605 130.823 170.817 130.96C171.033 131.092 171.264 131.204 171.511 131.295C171.757 131.382 171.994 131.454 172.221 131.511L173.357 131.806C173.728 131.897 174.109 132.02 174.499 132.176C174.889 132.331 175.251 132.535 175.585 132.789C175.918 133.043 176.187 133.357 176.391 133.732C176.6 134.107 176.704 134.556 176.704 135.079C176.704 135.738 176.533 136.323 176.192 136.835C175.855 137.346 175.365 137.749 174.721 138.045C174.081 138.34 173.306 138.488 172.397 138.488C171.526 138.488 170.772 138.35 170.136 138.073C169.499 137.797 169.001 137.405 168.641 136.897C168.281 136.386 168.083 135.78 168.045 135.079H169.806C169.84 135.499 169.977 135.85 170.215 136.13C170.458 136.407 170.766 136.613 171.141 136.749C171.52 136.882 171.935 136.948 172.386 136.948C172.882 136.948 173.323 136.871 173.71 136.715C174.1 136.556 174.406 136.337 174.63 136.056C174.853 135.772 174.965 135.441 174.965 135.062C174.965 134.717 174.867 134.435 174.67 134.215C174.477 133.996 174.213 133.814 173.88 133.67C173.55 133.526 173.177 133.399 172.761 133.289L171.386 132.914C170.454 132.66 169.715 132.287 169.17 131.795C168.628 131.302 168.357 130.651 168.357 129.84C168.357 129.17 168.539 128.585 168.903 128.085C169.266 127.585 169.759 127.196 170.38 126.92C171.001 126.64 171.702 126.499 172.482 126.499C173.27 126.499 173.965 126.638 174.567 126.914C175.174 127.191 175.651 127.571 175.999 128.056C176.348 128.537 176.53 129.09 176.545 129.715H174.852ZM178.228 128.17V126.659H187.234V128.17H183.603V138.295H181.853V128.17H178.228ZM193.458 138.295V126.659H197.719C198.545 126.659 199.229 126.795 199.771 127.068C200.312 127.337 200.718 127.702 200.987 128.164C201.255 128.623 201.39 129.14 201.39 129.715C201.39 130.2 201.301 130.609 201.123 130.943C200.945 131.272 200.706 131.537 200.407 131.738C200.112 131.935 199.786 132.079 199.43 132.17V132.284C199.816 132.302 200.193 132.427 200.56 132.659C200.932 132.886 201.238 133.21 201.481 133.63C201.723 134.051 201.844 134.562 201.844 135.164C201.844 135.759 201.704 136.293 201.424 136.767C201.147 137.236 200.719 137.609 200.14 137.886C199.56 138.159 198.82 138.295 197.918 138.295H193.458ZM195.214 136.789H197.748C198.589 136.789 199.191 136.626 199.555 136.301C199.918 135.975 200.1 135.568 200.1 135.079C200.1 134.712 200.007 134.374 199.822 134.068C199.636 133.761 199.371 133.517 199.026 133.335C198.685 133.153 198.28 133.062 197.81 133.062H195.214V136.789ZM195.214 131.693H197.566C197.96 131.693 198.314 131.617 198.629 131.465C198.947 131.314 199.199 131.102 199.384 130.829C199.574 130.552 199.668 130.227 199.668 129.852C199.668 129.371 199.5 128.967 199.163 128.642C198.826 128.316 198.308 128.153 197.612 128.153H195.214V131.693ZM214.035 132.477C214.035 133.719 213.808 134.787 213.353 135.681C212.898 136.571 212.275 137.257 211.484 137.738C210.696 138.215 209.8 138.454 208.796 138.454C207.789 138.454 206.889 138.215 206.097 137.738C205.309 137.257 204.688 136.57 204.234 135.676C203.779 134.782 203.552 133.715 203.552 132.477C203.552 131.234 203.779 130.168 204.234 129.278C204.688 128.384 205.309 127.698 206.097 127.221C206.889 126.74 207.789 126.499 208.796 126.499C209.8 126.499 210.696 126.74 211.484 127.221C212.275 127.698 212.898 128.384 213.353 129.278C213.808 130.168 214.035 131.234 214.035 132.477ZM212.296 132.477C212.296 131.53 212.143 130.732 211.836 130.085C211.533 129.433 211.116 128.941 210.586 128.607C210.059 128.27 209.463 128.102 208.796 128.102C208.126 128.102 207.527 128.27 207.001 128.607C206.474 128.941 206.058 129.433 205.751 130.085C205.448 130.732 205.296 131.53 205.296 132.477C205.296 133.424 205.448 134.223 205.751 134.874C206.058 135.522 206.474 136.015 207.001 136.352C207.527 136.685 208.126 136.852 208.796 136.852C209.463 136.852 210.059 136.685 210.586 136.352C211.116 136.015 211.533 135.522 211.836 134.874C212.143 134.223 212.296 133.424 212.296 132.477ZM215.15 128.17V126.659H224.156V128.17H220.525V138.295H218.775V128.17H215.15ZM226.146 138.295V126.659H227.901V131.715H233.702V126.659H235.464V138.295H233.702V133.221H227.901V138.295H226.146ZM242.255 138.295V126.659H249.471V128.17H244.011V131.715H248.954V133.221H244.011V138.295H242.255ZM261.738 132.477C261.738 133.719 261.511 134.787 261.056 135.681C260.602 136.571 259.978 137.257 259.187 137.738C258.399 138.215 257.503 138.454 256.499 138.454C255.492 138.454 254.592 138.215 253.8 137.738C253.013 137.257 252.391 136.57 251.937 135.676C251.482 134.782 251.255 133.715 251.255 132.477C251.255 131.234 251.482 130.168 251.937 129.278C252.391 128.384 253.013 127.698 253.8 127.221C254.592 126.74 255.492 126.499 256.499 126.499C257.503 126.499 258.399 126.74 259.187 127.221C259.978 127.698 260.602 128.384 261.056 129.278C261.511 130.168 261.738 131.234 261.738 132.477ZM259.999 132.477C259.999 131.53 259.846 130.732 259.539 130.085C259.236 129.433 258.819 128.941 258.289 128.607C257.763 128.27 257.166 128.102 256.499 128.102C255.829 128.102 255.23 128.27 254.704 128.607C254.177 128.941 253.761 129.433 253.454 130.085C253.151 130.732 252.999 131.53 252.999 132.477C252.999 133.424 253.151 134.223 253.454 134.874C253.761 135.522 254.177 136.015 254.704 136.352C255.23 136.685 255.829 136.852 256.499 136.852C257.166 136.852 257.763 136.685 258.289 136.352C258.819 136.015 259.236 135.522 259.539 134.874C259.846 134.223 259.999 133.424 259.999 132.477ZM263.927 138.295V126.659H268.075C268.976 126.659 269.724 126.814 270.319 127.124C270.917 127.435 271.364 127.865 271.66 128.414C271.955 128.96 272.103 129.59 272.103 130.306C272.103 131.018 271.953 131.645 271.654 132.187C271.359 132.725 270.912 133.143 270.313 133.443C269.719 133.742 268.97 133.892 268.069 133.892H264.927V132.38H267.91C268.478 132.38 268.94 132.299 269.296 132.136C269.656 131.973 269.919 131.736 270.086 131.426C270.253 131.115 270.336 130.742 270.336 130.306C270.336 129.867 270.251 129.486 270.08 129.164C269.914 128.842 269.65 128.596 269.29 128.426C268.934 128.251 268.467 128.164 267.887 128.164H265.683V138.295H263.927ZM269.671 133.045L272.546 138.295H270.546L267.728 133.045H269.671ZM274.239 138.295V126.659H281.535V128.17H275.995V131.715H281.154V133.221H275.995V136.784H281.603V138.295H274.239ZM285.636 126.659V138.295H283.88V126.659H285.636ZM296.067 130.335C295.958 129.99 295.81 129.681 295.624 129.409C295.442 129.132 295.225 128.897 294.971 128.704C294.717 128.507 294.427 128.357 294.102 128.255C293.78 128.153 293.425 128.102 293.039 128.102C292.384 128.102 291.793 128.27 291.266 128.607C290.74 128.945 290.323 129.439 290.016 130.09C289.713 130.738 289.562 131.532 289.562 132.471C289.562 133.414 289.715 134.212 290.022 134.863C290.329 135.515 290.749 136.009 291.283 136.346C291.817 136.683 292.425 136.852 293.107 136.852C293.74 136.852 294.291 136.723 294.761 136.465C295.234 136.208 295.6 135.844 295.857 135.374C296.119 134.901 296.249 134.344 296.249 133.704L296.704 133.789H293.374V132.34H297.948V133.664C297.948 134.642 297.74 135.49 297.323 136.21C296.91 136.926 296.338 137.479 295.607 137.869C294.88 138.259 294.047 138.454 293.107 138.454C292.054 138.454 291.13 138.212 290.335 137.727C289.543 137.242 288.925 136.554 288.482 135.664C288.039 134.77 287.817 133.71 287.817 132.482C287.817 131.554 287.946 130.721 288.204 129.982C288.461 129.244 288.823 128.617 289.289 128.102C289.759 127.583 290.31 127.187 290.942 126.914C291.579 126.638 292.274 126.499 293.028 126.499C293.656 126.499 294.242 126.592 294.783 126.778C295.329 126.963 295.814 127.227 296.238 127.568C296.666 127.909 297.02 128.314 297.3 128.784C297.581 129.249 297.77 129.767 297.869 130.335H296.067ZM309.569 126.659V138.295H307.955L302.04 129.761H301.933V138.295H300.177V126.659H301.802L307.722 135.204H307.83V126.659H309.569ZM62.0582 162.295H60.1946L64.3821 150.659H66.4105L70.598 162.295H68.7344L65.4446 152.772H65.3537L62.0582 162.295ZM62.3707 157.738H68.4162V159.215H62.3707V157.738ZM81.6705 150.659V162.295H80.0568L74.142 153.761H74.0341V162.295H72.2784V150.659H73.9034L79.8239 159.204H79.9318V150.659H81.6705ZM87.9986 162.295H84.2315V150.659H88.1179C89.258 150.659 90.2372 150.892 91.0554 151.357C91.8736 151.82 92.5005 152.484 92.9361 153.352C93.3755 154.215 93.5952 155.251 93.5952 156.46C93.5952 157.672 93.3736 158.713 92.9304 159.585C92.491 160.456 91.8546 161.126 91.0213 161.596C90.188 162.062 89.1804 162.295 87.9986 162.295ZM85.9872 160.761H87.902C88.7884 160.761 89.5251 160.594 90.1122 160.261C90.6993 159.924 91.1387 159.437 91.4304 158.801C91.7221 158.16 91.8679 157.38 91.8679 156.46C91.8679 155.547 91.7221 154.772 91.4304 154.136C91.1425 153.499 90.7126 153.017 90.1406 152.687C89.5687 152.357 88.8584 152.193 88.0099 152.193H85.9872V160.761ZM103.78 162.295H100.013V150.659H103.899C105.039 150.659 106.018 150.892 106.837 151.357C107.655 151.82 108.282 152.484 108.717 153.352C109.157 154.215 109.376 155.251 109.376 156.46C109.376 157.672 109.155 158.713 108.712 159.585C108.272 160.456 107.636 161.126 106.803 161.596C105.969 162.062 104.962 162.295 103.78 162.295ZM101.768 160.761H103.683C104.57 160.761 105.306 160.594 105.893 160.261C106.481 159.924 106.92 159.437 107.212 158.801C107.503 158.16 107.649 157.38 107.649 156.46C107.649 155.547 107.503 154.772 107.212 154.136C106.924 153.499 106.494 153.017 105.922 152.687C105.35 152.357 104.64 152.193 103.791 152.193H101.768V160.761ZM121.668 156.477C121.668 157.719 121.44 158.787 120.986 159.681C120.531 160.571 119.908 161.257 119.116 161.738C118.329 162.215 117.433 162.454 116.429 162.454C115.421 162.454 114.522 162.215 113.73 161.738C112.942 161.257 112.321 160.57 111.866 159.676C111.412 158.782 111.185 157.715 111.185 156.477C111.185 155.234 111.412 154.168 111.866 153.278C112.321 152.384 112.942 151.698 113.73 151.221C114.522 150.74 115.421 150.499 116.429 150.499C117.433 150.499 118.329 150.74 119.116 151.221C119.908 151.698 120.531 152.384 120.986 153.278C121.44 154.168 121.668 155.234 121.668 156.477ZM119.929 156.477C119.929 155.53 119.776 154.732 119.469 154.085C119.166 153.433 118.749 152.941 118.219 152.607C117.692 152.27 117.096 152.102 116.429 152.102C115.759 152.102 115.16 152.27 114.634 152.607C114.107 152.941 113.69 153.433 113.384 154.085C113.08 154.732 112.929 155.53 112.929 156.477C112.929 157.424 113.08 158.223 113.384 158.874C113.69 159.522 114.107 160.015 114.634 160.352C115.16 160.685 115.759 160.852 116.429 160.852C117.096 160.852 117.692 160.685 118.219 160.352C118.749 160.015 119.166 159.522 119.469 158.874C119.776 158.223 119.929 157.424 119.929 156.477ZM123.857 150.659H125.987L129.692 159.704H129.828L133.533 150.659H135.663V162.295H133.993V153.874H133.885L130.453 162.278H129.067L125.635 153.869H125.527V162.295H123.857V150.659ZM138.216 162.295V150.659H145.511V152.17H139.972V155.715H145.131V157.221H139.972V160.784H145.58V162.295H138.216ZM154.203 153.715C154.143 153.177 153.893 152.761 153.453 152.465C153.014 152.166 152.461 152.017 151.794 152.017C151.317 152.017 150.904 152.092 150.555 152.244C150.207 152.392 149.936 152.596 149.743 152.857C149.554 153.115 149.459 153.409 149.459 153.738C149.459 154.015 149.523 154.253 149.652 154.454C149.785 154.655 149.957 154.823 150.169 154.96C150.385 155.092 150.616 155.204 150.862 155.295C151.108 155.382 151.345 155.454 151.572 155.511L152.709 155.806C153.08 155.897 153.461 156.02 153.851 156.176C154.241 156.331 154.603 156.535 154.936 156.789C155.269 157.043 155.538 157.357 155.743 157.732C155.951 158.107 156.055 158.556 156.055 159.079C156.055 159.738 155.885 160.323 155.544 160.835C155.207 161.346 154.716 161.749 154.072 162.045C153.432 162.34 152.658 162.488 151.749 162.488C150.877 162.488 150.124 162.35 149.487 162.073C148.851 161.797 148.353 161.405 147.993 160.897C147.633 160.386 147.434 159.78 147.396 159.079H149.158C149.192 159.499 149.328 159.85 149.567 160.13C149.809 160.407 150.118 160.613 150.493 160.749C150.872 160.882 151.286 160.948 151.737 160.948C152.233 160.948 152.675 160.871 153.061 160.715C153.451 160.556 153.758 160.337 153.982 160.056C154.205 159.772 154.317 159.441 154.317 159.062C154.317 158.717 154.218 158.435 154.021 158.215C153.828 157.996 153.565 157.814 153.232 157.67C152.902 157.526 152.529 157.399 152.112 157.289L150.737 156.914C149.805 156.66 149.067 156.287 148.521 155.795C147.98 155.302 147.709 154.651 147.709 153.84C147.709 153.17 147.891 152.585 148.254 152.085C148.618 151.585 149.11 151.196 149.732 150.92C150.353 150.64 151.054 150.499 151.834 150.499C152.622 150.499 153.317 150.638 153.919 150.914C154.525 151.191 155.002 151.571 155.351 152.056C155.699 152.537 155.881 153.09 155.896 153.715H154.203ZM157.58 152.17V150.659H166.585V152.17H162.955V162.295H161.205V152.17H157.58ZM170.331 150.659V162.295H168.575V150.659H170.331ZM182.553 154.443H180.78C180.712 154.064 180.585 153.731 180.399 153.443C180.214 153.155 179.986 152.91 179.717 152.71C179.448 152.509 179.147 152.357 178.814 152.255C178.484 152.153 178.134 152.102 177.763 152.102C177.092 152.102 176.492 152.27 175.962 152.607C175.435 152.945 175.018 153.439 174.712 154.09C174.409 154.742 174.257 155.537 174.257 156.477C174.257 157.424 174.409 158.223 174.712 158.874C175.018 159.526 175.437 160.018 175.967 160.352C176.498 160.685 177.094 160.852 177.757 160.852C178.125 160.852 178.473 160.802 178.803 160.704C179.136 160.602 179.437 160.452 179.706 160.255C179.975 160.058 180.202 159.818 180.388 159.534C180.577 159.246 180.708 158.916 180.78 158.545L182.553 158.551C182.458 159.123 182.274 159.649 182.001 160.13C181.732 160.607 181.386 161.02 180.962 161.369C180.541 161.713 180.06 161.981 179.518 162.17C178.977 162.359 178.386 162.454 177.746 162.454C176.738 162.454 175.84 162.215 175.053 161.738C174.265 161.257 173.643 160.57 173.189 159.676C172.738 158.782 172.513 157.715 172.513 156.477C172.513 155.234 172.74 154.168 173.195 153.278C173.649 152.384 174.27 151.698 175.058 151.221C175.846 150.74 176.742 150.499 177.746 150.499C178.363 150.499 178.939 150.588 179.473 150.767C180.011 150.941 180.494 151.198 180.922 151.539C181.35 151.876 181.704 152.289 181.984 152.778C182.265 153.263 182.454 153.818 182.553 154.443ZM198.553 154.443H196.78C196.712 154.064 196.585 153.731 196.399 153.443C196.214 153.155 195.986 152.91 195.717 152.71C195.448 152.509 195.147 152.357 194.814 152.255C194.484 152.153 194.134 152.102 193.763 152.102C193.092 152.102 192.492 152.27 191.962 152.607C191.435 152.945 191.018 153.439 190.712 154.09C190.409 154.742 190.257 155.537 190.257 156.477C190.257 157.424 190.409 158.223 190.712 158.874C191.018 159.526 191.437 160.018 191.967 160.352C192.498 160.685 193.094 160.852 193.757 160.852C194.125 160.852 194.473 160.802 194.803 160.704C195.136 160.602 195.437 160.452 195.706 160.255C195.975 160.058 196.202 159.818 196.388 159.534C196.577 159.246 196.708 158.916 196.78 158.545L198.553 158.551C198.458 159.123 198.274 159.649 198.001 160.13C197.732 160.607 197.386 161.02 196.962 161.369C196.541 161.713 196.06 161.981 195.518 162.17C194.977 162.359 194.386 162.454 193.746 162.454C192.738 162.454 191.84 162.215 191.053 161.738C190.265 161.257 189.643 160.57 189.189 159.676C188.738 158.782 188.513 157.715 188.513 156.477C188.513 155.234 188.74 154.168 189.195 153.278C189.649 152.384 190.27 151.698 191.058 151.221C191.846 150.74 192.742 150.499 193.746 150.499C194.363 150.499 194.939 150.588 195.473 150.767C196.011 150.941 196.494 151.198 196.922 151.539C197.35 151.876 197.704 152.289 197.984 152.778C198.265 153.263 198.454 153.818 198.553 154.443ZM210.761 156.477C210.761 157.719 210.534 158.787 210.08 159.681C209.625 160.571 209.002 161.257 208.21 161.738C207.422 162.215 206.527 162.454 205.523 162.454C204.515 162.454 203.616 162.215 202.824 161.738C202.036 161.257 201.415 160.57 200.96 159.676C200.506 158.782 200.278 157.715 200.278 156.477C200.278 155.234 200.506 154.168 200.96 153.278C201.415 152.384 202.036 151.698 202.824 151.221C203.616 150.74 204.515 150.499 205.523 150.499C206.527 150.499 207.422 150.74 208.21 151.221C209.002 151.698 209.625 152.384 210.08 153.278C210.534 154.168 210.761 155.234 210.761 156.477ZM209.023 156.477C209.023 155.53 208.869 154.732 208.562 154.085C208.259 153.433 207.843 152.941 207.312 152.607C206.786 152.27 206.189 152.102 205.523 152.102C204.852 152.102 204.254 152.27 203.727 152.607C203.201 152.941 202.784 153.433 202.477 154.085C202.174 154.732 202.023 155.53 202.023 156.477C202.023 157.424 202.174 158.223 202.477 158.874C202.784 159.522 203.201 160.015 203.727 160.352C204.254 160.685 204.852 160.852 205.523 160.852C206.189 160.852 206.786 160.685 207.312 160.352C207.843 160.015 208.259 159.522 208.562 158.874C208.869 158.223 209.023 157.424 209.023 156.477ZM212.95 150.659H215.081L218.786 159.704H218.922L222.626 150.659H224.757V162.295H223.087V153.874H222.979L219.547 162.278H218.161L214.729 153.869H214.621V162.295H212.95V150.659ZM227.31 162.295V150.659H231.457C232.363 150.659 233.113 150.823 233.707 151.153C234.302 151.482 234.747 151.933 235.043 152.505C235.338 153.073 235.486 153.713 235.486 154.426C235.486 155.142 235.336 155.785 235.037 156.357C234.741 156.926 234.295 157.376 233.696 157.71C233.101 158.039 232.353 158.204 231.452 158.204H228.599V156.715H231.293C231.865 156.715 232.329 156.617 232.685 156.42C233.041 156.219 233.302 155.946 233.469 155.602C233.635 155.257 233.719 154.865 233.719 154.426C233.719 153.986 233.635 153.596 233.469 153.255C233.302 152.914 233.039 152.647 232.679 152.454C232.323 152.261 231.853 152.164 231.27 152.164H229.065V162.295H227.31ZM237.293 162.295H235.429L239.616 150.659H241.645L245.832 162.295H243.969L240.679 152.772H240.588L237.293 162.295ZM237.605 157.738H243.651V159.215H237.605V157.738ZM256.905 150.659V162.295H255.291L249.376 153.761H249.268V162.295H247.513V150.659H249.138L255.058 159.204H255.166V150.659H256.905ZM261.222 150.659V162.295H259.466V150.659H261.222ZM263.778 162.295V150.659H271.074V152.17H265.534V155.715H270.693V157.221H265.534V160.784H271.142V162.295H263.778ZM279.766 153.715C279.705 153.177 279.455 152.761 279.016 152.465C278.576 152.166 278.023 152.017 277.357 152.017C276.879 152.017 276.466 152.092 276.118 152.244C275.769 152.392 275.499 152.596 275.305 152.857C275.116 153.115 275.021 153.409 275.021 153.738C275.021 154.015 275.086 154.253 275.214 154.454C275.347 154.655 275.519 154.823 275.732 154.96C275.947 155.092 276.179 155.204 276.425 155.295C276.671 155.382 276.908 155.454 277.135 155.511L278.271 155.806C278.643 155.897 279.023 156.02 279.413 156.176C279.804 156.331 280.165 156.535 280.499 156.789C280.832 157.043 281.101 157.357 281.305 157.732C281.514 158.107 281.618 158.556 281.618 159.079C281.618 159.738 281.447 160.323 281.107 160.835C280.769 161.346 280.279 161.749 279.635 162.045C278.995 162.34 278.22 162.488 277.311 162.488C276.44 162.488 275.686 162.35 275.05 162.073C274.413 161.797 273.915 161.405 273.555 160.897C273.196 160.386 272.997 159.78 272.959 159.079H274.72C274.754 159.499 274.891 159.85 275.129 160.13C275.372 160.407 275.68 160.613 276.055 160.749C276.434 160.882 276.849 160.948 277.3 160.948C277.796 160.948 278.237 160.871 278.624 160.715C279.014 160.556 279.321 160.337 279.544 160.056C279.768 159.772 279.879 159.441 279.879 159.062C279.879 158.717 279.781 158.435 279.584 158.215C279.391 157.996 279.127 157.814 278.794 157.67C278.464 157.526 278.091 157.399 277.675 157.289L276.3 156.914C275.368 156.66 274.629 156.287 274.084 155.795C273.542 155.302 273.271 154.651 273.271 153.84C273.271 153.17 273.453 152.585 273.817 152.085C274.18 151.585 274.673 151.196 275.294 150.92C275.915 150.64 276.616 150.499 277.396 150.499C278.184 150.499 278.879 150.638 279.482 150.914C280.088 151.191 280.565 151.571 280.913 152.056C281.262 152.537 281.444 153.09 281.459 153.715H279.766ZM284.699 162.403C284.388 162.403 284.121 162.293 283.898 162.073C283.674 161.85 283.562 161.581 283.562 161.267C283.562 160.956 283.674 160.691 283.898 160.471C284.121 160.248 284.388 160.136 284.699 160.136C285.009 160.136 285.277 160.248 285.5 160.471C285.723 160.691 285.835 160.956 285.835 161.267C285.835 161.475 285.782 161.666 285.676 161.84C285.574 162.011 285.438 162.147 285.267 162.249C285.097 162.352 284.907 162.403 284.699 162.403Z" fill="#24408E"/>
<defs>
<linearGradient id="paint0_linear_158_2251" x1="0" y1="96.2949" x2="351" y2="96.2949" gradientUnits="userSpaceOnUse">
<stop stop-color="#00A93C"/>
<stop offset="1" stop-color="#24CBFF"/>
</linearGradient>
</defs>
</svg>
