<svg width="100%" viewBox="0 0 1296 112" fill="none" xmlns="http://www.w3.org/2000/svg">
<rect x="0.5" y="0.5" width="1295" height="111" rx="19.5" stroke="url(#paint0_linear_158_862)"/>
<path d="M120.903 47L116.869 32.4545H119.177L122.011 43.7188H122.146L125.093 32.4545H127.38L130.328 43.7259H130.463L133.289 32.4545H135.605L131.564 47H129.355L126.294 36.1051H126.18L123.119 47H120.903ZM137.606 47V32.4545H146.725V34.3438H139.8V38.7756H146.249V40.6577H139.8V45.1108H146.81V47H137.606ZM167.031 37.1847H164.815C164.729 36.7112 164.571 36.2945 164.339 35.9347C164.107 35.5748 163.823 35.2694 163.487 35.0185C163.15 34.7675 162.774 34.5781 162.357 34.4503C161.945 34.3224 161.507 34.2585 161.043 34.2585C160.205 34.2585 159.455 34.4692 158.792 34.8906C158.134 35.312 157.613 35.9299 157.229 36.7443C156.851 37.5587 156.661 38.553 156.661 39.7273C156.661 40.911 156.851 41.91 157.229 42.7244C157.613 43.5388 158.136 44.1544 158.799 44.571C159.462 44.9877 160.208 45.196 161.036 45.196C161.496 45.196 161.931 45.1345 162.343 45.0114C162.76 44.8835 163.136 44.6965 163.472 44.4503C163.808 44.2041 164.093 43.9034 164.325 43.5483C164.561 43.1884 164.725 42.7765 164.815 42.3125L167.031 42.3196C166.912 43.0346 166.683 43.6927 166.342 44.294C166.005 44.8906 165.572 45.4067 165.042 45.8423C164.516 46.2732 163.915 46.607 163.238 46.8438C162.561 47.0805 161.822 47.1989 161.022 47.1989C159.763 47.1989 158.64 46.9006 157.656 46.304C156.671 45.7027 155.894 44.8433 155.326 43.7259C154.763 42.6084 154.481 41.2756 154.481 39.7273C154.481 38.1742 154.765 36.8414 155.333 35.7287C155.901 34.6113 156.678 33.7543 157.663 33.1577C158.647 32.5563 159.767 32.2557 161.022 32.2557C161.794 32.2557 162.513 32.367 163.181 32.5895C163.853 32.8073 164.457 33.1293 164.992 33.5554C165.527 33.9768 165.97 34.4929 166.32 35.1037C166.671 35.7098 166.907 36.4034 167.031 37.1847ZM182.292 39.7273C182.292 41.2803 182.007 42.6155 181.439 43.733C180.871 44.8456 180.092 45.7027 179.103 46.304C178.118 46.9006 176.998 47.1989 175.743 47.1989C174.484 47.1989 173.359 46.9006 172.37 46.304C171.385 45.7027 170.608 44.8433 170.04 43.7259C169.472 42.6084 169.188 41.2756 169.188 39.7273C169.188 38.1742 169.472 36.8414 170.04 35.7287C170.608 34.6113 171.385 33.7543 172.37 33.1577C173.359 32.5563 174.484 32.2557 175.743 32.2557C176.998 32.2557 178.118 32.5563 179.103 33.1577C180.092 33.7543 180.871 34.6113 181.439 35.7287C182.007 36.8414 182.292 38.1742 182.292 39.7273ZM180.118 39.7273C180.118 38.5436 179.926 37.5469 179.543 36.7372C179.164 35.9228 178.643 35.3073 177.98 34.8906C177.322 34.4692 176.577 34.2585 175.743 34.2585C174.905 34.2585 174.157 34.4692 173.499 34.8906C172.841 35.3073 172.32 35.9228 171.936 36.7372C171.558 37.5469 171.368 38.5436 171.368 39.7273C171.368 40.911 171.558 41.91 171.936 42.7244C172.32 43.5341 172.841 44.1496 173.499 44.571C174.157 44.9877 174.905 45.196 175.743 45.196C176.577 45.196 177.322 44.9877 177.98 44.571C178.643 44.1496 179.164 43.5341 179.543 42.7244C179.926 41.91 180.118 40.911 180.118 39.7273ZM196.768 32.4545V47H194.751L187.357 36.3324H187.222V47H185.028V32.4545H187.059L194.46 43.1364H194.594V32.4545H196.768ZM199.252 34.3438V32.4545H210.509V34.3438H205.971V47H203.783V34.3438H199.252ZM215.191 32.4545V47H212.996V32.4545H215.191ZM230.127 32.4545V47H228.11L220.717 36.3324H220.582V47H218.387V32.4545H220.418L227.819 43.1364H227.954V32.4545H230.127ZM242.682 32.4545H244.884V42.0213C244.884 43.0393 244.645 43.9413 244.167 44.7273C243.688 45.5085 243.016 46.1241 242.15 46.5739C241.283 47.0189 240.267 47.2415 239.103 47.2415C237.943 47.2415 236.929 47.0189 236.063 46.5739C235.196 46.1241 234.524 45.5085 234.046 44.7273C233.568 43.9413 233.328 43.0393 233.328 42.0213V32.4545H235.523V41.8438C235.523 42.5019 235.667 43.0866 235.956 43.598C236.25 44.1094 236.664 44.5118 237.199 44.8054C237.734 45.0942 238.369 45.2386 239.103 45.2386C239.841 45.2386 240.478 45.0942 241.013 44.8054C241.553 44.5118 241.965 44.1094 242.249 43.598C242.538 43.0866 242.682 42.5019 242.682 41.8438V32.4545ZM248.075 47V32.4545H257.194V34.3438H250.269V38.7756H256.718V40.6577H250.269V45.1108H257.279V47H248.075ZM264.834 47H260.125V32.4545H264.983C266.408 32.4545 267.632 32.7457 268.655 33.3281C269.678 33.9058 270.462 34.7367 271.006 35.821C271.555 36.9006 271.83 38.1955 271.83 39.706C271.83 41.2211 271.553 42.5232 270.999 43.6122C270.45 44.7012 269.654 45.5393 268.613 46.1264C267.571 46.7088 266.311 47 264.834 47ZM262.32 45.0824H264.713C265.821 45.0824 266.742 44.8741 267.476 44.4574C268.21 44.036 268.759 43.4276 269.124 42.6321C269.489 41.8319 269.671 40.8565 269.671 39.706C269.671 38.5649 269.489 37.5966 269.124 36.8011C268.764 36.0057 268.227 35.402 267.512 34.9901C266.797 34.5781 265.909 34.3722 264.848 34.3722H262.32V45.0824ZM279.135 34.3438V32.4545H290.392V34.3438H285.853V47H283.666V34.3438H279.135ZM304.889 39.7273C304.889 41.2803 304.605 42.6155 304.037 43.733C303.469 44.8456 302.69 45.7027 301.7 46.304C300.715 46.9006 299.596 47.1989 298.341 47.1989C297.081 47.1989 295.957 46.9006 294.967 46.304C293.982 45.7027 293.206 44.8433 292.638 43.7259C292.07 42.6084 291.786 41.2756 291.786 39.7273C291.786 38.1742 292.07 36.8414 292.638 35.7287C293.206 34.6113 293.982 33.7543 294.967 33.1577C295.957 32.5563 297.081 32.2557 298.341 32.2557C299.596 32.2557 300.715 32.5563 301.7 33.1577C302.69 33.7543 303.469 34.6113 304.037 35.7287C304.605 36.8414 304.889 38.1742 304.889 39.7273ZM302.716 39.7273C302.716 38.5436 302.524 37.5469 302.141 36.7372C301.762 35.9228 301.241 35.3073 300.578 34.8906C299.92 34.4692 299.174 34.2585 298.341 34.2585C297.503 34.2585 296.755 34.4692 296.097 34.8906C295.438 35.3073 294.918 35.9228 294.534 36.7372C294.155 37.5469 293.966 38.5436 293.966 39.7273C293.966 40.911 294.155 41.91 294.534 42.7244C294.918 43.5341 295.438 44.1496 296.097 44.571C296.755 44.9877 297.503 45.196 298.341 45.196C299.174 45.196 299.92 44.9877 300.578 44.571C301.241 44.1496 301.762 43.5341 302.141 42.7244C302.524 41.91 302.716 40.911 302.716 39.7273ZM312.918 32.4545H315.582L320.212 43.7614H320.383L325.013 32.4545H327.677V47H325.589V36.4744H325.454L321.164 46.9787H319.431L315.141 36.4673H315.006V47H312.918V32.4545ZM332.096 47H329.767L335.001 32.4545H337.537L342.771 47H340.441L336.329 35.0966H336.216L332.096 47ZM332.487 41.304H340.044V43.1506H332.487V41.304ZM347.066 32.4545V47H344.871V32.4545H347.066ZM362.002 32.4545V47H359.985L352.592 36.3324H352.457V47H350.262V32.4545H352.293L359.694 43.1364H359.829V32.4545H362.002ZM364.486 34.3438V32.4545H375.743V34.3438H371.205V47H369.017V34.3438H364.486ZM377.741 47H375.411L380.646 32.4545H383.181L388.415 47H386.086L381.974 35.0966H381.86L377.741 47ZM378.131 41.304H385.688V43.1506H378.131V41.304ZM392.711 32.4545V47H390.516V32.4545H392.711ZM407.647 32.4545V47H405.63L398.236 36.3324H398.101V47H395.907V32.4545H397.938L405.338 43.1364H405.473V32.4545H407.647ZM428.776 39.7273C428.776 41.2803 428.492 42.6155 427.924 43.733C427.355 44.8456 426.577 45.7027 425.587 46.304C424.602 46.9006 423.482 47.1989 422.228 47.1989C420.968 47.1989 419.844 46.9006 418.854 46.304C417.869 45.7027 417.093 44.8433 416.525 43.7259C415.956 42.6084 415.672 41.2756 415.672 39.7273C415.672 38.1742 415.956 36.8414 416.525 35.7287C417.093 34.6113 417.869 33.7543 418.854 33.1577C419.844 32.5563 420.968 32.2557 422.228 32.2557C423.482 32.2557 424.602 32.5563 425.587 33.1577C426.577 33.7543 427.355 34.6113 427.924 35.7287C428.492 36.8414 428.776 38.1742 428.776 39.7273ZM426.603 39.7273C426.603 38.5436 426.411 37.5469 426.027 36.7372C425.649 35.9228 425.128 35.3073 424.465 34.8906C423.807 34.4692 423.061 34.2585 422.228 34.2585C421.39 34.2585 420.641 34.4692 419.983 34.8906C419.325 35.3073 418.804 35.9228 418.421 36.7372C418.042 37.5469 417.853 38.5436 417.853 39.7273C417.853 40.911 418.042 41.91 418.421 42.7244C418.804 43.5341 419.325 44.1496 419.983 44.571C420.641 44.9877 421.39 45.196 422.228 45.196C423.061 45.196 423.807 44.9877 424.465 44.571C425.128 44.1496 425.649 43.5341 426.027 42.7244C426.411 41.91 426.603 40.911 426.603 39.7273ZM440.866 32.4545H443.067V42.0213C443.067 43.0393 442.828 43.9413 442.35 44.7273C441.872 45.5085 441.2 46.1241 440.333 46.5739C439.467 47.0189 438.451 47.2415 437.286 47.2415C436.126 47.2415 435.113 47.0189 434.246 46.5739C433.38 46.1241 432.708 45.5085 432.229 44.7273C431.751 43.9413 431.512 43.0393 431.512 42.0213V32.4545H433.707V41.8438C433.707 42.5019 433.851 43.0866 434.14 43.598C434.433 44.1094 434.848 44.5118 435.383 44.8054C435.918 45.0942 436.552 45.2386 437.286 45.2386C438.025 45.2386 438.662 45.0942 439.197 44.8054C439.737 44.5118 440.148 44.1094 440.433 43.598C440.721 43.0866 440.866 42.5019 440.866 41.8438V32.4545ZM446.258 47V32.4545H451.443C452.57 32.4545 453.505 32.6487 454.248 33.0369C454.996 33.4252 455.555 33.9626 455.924 34.6491C456.294 35.331 456.478 36.1193 456.478 37.0142C456.478 37.9044 456.291 38.688 455.917 39.3651C455.548 40.0374 454.989 40.5606 454.241 40.9347C453.498 41.3087 452.563 41.4957 451.436 41.4957H447.508V39.6065H451.237C451.947 39.6065 452.525 39.5047 452.97 39.3011C453.42 39.0975 453.749 38.8016 453.957 38.4134C454.165 38.0251 454.27 37.5587 454.27 37.0142C454.27 36.465 454.163 35.9891 453.95 35.5866C453.742 35.1842 453.413 34.8764 452.963 34.6634C452.518 34.4455 451.933 34.3366 451.208 34.3366H448.453V47H446.258ZM453.439 40.4375L457.032 47H454.532L451.01 40.4375H453.439ZM464.442 32.4545H467.105L471.736 43.7614H471.906L476.537 32.4545H479.2V47H477.112V36.4744H476.977L472.688 46.9787H470.955L466.665 36.4673H466.53V47H464.442V32.4545ZM483.62 47H481.29L486.525 32.4545H489.06L494.294 47H491.965L487.853 35.0966H487.739L483.62 47ZM484.01 41.304H491.567V43.1506H484.01V41.304ZM496.395 47V32.4545H501.58C502.706 32.4545 503.642 32.6487 504.385 33.0369C505.133 33.4252 505.692 33.9626 506.061 34.6491C506.43 35.331 506.615 36.1193 506.615 37.0142C506.615 37.9044 506.428 38.688 506.054 39.3651C505.685 40.0374 505.126 40.5606 504.378 40.9347C503.634 41.3087 502.699 41.4957 501.572 41.4957H497.645V39.6065H501.374C502.084 39.6065 502.661 39.5047 503.107 39.3011C503.556 39.0975 503.885 38.8016 504.094 38.4134C504.302 38.0251 504.406 37.5587 504.406 37.0142C504.406 36.465 504.3 35.9891 504.087 35.5866C503.878 35.1842 503.549 34.8764 503.099 34.6634C502.654 34.4455 502.07 34.3366 501.345 34.3366H498.589V47H496.395ZM503.575 40.4375L507.169 47H504.669L501.146 40.4375H503.575ZM509.286 47V32.4545H511.48V39.4006H511.658L517.759 32.4545H520.521L514.655 39.0028L520.543 47H517.901L513.199 40.5014L511.48 42.4759V47H509.286ZM522.567 47V32.4545H531.686V34.3438H524.761V38.7756H531.21V40.6577H524.761V45.1108H531.771V47H522.567ZM533.9 34.3438V32.4545H545.157V34.3438H540.619V47H538.431V34.3438H533.9ZM552.938 47V32.4545H555.132V45.1108H561.723V47H552.938ZM564.227 47V32.4545H573.346V34.3438H566.422V38.7756H572.87V40.6577H566.422V45.1108H573.431V47H564.227ZM577.506 47H575.177L580.411 32.4545H582.947L588.181 47H585.852L581.739 35.0966H581.626L577.506 47ZM577.897 41.304H585.454V43.1506H577.897V41.304ZM594.99 47H590.282V32.4545H595.14C596.565 32.4545 597.789 32.7457 598.811 33.3281C599.834 33.9058 600.618 34.7367 601.162 35.821C601.712 36.9006 601.986 38.1955 601.986 39.706C601.986 41.2211 601.709 42.5232 601.155 43.6122C600.606 44.7012 599.81 45.5393 598.769 46.1264C597.727 46.7088 596.468 47 594.99 47ZM592.476 45.0824H594.87C595.978 45.0824 596.899 44.8741 597.632 44.4574C598.366 44.036 598.916 43.4276 599.28 42.6321C599.645 41.8319 599.827 40.8565 599.827 39.706C599.827 38.5649 599.645 37.5966 599.28 36.8011C598.92 36.0057 598.383 35.402 597.668 34.9901C596.953 34.5781 596.065 34.3722 595.005 34.3722H592.476V45.0824ZM606.91 32.4545V47H604.715V32.4545H606.91ZM621.846 32.4545V47H619.829L612.435 36.3324H612.3V47H610.106V32.4545H612.137L619.538 43.1364H619.673V32.4545H621.846ZM634.891 37.0497C634.754 36.6188 634.569 36.233 634.337 35.892C634.11 35.5464 633.837 35.2528 633.52 35.0114C633.203 34.7652 632.841 34.5781 632.434 34.4503C632.031 34.3224 631.588 34.2585 631.105 34.2585C630.286 34.2585 629.548 34.4692 628.89 34.8906C628.231 35.312 627.711 35.9299 627.327 36.7443C626.948 37.554 626.759 38.5459 626.759 39.7202C626.759 40.8991 626.951 41.8958 627.334 42.7102C627.718 43.5246 628.243 44.1425 628.911 44.5639C629.578 44.9853 630.338 45.196 631.191 45.196C631.981 45.196 632.67 45.035 633.257 44.7131C633.849 44.3911 634.306 43.9366 634.628 43.3494C634.955 42.7576 635.118 42.0616 635.118 41.2614L635.686 41.3679H631.525V39.5568H637.242V41.2116C637.242 42.4332 636.981 43.4938 636.461 44.3935C635.944 45.2884 635.23 45.9796 634.316 46.4673C633.407 46.955 632.365 47.1989 631.191 47.1989C629.874 47.1989 628.719 46.8958 627.725 46.2898C626.735 45.6837 625.963 44.8243 625.409 43.7116C624.855 42.5942 624.578 41.2685 624.578 39.7344C624.578 38.5743 624.739 37.5327 625.061 36.6094C625.383 35.6861 625.836 34.9025 626.418 34.2585C627.005 33.6098 627.694 33.1151 628.485 32.7741C629.28 32.4285 630.149 32.2557 631.091 32.2557C631.877 32.2557 632.609 32.3717 633.286 32.6037C633.968 32.8357 634.574 33.1648 635.104 33.5909C635.639 34.017 636.082 34.5237 636.432 35.1108C636.783 35.6932 637.019 36.3395 637.142 37.0497H634.891ZM645.321 47V32.4545H650.505C651.637 32.4545 652.574 32.6605 653.318 33.0724C654.061 33.4844 654.618 34.0478 654.987 34.7628C655.356 35.473 655.541 36.2732 655.541 37.1634C655.541 38.0582 655.354 38.8632 654.98 39.5781C654.61 40.2884 654.052 40.8518 653.304 41.2685C652.56 41.6804 651.625 41.8864 650.498 41.8864H646.933V40.0256H650.299C651.014 40.0256 651.594 39.9025 652.039 39.6562C652.484 39.4053 652.811 39.0644 653.02 38.6335C653.228 38.2027 653.332 37.7126 653.332 37.1634C653.332 36.6141 653.228 36.1264 653.02 35.7003C652.811 35.2741 652.482 34.9403 652.032 34.6989C651.587 34.4574 651 34.3366 650.271 34.3366H647.515V47H645.321ZM670.749 39.7273C670.749 41.2803 670.464 42.6155 669.896 43.733C669.328 44.8456 668.549 45.7027 667.56 46.304C666.575 46.9006 665.455 47.1989 664.2 47.1989C662.941 47.1989 661.816 46.9006 660.827 46.304C659.842 45.7027 659.065 44.8433 658.497 43.7259C657.929 42.6084 657.645 41.2756 657.645 39.7273C657.645 38.1742 657.929 36.8414 658.497 35.7287C659.065 34.6113 659.842 33.7543 660.827 33.1577C661.816 32.5563 662.941 32.2557 664.2 32.2557C665.455 32.2557 666.575 32.5563 667.56 33.1577C668.549 33.7543 669.328 34.6113 669.896 35.7287C670.464 36.8414 670.749 38.1742 670.749 39.7273ZM668.575 39.7273C668.575 38.5436 668.384 37.5469 668 36.7372C667.621 35.9228 667.1 35.3073 666.438 34.8906C665.779 34.4692 665.034 34.2585 664.2 34.2585C663.362 34.2585 662.614 34.4692 661.956 34.8906C661.298 35.3073 660.777 35.9228 660.393 36.7372C660.015 37.5469 659.825 38.5436 659.825 39.7273C659.825 40.911 660.015 41.91 660.393 42.7244C660.777 43.5341 661.298 44.1496 661.956 44.571C662.614 44.9877 663.362 45.196 664.2 45.196C665.034 45.196 665.779 44.9877 666.438 44.571C667.1 44.1496 667.621 43.5341 668 42.7244C668.384 41.91 668.575 40.911 668.575 39.7273ZM681.418 36.2756C681.342 35.6032 681.03 35.0824 680.48 34.7131C679.931 34.339 679.24 34.152 678.407 34.152C677.81 34.152 677.294 34.2467 676.858 34.4361C676.423 34.6207 676.084 34.8764 675.843 35.2031C675.606 35.5251 675.488 35.892 675.488 36.304C675.488 36.6496 675.568 36.9479 675.729 37.1989C675.895 37.4498 676.11 37.6605 676.375 37.831C676.645 37.9967 676.934 38.1364 677.242 38.25C677.55 38.3589 677.846 38.4489 678.13 38.5199L679.55 38.8892C680.014 39.0028 680.49 39.1567 680.978 39.3509C681.465 39.545 681.917 39.8007 682.334 40.1179C682.751 40.4351 683.087 40.8281 683.343 41.2969C683.603 41.7656 683.733 42.3267 683.733 42.9801C683.733 43.804 683.52 44.5355 683.094 45.1747C682.673 45.8139 682.06 46.3182 681.255 46.6875C680.454 47.0568 679.486 47.2415 678.35 47.2415C677.261 47.2415 676.319 47.0687 675.523 46.723C674.728 46.3774 674.105 45.8873 673.655 45.2528C673.205 44.6136 672.957 43.8561 672.909 42.9801H675.111C675.154 43.5057 675.324 43.9437 675.623 44.294C675.926 44.6397 676.311 44.8977 676.78 45.0682C677.254 45.2339 677.772 45.3168 678.336 45.3168C678.956 45.3168 679.507 45.2197 679.99 45.0256C680.478 44.8267 680.862 44.5521 681.141 44.2017C681.42 43.8466 681.56 43.4323 681.56 42.9588C681.56 42.5279 681.437 42.1752 681.191 41.9006C680.949 41.6259 680.62 41.3987 680.203 41.2188C679.792 41.0388 679.325 40.8802 678.804 40.7429L677.086 40.2741C675.921 39.9569 674.998 39.4905 674.316 38.875C673.639 38.2595 673.3 37.4451 673.3 36.4318C673.3 35.5937 673.527 34.8622 673.982 34.2372C674.436 33.6122 675.052 33.1269 675.828 32.7812C676.605 32.4309 677.481 32.2557 678.456 32.2557C679.441 32.2557 680.31 32.4285 681.063 32.7741C681.82 33.1198 682.417 33.5956 682.853 34.2017C683.288 34.803 683.516 35.4943 683.534 36.2756H681.418ZM688.55 32.4545V47H686.356V32.4545H688.55ZM691.029 34.3438V32.4545H702.286V34.3438H697.748V47H695.56V34.3438H691.029ZM706.968 32.4545V47H704.774V32.4545H706.968ZM722.799 39.7273C722.799 41.2803 722.515 42.6155 721.947 43.733C721.379 44.8456 720.6 45.7027 719.61 46.304C718.626 46.9006 717.506 47.1989 716.251 47.1989C714.992 47.1989 713.867 46.9006 712.877 46.304C711.893 45.7027 711.116 44.8433 710.548 43.7259C709.98 42.6084 709.696 41.2756 709.696 39.7273C709.696 38.1742 709.98 36.8414 710.548 35.7287C711.116 34.6113 711.893 33.7543 712.877 33.1577C713.867 32.5563 714.992 32.2557 716.251 32.2557C717.506 32.2557 718.626 32.5563 719.61 33.1577C720.6 33.7543 721.379 34.6113 721.947 35.7287C722.515 36.8414 722.799 38.1742 722.799 39.7273ZM720.626 39.7273C720.626 38.5436 720.434 37.5469 720.051 36.7372C719.672 35.9228 719.151 35.3073 718.488 34.8906C717.83 34.4692 717.084 34.2585 716.251 34.2585C715.413 34.2585 714.665 34.4692 714.007 34.8906C713.349 35.3073 712.828 35.9228 712.444 36.7372C712.065 37.5469 711.876 38.5436 711.876 39.7273C711.876 40.911 712.065 41.91 712.444 42.7244C712.828 43.5341 713.349 44.1496 714.007 44.571C714.665 44.9877 715.413 45.196 716.251 45.196C717.084 45.196 717.83 44.9877 718.488 44.571C719.151 44.1496 719.672 43.5341 720.051 42.7244C720.434 41.91 720.626 40.911 720.626 39.7273ZM737.276 32.4545V47H735.259L727.865 36.3324H727.73V47H725.536V32.4545H727.567L734.967 43.1364H735.102V32.4545H737.276ZM746.999 47H744.669L749.903 32.4545H752.439L757.673 47H755.344L751.232 35.0966H751.118L746.999 47ZM747.389 41.304H754.946V43.1506H747.389V41.304ZM767.59 36.2756C767.514 35.6032 767.202 35.0824 766.652 34.7131C766.103 34.339 765.412 34.152 764.578 34.152C763.982 34.152 763.466 34.2467 763.03 34.4361C762.595 34.6207 762.256 34.8764 762.015 35.2031C761.778 35.5251 761.659 35.892 761.659 36.304C761.659 36.6496 761.74 36.9479 761.901 37.1989C762.067 37.4498 762.282 37.6605 762.547 37.831C762.817 37.9967 763.106 38.1364 763.414 38.25C763.721 38.3589 764.017 38.4489 764.301 38.5199L765.722 38.8892C766.186 39.0028 766.662 39.1567 767.15 39.3509C767.637 39.545 768.089 39.8007 768.506 40.1179C768.923 40.4351 769.259 40.8281 769.515 41.2969C769.775 41.7656 769.905 42.3267 769.905 42.9801C769.905 43.804 769.692 44.5355 769.266 45.1747C768.845 45.8139 768.231 46.3182 767.426 46.6875C766.626 47.0568 765.658 47.2415 764.522 47.2415C763.433 47.2415 762.49 47.0687 761.695 46.723C760.9 46.3774 760.277 45.8873 759.827 45.2528C759.377 44.6136 759.129 43.8561 759.081 42.9801H761.283C761.326 43.5057 761.496 43.9437 761.794 44.294C762.097 44.6397 762.483 44.8977 762.952 45.0682C763.426 45.2339 763.944 45.3168 764.507 45.3168C765.128 45.3168 765.679 45.2197 766.162 45.0256C766.65 44.8267 767.033 44.5521 767.313 44.2017C767.592 43.8466 767.732 43.4323 767.732 42.9588C767.732 42.5279 767.609 42.1752 767.363 41.9006C767.121 41.6259 766.792 41.3987 766.375 41.2188C765.963 41.0388 765.497 40.8802 764.976 40.7429L763.257 40.2741C762.093 39.9569 761.169 39.4905 760.488 38.875C759.81 38.2595 759.472 37.4451 759.472 36.4318C759.472 35.5937 759.699 34.8622 760.154 34.2372C760.608 33.6122 761.224 33.1269 762 32.7812C762.777 32.4309 763.653 32.2557 764.628 32.2557C765.613 32.2557 766.482 32.4285 767.235 32.7741C767.992 33.1198 768.589 33.5956 769.025 34.2017C769.46 34.803 769.687 35.4943 769.706 36.2756H767.59ZM779.049 47H776.72L781.954 32.4545H784.49L789.724 47H787.395L783.282 35.0966H783.169L779.049 47ZM779.44 41.304H786.997V43.1506H779.44V41.304ZM797.118 32.4545H799.781L804.412 43.7614H804.582L809.213 32.4545H811.876V47H809.788V36.4744H809.653L805.363 46.9787H803.63L799.341 36.4673H799.206V47H797.118V32.4545ZM816.295 47H813.966L819.2 32.4545H821.736L826.97 47H824.641L820.528 35.0966H820.415L816.295 47ZM816.686 41.304H824.243V43.1506H816.686V41.304ZM840.811 32.4545V47H838.794L831.4 36.3324H831.265V47H829.071V32.4545H831.102L838.502 43.1364H838.637V32.4545H840.811ZM853.366 32.4545H855.567V42.0213C855.567 43.0393 855.328 43.9413 854.85 44.7273C854.372 45.5085 853.7 46.1241 852.833 46.5739C851.967 47.0189 850.951 47.2415 849.786 47.2415C848.626 47.2415 847.613 47.0189 846.746 46.5739C845.88 46.1241 845.208 45.5085 844.729 44.7273C844.251 43.9413 844.012 43.0393 844.012 42.0213V32.4545H846.207V41.8438C846.207 42.5019 846.351 43.0866 846.64 43.598C846.933 44.1094 847.348 44.5118 847.883 44.8054C848.418 45.0942 849.052 45.2386 849.786 45.2386C850.525 45.2386 851.162 45.0942 851.697 44.8054C852.237 44.5118 852.648 44.1094 852.933 43.598C853.221 43.0866 853.366 42.5019 853.366 41.8438V32.4545ZM858.758 47V32.4545H867.778V34.3438H860.953V38.7756H867.132V40.6577H860.953V47H858.758ZM869.889 47H867.56L872.794 32.4545H875.33L880.564 47H878.234L874.122 35.0966H874.009L869.889 47ZM870.28 41.304H877.837V43.1506H870.28V41.304ZM894.062 37.1847H891.846C891.761 36.7112 891.602 36.2945 891.37 35.9347C891.138 35.5748 890.854 35.2694 890.518 35.0185C890.182 34.7675 889.805 34.5781 889.388 34.4503C888.977 34.3224 888.539 34.2585 888.075 34.2585C887.237 34.2585 886.486 34.4692 885.823 34.8906C885.165 35.312 884.644 35.9299 884.261 36.7443C883.882 37.5587 883.692 38.553 883.692 39.7273C883.692 40.911 883.882 41.91 884.261 42.7244C884.644 43.5388 885.167 44.1544 885.83 44.571C886.493 44.9877 887.239 45.196 888.067 45.196C888.527 45.196 888.962 45.1345 889.374 45.0114C889.791 44.8835 890.167 44.6965 890.504 44.4503C890.84 44.2041 891.124 43.9034 891.356 43.5483C891.593 43.1884 891.756 42.7765 891.846 42.3125L894.062 42.3196C893.943 43.0346 893.714 43.6927 893.373 44.294C893.037 44.8906 892.603 45.4067 892.073 45.8423C891.548 46.2732 890.946 46.607 890.269 46.8438C889.592 47.0805 888.853 47.1989 888.053 47.1989C886.794 47.1989 885.672 46.9006 884.687 46.304C883.702 45.7027 882.925 44.8433 882.357 43.7259C881.794 42.6084 881.512 41.2756 881.512 39.7273C881.512 38.1742 881.796 36.8414 882.364 35.7287C882.933 34.6113 883.709 33.7543 884.694 33.1577C885.679 32.5563 886.799 32.2557 888.053 32.2557C888.825 32.2557 889.545 32.367 890.212 32.5895C890.885 32.8073 891.488 33.1293 892.023 33.5554C892.558 33.9768 893.001 34.4929 893.352 35.1037C893.702 35.7098 893.939 36.4034 894.062 37.1847ZM895.971 34.3438V32.4545H907.228V34.3438H902.689V47H900.502V34.3438H895.971ZM919.069 32.4545H921.271V42.0213C921.271 43.0393 921.031 43.9413 920.553 44.7273C920.075 45.5085 919.403 46.1241 918.536 46.5739C917.67 47.0189 916.654 47.2415 915.489 47.2415C914.329 47.2415 913.316 47.0189 912.45 46.5739C911.583 46.1241 910.911 45.5085 910.433 44.7273C909.954 43.9413 909.715 43.0393 909.715 42.0213V32.4545H911.91V41.8438C911.91 42.5019 912.054 43.0866 912.343 43.598C912.637 44.1094 913.051 44.5118 913.586 44.8054C914.121 45.0942 914.755 45.2386 915.489 45.2386C916.228 45.2386 916.865 45.0942 917.4 44.8054C917.94 44.5118 918.352 44.1094 918.636 43.598C918.924 43.0866 919.069 42.5019 919.069 41.8438V32.4545ZM924.461 47V32.4545H929.646C930.773 32.4545 931.708 32.6487 932.451 33.0369C933.199 33.4252 933.758 33.9626 934.127 34.6491C934.497 35.331 934.681 36.1193 934.681 37.0142C934.681 37.9044 934.494 38.688 934.12 39.3651C933.751 40.0374 933.192 40.5606 932.444 40.9347C931.701 41.3087 930.766 41.4957 929.639 41.4957H925.711V39.6065H929.44C930.15 39.6065 930.728 39.5047 931.173 39.3011C931.623 39.0975 931.952 38.8016 932.16 38.4134C932.368 38.0251 932.473 37.5587 932.473 37.0142C932.473 36.465 932.366 35.9891 932.153 35.5866C931.945 35.1842 931.616 34.8764 931.166 34.6634C930.721 34.4455 930.136 34.3366 929.412 34.3366H926.656V47H924.461ZM931.642 40.4375L935.235 47H932.735L929.213 40.4375H931.642ZM937.352 47V32.4545H946.471V34.3438H939.547V38.7756H945.995V40.6577H939.547V45.1108H946.556V47H937.352ZM949.403 47V32.4545H954.587C955.714 32.4545 956.649 32.6487 957.393 33.0369C958.141 33.4252 958.7 33.9626 959.069 34.6491C959.438 35.331 959.623 36.1193 959.623 37.0142C959.623 37.9044 959.436 38.688 959.062 39.3651C958.692 40.0374 958.134 40.5606 957.386 40.9347C956.642 41.3087 955.707 41.4957 954.58 41.4957H950.653V39.6065H954.381C955.092 39.6065 955.669 39.5047 956.114 39.3011C956.564 39.0975 956.893 38.8016 957.102 38.4134C957.31 38.0251 957.414 37.5587 957.414 37.0142C957.414 36.465 957.308 35.9891 957.094 35.5866C956.886 35.1842 956.557 34.8764 956.107 34.6634C955.662 34.4455 955.077 34.3366 954.353 34.3366H951.597V47H949.403ZM956.583 40.4375L960.177 47H957.677L954.154 40.4375H956.583ZM968.815 47H966.485L971.72 32.4545H974.255L979.49 47H977.16L973.048 35.0966H972.934L968.815 47ZM969.206 41.304H976.762V43.1506H969.206V41.304ZM993.33 32.4545V47H991.313L983.92 36.3324H983.785V47H981.59V32.4545H983.621L991.022 43.1364H991.157V32.4545H993.33ZM1001.24 47H996.532V32.4545H1001.39C1002.81 32.4545 1004.04 32.7457 1005.06 33.3281C1006.08 33.9058 1006.87 34.7367 1007.41 35.821C1007.96 36.9006 1008.24 38.1955 1008.24 39.706C1008.24 41.2211 1007.96 42.5232 1007.41 43.6122C1006.86 44.7012 1006.06 45.5393 1005.02 46.1264C1003.98 46.7088 1002.72 47 1001.24 47ZM998.726 45.0824H1001.12C1002.23 45.0824 1003.15 44.8741 1003.88 44.4574C1004.62 44.036 1005.17 43.4276 1005.53 42.6321C1005.89 41.8319 1006.08 40.8565 1006.08 39.706C1006.08 38.5649 1005.89 37.5966 1005.53 36.8011C1005.17 36.0057 1004.63 35.402 1003.92 34.9901C1003.2 34.5781 1002.32 34.3722 1001.25 34.3722H998.726V45.0824ZM1020.97 47H1016.26V32.4545H1021.12C1022.54 32.4545 1023.77 32.7457 1024.79 33.3281C1025.81 33.9058 1026.59 34.7367 1027.14 35.821C1027.69 36.9006 1027.96 38.1955 1027.96 39.706C1027.96 41.2211 1027.69 42.5232 1027.13 43.6122C1026.58 44.7012 1025.79 45.5393 1024.75 46.1264C1023.7 46.7088 1022.44 47 1020.97 47ZM1018.45 45.0824H1020.85C1021.95 45.0824 1022.88 44.8741 1023.61 44.4574C1024.34 44.036 1024.89 43.4276 1025.26 42.6321C1025.62 41.8319 1025.8 40.8565 1025.8 39.706C1025.8 38.5649 1025.62 37.5966 1025.26 36.8011C1024.9 36.0057 1024.36 35.402 1023.64 34.9901C1022.93 34.5781 1022.04 34.3722 1020.98 34.3722H1018.45V45.0824ZM1032.89 32.4545V47H1030.69V32.4545H1032.89ZM1044.02 36.2756C1043.94 35.6032 1043.63 35.0824 1043.08 34.7131C1042.53 34.339 1041.84 34.152 1041 34.152C1040.41 34.152 1039.89 34.2467 1039.46 34.4361C1039.02 34.6207 1038.68 34.8764 1038.44 35.2031C1038.2 35.5251 1038.09 35.892 1038.09 36.304C1038.09 36.6496 1038.17 36.9479 1038.33 37.1989C1038.49 37.4498 1038.71 37.6605 1038.97 37.831C1039.24 37.9967 1039.53 38.1364 1039.84 38.25C1040.15 38.3589 1040.44 38.4489 1040.73 38.5199L1042.15 38.8892C1042.61 39.0028 1043.09 39.1567 1043.58 39.3509C1044.06 39.545 1044.52 39.8007 1044.93 40.1179C1045.35 40.4351 1045.68 40.8281 1045.94 41.2969C1046.2 41.7656 1046.33 42.3267 1046.33 42.9801C1046.33 43.804 1046.12 44.5355 1045.69 45.1747C1045.27 45.8139 1044.66 46.3182 1043.85 46.6875C1043.05 47.0568 1042.08 47.2415 1040.95 47.2415C1039.86 47.2415 1038.92 47.0687 1038.12 46.723C1037.33 46.3774 1036.7 45.8873 1036.25 45.2528C1035.8 44.6136 1035.55 43.8561 1035.51 42.9801H1037.71C1037.75 43.5057 1037.92 43.9437 1038.22 44.294C1038.52 44.6397 1038.91 44.8977 1039.38 45.0682C1039.85 45.2339 1040.37 45.3168 1040.93 45.3168C1041.55 45.3168 1042.11 45.2197 1042.59 45.0256C1043.08 44.8267 1043.46 44.5521 1043.74 44.2017C1044.02 43.8466 1044.16 43.4323 1044.16 42.9588C1044.16 42.5279 1044.03 42.1752 1043.79 41.9006C1043.55 41.6259 1043.22 41.3987 1042.8 41.2188C1042.39 41.0388 1041.92 40.8802 1041.4 40.7429L1039.68 40.2741C1038.52 39.9569 1037.6 39.4905 1036.91 38.875C1036.24 38.2595 1035.9 37.4451 1035.9 36.4318C1035.9 35.5937 1036.13 34.8622 1036.58 34.2372C1037.03 33.6122 1037.65 33.1269 1038.43 32.7812C1039.2 32.4309 1040.08 32.2557 1041.05 32.2557C1042.04 32.2557 1042.91 32.4285 1043.66 32.7741C1044.42 33.1198 1045.01 33.5956 1045.45 34.2017C1045.89 34.803 1046.11 35.4943 1046.13 36.2756H1044.02ZM1048.24 34.3438V32.4545H1059.49V34.3438H1054.95V47H1052.77V34.3438H1048.24ZM1061.98 47V32.4545H1067.17C1068.29 32.4545 1069.23 32.6487 1069.97 33.0369C1070.72 33.4252 1071.28 33.9626 1071.65 34.6491C1072.02 35.331 1072.2 36.1193 1072.2 37.0142C1072.2 37.9044 1072.01 38.688 1071.64 39.3651C1071.27 40.0374 1070.71 40.5606 1069.96 40.9347C1069.22 41.3087 1068.29 41.4957 1067.16 41.4957H1063.23V39.6065H1066.96C1067.67 39.6065 1068.25 39.5047 1068.69 39.3011C1069.14 39.0975 1069.47 38.8016 1069.68 38.4134C1069.89 38.0251 1069.99 37.5587 1069.99 37.0142C1069.99 36.465 1069.89 35.9891 1069.67 35.5866C1069.46 35.1842 1069.14 34.8764 1068.69 34.6634C1068.24 34.4455 1067.66 34.3366 1066.93 34.3366H1064.18V47H1061.98ZM1069.16 40.4375L1072.75 47H1070.25L1066.73 40.4375H1069.16ZM1077.07 32.4545V47H1074.87V32.4545H1077.07ZM1080.26 47V32.4545H1085.59C1086.62 32.4545 1087.48 32.625 1088.15 32.9659C1088.83 33.3021 1089.34 33.759 1089.67 34.3366C1090.01 34.9096 1090.18 35.5559 1090.18 36.2756C1090.18 36.8816 1090.07 37.393 1089.84 37.8097C1089.62 38.2216 1089.32 38.553 1088.95 38.804C1088.58 39.0502 1088.17 39.2301 1087.73 39.3438V39.4858C1088.21 39.5095 1088.68 39.6657 1089.14 39.9545C1089.6 40.2386 1089.99 40.6435 1090.29 41.169C1090.59 41.6946 1090.75 42.3338 1090.75 43.0866C1090.75 43.83 1090.57 44.4976 1090.22 45.0895C1089.87 45.6766 1089.34 46.143 1088.61 46.4886C1087.89 46.8295 1086.96 47 1085.84 47H1080.26ZM1082.46 45.1179H1085.62C1086.68 45.1179 1087.43 44.9143 1087.88 44.5071C1088.34 44.0999 1088.56 43.5909 1088.56 42.9801C1088.56 42.5208 1088.45 42.0994 1088.22 41.7159C1087.98 41.3324 1087.65 41.027 1087.22 40.7997C1086.8 40.5724 1086.29 40.4588 1085.7 40.4588H1082.46V45.1179ZM1082.46 38.7472H1085.4C1085.89 38.7472 1086.33 38.6525 1086.73 38.4631C1087.12 38.2737 1087.44 38.0085 1087.67 37.6676C1087.91 37.322 1088.02 36.9148 1088.02 36.446C1088.02 35.8447 1087.81 35.3404 1087.39 34.9332C1086.97 34.526 1086.33 34.3224 1085.45 34.3224H1082.46V38.7472ZM1102.7 32.4545H1104.9V42.0213C1104.9 43.0393 1104.66 43.9413 1104.19 44.7273C1103.71 45.5085 1103.04 46.1241 1102.17 46.5739C1101.3 47.0189 1100.29 47.2415 1099.12 47.2415C1097.96 47.2415 1096.95 47.0189 1096.08 46.5739C1095.22 46.1241 1094.54 45.5085 1094.07 44.7273C1093.59 43.9413 1093.35 43.0393 1093.35 42.0213V32.4545H1095.54V41.8438C1095.54 42.5019 1095.69 43.0866 1095.98 43.598C1096.27 44.1094 1096.68 44.5118 1097.22 44.8054C1097.75 45.0942 1098.39 45.2386 1099.12 45.2386C1099.86 45.2386 1100.5 45.0942 1101.03 44.8054C1101.57 44.5118 1101.98 44.1094 1102.27 43.598C1102.56 43.0866 1102.7 42.5019 1102.7 41.8438V32.4545ZM1107.38 34.3438V32.4545H1118.63V34.3438H1114.1V47H1111.91V34.3438H1107.38ZM1133.13 39.7273C1133.13 41.2803 1132.85 42.6155 1132.28 43.733C1131.71 44.8456 1130.93 45.7027 1129.94 46.304C1128.96 46.9006 1127.84 47.1989 1126.58 47.1989C1125.32 47.1989 1124.2 46.9006 1123.21 46.304C1122.22 45.7027 1121.45 44.8433 1120.88 43.7259C1120.31 42.6084 1120.03 41.2756 1120.03 39.7273C1120.03 38.1742 1120.31 36.8414 1120.88 35.7287C1121.45 34.6113 1122.22 33.7543 1123.21 33.1577C1124.2 32.5563 1125.32 32.2557 1126.58 32.2557C1127.84 32.2557 1128.96 32.5563 1129.94 33.1577C1130.93 33.7543 1131.71 34.6113 1132.28 35.7287C1132.85 36.8414 1133.13 38.1742 1133.13 39.7273ZM1130.96 39.7273C1130.96 38.5436 1130.77 37.5469 1130.38 36.7372C1130 35.9228 1129.48 35.3073 1128.82 34.8906C1128.16 34.4692 1127.42 34.2585 1126.58 34.2585C1125.75 34.2585 1125 34.4692 1124.34 34.8906C1123.68 35.3073 1123.16 35.9228 1122.78 36.7372C1122.4 37.5469 1122.21 38.5436 1122.21 39.7273C1122.21 40.911 1122.4 41.91 1122.78 42.7244C1123.16 43.5341 1123.68 44.1496 1124.34 44.571C1125 44.9877 1125.75 45.196 1126.58 45.196C1127.42 45.196 1128.16 44.9877 1128.82 44.571C1129.48 44.1496 1130 43.5341 1130.38 42.7244C1130.77 41.91 1130.96 40.911 1130.96 39.7273ZM1135.87 47V32.4545H1141.05C1142.18 32.4545 1143.11 32.6487 1143.86 33.0369C1144.61 33.4252 1145.16 33.9626 1145.53 34.6491C1145.9 35.331 1146.09 36.1193 1146.09 37.0142C1146.09 37.9044 1145.9 38.688 1145.53 39.3651C1145.16 40.0374 1144.6 40.5606 1143.85 40.9347C1143.11 41.3087 1142.17 41.4957 1141.05 41.4957H1137.12V39.6065H1140.85C1141.56 39.6065 1142.13 39.5047 1142.58 39.3011C1143.03 39.0975 1143.36 38.8016 1143.57 38.4134C1143.77 38.0251 1143.88 37.5587 1143.88 37.0142C1143.88 36.465 1143.77 35.9891 1143.56 35.5866C1143.35 35.1842 1143.02 34.8764 1142.57 34.6634C1142.13 34.4455 1141.54 34.3366 1140.82 34.3366H1138.06V47H1135.87ZM1143.05 40.4375L1146.64 47H1144.14L1140.62 40.4375H1143.05ZM1166.69 39.7273C1166.69 41.2803 1166.4 42.6155 1165.83 43.733C1165.27 44.8456 1164.49 45.7027 1163.5 46.304C1162.51 46.9006 1161.39 47.1989 1160.14 47.1989C1158.88 47.1989 1157.75 46.9006 1156.76 46.304C1155.78 45.7027 1155 44.8433 1154.43 43.7259C1153.87 42.6084 1153.58 41.2756 1153.58 39.7273C1153.58 38.1742 1153.87 36.8414 1154.43 35.7287C1155 34.6113 1155.78 33.7543 1156.76 33.1577C1157.75 32.5563 1158.88 32.2557 1160.14 32.2557C1161.39 32.2557 1162.51 32.5563 1163.5 33.1577C1164.49 33.7543 1165.27 34.6113 1165.83 35.7287C1166.4 36.8414 1166.69 38.1742 1166.69 39.7273ZM1164.51 39.7273C1164.51 38.5436 1164.32 37.5469 1163.94 36.7372C1163.56 35.9228 1163.04 35.3073 1162.38 34.8906C1161.72 34.4692 1160.97 34.2585 1160.14 34.2585C1159.3 34.2585 1158.55 34.4692 1157.89 34.8906C1157.24 35.3073 1156.71 35.9228 1156.33 36.7372C1155.95 37.5469 1155.76 38.5436 1155.76 39.7273C1155.76 40.911 1155.95 41.91 1156.33 42.7244C1156.71 43.5341 1157.24 44.1496 1157.89 44.571C1158.55 44.9877 1159.3 45.196 1160.14 45.196C1160.97 45.196 1161.72 44.9877 1162.38 44.571C1163.04 44.1496 1163.56 43.5341 1163.94 42.7244C1164.32 41.91 1164.51 40.911 1164.51 39.7273ZM1169.42 47V32.4545H1178.44V34.3438H1171.62V38.7756H1177.8V40.6577H1171.62V47H1169.42ZM180.301 79V64.4545H182.496V70.7756H189.747V64.4545H191.949V79H189.747V72.6577H182.496V79H180.301ZM197.339 64.4545V79H195.145V64.4545H197.339ZM210.379 69.0497C210.242 68.6188 210.057 68.233 209.825 67.892C209.598 67.5464 209.326 67.2528 209.009 67.0114C208.691 66.7652 208.329 66.5781 207.922 66.4503C207.519 66.3224 207.077 66.2585 206.594 66.2585C205.775 66.2585 205.036 66.4692 204.378 66.8906C203.72 67.312 203.199 67.9299 202.815 68.7443C202.437 69.554 202.247 70.5459 202.247 71.7202C202.247 72.8991 202.439 73.8958 202.822 74.7102C203.206 75.5246 203.732 76.1425 204.399 76.5639C205.067 76.9853 205.827 77.196 206.679 77.196C207.47 77.196 208.159 77.035 208.746 76.7131C209.338 76.3911 209.795 75.9366 210.116 75.3494C210.443 74.7576 210.607 74.0616 210.607 73.2614L211.175 73.3679H207.013V71.5568H212.73V73.2116C212.73 74.4332 212.47 75.4938 211.949 76.3935C211.433 77.2884 210.718 77.9796 209.804 78.4673C208.895 78.955 207.853 79.1989 206.679 79.1989C205.363 79.1989 204.207 78.8958 203.213 78.2898C202.223 77.6837 201.452 76.8243 200.898 75.7116C200.344 74.5942 200.067 73.2685 200.067 71.7344C200.067 70.5743 200.228 69.5327 200.55 68.6094C200.872 67.6861 201.324 66.9025 201.906 66.2585C202.493 65.6098 203.182 65.1151 203.973 64.7741C204.768 64.4285 205.637 64.2557 206.58 64.2557C207.366 64.2557 208.097 64.3717 208.774 64.6037C209.456 64.8357 210.062 65.1648 210.592 65.5909C211.127 66.017 211.57 66.5237 211.92 67.1108C212.271 67.6932 212.508 68.3395 212.631 69.0497H210.379ZM215.516 79V64.4545H217.711V70.7756H224.962V64.4545H227.164V79H224.962V72.6577H217.711V79H215.516ZM241.001 74.2841H243.16L244.68 76.2656L245.397 77.1463L247.819 80.3068H245.575L243.955 78.1974L243.401 77.4304L241.001 74.2841ZM248.288 71.7273C248.288 73.2803 248.004 74.6155 247.435 75.733C246.867 76.8456 246.088 77.7027 245.099 78.304C244.114 78.9006 242.994 79.1989 241.739 79.1989C240.48 79.1989 239.355 78.9006 238.366 78.304C237.381 77.7027 236.604 76.8433 236.036 75.7259C235.468 74.6084 235.184 73.2756 235.184 71.7273C235.184 70.1742 235.468 68.8414 236.036 67.7287C236.604 66.6113 237.381 65.7543 238.366 65.1577C239.355 64.5563 240.48 64.2557 241.739 64.2557C242.994 64.2557 244.114 64.5563 245.099 65.1577C246.088 65.7543 246.867 66.6113 247.435 67.7287C248.004 68.8414 248.288 70.1742 248.288 71.7273ZM246.114 71.7273C246.114 70.5436 245.923 69.5469 245.539 68.7372C245.16 67.9228 244.639 67.3073 243.977 66.8906C243.318 66.4692 242.573 66.2585 241.739 66.2585C240.901 66.2585 240.153 66.4692 239.495 66.8906C238.837 67.3073 238.316 67.9228 237.933 68.7372C237.554 69.5469 237.364 70.5436 237.364 71.7273C237.364 72.911 237.554 73.91 237.933 74.7244C238.316 75.5341 238.837 76.1496 239.495 76.571C240.153 76.9877 240.901 77.196 241.739 77.196C242.573 77.196 243.318 76.9877 243.977 76.571C244.639 76.1496 245.16 75.5341 245.539 74.7244C245.923 73.91 246.114 72.911 246.114 71.7273ZM260.377 64.4545H262.579V74.0213C262.579 75.0393 262.34 75.9413 261.862 76.7273C261.384 77.5085 260.711 78.1241 259.845 78.5739C258.978 79.0189 257.963 79.2415 256.798 79.2415C255.638 79.2415 254.625 79.0189 253.758 78.5739C252.892 78.1241 252.219 77.5085 251.741 76.7273C251.263 75.9413 251.024 75.0393 251.024 74.0213V64.4545H253.218V73.8438C253.218 74.5019 253.363 75.0866 253.652 75.598C253.945 76.1094 254.359 76.5118 254.895 76.8054C255.43 77.0942 256.064 77.2386 256.798 77.2386C257.537 77.2386 258.173 77.0942 258.708 76.8054C259.248 76.5118 259.66 76.1094 259.944 75.598C260.233 75.0866 260.377 74.5019 260.377 73.8438V64.4545ZM266.999 79H264.669L269.903 64.4545H272.439L277.673 79H275.344L271.232 67.0966H271.118L266.999 79ZM267.389 73.304H274.946V75.1506H267.389V73.304ZM279.774 79V64.4545H281.968V77.1108H288.559V79H279.774ZM293.257 64.4545V79H291.063V64.4545H293.257ZM295.736 66.3438V64.4545H306.993V66.3438H302.455V79H300.267V66.3438H295.736ZM308.359 64.4545H310.852L314.651 71.0668H314.808L318.607 64.4545H321.1L315.823 73.2898V79H313.636V73.2898L308.359 64.4545ZM329.694 79H327.364L332.599 64.4545H335.134L340.369 79H338.039L333.927 67.0966H333.813L329.694 79ZM330.085 73.304H337.641V75.1506H330.085V73.304ZM354.209 64.4545V79H352.192L344.799 68.3324H344.664V79H342.469V64.4545H344.5L351.901 75.1364H352.036V64.4545H354.209ZM356.693 66.3438V64.4545H367.95V66.3438H363.412V79H361.224V66.3438H356.693ZM372.632 64.4545V79H370.438V64.4545H372.632ZM375.828 79V64.4545H381.155C382.187 64.4545 383.042 64.625 383.719 64.9659C384.396 65.3021 384.903 65.759 385.239 66.3366C385.575 66.9096 385.743 67.5559 385.743 68.2756C385.743 68.8816 385.632 69.393 385.409 69.8097C385.187 70.2216 384.889 70.553 384.515 70.804C384.145 71.0502 383.738 71.2301 383.293 71.3438V71.4858C383.776 71.5095 384.247 71.6657 384.706 71.9545C385.17 72.2386 385.554 72.6435 385.857 73.169C386.16 73.6946 386.311 74.3338 386.311 75.0866C386.311 75.83 386.136 76.4976 385.786 77.0895C385.44 77.6766 384.905 78.143 384.181 78.4886C383.456 78.8295 382.531 79 381.404 79H375.828ZM378.023 77.1179H381.191C382.242 77.1179 382.995 76.9143 383.449 76.5071C383.904 76.0999 384.131 75.5909 384.131 74.9801C384.131 74.5208 384.015 74.0994 383.783 73.7159C383.551 73.3324 383.22 73.027 382.789 72.7997C382.363 72.5724 381.856 72.4588 381.269 72.4588H378.023V77.1179ZM378.023 70.7472H380.963C381.456 70.7472 381.899 70.6525 382.292 70.4631C382.689 70.2737 383.004 70.0085 383.236 69.6676C383.473 69.322 383.591 68.9148 383.591 68.446C383.591 67.8447 383.381 67.3404 382.959 66.9332C382.538 66.526 381.891 66.3224 381.02 66.3224H378.023V70.7472ZM391.109 64.4545V79H388.914V64.4545H391.109ZM406.94 71.7273C406.94 73.2803 406.656 74.6155 406.088 75.733C405.52 76.8456 404.741 77.7027 403.751 78.304C402.766 78.9006 401.646 79.1989 400.392 79.1989C399.132 79.1989 398.008 78.9006 397.018 78.304C396.033 77.7027 395.257 76.8433 394.689 75.7259C394.12 74.6084 393.836 73.2756 393.836 71.7273C393.836 70.1742 394.12 68.8414 394.689 67.7287C395.257 66.6113 396.033 65.7543 397.018 65.1577C398.008 64.5563 399.132 64.2557 400.392 64.2557C401.646 64.2557 402.766 64.5563 403.751 65.1577C404.741 65.7543 405.52 66.6113 406.088 67.7287C406.656 68.8414 406.94 70.1742 406.94 71.7273ZM404.767 71.7273C404.767 70.5436 404.575 69.5469 404.191 68.7372C403.813 67.9228 403.292 67.3073 402.629 66.8906C401.971 66.4692 401.225 66.2585 400.392 66.2585C399.554 66.2585 398.806 66.4692 398.147 66.8906C397.489 67.3073 396.968 67.9228 396.585 68.7372C396.206 69.5469 396.017 70.5436 396.017 71.7273C396.017 72.911 396.206 73.91 396.585 74.7244C396.968 75.5341 397.489 76.1496 398.147 76.571C398.806 76.9877 399.554 77.196 400.392 77.196C401.225 77.196 401.971 76.9877 402.629 76.571C403.292 76.1496 403.813 75.5341 404.191 74.7244C404.575 73.91 404.767 72.911 404.767 71.7273ZM408.334 66.3438V64.4545H419.591V66.3438H415.053V79H412.865V66.3438H408.334ZM424.273 64.4545V79H422.078V64.4545H424.273ZM439.55 69.1847H437.334C437.249 68.7112 437.09 68.2945 436.858 67.9347C436.626 67.5748 436.342 67.2694 436.006 67.0185C435.67 66.7675 435.293 66.5781 434.877 66.4503C434.465 66.3224 434.027 66.2585 433.563 66.2585C432.725 66.2585 431.974 66.4692 431.311 66.8906C430.653 67.312 430.132 67.9299 429.749 68.7443C429.37 69.5587 429.181 70.553 429.181 71.7273C429.181 72.911 429.37 73.91 429.749 74.7244C430.132 75.5388 430.656 76.1544 431.319 76.571C431.981 76.9877 432.727 77.196 433.556 77.196C434.015 77.196 434.451 77.1345 434.863 77.0114C435.279 76.8835 435.656 76.6965 435.992 76.4503C436.328 76.2041 436.612 75.9034 436.844 75.5483C437.081 75.1884 437.244 74.7765 437.334 74.3125L439.55 74.3196C439.432 75.0346 439.202 75.6927 438.861 76.294C438.525 76.8906 438.092 77.4067 437.561 77.8423C437.036 78.2732 436.435 78.607 435.757 78.8438C435.08 79.0805 434.342 79.1989 433.542 79.1989C432.282 79.1989 431.16 78.9006 430.175 78.304C429.19 77.7027 428.414 76.8433 427.846 75.7259C427.282 74.6084 427 73.2756 427 71.7273C427 70.1742 427.284 68.8414 427.853 67.7287C428.421 66.6113 429.197 65.7543 430.182 65.1577C431.167 64.5563 432.287 64.2557 433.542 64.2557C434.313 64.2557 435.033 64.367 435.701 64.5895C436.373 64.8073 436.977 65.1293 437.512 65.5554C438.047 65.9768 438.489 66.4929 438.84 67.1037C439.19 67.7098 439.427 68.4034 439.55 69.1847ZM450.109 68.2756C450.034 67.6032 449.721 67.0824 449.172 66.7131C448.623 66.339 447.931 66.152 447.098 66.152C446.501 66.152 445.985 66.2467 445.55 66.4361C445.114 66.6207 444.776 66.8764 444.534 67.2031C444.297 67.5251 444.179 67.892 444.179 68.304C444.179 68.6496 444.259 68.9479 444.42 69.1989C444.586 69.4498 444.802 69.6605 445.067 69.831C445.337 69.9967 445.625 70.1364 445.933 70.25C446.241 70.3589 446.537 70.4489 446.821 70.5199L448.241 70.8892C448.705 71.0028 449.181 71.1567 449.669 71.3509C450.157 71.545 450.609 71.8007 451.026 72.1179C451.442 72.4351 451.778 72.8281 452.034 73.2969C452.295 73.7656 452.425 74.3267 452.425 74.9801C452.425 75.804 452.212 76.5355 451.786 77.1747C451.364 77.8139 450.751 78.3182 449.946 78.6875C449.146 79.0568 448.178 79.2415 447.041 79.2415C445.952 79.2415 445.01 79.0687 444.214 78.723C443.419 78.3774 442.796 77.8873 442.347 77.2528C441.897 76.6136 441.648 75.8561 441.601 74.9801H443.803C443.845 75.5057 444.016 75.9437 444.314 76.294C444.617 76.6397 445.003 76.8977 445.472 77.0682C445.945 77.2339 446.464 77.3168 447.027 77.3168C447.647 77.3168 448.199 77.2197 448.682 77.0256C449.17 76.8267 449.553 76.5521 449.832 76.2017C450.112 75.8466 450.251 75.4323 450.251 74.9588C450.251 74.5279 450.128 74.1752 449.882 73.9006C449.641 73.6259 449.312 73.3987 448.895 73.2188C448.483 73.0388 448.017 72.8802 447.496 72.7429L445.777 72.2741C444.612 71.9569 443.689 71.4905 443.007 70.875C442.33 70.2595 441.991 69.4451 441.991 68.4318C441.991 67.5937 442.219 66.8622 442.673 66.2372C443.128 65.6122 443.743 65.1269 444.52 64.7812C445.296 64.4309 446.172 64.2557 447.148 64.2557C448.133 64.2557 449.001 64.4285 449.754 64.7741C450.512 65.1198 451.108 65.5956 451.544 66.2017C451.98 66.803 452.207 67.4943 452.226 68.2756H450.109ZM462.535 64.4545V79H460.34V64.4545H462.535ZM477.471 64.4545V79H475.454L468.06 68.3324H467.925V79H465.731V64.4545H467.762L475.163 75.1364H475.298V64.4545H477.471ZM487.237 64.4545L491.285 76.3011H491.448L495.496 64.4545H497.869L492.634 79H490.099L484.864 64.4545H487.237ZM502.164 64.4545V79H499.969V64.4545H502.164ZM505.36 79V64.4545H514.479V66.3438H507.554V70.7756H514.003V72.6577H507.554V77.1108H514.564V79H505.36ZM516.693 66.3438V64.4545H527.95V66.3438H523.412V79H521.224V66.3438H516.693ZM542.178 64.4545V79H540.161L532.767 68.3324H532.632V79H530.438V64.4545H532.469L539.87 75.1364H540.005V64.4545H542.178ZM546.608 79H544.278L549.513 64.4545H552.048L557.283 79H554.953L550.841 67.0966H550.727L546.608 79ZM546.999 73.304H554.555V75.1506H546.999V73.304ZM559.383 64.4545H562.047L566.677 75.7614H566.848L571.478 64.4545H574.142V79H572.054V68.4744H571.919L567.629 78.9787H565.896L561.606 68.4673H561.471V79H559.383V64.4545ZM583.854 79H581.525L586.759 64.4545H589.294L594.529 79H592.199L588.087 67.0966H587.973L583.854 79ZM584.245 73.304H591.801V75.1506H584.245V73.304ZM605.789 69.0497C605.652 68.6188 605.467 68.233 605.235 67.892C605.008 67.5464 604.736 67.2528 604.419 67.0114C604.101 66.7652 603.739 66.5781 603.332 66.4503C602.93 66.3224 602.487 66.2585 602.004 66.2585C601.185 66.2585 600.446 66.4692 599.788 66.8906C599.13 67.312 598.609 67.9299 598.225 68.7443C597.847 69.554 597.657 70.5459 597.657 71.7202C597.657 72.8991 597.849 73.8958 598.233 74.7102C598.616 75.5246 599.142 76.1425 599.809 76.5639C600.477 76.9853 601.237 77.196 602.089 77.196C602.88 77.196 603.569 77.035 604.156 76.7131C604.748 76.3911 605.205 75.9366 605.527 75.3494C605.853 74.7576 606.017 74.0616 606.017 73.2614L606.585 73.3679H602.423V71.5568H608.14V73.2116C608.14 74.4332 607.88 75.4938 607.359 76.3935C606.843 77.2884 606.128 77.9796 605.214 78.4673C604.305 78.955 603.263 79.1989 602.089 79.1989C600.773 79.1989 599.618 78.8958 598.623 78.2898C597.634 77.6837 596.862 76.8243 596.308 75.7116C595.754 74.5942 595.477 73.2685 595.477 71.7344C595.477 70.5743 595.638 69.5327 595.96 68.6094C596.282 67.6861 596.734 66.9025 597.316 66.2585C597.904 65.6098 598.592 65.1151 599.383 64.7741C600.179 64.4285 601.047 64.2557 601.99 64.2557C602.776 64.2557 603.507 64.3717 604.184 64.6037C604.866 64.8357 605.472 65.1648 606.002 65.5909C606.538 66.017 606.98 66.5237 607.331 67.1108C607.681 67.6932 607.918 68.3395 608.041 69.0497H605.789ZM611.706 79H609.376L614.61 64.4545H617.146L622.38 79H620.051L615.939 67.0966H615.825L611.706 79ZM612.096 73.304H619.653V75.1506H612.096V73.304ZM626.675 64.4545V79H624.481V64.4545H626.675ZM641.612 64.4545V79H639.594L632.201 68.3324H632.066V79H629.871V64.4545H631.903L639.303 75.1364H639.438V64.4545H641.612ZM652.746 68.2756C652.67 67.6032 652.358 67.0824 651.809 66.7131C651.259 66.339 650.568 66.152 649.735 66.152C649.138 66.152 648.622 66.2467 648.186 66.4361C647.751 66.6207 647.412 66.8764 647.171 67.2031C646.934 67.5251 646.816 67.892 646.816 68.304C646.816 68.6496 646.896 68.9479 647.057 69.1989C647.223 69.4498 647.438 69.6605 647.703 69.831C647.973 69.9967 648.262 70.1364 648.57 70.25C648.878 70.3589 649.174 70.4489 649.458 70.5199L650.878 70.8892C651.342 71.0028 651.818 71.1567 652.306 71.3509C652.793 71.545 653.246 71.8007 653.662 72.1179C654.079 72.4351 654.415 72.8281 654.671 73.2969C654.931 73.7656 655.061 74.3267 655.061 74.9801C655.061 75.804 654.848 76.5355 654.422 77.1747C654.001 77.8139 653.388 78.3182 652.583 78.6875C651.783 79.0568 650.814 79.2415 649.678 79.2415C648.589 79.2415 647.647 79.0687 646.851 78.723C646.056 78.3774 645.433 77.8873 644.983 77.2528C644.533 76.6136 644.285 75.8561 644.238 74.9801H646.439C646.482 75.5057 646.652 75.9437 646.951 76.294C647.254 76.6397 647.64 76.8977 648.108 77.0682C648.582 77.2339 649.1 77.3168 649.664 77.3168C650.284 77.3168 650.836 77.2197 651.319 77.0256C651.806 76.8267 652.19 76.5521 652.469 76.2017C652.748 75.8466 652.888 75.4323 652.888 74.9588C652.888 74.5279 652.765 74.1752 652.519 73.9006C652.277 73.6259 651.948 73.3987 651.532 73.2188C651.12 73.0388 650.653 72.8802 650.132 72.7429L648.414 72.2741C647.249 71.9569 646.326 71.4905 645.644 70.875C644.967 70.2595 644.628 69.4451 644.628 68.4318C644.628 67.5937 644.855 66.8622 645.31 66.2372C645.765 65.6122 646.38 65.1269 647.157 64.7812C647.933 64.4309 648.809 64.2557 649.784 64.2557C650.769 64.2557 651.638 64.4285 652.391 64.7741C653.149 65.1198 653.745 65.5956 654.181 66.2017C654.616 66.803 654.844 67.4943 654.863 68.2756H652.746ZM656.967 66.3438V64.4545H668.224V66.3438H663.685V79H661.498V66.3438H656.967ZM676.004 79V64.4545H681.331C682.363 64.4545 683.218 64.625 683.895 64.9659C684.572 65.3021 685.079 65.759 685.415 66.3366C685.751 66.9096 685.919 67.5559 685.919 68.2756C685.919 68.8816 685.808 69.393 685.585 69.8097C685.363 70.2216 685.064 70.553 684.69 70.804C684.321 71.0502 683.914 71.2301 683.469 71.3438V71.4858C683.952 71.5095 684.423 71.6657 684.882 71.9545C685.346 72.2386 685.73 72.6435 686.033 73.169C686.336 73.6946 686.487 74.3338 686.487 75.0866C686.487 75.83 686.312 76.4976 685.962 77.0895C685.616 77.6766 685.081 78.143 684.357 78.4886C683.632 78.8295 682.706 79 681.58 79H676.004ZM678.199 77.1179H681.366C682.418 77.1179 683.17 76.9143 683.625 76.5071C684.08 76.0999 684.307 75.5909 684.307 74.9801C684.307 74.5208 684.191 74.0994 683.959 73.7159C683.727 73.3324 683.395 73.027 682.964 72.7997C682.538 72.5724 682.032 72.4588 681.445 72.4588H678.199V77.1179ZM678.199 70.7472H681.139C681.632 70.7472 682.074 70.6525 682.467 70.4631C682.865 70.2737 683.18 70.0085 683.412 69.6676C683.649 69.322 683.767 68.9148 683.767 68.446C683.767 67.8447 683.556 67.3404 683.135 66.9332C682.714 66.526 682.067 66.3224 681.196 66.3224H678.199V70.7472ZM701.725 71.7273C701.725 73.2803 701.441 74.6155 700.873 75.733C700.305 76.8456 699.526 77.7027 698.536 78.304C697.551 78.9006 696.432 79.1989 695.177 79.1989C693.917 79.1989 692.793 78.9006 691.803 78.304C690.818 77.7027 690.042 76.8433 689.474 75.7259C688.906 74.6084 688.621 73.2756 688.621 71.7273C688.621 70.1742 688.906 68.8414 689.474 67.7287C690.042 66.6113 690.818 65.7543 691.803 65.1577C692.793 64.5563 693.917 64.2557 695.177 64.2557C696.432 64.2557 697.551 64.5563 698.536 65.1577C699.526 65.7543 700.305 66.6113 700.873 67.7287C701.441 68.8414 701.725 70.1742 701.725 71.7273ZM699.552 71.7273C699.552 70.5436 699.36 69.5469 698.977 68.7372C698.598 67.9228 698.077 67.3073 697.414 66.8906C696.756 66.4692 696.01 66.2585 695.177 66.2585C694.339 66.2585 693.591 66.4692 692.933 66.8906C692.274 67.3073 691.754 67.9228 691.37 68.7372C690.991 69.5469 690.802 70.5436 690.802 71.7273C690.802 72.911 690.991 73.91 691.37 74.7244C691.754 75.5341 692.274 76.1496 692.933 76.571C693.591 76.9877 694.339 77.196 695.177 77.196C696.01 77.196 696.756 76.9877 697.414 76.571C698.077 76.1496 698.598 75.5341 698.977 74.7244C699.36 73.91 699.552 72.911 699.552 71.7273ZM703.119 66.3438V64.4545H714.376V66.3438H709.838V79H707.65V66.3438H703.119ZM716.864 79V64.4545H719.058V70.7756H726.31V64.4545H728.511V79H726.31V72.6577H719.058V79H716.864ZM737 79V64.4545H746.02V66.3438H739.195V70.7756H745.374V72.6577H739.195V79H737ZM761.354 71.7273C761.354 73.2803 761.07 74.6155 760.502 75.733C759.934 76.8456 759.155 77.7027 758.165 78.304C757.18 78.9006 756.06 79.1989 754.806 79.1989C753.546 79.1989 752.422 78.9006 751.432 78.304C750.447 77.7027 749.671 76.8433 749.103 75.7259C748.534 74.6084 748.25 73.2756 748.25 71.7273C748.25 70.1742 748.534 68.8414 749.103 67.7287C749.671 66.6113 750.447 65.7543 751.432 65.1577C752.422 64.5563 753.546 64.2557 754.806 64.2557C756.06 64.2557 757.18 64.5563 758.165 65.1577C759.155 65.7543 759.934 66.6113 760.502 67.7287C761.07 68.8414 761.354 70.1742 761.354 71.7273ZM759.181 71.7273C759.181 70.5436 758.989 69.5469 758.605 68.7372C758.227 67.9228 757.706 67.3073 757.043 66.8906C756.385 66.4692 755.639 66.2585 754.806 66.2585C753.968 66.2585 753.22 66.4692 752.561 66.8906C751.903 67.3073 751.382 67.9228 750.999 68.7372C750.62 69.5469 750.431 70.5436 750.431 71.7273C750.431 72.911 750.62 73.91 750.999 74.7244C751.382 75.5341 751.903 76.1496 752.561 76.571C753.22 76.9877 753.968 77.196 754.806 77.196C755.639 77.196 756.385 76.9877 757.043 76.571C757.706 76.1496 758.227 75.5341 758.605 74.7244C758.989 73.91 759.181 72.911 759.181 71.7273ZM764.09 79V64.4545H769.275C770.402 64.4545 771.337 64.6487 772.08 65.0369C772.828 65.4252 773.387 65.9626 773.756 66.6491C774.126 67.331 774.31 68.1193 774.31 69.0142C774.31 69.9044 774.123 70.688 773.749 71.3651C773.38 72.0374 772.821 72.5606 772.073 72.9347C771.33 73.3087 770.395 73.4957 769.268 73.4957H765.34V71.6065H769.069C769.779 71.6065 770.357 71.5047 770.802 71.3011C771.252 71.0975 771.581 70.8016 771.789 70.4134C771.997 70.0251 772.102 69.5587 772.102 69.0142C772.102 68.465 771.995 67.9891 771.782 67.5866C771.574 67.1842 771.245 66.8764 770.795 66.6634C770.35 66.4455 769.765 66.3366 769.04 66.3366H766.285V79H764.09ZM771.271 72.4375L774.864 79H772.364L768.842 72.4375H771.271ZM776.981 79V64.4545H786.1V66.3438H779.175V70.7756H785.624V72.6577H779.175V77.1108H786.185V79H776.981ZM791.226 64.4545V79H789.032V64.4545H791.226ZM804.266 69.0497C804.129 68.6188 803.944 68.233 803.712 67.892C803.485 67.5464 803.212 67.2528 802.895 67.0114C802.578 66.7652 802.216 66.5781 801.809 66.4503C801.406 66.3224 800.963 66.2585 800.48 66.2585C799.661 66.2585 798.923 66.4692 798.265 66.8906C797.606 67.312 797.086 67.9299 796.702 68.7443C796.323 69.554 796.134 70.5459 796.134 71.7202C796.134 72.8991 796.326 73.8958 796.709 74.7102C797.093 75.5246 797.618 76.1425 798.286 76.5639C798.953 76.9853 799.713 77.196 800.566 77.196C801.356 77.196 802.045 77.035 802.632 76.7131C803.224 76.3911 803.681 75.9366 804.003 75.3494C804.33 74.7576 804.493 74.0616 804.493 73.2614L805.061 73.3679H800.9V71.5568H806.617V73.2116C806.617 74.4332 806.356 75.4938 805.836 76.3935C805.319 77.2884 804.605 77.9796 803.691 78.4673C802.782 78.955 801.74 79.1989 800.566 79.1989C799.249 79.1989 798.094 78.8958 797.1 78.2898C796.11 77.6837 795.338 76.8243 794.784 75.7116C794.23 74.5942 793.953 73.2685 793.953 71.7344C793.953 70.5743 794.114 69.5327 794.436 68.6094C794.758 67.6861 795.211 66.9025 795.793 66.2585C796.38 65.6098 797.069 65.1151 797.86 64.7741C798.655 64.4285 799.524 64.2557 800.466 64.2557C801.252 64.2557 801.984 64.3717 802.661 64.6037C803.343 64.8357 803.949 65.1648 804.479 65.5909C805.014 66.017 805.457 66.5237 805.807 67.1108C806.158 67.6932 806.394 68.3395 806.517 69.0497H804.266ZM821.143 64.4545V79H819.126L811.732 68.3324H811.597V79H809.403V64.4545H811.434L818.835 75.1364H818.969V64.4545H821.143ZM830.866 79H828.536L833.771 64.4545H836.306L841.54 79H839.211L835.099 67.0966H834.985L830.866 79ZM831.256 73.304H838.813V75.1506H831.256V73.304ZM855.381 64.4545V79H853.364L845.971 68.3324H845.836V79H843.641V64.4545H845.672L853.073 75.1364H853.208V64.4545H855.381ZM863.291 79H858.582V64.4545H863.44C864.866 64.4545 866.089 64.7457 867.112 65.3281C868.135 65.9058 868.919 66.7367 869.463 67.821C870.012 68.9006 870.287 70.1955 870.287 71.706C870.287 73.2211 870.01 74.5232 869.456 75.6122C868.907 76.7012 868.111 77.5393 867.07 78.1264C866.028 78.7088 864.768 79 863.291 79ZM860.777 77.0824H863.17C864.278 77.0824 865.199 76.8741 865.933 76.4574C866.667 76.036 867.216 75.4276 867.581 74.6321C867.946 73.8319 868.128 72.8565 868.128 71.706C868.128 70.5649 867.946 69.5966 867.581 68.8011C867.221 68.0057 866.684 67.402 865.969 66.9901C865.254 66.5781 864.366 66.3722 863.305 66.3722H860.777V77.0824ZM883.018 79H878.309V64.4545H883.167C884.592 64.4545 885.816 64.7457 886.839 65.3281C887.862 65.9058 888.645 66.7367 889.19 67.821C889.739 68.9006 890.013 70.1955 890.013 71.706C890.013 73.2211 889.737 74.5232 889.183 75.6122C888.633 76.7012 887.838 77.5393 886.796 78.1264C885.754 78.7088 884.495 79 883.018 79ZM880.504 77.0824H882.897C884.005 77.0824 884.926 76.8741 885.66 76.4574C886.394 76.036 886.943 75.4276 887.308 74.6321C887.672 73.8319 887.854 72.8565 887.854 71.706C887.854 70.5649 887.672 69.5966 887.308 68.8011C886.948 68.0057 886.41 67.402 885.695 66.9901C884.98 66.5781 884.093 66.3722 883.032 66.3722H880.504V77.0824ZM905.377 71.7273C905.377 73.2803 905.093 74.6155 904.525 75.733C903.957 76.8456 903.178 77.7027 902.189 78.304C901.204 78.9006 900.084 79.1989 898.829 79.1989C897.57 79.1989 896.445 78.9006 895.456 78.304C894.471 77.7027 893.694 76.8433 893.126 75.7259C892.558 74.6084 892.274 73.2756 892.274 71.7273C892.274 70.1742 892.558 68.8414 893.126 67.7287C893.694 66.6113 894.471 65.7543 895.456 65.1577C896.445 64.5563 897.57 64.2557 898.829 64.2557C900.084 64.2557 901.204 64.5563 902.189 65.1577C903.178 65.7543 903.957 66.6113 904.525 67.7287C905.093 68.8414 905.377 70.1742 905.377 71.7273ZM903.204 71.7273C903.204 70.5436 903.012 69.5469 902.629 68.7372C902.25 67.9228 901.729 67.3073 901.066 66.8906C900.408 66.4692 899.663 66.2585 898.829 66.2585C897.991 66.2585 897.243 66.4692 896.585 66.8906C895.927 67.3073 895.406 67.9228 895.022 68.7372C894.644 69.5469 894.454 70.5436 894.454 71.7273C894.454 72.911 894.644 73.91 895.022 74.7244C895.406 75.5341 895.927 76.1496 896.585 76.571C897.243 76.9877 897.991 77.196 898.829 77.196C899.663 77.196 900.408 76.9877 901.066 76.571C901.729 76.1496 902.25 75.5341 902.629 74.7244C903.012 73.91 903.204 72.911 903.204 71.7273ZM908.114 64.4545H910.777L915.408 75.7614H915.578L920.209 64.4545H922.872V79H920.784V68.4744H920.649L916.359 78.9787H914.626L910.337 68.4673H910.202V79H908.114V64.4545ZM926.063 79V64.4545H935.182V66.3438H928.257V70.7756H934.706V72.6577H928.257V77.1108H935.267V79H926.063ZM946.047 68.2756C945.971 67.6032 945.659 67.0824 945.109 66.7131C944.56 66.339 943.869 66.152 943.036 66.152C942.439 66.152 941.923 66.2467 941.487 66.4361C941.052 66.6207 940.713 66.8764 940.472 67.2031C940.235 67.5251 940.116 67.892 940.116 68.304C940.116 68.6496 940.197 68.9479 940.358 69.1989C940.524 69.4498 940.739 69.6605 941.004 69.831C941.274 69.9967 941.563 70.1364 941.871 70.25C942.179 70.3589 942.474 70.4489 942.759 70.5199L944.179 70.8892C944.643 71.0028 945.119 71.1567 945.607 71.3509C946.094 71.545 946.546 71.8007 946.963 72.1179C947.38 72.4351 947.716 72.8281 947.972 73.2969C948.232 73.7656 948.362 74.3267 948.362 74.9801C948.362 75.804 948.149 76.5355 947.723 77.1747C947.302 77.8139 946.688 78.3182 945.884 78.6875C945.083 79.0568 944.115 79.2415 942.979 79.2415C941.89 79.2415 940.947 79.0687 940.152 78.723C939.357 78.3774 938.734 77.8873 938.284 77.2528C937.834 76.6136 937.586 75.8561 937.538 74.9801H939.74C939.783 75.5057 939.953 75.9437 940.251 76.294C940.554 76.6397 940.94 76.8977 941.409 77.0682C941.883 77.2339 942.401 77.3168 942.964 77.3168C943.585 77.3168 944.136 77.2197 944.619 77.0256C945.107 76.8267 945.491 76.5521 945.77 76.2017C946.049 75.8466 946.189 75.4323 946.189 74.9588C946.189 74.5279 946.066 74.1752 945.82 73.9006C945.578 73.6259 945.249 73.3987 944.832 73.2188C944.42 73.0388 943.954 72.8802 943.433 72.7429L941.714 72.2741C940.55 71.9569 939.626 71.4905 938.945 70.875C938.268 70.2595 937.929 69.4451 937.929 68.4318C937.929 67.5937 938.156 66.8622 938.611 66.2372C939.065 65.6122 939.681 65.1269 940.457 64.7812C941.234 64.4309 942.11 64.2557 943.085 64.2557C944.07 64.2557 944.939 64.4285 945.692 64.7741C946.449 65.1198 947.046 65.5956 947.482 66.2017C947.917 66.803 948.144 67.4943 948.163 68.2756H946.047ZM950.267 66.3438V64.4545H961.525V66.3438H956.986V79H954.799V66.3438H950.267ZM966.207 64.4545V79H964.012V64.4545H966.207ZM981.484 69.1847H979.268C979.183 68.7112 979.024 68.2945 978.792 67.9347C978.56 67.5748 978.276 67.2694 977.94 67.0185C977.603 66.7675 977.227 66.5781 976.81 66.4503C976.398 66.3224 975.96 66.2585 975.496 66.2585C974.658 66.2585 973.908 66.4692 973.245 66.8906C972.587 67.312 972.066 67.9299 971.683 68.7443C971.304 69.5587 971.114 70.553 971.114 71.7273C971.114 72.911 971.304 73.91 971.683 74.7244C972.066 75.5388 972.589 76.1544 973.252 76.571C973.915 76.9877 974.661 77.196 975.489 77.196C975.949 77.196 976.384 77.1345 976.796 77.0114C977.213 76.8835 977.589 76.6965 977.925 76.4503C978.262 76.2041 978.546 75.9034 978.778 75.5483C979.014 75.1884 979.178 74.7765 979.268 74.3125L981.484 74.3196C981.365 75.0346 981.136 75.6927 980.795 76.294C980.459 76.8906 980.025 77.4067 979.495 77.8423C978.969 78.2732 978.368 78.607 977.691 78.8438C977.014 79.0805 976.275 79.1989 975.475 79.1989C974.216 79.1989 973.094 78.9006 972.109 78.304C971.124 77.7027 970.347 76.8433 969.779 75.7259C969.216 74.6084 968.934 73.2756 968.934 71.7273C968.934 70.1742 969.218 68.8414 969.786 67.7287C970.354 66.6113 971.131 65.7543 972.116 65.1577C973.101 64.5563 974.22 64.2557 975.475 64.2557C976.247 64.2557 976.967 64.367 977.634 64.5895C978.307 64.8073 978.91 65.1293 979.445 65.5554C979.98 65.9768 980.423 66.4929 980.773 67.1037C981.124 67.7098 981.361 68.4034 981.484 69.1847ZM1001.48 69.1847H999.268C999.183 68.7112 999.024 68.2945 998.792 67.9347C998.56 67.5748 998.276 67.2694 997.94 67.0185C997.603 66.7675 997.227 66.5781 996.81 66.4503C996.398 66.3224 995.96 66.2585 995.496 66.2585C994.658 66.2585 993.908 66.4692 993.245 66.8906C992.587 67.312 992.066 67.9299 991.683 68.7443C991.304 69.5587 991.114 70.553 991.114 71.7273C991.114 72.911 991.304 73.91 991.683 74.7244C992.066 75.5388 992.589 76.1544 993.252 76.571C993.915 76.9877 994.661 77.196 995.489 77.196C995.949 77.196 996.384 77.1345 996.796 77.0114C997.213 76.8835 997.589 76.6965 997.925 76.4503C998.262 76.2041 998.546 75.9034 998.778 75.5483C999.014 75.1884 999.178 74.7765 999.268 74.3125L1001.48 74.3196C1001.37 75.0346 1001.14 75.6927 1000.79 76.294C1000.46 76.8906 1000.03 77.4067 999.495 77.8423C998.969 78.2732 998.368 78.607 997.691 78.8438C997.014 79.0805 996.275 79.1989 995.475 79.1989C994.216 79.1989 993.094 78.9006 992.109 78.304C991.124 77.7027 990.347 76.8433 989.779 75.7259C989.216 74.6084 988.934 73.2756 988.934 71.7273C988.934 70.1742 989.218 68.8414 989.786 67.7287C990.354 66.6113 991.131 65.7543 992.116 65.1577C993.101 64.5563 994.22 64.2557 995.475 64.2557C996.247 64.2557 996.967 64.367 997.634 64.5895C998.307 64.8073 998.91 65.1293 999.445 65.5554C999.98 65.9768 1000.42 66.4929 1000.77 67.1037C1001.12 67.7098 1001.36 68.4034 1001.48 69.1847ZM1016.74 71.7273C1016.74 73.2803 1016.46 74.6155 1015.89 75.733C1015.32 76.8456 1014.55 77.7027 1013.56 78.304C1012.57 78.9006 1011.45 79.1989 1010.2 79.1989C1008.94 79.1989 1007.81 78.9006 1006.82 78.304C1005.84 77.7027 1005.06 76.8433 1004.49 75.7259C1003.93 74.6084 1003.64 73.2756 1003.64 71.7273C1003.64 70.1742 1003.93 68.8414 1004.49 67.7287C1005.06 66.6113 1005.84 65.7543 1006.82 65.1577C1007.81 64.5563 1008.94 64.2557 1010.2 64.2557C1011.45 64.2557 1012.57 64.5563 1013.56 65.1577C1014.55 65.7543 1015.32 66.6113 1015.89 67.7287C1016.46 68.8414 1016.74 70.1742 1016.74 71.7273ZM1014.57 71.7273C1014.57 70.5436 1014.38 69.5469 1014 68.7372C1013.62 67.9228 1013.1 67.3073 1012.43 66.8906C1011.78 66.4692 1011.03 66.2585 1010.2 66.2585C1009.36 66.2585 1008.61 66.4692 1007.95 66.8906C1007.29 67.3073 1006.77 67.9228 1006.39 68.7372C1006.01 69.5469 1005.82 70.5436 1005.82 71.7273C1005.82 72.911 1006.01 73.91 1006.39 74.7244C1006.77 75.5341 1007.29 76.1496 1007.95 76.571C1008.61 76.9877 1009.36 77.196 1010.2 77.196C1011.03 77.196 1011.78 76.9877 1012.43 76.571C1013.1 76.1496 1013.62 75.5341 1014 74.7244C1014.38 73.91 1014.57 72.911 1014.57 71.7273ZM1019.48 64.4545H1022.14L1026.77 75.7614H1026.95L1031.58 64.4545H1034.24V79H1032.15V68.4744H1032.02L1027.73 78.9787H1025.99L1021.7 68.4673H1021.57V79H1019.48V64.4545ZM1037.43 79V64.4545H1042.61C1043.75 64.4545 1044.68 64.6605 1045.43 65.0724C1046.17 65.4844 1046.73 66.0478 1047.1 66.7628C1047.47 67.473 1047.65 68.2732 1047.65 69.1634C1047.65 70.0582 1047.46 70.8632 1047.09 71.5781C1046.72 72.2884 1046.16 72.8518 1045.41 73.2685C1044.67 73.6804 1043.73 73.8864 1042.61 73.8864H1039.04V72.0256H1042.41C1043.12 72.0256 1043.7 71.9025 1044.15 71.6562C1044.59 71.4053 1044.92 71.0644 1045.13 70.6335C1045.34 70.2027 1045.44 69.7126 1045.44 69.1634C1045.44 68.6141 1045.34 68.1264 1045.13 67.7003C1044.92 67.2741 1044.59 66.9403 1044.14 66.6989C1043.7 66.4574 1043.11 66.3366 1042.38 66.3366H1039.62V79H1037.43ZM1049.91 79H1047.58L1052.81 64.4545H1055.35L1060.58 79H1058.25L1054.14 67.0966H1054.03L1049.91 79ZM1050.3 73.304H1057.86V75.1506H1050.3V73.304ZM1074.42 64.4545V79H1072.41L1065.01 68.3324H1064.88V79H1062.68V64.4545H1064.72L1072.12 75.1364H1072.25V64.4545H1074.42ZM1079.82 64.4545V79H1077.63V64.4545H1079.82ZM1083.02 79V64.4545H1092.14V66.3438H1085.21V70.7756H1091.66V72.6577H1085.21V77.1108H1092.22V79H1083.02ZM1103 68.2756C1102.92 67.6032 1102.61 67.0824 1102.06 66.7131C1101.51 66.339 1100.82 66.152 1099.99 66.152C1099.39 66.152 1098.88 66.2467 1098.44 66.4361C1098 66.6207 1097.67 66.8764 1097.42 67.2031C1097.19 67.5251 1097.07 67.892 1097.07 68.304C1097.07 68.6496 1097.15 68.9479 1097.31 69.1989C1097.48 69.4498 1097.69 69.6605 1097.96 69.831C1098.23 69.9967 1098.52 70.1364 1098.82 70.25C1099.13 70.3589 1099.43 70.4489 1099.71 70.5199L1101.13 70.8892C1101.6 71.0028 1102.07 71.1567 1102.56 71.3509C1103.05 71.545 1103.5 71.8007 1103.92 72.1179C1104.33 72.4351 1104.67 72.8281 1104.92 73.2969C1105.19 73.7656 1105.32 74.3267 1105.32 74.9801C1105.32 75.804 1105.1 76.5355 1104.68 77.1747C1104.25 77.8139 1103.64 78.3182 1102.84 78.6875C1102.04 79.0568 1101.07 79.2415 1099.93 79.2415C1098.84 79.2415 1097.9 79.0687 1097.11 78.723C1096.31 78.3774 1095.69 77.8873 1095.24 77.2528C1094.79 76.6136 1094.54 75.8561 1094.49 74.9801H1096.69C1096.74 75.5057 1096.91 75.9437 1097.2 76.294C1097.51 76.6397 1097.89 76.8977 1098.36 77.0682C1098.84 77.2339 1099.35 77.3168 1099.92 77.3168C1100.54 77.3168 1101.09 77.2197 1101.57 77.0256C1102.06 76.8267 1102.44 76.5521 1102.72 76.2017C1103 75.8466 1103.14 75.4323 1103.14 74.9588C1103.14 74.5279 1103.02 74.1752 1102.77 73.9006C1102.53 73.6259 1102.2 73.3987 1101.79 73.2188C1101.37 73.0388 1100.91 72.8802 1100.39 72.7429L1098.67 72.2741C1097.5 71.9569 1096.58 71.4905 1095.9 70.875C1095.22 70.2595 1094.88 69.4451 1094.88 68.4318C1094.88 67.5937 1095.11 66.8622 1095.56 66.2372C1096.02 65.6122 1096.63 65.1269 1097.41 64.7812C1098.19 64.4309 1099.06 64.2557 1100.04 64.2557C1101.02 64.2557 1101.89 64.4285 1102.64 64.7741C1103.4 65.1198 1104 65.5956 1104.43 66.2017C1104.87 66.803 1105.1 67.4943 1105.12 68.2756H1103ZM1109.17 79.1349C1108.78 79.1349 1108.44 78.9976 1108.17 78.723C1107.89 78.4437 1107.75 78.1075 1107.75 77.7145C1107.75 77.3262 1107.89 76.9948 1108.17 76.7202C1108.44 76.4408 1108.78 76.3011 1109.17 76.3011C1109.55 76.3011 1109.89 76.4408 1110.17 76.7202C1110.45 76.9948 1110.59 77.3262 1110.59 77.7145C1110.59 77.9749 1110.52 78.214 1110.39 78.4318C1110.26 78.6449 1110.09 78.8153 1109.88 78.9432C1109.66 79.071 1109.43 79.1349 1109.17 79.1349Z" fill="#24408E"/>
<defs>
<linearGradient id="paint0_linear_158_862" x1="0" y1="56" x2="1296" y2="56" gradientUnits="userSpaceOnUse">
<stop stop-color="#00A93C"/>
<stop offset="1" stop-color="#24CBFF"/>
</linearGradient>
</defs>
</svg>
