<svg width="100%" viewBox="0 0 1920 1051" fill="none" xmlns="http://www.w3.org/2000/svg">
<path d="M333.944 762.72C329.752 762.72 326.072 761.936 322.904 760.368C319.768 758.8 317.32 756.624 315.56 753.84C313.8 751.024 312.92 747.744 312.92 744C312.92 740.256 313.8 736.992 315.56 734.208C317.32 731.392 319.768 729.2 322.904 727.632C326.072 726.064 329.752 725.28 333.944 725.28C338.136 725.28 341.8 726.064 344.936 727.632C348.104 729.2 350.568 731.392 352.328 734.208C354.088 736.992 354.968 740.256 354.968 744C354.968 747.744 354.088 751.024 352.328 753.84C350.568 756.624 348.104 758.8 344.936 760.368C341.8 761.936 338.136 762.72 333.944 762.72ZM333.944 755.472C336.568 755.472 338.824 755.008 340.712 754.08C342.632 753.152 344.104 751.824 345.128 750.096C346.184 748.368 346.712 746.336 346.712 744C346.712 741.664 346.184 739.632 345.128 737.904C344.104 736.176 342.632 734.848 340.712 733.92C338.824 732.992 336.568 732.528 333.944 732.528C331.352 732.528 329.096 732.992 327.176 733.92C325.256 734.848 323.768 736.176 322.712 737.904C321.688 739.632 321.176 741.664 321.176 744C321.176 746.336 321.688 748.368 322.712 750.096C323.768 751.824 325.256 753.152 327.176 754.08C329.096 755.008 331.352 755.472 333.944 755.472ZM368.267 746.208C368.267 748.128 368.635 749.776 369.371 751.152C370.107 752.528 371.179 753.6 372.587 754.368C374.027 755.104 375.755 755.472 377.771 755.472C379.819 755.472 381.547 755.104 382.955 754.368C384.363 753.6 385.435 752.528 386.171 751.152C386.907 749.776 387.275 748.128 387.275 746.208V726H395.435V746.592C395.435 749.824 394.699 752.656 393.227 755.088C391.755 757.488 389.691 759.36 387.035 760.704C384.379 762.048 381.291 762.72 377.771 762.72C374.251 762.72 371.163 762.048 368.507 760.704C365.883 759.36 363.819 757.488 362.315 755.088C360.843 752.656 360.107 749.824 360.107 746.592V726H368.267V746.208ZM408.016 741.984H421.888C423.712 741.984 425.152 741.568 426.208 740.736C427.296 739.872 427.84 738.688 427.84 737.184C427.84 735.68 427.296 734.512 426.208 733.68C425.152 732.848 423.712 732.432 421.888 732.432H406.816L410.512 728.256V762H402.352V726H422.848C425.472 726 427.776 726.48 429.76 727.44C431.744 728.368 433.296 729.664 434.416 731.328C435.536 732.992 436.096 734.944 436.096 737.184C436.096 739.392 435.536 741.328 434.416 742.992C433.296 744.656 431.744 745.968 429.76 746.928C427.776 747.856 425.472 748.32 422.848 748.32H408.016V741.984ZM414.256 745.152H423.568L437.152 762H427.6L414.256 745.152ZM472.713 758.4H469.113L483.801 726H492.441L475.353 762H466.185L449.145 726H457.881L472.713 758.4ZM496.337 726H504.497V762H496.337V726ZM509.932 750.24H518.188C518.38 751.456 518.908 752.528 519.772 753.456C520.668 754.352 521.852 755.056 523.324 755.568C524.828 756.048 526.556 756.288 528.508 756.288C531.356 756.288 533.596 755.888 535.228 755.088C536.892 754.256 537.724 753.104 537.724 751.632C537.724 750.48 537.244 749.6 536.284 748.992C535.356 748.352 533.612 747.888 531.052 747.6L523.804 746.784C519.132 746.272 515.74 745.184 513.628 743.52C511.548 741.824 510.508 739.472 510.508 736.464C510.508 734.096 511.196 732.08 512.572 730.416C513.98 728.752 515.948 727.488 518.476 726.624C521.004 725.728 523.98 725.28 527.404 725.28C530.732 725.28 533.692 725.776 536.284 726.768C538.876 727.728 540.94 729.088 542.476 730.848C544.012 732.576 544.844 734.608 544.972 736.944H536.716C536.556 735.888 536.076 734.976 535.276 734.208C534.508 733.408 533.436 732.8 532.06 732.384C530.684 731.936 529.068 731.712 527.212 731.712C524.62 731.712 522.556 732.096 521.02 732.864C519.484 733.632 518.716 734.72 518.716 736.128C518.716 737.216 519.164 738.064 520.06 738.672C520.988 739.248 522.604 739.68 524.908 739.968L532.444 740.88C535.772 741.232 538.412 741.808 540.364 742.608C542.348 743.376 543.756 744.416 544.588 745.728C545.452 747.04 545.884 748.704 545.884 750.72C545.884 753.12 545.148 755.232 543.676 757.056C542.236 758.848 540.204 760.24 537.58 761.232C534.956 762.224 531.884 762.72 528.364 762.72C524.78 762.72 521.628 762.208 518.908 761.184C516.188 760.128 514.044 758.672 512.476 756.816C510.908 754.928 510.06 752.736 509.932 750.24ZM551.368 726H559.528V762H551.368V726ZM586.132 762.72C581.94 762.72 578.26 761.936 575.092 760.368C571.956 758.8 569.508 756.624 567.748 753.84C565.988 751.024 565.108 747.744 565.108 744C565.108 740.256 565.988 736.992 567.748 734.208C569.508 731.392 571.956 729.2 575.092 727.632C578.26 726.064 581.94 725.28 586.132 725.28C590.324 725.28 593.988 726.064 597.124 727.632C600.292 729.2 602.756 731.392 604.516 734.208C606.276 736.992 607.156 740.256 607.156 744C607.156 747.744 606.276 751.024 604.516 753.84C602.756 756.624 600.292 758.8 597.124 760.368C593.988 761.936 590.324 762.72 586.132 762.72ZM586.132 755.472C588.756 755.472 591.012 755.008 592.9 754.08C594.82 753.152 596.292 751.824 597.316 750.096C598.372 748.368 598.9 746.336 598.9 744C598.9 741.664 598.372 739.632 597.316 737.904C596.292 736.176 594.82 734.848 592.9 733.92C591.012 732.992 588.756 732.528 586.132 732.528C583.54 732.528 581.284 732.992 579.364 733.92C577.444 734.848 575.956 736.176 574.9 737.904C573.876 739.632 573.364 741.664 573.364 744C573.364 746.336 573.876 748.368 574.9 750.096C575.956 751.824 577.444 753.152 579.364 754.08C581.284 755.008 583.54 755.472 586.132 755.472ZM646.134 756.624L643.302 757.056V726H651.222V762H640.902L617.862 730.944L620.646 730.512V762H612.774V726H623.334L646.134 756.624Z" fill="#24CBFF"/>
</svg>
