<svg width="100%" viewBox="0 0 375 812" fill="none" xmlns="http://www.w3.org/2000/svg">
<path d="M27.296 581.48C24.5013 581.48 22.048 580.957 19.936 579.912C17.8453 578.867 16.2133 577.416 15.04 575.56C13.8667 573.683 13.28 571.496 13.28 569C13.28 566.504 13.8667 564.328 15.04 562.472C16.2133 560.595 17.8453 559.133 19.936 558.088C22.048 557.043 24.5013 556.52 27.296 556.52C30.0907 556.52 32.5333 557.043 34.624 558.088C36.736 559.133 38.3787 560.595 39.552 562.472C40.7253 564.328 41.312 566.504 41.312 569C41.312 571.496 40.7253 573.683 39.552 575.56C38.3787 577.416 36.736 578.867 34.624 579.912C32.5333 580.957 30.0907 581.48 27.296 581.48ZM27.296 576.648C29.0453 576.648 30.5493 576.339 31.808 575.72C33.088 575.101 34.0693 574.216 34.752 573.064C35.456 571.912 35.808 570.557 35.808 569C35.808 567.443 35.456 566.088 34.752 564.936C34.0693 563.784 33.088 562.899 31.808 562.28C30.5493 561.661 29.0453 561.352 27.296 561.352C25.568 561.352 24.064 561.661 22.784 562.28C21.504 562.899 20.512 563.784 19.808 564.936C19.1253 566.088 18.784 567.443 18.784 569C18.784 570.557 19.1253 571.912 19.808 573.064C20.512 574.216 21.504 575.101 22.784 575.72C24.064 576.339 25.568 576.648 27.296 576.648ZM50.1778 570.472C50.1778 571.752 50.4231 572.851 50.9138 573.768C51.4044 574.685 52.1191 575.4 53.0578 575.912C54.0178 576.403 55.1698 576.648 56.5138 576.648C57.8791 576.648 59.0311 576.403 59.9698 575.912C60.9084 575.4 61.6231 574.685 62.1138 573.768C62.6044 572.851 62.8498 571.752 62.8498 570.472V557H68.2898V570.728C68.2898 572.883 67.7991 574.771 66.8178 576.392C65.8364 577.992 64.4604 579.24 62.6898 580.136C60.9191 581.032 58.8604 581.48 56.5138 581.48C54.1671 581.48 52.1084 581.032 50.3378 580.136C48.5884 579.24 47.2124 577.992 46.2098 576.392C45.2284 574.771 44.7378 572.883 44.7378 570.728V557H50.1778V570.472ZM76.6775 567.656H85.9255C87.1415 567.656 88.1015 567.379 88.8055 566.824C89.5308 566.248 89.8935 565.459 89.8935 564.456C89.8935 563.453 89.5308 562.675 88.8055 562.12C88.1015 561.565 87.1415 561.288 85.9255 561.288H75.8775L78.3415 558.504V581H72.9015V557H86.5655C88.3148 557 89.8508 557.32 91.1735 557.96C92.4962 558.579 93.5308 559.443 94.2775 560.552C95.0242 561.661 95.3975 562.963 95.3975 564.456C95.3975 565.928 95.0242 567.219 94.2775 568.328C93.5308 569.437 92.4962 570.312 91.1735 570.952C89.8508 571.571 88.3148 571.88 86.5655 571.88H76.6775V567.656ZM80.8375 569.768H87.0455L96.1015 581H89.7335L80.8375 569.768ZM119.809 578.6H117.409L127.201 557H132.961L121.569 581H115.457L104.097 557H109.921L119.809 578.6ZM135.558 557H140.998V581H135.558V557ZM144.622 573.16H150.126C150.254 573.971 150.606 574.685 151.182 575.304C151.779 575.901 152.568 576.371 153.55 576.712C154.552 577.032 155.704 577.192 157.006 577.192C158.904 577.192 160.398 576.925 161.486 576.392C162.595 575.837 163.15 575.069 163.15 574.088C163.15 573.32 162.83 572.733 162.19 572.328C161.571 571.901 160.408 571.592 158.702 571.4L153.87 570.856C150.755 570.515 148.494 569.789 147.086 568.68C145.699 567.549 145.006 565.981 145.006 563.976C145.006 562.397 145.464 561.053 146.382 559.944C147.32 558.835 148.632 557.992 150.318 557.416C152.003 556.819 153.987 556.52 156.27 556.52C158.488 556.52 160.462 556.851 162.19 557.512C163.918 558.152 165.294 559.059 166.318 560.232C167.342 561.384 167.896 562.739 167.982 564.296H162.478C162.371 563.592 162.051 562.984 161.517 562.472C161.006 561.939 160.291 561.533 159.374 561.256C158.456 560.957 157.379 560.808 156.142 560.808C154.414 560.808 153.038 561.064 152.014 561.576C150.99 562.088 150.478 562.813 150.478 563.752C150.478 564.477 150.776 565.043 151.374 565.448C151.992 565.832 153.07 566.12 154.606 566.312L159.63 566.92C161.848 567.155 163.608 567.539 164.91 568.072C166.232 568.584 167.171 569.277 167.726 570.152C168.302 571.027 168.59 572.136 168.59 573.48C168.59 575.08 168.099 576.488 167.118 577.704C166.158 578.899 164.803 579.827 163.054 580.488C161.304 581.149 159.256 581.48 156.91 581.48C154.52 581.48 152.419 581.139 150.606 580.456C148.792 579.752 147.363 578.781 146.318 577.544C145.272 576.285 144.707 574.824 144.622 573.16ZM172.245 557H177.685V581H172.245V557ZM195.421 581.48C192.626 581.48 190.173 580.957 188.061 579.912C185.97 578.867 184.338 577.416 183.165 575.56C181.992 573.683 181.405 571.496 181.405 569C181.405 566.504 181.992 564.328 183.165 562.472C184.338 560.595 185.97 559.133 188.061 558.088C190.173 557.043 192.626 556.52 195.421 556.52C198.216 556.52 200.658 557.043 202.749 558.088C204.861 559.133 206.504 560.595 207.677 562.472C208.85 564.328 209.437 566.504 209.437 569C209.437 571.496 208.85 573.683 207.677 575.56C206.504 577.416 204.861 578.867 202.749 579.912C200.658 580.957 198.216 581.48 195.421 581.48ZM195.421 576.648C197.17 576.648 198.674 576.339 199.933 575.72C201.213 575.101 202.194 574.216 202.877 573.064C203.581 571.912 203.933 570.557 203.933 569C203.933 567.443 203.581 566.088 202.877 564.936C202.194 563.784 201.213 562.899 199.933 562.28C198.674 561.661 197.17 561.352 195.421 561.352C193.693 561.352 192.189 561.661 190.909 562.28C189.629 562.899 188.637 563.784 187.933 564.936C187.25 566.088 186.909 567.443 186.909 569C186.909 570.557 187.25 571.912 187.933 573.064C188.637 574.216 189.629 575.101 190.909 575.72C192.189 576.339 193.693 576.648 195.421 576.648ZM235.423 577.416L233.535 577.704V557H238.815V581H231.935L216.575 560.296L218.431 560.008V581H213.183V557H220.223L235.423 577.416Z" fill="#24CBFF"/>
</svg>
