<svg width="100%" viewBox="0 0 1920 1051" fill="none" xmlns="http://www.w3.org/2000/svg">
<path d="M322.856 740V772.4L319.16 768.8H346.184V776H314.696V740H322.856ZM350.743 740H358.903V776H350.743V740ZM396.019 754.88V761.12H370.243V754.88H396.019ZM375.715 758L373.315 773.264L369.763 769.232H397.507V776H365.107L367.891 758L365.107 740H397.267V746.768H369.763L373.315 742.736L375.715 758ZM377.059 729.488H385.747L392.947 737.216H386.083L379.603 732.224H383.203L376.723 737.216H369.907L377.059 729.488ZM437.072 770.624L434.24 771.056V740H442.16V776H431.84L408.8 744.944L411.584 744.512V776H403.712V740H414.272L437.072 770.624ZM461.79 740H469.95V776H461.79V740ZM490.59 740H498.75V776H490.59V740ZM466.254 754.208H494.19V761.36H466.254V754.208ZM535.894 754.88V761.12H510.118V754.88H535.894ZM515.59 758L513.19 773.264L509.638 769.232H537.382V776H504.982L507.766 758L504.982 740H537.142V746.768H509.638L513.19 742.736L515.59 758ZM522.166 786.848C520.726 786.848 519.542 786.464 518.614 785.696C517.718 784.96 517.27 783.968 517.27 782.72C517.27 781.44 517.718 780.416 518.614 779.648C519.542 778.912 520.726 778.544 522.166 778.544C523.638 778.544 524.822 778.912 525.718 779.648C526.614 780.416 527.062 781.44 527.062 782.72C527.062 783.968 526.614 784.96 525.718 785.696C524.822 786.464 523.638 786.848 522.166 786.848ZM516.934 729.488H525.622L532.822 737.216H525.958L519.478 732.224H523.078L516.598 737.216H509.782L516.934 729.488Z" fill="#24CBFF"/>
</svg>
