<svg width="100%" viewBox="0 0 375 812" fill="none" xmlns="http://www.w3.org/2000/svg">
<path d="M19.904 557V578.6L17.44 576.2H35.456V581H14.464V557H19.904ZM38.4953 557H43.9353V581H38.4953V557ZM68.679 566.92V571.08H51.495V566.92H68.679ZM55.143 569L53.543 579.176L51.175 576.488H69.671V581H48.071L49.927 569L48.071 557H69.511V561.512H51.175L53.543 558.824L55.143 569ZM56.039 549.992H61.831L66.631 555.144H62.055L57.735 551.816H60.135L55.815 555.144H51.271L56.039 549.992ZM96.0478 577.416L94.1598 577.704V557H99.4398V581H92.5598L77.1998 560.296L79.0558 560.008V581H73.8078V557H80.8478L96.0478 577.416ZM112.527 557H117.967V581H112.527V557ZM131.727 557H137.167V581H131.727V557ZM115.503 566.472H134.127V571.24H115.503V566.472ZM161.929 566.92V571.08H144.745V566.92H161.929ZM148.393 569L146.793 579.176L144.425 576.488H162.921V581H141.321L143.177 569L141.321 557H162.761V561.512H144.425L146.793 558.824L148.393 569ZM152.777 588.232C151.817 588.232 151.028 587.976 150.409 587.464C149.812 586.973 149.513 586.312 149.513 585.48C149.513 584.627 149.812 583.944 150.409 583.432C151.028 582.941 151.817 582.696 152.777 582.696C153.758 582.696 154.548 582.941 155.145 583.432C155.742 583.944 156.041 584.627 156.041 585.48C156.041 586.312 155.742 586.973 155.145 587.464C154.548 587.976 153.758 588.232 152.777 588.232ZM149.289 549.992H155.081L159.881 555.144H155.305L150.985 551.816H153.385L149.065 555.144H144.521L149.289 549.992Z" fill="#24CBFF"/>
</svg>
