<svg width="100%" viewBox="0 0 1296 223" fill="none" xmlns="http://www.w3.org/2000/svg">
<path d="M7.824 7.464H10.992V24H7.824V7.464ZM0.384 6H18.432V8.784H0.384V6ZM20.8363 6H24.0043V24H20.8363V6ZM35.4763 6H38.6443V24H35.4763V6ZM22.5403 13.536H36.9883V16.32H22.5403V13.536ZM52.0401 24.336C49.9921 24.336 48.1921 23.944 46.6401 23.16C45.0881 22.376 43.8801 21.288 43.0161 19.896C42.1521 18.488 41.7201 16.856 41.7201 15C41.7201 13.144 42.1521 11.52 43.0161 10.128C43.8801 8.72 45.0881 7.624 46.6401 6.84C48.1921 6.056 49.9921 5.664 52.0401 5.664C54.0881 5.664 55.8881 6.056 57.4401 6.84C58.9921 7.624 60.2001 8.72 61.0641 10.128C61.9281 11.52 62.3601 13.144 62.3601 15C62.3601 16.856 61.9281 18.488 61.0641 19.896C60.2001 21.288 58.9921 22.376 57.4401 23.16C55.8881 23.944 54.0881 24.336 52.0401 24.336ZM52.0401 21.504C53.4961 21.504 54.7521 21.24 55.8081 20.712C56.8641 20.184 57.6801 19.432 58.2561 18.456C58.8481 17.48 59.1441 16.328 59.1441 15C59.1441 13.672 58.8481 12.52 58.2561 11.544C57.6801 10.568 56.8641 9.816 55.8081 9.288C54.7521 8.76 53.4961 8.496 52.0401 8.496C50.6001 8.496 49.3441 8.76 48.2721 9.288C47.2161 9.816 46.3921 10.568 45.8001 11.544C45.2241 12.52 44.9361 13.672 44.9361 15C44.9361 16.328 45.2241 17.48 45.8001 18.456C46.3921 19.432 47.2161 20.184 48.2721 20.712C49.3441 21.24 50.6001 21.504 52.0401 21.504ZM50.2641 0.887999H53.7681L57.3201 4.536H54.4641L51.3441 2.04H52.6881L49.5681 4.536H46.7361L50.2641 0.887999ZM82.1179 22.08L80.8219 22.224V6H83.8939V24H79.8619L67.2379 7.776L68.5099 7.632V24H65.4379V6H69.5659L82.1179 22.08ZM105.938 16.176C105.922 17.296 105.706 18.352 105.29 19.344C104.874 20.32 104.282 21.184 103.514 21.936C102.746 22.688 101.81 23.28 100.706 23.712C99.6184 24.128 98.3704 24.336 96.9624 24.336C95.5384 24.336 94.2184 24.12 93.0024 23.688C91.7864 23.256 90.7224 22.64 89.8104 21.84C88.9144 21.024 88.2184 20.04 87.7224 18.888C87.2264 17.736 86.9784 16.44 86.9784 15C86.9784 13.56 87.2264 12.264 87.7224 11.112C88.2344 9.96 88.9464 8.984 89.8584 8.184C90.7704 7.368 91.8424 6.744 93.0744 6.312C94.3064 5.88 95.6584 5.664 97.1304 5.664C98.9704 5.664 100.578 5.968 101.954 6.576C103.346 7.168 104.466 7.984 105.314 9.024C106.162 10.064 106.682 11.256 106.874 12.6H103.658C103.482 11.752 103.098 11.016 102.506 10.392C101.93 9.768 101.186 9.288 100.274 8.952C99.3624 8.616 98.3064 8.448 97.1064 8.448C95.6984 8.448 94.4744 8.712 93.4344 9.24C92.4104 9.752 91.6104 10.496 91.0344 11.472C90.4744 12.448 90.1944 13.624 90.1944 15C90.1944 16.376 90.4824 17.56 91.0584 18.552C91.6504 19.544 92.4824 20.304 93.5544 20.832C94.6264 21.36 95.8904 21.624 97.3464 21.624C98.7544 21.624 99.9864 21.384 101.042 20.904C102.098 20.424 102.93 19.76 103.538 18.912C104.146 18.048 104.474 17.048 104.522 15.912L105.938 16.176ZM97.9704 17.544V15.144H107.066V24H104.714L104.33 16.536L105.074 17.544H97.9704ZM121.941 7.464H125.109V24H121.941V7.464ZM114.501 6H132.549V8.784H114.501V6ZM134.954 6H138.122V24H134.954V6ZM158.829 22.08L157.533 22.224V6H160.605V24H156.573L143.949 7.776L145.221 7.632V24H142.149V6H146.277L158.829 22.08ZM174.145 6V22.584L172.729 21.216H186.289V24H170.977V6H174.145ZM188.696 6H191.864V24H188.696V6ZM210.267 13.68V16.32H197.691V13.68H210.267ZM199.779 15L198.507 23.04L196.995 21.264H210.963V24H195.267L196.707 15L195.267 6H210.843V8.736H196.995L198.507 6.96L199.779 15ZM201.387 0.887999H204.891L208.443 4.536H205.587L202.467 2.04H203.811L200.691 4.536H197.859L201.387 0.887999ZM230.946 22.08L229.65 22.224V6H232.722V24H228.69L216.066 7.776L217.338 7.632V24H214.266V6H218.394L230.946 22.08ZM243.094 6H246.262V24H243.094V6ZM257.734 6H260.902V24H257.734V6ZM244.798 13.536H259.246V16.32H244.798V13.536ZM279.314 13.68V16.32H266.738V13.68H279.314ZM268.826 15L267.554 23.04L266.042 21.264H280.01V24H264.314L265.754 15L264.314 6H279.89V8.736H266.042L267.554 6.96L268.826 15ZM272.714 28.944C272.122 28.944 271.634 28.776 271.25 28.44C270.866 28.12 270.674 27.696 270.674 27.168C270.674 26.64 270.866 26.208 271.25 25.872C271.634 25.552 272.122 25.392 272.714 25.392C273.322 25.392 273.81 25.552 274.178 25.872C274.562 26.208 274.754 26.64 274.754 27.168C274.754 27.696 274.562 28.12 274.178 28.44C273.81 28.776 273.322 28.944 272.714 28.944ZM270.434 0.887999H273.938L277.49 4.536H274.634L271.514 2.04H272.858L269.738 4.536H266.906L270.434 0.887999Z" fill="#24CBFF"/>
<rect x="0.5" y="70.5" width="1295" height="152" rx="19.5" stroke="url(#paint0_linear_0_1)"/>
<path d="M37.0455 117H34.1705V115.466H36.9489C37.8352 115.466 38.572 115.299 39.1591 114.966C39.7462 114.629 40.1856 114.142 40.4773 113.506C40.7689 112.866 40.9148 112.085 40.9148 111.165C40.9148 110.252 40.7689 109.477 40.4773 108.841C40.1894 108.205 39.7595 107.722 39.1875 107.392C38.6155 107.062 37.9053 106.898 37.0568 106.898H34.108V105.364H37.1648C38.3049 105.364 39.2841 105.597 40.1023 106.062C40.9205 106.525 41.5473 107.189 41.983 108.057C42.4223 108.92 42.642 109.956 42.642 111.165C42.642 112.377 42.4205 113.419 41.9773 114.29C41.5379 115.161 40.9015 115.831 40.0682 116.301C39.2348 116.767 38.2273 117 37.0455 117ZM35.0341 105.364V117H33.2784V105.364H35.0341ZM31.5398 111.54V110.369H36.7614V111.54H31.5398ZM44.6889 117V108.273H46.3878V117H44.6889ZM45.5469 106.926C45.2514 106.926 44.9976 106.828 44.7855 106.631C44.5772 106.43 44.473 106.191 44.473 105.915C44.473 105.634 44.5772 105.396 44.7855 105.199C44.9976 104.998 45.2514 104.898 45.5469 104.898C45.8423 104.898 46.0942 104.998 46.3026 105.199C46.5147 105.396 46.6207 105.634 46.6207 105.915C46.6207 106.191 46.5147 106.43 46.3026 106.631C46.0942 106.828 45.8423 106.926 45.5469 106.926ZM45.5526 120.011C45.2609 120.011 45.009 119.913 44.7969 119.716C44.5848 119.519 44.4787 119.28 44.4787 119C44.4787 118.72 44.5848 118.481 44.7969 118.284C45.009 118.087 45.2609 117.989 45.5526 117.989C45.848 117.989 46.0999 118.087 46.3082 118.284C46.5204 118.481 46.6264 118.72 46.6264 119C46.6264 119.28 46.5204 119.519 46.3082 119.716C46.0999 119.913 45.848 120.011 45.5526 120.011ZM51.2131 117.193C50.66 117.193 50.16 117.091 49.7131 116.886C49.2661 116.678 48.9119 116.377 48.6506 115.983C48.393 115.589 48.2642 115.106 48.2642 114.534C48.2642 114.042 48.3589 113.636 48.5483 113.318C48.7377 113 48.9934 112.748 49.3153 112.562C49.6373 112.377 49.9972 112.237 50.3949 112.142C50.7926 112.047 51.1979 111.975 51.6108 111.926C52.1335 111.866 52.5578 111.816 52.8835 111.778C53.2093 111.737 53.446 111.67 53.5938 111.58C53.7415 111.489 53.8153 111.341 53.8153 111.136V111.097C53.8153 110.6 53.6752 110.216 53.3949 109.943C53.1184 109.67 52.7055 109.534 52.1562 109.534C51.5843 109.534 51.1335 109.661 50.804 109.915C50.4782 110.165 50.2528 110.443 50.1278 110.75L48.5312 110.386C48.7206 109.856 48.9972 109.428 49.3608 109.102C49.7282 108.773 50.1506 108.534 50.6278 108.386C51.1051 108.235 51.607 108.159 52.1335 108.159C52.482 108.159 52.8513 108.201 53.2415 108.284C53.6354 108.364 54.0028 108.511 54.3438 108.727C54.6884 108.943 54.9706 109.252 55.1903 109.653C55.41 110.051 55.5199 110.568 55.5199 111.205V117H53.8608V115.807H53.7926C53.6828 116.027 53.518 116.242 53.2983 116.455C53.0786 116.667 52.7964 116.843 52.4517 116.983C52.107 117.123 51.6941 117.193 51.2131 117.193ZM51.5824 115.83C52.0521 115.83 52.4536 115.737 52.7869 115.551C53.1241 115.366 53.3797 115.123 53.554 114.824C53.732 114.521 53.821 114.197 53.821 113.852V112.727C53.7604 112.788 53.643 112.845 53.4688 112.898C53.2983 112.947 53.1032 112.991 52.8835 113.028C52.6638 113.062 52.4498 113.095 52.2415 113.125C52.0331 113.152 51.8589 113.174 51.7188 113.193C51.3892 113.235 51.0881 113.305 50.8153 113.403C50.5464 113.502 50.3305 113.644 50.1676 113.83C50.0085 114.011 49.929 114.254 49.929 114.557C49.929 114.977 50.0843 115.295 50.3949 115.511C50.7055 115.723 51.1013 115.83 51.5824 115.83ZM65.6932 117.176C64.8485 117.176 64.1212 116.985 63.5114 116.602C62.9053 116.216 62.4394 115.684 62.1136 115.006C61.7879 114.328 61.625 113.551 61.625 112.676C61.625 111.79 61.7917 111.008 62.125 110.33C62.4583 109.648 62.928 109.116 63.5341 108.733C64.1402 108.35 64.8542 108.159 65.6761 108.159C66.339 108.159 66.9299 108.282 67.4489 108.528C67.9678 108.771 68.3864 109.112 68.7045 109.551C69.0265 109.991 69.2178 110.504 69.2784 111.091H67.625C67.5341 110.682 67.3258 110.33 67 110.034C66.678 109.739 66.2462 109.591 65.7045 109.591C65.2311 109.591 64.8163 109.716 64.4602 109.966C64.108 110.212 63.8333 110.564 63.6364 111.023C63.4394 111.477 63.3409 112.015 63.3409 112.636C63.3409 113.273 63.4375 113.822 63.6307 114.284C63.8239 114.746 64.0966 115.104 64.4489 115.358C64.8049 115.612 65.2235 115.739 65.7045 115.739C66.0265 115.739 66.3182 115.68 66.5795 115.562C66.8447 115.441 67.0663 115.269 67.2443 115.045C67.4261 114.822 67.553 114.553 67.625 114.239H69.2784C69.2178 114.803 69.0341 115.307 68.7273 115.75C68.4205 116.193 68.0095 116.542 67.4943 116.795C66.983 117.049 66.3826 117.176 65.6932 117.176ZM72.794 111.818V117H71.0952V105.364H72.7713V109.693H72.8793C73.0838 109.223 73.3963 108.85 73.8168 108.574C74.2372 108.297 74.7865 108.159 75.4645 108.159C76.063 108.159 76.5857 108.282 77.0327 108.528C77.4834 108.775 77.8319 109.142 78.0781 109.631C78.3281 110.116 78.4531 110.722 78.4531 111.449V117H76.7543V111.653C76.7543 111.013 76.5895 110.517 76.2599 110.165C75.9304 109.809 75.4721 109.631 74.8849 109.631C74.4834 109.631 74.1236 109.716 73.8054 109.886C73.491 110.057 73.2429 110.307 73.0611 110.636C72.883 110.962 72.794 111.356 72.794 111.818ZM80.7202 117V108.273H82.419V117H80.7202ZM82.2713 107.068H80.9304L80.8849 105.909C81.2865 105.89 81.5705 105.837 81.7372 105.75C81.9039 105.659 81.9853 105.528 81.9815 105.358C81.9853 105.153 81.8698 105.008 81.6349 104.92C81.4039 104.833 81.1217 104.79 80.7884 104.79L80.8395 103.852C81.6993 103.852 82.3509 103.989 82.794 104.261C83.241 104.534 83.4626 104.902 83.4588 105.364C83.4626 105.739 83.3395 106.015 83.0895 106.193C82.8433 106.367 82.5705 106.477 82.2713 106.523V107.068ZM85.8239 117.108C85.5133 117.108 85.2462 116.998 85.0227 116.778C84.7992 116.555 84.6875 116.286 84.6875 115.972C84.6875 115.661 84.7992 115.396 85.0227 115.176C85.2462 114.953 85.5133 114.841 85.8239 114.841C86.1345 114.841 86.4015 114.953 86.625 115.176C86.8485 115.396 86.9602 115.661 86.9602 115.972C86.9602 116.18 86.9072 116.371 86.8011 116.545C86.6989 116.716 86.5625 116.852 86.392 116.955C86.2216 117.057 86.0322 117.108 85.8239 117.108ZM85.8239 110.756C85.5133 110.756 85.2462 110.644 85.0227 110.42C84.7992 110.197 84.6875 109.93 84.6875 109.619C84.6875 109.309 84.7992 109.044 85.0227 108.824C85.2462 108.6 85.5133 108.489 85.8239 108.489C86.1345 108.489 86.4015 108.6 86.625 108.824C86.8485 109.044 86.9602 109.309 86.9602 109.619C86.9602 109.828 86.9072 110.019 86.8011 110.193C86.6989 110.364 86.5625 110.5 86.392 110.602C86.2216 110.705 86.0322 110.756 85.8239 110.756Z" fill="white"/>
<path d="M155.864 108.273C155.799 107.625 155.513 107.11 155.006 106.727C154.498 106.345 153.86 106.153 153.091 106.153C152.549 106.153 152.072 106.246 151.659 106.432C151.25 106.617 150.928 106.875 150.693 107.205C150.462 107.53 150.347 107.902 150.347 108.318C150.347 108.625 150.413 108.894 150.545 109.125C150.678 109.356 150.856 109.555 151.08 109.722C151.307 109.884 151.557 110.025 151.83 110.142C152.106 110.259 152.384 110.358 152.665 110.438L153.892 110.79C154.263 110.892 154.634 111.023 155.006 111.182C155.377 111.341 155.716 111.542 156.023 111.784C156.333 112.023 156.581 112.316 156.767 112.665C156.956 113.009 157.051 113.424 157.051 113.909C157.051 114.53 156.89 115.089 156.568 115.585C156.246 116.081 155.784 116.475 155.182 116.767C154.58 117.055 153.858 117.199 153.017 117.199C152.225 117.199 151.538 117.068 150.955 116.807C150.371 116.542 149.913 116.176 149.58 115.71C149.246 115.244 149.059 114.705 149.017 114.091H150.108C150.146 114.549 150.297 114.937 150.562 115.256C150.828 115.574 151.172 115.816 151.597 115.983C152.021 116.146 152.494 116.227 153.017 116.227C153.597 116.227 154.112 116.131 154.562 115.938C155.017 115.741 155.373 115.468 155.631 115.119C155.892 114.767 156.023 114.358 156.023 113.892C156.023 113.498 155.92 113.169 155.716 112.903C155.511 112.634 155.225 112.409 154.858 112.227C154.494 112.045 154.072 111.884 153.591 111.744L152.199 111.335C151.286 111.062 150.578 110.686 150.074 110.205C149.57 109.723 149.318 109.11 149.318 108.364C149.318 107.739 149.485 107.189 149.818 106.716C150.155 106.239 150.61 105.867 151.182 105.602C151.758 105.333 152.403 105.199 153.119 105.199C153.843 105.199 154.483 105.331 155.04 105.597C155.597 105.862 156.038 106.227 156.364 106.693C156.693 107.155 156.869 107.682 156.892 108.273H155.864ZM162.79 117.182C162.036 117.182 161.369 116.991 160.79 116.608C160.214 116.225 159.763 115.697 159.438 115.023C159.112 114.345 158.949 113.562 158.949 112.676C158.949 111.782 159.112 110.996 159.438 110.318C159.763 109.636 160.214 109.106 160.79 108.727C161.369 108.345 162.036 108.153 162.79 108.153C163.544 108.153 164.208 108.345 164.784 108.727C165.36 109.11 165.811 109.64 166.136 110.318C166.466 110.996 166.631 111.782 166.631 112.676C166.631 113.562 166.468 114.345 166.142 115.023C165.816 115.697 165.364 116.225 164.784 116.608C164.208 116.991 163.544 117.182 162.79 117.182ZM162.79 116.256C163.396 116.256 163.909 116.093 164.33 115.767C164.75 115.441 165.068 115.008 165.284 114.466C165.504 113.924 165.614 113.328 165.614 112.676C165.614 112.025 165.504 111.426 165.284 110.881C165.068 110.335 164.75 109.898 164.33 109.568C163.909 109.239 163.396 109.074 162.79 109.074C162.188 109.074 161.674 109.239 161.25 109.568C160.83 109.898 160.509 110.335 160.29 110.881C160.074 111.426 159.966 112.025 159.966 112.676C159.966 113.328 160.074 113.924 160.29 114.466C160.509 115.008 160.83 115.441 161.25 115.767C161.67 116.093 162.184 116.256 162.79 116.256ZM160.131 107.114L162.386 105.006H163.25L165.511 107.114H164.261L162.83 105.727L161.398 107.114H160.131ZM165.057 105.716L166.25 103.688H167.511L165.966 105.716H165.057ZM173.033 114.5V113.636L178.22 105.364H178.857V106.812H178.385L174.22 113.472V113.545H181.021V114.5H173.033ZM178.464 117V114.227V113.83V105.364H179.476V117H178.464ZM184.501 115.409L184.399 116.017C184.335 116.426 184.244 116.877 184.126 117.369C184.009 117.862 183.888 118.33 183.763 118.773C183.638 119.216 183.53 119.572 183.439 119.841H182.661C182.71 119.583 182.772 119.256 182.848 118.858C182.928 118.46 183.009 118.019 183.092 117.534C183.176 117.053 183.251 116.557 183.32 116.045L183.399 115.409H184.501ZM195.298 117H192.48V116.045H195.236C196.236 116.045 197.073 115.848 197.747 115.455C198.421 115.061 198.927 114.498 199.264 113.767C199.601 113.036 199.77 112.165 199.77 111.153C199.766 110.15 199.599 109.286 199.27 108.562C198.944 107.839 198.459 107.284 197.815 106.898C197.175 106.511 196.384 106.318 195.44 106.318H192.435V105.364H195.503C196.613 105.364 197.562 105.595 198.349 106.057C199.141 106.519 199.747 107.182 200.168 108.045C200.588 108.909 200.798 109.945 200.798 111.153C200.798 112.373 200.582 113.42 200.151 114.295C199.723 115.167 199.098 115.835 198.276 116.301C197.457 116.767 196.465 117 195.298 117ZM192.952 105.364V117H191.889V105.364H192.952ZM190.031 111.438V110.619H194.804V111.438H190.031ZM210.737 107.915H211.646C211.646 108.46 211.574 108.915 211.43 109.278C211.29 109.638 211.052 109.909 210.714 110.091C210.381 110.273 209.921 110.364 209.334 110.364V109.619C209.754 109.619 210.063 109.562 210.26 109.449C210.461 109.331 210.589 109.148 210.646 108.898C210.707 108.644 210.737 108.316 210.737 107.915ZM208.686 113.665V108.273H209.697V117H208.686V115.551H208.607C208.402 115.998 208.078 116.371 207.635 116.67C207.192 116.966 206.65 117.114 206.01 117.114C205.453 117.114 204.959 116.992 204.527 116.75C204.095 116.504 203.756 116.144 203.51 115.67C203.264 115.197 203.141 114.616 203.141 113.926V108.273H204.152V113.864C204.152 114.545 204.353 115.095 204.754 115.511C205.156 115.924 205.671 116.131 206.3 116.131C206.694 116.131 207.072 116.036 207.436 115.847C207.8 115.657 208.099 115.381 208.334 115.017C208.569 114.65 208.686 114.199 208.686 113.665ZM219.642 107.562H220.597C220.597 108.366 220.426 108.998 220.085 109.46C219.748 109.919 219.163 110.155 218.33 110.17V109.415C218.697 109.403 218.973 109.324 219.159 109.176C219.348 109.025 219.475 108.812 219.54 108.54C219.608 108.267 219.642 107.941 219.642 107.562ZM216.04 117.182C215.286 117.182 214.619 116.991 214.04 116.608C213.464 116.225 213.013 115.697 212.688 115.023C212.362 114.345 212.199 113.562 212.199 112.676C212.199 111.782 212.362 110.996 212.688 110.318C213.013 109.636 213.464 109.106 214.04 108.727C214.619 108.345 215.286 108.153 216.04 108.153C216.794 108.153 217.458 108.345 218.034 108.727C218.61 109.11 219.061 109.64 219.386 110.318C219.716 110.996 219.881 111.782 219.881 112.676C219.881 113.562 219.718 114.345 219.392 115.023C219.066 115.697 218.614 116.225 218.034 116.608C217.458 116.991 216.794 117.182 216.04 117.182ZM216.04 116.256C216.646 116.256 217.159 116.093 217.58 115.767C218 115.441 218.318 115.008 218.534 114.466C218.754 113.924 218.864 113.328 218.864 112.676C218.864 112.025 218.754 111.426 218.534 110.881C218.318 110.335 218 109.898 217.58 109.568C217.159 109.239 216.646 109.074 216.04 109.074C215.438 109.074 214.924 109.239 214.5 109.568C214.08 109.898 213.759 110.335 213.54 110.881C213.324 111.426 213.216 112.025 213.216 112.676C213.216 113.328 213.324 113.924 213.54 114.466C213.759 115.008 214.08 115.441 214.5 115.767C214.92 116.093 215.434 116.256 216.04 116.256ZM215.608 107.062L213.864 104.483H215.062L216.517 107.062H215.608ZM223.05 111.545V117H222.038V108.273H223.021V109.642H223.112C223.317 109.195 223.635 108.837 224.067 108.568C224.502 108.295 225.04 108.159 225.68 108.159C226.268 108.159 226.783 108.282 227.226 108.528C227.673 108.771 228.019 109.129 228.266 109.602C228.516 110.076 228.641 110.657 228.641 111.347V117H227.629V111.409C227.629 110.693 227.429 110.127 227.027 109.71C226.629 109.294 226.095 109.085 225.425 109.085C224.966 109.085 224.559 109.184 224.203 109.381C223.847 109.578 223.565 109.862 223.357 110.233C223.152 110.6 223.05 111.038 223.05 111.545ZM234.634 120.455C234.039 120.455 233.518 120.377 233.071 120.222C232.624 120.07 232.247 119.862 231.94 119.597C231.634 119.331 231.395 119.034 231.224 118.705L232.054 118.159C232.179 118.379 232.346 118.595 232.554 118.807C232.766 119.019 233.041 119.195 233.378 119.335C233.719 119.475 234.137 119.545 234.634 119.545C235.406 119.545 236.029 119.352 236.503 118.966C236.98 118.58 237.219 117.979 237.219 117.165V115.199H237.128C237.01 115.464 236.842 115.729 236.622 115.994C236.402 116.256 236.115 116.473 235.759 116.648C235.406 116.822 234.969 116.909 234.446 116.909C233.749 116.909 233.13 116.737 232.588 116.392C232.05 116.047 231.626 115.555 231.315 114.915C231.009 114.271 230.855 113.504 230.855 112.614C230.855 111.731 231.005 110.955 231.304 110.284C231.607 109.614 232.029 109.091 232.571 108.716C233.113 108.341 233.743 108.153 234.463 108.153C234.997 108.153 235.44 108.248 235.793 108.438C236.145 108.623 236.427 108.854 236.639 109.131C236.855 109.407 237.024 109.676 237.145 109.938H237.247V108.273H238.236V117.227C238.236 117.966 238.079 118.574 237.764 119.051C237.45 119.528 237.022 119.881 236.48 120.108C235.938 120.339 235.323 120.455 234.634 120.455ZM234.565 115.983C235.126 115.983 235.605 115.848 236.003 115.58C236.401 115.307 236.705 114.917 236.918 114.409C237.13 113.902 237.236 113.297 237.236 112.597C237.236 111.915 237.132 111.311 236.923 110.784C236.715 110.254 236.412 109.837 236.014 109.534C235.62 109.227 235.137 109.074 234.565 109.074C233.982 109.074 233.49 109.231 233.088 109.545C232.687 109.86 232.384 110.284 232.179 110.818C231.974 111.348 231.872 111.941 231.872 112.597C231.872 113.263 231.976 113.852 232.185 114.364C232.393 114.871 232.698 115.269 233.099 115.557C233.501 115.841 233.99 115.983 234.565 115.983ZM249.152 117.159C248.436 117.159 247.796 117.03 247.232 116.773C246.667 116.511 246.22 116.15 245.891 115.688C245.561 115.225 245.387 114.693 245.368 114.091H246.442C246.461 114.515 246.591 114.886 246.834 115.205C247.076 115.519 247.398 115.765 247.8 115.943C248.201 116.117 248.648 116.205 249.141 116.205C249.679 116.205 250.152 116.104 250.561 115.903C250.974 115.703 251.296 115.428 251.527 115.08C251.762 114.727 251.879 114.33 251.879 113.886C251.879 113.417 251.76 113.002 251.521 112.642C251.283 112.282 250.94 112.002 250.493 111.801C250.05 111.6 249.519 111.5 248.902 111.5H248.22V110.545H248.902C249.406 110.545 249.851 110.455 250.237 110.273C250.627 110.087 250.934 109.828 251.158 109.494C251.381 109.161 251.493 108.769 251.493 108.318C251.493 107.89 251.396 107.513 251.203 107.188C251.01 106.862 250.737 106.606 250.385 106.42C250.036 106.235 249.629 106.142 249.163 106.142C248.713 106.142 248.3 106.229 247.925 106.403C247.55 106.578 247.247 106.824 247.016 107.142C246.788 107.46 246.667 107.837 246.652 108.273H245.624C245.639 107.667 245.805 107.134 246.124 106.676C246.446 106.214 246.872 105.854 247.402 105.597C247.936 105.335 248.527 105.205 249.175 105.205C249.86 105.205 250.453 105.345 250.953 105.625C251.453 105.905 251.839 106.278 252.112 106.744C252.389 107.206 252.527 107.716 252.527 108.273C252.527 108.936 252.347 109.504 251.987 109.977C251.627 110.447 251.143 110.773 250.533 110.955V111.028C251.275 111.176 251.858 111.506 252.283 112.017C252.711 112.525 252.925 113.148 252.925 113.886C252.925 114.508 252.762 115.066 252.436 115.562C252.11 116.055 251.663 116.445 251.095 116.733C250.531 117.017 249.883 117.159 249.152 117.159ZM259.05 117.159C258.232 117.159 257.533 116.924 256.953 116.455C256.377 115.981 255.934 115.297 255.624 114.403C255.317 113.509 255.163 112.436 255.163 111.182C255.163 109.932 255.317 108.862 255.624 107.972C255.934 107.078 256.379 106.394 256.959 105.92C257.542 105.443 258.239 105.205 259.05 105.205C259.86 105.205 260.555 105.443 261.135 105.92C261.718 106.394 262.163 107.078 262.47 107.972C262.781 108.862 262.936 109.932 262.936 111.182C262.936 112.436 262.781 113.509 262.47 114.403C262.163 115.297 261.72 115.981 261.141 116.455C260.565 116.924 259.868 117.159 259.05 117.159ZM259.05 116.205C259.947 116.205 260.648 115.767 261.152 114.892C261.656 114.013 261.908 112.777 261.908 111.182C261.908 110.121 261.792 109.216 261.561 108.466C261.334 107.712 261.006 107.136 260.578 106.739C260.154 106.341 259.644 106.142 259.05 106.142C258.16 106.142 257.461 106.585 256.953 107.472C256.446 108.354 256.192 109.591 256.192 111.182C256.192 112.242 256.305 113.148 256.533 113.898C256.764 114.648 257.091 115.22 257.516 115.614C257.944 116.008 258.455 116.205 259.05 116.205ZM269.067 104.818L265.317 118.75H264.368L268.118 104.818H269.067ZM270.501 114.5V113.636L275.689 105.364H276.325V106.812H275.854L271.689 113.472V113.545H278.49V114.5H270.501ZM275.933 117V114.227V113.83V105.364H276.945V117H275.933ZM281.97 115.409L281.868 116.017C281.804 116.426 281.713 116.877 281.595 117.369C281.478 117.862 281.357 118.33 281.232 118.773C281.107 119.216 280.999 119.572 280.908 119.841H280.129C280.179 119.583 280.241 119.256 280.317 118.858C280.396 118.46 280.478 118.019 280.561 117.534C280.644 117.053 280.72 116.557 280.788 116.045L280.868 115.409H281.97ZM289.358 117V105.364H293.114C293.939 105.364 294.629 105.523 295.182 105.841C295.739 106.155 296.157 106.583 296.438 107.125C296.722 107.667 296.864 108.277 296.864 108.955C296.864 109.633 296.723 110.244 296.443 110.79C296.163 111.331 295.746 111.761 295.193 112.08C294.64 112.394 293.953 112.551 293.131 112.551H290.176V111.597H293.102C293.712 111.597 294.218 111.483 294.619 111.256C295.021 111.025 295.32 110.71 295.517 110.312C295.718 109.915 295.818 109.462 295.818 108.955C295.818 108.447 295.718 107.994 295.517 107.597C295.32 107.199 295.019 106.886 294.614 106.659C294.212 106.432 293.703 106.318 293.085 106.318H290.42V117H289.358ZM300.159 111.545V117H299.148V105.364H300.159V109.642H300.25C300.455 109.191 300.771 108.831 301.199 108.562C301.631 108.294 302.176 108.159 302.835 108.159C303.426 108.159 303.945 108.28 304.392 108.523C304.839 108.765 305.188 109.123 305.438 109.597C305.688 110.07 305.812 110.653 305.812 111.347V117H304.795V111.409C304.795 110.689 304.595 110.123 304.193 109.71C303.795 109.294 303.258 109.085 302.58 109.085C302.114 109.085 301.699 109.184 301.335 109.381C300.972 109.578 300.684 109.862 300.472 110.233C300.263 110.6 300.159 111.038 300.159 111.545ZM316.05 107.915H316.959C316.959 108.46 316.887 108.915 316.743 109.278C316.603 109.638 316.364 109.909 316.027 110.091C315.694 110.273 315.233 110.364 314.646 110.364V109.619C315.067 109.619 315.375 109.562 315.572 109.449C315.773 109.331 315.902 109.148 315.959 108.898C316.019 108.644 316.05 108.316 316.05 107.915ZM313.999 113.665V108.273H315.01V117H313.999V115.551H313.919C313.714 115.998 313.391 116.371 312.947 116.67C312.504 116.966 311.963 117.114 311.322 117.114C310.766 117.114 310.271 116.992 309.839 116.75C309.408 116.504 309.069 116.144 308.822 115.67C308.576 115.197 308.453 114.616 308.453 113.926V108.273H309.464V113.864C309.464 114.545 309.665 115.095 310.067 115.511C310.468 115.924 310.983 116.131 311.612 116.131C312.006 116.131 312.385 116.036 312.749 115.847C313.112 115.657 313.411 115.381 313.646 115.017C313.881 114.65 313.999 114.199 313.999 113.665ZM324.955 107.562H325.909C325.909 108.366 325.739 108.998 325.398 109.46C325.061 109.919 324.475 110.155 323.642 110.17V109.415C324.009 109.403 324.286 109.324 324.472 109.176C324.661 109.025 324.788 108.812 324.852 108.54C324.92 108.267 324.955 107.941 324.955 107.562ZM321.352 117.182C320.598 117.182 319.932 116.991 319.352 116.608C318.777 116.225 318.326 115.697 318 115.023C317.674 114.345 317.511 113.562 317.511 112.676C317.511 111.782 317.674 110.996 318 110.318C318.326 109.636 318.777 109.106 319.352 108.727C319.932 108.345 320.598 108.153 321.352 108.153C322.106 108.153 322.771 108.345 323.347 108.727C323.922 109.11 324.373 109.64 324.699 110.318C325.028 110.996 325.193 111.782 325.193 112.676C325.193 113.562 325.03 114.345 324.705 115.023C324.379 115.697 323.926 116.225 323.347 116.608C322.771 116.991 322.106 117.182 321.352 117.182ZM321.352 116.256C321.958 116.256 322.472 116.093 322.892 115.767C323.313 115.441 323.631 115.008 323.847 114.466C324.066 113.924 324.176 113.328 324.176 112.676C324.176 112.025 324.066 111.426 323.847 110.881C323.631 110.335 323.313 109.898 322.892 109.568C322.472 109.239 321.958 109.074 321.352 109.074C320.75 109.074 320.237 109.239 319.812 109.568C319.392 109.898 319.072 110.335 318.852 110.881C318.636 111.426 318.528 112.025 318.528 112.676C318.528 113.328 318.636 113.924 318.852 114.466C319.072 115.008 319.392 115.441 319.812 115.767C320.233 116.093 320.746 116.256 321.352 116.256ZM320.92 107.062L319.176 104.483H320.375L321.83 107.062H320.92ZM328.362 111.545V117H327.351V108.273H328.334V109.642H328.425C328.629 109.195 328.947 108.837 329.379 108.568C329.815 108.295 330.353 108.159 330.993 108.159C331.58 108.159 332.095 108.282 332.538 108.528C332.985 108.771 333.332 109.129 333.578 109.602C333.828 110.076 333.953 110.657 333.953 111.347V117H332.942V111.409C332.942 110.693 332.741 110.127 332.339 109.71C331.942 109.294 331.408 109.085 330.737 109.085C330.279 109.085 329.872 109.184 329.516 109.381C329.16 109.578 328.877 109.862 328.669 110.233C328.464 110.6 328.362 111.038 328.362 111.545ZM339.946 120.455C339.351 120.455 338.83 120.377 338.384 120.222C337.937 120.07 337.56 119.862 337.253 119.597C336.946 119.331 336.707 119.034 336.537 118.705L337.366 118.159C337.491 118.379 337.658 118.595 337.866 118.807C338.079 119.019 338.353 119.195 338.69 119.335C339.031 119.475 339.45 119.545 339.946 119.545C340.719 119.545 341.342 119.352 341.815 118.966C342.293 118.58 342.531 117.979 342.531 117.165V115.199H342.44C342.323 115.464 342.154 115.729 341.935 115.994C341.715 116.256 341.427 116.473 341.071 116.648C340.719 116.822 340.281 116.909 339.759 116.909C339.062 116.909 338.442 116.737 337.901 116.392C337.363 116.047 336.938 115.555 336.628 114.915C336.321 114.271 336.168 113.504 336.168 112.614C336.168 111.731 336.317 110.955 336.616 110.284C336.92 109.614 337.342 109.091 337.884 108.716C338.425 108.341 339.056 108.153 339.776 108.153C340.31 108.153 340.753 108.248 341.105 108.438C341.457 108.623 341.74 108.854 341.952 109.131C342.168 109.407 342.336 109.676 342.457 109.938H342.56V108.273H343.548V117.227C343.548 117.966 343.391 118.574 343.077 119.051C342.762 119.528 342.334 119.881 341.793 120.108C341.251 120.339 340.635 120.455 339.946 120.455ZM339.878 115.983C340.438 115.983 340.918 115.848 341.315 115.58C341.713 115.307 342.018 114.917 342.23 114.409C342.442 113.902 342.548 113.297 342.548 112.597C342.548 111.915 342.444 111.311 342.236 110.784C342.027 110.254 341.724 109.837 341.327 109.534C340.933 109.227 340.45 109.074 339.878 109.074C339.295 109.074 338.802 109.231 338.401 109.545C337.999 109.86 337.696 110.284 337.491 110.818C337.287 111.348 337.185 111.941 337.185 112.597C337.185 113.263 337.289 113.852 337.497 114.364C337.705 114.871 338.01 115.269 338.412 115.557C338.813 115.841 339.302 115.983 339.878 115.983ZM354.277 105.364V117H353.214V106.477H353.146L350.419 108.29V107.188L353.169 105.364H354.277ZM358.845 115.409L358.743 116.017C358.679 116.426 358.588 116.877 358.47 117.369C358.353 117.862 358.232 118.33 358.107 118.773C357.982 119.216 357.874 119.572 357.783 119.841H357.004C357.054 119.583 357.116 119.256 357.192 118.858C357.271 118.46 357.353 118.019 357.436 117.534C357.519 117.053 357.595 116.557 357.663 116.045L357.743 115.409H358.845ZM365.528 106.318V105.364H373.966V106.318H370.278V117H369.216V106.318H365.528ZM376.358 117V105.364H380.114C380.939 105.364 381.629 105.523 382.182 105.841C382.739 106.155 383.157 106.583 383.438 107.125C383.722 107.667 383.864 108.277 383.864 108.955C383.864 109.633 383.723 110.244 383.443 110.79C383.163 111.331 382.746 111.761 382.193 112.08C381.64 112.394 380.953 112.551 380.131 112.551H377.176V111.597H380.102C380.712 111.597 381.218 111.483 381.619 111.256C382.021 111.025 382.32 110.71 382.517 110.312C382.718 109.915 382.818 109.462 382.818 108.955C382.818 108.447 382.718 107.994 382.517 107.597C382.32 107.199 382.019 106.886 381.614 106.659C381.212 106.432 380.703 106.318 380.085 106.318H377.42V117H376.358ZM399.972 109H398.903C398.824 108.602 398.68 108.235 398.472 107.898C398.267 107.557 398.009 107.259 397.699 107.006C397.388 106.752 397.036 106.555 396.642 106.415C396.248 106.275 395.822 106.205 395.364 106.205C394.629 106.205 393.958 106.396 393.352 106.778C392.75 107.161 392.267 107.723 391.903 108.466C391.544 109.205 391.364 110.11 391.364 111.182C391.364 112.261 391.544 113.17 391.903 113.909C392.267 114.648 392.75 115.208 393.352 115.591C393.958 115.97 394.629 116.159 395.364 116.159C395.822 116.159 396.248 116.089 396.642 115.949C397.036 115.809 397.388 115.614 397.699 115.364C398.009 115.11 398.267 114.812 398.472 114.472C398.68 114.131 398.824 113.761 398.903 113.364H399.972C399.877 113.898 399.699 114.396 399.438 114.858C399.18 115.316 398.85 115.718 398.449 116.062C398.051 116.407 397.593 116.676 397.074 116.869C396.555 117.062 395.985 117.159 395.364 117.159C394.386 117.159 393.519 116.915 392.761 116.426C392.004 115.934 391.409 115.241 390.977 114.347C390.549 113.453 390.335 112.398 390.335 111.182C390.335 109.966 390.549 108.911 390.977 108.017C391.409 107.123 392.004 106.432 392.761 105.943C393.519 105.451 394.386 105.205 395.364 105.205C395.985 105.205 396.555 105.301 397.074 105.494C397.593 105.684 398.051 105.953 398.449 106.301C398.85 106.646 399.18 107.047 399.438 107.506C399.699 107.964 399.877 108.462 399.972 109ZM404.695 117.199C404.168 117.199 403.687 117.097 403.251 116.892C402.816 116.684 402.469 116.384 402.212 115.994C401.954 115.6 401.825 115.123 401.825 114.562C401.825 114.131 401.907 113.767 402.07 113.472C402.232 113.176 402.464 112.934 402.763 112.744C403.062 112.555 403.416 112.405 403.825 112.295C404.234 112.186 404.685 112.1 405.178 112.04C405.666 111.979 406.079 111.926 406.416 111.881C406.757 111.835 407.017 111.763 407.195 111.665C407.373 111.566 407.462 111.407 407.462 111.188V110.983C407.462 110.388 407.284 109.92 406.928 109.58C406.575 109.235 406.068 109.062 405.405 109.062C404.776 109.062 404.263 109.201 403.865 109.477C403.471 109.754 403.195 110.08 403.036 110.455L402.075 110.108C402.272 109.631 402.545 109.25 402.893 108.966C403.242 108.678 403.632 108.472 404.064 108.347C404.496 108.218 404.933 108.153 405.376 108.153C405.71 108.153 406.056 108.197 406.416 108.284C406.78 108.371 407.117 108.523 407.428 108.739C407.738 108.951 407.99 109.248 408.183 109.631C408.376 110.009 408.473 110.491 408.473 111.074V117H407.462V115.619H407.399C407.278 115.877 407.098 116.127 406.859 116.369C406.621 116.612 406.321 116.811 405.962 116.966C405.602 117.121 405.179 117.199 404.695 117.199ZM404.831 116.273C405.369 116.273 405.835 116.153 406.229 115.915C406.623 115.676 406.926 115.36 407.138 114.966C407.354 114.568 407.462 114.131 407.462 113.653V112.392C407.386 112.464 407.259 112.528 407.081 112.585C406.907 112.642 406.704 112.693 406.473 112.739C406.246 112.78 406.018 112.816 405.791 112.847C405.564 112.877 405.359 112.903 405.178 112.926C404.685 112.987 404.265 113.081 403.916 113.21C403.568 113.339 403.301 113.517 403.115 113.744C402.929 113.968 402.837 114.256 402.837 114.608C402.837 115.138 403.026 115.549 403.405 115.841C403.784 116.129 404.259 116.273 404.831 116.273ZM414.555 117.182C413.802 117.182 413.135 116.991 412.555 116.608C411.98 116.225 411.529 115.697 411.203 115.023C410.877 114.345 410.714 113.562 410.714 112.676C410.714 111.782 410.877 110.996 411.203 110.318C411.529 109.636 411.98 109.106 412.555 108.727C413.135 108.345 413.802 108.153 414.555 108.153C415.309 108.153 415.974 108.345 416.55 108.727C417.125 109.11 417.576 109.64 417.902 110.318C418.232 110.996 418.396 111.782 418.396 112.676C418.396 113.562 418.233 114.345 417.908 115.023C417.582 115.697 417.129 116.225 416.55 116.608C415.974 116.991 415.309 117.182 414.555 117.182ZM414.555 116.256C415.161 116.256 415.675 116.093 416.095 115.767C416.516 115.441 416.834 115.008 417.05 114.466C417.269 113.924 417.379 113.328 417.379 112.676C417.379 112.025 417.269 111.426 417.05 110.881C416.834 110.335 416.516 109.898 416.095 109.568C415.675 109.239 415.161 109.074 414.555 109.074C413.953 109.074 413.44 109.239 413.016 109.568C412.595 109.898 412.275 110.335 412.055 110.881C411.839 111.426 411.732 112.025 411.732 112.676C411.732 113.328 411.839 113.924 412.055 114.466C412.275 115.008 412.595 115.441 413.016 115.767C413.436 116.093 413.949 116.256 414.555 116.256ZM425.327 117V105.364H426.389V116.045H431.935V117H425.327ZM436.554 117.199C436.027 117.199 435.546 117.097 435.111 116.892C434.675 116.684 434.329 116.384 434.071 115.994C433.813 115.6 433.685 115.123 433.685 114.562C433.685 114.131 433.766 113.767 433.929 113.472C434.092 113.176 434.323 112.934 434.622 112.744C434.921 112.555 435.276 112.405 435.685 112.295C436.094 112.186 436.545 112.1 437.037 112.04C437.526 111.979 437.938 111.926 438.276 111.881C438.616 111.835 438.876 111.763 439.054 111.665C439.232 111.566 439.321 111.407 439.321 111.188V110.983C439.321 110.388 439.143 109.92 438.787 109.58C438.435 109.235 437.927 109.062 437.264 109.062C436.635 109.062 436.122 109.201 435.724 109.477C435.33 109.754 435.054 110.08 434.895 110.455L433.935 110.108C434.132 109.631 434.404 109.25 434.753 108.966C435.101 108.678 435.491 108.472 435.923 108.347C436.355 108.218 436.793 108.153 437.236 108.153C437.569 108.153 437.916 108.197 438.276 108.284C438.639 108.371 438.976 108.523 439.287 108.739C439.598 108.951 439.849 109.248 440.043 109.631C440.236 110.009 440.332 110.491 440.332 111.074V117H439.321V115.619H439.259C439.137 115.877 438.957 116.127 438.719 116.369C438.48 116.612 438.181 116.811 437.821 116.966C437.461 117.121 437.039 117.199 436.554 117.199ZM436.69 116.273C437.228 116.273 437.694 116.153 438.088 115.915C438.482 115.676 438.785 115.36 438.997 114.966C439.213 114.568 439.321 114.131 439.321 113.653V112.392C439.245 112.464 439.118 112.528 438.94 112.585C438.766 112.642 438.563 112.693 438.332 112.739C438.105 112.78 437.878 112.816 437.651 112.847C437.423 112.877 437.219 112.903 437.037 112.926C436.545 112.987 436.124 113.081 435.776 113.21C435.427 113.339 435.16 113.517 434.974 113.744C434.789 113.968 434.696 114.256 434.696 114.608C434.696 115.138 434.885 115.549 435.264 115.841C435.643 116.129 436.118 116.273 436.69 116.273ZM435.406 107.068L434.588 107.023C434.607 106.519 434.774 106.106 435.088 105.784C435.402 105.462 435.787 105.301 436.241 105.301C436.473 105.301 436.675 105.343 436.849 105.426C437.024 105.506 437.187 105.598 437.338 105.705C437.493 105.807 437.651 105.898 437.81 105.977C437.973 106.057 438.156 106.097 438.361 106.097C438.592 106.097 438.793 106.013 438.963 105.847C439.137 105.68 439.236 105.473 439.259 105.227L440.06 105.318C440.033 105.826 439.861 106.233 439.543 106.54C439.228 106.843 438.849 106.994 438.406 106.994C438.152 106.994 437.938 106.955 437.764 106.875C437.594 106.792 437.438 106.699 437.298 106.597C437.162 106.491 437.014 106.398 436.855 106.318C436.7 106.239 436.51 106.199 436.287 106.199C436.045 106.199 435.84 106.282 435.673 106.449C435.51 106.616 435.421 106.822 435.406 107.068ZM444.034 111.545V117H443.023V108.273H444.006V109.642H444.097C444.301 109.195 444.619 108.837 445.051 108.568C445.487 108.295 446.025 108.159 446.665 108.159C447.252 108.159 447.767 108.282 448.21 108.528C448.657 108.771 449.004 109.129 449.25 109.602C449.5 110.076 449.625 110.657 449.625 111.347V117H448.614V111.409C448.614 110.693 448.413 110.127 448.011 109.71C447.614 109.294 447.08 109.085 446.409 109.085C445.951 109.085 445.544 109.184 445.188 109.381C444.831 109.578 444.549 109.862 444.341 110.233C444.136 110.6 444.034 111.038 444.034 111.545ZM453.3 111.545V117H452.288V105.364H453.3V109.642H453.391C453.595 109.191 453.911 108.831 454.339 108.562C454.771 108.294 455.317 108.159 455.976 108.159C456.567 108.159 457.086 108.28 457.533 108.523C457.98 108.765 458.328 109.123 458.578 109.597C458.828 110.07 458.953 110.653 458.953 111.347V117H457.936V111.409C457.936 110.689 457.735 110.123 457.334 109.71C456.936 109.294 456.398 109.085 455.72 109.085C455.254 109.085 454.839 109.184 454.476 109.381C454.112 109.578 453.824 109.862 453.612 110.233C453.404 110.6 453.3 111.038 453.3 111.545ZM463.298 115.409L463.196 116.017C463.132 116.426 463.041 116.877 462.923 117.369C462.806 117.862 462.685 118.33 462.56 118.773C462.435 119.216 462.327 119.572 462.236 119.841H461.457C461.507 119.583 461.569 119.256 461.645 118.858C461.724 118.46 461.806 118.019 461.889 117.534C461.973 117.053 462.048 116.557 462.116 116.045L462.196 115.409H463.298ZM474.095 117H471.277V116.045H474.033C475.033 116.045 475.87 115.848 476.544 115.455C477.218 115.061 477.724 114.498 478.061 113.767C478.398 113.036 478.567 112.165 478.567 111.153C478.563 110.15 478.396 109.286 478.067 108.562C477.741 107.839 477.256 107.284 476.612 106.898C475.972 106.511 475.18 106.318 474.237 106.318H471.232V105.364H474.3C475.41 105.364 476.358 105.595 477.146 106.057C477.938 106.519 478.544 107.182 478.964 108.045C479.385 108.909 479.595 109.945 479.595 111.153C479.595 112.373 479.379 113.42 478.947 114.295C478.519 115.167 477.894 115.835 477.072 116.301C476.254 116.767 475.262 117 474.095 117ZM471.749 105.364V117H470.686V105.364H471.749ZM468.828 111.438V110.619H473.601V111.438H468.828ZM485.352 117.182C484.598 117.182 483.932 116.991 483.352 116.608C482.777 116.225 482.326 115.697 482 115.023C481.674 114.345 481.511 113.562 481.511 112.676C481.511 111.782 481.674 110.996 482 110.318C482.326 109.636 482.777 109.106 483.352 108.727C483.932 108.345 484.598 108.153 485.352 108.153C486.106 108.153 486.771 108.345 487.347 108.727C487.922 109.11 488.373 109.64 488.699 110.318C489.028 110.996 489.193 111.782 489.193 112.676C489.193 113.562 489.03 114.345 488.705 115.023C488.379 115.697 487.926 116.225 487.347 116.608C486.771 116.991 486.106 117.182 485.352 117.182ZM485.352 116.256C485.958 116.256 486.472 116.093 486.892 115.767C487.313 115.441 487.631 115.008 487.847 114.466C488.066 113.924 488.176 113.328 488.176 112.676C488.176 112.025 488.066 111.426 487.847 110.881C487.631 110.335 487.313 109.898 486.892 109.568C486.472 109.239 485.958 109.074 485.352 109.074C484.75 109.074 484.237 109.239 483.812 109.568C483.392 109.898 483.072 110.335 482.852 110.881C482.636 111.426 482.528 112.025 482.528 112.676C482.528 113.328 482.636 113.924 482.852 114.466C483.072 115.008 483.392 115.441 483.812 115.767C484.233 116.093 484.746 116.256 485.352 116.256ZM485.784 104.926L488.04 107.028H486.79L485.358 105.642L483.926 107.028H482.676L484.92 104.926H485.784ZM482 103.591L483.142 105.636H482.25L480.727 103.591H482ZM492.425 111.545V117H491.413V108.273H492.396V109.642H492.487C492.692 109.195 493.01 108.837 493.442 108.568C493.877 108.295 494.415 108.159 495.055 108.159C495.643 108.159 496.158 108.282 496.601 108.528C497.048 108.771 497.394 109.129 497.641 109.602C497.891 110.076 498.016 110.657 498.016 111.347V117H497.004V111.409C497.004 110.693 496.804 110.127 496.402 109.71C496.004 109.294 495.47 109.085 494.8 109.085C494.341 109.085 493.934 109.184 493.578 109.381C493.222 109.578 492.94 109.862 492.732 110.233C492.527 110.6 492.425 111.038 492.425 111.545ZM504.009 120.455C503.414 120.455 502.893 120.377 502.446 120.222C501.999 120.07 501.622 119.862 501.315 119.597C501.009 119.331 500.77 119.034 500.599 118.705L501.429 118.159C501.554 118.379 501.721 118.595 501.929 118.807C502.141 119.019 502.416 119.195 502.753 119.335C503.094 119.475 503.512 119.545 504.009 119.545C504.781 119.545 505.404 119.352 505.878 118.966C506.355 118.58 506.594 117.979 506.594 117.165V115.199H506.503C506.385 115.464 506.217 115.729 505.997 115.994C505.777 116.256 505.49 116.473 505.134 116.648C504.781 116.822 504.344 116.909 503.821 116.909C503.124 116.909 502.505 116.737 501.963 116.392C501.425 116.047 501.001 115.555 500.69 114.915C500.384 114.271 500.23 113.504 500.23 112.614C500.23 111.731 500.38 110.955 500.679 110.284C500.982 109.614 501.404 109.091 501.946 108.716C502.488 108.341 503.118 108.153 503.838 108.153C504.372 108.153 504.815 108.248 505.168 108.438C505.52 108.623 505.802 108.854 506.014 109.131C506.23 109.407 506.399 109.676 506.52 109.938H506.622V108.273H507.611V117.227C507.611 117.966 507.454 118.574 507.139 119.051C506.825 119.528 506.397 119.881 505.855 120.108C505.313 120.339 504.698 120.455 504.009 120.455ZM503.94 115.983C504.501 115.983 504.98 115.848 505.378 115.58C505.776 115.307 506.08 114.917 506.293 114.409C506.505 113.902 506.611 113.297 506.611 112.597C506.611 111.915 506.507 111.311 506.298 110.784C506.09 110.254 505.787 109.837 505.389 109.534C504.995 109.227 504.512 109.074 503.94 109.074C503.357 109.074 502.865 109.231 502.463 109.545C502.062 109.86 501.759 110.284 501.554 110.818C501.349 111.348 501.247 111.941 501.247 112.597C501.247 113.263 501.351 113.852 501.56 114.364C501.768 114.871 502.073 115.269 502.474 115.557C502.876 115.841 503.365 115.983 503.94 115.983ZM514.294 106.318V105.364H522.732V106.318H519.044V117H517.982V106.318H514.294ZM525.925 111.545V117H524.913V105.364H525.925V109.642H526.016C526.22 109.191 526.536 108.831 526.964 108.562C527.396 108.294 527.942 108.159 528.601 108.159C529.192 108.159 529.711 108.28 530.158 108.523C530.605 108.765 530.953 109.123 531.203 109.597C531.453 110.07 531.578 110.653 531.578 111.347V117H530.561V111.409C530.561 110.689 530.36 110.123 529.959 109.71C529.561 109.294 529.023 109.085 528.345 109.085C527.879 109.085 527.464 109.184 527.101 109.381C526.737 109.578 526.449 109.862 526.237 110.233C526.029 110.6 525.925 111.038 525.925 111.545ZM536.679 117.199C536.152 117.199 535.671 117.097 535.236 116.892C534.8 116.684 534.454 116.384 534.196 115.994C533.938 115.6 533.81 115.123 533.81 114.562C533.81 114.131 533.891 113.767 534.054 113.472C534.217 113.176 534.448 112.934 534.747 112.744C535.046 112.555 535.401 112.405 535.81 112.295C536.219 112.186 536.67 112.1 537.162 112.04C537.651 111.979 538.063 111.926 538.401 111.881C538.741 111.835 539.001 111.763 539.179 111.665C539.357 111.566 539.446 111.407 539.446 111.188V110.983C539.446 110.388 539.268 109.92 538.912 109.58C538.56 109.235 538.052 109.062 537.389 109.062C536.76 109.062 536.247 109.201 535.849 109.477C535.455 109.754 535.179 110.08 535.02 110.455L534.06 110.108C534.257 109.631 534.529 109.25 534.878 108.966C535.226 108.678 535.616 108.472 536.048 108.347C536.48 108.218 536.918 108.153 537.361 108.153C537.694 108.153 538.041 108.197 538.401 108.284C538.764 108.371 539.101 108.523 539.412 108.739C539.723 108.951 539.974 109.248 540.168 109.631C540.361 110.009 540.457 110.491 540.457 111.074V117H539.446V115.619H539.384C539.262 115.877 539.082 116.127 538.844 116.369C538.605 116.612 538.306 116.811 537.946 116.966C537.586 117.121 537.164 117.199 536.679 117.199ZM536.815 116.273C537.353 116.273 537.819 116.153 538.213 115.915C538.607 115.676 538.91 115.36 539.122 114.966C539.338 114.568 539.446 114.131 539.446 113.653V112.392C539.37 112.464 539.243 112.528 539.065 112.585C538.891 112.642 538.688 112.693 538.457 112.739C538.23 112.78 538.003 112.816 537.776 112.847C537.548 112.877 537.344 112.903 537.162 112.926C536.67 112.987 536.249 113.081 535.901 113.21C535.552 113.339 535.285 113.517 535.099 113.744C534.914 113.968 534.821 114.256 534.821 114.608C534.821 115.138 535.01 115.549 535.389 115.841C535.768 116.129 536.243 116.273 536.815 116.273ZM536.98 107.062L538.435 104.483H539.634L537.889 107.062H536.98ZM543.148 120.273V108.273H544.131V109.938H544.25C544.371 109.676 544.538 109.409 544.75 109.136C544.962 108.86 545.242 108.627 545.591 108.438C545.943 108.248 546.386 108.153 546.92 108.153C547.64 108.153 548.269 108.343 548.807 108.722C549.348 109.097 549.769 109.623 550.068 110.301C550.371 110.975 550.523 111.761 550.523 112.659C550.523 113.561 550.371 114.35 550.068 115.028C549.769 115.706 549.348 116.235 548.807 116.614C548.269 116.992 547.644 117.182 546.932 117.182C546.405 117.182 545.964 117.087 545.608 116.898C545.256 116.708 544.97 116.475 544.75 116.199C544.534 115.919 544.367 115.646 544.25 115.381H544.159V120.273H543.148ZM544.148 112.642C544.148 113.347 544.252 113.972 544.46 114.517C544.672 115.059 544.975 115.485 545.369 115.795C545.767 116.102 546.248 116.256 546.812 116.256C547.392 116.256 547.881 116.097 548.278 115.778C548.68 115.456 548.985 115.023 549.193 114.477C549.405 113.932 549.511 113.32 549.511 112.642C549.511 111.972 549.407 111.367 549.199 110.83C548.994 110.292 548.691 109.866 548.29 109.551C547.888 109.233 547.396 109.074 546.812 109.074C546.244 109.074 545.761 109.227 545.364 109.534C544.966 109.837 544.663 110.258 544.455 110.795C544.25 111.33 544.148 111.945 544.148 112.642Z" fill="white"/>
<path d="M37.0455 152H34.1705V150.466H36.9489C37.8352 150.466 38.572 150.299 39.1591 149.966C39.7462 149.629 40.1856 149.142 40.4773 148.506C40.7689 147.866 40.9148 147.085 40.9148 146.165C40.9148 145.252 40.7689 144.477 40.4773 143.841C40.1894 143.205 39.7595 142.722 39.1875 142.392C38.6155 142.062 37.9053 141.898 37.0568 141.898H34.108V140.364H37.1648C38.3049 140.364 39.2841 140.597 40.1023 141.062C40.9205 141.525 41.5473 142.189 41.983 143.057C42.4223 143.92 42.642 144.956 42.642 146.165C42.642 147.377 42.4205 148.419 41.9773 149.29C41.5379 150.161 40.9015 150.831 40.0682 151.301C39.2348 151.767 38.2273 152 37.0455 152ZM35.0341 140.364V152H33.2784V140.364H35.0341ZM31.5398 146.54V145.369H36.7614V146.54H31.5398ZM44.6889 152V143.273H46.3878V152H44.6889ZM45.5469 141.926C45.2514 141.926 44.9976 141.828 44.7855 141.631C44.5772 141.43 44.473 141.191 44.473 140.915C44.473 140.634 44.5772 140.396 44.7855 140.199C44.9976 139.998 45.2514 139.898 45.5469 139.898C45.8423 139.898 46.0942 139.998 46.3026 140.199C46.5147 140.396 46.6207 140.634 46.6207 140.915C46.6207 141.191 46.5147 141.43 46.3026 141.631C46.0942 141.828 45.8423 141.926 45.5469 141.926ZM52.4347 152.176C51.5748 152.176 50.8343 151.992 50.2131 151.625C49.5956 151.254 49.1184 150.733 48.7812 150.062C48.4479 149.388 48.2812 148.598 48.2812 147.693C48.2812 146.799 48.4479 146.011 48.7812 145.33C49.1184 144.648 49.5881 144.116 50.1903 143.733C50.7964 143.35 51.5047 143.159 52.3153 143.159C52.8078 143.159 53.285 143.241 53.7472 143.403C54.2093 143.566 54.6241 143.822 54.9915 144.17C55.3589 144.519 55.6487 144.972 55.8608 145.528C56.0729 146.081 56.179 146.754 56.179 147.545V148.148H49.2415V146.875H54.5142C54.5142 146.428 54.4233 146.032 54.2415 145.688C54.0597 145.339 53.804 145.064 53.4744 144.864C53.1487 144.663 52.7661 144.562 52.3267 144.562C51.8494 144.562 51.4328 144.68 51.0767 144.915C50.7244 145.146 50.4517 145.449 50.2585 145.824C50.0691 146.195 49.9744 146.598 49.9744 147.034V148.028C49.9744 148.612 50.0767 149.108 50.2812 149.517C50.4896 149.926 50.7794 150.239 51.1506 150.455C51.5218 150.667 51.9555 150.773 52.4517 150.773C52.7737 150.773 53.0672 150.727 53.3324 150.636C53.5975 150.542 53.8267 150.402 54.0199 150.216C54.2131 150.03 54.3608 149.801 54.4631 149.528L56.071 149.818C55.9422 150.292 55.7112 150.706 55.3778 151.062C55.0483 151.415 54.6335 151.689 54.1335 151.886C53.6373 152.08 53.071 152.176 52.4347 152.176ZM53.4176 142.227L52.2528 140.705L51.0824 142.227H49.5483V142.142L51.5426 139.733H52.9574L54.9574 142.142V142.227H53.4176ZM52.2472 155.011C51.9555 155.011 51.7036 154.913 51.4915 154.716C51.2794 154.519 51.1733 154.28 51.1733 154C51.1733 153.72 51.2794 153.481 51.4915 153.284C51.7036 153.087 51.9555 152.989 52.2472 152.989C52.5426 152.989 52.7945 153.087 53.0028 153.284C53.215 153.481 53.321 153.72 53.321 154C53.321 154.28 53.215 154.519 53.0028 154.716C52.7945 154.913 52.5426 155.011 52.2472 155.011ZM59.7628 146.818V152H58.0639V143.273H59.6946V144.693H59.8026C60.0033 144.231 60.3177 143.86 60.7457 143.58C61.1776 143.299 61.7211 143.159 62.3764 143.159C62.9711 143.159 63.492 143.284 63.9389 143.534C64.3859 143.78 64.7325 144.148 64.9787 144.636C65.2249 145.125 65.348 145.729 65.348 146.449V152H63.6491V146.653C63.6491 146.021 63.4844 145.527 63.1548 145.17C62.8253 144.811 62.3726 144.631 61.7969 144.631C61.4029 144.631 61.0526 144.716 60.7457 144.886C60.4427 145.057 60.2022 145.307 60.0241 145.636C59.8499 145.962 59.7628 146.356 59.7628 146.818ZM75.9347 143.273V144.636H71.1676V143.273H75.9347ZM72.446 141.182H74.1449V149.438C74.1449 149.767 74.1941 150.015 74.2926 150.182C74.3911 150.345 74.518 150.456 74.6733 150.517C74.8324 150.574 75.0047 150.602 75.1903 150.602C75.3267 150.602 75.446 150.593 75.5483 150.574C75.6506 150.555 75.7301 150.54 75.7869 150.528L76.0938 151.932C75.9953 151.97 75.8551 152.008 75.6733 152.045C75.4915 152.087 75.2642 152.11 74.9915 152.114C74.5445 152.121 74.1278 152.042 73.7415 151.875C73.3551 151.708 73.0426 151.451 72.804 151.102C72.5653 150.754 72.446 150.316 72.446 149.79V141.182ZM79.7003 146.818V152H78.0014V140.364H79.6776V144.693H79.7855C79.9901 144.223 80.3026 143.85 80.723 143.574C81.1435 143.297 81.6927 143.159 82.3707 143.159C82.9692 143.159 83.492 143.282 83.9389 143.528C84.3897 143.775 84.7382 144.142 84.9844 144.631C85.2344 145.116 85.3594 145.722 85.3594 146.449V152H83.6605V146.653C83.6605 146.013 83.4957 145.517 83.1662 145.165C82.8366 144.809 82.3783 144.631 81.7912 144.631C81.3897 144.631 81.0298 144.716 80.7116 144.886C80.3973 145.057 80.1491 145.307 79.9673 145.636C79.7893 145.962 79.7003 146.356 79.7003 146.818ZM91.3026 152.176C90.4844 152.176 89.7704 151.989 89.1605 151.614C88.5507 151.239 88.0772 150.714 87.7401 150.04C87.4029 149.366 87.2344 148.578 87.2344 147.676C87.2344 146.771 87.4029 145.979 87.7401 145.301C88.0772 144.623 88.5507 144.097 89.1605 143.722C89.7704 143.347 90.4844 143.159 91.3026 143.159C92.1207 143.159 92.8348 143.347 93.4446 143.722C94.0545 144.097 94.5279 144.623 94.8651 145.301C95.2022 145.979 95.3707 146.771 95.3707 147.676C95.3707 148.578 95.2022 149.366 94.8651 150.04C94.5279 150.714 94.0545 151.239 93.4446 151.614C92.8348 151.989 92.1207 152.176 91.3026 152.176ZM91.3082 150.75C91.8385 150.75 92.2779 150.61 92.6264 150.33C92.9749 150.049 93.2325 149.676 93.3991 149.21C93.5696 148.744 93.6548 148.231 93.6548 147.67C93.6548 147.114 93.5696 146.602 93.3991 146.136C93.2325 145.667 92.9749 145.29 92.6264 145.006C92.2779 144.722 91.8385 144.58 91.3082 144.58C90.7741 144.58 90.331 144.722 89.9787 145.006C89.6302 145.29 89.3707 145.667 89.2003 146.136C89.0336 146.602 88.9503 147.114 88.9503 147.67C88.9503 148.231 89.0336 148.744 89.2003 149.21C89.3707 149.676 89.6302 150.049 89.9787 150.33C90.331 150.61 90.7741 150.75 91.3082 150.75ZM99.8068 152.193C99.2538 152.193 98.7538 152.091 98.3068 151.886C97.8598 151.678 97.5057 151.377 97.2443 150.983C96.9867 150.589 96.858 150.106 96.858 149.534C96.858 149.042 96.9527 148.636 97.142 148.318C97.3314 148 97.5871 147.748 97.9091 147.562C98.2311 147.377 98.5909 147.237 98.9886 147.142C99.3864 147.047 99.7917 146.975 100.205 146.926C100.727 146.866 101.152 146.816 101.477 146.778C101.803 146.737 102.04 146.67 102.188 146.58C102.335 146.489 102.409 146.341 102.409 146.136V146.097C102.409 145.6 102.269 145.216 101.989 144.943C101.712 144.67 101.299 144.534 100.75 144.534C100.178 144.534 99.7273 144.661 99.3977 144.915C99.072 145.165 98.8466 145.443 98.7216 145.75L97.125 145.386C97.3144 144.856 97.5909 144.428 97.9545 144.102C98.322 143.773 98.7443 143.534 99.2216 143.386C99.6989 143.235 100.201 143.159 100.727 143.159C101.076 143.159 101.445 143.201 101.835 143.284C102.229 143.364 102.597 143.511 102.938 143.727C103.282 143.943 103.564 144.252 103.784 144.653C104.004 145.051 104.114 145.568 104.114 146.205V152H102.455V150.807H102.386C102.277 151.027 102.112 151.242 101.892 151.455C101.672 151.667 101.39 151.843 101.045 151.983C100.701 152.123 100.288 152.193 99.8068 152.193ZM100.176 150.83C100.646 150.83 101.047 150.737 101.381 150.551C101.718 150.366 101.973 150.123 102.148 149.824C102.326 149.521 102.415 149.197 102.415 148.852V147.727C102.354 147.788 102.237 147.845 102.062 147.898C101.892 147.947 101.697 147.991 101.477 148.028C101.258 148.062 101.044 148.095 100.835 148.125C100.627 148.152 100.453 148.174 100.312 148.193C99.983 148.235 99.6818 148.305 99.4091 148.403C99.1402 148.502 98.9242 148.644 98.7614 148.83C98.6023 149.011 98.5227 149.254 98.5227 149.557C98.5227 149.977 98.678 150.295 98.9886 150.511C99.2992 150.723 99.6951 150.83 100.176 150.83ZM100.739 155.011C100.447 155.011 100.195 154.913 99.983 154.716C99.7708 154.519 99.6648 154.28 99.6648 154C99.6648 153.72 99.7708 153.481 99.983 153.284C100.195 153.087 100.447 152.989 100.739 152.989C101.034 152.989 101.286 153.087 101.494 153.284C101.706 153.481 101.812 153.72 101.812 154C101.812 154.28 101.706 154.519 101.494 154.716C101.286 154.913 101.034 155.011 100.739 155.011ZM106.376 152V143.273H108.075V152H106.376ZM107.234 141.926C106.939 141.926 106.685 141.828 106.473 141.631C106.265 141.43 106.161 141.191 106.161 140.915C106.161 140.634 106.265 140.396 106.473 140.199C106.685 139.998 106.939 139.898 107.234 139.898C107.53 139.898 107.782 139.998 107.99 140.199C108.202 140.396 108.308 140.634 108.308 140.915C108.308 141.191 108.202 141.43 107.99 141.631C107.782 141.828 107.53 141.926 107.234 141.926ZM111.48 152.108C111.17 152.108 110.902 151.998 110.679 151.778C110.455 151.555 110.344 151.286 110.344 150.972C110.344 150.661 110.455 150.396 110.679 150.176C110.902 149.953 111.17 149.841 111.48 149.841C111.791 149.841 112.058 149.953 112.281 150.176C112.505 150.396 112.616 150.661 112.616 150.972C112.616 151.18 112.563 151.371 112.457 151.545C112.355 151.716 112.219 151.852 112.048 151.955C111.878 152.057 111.688 152.108 111.48 152.108ZM111.48 145.756C111.17 145.756 110.902 145.644 110.679 145.42C110.455 145.197 110.344 144.93 110.344 144.619C110.344 144.309 110.455 144.044 110.679 143.824C110.902 143.6 111.17 143.489 111.48 143.489C111.791 143.489 112.058 143.6 112.281 143.824C112.505 144.044 112.616 144.309 112.616 144.619C112.616 144.828 112.563 145.019 112.457 145.193C112.355 145.364 112.219 145.5 112.048 145.602C111.878 145.705 111.688 145.756 111.48 145.756Z" fill="white"/>
<path d="M149.756 146.182C149.756 144.818 149.928 143.53 150.273 142.318C150.617 141.106 151.112 139.97 151.756 138.909H152.676C152.4 139.356 152.146 139.862 151.915 140.426C151.688 140.991 151.491 141.593 151.324 142.233C151.157 142.873 151.028 143.528 150.938 144.199C150.847 144.866 150.801 145.527 150.801 146.182C150.801 147.057 150.881 147.939 151.04 148.83C151.199 149.72 151.419 150.564 151.699 151.364C151.983 152.163 152.309 152.86 152.676 153.455H151.756C151.112 152.39 150.617 151.252 150.273 150.04C149.928 148.828 149.756 147.542 149.756 146.182ZM158.274 149.795V142.597H159.246V149.795H158.274ZM155.161 146.682V145.71H162.359V146.682H155.161ZM168.861 152.159C168.118 152.159 167.457 152.019 166.878 151.739C166.298 151.458 165.844 151.076 165.514 150.591C165.185 150.102 165.02 149.551 165.02 148.938C165.02 148.456 165.12 148.008 165.321 147.591C165.522 147.17 165.798 146.818 166.151 146.534C166.503 146.246 166.899 146.059 167.338 145.972V145.909C166.766 145.742 166.306 145.415 165.957 144.926C165.609 144.434 165.437 143.875 165.44 143.25C165.437 142.67 165.584 142.152 165.884 141.693C166.183 141.235 166.59 140.873 167.105 140.608C167.624 140.339 168.209 140.205 168.861 140.205C169.509 140.205 170.09 140.339 170.605 140.608C171.12 140.873 171.527 141.235 171.827 141.693C172.13 142.152 172.283 142.67 172.287 143.25C172.283 143.871 172.107 144.43 171.759 144.926C171.41 145.419 170.952 145.746 170.384 145.909V145.972C170.823 146.055 171.217 146.241 171.565 146.528C171.914 146.816 172.19 147.17 172.395 147.591C172.599 148.008 172.702 148.456 172.702 148.938C172.702 149.551 172.535 150.102 172.202 150.591C171.872 151.076 171.418 151.458 170.838 151.739C170.262 152.019 169.603 152.159 168.861 152.159ZM168.861 151.205C169.414 151.205 169.899 151.106 170.315 150.909C170.736 150.708 171.063 150.434 171.298 150.085C171.537 149.737 171.656 149.337 171.656 148.886C171.656 148.42 171.533 148.006 171.287 147.642C171.041 147.275 170.707 146.985 170.287 146.773C169.866 146.557 169.391 146.449 168.861 146.449C168.33 146.449 167.853 146.557 167.429 146.773C167.009 146.985 166.675 147.275 166.429 147.642C166.187 148.006 166.065 148.42 166.065 148.886C166.065 149.337 166.181 149.737 166.412 150.085C166.647 150.434 166.974 150.708 167.395 150.909C167.819 151.106 168.308 151.205 168.861 151.205ZM168.861 145.54C169.315 145.54 169.723 145.443 170.082 145.25C170.442 145.057 170.726 144.794 170.935 144.46C171.147 144.123 171.255 143.741 171.259 143.312C171.255 142.888 171.149 142.513 170.94 142.188C170.732 141.858 170.448 141.602 170.088 141.42C169.732 141.235 169.323 141.142 168.861 141.142C168.399 141.142 167.986 141.235 167.622 141.42C167.262 141.602 166.978 141.858 166.77 142.188C166.565 142.513 166.465 142.888 166.469 143.312C166.465 143.741 166.567 144.123 166.776 144.46C166.988 144.794 167.274 145.057 167.634 145.25C167.997 145.443 168.406 145.54 168.861 145.54ZM174.783 149.5V148.636L179.97 140.364H180.607V141.812H180.135L175.97 148.472V148.545H182.771V149.5H174.783ZM180.214 152V149.227V148.83V140.364H181.226V152H180.214ZM187.571 146.182C187.571 147.545 187.399 148.833 187.054 150.045C186.709 151.258 186.215 152.394 185.571 153.455H184.651C184.927 153.008 185.179 152.502 185.406 151.938C185.637 151.373 185.836 150.771 186.003 150.131C186.17 149.491 186.298 148.835 186.389 148.165C186.48 147.494 186.526 146.833 186.526 146.182C186.526 145.307 186.446 144.424 186.287 143.534C186.128 142.644 185.906 141.799 185.622 141C185.342 140.201 185.018 139.504 184.651 138.909H185.571C186.215 139.973 186.709 141.112 187.054 142.324C187.399 143.536 187.571 144.822 187.571 146.182ZM195.124 152V151.222L198.925 146.949C199.421 146.388 199.821 145.909 200.124 145.511C200.427 145.114 200.646 144.746 200.783 144.409C200.923 144.072 200.993 143.722 200.993 143.358C200.993 142.915 200.889 142.528 200.68 142.199C200.476 141.866 200.194 141.606 199.834 141.42C199.474 141.235 199.069 141.142 198.618 141.142C198.141 141.142 197.722 141.244 197.362 141.449C197.006 141.653 196.73 141.934 196.533 142.29C196.336 142.646 196.237 143.055 196.237 143.517H195.22C195.22 142.873 195.368 142.303 195.663 141.807C195.963 141.307 196.37 140.915 196.885 140.631C197.404 140.347 197.991 140.205 198.646 140.205C199.294 140.205 199.87 140.345 200.374 140.625C200.877 140.902 201.273 141.278 201.561 141.756C201.849 142.233 201.993 142.767 201.993 143.358C201.993 143.786 201.917 144.201 201.766 144.602C201.618 145.004 201.362 145.451 200.999 145.943C200.635 146.436 200.131 147.038 199.487 147.75L196.601 150.972V151.045H202.357V152H195.124ZM205.224 152L210.526 141.392V141.318H204.418V140.364H211.639V141.364L206.344 152H205.224ZM214.553 152L219.854 141.392V141.318H213.746V140.364H220.967V141.364L215.672 152H214.553ZM231.511 152.159C230.795 152.159 230.155 152.03 229.591 151.773C229.027 151.511 228.58 151.15 228.25 150.688C227.92 150.225 227.746 149.693 227.727 149.091H228.801C228.82 149.515 228.951 149.886 229.193 150.205C229.436 150.519 229.758 150.765 230.159 150.943C230.561 151.117 231.008 151.205 231.5 151.205C232.038 151.205 232.511 151.104 232.92 150.903C233.333 150.703 233.655 150.428 233.886 150.08C234.121 149.727 234.239 149.33 234.239 148.886C234.239 148.417 234.119 148.002 233.881 147.642C233.642 147.282 233.299 147.002 232.852 146.801C232.409 146.6 231.879 146.5 231.261 146.5H230.58V145.545H231.261C231.765 145.545 232.21 145.455 232.597 145.273C232.987 145.087 233.294 144.828 233.517 144.494C233.741 144.161 233.852 143.769 233.852 143.318C233.852 142.89 233.756 142.513 233.562 142.188C233.369 141.862 233.097 141.606 232.744 141.42C232.396 141.235 231.989 141.142 231.523 141.142C231.072 141.142 230.659 141.229 230.284 141.403C229.909 141.578 229.606 141.824 229.375 142.142C229.148 142.46 229.027 142.837 229.011 143.273H227.983C227.998 142.667 228.165 142.134 228.483 141.676C228.805 141.214 229.231 140.854 229.761 140.597C230.295 140.335 230.886 140.205 231.534 140.205C232.22 140.205 232.812 140.345 233.312 140.625C233.812 140.905 234.199 141.278 234.472 141.744C234.748 142.206 234.886 142.716 234.886 143.273C234.886 143.936 234.706 144.504 234.347 144.977C233.987 145.447 233.502 145.773 232.892 145.955V146.028C233.634 146.176 234.218 146.506 234.642 147.017C235.07 147.525 235.284 148.148 235.284 148.886C235.284 149.508 235.121 150.066 234.795 150.562C234.47 151.055 234.023 151.445 233.455 151.733C232.89 152.017 232.242 152.159 231.511 152.159ZM241.392 152.159C240.65 152.159 239.989 152.019 239.409 151.739C238.83 151.458 238.375 151.076 238.045 150.591C237.716 150.102 237.551 149.551 237.551 148.938C237.551 148.456 237.652 148.008 237.852 147.591C238.053 147.17 238.33 146.818 238.682 146.534C239.034 146.246 239.43 146.059 239.869 145.972V145.909C239.297 145.742 238.837 145.415 238.489 144.926C238.14 144.434 237.968 143.875 237.972 143.25C237.968 142.67 238.116 142.152 238.415 141.693C238.714 141.235 239.121 140.873 239.636 140.608C240.155 140.339 240.741 140.205 241.392 140.205C242.04 140.205 242.621 140.339 243.136 140.608C243.652 140.873 244.059 141.235 244.358 141.693C244.661 142.152 244.814 142.67 244.818 143.25C244.814 143.871 244.638 144.43 244.29 144.926C243.941 145.419 243.483 145.746 242.915 145.909V145.972C243.354 146.055 243.748 146.241 244.097 146.528C244.445 146.816 244.722 147.17 244.926 147.591C245.131 148.008 245.233 148.456 245.233 148.938C245.233 149.551 245.066 150.102 244.733 150.591C244.403 151.076 243.949 151.458 243.369 151.739C242.794 152.019 242.134 152.159 241.392 152.159ZM241.392 151.205C241.945 151.205 242.43 151.106 242.847 150.909C243.267 150.708 243.595 150.434 243.83 150.085C244.068 149.737 244.188 149.337 244.188 148.886C244.188 148.42 244.064 148.006 243.818 147.642C243.572 147.275 243.239 146.985 242.818 146.773C242.398 146.557 241.922 146.449 241.392 146.449C240.862 146.449 240.384 146.557 239.96 146.773C239.54 146.985 239.206 147.275 238.96 147.642C238.718 148.006 238.597 148.42 238.597 148.886C238.597 149.337 238.712 149.737 238.943 150.085C239.178 150.434 239.506 150.708 239.926 150.909C240.35 151.106 240.839 151.205 241.392 151.205ZM241.392 145.54C241.847 145.54 242.254 145.443 242.614 145.25C242.973 145.057 243.258 144.794 243.466 144.46C243.678 144.123 243.786 143.741 243.79 143.312C243.786 142.888 243.68 142.513 243.472 142.188C243.263 141.858 242.979 141.602 242.619 141.42C242.263 141.235 241.854 141.142 241.392 141.142C240.93 141.142 240.517 141.235 240.153 141.42C239.794 141.602 239.509 141.858 239.301 142.188C239.097 142.513 238.996 142.888 239 143.312C238.996 143.741 239.098 144.123 239.307 144.46C239.519 144.794 239.805 145.057 240.165 145.25C240.528 145.443 240.938 145.54 241.392 145.54ZM250.996 152.159C250.348 152.159 249.768 152.028 249.257 151.767C248.75 151.502 248.344 151.138 248.041 150.676C247.742 150.214 247.583 149.686 247.564 149.091H248.592C248.626 149.708 248.869 150.216 249.32 150.614C249.77 151.008 250.329 151.205 250.996 151.205C251.515 151.205 251.977 151.081 252.382 150.835C252.787 150.585 253.104 150.244 253.331 149.812C253.562 149.377 253.678 148.886 253.678 148.341C253.674 147.773 253.551 147.273 253.308 146.841C253.066 146.405 252.736 146.064 252.32 145.818C251.907 145.572 251.443 145.449 250.928 145.449C250.537 145.445 250.155 145.509 249.78 145.642C249.405 145.775 249.092 145.945 248.842 146.153L247.78 146.017L248.479 140.364H254.229V141.318H249.371L248.905 145.21H248.962C249.219 144.994 249.532 144.818 249.899 144.682C250.27 144.545 250.662 144.477 251.075 144.477C251.761 144.477 252.376 144.642 252.922 144.972C253.471 145.301 253.905 145.756 254.223 146.335C254.545 146.911 254.706 147.574 254.706 148.324C254.706 149.059 254.545 149.716 254.223 150.295C253.905 150.871 253.465 151.326 252.905 151.659C252.348 151.992 251.712 152.159 250.996 152.159ZM260.714 140.364V152H259.652V141.477H259.584L256.857 143.29V142.188L259.607 140.364H260.714ZM267.749 140.205C268.233 140.208 268.703 140.307 269.158 140.5C269.616 140.689 270.029 140.996 270.396 141.42C270.764 141.841 271.055 142.402 271.271 143.102C271.487 143.799 271.595 144.657 271.595 145.676C271.595 146.627 271.512 147.498 271.345 148.29C271.179 149.081 270.929 149.767 270.595 150.347C270.266 150.922 269.849 151.369 269.345 151.688C268.845 152.002 268.26 152.159 267.589 152.159C266.964 152.159 266.41 152.028 265.925 151.767C265.444 151.506 265.054 151.144 264.754 150.682C264.455 150.216 264.269 149.678 264.197 149.068H265.243C265.345 149.689 265.595 150.201 265.993 150.602C266.394 151.004 266.927 151.205 267.589 151.205C268.54 151.205 269.279 150.761 269.805 149.875C270.332 148.989 270.595 147.727 270.595 146.091H270.521C270.339 146.432 270.101 146.729 269.805 146.983C269.514 147.237 269.18 147.436 268.805 147.58C268.43 147.72 268.035 147.79 267.618 147.79C266.97 147.79 266.377 147.627 265.839 147.301C265.302 146.972 264.872 146.523 264.55 145.955C264.228 145.383 264.067 144.731 264.067 144C264.067 143.311 264.218 142.678 264.521 142.102C264.828 141.523 265.256 141.061 265.805 140.716C266.358 140.367 267.006 140.197 267.749 140.205ZM267.749 141.159C267.245 141.159 266.792 141.288 266.391 141.545C265.993 141.799 265.677 142.142 265.442 142.574C265.211 143.002 265.095 143.477 265.095 144C265.095 144.527 265.211 145.006 265.442 145.438C265.677 145.866 265.993 146.206 266.391 146.46C266.792 146.71 267.245 146.835 267.749 146.835C268.135 146.835 268.495 146.758 268.828 146.602C269.161 146.443 269.449 146.227 269.692 145.955C269.938 145.682 270.124 145.373 270.249 145.028C270.377 144.68 270.429 144.314 270.402 143.932C270.357 143.402 270.214 142.928 269.976 142.511C269.741 142.091 269.43 141.761 269.044 141.523C268.661 141.28 268.23 141.159 267.749 141.159ZM273.72 149.5V148.636L278.908 140.364H279.544V141.812H279.072L274.908 148.472V148.545H281.709V149.5H273.72ZM279.152 152V149.227V148.83V140.364H280.163V152H279.152ZM287.449 140.364V152H286.386V141.477H286.318L283.591 143.29V142.188L286.341 140.364H287.449Z" fill="white"/>
<path d="M33.2784 187V175.364H35.0341V180.42H40.8352V175.364H42.5966V187H40.8352V181.926H35.0341V187H33.2784ZM48.6932 187.176C47.875 187.176 47.161 186.989 46.5511 186.614C45.9413 186.239 45.4678 185.714 45.1307 185.04C44.7936 184.366 44.625 183.578 44.625 182.676C44.625 181.771 44.7936 180.979 45.1307 180.301C45.4678 179.623 45.9413 179.097 46.5511 178.722C47.161 178.347 47.875 178.159 48.6932 178.159C49.5114 178.159 50.2254 178.347 50.8352 178.722C51.4451 179.097 51.9186 179.623 52.2557 180.301C52.5928 180.979 52.7614 181.771 52.7614 182.676C52.7614 183.578 52.5928 184.366 52.2557 185.04C51.9186 185.714 51.4451 186.239 50.8352 186.614C50.2254 186.989 49.5114 187.176 48.6932 187.176ZM48.6989 185.75C49.2292 185.75 49.6686 185.61 50.017 185.33C50.3655 185.049 50.6231 184.676 50.7898 184.21C50.9602 183.744 51.0455 183.231 51.0455 182.67C51.0455 182.114 50.9602 181.602 50.7898 181.136C50.6231 180.667 50.3655 180.29 50.017 180.006C49.6686 179.722 49.2292 179.58 48.6989 179.58C48.1648 179.58 47.7216 179.722 47.3693 180.006C47.0208 180.29 46.7614 180.667 46.5909 181.136C46.4242 181.602 46.3409 182.114 46.3409 182.67C46.3409 183.231 46.4242 183.744 46.5909 184.21C46.7614 184.676 47.0208 185.049 47.3693 185.33C47.7216 185.61 48.1648 185.75 48.6989 185.75ZM58.7315 178.273V179.636H53.9645V178.273H58.7315ZM55.2429 176.182H56.9418V184.438C56.9418 184.767 56.991 185.015 57.0895 185.182C57.188 185.345 57.3149 185.456 57.4702 185.517C57.6293 185.574 57.8016 185.602 57.9872 185.602C58.1236 185.602 58.2429 185.593 58.3452 185.574C58.4474 185.555 58.527 185.54 58.5838 185.528L58.8906 186.932C58.7921 186.97 58.652 187.008 58.4702 187.045C58.2884 187.087 58.0611 187.11 57.7884 187.114C57.3414 187.121 56.9247 187.042 56.5384 186.875C56.152 186.708 55.8395 186.451 55.6009 186.102C55.3622 185.754 55.2429 185.316 55.2429 184.79V176.182ZM62.4972 175.364V187H60.7983V175.364H62.4972ZM64.7827 187V178.273H66.4815V187H64.7827ZM65.6406 176.926C65.3452 176.926 65.0914 176.828 64.8793 176.631C64.6709 176.43 64.5668 176.191 64.5668 175.915C64.5668 175.634 64.6709 175.396 64.8793 175.199C65.0914 174.998 65.3452 174.898 65.6406 174.898C65.9361 174.898 66.188 174.998 66.3963 175.199C66.6084 175.396 66.7145 175.634 66.7145 175.915C66.7145 176.191 66.6084 176.43 66.3963 176.631C66.188 176.828 65.9361 176.926 65.6406 176.926ZM70.4659 181.818V187H68.767V178.273H70.3977V179.693H70.5057C70.7064 179.231 71.0208 178.86 71.4489 178.58C71.8807 178.299 72.4242 178.159 73.0795 178.159C73.6742 178.159 74.1951 178.284 74.642 178.534C75.089 178.78 75.4356 179.148 75.6818 179.636C75.928 180.125 76.0511 180.729 76.0511 181.449V187H74.3523V181.653C74.3523 181.021 74.1875 180.527 73.858 180.17C73.5284 179.811 73.0758 179.631 72.5 179.631C72.1061 179.631 71.7557 179.716 71.4489 179.886C71.1458 180.057 70.9053 180.307 70.7273 180.636C70.553 180.962 70.4659 181.356 70.4659 181.818ZM82.0909 187.176C81.2311 187.176 80.4905 186.992 79.8693 186.625C79.2519 186.254 78.7746 185.733 78.4375 185.062C78.1042 184.388 77.9375 183.598 77.9375 182.693C77.9375 181.799 78.1042 181.011 78.4375 180.33C78.7746 179.648 79.2443 179.116 79.8466 178.733C80.4527 178.35 81.161 178.159 81.9716 178.159C82.464 178.159 82.9413 178.241 83.4034 178.403C83.8655 178.566 84.2803 178.822 84.6477 179.17C85.0152 179.519 85.3049 179.972 85.517 180.528C85.7292 181.081 85.8352 181.754 85.8352 182.545V183.148H78.8977V181.875H84.1705C84.1705 181.428 84.0795 181.032 83.8977 180.688C83.7159 180.339 83.4602 180.064 83.1307 179.864C82.8049 179.663 82.4223 179.562 81.983 179.562C81.5057 179.562 81.089 179.68 80.733 179.915C80.3807 180.146 80.108 180.449 79.9148 180.824C79.7254 181.195 79.6307 181.598 79.6307 182.034V183.028C79.6307 183.612 79.733 184.108 79.9375 184.517C80.1458 184.926 80.4356 185.239 80.8068 185.455C81.178 185.667 81.6117 185.773 82.108 185.773C82.4299 185.773 82.7235 185.727 82.9886 185.636C83.2538 185.542 83.483 185.402 83.6761 185.216C83.8693 185.03 84.017 184.801 84.1193 184.528L85.7273 184.818C85.5985 185.292 85.3674 185.706 85.0341 186.062C84.7045 186.415 84.2898 186.689 83.7898 186.886C83.2936 187.08 82.7273 187.176 82.0909 187.176ZM88.8395 187.108C88.5289 187.108 88.2618 186.998 88.0384 186.778C87.8149 186.555 87.7031 186.286 87.7031 185.972C87.7031 185.661 87.8149 185.396 88.0384 185.176C88.2618 184.953 88.5289 184.841 88.8395 184.841C89.1501 184.841 89.4171 184.953 89.6406 185.176C89.8641 185.396 89.9759 185.661 89.9759 185.972C89.9759 186.18 89.9228 186.371 89.8168 186.545C89.7145 186.716 89.5781 186.852 89.4077 186.955C89.2372 187.057 89.0478 187.108 88.8395 187.108ZM88.8395 180.756C88.5289 180.756 88.2618 180.644 88.0384 180.42C87.8149 180.197 87.7031 179.93 87.7031 179.619C87.7031 179.309 87.8149 179.044 88.0384 178.824C88.2618 178.6 88.5289 178.489 88.8395 178.489C89.1501 178.489 89.4171 178.6 89.6406 178.824C89.8641 179.044 89.9759 179.309 89.9759 179.619C89.9759 179.828 89.9228 180.019 89.8168 180.193C89.7145 180.364 89.5781 180.5 89.4077 180.602C89.2372 180.705 89.0478 180.756 88.8395 180.756Z" fill="white"/>
<path d="M152.886 175.364V187H151.824V176.477H151.756L149.028 178.29V177.188L151.778 175.364H152.886ZM160.017 187.159C159.275 187.159 158.614 187.019 158.034 186.739C157.455 186.458 157 186.076 156.67 185.591C156.341 185.102 156.176 184.551 156.176 183.938C156.176 183.456 156.277 183.008 156.477 182.591C156.678 182.17 156.955 181.818 157.307 181.534C157.659 181.246 158.055 181.059 158.494 180.972V180.909C157.922 180.742 157.462 180.415 157.114 179.926C156.765 179.434 156.593 178.875 156.597 178.25C156.593 177.67 156.741 177.152 157.04 176.693C157.339 176.235 157.746 175.873 158.261 175.608C158.78 175.339 159.366 175.205 160.017 175.205C160.665 175.205 161.246 175.339 161.761 175.608C162.277 175.873 162.684 176.235 162.983 176.693C163.286 177.152 163.439 177.67 163.443 178.25C163.439 178.871 163.263 179.43 162.915 179.926C162.566 180.419 162.108 180.746 161.54 180.909V180.972C161.979 181.055 162.373 181.241 162.722 181.528C163.07 181.816 163.347 182.17 163.551 182.591C163.756 183.008 163.858 183.456 163.858 183.938C163.858 184.551 163.691 185.102 163.358 185.591C163.028 186.076 162.574 186.458 161.994 186.739C161.419 187.019 160.759 187.159 160.017 187.159ZM160.017 186.205C160.57 186.205 161.055 186.106 161.472 185.909C161.892 185.708 162.22 185.434 162.455 185.085C162.693 184.737 162.812 184.337 162.812 183.886C162.812 183.42 162.689 183.006 162.443 182.642C162.197 182.275 161.864 181.985 161.443 181.773C161.023 181.557 160.547 181.449 160.017 181.449C159.487 181.449 159.009 181.557 158.585 181.773C158.165 181.985 157.831 182.275 157.585 182.642C157.343 183.006 157.222 183.42 157.222 183.886C157.222 184.337 157.337 184.737 157.568 185.085C157.803 185.434 158.131 185.708 158.551 185.909C158.975 186.106 159.464 186.205 160.017 186.205ZM160.017 180.54C160.472 180.54 160.879 180.443 161.239 180.25C161.598 180.057 161.883 179.794 162.091 179.46C162.303 179.123 162.411 178.741 162.415 178.312C162.411 177.888 162.305 177.513 162.097 177.188C161.888 176.858 161.604 176.602 161.244 176.42C160.888 176.235 160.479 176.142 160.017 176.142C159.555 176.142 159.142 176.235 158.778 176.42C158.419 176.602 158.134 176.858 157.926 177.188C157.722 177.513 157.621 177.888 157.625 178.312C157.621 178.741 157.723 179.123 157.932 179.46C158.144 179.794 158.43 180.057 158.79 180.25C159.153 180.443 159.563 180.54 160.017 180.54ZM169.831 187.159C169.013 187.159 168.314 186.924 167.734 186.455C167.159 185.981 166.715 185.297 166.405 184.403C166.098 183.509 165.945 182.436 165.945 181.182C165.945 179.932 166.098 178.862 166.405 177.972C166.715 177.078 167.161 176.394 167.74 175.92C168.323 175.443 169.02 175.205 169.831 175.205C170.642 175.205 171.337 175.443 171.916 175.92C172.5 176.394 172.945 177.078 173.251 177.972C173.562 178.862 173.717 179.932 173.717 181.182C173.717 182.436 173.562 183.509 173.251 184.403C172.945 185.297 172.501 185.981 171.922 186.455C171.346 186.924 170.649 187.159 169.831 187.159ZM169.831 186.205C170.729 186.205 171.429 185.767 171.933 184.892C172.437 184.013 172.689 182.777 172.689 181.182C172.689 180.121 172.573 179.216 172.342 178.466C172.115 177.712 171.787 177.136 171.359 176.739C170.935 176.341 170.426 176.142 169.831 176.142C168.941 176.142 168.242 176.585 167.734 177.472C167.227 178.354 166.973 179.591 166.973 181.182C166.973 182.242 167.087 183.148 167.314 183.898C167.545 184.648 167.873 185.22 168.297 185.614C168.725 186.008 169.236 186.205 169.831 186.205ZM179.643 187.159C178.825 187.159 178.126 186.924 177.547 186.455C176.971 185.981 176.528 185.297 176.217 184.403C175.911 183.509 175.757 182.436 175.757 181.182C175.757 179.932 175.911 178.862 176.217 177.972C176.528 177.078 176.973 176.394 177.553 175.92C178.136 175.443 178.833 175.205 179.643 175.205C180.454 175.205 181.149 175.443 181.729 175.92C182.312 176.394 182.757 177.078 183.064 177.972C183.375 178.862 183.53 179.932 183.53 181.182C183.53 182.436 183.375 183.509 183.064 184.403C182.757 185.297 182.314 185.981 181.734 186.455C181.159 186.924 180.462 187.159 179.643 187.159ZM179.643 186.205C180.541 186.205 181.242 185.767 181.746 184.892C182.25 184.013 182.501 182.777 182.501 181.182C182.501 180.121 182.386 179.216 182.155 178.466C181.928 177.712 181.6 177.136 181.172 176.739C180.748 176.341 180.238 176.142 179.643 176.142C178.753 176.142 178.054 176.585 177.547 177.472C177.039 178.354 176.786 179.591 176.786 181.182C176.786 182.242 176.899 183.148 177.126 183.898C177.357 184.648 177.685 185.22 178.109 185.614C178.537 186.008 179.049 186.205 179.643 186.205ZM193.746 187.159C193.098 187.159 192.518 187.028 192.007 186.767C191.5 186.502 191.094 186.138 190.791 185.676C190.492 185.214 190.333 184.686 190.314 184.091H191.342C191.376 184.708 191.619 185.216 192.07 185.614C192.52 186.008 193.079 186.205 193.746 186.205C194.265 186.205 194.727 186.081 195.132 185.835C195.537 185.585 195.854 185.244 196.081 184.812C196.312 184.377 196.428 183.886 196.428 183.341C196.424 182.773 196.301 182.273 196.058 181.841C195.816 181.405 195.486 181.064 195.07 180.818C194.657 180.572 194.193 180.449 193.678 180.449C193.287 180.445 192.905 180.509 192.53 180.642C192.155 180.775 191.842 180.945 191.592 181.153L190.53 181.017L191.229 175.364H196.979V176.318H192.121L191.655 180.21H191.712C191.969 179.994 192.282 179.818 192.649 179.682C193.02 179.545 193.412 179.477 193.825 179.477C194.511 179.477 195.126 179.642 195.672 179.972C196.221 180.301 196.655 180.756 196.973 181.335C197.295 181.911 197.456 182.574 197.456 183.324C197.456 184.059 197.295 184.716 196.973 185.295C196.655 185.871 196.215 186.326 195.655 186.659C195.098 186.992 194.462 187.159 193.746 187.159ZM203.277 187.159C202.629 187.159 202.05 187.028 201.538 186.767C201.031 186.502 200.625 186.138 200.322 185.676C200.023 185.214 199.864 184.686 199.845 184.091H200.874C200.908 184.708 201.15 185.216 201.601 185.614C202.052 186.008 202.61 186.205 203.277 186.205C203.796 186.205 204.258 186.081 204.663 185.835C205.069 185.585 205.385 185.244 205.612 184.812C205.843 184.377 205.959 183.886 205.959 183.341C205.955 182.773 205.832 182.273 205.589 181.841C205.347 181.405 205.018 181.064 204.601 180.818C204.188 180.572 203.724 180.449 203.209 180.449C202.819 180.445 202.436 180.509 202.061 180.642C201.686 180.775 201.374 180.945 201.124 181.153L200.061 181.017L200.76 175.364H206.51V176.318H201.652L201.186 180.21H201.243C201.5 179.994 201.813 179.818 202.18 179.682C202.552 179.545 202.944 179.477 203.357 179.477C204.042 179.477 204.658 179.642 205.203 179.972C205.752 180.301 206.186 180.756 206.504 181.335C206.826 181.911 206.987 182.574 206.987 183.324C206.987 184.059 206.826 184.716 206.504 185.295C206.186 185.871 205.747 186.326 205.186 186.659C204.629 186.992 203.993 187.159 203.277 187.159ZM212.808 187.159C212.161 187.159 211.581 187.028 211.07 186.767C210.562 186.502 210.157 186.138 209.854 185.676C209.554 185.214 209.395 184.686 209.376 184.091H210.405C210.439 184.708 210.681 185.216 211.132 185.614C211.583 186.008 212.142 186.205 212.808 186.205C213.327 186.205 213.789 186.081 214.195 185.835C214.6 185.585 214.916 185.244 215.143 184.812C215.375 184.377 215.49 183.886 215.49 183.341C215.486 182.773 215.363 182.273 215.121 181.841C214.878 181.405 214.549 181.064 214.132 180.818C213.719 180.572 213.255 180.449 212.74 180.449C212.35 180.445 211.967 180.509 211.592 180.642C211.217 180.775 210.905 180.945 210.655 181.153L209.592 181.017L210.291 175.364H216.041V176.318H211.183L210.717 180.21H210.774C211.032 179.994 211.344 179.818 211.712 179.682C212.083 179.545 212.475 179.477 212.888 179.477C213.573 179.477 214.189 179.642 214.734 179.972C215.284 180.301 215.717 180.756 216.036 181.335C216.357 181.911 216.518 182.574 216.518 183.324C216.518 184.059 216.357 184.716 216.036 185.295C215.717 185.871 215.278 186.326 214.717 186.659C214.161 186.992 213.524 187.159 212.808 187.159ZM222.339 187.159C221.692 187.159 221.112 187.028 220.601 186.767C220.093 186.502 219.688 186.138 219.385 185.676C219.086 185.214 218.927 184.686 218.908 184.091H219.936C219.97 184.708 220.213 185.216 220.663 185.614C221.114 186.008 221.673 186.205 222.339 186.205C222.858 186.205 223.321 186.081 223.726 185.835C224.131 185.585 224.447 185.244 224.675 184.812C224.906 184.377 225.021 183.886 225.021 183.341C225.018 182.773 224.894 182.273 224.652 181.841C224.41 181.405 224.08 181.064 223.663 180.818C223.25 180.572 222.786 180.449 222.271 180.449C221.881 180.445 221.499 180.509 221.124 180.642C220.749 180.775 220.436 180.945 220.186 181.153L219.124 181.017L219.822 175.364H225.572V176.318H220.714L220.249 180.21H220.305C220.563 179.994 220.875 179.818 221.243 179.682C221.614 179.545 222.006 179.477 222.419 179.477C223.105 179.477 223.72 179.642 224.266 179.972C224.815 180.301 225.249 180.756 225.567 181.335C225.889 181.911 226.05 182.574 226.05 183.324C226.05 184.059 225.889 184.716 225.567 185.295C225.249 185.871 224.809 186.326 224.249 186.659C223.692 186.992 223.055 187.159 222.339 187.159ZM236.746 187.159C236.03 187.159 235.39 187.03 234.825 186.773C234.261 186.511 233.814 186.15 233.484 185.688C233.155 185.225 232.981 184.693 232.962 184.091H234.036C234.054 184.515 234.185 184.886 234.428 185.205C234.67 185.519 234.992 185.765 235.393 185.943C235.795 186.117 236.242 186.205 236.734 186.205C237.272 186.205 237.746 186.104 238.155 185.903C238.568 185.703 238.89 185.428 239.121 185.08C239.356 184.727 239.473 184.33 239.473 183.886C239.473 183.417 239.354 183.002 239.115 182.642C238.876 182.282 238.534 182.002 238.087 181.801C237.643 181.6 237.113 181.5 236.496 181.5H235.814V180.545H236.496C237 180.545 237.445 180.455 237.831 180.273C238.221 180.087 238.528 179.828 238.751 179.494C238.975 179.161 239.087 178.769 239.087 178.318C239.087 177.89 238.99 177.513 238.797 177.188C238.604 176.862 238.331 176.606 237.979 176.42C237.63 176.235 237.223 176.142 236.757 176.142C236.306 176.142 235.893 176.229 235.518 176.403C235.143 176.578 234.84 176.824 234.609 177.142C234.382 177.46 234.261 177.837 234.246 178.273H233.217C233.232 177.667 233.399 177.134 233.717 176.676C234.039 176.214 234.465 175.854 234.996 175.597C235.53 175.335 236.121 175.205 236.768 175.205C237.454 175.205 238.047 175.345 238.547 175.625C239.047 175.905 239.433 176.278 239.706 176.744C239.982 177.206 240.121 177.716 240.121 178.273C240.121 178.936 239.941 179.504 239.581 179.977C239.221 180.447 238.736 180.773 238.126 180.955V181.028C238.869 181.176 239.452 181.506 239.876 182.017C240.304 182.525 240.518 183.148 240.518 183.886C240.518 184.508 240.356 185.066 240.03 185.562C239.704 186.055 239.257 186.445 238.689 186.733C238.125 187.017 237.477 187.159 236.746 187.159ZM246.433 187.159C245.786 187.159 245.206 187.028 244.695 186.767C244.187 186.502 243.782 186.138 243.479 185.676C243.179 185.214 243.02 184.686 243.001 184.091H244.03C244.064 184.708 244.306 185.216 244.757 185.614C245.208 186.008 245.767 186.205 246.433 186.205C246.952 186.205 247.414 186.081 247.82 185.835C248.225 185.585 248.541 185.244 248.768 184.812C249 184.377 249.115 183.886 249.115 183.341C249.111 182.773 248.988 182.273 248.746 181.841C248.503 181.405 248.174 181.064 247.757 180.818C247.344 180.572 246.88 180.449 246.365 180.449C245.975 180.445 245.592 180.509 245.217 180.642C244.842 180.775 244.53 180.945 244.28 181.153L243.217 181.017L243.916 175.364H249.666V176.318H244.808L244.342 180.21H244.399C244.657 179.994 244.969 179.818 245.337 179.682C245.708 179.545 246.1 179.477 246.513 179.477C247.198 179.477 247.814 179.642 248.359 179.972C248.909 180.301 249.342 180.756 249.661 181.335C249.982 181.911 250.143 182.574 250.143 183.324C250.143 184.059 249.982 184.716 249.661 185.295C249.342 185.871 248.903 186.326 248.342 186.659C247.786 186.992 247.149 187.159 246.433 187.159Z" fill="white"/>
<defs>
<linearGradient id="paint0_linear_0_1" x1="0" y1="146.5" x2="1296" y2="146.5" gradientUnits="userSpaceOnUse">
<stop stop-color="#00A93C"/>
<stop offset="1" stop-color="#24CBFF"/>
</linearGradient>
</defs>
</svg>
