<svg width="100%" viewBox="0 0 1296 162" fill="none" xmlns="http://www.w3.org/2000/svg">
<rect x="0.5" y="0.5" width="1295" height="161" rx="19.5" stroke="url(#paint0_linear_106_712)"/>
<path d="M37.6761 50H34.4418V48.2741H37.5675C38.5646 48.2741 39.3935 48.0866 40.054 47.7116C40.7145 47.3324 41.2088 46.7848 41.5369 46.0689C41.8651 45.3487 42.0291 44.4709 42.0291 43.4354C42.0291 42.4084 41.8651 41.5369 41.5369 40.821C41.2131 40.1051 40.7294 39.5618 40.0859 39.1911C39.4425 38.8203 38.6435 38.6349 37.6889 38.6349H34.3714V36.9091H37.8104C39.093 36.9091 40.1946 37.1712 41.1151 37.6953C42.0355 38.2152 42.7408 38.9631 43.2308 39.9389C43.7251 40.9105 43.9723 42.076 43.9723 43.4354C43.9723 44.799 43.723 45.9709 43.2244 46.951C42.7301 47.9311 42.0142 48.6854 41.0767 49.2138C40.1392 49.7379 39.0057 50 37.6761 50ZM35.4134 36.9091V50H33.4382V36.9091H35.4134ZM31.4822 43.8572V42.5405H37.3565V43.8572H31.4822ZM46.275 50V40.1818H48.1863V50H46.275ZM47.2402 38.6669C46.9078 38.6669 46.6223 38.5561 46.3837 38.3345C46.1493 38.1087 46.0321 37.8402 46.0321 37.5291C46.0321 37.2138 46.1493 36.9453 46.3837 36.7237C46.6223 36.4979 46.9078 36.3849 47.2402 36.3849C47.5726 36.3849 47.856 36.4979 48.0904 36.7237C48.329 36.9453 48.4483 37.2138 48.4483 37.5291C48.4483 37.8402 48.329 38.1087 48.0904 38.3345C47.856 38.5561 47.5726 38.6669 47.2402 38.6669ZM47.2466 53.3878C46.9185 53.3878 46.6351 53.277 46.3965 53.0554C46.1578 52.8338 46.0385 52.5653 46.0385 52.25C46.0385 51.9347 46.1578 51.6662 46.3965 51.4446C46.6351 51.223 46.9185 51.1122 47.2466 51.1122C47.579 51.1122 47.8624 51.223 48.0968 51.4446C48.3354 51.6662 48.4547 51.9347 48.4547 52.25C48.4547 52.5653 48.3354 52.8338 48.0968 53.0554C47.8624 53.277 47.579 53.3878 47.2466 53.3878ZM53.6147 50.2173C52.9925 50.2173 52.43 50.1023 51.9272 49.8722C51.4244 49.6378 51.0259 49.299 50.7319 48.8558C50.4421 48.4126 50.2972 47.8693 50.2972 47.2259C50.2972 46.6719 50.4038 46.2159 50.6168 45.858C50.8299 45.5 51.1175 45.2166 51.4798 45.0078C51.842 44.799 52.2468 44.6413 52.6942 44.5348C53.1417 44.4283 53.5977 44.3473 54.0621 44.2919C54.6502 44.2237 55.1275 44.1683 55.494 44.1257C55.8604 44.0788 56.1268 44.0043 56.293 43.902C56.4592 43.7997 56.5423 43.6335 56.5423 43.4034V43.3587C56.5423 42.8004 56.3846 42.3679 56.0692 42.0611C55.7582 41.7543 55.2937 41.6009 54.6758 41.6009C54.0323 41.6009 53.5252 41.7436 53.1545 42.0291C52.788 42.3104 52.5344 42.6236 52.3938 42.9688L50.5977 42.5597C50.8107 41.9631 51.1218 41.4815 51.5309 41.1151C51.9442 40.7443 52.4194 40.4759 52.9563 40.3097C53.4933 40.1392 54.0579 40.054 54.6502 40.054C55.0423 40.054 55.4577 40.1009 55.8967 40.1946C56.3398 40.2841 56.7532 40.4503 57.1367 40.6932C57.5245 40.9361 57.842 41.2834 58.0891 41.7351C58.3363 42.1825 58.4599 42.7642 58.4599 43.4801V50H56.5934V48.6577H56.5167C56.3931 48.9048 56.2077 49.1477 55.9606 49.3864C55.7134 49.625 55.396 49.8232 55.0082 49.9808C54.6204 50.1385 54.1559 50.2173 53.6147 50.2173ZM54.0302 48.6832C54.5586 48.6832 55.0103 48.5788 55.3853 48.37C55.7646 48.1612 56.0522 47.8885 56.2482 47.5518C56.4485 47.2109 56.5487 46.8466 56.5487 46.4588V45.1932C56.4805 45.2614 56.3484 45.3253 56.1523 45.3849C55.9606 45.4403 55.7411 45.4893 55.494 45.532C55.2468 45.5703 55.006 45.6065 54.7717 45.6406C54.5373 45.6705 54.3413 45.696 54.1836 45.7173C53.8129 45.7642 53.4741 45.843 53.1673 45.9538C52.8647 46.0646 52.6218 46.2244 52.4386 46.4332C52.2596 46.6378 52.1701 46.9105 52.1701 47.2514C52.1701 47.7244 52.3448 48.0824 52.6942 48.3253C53.0437 48.5639 53.489 48.6832 54.0302 48.6832ZM69.9048 50.1982C68.9545 50.1982 68.1364 49.983 67.4503 49.5526C66.7685 49.1179 66.2443 48.5192 65.8778 47.7564C65.5114 46.9936 65.3281 46.12 65.3281 45.1357C65.3281 44.1385 65.5156 43.2585 65.8906 42.4957C66.2656 41.7287 66.794 41.13 67.4759 40.6996C68.1577 40.2692 68.9609 40.054 69.8857 40.054C70.6314 40.054 71.2962 40.1925 71.88 40.4695C72.4638 40.7422 72.9347 41.1257 73.2926 41.62C73.6548 42.1143 73.87 42.6918 73.9382 43.3523H72.0781C71.9759 42.892 71.7415 42.4957 71.375 42.1634C71.0128 41.831 70.527 41.6648 69.9176 41.6648C69.3849 41.6648 68.9183 41.8054 68.5178 42.0866C68.1214 42.3636 67.8125 42.7599 67.5909 43.2756C67.3693 43.7869 67.2585 44.392 67.2585 45.0909C67.2585 45.8068 67.3672 46.4247 67.5845 46.9446C67.8018 47.4645 68.1087 47.8672 68.505 48.1527C68.9055 48.4382 69.3764 48.581 69.9176 48.581C70.2798 48.581 70.608 48.5149 70.902 48.3828C71.2003 48.2464 71.4496 48.0526 71.6499 47.8011C71.8544 47.5497 71.9972 47.2472 72.0781 46.8935H73.9382C73.87 47.5284 73.6634 48.0952 73.3182 48.5938C72.973 49.0923 72.5107 49.4844 71.9311 49.7699C71.3558 50.0554 70.6804 50.1982 69.9048 50.1982ZM77.8933 44.1705V50H75.9821V36.9091H77.8677V41.7798H77.9892C78.2193 41.2514 78.5708 40.8317 79.0439 40.5206C79.5169 40.2095 80.1348 40.054 80.8976 40.054C81.5708 40.054 82.1589 40.1925 82.6618 40.4695C83.1689 40.7464 83.5609 41.1598 83.8379 41.7095C84.1191 42.255 84.2598 42.9368 84.2598 43.755V50H82.3485V43.9851C82.3485 43.2649 82.1632 42.7067 81.7924 42.3104C81.4217 41.9098 80.9061 41.7095 80.2456 41.7095C79.7939 41.7095 79.389 41.8054 79.0311 41.9972C78.6774 42.1889 78.3983 42.4702 78.1937 42.8409C77.9934 43.2074 77.8933 43.6506 77.8933 44.1705ZM86.8102 50V40.1818H88.7214V50H86.8102ZM88.5552 38.8267H87.0467L86.9956 37.5227C87.4473 37.5014 87.7669 37.4418 87.9544 37.3438C88.1419 37.2415 88.2335 37.0945 88.2292 36.9027C88.2335 36.6726 88.1035 36.5085 87.8393 36.4105C87.5794 36.3125 87.2619 36.2635 86.8869 36.2635L86.9444 35.2088C87.9118 35.2088 88.6447 35.3622 89.1433 35.669C89.6461 35.9759 89.8954 36.3892 89.8912 36.9091C89.8954 37.331 89.7569 37.642 89.4757 37.8423C89.1987 38.0384 88.8919 38.1619 88.5552 38.2131V38.8267ZM92.5518 50.1214C92.2024 50.1214 91.902 49.9979 91.6506 49.7507C91.3991 49.4993 91.2734 49.1967 91.2734 48.843C91.2734 48.4936 91.3991 48.1953 91.6506 47.9482C91.902 47.6967 92.2024 47.571 92.5518 47.571C92.9013 47.571 93.2017 47.6967 93.4531 47.9482C93.7045 48.1953 93.8303 48.4936 93.8303 48.843C93.8303 49.0774 93.7706 49.2926 93.6513 49.4886C93.5362 49.6804 93.3828 49.8338 93.1911 49.9489C92.9993 50.0639 92.7862 50.1214 92.5518 50.1214ZM92.5518 42.9751C92.2024 42.9751 91.902 42.8494 91.6506 42.598C91.3991 42.3466 91.2734 42.0462 91.2734 41.6967C91.2734 41.3473 91.3991 41.049 91.6506 40.8018C91.902 40.5504 92.2024 40.4247 92.5518 40.4247C92.9013 40.4247 93.2017 40.5504 93.4531 40.8018C93.7045 41.049 93.8303 41.3473 93.8303 41.6967C93.8303 41.9311 93.7706 42.1463 93.6513 42.3423C93.5362 42.5341 93.3828 42.6875 93.1911 42.8026C92.9993 42.9176 92.7862 42.9751 92.5518 42.9751Z" fill="white"/>
<path d="M156.847 40.1818C156.774 39.4531 156.452 38.8736 155.881 38.4432C155.31 38.0128 154.592 37.7976 153.727 37.7976C153.118 37.7976 152.581 37.902 152.116 38.1108C151.656 38.3196 151.294 38.6094 151.03 38.9801C150.77 39.3466 150.64 39.7642 150.64 40.233C150.64 40.5781 150.714 40.8807 150.864 41.1406C151.013 41.4006 151.213 41.6243 151.464 41.8118C151.72 41.995 152.001 42.1527 152.308 42.2848C152.619 42.4169 152.933 42.5277 153.248 42.6172L154.629 43.0135C155.046 43.1286 155.464 43.2756 155.881 43.4545C156.299 43.6335 156.68 43.8594 157.026 44.1321C157.375 44.4006 157.654 44.7308 157.863 45.1229C158.076 45.5107 158.183 45.9773 158.183 46.5227C158.183 47.2216 158.001 47.8501 157.639 48.4084C157.277 48.9666 156.757 49.4098 156.08 49.7379C155.402 50.0618 154.59 50.2237 153.644 50.2237C152.754 50.2237 151.98 50.0767 151.324 49.7827C150.668 49.4844 150.152 49.0732 149.777 48.549C149.402 48.0249 149.191 47.4176 149.144 46.7273H150.371C150.414 47.2429 150.585 47.6797 150.883 48.0376C151.181 48.3956 151.569 48.6683 152.046 48.8558C152.523 49.0391 153.056 49.1307 153.644 49.1307C154.296 49.1307 154.876 49.022 155.383 48.8047C155.894 48.5831 156.295 48.2763 156.585 47.8842C156.879 47.4879 157.026 47.0277 157.026 46.5036C157.026 46.0604 156.911 45.6896 156.68 45.3913C156.45 45.0888 156.129 44.8352 155.715 44.6307C155.306 44.4261 154.831 44.245 154.29 44.0874L152.724 43.6271C151.697 43.3203 150.9 42.8963 150.333 42.3551C149.766 41.8139 149.483 41.1236 149.483 40.2841C149.483 39.581 149.67 38.9631 150.045 38.4304C150.425 37.8935 150.936 37.4759 151.58 37.1776C152.227 36.875 152.954 36.7237 153.759 36.7237C154.573 36.7237 155.293 36.8729 155.92 37.1712C156.546 37.4695 157.043 37.8807 157.409 38.4048C157.78 38.9247 157.978 39.517 158.004 40.1818H156.847ZM164.638 50.2045C163.79 50.2045 163.04 49.9893 162.388 49.5589C161.741 49.1286 161.234 48.5341 160.867 47.7756C160.501 47.0128 160.317 46.1328 160.317 45.1357C160.317 44.13 160.501 43.2457 160.867 42.483C161.234 41.7159 161.741 41.1193 162.388 40.6932C163.04 40.2628 163.79 40.0476 164.638 40.0476C165.487 40.0476 166.234 40.2628 166.882 40.6932C167.53 41.1236 168.037 41.7202 168.403 42.483C168.774 43.2457 168.96 44.13 168.96 45.1357C168.96 46.1328 168.776 47.0128 168.41 47.7756C168.043 48.5341 167.534 49.1286 166.882 49.5589C166.234 49.9893 165.487 50.2045 164.638 50.2045ZM164.638 49.1626C165.32 49.1626 165.898 48.9794 166.371 48.6129C166.844 48.2464 167.202 47.7585 167.445 47.1491C167.692 46.5398 167.815 45.8686 167.815 45.1357C167.815 44.4027 167.692 43.7294 167.445 43.1158C167.202 42.5021 166.844 42.0099 166.371 41.6392C165.898 41.2685 165.32 41.0831 164.638 41.0831C163.961 41.0831 163.384 41.2685 162.906 41.6392C162.433 42.0099 162.073 42.5021 161.826 43.1158C161.583 43.7294 161.462 44.4027 161.462 45.1357C161.462 45.8686 161.583 46.5398 161.826 47.1491C162.073 47.7585 162.433 48.2464 162.906 48.6129C163.379 48.9794 163.957 49.1626 164.638 49.1626ZM161.647 38.8778L164.185 36.5064H165.156L167.7 38.8778H166.294L164.683 37.3182L163.072 38.8778H161.647ZM167.189 37.3054L168.531 35.0234H169.95L168.212 37.3054H167.189ZM176.162 47.1875V46.2159L181.998 36.9091H182.714V38.5391H182.183L177.498 46.0305V46.1136H185.149V47.1875H176.162ZM182.273 50V46.8807V46.4332V36.9091H183.41V50H182.273ZM189.064 48.2102L188.949 48.8942C188.877 49.3544 188.774 49.8615 188.642 50.4155C188.51 50.9695 188.374 51.4957 188.233 51.9943C188.093 52.4929 187.971 52.8935 187.869 53.196H186.993C187.048 52.9063 187.119 52.5376 187.204 52.0902C187.294 51.6428 187.385 51.1463 187.479 50.6009C187.573 50.0597 187.658 49.5014 187.735 48.9261L187.824 48.2102H189.064ZM201.211 50H198.04V48.9261H201.14C202.265 48.9261 203.207 48.7045 203.966 48.2614C204.724 47.8182 205.293 47.1854 205.672 46.3629C206.051 45.5405 206.241 44.5604 206.241 43.4226C206.237 42.2933 206.049 41.3217 205.679 40.5078C205.312 39.6939 204.767 39.0696 204.042 38.6349C203.322 38.2003 202.431 37.983 201.37 37.983H197.989V36.9091H201.441C202.689 36.9091 203.757 37.169 204.643 37.6889C205.534 38.2088 206.216 38.9545 206.689 39.9261C207.162 40.8977 207.398 42.0632 207.398 43.4226C207.398 44.7947 207.155 45.973 206.669 46.9574C206.188 47.9375 205.485 48.6896 204.56 49.2138C203.64 49.7379 202.523 50 201.211 50ZM198.571 36.9091V50H197.375V36.9091H198.571ZM195.285 43.7422V42.8217H200.654V43.7422H195.285ZM218.579 39.7791H219.602C219.602 40.3928 219.521 40.9041 219.359 41.3132C219.202 41.718 218.933 42.0227 218.554 42.2273C218.179 42.4318 217.661 42.5341 217.001 42.5341V41.6967C217.474 41.6967 217.821 41.6328 218.042 41.505C218.268 41.3729 218.413 41.1662 218.477 40.8849C218.545 40.5994 218.579 40.2308 218.579 39.7791ZM216.272 46.2479V40.1818H217.41V50H216.272V48.37H216.182C215.952 48.8729 215.588 49.2926 215.089 49.6293C214.591 49.9616 213.981 50.1278 213.261 50.1278C212.635 50.1278 212.079 49.9915 211.593 49.7188C211.107 49.4418 210.726 49.0369 210.449 48.5043C210.172 47.9716 210.033 47.3175 210.033 46.5419V40.1818H211.171V46.4716C211.171 47.2386 211.397 47.8565 211.849 48.3253C212.3 48.7898 212.88 49.022 213.587 49.022C214.03 49.022 214.456 48.9155 214.866 48.7024C215.275 48.4893 215.611 48.1783 215.876 47.7692C216.14 47.3558 216.272 46.8487 216.272 46.2479ZM228.597 39.3828H229.671C229.671 40.2862 229.479 40.9979 229.096 41.5178C228.717 42.0334 228.058 42.2997 227.121 42.3168V41.4666C227.534 41.4538 227.845 41.3643 228.054 41.1982C228.267 41.0277 228.41 40.7891 228.482 40.4822C228.559 40.1754 228.597 39.8089 228.597 39.3828ZM224.545 50.2045C223.697 50.2045 222.947 49.9893 222.295 49.5589C221.647 49.1286 221.14 48.5341 220.773 47.7756C220.407 47.0128 220.224 46.1328 220.224 45.1357C220.224 44.13 220.407 43.2457 220.773 42.483C221.14 41.7159 221.647 41.1193 222.295 40.6932C222.947 40.2628 223.697 40.0476 224.545 40.0476C225.393 40.0476 226.141 40.2628 226.788 40.6932C227.436 41.1236 227.943 41.7202 228.31 42.483C228.68 43.2457 228.866 44.13 228.866 45.1357C228.866 46.1328 228.683 47.0128 228.316 47.7756C227.95 48.5341 227.44 49.1286 226.788 49.5589C226.141 49.9893 225.393 50.2045 224.545 50.2045ZM224.545 49.1626C225.227 49.1626 225.804 48.9794 226.277 48.6129C226.75 48.2464 227.108 47.7585 227.351 47.1491C227.598 46.5398 227.722 45.8686 227.722 45.1357C227.722 44.4027 227.598 43.7294 227.351 43.1158C227.108 42.5021 226.75 42.0099 226.277 41.6392C225.804 41.2685 225.227 41.0831 224.545 41.0831C223.867 41.0831 223.29 41.2685 222.812 41.6392C222.339 42.0099 221.979 42.5021 221.732 43.1158C221.489 43.7294 221.368 44.4027 221.368 45.1357C221.368 45.8686 221.489 46.5398 221.732 47.1491C221.979 47.7585 222.339 48.2464 222.812 48.6129C223.286 48.9794 223.863 49.1626 224.545 49.1626ZM224.059 38.8203L222.097 35.9183H223.445L225.082 38.8203H224.059ZM232.431 43.8636V50H231.293V40.1818H232.399V41.7223H232.501C232.731 41.2195 233.089 40.8168 233.575 40.5142C234.065 40.2074 234.67 40.054 235.39 40.054C236.051 40.054 236.631 40.1925 237.129 40.4695C237.632 40.7422 238.022 41.1449 238.299 41.6776C238.58 42.2102 238.721 42.8643 238.721 43.6399V50H237.583V43.7102C237.583 42.9048 237.357 42.2678 236.905 41.799C236.458 41.3303 235.857 41.0959 235.103 41.0959C234.587 41.0959 234.129 41.2067 233.729 41.4283C233.328 41.6499 233.01 41.9695 232.776 42.3871C232.546 42.8004 232.431 43.2926 232.431 43.8636ZM245.463 53.8864C244.794 53.8864 244.208 53.799 243.705 53.6243C243.202 53.4538 242.778 53.2195 242.433 52.9212C242.088 52.6229 241.819 52.2884 241.627 51.9176L242.561 51.304C242.701 51.5511 242.889 51.794 243.123 52.0327C243.362 52.2713 243.671 52.4695 244.05 52.6271C244.434 52.7848 244.904 52.8636 245.463 52.8636C246.332 52.8636 247.033 52.6463 247.566 52.2116C248.103 51.777 248.371 51.1016 248.371 50.1854V47.9737H248.269C248.137 48.272 247.947 48.5703 247.7 48.8686C247.453 49.1626 247.129 49.4077 246.728 49.6037C246.332 49.7997 245.84 49.8977 245.252 49.8977C244.468 49.8977 243.771 49.7038 243.162 49.3161C242.556 48.9283 242.079 48.3743 241.73 47.6541C241.385 46.9297 241.212 46.0668 241.212 45.0653C241.212 44.0724 241.38 43.1989 241.717 42.4446C242.058 41.6903 242.533 41.1023 243.142 40.6804C243.752 40.2585 244.461 40.0476 245.271 40.0476C245.872 40.0476 246.37 40.1541 246.767 40.3672C247.163 40.576 247.48 40.8359 247.719 41.147C247.962 41.4581 248.152 41.7607 248.288 42.0547H248.403V40.1818H249.515V50.2557C249.515 51.0866 249.338 51.7706 248.985 52.3075C248.631 52.8445 248.15 53.2408 247.54 53.4964C246.931 53.7564 246.238 53.8864 245.463 53.8864ZM245.386 48.8558C246.017 48.8558 246.556 48.7045 247.003 48.402C247.451 48.0952 247.794 47.6562 248.032 47.0852C248.271 46.5142 248.39 45.8345 248.39 45.0462C248.39 44.2791 248.273 43.5994 248.039 43.0071C247.804 42.4105 247.463 41.9418 247.016 41.6009C246.573 41.2557 246.029 41.0831 245.386 41.0831C244.73 41.0831 244.176 41.2599 243.724 41.6136C243.272 41.9673 242.931 42.4446 242.701 43.0455C242.471 43.642 242.356 44.3089 242.356 45.0462C242.356 45.7962 242.473 46.4588 242.708 47.0341C242.942 47.6051 243.285 48.0526 243.737 48.3764C244.189 48.696 244.738 48.8558 245.386 48.8558ZM261.796 50.179C260.991 50.179 260.27 50.0341 259.635 49.7443C259.001 49.4503 258.498 49.0433 258.127 48.5234C257.756 48.0036 257.56 47.4048 257.539 46.7273H258.747C258.768 47.2045 258.915 47.6222 259.188 47.9801C259.461 48.3338 259.823 48.6108 260.275 48.8111C260.726 49.0071 261.229 49.1051 261.783 49.1051C262.388 49.1051 262.921 48.9922 263.381 48.7663C263.846 48.5405 264.208 48.2315 264.468 47.8395C264.732 47.4432 264.864 46.9957 264.864 46.4972C264.864 45.9687 264.73 45.5021 264.461 45.0973C264.193 44.6925 263.807 44.3771 263.305 44.1513C262.806 43.9254 262.209 43.8125 261.515 43.8125H260.748V42.7386H261.515C262.081 42.7386 262.582 42.6364 263.017 42.4318C263.456 42.223 263.801 41.9311 264.052 41.5561C264.304 41.1811 264.43 40.7401 264.43 40.233C264.43 39.7514 264.321 39.3274 264.104 38.9609C263.886 38.5945 263.579 38.3068 263.183 38.098C262.791 37.8892 262.333 37.7848 261.809 37.7848C261.302 37.7848 260.837 37.8828 260.415 38.0788C259.993 38.2749 259.653 38.5518 259.393 38.9098C259.137 39.2678 259.001 39.6918 258.983 40.1818H257.827C257.844 39.5 258.031 38.9013 258.389 38.3857C258.751 37.8658 259.231 37.4609 259.827 37.1712C260.428 36.8771 261.093 36.7301 261.822 36.7301C262.593 36.7301 263.26 36.8878 263.822 37.2031C264.385 37.5185 264.819 37.9382 265.126 38.4624C265.437 38.9822 265.593 39.5554 265.593 40.1818C265.593 40.9276 265.39 41.5668 264.986 42.0994C264.581 42.6278 264.035 42.9943 263.349 43.1989V43.282C264.184 43.4482 264.841 43.8189 265.318 44.3942C265.8 44.9652 266.04 45.6662 266.04 46.4972C266.04 47.196 265.857 47.8246 265.491 48.3828C265.124 48.9368 264.621 49.3757 263.982 49.6996C263.347 50.0192 262.618 50.179 261.796 50.179ZM272.931 50.179C272.01 50.179 271.224 49.9148 270.572 49.3864C269.925 48.8537 269.426 48.0845 269.077 47.0788C268.731 46.0732 268.559 44.8651 268.559 43.4545C268.559 42.0483 268.731 40.8445 269.077 39.843C269.426 38.8374 269.927 38.0682 270.579 37.5355C271.235 36.9986 272.019 36.7301 272.931 36.7301C273.843 36.7301 274.625 36.9986 275.277 37.5355C275.933 38.0682 276.434 38.8374 276.779 39.843C277.128 40.8445 277.303 42.0483 277.303 43.4545C277.303 44.8651 277.128 46.0732 276.779 47.0788C276.434 48.0845 275.935 48.8537 275.283 49.3864C274.635 49.9148 273.851 50.179 272.931 50.179ZM272.931 49.1051C273.941 49.1051 274.729 48.6129 275.296 47.6286C275.863 46.6399 276.146 45.2486 276.146 43.4545C276.146 42.2614 276.016 41.2429 275.756 40.3991C275.501 39.5511 275.132 38.9034 274.65 38.456C274.173 38.0085 273.6 37.7848 272.931 37.7848C271.93 37.7848 271.143 38.2834 270.572 39.2805C270.001 40.2734 269.716 41.6648 269.716 43.4545C269.716 44.6477 269.844 45.6662 270.099 46.5099C270.359 47.3537 270.728 47.9972 271.205 48.4403C271.687 48.8835 272.262 49.1051 272.931 49.1051ZM284.2 36.2955L279.981 51.9688H278.914L283.133 36.2955H284.2ZM285.814 47.1875V46.2159L291.65 36.9091H292.366V38.5391H291.835L287.15 46.0305V46.1136H294.801V47.1875H285.814ZM291.925 50V46.8807V46.4332V36.9091H293.063V50H291.925ZM298.716 48.2102L298.601 48.8942C298.529 49.3544 298.427 49.8615 298.295 50.4155C298.162 50.9695 298.026 51.4957 297.885 51.9943C297.745 52.4929 297.623 52.8935 297.521 53.196H296.645C296.701 52.9063 296.771 52.5376 296.856 52.0902C296.946 51.6428 297.037 51.1463 297.131 50.6009C297.225 50.0597 297.31 49.5014 297.387 48.9261L297.476 48.2102H298.716ZM307.028 50V36.9091H311.253C312.182 36.9091 312.957 37.0881 313.58 37.446C314.206 37.7997 314.677 38.2812 314.992 38.8906C315.312 39.5 315.472 40.1861 315.472 40.9489C315.472 41.7116 315.314 42.3999 314.999 43.0135C314.683 43.6229 314.214 44.1065 313.592 44.4645C312.97 44.8182 312.197 44.995 311.272 44.995H307.948V43.9212H311.24C311.926 43.9212 312.495 43.7933 312.947 43.5376C313.398 43.2777 313.735 42.924 313.957 42.4766C314.183 42.0291 314.295 41.5199 314.295 40.9489C314.295 40.3778 314.183 39.8686 313.957 39.4212C313.735 38.9737 313.396 38.6222 312.94 38.3665C312.489 38.1108 311.915 37.983 311.221 37.983H308.223V50H307.028ZM319.179 43.8636V50H318.041V36.9091H319.179V41.7223H319.281C319.511 41.2152 319.867 40.8104 320.349 40.5078C320.835 40.2053 321.448 40.054 322.19 40.054C322.854 40.054 323.438 40.1903 323.941 40.4631C324.444 40.7358 324.836 41.1385 325.117 41.6712C325.398 42.2038 325.539 42.8601 325.539 43.6399V50H324.395V43.7102C324.395 42.9006 324.169 42.2635 323.717 41.799C323.27 41.3303 322.665 41.0959 321.902 41.0959C321.378 41.0959 320.911 41.2067 320.502 41.4283C320.093 41.6499 319.769 41.9695 319.531 42.3871C319.296 42.8004 319.179 43.2926 319.179 43.8636ZM337.056 39.7791H338.079C338.079 40.3928 337.998 40.9041 337.836 41.3132C337.678 41.718 337.41 42.0227 337.03 42.2273C336.655 42.4318 336.138 42.5341 335.477 42.5341V41.6967C335.95 41.6967 336.297 41.6328 336.519 41.505C336.745 41.3729 336.89 41.1662 336.954 40.8849C337.022 40.5994 337.056 40.2308 337.056 39.7791ZM334.748 46.2479V40.1818H335.886V50H334.748V48.37H334.659C334.429 48.8729 334.064 49.2926 333.566 49.6293C333.067 49.9616 332.458 50.1278 331.738 50.1278C331.111 50.1278 330.555 49.9915 330.069 49.7188C329.584 49.4418 329.202 49.0369 328.925 48.5043C328.648 47.9716 328.51 47.3175 328.51 46.5419V40.1818H329.648V46.4716C329.648 47.2386 329.873 47.8565 330.325 48.3253C330.777 48.7898 331.356 49.022 332.064 49.022C332.507 49.022 332.933 48.9155 333.342 48.7024C333.751 48.4893 334.088 48.1783 334.352 47.7692C334.616 47.3558 334.748 46.8487 334.748 46.2479ZM347.074 39.3828H348.148C348.148 40.2862 347.956 40.9979 347.572 41.5178C347.193 42.0334 346.535 42.2997 345.597 42.3168V41.4666C346.011 41.4538 346.322 41.3643 346.531 41.1982C346.744 41.0277 346.886 40.7891 346.959 40.4822C347.036 40.1754 347.074 39.8089 347.074 39.3828ZM343.021 50.2045C342.173 50.2045 341.423 49.9893 340.771 49.5589C340.124 49.1286 339.616 48.5341 339.25 47.7756C338.884 47.0128 338.7 46.1328 338.7 45.1357C338.7 44.13 338.884 43.2457 339.25 42.483C339.616 41.7159 340.124 41.1193 340.771 40.6932C341.423 40.2628 342.173 40.0476 343.021 40.0476C343.869 40.0476 344.617 40.2628 345.265 40.6932C345.913 41.1236 346.42 41.7202 346.786 42.483C347.157 43.2457 347.342 44.13 347.342 45.1357C347.342 46.1328 347.159 47.0128 346.793 47.7756C346.426 48.5341 345.917 49.1286 345.265 49.5589C344.617 49.9893 343.869 50.2045 343.021 50.2045ZM343.021 49.1626C343.703 49.1626 344.281 48.9794 344.754 48.6129C345.227 48.2464 345.585 47.7585 345.827 47.1491C346.075 46.5398 346.198 45.8686 346.198 45.1357C346.198 44.4027 346.075 43.7294 345.827 43.1158C345.585 42.5021 345.227 42.0099 344.754 41.6392C344.281 41.2685 343.703 41.0831 343.021 41.0831C342.344 41.0831 341.766 41.2685 341.289 41.6392C340.816 42.0099 340.456 42.5021 340.209 43.1158C339.966 43.7294 339.844 44.4027 339.844 45.1357C339.844 45.8686 339.966 46.5398 340.209 47.1491C340.456 47.7585 340.816 48.2464 341.289 48.6129C341.762 48.9794 342.339 49.1626 343.021 49.1626ZM342.536 38.8203L340.573 35.9183H341.922L343.558 38.8203H342.536ZM350.907 43.8636V50H349.77V40.1818H350.876V41.7223H350.978C351.208 41.2195 351.566 40.8168 352.052 40.5142C352.542 40.2074 353.147 40.054 353.867 40.054C354.528 40.054 355.107 40.1925 355.606 40.4695C356.108 40.7422 356.498 41.1449 356.775 41.6776C357.057 42.2102 357.197 42.8643 357.197 43.6399V50H356.059V43.7102C356.059 42.9048 355.834 42.2678 355.382 41.799C354.934 41.3303 354.334 41.0959 353.579 41.0959C353.064 41.0959 352.606 41.2067 352.205 41.4283C351.805 41.6499 351.487 41.9695 351.253 42.3871C351.023 42.8004 350.907 43.2926 350.907 43.8636ZM363.939 53.8864C363.27 53.8864 362.684 53.799 362.181 53.6243C361.679 53.4538 361.255 53.2195 360.909 52.9212C360.564 52.6229 360.296 52.2884 360.104 51.9176L361.037 51.304C361.178 51.5511 361.365 51.794 361.6 52.0327C361.838 52.2713 362.147 52.4695 362.527 52.6271C362.91 52.7848 363.381 52.8636 363.939 52.8636C364.809 52.8636 365.51 52.6463 366.042 52.2116C366.579 51.777 366.848 51.1016 366.848 50.1854V47.9737H366.745C366.613 48.272 366.424 48.5703 366.176 48.8686C365.929 49.1626 365.605 49.4077 365.205 49.6037C364.809 49.7997 364.316 49.8977 363.728 49.8977C362.944 49.8977 362.248 49.7038 361.638 49.3161C361.033 48.9283 360.556 48.3743 360.206 47.6541C359.861 46.9297 359.689 46.0668 359.689 45.0653C359.689 44.0724 359.857 43.1989 360.194 42.4446C360.534 41.6903 361.01 41.1023 361.619 40.6804C362.228 40.2585 362.938 40.0476 363.748 40.0476C364.348 40.0476 364.847 40.1541 365.243 40.3672C365.64 40.576 365.957 40.8359 366.196 41.147C366.439 41.4581 366.628 41.7607 366.765 42.0547H366.88V40.1818H367.992V50.2557C367.992 51.0866 367.815 51.7706 367.461 52.3075C367.108 52.8445 366.626 53.2408 366.017 53.4964C365.407 53.7564 364.715 53.8864 363.939 53.8864ZM363.863 48.8558C364.493 48.8558 365.032 48.7045 365.48 48.402C365.927 48.0952 366.27 47.6562 366.509 47.0852C366.748 46.5142 366.867 45.8345 366.867 45.0462C366.867 44.2791 366.75 43.5994 366.515 43.0071C366.281 42.4105 365.94 41.9418 365.493 41.6009C365.049 41.2557 364.506 41.0831 363.863 41.0831C363.206 41.0831 362.652 41.2599 362.201 41.6136C361.749 41.9673 361.408 42.4446 361.178 43.0455C360.948 43.642 360.833 44.3089 360.833 45.0462C360.833 45.7962 360.95 46.4588 361.184 47.0341C361.419 47.6051 361.762 48.0526 362.213 48.3764C362.665 48.696 363.215 48.8558 363.863 48.8558ZM380.062 36.9091V50H378.866V38.1619H378.79L375.721 40.201V38.9609L378.815 36.9091H380.062ZM385.201 48.2102L385.086 48.8942C385.013 49.3544 384.911 49.8615 384.779 50.4155C384.647 50.9695 384.51 51.4957 384.37 51.9943C384.229 52.4929 384.108 52.8935 384.006 53.196H383.13C383.185 52.9063 383.256 52.5376 383.341 52.0902C383.43 51.6428 383.522 51.1463 383.616 50.6009C383.709 50.0597 383.795 49.5014 383.871 48.9261L383.961 48.2102H385.201ZM392.719 37.983V36.9091H402.212V37.983H398.063V50H396.868V37.983H392.719ZM404.903 50V36.9091H409.128C410.057 36.9091 410.832 37.0881 411.455 37.446C412.081 37.7997 412.552 38.2812 412.867 38.8906C413.187 39.5 413.347 40.1861 413.347 40.9489C413.347 41.7116 413.189 42.3999 412.874 43.0135C412.558 43.6229 412.089 44.1065 411.467 44.4645C410.845 44.8182 410.072 44.995 409.147 44.995H405.823V43.9212H409.115C409.801 43.9212 410.37 43.7933 410.822 43.5376C411.273 43.2777 411.61 42.924 411.832 42.4766C412.058 42.0291 412.17 41.5199 412.17 40.9489C412.17 40.3778 412.058 39.8686 411.832 39.4212C411.61 38.9737 411.271 38.6222 410.815 38.3665C410.364 38.1108 409.79 37.983 409.096 37.983H406.098V50H404.903ZM431.468 41H430.266C430.177 40.5526 430.015 40.1392 429.781 39.7599C429.55 39.3764 429.261 39.0419 428.911 38.7564C428.562 38.4709 428.165 38.2493 427.722 38.0916C427.279 37.9339 426.8 37.8551 426.284 37.8551C425.457 37.8551 424.703 38.0703 424.021 38.5007C423.344 38.9311 422.8 39.5639 422.391 40.3991C421.987 41.2301 421.784 42.2486 421.784 43.4545C421.784 44.669 421.987 45.6918 422.391 46.5227C422.8 47.3537 423.344 47.9844 424.021 48.4148C424.703 48.8409 425.457 49.054 426.284 49.054C426.8 49.054 427.279 48.9751 427.722 48.8175C428.165 48.6598 428.562 48.4403 428.911 48.1591C429.261 47.8736 429.55 47.5391 429.781 47.1555C430.015 46.772 430.177 46.3565 430.266 45.9091H431.468C431.362 46.5099 431.161 47.0703 430.867 47.5902C430.577 48.1058 430.207 48.5575 429.755 48.9453C429.308 49.3331 428.792 49.6357 428.208 49.853C427.624 50.0703 426.983 50.179 426.284 50.179C425.185 50.179 424.209 49.9041 423.357 49.3544C422.504 48.8004 421.835 48.0206 421.349 47.0149C420.868 46.0092 420.627 44.8224 420.627 43.4545C420.627 42.0866 420.868 40.8999 421.349 39.8942C421.835 38.8885 422.504 38.1108 423.357 37.5611C424.209 37.0071 425.185 36.7301 426.284 36.7301C426.983 36.7301 427.624 36.8388 428.208 37.0561C428.792 37.2692 429.308 37.5717 429.755 37.9638C430.207 38.3516 430.577 38.8033 430.867 39.3189C431.161 39.8345 431.362 40.3949 431.468 41ZM436.781 50.2237C436.189 50.2237 435.648 50.1087 435.158 49.8786C434.668 49.6442 434.278 49.3075 433.988 48.8686C433.698 48.4254 433.553 47.8885 433.553 47.2578C433.553 46.772 433.645 46.3629 433.828 46.0305C434.012 45.6982 434.271 45.4254 434.608 45.2124C434.945 44.9993 435.343 44.831 435.803 44.7074C436.264 44.5838 436.771 44.4879 437.325 44.4197C437.874 44.3516 438.339 44.2919 438.718 44.2408C439.102 44.1896 439.394 44.1087 439.594 43.9979C439.794 43.8871 439.894 43.7081 439.894 43.4609V43.2308C439.894 42.5618 439.694 42.0355 439.294 41.652C438.897 41.2642 438.326 41.0703 437.58 41.0703C436.873 41.0703 436.296 41.2259 435.848 41.5369C435.405 41.848 435.094 42.2145 434.915 42.6364L433.835 42.2464C434.056 41.7095 434.363 41.2812 434.755 40.9616C435.147 40.6378 435.586 40.4055 436.072 40.2649C436.558 40.12 437.05 40.0476 437.548 40.0476C437.923 40.0476 438.313 40.0966 438.718 40.1946C439.127 40.2926 439.507 40.4631 439.856 40.706C440.205 40.9446 440.489 41.2791 440.706 41.7095C440.923 42.1357 441.032 42.6768 441.032 43.3331V50H439.894V48.4467H439.824C439.688 48.7365 439.485 49.0178 439.217 49.2905C438.948 49.5632 438.612 49.7869 438.207 49.9616C437.802 50.1364 437.327 50.2237 436.781 50.2237ZM436.935 49.1818C437.54 49.1818 438.064 49.0476 438.507 48.7791C438.95 48.5107 439.291 48.1548 439.53 47.7116C439.773 47.2642 439.894 46.772 439.894 46.2351V44.8161C439.809 44.897 439.666 44.9695 439.466 45.0334C439.27 45.0973 439.042 45.1548 438.782 45.206C438.526 45.2528 438.271 45.2933 438.015 45.3274C437.759 45.3615 437.529 45.3913 437.325 45.4169C436.771 45.4851 436.298 45.5916 435.906 45.7365C435.514 45.8814 435.213 46.0817 435.004 46.3374C434.796 46.5888 434.691 46.9126 434.691 47.3089C434.691 47.9055 434.904 48.3679 435.33 48.696C435.757 49.0199 436.291 49.1818 436.935 49.1818ZM447.875 50.2045C447.027 50.2045 446.277 49.9893 445.625 49.5589C444.977 49.1286 444.47 48.5341 444.104 47.7756C443.737 47.0128 443.554 46.1328 443.554 45.1357C443.554 44.13 443.737 43.2457 444.104 42.483C444.47 41.7159 444.977 41.1193 445.625 40.6932C446.277 40.2628 447.027 40.0476 447.875 40.0476C448.723 40.0476 449.471 40.2628 450.118 40.6932C450.766 41.1236 451.273 41.7202 451.64 42.483C452.01 43.2457 452.196 44.13 452.196 45.1357C452.196 46.1328 452.013 47.0128 451.646 47.7756C451.28 48.5341 450.77 49.1286 450.118 49.5589C449.471 49.9893 448.723 50.2045 447.875 50.2045ZM447.875 49.1626C448.557 49.1626 449.134 48.9794 449.607 48.6129C450.08 48.2464 450.438 47.7585 450.681 47.1491C450.928 46.5398 451.052 45.8686 451.052 45.1357C451.052 44.4027 450.928 43.7294 450.681 43.1158C450.438 42.5021 450.08 42.0099 449.607 41.6392C449.134 41.2685 448.557 41.0831 447.875 41.0831C447.197 41.0831 446.62 41.2685 446.143 41.6392C445.67 42.0099 445.309 42.5021 445.062 43.1158C444.819 43.7294 444.698 44.4027 444.698 45.1357C444.698 45.8686 444.819 46.5398 445.062 47.1491C445.309 47.7585 445.67 48.2464 446.143 48.6129C446.616 48.9794 447.193 49.1626 447.875 49.1626ZM459.993 50V36.9091H461.188V48.9261H467.426V50H459.993ZM472.623 50.2237C472.031 50.2237 471.49 50.1087 471 49.8786C470.51 49.6442 470.12 49.3075 469.83 48.8686C469.54 48.4254 469.395 47.8885 469.395 47.2578C469.395 46.772 469.487 46.3629 469.67 46.0305C469.853 45.6982 470.113 45.4254 470.45 45.2124C470.787 44.9993 471.185 44.831 471.645 44.7074C472.105 44.5838 472.613 44.4879 473.167 44.4197C473.716 44.3516 474.181 44.2919 474.56 44.2408C474.944 44.1896 475.235 44.1087 475.436 43.9979C475.636 43.8871 475.736 43.7081 475.736 43.4609V43.2308C475.736 42.5618 475.536 42.0355 475.135 41.652C474.739 41.2642 474.168 41.0703 473.422 41.0703C472.715 41.0703 472.137 41.2259 471.69 41.5369C471.247 41.848 470.936 42.2145 470.757 42.6364L469.676 42.2464C469.898 41.7095 470.205 41.2812 470.597 40.9616C470.989 40.6378 471.428 40.4055 471.914 40.2649C472.4 40.12 472.892 40.0476 473.39 40.0476C473.765 40.0476 474.155 40.0966 474.56 40.1946C474.969 40.2926 475.348 40.4631 475.698 40.706C476.047 40.9446 476.331 41.2791 476.548 41.7095C476.765 42.1357 476.874 42.6768 476.874 43.3331V50H475.736V48.4467H475.666C475.529 48.7365 475.327 49.0178 475.059 49.2905C474.79 49.5632 474.453 49.7869 474.049 49.9616C473.644 50.1364 473.169 50.2237 472.623 50.2237ZM472.777 49.1818C473.382 49.1818 473.906 49.0476 474.349 48.7791C474.792 48.5107 475.133 48.1548 475.372 47.7116C475.615 47.2642 475.736 46.772 475.736 46.2351V44.8161C475.651 44.897 475.508 44.9695 475.308 45.0334C475.112 45.0973 474.884 45.1548 474.624 45.206C474.368 45.2528 474.113 45.2933 473.857 45.3274C473.601 45.3615 473.371 45.3913 473.167 45.4169C472.613 45.4851 472.14 45.5916 471.748 45.7365C471.355 45.8814 471.055 46.0817 470.846 46.3374C470.637 46.5888 470.533 46.9126 470.533 47.3089C470.533 47.9055 470.746 48.3679 471.172 48.696C471.598 49.0199 472.133 49.1818 472.777 49.1818ZM471.332 38.8267L470.412 38.7756C470.433 38.2088 470.62 37.7443 470.974 37.3821C471.328 37.0199 471.76 36.8388 472.272 36.8388C472.532 36.8388 472.76 36.8857 472.956 36.9794C473.152 37.0689 473.335 37.1733 473.505 37.2926C473.68 37.4077 473.857 37.5099 474.036 37.5994C474.219 37.6889 474.426 37.7337 474.656 37.7337C474.916 37.7337 475.142 37.6399 475.333 37.4524C475.529 37.2649 475.64 37.0327 475.666 36.7557L476.567 36.858C476.537 37.429 476.343 37.8871 475.985 38.2322C475.632 38.5732 475.206 38.7436 474.707 38.7436C474.422 38.7436 474.181 38.6989 473.985 38.6094C473.793 38.5156 473.618 38.4112 473.461 38.2962C473.307 38.1768 473.141 38.0724 472.962 37.983C472.787 37.8935 472.574 37.8487 472.323 37.8487C472.05 37.8487 471.82 37.9425 471.632 38.13C471.449 38.3175 471.349 38.5497 471.332 38.8267ZM481.038 43.8636V50H479.901V40.1818H481.006V41.7223H481.109C481.339 41.2195 481.697 40.8168 482.183 40.5142C482.673 40.2074 483.278 40.054 483.998 40.054C484.658 40.054 485.238 40.1925 485.737 40.4695C486.239 40.7422 486.629 41.1449 486.906 41.6776C487.188 42.2102 487.328 42.8643 487.328 43.6399V50H486.19V43.7102C486.19 42.9048 485.964 42.2678 485.513 41.799C485.065 41.3303 484.464 41.0959 483.71 41.0959C483.195 41.0959 482.737 41.2067 482.336 41.4283C481.935 41.6499 481.618 41.9695 481.384 42.3871C481.153 42.8004 481.038 43.2926 481.038 43.8636ZM491.462 43.8636V50H490.324V36.9091H491.462V41.7223H491.564C491.795 41.2152 492.15 40.8104 492.632 40.5078C493.118 40.2053 493.731 40.054 494.473 40.054C495.138 40.054 495.721 40.1903 496.224 40.4631C496.727 40.7358 497.119 41.1385 497.4 41.6712C497.682 42.2038 497.822 42.8601 497.822 43.6399V50H496.678V43.7102C496.678 42.9006 496.452 42.2635 496.001 41.799C495.553 41.3303 494.948 41.0959 494.185 41.0959C493.661 41.0959 493.194 41.2067 492.785 41.4283C492.376 41.6499 492.052 41.9695 491.814 42.3871C491.579 42.8004 491.462 43.2926 491.462 43.8636ZM502.711 48.2102L502.596 48.8942C502.523 49.3544 502.421 49.8615 502.289 50.4155C502.157 50.9695 502.02 51.4957 501.88 51.9943C501.739 52.4929 501.618 52.8935 501.515 53.196H500.64C500.695 52.9063 500.765 52.5376 500.85 52.0902C500.94 51.6428 501.032 51.1463 501.125 50.6009C501.219 50.0597 501.304 49.5014 501.381 48.9261L501.471 48.2102H502.711ZM514.857 50H511.687V48.9261H514.787C515.912 48.9261 516.854 48.7045 517.612 48.2614C518.371 47.8182 518.939 47.1854 519.319 46.3629C519.698 45.5405 519.888 44.5604 519.888 43.4226C519.883 42.2933 519.696 41.3217 519.325 40.5078C518.959 39.6939 518.413 39.0696 517.689 38.6349C516.969 38.2003 516.078 37.983 515.017 37.983H511.635V36.9091H515.087C516.336 36.9091 517.403 37.169 518.29 37.6889C519.18 38.2088 519.862 38.9545 520.335 39.9261C520.808 40.8977 521.045 42.0632 521.045 43.4226C521.045 44.7947 520.802 45.973 520.316 46.9574C519.834 47.9375 519.131 48.6896 518.206 49.2138C517.286 49.7379 516.17 50 514.857 50ZM512.217 36.9091V50H511.022V36.9091H512.217ZM508.932 43.7422V42.8217H514.301V43.7422H508.932ZM527.521 50.2045C526.673 50.2045 525.923 49.9893 525.271 49.5589C524.624 49.1286 524.116 48.5341 523.75 47.7756C523.384 47.0128 523.2 46.1328 523.2 45.1357C523.2 44.13 523.384 43.2457 523.75 42.483C524.116 41.7159 524.624 41.1193 525.271 40.6932C525.923 40.2628 526.673 40.0476 527.521 40.0476C528.369 40.0476 529.117 40.2628 529.765 40.6932C530.413 41.1236 530.92 41.7202 531.286 42.483C531.657 43.2457 531.842 44.13 531.842 45.1357C531.842 46.1328 531.659 47.0128 531.293 47.7756C530.926 48.5341 530.417 49.1286 529.765 49.5589C529.117 49.9893 528.369 50.2045 527.521 50.2045ZM527.521 49.1626C528.203 49.1626 528.781 48.9794 529.254 48.6129C529.727 48.2464 530.085 47.7585 530.327 47.1491C530.575 46.5398 530.698 45.8686 530.698 45.1357C530.698 44.4027 530.575 43.7294 530.327 43.1158C530.085 42.5021 529.727 42.0099 529.254 41.6392C528.781 41.2685 528.203 41.0831 527.521 41.0831C526.844 41.0831 526.266 41.2685 525.789 41.6392C525.316 42.0099 524.956 42.5021 524.709 43.1158C524.466 43.7294 524.344 44.4027 524.344 45.1357C524.344 45.8686 524.466 46.5398 524.709 47.1491C524.956 47.7585 525.316 48.2464 525.789 48.6129C526.262 48.9794 526.839 49.1626 527.521 49.1626ZM528.007 36.4169L530.545 38.782H529.138L527.528 37.2223L525.917 38.782H524.511L527.036 36.4169H528.007ZM523.75 34.9148L525.035 37.2159H524.031L522.318 34.9148H523.75ZM535.478 43.8636V50H534.34V40.1818H535.446V41.7223H535.548C535.778 41.2195 536.136 40.8168 536.622 40.5142C537.112 40.2074 537.717 40.054 538.437 40.054C539.098 40.054 539.677 40.1925 540.176 40.4695C540.679 40.7422 541.069 41.1449 541.346 41.6776C541.627 42.2102 541.768 42.8643 541.768 43.6399V50H540.63V43.7102C540.63 42.9048 540.404 42.2678 539.952 41.799C539.505 41.3303 538.904 41.0959 538.15 41.0959C537.634 41.0959 537.176 41.2067 536.775 41.4283C536.375 41.6499 536.057 41.9695 535.823 42.3871C535.593 42.8004 535.478 43.2926 535.478 43.8636ZM548.51 53.8864C547.841 53.8864 547.255 53.799 546.752 53.6243C546.249 53.4538 545.825 53.2195 545.48 52.9212C545.135 52.6229 544.866 52.2884 544.674 51.9176L545.608 51.304C545.748 51.5511 545.936 51.794 546.17 52.0327C546.409 52.2713 546.718 52.4695 547.097 52.6271C547.48 52.7848 547.951 52.8636 548.51 52.8636C549.379 52.8636 550.08 52.6463 550.613 52.2116C551.15 51.777 551.418 51.1016 551.418 50.1854V47.9737H551.316C551.184 48.272 550.994 48.5703 550.747 48.8686C550.5 49.1626 550.176 49.4077 549.775 49.6037C549.379 49.7997 548.887 49.8977 548.299 49.8977C547.515 49.8977 546.818 49.7038 546.208 49.3161C545.603 48.9283 545.126 48.3743 544.777 47.6541C544.431 46.9297 544.259 46.0668 544.259 45.0653C544.259 44.0724 544.427 43.1989 544.764 42.4446C545.105 41.6903 545.58 41.1023 546.189 40.6804C546.799 40.2585 547.508 40.0476 548.318 40.0476C548.919 40.0476 549.417 40.1541 549.814 40.3672C550.21 40.576 550.527 40.8359 550.766 41.147C551.009 41.4581 551.199 41.7607 551.335 42.0547H551.45V40.1818H552.562V50.2557C552.562 51.0866 552.385 51.7706 552.032 52.3075C551.678 52.8445 551.196 53.2408 550.587 53.4964C549.978 53.7564 549.285 53.8864 548.51 53.8864ZM548.433 48.8558C549.064 48.8558 549.603 48.7045 550.05 48.402C550.498 48.0952 550.841 47.6562 551.079 47.0852C551.318 46.5142 551.437 45.8345 551.437 45.0462C551.437 44.2791 551.32 43.5994 551.086 43.0071C550.851 42.4105 550.51 41.9418 550.063 41.6009C549.62 41.2557 549.076 41.0831 548.433 41.0831C547.777 41.0831 547.223 41.2599 546.771 41.6136C546.319 41.9673 545.978 42.4446 545.748 43.0455C545.518 43.642 545.403 44.3089 545.403 45.0462C545.403 45.7962 545.52 46.4588 545.755 47.0341C545.989 47.6051 546.332 48.0526 546.784 48.3764C547.235 48.696 547.785 48.8558 548.433 48.8558ZM560.081 37.983V36.9091H569.573V37.983H565.425V50H564.229V37.983H560.081ZM573.165 43.8636V50H572.028V36.9091H573.165V41.7223H573.268C573.498 41.2152 573.854 40.8104 574.335 40.5078C574.821 40.2053 575.434 40.054 576.176 40.054C576.841 40.054 577.425 40.1903 577.927 40.4631C578.43 40.7358 578.822 41.1385 579.104 41.6712C579.385 42.2038 579.525 42.8601 579.525 43.6399V50H578.381V43.7102C578.381 42.9006 578.155 42.2635 577.704 41.799C577.256 41.3303 576.651 41.0959 575.888 41.0959C575.364 41.0959 574.898 41.2067 574.488 41.4283C574.079 41.6499 573.756 41.9695 573.517 42.3871C573.282 42.8004 573.165 43.2926 573.165 43.8636ZM585.264 50.2237C584.672 50.2237 584.13 50.1087 583.64 49.8786C583.15 49.6442 582.76 49.3075 582.471 48.8686C582.181 48.4254 582.036 47.8885 582.036 47.2578C582.036 46.772 582.127 46.3629 582.311 46.0305C582.494 45.6982 582.754 45.4254 583.091 45.2124C583.427 44.9993 583.826 44.831 584.286 44.7074C584.746 44.5838 585.253 44.4879 585.807 44.4197C586.357 44.3516 586.821 44.2919 587.201 44.2408C587.584 44.1896 587.876 44.1087 588.076 43.9979C588.277 43.8871 588.377 43.7081 588.377 43.4609V43.2308C588.377 42.5618 588.176 42.0355 587.776 41.652C587.38 41.2642 586.809 41.0703 586.063 41.0703C585.355 41.0703 584.778 41.2259 584.331 41.5369C583.887 41.848 583.576 42.2145 583.397 42.6364L582.317 42.2464C582.539 41.7095 582.846 41.2812 583.238 40.9616C583.63 40.6378 584.069 40.4055 584.554 40.2649C585.04 40.12 585.532 40.0476 586.031 40.0476C586.406 40.0476 586.796 40.0966 587.201 40.1946C587.61 40.2926 587.989 40.4631 588.338 40.706C588.688 40.9446 588.971 41.2791 589.189 41.7095C589.406 42.1357 589.515 42.6768 589.515 43.3331V50H588.377V48.4467H588.306C588.17 48.7365 587.968 49.0178 587.699 49.2905C587.431 49.5632 587.094 49.7869 586.689 49.9616C586.284 50.1364 585.809 50.2237 585.264 50.2237ZM585.417 49.1818C586.022 49.1818 586.547 49.0476 586.99 48.7791C587.433 48.5107 587.774 48.1548 588.012 47.7116C588.255 47.2642 588.377 46.772 588.377 46.2351V44.8161C588.292 44.897 588.149 44.9695 587.949 45.0334C587.752 45.0973 587.525 45.1548 587.265 45.206C587.009 45.2528 586.753 45.2933 586.498 45.3274C586.242 45.3615 586.012 45.3913 585.807 45.4169C585.253 45.4851 584.78 45.5916 584.388 45.7365C583.996 45.8814 583.696 46.0817 583.487 46.3374C583.278 46.5888 583.174 46.9126 583.174 47.3089C583.174 47.9055 583.387 48.3679 583.813 48.696C584.239 49.0199 584.774 49.1818 585.417 49.1818ZM585.603 38.8203L587.239 35.9183H588.588L586.625 38.8203H585.603ZM592.541 53.6818V40.1818H593.647V42.0547H593.781C593.918 41.7607 594.105 41.4602 594.344 41.1534C594.582 40.8423 594.898 40.5803 595.29 40.3672C595.686 40.1541 596.185 40.0476 596.786 40.0476C597.595 40.0476 598.303 40.2607 598.908 40.6868C599.517 41.1087 599.99 41.701 600.327 42.4638C600.668 43.2223 600.838 44.1065 600.838 45.1165C600.838 46.1307 600.668 47.0192 600.327 47.782C599.99 48.5447 599.517 49.1392 598.908 49.5653C598.303 49.9915 597.599 50.2045 596.798 50.2045C596.206 50.2045 595.71 50.098 595.309 49.8849C594.913 49.6719 594.591 49.4098 594.344 49.0987C594.101 48.7834 593.913 48.4766 593.781 48.1783H593.679V53.6818H592.541ZM593.666 45.0973C593.666 45.8899 593.783 46.593 594.018 47.2067C594.256 47.8161 594.597 48.2955 595.04 48.6449C595.488 48.9901 596.029 49.1626 596.664 49.1626C597.316 49.1626 597.866 48.9837 598.313 48.6257C598.765 48.2635 599.108 47.7756 599.342 47.1619C599.581 46.5483 599.7 45.8601 599.7 45.0973C599.7 44.343 599.583 43.6634 599.349 43.0582C599.119 42.4531 598.778 41.9737 598.326 41.62C597.874 41.2621 597.32 41.0831 596.664 41.0831C596.025 41.0831 595.482 41.2557 595.034 41.6009C594.587 41.9418 594.246 42.4148 594.011 43.0199C593.781 43.6207 593.666 44.3132 593.666 45.0973Z" fill="white"/>
<path d="M37.6761 88H34.4418V86.2741H37.5675C38.5646 86.2741 39.3935 86.0866 40.054 85.7116C40.7145 85.3324 41.2088 84.7848 41.5369 84.0689C41.8651 83.3487 42.0291 82.4709 42.0291 81.4354C42.0291 80.4084 41.8651 79.5369 41.5369 78.821C41.2131 78.1051 40.7294 77.5618 40.0859 77.1911C39.4425 76.8203 38.6435 76.6349 37.6889 76.6349H34.3714V74.9091H37.8104C39.093 74.9091 40.1946 75.1712 41.1151 75.6953C42.0355 76.2152 42.7408 76.9631 43.2308 77.9389C43.7251 78.9105 43.9723 80.076 43.9723 81.4354C43.9723 82.799 43.723 83.9709 43.2244 84.951C42.7301 85.9311 42.0142 86.6854 41.0767 87.2138C40.1392 87.7379 39.0057 88 37.6761 88ZM35.4134 74.9091V88H33.4382V74.9091H35.4134ZM31.4822 81.8572V80.5405H37.3565V81.8572H31.4822ZM46.275 88V78.1818H48.1863V88H46.275ZM47.2402 76.6669C46.9078 76.6669 46.6223 76.5561 46.3837 76.3345C46.1493 76.1087 46.0321 75.8402 46.0321 75.5291C46.0321 75.2138 46.1493 74.9453 46.3837 74.7237C46.6223 74.4979 46.9078 74.3849 47.2402 74.3849C47.5726 74.3849 47.856 74.4979 48.0904 74.7237C48.329 74.9453 48.4483 75.2138 48.4483 75.5291C48.4483 75.8402 48.329 76.1087 48.0904 76.3345C47.856 76.5561 47.5726 76.6669 47.2402 76.6669ZM54.989 88.1982C54.0217 88.1982 53.1886 87.9915 52.4897 87.5781C51.7951 87.1605 51.2582 86.5746 50.8789 85.8203C50.5039 85.0618 50.3164 84.1733 50.3164 83.1548C50.3164 82.1491 50.5039 81.2628 50.8789 80.4957C51.2582 79.7287 51.7866 79.13 52.4641 78.6996C53.146 78.2692 53.9428 78.054 54.8548 78.054C55.4087 78.054 55.9457 78.1456 56.4656 78.3288C56.9854 78.5121 57.4521 78.7997 57.8654 79.1918C58.2788 79.5838 58.6048 80.093 58.8434 80.7195C59.082 81.3416 59.2014 82.098 59.2014 82.9886V83.6662H51.3967V82.2344H57.3285C57.3285 81.7315 57.2262 81.2862 57.0217 80.8984C56.8171 80.5064 56.5295 80.1974 56.1587 79.9716C55.7923 79.7457 55.3619 79.6328 54.8675 79.6328C54.3306 79.6328 53.8619 79.7649 53.4613 80.0291C53.065 80.2891 52.7582 80.63 52.5408 81.0518C52.3278 81.4695 52.2212 81.9233 52.2212 82.4134V83.532C52.2212 84.1882 52.3363 84.7464 52.5664 85.2067C52.8008 85.6669 53.1268 86.0185 53.5444 86.2614C53.962 86.5 54.4499 86.6193 55.0082 86.6193C55.3704 86.6193 55.7006 86.5682 55.9989 86.4659C56.2972 86.3594 56.555 86.2017 56.7724 85.9929C56.9897 85.7841 57.1559 85.5263 57.271 85.2195L59.0799 85.5455C58.935 86.0781 58.6751 86.5447 58.3001 86.9453C57.9293 87.3416 57.4627 87.6506 56.9002 87.8722C56.342 88.0895 55.7049 88.1982 54.989 88.1982ZM56.0948 77.0057L54.7844 75.2926L53.4677 77.0057H51.7418V76.9098L53.9854 74.1996H55.5771L57.8271 76.9098V77.0057H56.0948ZM54.7781 91.3878C54.4499 91.3878 54.1665 91.277 53.9279 91.0554C53.6893 90.8338 53.57 90.5653 53.57 90.25C53.57 89.9347 53.6893 89.6662 53.9279 89.4446C54.1665 89.223 54.4499 89.1122 54.7781 89.1122C55.1104 89.1122 55.3938 89.223 55.6282 89.4446C55.8668 89.6662 55.9862 89.9347 55.9862 90.25C55.9862 90.5653 55.8668 90.8338 55.6282 91.0554C55.3938 91.277 55.1104 91.3878 54.7781 91.3878ZM63.2331 82.1705V88H61.3219V78.1818H63.1564V79.7798H63.2779C63.5037 79.2599 63.8574 78.8423 64.339 78.527C64.8248 78.2116 65.4363 78.054 66.1735 78.054C66.8425 78.054 67.4284 78.1946 67.9313 78.4759C68.4341 78.7528 68.824 79.1662 69.101 79.7159C69.378 80.2656 69.5165 80.9453 69.5165 81.755V88H67.6053V81.9851C67.6053 81.2734 67.4199 80.7173 67.0492 80.3168C66.6784 79.9119 66.1692 79.7095 65.5215 79.7095C65.0783 79.7095 64.6841 79.8054 64.339 79.9972C63.998 80.1889 63.7275 80.4702 63.5272 80.8409C63.3311 81.2074 63.2331 81.6506 63.2331 82.1705ZM81.4265 78.1818V79.7159H76.0636V78.1818H81.4265ZM77.5018 75.8295H79.413V85.1172C79.413 85.4879 79.4684 85.767 79.5792 85.9545C79.69 86.1378 79.8327 86.2635 80.0075 86.3317C80.1864 86.3956 80.3803 86.4276 80.5891 86.4276C80.7425 86.4276 80.8768 86.4169 80.9918 86.3956C81.1069 86.3743 81.1964 86.3572 81.2603 86.3445L81.6055 87.9233C81.4947 87.9659 81.337 88.0085 81.1325 88.0511C80.9279 88.098 80.6722 88.1236 80.3654 88.1278C79.8626 88.1364 79.3938 88.0469 78.9592 87.8594C78.5245 87.6719 78.1729 87.3821 77.9045 86.9901C77.636 86.598 77.5018 86.1058 77.5018 85.5135V75.8295ZM85.6628 82.1705V88H83.7516V74.9091H85.6373V79.7798H85.7587C85.9888 79.2514 86.3404 78.8317 86.8134 78.5206C87.2864 78.2095 87.9043 78.054 88.6671 78.054C89.3404 78.054 89.9284 78.1925 90.4313 78.4695C90.9384 78.7464 91.3304 79.1598 91.6074 79.7095C91.8887 80.255 92.0293 80.9368 92.0293 81.755V88H90.1181V81.9851C90.1181 81.2649 89.9327 80.7067 89.562 80.3104C89.1912 79.9098 88.6756 79.7095 88.0151 79.7095C87.5634 79.7095 87.1586 79.8054 86.8006 79.9972C86.4469 80.1889 86.1678 80.4702 85.9632 80.8409C85.763 81.2074 85.6628 81.6506 85.6628 82.1705ZM98.7154 88.1982C97.7949 88.1982 96.9917 87.9872 96.3056 87.5653C95.6195 87.1435 95.0868 86.5533 94.7076 85.7947C94.3283 85.0362 94.1387 84.1499 94.1387 83.1357C94.1387 82.1172 94.3283 81.2266 94.7076 80.4638C95.0868 79.701 95.6195 79.1087 96.3056 78.6868C96.9917 78.2649 97.7949 78.054 98.7154 78.054C99.6358 78.054 100.439 78.2649 101.125 78.6868C101.811 79.1087 102.344 79.701 102.723 80.4638C103.102 81.2266 103.292 82.1172 103.292 83.1357C103.292 84.1499 103.102 85.0362 102.723 85.7947C102.344 86.5533 101.811 87.1435 101.125 87.5653C100.439 87.9872 99.6358 88.1982 98.7154 88.1982ZM98.7218 86.5938C99.3184 86.5938 99.8127 86.4361 100.205 86.1207C100.597 85.8054 100.887 85.3857 101.074 84.8615C101.266 84.3374 101.362 83.7599 101.362 83.1293C101.362 82.5028 101.266 81.9276 101.074 81.4034C100.887 80.875 100.597 80.451 100.205 80.1314C99.8127 79.8118 99.3184 79.652 98.7218 79.652C98.1209 79.652 97.6223 79.8118 97.226 80.1314C96.834 80.451 96.5421 80.875 96.3503 81.4034C96.1628 81.9276 96.0691 82.5028 96.0691 83.1293C96.0691 83.7599 96.1628 84.3374 96.3503 84.8615C96.5421 85.3857 96.834 85.8054 97.226 86.1207C97.6223 86.4361 98.1209 86.5938 98.7218 86.5938ZM108.283 88.2173C107.661 88.2173 107.098 88.1023 106.595 87.8722C106.092 87.6378 105.694 87.299 105.4 86.8558C105.11 86.4126 104.965 85.8693 104.965 85.2259C104.965 84.6719 105.072 84.2159 105.285 83.858C105.498 83.5 105.786 83.2166 106.148 83.0078C106.51 82.799 106.915 82.6413 107.362 82.5348C107.81 82.4283 108.266 82.3473 108.73 82.2919C109.318 82.2237 109.795 82.1683 110.162 82.1257C110.528 82.0788 110.795 82.0043 110.961 81.902C111.127 81.7997 111.21 81.6335 111.21 81.4034V81.3587C111.21 80.8004 111.053 80.3679 110.737 80.0611C110.426 79.7543 109.962 79.6009 109.344 79.6009C108.7 79.6009 108.193 79.7436 107.822 80.0291C107.456 80.3104 107.202 80.6236 107.062 80.9688L105.266 80.5597C105.479 79.9631 105.79 79.4815 106.199 79.1151C106.612 78.7443 107.087 78.4759 107.624 78.3097C108.161 78.1392 108.726 78.054 109.318 78.054C109.71 78.054 110.126 78.1009 110.565 78.1946C111.008 78.2841 111.421 78.4503 111.805 78.6932C112.192 78.9361 112.51 79.2834 112.757 79.7351C113.004 80.1825 113.128 80.7642 113.128 81.4801V88H111.261V86.6577H111.185C111.061 86.9048 110.876 87.1477 110.629 87.3864C110.381 87.625 110.064 87.8232 109.676 87.9808C109.288 88.1385 108.824 88.2173 108.283 88.2173ZM108.698 86.6832C109.227 86.6832 109.678 86.5788 110.053 86.37C110.433 86.1612 110.72 85.8885 110.916 85.5518C111.116 85.2109 111.217 84.8466 111.217 84.4588V83.1932C111.148 83.2614 111.016 83.3253 110.82 83.3849C110.629 83.4403 110.409 83.4893 110.162 83.532C109.915 83.5703 109.674 83.6065 109.44 83.6406C109.205 83.6705 109.009 83.696 108.852 83.7173C108.481 83.7642 108.142 83.843 107.835 83.9538C107.533 84.0646 107.29 84.2244 107.107 84.4332C106.928 84.6378 106.838 84.9105 106.838 85.2514C106.838 85.7244 107.013 86.0824 107.362 86.3253C107.712 86.5639 108.157 86.6832 108.698 86.6832ZM109.331 91.3878C109.003 91.3878 108.719 91.277 108.481 91.0554C108.242 90.8338 108.123 90.5653 108.123 90.25C108.123 89.9347 108.242 89.6662 108.481 89.4446C108.719 89.223 109.003 89.1122 109.331 89.1122C109.663 89.1122 109.947 89.223 110.181 89.4446C110.42 89.6662 110.539 89.9347 110.539 90.25C110.539 90.5653 110.42 90.8338 110.181 91.0554C109.947 91.277 109.663 91.3878 109.331 91.3878ZM115.673 88V78.1818H117.585V88H115.673ZM116.639 76.6669C116.306 76.6669 116.021 76.5561 115.782 76.3345C115.548 76.1087 115.431 75.8402 115.431 75.5291C115.431 75.2138 115.548 74.9453 115.782 74.7237C116.021 74.4979 116.306 74.3849 116.639 74.3849C116.971 74.3849 117.254 74.4979 117.489 74.7237C117.727 74.9453 117.847 75.2138 117.847 75.5291C117.847 75.8402 117.727 76.1087 117.489 76.3345C117.254 76.5561 116.971 76.6669 116.639 76.6669ZM121.415 88.1214C121.066 88.1214 120.765 87.9979 120.514 87.7507C120.262 87.4993 120.137 87.1967 120.137 86.843C120.137 86.4936 120.262 86.1953 120.514 85.9482C120.765 85.6967 121.066 85.571 121.415 85.571C121.765 85.571 122.065 85.6967 122.316 85.9482C122.568 86.1953 122.694 86.4936 122.694 86.843C122.694 87.0774 122.634 87.2926 122.515 87.4886C122.4 87.6804 122.246 87.8338 122.054 87.9489C121.863 88.0639 121.65 88.1214 121.415 88.1214ZM121.415 80.9751C121.066 80.9751 120.765 80.8494 120.514 80.598C120.262 80.3466 120.137 80.0462 120.137 79.6967C120.137 79.3473 120.262 79.049 120.514 78.8018C120.765 78.5504 121.066 78.4247 121.415 78.4247C121.765 78.4247 122.065 78.5504 122.316 78.8018C122.568 79.049 122.694 79.3473 122.694 79.6967C122.694 79.9311 122.634 80.1463 122.515 80.3423C122.4 80.5341 122.246 80.6875 122.054 80.8026C121.863 80.9176 121.65 80.9751 121.415 80.9751Z" fill="white"/>
<path d="M149.975 81.4545C149.975 79.9205 150.169 78.4716 150.557 77.108C150.945 75.7443 151.501 74.4659 152.225 73.2727H153.261C152.95 73.7756 152.664 74.3445 152.404 74.9794C152.148 75.6143 151.927 76.2919 151.739 77.0121C151.552 77.7322 151.407 78.4695 151.305 79.2237C151.202 79.9737 151.151 80.7173 151.151 81.4545C151.151 82.4389 151.241 83.4318 151.42 84.4332C151.599 85.4347 151.846 86.3849 152.161 87.2841C152.481 88.1832 152.847 88.9673 153.261 89.6364H152.225C151.501 88.4389 150.945 87.1584 150.557 85.7947C150.169 84.4311 149.975 82.9844 149.975 81.4545ZM159.558 85.5199V77.4212H160.651V85.5199H159.558ZM156.056 82.017V80.924H164.154V82.017H156.056ZM171.468 88.179C170.633 88.179 169.89 88.0213 169.238 87.706C168.586 87.3906 168.074 86.9602 167.703 86.4148C167.333 85.8651 167.147 85.245 167.147 84.5547C167.147 84.0135 167.26 83.5085 167.486 83.0398C167.712 82.5668 168.023 82.1705 168.419 81.8509C168.816 81.527 169.261 81.3161 169.755 81.218V81.1477C169.112 80.9602 168.594 80.5916 168.202 80.0419C167.81 79.4879 167.616 78.8594 167.62 78.1562C167.616 77.5043 167.782 76.9205 168.119 76.4048C168.456 75.8892 168.914 75.4822 169.493 75.1839C170.077 74.8814 170.735 74.7301 171.468 74.7301C172.197 74.7301 172.851 74.8814 173.431 75.1839C174.01 75.4822 174.468 75.8892 174.805 76.4048C175.146 76.9205 175.319 77.5043 175.323 78.1562C175.319 78.8551 175.12 79.4837 174.728 80.0419C174.336 80.5959 173.821 80.9645 173.181 81.1477V81.218C173.676 81.3118 174.119 81.5206 174.511 81.8445C174.903 82.1683 175.214 82.5668 175.444 83.0398C175.674 83.5085 175.789 84.0135 175.789 84.5547C175.789 85.245 175.602 85.8651 175.227 86.4148C174.856 86.9602 174.345 87.3906 173.693 87.706C173.045 88.0213 172.304 88.179 171.468 88.179ZM171.468 87.1051C172.091 87.1051 172.636 86.9943 173.105 86.7727C173.578 86.5469 173.946 86.2379 174.211 85.8459C174.479 85.4538 174.613 85.0043 174.613 84.4972C174.613 83.973 174.475 83.5064 174.198 83.0973C173.921 82.6839 173.546 82.358 173.073 82.1193C172.6 81.8764 172.065 81.755 171.468 81.755C170.872 81.755 170.335 81.8764 169.858 82.1193C169.385 82.358 169.01 82.6839 168.733 83.0973C168.46 83.5064 168.324 83.973 168.324 84.4972C168.324 85.0043 168.453 85.4538 168.713 85.8459C168.978 86.2379 169.346 86.5469 169.819 86.7727C170.297 86.9943 170.846 87.1051 171.468 87.1051ZM171.468 80.7322C171.98 80.7322 172.438 80.6236 172.843 80.4062C173.248 80.1889 173.567 79.8928 173.801 79.5178C174.04 79.1385 174.162 78.7081 174.166 78.2266C174.162 77.7493 174.042 77.3274 173.808 76.9609C173.574 76.5902 173.254 76.3026 172.849 76.098C172.449 75.8892 171.988 75.7848 171.468 75.7848C170.949 75.7848 170.484 75.8892 170.075 76.098C169.67 76.3026 169.35 76.5902 169.116 76.9609C168.886 77.3274 168.773 77.7493 168.777 78.2266C168.773 78.7081 168.888 79.1385 169.123 79.5178C169.361 79.8928 169.683 80.1889 170.088 80.4062C170.497 80.6236 170.957 80.7322 171.468 80.7322ZM178.131 85.1875V84.2159L183.966 74.9091H184.682V76.5391H184.152L179.466 84.0305V84.1136H187.118V85.1875H178.131ZM184.241 88V84.8807V84.4332V74.9091H185.379V88H184.241ZM192.517 81.4545C192.517 82.9886 192.324 84.4375 191.936 85.8011C191.548 87.1648 190.992 88.4432 190.267 89.6364H189.232C189.543 89.1335 189.826 88.5646 190.082 87.9297C190.342 87.2947 190.566 86.6172 190.753 85.897C190.941 85.1768 191.086 84.4396 191.188 83.6854C191.29 82.9311 191.341 82.1875 191.341 81.4545C191.341 80.4702 191.252 79.4773 191.073 78.4759C190.894 77.4744 190.645 76.5241 190.325 75.625C190.01 74.7259 189.645 73.9418 189.232 73.2727H190.267C190.992 74.4702 191.548 75.7507 191.936 77.1143C192.324 78.478 192.517 79.9247 192.517 81.4545ZM201.014 88V87.1243L205.29 82.3175C205.849 81.6868 206.298 81.1477 206.639 80.7003C206.98 80.2528 207.227 79.8395 207.381 79.4602C207.538 79.081 207.617 78.6868 207.617 78.2777C207.617 77.7791 207.5 77.3445 207.265 76.9737C207.035 76.5987 206.718 76.3068 206.313 76.098C205.908 75.8892 205.452 75.7848 204.945 75.7848C204.408 75.7848 203.937 75.8999 203.532 76.13C203.132 76.3601 202.821 76.6754 202.599 77.076C202.378 77.4766 202.267 77.9368 202.267 78.4567H201.123C201.123 77.7322 201.289 77.0909 201.621 76.5327C201.958 75.9702 202.416 75.5291 202.996 75.2095C203.579 74.8899 204.24 74.7301 204.977 74.7301C205.706 74.7301 206.354 74.8878 206.92 75.2031C207.487 75.5142 207.932 75.9382 208.256 76.4751C208.58 77.0121 208.742 77.6129 208.742 78.2777C208.742 78.7592 208.657 79.2259 208.486 79.6776C208.32 80.1293 208.032 80.6321 207.623 81.1861C207.214 81.7401 206.648 82.4176 205.923 83.2188L202.676 86.843V86.9261H209.151V88H201.014ZM212.377 88L218.341 76.0661V75.983H211.47V74.9091H219.594V76.0341L213.637 88H212.377ZM222.872 88L228.835 76.0661V75.983H221.964V74.9091H230.088V76.0341L224.131 88H222.872ZM241.95 88.179C241.145 88.179 240.425 88.0341 239.79 87.7443C239.155 87.4503 238.652 87.0433 238.281 86.5234C237.911 86.0036 237.714 85.4048 237.693 84.7273H238.901C238.923 85.2045 239.07 85.6222 239.342 85.9801C239.615 86.3338 239.977 86.6108 240.429 86.8111C240.881 87.0071 241.384 87.1051 241.938 87.1051C242.543 87.1051 243.075 86.9922 243.536 86.7663C244 86.5405 244.362 86.2315 244.622 85.8395C244.886 85.4432 245.018 84.9957 245.018 84.4972C245.018 83.9687 244.884 83.5021 244.616 83.0973C244.347 82.6925 243.962 82.3771 243.459 82.1513C242.96 81.9254 242.364 81.8125 241.669 81.8125H240.902V80.7386H241.669C242.236 80.7386 242.737 80.6364 243.171 80.4318C243.61 80.223 243.955 79.9311 244.207 79.5561C244.458 79.1811 244.584 78.7401 244.584 78.233C244.584 77.7514 244.475 77.3274 244.258 76.9609C244.04 76.5945 243.734 76.3068 243.337 76.098C242.945 75.8892 242.487 75.7848 241.963 75.7848C241.456 75.7848 240.991 75.8828 240.57 76.0788C240.148 76.2749 239.807 76.5518 239.547 76.9098C239.291 77.2678 239.155 77.6918 239.138 78.1818H237.981C237.998 77.5 238.185 76.9013 238.543 76.3857C238.906 75.8658 239.385 75.4609 239.982 75.1712C240.582 74.8771 241.247 74.7301 241.976 74.7301C242.747 74.7301 243.414 74.8878 243.977 75.2031C244.539 75.5185 244.974 75.9382 245.281 76.4624C245.592 76.9822 245.747 77.5554 245.747 78.1818C245.747 78.9276 245.545 79.5668 245.14 80.0994C244.735 80.6278 244.19 80.9943 243.504 81.1989V81.282C244.339 81.4482 244.995 81.8189 245.472 82.3942C245.954 82.9652 246.195 83.6662 246.195 84.4972C246.195 85.196 246.011 85.8246 245.645 86.3828C245.278 86.9368 244.776 87.3757 244.136 87.6996C243.501 88.0192 242.773 88.179 241.95 88.179ZM253.066 88.179C252.231 88.179 251.487 88.0213 250.835 87.706C250.183 87.3906 249.672 86.9602 249.301 86.4148C248.93 85.8651 248.745 85.245 248.745 84.5547C248.745 84.0135 248.858 83.5085 249.084 83.0398C249.31 82.5668 249.621 82.1705 250.017 81.8509C250.413 81.527 250.859 81.3161 251.353 81.218V81.1477C250.71 80.9602 250.192 80.5916 249.8 80.0419C249.408 79.4879 249.214 78.8594 249.218 78.1562C249.214 77.5043 249.38 76.9205 249.717 76.4048C250.053 75.8892 250.511 75.4822 251.091 75.1839C251.675 74.8814 252.333 74.7301 253.066 74.7301C253.795 74.7301 254.449 74.8814 255.028 75.1839C255.608 75.4822 256.066 75.8892 256.403 76.4048C256.744 76.9205 256.916 77.5043 256.92 78.1562C256.916 78.8551 256.718 79.4837 256.326 80.0419C255.934 80.5959 255.418 80.9645 254.779 81.1477V81.218C255.273 81.3118 255.717 81.5206 256.109 81.8445C256.501 82.1683 256.812 82.5668 257.042 83.0398C257.272 83.5085 257.387 84.0135 257.387 84.5547C257.387 85.245 257.2 85.8651 256.825 86.4148C256.454 86.9602 255.942 87.3906 255.29 87.706C254.643 88.0213 253.901 88.179 253.066 88.179ZM253.066 87.1051C253.688 87.1051 254.234 86.9943 254.702 86.7727C255.175 86.5469 255.544 86.2379 255.808 85.8459C256.077 85.4538 256.211 85.0043 256.211 84.4972C256.211 83.973 256.072 83.5064 255.795 83.0973C255.518 82.6839 255.143 82.358 254.67 82.1193C254.197 81.8764 253.663 81.755 253.066 81.755C252.469 81.755 251.933 81.8764 251.455 82.1193C250.982 82.358 250.607 82.6839 250.33 83.0973C250.058 83.5064 249.921 83.973 249.921 84.4972C249.921 85.0043 250.051 85.4538 250.311 85.8459C250.575 86.2379 250.944 86.5469 251.417 86.7727C251.894 86.9943 252.444 87.1051 253.066 87.1051ZM253.066 80.7322C253.577 80.7322 254.036 80.6236 254.44 80.4062C254.845 80.1889 255.165 79.8928 255.399 79.5178C255.638 79.1385 255.759 78.7081 255.763 78.2266C255.759 77.7493 255.64 77.3274 255.406 76.9609C255.171 76.5902 254.852 76.3026 254.447 76.098C254.046 75.8892 253.586 75.7848 253.066 75.7848C252.546 75.7848 252.082 75.8892 251.673 76.098C251.268 76.3026 250.948 76.5902 250.714 76.9609C250.484 77.3274 250.371 77.7493 250.375 78.2266C250.371 78.7081 250.486 79.1385 250.72 79.5178C250.959 79.8928 251.281 80.1889 251.685 80.4062C252.094 80.6236 252.555 80.7322 253.066 80.7322ZM263.87 88.179C263.142 88.179 262.49 88.032 261.914 87.7379C261.343 87.4396 260.887 87.0305 260.546 86.5107C260.21 85.9908 260.031 85.3963 260.009 84.7273H261.166C261.205 85.4219 261.477 85.9929 261.985 86.4403C262.492 86.8835 263.12 87.1051 263.87 87.1051C264.454 87.1051 264.974 86.9666 265.43 86.6896C265.886 86.4084 266.242 86.0249 266.497 85.5391C266.757 85.049 266.887 84.4972 266.887 83.8835C266.883 83.2443 266.744 82.6818 266.472 82.196C266.199 81.706 265.828 81.3224 265.36 81.0455C264.895 80.7685 264.373 80.63 263.794 80.63C263.355 80.6257 262.924 80.6982 262.502 80.8473C262.08 80.9964 261.729 81.1882 261.448 81.4226L260.252 81.2692L261.039 74.9091H267.507V75.983H262.042L261.518 80.3615H261.582C261.872 80.1186 262.223 79.9205 262.637 79.767C263.054 79.6136 263.495 79.5369 263.96 79.5369C264.731 79.5369 265.423 79.7223 266.037 80.093C266.655 80.4638 267.143 80.9751 267.501 81.6271C267.863 82.2749 268.044 83.0206 268.044 83.8643C268.044 84.6911 267.863 85.4304 267.501 86.0824C267.143 86.7301 266.649 87.2415 266.018 87.6165C265.392 87.9915 264.676 88.179 263.87 88.179ZM274.804 74.9091V88H273.608V76.1619H273.532L270.464 78.201V76.9609L273.557 74.9091H274.804ZM282.717 74.7301C283.263 74.7344 283.791 74.8452 284.302 75.0625C284.818 75.2756 285.282 75.6207 285.696 76.098C286.109 76.571 286.437 77.2017 286.68 77.9901C286.923 78.7741 287.045 79.7393 287.045 80.8857C287.045 81.9553 286.951 82.9354 286.763 83.826C286.576 84.7166 286.295 85.4879 285.92 86.1399C285.549 86.7876 285.08 87.2905 284.513 87.6484C283.951 88.0021 283.292 88.179 282.538 88.179C281.835 88.179 281.211 88.032 280.665 87.7379C280.124 87.4439 279.685 87.0369 279.349 86.517C279.012 85.9929 278.803 85.3878 278.722 84.7017H279.898C280.013 85.4006 280.295 85.9759 280.742 86.4276C281.194 86.8793 281.792 87.1051 282.538 87.1051C283.608 87.1051 284.439 86.6065 285.031 85.6094C285.623 84.6122 285.92 83.1932 285.92 81.3523H285.836C285.632 81.7358 285.363 82.0703 285.031 82.3558C284.703 82.6413 284.328 82.8651 283.906 83.027C283.484 83.1847 283.039 83.2635 282.57 83.2635C281.841 83.2635 281.175 83.0803 280.569 82.7138C279.964 82.343 279.481 81.8381 279.118 81.1989C278.756 80.5554 278.575 79.8224 278.575 79C278.575 78.2244 278.746 77.5128 279.086 76.8651C279.432 76.2131 279.913 75.6932 280.531 75.3054C281.153 74.9134 281.882 74.7216 282.717 74.7301ZM282.717 75.804C282.15 75.804 281.641 75.9489 281.189 76.2386C280.742 76.5241 280.386 76.9098 280.122 77.3956C279.862 77.8771 279.732 78.4119 279.732 79C279.732 79.5923 279.862 80.1314 280.122 80.6172C280.386 81.0987 280.742 81.4822 281.189 81.7678C281.641 82.049 282.15 82.1896 282.717 82.1896C283.152 82.1896 283.557 82.1023 283.932 81.9276C284.307 81.7486 284.631 81.5057 284.903 81.1989C285.18 80.892 285.389 80.5447 285.53 80.157C285.675 79.7649 285.732 79.3537 285.702 78.9233C285.651 78.3267 285.491 77.794 285.223 77.3253C284.959 76.8523 284.609 76.4815 284.175 76.2131C283.744 75.9403 283.258 75.804 282.717 75.804ZM289.435 85.1875V84.2159L295.271 74.9091H295.987V76.5391H295.456L290.771 84.0305V84.1136H298.422V85.1875H289.435ZM295.546 88V84.8807V84.4332V74.9091H296.684V88H295.546ZM304.88 74.9091V88H303.685V76.1619H303.608L300.54 78.201V76.9609L303.634 74.9091H304.88Z" fill="white"/>
<path d="M33.4382 126V112.909H35.4134V118.598H41.9396V112.909H43.9212V126H41.9396V120.292H35.4134V126H33.4382ZM50.7798 126.198C49.8594 126.198 49.0561 125.987 48.37 125.565C47.6839 125.143 47.1513 124.553 46.772 123.795C46.3928 123.036 46.2031 122.15 46.2031 121.136C46.2031 120.117 46.3928 119.227 46.772 118.464C47.1513 117.701 47.6839 117.109 48.37 116.687C49.0561 116.265 49.8594 116.054 50.7798 116.054C51.7003 116.054 52.5036 116.265 53.1896 116.687C53.8757 117.109 54.4084 117.701 54.7876 118.464C55.1669 119.227 55.3565 120.117 55.3565 121.136C55.3565 122.15 55.1669 123.036 54.7876 123.795C54.4084 124.553 53.8757 125.143 53.1896 125.565C52.5036 125.987 51.7003 126.198 50.7798 126.198ZM50.7862 124.594C51.3828 124.594 51.8771 124.436 52.2692 124.121C52.6612 123.805 52.951 123.386 53.1385 122.862C53.3303 122.337 53.4261 121.76 53.4261 121.129C53.4261 120.503 53.3303 119.928 53.1385 119.403C52.951 118.875 52.6612 118.451 52.2692 118.131C51.8771 117.812 51.3828 117.652 50.7862 117.652C50.1854 117.652 49.6868 117.812 49.2905 118.131C48.8984 118.451 48.6065 118.875 48.4148 119.403C48.2273 119.928 48.1335 120.503 48.1335 121.129C48.1335 121.76 48.2273 122.337 48.4148 122.862C48.6065 123.386 48.8984 123.805 49.2905 124.121C49.6868 124.436 50.1854 124.594 50.7862 124.594ZM62.073 116.182V117.716H56.71V116.182H62.073ZM58.1483 113.83H60.0595V123.117C60.0595 123.488 60.1149 123.767 60.2257 123.955C60.3365 124.138 60.4792 124.263 60.6539 124.332C60.8329 124.396 61.0268 124.428 61.2356 124.428C61.389 124.428 61.5233 124.417 61.6383 124.396C61.7534 124.374 61.8429 124.357 61.9068 124.344L62.252 125.923C62.1412 125.966 61.9835 126.009 61.7789 126.051C61.5744 126.098 61.3187 126.124 61.0119 126.128C60.5091 126.136 60.0403 126.047 59.6056 125.859C59.171 125.672 58.8194 125.382 58.551 124.99C58.2825 124.598 58.1483 124.106 58.1483 123.513V113.83ZM66.3093 112.909V126H64.3981V112.909H66.3093ZM68.8805 126V116.182H70.7917V126H68.8805ZM69.8457 114.667C69.5133 114.667 69.2278 114.556 68.9892 114.335C68.7548 114.109 68.6376 113.84 68.6376 113.529C68.6376 113.214 68.7548 112.945 68.9892 112.724C69.2278 112.498 69.5133 112.385 69.8457 112.385C70.1781 112.385 70.4615 112.498 70.6958 112.724C70.9345 112.945 71.0538 113.214 71.0538 113.529C71.0538 113.84 70.9345 114.109 70.6958 114.335C70.4615 114.556 70.1781 114.667 69.8457 114.667ZM75.2741 120.17V126H73.3629V116.182H75.1974V117.78H75.3189C75.5447 117.26 75.8984 116.842 76.38 116.527C76.8658 116.212 77.4773 116.054 78.2145 116.054C78.8835 116.054 79.4695 116.195 79.9723 116.476C80.4751 116.753 80.8651 117.166 81.142 117.716C81.419 118.266 81.5575 118.945 81.5575 119.755V126H79.6463V119.985C79.6463 119.273 79.4609 118.717 79.0902 118.317C78.7195 117.912 78.2102 117.71 77.5625 117.71C77.1193 117.71 76.7251 117.805 76.38 117.997C76.0391 118.189 75.7685 118.47 75.5682 118.841C75.3722 119.207 75.2741 119.651 75.2741 120.17ZM88.3523 126.198C87.3849 126.198 86.5518 125.991 85.853 125.578C85.1584 125.161 84.6214 124.575 84.2422 123.82C83.8672 123.062 83.6797 122.173 83.6797 121.155C83.6797 120.149 83.8672 119.263 84.2422 118.496C84.6214 117.729 85.1499 117.13 85.8274 116.7C86.5092 116.269 87.3061 116.054 88.218 116.054C88.772 116.054 89.3089 116.146 89.8288 116.329C90.3487 116.512 90.8153 116.8 91.2287 117.192C91.642 117.584 91.968 118.093 92.2067 118.719C92.4453 119.342 92.5646 120.098 92.5646 120.989V121.666H84.7599V120.234H90.6918C90.6918 119.732 90.5895 119.286 90.3849 118.898C90.1804 118.506 89.8928 118.197 89.522 117.972C89.1555 117.746 88.7251 117.633 88.2308 117.633C87.6939 117.633 87.2251 117.765 86.8246 118.029C86.4283 118.289 86.1214 118.63 85.9041 119.052C85.6911 119.469 85.5845 119.923 85.5845 120.413V121.532C85.5845 122.188 85.6996 122.746 85.9297 123.207C86.1641 123.667 86.4901 124.018 86.9077 124.261C87.3253 124.5 87.8132 124.619 88.3714 124.619C88.7337 124.619 89.0639 124.568 89.3622 124.466C89.6605 124.359 89.9183 124.202 90.1357 123.993C90.353 123.784 90.5192 123.526 90.6342 123.219L92.4432 123.545C92.2983 124.078 92.0384 124.545 91.6634 124.945C91.2926 125.342 90.826 125.651 90.2635 125.872C89.7053 126.089 89.0682 126.198 88.3523 126.198ZM95.9444 126.121C95.595 126.121 95.2946 125.998 95.0431 125.751C94.7917 125.499 94.666 125.197 94.666 124.843C94.666 124.494 94.7917 124.195 95.0431 123.948C95.2946 123.697 95.595 123.571 95.9444 123.571C96.2939 123.571 96.5943 123.697 96.8457 123.948C97.0971 124.195 97.2228 124.494 97.2228 124.843C97.2228 125.077 97.1632 125.293 97.0439 125.489C96.9288 125.68 96.7754 125.834 96.5836 125.949C96.3919 126.064 96.1788 126.121 95.9444 126.121ZM95.9444 118.975C95.595 118.975 95.2946 118.849 95.0431 118.598C94.7917 118.347 94.666 118.046 94.666 117.697C94.666 117.347 94.7917 117.049 95.0431 116.802C95.2946 116.55 95.595 116.425 95.9444 116.425C96.2939 116.425 96.5943 116.55 96.8457 116.802C97.0971 117.049 97.2228 117.347 97.2228 117.697C97.2228 117.931 97.1632 118.146 97.0439 118.342C96.9288 118.534 96.7754 118.687 96.5836 118.803C96.3919 118.918 96.1788 118.975 95.9444 118.975Z" fill="white"/>
<path d="M153.497 112.909V126H152.302V114.162H152.225L149.157 116.201V114.961L152.251 112.909H153.497ZM161.519 126.179C160.684 126.179 159.94 126.021 159.288 125.706C158.636 125.391 158.125 124.96 157.754 124.415C157.384 123.865 157.198 123.245 157.198 122.555C157.198 122.013 157.311 121.509 157.537 121.04C157.763 120.567 158.074 120.17 158.47 119.851C158.866 119.527 159.312 119.316 159.806 119.218V119.148C159.163 118.96 158.645 118.592 158.253 118.042C157.861 117.488 157.667 116.859 157.671 116.156C157.667 115.504 157.833 114.92 158.17 114.405C158.506 113.889 158.964 113.482 159.544 113.184C160.128 112.881 160.786 112.73 161.519 112.73C162.248 112.73 162.902 112.881 163.482 113.184C164.061 113.482 164.519 113.889 164.856 114.405C165.197 114.92 165.369 115.504 165.374 116.156C165.369 116.855 165.171 117.484 164.779 118.042C164.387 118.596 163.871 118.964 163.232 119.148V119.218C163.727 119.312 164.17 119.521 164.562 119.844C164.954 120.168 165.265 120.567 165.495 121.04C165.725 121.509 165.84 122.013 165.84 122.555C165.84 123.245 165.653 123.865 165.278 124.415C164.907 124.96 164.396 125.391 163.744 125.706C163.096 126.021 162.354 126.179 161.519 126.179ZM161.519 125.105C162.141 125.105 162.687 124.994 163.156 124.773C163.629 124.547 163.997 124.238 164.261 123.846C164.53 123.454 164.664 123.004 164.664 122.497C164.664 121.973 164.526 121.506 164.249 121.097C163.972 120.684 163.597 120.358 163.124 120.119C162.651 119.876 162.116 119.755 161.519 119.755C160.923 119.755 160.386 119.876 159.908 120.119C159.435 120.358 159.06 120.684 158.783 121.097C158.511 121.506 158.374 121.973 158.374 122.497C158.374 123.004 158.504 123.454 158.764 123.846C159.028 124.238 159.397 124.547 159.87 124.773C160.347 124.994 160.897 125.105 161.519 125.105ZM161.519 118.732C162.031 118.732 162.489 118.624 162.893 118.406C163.298 118.189 163.618 117.893 163.852 117.518C164.091 117.138 164.212 116.708 164.217 116.227C164.212 115.749 164.093 115.327 163.859 114.961C163.624 114.59 163.305 114.303 162.9 114.098C162.499 113.889 162.039 113.785 161.519 113.785C160.999 113.785 160.535 113.889 160.126 114.098C159.721 114.303 159.401 114.59 159.167 114.961C158.937 115.327 158.824 115.749 158.828 116.227C158.824 116.708 158.939 117.138 159.173 117.518C159.412 117.893 159.734 118.189 160.138 118.406C160.548 118.624 161.008 118.732 161.519 118.732ZM172.56 126.179C171.639 126.179 170.853 125.915 170.201 125.386C169.553 124.854 169.055 124.085 168.705 123.079C168.36 122.073 168.188 120.865 168.188 119.455C168.188 118.048 168.36 116.844 168.705 115.843C169.055 114.837 169.556 114.068 170.208 113.536C170.864 112.999 171.648 112.73 172.56 112.73C173.472 112.73 174.254 112.999 174.906 113.536C175.562 114.068 176.063 114.837 176.408 115.843C176.757 116.844 176.932 118.048 176.932 119.455C176.932 120.865 176.757 122.073 176.408 123.079C176.063 124.085 175.564 124.854 174.912 125.386C174.264 125.915 173.48 126.179 172.56 126.179ZM172.56 125.105C173.57 125.105 174.358 124.613 174.925 123.629C175.492 122.64 175.775 121.249 175.775 119.455C175.775 118.261 175.645 117.243 175.385 116.399C175.129 115.551 174.761 114.903 174.279 114.456C173.802 114.009 173.229 113.785 172.56 113.785C171.558 113.785 170.772 114.283 170.201 115.281C169.63 116.273 169.345 117.665 169.345 119.455C169.345 120.648 169.472 121.666 169.728 122.51C169.988 123.354 170.357 123.997 170.834 124.44C171.316 124.884 171.891 125.105 172.56 125.105ZM183.599 126.179C182.678 126.179 181.892 125.915 181.24 125.386C180.593 124.854 180.094 124.085 179.744 123.079C179.399 122.073 179.227 120.865 179.227 119.455C179.227 118.048 179.399 116.844 179.744 115.843C180.094 114.837 180.595 114.068 181.247 113.536C181.903 112.999 182.687 112.73 183.599 112.73C184.511 112.73 185.293 112.999 185.945 113.536C186.601 114.068 187.102 114.837 187.447 115.843C187.796 116.844 187.971 118.048 187.971 119.455C187.971 120.865 187.796 122.073 187.447 123.079C187.102 124.085 186.603 124.854 185.951 125.386C185.303 125.915 184.519 126.179 183.599 126.179ZM183.599 125.105C184.609 125.105 185.397 124.613 185.964 123.629C186.531 122.64 186.814 121.249 186.814 119.455C186.814 118.261 186.684 117.243 186.424 116.399C186.169 115.551 185.8 114.903 185.318 114.456C184.841 114.009 184.268 113.785 183.599 113.785C182.597 113.785 181.811 114.283 181.24 115.281C180.669 116.273 180.384 117.665 180.384 119.455C180.384 120.648 180.512 121.666 180.767 122.51C181.027 123.354 181.396 123.997 181.873 124.44C182.355 124.884 182.93 125.105 183.599 125.105ZM199.464 126.179C198.735 126.179 198.083 126.032 197.508 125.738C196.937 125.44 196.481 125.031 196.14 124.511C195.803 123.991 195.624 123.396 195.603 122.727H196.76C196.798 123.422 197.071 123.993 197.578 124.44C198.085 124.884 198.714 125.105 199.464 125.105C200.048 125.105 200.568 124.967 201.024 124.69C201.48 124.408 201.835 124.025 202.091 123.539C202.351 123.049 202.481 122.497 202.481 121.884C202.477 121.244 202.338 120.682 202.066 120.196C201.793 119.706 201.422 119.322 200.953 119.045C200.489 118.768 199.967 118.63 199.387 118.63C198.948 118.626 198.518 118.698 198.096 118.847C197.674 118.996 197.323 119.188 197.041 119.423L195.846 119.269L196.632 112.909H203.101V113.983H197.636L197.112 118.362H197.176C197.465 118.119 197.817 117.92 198.23 117.767C198.648 117.614 199.089 117.537 199.553 117.537C200.325 117.537 201.017 117.722 201.631 118.093C202.249 118.464 202.737 118.975 203.095 119.627C203.457 120.275 203.638 121.021 203.638 121.864C203.638 122.691 203.457 123.43 203.095 124.082C202.737 124.73 202.242 125.241 201.612 125.616C200.985 125.991 200.269 126.179 199.464 126.179ZM210.187 126.179C209.458 126.179 208.806 126.032 208.231 125.738C207.66 125.44 207.204 125.031 206.863 124.511C206.526 123.991 206.347 123.396 206.326 122.727H207.483C207.521 123.422 207.794 123.993 208.301 124.44C208.808 124.884 209.437 125.105 210.187 125.105C210.77 125.105 211.29 124.967 211.746 124.69C212.202 124.408 212.558 124.025 212.814 123.539C213.074 123.049 213.204 122.497 213.204 121.884C213.199 121.244 213.061 120.682 212.788 120.196C212.515 119.706 212.145 119.322 211.676 119.045C211.211 118.768 210.689 118.63 210.11 118.63C209.671 118.626 209.241 118.698 208.819 118.847C208.397 118.996 208.045 119.188 207.764 119.423L206.569 119.269L207.355 112.909H213.824V113.983H208.358L207.834 118.362H207.898C208.188 118.119 208.54 117.92 208.953 117.767C209.371 117.614 209.812 117.537 210.276 117.537C211.047 117.537 211.74 117.722 212.354 118.093C212.971 118.464 213.459 118.975 213.817 119.627C214.18 120.275 214.361 121.021 214.361 121.864C214.361 122.691 214.18 123.43 213.817 124.082C213.459 124.73 212.965 125.241 212.334 125.616C211.708 125.991 210.992 126.179 210.187 126.179ZM220.909 126.179C220.181 126.179 219.529 126.032 218.953 125.738C218.382 125.44 217.926 125.031 217.585 124.511C217.249 123.991 217.07 123.396 217.048 122.727H218.205C218.244 123.422 218.517 123.993 219.024 124.44C219.531 124.884 220.159 125.105 220.909 125.105C221.493 125.105 222.013 124.967 222.469 124.69C222.925 124.408 223.281 124.025 223.536 123.539C223.796 123.049 223.926 122.497 223.926 121.884C223.922 121.244 223.784 120.682 223.511 120.196C223.238 119.706 222.867 119.322 222.399 119.045C221.934 118.768 221.412 118.63 220.833 118.63C220.394 118.626 219.963 118.698 219.541 118.847C219.119 118.996 218.768 119.188 218.487 119.423L217.291 119.269L218.078 112.909H224.546V113.983H219.081L218.557 118.362H218.621C218.911 118.119 219.262 117.92 219.676 117.767C220.093 117.614 220.534 117.537 220.999 117.537C221.77 117.537 222.463 117.722 223.076 118.093C223.694 118.464 224.182 118.975 224.54 119.627C224.902 120.275 225.083 121.021 225.083 121.864C225.083 122.691 224.902 123.43 224.54 124.082C224.182 124.73 223.688 125.241 223.057 125.616C222.431 125.991 221.715 126.179 220.909 126.179ZM231.632 126.179C230.903 126.179 230.251 126.032 229.676 125.738C229.105 125.44 228.649 125.031 228.308 124.511C227.971 123.991 227.792 123.396 227.771 122.727H228.928C228.966 123.422 229.239 123.993 229.746 124.44C230.253 124.884 230.882 125.105 231.632 125.105C232.216 125.105 232.736 124.967 233.192 124.69C233.648 124.408 234.003 124.025 234.259 123.539C234.519 123.049 234.649 122.497 234.649 121.884C234.645 121.244 234.506 120.682 234.233 120.196C233.961 119.706 233.59 119.322 233.121 119.045C232.657 118.768 232.135 118.63 231.555 118.63C231.116 118.626 230.686 118.698 230.264 118.847C229.842 118.996 229.491 119.188 229.209 119.423L228.014 119.269L228.8 112.909H235.269V113.983H229.804L229.28 118.362H229.344C229.633 118.119 229.985 117.92 230.398 117.767C230.816 117.614 231.257 117.537 231.721 117.537C232.493 117.537 233.185 117.722 233.799 118.093C234.417 118.464 234.905 118.975 235.263 119.627C235.625 120.275 235.806 121.021 235.806 121.864C235.806 122.691 235.625 123.43 235.263 124.082C234.905 124.73 234.41 125.241 233.78 125.616C233.153 125.991 232.437 126.179 231.632 126.179ZM247.839 126.179C247.034 126.179 246.313 126.034 245.678 125.744C245.044 125.45 244.541 125.043 244.17 124.523C243.799 124.004 243.603 123.405 243.582 122.727H244.79C244.811 123.205 244.958 123.622 245.231 123.98C245.504 124.334 245.866 124.611 246.318 124.811C246.769 125.007 247.272 125.105 247.826 125.105C248.431 125.105 248.964 124.992 249.424 124.766C249.889 124.54 250.251 124.232 250.511 123.839C250.775 123.443 250.907 122.996 250.907 122.497C250.907 121.969 250.773 121.502 250.504 121.097C250.236 120.692 249.85 120.377 249.347 120.151C248.849 119.925 248.252 119.812 247.558 119.812H246.791V118.739H247.558C248.124 118.739 248.625 118.636 249.06 118.432C249.499 118.223 249.844 117.931 250.095 117.556C250.347 117.181 250.472 116.74 250.472 116.233C250.472 115.751 250.364 115.327 250.146 114.961C249.929 114.594 249.622 114.307 249.226 114.098C248.834 113.889 248.376 113.785 247.852 113.785C247.345 113.785 246.88 113.883 246.458 114.079C246.036 114.275 245.695 114.552 245.436 114.91C245.18 115.268 245.044 115.692 245.026 116.182H243.869C243.887 115.5 244.074 114.901 244.432 114.386C244.794 113.866 245.274 113.461 245.87 113.171C246.471 112.877 247.136 112.73 247.865 112.73C248.636 112.73 249.303 112.888 249.865 113.203C250.428 113.518 250.862 113.938 251.169 114.462C251.48 114.982 251.636 115.555 251.636 116.182C251.636 116.928 251.433 117.567 251.029 118.099C250.624 118.628 250.078 118.994 249.392 119.199V119.282C250.227 119.448 250.884 119.819 251.361 120.394C251.843 120.965 252.083 121.666 252.083 122.497C252.083 123.196 251.9 123.825 251.534 124.383C251.167 124.937 250.664 125.376 250.025 125.7C249.39 126.019 248.661 126.179 247.839 126.179ZM258.737 126.179C258.009 126.179 257.357 126.032 256.781 125.738C256.21 125.44 255.754 125.031 255.414 124.511C255.077 123.991 254.898 123.396 254.877 122.727H256.034C256.072 123.422 256.345 123.993 256.852 124.44C257.359 124.884 257.987 125.105 258.737 125.105C259.321 125.105 259.841 124.967 260.297 124.69C260.753 124.408 261.109 124.025 261.365 123.539C261.624 123.049 261.754 122.497 261.754 121.884C261.75 121.244 261.612 120.682 261.339 120.196C261.066 119.706 260.695 119.322 260.227 119.045C259.762 118.768 259.24 118.63 258.661 118.63C258.222 118.626 257.791 118.698 257.369 118.847C256.948 118.996 256.596 119.188 256.315 119.423L255.119 119.269L255.906 112.909H262.374V113.983H256.909L256.385 118.362H256.449C256.739 118.119 257.09 117.92 257.504 117.767C257.921 117.614 258.362 117.537 258.827 117.537C259.598 117.537 260.291 117.722 260.904 118.093C261.522 118.464 262.01 118.975 262.368 119.627C262.73 120.275 262.911 121.021 262.911 121.864C262.911 122.691 262.73 123.43 262.368 124.082C262.01 124.73 261.516 125.241 260.885 125.616C260.259 125.991 259.543 126.179 258.737 126.179Z" fill="white"/>
<defs>
<linearGradient id="paint0_linear_106_712" x1="0" y1="81" x2="1296" y2="81" gradientUnits="userSpaceOnUse">
<stop stop-color="#00A93C"/>
<stop offset="1" stop-color="#24CBFF"/>
</linearGradient>
</defs>
</svg>
