<svg width="100%" viewBox="0 0 351 194" fill="none" xmlns="http://www.w3.org/2000/svg">
<path d="M5.868 5.598H8.244V18H5.868V5.598ZM0.288 4.5H13.824V6.588H0.288V4.5ZM15.6272 4.5H18.0032V18H15.6272V4.5ZM26.6072 4.5H28.9832V18H26.6072V4.5ZM16.9052 10.152H27.7412V12.24H16.9052V10.152ZM39.03 18.252C37.494 18.252 36.144 17.958 34.98 17.37C33.816 16.782 32.91 15.966 32.262 14.922C31.614 13.866 31.29 12.642 31.29 11.25C31.29 9.858 31.614 8.64 32.262 7.596C32.91 6.54 33.816 5.718 34.98 5.13C36.144 4.542 37.494 4.248 39.03 4.248C40.566 4.248 41.916 4.542 43.08 5.13C44.244 5.718 45.15 6.54 45.798 7.596C46.446 8.64 46.77 9.858 46.77 11.25C46.77 12.642 46.446 13.866 45.798 14.922C45.15 15.966 44.244 16.782 43.08 17.37C41.916 17.958 40.566 18.252 39.03 18.252ZM39.03 16.128C40.122 16.128 41.064 15.93 41.856 15.534C42.648 15.138 43.26 14.574 43.692 13.842C44.136 13.11 44.358 12.246 44.358 11.25C44.358 10.254 44.136 9.39 43.692 8.658C43.26 7.926 42.648 7.362 41.856 6.966C41.064 6.57 40.122 6.372 39.03 6.372C37.95 6.372 37.008 6.57 36.204 6.966C35.412 7.362 34.794 7.926 34.35 8.658C33.918 9.39 33.702 10.254 33.702 11.25C33.702 12.246 33.918 13.11 34.35 13.842C34.794 14.574 35.412 15.138 36.204 15.534C37.008 15.93 37.95 16.128 39.03 16.128ZM37.698 0.665999H40.326L42.99 3.402H40.848L38.508 1.53H39.516L37.176 3.402H35.052L37.698 0.665999ZM61.5884 16.56L60.6164 16.668V4.5H62.9204V18H59.8964L50.4284 5.832L51.3824 5.724V18H49.0784V4.5H52.1744L61.5884 16.56ZM79.4538 12.132C79.4418 12.972 79.2798 13.764 78.9678 14.508C78.6558 15.24 78.2118 15.888 77.6358 16.452C77.0598 17.016 76.3578 17.46 75.5298 17.784C74.7138 18.096 73.7778 18.252 72.7218 18.252C71.6538 18.252 70.6638 18.09 69.7518 17.766C68.8398 17.442 68.0418 16.98 67.3578 16.38C66.6858 15.768 66.1638 15.03 65.7918 14.166C65.4198 13.302 65.2338 12.33 65.2338 11.25C65.2338 10.17 65.4198 9.198 65.7918 8.334C66.1758 7.47 66.7098 6.738 67.3938 6.138C68.0778 5.526 68.8818 5.058 69.8058 4.734C70.7298 4.41 71.7438 4.248 72.8478 4.248C74.2278 4.248 75.4338 4.476 76.4658 4.932C77.5098 5.376 78.3498 5.988 78.9858 6.768C79.6218 7.548 80.0118 8.442 80.1558 9.45H77.7438C77.6118 8.814 77.3238 8.262 76.8798 7.794C76.4478 7.326 75.8898 6.966 75.2058 6.714C74.5218 6.462 73.7298 6.336 72.8298 6.336C71.7738 6.336 70.8558 6.534 70.0758 6.93C69.3078 7.314 68.7078 7.872 68.2758 8.604C67.8558 9.336 67.6458 10.218 67.6458 11.25C67.6458 12.282 67.8618 13.17 68.2938 13.914C68.7378 14.658 69.3618 15.228 70.1658 15.624C70.9698 16.02 71.9178 16.218 73.0098 16.218C74.0658 16.218 74.9898 16.038 75.7818 15.678C76.5738 15.318 77.1978 14.82 77.6538 14.184C78.1098 13.536 78.3558 12.786 78.3918 11.934L79.4538 12.132ZM73.4778 13.158V11.358H80.2998V18H78.5358L78.2478 12.402L78.8058 13.158H73.4778ZM91.4559 5.598H93.8319V18H91.4559V5.598ZM85.8759 4.5H99.4119V6.588H85.8759V4.5ZM101.215 4.5H103.591V18H101.215V4.5ZM119.122 16.56L118.15 16.668V4.5H120.454V18H117.43L107.962 5.832L108.916 5.724V18H106.612V4.5H109.708L119.122 16.56ZM130.609 4.5V16.938L129.547 15.912H139.717V18H128.233V4.5H130.609ZM141.522 4.5H143.898V18H141.522V4.5ZM157.7 10.26V12.24H148.268V10.26H157.7ZM149.834 11.25L148.88 17.28L147.746 15.948H158.222V18H146.45L147.53 11.25L146.45 4.5H158.132V6.552H147.746L148.88 5.22L149.834 11.25ZM151.04 0.665999H153.668L156.332 3.402H154.19L151.85 1.53H152.858L150.518 3.402H148.394L151.04 0.665999ZM173.21 16.56L172.238 16.668V4.5H174.542V18H171.518L162.05 5.832L163.004 5.724V18H160.7V4.5H163.796L173.21 16.56ZM182.321 4.5H184.697V18H182.321V4.5ZM193.301 4.5H195.677V18H193.301V4.5ZM183.599 10.152H194.435V12.24H183.599V10.152ZM209.485 10.26V12.24H200.053V10.26H209.485ZM201.619 11.25L200.665 17.28L199.531 15.948H210.007V18H198.235L199.315 11.25L198.235 4.5H209.917V6.552H199.531L200.665 5.22L201.619 11.25ZM204.535 21.708C204.091 21.708 203.725 21.582 203.437 21.33C203.149 21.09 203.005 20.772 203.005 20.376C203.005 19.98 203.149 19.656 203.437 19.404C203.725 19.164 204.091 19.044 204.535 19.044C204.991 19.044 205.357 19.164 205.633 19.404C205.921 19.656 206.065 19.98 206.065 20.376C206.065 20.772 205.921 21.09 205.633 21.33C205.357 21.582 204.991 21.708 204.535 21.708ZM202.825 0.665999H205.453L208.117 3.402H205.975L203.635 1.53H204.643L202.303 3.402H200.179L202.825 0.665999Z" fill="#24CBFF"/>
<rect x="0.5" y="46.5" width="350" height="147" rx="19.5" stroke="url(#paint0_linear_2079_2262)"/>
<path d="M20.4148 84H17.8991V82.6577H20.3303C21.1058 82.6577 21.7505 82.5118 22.2642 82.2202C22.7779 81.9252 23.1624 81.4993 23.4176 80.9425C23.6728 80.3823 23.8004 79.6996 23.8004 78.8942C23.8004 78.0954 23.6728 77.4176 23.4176 76.8608C23.1657 76.304 22.7895 75.8814 22.2891 75.593C21.7886 75.3047 21.1671 75.1605 20.4247 75.1605H17.8445V73.8182H20.5192C21.5168 73.8182 22.3736 74.022 23.0895 74.4297C23.8054 74.834 24.3539 75.4157 24.7351 76.1747C25.1196 76.9304 25.3118 77.8369 25.3118 78.8942C25.3118 79.9548 25.1179 80.8662 24.7301 81.6286C24.3456 82.3909 23.7888 82.9775 23.0597 83.3885C22.3305 83.7962 21.4489 84 20.4148 84ZM18.6548 73.8182V84H17.1186V73.8182H18.6548ZM15.5973 79.2223V78.1982H20.1662V79.2223H15.5973ZM27.1028 84V76.3636H28.5893V84H27.1028ZM27.8535 75.1854C27.595 75.1854 27.3729 75.0992 27.1873 74.9268C27.005 74.7512 26.9139 74.5424 26.9139 74.3004C26.9139 74.0552 27.005 73.8464 27.1873 73.674C27.3729 73.4983 27.595 73.4105 27.8535 73.4105C28.112 73.4105 28.3324 73.4983 28.5147 73.674C28.7003 73.8464 28.7931 74.0552 28.7931 74.3004C28.7931 74.5424 28.7003 74.7512 28.5147 74.9268C28.3324 75.0992 28.112 75.1854 27.8535 75.1854ZM27.8585 86.6349C27.6033 86.6349 27.3829 86.5488 27.1973 86.3764C27.0117 86.2041 26.9189 85.9953 26.9189 85.75C26.9189 85.5047 27.0117 85.2959 27.1973 85.1236C27.3829 84.9512 27.6033 84.8651 27.8585 84.8651C28.117 84.8651 28.3374 84.9512 28.5197 85.1236C28.7053 85.2959 28.7981 85.5047 28.7981 85.75C28.7981 85.9953 28.7053 86.2041 28.5197 86.3764C28.3374 86.5488 28.117 86.6349 27.8585 86.6349ZM32.8114 84.169C32.3275 84.169 31.89 84.0795 31.4989 83.9006C31.1078 83.7183 30.7979 83.4548 30.5692 83.1101C30.3439 82.7654 30.2312 82.3428 30.2312 81.8423C30.2312 81.4115 30.314 81.0568 30.4798 80.7784C30.6455 80.5 30.8692 80.2796 31.1509 80.1172C31.4326 79.9548 31.7475 79.8321 32.0955 79.7493C32.4435 79.6664 32.7982 79.6035 33.1594 79.5604C33.6168 79.5073 33.988 79.4643 34.2731 79.4311C34.5581 79.3946 34.7653 79.3366 34.8945 79.2571C35.0238 79.1776 35.0884 79.0483 35.0884 78.8693V78.8345C35.0884 78.4003 34.9658 78.0639 34.7205 77.8253C34.4786 77.5866 34.1173 77.4673 33.6367 77.4673C33.1362 77.4673 32.7418 77.5784 32.4535 77.8004C32.1684 78.0192 31.9712 78.2628 31.8619 78.5312L30.4648 78.2131C30.6306 77.7491 30.8725 77.3745 31.1907 77.0895C31.5122 76.8011 31.8817 76.5923 32.2994 76.4631C32.717 76.3305 33.1561 76.2642 33.6168 76.2642C33.9218 76.2642 34.2449 76.3007 34.5863 76.3736C34.931 76.4432 35.2525 76.5724 35.5508 76.7614C35.8524 76.9503 36.0993 77.2204 36.2915 77.5717C36.4838 77.9197 36.5799 78.3722 36.5799 78.929V84H35.1282V82.956H35.0685C34.9724 83.1482 34.8282 83.3371 34.636 83.5227C34.4438 83.7083 34.1969 83.8625 33.8952 83.9851C33.5936 84.1077 33.2324 84.169 32.8114 84.169ZM33.1346 82.9759C33.5456 82.9759 33.8969 82.8946 34.1886 82.7322C34.4835 82.5698 34.7073 82.3577 34.8597 82.0959C35.0155 81.8307 35.0934 81.5473 35.0934 81.2457V80.2614C35.0404 80.3144 34.9376 80.3641 34.7852 80.4105C34.636 80.4536 34.4653 80.4917 34.2731 80.5249C34.0808 80.5547 33.8936 80.5829 33.7113 80.6094C33.529 80.6326 33.3765 80.6525 33.2539 80.669C32.9656 80.7055 32.7021 80.7668 32.4634 80.853C32.2281 80.9392 32.0392 81.0634 31.8967 81.2259C31.7575 81.3849 31.6879 81.5971 31.6879 81.8622C31.6879 82.2301 31.8237 82.5085 32.0955 82.6974C32.3673 82.883 32.7137 82.9759 33.1346 82.9759ZM45.4815 84.1541C44.7424 84.1541 44.1061 83.9867 43.5724 83.652C43.0421 83.3139 42.6345 82.8482 42.3494 82.255C42.0644 81.6617 41.9219 80.9822 41.9219 80.2166C41.9219 79.4411 42.0677 78.7566 42.3594 78.1634C42.651 77.5668 43.062 77.1011 43.5923 76.7663C44.1226 76.4316 44.7474 76.2642 45.4666 76.2642C46.0466 76.2642 46.5637 76.3719 47.0178 76.5874C47.4718 76.7995 47.8381 77.0978 48.1165 77.4822C48.3982 77.8667 48.5656 78.3158 48.6186 78.8295H47.1719C47.0923 78.4716 46.91 78.1634 46.625 77.9048C46.3433 77.6463 45.9654 77.517 45.4915 77.517C45.0772 77.517 44.7143 77.6264 44.4027 77.8452C44.0945 78.0606 43.8542 78.3688 43.6818 78.7699C43.5095 79.1676 43.4233 79.6383 43.4233 80.1818C43.4233 80.7386 43.5078 81.2192 43.6768 81.6236C43.8459 82.0279 44.0845 82.3411 44.3928 82.5632C44.7043 82.7853 45.0705 82.8963 45.4915 82.8963C45.7732 82.8963 46.0284 82.8449 46.2571 82.7422C46.4891 82.6361 46.683 82.4853 46.8388 82.2898C46.9979 82.0942 47.1089 81.8589 47.1719 81.5838H48.6186C48.5656 82.0777 48.4048 82.5185 48.1364 82.9062C47.8679 83.294 47.5083 83.599 47.0575 83.821C46.6101 84.0431 46.0848 84.1541 45.4815 84.1541ZM51.6948 79.4659V84H50.2083V73.8182H51.6749V77.6065H51.7694C51.9483 77.1955 52.2218 76.8691 52.5897 76.6271C52.9576 76.3852 53.4382 76.2642 54.0314 76.2642C54.5551 76.2642 55.0125 76.3719 55.4036 76.5874C55.798 76.8028 56.1029 77.1243 56.3184 77.5518C56.5371 77.9761 56.6465 78.5064 56.6465 79.1428V84H55.16V79.3217C55.16 78.7616 55.0158 78.3274 54.7275 78.0192C54.4391 77.7076 54.0381 77.5518 53.5243 77.5518C53.173 77.5518 52.8581 77.6264 52.5797 77.7756C52.3046 77.9247 52.0875 78.1435 51.9284 78.4318C51.7727 78.7169 51.6948 79.0616 51.6948 79.4659ZM58.6301 84V76.3636H60.1167V84H58.6301ZM59.9874 75.3097H58.8141L58.7743 74.2955C59.1257 74.2789 59.3742 74.2325 59.5201 74.1562C59.6659 74.0767 59.7372 73.9624 59.7338 73.8132C59.7372 73.6342 59.6361 73.5066 59.4306 73.4304C59.2284 73.3542 58.9815 73.3161 58.6898 73.3161L58.7346 72.4957C59.4869 72.4957 60.057 72.6151 60.4448 72.8537C60.8359 73.0923 61.0298 73.4138 61.0265 73.8182C61.0298 74.1463 60.9221 74.3883 60.7033 74.544C60.4879 74.6965 60.2492 74.7926 59.9874 74.8324V75.3097ZM63.0959 84.0945C62.8241 84.0945 62.5904 83.9983 62.3949 83.8061C62.1993 83.6106 62.1016 83.3752 62.1016 83.1001C62.1016 82.8284 62.1993 82.5964 62.3949 82.4041C62.5904 82.2086 62.8241 82.1108 63.0959 82.1108C63.3677 82.1108 63.6013 82.2086 63.7969 82.4041C63.9924 82.5964 64.0902 82.8284 64.0902 83.1001C64.0902 83.2824 64.0438 83.4498 63.951 83.6023C63.8615 83.7514 63.7422 83.8707 63.593 83.9602C63.4439 84.0497 63.2782 84.0945 63.0959 84.0945ZM63.0959 78.5362C62.8241 78.5362 62.5904 78.4384 62.3949 78.2429C62.1993 78.0473 62.1016 77.8137 62.1016 77.5419C62.1016 77.2701 62.1993 77.0381 62.3949 76.8459C62.5904 76.6503 62.8241 76.5526 63.0959 76.5526C63.3677 76.5526 63.6013 76.6503 63.7969 76.8459C63.9924 77.0381 64.0902 77.2701 64.0902 77.5419C64.0902 77.7242 64.0438 77.8916 63.951 78.044C63.8615 78.1932 63.7422 78.3125 63.593 78.402C63.4439 78.4915 63.2782 78.5362 63.0959 78.5362Z" fill="white"/>
<path d="M118.881 76.3636C118.824 75.7969 118.574 75.3461 118.13 75.0114C117.686 74.6766 117.127 74.5092 116.455 74.5092C115.981 74.5092 115.563 74.5904 115.202 74.7528C114.844 74.9152 114.562 75.1406 114.357 75.429C114.154 75.714 114.053 76.0388 114.053 76.4034C114.053 76.6719 114.111 76.9072 114.227 77.1094C114.343 77.3116 114.499 77.4856 114.695 77.6314C114.893 77.7739 115.112 77.8965 115.351 77.9993C115.593 78.102 115.836 78.1882 116.082 78.2578L117.156 78.5661C117.48 78.6555 117.805 78.7699 118.13 78.9091C118.455 79.0483 118.751 79.224 119.02 79.4361C119.292 79.6449 119.509 79.9018 119.671 80.2067C119.837 80.5083 119.92 80.8712 119.92 81.2955C119.92 81.839 119.779 82.3279 119.497 82.7621C119.215 83.1963 118.811 83.541 118.284 83.7962C117.757 84.0481 117.126 84.174 116.39 84.174C115.697 84.174 115.096 84.0597 114.585 83.831C114.075 83.599 113.674 83.2791 113.382 82.8714C113.09 82.4638 112.926 81.9915 112.89 81.4545H113.844C113.878 81.8556 114.01 82.1953 114.242 82.4737C114.474 82.7521 114.776 82.9643 115.147 83.1101C115.518 83.2526 115.933 83.3239 116.39 83.3239C116.897 83.3239 117.348 83.2393 117.742 83.0703C118.14 82.898 118.451 82.6593 118.677 82.3544C118.906 82.0462 119.02 81.6882 119.02 81.2805C119.02 80.9358 118.93 80.6475 118.751 80.4155C118.572 80.1802 118.322 79.983 118.001 79.8239C117.683 79.6648 117.313 79.5239 116.892 79.4013L115.674 79.0433C114.875 78.8047 114.255 78.4749 113.815 78.054C113.374 77.633 113.153 77.0961 113.153 76.4432C113.153 75.8963 113.299 75.4157 113.591 75.0014C113.886 74.5838 114.284 74.259 114.784 74.027C115.288 73.7917 115.853 73.674 116.479 73.674C117.112 73.674 117.673 73.79 118.16 74.022C118.647 74.254 119.033 74.5739 119.318 74.9815C119.607 75.3859 119.761 75.8466 119.781 76.3636H118.881ZM124.941 84.1591C124.281 84.1591 123.698 83.9917 123.191 83.657C122.687 83.3222 122.293 82.8598 122.008 82.2699C121.723 81.6766 121.58 80.9922 121.58 80.2166C121.58 79.4344 121.723 78.7467 122.008 78.1534C122.293 77.5568 122.687 77.0928 123.191 76.7614C123.698 76.4266 124.281 76.2592 124.941 76.2592C125.601 76.2592 126.182 76.4266 126.686 76.7614C127.19 77.0961 127.584 77.5601 127.869 78.1534C128.158 78.7467 128.302 79.4344 128.302 80.2166C128.302 80.9922 128.159 81.6766 127.874 82.2699C127.589 82.8598 127.193 83.3222 126.686 83.657C126.182 83.9917 125.601 84.1591 124.941 84.1591ZM124.941 83.3487C125.471 83.3487 125.92 83.2062 126.288 82.9212C126.656 82.6361 126.935 82.2566 127.124 81.7827C127.316 81.3087 127.412 80.7867 127.412 80.2166C127.412 79.6465 127.316 79.1229 127.124 78.6456C126.935 78.1683 126.656 77.7855 126.288 77.4972C125.92 77.2088 125.471 77.0646 124.941 77.0646C124.414 77.0646 123.965 77.2088 123.594 77.4972C123.226 77.7855 122.946 78.1683 122.754 78.6456C122.565 79.1229 122.47 79.6465 122.47 80.2166C122.47 80.7867 122.565 81.3087 122.754 81.7827C122.946 82.2566 123.226 82.6361 123.594 82.9212C123.962 83.2062 124.411 83.3487 124.941 83.3487ZM122.614 75.3494L124.588 73.505H125.344L127.322 75.3494H126.229L124.976 74.1364L123.723 75.3494H122.614ZM126.925 74.1264L127.969 72.3516H129.072L127.72 74.1264H126.925ZM133.904 81.8125V81.0568L138.443 73.8182H138.999V75.0859H138.587L134.943 80.9126V80.9773H140.894V81.8125H133.904ZM138.656 84V81.5739V81.2259V73.8182H139.541V84H138.656ZM143.939 82.608L143.849 83.1399C143.793 83.4979 143.713 83.8923 143.611 84.3232C143.508 84.754 143.402 85.1634 143.292 85.5511C143.183 85.9389 143.089 86.2505 143.009 86.4858H142.328C142.371 86.2604 142.426 85.9737 142.492 85.6257C142.562 85.2777 142.633 84.8916 142.706 84.4673C142.779 84.0464 142.845 83.6122 142.905 83.1648L142.974 82.608H143.939ZM153.386 84H150.92V83.1648H153.331C154.206 83.1648 154.939 82.9924 155.529 82.6477C156.119 82.303 156.561 81.8108 156.856 81.1712C157.151 80.5315 157.299 79.7692 157.299 78.8842C157.295 78.0059 157.15 77.2502 156.861 76.6172C156.576 75.9841 156.152 75.4986 155.588 75.1605C155.028 74.8224 154.336 74.6534 153.51 74.6534H150.88V73.8182H153.565C154.536 73.8182 155.366 74.0204 156.056 74.4247C156.748 74.8291 157.279 75.4091 157.647 76.1648C158.015 76.9205 158.199 77.8269 158.199 78.8842C158.199 79.9515 158.01 80.8679 157.632 81.6335C157.257 82.3958 156.71 82.9808 155.991 83.3885C155.275 83.7962 154.407 84 153.386 84ZM151.333 73.8182V84H150.403V73.8182H151.333ZM148.777 79.1328V78.4169H152.953V79.1328H148.777ZM166.895 76.0504H167.691C167.691 76.5277 167.628 76.9254 167.502 77.2436C167.379 77.5585 167.17 77.7955 166.875 77.9545C166.584 78.1136 166.181 78.1932 165.667 78.1932V77.5419C166.035 77.5419 166.305 77.4922 166.477 77.3928C166.653 77.29 166.766 77.1293 166.816 76.9105C166.869 76.6884 166.895 76.4018 166.895 76.0504ZM165.1 81.0817V76.3636H165.985V84H165.1V82.7322H165.031C164.852 83.1233 164.568 83.4498 164.181 83.7116C163.793 83.9702 163.319 84.0994 162.759 84.0994C162.271 84.0994 161.839 83.9934 161.461 83.7812C161.083 83.5658 160.787 83.2509 160.571 82.8366C160.356 82.4223 160.248 81.9136 160.248 81.3104V76.3636H161.133V81.2557C161.133 81.8523 161.309 82.3329 161.66 82.6974C162.011 83.0587 162.462 83.2393 163.012 83.2393C163.357 83.2393 163.688 83.1565 164.007 82.9908C164.325 82.825 164.587 82.5831 164.792 82.2649C164.998 81.9434 165.1 81.549 165.1 81.0817ZM174.687 75.7422H175.522C175.522 76.4448 175.373 76.9983 175.075 77.4027C174.78 77.8037 174.268 78.0109 173.538 78.0241V77.3629C173.86 77.353 174.102 77.2834 174.264 77.1541C174.43 77.0215 174.541 76.8359 174.597 76.5973C174.657 76.3587 174.687 76.0736 174.687 75.7422ZM171.535 84.1591C170.875 84.1591 170.292 83.9917 169.785 83.657C169.281 83.3222 168.887 82.8598 168.602 82.2699C168.317 81.6766 168.174 80.9922 168.174 80.2166C168.174 79.4344 168.317 78.7467 168.602 78.1534C168.887 77.5568 169.281 77.0928 169.785 76.7614C170.292 76.4266 170.875 76.2592 171.535 76.2592C172.194 76.2592 172.776 76.4266 173.28 76.7614C173.784 77.0961 174.178 77.5601 174.463 78.1534C174.751 78.7467 174.896 79.4344 174.896 80.2166C174.896 80.9922 174.753 81.6766 174.468 82.2699C174.183 82.8598 173.787 83.3222 173.28 83.657C172.776 83.9917 172.194 84.1591 171.535 84.1591ZM171.535 83.3487C172.065 83.3487 172.514 83.2062 172.882 82.9212C173.25 82.6361 173.528 82.2566 173.717 81.7827C173.91 81.3087 174.006 80.7867 174.006 80.2166C174.006 79.6465 173.91 79.1229 173.717 78.6456C173.528 78.1683 173.25 77.7855 172.882 77.4972C172.514 77.2088 172.065 77.0646 171.535 77.0646C171.008 77.0646 170.559 77.2088 170.188 77.4972C169.82 77.7855 169.54 78.1683 169.347 78.6456C169.158 79.1229 169.064 79.6465 169.064 80.2166C169.064 80.7867 169.158 81.3087 169.347 81.7827C169.54 82.2566 169.82 82.6361 170.188 82.9212C170.555 83.2062 171.004 83.3487 171.535 83.3487ZM171.157 75.3047L169.631 73.0476H170.68L171.952 75.3047H171.157ZM177.669 79.2273V84H176.784V76.3636H177.644V77.5618H177.723C177.902 77.1707 178.181 76.8575 178.558 76.6222C178.94 76.3835 179.41 76.2642 179.97 76.2642C180.484 76.2642 180.935 76.3719 181.323 76.5874C181.714 76.7995 182.017 77.1127 182.232 77.527C182.451 77.9413 182.561 78.45 182.561 79.0533V84H181.676V79.108C181.676 78.4815 181.5 77.986 181.149 77.6214C180.801 77.2569 180.333 77.0746 179.747 77.0746C179.346 77.0746 178.989 77.1607 178.678 77.3331C178.366 77.5054 178.119 77.754 177.937 78.0788C177.758 78.4003 177.669 78.7831 177.669 79.2273ZM187.804 87.0227C187.284 87.0227 186.828 86.9548 186.437 86.8189C186.046 86.6863 185.716 86.504 185.448 86.272C185.179 86.04 184.971 85.7798 184.821 85.4915L185.547 85.0142C185.657 85.2064 185.802 85.3954 185.985 85.581C186.17 85.7666 186.411 85.9207 186.706 86.0433C187.004 86.166 187.37 86.2273 187.804 86.2273C188.48 86.2273 189.026 86.0582 189.44 85.7202C189.858 85.3821 190.066 84.8568 190.066 84.1442V82.424H189.987C189.884 82.656 189.737 82.888 189.544 83.12C189.352 83.3487 189.1 83.5393 188.789 83.6918C188.48 83.8442 188.098 83.9205 187.64 83.9205C187.03 83.9205 186.489 83.7696 186.015 83.468C185.544 83.1664 185.173 82.7356 184.901 82.1754C184.632 81.612 184.498 80.9408 184.498 80.1619C184.498 79.3897 184.629 78.7102 184.891 78.1236C185.156 77.5369 185.526 77.0795 186 76.7514C186.474 76.4233 187.025 76.2592 187.655 76.2592C188.123 76.2592 188.51 76.3421 188.819 76.5078C189.127 76.6702 189.374 76.8724 189.559 77.1143C189.748 77.3563 189.896 77.5916 190.002 77.8203H190.091V76.3636H190.956V84.1989C190.956 84.8452 190.819 85.3771 190.544 85.7947C190.269 86.2124 189.894 86.5206 189.42 86.7195C188.946 86.9216 188.408 87.0227 187.804 87.0227ZM187.745 83.1101C188.235 83.1101 188.654 82.9924 189.002 82.7571C189.35 82.5185 189.617 82.1771 189.803 81.733C189.989 81.2888 190.081 80.7602 190.081 80.147C190.081 79.5504 189.99 79.0218 189.808 78.5611C189.626 78.0971 189.36 77.7325 189.012 77.4673C188.668 77.1989 188.245 77.0646 187.745 77.0646C187.234 77.0646 186.803 77.2022 186.452 77.4773C186.101 77.7524 185.836 78.1236 185.657 78.5909C185.478 79.0549 185.388 79.5736 185.388 80.147C185.388 80.7304 185.479 81.2457 185.662 81.6932C185.844 82.1373 186.111 82.4853 186.462 82.7372C186.813 82.9858 187.241 83.1101 187.745 83.1101ZM200.508 84.1392C199.882 84.1392 199.321 84.0265 198.828 83.8011C198.334 83.5724 197.943 83.2559 197.654 82.8516C197.366 82.4472 197.213 81.9815 197.197 81.4545H198.137C198.153 81.8258 198.267 82.1506 198.48 82.429C198.692 82.7041 198.973 82.9195 199.325 83.0753C199.676 83.2277 200.067 83.304 200.498 83.304C200.969 83.304 201.383 83.2161 201.741 83.0405C202.102 82.8648 202.384 82.6245 202.586 82.3196C202.792 82.0114 202.894 81.6634 202.894 81.2756C202.894 80.8646 202.79 80.5017 202.581 80.1868C202.372 79.8719 202.072 79.6267 201.681 79.451C201.294 79.2753 200.829 79.1875 200.289 79.1875H199.693V78.3523H200.289C200.73 78.3523 201.119 78.2727 201.458 78.1136C201.799 77.9512 202.067 77.7242 202.263 77.4325C202.459 77.1409 202.556 76.7978 202.556 76.4034C202.556 76.0289 202.472 75.6991 202.303 75.4141C202.134 75.129 201.895 74.9053 201.587 74.7429C201.282 74.5805 200.926 74.4993 200.518 74.4993C200.124 74.4993 199.762 74.5755 199.434 74.728C199.106 74.8804 198.841 75.0959 198.639 75.3743C198.44 75.6527 198.334 75.9825 198.32 76.3636H197.421C197.434 75.8333 197.58 75.3677 197.858 74.9666C198.14 74.5623 198.513 74.2474 198.977 74.022C199.444 73.7933 199.961 73.679 200.528 73.679C201.128 73.679 201.646 73.8016 202.084 74.0469C202.521 74.2921 202.86 74.6186 203.098 75.0263C203.34 75.4306 203.461 75.8764 203.461 76.3636C203.461 76.9437 203.304 77.4408 202.989 77.8551C202.674 78.2661 202.25 78.5511 201.716 78.7102V78.7749C202.366 78.9041 202.876 79.1925 203.247 79.6399C203.622 80.084 203.809 80.6293 203.809 81.2756C203.809 81.8191 203.667 82.308 203.382 82.7422C203.097 83.1731 202.705 83.5144 202.208 83.7663C201.714 84.0149 201.148 84.1392 200.508 84.1392ZM209.169 84.1392C208.453 84.1392 207.841 83.9337 207.334 83.5227C206.83 83.1084 206.442 82.5102 206.171 81.728C205.902 80.9458 205.768 80.0062 205.768 78.9091C205.768 77.8153 205.902 76.879 206.171 76.1001C206.442 75.3179 206.832 74.7197 207.339 74.3054C207.849 73.8878 208.459 73.679 209.169 73.679C209.878 73.679 210.486 73.8878 210.993 74.3054C211.503 74.7197 211.893 75.3179 212.161 76.1001C212.433 76.879 212.569 77.8153 212.569 78.9091C212.569 80.0062 212.433 80.9458 212.161 81.728C211.893 82.5102 211.505 83.1084 210.998 83.5227C210.494 83.9337 209.884 84.1392 209.169 84.1392ZM209.169 83.304C209.954 83.304 210.567 82.9212 211.008 82.1555C211.449 81.3866 211.669 80.3045 211.669 78.9091C211.669 77.9811 211.568 77.1889 211.366 76.5327C211.167 75.8731 210.88 75.3693 210.506 75.0213C210.135 74.6733 209.689 74.4993 209.169 74.4993C208.39 74.4993 207.778 74.8871 207.334 75.6626C206.89 76.4349 206.668 77.517 206.668 78.9091C206.668 79.8371 206.767 80.6293 206.966 81.2855C207.168 81.9418 207.455 82.4422 207.826 82.7869C208.201 83.1316 208.648 83.304 209.169 83.304ZM217.933 73.3409L214.652 85.5312H213.822L217.103 73.3409H217.933ZM219.189 81.8125V81.0568L223.728 73.8182H224.285V75.0859H223.872L220.228 80.9126V80.9773H226.179V81.8125H219.189ZM223.942 84V81.5739V81.2259V73.8182H224.827V84H223.942ZM229.224 82.608L229.134 83.1399C229.078 83.4979 228.999 83.8923 228.896 84.3232C228.793 84.754 228.687 85.1634 228.578 85.5511C228.468 85.9389 228.374 86.2505 228.294 86.4858H227.613C227.656 86.2604 227.711 85.9737 227.777 85.6257C227.847 85.2777 227.918 84.8916 227.991 84.4673C228.064 84.0464 228.13 83.6122 228.19 83.1648L228.259 82.608H229.224ZM235.688 84V73.8182H238.974C239.697 73.8182 240.3 73.9574 240.784 74.2358C241.271 74.5109 241.638 74.8854 241.883 75.3594C242.131 75.8333 242.256 76.367 242.256 76.9602C242.256 77.5535 242.133 78.0888 241.888 78.5661C241.643 79.04 241.278 79.4162 240.794 79.6946C240.31 79.9697 239.709 80.1072 238.989 80.1072H236.404V79.272H238.964C239.498 79.272 239.941 79.1726 240.292 78.9737C240.643 78.7715 240.905 78.4964 241.077 78.1484C241.253 77.8004 241.341 77.4044 241.341 76.9602C241.341 76.5161 241.253 76.12 241.077 75.772C240.905 75.424 240.642 75.1506 240.287 74.9517C239.936 74.7528 239.49 74.6534 238.95 74.6534H236.618V84H235.688ZM245.139 79.2273V84H244.254V73.8182H245.139V77.5618H245.219C245.398 77.1674 245.674 76.8525 246.049 76.6172C246.427 76.3819 246.904 76.2642 247.481 76.2642C247.998 76.2642 248.452 76.3703 248.843 76.5824C249.234 76.7945 249.539 77.1077 249.758 77.522C249.977 77.9363 250.086 78.4467 250.086 79.0533V84H249.196V79.108C249.196 78.4782 249.02 77.9827 248.669 77.6214C248.321 77.2569 247.85 77.0746 247.257 77.0746C246.849 77.0746 246.487 77.1607 246.168 77.3331C245.85 77.5054 245.598 77.754 245.413 78.0788C245.23 78.4003 245.139 78.7831 245.139 79.2273ZM259.044 76.0504H259.839C259.839 76.5277 259.776 76.9254 259.65 77.2436C259.527 77.5585 259.319 77.7955 259.024 77.9545C258.732 78.1136 258.329 78.1932 257.816 78.1932V77.5419C258.183 77.5419 258.454 77.4922 258.626 77.3928C258.802 77.29 258.914 77.1293 258.964 76.9105C259.017 76.6884 259.044 76.4018 259.044 76.0504ZM257.249 81.0817V76.3636H258.134V84H257.249V82.7322H257.179C257 83.1233 256.717 83.4498 256.329 83.7116C255.941 83.9702 255.467 84.0994 254.907 84.0994C254.42 84.0994 253.987 83.9934 253.61 83.7812C253.232 83.5658 252.935 83.2509 252.72 82.8366C252.504 82.4223 252.396 81.9136 252.396 81.3104V76.3636H253.281V81.2557C253.281 81.8523 253.457 82.3329 253.808 82.6974C254.16 83.0587 254.61 83.2393 255.161 83.2393C255.505 83.2393 255.837 83.1565 256.155 82.9908C256.473 82.825 256.735 82.5831 256.941 82.2649C257.146 81.9434 257.249 81.549 257.249 81.0817ZM266.835 75.7422H267.67C267.67 76.4448 267.521 76.9983 267.223 77.4027C266.928 77.8037 266.416 78.0109 265.687 78.0241V77.3629C266.008 77.353 266.25 77.2834 266.413 77.1541C266.578 77.0215 266.689 76.8359 266.746 76.5973C266.805 76.3587 266.835 76.0736 266.835 75.7422ZM263.683 84.1591C263.024 84.1591 262.44 83.9917 261.933 83.657C261.429 83.3222 261.035 82.8598 260.75 82.2699C260.465 81.6766 260.322 80.9922 260.322 80.2166C260.322 79.4344 260.465 78.7467 260.75 78.1534C261.035 77.5568 261.429 77.0928 261.933 76.7614C262.44 76.4266 263.024 76.2592 263.683 76.2592C264.343 76.2592 264.924 76.4266 265.428 76.7614C265.932 77.0961 266.326 77.5601 266.612 78.1534C266.9 78.7467 267.044 79.4344 267.044 80.2166C267.044 80.9922 266.902 81.6766 266.616 82.2699C266.331 82.8598 265.935 83.3222 265.428 83.657C264.924 83.9917 264.343 84.1591 263.683 84.1591ZM263.683 83.3487C264.214 83.3487 264.663 83.2062 265.031 82.9212C265.398 82.6361 265.677 82.2566 265.866 81.7827C266.058 81.3087 266.154 80.7867 266.154 80.2166C266.154 79.6465 266.058 79.1229 265.866 78.6456C265.677 78.1683 265.398 77.7855 265.031 77.4972C264.663 77.2088 264.214 77.0646 263.683 77.0646C263.156 77.0646 262.707 77.2088 262.336 77.4972C261.968 77.7855 261.688 78.1683 261.496 78.6456C261.307 79.1229 261.212 79.6465 261.212 80.2166C261.212 80.7867 261.307 81.3087 261.496 81.7827C261.688 82.2566 261.968 82.6361 262.336 82.9212C262.704 83.2062 263.153 83.3487 263.683 83.3487ZM263.305 75.3047L261.779 73.0476H262.828L264.101 75.3047H263.305ZM269.817 79.2273V84H268.932V76.3636H269.792V77.5618H269.872C270.051 77.1707 270.329 76.8575 270.707 76.6222C271.088 76.3835 271.559 76.2642 272.119 76.2642C272.633 76.2642 273.083 76.3719 273.471 76.5874C273.862 76.7995 274.165 77.1127 274.381 77.527C274.6 77.9413 274.709 78.45 274.709 79.0533V84H273.824V79.108C273.824 78.4815 273.648 77.986 273.297 77.6214C272.949 77.2569 272.482 77.0746 271.895 77.0746C271.494 77.0746 271.138 77.1607 270.826 77.3331C270.515 77.5054 270.268 77.754 270.085 78.0788C269.906 78.4003 269.817 78.7831 269.817 79.2273ZM279.953 87.0227C279.432 87.0227 278.977 86.9548 278.586 86.8189C278.194 86.6863 277.865 86.504 277.596 86.272C277.328 86.04 277.119 85.7798 276.97 85.4915L277.696 85.0142C277.805 85.2064 277.951 85.3954 278.133 85.581C278.319 85.7666 278.559 85.9207 278.854 86.0433C279.152 86.166 279.519 86.2273 279.953 86.2273C280.629 86.2273 281.174 86.0582 281.588 85.7202C282.006 85.3821 282.215 84.8568 282.215 84.1442V82.424H282.135C282.033 82.656 281.885 82.888 281.693 83.12C281.501 83.3487 281.249 83.5393 280.937 83.6918C280.629 83.8442 280.246 83.9205 279.789 83.9205C279.179 83.9205 278.637 83.7696 278.163 83.468C277.692 83.1664 277.321 82.7356 277.049 82.1754C276.781 81.612 276.647 80.9408 276.647 80.1619C276.647 79.3897 276.778 78.7102 277.039 78.1236C277.305 77.5369 277.674 77.0795 278.148 76.7514C278.622 76.4233 279.174 76.2592 279.804 76.2592C280.271 76.2592 280.659 76.3421 280.967 76.5078C281.275 76.6702 281.522 76.8724 281.708 77.1143C281.897 77.3563 282.044 77.5916 282.15 77.8203H282.24V76.3636H283.105V84.1989C283.105 84.8452 282.967 85.3771 282.692 85.7947C282.417 86.2124 282.042 86.5206 281.569 86.7195C281.095 86.9216 280.556 87.0227 279.953 87.0227ZM279.893 83.1101C280.384 83.1101 280.803 82.9924 281.151 82.7571C281.499 82.5185 281.766 82.1771 281.951 81.733C282.137 81.2888 282.23 80.7602 282.23 80.147C282.23 79.5504 282.139 79.0218 281.956 78.5611C281.774 78.0971 281.509 77.7325 281.161 77.4673C280.816 77.1989 280.394 77.0646 279.893 77.0646C279.383 77.0646 278.952 77.2022 278.6 77.4773C278.249 77.7524 277.984 78.1236 277.805 78.5909C277.626 79.0549 277.537 79.5736 277.537 80.147C277.537 80.7304 277.628 81.2457 277.81 81.6932C277.992 82.1373 278.259 82.4853 278.61 82.7372C278.962 82.9858 279.389 83.1101 279.893 83.1101ZM292.492 73.8182V84H291.563V74.7926H291.503L289.117 76.3786V75.4141L291.523 73.8182H292.492ZM296.49 82.608L296.4 83.1399C296.344 83.4979 296.264 83.8923 296.161 84.3232C296.059 84.754 295.953 85.1634 295.843 85.5511C295.734 85.9389 295.639 86.2505 295.56 86.4858H294.879C294.922 86.2604 294.977 85.9737 295.043 85.6257C295.112 85.2777 295.184 84.8916 295.257 84.4673C295.329 84.0464 295.396 83.6122 295.455 83.1648L295.525 82.608H296.49ZM302.337 74.6534V73.8182H309.72V74.6534H306.494V84H305.564V74.6534H302.337ZM311.813 84V73.8182H315.099C315.822 73.8182 316.425 73.9574 316.909 74.2358C317.396 74.5109 317.763 74.8854 318.008 75.3594C318.256 75.8333 318.381 76.367 318.381 76.9602C318.381 77.5535 318.258 78.0888 318.013 78.5661C317.768 79.04 317.403 79.4162 316.919 79.6946C316.435 79.9697 315.834 80.1072 315.114 80.1072H312.529V79.272H315.089C315.623 79.272 316.066 79.1726 316.417 78.9737C316.768 78.7715 317.03 78.4964 317.202 78.1484C317.378 77.8004 317.466 77.4044 317.466 76.9602C317.466 76.5161 317.378 76.12 317.202 75.772C317.03 75.424 316.767 75.1506 316.412 74.9517C316.061 74.7528 315.615 74.6534 315.075 74.6534H312.743V84H311.813ZM121.327 94H120.392C120.322 93.652 120.196 93.3305 120.014 93.0355C119.835 92.7372 119.61 92.477 119.338 92.255C119.066 92.0329 118.758 91.8606 118.413 91.7379C118.069 91.6153 117.696 91.554 117.295 91.554C116.652 91.554 116.065 91.7214 115.535 92.0561C115.008 92.3909 114.585 92.883 114.267 93.5327C113.952 94.179 113.795 94.9711 113.795 95.9091C113.795 96.8537 113.952 97.6491 114.267 98.2955C114.585 98.9418 115.008 99.4323 115.535 99.767C116.065 100.098 116.652 100.264 117.295 100.264C117.696 100.264 118.069 100.203 118.413 100.08C118.758 99.9576 119.066 99.7869 119.338 99.5682C119.61 99.3461 119.835 99.0859 120.014 98.7876C120.196 98.4893 120.322 98.1662 120.392 97.8182H121.327C121.244 98.2855 121.088 98.7214 120.859 99.1257C120.634 99.5268 120.346 99.8781 119.994 100.18C119.646 100.481 119.245 100.717 118.791 100.886C118.337 101.055 117.838 101.139 117.295 101.139C116.44 101.139 115.681 100.925 115.018 100.498C114.355 100.067 113.835 99.4605 113.457 98.6783C113.082 97.8961 112.895 96.973 112.895 95.9091C112.895 94.8452 113.082 93.9221 113.457 93.1399C113.835 92.3577 114.355 91.7528 115.018 91.3253C115.681 90.8944 116.44 90.679 117.295 90.679C117.838 90.679 118.337 90.7635 118.791 90.9325C119.245 91.0982 119.646 91.3336 119.994 91.6385C120.346 91.9401 120.634 92.2914 120.859 92.6925C121.088 93.0935 121.244 93.5294 121.327 94ZM125.459 101.174C124.999 101.174 124.578 101.085 124.197 100.906C123.815 100.723 123.512 100.461 123.287 100.12C123.061 99.7753 122.949 99.3577 122.949 98.8672C122.949 98.4893 123.02 98.1712 123.162 97.9126C123.305 97.6541 123.507 97.442 123.769 97.2763C124.031 97.1106 124.341 96.9796 124.699 96.8835C125.057 96.7874 125.451 96.7128 125.882 96.6598C126.309 96.6068 126.671 96.5604 126.966 96.5206C127.264 96.4808 127.491 96.4179 127.647 96.3317C127.803 96.2455 127.881 96.1063 127.881 95.9141V95.7351C127.881 95.2147 127.725 94.8054 127.413 94.5071C127.105 94.2055 126.661 94.0547 126.081 94.0547C125.531 94.0547 125.081 94.1757 124.733 94.4176C124.389 94.6596 124.147 94.9446 124.008 95.2727L123.167 94.9695C123.34 94.5518 123.578 94.2187 123.883 93.9702C124.188 93.7183 124.53 93.5376 124.907 93.4283C125.285 93.3156 125.668 93.2592 126.056 93.2592C126.348 93.2592 126.651 93.2973 126.966 93.3736C127.284 93.4498 127.579 93.5824 127.851 93.7713C128.122 93.9569 128.343 94.2171 128.512 94.5518C128.681 94.8833 128.765 95.3042 128.765 95.8146V101H127.881V99.7919H127.826C127.72 100.017 127.562 100.236 127.354 100.448C127.145 100.66 126.883 100.834 126.568 100.97C126.253 101.106 125.884 101.174 125.459 101.174ZM125.579 100.364C126.049 100.364 126.457 100.259 126.802 100.05C127.146 99.8416 127.412 99.5649 127.597 99.2202C127.786 98.8722 127.881 98.4893 127.881 98.0717V96.968C127.814 97.031 127.703 97.0874 127.547 97.1371C127.395 97.1868 127.218 97.2315 127.015 97.2713C126.817 97.3078 126.618 97.3393 126.419 97.3658C126.22 97.3923 126.041 97.4155 125.882 97.4354C125.451 97.4884 125.083 97.5713 124.778 97.6839C124.473 97.7966 124.24 97.9524 124.077 98.1513C123.915 98.3468 123.834 98.5987 123.834 98.907C123.834 99.371 123.999 99.7306 124.331 99.9858C124.662 100.238 125.078 100.364 125.579 100.364ZM134.088 101.159C133.428 101.159 132.845 100.992 132.338 100.657C131.834 100.322 131.439 99.8598 131.154 99.2699C130.869 98.6766 130.727 97.9922 130.727 97.2166C130.727 96.4344 130.869 95.7467 131.154 95.1534C131.439 94.5568 131.834 94.0928 132.338 93.7614C132.845 93.4266 133.428 93.2592 134.088 93.2592C134.747 93.2592 135.329 93.4266 135.833 93.7614C136.336 94.0961 136.731 94.5601 137.016 95.1534C137.304 95.7467 137.448 96.4344 137.448 97.2166C137.448 97.9922 137.306 98.6766 137.021 99.2699C136.736 99.8598 136.34 100.322 135.833 100.657C135.329 100.992 134.747 101.159 134.088 101.159ZM134.088 100.349C134.618 100.349 135.067 100.206 135.435 99.9212C135.803 99.6361 136.081 99.2566 136.27 98.7827C136.462 98.3087 136.558 97.7867 136.558 97.2166C136.558 96.6465 136.462 96.1229 136.27 95.6456C136.081 95.1683 135.803 94.7855 135.435 94.4972C135.067 94.2088 134.618 94.0646 134.088 94.0646C133.561 94.0646 133.111 94.2088 132.74 94.4972C132.372 94.7855 132.092 95.1683 131.9 95.6456C131.711 96.1229 131.617 96.6465 131.617 97.2166C131.617 97.7867 131.711 98.3087 131.9 98.7827C132.092 99.2566 132.372 99.6361 132.74 99.9212C133.108 100.206 133.557 100.349 134.088 100.349ZM143.512 101V90.8182H144.442V100.165H149.294V101H143.512ZM153.336 101.174C152.876 101.174 152.455 101.085 152.074 100.906C151.692 100.723 151.389 100.461 151.164 100.12C150.938 99.7753 150.826 99.3577 150.826 98.8672C150.826 98.4893 150.897 98.1712 151.039 97.9126C151.182 97.6541 151.384 97.442 151.646 97.2763C151.908 97.1106 152.218 96.9796 152.576 96.8835C152.934 96.7874 153.328 96.7128 153.759 96.6598C154.186 96.6068 154.548 96.5604 154.843 96.5206C155.141 96.4808 155.368 96.4179 155.524 96.3317C155.68 96.2455 155.757 96.1063 155.757 95.9141V95.7351C155.757 95.2147 155.602 94.8054 155.29 94.5071C154.982 94.2055 154.538 94.0547 153.958 94.0547C153.408 94.0547 152.958 94.1757 152.61 94.4176C152.266 94.6596 152.024 94.9446 151.885 95.2727L151.044 94.9695C151.217 94.5518 151.455 94.2187 151.76 93.9702C152.065 93.7183 152.407 93.5376 152.784 93.4283C153.162 93.3156 153.545 93.2592 153.933 93.2592C154.225 93.2592 154.528 93.2973 154.843 93.3736C155.161 93.4498 155.456 93.5824 155.728 93.7713C155.999 93.9569 156.22 94.2171 156.389 94.5518C156.558 94.8833 156.642 95.3042 156.642 95.8146V101H155.757V99.7919H155.703C155.597 100.017 155.439 100.236 155.23 100.448C155.022 100.66 154.76 100.834 154.445 100.97C154.13 101.106 153.761 101.174 153.336 101.174ZM153.456 100.364C153.926 100.364 154.334 100.259 154.679 100.05C155.023 99.8416 155.288 99.5649 155.474 99.2202C155.663 98.8722 155.757 98.4893 155.757 98.0717V96.968C155.691 97.031 155.58 97.0874 155.424 97.1371C155.272 97.1868 155.095 97.2315 154.892 97.2713C154.694 97.3078 154.495 97.3393 154.296 97.3658C154.097 97.3923 153.918 97.4155 153.759 97.4354C153.328 97.4884 152.96 97.5713 152.655 97.6839C152.35 97.7966 152.117 97.9524 151.954 98.1513C151.792 98.3468 151.711 98.5987 151.711 98.907C151.711 99.371 151.876 99.7306 152.208 99.9858C152.539 100.238 152.955 100.364 153.456 100.364ZM152.332 92.3097L151.616 92.2699C151.633 91.8291 151.779 91.4678 152.054 91.1861C152.329 90.9044 152.665 90.7635 153.063 90.7635C153.265 90.7635 153.442 90.8 153.595 90.8729C153.747 90.9425 153.89 91.0237 154.022 91.1165C154.158 91.206 154.296 91.2855 154.435 91.3551C154.578 91.4247 154.738 91.4595 154.917 91.4595C155.119 91.4595 155.295 91.3866 155.444 91.2408C155.597 91.0949 155.683 90.9143 155.703 90.6989L156.404 90.7784C156.381 91.2225 156.23 91.5788 155.951 91.8473C155.676 92.1125 155.345 92.245 154.957 92.245C154.735 92.245 154.548 92.2102 154.395 92.1406C154.246 92.0677 154.11 91.9865 153.988 91.897C153.868 91.8042 153.739 91.723 153.6 91.6534C153.464 91.5838 153.298 91.549 153.103 91.549C152.891 91.549 152.712 91.6219 152.566 91.7678C152.423 91.9136 152.345 92.0942 152.332 92.3097ZM159.881 96.2273V101H158.996V93.3636H159.857V94.5618H159.936C160.115 94.1707 160.393 93.8575 160.771 93.6222C161.152 93.3835 161.623 93.2642 162.183 93.2642C162.697 93.2642 163.148 93.3719 163.536 93.5874C163.927 93.7995 164.23 94.1127 164.445 94.527C164.664 94.9413 164.773 95.45 164.773 96.0533V101H163.888V96.108C163.888 95.4815 163.713 94.986 163.362 94.6214C163.013 94.2569 162.546 94.0746 161.96 94.0746C161.558 94.0746 161.202 94.1607 160.891 94.3331C160.579 94.5054 160.332 94.754 160.15 95.0788C159.971 95.4003 159.881 95.7831 159.881 96.2273ZM167.989 96.2273V101H167.104V90.8182H167.989V94.5618H168.068C168.247 94.1674 168.524 93.8525 168.899 93.6172C169.276 93.3819 169.754 93.2642 170.33 93.2642C170.847 93.2642 171.302 93.3703 171.693 93.5824C172.084 93.7945 172.389 94.1077 172.607 94.522C172.826 94.9363 172.936 95.4467 172.936 96.0533V101H172.046V96.108C172.046 95.4782 171.87 94.9827 171.519 94.6214C171.171 94.2569 170.7 94.0746 170.107 94.0746C169.699 94.0746 169.336 94.1607 169.018 94.3331C168.7 94.5054 168.448 94.754 168.262 95.0788C168.08 95.4003 167.989 95.7831 167.989 96.2273ZM176.738 99.608L176.648 100.14C176.592 100.498 176.512 100.892 176.409 101.323C176.307 101.754 176.201 102.163 176.091 102.551C175.982 102.939 175.887 103.25 175.808 103.486H175.127C175.17 103.26 175.225 102.974 175.291 102.626C175.36 102.278 175.432 101.892 175.505 101.467C175.578 101.046 175.644 100.612 175.703 100.165L175.773 99.608H176.738ZM186.185 101H183.719V100.165H186.13C187.005 100.165 187.738 99.9924 188.328 99.6477C188.918 99.303 189.36 98.8108 189.655 98.1712C189.95 97.5315 190.097 96.7692 190.097 95.8842C190.094 95.0059 189.948 94.2502 189.66 93.6172C189.375 92.9841 188.951 92.4986 188.387 92.1605C187.827 91.8224 187.134 91.6534 186.309 91.6534H183.679V90.8182H186.364C187.335 90.8182 188.165 91.0204 188.855 91.4247C189.547 91.8291 190.078 92.4091 190.445 93.1648C190.813 93.9205 190.997 94.8269 190.997 95.8842C190.997 96.9515 190.808 97.8679 190.431 98.6335C190.056 99.3958 189.509 99.9808 188.79 100.388C188.074 100.796 187.206 101 186.185 101ZM184.132 90.8182V101H183.202V90.8182H184.132ZM181.576 96.1328V95.4169H185.752V96.1328H181.576ZM196.035 101.159C195.375 101.159 194.792 100.992 194.285 100.657C193.781 100.322 193.387 99.8598 193.102 99.2699C192.817 98.6766 192.674 97.9922 192.674 97.2166C192.674 96.4344 192.817 95.7467 193.102 95.1534C193.387 94.5568 193.781 94.0928 194.285 93.7614C194.792 93.4266 195.375 93.2592 196.035 93.2592C196.694 93.2592 197.276 93.4266 197.78 93.7614C198.284 94.0961 198.678 94.5601 198.963 95.1534C199.251 95.7467 199.396 96.4344 199.396 97.2166C199.396 97.9922 199.253 98.6766 198.968 99.2699C198.683 99.8598 198.287 100.322 197.78 100.657C197.276 100.992 196.694 101.159 196.035 101.159ZM196.035 100.349C196.565 100.349 197.014 100.206 197.382 99.9212C197.75 99.6361 198.028 99.2566 198.217 98.7827C198.41 98.3087 198.506 97.7867 198.506 97.2166C198.506 96.6465 198.41 96.1229 198.217 95.6456C198.028 95.1683 197.75 94.7855 197.382 94.4972C197.014 94.2088 196.565 94.0646 196.035 94.0646C195.508 94.0646 195.059 94.2088 194.688 94.4972C194.32 94.7855 194.04 95.1683 193.847 95.6456C193.658 96.1229 193.564 96.6465 193.564 97.2166C193.564 97.7867 193.658 98.3087 193.847 98.7827C194.04 99.2566 194.32 99.6361 194.688 99.9212C195.055 100.206 195.504 100.349 196.035 100.349ZM196.413 90.4354L198.386 92.2749H197.293L196.04 91.0618L194.787 92.2749H193.693L195.657 90.4354H196.413ZM193.102 89.267L194.101 91.0568H193.32L191.988 89.267H193.102ZM202.223 96.2273V101H201.338V93.3636H202.198V94.5618H202.278C202.457 94.1707 202.735 93.8575 203.113 93.6222C203.494 93.3835 203.965 93.2642 204.525 93.2642C205.039 93.2642 205.49 93.3719 205.877 93.5874C206.268 93.7995 206.572 94.1127 206.787 94.527C207.006 94.9413 207.115 95.45 207.115 96.0533V101H206.23V96.108C206.23 95.4815 206.055 94.986 205.703 94.6214C205.355 94.2569 204.888 94.0746 204.301 94.0746C203.9 94.0746 203.544 94.1607 203.232 94.3331C202.921 94.5054 202.674 94.754 202.492 95.0788C202.313 95.4003 202.223 95.7831 202.223 96.2273ZM212.359 104.023C211.839 104.023 211.383 103.955 210.992 103.819C210.601 103.686 210.271 103.504 210.002 103.272C209.734 103.04 209.525 102.78 209.376 102.491L210.102 102.014C210.211 102.206 210.357 102.395 210.539 102.581C210.725 102.767 210.965 102.921 211.26 103.043C211.559 103.166 211.925 103.227 212.359 103.227C213.035 103.227 213.58 103.058 213.995 102.72C214.412 102.382 214.621 101.857 214.621 101.144V99.424H214.542C214.439 99.656 214.291 99.888 214.099 100.12C213.907 100.349 213.655 100.539 213.343 100.692C213.035 100.844 212.652 100.92 212.195 100.92C211.585 100.92 211.043 100.77 210.569 100.468C210.099 100.166 209.727 99.7356 209.456 99.1754C209.187 98.612 209.053 97.9408 209.053 97.1619C209.053 96.3897 209.184 95.7102 209.446 95.1236C209.711 94.5369 210.08 94.0795 210.554 93.7514C211.028 93.4233 211.58 93.2592 212.21 93.2592C212.677 93.2592 213.065 93.3421 213.373 93.5078C213.681 93.6702 213.928 93.8724 214.114 94.1143C214.303 94.3563 214.45 94.5916 214.556 94.8203H214.646V93.3636H215.511V101.199C215.511 101.845 215.373 102.377 215.098 102.795C214.823 103.212 214.449 103.521 213.975 103.719C213.501 103.922 212.962 104.023 212.359 104.023ZM212.299 100.11C212.79 100.11 213.209 99.9924 213.557 99.7571C213.905 99.5185 214.172 99.1771 214.358 98.733C214.543 98.2888 214.636 97.7602 214.636 97.147C214.636 96.5504 214.545 96.0218 214.363 95.5611C214.18 95.0971 213.915 94.7325 213.567 94.4673C213.222 94.1989 212.8 94.0646 212.299 94.0646C211.789 94.0646 211.358 94.2022 211.007 94.4773C210.655 94.7524 210.39 95.1236 210.211 95.5909C210.032 96.0549 209.943 96.5736 209.943 97.147C209.943 97.7304 210.034 98.2457 210.216 98.6932C210.399 99.1373 210.665 99.4853 211.017 99.7372C211.368 99.9858 211.796 100.11 212.299 100.11ZM221.359 91.6534V90.8182H228.742V91.6534H225.515V101H224.585V91.6534H221.359ZM231.536 96.2273V101H230.651V90.8182H231.536V94.5618H231.615C231.794 94.1674 232.071 93.8525 232.445 93.6172C232.823 93.3819 233.301 93.2642 233.877 93.2642C234.394 93.2642 234.848 93.3703 235.24 93.5824C235.631 93.7945 235.936 94.1077 236.154 94.522C236.373 94.9363 236.482 95.4467 236.482 96.0533V101H235.593V96.108C235.593 95.4782 235.417 94.9827 235.066 94.6214C234.718 94.2569 234.247 94.0746 233.654 94.0746C233.246 94.0746 232.883 94.1607 232.565 94.3331C232.247 94.5054 231.995 94.754 231.809 95.0788C231.627 95.4003 231.536 95.7831 231.536 96.2273ZM240.946 101.174C240.485 101.174 240.064 101.085 239.683 100.906C239.302 100.723 238.998 100.461 238.773 100.12C238.548 99.7753 238.435 99.3577 238.435 98.8672C238.435 98.4893 238.506 98.1712 238.649 97.9126C238.791 97.6541 238.993 97.442 239.255 97.2763C239.517 97.1106 239.827 96.9796 240.185 96.8835C240.543 96.7874 240.937 96.7128 241.368 96.6598C241.796 96.6068 242.157 96.5604 242.452 96.5206C242.75 96.4808 242.977 96.4179 243.133 96.3317C243.289 96.2455 243.367 96.1063 243.367 95.9141V95.7351C243.367 95.2147 243.211 94.8054 242.9 94.5071C242.591 94.2055 242.147 94.0547 241.567 94.0547C241.017 94.0547 240.568 94.1757 240.22 94.4176C239.875 94.6596 239.633 94.9446 239.494 95.2727L238.654 94.9695C238.826 94.5518 239.065 94.2187 239.37 93.9702C239.675 93.7183 240.016 93.5376 240.394 93.4283C240.772 93.3156 241.154 93.2592 241.542 93.2592C241.834 93.2592 242.137 93.2973 242.452 93.3736C242.77 93.4498 243.065 93.5824 243.337 93.7713C243.609 93.9569 243.829 94.2171 243.998 94.5518C244.167 94.8833 244.252 95.3042 244.252 95.8146V101H243.367V99.7919H243.312C243.206 100.017 243.049 100.236 242.84 100.448C242.631 100.66 242.369 100.834 242.054 100.97C241.739 101.106 241.37 101.174 240.946 101.174ZM241.065 100.364C241.536 100.364 241.943 100.259 242.288 100.05C242.633 99.8416 242.898 99.5649 243.083 99.2202C243.272 98.8722 243.367 98.4893 243.367 98.0717V96.968C243.301 97.031 243.19 97.0874 243.034 97.1371C242.881 97.1868 242.704 97.2315 242.502 97.2713C242.303 97.3078 242.104 97.3393 241.905 97.3658C241.706 97.3923 241.527 97.4155 241.368 97.4354C240.937 97.4884 240.569 97.5713 240.265 97.6839C239.96 97.7966 239.726 97.9524 239.564 98.1513C239.401 98.3468 239.32 98.5987 239.32 98.907C239.32 99.371 239.486 99.7306 239.817 99.9858C240.149 100.238 240.565 100.364 241.065 100.364ZM241.209 92.3047L242.482 90.0476H243.531L242.005 92.3047H241.209ZM246.606 103.864V93.3636H247.466V94.8203H247.57C247.676 94.5916 247.822 94.358 248.008 94.1193C248.193 93.8774 248.439 93.6735 248.744 93.5078C249.052 93.3421 249.44 93.2592 249.907 93.2592C250.537 93.2592 251.087 93.425 251.558 93.7564C252.031 94.0845 252.399 94.5452 252.661 95.1385C252.926 95.7285 253.059 96.4162 253.059 97.2017C253.059 97.9905 252.926 98.6816 252.661 99.2749C252.399 99.8681 252.031 100.33 251.558 100.662C251.087 100.993 250.54 101.159 249.917 101.159C249.456 101.159 249.07 101.076 248.759 100.911C248.45 100.745 248.2 100.541 248.008 100.299C247.819 100.054 247.673 99.8151 247.57 99.5831H247.491V103.864H246.606ZM247.481 97.1868C247.481 97.8033 247.572 98.3501 247.754 98.8274C247.94 99.3014 248.205 99.6742 248.55 99.946C248.898 100.214 249.319 100.349 249.812 100.349C250.32 100.349 250.747 100.21 251.095 99.9311C251.446 99.6494 251.713 99.2699 251.896 98.7926C252.081 98.3153 252.174 97.7801 252.174 97.1868C252.174 96.6001 252.083 96.0715 251.901 95.6009C251.722 95.1302 251.456 94.7573 251.105 94.4822C250.754 94.2038 250.323 94.0646 249.812 94.0646C249.315 94.0646 248.893 94.1989 248.545 94.4673C248.197 94.7325 247.932 95.1004 247.749 95.571C247.57 96.0384 247.481 96.5769 247.481 97.1868Z" fill="white"/>
<path d="M20.4148 134H17.8991V132.658H20.3303C21.1058 132.658 21.7505 132.512 22.2642 132.22C22.7779 131.925 23.1624 131.499 23.4176 130.942C23.6728 130.382 23.8004 129.7 23.8004 128.894C23.8004 128.095 23.6728 127.418 23.4176 126.861C23.1657 126.304 22.7895 125.881 22.2891 125.593C21.7886 125.305 21.1671 125.161 20.4247 125.161H17.8445V123.818H20.5192C21.5168 123.818 22.3736 124.022 23.0895 124.43C23.8054 124.834 24.3539 125.416 24.7351 126.175C25.1196 126.93 25.3118 127.837 25.3118 128.894C25.3118 129.955 25.1179 130.866 24.7301 131.629C24.3456 132.391 23.7888 132.978 23.0597 133.388C22.3305 133.796 21.4489 134 20.4148 134ZM18.6548 123.818V134H17.1186V123.818H18.6548ZM15.5973 129.222V128.198H20.1662V129.222H15.5973ZM27.1028 134V126.364H28.5893V134H27.1028ZM27.8535 125.185C27.595 125.185 27.3729 125.099 27.1873 124.927C27.005 124.751 26.9139 124.542 26.9139 124.3C26.9139 124.055 27.005 123.846 27.1873 123.674C27.3729 123.498 27.595 123.411 27.8535 123.411C28.112 123.411 28.3324 123.498 28.5147 123.674C28.7003 123.846 28.7931 124.055 28.7931 124.3C28.7931 124.542 28.7003 124.751 28.5147 124.927C28.3324 125.099 28.112 125.185 27.8535 125.185ZM33.8803 134.154C33.128 134.154 32.48 133.993 31.9364 133.672C31.3962 133.347 30.9786 132.891 30.6836 132.305C30.3919 131.715 30.2461 131.024 30.2461 130.232C30.2461 129.449 30.3919 128.76 30.6836 128.163C30.9786 127.567 31.3896 127.101 31.9165 126.766C32.4469 126.432 33.0666 126.264 33.7759 126.264C34.2068 126.264 34.6244 126.335 35.0288 126.478C35.4331 126.621 35.796 126.844 36.1175 127.149C36.439 127.454 36.6926 127.85 36.8782 128.337C37.0638 128.821 37.1566 129.41 37.1566 130.102V130.629H31.0863V129.516H35.6999C35.6999 129.125 35.6204 128.778 35.4613 128.477C35.3022 128.172 35.0785 127.931 34.7901 127.756C34.5051 127.58 34.1703 127.492 33.7859 127.492C33.3683 127.492 33.0037 127.595 32.6921 127.8C32.3839 128.003 32.1452 128.268 31.9762 128.596C31.8105 128.921 31.7276 129.274 31.7276 129.655V130.525C31.7276 131.035 31.8171 131.469 31.9961 131.827C32.1784 132.185 32.4319 132.459 32.7567 132.648C33.0816 132.833 33.4611 132.926 33.8952 132.926C34.177 132.926 34.4338 132.886 34.6658 132.807C34.8978 132.724 35.0984 132.601 35.2674 132.439C35.4364 132.277 35.5657 132.076 35.6552 131.837L37.0621 132.091C36.9495 132.505 36.7473 132.868 36.4556 133.18C36.1673 133.488 35.8043 133.728 35.3668 133.901C34.9326 134.07 34.4371 134.154 33.8803 134.154ZM34.7404 125.449L33.7212 124.116L32.6971 125.449H31.3548V125.374L33.0998 123.266H34.3377L36.0877 125.374V125.449H34.7404ZM33.7163 136.635C33.4611 136.635 33.2406 136.549 33.055 136.376C32.8694 136.204 32.7766 135.995 32.7766 135.75C32.7766 135.505 32.8694 135.296 33.055 135.124C33.2406 134.951 33.4611 134.865 33.7163 134.865C33.9748 134.865 34.1952 134.951 34.3775 135.124C34.5631 135.296 34.6559 135.505 34.6559 135.75C34.6559 135.995 34.5631 136.204 34.3775 136.376C34.1952 136.549 33.9748 136.635 33.7163 136.635ZM40.2924 129.466V134H38.8059V126.364H40.2328V127.607H40.3272C40.5029 127.202 40.778 126.877 41.1525 126.632C41.5304 126.387 42.006 126.264 42.5794 126.264C43.0997 126.264 43.5555 126.374 43.9466 126.592C44.3377 126.808 44.6409 127.129 44.8564 127.557C45.0718 127.984 45.1795 128.513 45.1795 129.143V134H43.693V129.322C43.693 128.768 43.5488 128.336 43.2605 128.024C42.9721 127.709 42.5761 127.552 42.0723 127.552C41.7276 127.552 41.421 127.626 41.1525 127.776C40.8874 127.925 40.6769 128.143 40.5211 128.432C40.3687 128.717 40.2924 129.062 40.2924 129.466ZM54.4428 126.364V127.557H50.2717V126.364H54.4428ZM51.3903 124.534H52.8768V131.758C52.8768 132.046 52.9199 132.263 53.006 132.409C53.0922 132.552 53.2032 132.649 53.3391 132.702C53.4783 132.752 53.6291 132.777 53.7915 132.777C53.9109 132.777 54.0153 132.769 54.1048 132.752C54.1942 132.736 54.2638 132.722 54.3136 132.712L54.582 133.94C54.4959 133.973 54.3732 134.007 54.2141 134.04C54.055 134.076 53.8562 134.096 53.6175 134.099C53.2264 134.106 52.8619 134.036 52.5238 133.891C52.1857 133.745 51.9123 133.519 51.7035 133.214C51.4947 132.91 51.3903 132.527 51.3903 132.066V124.534ZM57.7377 129.466V134H56.2512V123.818H57.7179V127.607H57.8123C57.9913 127.196 58.2647 126.869 58.6326 126.627C59.0005 126.385 59.4811 126.264 60.0744 126.264C60.5981 126.264 61.0555 126.372 61.4466 126.587C61.841 126.803 62.1459 127.124 62.3613 127.552C62.5801 127.976 62.6895 128.506 62.6895 129.143V134H61.2029V129.322C61.2029 128.762 61.0588 128.327 60.7704 128.019C60.4821 127.708 60.081 127.552 59.5673 127.552C59.216 127.552 58.9011 127.626 58.6227 127.776C58.3476 127.925 58.1305 128.143 57.9714 128.432C57.8156 128.717 57.7377 129.062 57.7377 129.466ZM67.8897 134.154C67.1738 134.154 66.5491 133.99 66.0154 133.662C65.4818 133.334 65.0675 132.875 64.7725 132.285C64.4776 131.695 64.3301 131.005 64.3301 130.217C64.3301 129.424 64.4776 128.732 64.7725 128.138C65.0675 127.545 65.4818 127.085 66.0154 126.756C66.5491 126.428 67.1738 126.264 67.8897 126.264C68.6056 126.264 69.2304 126.428 69.764 126.756C70.2976 127.085 70.7119 127.545 71.0069 128.138C71.3019 128.732 71.4494 129.424 71.4494 130.217C71.4494 131.005 71.3019 131.695 71.0069 132.285C70.7119 132.875 70.2976 133.334 69.764 133.662C69.2304 133.99 68.6056 134.154 67.8897 134.154ZM67.8947 132.906C68.3587 132.906 68.7432 132.784 69.0481 132.538C69.353 132.293 69.5784 131.967 69.7243 131.559C69.8734 131.151 69.948 130.702 69.948 130.212C69.948 129.724 69.8734 129.277 69.7243 128.869C69.5784 128.458 69.353 128.129 69.0481 127.88C68.7432 127.631 68.3587 127.507 67.8947 127.507C67.4274 127.507 67.0396 127.631 66.7314 127.88C66.4264 128.129 66.1994 128.458 66.0502 128.869C65.9044 129.277 65.8315 129.724 65.8315 130.212C65.8315 130.702 65.9044 131.151 66.0502 131.559C66.1994 131.967 66.4264 132.293 66.7314 132.538C67.0396 132.784 67.4274 132.906 67.8947 132.906ZM75.331 134.169C74.8471 134.169 74.4096 134.08 74.0185 133.901C73.6274 133.718 73.3175 133.455 73.0888 133.11C72.8634 132.765 72.7507 132.343 72.7507 131.842C72.7507 131.411 72.8336 131.057 72.9993 130.778C73.165 130.5 73.3887 130.28 73.6705 130.117C73.9522 129.955 74.267 129.832 74.6151 129.749C74.9631 129.666 75.3177 129.603 75.679 129.56C76.1364 129.507 76.5076 129.464 76.7926 129.431C77.0777 129.395 77.2848 129.337 77.4141 129.257C77.5433 129.178 77.608 129.048 77.608 128.869V128.835C77.608 128.4 77.4853 128.064 77.2401 127.825C76.9981 127.587 76.6368 127.467 76.1562 127.467C75.6558 127.467 75.2614 127.578 74.973 127.8C74.688 128.019 74.4908 128.263 74.3814 128.531L72.9844 128.213C73.1501 127.749 73.392 127.375 73.7102 127.089C74.0317 126.801 74.4013 126.592 74.8189 126.463C75.2365 126.33 75.6757 126.264 76.1364 126.264C76.4413 126.264 76.7644 126.301 77.1058 126.374C77.4505 126.443 77.772 126.572 78.0703 126.761C78.3719 126.95 78.6188 127.22 78.8111 127.572C79.0033 127.92 79.0994 128.372 79.0994 128.929V134H77.6477V132.956H77.5881C77.492 133.148 77.3478 133.337 77.1555 133.523C76.9633 133.708 76.7164 133.862 76.4148 133.985C76.1132 134.108 75.7519 134.169 75.331 134.169ZM75.6541 132.976C76.0651 132.976 76.4164 132.895 76.7081 132.732C77.0031 132.57 77.2268 132.358 77.3793 132.096C77.535 131.831 77.6129 131.547 77.6129 131.246V130.261C77.5599 130.314 77.4571 130.364 77.3047 130.411C77.1555 130.454 76.9848 130.492 76.7926 130.525C76.6004 130.555 76.4131 130.583 76.2308 130.609C76.0485 130.633 75.8961 130.652 75.7734 130.669C75.4851 130.705 75.2216 130.767 74.983 130.853C74.7476 130.939 74.5587 131.063 74.4162 131.226C74.277 131.385 74.2074 131.597 74.2074 131.862C74.2074 132.23 74.3433 132.509 74.6151 132.697C74.8868 132.883 75.2332 132.976 75.6541 132.976ZM76.1463 136.635C75.8911 136.635 75.6707 136.549 75.4851 136.376C75.2995 136.204 75.2067 135.995 75.2067 135.75C75.2067 135.505 75.2995 135.296 75.4851 135.124C75.6707 134.951 75.8911 134.865 76.1463 134.865C76.4048 134.865 76.6252 134.951 76.8075 135.124C76.9931 135.296 77.0859 135.505 77.0859 135.75C77.0859 135.995 76.9931 136.204 76.8075 136.376C76.6252 136.549 76.4048 136.635 76.1463 136.635ZM81.0794 134V126.364H82.5659V134H81.0794ZM81.8301 125.185C81.5716 125.185 81.3495 125.099 81.1639 124.927C80.9816 124.751 80.8904 124.542 80.8904 124.3C80.8904 124.055 80.9816 123.846 81.1639 123.674C81.3495 123.498 81.5716 123.411 81.8301 123.411C82.0886 123.411 82.309 123.498 82.4913 123.674C82.6769 123.846 82.7697 124.055 82.7697 124.3C82.7697 124.542 82.6769 124.751 82.4913 124.927C82.309 125.099 82.0886 125.185 81.8301 125.185ZM85.5451 134.094C85.2733 134.094 85.0397 133.998 84.8441 133.806C84.6486 133.611 84.5508 133.375 84.5508 133.1C84.5508 132.828 84.6486 132.596 84.8441 132.404C85.0397 132.209 85.2733 132.111 85.5451 132.111C85.8169 132.111 86.0505 132.209 86.2461 132.404C86.4416 132.596 86.5394 132.828 86.5394 133.1C86.5394 133.282 86.493 133.45 86.4002 133.602C86.3107 133.751 86.1914 133.871 86.0423 133.96C85.8931 134.05 85.7274 134.094 85.5451 134.094ZM85.5451 128.536C85.2733 128.536 85.0397 128.438 84.8441 128.243C84.6486 128.047 84.5508 127.814 84.5508 127.542C84.5508 127.27 84.6486 127.038 84.8441 126.846C85.0397 126.65 85.2733 126.553 85.5451 126.553C85.8169 126.553 86.0505 126.65 86.2461 126.846C86.4416 127.038 86.5394 127.27 86.5394 127.542C86.5394 127.724 86.493 127.892 86.4002 128.044C86.3107 128.193 86.1914 128.312 86.0423 128.402C85.8931 128.491 85.7274 128.536 85.5451 128.536Z" fill="white"/>
<path d="M113.536 128.909C113.536 127.716 113.687 126.589 113.989 125.528C114.29 124.468 114.723 123.473 115.286 122.545H116.092C115.85 122.937 115.628 123.379 115.425 123.873C115.227 124.367 115.054 124.894 114.908 125.454C114.763 126.014 114.65 126.587 114.57 127.174C114.491 127.757 114.451 128.336 114.451 128.909C114.451 129.675 114.521 130.447 114.66 131.226C114.799 132.005 114.991 132.744 115.237 133.443C115.485 134.143 115.77 134.752 116.092 135.273H115.286C114.723 134.341 114.29 133.345 113.989 132.285C113.687 131.224 113.536 130.099 113.536 128.909ZM120.99 132.071V125.772H121.84V132.071H120.99ZM118.265 129.347V128.496H124.564V129.347H118.265ZM130.253 134.139C129.604 134.139 129.025 134.017 128.518 133.771C128.011 133.526 127.613 133.191 127.325 132.767C127.037 132.339 126.892 131.857 126.892 131.32C126.892 130.899 126.98 130.507 127.156 130.142C127.332 129.774 127.574 129.466 127.882 129.217C128.19 128.965 128.536 128.801 128.921 128.725V128.67C128.42 128.525 128.018 128.238 127.713 127.81C127.408 127.379 127.257 126.891 127.26 126.344C127.257 125.837 127.386 125.383 127.648 124.982C127.91 124.58 128.266 124.264 128.717 124.032C129.171 123.797 129.683 123.679 130.253 123.679C130.82 123.679 131.329 123.797 131.779 124.032C132.23 124.264 132.587 124.58 132.848 124.982C133.114 125.383 133.248 125.837 133.251 126.344C133.248 126.887 133.094 127.376 132.789 127.81C132.484 128.241 132.083 128.528 131.586 128.67V128.725C131.97 128.798 132.315 128.96 132.62 129.212C132.925 129.464 133.167 129.774 133.346 130.142C133.525 130.507 133.614 130.899 133.614 131.32C133.614 131.857 133.468 132.339 133.176 132.767C132.888 133.191 132.49 133.526 131.983 133.771C131.48 134.017 130.903 134.139 130.253 134.139ZM130.253 133.304C130.737 133.304 131.161 133.218 131.526 133.045C131.894 132.87 132.181 132.629 132.386 132.325C132.595 132.02 132.699 131.67 132.699 131.276C132.699 130.868 132.592 130.505 132.376 130.187C132.161 129.865 131.869 129.612 131.501 129.426C131.133 129.237 130.717 129.143 130.253 129.143C129.789 129.143 129.372 129.237 129 129.426C128.632 129.612 128.341 129.865 128.125 130.187C127.913 130.505 127.807 130.868 127.807 131.276C127.807 131.67 127.908 132.02 128.11 132.325C128.316 132.629 128.603 132.87 128.971 133.045C129.342 133.218 129.769 133.304 130.253 133.304ZM130.253 128.347C130.651 128.347 131.007 128.263 131.322 128.094C131.637 127.925 131.886 127.694 132.068 127.403C132.253 127.108 132.348 126.773 132.351 126.398C132.348 126.027 132.255 125.699 132.073 125.414C131.891 125.126 131.642 124.902 131.327 124.743C131.016 124.58 130.658 124.499 130.253 124.499C129.849 124.499 129.488 124.58 129.169 124.743C128.855 124.902 128.606 125.126 128.424 125.414C128.245 125.699 128.157 126.027 128.16 126.398C128.157 126.773 128.246 127.108 128.429 127.403C128.614 127.694 128.864 127.925 129.179 128.094C129.498 128.263 129.855 128.347 130.253 128.347ZM135.435 131.812V131.057L139.974 123.818H140.531V125.086H140.118L136.474 130.913V130.977H142.425V131.812H135.435ZM140.188 134V131.574V131.226V123.818H141.073V134H140.188ZM146.625 128.909C146.625 130.102 146.474 131.229 146.172 132.29C145.871 133.35 145.438 134.345 144.875 135.273H144.069C144.311 134.882 144.532 134.439 144.73 133.945C144.933 133.451 145.107 132.924 145.252 132.364C145.398 131.804 145.511 131.231 145.591 130.644C145.67 130.058 145.71 129.479 145.71 128.909C145.71 128.143 145.64 127.371 145.501 126.592C145.362 125.813 145.168 125.074 144.919 124.375C144.674 123.676 144.391 123.066 144.069 122.545H144.875C145.438 123.477 145.871 124.473 146.172 125.533C146.474 126.594 146.625 127.719 146.625 128.909ZM153.233 134V133.319L156.559 129.58C156.993 129.09 157.343 128.67 157.608 128.322C157.873 127.974 158.066 127.653 158.185 127.358C158.307 127.063 158.369 126.756 158.369 126.438C158.369 126.05 158.278 125.712 158.095 125.424C157.916 125.132 157.669 124.905 157.355 124.743C157.04 124.58 156.685 124.499 156.291 124.499C155.873 124.499 155.507 124.589 155.192 124.768C154.88 124.947 154.638 125.192 154.466 125.504C154.294 125.815 154.208 126.173 154.208 126.577H153.318C153.318 126.014 153.447 125.515 153.705 125.081C153.967 124.643 154.324 124.3 154.774 124.052C155.228 123.803 155.742 123.679 156.316 123.679C156.882 123.679 157.386 123.802 157.827 124.047C158.268 124.289 158.614 124.619 158.866 125.036C159.118 125.454 159.244 125.921 159.244 126.438C159.244 126.813 159.177 127.176 159.045 127.527C158.916 127.878 158.692 128.269 158.374 128.7C158.056 129.131 157.615 129.658 157.051 130.281L154.526 133.1V133.165H159.562V134H153.233ZM162.071 134L166.71 124.718V124.653H161.365V123.818H167.684V124.693L163.051 134H162.071ZM170.233 134L174.872 124.718V124.653H169.528V123.818H175.846V124.693L171.213 134H170.233ZM185.072 134.139C184.446 134.139 183.886 134.027 183.392 133.801C182.898 133.572 182.507 133.256 182.219 132.852C181.93 132.447 181.778 131.982 181.761 131.455H182.701C182.718 131.826 182.832 132.151 183.044 132.429C183.256 132.704 183.538 132.92 183.889 133.075C184.241 133.228 184.632 133.304 185.062 133.304C185.533 133.304 185.947 133.216 186.305 133.04C186.667 132.865 186.948 132.625 187.151 132.32C187.356 132.011 187.459 131.663 187.459 131.276C187.459 130.865 187.354 130.502 187.146 130.187C186.937 129.872 186.637 129.627 186.246 129.451C185.858 129.275 185.394 129.188 184.854 129.188H184.257V128.352H184.854C185.295 128.352 185.684 128.273 186.022 128.114C186.363 127.951 186.632 127.724 186.827 127.433C187.023 127.141 187.121 126.798 187.121 126.403C187.121 126.029 187.036 125.699 186.867 125.414C186.698 125.129 186.46 124.905 186.151 124.743C185.846 124.58 185.49 124.499 185.082 124.499C184.688 124.499 184.327 124.576 183.999 124.728C183.67 124.88 183.405 125.096 183.203 125.374C183.004 125.653 182.898 125.982 182.885 126.364H181.985C181.998 125.833 182.144 125.368 182.423 124.967C182.704 124.562 183.077 124.247 183.541 124.022C184.009 123.793 184.526 123.679 185.092 123.679C185.692 123.679 186.211 123.802 186.648 124.047C187.086 124.292 187.424 124.619 187.663 125.026C187.905 125.431 188.026 125.876 188.026 126.364C188.026 126.944 187.868 127.441 187.553 127.855C187.238 128.266 186.814 128.551 186.281 128.71V128.775C186.93 128.904 187.441 129.192 187.812 129.64C188.186 130.084 188.374 130.629 188.374 131.276C188.374 131.819 188.231 132.308 187.946 132.742C187.661 133.173 187.27 133.514 186.773 133.766C186.279 134.015 185.712 134.139 185.072 134.139ZM193.718 134.139C193.068 134.139 192.49 134.017 191.983 133.771C191.476 133.526 191.078 133.191 190.79 132.767C190.501 132.339 190.357 131.857 190.357 131.32C190.357 130.899 190.445 130.507 190.621 130.142C190.796 129.774 191.038 129.466 191.347 129.217C191.655 128.965 192.001 128.801 192.386 128.725V128.67C191.885 128.525 191.482 128.238 191.178 127.81C190.873 127.379 190.722 126.891 190.725 126.344C190.722 125.837 190.851 125.383 191.113 124.982C191.375 124.58 191.731 124.264 192.182 124.032C192.636 123.797 193.148 123.679 193.718 123.679C194.285 123.679 194.794 123.797 195.244 124.032C195.695 124.264 196.051 124.58 196.313 124.982C196.578 125.383 196.713 125.837 196.716 126.344C196.713 126.887 196.558 127.376 196.254 127.81C195.949 128.241 195.548 128.528 195.05 128.67V128.725C195.435 128.798 195.78 128.96 196.085 129.212C196.389 129.464 196.631 129.774 196.81 130.142C196.989 130.507 197.079 130.899 197.079 131.32C197.079 131.857 196.933 132.339 196.641 132.767C196.353 133.191 195.955 133.526 195.448 133.771C194.944 134.017 194.368 134.139 193.718 134.139ZM193.718 133.304C194.202 133.304 194.626 133.218 194.991 133.045C195.359 132.87 195.645 132.629 195.851 132.325C196.06 132.02 196.164 131.67 196.164 131.276C196.164 130.868 196.056 130.505 195.841 130.187C195.625 129.865 195.334 129.612 194.966 129.426C194.598 129.237 194.182 129.143 193.718 129.143C193.254 129.143 192.836 129.237 192.465 129.426C192.097 129.612 191.806 129.865 191.59 130.187C191.378 130.505 191.272 130.868 191.272 131.276C191.272 131.67 191.373 132.02 191.575 132.325C191.781 132.629 192.067 132.87 192.435 133.045C192.807 133.218 193.234 133.304 193.718 133.304ZM193.718 128.347C194.116 128.347 194.472 128.263 194.787 128.094C195.102 127.925 195.35 127.694 195.533 127.403C195.718 127.108 195.813 126.773 195.816 126.398C195.813 126.027 195.72 125.699 195.538 125.414C195.355 125.126 195.107 124.902 194.792 124.743C194.48 124.58 194.122 124.499 193.718 124.499C193.314 124.499 192.952 124.58 192.634 124.743C192.319 124.902 192.071 125.126 191.888 125.414C191.71 125.699 191.622 126.027 191.625 126.398C191.622 126.773 191.711 127.108 191.893 127.403C192.079 127.694 192.329 127.925 192.644 128.094C192.962 128.263 193.32 128.347 193.718 128.347ZM202.121 134.139C201.555 134.139 201.047 134.025 200.6 133.796C200.156 133.564 199.801 133.246 199.536 132.842C199.274 132.437 199.135 131.975 199.118 131.455H200.018C200.048 131.995 200.26 132.439 200.655 132.787C201.049 133.132 201.538 133.304 202.121 133.304C202.575 133.304 202.98 133.196 203.334 132.981C203.689 132.762 203.966 132.464 204.165 132.086C204.367 131.705 204.468 131.276 204.468 130.798C204.465 130.301 204.357 129.864 204.145 129.486C203.933 129.105 203.644 128.806 203.28 128.591C202.918 128.375 202.512 128.268 202.062 128.268C201.72 128.264 201.385 128.321 201.057 128.437C200.729 128.553 200.456 128.702 200.237 128.884L199.307 128.765L199.919 123.818H204.95V124.653H200.699L200.292 128.059H200.341C200.567 127.87 200.84 127.716 201.162 127.597C201.487 127.477 201.83 127.418 202.191 127.418C202.791 127.418 203.329 127.562 203.807 127.85C204.287 128.138 204.667 128.536 204.945 129.043C205.227 129.547 205.368 130.127 205.368 130.783C205.368 131.426 205.227 132.001 204.945 132.509C204.667 133.012 204.282 133.41 203.792 133.702C203.305 133.993 202.748 134.139 202.121 134.139ZM210.625 123.818V134H209.695V124.793H209.636L207.249 126.379V125.414L209.656 123.818H210.625ZM216.78 123.679C217.204 123.682 217.615 123.768 218.013 123.938C218.414 124.103 218.775 124.372 219.097 124.743C219.418 125.111 219.673 125.601 219.862 126.214C220.051 126.824 220.146 127.575 220.146 128.467C220.146 129.299 220.073 130.061 219.927 130.754C219.781 131.446 219.562 132.046 219.271 132.553C218.982 133.057 218.618 133.448 218.177 133.727C217.74 134.002 217.227 134.139 216.641 134.139C216.094 134.139 215.608 134.025 215.184 133.796C214.763 133.567 214.422 133.251 214.16 132.847C213.898 132.439 213.736 131.968 213.673 131.435H214.588C214.677 131.978 214.896 132.426 215.244 132.777C215.595 133.128 216.061 133.304 216.641 133.304C217.473 133.304 218.119 132.916 218.58 132.141C219.04 131.365 219.271 130.261 219.271 128.83H219.206C219.047 129.128 218.838 129.388 218.58 129.61C218.325 129.832 218.033 130.006 217.705 130.132C217.377 130.255 217.03 130.316 216.666 130.316C216.099 130.316 215.58 130.174 215.11 129.888C214.639 129.6 214.263 129.207 213.981 128.71C213.699 128.21 213.558 127.64 213.558 127C213.558 126.397 213.691 125.843 213.956 125.339C214.225 124.832 214.599 124.428 215.08 124.126C215.564 123.821 216.13 123.672 216.78 123.679ZM216.78 124.514C216.339 124.514 215.943 124.627 215.592 124.852C215.244 125.074 214.967 125.374 214.762 125.752C214.559 126.127 214.458 126.543 214.458 127C214.458 127.461 214.559 127.88 214.762 128.258C214.967 128.632 215.244 128.931 215.592 129.153C215.943 129.371 216.339 129.481 216.78 129.481C217.118 129.481 217.433 129.413 217.725 129.277C218.016 129.138 218.268 128.949 218.48 128.71C218.696 128.472 218.858 128.201 218.968 127.9C219.08 127.595 219.125 127.275 219.102 126.94C219.062 126.476 218.938 126.062 218.729 125.697C218.523 125.33 218.252 125.041 217.914 124.832C217.579 124.62 217.201 124.514 216.78 124.514ZM222.005 131.812V131.057L226.544 123.818H227.101V125.086H226.688L223.044 130.913V130.977H228.995V131.812H222.005ZM226.758 134V131.574V131.226V123.818H227.643V134H226.758ZM234.018 123.818V134H233.088V124.793H233.028L230.642 126.379V125.414L233.048 123.818H234.018Z" fill="white"/>
<path d="M17.1186 167V156.818H18.6548V161.243H23.7308V156.818H25.272V167H23.7308V162.56H18.6548V167H17.1186ZM30.6065 167.154C29.8906 167.154 29.2659 166.99 28.7322 166.662C28.1986 166.334 27.7843 165.875 27.4893 165.285C27.1944 164.695 27.0469 164.005 27.0469 163.217C27.0469 162.424 27.1944 161.732 27.4893 161.138C27.7843 160.545 28.1986 160.085 28.7322 159.756C29.2659 159.428 29.8906 159.264 30.6065 159.264C31.3224 159.264 31.9472 159.428 32.4808 159.756C33.0144 160.085 33.4287 160.545 33.7237 161.138C34.0187 161.732 34.1662 162.424 34.1662 163.217C34.1662 164.005 34.0187 164.695 33.7237 165.285C33.4287 165.875 33.0144 166.334 32.4808 166.662C31.9472 166.99 31.3224 167.154 30.6065 167.154ZM30.6115 165.906C31.0755 165.906 31.46 165.784 31.7649 165.538C32.0698 165.293 32.2952 164.967 32.4411 164.559C32.5902 164.151 32.6648 163.702 32.6648 163.212C32.6648 162.724 32.5902 162.277 32.4411 161.869C32.2952 161.458 32.0698 161.129 31.7649 160.88C31.46 160.631 31.0755 160.507 30.6115 160.507C30.1442 160.507 29.7564 160.631 29.4482 160.88C29.1432 161.129 28.9162 161.458 28.767 161.869C28.6212 162.277 28.5483 162.724 28.5483 163.212C28.5483 163.702 28.6212 164.151 28.767 164.559C28.9162 164.967 29.1432 165.293 29.4482 165.538C29.7564 165.784 30.1442 165.906 30.6115 165.906ZM39.3901 159.364V160.557H35.2189V159.364H39.3901ZM36.3375 157.534H37.824V164.758C37.824 165.046 37.8671 165.263 37.9533 165.409C38.0395 165.552 38.1505 165.649 38.2864 165.702C38.4256 165.752 38.5764 165.777 38.7388 165.777C38.8581 165.777 38.9625 165.769 39.052 165.752C39.1415 165.736 39.2111 165.722 39.2608 165.712L39.5293 166.94C39.4431 166.973 39.3205 167.007 39.1614 167.04C39.0023 167.076 38.8034 167.096 38.5648 167.099C38.1737 167.106 37.8091 167.036 37.4711 166.891C37.133 166.745 36.8596 166.519 36.6507 166.214C36.4419 165.91 36.3375 165.527 36.3375 165.066V157.534ZM42.685 156.818V167H41.1985V156.818H42.685ZM44.6848 167V159.364H46.1713V167H44.6848ZM45.4355 158.185C45.177 158.185 44.955 158.099 44.7694 157.927C44.5871 157.751 44.4959 157.542 44.4959 157.3C44.4959 157.055 44.5871 156.846 44.7694 156.674C44.955 156.498 45.177 156.411 45.4355 156.411C45.6941 156.411 45.9145 156.498 46.0968 156.674C46.2824 156.846 46.3752 157.055 46.3752 157.3C46.3752 157.542 46.2824 157.751 46.0968 157.927C45.9145 158.099 45.6941 158.185 45.4355 158.185ZM49.6577 162.466V167H48.1712V159.364H49.598V160.607H49.6925C49.8681 160.202 50.1432 159.877 50.5178 159.632C50.8956 159.387 51.3712 159.264 51.9446 159.264C52.465 159.264 52.9207 159.374 53.3118 159.592C53.7029 159.808 54.0062 160.129 54.2216 160.557C54.437 160.984 54.5447 161.513 54.5447 162.143V167H53.0582V162.322C53.0582 161.768 52.9141 161.336 52.6257 161.024C52.3374 160.709 51.9413 160.552 51.4375 160.552C51.0928 160.552 50.7862 160.626 50.5178 160.776C50.2526 160.925 50.0421 161.143 49.8864 161.432C49.7339 161.717 49.6577 162.062 49.6577 162.466ZM59.8295 167.154C59.0772 167.154 58.4292 166.993 57.8857 166.672C57.3454 166.347 56.9278 165.891 56.6328 165.305C56.3411 164.715 56.1953 164.024 56.1953 163.232C56.1953 162.449 56.3411 161.76 56.6328 161.163C56.9278 160.567 57.3388 160.101 57.8658 159.766C58.3961 159.432 59.0159 159.264 59.7251 159.264C60.156 159.264 60.5736 159.335 60.978 159.478C61.3823 159.621 61.7453 159.844 62.0668 160.149C62.3883 160.454 62.6418 160.85 62.8274 161.337C63.013 161.821 63.1058 162.41 63.1058 163.102V163.629H57.0355V162.516H61.6491C61.6491 162.125 61.5696 161.778 61.4105 161.477C61.2514 161.172 61.0277 160.931 60.7393 160.756C60.4543 160.58 60.1196 160.492 59.7351 160.492C59.3175 160.492 58.9529 160.595 58.6413 160.8C58.3331 161.003 58.0945 161.268 57.9254 161.596C57.7597 161.921 57.6768 162.274 57.6768 162.655V163.525C57.6768 164.035 57.7663 164.469 57.9453 164.827C58.1276 165.185 58.3812 165.459 58.706 165.648C59.0308 165.833 59.4103 165.926 59.8445 165.926C60.1262 165.926 60.383 165.886 60.6151 165.807C60.8471 165.724 61.0476 165.601 61.2166 165.439C61.3857 165.277 61.5149 165.076 61.6044 164.837L63.0114 165.091C62.8987 165.505 62.6965 165.868 62.4048 166.18C62.1165 166.488 61.7536 166.728 61.3161 166.901C60.8819 167.07 60.3864 167.154 59.8295 167.154ZM65.7346 167.094C65.4628 167.094 65.2291 166.998 65.0336 166.806C64.838 166.611 64.7402 166.375 64.7402 166.1C64.7402 165.828 64.838 165.596 65.0336 165.404C65.2291 165.209 65.4628 165.111 65.7346 165.111C66.0063 165.111 66.24 165.209 66.4355 165.404C66.6311 165.596 66.7289 165.828 66.7289 166.1C66.7289 166.282 66.6825 166.45 66.5897 166.602C66.5002 166.751 66.3809 166.871 66.2317 166.96C66.0826 167.05 65.9168 167.094 65.7346 167.094ZM65.7346 161.536C65.4628 161.536 65.2291 161.438 65.0336 161.243C64.838 161.047 64.7402 160.814 64.7402 160.542C64.7402 160.27 64.838 160.038 65.0336 159.846C65.2291 159.65 65.4628 159.553 65.7346 159.553C66.0063 159.553 66.24 159.65 66.4355 159.846C66.6311 160.038 66.7289 160.27 66.7289 160.542C66.7289 160.724 66.6825 160.892 66.5897 161.044C66.5002 161.193 66.3809 161.312 66.2317 161.402C66.0826 161.491 65.9168 161.536 65.7346 161.536Z" fill="white"/>
<path d="M116.276 156.818V167H115.346V157.793H115.286L112.9 159.379V158.414L115.306 156.818H116.276ZM122.515 167.139C121.865 167.139 121.287 167.017 120.78 166.771C120.273 166.526 119.875 166.191 119.587 165.767C119.298 165.339 119.154 164.857 119.154 164.32C119.154 163.899 119.242 163.507 119.418 163.142C119.593 162.774 119.835 162.466 120.143 162.217C120.452 161.965 120.798 161.801 121.183 161.725V161.67C120.682 161.525 120.279 161.238 119.974 160.81C119.67 160.379 119.519 159.891 119.522 159.344C119.519 158.837 119.648 158.383 119.91 157.982C120.172 157.58 120.528 157.264 120.979 157.032C121.433 156.797 121.945 156.679 122.515 156.679C123.082 156.679 123.59 156.797 124.041 157.032C124.492 157.264 124.848 157.58 125.11 157.982C125.375 158.383 125.509 158.837 125.513 159.344C125.509 159.887 125.355 160.376 125.05 160.81C124.746 161.241 124.344 161.528 123.847 161.67V161.725C124.232 161.798 124.576 161.96 124.881 162.212C125.186 162.464 125.428 162.774 125.607 163.142C125.786 163.507 125.876 163.899 125.876 164.32C125.876 164.857 125.73 165.339 125.438 165.767C125.15 166.191 124.752 166.526 124.245 166.771C123.741 167.017 123.165 167.139 122.515 167.139ZM122.515 166.304C122.999 166.304 123.423 166.218 123.788 166.045C124.156 165.87 124.442 165.629 124.648 165.325C124.857 165.02 124.961 164.67 124.961 164.276C124.961 163.868 124.853 163.505 124.638 163.187C124.422 162.865 124.131 162.612 123.763 162.426C123.395 162.237 122.979 162.143 122.515 162.143C122.051 162.143 121.633 162.237 121.262 162.426C120.894 162.612 120.603 162.865 120.387 163.187C120.175 163.505 120.069 163.868 120.069 164.276C120.069 164.67 120.17 165.02 120.372 165.325C120.578 165.629 120.864 165.87 121.232 166.045C121.603 166.218 122.031 166.304 122.515 166.304ZM122.515 161.347C122.913 161.347 123.269 161.263 123.584 161.094C123.899 160.925 124.147 160.694 124.33 160.403C124.515 160.108 124.61 159.773 124.613 159.398C124.61 159.027 124.517 158.699 124.335 158.414C124.152 158.126 123.904 157.902 123.589 157.743C123.277 157.58 122.919 157.499 122.515 157.499C122.111 157.499 121.749 157.58 121.431 157.743C121.116 157.902 120.868 158.126 120.685 158.414C120.506 158.699 120.419 159.027 120.422 159.398C120.419 159.773 120.508 160.108 120.69 160.403C120.876 160.694 121.126 160.925 121.441 161.094C121.759 161.263 122.117 161.347 122.515 161.347ZM131.102 167.139C130.386 167.139 129.775 166.934 129.268 166.523C128.764 166.108 128.376 165.51 128.104 164.728C127.836 163.946 127.702 163.006 127.702 161.909C127.702 160.815 127.836 159.879 128.104 159.1C128.376 158.318 128.765 157.72 129.273 157.305C129.783 156.888 130.393 156.679 131.102 156.679C131.811 156.679 132.42 156.888 132.927 157.305C133.437 157.72 133.827 158.318 134.095 159.1C134.367 159.879 134.503 160.815 134.503 161.909C134.503 163.006 134.367 163.946 134.095 164.728C133.827 165.51 133.439 166.108 132.932 166.523C132.428 166.934 131.818 167.139 131.102 167.139ZM131.102 166.304C131.888 166.304 132.501 165.921 132.942 165.156C133.382 164.387 133.603 163.304 133.603 161.909C133.603 160.981 133.502 160.189 133.3 159.533C133.101 158.873 132.814 158.369 132.439 158.021C132.068 157.673 131.622 157.499 131.102 157.499C130.323 157.499 129.712 157.887 129.268 158.663C128.823 159.435 128.601 160.517 128.601 161.909C128.601 162.837 128.701 163.629 128.9 164.286C129.102 164.942 129.389 165.442 129.76 165.787C130.134 166.132 130.582 166.304 131.102 166.304ZM139.688 167.139C138.972 167.139 138.361 166.934 137.854 166.523C137.35 166.108 136.962 165.51 136.69 164.728C136.422 163.946 136.287 163.006 136.287 161.909C136.287 160.815 136.422 159.879 136.69 159.1C136.962 158.318 137.351 157.72 137.858 157.305C138.369 156.888 138.979 156.679 139.688 156.679C140.397 156.679 141.006 156.888 141.513 157.305C142.023 157.72 142.412 158.318 142.681 159.1C142.953 159.879 143.089 160.815 143.089 161.909C143.089 163.006 142.953 163.946 142.681 164.728C142.412 165.51 142.025 166.108 141.518 166.523C141.014 166.934 140.404 167.139 139.688 167.139ZM139.688 166.304C140.474 166.304 141.087 165.921 141.528 165.156C141.968 164.387 142.189 163.304 142.189 161.909C142.189 160.981 142.088 160.189 141.885 159.533C141.687 158.873 141.4 158.369 141.025 158.021C140.654 157.673 140.208 157.499 139.688 157.499C138.909 157.499 138.298 157.887 137.854 158.663C137.409 159.435 137.187 160.517 137.187 161.909C137.187 162.837 137.287 163.629 137.486 164.286C137.688 164.942 137.974 165.442 138.346 165.787C138.72 166.132 139.168 166.304 139.688 166.304ZM152.028 167.139C151.461 167.139 150.954 167.025 150.506 166.796C150.062 166.564 149.707 166.246 149.442 165.842C149.18 165.437 149.041 164.975 149.025 164.455H149.925C149.954 164.995 150.166 165.439 150.561 165.787C150.955 166.132 151.444 166.304 152.028 166.304C152.482 166.304 152.886 166.196 153.241 165.981C153.595 165.762 153.872 165.464 154.071 165.086C154.273 164.705 154.374 164.276 154.374 163.798C154.371 163.301 154.263 162.864 154.051 162.486C153.839 162.105 153.55 161.806 153.186 161.591C152.825 161.375 152.419 161.268 151.968 161.268C151.626 161.264 151.292 161.321 150.964 161.437C150.635 161.553 150.362 161.702 150.143 161.884L149.214 161.765L149.825 156.818H154.856V157.653H150.606L150.198 161.059H150.248C150.473 160.87 150.747 160.716 151.068 160.597C151.393 160.477 151.736 160.418 152.097 160.418C152.697 160.418 153.236 160.562 153.713 160.85C154.193 161.138 154.573 161.536 154.851 162.043C155.133 162.547 155.274 163.127 155.274 163.783C155.274 164.426 155.133 165.001 154.851 165.509C154.573 166.012 154.189 166.41 153.698 166.702C153.211 166.993 152.654 167.139 152.028 167.139ZM160.367 167.139C159.801 167.139 159.294 167.025 158.846 166.796C158.402 166.564 158.047 166.246 157.782 165.842C157.52 165.437 157.381 164.975 157.365 164.455H158.264C158.294 164.995 158.506 165.439 158.901 165.787C159.295 166.132 159.784 166.304 160.367 166.304C160.821 166.304 161.226 166.196 161.58 165.981C161.935 165.762 162.212 165.464 162.411 165.086C162.613 164.705 162.714 164.276 162.714 163.798C162.711 163.301 162.603 162.864 162.391 162.486C162.179 162.105 161.89 161.806 161.526 161.591C161.164 161.375 160.758 161.268 160.308 161.268C159.966 161.264 159.632 161.321 159.303 161.437C158.975 161.553 158.702 161.702 158.483 161.884L157.553 161.765L158.165 156.818H163.196V157.653H158.945L158.538 161.059H158.588C158.813 160.87 159.086 160.716 159.408 160.597C159.733 160.477 160.076 160.418 160.437 160.418C161.037 160.418 161.575 160.562 162.053 160.85C162.533 161.138 162.913 161.536 163.191 162.043C163.473 162.547 163.614 163.127 163.614 163.783C163.614 164.426 163.473 165.001 163.191 165.509C162.913 166.012 162.528 166.41 162.038 166.702C161.551 166.993 160.994 167.139 160.367 167.139ZM168.707 167.139C168.14 167.139 167.633 167.025 167.186 166.796C166.742 166.564 166.387 166.246 166.122 165.842C165.86 165.437 165.721 164.975 165.704 164.455H166.604C166.634 164.995 166.846 165.439 167.241 165.787C167.635 166.132 168.124 166.304 168.707 166.304C169.161 166.304 169.566 166.196 169.92 165.981C170.275 165.762 170.552 165.464 170.751 165.086C170.953 164.705 171.054 164.276 171.054 163.798C171.05 163.301 170.943 162.864 170.731 162.486C170.519 162.105 170.23 161.806 169.866 161.591C169.504 161.375 169.098 161.268 168.648 161.268C168.306 161.264 167.971 161.321 167.643 161.437C167.315 161.553 167.042 161.702 166.823 161.884L165.893 161.765L166.505 156.818H171.536V157.653H167.285L166.878 161.059H166.927C167.153 160.87 167.426 160.716 167.748 160.597C168.073 160.477 168.416 160.418 168.777 160.418C169.377 160.418 169.915 160.562 170.393 160.85C170.873 161.138 171.253 161.536 171.531 162.043C171.813 162.547 171.954 163.127 171.954 163.783C171.954 164.426 171.813 165.001 171.531 165.509C171.253 166.012 170.868 166.41 170.378 166.702C169.89 166.993 169.334 167.139 168.707 167.139ZM177.047 167.139C176.48 167.139 175.973 167.025 175.526 166.796C175.082 166.564 174.727 166.246 174.462 165.842C174.2 165.437 174.061 164.975 174.044 164.455H174.944C174.974 164.995 175.186 165.439 175.58 165.787C175.975 166.132 176.464 166.304 177.047 166.304C177.501 166.304 177.905 166.196 178.26 165.981C178.615 165.762 178.892 165.464 179.09 165.086C179.293 164.705 179.394 164.276 179.394 163.798C179.39 163.301 179.283 162.864 179.07 162.486C178.858 162.105 178.57 161.806 178.205 161.591C177.844 161.375 177.438 161.268 176.987 161.268C176.646 161.264 176.311 161.321 175.983 161.437C175.655 161.553 175.382 161.702 175.163 161.884L174.233 161.765L174.845 156.818H179.876V157.653H175.625L175.218 161.059H175.267C175.493 160.87 175.766 160.716 176.088 160.597C176.412 160.477 176.755 160.418 177.117 160.418C177.717 160.418 178.255 160.562 178.732 160.85C179.213 161.138 179.593 161.536 179.871 162.043C180.153 162.547 180.294 163.127 180.294 163.783C180.294 164.426 180.153 165.001 179.871 165.509C179.593 166.012 179.208 166.41 178.718 166.702C178.23 166.993 177.673 167.139 177.047 167.139ZM189.653 167.139C189.026 167.139 188.466 167.027 187.972 166.801C187.478 166.572 187.087 166.256 186.799 165.852C186.51 165.447 186.358 164.982 186.341 164.455H187.281C187.298 164.826 187.412 165.151 187.624 165.429C187.836 165.704 188.118 165.92 188.469 166.075C188.821 166.228 189.212 166.304 189.643 166.304C190.113 166.304 190.528 166.216 190.885 166.04C191.247 165.865 191.528 165.625 191.731 165.32C191.936 165.011 192.039 164.663 192.039 164.276C192.039 163.865 191.934 163.502 191.726 163.187C191.517 162.872 191.217 162.627 190.826 162.451C190.438 162.275 189.974 162.188 189.434 162.188H188.837V161.352H189.434C189.875 161.352 190.264 161.273 190.602 161.114C190.943 160.951 191.212 160.724 191.407 160.433C191.603 160.141 191.701 159.798 191.701 159.403C191.701 159.029 191.616 158.699 191.447 158.414C191.278 158.129 191.04 157.905 190.731 157.743C190.426 157.58 190.07 157.499 189.662 157.499C189.268 157.499 188.907 157.576 188.579 157.728C188.251 157.88 187.985 158.096 187.783 158.374C187.584 158.653 187.478 158.982 187.465 159.364H186.565C186.578 158.833 186.724 158.368 187.003 157.967C187.284 157.562 187.657 157.247 188.121 157.022C188.589 156.793 189.106 156.679 189.672 156.679C190.272 156.679 190.791 156.802 191.229 157.047C191.666 157.292 192.004 157.619 192.243 158.026C192.485 158.431 192.606 158.876 192.606 159.364C192.606 159.944 192.448 160.441 192.133 160.855C191.818 161.266 191.394 161.551 190.861 161.71V161.775C191.51 161.904 192.021 162.192 192.392 162.64C192.766 163.084 192.954 163.629 192.954 164.276C192.954 164.819 192.811 165.308 192.526 165.742C192.241 166.173 191.85 166.514 191.353 166.766C190.859 167.015 190.292 167.139 189.653 167.139ZM198.129 167.139C197.562 167.139 197.055 167.025 196.608 166.796C196.164 166.564 195.809 166.246 195.544 165.842C195.282 165.437 195.143 164.975 195.126 164.455H196.026C196.056 164.995 196.268 165.439 196.662 165.787C197.057 166.132 197.546 166.304 198.129 166.304C198.583 166.304 198.988 166.196 199.342 165.981C199.697 165.762 199.974 165.464 200.172 165.086C200.375 164.705 200.476 164.276 200.476 163.798C200.472 163.301 200.365 162.864 200.153 162.486C199.94 162.105 199.652 161.806 199.287 161.591C198.926 161.375 198.52 161.268 198.069 161.268C197.728 161.264 197.393 161.321 197.065 161.437C196.737 161.553 196.464 161.702 196.245 161.884L195.315 161.765L195.927 156.818H200.958V157.653H196.707L196.3 161.059H196.349C196.575 160.87 196.848 160.716 197.17 160.597C197.494 160.477 197.837 160.418 198.199 160.418C198.799 160.418 199.337 160.562 199.814 160.85C200.295 161.138 200.675 161.536 200.953 162.043C201.235 162.547 201.376 163.127 201.376 163.783C201.376 164.426 201.235 165.001 200.953 165.509C200.675 166.012 200.29 166.41 199.8 166.702C199.312 166.993 198.756 167.139 198.129 167.139Z" fill="white"/>
<defs>
<linearGradient id="paint0_linear_2079_2262" x1="0" y1="120" x2="351" y2="120" gradientUnits="userSpaceOnUse">
<stop stop-color="#00A93C"/>
<stop offset="1" stop-color="#24CBFF"/>
</linearGradient>
</defs>
</svg>
