<svg width="100%" viewBox="0 0 351 193" fill="none" xmlns="http://www.w3.org/2000/svg">
<rect x="0.5" y="0.794922" width="350" height="191" rx="19.5" stroke="url(#paint0_linear_2040_861)"/>
<path d="M40.9744 34.4426H39.2017C39.1335 34.0639 39.0066 33.7305 38.821 33.4426C38.6354 33.1548 38.4081 32.9105 38.1392 32.7097C37.8703 32.5089 37.5691 32.3574 37.2358 32.2551C36.9063 32.1529 36.5559 32.1017 36.1847 32.1017C35.5142 32.1017 34.9138 32.2703 34.3835 32.6074C33.857 32.9445 33.4403 33.4389 33.1335 34.0904C32.8305 34.7419 32.679 35.5373 32.679 36.4767C32.679 37.4237 32.8305 38.223 33.1335 38.8745C33.4403 39.526 33.8589 40.0184 34.3892 40.3517C34.9195 40.6851 35.5161 40.8517 36.179 40.8517C36.5464 40.8517 36.8949 40.8025 37.2244 40.704C37.5578 40.6017 37.8589 40.4521 38.1278 40.2551C38.3968 40.0582 38.6241 39.8176 38.8097 39.5336C38.9991 39.2457 39.1297 38.9161 39.2017 38.5449L40.9744 38.5506C40.8797 39.1226 40.696 39.6491 40.4233 40.1301C40.1544 40.6074 39.8078 41.0203 39.3835 41.3688C38.9631 41.7135 38.482 41.9805 37.9403 42.1699C37.3987 42.3593 36.8078 42.454 36.1676 42.454C35.16 42.454 34.2623 42.2154 33.4744 41.7381C32.6866 41.257 32.0653 40.5695 31.6108 39.6756C31.16 38.7817 30.9347 37.7154 30.9347 36.4767C30.9347 35.2343 31.1619 34.168 31.6165 33.2779C32.071 32.3839 32.6922 31.6983 33.4801 31.2211C34.268 30.74 35.1638 30.4995 36.1676 30.4995C36.785 30.4995 37.3608 30.5885 37.8949 30.7665C38.4328 30.9408 38.9157 31.1983 39.3438 31.5392C39.7718 31.8764 40.1259 32.2892 40.4062 32.7779C40.6866 33.2627 40.8759 33.8176 40.9744 34.4426ZM43.0753 42.2949V30.6586H44.831V35.7154H50.6321V30.6586H52.3935V42.2949H50.6321V37.2211H44.831V42.2949H43.0753ZM62.4332 30.6586H64.1946V38.312C64.1946 39.1264 64.0033 39.848 63.6207 40.4767C63.2382 41.1017 62.7003 41.5942 62.0071 41.954C61.3139 42.3101 60.5014 42.4881 59.5696 42.4881C58.6416 42.4881 57.831 42.3101 57.1378 41.954C56.4446 41.5942 55.9067 41.1017 55.5241 40.4767C55.1416 39.848 54.9503 39.1264 54.9503 38.312V30.6586H56.706V38.1699C56.706 38.6964 56.8215 39.1642 57.0526 39.5733C57.2874 39.9824 57.6188 40.3044 58.0469 40.5392C58.4749 40.7703 58.9825 40.8858 59.5696 40.8858C60.1605 40.8858 60.67 40.7703 61.098 40.5392C61.5298 40.3044 61.8594 39.9824 62.0866 39.5733C62.3177 39.1642 62.4332 38.6964 62.4332 38.1699V30.6586ZM58.8707 29.4938L60.2003 26.8745H61.9901L60.2287 29.4938H58.8707ZM76.1392 30.6586V42.2949H74.5256L68.6108 33.7608H68.5028V42.2949H66.7472V30.6586H68.3722L74.2926 39.204H74.4006V30.6586H76.1392ZM86.5753 34.3347C86.4654 33.99 86.3177 33.6813 86.1321 33.4086C85.9503 33.132 85.7325 32.8972 85.4787 32.704C85.2249 32.507 84.9351 32.3574 84.6094 32.2551C84.2874 32.1529 83.9332 32.1017 83.5469 32.1017C82.8916 32.1017 82.3007 32.2703 81.7741 32.6074C81.2476 32.9445 80.831 33.4389 80.5241 34.0904C80.2211 34.7381 80.0696 35.5317 80.0696 36.4711C80.0696 37.4142 80.223 38.2116 80.5298 38.8631C80.8366 39.5146 81.2571 40.0089 81.7912 40.3461C82.3253 40.6832 82.9332 40.8517 83.6151 40.8517C84.2476 40.8517 84.7988 40.723 85.2685 40.4654C85.742 40.2078 86.1075 39.8442 86.3651 39.3745C86.6264 38.901 86.7571 38.3442 86.7571 37.704L87.2116 37.7892H83.8821V36.3404H88.456V37.6642C88.456 38.6415 88.2476 39.49 87.831 40.2097C87.4181 40.9256 86.8461 41.4786 86.1151 41.8688C85.3878 42.2589 84.5545 42.454 83.6151 42.454C82.562 42.454 81.6378 42.2116 80.8423 41.7267C80.0507 41.2419 79.4332 40.5544 78.9901 39.6642C78.5469 38.7703 78.3253 37.7097 78.3253 36.4824C78.3253 35.5544 78.4541 34.7211 78.7116 33.9824C78.9692 33.2438 79.331 32.6169 79.7969 32.1017C80.2666 31.5828 80.8177 31.187 81.4503 30.9142C82.0866 30.6377 82.7817 30.4995 83.5355 30.4995C84.1643 30.4995 84.7495 30.5923 85.2912 30.7779C85.8366 30.9635 86.3215 31.2267 86.7457 31.5676C87.1738 31.9086 87.5279 32.3139 87.8082 32.7836C88.0885 33.2495 88.2779 33.7665 88.3764 34.3347H86.5753ZM94.3452 32.1699V30.6586H103.351V32.1699H99.7202V42.2949H97.9702V32.1699H94.3452ZM114.949 36.4767C114.949 37.7192 114.722 38.7873 114.267 39.6813C113.813 40.5714 113.189 41.257 112.398 41.7381C111.61 42.2154 110.714 42.454 109.71 42.454C108.703 42.454 107.803 42.2154 107.011 41.7381C106.223 41.257 105.602 40.5695 105.148 39.6756C104.693 38.7817 104.466 37.7154 104.466 36.4767C104.466 35.2343 104.693 34.168 105.148 33.2779C105.602 32.3839 106.223 31.6983 107.011 31.2211C107.803 30.74 108.703 30.4995 109.71 30.4995C110.714 30.4995 111.61 30.74 112.398 31.2211C113.189 31.6983 113.813 32.3839 114.267 33.2779C114.722 34.168 114.949 35.2343 114.949 36.4767ZM113.21 36.4767C113.21 35.5298 113.057 34.7324 112.75 34.0847C112.447 33.4332 112.03 32.9408 111.5 32.6074C110.973 32.2703 110.377 32.1017 109.71 32.1017C109.04 32.1017 108.441 32.2703 107.915 32.6074C107.388 32.9408 106.972 33.4332 106.665 34.0847C106.362 34.7324 106.21 35.5298 106.21 36.4767C106.21 37.4237 106.362 38.223 106.665 38.8745C106.972 39.5222 107.388 40.0146 107.915 40.3517C108.441 40.6851 109.04 40.8517 109.71 40.8517C110.377 40.8517 110.973 40.6851 111.5 40.3517C112.03 40.0146 112.447 39.5222 112.75 38.8745C113.057 38.223 113.21 37.4237 113.21 36.4767ZM110.875 29.6131L109.71 28.0904L108.54 29.6131H107.006V29.5279L109 27.1188H110.415L112.415 29.5279V29.6131H110.875ZM118.893 30.6586V42.2949H117.138V30.6586H118.893ZM125.111 32.1699V30.6586H134.116V32.1699H130.486V42.2949H128.736V32.1699H125.111ZM137.862 30.6586V42.2949H136.107V30.6586H137.862ZM140.419 42.2949V30.6586H147.714V32.1699H142.175V35.7154H147.334V37.2211H142.175V40.7836H147.783V42.2949H140.419ZM141.124 29.6131L143.43 27.6415H144.697L147.01 29.6131H145.339L144.078 28.4881L142.805 29.6131H141.124ZM146.402 28.3517L147.589 26.2779H149.322L147.646 28.3517H146.402ZM150.06 42.2949V30.6586H154.207C155.113 30.6586 155.863 30.8233 156.457 31.1529C157.052 31.4824 157.497 31.9332 157.793 32.5051C158.088 33.0733 158.236 33.7135 158.236 34.4256C158.236 35.1415 158.086 35.7855 157.787 36.3574C157.491 36.9256 157.045 37.3764 156.446 37.7097C155.851 38.0392 155.103 38.204 154.202 38.204H151.349V36.7154H154.043C154.615 36.7154 155.079 36.6169 155.435 36.4199C155.791 36.2192 156.052 35.9464 156.219 35.6017C156.385 35.257 156.469 34.865 156.469 34.4256C156.469 33.9862 156.385 33.5961 156.219 33.2551C156.052 32.9142 155.789 32.6472 155.429 32.454C155.073 32.2608 154.603 32.1642 154.02 32.1642H151.815V42.2949H150.06ZM163.955 32.1699V30.6586H172.96V32.1699H169.33V42.2949H167.58V32.1699H163.955ZM182.433 30.6586H184.195V38.312C184.195 39.1264 184.003 39.848 183.621 40.4767C183.238 41.1017 182.7 41.5942 182.007 41.954C181.314 42.3101 180.501 42.4881 179.57 42.4881C178.642 42.4881 177.831 42.3101 177.138 41.954C176.445 41.5942 175.907 41.1017 175.524 40.4767C175.142 39.848 174.95 39.1264 174.95 38.312V30.6586H176.706V38.1699C176.706 38.6964 176.821 39.1642 177.053 39.5733C177.287 39.9824 177.619 40.3044 178.047 40.5392C178.475 40.7703 178.982 40.8858 179.57 40.8858C180.161 40.8858 180.67 40.7703 181.098 40.5392C181.53 40.3044 181.859 39.9824 182.087 39.5733C182.318 39.1642 182.433 38.6964 182.433 38.1699V30.6586ZM179.57 45.4199C179.278 45.4199 179.026 45.3214 178.814 45.1245C178.602 44.9275 178.496 44.6889 178.496 44.4086C178.496 44.1283 178.602 43.8896 178.814 43.6926C179.026 43.4957 179.278 43.3972 179.57 43.3972C179.865 43.3972 180.117 43.4957 180.325 43.6926C180.537 43.8896 180.643 44.1283 180.643 44.4086C180.643 44.6889 180.537 44.9275 180.325 45.1245C180.117 45.3214 179.865 45.4199 179.57 45.4199ZM196.412 34.4426H194.639C194.571 34.0639 194.444 33.7305 194.259 33.4426C194.073 33.1548 193.846 32.9105 193.577 32.7097C193.308 32.5089 193.007 32.3574 192.673 32.2551C192.344 32.1529 191.993 32.1017 191.622 32.1017C190.952 32.1017 190.351 32.2703 189.821 32.6074C189.295 32.9445 188.878 33.4389 188.571 34.0904C188.268 34.7419 188.116 35.5373 188.116 36.4767C188.116 37.4237 188.268 38.223 188.571 38.8745C188.878 39.526 189.296 40.0184 189.827 40.3517C190.357 40.6851 190.954 40.8517 191.616 40.8517C191.984 40.8517 192.332 40.8025 192.662 40.704C192.995 40.6017 193.296 40.4521 193.565 40.2551C193.834 40.0582 194.062 39.8176 194.247 39.5336C194.437 39.2457 194.567 38.9161 194.639 38.5449L196.412 38.5506C196.317 39.1226 196.134 39.6491 195.861 40.1301C195.592 40.6074 195.245 41.0203 194.821 41.3688C194.401 41.7135 193.92 41.9805 193.378 42.1699C192.836 42.3593 192.245 42.454 191.605 42.454C190.598 42.454 189.7 42.2154 188.912 41.7381C188.124 41.257 187.503 40.5695 187.048 39.6756C186.598 38.7817 186.372 37.7154 186.372 36.4767C186.372 35.2343 186.599 34.168 187.054 33.2779C187.509 32.3839 188.13 31.6983 188.918 31.2211C189.705 30.74 190.601 30.4995 191.605 30.4995C192.223 30.4995 192.798 30.5885 193.332 30.7665C193.87 30.9408 194.353 31.1983 194.781 31.5392C195.209 31.8764 195.563 32.2892 195.844 32.7779C196.124 33.2627 196.313 33.8176 196.412 34.4426ZM206.514 42.2949H202.747V30.6586H206.634C207.774 30.6586 208.753 30.8915 209.571 31.3574C210.389 31.8195 211.016 32.4843 211.452 33.3517C211.891 34.2154 212.111 35.2514 212.111 36.4597C212.111 37.6718 211.889 38.7135 211.446 39.5847C211.007 40.4559 210.37 41.1264 209.537 41.5961C208.704 42.062 207.696 42.2949 206.514 42.2949ZM204.503 40.7608H206.418C207.304 40.7608 208.041 40.5942 208.628 40.2608C209.215 39.9237 209.654 39.437 209.946 38.8006C210.238 38.1605 210.384 37.3801 210.384 36.4597C210.384 35.5468 210.238 34.7722 209.946 34.1358C209.658 33.4995 209.228 33.0165 208.656 32.687C208.084 32.3574 207.374 32.1926 206.526 32.1926H204.503V40.7608ZM221.777 30.6586H223.538V38.312C223.538 39.1264 223.347 39.848 222.964 40.4767C222.582 41.1017 222.044 41.5942 221.351 41.954C220.658 42.3101 219.845 42.4881 218.913 42.4881C217.985 42.4881 217.175 42.3101 216.482 41.954C215.788 41.5942 215.25 41.1017 214.868 40.4767C214.485 39.848 214.294 39.1264 214.294 38.312V30.6586H216.05V38.1699C216.05 38.6964 216.165 39.1642 216.396 39.5733C216.631 39.9824 216.963 40.3044 217.391 40.5392C217.819 40.7703 218.326 40.8858 218.913 40.8858C219.504 40.8858 220.014 40.7703 220.442 40.5392C220.874 40.3044 221.203 39.9824 221.43 39.5733C221.661 39.1642 221.777 38.6964 221.777 38.1699V30.6586ZM225.193 30.6586H227.188L230.227 35.9483H230.352L233.392 30.6586H235.386L231.165 37.7267V42.2949H229.415V37.7267L225.193 30.6586ZM240.705 32.1699V30.6586H249.71V32.1699H246.08V42.2949H244.33V32.1699H240.705ZM251.7 42.2949V30.6586H255.848C256.75 30.6586 257.498 30.8139 258.092 31.1245C258.691 31.4351 259.138 31.865 259.433 32.4142C259.729 32.9597 259.876 33.5904 259.876 34.3063C259.876 35.0184 259.727 35.6453 259.428 36.187C259.132 36.7248 258.685 37.1434 258.087 37.4426C257.492 37.7419 256.744 37.8915 255.842 37.8915H252.7V36.3801H255.683C256.251 36.3801 256.714 36.2987 257.07 36.1358C257.429 35.973 257.693 35.7362 257.859 35.4256C258.026 35.115 258.109 34.7419 258.109 34.3063C258.109 33.8669 258.024 33.4862 257.854 33.1642C257.687 32.8423 257.424 32.5961 257.064 32.4256C256.708 32.2514 256.24 32.1642 255.661 32.1642H253.456V42.2949H251.7ZM257.445 37.0449L260.32 42.2949H258.32L255.501 37.0449H257.445ZM263.768 30.6586V42.2949H262.013V30.6586H263.768ZM262.234 29.4938L260.479 26.8745H262.268L263.592 29.4938H262.234ZM271.577 30.6586L274.815 40.1358H274.946L278.185 30.6586H280.082L275.895 42.2949H273.866L269.679 30.6586H271.577ZM283.518 30.6586V42.2949H281.763V30.6586H283.518ZM282.638 45.3063C282.346 45.3063 282.094 45.2078 281.882 45.0108C281.67 44.8139 281.564 44.5752 281.564 44.2949C281.564 44.0146 281.67 43.776 281.882 43.579C282.094 43.382 282.346 43.2836 282.638 43.2836C282.933 43.2836 283.185 43.382 283.393 43.579C283.606 43.776 283.712 44.0146 283.712 44.2949C283.712 44.5752 283.606 44.8139 283.393 45.0108C283.185 45.2078 282.933 45.3063 282.638 45.3063ZM289.736 32.1699V30.6586H298.741V32.1699H295.111V42.2949H293.361V32.1699H289.736ZM300.732 42.2949V30.6586H302.487V35.7154H308.288V30.6586H310.05V42.2949H308.288V37.2211H302.487V42.2949H300.732ZM312.607 42.2949V30.6586H319.902V32.1699H314.362V35.7154H319.521V37.2211H314.362V40.7836H319.97V42.2949H312.607ZM313.311 29.6131L315.618 27.6415H316.885L319.197 29.6131H317.527L316.266 28.4881L314.993 29.6131H313.311ZM318.589 28.3517L319.777 26.2779H321.51L319.834 28.3517H318.589ZM35.9751 66.2949H32.2081V54.6586H36.0945C37.2346 54.6586 38.2138 54.8915 39.032 55.3574C39.8501 55.8195 40.477 56.4843 40.9126 57.3517C41.352 58.2154 41.5717 59.2514 41.5717 60.4597C41.5717 61.6718 41.3501 62.7135 40.907 63.5847C40.4676 64.4559 39.8312 65.1264 38.9979 65.5961C38.1645 66.062 37.157 66.2949 35.9751 66.2949ZM33.9638 64.7608H35.8786C36.7649 64.7608 37.5017 64.5942 38.0888 64.2608C38.6759 63.9237 39.1153 63.437 39.407 62.8006C39.6986 62.1605 39.8445 61.3801 39.8445 60.4597C39.8445 59.5468 39.6986 58.7722 39.407 58.1358C39.1191 57.4995 38.6892 57.0165 38.1172 56.687C37.5452 56.3574 36.835 56.1926 35.9865 56.1926H33.9638V64.7608ZM44.1598 66.2949H42.2962L46.4837 54.6586H48.5121L52.6996 66.2949H50.8359L47.5462 56.7722H47.4553L44.1598 66.2949ZM44.4723 61.7381H50.5178V63.2154H44.4723V61.7381ZM48.0632 51.9995L50.4212 53.8574H48.9212L47.4837 52.7324L46.0518 53.8574H44.5462L46.9041 51.9995H48.0632ZM48.8359 50.0222L49.5405 50.2438C49.5405 50.5506 49.425 50.8328 49.1939 51.0904C48.9628 51.3442 48.6712 51.4711 48.3189 51.4711C48.1295 51.4711 47.9647 51.4445 47.8246 51.3915C47.6882 51.3385 47.5632 51.276 47.4496 51.204C47.3397 51.132 47.2261 51.0695 47.1087 51.0165C46.9912 50.9635 46.8568 50.937 46.7053 50.937C46.5575 50.937 46.4231 50.9957 46.3018 51.1131C46.1844 51.2305 46.1257 51.3593 46.1257 51.4995L45.4439 51.3176C45.4439 51.0146 45.5556 50.7324 45.7791 50.4711C46.0064 50.2097 46.2962 50.079 46.6484 50.079C46.8037 50.079 46.9477 50.1055 47.0803 50.1586C47.2166 50.2078 47.3473 50.2665 47.4723 50.3347C47.5973 50.3991 47.7242 50.4578 47.853 50.5108C47.9818 50.5639 48.1181 50.5904 48.2621 50.5904C48.4098 50.5904 48.5424 50.5317 48.6598 50.4142C48.7772 50.293 48.8359 50.1623 48.8359 50.0222ZM63.772 54.6586V66.2949H62.1584L56.2436 57.7608H56.1357V66.2949H54.38V54.6586H56.005L61.9254 63.204H62.0334V54.6586H63.772ZM74.3345 66.2949H71.4595V64.7608H74.2379C75.1243 64.7608 75.861 64.5942 76.4482 64.2608C77.0353 63.9237 77.4747 63.437 77.7663 62.8006C78.058 62.1605 78.2038 61.3801 78.2038 60.4597C78.2038 59.5468 78.058 58.7722 77.7663 58.1358C77.4785 57.4995 77.0485 57.0165 76.4766 56.687C75.9046 56.3574 75.1944 56.1926 74.3459 56.1926H71.397V54.6586H74.4538C75.594 54.6586 76.5732 54.8915 77.3913 55.3574C78.2095 55.8195 78.8364 56.4843 79.272 57.3517C79.7114 58.2154 79.9311 59.2514 79.9311 60.4597C79.9311 61.6718 79.7095 62.7135 79.2663 63.5847C78.8269 64.4559 78.1906 65.1264 77.3572 65.5961C76.5239 66.062 75.5163 66.2949 74.3345 66.2949ZM72.3232 54.6586V66.2949H70.5675V54.6586H72.3232ZM68.8288 60.8347V59.6642H74.0504V60.8347H68.8288ZM83.0973 66.2949H81.2337L85.4212 54.6586H87.4496L91.6371 66.2949H89.7734L86.4837 56.7722H86.3928L83.0973 66.2949ZM83.4098 61.7381H89.4553V63.2154H83.4098V61.7381ZM87.0575 51.6699L89.3757 53.6415H87.6996L86.4382 52.5165L85.1712 53.6415H83.5007L85.7905 51.6699H87.0575ZM82.9212 50.2949L84.0916 52.3801H82.87L81.1768 50.2949H82.9212ZM100.8 54.6586H102.562V62.312C102.562 63.1264 102.371 63.848 101.988 64.4767C101.605 65.1017 101.067 65.5942 100.374 65.954C99.6811 66.3101 98.8686 66.4881 97.9368 66.4881C97.0088 66.4881 96.1982 66.3101 95.505 65.954C94.8118 65.5942 94.2739 65.1017 93.8913 64.4767C93.5088 63.848 93.3175 63.1264 93.3175 62.312V54.6586H95.0732V62.1699C95.0732 62.6964 95.1887 63.1642 95.4197 63.5733C95.6546 63.9824 95.986 64.3044 96.4141 64.5392C96.8421 64.7703 97.3497 64.8858 97.9368 64.8858C98.5277 64.8858 99.0372 64.7703 99.4652 64.5392C99.897 64.3044 100.227 63.9824 100.454 63.5733C100.685 63.1642 100.8 62.6964 100.8 62.1699V54.6586ZM108.775 56.1699V54.6586H117.781V56.1699H114.15V66.2949H112.4V56.1699H108.775ZM119.771 66.2949V54.6586H121.526V59.7154H127.327V54.6586H129.089V66.2949H127.327V61.2211H121.526V66.2949H119.771ZM133.401 54.6586V66.2949H131.646V54.6586H133.401ZM132.521 69.3063C132.229 69.3063 131.977 69.2078 131.765 69.0108C131.553 68.8139 131.447 68.5752 131.447 68.2949C131.447 68.0146 131.553 67.776 131.765 67.579C131.977 67.382 132.229 67.2836 132.521 67.2836C132.816 67.2836 133.068 67.382 133.276 67.579C133.488 67.776 133.594 68.0146 133.594 68.2949C133.594 68.5752 133.488 68.8139 133.276 69.0108C133.068 69.2078 132.816 69.3063 132.521 69.3063ZM139.619 56.1699V54.6586H148.624V56.1699H144.994V66.2949H143.244V56.1699H139.619ZM150.614 66.2949V54.6586H154.762C155.664 54.6586 156.412 54.8139 157.006 55.1245C157.605 55.4351 158.052 55.865 158.347 56.4142C158.643 56.9597 158.79 57.5904 158.79 58.3063C158.79 59.0184 158.641 59.6453 158.342 60.187C158.046 60.7248 157.599 61.1434 157.001 61.4426C156.406 61.7419 155.658 61.8915 154.756 61.8915H151.614V60.3801H154.597C155.165 60.3801 155.628 60.2987 155.984 60.1358C156.344 59.973 156.607 59.7362 156.773 59.4256C156.94 59.115 157.023 58.7419 157.023 58.3063C157.023 57.8669 156.938 57.4862 156.768 57.1642C156.601 56.8423 156.338 56.5961 155.978 56.4256C155.622 56.2514 155.154 56.1642 154.575 56.1642H152.37V66.2949H150.614ZM156.359 61.0449L159.234 66.2949H157.234L154.415 61.0449H156.359ZM171.41 54.0506H172.813C172.813 54.8044 172.703 55.4408 172.484 55.9597C172.268 56.4786 171.912 56.8745 171.415 57.1472C170.923 57.4161 170.262 57.5506 169.433 57.5506V56.3801C169.978 56.3801 170.393 56.2911 170.677 56.1131C170.965 55.9313 171.158 55.668 171.256 55.3233C171.359 54.9748 171.41 54.5506 171.41 54.0506ZM168.41 54.6586H170.171V62.312C170.171 63.1264 169.98 63.848 169.597 64.4767C169.215 65.1017 168.677 65.5942 167.984 65.954C167.29 66.3101 166.478 66.4881 165.546 66.4881C164.618 66.4881 163.808 66.3101 163.114 65.954C162.421 65.5942 161.883 65.1017 161.501 64.4767C161.118 63.848 160.927 63.1264 160.927 62.312V54.6586H162.683V62.1699C162.683 62.6964 162.798 63.1642 163.029 63.5733C163.264 63.9824 163.595 64.3044 164.023 64.5392C164.451 64.7703 164.959 64.8858 165.546 64.8858C166.137 64.8858 166.647 64.7703 167.075 64.5392C167.506 64.3044 167.836 63.9824 168.063 63.5733C168.294 63.1642 168.41 62.6964 168.41 62.1699V54.6586ZM183.989 53.9086H185.398C185.398 54.9578 185.148 55.7703 184.648 56.3461C184.148 56.9218 183.389 57.2097 182.37 57.2097V56.0506C182.946 56.0506 183.359 55.8631 183.609 55.4881C183.862 55.1093 183.989 54.5828 183.989 53.9086ZM184.41 60.4767C184.41 61.7192 184.183 62.7873 183.728 63.6813C183.273 64.5714 182.65 65.257 181.859 65.7381C181.071 66.2154 180.175 66.454 179.171 66.454C178.164 66.454 177.264 66.2154 176.472 65.7381C175.684 65.257 175.063 64.5695 174.609 63.6756C174.154 62.7817 173.927 61.7154 173.927 60.4767C173.927 59.2343 174.154 58.168 174.609 57.2779C175.063 56.3839 175.684 55.6983 176.472 55.2211C177.264 54.74 178.164 54.4995 179.171 54.4995C180.175 54.4995 181.071 54.74 181.859 55.2211C182.65 55.6983 183.273 56.3839 183.728 57.2779C184.183 58.168 184.41 59.2343 184.41 60.4767ZM182.671 60.4767C182.671 59.5298 182.518 58.7324 182.211 58.0847C181.908 57.4332 181.491 56.9408 180.961 56.6074C180.434 56.2703 179.838 56.1017 179.171 56.1017C178.501 56.1017 177.902 56.2703 177.376 56.6074C176.849 56.9408 176.433 57.4332 176.126 58.0847C175.823 58.7324 175.671 59.5298 175.671 60.4767C175.671 61.4237 175.823 62.223 176.126 62.8745C176.433 63.5222 176.849 64.0146 177.376 64.3517C177.902 64.6851 178.501 64.8517 179.171 64.8517C179.838 64.8517 180.434 64.6851 180.961 64.3517C181.491 64.0146 181.908 63.5222 182.211 62.8745C182.518 62.223 182.671 61.4237 182.671 60.4767ZM178.506 53.4938L176.751 50.8745H178.54L179.864 53.4938H178.506ZM196.288 54.6586V66.2949H194.674L188.759 57.7608H188.651V66.2949H186.896V54.6586H188.521L194.441 63.204H194.549V54.6586H196.288ZM206.724 58.3347C206.614 57.99 206.466 57.6813 206.281 57.4086C206.099 57.132 205.881 56.8972 205.627 56.704C205.373 56.507 205.084 56.3574 204.758 56.2551C204.436 56.1529 204.082 56.1017 203.695 56.1017C203.04 56.1017 202.449 56.2703 201.923 56.6074C201.396 56.9445 200.979 57.4389 200.673 58.0904C200.37 58.7381 200.218 59.5317 200.218 60.4711C200.218 61.4142 200.371 62.2116 200.678 62.8631C200.985 63.5146 201.406 64.0089 201.94 64.3461C202.474 64.6832 203.082 64.8517 203.763 64.8517C204.396 64.8517 204.947 64.723 205.417 64.4654C205.89 64.2078 206.256 63.8442 206.513 63.3745C206.775 62.901 206.906 62.3442 206.906 61.704L207.36 61.7892H204.031V60.3404H208.604V61.6642C208.604 62.6415 208.396 63.49 207.979 64.2097C207.567 64.9256 206.995 65.4786 206.263 65.8688C205.536 66.2589 204.703 66.454 203.763 66.454C202.71 66.454 201.786 66.2116 200.991 65.7267C200.199 65.2419 199.582 64.5544 199.138 63.6642C198.695 62.7703 198.474 61.7097 198.474 60.4824C198.474 59.5544 198.603 58.7211 198.86 57.9824C199.118 57.2438 199.479 56.6169 199.945 56.1017C200.415 55.5828 200.966 55.187 201.599 54.9142C202.235 54.6377 202.93 54.4995 203.684 54.4995C204.313 54.4995 204.898 54.5923 205.44 54.7779C205.985 54.9635 206.47 55.2267 206.894 55.5676C207.322 55.9086 207.676 56.3139 207.957 56.7836C208.237 57.2495 208.426 57.7665 208.525 58.3347H206.724ZM216.085 54.6586L219.323 64.1358H219.454L222.692 54.6586H224.59L220.403 66.2949H218.374L214.187 54.6586H216.085ZM235.38 53.9086H236.789C236.789 54.9578 236.539 55.7703 236.039 56.3461C235.539 56.9218 234.78 57.2097 233.761 57.2097V56.0506C234.336 56.0506 234.749 55.8631 234.999 55.4881C235.253 55.1093 235.38 54.5828 235.38 53.9086ZM235.8 60.4767C235.8 61.7192 235.573 62.7873 235.119 63.6813C234.664 64.5714 234.041 65.257 233.249 65.7381C232.461 66.2154 231.566 66.454 230.562 66.454C229.554 66.454 228.655 66.2154 227.863 65.7381C227.075 65.257 226.454 64.5695 225.999 63.6756C225.545 62.7817 225.317 61.7154 225.317 60.4767C225.317 59.2343 225.545 58.168 225.999 57.2779C226.454 56.3839 227.075 55.6983 227.863 55.2211C228.655 54.74 229.554 54.4995 230.562 54.4995C231.566 54.4995 232.461 54.74 233.249 55.2211C234.041 55.6983 234.664 56.3839 235.119 57.2779C235.573 58.168 235.8 59.2343 235.8 60.4767ZM234.062 60.4767C234.062 59.5298 233.908 58.7324 233.602 58.0847C233.299 57.4332 232.882 56.9408 232.352 56.6074C231.825 56.2703 231.228 56.1017 230.562 56.1017C229.891 56.1017 229.293 56.2703 228.766 56.6074C228.24 56.9408 227.823 57.4332 227.516 58.0847C227.213 58.7324 227.062 59.5298 227.062 60.4767C227.062 61.4237 227.213 62.223 227.516 62.8745C227.823 63.5222 228.24 64.0146 228.766 64.3517C229.293 64.6851 229.891 64.8517 230.562 64.8517C231.228 64.8517 231.825 64.6851 232.352 64.3517C232.882 64.0146 233.299 63.5222 233.602 62.8745C233.908 62.223 234.062 61.4237 234.062 60.4767ZM229.857 53.4938L231.187 50.8745H232.977L231.215 53.4938H229.857ZM240.042 54.6586V66.2949H238.286V54.6586H240.042ZM246.259 56.1699V54.6586H255.265V56.1699H251.634V66.2949H249.884V56.1699H246.259ZM267.738 54.0506H269.141C269.141 54.8044 269.031 55.4408 268.812 55.9597C268.596 56.4786 268.24 56.8745 267.744 57.1472C267.251 57.4161 266.59 57.5506 265.761 57.5506V56.3801C266.306 56.3801 266.721 56.2911 267.005 56.1131C267.293 55.9313 267.486 55.668 267.585 55.3233C267.687 54.9748 267.738 54.5506 267.738 54.0506ZM264.738 54.6586H266.499V62.312C266.499 63.1264 266.308 63.848 265.925 64.4767C265.543 65.1017 265.005 65.5942 264.312 65.954C263.619 66.3101 262.806 66.4881 261.874 66.4881C260.946 66.4881 260.136 66.3101 259.442 65.954C258.749 65.5942 258.211 65.1017 257.829 64.4767C257.446 63.848 257.255 63.1264 257.255 62.312V54.6586H259.011V62.1699C259.011 62.6964 259.126 63.1642 259.357 63.5733C259.592 63.9824 259.924 64.3044 260.352 64.5392C260.78 64.7703 261.287 64.8858 261.874 64.8858C262.465 64.8858 262.975 64.7703 263.403 64.5392C263.835 64.3044 264.164 63.9824 264.391 63.5733C264.622 63.1642 264.738 62.6964 264.738 62.1699V54.6586ZM285.029 58.4426H283.256C283.188 58.0639 283.061 57.7305 282.876 57.4426C282.69 57.1548 282.463 56.9105 282.194 56.7097C281.925 56.5089 281.624 56.3574 281.29 56.2551C280.961 56.1529 280.611 56.1017 280.239 56.1017C279.569 56.1017 278.969 56.2703 278.438 56.6074C277.912 56.9445 277.495 57.4389 277.188 58.0904C276.885 58.7419 276.734 59.5373 276.734 60.4767C276.734 61.4237 276.885 62.223 277.188 62.8745C277.495 63.526 277.914 64.0184 278.444 64.3517C278.974 64.6851 279.571 64.8517 280.234 64.8517C280.601 64.8517 280.95 64.8025 281.279 64.704C281.612 64.6017 281.914 64.4521 282.183 64.2551C282.451 64.0582 282.679 63.8176 282.864 63.5336C283.054 63.2457 283.184 62.9161 283.256 62.5449L285.029 62.5506C284.934 63.1226 284.751 63.6491 284.478 64.1301C284.209 64.6074 283.862 65.0203 283.438 65.3688C283.018 65.7135 282.537 65.9805 281.995 66.1699C281.453 66.3593 280.862 66.454 280.222 66.454C279.215 66.454 278.317 66.2154 277.529 65.7381C276.741 65.257 276.12 64.5695 275.665 63.6756C275.215 62.7817 274.989 61.7154 274.989 60.4767C274.989 59.2343 275.217 58.168 275.671 57.2779C276.126 56.3839 276.747 55.6983 277.535 55.2211C278.323 54.74 279.219 54.4995 280.222 54.4995C280.84 54.4995 281.415 54.5885 281.95 54.7665C282.487 54.9408 282.97 55.1983 283.398 55.5392C283.826 55.8764 284.181 56.2892 284.461 56.7779C284.741 57.2627 284.931 57.8176 285.029 58.4426ZM288.035 66.2949H286.171L290.359 54.6586H292.387L296.575 66.2949H294.711L291.421 56.7722H291.33L288.035 66.2949ZM288.347 61.7381H294.393V63.2154H288.347V61.7381ZM290.671 53.4938L292.001 50.8745H293.79L292.029 53.4938H290.671ZM307.373 58.4426H305.6C305.532 58.0639 305.405 57.7305 305.219 57.4426C305.034 57.1548 304.807 56.9105 304.538 56.7097C304.269 56.5089 303.968 56.3574 303.634 56.2551C303.305 56.1529 302.954 56.1017 302.583 56.1017C301.913 56.1017 301.312 56.2703 300.782 56.6074C300.255 56.9445 299.839 57.4389 299.532 58.0904C299.229 58.7419 299.077 59.5373 299.077 60.4767C299.077 61.4237 299.229 62.223 299.532 62.8745C299.839 63.526 300.257 64.0184 300.788 64.3517C301.318 64.6851 301.915 64.8517 302.577 64.8517C302.945 64.8517 303.293 64.8025 303.623 64.704C303.956 64.6017 304.257 64.4521 304.526 64.2551C304.795 64.0582 305.022 63.8176 305.208 63.5336C305.397 63.2457 305.528 62.9161 305.6 62.5449L307.373 62.5506C307.278 63.1226 307.094 63.6491 306.822 64.1301C306.553 64.6074 306.206 65.0203 305.782 65.3688C305.362 65.7135 304.88 65.9805 304.339 66.1699C303.797 66.3593 303.206 66.454 302.566 66.454C301.558 66.454 300.661 66.2154 299.873 65.7381C299.085 65.257 298.464 64.5695 298.009 63.6756C297.558 62.7817 297.333 61.7154 297.333 60.4767C297.333 59.2343 297.56 58.168 298.015 57.2779C298.469 56.3839 299.091 55.6983 299.879 55.2211C300.666 54.74 301.562 54.4995 302.566 54.4995C303.183 54.4995 303.759 54.5885 304.293 54.7665C304.831 54.9408 305.314 55.1983 305.742 55.5392C306.17 55.8764 306.524 56.2892 306.805 56.7779C307.085 57.2627 307.274 57.8176 307.373 58.4426ZM309.474 66.2949V54.6586H311.229V59.7154H317.031V54.6586H318.792V66.2949H317.031V61.2211H311.229V66.2949H309.474ZM36.4986 78.6586V90.2949H34.8849L28.9702 81.7608H28.8622V90.2949H27.1065V78.6586H28.7315L34.652 87.204H34.7599V78.6586H36.4986ZM39.0597 90.2949V78.6586H40.8153V83.7154H46.6165V78.6586H48.3778V90.2949H46.6165V85.2211H40.8153V90.2949H39.0597ZM51.9176 90.2949H50.054L54.2415 78.6586H56.2699L60.4574 90.2949H58.5938L55.304 80.7722H55.2131L51.9176 90.2949ZM52.2301 85.7381H58.2756V87.2154H52.2301V85.7381ZM54.5938 77.4938L52.8381 74.8745H54.6278L55.9517 77.4938H54.5938ZM72.7188 81.7154C72.6581 81.1775 72.4081 80.7608 71.9688 80.4654C71.5294 80.1661 70.9763 80.0165 70.3097 80.0165C69.8324 80.0165 69.4195 80.0923 69.071 80.2438C68.7225 80.3915 68.4517 80.5961 68.2585 80.8574C68.0691 81.115 67.9744 81.4086 67.9744 81.7381C67.9744 82.0146 68.0388 82.2533 68.1676 82.454C68.3002 82.6548 68.4725 82.8233 68.6847 82.9597C68.9006 83.0923 69.1316 83.204 69.3778 83.2949C69.6241 83.382 69.8608 83.454 70.0881 83.5108L71.2244 83.8063C71.5956 83.8972 71.9763 84.0203 72.3665 84.1756C72.7566 84.3309 73.1184 84.5355 73.4517 84.7892C73.785 85.043 74.054 85.3574 74.2585 85.7324C74.4669 86.1074 74.571 86.5563 74.571 87.079C74.571 87.7381 74.4006 88.3233 74.0597 88.8347C73.7225 89.3461 73.232 89.7495 72.5881 90.0449C71.9479 90.3404 71.1733 90.4881 70.2642 90.4881C69.393 90.4881 68.6392 90.3498 68.0028 90.0733C67.3665 89.7968 66.8684 89.4048 66.5085 88.8972C66.1487 88.3858 65.9498 87.7798 65.9119 87.079H67.6733C67.7074 87.4995 67.8438 87.8498 68.0824 88.1301C68.3248 88.4067 68.6335 88.6131 69.0085 88.7495C69.3873 88.882 69.8021 88.9483 70.2528 88.9483C70.7491 88.9483 71.1903 88.8707 71.5767 88.7154C71.9669 88.5563 72.2737 88.3366 72.4972 88.0563C72.7206 87.7722 72.8324 87.4408 72.8324 87.062C72.8324 86.7173 72.7339 86.4351 72.5369 86.2154C72.3438 85.9957 72.0805 85.8139 71.7472 85.6699C71.4176 85.526 71.0445 85.3991 70.6278 85.2892L69.2528 84.9142C68.321 84.6605 67.5824 84.2873 67.0369 83.7949C66.4953 83.3025 66.2244 82.651 66.2244 81.8404C66.2244 81.1699 66.4063 80.5847 66.7699 80.0847C67.1335 79.5847 67.6259 79.1964 68.2472 78.9199C68.8684 78.6396 69.5691 78.4995 70.3494 78.4995C71.1373 78.4995 71.8324 78.6377 72.4347 78.9142C73.0407 79.1908 73.518 79.5714 73.8665 80.0563C74.215 80.5373 74.3968 81.0904 74.4119 81.7154H72.7188ZM77.5582 90.2949H75.6946L79.8821 78.6586H81.9105L86.098 90.2949H84.2344L80.9446 80.7722H80.8537L77.5582 90.2949ZM77.8707 85.7381H83.9162V87.2154H77.8707V85.7381ZM81.5923 77.454H80.2514L80.206 76.2949C80.6075 76.276 80.8916 76.223 81.0582 76.1358C81.2249 76.0449 81.3063 75.9142 81.3026 75.7438C81.3063 75.5392 81.1908 75.3934 80.956 75.3063C80.7249 75.2192 80.4427 75.1756 80.1094 75.1756L80.1605 74.2381C81.0204 74.2381 81.6719 74.3745 82.1151 74.6472C82.562 74.9199 82.7836 75.2873 82.7798 75.7495C82.7836 76.1245 82.6605 76.401 82.4105 76.579C82.1643 76.7533 81.8916 76.8631 81.5923 76.9086V77.454ZM97.1705 78.6586V90.2949H95.5568L89.642 81.7608H89.5341V90.2949H87.7784V78.6586H89.4034L95.3239 87.204H95.4318V78.6586H97.1705ZM105.188 78.6586L107.972 83.2097H108.062L110.847 78.6586H112.881L109.256 84.4767L112.903 90.2949H110.858L108.062 85.8063H107.972L105.176 90.2949H103.131L106.841 84.4767L103.153 78.6586H105.188ZM122.105 78.6586H123.866V86.312C123.866 87.1264 123.675 87.848 123.293 88.4767C122.91 89.1017 122.372 89.5942 121.679 89.954C120.986 90.3101 120.173 90.4881 119.241 90.4881C118.313 90.4881 117.503 90.3101 116.81 89.954C116.116 89.5942 115.579 89.1017 115.196 88.4767C114.813 87.848 114.622 87.1264 114.622 86.312V78.6586H116.378V86.1699C116.378 86.6964 116.493 87.1642 116.724 87.5733C116.959 87.9824 117.291 88.3044 117.719 88.5392C118.147 88.7703 118.654 88.8858 119.241 88.8858C119.832 88.8858 120.342 88.7703 120.77 88.5392C121.202 88.3044 121.531 87.9824 121.759 87.5733C121.99 87.1642 122.105 86.6964 122.105 86.1699V78.6586ZM127.402 90.2949H125.538L129.726 78.6586H131.754L135.942 90.2949H134.078L130.788 80.7722H130.697L127.402 90.2949ZM127.714 85.7381H133.76V87.2154H127.714V85.7381ZM127.8 77.6131L130.107 75.6415H131.374L133.686 77.6131H132.016L130.754 76.4881L129.482 77.6131H127.8ZM133.078 76.3517L134.266 74.2779H135.999L134.322 76.3517H133.078ZM135.673 80.1699V78.6586H144.679V80.1699H141.048V90.2949H139.298V80.1699H135.673ZM151.92 78.6586L155.159 88.1358H155.29L158.528 78.6586H160.426L156.239 90.2949H154.21L150.023 78.6586H151.92ZM161.902 90.2949H160.038L164.226 78.6586H166.254L170.442 90.2949H168.578L165.288 80.7722H165.197L161.902 90.2949ZM162.214 85.7381H168.26V87.2154H162.214V85.7381ZM164.578 77.4938L162.822 74.8745H164.612L165.936 77.4938H164.578ZM176.357 90.2949V78.6586H180.504C181.41 78.6586 182.16 78.8233 182.754 79.1529C183.349 79.4824 183.794 79.9332 184.089 80.5051C184.385 81.0733 184.533 81.7135 184.533 82.4256C184.533 83.1415 184.383 83.7855 184.084 84.3574C183.788 84.9256 183.341 85.3764 182.743 85.7097C182.148 86.0392 181.4 86.204 180.499 86.204H177.646V84.7154H180.339C180.911 84.7154 181.375 84.6169 181.732 84.4199C182.088 84.2192 182.349 83.9464 182.516 83.6017C182.682 83.257 182.766 82.865 182.766 82.4256C182.766 81.9862 182.682 81.5961 182.516 81.2551C182.349 80.9142 182.086 80.6472 181.726 80.454C181.37 80.2608 180.9 80.1642 180.317 80.1642H178.112V90.2949H176.357ZM186.591 90.2949V78.6586H188.347V83.7154H194.148V78.6586H195.909V90.2949H194.148V85.2211H188.347V90.2949H186.591ZM199.449 90.2949H197.585L201.773 78.6586H203.801L207.989 90.2949H206.125L202.835 80.7722H202.744L199.449 90.2949ZM199.761 85.7381H205.807V87.2154H199.761V85.7381ZM203.955 77.6131L202.79 76.0904L201.619 77.6131H200.085V77.5279L202.08 75.1188H203.494L205.494 77.5279V77.6131H203.955ZM219.061 78.6586V90.2949H217.447L211.533 81.7608H211.425V90.2949H209.669V78.6586H211.294L217.214 87.204H217.322V78.6586H219.061ZM225.857 90.2949V78.6586H230.004C230.91 78.6586 231.66 78.8233 232.254 79.1529C232.849 79.4824 233.294 79.9332 233.589 80.5051C233.885 81.0733 234.033 81.7135 234.033 82.4256C234.033 83.1415 233.883 83.7855 233.584 84.3574C233.288 84.9256 232.841 85.3764 232.243 85.7097C231.648 86.0392 230.9 86.204 229.999 86.204H227.146V84.7154H229.839C230.411 84.7154 230.875 84.6169 231.232 84.4199C231.588 84.2192 231.849 83.9464 232.016 83.6017C232.182 83.257 232.266 82.865 232.266 82.4256C232.266 81.9862 232.182 81.5961 232.016 81.2551C231.849 80.9142 231.586 80.6472 231.226 80.454C230.87 80.2608 230.4 80.1642 229.817 80.1642H227.612V90.2949H225.857ZM236.091 90.2949V78.6586H237.847V83.7154H243.648V78.6586H245.409V90.2949H243.648V85.2211H237.847V90.2949H236.091ZM258.074 84.4767C258.074 85.7192 257.847 86.7873 257.392 87.6813C256.938 88.5714 256.314 89.257 255.523 89.7381C254.735 90.2154 253.839 90.454 252.835 90.454C251.828 90.454 250.928 90.2154 250.136 89.7381C249.348 89.257 248.727 88.5695 248.273 87.6756C247.818 86.7817 247.591 85.7154 247.591 84.4767C247.591 83.2343 247.818 82.168 248.273 81.2779C248.727 80.3839 249.348 79.6983 250.136 79.2211C250.928 78.74 251.828 78.4995 252.835 78.4995C253.839 78.4995 254.735 78.74 255.523 79.2211C256.314 79.6983 256.938 80.3839 257.392 81.2779C257.847 82.168 258.074 83.2343 258.074 84.4767ZM256.335 84.4767C256.335 83.5298 256.182 82.7324 255.875 82.0847C255.572 81.4332 255.155 80.9408 254.625 80.6074C254.098 80.2703 253.502 80.1017 252.835 80.1017C252.165 80.1017 251.566 80.2703 251.04 80.6074C250.513 80.9408 250.097 81.4332 249.79 82.0847C249.487 82.7324 249.335 83.5298 249.335 84.4767C249.335 85.4237 249.487 86.223 249.79 86.8745C250.097 87.5222 250.513 88.0146 251.04 88.3517C251.566 88.6851 252.165 88.8517 252.835 88.8517C253.502 88.8517 254.098 88.6851 254.625 88.3517C255.155 88.0146 255.572 87.5222 255.875 86.8745C256.182 86.223 256.335 85.4237 256.335 84.4767ZM249.892 77.6131L252.199 75.6415H253.466L255.778 77.6131H254.108L252.847 76.4881L251.574 77.6131H249.892ZM255.17 76.3517L256.358 74.2779H258.091L256.415 76.3517H255.17ZM262.018 78.6586V90.2949H260.263V78.6586H262.018ZM268.81 90.2949V78.6586H270.565V84.2154H270.707L275.588 78.6586H277.798L273.105 83.8972L277.815 90.2949H275.702L271.94 85.0961L270.565 86.6756V90.2949H268.81ZM279.435 90.2949V78.6586H281.19V83.7154H286.991V78.6586H288.753V90.2949H286.991V85.2211H281.19V90.2949H279.435ZM292.293 90.2949H290.429L294.616 78.6586H296.645L300.832 90.2949H298.969L295.679 80.7722H295.588L292.293 90.2949ZM292.605 85.7381H298.651V87.2154H292.605V85.7381ZM294.929 77.4938L296.259 74.8745H298.048L296.287 77.4938H294.929ZM311.905 78.6586V90.2949H310.291L304.376 81.7608H304.268V90.2949H302.513V78.6586H304.138L310.058 87.204H310.166V78.6586H311.905ZM322.341 82.3347C322.231 81.99 322.083 81.6813 321.898 81.4086C321.716 81.132 321.498 80.8972 321.244 80.704C320.991 80.507 320.701 80.3574 320.375 80.2551C320.053 80.1529 319.699 80.1017 319.312 80.1017C318.657 80.1017 318.066 80.2703 317.54 80.6074C317.013 80.9445 316.597 81.4389 316.29 82.0904C315.987 82.7381 315.835 83.5317 315.835 84.4711C315.835 85.4142 315.989 86.2116 316.295 86.8631C316.602 87.5146 317.023 88.0089 317.557 88.3461C318.091 88.6832 318.699 88.8517 319.381 88.8517C320.013 88.8517 320.564 88.723 321.034 88.4654C321.508 88.2078 321.873 87.8442 322.131 87.3745C322.392 86.901 322.523 86.3442 322.523 85.704L322.977 85.7892H319.648V84.3404H324.222V85.6642C324.222 86.6415 324.013 87.49 323.597 88.2097C323.184 88.9256 322.612 89.4786 321.881 89.8688C321.153 90.2589 320.32 90.454 319.381 90.454C318.328 90.454 317.403 90.2116 316.608 89.7267C315.816 89.2419 315.199 88.5544 314.756 87.6642C314.313 86.7703 314.091 85.7097 314.091 84.4824C314.091 83.5544 314.22 82.7211 314.477 81.9824C314.735 81.2438 315.097 80.6169 315.562 80.1017C316.032 79.5828 316.583 79.187 317.216 78.9142C317.852 78.6377 318.547 78.4995 319.301 78.4995C319.93 78.4995 320.515 78.5923 321.057 78.7779C321.602 78.9635 322.087 79.2267 322.511 79.5676C322.939 79.9086 323.294 80.3139 323.574 80.7836C323.854 81.2495 324.044 81.7665 324.142 82.3347H322.341ZM33.6406 105.715C33.58 105.177 33.33 104.761 32.8906 104.465C32.4512 104.166 31.8982 104.017 31.2315 104.017C30.7543 104.017 30.3414 104.092 29.9929 104.244C29.6444 104.392 29.3736 104.596 29.1804 104.857C28.991 105.115 28.8963 105.409 28.8963 105.738C28.8963 106.015 28.9607 106.253 29.0895 106.454C29.2221 106.655 29.3944 106.823 29.6065 106.96C29.8224 107.092 30.0535 107.204 30.2997 107.295C30.5459 107.382 30.7827 107.454 31.0099 107.511L32.1463 107.806C32.5175 107.897 32.8982 108.02 33.2884 108.176C33.6785 108.331 34.0402 108.535 34.3736 108.789C34.7069 109.043 34.9759 109.357 35.1804 109.732C35.3887 110.107 35.4929 110.556 35.4929 111.079C35.4929 111.738 35.3224 112.323 34.9815 112.835C34.6444 113.346 34.1539 113.749 33.5099 114.045C32.8698 114.34 32.0952 114.488 31.1861 114.488C30.3149 114.488 29.5611 114.35 28.9247 114.073C28.2884 113.797 27.7902 113.405 27.4304 112.897C27.0705 112.386 26.8717 111.78 26.8338 111.079H28.5952C28.6293 111.499 28.7656 111.85 29.0043 112.13C29.2467 112.407 29.5554 112.613 29.9304 112.749C30.3092 112.882 30.724 112.948 31.1747 112.948C31.6709 112.948 32.1122 112.871 32.4986 112.715C32.8887 112.556 33.1955 112.337 33.419 112.056C33.6425 111.772 33.7543 111.441 33.7543 111.062C33.7543 110.717 33.6558 110.435 33.4588 110.215C33.2656 109.996 33.0024 109.814 32.669 109.67C32.3395 109.526 31.9664 109.399 31.5497 109.289L30.1747 108.914C29.2429 108.66 28.5043 108.287 27.9588 107.795C27.4171 107.302 27.1463 106.651 27.1463 105.84C27.1463 105.17 27.3281 104.585 27.6918 104.085C28.0554 103.585 28.5478 103.196 29.169 102.92C29.7902 102.64 30.491 102.499 31.2713 102.499C32.0592 102.499 32.7543 102.638 33.3565 102.914C33.9626 103.191 34.4399 103.571 34.7884 104.056C35.1368 104.537 35.3187 105.09 35.3338 105.715H33.6406ZM39.3466 102.659V114.295H37.5909V102.659H39.3466ZM51.2955 102.659V114.295H49.6818L43.767 105.761H43.6591V114.295H41.9034V102.659H43.5284L49.4489 111.204H49.5568V102.659H51.2955ZM53.8565 114.295V102.659H55.6122V107.715H61.4134V102.659H63.1747V114.295H61.4134V109.221H55.6122V114.295H53.8565ZM79.6307 106.443H77.858C77.7898 106.064 77.6629 105.731 77.4773 105.443C77.2917 105.155 77.0644 104.91 76.7955 104.71C76.5265 104.509 76.2254 104.357 75.892 104.255C75.5625 104.153 75.2121 104.102 74.8409 104.102C74.1705 104.102 73.5701 104.27 73.0398 104.607C72.5133 104.945 72.0966 105.439 71.7898 106.09C71.4867 106.742 71.3352 107.537 71.3352 108.477C71.3352 109.424 71.4867 110.223 71.7898 110.874C72.0966 111.526 72.5152 112.018 73.0455 112.352C73.5758 112.685 74.1723 112.852 74.8352 112.852C75.2027 112.852 75.5511 112.802 75.8807 112.704C76.214 112.602 76.5152 112.452 76.7841 112.255C77.053 112.058 77.2803 111.818 77.4659 111.534C77.6553 111.246 77.786 110.916 77.858 110.545L79.6307 110.551C79.536 111.123 79.3523 111.649 79.0795 112.13C78.8106 112.607 78.464 113.02 78.0398 113.369C77.6193 113.713 77.1383 113.981 76.5966 114.17C76.0549 114.359 75.464 114.454 74.8239 114.454C73.8163 114.454 72.9186 114.215 72.1307 113.738C71.3428 113.257 70.7216 112.57 70.267 111.676C69.8163 110.782 69.5909 109.715 69.5909 108.477C69.5909 107.234 69.8182 106.168 70.2727 105.278C70.7273 104.384 71.3485 103.698 72.1364 103.221C72.9242 102.74 73.8201 102.499 74.8239 102.499C75.4413 102.499 76.017 102.588 76.5511 102.767C77.089 102.941 77.572 103.198 78 103.539C78.428 103.876 78.7822 104.289 79.0625 104.778C79.3428 105.263 79.5322 105.818 79.6307 106.443ZM81.7315 114.295V102.659H83.4872V107.715H89.2884V102.659H91.0497V114.295H89.2884V109.221H83.4872V114.295H81.7315ZM94.5895 114.295H92.7259L96.9134 102.659H98.9418L103.129 114.295H101.266L97.9759 104.772H97.8849L94.5895 114.295ZM94.902 109.738H100.947V111.215H94.902V109.738ZM94.9872 101.613L97.294 99.6415H98.5611L100.874 101.613H99.2031L97.9418 100.488L96.669 101.613H94.9872ZM100.266 100.352L101.453 98.2779H103.186L101.51 100.352H100.266ZM102.861 104.17V102.659H111.866V104.17H108.236V114.295H106.486V104.17H102.861ZM118.091 114.295V102.659H119.847V112.784H125.119V114.295H118.091ZM137.605 102.051H139.009C139.009 102.804 138.899 103.441 138.679 103.96C138.463 104.479 138.107 104.874 137.611 105.147C137.118 105.416 136.457 105.551 135.628 105.551V104.38C136.173 104.38 136.588 104.291 136.872 104.113C137.16 103.931 137.353 103.668 137.452 103.323C137.554 102.975 137.605 102.551 137.605 102.051ZM134.605 102.659H136.366V110.312C136.366 111.126 136.175 111.848 135.793 112.477C135.41 113.102 134.872 113.594 134.179 113.954C133.486 114.31 132.673 114.488 131.741 114.488C130.813 114.488 130.003 114.31 129.31 113.954C128.616 113.594 128.079 113.102 127.696 112.477C127.313 111.848 127.122 111.126 127.122 110.312V102.659H128.878V110.17C128.878 110.696 128.993 111.164 129.224 111.573C129.459 111.982 129.791 112.304 130.219 112.539C130.647 112.77 131.154 112.886 131.741 112.886C132.332 112.886 132.842 112.77 133.27 112.539C133.702 112.304 134.031 111.982 134.259 111.573C134.49 111.164 134.605 110.696 134.605 110.17V102.659ZM150.185 101.909H151.594C151.594 102.958 151.344 103.77 150.844 104.346C150.344 104.922 149.584 105.21 148.565 105.21V104.051C149.141 104.051 149.554 103.863 149.804 103.488C150.058 103.109 150.185 102.583 150.185 101.909ZM150.605 108.477C150.605 109.719 150.378 110.787 149.923 111.681C149.469 112.571 148.846 113.257 148.054 113.738C147.266 114.215 146.37 114.454 145.366 114.454C144.359 114.454 143.459 114.215 142.668 113.738C141.88 113.257 141.259 112.57 140.804 111.676C140.349 110.782 140.122 109.715 140.122 108.477C140.122 107.234 140.349 106.168 140.804 105.278C141.259 104.384 141.88 103.698 142.668 103.221C143.459 102.74 144.359 102.499 145.366 102.499C146.37 102.499 147.266 102.74 148.054 103.221C148.846 103.698 149.469 104.384 149.923 105.278C150.378 106.168 150.605 107.234 150.605 108.477ZM148.866 108.477C148.866 107.53 148.713 106.732 148.406 106.085C148.103 105.433 147.687 104.941 147.156 104.607C146.63 104.27 146.033 104.102 145.366 104.102C144.696 104.102 144.098 104.27 143.571 104.607C143.045 104.941 142.628 105.433 142.321 106.085C142.018 106.732 141.866 107.53 141.866 108.477C141.866 109.424 142.018 110.223 142.321 110.874C142.628 111.522 143.045 112.015 143.571 112.352C144.098 112.685 144.696 112.852 145.366 112.852C146.033 112.852 146.63 112.685 147.156 112.352C147.687 112.015 148.103 111.522 148.406 110.874C148.713 110.223 148.866 109.424 148.866 108.477ZM145.361 117.306C145.069 117.306 144.817 117.208 144.605 117.011C144.393 116.814 144.287 116.575 144.287 116.295C144.287 116.015 144.393 115.776 144.605 115.579C144.817 115.382 145.069 115.284 145.361 115.284C145.656 115.284 145.908 115.382 146.116 115.579C146.329 115.776 146.435 116.015 146.435 116.295C146.435 116.575 146.329 116.814 146.116 117.011C145.908 117.208 145.656 117.306 145.361 117.306ZM162.483 102.659V114.295H160.869L154.955 105.761H154.847V114.295H153.091V102.659H154.716L160.636 111.204H160.744V102.659H162.483ZM172.919 106.335C172.809 105.99 172.661 105.681 172.476 105.409C172.294 105.132 172.076 104.897 171.822 104.704C171.569 104.507 171.279 104.357 170.953 104.255C170.631 104.153 170.277 104.102 169.891 104.102C169.235 104.102 168.644 104.27 168.118 104.607C167.591 104.945 167.175 105.439 166.868 106.09C166.565 106.738 166.413 107.532 166.413 108.471C166.413 109.414 166.567 110.212 166.874 110.863C167.18 111.515 167.601 112.009 168.135 112.346C168.669 112.683 169.277 112.852 169.959 112.852C170.591 112.852 171.143 112.723 171.612 112.465C172.086 112.208 172.451 111.844 172.709 111.374C172.97 110.901 173.101 110.344 173.101 109.704L173.555 109.789H170.226V108.34H174.8V109.664C174.8 110.642 174.591 111.49 174.175 112.21C173.762 112.926 173.19 113.479 172.459 113.869C171.732 114.259 170.898 114.454 169.959 114.454C168.906 114.454 167.982 114.212 167.186 113.727C166.394 113.242 165.777 112.554 165.334 111.664C164.891 110.77 164.669 109.71 164.669 108.482C164.669 107.554 164.798 106.721 165.055 105.982C165.313 105.244 165.675 104.617 166.141 104.102C166.61 103.583 167.161 103.187 167.794 102.914C168.43 102.638 169.125 102.499 169.879 102.499C170.508 102.499 171.093 102.592 171.635 102.778C172.18 102.963 172.665 103.227 173.089 103.568C173.518 103.909 173.872 104.314 174.152 104.784C174.432 105.249 174.622 105.767 174.72 106.335H172.919ZM190.928 106.443H189.155C189.087 106.064 188.96 105.731 188.774 105.443C188.589 105.155 188.361 104.91 188.092 104.71C187.823 104.509 187.522 104.357 187.189 104.255C186.859 104.153 186.509 104.102 186.138 104.102C185.467 104.102 184.867 104.27 184.337 104.607C183.81 104.945 183.393 105.439 183.087 106.09C182.784 106.742 182.632 107.537 182.632 108.477C182.632 109.424 182.784 110.223 183.087 110.874C183.393 111.526 183.812 112.018 184.342 112.352C184.873 112.685 185.469 112.852 186.132 112.852C186.5 112.852 186.848 112.802 187.178 112.704C187.511 112.602 187.812 112.452 188.081 112.255C188.35 112.058 188.577 111.818 188.763 111.534C188.952 111.246 189.083 110.916 189.155 110.545L190.928 110.551C190.833 111.123 190.649 111.649 190.376 112.13C190.107 112.607 189.761 113.02 189.337 113.369C188.916 113.713 188.435 113.981 187.893 114.17C187.352 114.359 186.761 114.454 186.121 114.454C185.113 114.454 184.215 114.215 183.428 113.738C182.64 113.257 182.018 112.57 181.564 111.676C181.113 110.782 180.888 109.715 180.888 108.477C180.888 107.234 181.115 106.168 181.57 105.278C182.024 104.384 182.645 103.698 183.433 103.221C184.221 102.74 185.117 102.499 186.121 102.499C186.738 102.499 187.314 102.588 187.848 102.767C188.386 102.941 188.869 103.198 189.297 103.539C189.725 103.876 190.079 104.289 190.359 104.778C190.64 105.263 190.829 105.818 190.928 106.443ZM193.933 114.295H192.07L196.257 102.659H198.286L202.473 114.295H200.609L197.32 104.772H197.229L193.933 114.295ZM194.246 109.738H200.291V111.215H194.246V109.738ZM213.714 108.477C213.714 109.719 213.487 110.787 213.033 111.681C212.578 112.571 211.955 113.257 211.163 113.738C210.375 114.215 209.48 114.454 208.476 114.454C207.468 114.454 206.569 114.215 205.777 113.738C204.989 113.257 204.368 112.57 203.913 111.676C203.459 110.782 203.232 109.715 203.232 108.477C203.232 107.234 203.459 106.168 203.913 105.278C204.368 104.384 204.989 103.698 205.777 103.221C206.569 102.74 207.468 102.499 208.476 102.499C209.48 102.499 210.375 102.74 211.163 103.221C211.955 103.698 212.578 104.384 213.033 105.278C213.487 106.168 213.714 107.234 213.714 108.477ZM211.976 108.477C211.976 107.53 211.822 106.732 211.516 106.085C211.213 105.433 210.796 104.941 210.266 104.607C209.739 104.27 209.143 104.102 208.476 104.102C207.805 104.102 207.207 104.27 206.68 104.607C206.154 104.941 205.737 105.433 205.43 106.085C205.127 106.732 204.976 107.53 204.976 108.477C204.976 109.424 205.127 110.223 205.43 110.874C205.737 111.522 206.154 112.015 206.68 112.352C207.207 112.685 207.805 112.852 208.476 112.852C209.143 112.852 209.739 112.685 210.266 112.352C210.796 112.015 211.213 111.522 211.516 110.874C211.822 110.223 211.976 109.424 211.976 108.477ZM219.564 104.17V102.659H228.57V104.17H224.939V114.295H223.189V104.17H219.564ZM230.168 114.295H228.304L232.491 102.659H234.52L238.707 114.295H236.844L233.554 104.772H233.463L230.168 114.295ZM230.48 109.738H236.526V111.215H230.48V109.738ZM233.503 117.306C233.211 117.306 232.959 117.208 232.747 117.011C232.535 116.814 232.429 116.575 232.429 116.295C232.429 116.015 232.535 115.776 232.747 115.579C232.959 115.382 233.211 115.284 233.503 115.284C233.798 115.284 234.05 115.382 234.259 115.579C234.471 115.776 234.577 116.015 234.577 116.295C234.577 116.575 234.471 116.814 234.259 117.011C234.05 117.208 233.798 117.306 233.503 117.306ZM242.143 102.659V114.295H240.388V102.659H242.143ZM249.952 102.659L253.19 112.136H253.321L256.56 102.659H258.457L254.27 114.295H252.241L248.054 102.659H249.952ZM261.893 102.659V114.295H260.138V102.659H261.893ZM264.45 114.295V102.659H271.746V104.17H266.206V107.715H271.365V109.221H266.206V112.784H271.814V114.295H264.45ZM269.263 101.613L268.098 100.09L266.928 101.613H265.393V101.528L267.388 99.1188H268.803L270.803 101.528V101.613H269.263ZM268.001 117.306C267.71 117.306 267.458 117.208 267.246 117.011C267.034 116.814 266.928 116.575 266.928 116.295C266.928 116.015 267.034 115.776 267.246 115.579C267.458 115.382 267.71 115.284 268.001 115.284C268.297 115.284 268.549 115.382 268.757 115.579C268.969 115.776 269.075 116.015 269.075 116.295C269.075 116.575 268.969 116.814 268.757 117.011C268.549 117.208 268.297 117.306 268.001 117.306ZM273.517 104.17V102.659H282.523V104.17H278.892V114.295H277.142V104.17H273.517ZM298.139 102.659V114.295H296.526L290.611 105.761H290.503V114.295H288.747V102.659H290.372L296.293 111.204H296.401V102.659H298.139ZM301.683 114.295H299.82L304.007 102.659H306.036L310.223 114.295H308.359L305.07 104.772H304.979L301.683 114.295ZM301.996 109.738H308.041V111.215H301.996V109.738ZM311.903 102.659H314.034L317.739 111.704H317.875L321.58 102.659H323.71V114.295H322.04V105.874H321.932L318.5 114.278H317.114L313.682 105.869H313.574V114.295H311.903V102.659ZM54.5234 129.715C54.4628 129.177 54.2128 128.761 53.7734 128.465C53.334 128.166 52.781 128.017 52.1143 128.017C51.6371 128.017 51.2242 128.092 50.8757 128.244C50.5272 128.392 50.2564 128.596 50.0632 128.857C49.8738 129.115 49.7791 129.409 49.7791 129.738C49.7791 130.015 49.8435 130.253 49.9723 130.454C50.1049 130.655 50.2772 130.823 50.4893 130.96C50.7053 131.092 50.9363 131.204 51.1825 131.295C51.4287 131.382 51.6655 131.454 51.8928 131.511L53.0291 131.806C53.4003 131.897 53.781 132.02 54.1712 132.176C54.5613 132.331 54.9231 132.535 55.2564 132.789C55.5897 133.043 55.8587 133.357 56.0632 133.732C56.2715 134.107 56.3757 134.556 56.3757 135.079C56.3757 135.738 56.2053 136.323 55.8643 136.835C55.5272 137.346 55.0367 137.749 54.3928 138.045C53.7526 138.34 52.978 138.488 52.0689 138.488C51.1977 138.488 50.4439 138.35 49.8075 138.073C49.1712 137.797 48.6731 137.405 48.3132 136.897C47.9534 136.386 47.7545 135.78 47.7166 135.079H49.478C49.5121 135.499 49.6484 135.85 49.8871 136.13C50.1295 136.407 50.4382 136.613 50.8132 136.749C51.192 136.882 51.6068 136.948 52.0575 136.948C52.5537 136.948 52.995 136.871 53.3814 136.715C53.7715 136.556 54.0784 136.337 54.3018 136.056C54.5253 135.772 54.6371 135.441 54.6371 135.062C54.6371 134.717 54.5386 134.435 54.3416 134.215C54.1484 133.996 53.8852 133.814 53.5518 133.67C53.2223 133.526 52.8492 133.399 52.4325 133.289L51.0575 132.914C50.1257 132.66 49.3871 132.287 48.8416 131.795C48.3 131.302 48.0291 130.651 48.0291 129.84C48.0291 129.17 48.2109 128.585 48.5746 128.085C48.9382 127.585 49.4306 127.196 50.0518 126.92C50.6731 126.64 51.3738 126.499 52.1541 126.499C52.942 126.499 53.6371 126.638 54.2393 126.914C54.8454 127.191 55.3227 127.571 55.6712 128.056C56.0197 128.537 56.2015 129.09 56.2166 129.715H54.5234ZM68.5817 132.477C68.5817 133.719 68.3544 134.787 67.8999 135.681C67.4453 136.571 66.8222 137.257 66.0305 137.738C65.2427 138.215 64.3468 138.454 63.343 138.454C62.3355 138.454 61.4358 138.215 60.6442 137.738C59.8563 137.257 59.2351 136.57 58.7805 135.676C58.326 134.782 58.0987 133.715 58.0987 132.477C58.0987 131.234 58.326 130.168 58.7805 129.278C59.2351 128.384 59.8563 127.698 60.6442 127.221C61.4358 126.74 62.3355 126.499 63.343 126.499C64.3468 126.499 65.2427 126.74 66.0305 127.221C66.8222 127.698 67.4453 128.384 67.8999 129.278C68.3544 130.168 68.5817 131.234 68.5817 132.477ZM66.843 132.477C66.843 131.53 66.6896 130.732 66.3828 130.085C66.0798 129.433 65.6631 128.941 65.1328 128.607C64.6063 128.27 64.0097 128.102 63.343 128.102C62.6726 128.102 62.0741 128.27 61.5476 128.607C61.0211 128.941 60.6044 129.433 60.2976 130.085C59.9946 130.732 59.843 131.53 59.843 132.477C59.843 133.424 59.9946 134.223 60.2976 134.874C60.6044 135.522 61.0211 136.015 61.5476 136.352C62.0741 136.685 62.6726 136.852 63.343 136.852C64.0097 136.852 64.6063 136.685 65.1328 136.352C65.6631 136.015 66.0798 135.522 66.3828 134.874C66.6896 134.223 66.843 133.424 66.843 132.477ZM76.022 126.659L79.2607 136.136H79.3913L82.63 126.659H84.5277L80.3402 138.295H78.3118L74.1243 126.659H76.022ZM95.3175 125.909H96.7266C96.7266 126.958 96.4766 127.77 95.9766 128.346C95.4766 128.922 94.7171 129.21 93.6982 129.21V128.051C94.2739 128.051 94.6868 127.863 94.9368 127.488C95.1906 127.109 95.3175 126.583 95.3175 125.909ZM95.7379 132.477C95.7379 133.719 95.5107 134.787 95.0561 135.681C94.6016 136.571 93.9785 137.257 93.1868 137.738C92.3989 138.215 91.5031 138.454 90.4993 138.454C89.4917 138.454 88.5921 138.215 87.8004 137.738C87.0125 137.257 86.3913 136.57 85.9368 135.676C85.4822 134.782 85.255 133.715 85.255 132.477C85.255 131.234 85.4822 130.168 85.9368 129.278C86.3913 128.384 87.0125 127.698 87.8004 127.221C88.5921 126.74 89.4917 126.499 90.4993 126.499C91.5031 126.499 92.3989 126.74 93.1868 127.221C93.9785 127.698 94.6016 128.384 95.0561 129.278C95.5107 130.168 95.7379 131.234 95.7379 132.477ZM93.9993 132.477C93.9993 131.53 93.8459 130.732 93.5391 130.085C93.236 129.433 92.8194 128.941 92.2891 128.607C91.7625 128.27 91.166 128.102 90.4993 128.102C89.8288 128.102 89.2304 128.27 88.7038 128.607C88.1773 128.941 87.7607 129.433 87.4538 130.085C87.1508 130.732 86.9993 131.53 86.9993 132.477C86.9993 133.424 87.1508 134.223 87.4538 134.874C87.7607 135.522 88.1773 136.015 88.7038 136.352C89.2304 136.685 89.8288 136.852 90.4993 136.852C91.166 136.852 91.7625 136.685 92.2891 136.352C92.8194 136.015 93.236 135.522 93.5391 134.874C93.8459 134.223 93.9993 133.424 93.9993 132.477ZM89.7947 125.494L91.1243 122.874H92.9141L91.1527 125.494H89.7947ZM99.9794 126.659V138.295H98.2237V126.659H99.9794ZM116.435 130.443H114.663C114.594 130.064 114.468 129.731 114.282 129.443C114.096 129.155 113.869 128.91 113.6 128.71C113.331 128.509 113.03 128.357 112.697 128.255C112.367 128.153 112.017 128.102 111.646 128.102C110.975 128.102 110.375 128.27 109.844 128.607C109.318 128.945 108.901 129.439 108.594 130.09C108.291 130.742 108.14 131.537 108.14 132.477C108.14 133.424 108.291 134.223 108.594 134.874C108.901 135.526 109.32 136.018 109.85 136.352C110.38 136.685 110.977 136.852 111.64 136.852C112.007 136.852 112.356 136.802 112.685 136.704C113.019 136.602 113.32 136.452 113.589 136.255C113.858 136.058 114.085 135.818 114.271 135.534C114.46 135.246 114.591 134.916 114.663 134.545L116.435 134.551C116.341 135.123 116.157 135.649 115.884 136.13C115.615 136.607 115.269 137.02 114.844 137.369C114.424 137.713 113.943 137.981 113.401 138.17C112.86 138.359 112.269 138.454 111.629 138.454C110.621 138.454 109.723 138.215 108.935 137.738C108.147 137.257 107.526 136.57 107.072 135.676C106.621 134.782 106.396 133.715 106.396 132.477C106.396 131.234 106.623 130.168 107.077 129.278C107.532 128.384 108.153 127.698 108.941 127.221C109.729 126.74 110.625 126.499 111.629 126.499C112.246 126.499 112.822 126.588 113.356 126.767C113.894 126.941 114.377 127.198 114.805 127.539C115.233 127.876 115.587 128.289 115.867 128.778C116.147 129.263 116.337 129.818 116.435 130.443ZM119.441 138.295H117.577L121.765 126.659H123.793L127.981 138.295H126.117L122.827 128.772H122.737L119.441 138.295ZM119.754 133.738H125.799V135.215H119.754V133.738ZM122.077 125.494L123.407 122.874H125.197L123.435 125.494H122.077ZM138.779 130.443H137.006C136.938 130.064 136.811 129.731 136.626 129.443C136.44 129.155 136.213 128.91 135.944 128.71C135.675 128.509 135.374 128.357 135.04 128.255C134.711 128.153 134.361 128.102 133.989 128.102C133.319 128.102 132.719 128.27 132.188 128.607C131.662 128.945 131.245 129.439 130.938 130.09C130.635 130.742 130.484 131.537 130.484 132.477C130.484 133.424 130.635 134.223 130.938 134.874C131.245 135.526 131.664 136.018 132.194 136.352C132.724 136.685 133.321 136.852 133.984 136.852C134.351 136.852 134.7 136.802 135.029 136.704C135.362 136.602 135.664 136.452 135.933 136.255C136.201 136.058 136.429 135.818 136.614 135.534C136.804 135.246 136.934 134.916 137.006 134.545L138.779 134.551C138.684 135.123 138.501 135.649 138.228 136.13C137.959 136.607 137.612 137.02 137.188 137.369C136.768 137.713 136.287 137.981 135.745 138.17C135.203 138.359 134.612 138.454 133.972 138.454C132.965 138.454 132.067 138.215 131.279 137.738C130.491 137.257 129.87 136.57 129.415 135.676C128.965 134.782 128.739 133.715 128.739 132.477C128.739 131.234 128.967 130.168 129.421 129.278C129.876 128.384 130.497 127.698 131.285 127.221C132.073 126.74 132.969 126.499 133.972 126.499C134.59 126.499 135.165 126.588 135.7 126.767C136.237 126.941 136.72 127.198 137.148 127.539C137.576 127.876 137.931 128.289 138.211 128.778C138.491 129.263 138.681 129.818 138.779 130.443ZM154.779 130.443H153.006C152.938 130.064 152.811 129.731 152.626 129.443C152.44 129.155 152.213 128.91 151.944 128.71C151.675 128.509 151.374 128.357 151.04 128.255C150.711 128.153 150.361 128.102 149.989 128.102C149.319 128.102 148.719 128.27 148.188 128.607C147.662 128.945 147.245 129.439 146.938 130.09C146.635 130.742 146.484 131.537 146.484 132.477C146.484 133.424 146.635 134.223 146.938 134.874C147.245 135.526 147.664 136.018 148.194 136.352C148.724 136.685 149.321 136.852 149.984 136.852C150.351 136.852 150.7 136.802 151.029 136.704C151.362 136.602 151.664 136.452 151.933 136.255C152.201 136.058 152.429 135.818 152.614 135.534C152.804 135.246 152.934 134.916 153.006 134.545L154.779 134.551C154.684 135.123 154.501 135.649 154.228 136.13C153.959 136.607 153.612 137.02 153.188 137.369C152.768 137.713 152.287 137.981 151.745 138.17C151.203 138.359 150.612 138.454 149.972 138.454C148.965 138.454 148.067 138.215 147.279 137.738C146.491 137.257 145.87 136.57 145.415 135.676C144.965 134.782 144.739 133.715 144.739 132.477C144.739 131.234 144.967 130.168 145.421 129.278C145.876 128.384 146.497 127.698 147.285 127.221C148.073 126.74 148.969 126.499 149.972 126.499C150.59 126.499 151.165 126.588 151.7 126.767C152.237 126.941 152.72 127.198 153.148 127.539C153.576 127.876 153.931 128.289 154.211 128.778C154.491 129.263 154.681 129.818 154.779 130.443ZM166.988 132.477C166.988 133.719 166.761 134.787 166.306 135.681C165.852 136.571 165.228 137.257 164.437 137.738C163.649 138.215 162.753 138.454 161.749 138.454C160.742 138.454 159.842 138.215 159.05 137.738C158.263 137.257 157.641 136.57 157.187 135.676C156.732 134.782 156.505 133.715 156.505 132.477C156.505 131.234 156.732 130.168 157.187 129.278C157.641 128.384 158.263 127.698 159.05 127.221C159.842 126.74 160.742 126.499 161.749 126.499C162.753 126.499 163.649 126.74 164.437 127.221C165.228 127.698 165.852 128.384 166.306 129.278C166.761 130.168 166.988 131.234 166.988 132.477ZM165.249 132.477C165.249 131.53 165.096 130.732 164.789 130.085C164.486 129.433 164.069 128.941 163.539 128.607C163.013 128.27 162.416 128.102 161.749 128.102C161.079 128.102 160.48 128.27 159.954 128.607C159.427 128.941 159.011 129.433 158.704 130.085C158.401 130.732 158.249 131.53 158.249 132.477C158.249 133.424 158.401 134.223 158.704 134.874C159.011 135.522 159.427 136.015 159.954 136.352C160.48 136.685 161.079 136.852 161.749 136.852C162.416 136.852 163.013 136.685 163.539 136.352C164.069 136.015 164.486 135.522 164.789 134.874C165.096 134.223 165.249 133.424 165.249 132.477ZM162.914 125.613L161.749 124.09L160.579 125.613H159.045V125.528L161.039 123.119H162.454L164.454 125.528V125.613H162.914ZM178.569 126.659V138.295H176.955L171.04 129.761H170.933V138.295H169.177V126.659H170.802L176.722 135.204H176.83V126.659H178.569ZM189.005 130.335C188.895 129.99 188.747 129.681 188.562 129.409C188.38 129.132 188.162 128.897 187.908 128.704C187.655 128.507 187.365 128.357 187.039 128.255C186.717 128.153 186.363 128.102 185.977 128.102C185.321 128.102 184.73 128.27 184.204 128.607C183.677 128.945 183.261 129.439 182.954 130.09C182.651 130.738 182.499 131.532 182.499 132.471C182.499 133.414 182.653 134.212 182.96 134.863C183.266 135.515 183.687 136.009 184.221 136.346C184.755 136.683 185.363 136.852 186.045 136.852C186.677 136.852 187.228 136.723 187.698 136.465C188.172 136.208 188.537 135.844 188.795 135.374C189.056 134.901 189.187 134.344 189.187 133.704L189.641 133.789H186.312V132.34H190.886V133.664C190.886 134.642 190.677 135.49 190.261 136.21C189.848 136.926 189.276 137.479 188.545 137.869C187.817 138.259 186.984 138.454 186.045 138.454C184.992 138.454 184.067 138.212 183.272 137.727C182.48 137.242 181.863 136.554 181.42 135.664C180.977 134.77 180.755 133.71 180.755 132.482C180.755 131.554 180.884 130.721 181.141 129.982C181.399 129.244 181.761 128.617 182.227 128.102C182.696 127.583 183.247 127.187 183.88 126.914C184.516 126.638 185.211 126.499 185.965 126.499C186.594 126.499 187.179 126.592 187.721 126.778C188.266 126.963 188.751 127.227 189.175 127.568C189.603 127.909 189.958 128.314 190.238 128.784C190.518 129.249 190.708 129.767 190.806 130.335H189.005ZM196.775 128.17V126.659H205.781V128.17H202.15V138.295H200.4V128.17H196.775ZM206.873 126.659H208.867L211.907 131.948H212.032L215.072 126.659H217.066L212.844 133.727V138.295H211.094V133.727L206.873 126.659ZM222.384 128.17V126.659H231.39V128.17H227.759V138.295H226.009V128.17H222.384ZM233.38 138.295V126.659H237.528C238.429 126.659 239.177 126.814 239.772 127.124C240.371 127.435 240.817 127.865 241.113 128.414C241.408 128.96 241.556 129.59 241.556 130.306C241.556 131.018 241.406 131.645 241.107 132.187C240.812 132.725 240.365 133.143 239.766 133.443C239.172 133.742 238.424 133.892 237.522 133.892H234.38V132.38H237.363C237.931 132.38 238.393 132.299 238.749 132.136C239.109 131.973 239.372 131.736 239.539 131.426C239.706 131.115 239.789 130.742 239.789 130.306C239.789 129.867 239.704 129.486 239.533 129.164C239.367 128.842 239.103 128.596 238.744 128.426C238.388 128.251 237.92 128.164 237.34 128.164H235.136V138.295H233.38ZM239.124 133.045L241.999 138.295H239.999L237.181 133.045H239.124ZM253.8 132.477C253.8 133.719 253.573 134.787 253.119 135.681C252.664 136.571 252.041 137.257 251.249 137.738C250.461 138.215 249.566 138.454 248.562 138.454C247.554 138.454 246.655 138.215 245.863 137.738C245.075 137.257 244.454 136.57 243.999 135.676C243.545 134.782 243.317 133.715 243.317 132.477C243.317 131.234 243.545 130.168 243.999 129.278C244.454 128.384 245.075 127.698 245.863 127.221C246.655 126.74 247.554 126.499 248.562 126.499C249.566 126.499 250.461 126.74 251.249 127.221C252.041 127.698 252.664 128.384 253.119 129.278C253.573 130.168 253.8 131.234 253.8 132.477ZM252.062 132.477C252.062 131.53 251.908 130.732 251.602 130.085C251.299 129.433 250.882 128.941 250.352 128.607C249.825 128.27 249.228 128.102 248.562 128.102C247.891 128.102 247.293 128.27 246.766 128.607C246.24 128.941 245.823 129.433 245.516 130.085C245.213 130.732 245.062 131.53 245.062 132.477C245.062 133.424 245.213 134.223 245.516 134.874C245.823 135.522 246.24 136.015 246.766 136.352C247.293 136.685 247.891 136.852 248.562 136.852C249.228 136.852 249.825 136.685 250.352 136.352C250.882 136.015 251.299 135.522 251.602 134.874C251.908 134.223 252.062 133.424 252.062 132.477ZM265.381 126.659V138.295H263.768L257.853 129.761H257.745V138.295H255.989V126.659H257.614L263.535 135.204H263.643V126.659H265.381ZM275.817 130.335C275.708 129.99 275.56 129.681 275.374 129.409C275.192 129.132 274.975 128.897 274.721 128.704C274.467 128.507 274.177 128.357 273.852 128.255C273.53 128.153 273.175 128.102 272.789 128.102C272.134 128.102 271.543 128.27 271.016 128.607C270.49 128.945 270.073 129.439 269.766 130.09C269.463 130.738 269.312 131.532 269.312 132.471C269.312 133.414 269.465 134.212 269.772 134.863C270.079 135.515 270.499 136.009 271.033 136.346C271.567 136.683 272.175 136.852 272.857 136.852C273.49 136.852 274.041 136.723 274.511 136.465C274.984 136.208 275.35 135.844 275.607 135.374C275.869 134.901 275.999 134.344 275.999 133.704L276.454 133.789H273.124V132.34H277.698V133.664C277.698 134.642 277.49 135.49 277.073 136.21C276.66 136.926 276.088 137.479 275.357 137.869C274.63 138.259 273.797 138.454 272.857 138.454C271.804 138.454 270.88 138.212 270.085 137.727C269.293 137.242 268.675 136.554 268.232 135.664C267.789 134.77 267.567 133.71 267.567 132.482C267.567 131.554 267.696 130.721 267.954 129.982C268.211 129.244 268.573 128.617 269.039 128.102C269.509 127.583 270.06 127.187 270.692 126.914C271.329 126.638 272.024 126.499 272.778 126.499C273.406 126.499 273.992 126.592 274.533 126.778C275.079 126.963 275.564 127.227 275.988 127.568C276.416 127.909 276.77 128.314 277.05 128.784C277.331 129.249 277.52 129.767 277.619 130.335H275.817ZM285.178 126.659L288.417 136.136H288.548L291.786 126.659H293.684L289.496 138.295H287.468L283.281 126.659H285.178ZM295.16 138.295H293.296L297.484 126.659H299.512L303.7 138.295H301.836L298.546 128.772H298.455L295.16 138.295ZM295.472 133.738H301.518V135.215H295.472V133.738ZM297.836 125.494L296.08 122.874H297.87L299.194 125.494H297.836ZM129.241 150.659V162.295H127.627L121.712 153.761H121.604V162.295H119.849V150.659H121.474L127.394 159.204H127.502V150.659H129.241ZM139.677 154.335C139.567 153.99 139.419 153.681 139.234 153.409C139.052 153.132 138.834 152.897 138.58 152.704C138.326 152.507 138.037 152.357 137.711 152.255C137.389 152.153 137.035 152.102 136.648 152.102C135.993 152.102 135.402 152.27 134.876 152.607C134.349 152.945 133.933 153.439 133.626 154.09C133.323 154.738 133.171 155.532 133.171 156.471C133.171 157.414 133.325 158.212 133.631 158.863C133.938 159.515 134.359 160.009 134.893 160.346C135.427 160.683 136.035 160.852 136.717 160.852C137.349 160.852 137.9 160.723 138.37 160.465C138.844 160.208 139.209 159.844 139.467 159.374C139.728 158.901 139.859 158.344 139.859 157.704L140.313 157.789H136.984V156.34H141.558V157.664C141.558 158.642 141.349 159.49 140.933 160.21C140.52 160.926 139.948 161.479 139.217 161.869C138.489 162.259 137.656 162.454 136.717 162.454C135.664 162.454 134.739 162.212 133.944 161.727C133.152 161.242 132.535 160.554 132.092 159.664C131.648 158.77 131.427 157.71 131.427 156.482C131.427 155.554 131.556 154.721 131.813 153.982C132.071 153.244 132.433 152.617 132.898 152.102C133.368 151.583 133.919 151.187 134.552 150.914C135.188 150.638 135.883 150.499 136.637 150.499C137.266 150.499 137.851 150.592 138.393 150.778C138.938 150.963 139.423 151.227 139.847 151.568C140.275 151.909 140.629 152.314 140.91 152.784C141.19 153.249 141.379 153.767 141.478 154.335H139.677ZM153.894 156.477C153.894 157.719 153.667 158.787 153.212 159.681C152.758 160.571 152.135 161.257 151.343 161.738C150.555 162.215 149.659 162.454 148.656 162.454C147.648 162.454 146.748 162.215 145.957 161.738C145.169 161.257 144.548 160.57 144.093 159.676C143.638 158.782 143.411 157.715 143.411 156.477C143.411 155.234 143.638 154.168 144.093 153.278C144.548 152.384 145.169 151.698 145.957 151.221C146.748 150.74 147.648 150.499 148.656 150.499C149.659 150.499 150.555 150.74 151.343 151.221C152.135 151.698 152.758 152.384 153.212 153.278C153.667 154.168 153.894 155.234 153.894 156.477ZM152.156 156.477C152.156 155.53 152.002 154.732 151.695 154.085C151.392 153.433 150.976 152.941 150.445 152.607C149.919 152.27 149.322 152.102 148.656 152.102C147.985 152.102 147.387 152.27 146.86 152.607C146.334 152.941 145.917 153.433 145.61 154.085C145.307 154.732 145.156 155.53 145.156 156.477C145.156 157.424 145.307 158.223 145.61 158.874C145.917 159.522 146.334 160.015 146.86 160.352C147.387 160.685 147.985 160.852 148.656 160.852C149.322 160.852 149.919 160.685 150.445 160.352C150.976 160.015 151.392 159.522 151.695 158.874C152.002 158.223 152.156 157.424 152.156 156.477ZM156.488 162.295H154.624L158.812 150.659H160.84L165.028 162.295H163.164L159.874 152.772H159.783L156.488 162.295ZM156.8 157.738H162.846V159.215H156.8V157.738ZM159.164 149.494L157.408 146.874H159.198L160.522 149.494H159.164ZM168.464 150.659V162.295H166.708V150.659H168.464ZM184.647 150.659V162.295H183.033L177.119 153.761H177.011V162.295H175.255V150.659H176.88L182.8 159.204H182.908V150.659H184.647ZM197.691 150.051H199.094C199.094 150.804 198.985 151.441 198.765 151.96C198.549 152.479 198.193 152.874 197.697 153.147C197.204 153.416 196.543 153.551 195.714 153.551V152.38C196.259 152.38 196.674 152.291 196.958 152.113C197.246 151.931 197.439 151.668 197.538 151.323C197.64 150.975 197.691 150.551 197.691 150.051ZM194.691 150.659H196.452V158.312C196.452 159.126 196.261 159.848 195.879 160.477C195.496 161.102 194.958 161.594 194.265 161.954C193.572 162.31 192.759 162.488 191.827 162.488C190.899 162.488 190.089 162.31 189.396 161.954C188.702 161.594 188.165 161.102 187.782 160.477C187.399 159.848 187.208 159.126 187.208 158.312V150.659H188.964V158.17C188.964 158.696 189.079 159.164 189.31 159.573C189.545 159.982 189.877 160.304 190.305 160.539C190.733 160.77 191.24 160.886 191.827 160.886C192.418 160.886 192.928 160.77 193.356 160.539C193.788 160.304 194.117 159.982 194.344 159.573C194.576 159.164 194.691 158.696 194.691 158.17V150.659ZM210.271 149.909H211.68C211.68 150.958 211.43 151.77 210.93 152.346C210.43 152.922 209.67 153.21 208.651 153.21V152.051C209.227 152.051 209.64 151.863 209.89 151.488C210.144 151.109 210.271 150.583 210.271 149.909ZM210.691 156.477C210.691 157.719 210.464 158.787 210.009 159.681C209.555 160.571 208.932 161.257 208.14 161.738C207.352 162.215 206.456 162.454 205.452 162.454C204.445 162.454 203.545 162.215 202.754 161.738C201.966 161.257 201.344 160.57 200.89 159.676C200.435 158.782 200.208 157.715 200.208 156.477C200.208 155.234 200.435 154.168 200.89 153.278C201.344 152.384 201.966 151.698 202.754 151.221C203.545 150.74 204.445 150.499 205.452 150.499C206.456 150.499 207.352 150.74 208.14 151.221C208.932 151.698 209.555 152.384 210.009 153.278C210.464 154.168 210.691 155.234 210.691 156.477ZM208.952 156.477C208.952 155.53 208.799 154.732 208.492 154.085C208.189 153.433 207.772 152.941 207.242 152.607C206.716 152.27 206.119 152.102 205.452 152.102C204.782 152.102 204.183 152.27 203.657 152.607C203.13 152.941 202.714 153.433 202.407 154.085C202.104 154.732 201.952 155.53 201.952 156.477C201.952 157.424 202.104 158.223 202.407 158.874C202.714 159.522 203.13 160.015 203.657 160.352C204.183 160.685 204.782 160.852 205.452 160.852C206.119 160.852 206.716 160.685 207.242 160.352C207.772 160.015 208.189 159.522 208.492 158.874C208.799 158.223 208.952 157.424 208.952 156.477ZM204.748 149.494L206.077 146.874H207.867L206.106 149.494H204.748ZM222.842 154.443H221.069C221.001 154.064 220.874 153.731 220.688 153.443C220.503 153.155 220.275 152.91 220.006 152.71C219.737 152.509 219.436 152.357 219.103 152.255C218.773 152.153 218.423 152.102 218.052 152.102C217.381 152.102 216.781 152.27 216.251 152.607C215.724 152.945 215.308 153.439 215.001 154.09C214.698 154.742 214.546 155.537 214.546 156.477C214.546 157.424 214.698 158.223 215.001 158.874C215.308 159.526 215.726 160.018 216.256 160.352C216.787 160.685 217.383 160.852 218.046 160.852C218.414 160.852 218.762 160.802 219.092 160.704C219.425 160.602 219.726 160.452 219.995 160.255C220.264 160.058 220.491 159.818 220.677 159.534C220.866 159.246 220.997 158.916 221.069 158.545L222.842 158.551C222.747 159.123 222.563 159.649 222.29 160.13C222.022 160.607 221.675 161.02 221.251 161.369C220.83 161.713 220.349 161.981 219.808 162.17C219.266 162.359 218.675 162.454 218.035 162.454C217.027 162.454 216.129 162.215 215.342 161.738C214.554 161.257 213.933 160.57 213.478 159.676C213.027 158.782 212.802 157.715 212.802 156.477C212.802 155.234 213.029 154.168 213.484 153.278C213.938 152.384 214.559 151.698 215.347 151.221C216.135 150.74 217.031 150.499 218.035 150.499C218.652 150.499 219.228 150.588 219.762 150.767C220.3 150.941 220.783 151.198 221.211 151.539C221.639 151.876 221.993 152.289 222.273 152.778C222.554 153.263 222.743 153.818 222.842 154.443ZM225.925 162.403C225.615 162.403 225.348 162.293 225.124 162.073C224.901 161.85 224.789 161.581 224.789 161.267C224.789 160.956 224.901 160.691 225.124 160.471C225.348 160.248 225.615 160.136 225.925 160.136C226.236 160.136 226.503 160.248 226.727 160.471C226.95 160.691 227.062 160.956 227.062 161.267C227.062 161.475 227.009 161.666 226.903 161.84C226.8 162.011 226.664 162.147 226.494 162.249C226.323 162.352 226.134 162.403 225.925 162.403Z" fill="#24408E"/>
<defs>
<linearGradient id="paint0_linear_2040_861" x1="0" y1="96.2949" x2="351" y2="96.2949" gradientUnits="userSpaceOnUse">
<stop stop-color="#00A93C"/>
<stop offset="1" stop-color="#24CBFF"/>
</linearGradient>
</defs>
</svg>
