<svg width="100%" viewBox="0 0 1296 112" fill="none" xmlns="http://www.w3.org/2000/svg">
<rect x="0.5" y="0.5" width="1295" height="111" rx="19.5" stroke="url(#paint0_linear_4_61768)"/>
<path d="M145.419 37.1847H143.203C143.118 36.7112 142.959 36.2945 142.727 35.9347C142.495 35.5748 142.211 35.2694 141.875 35.0185C141.539 34.7675 141.163 34.5781 140.746 34.4503C140.334 34.3224 139.896 34.2585 139.432 34.2585C138.594 34.2585 137.843 34.4692 137.181 34.8906C136.522 35.312 136.002 35.9299 135.618 36.7443C135.239 37.5587 135.05 38.553 135.05 39.7273C135.05 40.911 135.239 41.91 135.618 42.7244C136.002 43.5388 136.525 44.1544 137.188 44.571C137.851 44.9877 138.596 45.196 139.425 45.196C139.884 45.196 140.32 45.1345 140.732 45.0114C141.148 44.8835 141.525 44.6965 141.861 44.4503C142.197 44.2041 142.481 43.9034 142.713 43.5483C142.95 43.1884 143.113 42.7765 143.203 42.3125L145.419 42.3196C145.301 43.0346 145.071 43.6927 144.73 44.294C144.394 44.8906 143.961 45.4067 143.431 45.8423C142.905 46.2732 142.304 46.607 141.627 46.8438C140.95 47.0805 140.211 47.1989 139.411 47.1989C138.151 47.1989 137.029 46.9006 136.044 46.304C135.059 45.7027 134.283 44.8433 133.715 43.7259C133.151 42.6084 132.869 41.2756 132.869 39.7273C132.869 38.1742 133.154 36.8414 133.722 35.7287C134.29 34.6113 135.066 33.7543 136.051 33.1577C137.036 32.5563 138.156 32.2557 139.411 32.2557C140.182 32.2557 140.902 32.367 141.57 32.5895C142.242 32.8073 142.846 33.1293 143.381 33.5554C143.916 33.9768 144.359 34.4929 144.709 35.1037C145.059 35.7098 145.296 36.4034 145.419 37.1847ZM148.045 47V32.4545H150.24V38.7756H157.491V32.4545H159.693V47H157.491V40.6577H150.24V47H148.045ZM172.243 32.4545H174.444V42.0213C174.444 43.0393 174.205 43.9413 173.727 44.7273C173.249 45.5085 172.577 46.1241 171.71 46.5739C170.844 47.0189 169.828 47.2415 168.663 47.2415C167.503 47.2415 166.49 47.0189 165.623 46.5739C164.757 46.1241 164.085 45.5085 163.606 44.7273C163.128 43.9413 162.889 43.0393 162.889 42.0213V32.4545H165.084V41.8438C165.084 42.5019 165.228 43.0866 165.517 43.598C165.81 44.1094 166.225 44.5118 166.76 44.8054C167.295 45.0942 167.929 45.2386 168.663 45.2386C169.402 45.2386 170.039 45.0942 170.574 44.8054C171.113 44.5118 171.525 44.1094 171.809 43.598C172.098 43.0866 172.243 42.5019 172.243 41.8438V32.4545ZM167.79 30.9986L169.452 27.7244H171.689L169.487 30.9986H167.79ZM189.375 32.4545V47H187.358L179.965 36.3324H179.83V47H177.635V32.4545H179.666L187.067 43.1364H187.202V32.4545H189.375ZM202.42 37.0497C202.283 36.6188 202.098 36.233 201.866 35.892C201.639 35.5464 201.367 35.2528 201.05 35.0114C200.732 34.7652 200.37 34.5781 199.963 34.4503C199.56 34.3224 199.118 34.2585 198.635 34.2585C197.816 34.2585 197.077 34.4692 196.419 34.8906C195.761 35.312 195.24 35.9299 194.856 36.7443C194.478 37.554 194.288 38.5459 194.288 39.7202C194.288 40.8991 194.48 41.8958 194.863 42.7102C195.247 43.5246 195.773 44.1425 196.44 44.5639C197.108 44.9853 197.868 45.196 198.72 45.196C199.511 45.196 200.2 45.035 200.787 44.7131C201.379 44.3911 201.836 43.9366 202.157 43.3494C202.484 42.7576 202.648 42.0616 202.648 41.2614L203.216 41.3679H199.054V39.5568H204.771V41.2116C204.771 42.4332 204.511 43.4938 203.99 44.3935C203.474 45.2884 202.759 45.9796 201.845 46.4673C200.936 46.955 199.894 47.1989 198.72 47.1989C197.404 47.1989 196.248 46.8958 195.254 46.2898C194.265 45.6837 193.493 44.8243 192.939 43.7116C192.385 42.5942 192.108 41.2685 192.108 39.7344C192.108 38.5743 192.269 37.5327 192.591 36.6094C192.913 35.6861 193.365 34.9025 193.947 34.2585C194.534 33.6098 195.223 33.1151 196.014 32.7741C196.809 32.4285 197.678 32.2557 198.621 32.2557C199.407 32.2557 200.138 32.3717 200.815 32.6037C201.497 32.8357 202.103 33.1648 202.633 33.5909C203.168 34.017 203.611 34.5237 203.961 35.1108C204.312 35.6932 204.549 36.3395 204.672 37.0497H202.42ZM212.133 34.3438V32.4545H223.39V34.3438H218.851V47H216.664V34.3438H212.133ZM237.887 39.7273C237.887 41.2803 237.603 42.6155 237.035 43.733C236.467 44.8456 235.688 45.7027 234.698 46.304C233.713 46.9006 232.594 47.1989 231.339 47.1989C230.079 47.1989 228.955 46.9006 227.965 46.304C226.981 45.7027 226.204 44.8433 225.636 43.7259C225.068 42.6084 224.784 41.2756 224.784 39.7273C224.784 38.1742 225.068 36.8414 225.636 35.7287C226.204 34.6113 226.981 33.7543 227.965 33.1577C228.955 32.5563 230.079 32.2557 231.339 32.2557C232.594 32.2557 233.713 32.5563 234.698 33.1577C235.688 33.7543 236.467 34.6113 237.035 35.7287C237.603 36.8414 237.887 38.1742 237.887 39.7273ZM235.714 39.7273C235.714 38.5436 235.522 37.5469 235.139 36.7372C234.76 35.9228 234.239 35.3073 233.576 34.8906C232.918 34.4692 232.172 34.2585 231.339 34.2585C230.501 34.2585 229.753 34.4692 229.095 34.8906C228.436 35.3073 227.916 35.9228 227.532 36.7372C227.153 37.5469 226.964 38.5436 226.964 39.7273C226.964 40.911 227.153 41.91 227.532 42.7244C227.916 43.5341 228.436 44.1496 229.095 44.571C229.753 44.9877 230.501 45.196 231.339 45.196C232.172 45.196 232.918 44.9877 233.576 44.571C234.239 44.1496 234.76 43.5341 235.139 42.7244C235.522 41.91 235.714 40.911 235.714 39.7273ZM232.795 31.1477L231.339 29.2443L229.876 31.1477H227.958V31.0412L230.451 28.0298H232.22L234.72 31.0412V31.1477H232.795ZM242.818 32.4545V47H240.623V32.4545H242.818ZM250.59 34.3438V32.4545H261.847V34.3438H257.308V47H255.121V34.3438H250.59ZM266.529 32.4545V47H264.334V32.4545H266.529ZM269.725 47V32.4545H278.844V34.3438H271.92V38.7756H278.368V40.6577H271.92V45.1108H278.93V47H269.725ZM270.606 31.1477L273.489 28.6832H275.073L277.964 31.1477H275.876L274.299 29.7415L272.708 31.1477H270.606ZM277.204 29.571L278.688 26.9787H280.854L278.759 29.571H277.204ZM281.776 47V32.4545H286.96C288.092 32.4545 289.03 32.6605 289.773 33.0724C290.516 33.4844 291.073 34.0478 291.442 34.7628C291.811 35.473 291.996 36.2732 291.996 37.1634C291.996 38.0582 291.809 38.8632 291.435 39.5781C291.066 40.2884 290.507 40.8518 289.759 41.2685C289.015 41.6804 288.08 41.8864 286.953 41.8864H283.388V40.0256H286.754C287.469 40.0256 288.049 39.9025 288.494 39.6562C288.94 39.4053 289.266 39.0644 289.475 38.6335C289.683 38.2027 289.787 37.7126 289.787 37.1634C289.787 36.6141 289.683 36.1264 289.475 35.7003C289.266 35.2741 288.937 34.9403 288.487 34.6989C288.042 34.4574 287.455 34.3366 286.726 34.3366H283.97V47H281.776ZM299.144 34.3438V32.4545H310.401V34.3438H305.863V47H303.676V34.3438H299.144ZM322.243 32.4545H324.444V42.0213C324.444 43.0393 324.205 43.9413 323.727 44.7273C323.249 45.5085 322.577 46.1241 321.71 46.5739C320.844 47.0189 319.828 47.2415 318.663 47.2415C317.503 47.2415 316.49 47.0189 315.623 46.5739C314.757 46.1241 314.085 45.5085 313.606 44.7273C313.128 43.9413 312.889 43.0393 312.889 42.0213V32.4545H315.084V41.8438C315.084 42.5019 315.228 43.0866 315.517 43.598C315.81 44.1094 316.225 44.5118 316.76 44.8054C317.295 45.0942 317.929 45.2386 318.663 45.2386C319.402 45.2386 320.039 45.0942 320.574 44.8054C321.113 44.5118 321.525 44.1094 321.809 43.598C322.098 43.0866 322.243 42.5019 322.243 41.8438V32.4545ZM318.663 50.9062C318.299 50.9062 317.984 50.7831 317.719 50.5369C317.453 50.2907 317.321 49.9924 317.321 49.642C317.321 49.2917 317.453 48.9934 317.719 48.7472C317.984 48.5009 318.299 48.3778 318.663 48.3778C319.032 48.3778 319.347 48.5009 319.608 48.7472C319.873 48.9934 320.006 49.2917 320.006 49.642C320.006 49.9924 319.873 50.2907 319.608 50.5369C319.347 50.7831 319.032 50.9062 318.663 50.9062ZM339.716 37.1847H337.5C337.415 36.7112 337.256 36.2945 337.024 35.9347C336.792 35.5748 336.508 35.2694 336.172 35.0185C335.836 34.7675 335.459 34.5781 335.043 34.4503C334.631 34.3224 334.193 34.2585 333.729 34.2585C332.891 34.2585 332.14 34.4692 331.477 34.8906C330.819 35.312 330.298 35.9299 329.915 36.7443C329.536 37.5587 329.347 38.553 329.347 39.7273C329.347 40.911 329.536 41.91 329.915 42.7244C330.298 43.5388 330.822 44.1544 331.485 44.571C332.147 44.9877 332.893 45.196 333.722 45.196C334.181 45.196 334.617 45.1345 335.029 45.0114C335.445 44.8835 335.822 44.6965 336.158 44.4503C336.494 44.2041 336.778 43.9034 337.01 43.5483C337.247 43.1884 337.41 42.7765 337.5 42.3125L339.716 42.3196C339.598 43.0346 339.368 43.6927 339.027 44.294C338.691 44.8906 338.258 45.4067 337.727 45.8423C337.202 46.2732 336.601 46.607 335.923 46.8438C335.246 47.0805 334.508 47.1989 333.708 47.1989C332.448 47.1989 331.326 46.9006 330.341 46.304C329.356 45.7027 328.58 44.8433 328.012 43.7259C327.448 42.6084 327.166 41.2756 327.166 39.7273C327.166 38.1742 327.45 36.8414 328.019 35.7287C328.587 34.6113 329.363 33.7543 330.348 33.1577C331.333 32.5563 332.453 32.2557 333.708 32.2557C334.479 32.2557 335.199 32.367 335.867 32.5895C336.539 32.8073 337.143 33.1293 337.678 33.5554C338.213 33.9768 338.655 34.4929 339.006 35.1037C339.356 35.7098 339.593 36.4034 339.716 37.1847ZM352.344 47H347.635V32.4545H352.493C353.918 32.4545 355.142 32.7457 356.165 33.3281C357.188 33.9058 357.971 34.7367 358.516 35.821C359.065 36.9006 359.34 38.1955 359.34 39.706C359.34 41.2211 359.063 42.5232 358.509 43.6122C357.959 44.7012 357.164 45.5393 356.122 46.1264C355.081 46.7088 353.821 47 352.344 47ZM349.83 45.0824H352.223C353.331 45.0824 354.252 44.8741 354.986 44.4574C355.72 44.036 356.269 43.4276 356.634 42.6321C356.998 41.8319 357.181 40.8565 357.181 39.706C357.181 38.5649 356.998 37.5966 356.634 36.8011C356.274 36.0057 355.736 35.402 355.021 34.9901C354.307 34.5781 353.419 34.3722 352.358 34.3722H349.83V45.0824ZM371.422 32.4545H373.624V42.0213C373.624 43.0393 373.385 43.9413 372.907 44.7273C372.429 45.5085 371.756 46.1241 370.89 46.5739C370.023 47.0189 369.008 47.2415 367.843 47.2415C366.683 47.2415 365.67 47.0189 364.803 46.5739C363.937 46.1241 363.264 45.5085 362.786 44.7273C362.308 43.9413 362.069 43.0393 362.069 42.0213V32.4545H364.263V41.8438C364.263 42.5019 364.408 43.0866 364.697 43.598C364.99 44.1094 365.404 44.5118 365.939 44.8054C366.474 45.0942 367.109 45.2386 367.843 45.2386C368.581 45.2386 369.218 45.0942 369.753 44.8054C370.293 44.5118 370.705 44.1094 370.989 43.598C371.278 43.0866 371.422 42.5019 371.422 41.8438V32.4545ZM375.693 32.4545H378.186L381.985 39.0668H382.142L385.941 32.4545H388.434L383.157 41.2898V47H380.97V41.2898L375.693 32.4545ZM395.082 34.3438V32.4545H406.339V34.3438H401.801V47H399.613V34.3438H395.082ZM408.827 47V32.4545H414.011C415.138 32.4545 416.073 32.6487 416.817 33.0369C417.565 33.4252 418.123 33.9626 418.493 34.6491C418.862 35.331 419.047 36.1193 419.047 37.0142C419.047 37.9044 418.86 38.688 418.486 39.3651C418.116 40.0374 417.558 40.5606 416.809 40.9347C416.066 41.3087 415.131 41.4957 414.004 41.4957H410.077V39.6065H413.805C414.515 39.6065 415.093 39.5047 415.538 39.3011C415.988 39.0975 416.317 38.8016 416.525 38.4134C416.734 38.0251 416.838 37.5587 416.838 37.0142C416.838 36.465 416.731 35.9891 416.518 35.5866C416.31 35.1842 415.981 34.8764 415.531 34.6634C415.086 34.4455 414.501 34.3366 413.777 34.3366H411.021V47H408.827ZM416.007 40.4375L419.601 47H417.101L413.578 40.4375H416.007ZM423.912 32.4545V47H421.717V32.4545H423.912ZM421.994 30.9986L419.8 27.7244H422.037L423.692 30.9986H421.994ZM433.672 32.4545L437.72 44.3011H437.884L441.932 32.4545H444.304L439.07 47H436.534L431.3 32.4545H433.672ZM448.599 32.4545V47H446.405V32.4545H448.599ZM447.498 50.7642C447.134 50.7642 446.819 50.6411 446.554 50.3949C446.289 50.1487 446.156 49.8504 446.156 49.5C446.156 49.1496 446.289 48.8513 446.554 48.6051C446.819 48.3589 447.134 48.2358 447.498 48.2358C447.868 48.2358 448.183 48.3589 448.443 48.6051C448.708 48.8513 448.841 49.1496 448.841 49.5C448.841 49.8504 448.708 50.1487 448.443 50.3949C448.183 50.6411 447.868 50.7642 447.498 50.7642ZM456.371 34.3438V32.4545H467.628V34.3438H463.09V47H460.902V34.3438H456.371ZM470.116 47V32.4545H472.31V38.7756H479.562V32.4545H481.763V47H479.562V40.6577H472.31V47H470.116ZM484.959 47V32.4545H494.079V34.3438H487.154V38.7756H493.603V40.6577H487.154V45.1108H494.164V47H484.959ZM485.84 31.1477L488.724 28.6832H490.307L493.198 31.1477H491.11L489.533 29.7415L487.942 31.1477H485.84ZM492.438 29.571L493.922 26.9787H496.089L493.993 29.571H492.438ZM507.012 47H502.303V32.4545H507.161C508.586 32.4545 509.81 32.7457 510.833 33.3281C511.856 33.9058 512.639 34.7367 513.184 35.821C513.733 36.9006 514.008 38.1955 514.008 39.706C514.008 41.2211 513.731 42.5232 513.177 43.6122C512.627 44.7012 511.832 45.5393 510.79 46.1264C509.749 46.7088 508.489 47 507.012 47ZM504.498 45.0824H506.891C507.999 45.0824 508.92 44.8741 509.654 44.4574C510.388 44.036 510.937 43.4276 511.302 42.6321C511.666 41.8319 511.849 40.8565 511.849 39.706C511.849 38.5649 511.666 37.5966 511.302 36.8011C510.942 36.0057 510.404 35.402 509.689 34.9901C508.974 34.5781 508.087 34.3722 507.026 34.3722H504.498V45.0824ZM517.243 47H514.913L520.148 32.4545H522.683L527.917 47H525.588L521.476 35.0966H521.362L517.243 47ZM517.633 41.304H525.19V43.1506H517.633V41.304ZM522.122 29.1307L525.069 31.4531H523.194L521.398 30.0469L519.608 31.4531H517.726L520.673 29.1307H522.122ZM523.088 26.6591L523.969 26.9361C523.969 27.3196 523.824 27.6723 523.535 27.9943C523.247 28.3116 522.882 28.4702 522.442 28.4702C522.205 28.4702 521.999 28.437 521.824 28.3707C521.653 28.3045 521.497 28.2263 521.355 28.1364C521.218 28.0464 521.076 27.9683 520.929 27.902C520.782 27.8357 520.614 27.8026 520.425 27.8026C520.24 27.8026 520.072 27.8759 519.92 28.0227C519.773 28.1695 519.7 28.3305 519.7 28.5057L518.848 28.2784C518.848 27.8996 518.988 27.5469 519.267 27.2202C519.551 26.8935 519.913 26.7301 520.354 26.7301C520.548 26.7301 520.728 26.7633 520.893 26.8295C521.064 26.8911 521.227 26.9645 521.383 27.0497C521.54 27.1302 521.698 27.2036 521.859 27.2699C522.02 27.3362 522.191 27.3693 522.371 27.3693C522.555 27.3693 522.721 27.2959 522.868 27.1491C523.015 26.9976 523.088 26.8343 523.088 26.6591ZM541.758 32.4545V47H539.741L532.347 36.3324H532.213V47H530.018V32.4545H532.049L539.45 43.1364H539.585V32.4545H541.758ZM554.961 47H551.367V45.0824H554.84C555.948 45.0824 556.869 44.8741 557.603 44.4574C558.337 44.036 558.886 43.4276 559.251 42.6321C559.615 41.8319 559.798 40.8565 559.798 39.706C559.798 38.5649 559.615 37.5966 559.251 36.8011C558.891 36.0057 558.354 35.402 557.639 34.9901C556.924 34.5781 556.036 34.3722 554.975 34.3722H551.289V32.4545H555.11C556.535 32.4545 557.759 32.7457 558.782 33.3281C559.805 33.9058 560.588 34.7367 561.133 35.821C561.682 36.9006 561.957 38.1955 561.957 39.706C561.957 41.2211 561.68 42.5232 561.126 43.6122C560.577 44.7012 559.781 45.5393 558.74 46.1264C557.698 46.7088 556.438 47 554.961 47ZM552.447 32.4545V47H550.252V32.4545H552.447ZM548.079 40.1747V38.7116H554.606V40.1747H548.079ZM565.915 47H563.585L568.819 32.4545H571.355L576.589 47H574.26L570.148 35.0966H570.034L565.915 47ZM566.305 41.304H573.862V43.1506H566.305V41.304ZM570.865 28.7188L573.763 31.1832H571.667L570.091 29.777L568.507 31.1832H566.419L569.281 28.7188H570.865ZM565.694 27L567.157 29.6065H565.631L563.514 27H565.694ZM588.044 32.4545H590.245V42.0213C590.245 43.0393 590.006 43.9413 589.528 44.7273C589.05 45.5085 588.377 46.1241 587.511 46.5739C586.644 47.0189 585.629 47.2415 584.464 47.2415C583.304 47.2415 582.291 47.0189 581.424 46.5739C580.558 46.1241 579.885 45.5085 579.407 44.7273C578.929 43.9413 578.69 43.0393 578.69 42.0213V32.4545H580.884V41.8438C580.884 42.5019 581.029 43.0866 581.318 43.598C581.611 44.1094 582.026 44.5118 582.561 44.8054C583.096 45.0942 583.73 45.2386 584.464 45.2386C585.203 45.2386 585.839 45.0942 586.374 44.8054C586.914 44.5118 587.326 44.1094 587.61 43.598C587.899 43.0866 588.044 42.5019 588.044 41.8438V32.4545ZM598.012 34.3438V32.4545H609.269V34.3438H604.73V47H602.543V34.3438H598.012ZM611.756 47V32.4545H613.951V38.7756H621.202V32.4545H623.404V47H621.202V40.6577H613.951V47H611.756ZM628.795 32.4545V47H626.6V32.4545H628.795ZM627.694 50.7642C627.329 50.7642 627.014 50.6411 626.749 50.3949C626.484 50.1487 626.351 49.8504 626.351 49.5C626.351 49.1496 626.484 48.8513 626.749 48.6051C627.014 48.3589 627.329 48.2358 627.694 48.2358C628.063 48.2358 628.378 48.3589 628.638 48.6051C628.903 48.8513 629.036 49.1496 629.036 49.5C629.036 49.8504 628.903 50.1487 628.638 50.3949C628.378 50.6411 628.063 50.7642 627.694 50.7642ZM636.566 34.3438V32.4545H647.823V34.3438H643.285V47H641.097V34.3438H636.566ZM650.311 47V32.4545H655.496C656.622 32.4545 657.558 32.6487 658.301 33.0369C659.049 33.4252 659.608 33.9626 659.977 34.6491C660.346 35.331 660.531 36.1193 660.531 37.0142C660.531 37.9044 660.344 38.688 659.97 39.3651C659.601 40.0374 659.042 40.5606 658.294 40.9347C657.55 41.3087 656.615 41.4957 655.488 41.4957H651.561V39.6065H655.29C656 39.6065 656.577 39.5047 657.023 39.3011C657.472 39.0975 657.801 38.8016 658.01 38.4134C658.218 38.0251 658.322 37.5587 658.322 37.0142C658.322 36.465 658.216 35.9891 658.003 35.5866C657.794 35.1842 657.465 34.8764 657.015 34.6634C656.57 34.4455 655.986 34.3366 655.261 34.3366H652.506V47H650.311ZM657.491 40.4375L661.085 47H658.585L655.062 40.4375H657.491ZM676.305 31.6946H678.059C678.059 32.6368 677.922 33.4323 677.648 34.081C677.378 34.7296 676.933 35.2244 676.312 35.5653C675.697 35.9015 674.871 36.0696 673.834 36.0696V34.6065C674.515 34.6065 675.034 34.4953 675.389 34.2727C675.749 34.0455 675.99 33.7164 676.113 33.2855C676.241 32.8499 676.305 32.3196 676.305 31.6946ZM672.555 32.4545H674.757V42.0213C674.757 43.0393 674.518 43.9413 674.04 44.7273C673.561 45.5085 672.889 46.1241 672.023 46.5739C671.156 47.0189 670.14 47.2415 668.976 47.2415C667.816 47.2415 666.802 47.0189 665.936 46.5739C665.069 46.1241 664.397 45.5085 663.919 44.7273C663.441 43.9413 663.202 43.0393 663.202 42.0213V32.4545H665.396V41.8438C665.396 42.5019 665.541 43.0866 665.829 43.598C666.123 44.1094 666.537 44.5118 667.072 44.8054C667.607 45.0942 668.242 45.2386 668.976 45.2386C669.714 45.2386 670.351 45.0942 670.886 44.8054C671.426 44.5118 671.838 44.1094 672.122 43.598C672.411 43.0866 672.555 42.5019 672.555 41.8438V32.4545ZM692.03 31.517H693.791C693.791 32.8286 693.479 33.8442 692.854 34.5639C692.229 35.2836 691.279 35.6435 690.006 35.6435V34.1946C690.725 34.1946 691.241 33.9602 691.554 33.4915C691.871 33.018 692.03 32.3598 692.03 31.517ZM692.555 39.7273C692.555 41.2803 692.271 42.6155 691.703 43.733C691.135 44.8456 690.356 45.7027 689.366 46.304C688.381 46.9006 687.262 47.1989 686.007 47.1989C684.747 47.1989 683.623 46.9006 682.633 46.304C681.648 45.7027 680.872 44.8433 680.304 43.7259C679.736 42.6084 679.452 41.2756 679.452 39.7273C679.452 38.1742 679.736 36.8414 680.304 35.7287C680.872 34.6113 681.648 33.7543 682.633 33.1577C683.623 32.5563 684.747 32.2557 686.007 32.2557C687.262 32.2557 688.381 32.5563 689.366 33.1577C690.356 33.7543 691.135 34.6113 691.703 35.7287C692.271 36.8414 692.555 38.1742 692.555 39.7273ZM690.382 39.7273C690.382 38.5436 690.19 37.5469 689.807 36.7372C689.428 35.9228 688.907 35.3073 688.244 34.8906C687.586 34.4692 686.84 34.2585 686.007 34.2585C685.169 34.2585 684.421 34.4692 683.763 34.8906C683.104 35.3073 682.584 35.9228 682.2 36.7372C681.821 37.5469 681.632 38.5436 681.632 39.7273C681.632 40.911 681.821 41.91 682.2 42.7244C682.584 43.5341 683.104 44.1496 683.763 44.571C684.421 44.9877 685.169 45.196 686.007 45.196C686.84 45.196 687.586 44.9877 688.244 44.571C688.907 44.1496 689.428 43.5341 689.807 42.7244C690.19 41.91 690.382 40.911 690.382 39.7273ZM685.176 30.9986L682.981 27.7244H685.219L686.873 30.9986H685.176ZM707.403 32.4545V47H705.385L697.992 36.3324H697.857V47H695.662V32.4545H697.694L705.094 43.1364H705.229V32.4545H707.403ZM720.448 37.0497C720.31 36.6188 720.126 36.233 719.894 35.892C719.666 35.5464 719.394 35.2528 719.077 35.0114C718.76 34.7652 718.397 34.5781 717.99 34.4503C717.588 34.3224 717.145 34.2585 716.662 34.2585C715.843 34.2585 715.104 34.4692 714.446 34.8906C713.788 35.312 713.267 35.9299 712.884 36.7443C712.505 37.554 712.316 38.5459 712.316 39.7202C712.316 40.8991 712.507 41.8958 712.891 42.7102C713.274 43.5246 713.8 44.1425 714.468 44.5639C715.135 44.9853 715.895 45.196 716.747 45.196C717.538 45.196 718.227 45.035 718.814 44.7131C719.406 44.3911 719.863 43.9366 720.185 43.3494C720.512 42.7576 720.675 42.0616 720.675 41.2614L721.243 41.3679H717.081V39.5568H722.798V41.2116C722.798 42.4332 722.538 43.4938 722.017 44.3935C721.501 45.2884 720.786 45.9796 719.872 46.4673C718.963 46.955 717.922 47.1989 716.747 47.1989C715.431 47.1989 714.276 46.8958 713.281 46.2898C712.292 45.6837 711.52 44.8243 710.966 43.7116C710.412 42.5942 710.135 41.2685 710.135 39.7344C710.135 38.5743 710.296 37.5327 710.618 36.6094C710.94 35.6861 711.392 34.9025 711.975 34.2585C712.562 33.6098 713.251 33.1151 714.041 32.7741C714.837 32.4285 715.706 32.2557 716.648 32.2557C717.434 32.2557 718.165 32.3717 718.843 32.6037C719.524 32.8357 720.13 33.1648 720.661 33.5909C721.196 34.017 721.638 34.5237 721.989 35.1108C722.339 35.6932 722.576 36.3395 722.699 37.0497H720.448ZM732.149 32.4545L736.197 44.3011H736.36L740.409 32.4545H742.781L737.546 47H735.011L729.776 32.4545H732.149ZM756.268 31.517H758.029C758.029 32.8286 757.717 33.8442 757.092 34.5639C756.467 35.2836 755.517 35.6435 754.244 35.6435V34.1946C754.963 34.1946 755.48 33.9602 755.792 33.4915C756.109 33.018 756.268 32.3598 756.268 31.517ZM756.794 39.7273C756.794 41.2803 756.509 42.6155 755.941 43.733C755.373 44.8456 754.594 45.7027 753.605 46.304C752.62 46.9006 751.5 47.1989 750.245 47.1989C748.986 47.1989 747.861 46.9006 746.872 46.304C745.887 45.7027 745.11 44.8433 744.542 43.7259C743.974 42.6084 743.69 41.2756 743.69 39.7273C743.69 38.1742 743.974 36.8414 744.542 35.7287C745.11 34.6113 745.887 33.7543 746.872 33.1577C747.861 32.5563 748.986 32.2557 750.245 32.2557C751.5 32.2557 752.62 32.5563 753.605 33.1577C754.594 33.7543 755.373 34.6113 755.941 35.7287C756.509 36.8414 756.794 38.1742 756.794 39.7273ZM754.62 39.7273C754.62 38.5436 754.428 37.5469 754.045 36.7372C753.666 35.9228 753.145 35.3073 752.482 34.8906C751.824 34.4692 751.079 34.2585 750.245 34.2585C749.407 34.2585 748.659 34.4692 748.001 34.8906C747.343 35.3073 746.822 35.9228 746.438 36.7372C746.06 37.5469 745.87 38.5436 745.87 39.7273C745.87 40.911 746.06 41.91 746.438 42.7244C746.822 43.5341 747.343 44.1496 748.001 44.571C748.659 44.9877 749.407 45.196 750.245 45.196C751.079 45.196 751.824 44.9877 752.482 44.571C753.145 44.1496 753.666 43.5341 754.045 42.7244C754.428 41.91 754.62 40.911 754.62 39.7273ZM749.365 30.9986L751.026 27.7244H753.264L751.062 30.9986H749.365ZM762.095 32.4545V47H759.901V32.4545H762.095ZM769.867 34.3438V32.4545H781.124V34.3438H776.586V47H774.398V34.3438H769.867ZM796.715 31.6946H798.47C798.47 32.6368 798.332 33.4323 798.058 34.081C797.788 34.7296 797.343 35.2244 796.722 35.5653C796.107 35.9015 795.281 36.0696 794.244 36.0696V34.6065C794.926 34.6065 795.444 34.4953 795.799 34.2727C796.159 34.0455 796.401 33.7164 796.524 33.2855C796.651 32.8499 796.715 32.3196 796.715 31.6946ZM792.965 32.4545H795.167V42.0213C795.167 43.0393 794.928 43.9413 794.45 44.7273C793.972 45.5085 793.299 46.1241 792.433 46.5739C791.566 47.0189 790.551 47.2415 789.386 47.2415C788.226 47.2415 787.213 47.0189 786.346 46.5739C785.48 46.1241 784.807 45.5085 784.329 44.7273C783.851 43.9413 783.612 43.0393 783.612 42.0213V32.4545H785.806V41.8438C785.806 42.5019 785.951 43.0866 786.24 43.598C786.533 44.1094 786.947 44.5118 787.482 44.8054C788.017 45.0942 788.652 45.2386 789.386 45.2386C790.124 45.2386 790.761 45.0942 791.296 44.8054C791.836 44.5118 792.248 44.1094 792.532 43.598C792.821 43.0866 792.965 42.5019 792.965 41.8438V32.4545ZM818.329 37.1847H816.113C816.028 36.7112 815.87 36.2945 815.638 35.9347C815.406 35.5748 815.122 35.2694 814.785 35.0185C814.449 34.7675 814.073 34.5781 813.656 34.4503C813.244 34.3224 812.806 34.2585 812.342 34.2585C811.504 34.2585 810.754 34.4692 810.091 34.8906C809.433 35.312 808.912 35.9299 808.528 36.7443C808.149 37.5587 807.96 38.553 807.96 39.7273C807.96 40.911 808.149 41.91 808.528 42.7244C808.912 43.5388 809.435 44.1544 810.098 44.571C810.761 44.9877 811.506 45.196 812.335 45.196C812.794 45.196 813.23 45.1345 813.642 45.0114C814.059 44.8835 814.435 44.6965 814.771 44.4503C815.107 44.2041 815.391 43.9034 815.623 43.5483C815.86 43.1884 816.023 42.7765 816.113 42.3125L818.329 42.3196C818.211 43.0346 817.981 43.6927 817.64 44.294C817.304 44.8906 816.871 45.4067 816.341 45.8423C815.815 46.2732 815.214 46.607 814.537 46.8438C813.86 47.0805 813.121 47.1989 812.321 47.1989C811.061 47.1989 809.939 46.9006 808.954 46.304C807.97 45.7027 807.193 44.8433 806.625 43.7259C806.061 42.6084 805.78 41.2756 805.78 39.7273C805.78 38.1742 806.064 36.8414 806.632 35.7287C807.2 34.6113 807.977 33.7543 808.961 33.1577C809.946 32.5563 811.066 32.2557 812.321 32.2557C813.093 32.2557 813.812 32.367 814.48 32.5895C815.152 32.8073 815.756 33.1293 816.291 33.5554C816.826 33.9768 817.269 34.4929 817.619 35.1037C817.97 35.7098 818.206 36.4034 818.329 37.1847ZM822.086 47H819.757L824.991 32.4545H827.527L832.761 47H830.432L826.319 35.0966H826.206L822.086 47ZM822.477 41.304H830.034V43.1506H822.477V41.304ZM825.382 30.9986L827.044 27.7244H829.281L827.079 30.9986H825.382ZM846.259 37.1847H844.043C843.958 36.7112 843.799 36.2945 843.567 35.9347C843.335 35.5748 843.051 35.2694 842.715 35.0185C842.379 34.7675 842.002 34.5781 841.586 34.4503C841.174 34.3224 840.736 34.2585 840.272 34.2585C839.434 34.2585 838.683 34.4692 838.02 34.8906C837.362 35.312 836.841 35.9299 836.458 36.7443C836.079 37.5587 835.89 38.553 835.89 39.7273C835.89 40.911 836.079 41.91 836.458 42.7244C836.841 43.5388 837.365 44.1544 838.028 44.571C838.69 44.9877 839.436 45.196 840.265 45.196C840.724 45.196 841.16 45.1345 841.572 45.0114C841.988 44.8835 842.365 44.6965 842.701 44.4503C843.037 44.2041 843.321 43.9034 843.553 43.5483C843.79 43.1884 843.953 42.7765 844.043 42.3125L846.259 42.3196C846.141 43.0346 845.911 43.6927 845.57 44.294C845.234 44.8906 844.801 45.4067 844.27 45.8423C843.745 46.2732 843.144 46.607 842.466 46.8438C841.789 47.0805 841.051 47.1989 840.251 47.1989C838.991 47.1989 837.869 46.9006 836.884 46.304C835.899 45.7027 835.123 44.8433 834.555 43.7259C833.991 42.6084 833.709 41.2756 833.709 39.7273C833.709 38.1742 833.993 36.8414 834.562 35.7287C835.13 34.6113 835.906 33.7543 836.891 33.1577C837.876 32.5563 838.996 32.2557 840.251 32.2557C841.022 32.2557 841.742 32.367 842.41 32.5895C843.082 32.8073 843.686 33.1293 844.221 33.5554C844.756 33.9768 845.198 34.4929 845.549 35.1037C845.899 35.7098 846.136 36.4034 846.259 37.1847ZM848.885 47V32.4545H851.08V38.7756H858.331V32.4545H860.533V47H858.331V40.6577H851.08V47H848.885ZM880.762 32.4545V47H878.745L871.351 36.3324H871.216V47H869.022V32.4545H871.053L878.454 43.1364H878.589V32.4545H880.762ZM883.963 47V32.4545H886.158V38.7756H893.409V32.4545H895.611V47H893.409V40.6577H886.158V47H883.963ZM900.036 47H897.706L902.941 32.4545H905.476L910.71 47H908.381L904.269 35.0966H904.155L900.036 47ZM900.426 41.304H907.983V43.1506H900.426V41.304ZM903.381 30.9986L901.186 27.7244H903.423L905.078 30.9986H903.381ZM926.037 36.2756C925.961 35.6032 925.649 35.0824 925.1 34.7131C924.55 34.339 923.859 34.152 923.026 34.152C922.429 34.152 921.913 34.2467 921.477 34.4361C921.042 34.6207 920.703 34.8764 920.462 35.2031C920.225 35.5251 920.107 35.892 920.107 36.304C920.107 36.6496 920.187 36.9479 920.348 37.1989C920.514 37.4498 920.729 37.6605 920.994 37.831C921.264 37.9967 921.553 38.1364 921.861 38.25C922.169 38.3589 922.465 38.4489 922.749 38.5199L924.169 38.8892C924.633 39.0028 925.109 39.1567 925.597 39.3509C926.084 39.545 926.537 39.8007 926.953 40.1179C927.37 40.4351 927.706 40.8281 927.962 41.2969C928.222 41.7656 928.352 42.3267 928.352 42.9801C928.352 43.804 928.139 44.5355 927.713 45.1747C927.292 45.8139 926.679 46.3182 925.874 46.6875C925.074 47.0568 924.105 47.2415 922.969 47.2415C921.88 47.2415 920.938 47.0687 920.142 46.723C919.347 46.3774 918.724 45.8873 918.274 45.2528C917.825 44.6136 917.576 43.8561 917.529 42.9801H919.73C919.773 43.5057 919.943 43.9437 920.242 44.294C920.545 44.6397 920.931 44.8977 921.399 45.0682C921.873 45.2339 922.391 45.3168 922.955 45.3168C923.575 45.3168 924.127 45.2197 924.61 45.0256C925.097 44.8267 925.481 44.5521 925.76 44.2017C926.039 43.8466 926.179 43.4323 926.179 42.9588C926.179 42.5279 926.056 42.1752 925.81 41.9006C925.568 41.6259 925.239 41.3987 924.823 41.2188C924.411 41.0388 923.944 40.8802 923.423 40.7429L921.705 40.2741C920.54 39.9569 919.617 39.4905 918.935 38.875C918.258 38.2595 917.919 37.4451 917.919 36.4318C917.919 35.5937 918.146 34.8622 918.601 34.2372C919.056 33.6122 919.671 33.1269 920.448 32.7812C921.224 32.4309 922.1 32.2557 923.075 32.2557C924.06 32.2557 924.929 32.4285 925.682 32.7741C926.44 33.1198 927.036 33.5956 927.472 34.2017C927.907 34.803 928.135 35.4943 928.154 36.2756H926.037ZM932.086 47H929.757L934.991 32.4545H937.527L942.761 47H940.432L936.319 35.0966H936.206L932.086 47ZM932.477 41.304H940.034V43.1506H932.477V41.304ZM937.129 30.9489H935.453L935.396 29.5C935.898 29.4763 936.253 29.41 936.461 29.3011C936.67 29.1875 936.772 29.0241 936.767 28.8111C936.772 28.5554 936.627 28.3731 936.334 28.2642C936.045 28.1553 935.692 28.1009 935.275 28.1009L935.339 26.929C936.414 26.929 937.229 27.0994 937.782 27.4403C938.341 27.7812 938.618 28.2405 938.613 28.8182C938.618 29.2869 938.464 29.6326 938.152 29.8551C937.844 30.0729 937.503 30.2102 937.129 30.267V30.9489ZM956.602 32.4545V47H954.585L947.191 36.3324H947.056V47H944.862V32.4545H946.893L954.294 43.1364H954.428V32.4545H956.602ZM966.623 32.4545L970.103 38.1435H970.217L973.697 32.4545H976.24L971.708 39.7273L976.268 47H973.711L970.217 41.3892H970.103L966.609 47H964.052L968.69 39.7273L964.08 32.4545H966.623ZM987.77 32.4545H989.972V42.0213C989.972 43.0393 989.733 43.9413 989.254 44.7273C988.776 45.5085 988.104 46.1241 987.237 46.5739C986.371 47.0189 985.355 47.2415 984.191 47.2415C983.03 47.2415 982.017 47.0189 981.151 46.5739C980.284 46.1241 979.612 45.5085 979.134 44.7273C978.655 43.9413 978.416 43.0393 978.416 42.0213V32.4545H980.611V41.8438C980.611 42.5019 980.755 43.0866 981.044 43.598C981.338 44.1094 981.752 44.5118 982.287 44.8054C982.822 45.0942 983.457 45.2386 984.191 45.2386C984.929 45.2386 985.566 45.0942 986.101 44.8054C986.641 44.5118 987.053 44.1094 987.337 43.598C987.626 43.0866 987.77 42.5019 987.77 41.8438V32.4545ZM994.391 47H992.062L997.296 32.4545H999.831L1005.07 47H1002.74L998.624 35.0966H998.51L994.391 47ZM994.782 41.304H1002.34V43.1506H994.782V41.304ZM994.888 31.1477L997.772 28.6832H999.356L1002.25 31.1477H1000.16L998.581 29.7415L996.991 31.1477H994.888ZM1001.49 29.571L1002.97 26.9787H1005.14L1003.04 29.571H1001.49ZM1004.73 34.3438V32.4545H1015.99V34.3438H1011.45V47H1009.26V34.3438H1004.73ZM1025.04 32.4545L1029.09 44.3011H1029.25L1033.3 32.4545H1035.67L1030.44 47H1027.9L1022.67 32.4545H1025.04ZM1037.52 47H1035.19L1040.42 32.4545H1042.96L1048.19 47H1045.86L1041.75 35.0966H1041.64L1037.52 47ZM1037.91 41.304H1045.46V43.1506H1037.91V41.304ZM1040.86 30.9986L1038.67 27.7244H1040.9L1042.56 30.9986H1040.86ZM1055.58 47V32.4545H1060.77C1061.9 32.4545 1062.84 32.6605 1063.58 33.0724C1064.32 33.4844 1064.88 34.0478 1065.25 34.7628C1065.62 35.473 1065.8 36.2732 1065.8 37.1634C1065.8 38.0582 1065.62 38.8632 1065.24 39.5781C1064.87 40.2884 1064.32 40.8518 1063.57 41.2685C1062.82 41.6804 1061.89 41.8864 1060.76 41.8864H1057.2V40.0256H1060.56C1061.28 40.0256 1061.86 39.9025 1062.3 39.6562C1062.75 39.4053 1063.07 39.0644 1063.28 38.6335C1063.49 38.2027 1063.6 37.7126 1063.6 37.1634C1063.6 36.6141 1063.49 36.1264 1063.28 35.7003C1063.07 35.2741 1062.75 34.9403 1062.3 34.6989C1061.85 34.4574 1061.26 34.3366 1060.53 34.3366H1057.78V47H1055.58ZM1068.38 47V32.4545H1070.57V38.7756H1077.82V32.4545H1080.03V47H1077.82V40.6577H1070.57V47H1068.38ZM1084.45 47H1082.12L1087.35 32.4545H1089.89L1095.12 47H1092.79L1088.68 35.0966H1088.57L1084.45 47ZM1084.84 41.304H1092.4V43.1506H1084.84V41.304ZM1090.08 31.1477L1088.63 29.2443L1087.16 31.1477H1085.25V31.0412L1087.74 28.0298H1089.51L1092.01 31.0412V31.1477H1090.08ZM1108.97 32.4545V47H1106.95L1099.55 36.3324H1099.42V47H1097.22V32.4545H1099.26L1106.66 43.1364H1106.79V32.4545H1108.97ZM1117.46 47V32.4545H1122.64C1123.78 32.4545 1124.71 32.6605 1125.46 33.0724C1126.2 33.4844 1126.76 34.0478 1127.13 34.7628C1127.49 35.473 1127.68 36.2732 1127.68 37.1634C1127.68 38.0582 1127.49 38.8632 1127.12 39.5781C1126.75 40.2884 1126.19 40.8518 1125.44 41.2685C1124.7 41.6804 1123.76 41.8864 1122.64 41.8864H1119.07V40.0256H1122.44C1123.15 40.0256 1123.73 39.9025 1124.18 39.6562C1124.62 39.4053 1124.95 39.0644 1125.16 38.6335C1125.37 38.2027 1125.47 37.7126 1125.47 37.1634C1125.47 36.6141 1125.37 36.1264 1125.16 35.7003C1124.95 35.2741 1124.62 34.9403 1124.17 34.6989C1123.73 34.4574 1123.14 34.3366 1122.41 34.3366H1119.65V47H1117.46ZM1130.25 47V32.4545H1132.45V38.7756H1139.7V32.4545H1141.9V47H1139.7V40.6577H1132.45V47H1130.25ZM1157.73 39.7273C1157.73 41.2803 1157.45 42.6155 1156.88 43.733C1156.31 44.8456 1155.53 45.7027 1154.54 46.304C1153.56 46.9006 1152.44 47.1989 1151.18 47.1989C1149.92 47.1989 1148.8 46.9006 1147.81 46.304C1146.82 45.7027 1146.05 44.8433 1145.48 43.7259C1144.91 42.6084 1144.63 41.2756 1144.63 39.7273C1144.63 38.1742 1144.91 36.8414 1145.48 35.7287C1146.05 34.6113 1146.82 33.7543 1147.81 33.1577C1148.8 32.5563 1149.92 32.2557 1151.18 32.2557C1152.44 32.2557 1153.56 32.5563 1154.54 33.1577C1155.53 33.7543 1156.31 34.6113 1156.88 35.7287C1157.45 36.8414 1157.73 38.1742 1157.73 39.7273ZM1155.56 39.7273C1155.56 38.5436 1155.37 37.5469 1154.98 36.7372C1154.6 35.9228 1154.08 35.3073 1153.42 34.8906C1152.76 34.4692 1152.02 34.2585 1151.18 34.2585C1150.34 34.2585 1149.6 34.4692 1148.94 34.8906C1148.28 35.3073 1147.76 35.9228 1147.38 36.7372C1147 37.5469 1146.81 38.5436 1146.81 39.7273C1146.81 40.911 1147 41.91 1147.38 42.7244C1147.76 43.5341 1148.28 44.1496 1148.94 44.571C1149.6 44.9877 1150.34 45.196 1151.18 45.196C1152.02 45.196 1152.76 44.9877 1153.42 44.571C1154.08 44.1496 1154.6 43.5341 1154.98 42.7244C1155.37 41.91 1155.56 40.911 1155.56 39.7273ZM1147.5 31.1477L1150.39 28.6832H1151.97L1154.86 31.1477H1152.77L1151.2 29.7415L1149.61 31.1477H1147.5ZM1154.1 29.571L1155.59 26.9787H1157.75L1155.66 29.571H1154.1ZM1162.66 32.4545V47H1160.47V32.4545H1162.66ZM186.864 79V64.4545H189.058V71.4006H189.236L195.337 64.4545H198.099L192.233 71.0028L198.121 79H195.479L190.777 72.5014L189.058 74.4759V79H186.864ZM200.145 79V64.4545H202.339V70.7756H209.591V64.4545H211.793V79H209.591V72.6577H202.339V79H200.145ZM216.217 79H213.888L219.122 64.4545H221.658L226.892 79H224.562L220.45 67.0966H220.337L216.217 79ZM216.608 73.304H224.165V75.1506H216.608V73.304ZM219.513 62.9986L221.175 59.7244H223.412L221.21 62.9986H219.513ZM240.733 64.4545V79H238.716L231.322 68.3324H231.187V79H228.993V64.4545H231.024L238.424 75.1364H238.559V64.4545H240.733ZM253.778 69.0497C253.64 68.6188 253.456 68.233 253.224 67.892C252.996 67.5464 252.724 67.2528 252.407 67.0114C252.09 66.7652 251.728 66.5781 251.32 66.4503C250.918 66.3224 250.475 66.2585 249.992 66.2585C249.173 66.2585 248.434 66.4692 247.776 66.8906C247.118 67.312 246.597 67.9299 246.214 68.7443C245.835 69.554 245.646 70.5459 245.646 71.7202C245.646 72.8991 245.837 73.8958 246.221 74.7102C246.604 75.5246 247.13 76.1425 247.798 76.5639C248.465 76.9853 249.225 77.196 250.077 77.196C250.868 77.196 251.557 77.035 252.144 76.7131C252.736 76.3911 253.193 75.9366 253.515 75.3494C253.842 74.7576 254.005 74.0616 254.005 73.2614L254.573 73.3679H250.411V71.5568H256.129V73.2116C256.129 74.4332 255.868 75.4938 255.347 76.3935C254.831 77.2884 254.116 77.9796 253.202 78.4673C252.293 78.955 251.252 79.1989 250.077 79.1989C248.761 79.1989 247.606 78.8958 246.612 78.2898C245.622 77.6837 244.85 76.8243 244.296 75.7116C243.742 74.5942 243.465 73.2685 243.465 71.7344C243.465 70.5743 243.626 69.5327 243.948 68.6094C244.27 67.6861 244.722 66.9025 245.305 66.2585C245.892 65.6098 246.581 65.1151 247.371 64.7741C248.167 64.4285 249.036 64.2557 249.978 64.2557C250.764 64.2557 251.496 64.3717 252.173 64.6037C252.854 64.8357 253.46 65.1648 253.991 65.5909C254.526 66.017 254.969 66.5237 255.319 67.1108C255.669 67.6932 255.906 68.3395 256.029 69.0497H253.778ZM272.141 68.2756C272.065 67.6032 271.752 67.0824 271.203 66.7131C270.654 66.339 269.963 66.152 269.129 66.152C268.533 66.152 268.017 66.2467 267.581 66.4361C267.145 66.6207 266.807 66.8764 266.565 67.2031C266.329 67.5251 266.21 67.892 266.21 68.304C266.21 68.6496 266.291 68.9479 266.452 69.1989C266.617 69.4498 266.833 69.6605 267.098 69.831C267.368 69.9967 267.657 70.1364 267.964 70.25C268.272 70.3589 268.568 70.4489 268.852 70.5199L270.273 70.8892C270.737 71.0028 271.213 71.1567 271.7 71.3509C272.188 71.545 272.64 71.8007 273.057 72.1179C273.473 72.4351 273.81 72.8281 274.065 73.2969C274.326 73.7656 274.456 74.3267 274.456 74.9801C274.456 75.804 274.243 76.5355 273.817 77.1747C273.395 77.8139 272.782 78.3182 271.977 78.6875C271.177 79.0568 270.209 79.2415 269.072 79.2415C267.983 79.2415 267.041 79.0687 266.246 78.723C265.45 78.3774 264.828 77.8873 264.378 77.2528C263.928 76.6136 263.679 75.8561 263.632 74.9801H265.834C265.876 75.5057 266.047 75.9437 266.345 76.294C266.648 76.6397 267.034 76.8977 267.503 77.0682C267.976 77.2339 268.495 77.3168 269.058 77.3168C269.679 77.3168 270.23 77.2197 270.713 77.0256C271.201 76.8267 271.584 76.5521 271.864 76.2017C272.143 75.8466 272.283 75.4323 272.283 74.9588C272.283 74.5279 272.16 74.1752 271.913 73.9006C271.672 73.6259 271.343 73.3987 270.926 73.2188C270.514 73.0388 270.048 72.8802 269.527 72.7429L267.808 72.2741C266.643 71.9569 265.72 71.4905 265.038 70.875C264.361 70.2595 264.023 69.4451 264.023 68.4318C264.023 67.5937 264.25 66.8622 264.705 66.2372C265.159 65.6122 265.775 65.1269 266.551 64.7812C267.328 64.4309 268.204 64.2557 269.179 64.2557C270.164 64.2557 271.033 64.4285 271.786 64.7741C272.543 65.1198 273.14 65.5956 273.575 66.2017C274.011 66.803 274.238 67.4943 274.257 68.2756H272.141ZM279.273 64.4545V79H277.078V64.4545H279.273ZM294.209 64.4545V79H292.192L284.799 68.3324H284.664V79H282.469V64.4545H284.5L291.901 75.1364H292.036V64.4545H294.209ZM297.411 79V64.4545H299.605V70.7756H306.857V64.4545H309.058V79H306.857V72.6577H299.605V79H297.411ZM329.628 69.1847H327.412C327.327 68.7112 327.168 68.2945 326.936 67.9347C326.704 67.5748 326.42 67.2694 326.084 67.0185C325.748 66.7675 325.372 66.5781 324.955 66.4503C324.543 66.3224 324.105 66.2585 323.641 66.2585C322.803 66.2585 322.052 66.4692 321.39 66.8906C320.731 67.312 320.211 67.9299 319.827 68.7443C319.448 69.5587 319.259 70.553 319.259 71.7273C319.259 72.911 319.448 73.91 319.827 74.7244C320.211 75.5388 320.734 76.1544 321.397 76.571C322.06 76.9877 322.805 77.196 323.634 77.196C324.093 77.196 324.529 77.1345 324.941 77.0114C325.357 76.8835 325.734 76.6965 326.07 76.4503C326.406 76.2041 326.69 75.9034 326.922 75.5483C327.159 75.1884 327.322 74.7765 327.412 74.3125L329.628 74.3196C329.51 75.0346 329.28 75.6927 328.939 76.294C328.603 76.8906 328.17 77.4067 327.64 77.8423C327.114 78.2732 326.513 78.607 325.836 78.8438C325.158 79.0805 324.42 79.1989 323.62 79.1989C322.36 79.1989 321.238 78.9006 320.253 78.304C319.268 77.7027 318.492 76.8433 317.924 75.7259C317.36 74.6084 317.078 73.2756 317.078 71.7273C317.078 70.1742 317.363 68.8414 317.931 67.7287C318.499 66.6113 319.275 65.7543 320.26 65.1577C321.245 64.5563 322.365 64.2557 323.62 64.2557C324.391 64.2557 325.111 64.367 325.779 64.5895C326.451 64.8073 327.055 65.1293 327.59 65.5554C328.125 65.9768 328.568 66.4929 328.918 67.1037C329.268 67.7098 329.505 68.4034 329.628 69.1847ZM332.254 79V64.4545H334.449V70.7756H341.7V64.4545H343.902V79H341.7V72.6577H334.449V79H332.254ZM348.327 79H345.997L351.232 64.4545H353.767L359.001 79H356.672L352.56 67.0966H352.446L348.327 79ZM348.717 73.304H356.274V75.1506H348.717V73.304ZM348.824 63.1477L351.707 60.6832H353.291L356.182 63.1477H354.094L352.517 61.7415L350.926 63.1477H348.824ZM355.422 61.571L356.906 58.9787H359.072L356.977 61.571H355.422ZM358.666 66.3438V64.4545H369.923V66.3438H365.385V79H363.197V66.3438H358.666ZM377.703 79V64.4545H379.898V77.1108H386.489V79H377.703ZM402.096 63.6946H403.85C403.85 64.6368 403.713 65.4323 403.439 66.081C403.169 66.7296 402.724 67.2244 402.103 67.5653C401.488 67.9015 400.662 68.0696 399.625 68.0696V66.6065C400.306 66.6065 400.825 66.4953 401.18 66.2727C401.54 66.0455 401.781 65.7164 401.904 65.2855C402.032 64.8499 402.096 64.3196 402.096 63.6946ZM398.346 64.4545H400.548V74.0213C400.548 75.0393 400.309 75.9413 399.831 76.7273C399.352 77.5085 398.68 78.1241 397.814 78.5739C396.947 79.0189 395.931 79.2415 394.767 79.2415C393.607 79.2415 392.593 79.0189 391.727 78.5739C390.86 78.1241 390.188 77.5085 389.71 76.7273C389.232 75.9413 388.993 75.0393 388.993 74.0213V64.4545H391.187V73.8438C391.187 74.5019 391.332 75.0866 391.62 75.598C391.914 76.1094 392.328 76.5118 392.863 76.8054C393.398 77.0942 394.033 77.2386 394.767 77.2386C395.505 77.2386 396.142 77.0942 396.677 76.8054C397.217 76.5118 397.629 76.1094 397.913 75.598C398.202 75.0866 398.346 74.5019 398.346 73.8438V64.4545ZM417.821 63.517H419.582C419.582 64.8286 419.27 65.8442 418.645 66.5639C418.02 67.2836 417.07 67.6435 415.797 67.6435V66.1946C416.516 66.1946 417.032 65.9602 417.345 65.4915C417.662 65.018 417.821 64.3598 417.821 63.517ZM418.346 71.7273C418.346 73.2803 418.062 74.6155 417.494 75.733C416.926 76.8456 416.147 77.7027 415.157 78.304C414.172 78.9006 413.053 79.1989 411.798 79.1989C410.538 79.1989 409.414 78.9006 408.424 78.304C407.44 77.7027 406.663 76.8433 406.095 75.7259C405.527 74.6084 405.243 73.2756 405.243 71.7273C405.243 70.1742 405.527 68.8414 406.095 67.7287C406.663 66.6113 407.44 65.7543 408.424 65.1577C409.414 64.5563 410.538 64.2557 411.798 64.2557C413.053 64.2557 414.172 64.5563 415.157 65.1577C416.147 65.7543 416.926 66.6113 417.494 67.7287C418.062 68.8414 418.346 70.1742 418.346 71.7273ZM416.173 71.7273C416.173 70.5436 415.981 69.5469 415.598 68.7372C415.219 67.9228 414.698 67.3073 414.035 66.8906C413.377 66.4692 412.631 66.2585 411.798 66.2585C410.96 66.2585 410.212 66.4692 409.554 66.8906C408.895 67.3073 408.375 67.9228 407.991 68.7372C407.612 69.5469 407.423 70.5436 407.423 71.7273C407.423 72.911 407.612 73.91 407.991 74.7244C408.375 75.5341 408.895 76.1496 409.554 76.571C410.212 76.9877 410.96 77.196 411.798 77.196C412.631 77.196 413.377 76.9877 414.035 76.571C414.698 76.1496 415.219 75.5341 415.598 74.7244C415.981 73.91 416.173 72.911 416.173 71.7273ZM411.791 82.7642C411.426 82.7642 411.111 82.6411 410.846 82.3949C410.581 82.1487 410.449 81.8504 410.449 81.5C410.449 81.1496 410.581 80.8513 410.846 80.6051C411.111 80.3589 411.426 80.2358 411.791 80.2358C412.16 80.2358 412.475 80.3589 412.735 80.6051C413.001 80.8513 413.133 81.1496 413.133 81.5C413.133 81.8504 413.001 82.1487 412.735 82.3949C412.475 82.6411 412.16 82.7642 411.791 82.7642ZM433.194 64.4545V79H431.176L423.783 68.3324H423.648V79H421.453V64.4545H423.485L430.885 75.1364H431.02V64.4545H433.194ZM446.239 69.0497C446.101 68.6188 445.917 68.233 445.685 67.892C445.457 67.5464 445.185 67.2528 444.868 67.0114C444.551 66.7652 444.188 66.5781 443.781 66.4503C443.379 66.3224 442.936 66.2585 442.453 66.2585C441.634 66.2585 440.895 66.4692 440.237 66.8906C439.579 67.312 439.058 67.9299 438.675 68.7443C438.296 69.554 438.107 70.5459 438.107 71.7202C438.107 72.8991 438.298 73.8958 438.682 74.7102C439.065 75.5246 439.591 76.1425 440.259 76.5639C440.926 76.9853 441.686 77.196 442.538 77.196C443.329 77.196 444.018 77.035 444.605 76.7131C445.197 76.3911 445.654 75.9366 445.976 75.3494C446.303 74.7576 446.466 74.0616 446.466 73.2614L447.034 73.3679H442.872V71.5568H448.589V73.2116C448.589 74.4332 448.329 75.4938 447.808 76.3935C447.292 77.2884 446.577 77.9796 445.663 78.4673C444.754 78.955 443.713 79.1989 442.538 79.1989C441.222 79.1989 440.067 78.8958 439.072 78.2898C438.083 77.6837 437.311 76.8243 436.757 75.7116C436.203 74.5942 435.926 73.2685 435.926 71.7344C435.926 70.5743 436.087 69.5327 436.409 68.6094C436.731 67.6861 437.183 66.9025 437.766 66.2585C438.353 65.6098 439.042 65.1151 439.832 64.7741C440.628 64.4285 441.497 64.2557 442.439 64.2557C443.225 64.2557 443.956 64.3717 444.634 64.6037C445.315 64.8357 445.921 65.1648 446.452 65.5909C446.987 66.017 447.429 66.5237 447.78 67.1108C448.13 67.6932 448.367 68.3395 448.49 69.0497H446.239ZM468.749 69.1847H466.533C466.448 68.7112 466.29 68.2945 466.058 67.9347C465.826 67.5748 465.541 67.2694 465.205 67.0185C464.869 66.7675 464.493 66.5781 464.076 66.4503C463.664 66.3224 463.226 66.2585 462.762 66.2585C461.924 66.2585 461.174 66.4692 460.511 66.8906C459.853 67.312 459.332 67.9299 458.948 68.7443C458.569 69.5587 458.38 70.553 458.38 71.7273C458.38 72.911 458.569 73.91 458.948 74.7244C459.332 75.5388 459.855 76.1544 460.518 76.571C461.181 76.9877 461.926 77.196 462.755 77.196C463.214 77.196 463.65 77.1345 464.062 77.0114C464.478 76.8835 464.855 76.6965 465.191 76.4503C465.527 76.2041 465.811 75.9034 466.043 75.5483C466.28 75.1884 466.443 74.7765 466.533 74.3125L468.749 74.3196C468.631 75.0346 468.401 75.6927 468.06 76.294C467.724 76.8906 467.291 77.4067 466.761 77.8423C466.235 78.2732 465.634 78.607 464.957 78.8438C464.28 79.0805 463.541 79.1989 462.741 79.1989C461.481 79.1989 460.359 78.9006 459.374 78.304C458.389 77.7027 457.613 76.8433 457.045 75.7259C456.481 74.6084 456.2 73.2756 456.2 71.7273C456.2 70.1742 456.484 68.8414 457.052 67.7287C457.62 66.6113 458.397 65.7543 459.381 65.1577C460.366 64.5563 461.486 64.2557 462.741 64.2557C463.513 64.2557 464.232 64.367 464.9 64.5895C465.572 64.8073 466.176 65.1293 466.711 65.5554C467.246 65.9768 467.689 66.4929 468.039 67.1037C468.389 67.7098 468.626 68.4034 468.749 69.1847ZM472.506 79H470.177L475.411 64.4545H477.947L483.181 79H480.852L476.739 67.0966H476.626L472.506 79ZM472.897 73.304H480.454V75.1506H472.897V73.304ZM497.233 71.7273C497.233 73.2803 496.949 74.6155 496.381 75.733C495.813 76.8456 495.034 77.7027 494.044 78.304C493.059 78.9006 491.939 79.1989 490.685 79.1989C489.425 79.1989 488.301 78.9006 487.311 78.304C486.326 77.7027 485.55 76.8433 484.982 75.7259C484.413 74.6084 484.129 73.2756 484.129 71.7273C484.129 70.1742 484.413 68.8414 484.982 67.7287C485.55 66.6113 486.326 65.7543 487.311 65.1577C488.301 64.5563 489.425 64.2557 490.685 64.2557C491.939 64.2557 493.059 64.5563 494.044 65.1577C495.034 65.7543 495.813 66.6113 496.381 67.7287C496.949 68.8414 497.233 70.1742 497.233 71.7273ZM495.06 71.7273C495.06 70.5436 494.868 69.5469 494.484 68.7372C494.106 67.9228 493.585 67.3073 492.922 66.8906C492.264 66.4692 491.518 66.2585 490.685 66.2585C489.847 66.2585 489.098 66.4692 488.44 66.8906C487.782 67.3073 487.261 67.9228 486.878 68.7372C486.499 69.5469 486.31 70.5436 486.31 71.7273C486.31 72.911 486.499 73.91 486.878 74.7244C487.261 75.5341 487.782 76.1496 488.44 76.571C489.098 76.9877 489.847 77.196 490.685 77.196C491.518 77.196 492.264 76.9877 492.922 76.571C493.585 76.1496 494.106 75.5341 494.484 74.7244C494.868 73.91 495.06 72.911 495.06 71.7273ZM504.545 66.3438V64.4545H515.802V66.3438H511.263V79H509.076V66.3438H504.545ZM517.799 79H515.47L520.704 64.4545H523.24L528.474 79H526.145L522.032 67.0966H521.919L517.799 79ZM518.19 73.304H525.747V75.1506H518.19V73.304ZM521.968 82.7642C521.604 82.7642 521.289 82.6411 521.024 82.3949C520.759 82.1487 520.626 81.8504 520.626 81.5C520.626 81.1496 520.759 80.8513 521.024 80.6051C521.289 80.3589 521.604 80.2358 521.968 80.2358C522.338 80.2358 522.653 80.3589 522.913 80.6051C523.178 80.8513 523.311 81.1496 523.311 81.5C523.311 81.8504 523.178 82.1487 522.913 82.3949C522.653 82.6411 522.338 82.7642 521.968 82.7642ZM532.769 64.4545V79H530.575V64.4545H532.769ZM542.529 64.4545L546.578 76.3011H546.741L550.789 64.4545H553.162L547.927 79H545.392L540.157 64.4545H542.529ZM557.457 64.4545V79H555.262V64.4545H557.457ZM560.653 79V64.4545H569.772V66.3438H562.847V70.7756H569.296V72.6577H562.847V77.1108H569.857V79H560.653ZM566.668 63.1477L565.212 61.2443L563.749 63.1477H561.832V63.0412L564.325 60.0298H566.093L568.593 63.0412V63.1477H566.668ZM565.092 82.7642C564.727 82.7642 564.412 82.6411 564.147 82.3949C563.882 82.1487 563.749 81.8504 563.749 81.5C563.749 81.1496 563.882 80.8513 564.147 80.6051C564.412 80.3589 564.727 80.2358 565.092 80.2358C565.461 80.2358 565.776 80.3589 566.036 80.6051C566.301 80.8513 566.434 81.1496 566.434 81.5C566.434 81.8504 566.301 82.1487 566.036 82.3949C565.776 82.6411 565.461 82.7642 565.092 82.7642ZM571.986 66.3438V64.4545H583.243V66.3438H578.705V79H576.517V66.3438H571.986ZM602.764 64.4545V79H600.747L593.353 68.3324H593.218V79H591.024V64.4545H593.055L600.456 75.1364H600.591V64.4545H602.764ZM607.194 79H604.864L610.099 64.4545H612.634L617.869 79H615.539L611.427 67.0966H611.313L607.194 79ZM607.585 73.304H615.141V75.1506H607.585V73.304ZM619.969 64.4545H622.632L627.263 75.7614H627.434L632.064 64.4545H634.728V79H632.64V68.4744H632.505L628.215 78.9787H626.482L622.192 68.4673H622.057V79H619.969V64.4545ZM651.145 68.2756C651.069 67.6032 650.756 67.0824 650.207 66.7131C649.658 66.339 648.967 66.152 648.133 66.152C647.537 66.152 647.02 66.2467 646.585 66.4361C646.149 66.6207 645.811 66.8764 645.569 67.2031C645.333 67.5251 645.214 67.892 645.214 68.304C645.214 68.6496 645.295 68.9479 645.456 69.1989C645.621 69.4498 645.837 69.6605 646.102 69.831C646.372 69.9967 646.661 70.1364 646.968 70.25C647.276 70.3589 647.572 70.4489 647.856 70.5199L649.277 70.8892C649.741 71.0028 650.217 71.1567 650.704 71.3509C651.192 71.545 651.644 71.8007 652.061 72.1179C652.477 72.4351 652.814 72.8281 653.069 73.2969C653.33 73.7656 653.46 74.3267 653.46 74.9801C653.46 75.804 653.247 76.5355 652.821 77.1747C652.399 77.8139 651.786 78.3182 650.981 78.6875C650.181 79.0568 649.213 79.2415 648.076 79.2415C646.987 79.2415 646.045 79.0687 645.25 78.723C644.454 78.3774 643.832 77.8873 643.382 77.2528C642.932 76.6136 642.683 75.8561 642.636 74.9801H644.838C644.88 75.5057 645.051 75.9437 645.349 76.294C645.652 76.6397 646.038 76.8977 646.507 77.0682C646.98 77.2339 647.499 77.3168 648.062 77.3168C648.682 77.3168 649.234 77.2197 649.717 77.0256C650.205 76.8267 650.588 76.5521 650.868 76.2017C651.147 75.8466 651.287 75.4323 651.287 74.9588C651.287 74.5279 651.163 74.1752 650.917 73.9006C650.676 73.6259 650.347 73.3987 649.93 73.2188C649.518 73.0388 649.052 72.8802 648.531 72.7429L646.812 72.2741C645.647 71.9569 644.724 71.4905 644.042 70.875C643.365 70.2595 643.027 69.4451 643.027 68.4318C643.027 67.5937 643.254 66.8622 643.708 66.2372C644.163 65.6122 644.779 65.1269 645.555 64.7812C646.332 64.4309 647.208 64.2557 648.183 64.2557C649.168 64.2557 650.037 64.4285 650.789 64.7741C651.547 65.1198 652.144 65.5956 652.579 66.2017C653.015 66.803 653.242 67.4943 653.261 68.2756H651.145ZM668.717 71.7273C668.717 73.2803 668.433 74.6155 667.865 75.733C667.297 76.8456 666.518 77.7027 665.528 78.304C664.544 78.9006 663.424 79.1989 662.169 79.1989C660.91 79.1989 659.785 78.9006 658.795 78.304C657.811 77.7027 657.034 76.8433 656.466 75.7259C655.898 74.6084 655.614 73.2756 655.614 71.7273C655.614 70.1742 655.898 68.8414 656.466 67.7287C657.034 66.6113 657.811 65.7543 658.795 65.1577C659.785 64.5563 660.91 64.2557 662.169 64.2557C663.424 64.2557 664.544 64.5563 665.528 65.1577C666.518 65.7543 667.297 66.6113 667.865 67.7287C668.433 68.8414 668.717 70.1742 668.717 71.7273ZM666.544 71.7273C666.544 70.5436 666.352 69.5469 665.969 68.7372C665.59 67.9228 665.069 67.3073 664.406 66.8906C663.748 66.4692 663.002 66.2585 662.169 66.2585C661.331 66.2585 660.583 66.4692 659.925 66.8906C659.267 67.3073 658.746 67.9228 658.362 68.7372C657.983 69.5469 657.794 70.5436 657.794 71.7273C657.794 72.911 657.983 73.91 658.362 74.7244C658.746 75.5341 659.267 76.1496 659.925 76.571C660.583 76.9877 661.331 77.196 662.169 77.196C663.002 77.196 663.748 76.9877 664.406 76.571C665.069 76.1496 665.59 75.5341 665.969 74.7244C666.352 73.91 666.544 72.911 666.544 71.7273ZM678.018 64.4545L682.066 76.3011H682.229L686.278 64.4545H688.65L683.415 79H680.88L675.646 64.4545H678.018ZM702.137 63.517H703.898C703.898 64.8286 703.586 65.8442 702.961 66.5639C702.336 67.2836 701.387 67.6435 700.113 67.6435V66.1946C700.833 66.1946 701.349 65.9602 701.661 65.4915C701.978 65.018 702.137 64.3598 702.137 63.517ZM702.663 71.7273C702.663 73.2803 702.379 74.6155 701.81 75.733C701.242 76.8456 700.463 77.7027 699.474 78.304C698.489 78.9006 697.369 79.1989 696.114 79.1989C694.855 79.1989 693.73 78.9006 692.741 78.304C691.756 77.7027 690.979 76.8433 690.411 75.7259C689.843 74.6084 689.559 73.2756 689.559 71.7273C689.559 70.1742 689.843 68.8414 690.411 67.7287C690.979 66.6113 691.756 65.7543 692.741 65.1577C693.73 64.5563 694.855 64.2557 696.114 64.2557C697.369 64.2557 698.489 64.5563 699.474 65.1577C700.463 65.7543 701.242 66.6113 701.81 67.7287C702.379 68.8414 702.663 70.1742 702.663 71.7273ZM700.489 71.7273C700.489 70.5436 700.298 69.5469 699.914 68.7372C699.535 67.9228 699.014 67.3073 698.352 66.8906C697.693 66.4692 696.948 66.2585 696.114 66.2585C695.276 66.2585 694.528 66.4692 693.87 66.8906C693.212 67.3073 692.691 67.9228 692.308 68.7372C691.929 69.5469 691.739 70.5436 691.739 71.7273C691.739 72.911 691.929 73.91 692.308 74.7244C692.691 75.5341 693.212 76.1496 693.87 76.571C694.528 76.9877 695.276 77.196 696.114 77.196C696.948 77.196 697.693 76.9877 698.352 76.571C699.014 76.1496 699.535 75.5341 699.914 74.7244C700.298 73.91 700.489 72.911 700.489 71.7273ZM695.234 62.9986L696.896 59.7244H699.133L696.931 62.9986H695.234ZM707.964 64.4545V79H705.77V64.4545H707.964ZM728.534 69.1847H726.319C726.233 68.7112 726.075 68.2945 725.843 67.9347C725.611 67.5748 725.327 67.2694 724.99 67.0185C724.654 66.7675 724.278 66.5781 723.861 66.4503C723.449 66.3224 723.011 66.2585 722.547 66.2585C721.709 66.2585 720.959 66.4692 720.296 66.8906C719.638 67.312 719.117 67.9299 718.733 68.7443C718.355 69.5587 718.165 70.553 718.165 71.7273C718.165 72.911 718.355 73.91 718.733 74.7244C719.117 75.5388 719.64 76.1544 720.303 76.571C720.966 76.9877 721.712 77.196 722.54 77.196C722.999 77.196 723.435 77.1345 723.847 77.0114C724.264 76.8835 724.64 76.6965 724.976 76.4503C725.312 76.2041 725.596 75.9034 725.828 75.5483C726.065 75.1884 726.229 74.7765 726.319 74.3125L728.534 74.3196C728.416 75.0346 728.186 75.6927 727.846 76.294C727.509 76.8906 727.076 77.4067 726.546 77.8423C726.02 78.2732 725.419 78.607 724.742 78.8438C724.065 79.0805 723.326 79.1989 722.526 79.1989C721.266 79.1989 720.144 78.9006 719.159 78.304C718.175 77.7027 717.398 76.8433 716.83 75.7259C716.266 74.6084 715.985 73.2756 715.985 71.7273C715.985 70.1742 716.269 68.8414 716.837 67.7287C717.405 66.6113 718.182 65.7543 719.167 65.1577C720.151 64.5563 721.271 64.2557 722.526 64.2557C723.298 64.2557 724.017 64.367 724.685 64.5895C725.357 64.8073 725.961 65.1293 726.496 65.5554C727.031 65.9768 727.474 66.4929 727.824 67.1037C728.175 67.7098 728.411 68.4034 728.534 69.1847ZM732.292 79H729.962L735.196 64.4545H737.732L742.966 79H740.637L736.525 67.0966H736.411L732.292 79ZM732.682 73.304H740.239V75.1506H732.682V73.304ZM735.587 62.9986L737.249 59.7244H739.486L737.284 62.9986H735.587ZM756.464 69.1847H754.248C754.163 68.7112 754.004 68.2945 753.772 67.9347C753.54 67.5748 753.256 67.2694 752.92 67.0185C752.584 66.7675 752.208 66.5781 751.791 66.4503C751.379 66.3224 750.941 66.2585 750.477 66.2585C749.639 66.2585 748.888 66.4692 748.225 66.8906C747.567 67.312 747.047 67.9299 746.663 68.7443C746.284 69.5587 746.095 70.553 746.095 71.7273C746.095 72.911 746.284 73.91 746.663 74.7244C747.047 75.5388 747.57 76.1544 748.233 76.571C748.895 76.9877 749.641 77.196 750.47 77.196C750.929 77.196 751.365 77.1345 751.777 77.0114C752.193 76.8835 752.57 76.6965 752.906 76.4503C753.242 76.2041 753.526 75.9034 753.758 75.5483C753.995 75.1884 754.158 74.7765 754.248 74.3125L756.464 74.3196C756.346 75.0346 756.116 75.6927 755.775 76.294C755.439 76.8906 755.006 77.4067 754.475 77.8423C753.95 78.2732 753.349 78.607 752.672 78.8438C751.994 79.0805 751.256 79.1989 750.456 79.1989C749.196 79.1989 748.074 78.9006 747.089 78.304C746.104 77.7027 745.328 76.8433 744.76 75.7259C744.196 74.6084 743.914 73.2756 743.914 71.7273C743.914 70.1742 744.199 68.8414 744.767 67.7287C745.335 66.6113 746.111 65.7543 747.096 65.1577C748.081 64.5563 749.201 64.2557 750.456 64.2557C751.227 64.2557 751.947 64.367 752.615 64.5895C753.287 64.8073 753.891 65.1293 754.426 65.5554C754.961 65.9768 755.404 66.4929 755.754 67.1037C756.104 67.7098 756.341 68.4034 756.464 69.1847ZM776.464 69.1847H774.248C774.163 68.7112 774.004 68.2945 773.772 67.9347C773.54 67.5748 773.256 67.2694 772.92 67.0185C772.584 66.7675 772.208 66.5781 771.791 66.4503C771.379 66.3224 770.941 66.2585 770.477 66.2585C769.639 66.2585 768.888 66.4692 768.225 66.8906C767.567 67.312 767.047 67.9299 766.663 68.7443C766.284 69.5587 766.095 70.553 766.095 71.7273C766.095 72.911 766.284 73.91 766.663 74.7244C767.047 75.5388 767.57 76.1544 768.233 76.571C768.895 76.9877 769.641 77.196 770.47 77.196C770.929 77.196 771.365 77.1345 771.777 77.0114C772.193 76.8835 772.57 76.6965 772.906 76.4503C773.242 76.2041 773.526 75.9034 773.758 75.5483C773.995 75.1884 774.158 74.7765 774.248 74.3125L776.464 74.3196C776.346 75.0346 776.116 75.6927 775.775 76.294C775.439 76.8906 775.006 77.4067 774.475 77.8423C773.95 78.2732 773.349 78.607 772.672 78.8438C771.994 79.0805 771.256 79.1989 770.456 79.1989C769.196 79.1989 768.074 78.9006 767.089 78.304C766.104 77.7027 765.328 76.8433 764.76 75.7259C764.196 74.6084 763.914 73.2756 763.914 71.7273C763.914 70.1742 764.199 68.8414 764.767 67.7287C765.335 66.6113 766.111 65.7543 767.096 65.1577C768.081 64.5563 769.201 64.2557 770.456 64.2557C771.227 64.2557 771.947 64.367 772.615 64.5895C773.287 64.8073 773.891 65.1293 774.426 65.5554C774.961 65.9768 775.404 66.4929 775.754 67.1037C776.104 67.7098 776.341 68.4034 776.464 69.1847ZM791.725 71.7273C791.725 73.2803 791.441 74.6155 790.873 75.733C790.305 76.8456 789.526 77.7027 788.536 78.304C787.551 78.9006 786.432 79.1989 785.177 79.1989C783.917 79.1989 782.793 78.9006 781.803 78.304C780.818 77.7027 780.042 76.8433 779.474 75.7259C778.906 74.6084 778.621 73.2756 778.621 71.7273C778.621 70.1742 778.906 68.8414 779.474 67.7287C780.042 66.6113 780.818 65.7543 781.803 65.1577C782.793 64.5563 783.917 64.2557 785.177 64.2557C786.432 64.2557 787.551 64.5563 788.536 65.1577C789.526 65.7543 790.305 66.6113 790.873 67.7287C791.441 68.8414 791.725 70.1742 791.725 71.7273ZM789.552 71.7273C789.552 70.5436 789.36 69.5469 788.977 68.7372C788.598 67.9228 788.077 67.3073 787.414 66.8906C786.756 66.4692 786.01 66.2585 785.177 66.2585C784.339 66.2585 783.591 66.4692 782.933 66.8906C782.274 67.3073 781.754 67.9228 781.37 68.7372C780.991 69.5469 780.802 70.5436 780.802 71.7273C780.802 72.911 780.991 73.91 781.37 74.7244C781.754 75.5341 782.274 76.1496 782.933 76.571C783.591 76.9877 784.339 77.196 785.177 77.196C786.01 77.196 786.756 76.9877 787.414 76.571C788.077 76.1496 788.598 75.5341 788.977 74.7244C789.36 73.91 789.552 72.911 789.552 71.7273ZM786.633 63.1477L785.177 61.2443L783.714 63.1477H781.796V63.0412L784.289 60.0298H786.058L788.558 63.0412V63.1477H786.633ZM806.201 64.4545V79H804.184L796.791 68.3324H796.656V79H794.461V64.4545H796.493L803.893 75.1364H804.028V64.4545H806.201ZM819.246 69.0497C819.109 68.6188 818.924 68.233 818.692 67.892C818.465 67.5464 818.193 67.2528 817.876 67.0114C817.558 66.7652 817.196 66.5781 816.789 66.4503C816.387 66.3224 815.944 66.2585 815.461 66.2585C814.642 66.2585 813.903 66.4692 813.245 66.8906C812.587 67.312 812.066 67.9299 811.683 68.7443C811.304 69.554 811.114 70.5459 811.114 71.7202C811.114 72.8991 811.306 73.8958 811.69 74.7102C812.073 75.5246 812.599 76.1425 813.266 76.5639C813.934 76.9853 814.694 77.196 815.546 77.196C816.337 77.196 817.026 77.035 817.613 76.7131C818.205 76.3911 818.662 75.9366 818.984 75.3494C819.31 74.7576 819.474 74.0616 819.474 73.2614L820.042 73.3679H815.88V71.5568H821.597V73.2116C821.597 74.4332 821.337 75.4938 820.816 76.3935C820.3 77.2884 819.585 77.9796 818.671 78.4673C817.762 78.955 816.72 79.1989 815.546 79.1989C814.23 79.1989 813.075 78.8958 812.08 78.2898C811.091 77.6837 810.319 76.8243 809.765 75.7116C809.211 74.5942 808.934 73.2685 808.934 71.7344C808.934 70.5743 809.095 69.5327 809.417 68.6094C809.739 67.6861 810.191 66.9025 810.773 66.2585C811.361 65.6098 812.049 65.1151 812.84 64.7741C813.636 64.4285 814.504 64.2557 815.447 64.2557C816.233 64.2557 816.964 64.3717 817.641 64.6037C818.323 64.8357 818.929 65.1648 819.46 65.5909C819.995 66.017 820.437 66.5237 820.788 67.1108C821.138 67.6932 821.375 68.3395 821.498 69.0497H819.246ZM828.959 66.3438V64.4545H840.216V66.3438H835.678V79H833.49V66.3438H828.959ZM841.581 64.4545H844.074L847.874 71.0668H848.03L851.83 64.4545H854.323L849.046 73.2898V79H846.858V73.2898L841.581 64.4545ZM860.971 66.3438V64.4545H872.228V66.3438H867.689V79H865.502V66.3438H860.971ZM874.715 79V64.4545H879.9C881.027 64.4545 881.962 64.6487 882.705 65.0369C883.453 65.4252 884.012 65.9626 884.381 66.6491C884.751 67.331 884.935 68.1193 884.935 69.0142C884.935 69.9044 884.748 70.688 884.374 71.3651C884.005 72.0374 883.446 72.5606 882.698 72.9347C881.955 73.3087 881.02 73.4957 879.893 73.4957H875.965V71.6065H879.694C880.404 71.6065 880.982 71.5047 881.427 71.3011C881.877 71.0975 882.206 70.8016 882.414 70.4134C882.622 70.0251 882.727 69.5587 882.727 69.0142C882.727 68.465 882.62 67.9891 882.407 67.5866C882.199 67.1842 881.87 66.8764 881.42 66.6634C880.975 66.4455 880.39 66.3366 879.665 66.3366H876.91V79H874.715ZM881.896 72.4375L885.489 79H882.989L879.467 72.4375H881.896ZM900.241 71.7273C900.241 73.2803 899.957 74.6155 899.388 75.733C898.82 76.8456 898.041 77.7027 897.052 78.304C896.067 78.9006 894.947 79.1989 893.692 79.1989C892.433 79.1989 891.308 78.9006 890.319 78.304C889.334 77.7027 888.558 76.8433 887.989 75.7259C887.421 74.6084 887.137 73.2756 887.137 71.7273C887.137 70.1742 887.421 68.8414 887.989 67.7287C888.558 66.6113 889.334 65.7543 890.319 65.1577C891.308 64.5563 892.433 64.2557 893.692 64.2557C894.947 64.2557 896.067 64.5563 897.052 65.1577C898.041 65.7543 898.82 66.6113 899.388 67.7287C899.957 68.8414 900.241 70.1742 900.241 71.7273ZM898.067 71.7273C898.067 70.5436 897.876 69.5469 897.492 68.7372C897.113 67.9228 896.593 67.3073 895.93 66.8906C895.272 66.4692 894.526 66.2585 893.692 66.2585C892.854 66.2585 892.106 66.4692 891.448 66.8906C890.79 67.3073 890.269 67.9228 889.886 68.7372C889.507 69.5469 889.317 70.5436 889.317 71.7273C889.317 72.911 889.507 73.91 889.886 74.7244C890.269 75.5341 890.79 76.1496 891.448 76.571C892.106 76.9877 892.854 77.196 893.692 77.196C894.526 77.196 895.272 76.9877 895.93 76.571C896.593 76.1496 897.113 75.5341 897.492 74.7244C897.876 73.91 898.067 72.911 898.067 71.7273ZM914.717 64.4545V79H912.7L905.306 68.3324H905.172V79H902.977V64.4545H905.008L912.409 75.1364H912.544V64.4545H914.717ZM927.762 69.0497C927.625 68.6188 927.44 68.233 927.208 67.892C926.981 67.5464 926.709 67.2528 926.391 67.0114C926.074 66.7652 925.712 66.5781 925.305 66.4503C924.902 66.3224 924.46 66.2585 923.977 66.2585C923.157 66.2585 922.419 66.4692 921.761 66.8906C921.103 67.312 920.582 67.9299 920.198 68.7443C919.819 69.554 919.63 70.5459 919.63 71.7202C919.63 72.8991 919.822 73.8958 920.205 74.7102C920.589 75.5246 921.114 76.1425 921.782 76.5639C922.45 76.9853 923.21 77.196 924.062 77.196C924.853 77.196 925.541 77.035 926.129 76.7131C926.72 76.3911 927.177 75.9366 927.499 75.3494C927.826 74.7576 927.989 74.0616 927.989 73.2614L928.558 73.3679H924.396V71.5568H930.113V73.2116C930.113 74.4332 929.853 75.4938 929.332 76.3935C928.816 77.2884 928.101 77.9796 927.187 78.4673C926.278 78.955 925.236 79.1989 924.062 79.1989C922.746 79.1989 921.59 78.8958 920.596 78.2898C919.606 77.6837 918.835 76.8243 918.281 75.7116C917.727 74.5942 917.45 73.2685 917.45 71.7344C917.45 70.5743 917.611 69.5327 917.933 68.6094C918.254 67.6861 918.707 66.9025 919.289 66.2585C919.876 65.6098 920.565 65.1151 921.356 64.7741C922.151 64.4285 923.02 64.2557 923.962 64.2557C924.748 64.2557 925.48 64.3717 926.157 64.6037C926.839 64.8357 927.445 65.1648 927.975 65.5909C928.51 66.017 928.953 66.5237 929.303 67.1108C929.654 67.6932 929.89 68.3395 930.013 69.0497H927.762ZM939.463 64.4545L943.511 76.3011H943.675L947.723 64.4545H950.095L944.861 79H942.325L937.091 64.4545H939.463ZM951.94 79H949.61L954.845 64.4545H957.38L962.615 79H960.285L956.173 67.0966H956.059L951.94 79ZM952.331 73.304H959.887V75.1506H952.331V73.304ZM955.285 62.9986L953.091 59.7244H955.328L956.983 62.9986H955.285ZM981.748 64.4545V79H979.731L972.338 68.3324H972.203V79H970.008V64.4545H972.039L979.44 75.1364H979.575V64.4545H981.748ZM994.793 69.0497C994.656 68.6188 994.471 68.233 994.239 67.892C994.012 67.5464 993.74 67.2528 993.423 67.0114C993.105 66.7652 992.743 66.5781 992.336 66.4503C991.933 66.3224 991.491 66.2585 991.008 66.2585C990.189 66.2585 989.45 66.4692 988.792 66.8906C988.134 67.312 987.613 67.9299 987.229 68.7443C986.851 69.554 986.661 70.5459 986.661 71.7202C986.661 72.8991 986.853 73.8958 987.237 74.7102C987.62 75.5246 988.146 76.1425 988.813 76.5639C989.481 76.9853 990.241 77.196 991.093 77.196C991.884 77.196 992.573 77.035 993.16 76.7131C993.752 76.3911 994.209 75.9366 994.531 75.3494C994.857 74.7576 995.021 74.0616 995.021 73.2614L995.589 73.3679H991.427V71.5568H997.144V73.2116C997.144 74.4332 996.884 75.4938 996.363 76.3935C995.847 77.2884 995.132 77.9796 994.218 78.4673C993.309 78.955 992.267 79.1989 991.093 79.1989C989.777 79.1989 988.621 78.8958 987.627 78.2898C986.638 77.6837 985.866 76.8243 985.312 75.7116C984.758 74.5942 984.481 73.2685 984.481 71.7344C984.481 70.5743 984.642 69.5327 984.964 68.6094C985.286 67.6861 985.738 66.9025 986.32 66.2585C986.907 65.6098 987.596 65.1151 988.387 64.7741C989.183 64.4285 990.051 64.2557 990.994 64.2557C991.78 64.2557 992.511 64.3717 993.188 64.6037C993.87 64.8357 994.476 65.1648 995.006 65.5909C995.541 66.017 995.984 66.5237 996.335 67.1108C996.685 67.6932 996.922 68.3395 997.045 69.0497H994.793ZM1012.56 71.7273C1012.56 73.2803 1012.28 74.6155 1011.71 75.733C1011.14 76.8456 1010.37 77.7027 1009.38 78.304C1008.39 78.9006 1007.27 79.1989 1006.02 79.1989C1004.76 79.1989 1003.63 78.9006 1002.64 78.304C1001.66 77.7027 1000.88 76.8433 1000.31 75.7259C999.745 74.6084 999.461 73.2756 999.461 71.7273C999.461 70.1742 999.745 68.8414 1000.31 67.7287C1000.88 66.6113 1001.66 65.7543 1002.64 65.1577C1003.63 64.5563 1004.76 64.2557 1006.02 64.2557C1007.27 64.2557 1008.39 64.5563 1009.38 65.1577C1010.37 65.7543 1011.14 66.6113 1011.71 67.7287C1012.28 68.8414 1012.56 70.1742 1012.56 71.7273ZM1010.39 71.7273C1010.39 70.5436 1010.2 69.5469 1009.82 68.7372C1009.44 67.9228 1008.92 67.3073 1008.25 66.8906C1007.6 66.4692 1006.85 66.2585 1006.02 66.2585C1005.18 66.2585 1004.43 66.4692 1003.77 66.8906C1003.11 67.3073 1002.59 67.9228 1002.21 68.7372C1001.83 69.5469 1001.64 70.5436 1001.64 71.7273C1001.64 72.911 1001.83 73.91 1002.21 74.7244C1002.59 75.5341 1003.11 76.1496 1003.77 76.571C1004.43 76.9877 1005.18 77.196 1006.02 77.196C1006.85 77.196 1007.6 76.9877 1008.25 76.571C1008.92 76.1496 1009.44 75.5341 1009.82 74.7244C1010.2 73.91 1010.39 72.911 1010.39 71.7273ZM1015.81 79H1013.48L1018.71 64.4545H1021.25L1026.48 79H1024.15L1020.04 67.0966H1019.93L1015.81 79ZM1016.2 73.304H1023.75V75.1506H1016.2V73.304ZM1019.15 62.9986L1016.96 59.7244H1019.19L1020.85 62.9986H1019.15ZM1030.78 64.4545V79H1028.58V64.4545H1030.78ZM1051.01 64.4545V79H1048.99L1041.6 68.3324H1041.46V79H1039.27V64.4545H1041.3L1048.7 75.1364H1048.83V64.4545H1051.01ZM1067.31 63.6946H1069.07C1069.07 64.6368 1068.93 65.4323 1068.65 66.081C1068.38 66.7296 1067.94 67.2244 1067.32 67.5653C1066.7 67.9015 1065.88 68.0696 1064.84 68.0696V66.6065C1065.52 66.6065 1066.04 66.4953 1066.39 66.2727C1066.75 66.0455 1067 65.7164 1067.12 65.2855C1067.25 64.8499 1067.31 64.3196 1067.31 63.6946ZM1063.56 64.4545H1065.76V74.0213C1065.76 75.0393 1065.52 75.9413 1065.05 76.7273C1064.57 77.5085 1063.89 78.1241 1063.03 78.5739C1062.16 79.0189 1061.15 79.2415 1059.98 79.2415C1058.82 79.2415 1057.81 79.0189 1056.94 78.5739C1056.08 78.1241 1055.4 77.5085 1054.92 76.7273C1054.45 75.9413 1054.21 75.0393 1054.21 74.0213V64.4545H1056.4V73.8438C1056.4 74.5019 1056.55 75.0866 1056.84 75.598C1057.13 76.1094 1057.54 76.5118 1058.08 76.8054C1058.61 77.0942 1059.25 77.2386 1059.98 77.2386C1060.72 77.2386 1061.36 77.0942 1061.89 76.8054C1062.43 76.5118 1062.84 76.1094 1063.13 75.598C1063.42 75.0866 1063.56 74.5019 1063.56 73.8438V64.4545ZM1083.04 63.517H1084.8C1084.8 64.8286 1084.48 65.8442 1083.86 66.5639C1083.23 67.2836 1082.29 67.6435 1081.01 67.6435V66.1946C1081.73 66.1946 1082.25 65.9602 1082.56 65.4915C1082.88 65.018 1083.04 64.3598 1083.04 63.517ZM1083.56 71.7273C1083.56 73.2803 1083.28 74.6155 1082.71 75.733C1082.14 76.8456 1081.36 77.7027 1080.37 78.304C1079.39 78.9006 1078.27 79.1989 1077.01 79.1989C1075.75 79.1989 1074.63 78.9006 1073.64 78.304C1072.65 77.7027 1071.88 76.8433 1071.31 75.7259C1070.74 74.6084 1070.46 73.2756 1070.46 71.7273C1070.46 70.1742 1070.74 68.8414 1071.31 67.7287C1071.88 66.6113 1072.65 65.7543 1073.64 65.1577C1074.63 64.5563 1075.75 64.2557 1077.01 64.2557C1078.27 64.2557 1079.39 64.5563 1080.37 65.1577C1081.36 65.7543 1082.14 66.6113 1082.71 67.7287C1083.28 68.8414 1083.56 70.1742 1083.56 71.7273ZM1081.39 71.7273C1081.39 70.5436 1081.2 69.5469 1080.81 68.7372C1080.43 67.9228 1079.91 67.3073 1079.25 66.8906C1078.59 66.4692 1077.85 66.2585 1077.01 66.2585C1076.17 66.2585 1075.43 66.4692 1074.77 66.8906C1074.11 67.3073 1073.59 67.9228 1073.21 68.7372C1072.83 69.5469 1072.64 70.5436 1072.64 71.7273C1072.64 72.911 1072.83 73.91 1073.21 74.7244C1073.59 75.5341 1074.11 76.1496 1074.77 76.571C1075.43 76.9877 1076.17 77.196 1077.01 77.196C1077.85 77.196 1078.59 76.9877 1079.25 76.571C1079.91 76.1496 1080.43 75.5341 1080.81 74.7244C1081.2 73.91 1081.39 72.911 1081.39 71.7273ZM1076.13 62.9986L1077.79 59.7244H1080.03L1077.83 62.9986H1076.13ZM1098.75 69.1847H1096.53C1096.45 68.7112 1096.29 68.2945 1096.06 67.9347C1095.83 67.5748 1095.54 67.2694 1095.21 67.0185C1094.87 66.7675 1094.49 66.5781 1094.08 66.4503C1093.66 66.3224 1093.23 66.2585 1092.76 66.2585C1091.92 66.2585 1091.17 66.4692 1090.51 66.8906C1089.85 67.312 1089.33 67.9299 1088.95 68.7443C1088.57 69.5587 1088.38 70.553 1088.38 71.7273C1088.38 72.911 1088.57 73.91 1088.95 74.7244C1089.33 75.5388 1089.85 76.1544 1090.52 76.571C1091.18 76.9877 1091.93 77.196 1092.75 77.196C1093.21 77.196 1093.65 77.1345 1094.06 77.0114C1094.48 76.8835 1094.85 76.6965 1095.19 76.4503C1095.53 76.2041 1095.81 75.9034 1096.04 75.5483C1096.28 75.1884 1096.44 74.7765 1096.53 74.3125L1098.75 74.3196C1098.63 75.0346 1098.4 75.6927 1098.06 76.294C1097.72 76.8906 1097.29 77.4067 1096.76 77.8423C1096.24 78.2732 1095.63 78.607 1094.96 78.8438C1094.28 79.0805 1093.54 79.1989 1092.74 79.1989C1091.48 79.1989 1090.36 78.9006 1089.37 78.304C1088.39 77.7027 1087.61 76.8433 1087.04 75.7259C1086.48 74.6084 1086.2 73.2756 1086.2 71.7273C1086.2 70.1742 1086.48 68.8414 1087.05 67.7287C1087.62 66.6113 1088.4 65.7543 1089.38 65.1577C1090.37 64.5563 1091.49 64.2557 1092.74 64.2557C1093.51 64.2557 1094.23 64.367 1094.9 64.5895C1095.57 64.8073 1096.18 65.1293 1096.71 65.5554C1097.25 65.9768 1097.69 66.4929 1098.04 67.1037C1098.39 67.7098 1098.63 68.4034 1098.75 69.1847ZM1102.6 79.1349C1102.22 79.1349 1101.88 78.9976 1101.6 78.723C1101.32 78.4437 1101.18 78.1075 1101.18 77.7145C1101.18 77.3262 1101.32 76.9948 1101.6 76.7202C1101.88 76.4408 1102.22 76.3011 1102.6 76.3011C1102.99 76.3011 1103.33 76.4408 1103.61 76.7202C1103.88 76.9948 1104.02 77.3262 1104.02 77.7145C1104.02 77.9749 1103.96 78.214 1103.83 78.4318C1103.7 78.6449 1103.53 78.8153 1103.31 78.9432C1103.1 79.071 1102.86 79.1349 1102.6 79.1349Z" fill="#24408E"/>
<defs>
<linearGradient id="paint0_linear_4_61768" x1="0" y1="56" x2="1296" y2="56" gradientUnits="userSpaceOnUse">
<stop stop-color="#00A93C"/>
<stop offset="1" stop-color="#24CBFF"/>
</linearGradient>
</defs>
</svg>
