<svg width="100%" viewBox="0 0 1920 1051" fill="none" xmlns="http://www.w3.org/2000/svg">
    <path d="M326.168 697.648H334.28V730H326.168V697.648ZM311.816 694H348.584V701.2H311.816V694ZM352.991 722.416V715.792H377.951V722.416H352.991ZM370.895 694L387.743 730H379.055L364.319 697.312H367.007L352.271 730H343.583L360.431 694H370.895ZM375.887 677.92L380.111 685.024H373.823L368.447 677.92H375.887ZM361.343 683.488H369.983L377.231 691.216H370.319L363.839 686.224H367.487L361.007 691.216H354.143L361.343 683.488ZM442.162 694V730H434.386V696.736L436.45 696.88L421.09 730H412.69L397.33 696.976L399.346 696.784V730H391.618V694H404.146L418.642 726.064H415.138L429.634 694H442.162ZM495.15 724.624L492.318 725.056V694H500.238V730H489.918L466.878 698.944L469.662 698.512V730H461.79V694H472.35L495.15 724.624ZM507.587 694H515.747V730H507.587V694ZM536.387 694H544.547V730H536.387V694ZM512.051 708.208H539.987V715.36H512.051V708.208ZM551.93 694H560.09V730H551.93V694ZM553.466 683.488L560.522 691.216H552.314L544.202 683.488H553.466ZM600.806 724.624L597.974 725.056V694H605.894V730H595.574L572.534 698.944L575.318 698.512V730H567.446V694H578.006L600.806 724.624ZM664.5 715.36C664.148 718.4 663.076 721.088 661.284 723.424C659.524 725.728 657.188 727.52 654.276 728.8C651.396 730.08 648.1 730.72 644.388 730.72C640.292 730.72 636.692 729.936 633.588 728.368C630.516 726.8 628.116 724.624 626.388 721.84C624.66 719.024 623.796 715.744 623.796 712C623.796 708.256 624.66 704.992 626.388 702.208C628.116 699.392 630.516 697.2 633.588 695.632C636.692 694.064 640.292 693.28 644.388 693.28C648.1 693.28 651.396 693.92 654.276 695.2C657.188 696.48 659.524 698.272 661.284 700.576C663.076 702.88 664.148 705.568 664.5 708.64H656.292C655.972 706.944 655.284 705.488 654.228 704.272C653.172 703.024 651.812 702.064 650.148 701.392C648.484 700.72 646.548 700.384 644.34 700.384C641.812 700.384 639.62 700.864 637.764 701.824C635.94 702.752 634.532 704.096 633.54 705.856C632.548 707.584 632.052 709.632 632.052 712C632.052 714.368 632.548 716.432 633.54 718.192C634.532 719.92 635.94 721.264 637.764 722.224C639.62 723.152 641.812 723.616 644.34 723.616C646.548 723.616 648.484 723.296 650.148 722.656C651.812 721.984 653.172 721.04 654.228 719.824C655.284 718.576 655.972 717.088 656.292 715.36H664.5ZM677.501 714.208C677.501 716.128 677.869 717.776 678.605 719.152C679.341 720.528 680.413 721.6 681.821 722.368C683.261 723.104 684.989 723.472 687.005 723.472C689.053 723.472 690.781 723.104 692.189 722.368C693.597 721.6 694.669 720.528 695.405 719.152C696.141 717.776 696.509 716.128 696.509 714.208V694H704.669V714.592C704.669 717.824 703.933 720.656 702.461 723.088C700.989 725.488 698.925 727.36 696.269 728.704C693.613 730.048 690.525 730.72 687.005 730.72C683.485 730.72 680.397 730.048 677.741 728.704C675.117 727.36 673.053 725.488 671.549 723.088C670.077 720.656 669.341 717.824 669.341 714.592V694H677.501V714.208ZM685.133 691.888L683.501 689.152C685.037 688.896 686.125 688.592 686.765 688.24C687.437 687.856 687.773 687.44 687.773 686.992C687.773 686.576 687.517 686.272 687.005 686.08C686.493 685.888 685.741 685.792 684.749 685.792C683.981 685.792 683.277 685.84 682.637 685.936C681.997 686.032 681.325 686.144 680.621 686.272V681.952C681.261 681.76 682.109 681.584 683.165 681.424C684.253 681.264 685.373 681.184 686.525 681.184C689.149 681.184 691.149 681.568 692.525 682.336C693.933 683.072 694.637 684.256 694.637 685.888C694.637 687.36 693.901 688.592 692.429 689.584C690.957 690.576 688.525 691.344 685.133 691.888ZM715.381 722.416V715.792H740.341V722.416H715.381ZM733.285 694L750.133 730H741.445L726.709 697.312H729.397L714.661 730H705.973L722.821 694H733.285ZM353.672 779.36C353.32 782.4 352.248 785.088 350.456 787.424C348.696 789.728 346.36 791.52 343.448 792.8C340.568 794.08 337.272 794.72 333.56 794.72C329.464 794.72 325.864 793.936 322.76 792.368C319.688 790.8 317.288 788.624 315.56 785.84C313.832 783.024 312.968 779.744 312.968 776C312.968 772.256 313.832 768.992 315.56 766.208C317.288 763.392 319.688 761.2 322.76 759.632C325.864 758.064 329.464 757.28 333.56 757.28C337.272 757.28 340.568 757.92 343.448 759.2C346.36 760.48 348.696 762.272 350.456 764.576C352.248 766.88 353.32 769.568 353.672 772.64H345.464C345.144 770.944 344.456 769.488 343.4 768.272C342.344 767.024 340.984 766.064 339.32 765.392C337.656 764.72 335.72 764.384 333.512 764.384C330.984 764.384 328.792 764.864 326.936 765.824C325.112 766.752 323.704 768.096 322.712 769.856C321.72 771.584 321.224 773.632 321.224 776C321.224 778.368 321.72 780.432 322.712 782.192C323.704 783.92 325.112 785.264 326.936 786.224C328.792 787.152 330.984 787.616 333.512 787.616C335.72 787.616 337.656 787.296 339.32 786.656C340.984 785.984 342.344 785.04 343.4 783.824C344.456 782.576 345.144 781.088 345.464 779.36H353.672ZM358.993 758H367.153V794H358.993V758ZM387.793 758H395.953V794H387.793V758ZM363.457 772.208H391.393V779.36H363.457V772.208ZM411.017 778.208C411.017 780.128 411.385 781.776 412.121 783.152C412.857 784.528 413.929 785.6 415.337 786.368C416.777 787.104 418.505 787.472 420.521 787.472C422.569 787.472 424.297 787.104 425.705 786.368C427.113 785.6 428.185 784.528 428.921 783.152C429.657 781.776 430.025 780.128 430.025 778.208V758H438.185V778.592C438.185 781.824 437.449 784.656 435.977 787.088C434.505 789.488 432.441 791.36 429.785 792.704C427.129 794.048 424.041 794.72 420.521 794.72C417.001 794.72 413.913 794.048 411.257 792.704C408.633 791.36 406.569 789.488 405.065 787.088C403.593 784.656 402.857 781.824 402.857 778.592V758H411.017V778.208ZM422.393 747.488H431.657L423.545 755.216H415.337L422.393 747.488ZM478.462 788.624L475.63 789.056V758H483.55V794H473.23L450.19 762.944L452.974 762.512V794H445.102V758H455.662L478.462 788.624ZM527.331 778.4C527.299 780.576 526.867 782.656 526.035 784.64C525.235 786.592 524.083 788.336 522.579 789.872C521.075 791.376 519.219 792.56 517.011 793.424C514.803 794.288 512.243 794.72 509.331 794.72C506.515 794.72 503.875 794.304 501.411 793.472C498.979 792.608 496.835 791.376 494.979 789.776C493.155 788.176 491.731 786.224 490.707 783.92C489.683 781.584 489.171 778.944 489.171 776C489.171 773.056 489.683 770.432 490.707 768.128C491.763 765.792 493.219 763.824 495.075 762.224C496.931 760.624 499.107 759.408 501.603 758.576C504.099 757.712 506.819 757.28 509.763 757.28C513.603 757.28 516.931 757.888 519.747 759.104C522.563 760.288 524.835 761.936 526.563 764.048C528.323 766.16 529.411 768.576 529.827 771.296H521.619C521.299 769.824 520.595 768.56 519.507 767.504C518.451 766.448 517.091 765.632 515.427 765.056C513.795 764.48 511.907 764.192 509.763 764.192C507.235 764.192 505.043 764.656 503.187 765.584C501.363 766.48 499.939 767.808 498.915 769.568C497.923 771.328 497.427 773.472 497.427 776C497.427 778.528 497.955 780.688 499.011 782.48C500.067 784.272 501.571 785.648 503.523 786.608C505.475 787.536 507.779 788 510.435 788C513.027 788 515.299 787.6 517.251 786.8C519.203 785.968 520.739 784.816 521.859 783.344C523.011 781.84 523.667 780.064 523.827 778.016L527.331 778.4ZM511.539 781.712V775.808H530.211V794H524.355L523.251 779.408L524.931 781.712H511.539ZM558.902 761.648H567.014V794H558.902V761.648ZM544.55 758H581.318V765.2H544.55V758ZM603.428 794.72C599.236 794.72 595.556 793.936 592.388 792.368C589.252 790.8 586.804 788.624 585.044 785.84C583.284 783.024 582.404 779.744 582.404 776C582.404 772.256 583.284 768.992 585.044 766.208C586.804 763.392 589.252 761.2 592.388 759.632C595.556 758.064 599.236 757.28 603.428 757.28C607.62 757.28 611.284 758.064 614.42 759.632C617.588 761.2 620.052 763.392 621.812 766.208C623.572 768.992 624.452 772.256 624.452 776C624.452 779.744 623.572 783.024 621.812 785.84C620.052 788.624 617.588 790.8 614.42 792.368C611.284 793.936 607.62 794.72 603.428 794.72ZM603.428 787.472C606.052 787.472 608.308 787.008 610.196 786.08C612.116 785.152 613.588 783.824 614.612 782.096C615.668 780.368 616.196 778.336 616.196 776C616.196 773.664 615.668 771.632 614.612 769.904C613.588 768.176 612.116 766.848 610.196 765.92C608.308 764.992 606.052 764.528 603.428 764.528C600.836 764.528 598.58 764.992 596.66 765.92C594.74 766.848 593.252 768.176 592.196 769.904C591.172 771.632 590.66 773.664 590.66 776C590.66 778.336 591.172 780.368 592.196 782.096C593.252 783.824 594.74 785.152 596.66 786.08C598.58 787.008 600.836 787.472 603.428 787.472ZM599.06 747.488H607.748L614.948 755.216H608.084L601.604 750.224H605.204L598.724 755.216H591.908L599.06 747.488ZM630.071 758H638.231V794H630.071V758Z" fill="#24CBFF"/>
</svg>
