<svg width="100%" viewBox="0 0 375 812" fill="none" xmlns="http://www.w3.org/2000/svg">
<path d="M22.112 559.432H27.52V581H22.112V559.432ZM12.544 557H37.056V561.8H12.544V557ZM39.9938 575.944V571.528H56.6338V575.944H39.9938ZM51.9298 557L63.1618 581H57.3698L47.5458 559.208H49.3378L39.5138 581H33.7218L44.9538 557H51.9298ZM55.2578 546.28L58.0738 551.016H53.8818L50.2978 546.28H55.2578ZM45.5618 549.992H51.3218L56.1538 555.144H51.5458L47.2258 551.816H49.6578L45.3378 555.144H40.7618L45.5618 549.992ZM99.4412 557V581H94.2573V558.824L95.6333 558.92L85.3933 581H79.7933L69.5533 558.984L70.8973 558.856V581H65.7453V557H74.0973L83.7613 578.376H81.4253L91.0893 557H99.4412ZM134.767 577.416L132.879 577.704V557H138.159V581H131.279L115.919 560.296L117.775 560.008V581H112.527V557H119.567L134.767 577.416ZM143.058 557H148.498V581H143.058V557ZM162.258 557H167.698V581H162.258V557ZM146.034 566.472H164.658V571.24H146.034V566.472ZM172.62 557H178.06V581H172.62V557ZM173.644 549.992L178.348 555.144H172.876L167.468 549.992H173.644ZM205.204 577.416L203.316 577.704V557H208.596V581H201.716L186.356 560.296L188.212 560.008V581H182.964V557H190.004L205.204 577.416ZM247.667 571.24C247.432 573.267 246.717 575.059 245.523 576.616C244.349 578.152 242.792 579.347 240.851 580.2C238.931 581.053 236.733 581.48 234.259 581.48C231.528 581.48 229.128 580.957 227.059 579.912C225.011 578.867 223.411 577.416 222.259 575.56C221.107 573.683 220.531 571.496 220.531 569C220.531 566.504 221.107 564.328 222.259 562.472C223.411 560.595 225.011 559.133 227.059 558.088C229.128 557.043 231.528 556.52 234.259 556.52C236.733 556.52 238.931 556.947 240.851 557.8C242.792 558.653 244.349 559.848 245.523 561.384C246.717 562.92 247.432 564.712 247.667 566.76H242.195C241.981 565.629 241.523 564.659 240.819 563.848C240.115 563.016 239.208 562.376 238.099 561.928C236.989 561.48 235.699 561.256 234.227 561.256C232.541 561.256 231.08 561.576 229.843 562.216C228.627 562.835 227.688 563.731 227.027 564.904C226.365 566.056 226.035 567.421 226.035 569C226.035 570.579 226.365 571.955 227.027 573.128C227.688 574.28 228.627 575.176 229.843 575.816C231.08 576.435 232.541 576.744 234.227 576.744C235.699 576.744 236.989 576.531 238.099 576.104C239.208 575.656 240.115 575.027 240.819 574.216C241.523 573.384 241.981 572.392 242.195 571.24H247.667ZM256.334 570.472C256.334 571.752 256.579 572.851 257.07 573.768C257.561 574.685 258.275 575.4 259.214 575.912C260.174 576.403 261.326 576.648 262.67 576.648C264.035 576.648 265.187 576.403 266.126 575.912C267.065 575.4 267.779 574.685 268.27 573.768C268.761 572.851 269.006 571.752 269.006 570.472V557H274.446V570.728C274.446 572.883 273.955 574.771 272.974 576.392C271.993 577.992 270.617 579.24 268.846 580.136C267.075 581.032 265.017 581.48 262.67 581.48C260.323 581.48 258.265 581.032 256.494 580.136C254.745 579.24 253.369 577.992 252.366 576.392C251.385 574.771 250.894 572.883 250.894 570.728V557H256.334V570.472ZM261.422 555.592L260.334 553.768C261.358 553.597 262.083 553.395 262.51 553.16C262.958 552.904 263.182 552.627 263.182 552.328C263.182 552.051 263.011 551.848 262.67 551.72C262.329 551.592 261.827 551.528 261.166 551.528C260.654 551.528 260.185 551.56 259.758 551.624C259.331 551.688 258.883 551.763 258.414 551.848V548.968C258.841 548.84 259.406 548.723 260.11 548.616C260.835 548.509 261.582 548.456 262.35 548.456C264.099 548.456 265.433 548.712 266.35 549.224C267.289 549.715 267.758 550.504 267.758 551.592C267.758 552.573 267.267 553.395 266.286 554.056C265.305 554.717 263.683 555.229 261.422 555.592ZM281.588 575.944V571.528H298.228V575.944H281.588ZM293.524 557L304.756 581H298.964L289.14 559.208H290.932L281.108 581H275.316L286.548 557H293.524ZM40.448 611.24C40.2133 613.267 39.4987 615.059 38.304 616.616C37.1307 618.152 35.5733 619.347 33.632 620.2C31.712 621.053 29.5147 621.48 27.04 621.48C24.3093 621.48 21.9093 620.957 19.84 619.912C17.792 618.867 16.192 617.416 15.04 615.56C13.888 613.683 13.312 611.496 13.312 609C13.312 606.504 13.888 604.328 15.04 602.472C16.192 600.595 17.792 599.133 19.84 598.088C21.9093 597.043 24.3093 596.52 27.04 596.52C29.5147 596.52 31.712 596.947 33.632 597.8C35.5733 598.653 37.1307 599.848 38.304 601.384C39.4987 602.92 40.2133 604.712 40.448 606.76H34.976C34.7627 605.629 34.304 604.659 33.6 603.848C32.896 603.016 31.9893 602.376 30.88 601.928C29.7707 601.48 28.48 601.256 27.008 601.256C25.3227 601.256 23.8613 601.576 22.624 602.216C21.408 602.835 20.4693 603.731 19.808 604.904C19.1467 606.056 18.816 607.421 18.816 609C18.816 610.579 19.1467 611.955 19.808 613.128C20.4693 614.28 21.408 615.176 22.624 615.816C23.8613 616.435 25.3227 616.744 27.008 616.744C28.48 616.744 29.7707 616.531 30.88 616.104C31.9893 615.656 32.896 615.027 33.6 614.216C34.304 613.384 34.7627 612.392 34.976 611.24H40.448ZM43.9953 597H49.4353V621H43.9953V597ZM63.1953 597H68.6353V621H63.1953V597ZM46.9713 606.472H65.5953V611.24H46.9713V606.472ZM78.6778 610.472C78.6778 611.752 78.9231 612.851 79.4138 613.768C79.9044 614.685 80.6191 615.4 81.5578 615.912C82.5178 616.403 83.6698 616.648 85.0138 616.648C86.3791 616.648 87.5311 616.403 88.4698 615.912C89.4084 615.4 90.1231 614.685 90.6138 613.768C91.1044 612.851 91.3498 611.752 91.3498 610.472V597H96.7898V610.728C96.7898 612.883 96.2991 614.771 95.3178 616.392C94.3364 617.992 92.9604 619.24 91.1898 620.136C89.4191 621.032 87.3604 621.48 85.0138 621.48C82.6671 621.48 80.6084 621.032 78.8378 620.136C77.0884 619.24 75.7124 617.992 74.7098 616.392C73.7284 614.771 73.2378 612.883 73.2378 610.728V597H78.6778V610.472ZM86.2618 589.992H92.4378L87.0298 595.144H81.5578L86.2618 589.992ZM123.642 617.416L121.754 617.704V597H127.034V621H120.154L104.794 600.296L106.65 600.008V621H101.402V597H108.442L123.642 617.416ZM156.221 610.6C156.199 612.051 155.911 613.437 155.357 614.76C154.823 616.061 154.055 617.224 153.053 618.248C152.05 619.251 150.813 620.04 149.341 620.616C147.869 621.192 146.162 621.48 144.221 621.48C142.343 621.48 140.583 621.203 138.941 620.648C137.319 620.072 135.89 619.251 134.653 618.184C133.437 617.117 132.487 615.816 131.805 614.28C131.122 612.723 130.781 610.963 130.781 609C130.781 607.037 131.122 605.288 131.805 603.752C132.509 602.195 133.479 600.883 134.717 599.816C135.954 598.749 137.405 597.939 139.069 597.384C140.733 596.808 142.546 596.52 144.509 596.52C147.069 596.52 149.287 596.925 151.165 597.736C153.042 598.525 154.557 599.624 155.709 601.032C156.882 602.44 157.607 604.051 157.885 605.864H152.413C152.199 604.883 151.73 604.04 151.005 603.336C150.301 602.632 149.394 602.088 148.285 601.704C147.197 601.32 145.938 601.128 144.509 601.128C142.823 601.128 141.362 601.437 140.125 602.056C138.909 602.653 137.959 603.539 137.277 604.712C136.615 605.885 136.285 607.315 136.285 609C136.285 610.685 136.637 612.125 137.341 613.32C138.045 614.515 139.047 615.432 140.349 616.072C141.65 616.691 143.186 617 144.957 617C146.685 617 148.199 616.733 149.501 616.2C150.802 615.645 151.826 614.877 152.573 613.896C153.341 612.893 153.778 611.709 153.885 610.344L156.221 610.6ZM145.693 612.808V608.872H158.141V621H154.237L153.501 611.272L154.621 612.808H145.693ZM177.268 599.432H182.676V621H177.268V599.432ZM167.7 597H192.212V601.8H167.7V597ZM206.952 621.48C204.158 621.48 201.704 620.957 199.592 619.912C197.502 618.867 195.87 617.416 194.696 615.56C193.523 613.683 192.936 611.496 192.936 609C192.936 606.504 193.523 604.328 194.696 602.472C195.87 600.595 197.502 599.133 199.592 598.088C201.704 597.043 204.158 596.52 206.952 596.52C209.747 596.52 212.19 597.043 214.28 598.088C216.392 599.133 218.035 600.595 219.208 602.472C220.382 604.328 220.968 606.504 220.968 609C220.968 611.496 220.382 613.683 219.208 615.56C218.035 617.416 216.392 618.867 214.28 619.912C212.19 620.957 209.747 621.48 206.952 621.48ZM206.952 616.648C208.702 616.648 210.206 616.339 211.464 615.72C212.744 615.101 213.726 614.216 214.408 613.064C215.112 611.912 215.464 610.557 215.464 609C215.464 607.443 215.112 606.088 214.408 604.936C213.726 603.784 212.744 602.899 211.464 602.28C210.206 601.661 208.702 601.352 206.952 601.352C205.224 601.352 203.72 601.661 202.44 602.28C201.16 602.899 200.168 603.784 199.464 604.936C198.782 606.088 198.44 607.443 198.44 609C198.44 610.557 198.782 611.912 199.464 613.064C200.168 614.216 201.16 615.101 202.44 615.72C203.72 616.339 205.224 616.648 206.952 616.648ZM204.04 589.992H209.832L214.632 595.144H210.056L205.736 591.816H208.136L203.816 595.144H199.272L204.04 589.992ZM224.714 597H230.154V621H224.714V597Z" fill="#24CBFF"/>
</svg>
