<svg width="100%" viewBox="0 0 1920 1051" fill="none" xmlns="http://www.w3.org/2000/svg">
<path d="M312.912 621.144H316.128C316.224 621.864 316.52 622.496 317.016 623.04C317.528 623.584 318.2 624.008 319.032 624.312C319.864 624.6 320.824 624.744 321.912 624.744C323.528 624.744 324.808 624.496 325.752 624C326.696 623.488 327.168 622.8 327.168 621.936C327.168 621.232 326.896 620.704 326.352 620.352C325.808 620 324.824 619.736 323.4 619.56L319.512 619.056C317.336 618.768 315.752 618.232 314.76 617.448C313.784 616.648 313.296 615.52 313.296 614.064C313.296 612.96 313.624 612.008 314.28 611.208C314.952 610.392 315.896 609.768 317.112 609.336C318.328 608.888 319.752 608.664 321.384 608.664C323 608.664 324.432 608.904 325.68 609.384C326.928 609.864 327.92 610.536 328.656 611.4C329.408 612.248 329.816 613.248 329.88 614.4H326.664C326.584 613.76 326.312 613.208 325.848 612.744C325.4 612.28 324.792 611.92 324.024 611.664C323.256 611.392 322.352 611.256 321.312 611.256C319.84 611.256 318.664 611.496 317.784 611.976C316.904 612.456 316.464 613.112 316.464 613.944C316.464 614.584 316.72 615.08 317.232 615.432C317.76 615.768 318.672 616.024 319.968 616.2L323.904 616.752C325.52 616.976 326.792 617.28 327.72 617.664C328.664 618.032 329.336 618.536 329.736 619.176C330.136 619.8 330.336 620.608 330.336 621.6C330.336 622.752 329.984 623.76 329.28 624.624C328.576 625.488 327.584 626.16 326.304 626.64C325.04 627.104 323.56 627.336 321.864 627.336C320.136 627.336 318.608 627.08 317.28 626.568C315.968 626.04 314.928 625.312 314.16 624.384C313.392 623.456 312.976 622.376 312.912 621.144ZM336.21 619.272C336.21 620.344 336.426 621.272 336.858 622.056C337.29 622.84 337.906 623.448 338.706 623.88C339.522 624.296 340.49 624.504 341.61 624.504C342.746 624.504 343.714 624.296 344.514 623.88C345.314 623.448 345.93 622.84 346.362 622.056C346.794 621.272 347.01 620.344 347.01 619.272V609H350.178V619.392C350.178 620.976 349.818 622.368 349.098 623.568C348.378 624.752 347.378 625.68 346.098 626.352C344.818 627.008 343.322 627.336 341.61 627.336C339.914 627.336 338.418 627.008 337.122 626.352C335.842 625.68 334.842 624.752 334.122 623.568C333.402 622.368 333.042 620.976 333.042 619.392V609H336.21V619.272ZM363.505 609C364.849 609 366.009 609.24 366.985 609.72C367.977 610.2 368.737 610.872 369.265 611.736C369.809 612.584 370.081 613.568 370.081 614.688C370.081 615.808 369.809 616.8 369.265 617.664C368.737 618.512 367.977 619.176 366.985 619.656C366.009 620.136 364.849 620.376 363.505 620.376H355.417V617.64H363.385C364.473 617.64 365.321 617.376 365.929 616.848C366.553 616.32 366.865 615.6 366.865 614.688C366.865 613.776 366.553 613.056 365.929 612.528C365.321 612 364.473 611.736 363.385 611.736H355.729L357.145 610.152V627H353.977V609H363.505ZM382.208 609C383.552 609 384.712 609.24 385.688 609.72C386.68 610.2 387.44 610.872 387.968 611.736C388.512 612.584 388.784 613.568 388.784 614.688C388.784 615.808 388.512 616.8 387.968 617.664C387.44 618.512 386.68 619.176 385.688 619.656C384.712 620.136 383.552 620.376 382.208 620.376H374.12V617.64H382.088C383.176 617.64 384.024 617.376 384.632 616.848C385.256 616.32 385.568 615.6 385.568 614.688C385.568 613.776 385.256 613.056 384.632 612.528C384.024 612 383.176 611.736 382.088 611.736H374.432L375.848 610.152V627H372.68V609H382.208ZM400.743 627.336C398.695 627.336 396.895 626.944 395.343 626.16C393.791 625.376 392.583 624.288 391.719 622.896C390.855 621.488 390.423 619.856 390.423 618C390.423 616.144 390.855 614.52 391.719 613.128C392.583 611.72 393.791 610.624 395.343 609.84C396.895 609.056 398.695 608.664 400.743 608.664C402.791 608.664 404.591 609.056 406.143 609.84C407.695 610.624 408.903 611.72 409.767 613.128C410.631 614.52 411.063 616.144 411.063 618C411.063 619.856 410.631 621.488 409.767 622.896C408.903 624.288 407.695 625.376 406.143 626.16C404.591 626.944 402.791 627.336 400.743 627.336ZM400.743 624.504C402.199 624.504 403.455 624.24 404.511 623.712C405.567 623.184 406.383 622.432 406.959 621.456C407.551 620.48 407.847 619.328 407.847 618C407.847 616.672 407.551 615.52 406.959 614.544C406.383 613.568 405.567 612.816 404.511 612.288C403.455 611.76 402.199 611.496 400.743 611.496C399.303 611.496 398.047 611.76 396.975 612.288C395.919 612.816 395.095 613.568 394.503 614.544C393.927 615.52 393.639 616.672 393.639 618C393.639 619.328 393.927 620.48 394.503 621.456C395.095 622.432 395.919 623.184 396.975 623.712C398.047 624.24 399.303 624.504 400.743 624.504ZM416.349 617.112H423.669C424.725 617.112 425.557 616.872 426.165 616.392C426.789 615.912 427.101 615.256 427.101 614.424C427.101 613.576 426.789 612.92 426.165 612.456C425.557 611.976 424.725 611.736 423.669 611.736H415.893L417.309 609.96V627H414.141V609H423.957C425.221 609 426.325 609.232 427.269 609.696C428.229 610.144 428.973 610.776 429.501 611.592C430.045 612.392 430.317 613.336 430.317 614.424C430.317 615.48 430.045 616.416 429.501 617.232C428.973 618.032 428.229 618.664 427.269 619.128C426.325 619.576 425.221 619.8 423.957 619.8H416.349V617.112ZM419.901 618.576H423.621L430.773 627H426.981L419.901 618.576ZM438.769 610.464H441.937V627H438.769V610.464ZM431.329 609H449.377V611.784H431.329V609ZM462.254 610.464H465.422V627H462.254V610.464ZM454.814 609H472.862V611.784H454.814V609ZM475.266 609H478.434V627H475.266V609ZM489.906 609H493.074V627H489.906V609ZM476.97 616.536H491.418V619.32H476.97V616.536ZM511.486 616.68V619.32H498.91V616.68H511.486ZM500.998 618L499.726 626.04L498.214 624.264H512.182V627H496.486L497.926 618L496.486 609H512.062V611.736H498.214L499.726 609.96L500.998 618ZM314.016 641H317.184V659H314.016V641ZM328.656 641H331.824V659H328.656V641ZM315.72 648.536H330.168V651.32H315.72V648.536ZM350.236 648.68V651.32H337.66V648.68H350.236ZM339.748 650L338.476 658.04L336.964 656.264H350.932V659H335.236L336.676 650L335.236 641H350.812V643.736H336.964L338.476 641.96L339.748 650ZM356.283 654.872V652.256H368.859V654.872H356.283ZM364.635 641L373.275 659H369.891L362.043 642.2H363.267L355.419 659H352.035L360.675 641H364.635ZM378.637 641V657.584L377.221 656.216H390.781V659H375.469V641H378.637ZM395.082 642.464H398.25V659H395.082V642.464ZM387.642 641H405.69V643.784H387.642V641ZM408.094 641H411.262V659H408.094V641ZM422.734 641H425.902V659H422.734V641ZM409.798 648.536H424.246V651.32H409.798V648.536ZM450.881 645.848H447.761C447.649 645 447.273 644.312 446.633 643.784C446.009 643.256 445.129 642.992 443.993 642.992C443.337 642.992 442.761 643.08 442.265 643.256C441.769 643.432 441.377 643.696 441.089 644.048C440.817 644.384 440.681 644.8 440.681 645.296C440.681 645.648 440.793 646.032 441.017 646.448C441.257 646.864 441.665 647.312 442.241 647.792L455.489 659H451.433L439.817 649.208C439.001 648.504 438.385 647.824 437.969 647.168C437.569 646.512 437.369 645.832 437.369 645.128C437.369 644.232 437.633 643.456 438.161 642.8C438.689 642.128 439.441 641.608 440.417 641.24C441.409 640.856 442.577 640.664 443.921 640.664C445.345 640.664 446.561 640.888 447.569 641.336C448.593 641.784 449.385 642.4 449.945 643.184C450.505 643.952 450.817 644.84 450.881 645.848ZM451.049 649.472H454.385L449.609 655.376C448.905 656.256 448.169 656.992 447.401 657.584C446.649 658.16 445.825 658.6 444.929 658.904C444.033 659.192 443.017 659.336 441.881 659.336C440.473 659.336 439.265 659.104 438.257 658.64C437.265 658.16 436.497 657.528 435.953 656.744C435.425 655.96 435.161 655.088 435.161 654.128C435.161 653.216 435.393 652.4 435.857 651.68C436.321 650.944 437.025 650.32 437.969 649.808C438.929 649.296 440.137 648.936 441.593 648.728L442.385 650C441.073 650.304 440.065 650.784 439.361 651.44C438.657 652.096 438.305 652.864 438.305 653.744C438.305 654.304 438.457 654.824 438.761 655.304C439.081 655.784 439.529 656.168 440.105 656.456C440.697 656.744 441.401 656.888 442.217 656.888C443.481 656.888 444.545 656.632 445.409 656.12C446.273 655.608 447.033 654.912 447.689 654.032L451.049 649.472ZM483.507 657.8H482.307L487.827 641H491.139L485.043 659H481.011L474.939 642.512H476.427L470.355 659H466.323L460.227 641H463.563L469.059 657.8L467.907 657.776L473.979 641H477.411L483.507 657.8ZM507.876 648.68V651.32H495.3V648.68H507.876ZM497.388 650L496.116 658.04L494.604 656.264H508.572V659H492.876L494.316 650L492.876 641H508.452V643.736H494.604L496.116 641.96L497.388 650ZM515.043 641V657.584L513.627 656.216H527.187V659H511.875V641H515.043ZM532.762 641V657.584L531.346 656.216H544.906V659H529.594V641H532.762ZM563.993 657.08L562.697 657.224V641H565.769V659H561.737L549.113 642.776L550.385 642.632V659H547.313V641H551.441L563.993 657.08ZM584.165 648.68V651.32H571.589V648.68H584.165ZM573.677 650L572.405 658.04L570.893 656.264H584.861V659H569.165L570.605 650L569.165 641H584.741V643.736H570.893L572.405 641.96L573.677 650ZM587.06 653.144H590.276C590.372 653.864 590.668 654.496 591.164 655.04C591.676 655.584 592.348 656.008 593.18 656.312C594.012 656.6 594.972 656.744 596.06 656.744C597.676 656.744 598.956 656.496 599.9 656C600.844 655.488 601.316 654.8 601.316 653.936C601.316 653.232 601.044 652.704 600.5 652.352C599.956 652 598.972 651.736 597.548 651.56L593.66 651.056C591.484 650.768 589.9 650.232 588.908 649.448C587.932 648.648 587.444 647.52 587.444 646.064C587.444 644.96 587.772 644.008 588.428 643.208C589.1 642.392 590.044 641.768 591.26 641.336C592.476 640.888 593.9 640.664 595.532 640.664C597.148 640.664 598.58 640.904 599.828 641.384C601.076 641.864 602.068 642.536 602.804 643.4C603.556 644.248 603.964 645.248 604.028 646.4H600.812C600.732 645.76 600.46 645.208 599.996 644.744C599.548 644.28 598.94 643.92 598.172 643.664C597.404 643.392 596.5 643.256 595.46 643.256C593.988 643.256 592.812 643.496 591.932 643.976C591.052 644.456 590.612 645.112 590.612 645.944C590.612 646.584 590.868 647.08 591.38 647.432C591.908 647.768 592.82 648.024 594.116 648.2L598.052 648.752C599.668 648.976 600.94 649.28 601.868 649.664C602.812 650.032 603.484 650.536 603.884 651.176C604.284 651.8 604.484 652.608 604.484 653.6C604.484 654.752 604.132 655.76 603.428 656.624C602.724 657.488 601.732 658.16 600.452 658.64C599.188 659.104 597.708 659.336 596.012 659.336C594.284 659.336 592.756 659.08 591.428 658.568C590.116 658.04 589.076 657.312 588.308 656.384C587.54 655.456 587.124 654.376 587.06 653.144ZM606.326 653.144H609.542C609.638 653.864 609.934 654.496 610.43 655.04C610.942 655.584 611.614 656.008 612.446 656.312C613.278 656.6 614.238 656.744 615.326 656.744C616.942 656.744 618.222 656.496 619.166 656C620.11 655.488 620.582 654.8 620.582 653.936C620.582 653.232 620.31 652.704 619.766 652.352C619.222 652 618.238 651.736 616.814 651.56L612.926 651.056C610.75 650.768 609.166 650.232 608.174 649.448C607.198 648.648 606.71 647.52 606.71 646.064C606.71 644.96 607.038 644.008 607.694 643.208C608.366 642.392 609.31 641.768 610.526 641.336C611.742 640.888 613.166 640.664 614.798 640.664C616.414 640.664 617.846 640.904 619.094 641.384C620.342 641.864 621.334 642.536 622.07 643.4C622.822 644.248 623.23 645.248 623.294 646.4H620.078C619.998 645.76 619.726 645.208 619.262 644.744C618.814 644.28 618.206 643.92 617.438 643.664C616.67 643.392 615.766 643.256 614.726 643.256C613.254 643.256 612.078 643.496 611.198 643.976C610.318 644.456 609.878 645.112 609.878 645.944C609.878 646.584 610.134 647.08 610.646 647.432C611.174 647.768 612.086 648.024 613.382 648.2L617.318 648.752C618.934 648.976 620.206 649.28 621.134 649.664C622.078 650.032 622.75 650.536 623.15 651.176C623.55 651.8 623.75 652.608 623.75 653.6C623.75 654.752 623.398 655.76 622.694 656.624C621.99 657.488 620.998 658.16 619.718 658.64C618.454 659.104 616.974 659.336 615.278 659.336C613.55 659.336 612.022 659.08 610.694 658.568C609.382 658.04 608.342 657.312 607.574 656.384C606.806 655.456 606.39 654.376 606.326 653.144Z" fill="white"/>
<path d="M334.944 732.72C330.752 732.72 327.072 731.936 323.904 730.368C320.768 728.8 318.32 726.624 316.56 723.84C314.8 721.024 313.92 717.744 313.92 714C313.92 710.256 314.8 706.992 316.56 704.208C318.32 701.392 320.768 699.2 323.904 697.632C327.072 696.064 330.752 695.28 334.944 695.28C339.136 695.28 342.8 696.064 345.936 697.632C349.104 699.2 351.568 701.392 353.328 704.208C355.088 706.992 355.968 710.256 355.968 714C355.968 717.744 355.088 721.024 353.328 723.84C351.568 726.624 349.104 728.8 345.936 730.368C342.8 731.936 339.136 732.72 334.944 732.72ZM334.944 725.472C337.568 725.472 339.824 725.008 341.712 724.08C343.632 723.152 345.104 721.824 346.128 720.096C347.184 718.368 347.712 716.336 347.712 714C347.712 711.664 347.184 709.632 346.128 707.904C345.104 706.176 343.632 704.848 341.712 703.92C339.824 702.992 337.568 702.528 334.944 702.528C332.352 702.528 330.096 702.992 328.176 703.92C326.256 704.848 324.768 706.176 323.712 707.904C322.688 709.632 322.176 711.664 322.176 714C322.176 716.336 322.688 718.368 323.712 720.096C324.768 721.824 326.256 723.152 328.176 724.08C330.096 725.008 332.352 725.472 334.944 725.472ZM365.523 711.264H391.539V718.224H365.523V711.264ZM392.355 696V703.008H365.619L369.747 698.832V732H361.587V696H392.355ZM427.166 728.4H423.566L438.254 696H446.894L429.806 732H420.638L403.598 696H412.334L427.166 728.4ZM450.79 696H458.95V732H450.79V696ZM496.065 710.88V717.12H470.289V710.88H496.065ZM475.761 714L473.361 729.264L469.809 725.232H497.553V732H465.153L467.937 714L465.153 696H497.313V702.768H469.809L473.361 698.736L475.761 714ZM514.715 699.648H522.827V732H514.715V699.648ZM500.363 696H537.131V703.2H500.363V696ZM575.04 726.624L572.208 727.056V696H580.128V732H569.808L546.768 700.944L549.552 700.512V732H541.68V696H552.24L575.04 726.624ZM593.381 724.416V717.792H618.341V724.416H593.381ZM611.285 696L628.133 732H619.445L604.709 699.312H607.397L592.661 732H583.973L600.821 696H611.285ZM682.552 696V732H674.777V698.736L676.841 698.88L661.481 732H653.081L637.721 698.976L639.737 698.784V732H632.009V696H644.537L659.033 728.064H655.529L670.025 696H682.552ZM719.659 710.88V717.12H693.883V710.88H719.659ZM699.355 714L696.955 729.264L693.403 725.232H721.147V732H688.747L691.531 714L688.747 696H720.907V702.768H693.403L696.955 698.736L699.355 714ZM725.432 720.24H733.688C733.88 721.456 734.408 722.528 735.272 723.456C736.168 724.352 737.352 725.056 738.824 725.568C740.328 726.048 742.056 726.288 744.008 726.288C746.856 726.288 749.096 725.888 750.728 725.088C752.392 724.256 753.224 723.104 753.224 721.632C753.224 720.48 752.744 719.6 751.784 718.992C750.856 718.352 749.112 717.888 746.552 717.6L739.304 716.784C734.632 716.272 731.24 715.184 729.128 713.52C727.048 711.824 726.008 709.472 726.008 706.464C726.008 704.096 726.696 702.08 728.072 700.416C729.48 698.752 731.448 697.488 733.976 696.624C736.504 695.728 739.48 695.28 742.904 695.28C746.232 695.28 749.192 695.776 751.784 696.768C754.376 697.728 756.44 699.088 757.976 700.848C759.512 702.576 760.344 704.608 760.472 706.944H752.216C752.056 705.888 751.576 704.976 750.776 704.208C750.008 703.408 748.936 702.8 747.56 702.384C746.184 701.936 744.568 701.712 742.712 701.712C740.12 701.712 738.056 702.096 736.52 702.864C734.984 703.632 734.216 704.72 734.216 706.128C734.216 707.216 734.664 708.064 735.56 708.672C736.488 709.248 738.104 709.68 740.408 709.968L747.944 710.88C751.272 711.232 753.912 711.808 755.864 712.608C757.848 713.376 759.256 714.416 760.088 715.728C760.952 717.04 761.384 718.704 761.384 720.72C761.384 723.12 760.648 725.232 759.176 727.056C757.736 728.848 755.704 730.24 753.08 731.232C750.456 732.224 747.384 732.72 743.864 732.72C740.28 732.72 737.128 732.208 734.408 731.184C731.688 730.128 729.544 728.672 727.976 726.816C726.408 724.928 725.56 722.736 725.432 720.24ZM796.581 710.88V717.12H770.805V710.88H796.581ZM776.277 714L773.877 729.264L770.325 725.232H798.069V732H765.669L768.453 714L765.669 696H797.829V702.768H770.325L773.877 698.736L776.277 714ZM319.632 775.264H345.648V782.224H319.632V775.264ZM346.464 760V767.008H319.728L323.856 762.832V796H315.696V760H346.464ZM359.61 780.208C359.61 782.128 359.978 783.776 360.714 785.152C361.45 786.528 362.522 787.6 363.93 788.368C365.37 789.104 367.098 789.472 369.114 789.472C371.162 789.472 372.89 789.104 374.298 788.368C375.706 787.6 376.778 786.528 377.514 785.152C378.25 783.776 378.618 782.128 378.618 780.208V760H386.778V780.592C386.778 783.824 386.042 786.656 384.57 789.088C383.098 791.488 381.034 793.36 378.378 794.704C375.722 796.048 372.634 796.72 369.114 796.72C365.594 796.72 362.506 796.048 359.85 794.704C357.226 793.36 355.162 791.488 353.658 789.088C352.186 786.656 351.45 783.824 351.45 780.592V760H359.61V780.208ZM405.168 763.648H413.28V796H405.168V763.648ZM390.816 760H427.584V767.2H390.816V760ZM439.814 780.208C439.814 782.128 440.182 783.776 440.918 785.152C441.654 786.528 442.726 787.6 444.134 788.368C445.574 789.104 447.302 789.472 449.318 789.472C451.366 789.472 453.094 789.104 454.502 788.368C455.91 787.6 456.982 786.528 457.718 785.152C458.454 783.776 458.822 782.128 458.822 780.208V760H466.982V780.592C466.982 783.824 466.246 786.656 464.774 789.088C463.302 791.488 461.238 793.36 458.582 794.704C455.926 796.048 452.838 796.72 449.318 796.72C445.798 796.72 442.71 796.048 440.054 794.704C437.43 793.36 435.366 791.488 433.862 789.088C432.39 786.656 431.654 783.824 431.654 780.592V760H439.814V780.208ZM479.563 775.984H493.435C495.259 775.984 496.699 775.568 497.755 774.736C498.843 773.872 499.387 772.688 499.387 771.184C499.387 769.68 498.843 768.512 497.755 767.68C496.699 766.848 495.259 766.432 493.435 766.432H478.363L482.059 762.256V796H473.899V760H494.395C497.019 760 499.323 760.48 501.307 761.44C503.291 762.368 504.843 763.664 505.963 765.328C507.083 766.992 507.643 768.944 507.643 771.184C507.643 773.392 507.083 775.328 505.963 776.992C504.843 778.656 503.291 779.968 501.307 780.928C499.323 781.856 497.019 782.32 494.395 782.32H479.563V775.984ZM485.803 779.152H495.115L508.699 796H499.147L485.803 779.152ZM543.503 774.88V781.12H517.727V774.88H543.503ZM523.199 778L520.799 793.264L517.247 789.232H544.991V796H512.591L515.375 778L512.591 760H544.751V766.768H517.247L520.799 762.736L523.199 778Z" fill="#24CBFF"/>
<path d="M314.83 849H312.614L319.023 831.545H321.205L327.614 849H325.398L320.182 834.307H320.045L314.83 849ZM315.648 842.182H324.58V844.057H315.648V842.182ZM332.071 841.125V849H330.06V835.909H332.003V837.955H332.173C332.48 837.29 332.946 836.756 333.571 836.352C334.196 835.943 335.003 835.739 335.991 835.739C336.878 835.739 337.653 835.92 338.318 836.284C338.983 836.642 339.5 837.188 339.869 837.92C340.239 838.648 340.423 839.568 340.423 840.682V849H338.412V840.818C338.412 839.79 338.145 838.989 337.611 838.415C337.077 837.835 336.344 837.545 335.412 837.545C334.77 837.545 334.196 837.685 333.69 837.963C333.19 838.241 332.795 838.648 332.506 839.182C332.216 839.716 332.071 840.364 332.071 841.125ZM346.11 841.125V849H344.099V835.909H346.042V837.955H346.212C346.519 837.29 346.985 836.756 347.61 836.352C348.235 835.943 349.042 835.739 350.031 835.739C350.917 835.739 351.692 835.92 352.357 836.284C353.022 836.642 353.539 837.188 353.908 837.92C354.278 838.648 354.462 839.568 354.462 840.682V849H352.451V840.818C352.451 839.79 352.184 838.989 351.65 838.415C351.116 837.835 350.383 837.545 349.451 837.545C348.809 837.545 348.235 837.685 347.729 837.963C347.229 838.241 346.835 838.648 346.545 839.182C346.255 839.716 346.11 840.364 346.11 841.125ZM366.388 843.648V835.909H368.399V849H366.388V846.784H366.251C365.945 847.449 365.467 848.014 364.82 848.48C364.172 848.94 363.354 849.17 362.365 849.17C361.547 849.17 360.82 848.991 360.183 848.634C359.547 848.27 359.047 847.724 358.683 846.997C358.32 846.264 358.138 845.341 358.138 844.227V835.909H360.149V844.091C360.149 845.045 360.416 845.807 360.95 846.375C361.49 846.943 362.178 847.227 363.013 847.227C363.513 847.227 364.021 847.099 364.538 846.844C365.061 846.588 365.499 846.196 365.851 845.668C366.209 845.139 366.388 844.466 366.388 843.648ZM375.935 849.307C375.106 849.307 374.353 849.151 373.677 848.838C373.001 848.52 372.464 848.062 372.066 847.466C371.668 846.864 371.469 846.136 371.469 845.284C371.469 844.534 371.617 843.926 371.913 843.46C372.208 842.989 372.603 842.619 373.097 842.352C373.592 842.085 374.137 841.886 374.734 841.756C375.336 841.619 375.941 841.511 376.549 841.432C377.344 841.33 377.989 841.253 378.484 841.202C378.984 841.145 379.347 841.051 379.575 840.92C379.808 840.79 379.924 840.562 379.924 840.239V840.17C379.924 839.33 379.694 838.676 379.234 838.21C378.779 837.744 378.089 837.511 377.163 837.511C376.202 837.511 375.45 837.722 374.904 838.142C374.359 838.562 373.975 839.011 373.754 839.489L371.844 838.807C372.185 838.011 372.64 837.392 373.208 836.949C373.782 836.5 374.407 836.187 375.083 836.011C375.765 835.83 376.435 835.739 377.094 835.739C377.515 835.739 377.998 835.79 378.543 835.892C379.094 835.989 379.626 836.19 380.137 836.497C380.654 836.804 381.083 837.267 381.424 837.886C381.765 838.506 381.935 839.335 381.935 840.375V849H379.924V847.227H379.822C379.685 847.511 379.458 847.815 379.14 848.139C378.822 848.463 378.398 848.739 377.87 848.966C377.342 849.193 376.697 849.307 375.935 849.307ZM376.242 847.5C377.038 847.5 377.708 847.344 378.254 847.031C378.805 846.719 379.219 846.315 379.498 845.821C379.782 845.327 379.924 844.807 379.924 844.261V842.42C379.839 842.523 379.651 842.616 379.362 842.702C379.077 842.781 378.748 842.852 378.373 842.915C378.004 842.972 377.643 843.023 377.29 843.068C376.944 843.108 376.663 843.142 376.447 843.17C375.924 843.239 375.435 843.349 374.981 843.503C374.532 843.651 374.168 843.875 373.89 844.176C373.617 844.472 373.481 844.875 373.481 845.386C373.481 846.085 373.739 846.614 374.256 846.972C374.779 847.324 375.441 847.5 376.242 847.5ZM387.618 831.545V849H385.607V831.545H387.618ZM398.325 849V831.545H404.222C405.586 831.545 406.705 831.778 407.58 832.244C408.455 832.705 409.103 833.338 409.523 834.145C409.944 834.952 410.154 835.869 410.154 836.898C410.154 837.926 409.944 838.838 409.523 839.634C409.103 840.429 408.458 841.054 407.589 841.509C406.719 841.957 405.609 842.182 404.256 842.182H399.484V840.273H404.188C405.12 840.273 405.87 840.136 406.438 839.864C407.012 839.591 407.427 839.205 407.683 838.705C407.944 838.199 408.075 837.597 408.075 836.898C408.075 836.199 407.944 835.588 407.683 835.065C407.421 834.543 407.004 834.139 406.43 833.855C405.856 833.565 405.097 833.42 404.154 833.42H400.438V849H398.325ZM406.54 841.159L410.836 849H408.381L404.154 841.159H406.54ZM418.751 849.273C417.49 849.273 416.402 848.994 415.487 848.438C414.578 847.875 413.876 847.091 413.382 846.085C412.893 845.074 412.649 843.898 412.649 842.557C412.649 841.216 412.893 840.034 413.382 839.011C413.876 837.983 414.564 837.182 415.445 836.608C416.331 836.028 417.365 835.739 418.547 835.739C419.229 835.739 419.902 835.852 420.567 836.08C421.232 836.307 421.837 836.676 422.382 837.188C422.928 837.693 423.362 838.364 423.686 839.199C424.01 840.034 424.172 841.062 424.172 842.284V843.136H414.081V841.398H422.126C422.126 840.659 421.979 840 421.683 839.42C421.393 838.841 420.979 838.384 420.439 838.048C419.905 837.713 419.274 837.545 418.547 837.545C417.746 837.545 417.053 837.744 416.467 838.142C415.888 838.534 415.442 839.045 415.129 839.676C414.817 840.307 414.661 840.983 414.661 841.705V842.864C414.661 843.852 414.831 844.69 415.172 845.378C415.518 846.06 415.999 846.58 416.612 846.938C417.226 847.29 417.939 847.466 418.751 847.466C419.28 847.466 419.757 847.392 420.183 847.244C420.615 847.091 420.987 846.864 421.3 846.562C421.612 846.256 421.854 845.875 422.024 845.42L423.967 845.966C423.763 846.625 423.419 847.205 422.936 847.705C422.453 848.199 421.857 848.585 421.146 848.864C420.436 849.136 419.638 849.273 418.751 849.273ZM427.232 853.909V835.909H429.175V837.989H429.413C429.561 837.761 429.766 837.472 430.027 837.119C430.294 836.761 430.675 836.443 431.169 836.165C431.669 835.881 432.345 835.739 433.197 835.739C434.3 835.739 435.271 836.014 436.112 836.565C436.953 837.116 437.609 837.898 438.081 838.909C438.553 839.92 438.788 841.114 438.788 842.489C438.788 843.875 438.553 845.077 438.081 846.094C437.609 847.105 436.956 847.889 436.121 848.446C435.286 848.997 434.322 849.273 433.232 849.273C432.391 849.273 431.717 849.134 431.212 848.855C430.706 848.571 430.317 848.25 430.044 847.892C429.771 847.528 429.561 847.227 429.413 846.989H429.243V853.909H427.232ZM429.209 842.455C429.209 843.443 429.354 844.315 429.643 845.071C429.933 845.821 430.357 846.409 430.913 846.835C431.47 847.256 432.152 847.466 432.959 847.466C433.8 847.466 434.501 847.244 435.064 846.801C435.632 846.352 436.058 845.75 436.342 844.994C436.632 844.233 436.777 843.386 436.777 842.455C436.777 841.534 436.635 840.705 436.351 839.966C436.072 839.222 435.649 838.634 435.081 838.202C434.518 837.764 433.811 837.545 432.959 837.545C432.141 837.545 431.453 837.753 430.896 838.168C430.339 838.577 429.919 839.151 429.635 839.889C429.351 840.622 429.209 841.477 429.209 842.455ZM447.175 849.273C445.993 849.273 444.956 848.991 444.064 848.429C443.178 847.866 442.484 847.08 441.984 846.068C441.49 845.057 441.243 843.875 441.243 842.523C441.243 841.159 441.49 839.969 441.984 838.952C442.484 837.935 443.178 837.145 444.064 836.582C444.956 836.02 445.993 835.739 447.175 835.739C448.357 835.739 449.391 836.02 450.277 836.582C451.169 837.145 451.862 837.935 452.357 838.952C452.857 839.969 453.107 841.159 453.107 842.523C453.107 843.875 452.857 845.057 452.357 846.068C451.862 847.08 451.169 847.866 450.277 848.429C449.391 848.991 448.357 849.273 447.175 849.273ZM447.175 847.466C448.072 847.466 448.811 847.236 449.391 846.776C449.97 846.315 450.399 845.71 450.678 844.96C450.956 844.21 451.095 843.398 451.095 842.523C451.095 841.648 450.956 840.832 450.678 840.077C450.399 839.321 449.97 838.71 449.391 838.244C448.811 837.778 448.072 837.545 447.175 837.545C446.277 837.545 445.538 837.778 444.959 838.244C444.379 838.71 443.95 839.321 443.672 840.077C443.393 840.832 443.254 841.648 443.254 842.523C443.254 843.398 443.393 844.21 443.672 844.96C443.95 845.71 444.379 846.315 444.959 846.776C445.538 847.236 446.277 847.466 447.175 847.466ZM456.177 849V835.909H458.12V837.886H458.256C458.495 837.239 458.927 836.713 459.552 836.31C460.177 835.906 460.881 835.705 461.665 835.705C461.813 835.705 461.998 835.707 462.219 835.713C462.441 835.719 462.609 835.727 462.722 835.739V837.784C462.654 837.767 462.498 837.741 462.254 837.707C462.015 837.668 461.762 837.648 461.495 837.648C460.859 837.648 460.29 837.781 459.79 838.048C459.296 838.31 458.904 838.673 458.614 839.139C458.33 839.599 458.188 840.125 458.188 840.716V849H456.177ZM471.62 835.909V837.614H464.836V835.909H471.62ZM466.813 832.773H468.825V845.25C468.825 845.818 468.907 846.244 469.072 846.528C469.242 846.807 469.458 846.994 469.719 847.091C469.987 847.182 470.268 847.227 470.563 847.227C470.785 847.227 470.967 847.216 471.109 847.193C471.251 847.165 471.364 847.142 471.45 847.125L471.859 848.932C471.722 848.983 471.532 849.034 471.288 849.085C471.043 849.142 470.734 849.17 470.359 849.17C469.79 849.17 469.234 849.048 468.688 848.804C468.148 848.56 467.7 848.188 467.342 847.688C466.989 847.188 466.813 846.557 466.813 845.795V832.773ZM481.362 849V847.466L487.123 841.159C487.799 840.42 488.356 839.778 488.793 839.233C489.231 838.682 489.555 838.165 489.765 837.682C489.981 837.193 490.089 836.682 490.089 836.148C490.089 835.534 489.941 835.003 489.646 834.554C489.356 834.105 488.958 833.759 488.452 833.514C487.947 833.27 487.379 833.148 486.748 833.148C486.077 833.148 485.492 833.287 484.992 833.565C484.498 833.838 484.114 834.222 483.842 834.716C483.575 835.21 483.441 835.79 483.441 836.455H481.43C481.43 835.432 481.665 834.534 482.137 833.761C482.609 832.989 483.251 832.386 484.063 831.955C484.881 831.523 485.799 831.307 486.816 831.307C487.839 831.307 488.745 831.523 489.535 831.955C490.325 832.386 490.944 832.969 491.393 833.702C491.842 834.435 492.066 835.25 492.066 836.148C492.066 836.79 491.95 837.418 491.717 838.031C491.489 838.639 491.092 839.318 490.523 840.068C489.961 840.812 489.18 841.722 488.18 842.795L484.259 846.989V847.125H492.373V849H481.362ZM501.586 849.239C500.302 849.239 499.208 848.889 498.305 848.19C497.401 847.486 496.711 846.466 496.234 845.131C495.756 843.79 495.518 842.17 495.518 840.273C495.518 838.386 495.756 836.776 496.234 835.44C496.717 834.099 497.41 833.077 498.313 832.372C499.222 831.662 500.313 831.307 501.586 831.307C502.859 831.307 503.947 831.662 504.85 832.372C505.759 833.077 506.452 834.099 506.93 835.44C507.413 836.776 507.654 838.386 507.654 840.273C507.654 842.17 507.415 843.79 506.938 845.131C506.461 846.466 505.771 847.486 504.867 848.19C503.964 848.889 502.87 849.239 501.586 849.239ZM501.586 847.364C502.859 847.364 503.847 846.75 504.552 845.523C505.256 844.295 505.609 842.545 505.609 840.273C505.609 838.761 505.447 837.474 505.123 836.412C504.805 835.349 504.344 834.54 503.742 833.983C503.146 833.426 502.427 833.148 501.586 833.148C500.325 833.148 499.339 833.77 498.629 835.014C497.918 836.253 497.563 838.006 497.563 840.273C497.563 841.784 497.722 843.068 498.04 844.125C498.359 845.182 498.816 845.986 499.413 846.537C500.015 847.088 500.739 847.364 501.586 847.364ZM510.893 849V847.466L516.654 841.159C517.33 840.42 517.887 839.778 518.325 839.233C518.762 838.682 519.086 838.165 519.296 837.682C519.512 837.193 519.62 836.682 519.62 836.148C519.62 835.534 519.472 835.003 519.177 834.554C518.887 834.105 518.489 833.759 517.984 833.514C517.478 833.27 516.91 833.148 516.279 833.148C515.609 833.148 515.023 833.287 514.523 833.565C514.029 833.838 513.646 834.222 513.373 834.716C513.106 835.21 512.972 835.79 512.972 836.455H510.961C510.961 835.432 511.197 834.534 511.668 833.761C512.14 832.989 512.782 832.386 513.594 831.955C514.413 831.523 515.33 831.307 516.347 831.307C517.37 831.307 518.276 831.523 519.066 831.955C519.856 832.386 520.475 832.969 520.924 833.702C521.373 834.435 521.597 835.25 521.597 836.148C521.597 836.79 521.481 837.418 521.248 838.031C521.021 838.639 520.623 839.318 520.055 840.068C519.492 840.812 518.711 841.722 517.711 842.795L513.79 846.989V847.125H521.904V849H510.893ZM531.322 849.239C530.197 849.239 529.194 849.045 528.313 848.659C527.438 848.273 526.742 847.736 526.225 847.048C525.714 846.355 525.435 845.551 525.39 844.636H527.538C527.583 845.199 527.776 845.685 528.117 846.094C528.458 846.497 528.904 846.81 529.455 847.031C530.006 847.253 530.617 847.364 531.288 847.364C532.038 847.364 532.702 847.233 533.282 846.972C533.862 846.71 534.316 846.347 534.646 845.881C534.975 845.415 535.14 844.875 535.14 844.261C535.14 843.619 534.981 843.054 534.663 842.565C534.344 842.071 533.879 841.685 533.265 841.406C532.651 841.128 531.901 840.989 531.015 840.989H529.617V839.114H531.015C531.708 839.114 532.316 838.989 532.839 838.739C533.367 838.489 533.779 838.136 534.075 837.682C534.376 837.227 534.526 836.693 534.526 836.08C534.526 835.489 534.396 834.974 534.134 834.537C533.873 834.099 533.504 833.759 533.026 833.514C532.555 833.27 531.998 833.148 531.356 833.148C530.754 833.148 530.185 833.259 529.651 833.48C529.123 833.696 528.691 834.011 528.356 834.426C528.021 834.835 527.839 835.33 527.81 835.909H525.765C525.799 834.994 526.075 834.193 526.592 833.506C527.109 832.812 527.785 832.273 528.62 831.886C529.461 831.5 530.384 831.307 531.39 831.307C532.469 831.307 533.396 831.526 534.168 831.963C534.941 832.395 535.535 832.966 535.95 833.676C536.364 834.386 536.572 835.153 536.572 835.977C536.572 836.96 536.313 837.798 535.796 838.491C535.285 839.185 534.589 839.665 533.708 839.932V840.068C534.81 840.25 535.671 840.719 536.29 841.474C536.91 842.224 537.219 843.153 537.219 844.261C537.219 845.21 536.961 846.062 536.444 846.818C535.933 847.568 535.234 848.159 534.347 848.591C533.461 849.023 532.452 849.239 531.322 849.239Z" fill="#24CBFF"/>
</svg>
