<svg width="100%" viewBox="0 0 375 812" fill="none" xmlns="http://www.w3.org/2000/svg">
<path d="M12.608 188.096H14.752C14.816 188.576 15.0133 188.997 15.344 189.36C15.6853 189.723 16.1333 190.005 16.688 190.208C17.2427 190.4 17.8827 190.496 18.608 190.496C19.6853 190.496 20.5387 190.331 21.168 190C21.7973 189.659 22.112 189.2 22.112 188.624C22.112 188.155 21.9307 187.803 21.568 187.568C21.2053 187.333 20.5493 187.157 19.6 187.04L17.008 186.704C15.5573 186.512 14.5013 186.155 13.84 185.632C13.1893 185.099 12.864 184.347 12.864 183.376C12.864 182.64 13.0827 182.005 13.52 181.472C13.968 180.928 14.5973 180.512 15.408 180.224C16.2187 179.925 17.168 179.776 18.256 179.776C19.3333 179.776 20.288 179.936 21.12 180.256C21.952 180.576 22.6133 181.024 23.104 181.6C23.6053 182.165 23.8773 182.832 23.92 183.6H21.776C21.7227 183.173 21.5413 182.805 21.232 182.496C20.9333 182.187 20.528 181.947 20.016 181.776C19.504 181.595 18.9013 181.504 18.208 181.504C17.2267 181.504 16.4427 181.664 15.856 181.984C15.2693 182.304 14.976 182.741 14.976 183.296C14.976 183.723 15.1467 184.053 15.488 184.288C15.84 184.512 16.448 184.683 17.312 184.8L19.936 185.168C21.0133 185.317 21.8613 185.52 22.48 185.776C23.1093 186.021 23.5573 186.357 23.824 186.784C24.0907 187.2 24.224 187.739 24.224 188.4C24.224 189.168 23.9893 189.84 23.52 190.416C23.0507 190.992 22.3893 191.44 21.536 191.76C20.6933 192.069 19.7067 192.224 18.576 192.224C17.424 192.224 16.4053 192.053 15.52 191.712C14.6453 191.36 13.952 190.875 13.44 190.256C12.928 189.637 12.6507 188.917 12.608 188.096ZM28.1398 186.848C28.1398 187.563 28.2838 188.181 28.5718 188.704C28.8598 189.227 29.2704 189.632 29.8038 189.92C30.3478 190.197 30.9931 190.336 31.7398 190.336C32.4971 190.336 33.1424 190.197 33.6758 189.92C34.2091 189.632 34.6198 189.227 34.9078 188.704C35.1958 188.181 35.3398 187.563 35.3398 186.848V180H37.4518V186.928C37.4518 187.984 37.2118 188.912 36.7318 189.712C36.2518 190.501 35.5851 191.12 34.7318 191.568C33.8784 192.005 32.8811 192.224 31.7398 192.224C30.6091 192.224 29.6118 192.005 28.7478 191.568C27.8944 191.12 27.2278 190.501 26.7478 189.712C26.2678 188.912 26.0278 187.984 26.0278 186.928V180H28.1398V186.848ZM46.3366 180C47.2326 180 48.006 180.16 48.6566 180.48C49.318 180.8 49.8246 181.248 50.1766 181.824C50.5393 182.389 50.7206 183.045 50.7206 183.792C50.7206 184.539 50.5393 185.2 50.1766 185.776C49.8246 186.341 49.318 186.784 48.6566 187.104C48.006 187.424 47.2326 187.584 46.3366 187.584H40.9446V185.76H46.2566C46.982 185.76 47.5473 185.584 47.9526 185.232C48.3686 184.88 48.5766 184.4 48.5766 183.792C48.5766 183.184 48.3686 182.704 47.9526 182.352C47.5473 182 46.982 181.824 46.2566 181.824H41.1526L42.0966 180.768V192H39.9846V180H46.3366ZM58.8054 180C59.7014 180 60.4747 180.16 61.1254 180.48C61.7867 180.8 62.2934 181.248 62.6454 181.824C63.008 182.389 63.1894 183.045 63.1894 183.792C63.1894 184.539 63.008 185.2 62.6454 185.776C62.2934 186.341 61.7867 186.784 61.1254 187.104C60.4747 187.424 59.7014 187.584 58.8054 187.584H53.4134V185.76H58.7254C59.4507 185.76 60.016 185.584 60.4214 185.232C60.8374 184.88 61.0454 184.4 61.0454 183.792C61.0454 183.184 60.8374 182.704 60.4214 182.352C60.016 182 59.4507 181.824 58.7254 181.824H53.6214L54.5654 180.768V192H52.4534V180H58.8054ZM71.1621 192.224C69.7968 192.224 68.5968 191.963 67.5621 191.44C66.5275 190.917 65.7221 190.192 65.1461 189.264C64.5701 188.325 64.2821 187.237 64.2821 186C64.2821 184.763 64.5701 183.68 65.1461 182.752C65.7221 181.813 66.5275 181.083 67.5621 180.56C68.5968 180.037 69.7968 179.776 71.1621 179.776C72.5275 179.776 73.7275 180.037 74.7621 180.56C75.7968 181.083 76.6021 181.813 77.1781 182.752C77.7541 183.68 78.0421 184.763 78.0421 186C78.0421 187.237 77.7541 188.325 77.1781 189.264C76.6021 190.192 75.7968 190.917 74.7621 191.44C73.7275 191.963 72.5275 192.224 71.1621 192.224ZM71.1621 190.336C72.1328 190.336 72.9701 190.16 73.6741 189.808C74.3781 189.456 74.9221 188.955 75.3061 188.304C75.7008 187.653 75.8981 186.885 75.8981 186C75.8981 185.115 75.7008 184.347 75.3061 183.696C74.9221 183.045 74.3781 182.544 73.6741 182.192C72.9701 181.84 72.1328 181.664 71.1621 181.664C70.2021 181.664 69.3648 181.84 68.6501 182.192C67.9461 182.544 67.3968 183.045 67.0021 183.696C66.6181 184.347 66.4261 185.115 66.4261 186C66.4261 186.885 66.6181 187.653 67.0021 188.304C67.3968 188.955 67.9461 189.456 68.6501 189.808C69.3648 190.16 70.2021 190.336 71.1621 190.336ZM81.566 185.408H86.446C87.15 185.408 87.7047 185.248 88.11 184.928C88.526 184.608 88.734 184.171 88.734 183.616C88.734 183.051 88.526 182.613 88.11 182.304C87.7047 181.984 87.15 181.824 86.446 181.824H81.262L82.206 180.64V192H80.094V180H86.638C87.4807 180 88.2167 180.155 88.846 180.464C89.486 180.763 89.982 181.184 90.334 181.728C90.6967 182.261 90.878 182.891 90.878 183.616C90.878 184.32 90.6967 184.944 90.334 185.488C89.982 186.021 89.486 186.443 88.846 186.752C88.2167 187.051 87.4807 187.2 86.638 187.2H81.566V185.408ZM83.934 186.384H86.414L91.182 192H88.654L83.934 186.384ZM96.5129 180.976H98.6249V192H96.5129V180.976ZM91.5529 180H103.585V181.856H91.5529V180ZM105.188 180H107.3V192H105.188V180ZM121.105 190.72L120.241 190.816V180H122.289V192H119.601L111.185 181.184L112.033 181.088V192H109.985V180H112.737L121.105 190.72ZM136.985 186.784C136.974 187.531 136.83 188.235 136.553 188.896C136.276 189.547 135.881 190.123 135.369 190.624C134.857 191.125 134.233 191.52 133.497 191.808C132.772 192.085 131.94 192.224 131.001 192.224C130.052 192.224 129.172 192.08 128.361 191.792C127.55 191.504 126.841 191.093 126.233 190.56C125.636 190.016 125.172 189.36 124.841 188.592C124.51 187.824 124.345 186.96 124.345 186C124.345 185.04 124.51 184.176 124.841 183.408C125.182 182.64 125.657 181.989 126.265 181.456C126.873 180.912 127.588 180.496 128.409 180.208C129.23 179.92 130.132 179.776 131.113 179.776C132.34 179.776 133.412 179.979 134.329 180.384C135.257 180.779 136.004 181.323 136.569 182.016C137.134 182.709 137.481 183.504 137.609 184.4H135.465C135.348 183.835 135.092 183.344 134.697 182.928C134.313 182.512 133.817 182.192 133.209 181.968C132.601 181.744 131.897 181.632 131.097 181.632C130.158 181.632 129.342 181.808 128.649 182.16C127.966 182.501 127.433 182.997 127.049 183.648C126.676 184.299 126.489 185.083 126.489 186C126.489 186.917 126.681 187.707 127.065 188.368C127.46 189.029 128.014 189.536 128.729 189.888C129.444 190.24 130.286 190.416 131.257 190.416C132.196 190.416 133.017 190.256 133.721 189.936C134.425 189.616 134.98 189.173 135.385 188.608C135.79 188.032 136.009 187.365 136.041 186.608L136.985 186.784ZM131.673 187.696V186.096H137.737V192H136.169L135.913 187.024L136.409 187.696H131.673ZM147.654 180.976H149.766V192H147.654V180.976ZM142.694 180H154.726V181.856H142.694V180ZM156.328 180H158.44V192H156.328V180ZM166.088 180H168.2V192H166.088V180ZM157.464 185.024H167.096V186.88H157.464V185.024ZM180.475 185.12V186.88H172.091V185.12H180.475ZM173.483 186L172.635 191.36L171.627 190.176H180.939V192H170.475L171.435 186L170.475 180H180.859V181.824H171.627L172.635 180.64L173.483 186ZM13.344 200H15.456V212H13.344V200ZM23.104 200H25.216V212H23.104V200ZM14.48 205.024H24.112V206.88H14.48V205.024ZM37.4905 205.12V206.88H29.1065V205.12H37.4905ZM30.4985 206L29.6505 211.36L28.6425 210.176H37.9545V212H27.4905L28.4505 206L27.4905 200H37.8745V201.824H28.6425L29.6505 200.64L30.4985 206ZM41.5221 209.248V207.504H49.9061V209.248H41.5221ZM47.0901 200L52.8501 212H50.5941L45.3621 200.8H46.1781L40.9461 212H38.6901L44.4501 200H47.0901ZM56.4248 200V211.056L55.4808 210.144H64.5208V212H54.3128V200H56.4248ZM67.3879 200.976H69.4999V212H67.3879V200.976ZM62.4279 200H74.4599V201.856H62.4279V200ZM76.0628 200H78.1748V212H76.0628V200ZM85.8228 200H87.9348V212H85.8228V200ZM77.1988 205.024H86.8308V206.88H77.1988V205.024ZM104.588 203.232H102.508C102.433 202.667 102.182 202.208 101.756 201.856C101.34 201.504 100.753 201.328 99.9956 201.328C99.5583 201.328 99.1743 201.387 98.8436 201.504C98.513 201.621 98.2516 201.797 98.0596 202.032C97.8783 202.256 97.7876 202.533 97.7876 202.864C97.7876 203.099 97.8623 203.355 98.0116 203.632C98.1716 203.909 98.4436 204.208 98.8276 204.528L107.66 212H104.956L97.2116 205.472C96.6676 205.003 96.257 204.549 95.9796 204.112C95.713 203.675 95.5796 203.221 95.5796 202.752C95.5796 202.155 95.7556 201.637 96.1076 201.2C96.4596 200.752 96.961 200.405 97.6116 200.16C98.273 199.904 99.0516 199.776 99.9476 199.776C100.897 199.776 101.708 199.925 102.38 200.224C103.062 200.523 103.59 200.933 103.964 201.456C104.337 201.968 104.545 202.56 104.588 203.232ZM104.7 205.648H106.924L103.74 209.584C103.27 210.171 102.78 210.661 102.268 211.056C101.766 211.44 101.217 211.733 100.62 211.936C100.022 212.128 99.345 212.224 98.5876 212.224C97.649 212.224 96.8436 212.069 96.1716 211.76C95.5103 211.44 94.9983 211.019 94.6356 210.496C94.2836 209.973 94.1076 209.392 94.1076 208.752C94.1076 208.144 94.2623 207.6 94.5716 207.12C94.881 206.629 95.3503 206.213 95.9796 205.872C96.6196 205.531 97.425 205.291 98.3956 205.152L98.9236 206C98.049 206.203 97.377 206.523 96.9076 206.96C96.4383 207.397 96.2036 207.909 96.2036 208.496C96.2036 208.869 96.305 209.216 96.5076 209.536C96.721 209.856 97.0196 210.112 97.4036 210.304C97.7983 210.496 98.2676 210.592 98.8116 210.592C99.6543 210.592 100.364 210.421 100.94 210.08C101.516 209.739 102.022 209.275 102.46 208.688L104.7 205.648ZM126.338 211.2H125.538L129.218 200H131.426L127.362 212H124.674L120.626 201.008H121.618L117.57 212H114.882L110.818 200H113.042L116.706 211.2L115.938 211.184L119.986 200H122.274L126.338 211.2ZM142.584 205.12V206.88H134.2V205.12H142.584ZM135.592 206L134.744 211.36L133.736 210.176H143.048V212H132.584L133.544 206L132.584 200H142.968V201.824H133.736L134.744 200.64L135.592 206ZM147.362 200V211.056L146.418 210.144H155.458V212H145.25V200H147.362ZM159.175 200V211.056L158.231 210.144H167.271V212H157.063V200H159.175ZM179.995 210.72L179.131 210.816V200H181.179V212H178.491L170.075 201.184L170.923 201.088V212H168.875V200H171.627L179.995 210.72ZM193.444 205.12V206.88H185.06V205.12H193.444ZM186.452 206L185.604 211.36L184.596 210.176H193.908V212H183.444L184.404 206L183.444 200H193.828V201.824H184.596L185.604 200.64L186.452 206ZM195.374 208.096H197.518C197.582 208.576 197.779 208.997 198.11 209.36C198.451 209.723 198.899 210.005 199.454 210.208C200.008 210.4 200.648 210.496 201.374 210.496C202.451 210.496 203.304 210.331 203.934 210C204.563 209.659 204.878 209.2 204.878 208.624C204.878 208.155 204.696 207.803 204.334 207.568C203.971 207.333 203.315 207.157 202.366 207.04L199.774 206.704C198.323 206.512 197.267 206.155 196.606 205.632C195.955 205.099 195.63 204.347 195.63 203.376C195.63 202.64 195.848 202.005 196.286 201.472C196.734 200.928 197.363 200.512 198.174 200.224C198.984 199.925 199.934 199.776 201.022 199.776C202.099 199.776 203.054 199.936 203.886 200.256C204.718 200.576 205.379 201.024 205.87 201.6C206.371 202.165 206.643 202.832 206.686 203.6H204.542C204.488 203.173 204.307 202.805 203.998 202.496C203.699 202.187 203.294 201.947 202.782 201.776C202.27 201.595 201.667 201.504 200.974 201.504C199.992 201.504 199.208 201.664 198.622 201.984C198.035 202.304 197.742 202.741 197.742 203.296C197.742 203.723 197.912 204.053 198.254 204.288C198.606 204.512 199.214 204.683 200.078 204.8L202.702 205.168C203.779 205.317 204.627 205.52 205.246 205.776C205.875 206.021 206.323 206.357 206.59 206.784C206.856 207.2 206.99 207.739 206.99 208.4C206.99 209.168 206.755 209.84 206.286 210.416C205.816 210.992 205.155 211.44 204.302 211.76C203.459 212.069 202.472 212.224 201.342 212.224C200.19 212.224 199.171 212.053 198.286 211.712C197.411 211.36 196.718 210.875 196.206 210.256C195.694 209.637 195.416 208.917 195.374 208.096ZM208.217 208.096H210.361C210.425 208.576 210.623 208.997 210.953 209.36C211.295 209.723 211.743 210.005 212.297 210.208C212.852 210.4 213.492 210.496 214.217 210.496C215.295 210.496 216.148 210.331 216.777 210C217.407 209.659 217.721 209.2 217.721 208.624C217.721 208.155 217.54 207.803 217.177 207.568C216.815 207.333 216.159 207.157 215.209 207.04L212.617 206.704C211.167 206.512 210.111 206.155 209.449 205.632C208.799 205.099 208.473 204.347 208.473 203.376C208.473 202.64 208.692 202.005 209.129 201.472C209.577 200.928 210.207 200.512 211.017 200.224C211.828 199.925 212.777 199.776 213.865 199.776C214.943 199.776 215.897 199.936 216.729 200.256C217.561 200.576 218.223 201.024 218.713 201.6C219.215 202.165 219.487 202.832 219.529 203.6H217.385C217.332 203.173 217.151 202.805 216.841 202.496C216.543 202.187 216.137 201.947 215.625 201.776C215.113 201.595 214.511 201.504 213.817 201.504C212.836 201.504 212.052 201.664 211.465 201.984C210.879 202.304 210.585 202.741 210.585 203.296C210.585 203.723 210.756 204.053 211.097 204.288C211.449 204.512 212.057 204.683 212.921 204.8L215.545 205.168C216.623 205.317 217.471 205.52 218.089 205.776C218.719 206.021 219.167 206.357 219.433 206.784C219.7 207.2 219.833 207.739 219.833 208.4C219.833 209.168 219.599 209.84 219.129 210.416C218.66 210.992 217.999 211.44 217.145 211.76C216.303 212.069 215.316 212.224 214.185 212.224C213.033 212.224 212.015 212.053 211.129 211.712C210.255 211.36 209.561 210.875 209.049 210.256C208.537 209.637 208.26 208.917 208.217 208.096Z" fill="white"/>
<path d="M27.296 252.48C24.5013 252.48 22.048 251.957 19.936 250.912C17.8453 249.867 16.2133 248.416 15.04 246.56C13.8667 244.683 13.28 242.496 13.28 240C13.28 237.504 13.8667 235.328 15.04 233.472C16.2133 231.595 17.8453 230.133 19.936 229.088C22.048 228.043 24.5013 227.52 27.296 227.52C30.0907 227.52 32.5333 228.043 34.624 229.088C36.736 230.133 38.3787 231.595 39.552 233.472C40.7253 235.328 41.312 237.504 41.312 240C41.312 242.496 40.7253 244.683 39.552 246.56C38.3787 248.416 36.736 249.867 34.624 250.912C32.5333 251.957 30.0907 252.48 27.296 252.48ZM27.296 247.648C29.0453 247.648 30.5493 247.339 31.808 246.72C33.088 246.101 34.0693 245.216 34.752 244.064C35.456 242.912 35.808 241.557 35.808 240C35.808 238.443 35.456 237.088 34.752 235.936C34.0693 234.784 33.088 233.899 31.808 233.28C30.5493 232.661 29.0453 232.352 27.296 232.352C25.568 232.352 24.064 232.661 22.784 233.28C21.504 233.899 20.512 234.784 19.808 235.936C19.1253 237.088 18.784 238.443 18.784 240C18.784 241.557 19.1253 242.912 19.808 244.064C20.512 245.216 21.504 246.101 22.784 246.72C24.064 247.339 25.568 247.648 27.296 247.648ZM47.6818 238.176H65.0258V242.816H47.6818V238.176ZM65.5698 228V232.672H47.7458L50.4978 229.888V252H45.0578V228H65.5698ZM88.7775 249.6H86.3775L96.1695 228H101.93L90.5375 252H84.4255L73.0655 228H78.8895L88.7775 249.6ZM104.527 228H109.967V252H104.527V228ZM134.71 237.92V242.08H117.526V237.92H134.71ZM121.174 240L119.574 250.176L117.206 247.488H135.702V252H114.102L115.958 240L114.102 228H135.542V232.512H117.206L119.574 229.824L121.174 240ZM147.143 230.432H152.551V252H147.143V230.432ZM137.575 228H162.087V232.8H137.575V228ZM187.36 248.416L185.472 248.704V228H190.752V252H183.872L168.512 231.296L170.368 231.008V252H165.12V228H172.16L187.36 248.416ZM199.588 246.944V242.528H216.228V246.944H199.588ZM211.524 228L222.756 252H216.964L207.14 230.208H208.932L199.108 252H193.316L204.548 228H211.524ZM259.035 228V252H253.851V229.824L255.227 229.92L244.987 252H239.387L229.147 229.984L230.491 229.856V252H225.339V228H233.691L243.355 249.376H241.019L250.683 228H259.035ZM262.653 244.16H268.157C268.285 244.971 268.637 245.685 269.213 246.304C269.81 246.901 270.599 247.371 271.581 247.712C272.583 248.032 273.735 248.192 275.037 248.192C276.935 248.192 278.429 247.925 279.517 247.392C280.626 246.837 281.181 246.069 281.181 245.088C281.181 244.32 280.861 243.733 280.221 243.328C279.602 242.901 278.439 242.592 276.733 242.4L271.901 241.856C268.786 241.515 266.525 240.789 265.117 239.68C263.73 238.549 263.037 236.981 263.037 234.976C263.037 233.397 263.495 232.053 264.413 230.944C265.351 229.835 266.663 228.992 268.349 228.416C270.034 227.819 272.018 227.52 274.301 227.52C276.519 227.52 278.493 227.851 280.221 228.512C281.949 229.152 283.325 230.059 284.349 231.232C285.373 232.384 285.927 233.739 286.013 235.296H280.509C280.402 234.592 280.082 233.984 279.549 233.472C279.037 232.939 278.322 232.533 277.405 232.256C276.487 231.957 275.41 231.808 274.173 231.808C272.445 231.808 271.069 232.064 270.045 232.576C269.021 233.088 268.509 233.813 268.509 234.752C268.509 235.477 268.807 236.043 269.405 236.448C270.023 236.832 271.101 237.12 272.637 237.312L277.661 237.92C279.879 238.155 281.639 238.539 282.941 239.072C284.263 239.584 285.202 240.277 285.757 241.152C286.333 242.027 286.621 243.136 286.621 244.48C286.621 246.08 286.13 247.488 285.149 248.704C284.189 249.899 282.834 250.827 281.085 251.488C279.335 252.149 277.287 252.48 274.941 252.48C272.551 252.48 270.45 252.139 268.637 251.456C266.823 250.752 265.394 249.781 264.349 248.544C263.303 247.285 262.738 245.824 262.653 244.16ZM310.085 237.92V242.08H292.901V237.92H310.085ZM296.549 240L294.949 250.176L292.581 247.488H311.077V252H289.477L291.333 240L289.477 228H310.917V232.512H292.581L294.949 229.824L296.549 240ZM313.934 244.16H319.438C319.566 244.971 319.918 245.685 320.494 246.304C321.091 246.901 321.881 247.371 322.862 247.712C323.865 248.032 325.017 248.192 326.318 248.192C328.217 248.192 329.71 247.925 330.798 247.392C331.907 246.837 332.462 246.069 332.462 245.088C332.462 244.32 332.142 243.733 331.502 243.328C330.883 242.901 329.721 242.592 328.014 242.4L323.182 241.856C320.067 241.515 317.806 240.789 316.398 239.68C315.011 238.549 314.318 236.981 314.318 234.976C314.318 233.397 314.777 232.053 315.694 230.944C316.633 229.835 317.945 228.992 319.63 228.416C321.315 227.819 323.299 227.52 325.582 227.52C327.801 227.52 329.774 227.851 331.502 228.512C333.23 229.152 334.606 230.059 335.63 231.232C336.654 232.384 337.209 233.739 337.294 235.296H331.79C331.683 234.592 331.363 233.984 330.83 233.472C330.318 232.939 329.603 232.533 328.686 232.256C327.769 231.957 326.691 231.808 325.454 231.808C323.726 231.808 322.35 232.064 321.326 232.576C320.302 233.088 319.79 233.813 319.79 234.752C319.79 235.477 320.089 236.043 320.686 236.448C321.305 236.832 322.382 237.12 323.918 237.312L328.942 237.92C331.161 238.155 332.921 238.539 334.222 239.072C335.545 239.584 336.483 240.277 337.038 241.152C337.614 242.027 337.902 243.136 337.902 244.48C337.902 246.08 337.411 247.488 336.43 248.704C335.47 249.899 334.115 250.827 332.366 251.488C330.617 252.149 328.569 252.48 326.222 252.48C323.833 252.48 321.731 252.139 319.918 251.456C318.105 250.752 316.675 249.781 315.63 248.544C314.585 247.285 314.019 245.824 313.934 244.16ZM17.088 278.176H34.432V282.816H17.088V278.176ZM34.976 268V272.672H17.152L19.904 269.888V292H14.464V268H34.976ZM43.7403 281.472C43.7403 282.752 43.9856 283.851 44.4763 284.768C44.9669 285.685 45.6816 286.4 46.6203 286.912C47.5803 287.403 48.7323 287.648 50.0763 287.648C51.4416 287.648 52.5936 287.403 53.5323 286.912C54.4709 286.4 55.1856 285.685 55.6763 284.768C56.1669 283.851 56.4123 282.752 56.4123 281.472V268H61.8523V281.728C61.8523 283.883 61.3616 285.771 60.3803 287.392C59.3989 288.992 58.0229 290.24 56.2523 291.136C54.4816 292.032 52.4229 292.48 50.0763 292.48C47.7296 292.48 45.6709 292.032 43.9003 291.136C42.1509 290.24 40.7749 288.992 39.7723 287.392C38.7909 285.771 38.3003 283.883 38.3003 281.728V268H43.7403V281.472ZM74.112 270.432H79.52V292H74.112V270.432ZM64.544 268H89.056V272.8H64.544V268ZM97.209 281.472C97.209 282.752 97.4543 283.851 97.945 284.768C98.4357 285.685 99.1503 286.4 100.089 286.912C101.049 287.403 102.201 287.648 103.545 287.648C104.91 287.648 106.062 287.403 107.001 286.912C107.94 286.4 108.654 285.685 109.145 284.768C109.636 283.851 109.881 282.752 109.881 281.472V268H115.321V281.728C115.321 283.883 114.83 285.771 113.849 287.392C112.868 288.992 111.492 290.24 109.721 291.136C107.95 292.032 105.892 292.48 103.545 292.48C101.198 292.48 99.1397 292.032 97.369 291.136C95.6197 290.24 94.2437 288.992 93.241 287.392C92.2597 285.771 91.769 283.883 91.769 281.728V268H97.209V281.472ZM123.709 278.656H132.957C134.173 278.656 135.133 278.379 135.837 277.824C136.562 277.248 136.925 276.459 136.925 275.456C136.925 274.453 136.562 273.675 135.837 273.12C135.133 272.565 134.173 272.288 132.957 272.288H122.909L125.373 269.504V292H119.933V268H133.597C135.346 268 136.882 268.32 138.205 268.96C139.527 269.579 140.562 270.443 141.309 271.552C142.055 272.661 142.429 273.963 142.429 275.456C142.429 276.928 142.055 278.219 141.309 279.328C140.562 280.437 139.527 281.312 138.205 281.952C136.882 282.571 135.346 282.88 133.597 282.88H123.709V278.656ZM127.869 280.768H134.077L143.133 292H136.765L127.869 280.768ZM166.335 277.92V282.08H149.151V277.92H166.335ZM152.799 280L151.199 290.176L148.831 287.488H167.327V292H145.727L147.583 280L145.727 268H167.167V272.512H148.831L151.199 269.824L152.799 280Z" fill="#24CBFF"/>
<path d="M13.8864 320H12.4091L16.6818 308.364H18.1364L22.4091 320H20.9318L17.4545 310.205H17.3636L13.8864 320ZM14.4318 315.455H20.3864V316.705H14.4318V315.455ZM25.3807 314.75V320H24.0398V311.273H25.3352V312.636H25.4489C25.6534 312.193 25.964 311.837 26.3807 311.568C26.7973 311.295 27.3352 311.159 27.9943 311.159C28.5852 311.159 29.1023 311.28 29.5455 311.523C29.9886 311.761 30.3333 312.125 30.5795 312.614C30.8258 313.098 30.9489 313.712 30.9489 314.455V320H29.608V314.545C29.608 313.86 29.4299 313.326 29.0739 312.943C28.7178 312.557 28.2292 312.364 27.608 312.364C27.1799 312.364 26.7973 312.456 26.4602 312.642C26.1269 312.828 25.8636 313.098 25.6705 313.455C25.4773 313.811 25.3807 314.242 25.3807 314.75ZM34.7401 314.75V320H33.3991V311.273H34.6946V312.636H34.8082C35.0128 312.193 35.3234 311.837 35.7401 311.568C36.1567 311.295 36.6946 311.159 37.3537 311.159C37.9446 311.159 38.4616 311.28 38.9048 311.523C39.348 311.761 39.6927 312.125 39.9389 312.614C40.1851 313.098 40.3082 313.712 40.3082 314.455V320H38.9673V314.545C38.9673 313.86 38.7893 313.326 38.4332 312.943C38.0772 312.557 37.5885 312.364 36.9673 312.364C36.5393 312.364 36.1567 312.456 35.8196 312.642C35.4863 312.828 35.223 313.098 35.0298 313.455C34.8366 313.811 34.7401 314.242 34.7401 314.75ZM48.2585 316.432V311.273H49.5994V320H48.2585V318.523H48.1676C47.9631 318.966 47.6449 319.343 47.2131 319.653C46.7813 319.96 46.2358 320.114 45.5767 320.114C45.0312 320.114 44.5464 319.994 44.1222 319.756C43.6979 319.513 43.3646 319.15 43.1222 318.665C42.8797 318.176 42.7585 317.561 42.7585 316.818V311.273H44.0994V316.727C44.0994 317.364 44.2775 317.871 44.6335 318.25C44.9934 318.629 45.4517 318.818 46.0085 318.818C46.3419 318.818 46.6809 318.733 47.0256 318.562C47.3741 318.392 47.6657 318.131 47.9006 317.778C48.1392 317.426 48.2585 316.977 48.2585 316.432ZM54.6236 320.205C54.0705 320.205 53.5687 320.1 53.1179 319.892C52.6671 319.68 52.3092 319.375 52.044 318.977C51.7789 318.576 51.6463 318.091 51.6463 317.523C51.6463 317.023 51.7448 316.617 51.9418 316.307C52.1387 315.992 52.402 315.746 52.7315 315.568C53.0611 315.39 53.4247 315.258 53.8224 315.17C54.224 315.08 54.6274 315.008 55.0327 314.955C55.563 314.886 55.9929 314.835 56.3224 314.801C56.6558 314.763 56.8982 314.701 57.0497 314.614C57.205 314.527 57.2827 314.375 57.2827 314.159V314.114C57.2827 313.553 57.1293 313.117 56.8224 312.807C56.5194 312.496 56.0592 312.341 55.4418 312.341C54.8016 312.341 54.2997 312.481 53.9361 312.761C53.5724 313.042 53.3168 313.341 53.169 313.659L51.8963 313.205C52.1236 312.674 52.4266 312.261 52.8054 311.966C53.188 311.667 53.6046 311.458 54.0554 311.341C54.5099 311.22 54.9569 311.159 55.3963 311.159C55.6766 311.159 55.9986 311.193 56.3622 311.261C56.7296 311.326 57.0838 311.46 57.4247 311.665C57.7694 311.869 58.0554 312.178 58.2827 312.591C58.5099 313.004 58.6236 313.557 58.6236 314.25V320H57.2827V318.818H57.2145C57.1236 319.008 56.9721 319.21 56.7599 319.426C56.5478 319.642 56.2656 319.826 55.9134 319.977C55.5611 320.129 55.1312 320.205 54.6236 320.205ZM54.8281 319C55.3584 319 55.8054 318.896 56.169 318.688C56.5365 318.479 56.813 318.21 56.9986 317.881C57.188 317.551 57.2827 317.205 57.2827 316.841V315.614C57.2259 315.682 57.1009 315.744 56.9077 315.801C56.7183 315.854 56.4986 315.902 56.2486 315.943C56.0024 315.981 55.7618 316.015 55.527 316.045C55.2959 316.072 55.1084 316.095 54.9645 316.114C54.616 316.159 54.2902 316.233 53.9872 316.335C53.688 316.434 53.4455 316.583 53.2599 316.784C53.0781 316.981 52.9872 317.25 52.9872 317.591C52.9872 318.057 53.1596 318.409 53.5043 318.648C53.8527 318.883 54.294 319 54.8281 319ZM62.4119 308.364V320H61.071V308.364H62.4119ZM69.5497 320V308.364H73.4815C74.3906 308.364 75.1368 308.519 75.7202 308.83C76.3035 309.136 76.7353 309.559 77.0156 310.097C77.2959 310.634 77.4361 311.246 77.4361 311.932C77.4361 312.617 77.2959 313.225 77.0156 313.756C76.7353 314.286 76.3054 314.703 75.7259 315.006C75.1463 315.305 74.4058 315.455 73.5043 315.455H70.3224V314.182H73.4588C74.08 314.182 74.58 314.091 74.9588 313.909C75.3414 313.727 75.6179 313.47 75.7884 313.136C75.9626 312.799 76.0497 312.398 76.0497 311.932C76.0497 311.466 75.9626 311.059 75.7884 310.71C75.6141 310.362 75.3357 310.093 74.9531 309.903C74.5705 309.71 74.0649 309.614 73.4361 309.614H70.9588V320H69.5497ZM75.027 314.773L77.8906 320H76.2543L73.4361 314.773H75.027ZM83.1676 320.182C82.3267 320.182 81.6013 319.996 80.9915 319.625C80.3854 319.25 79.9176 318.727 79.5881 318.057C79.2623 317.383 79.0994 316.598 79.0994 315.705C79.0994 314.811 79.2623 314.023 79.5881 313.341C79.9176 312.655 80.3759 312.121 80.9631 311.739C81.554 311.352 82.2434 311.159 83.0312 311.159C83.4858 311.159 83.9347 311.235 84.3778 311.386C84.821 311.538 85.2244 311.784 85.5881 312.125C85.9517 312.462 86.2415 312.909 86.4574 313.466C86.6733 314.023 86.7812 314.708 86.7812 315.523V316.091H80.054V314.932H85.4176C85.4176 314.439 85.3191 314 85.1222 313.614C84.929 313.227 84.6525 312.922 84.2926 312.699C83.9366 312.475 83.5161 312.364 83.0312 312.364C82.4972 312.364 82.035 312.496 81.6449 312.761C81.2585 313.023 80.9612 313.364 80.7528 313.784C80.5445 314.205 80.4403 314.655 80.4403 315.136V315.909C80.4403 316.568 80.554 317.127 80.7812 317.585C81.0123 318.04 81.3324 318.386 81.7415 318.625C82.1506 318.86 82.6259 318.977 83.1676 318.977C83.5199 318.977 83.8381 318.928 84.1222 318.83C84.41 318.727 84.6581 318.576 84.8665 318.375C85.0748 318.17 85.2358 317.917 85.3494 317.614L86.6449 317.977C86.5085 318.417 86.2794 318.803 85.9574 319.136C85.6354 319.466 85.2377 319.723 84.7642 319.909C84.2907 320.091 83.7585 320.182 83.1676 320.182ZM88.821 323.273V311.273H90.1165V312.659H90.2756C90.3741 312.508 90.5104 312.314 90.6847 312.08C90.8627 311.841 91.1165 311.629 91.446 311.443C91.7794 311.254 92.2301 311.159 92.7983 311.159C93.5331 311.159 94.1809 311.343 94.7415 311.71C95.3021 312.078 95.7396 312.598 96.054 313.273C96.3684 313.947 96.5256 314.742 96.5256 315.659C96.5256 316.583 96.3684 317.384 96.054 318.062C95.7396 318.737 95.304 319.259 94.7472 319.631C94.1903 319.998 93.5483 320.182 92.821 320.182C92.2604 320.182 91.8116 320.089 91.4744 319.903C91.1373 319.714 90.8778 319.5 90.696 319.261C90.5142 319.019 90.3741 318.818 90.2756 318.659H90.1619V323.273H88.821ZM90.1392 315.636C90.1392 316.295 90.2358 316.877 90.429 317.381C90.6222 317.881 90.9044 318.273 91.2756 318.557C91.6468 318.837 92.1013 318.977 92.6392 318.977C93.1998 318.977 93.6676 318.83 94.0426 318.534C94.4214 318.235 94.7055 317.833 94.8949 317.33C95.0881 316.822 95.1847 316.258 95.1847 315.636C95.1847 315.023 95.09 314.47 94.9006 313.977C94.715 313.481 94.4328 313.089 94.054 312.801C93.679 312.509 93.2074 312.364 92.6392 312.364C92.0938 312.364 91.6354 312.502 91.2642 312.778C90.893 313.051 90.6127 313.434 90.4233 313.926C90.2339 314.415 90.1392 314.985 90.1392 315.636ZM102.116 320.182C101.329 320.182 100.637 319.994 100.043 319.619C99.4517 319.244 98.9896 318.72 98.6562 318.045C98.3267 317.371 98.1619 316.583 98.1619 315.682C98.1619 314.773 98.3267 313.979 98.6562 313.301C98.9896 312.623 99.4517 312.097 100.043 311.722C100.637 311.347 101.329 311.159 102.116 311.159C102.904 311.159 103.594 311.347 104.185 311.722C104.779 312.097 105.241 312.623 105.571 313.301C105.904 313.979 106.071 314.773 106.071 315.682C106.071 316.583 105.904 317.371 105.571 318.045C105.241 318.72 104.779 319.244 104.185 319.619C103.594 319.994 102.904 320.182 102.116 320.182ZM102.116 318.977C102.715 318.977 103.207 318.824 103.594 318.517C103.98 318.21 104.266 317.807 104.452 317.307C104.637 316.807 104.73 316.265 104.73 315.682C104.73 315.098 104.637 314.555 104.452 314.051C104.266 313.547 103.98 313.14 103.594 312.83C103.207 312.519 102.715 312.364 102.116 312.364C101.518 312.364 101.026 312.519 100.639 312.83C100.253 313.14 99.9669 313.547 99.7812 314.051C99.5956 314.555 99.5028 315.098 99.5028 315.682C99.5028 316.265 99.5956 316.807 99.7812 317.307C99.9669 317.807 100.253 318.21 100.639 318.517C101.026 318.824 101.518 318.977 102.116 318.977ZM108.118 320V311.273H109.413V312.591H109.504C109.663 312.159 109.951 311.809 110.368 311.54C110.785 311.271 111.254 311.136 111.777 311.136C111.875 311.136 111.999 311.138 112.146 311.142C112.294 311.146 112.406 311.152 112.482 311.159V312.523C112.436 312.511 112.332 312.494 112.169 312.472C112.01 312.445 111.841 312.432 111.663 312.432C111.239 312.432 110.86 312.521 110.527 312.699C110.197 312.873 109.936 313.116 109.743 313.426C109.554 313.733 109.459 314.083 109.459 314.477V320H108.118ZM118.413 311.273V312.409H113.891V311.273H118.413ZM115.209 309.182H116.55V317.5C116.55 317.879 116.605 318.163 116.714 318.352C116.828 318.538 116.972 318.663 117.146 318.727C117.324 318.788 117.512 318.818 117.709 318.818C117.857 318.818 117.978 318.811 118.072 318.795C118.167 318.777 118.243 318.761 118.3 318.75L118.572 319.955C118.482 319.989 118.355 320.023 118.192 320.057C118.029 320.095 117.822 320.114 117.572 320.114C117.194 320.114 116.822 320.032 116.459 319.869C116.099 319.706 115.8 319.458 115.561 319.125C115.326 318.792 115.209 318.371 115.209 317.864V309.182ZM124.908 320V318.977L128.749 314.773C129.199 314.28 129.571 313.852 129.862 313.489C130.154 313.121 130.37 312.777 130.51 312.455C130.654 312.129 130.726 311.788 130.726 311.432C130.726 311.023 130.627 310.669 130.43 310.369C130.237 310.07 129.972 309.839 129.635 309.676C129.298 309.513 128.919 309.432 128.499 309.432C128.052 309.432 127.661 309.525 127.328 309.71C126.999 309.892 126.743 310.148 126.561 310.477C126.383 310.807 126.294 311.193 126.294 311.636H124.953C124.953 310.955 125.11 310.356 125.425 309.841C125.739 309.326 126.167 308.924 126.709 308.636C127.254 308.348 127.866 308.205 128.544 308.205C129.226 308.205 129.83 308.348 130.357 308.636C130.883 308.924 131.296 309.312 131.595 309.801C131.894 310.29 132.044 310.833 132.044 311.432C132.044 311.86 131.966 312.278 131.811 312.688C131.66 313.093 131.394 313.545 131.016 314.045C130.641 314.542 130.12 315.148 129.453 315.864L126.839 318.659V318.75H132.249V320H124.908ZM138.391 320.159C137.535 320.159 136.805 319.926 136.203 319.46C135.601 318.991 135.141 318.311 134.822 317.42C134.504 316.527 134.345 315.447 134.345 314.182C134.345 312.924 134.504 311.85 134.822 310.96C135.144 310.066 135.607 309.384 136.209 308.915C136.815 308.441 137.542 308.205 138.391 308.205C139.239 308.205 139.964 308.441 140.567 308.915C141.173 309.384 141.635 310.066 141.953 310.96C142.275 311.85 142.436 312.924 142.436 314.182C142.436 315.447 142.277 316.527 141.959 317.42C141.641 318.311 141.18 318.991 140.578 319.46C139.976 319.926 139.247 320.159 138.391 320.159ZM138.391 318.909C139.239 318.909 139.898 318.5 140.368 317.682C140.838 316.864 141.072 315.697 141.072 314.182C141.072 313.174 140.964 312.316 140.749 311.608C140.536 310.9 140.23 310.36 139.828 309.989C139.43 309.617 138.951 309.432 138.391 309.432C137.55 309.432 136.893 309.847 136.419 310.676C135.946 311.502 135.709 312.67 135.709 314.182C135.709 315.189 135.815 316.045 136.027 316.75C136.239 317.455 136.544 317.991 136.942 318.358C137.343 318.725 137.826 318.909 138.391 318.909ZM144.595 320V318.977L148.436 314.773C148.887 314.28 149.258 313.852 149.55 313.489C149.841 313.121 150.057 312.777 150.197 312.455C150.341 312.129 150.413 311.788 150.413 311.432C150.413 311.023 150.315 310.669 150.118 310.369C149.925 310.07 149.66 309.839 149.322 309.676C148.985 309.513 148.607 309.432 148.186 309.432C147.739 309.432 147.349 309.525 147.016 309.71C146.686 309.892 146.43 310.148 146.249 310.477C146.071 310.807 145.982 311.193 145.982 311.636H144.641C144.641 310.955 144.798 310.356 145.112 309.841C145.427 309.326 145.855 308.924 146.396 308.636C146.942 308.348 147.554 308.205 148.232 308.205C148.913 308.205 149.518 308.348 150.044 308.636C150.571 308.924 150.983 309.312 151.283 309.801C151.582 310.29 151.732 310.833 151.732 311.432C151.732 311.86 151.654 312.278 151.499 312.688C151.347 313.093 151.082 313.545 150.703 314.045C150.328 314.542 149.807 315.148 149.141 315.864L146.527 318.659V318.75H151.936V320H144.595ZM158.214 320.159C157.464 320.159 156.796 320.03 156.209 319.773C155.625 319.515 155.161 319.157 154.817 318.699C154.476 318.237 154.29 317.701 154.26 317.091H155.692C155.722 317.466 155.851 317.79 156.078 318.062C156.305 318.331 156.603 318.54 156.97 318.688C157.338 318.835 157.745 318.909 158.192 318.909C158.692 318.909 159.135 318.822 159.521 318.648C159.908 318.473 160.211 318.231 160.43 317.92C160.65 317.61 160.76 317.25 160.76 316.841C160.76 316.413 160.654 316.036 160.442 315.71C160.23 315.381 159.919 315.123 159.51 314.938C159.101 314.752 158.601 314.659 158.01 314.659H157.078V313.409H158.01C158.472 313.409 158.877 313.326 159.226 313.159C159.578 312.992 159.853 312.758 160.05 312.455C160.25 312.152 160.351 311.795 160.351 311.386C160.351 310.992 160.264 310.65 160.089 310.358C159.915 310.066 159.669 309.839 159.351 309.676C159.036 309.513 158.665 309.432 158.237 309.432C157.836 309.432 157.457 309.506 157.101 309.653C156.749 309.797 156.461 310.008 156.237 310.284C156.014 310.557 155.893 310.886 155.874 311.273H154.51C154.533 310.663 154.716 310.129 155.061 309.67C155.406 309.208 155.857 308.848 156.413 308.591C156.974 308.333 157.589 308.205 158.26 308.205C158.98 308.205 159.597 308.35 160.112 308.642C160.627 308.93 161.023 309.311 161.3 309.784C161.576 310.258 161.714 310.769 161.714 311.318C161.714 311.973 161.542 312.532 161.197 312.994C160.857 313.456 160.393 313.777 159.805 313.955V314.045C160.54 314.167 161.114 314.479 161.527 314.983C161.94 315.483 162.146 316.102 162.146 316.841C162.146 317.473 161.974 318.042 161.629 318.545C161.288 319.045 160.822 319.439 160.232 319.727C159.641 320.015 158.968 320.159 158.214 320.159Z" fill="#24CBFF"/>
</svg>
