<svg width="100%" viewBox="0 0 163 101" fill="none" xmlns="http://www.w3.org/2000/svg">
<path d="M10.92 19.36C8.904 19.36 7.16 18.976 5.688 18.208C4.232 17.424 3.104 16.328 2.304 14.92C1.504 13.512 1.104 11.872 1.104 10C1.104 8.128 1.504 6.488 2.304 5.08C3.104 3.672 4.232 2.584 5.688 1.816C7.16 1.032 8.904 0.639999 10.92 0.639999C12.92 0.639999 14.648 1.032 16.104 1.816C17.576 2.584 18.712 3.672 19.512 5.08C20.312 6.488 20.712 8.128 20.712 10C20.712 11.872 20.312 13.512 19.512 14.92C18.712 16.328 17.576 17.424 16.104 18.208C14.648 18.976 12.92 19.36 10.92 19.36ZM10.92 16.048C12.728 16.048 14.128 15.52 15.12 14.464C16.128 13.392 16.632 11.904 16.632 10C16.632 8.08 16.128 6.592 15.12 5.536C14.128 4.48 12.728 3.952 10.92 3.952C9.112 3.952 7.704 4.48 6.696 5.536C5.688 6.592 5.184 8.08 5.184 10C5.184 11.92 5.688 13.408 6.696 14.464C7.704 15.52 9.112 16.048 10.92 16.048ZM23.0683 6.688C23.1643 5.552 23.5643 4.528 24.2683 3.616C24.9883 2.704 26.0043 1.984 27.3163 1.456C28.6283 0.911999 30.2043 0.639999 32.0443 0.639999C33.6603 0.639999 35.0603 0.847999 36.2443 1.264C37.4283 1.68 38.3483 2.256 39.0043 2.992C39.6603 3.728 39.9883 4.6 39.9883 5.608C39.9883 6.424 39.7403 7.168 39.2443 7.84C38.7643 8.496 38.0123 9.024 36.9883 9.424C35.9643 9.808 34.6683 9.992 33.1003 9.976V9.52C34.6203 9.44 35.9163 9.56 36.9883 9.88C38.0763 10.184 38.9163 10.664 39.5083 11.32C40.1003 11.976 40.3963 12.8 40.3963 13.792C40.3963 14.864 40.0523 15.824 39.3643 16.672C38.6923 17.504 37.7083 18.16 36.4123 18.64C35.1163 19.12 33.5403 19.36 31.6843 19.36C29.8763 19.36 28.3003 19.104 26.9563 18.592C25.6123 18.08 24.5643 17.36 23.8123 16.432C23.0603 15.504 22.6523 14.416 22.5883 13.168H26.6683C26.7963 14.128 27.2763 14.864 28.1083 15.376C28.9403 15.888 30.1323 16.144 31.6843 16.144C33.1883 16.144 34.3243 15.912 35.0923 15.448C35.8603 14.984 36.2443 14.336 36.2443 13.504C36.2443 13.008 36.1163 12.592 35.8603 12.256C35.6043 11.92 35.1643 11.672 34.5403 11.512C33.9323 11.336 33.1003 11.248 32.0443 11.248H28.8763V8.392H32.0443C33.4203 8.392 34.4043 8.184 34.9963 7.768C35.5883 7.352 35.8843 6.816 35.8843 6.16C35.8843 5.424 35.5483 4.856 34.8763 4.456C34.2043 4.056 33.1883 3.856 31.8283 3.856C30.4363 3.856 29.3483 4.104 28.5643 4.6C27.7803 5.08 27.3083 5.776 27.1483 6.688H23.0683Z" fill="white"/>
<rect y="41" width="163" height="9" fill="url(#paint0_linear_158_783)"/>
<path d="M11.2273 75.1818C11.2273 76.4091 11.0057 77.4697 10.5625 78.3636C10.1193 79.2576 9.51136 79.947 8.73864 80.4318C7.96591 80.9167 7.08333 81.1591 6.09091 81.1591C5.09849 81.1591 4.21591 80.9167 3.44318 80.4318C2.67045 79.947 2.0625 79.2576 1.61932 78.3636C1.17614 77.4697 0.954545 76.4091 0.954545 75.1818C0.954545 73.9545 1.17614 72.8939 1.61932 72C2.0625 71.1061 2.67045 70.4167 3.44318 69.9318C4.21591 69.447 5.09849 69.2045 6.09091 69.2045C7.08333 69.2045 7.96591 69.447 8.73864 69.9318C9.51136 70.4167 10.1193 71.1061 10.5625 72C11.0057 72.8939 11.2273 73.9545 11.2273 75.1818ZM9.86364 75.1818C9.86364 74.1742 9.69508 73.3239 9.35795 72.6307C9.02462 71.9375 8.57197 71.4129 8 71.0568C7.43182 70.7008 6.79545 70.5227 6.09091 70.5227C5.38636 70.5227 4.74811 70.7008 4.17614 71.0568C3.60795 71.4129 3.1553 71.9375 2.81818 72.6307C2.48485 73.3239 2.31818 74.1742 2.31818 75.1818C2.31818 76.1894 2.48485 77.0398 2.81818 77.733C3.1553 78.4261 3.60795 78.9508 4.17614 79.3068C4.74811 79.6629 5.38636 79.8409 6.09091 79.8409C6.79545 79.8409 7.43182 79.6629 8 79.3068C8.57197 78.9508 9.02462 78.4261 9.35795 77.733C9.69508 77.0398 9.86364 76.1894 9.86364 75.1818ZM21.233 69.3636H22.642V77.0682C22.642 77.8636 22.4545 78.5739 22.0795 79.1989C21.7083 79.8201 21.1837 80.3106 20.5057 80.6705C19.8277 81.0265 19.0322 81.2045 18.1193 81.2045C17.2064 81.2045 16.411 81.0265 15.733 80.6705C15.0549 80.3106 14.5284 79.8201 14.1534 79.1989C13.7822 78.5739 13.5966 77.8636 13.5966 77.0682V69.3636H15.0057V76.9545C15.0057 77.5227 15.1307 78.0284 15.3807 78.4716C15.6307 78.911 15.9867 79.2576 16.4489 79.5114C16.9148 79.7614 17.4716 79.8864 18.1193 79.8864C18.767 79.8864 19.3239 79.7614 19.7898 79.5114C20.2557 79.2576 20.6117 78.911 20.858 78.4716C21.108 78.0284 21.233 77.5227 21.233 76.9545V69.3636ZM25.456 81V69.3636H29.3878C30.2969 69.3636 31.0431 69.5189 31.6264 69.8295C32.2098 70.1364 32.6416 70.5587 32.9219 71.0966C33.2022 71.6345 33.3423 72.2462 33.3423 72.9318C33.3423 73.6174 33.2022 74.2254 32.9219 74.7557C32.6416 75.286 32.2116 75.7027 31.6321 76.0057C31.0526 76.3049 30.312 76.4545 29.4105 76.4545H26.2287V75.1818H29.3651C29.9863 75.1818 30.4863 75.0909 30.8651 74.9091C31.2476 74.7273 31.5241 74.4697 31.6946 74.1364C31.8688 73.7992 31.956 73.3977 31.956 72.9318C31.956 72.4659 31.8688 72.0587 31.6946 71.7102C31.5204 71.3617 31.242 71.0928 30.8594 70.9034C30.4768 70.7102 29.9711 70.6136 29.3423 70.6136H26.8651V81H25.456ZM30.9332 75.7727L33.7969 81H32.1605L29.3423 75.7727H30.9332ZM1.88636 100H0.409091L4.68182 88.3636H6.13636L10.4091 100H8.93182L5.45455 90.2045H5.36364L1.88636 100ZM2.43182 95.4545H8.38636V96.7045H2.43182V95.4545ZM21.0384 92H19.6293C19.5459 91.5947 19.4001 91.2386 19.1918 90.9318C18.9872 90.625 18.7372 90.3674 18.4418 90.1591C18.1501 89.947 17.8262 89.7879 17.4702 89.6818C17.1141 89.5758 16.7429 89.5227 16.3565 89.5227C15.652 89.5227 15.0137 89.7008 14.4418 90.0568C13.8736 90.4129 13.4209 90.9375 13.0838 91.6307C12.7505 92.3239 12.5838 93.1742 12.5838 94.1818C12.5838 95.1894 12.7505 96.0398 13.0838 96.733C13.4209 97.4261 13.8736 97.9508 14.4418 98.3068C15.0137 98.6629 15.652 98.8409 16.3565 98.8409C16.7429 98.8409 17.1141 98.7879 17.4702 98.6818C17.8262 98.5758 18.1501 98.4186 18.4418 98.2102C18.7372 97.9981 18.9872 97.7386 19.1918 97.4318C19.4001 97.1212 19.5459 96.7652 19.6293 96.3636H21.0384C20.9323 96.9583 20.7391 97.4905 20.4588 97.9602C20.1785 98.4299 19.83 98.8295 19.4134 99.1591C18.9967 99.4848 18.5289 99.733 18.0099 99.9034C17.4948 100.074 16.9437 100.159 16.3565 100.159C15.3641 100.159 14.4815 99.9167 13.7088 99.4318C12.9361 98.947 12.3281 98.2576 11.8849 97.3636C11.4418 96.4697 11.2202 95.4091 11.2202 94.1818C11.2202 92.9545 11.4418 91.8939 11.8849 91C12.3281 90.1061 12.9361 89.4167 13.7088 88.9318C14.4815 88.447 15.3641 88.2045 16.3565 88.2045C16.9437 88.2045 17.4948 88.2898 18.0099 88.4602C18.5289 88.6307 18.9967 88.8807 19.4134 89.2102C19.83 89.536 20.1785 89.9337 20.4588 90.4034C20.7391 90.8693 20.9323 91.4015 21.0384 92ZM23.3153 100V88.3636H24.7244V93.5455H30.929V88.3636H32.3381V100H30.929V94.7955H24.7244V100H23.3153ZM36.5682 88.3636V100H35.1591V88.3636H36.5682ZM39.3935 100V88.3636H46.4162V89.6136H40.8026V93.5455H46.0526V94.7955H40.8026V98.75H46.5071V100H39.3935ZM49.4332 88.3636L52.8878 98.1591H53.0241L56.4787 88.3636H57.956L53.6832 100H52.2287L47.956 88.3636H49.4332ZM59.7685 100V88.3636H66.7912V89.6136H61.1776V93.5455H66.4276V94.7955H61.1776V98.75H66.8821V100H59.7685ZM69.331 88.3636H71.0128L74.9673 98.0227H75.1037L79.0582 88.3636H80.7401V100H79.4219V91.1591H79.3082L75.6719 100H74.3991L70.7628 91.1591H70.6491V100H69.331V88.3636ZM83.5653 100V88.3636H90.5881V89.6136H84.9744V93.5455H90.2244V94.7955H84.9744V98.75H90.679V100H83.5653ZM102.355 88.3636V100H100.991L94.6506 90.8636H94.5369V100H93.1278V88.3636H94.4915L100.855 97.5227H100.969V88.3636H102.355ZM104.538 89.6136V88.3636H113.266V89.6136H109.607V100H108.197V89.6136H104.538Z" fill="white"/>
<defs>
<linearGradient id="paint0_linear_158_783" x1="0" y1="45.5" x2="163" y2="45.5" gradientUnits="userSpaceOnUse">
<stop stop-color="#24CBFF" stop-opacity="0.5"/>
<stop offset="1" stop-color="#24408E" stop-opacity="0"/>
</linearGradient>
</defs>
</svg>
