<svg width="100%" viewBox="0 0 163 101" fill="none" xmlns="http://www.w3.org/2000/svg">
<path d="M10.92 19.36C8.904 19.36 7.16 18.976 5.688 18.208C4.232 17.424 3.104 16.328 2.304 14.92C1.504 13.512 1.104 11.872 1.104 10C1.104 8.128 1.504 6.488 2.304 5.08C3.104 3.672 4.232 2.584 5.688 1.816C7.16 1.032 8.904 0.639999 10.92 0.639999C12.92 0.639999 14.648 1.032 16.104 1.816C17.576 2.584 18.712 3.672 19.512 5.08C20.312 6.488 20.712 8.128 20.712 10C20.712 11.872 20.312 13.512 19.512 14.92C18.712 16.328 17.576 17.424 16.104 18.208C14.648 18.976 12.92 19.36 10.92 19.36ZM10.92 16.048C12.728 16.048 14.128 15.52 15.12 14.464C16.128 13.392 16.632 11.904 16.632 10C16.632 8.08 16.128 6.592 15.12 5.536C14.128 4.48 12.728 3.952 10.92 3.952C9.112 3.952 7.704 4.48 6.696 5.536C5.688 6.592 5.184 8.08 5.184 10C5.184 11.92 5.688 13.408 6.696 14.464C7.704 15.52 9.112 16.048 10.92 16.048ZM32.4043 0.639999C33.9083 0.639999 35.2363 0.863999 36.3883 1.312C37.5403 1.76 38.4763 2.376 39.1963 3.16C39.9323 3.928 40.3803 4.808 40.5403 5.8H36.6763C36.4363 5.224 35.9963 4.744 35.3563 4.36C34.7163 3.96 33.7723 3.76 32.5243 3.76C31.2123 3.76 30.1323 4.008 29.2843 4.504C28.4363 4.984 27.8123 5.68 27.4123 6.592C27.0123 7.488 26.8123 8.576 26.8123 9.856C26.8123 11.216 27.0363 12.376 27.4843 13.336C27.9323 14.28 28.5883 15 29.4523 15.496C30.3323 15.976 31.4043 16.216 32.6683 16.216C33.5803 16.216 34.3483 16.088 34.9723 15.832C35.5963 15.576 36.0683 15.224 36.3883 14.776C36.7083 14.328 36.8683 13.824 36.8683 13.264C36.8683 12.72 36.7243 12.24 36.4363 11.824C36.1483 11.392 35.7083 11.056 35.1163 10.816C34.5243 10.576 33.7803 10.456 32.8843 10.456C31.6683 10.456 30.5323 10.736 29.4763 11.296C28.4203 11.856 27.5003 12.624 26.7163 13.6L25.2043 12.544C25.7163 11.552 26.3803 10.664 27.1963 9.88C28.0123 9.096 28.9723 8.48 30.0763 8.032C31.1803 7.568 32.4203 7.336 33.7963 7.336C35.2523 7.336 36.5163 7.576 37.5883 8.056C38.6603 8.536 39.4843 9.216 40.0603 10.096C40.6523 10.96 40.9483 11.976 40.9483 13.144C40.9483 14.36 40.6123 15.44 39.9403 16.384C39.2843 17.312 38.3323 18.04 37.0843 18.568C35.8523 19.096 34.3643 19.36 32.6203 19.36C30.4923 19.36 28.7083 18.968 27.2683 18.184C25.8283 17.384 24.7483 16.28 24.0283 14.872C23.3083 13.448 22.9483 11.824 22.9483 10C22.9483 8.176 23.3083 6.56 24.0283 5.152C24.7483 3.744 25.8123 2.64 27.2203 1.84C28.6283 1.04 30.3563 0.639999 32.4043 0.639999Z" fill="white"/>
<rect y="41" width="163" height="9" fill="url(#paint0_linear_158_783)"/>
<path d="M11.2273 75.1818C11.2273 76.4091 11.0057 77.4697 10.5625 78.3636C10.1193 79.2576 9.51136 79.947 8.73864 80.4318C7.96591 80.9167 7.08333 81.1591 6.09091 81.1591C5.09849 81.1591 4.21591 80.9167 3.44318 80.4318C2.67045 79.947 2.0625 79.2576 1.61932 78.3636C1.17614 77.4697 0.954545 76.4091 0.954545 75.1818C0.954545 73.9545 1.17614 72.8939 1.61932 72C2.0625 71.1061 2.67045 70.4167 3.44318 69.9318C4.21591 69.447 5.09849 69.2045 6.09091 69.2045C7.08333 69.2045 7.96591 69.447 8.73864 69.9318C9.51136 70.4167 10.1193 71.1061 10.5625 72C11.0057 72.8939 11.2273 73.9545 11.2273 75.1818ZM9.86364 75.1818C9.86364 74.1742 9.69508 73.3239 9.35795 72.6307C9.02462 71.9375 8.57197 71.4129 8 71.0568C7.43182 70.7008 6.79545 70.5227 6.09091 70.5227C5.38636 70.5227 4.74811 70.7008 4.17614 71.0568C3.60795 71.4129 3.1553 71.9375 2.81818 72.6307C2.48485 73.3239 2.31818 74.1742 2.31818 75.1818C2.31818 76.1894 2.48485 77.0398 2.81818 77.733C3.1553 78.4261 3.60795 78.9508 4.17614 79.3068C4.74811 79.6629 5.38636 79.8409 6.09091 79.8409C6.79545 79.8409 7.43182 79.6629 8 79.3068C8.57197 78.9508 9.02462 78.4261 9.35795 77.733C9.69508 77.0398 9.86364 76.1894 9.86364 75.1818ZM21.233 69.3636H22.642V77.0682C22.642 77.8636 22.4545 78.5739 22.0795 79.1989C21.7083 79.8201 21.1837 80.3106 20.5057 80.6705C19.8277 81.0265 19.0322 81.2045 18.1193 81.2045C17.2064 81.2045 16.411 81.0265 15.733 80.6705C15.0549 80.3106 14.5284 79.8201 14.1534 79.1989C13.7822 78.5739 13.5966 77.8636 13.5966 77.0682V69.3636H15.0057V76.9545C15.0057 77.5227 15.1307 78.0284 15.3807 78.4716C15.6307 78.911 15.9867 79.2576 16.4489 79.5114C16.9148 79.7614 17.4716 79.8864 18.1193 79.8864C18.767 79.8864 19.3239 79.7614 19.7898 79.5114C20.2557 79.2576 20.6117 78.911 20.858 78.4716C21.108 78.0284 21.233 77.5227 21.233 76.9545V69.3636ZM25.456 81V69.3636H29.3878C30.2969 69.3636 31.0431 69.5189 31.6264 69.8295C32.2098 70.1364 32.6416 70.5587 32.9219 71.0966C33.2022 71.6345 33.3423 72.2462 33.3423 72.9318C33.3423 73.6174 33.2022 74.2254 32.9219 74.7557C32.6416 75.286 32.2116 75.7027 31.6321 76.0057C31.0526 76.3049 30.312 76.4545 29.4105 76.4545H26.2287V75.1818H29.3651C29.9863 75.1818 30.4863 75.0909 30.8651 74.9091C31.2476 74.7273 31.5241 74.4697 31.6946 74.1364C31.8688 73.7992 31.956 73.3977 31.956 72.9318C31.956 72.4659 31.8688 72.0587 31.6946 71.7102C31.5204 71.3617 31.242 71.0928 30.8594 70.9034C30.4768 70.7102 29.9711 70.6136 29.3423 70.6136H26.8651V81H25.456ZM30.9332 75.7727L33.7969 81H32.1605L29.3423 75.7727H30.9332ZM1.40909 100V88.3636H8.38636V89.6136H2.81818V93.5455H7.86364V94.7955H2.81818V100H1.40909ZM12.2088 88.3636V100H10.7997V88.3636H12.2088ZM24.2614 88.3636V100H22.8977L16.5568 90.8636H16.4432V100H15.0341V88.3636H16.3977L22.7614 97.5227H22.875V88.3636H24.2614ZM27.5582 100H26.081L30.3537 88.3636H31.8082L36.081 100H34.6037L31.1264 90.2045H31.0355L27.5582 100ZM28.1037 95.4545H34.0582V96.7045H28.1037V95.4545ZM47.1207 88.3636V100H45.7571L39.4162 90.8636H39.3026V100H37.8935V88.3636H39.2571L45.6207 97.5227H45.7344V88.3636H47.1207ZM59.304 92H57.8949C57.8116 91.5947 57.6657 91.2386 57.4574 90.9318C57.2528 90.625 57.0028 90.3674 56.7074 90.1591C56.4157 89.947 56.0919 89.7879 55.7358 89.6818C55.3797 89.5758 55.0085 89.5227 54.6222 89.5227C53.9176 89.5227 53.2794 89.7008 52.7074 90.0568C52.1392 90.4129 51.6866 90.9375 51.3494 91.6307C51.0161 92.3239 50.8494 93.1742 50.8494 94.1818C50.8494 95.1894 51.0161 96.0398 51.3494 96.733C51.6866 97.4261 52.1392 97.9508 52.7074 98.3068C53.2794 98.6629 53.9176 98.8409 54.6222 98.8409C55.0085 98.8409 55.3797 98.7879 55.7358 98.6818C56.0919 98.5758 56.4157 98.4186 56.7074 98.2102C57.0028 97.9981 57.2528 97.7386 57.4574 97.4318C57.6657 97.1212 57.8116 96.7652 57.8949 96.3636H59.304C59.1979 96.9583 59.0047 97.4905 58.7244 97.9602C58.4441 98.4299 58.0956 98.8295 57.679 99.1591C57.2623 99.4848 56.7945 99.733 56.2756 99.9034C55.7604 100.074 55.2093 100.159 54.6222 100.159C53.6297 100.159 52.7472 99.9167 51.9744 99.4318C51.2017 98.947 50.5938 98.2576 50.1506 97.3636C49.7074 96.4697 49.4858 95.4091 49.4858 94.1818C49.4858 92.9545 49.7074 91.8939 50.1506 91C50.5938 90.1061 51.2017 89.4167 51.9744 88.9318C52.7472 88.447 53.6297 88.2045 54.6222 88.2045C55.2093 88.2045 55.7604 88.2898 56.2756 88.4602C56.7945 88.6307 57.2623 88.8807 57.679 89.2102C58.0956 89.536 58.4441 89.9337 58.7244 90.4034C59.0047 90.8693 59.1979 91.4015 59.304 92ZM62.9901 88.3636V100H61.581V88.3636H62.9901ZM66.2926 100H64.8153L69.0881 88.3636H70.5426L74.8153 100H73.3381L69.8608 90.2045H69.7699L66.2926 100ZM66.8381 95.4545H72.7926V96.7045H66.8381V95.4545ZM76.6278 100V88.3636H78.0369V98.75H83.446V100H76.6278ZM91.9915 91.2727C91.9233 90.697 91.6468 90.25 91.1619 89.9318C90.6771 89.6136 90.0824 89.4545 89.3778 89.4545C88.8627 89.4545 88.4119 89.5379 88.0256 89.7045C87.643 89.8712 87.3438 90.1004 87.1278 90.392C86.9157 90.6837 86.8097 91.0152 86.8097 91.3864C86.8097 91.697 86.8835 91.964 87.0312 92.1875C87.1828 92.4072 87.3759 92.5909 87.6108 92.7386C87.8456 92.8826 88.0919 93.0019 88.3494 93.0966C88.607 93.1875 88.8438 93.2614 89.0597 93.3182L90.2415 93.6364C90.5445 93.7159 90.8816 93.8258 91.2528 93.9659C91.6278 94.1061 91.9858 94.2973 92.3267 94.5398C92.6714 94.7784 92.9555 95.0852 93.179 95.4602C93.4025 95.8352 93.5142 96.2955 93.5142 96.8409C93.5142 97.4697 93.3494 98.0379 93.0199 98.5455C92.6941 99.053 92.2169 99.4564 91.5881 99.7557C90.9631 100.055 90.2036 100.205 89.3097 100.205C88.4763 100.205 87.7547 100.07 87.1449 99.8011C86.5388 99.5322 86.0616 99.1572 85.7131 98.6761C85.3684 98.1951 85.1733 97.6364 85.1278 97H86.5824C86.6203 97.4394 86.768 97.803 87.0256 98.0909C87.2869 98.375 87.6165 98.5871 88.0142 98.7273C88.4157 98.8636 88.8475 98.9318 89.3097 98.9318C89.8475 98.9318 90.3305 98.8447 90.7585 98.6705C91.1866 98.4924 91.5256 98.2462 91.7756 97.9318C92.0256 97.6136 92.1506 97.2424 92.1506 96.8182C92.1506 96.4318 92.0426 96.1174 91.8267 95.875C91.6108 95.6326 91.3267 95.4356 90.9744 95.2841C90.6222 95.1326 90.2415 95 89.8324 94.8864L88.4006 94.4773C87.4915 94.2159 86.7718 93.8428 86.2415 93.358C85.7112 92.8731 85.446 92.2386 85.446 91.4545C85.446 90.803 85.6222 90.2348 85.9744 89.75C86.3305 89.2614 86.8078 88.8826 87.4062 88.6136C88.0085 88.3409 88.6809 88.2045 89.4233 88.2045C90.1733 88.2045 90.84 88.339 91.4233 88.608C92.0066 88.8731 92.4688 89.2367 92.8097 89.6989C93.1544 90.161 93.3362 90.6856 93.3551 91.2727H91.9915Z" fill="white"/>
<defs>
<linearGradient id="paint0_linear_158_783" x1="0" y1="45.5" x2="163" y2="45.5" gradientUnits="userSpaceOnUse">
<stop stop-color="white"/>
<stop offset="1" stop-color="#24408E" stop-opacity="0"/>
</linearGradient>
</defs>
</svg>
