<svg width="100%" viewBox="0 0 417 193" fill="none" xmlns="http://www.w3.org/2000/svg">
<path d="M25.48 43.84C20.776 43.84 16.7067 42.944 13.272 41.152C9.87467 39.3227 7.24267 36.7653 5.376 33.48C3.50933 30.1947 2.576 26.368 2.576 22C2.576 17.632 3.50933 13.8053 5.376 10.52C7.24267 7.23466 9.87467 4.696 13.272 2.904C16.7067 1.07466 20.776 0.159997 25.48 0.159997C30.1467 0.159997 34.1787 1.07466 37.576 2.904C41.0107 4.696 43.6613 7.23466 45.528 10.52C47.3947 13.8053 48.328 17.632 48.328 22C48.328 26.368 47.3947 30.1947 45.528 33.48C43.6613 36.7653 41.0107 39.3227 37.576 41.152C34.1787 42.944 30.1467 43.84 25.48 43.84ZM25.48 36.112C29.6987 36.112 32.9653 34.88 35.28 32.416C37.632 29.9147 38.808 26.4427 38.808 22C38.808 17.52 37.632 14.048 35.28 11.584C32.9653 9.12 29.6987 7.888 25.48 7.888C21.2613 7.888 17.976 9.12 15.624 11.584C13.272 14.048 12.096 17.52 12.096 22C12.096 26.48 13.272 29.952 15.624 32.416C17.976 34.88 21.2613 36.112 25.48 36.112ZM53.8261 14.272C54.0501 11.6213 54.9834 9.232 56.6261 7.104C58.3061 4.976 60.6767 3.296 63.7381 2.064C66.7994 0.794665 70.4767 0.159997 74.7701 0.159997C78.5407 0.159997 81.8074 0.645331 84.5701 1.616C87.3327 2.58666 89.4794 3.93066 91.0101 5.648C92.5407 7.36533 93.3061 9.4 93.3061 11.752C93.3061 13.656 92.7274 15.392 91.5701 16.96C90.4501 18.4907 88.6954 19.7227 86.3061 20.656C83.9167 21.552 80.8927 21.9813 77.2341 21.944V20.88C80.7807 20.6933 83.8047 20.9733 86.3061 21.72C88.8447 22.4293 90.8047 23.5493 92.1861 25.08C93.5674 26.6107 94.2581 28.5333 94.2581 30.848C94.2581 33.3493 93.4554 35.5893 91.8501 37.568C90.2821 39.5093 87.9861 41.04 84.9621 42.16C81.9381 43.28 78.2607 43.84 73.9301 43.84C69.7114 43.84 66.0341 43.2427 62.8981 42.048C59.7621 40.8533 57.3167 39.1733 55.5621 37.008C53.8074 34.8427 52.8554 32.304 52.7061 29.392H62.2261C62.5247 31.632 63.6447 33.3493 65.5861 34.544C67.5274 35.7387 70.3087 36.336 73.9301 36.336C77.4394 36.336 80.0901 35.7947 81.8821 34.712C83.6741 33.6293 84.5701 32.1173 84.5701 30.176C84.5701 29.0187 84.2714 28.048 83.6741 27.264C83.0767 26.48 82.0501 25.9013 80.5941 25.528C79.1754 25.1173 77.2341 24.912 74.7701 24.912H67.3781V18.248H74.7701C77.9807 18.248 80.2767 17.7627 81.6581 16.792C83.0394 15.8213 83.7301 14.5707 83.7301 13.04C83.7301 11.3227 82.9461 9.99733 81.3781 9.064C79.8101 8.13066 77.4394 7.664 74.2661 7.664C71.0181 7.664 68.4794 8.24266 66.6501 9.4C64.8207 10.52 63.7194 12.144 63.3461 14.272H53.8261Z" fill="white"/>
<rect y="80" width="417" height="18" fill="url(#paint0_linear_158_783)"/>
<path d="M22.4545 141.364C22.4545 143.818 22.0114 145.939 21.125 147.727C20.2386 149.515 19.0227 150.894 17.4773 151.864C15.9318 152.833 14.1667 153.318 12.1818 153.318C10.197 153.318 8.43182 152.833 6.88636 151.864C5.34091 150.894 4.125 149.515 3.23864 147.727C2.35227 145.939 1.90909 143.818 1.90909 141.364C1.90909 138.909 2.35227 136.788 3.23864 135C4.125 133.212 5.34091 131.833 6.88636 130.864C8.43182 129.894 10.197 129.409 12.1818 129.409C14.1667 129.409 15.9318 129.894 17.4773 130.864C19.0227 131.833 20.2386 133.212 21.125 135C22.0114 136.788 22.4545 138.909 22.4545 141.364ZM19.7273 141.364C19.7273 139.348 19.3902 137.648 18.7159 136.261C18.0492 134.875 17.1439 133.826 16 133.114C14.8636 132.402 13.5909 132.045 12.1818 132.045C10.7727 132.045 9.49621 132.402 8.35227 133.114C7.21591 133.826 6.31061 134.875 5.63636 136.261C4.9697 137.648 4.63636 139.348 4.63636 141.364C4.63636 143.379 4.9697 145.08 5.63636 146.466C6.31061 147.852 7.21591 148.902 8.35227 149.614C9.49621 150.326 10.7727 150.682 12.1818 150.682C13.5909 150.682 14.8636 150.326 16 149.614C17.1439 148.902 18.0492 147.852 18.7159 146.466C19.3902 145.08 19.7273 143.379 19.7273 141.364ZM42.4659 129.727H45.2841V145.136C45.2841 146.727 44.9091 148.148 44.1591 149.398C43.4167 150.64 42.3674 151.621 41.0114 152.341C39.6553 153.053 38.0644 153.409 36.2386 153.409C34.4129 153.409 32.822 153.053 31.4659 152.341C30.1098 151.621 29.0568 150.64 28.3068 149.398C27.5644 148.148 27.1932 146.727 27.1932 145.136V129.727H30.0114V144.909C30.0114 146.045 30.2614 147.057 30.7614 147.943C31.2614 148.822 31.9735 149.515 32.8977 150.023C33.8295 150.523 34.9432 150.773 36.2386 150.773C37.5341 150.773 38.6477 150.523 39.5795 150.023C40.5114 149.515 41.2235 148.822 41.7159 147.943C42.2159 147.057 42.4659 146.045 42.4659 144.909V129.727ZM50.9119 153V129.727H58.7756C60.5938 129.727 62.0862 130.038 63.2528 130.659C64.4195 131.273 65.2831 132.117 65.8438 133.193C66.4044 134.269 66.6847 135.492 66.6847 136.864C66.6847 138.235 66.4044 139.451 65.8438 140.511C65.2831 141.572 64.4233 142.405 63.2642 143.011C62.1051 143.61 60.6241 143.909 58.821 143.909H52.4574V141.364H58.7301C59.9725 141.364 60.9725 141.182 61.7301 140.818C62.4953 140.455 63.0483 139.939 63.3892 139.273C63.7377 138.598 63.9119 137.795 63.9119 136.864C63.9119 135.932 63.7377 135.117 63.3892 134.42C63.0407 133.723 62.4839 133.186 61.7188 132.807C60.9536 132.42 59.9422 132.227 58.6847 132.227H53.7301V153H50.9119ZM61.8665 142.545L67.5938 153H64.321L58.6847 142.545H61.8665ZM3.77273 192H0.818182L9.36364 168.727H12.2727L20.8182 192H17.8636L10.9091 172.409H10.7273L3.77273 192ZM4.86364 182.909H16.7727V185.409H4.86364V182.909ZM42.0767 176H39.2585C39.0919 175.189 38.8002 174.477 38.3835 173.864C37.9744 173.25 37.4744 172.735 36.8835 172.318C36.3002 171.894 35.6525 171.576 34.9403 171.364C34.2282 171.152 33.4858 171.045 32.7131 171.045C31.304 171.045 30.0275 171.402 28.8835 172.114C27.7472 172.826 26.8419 173.875 26.1676 175.261C25.5009 176.648 25.1676 178.348 25.1676 180.364C25.1676 182.379 25.5009 184.08 26.1676 185.466C26.8419 186.852 27.7472 187.902 28.8835 188.614C30.0275 189.326 31.304 189.682 32.7131 189.682C33.4858 189.682 34.2282 189.576 34.9403 189.364C35.6525 189.152 36.3002 188.837 36.8835 188.42C37.4744 187.996 37.9744 187.477 38.3835 186.864C38.8002 186.242 39.0919 185.53 39.2585 184.727H42.0767C41.8646 185.917 41.4782 186.981 40.9176 187.92C40.357 188.86 39.66 189.659 38.8267 190.318C37.9934 190.97 37.0578 191.466 36.0199 191.807C34.9896 192.148 33.8873 192.318 32.7131 192.318C30.7282 192.318 28.9631 191.833 27.4176 190.864C25.8722 189.894 24.6563 188.515 23.7699 186.727C22.8835 184.939 22.4403 182.818 22.4403 180.364C22.4403 177.909 22.8835 175.788 23.7699 174C24.6563 172.212 25.8722 170.833 27.4176 169.864C28.9631 168.894 30.7282 168.409 32.7131 168.409C33.8873 168.409 34.9896 168.58 36.0199 168.92C37.0578 169.261 37.9934 169.761 38.8267 170.42C39.66 171.072 40.357 171.867 40.9176 172.807C41.4782 173.739 41.8646 174.803 42.0767 176ZM46.6307 192V168.727H49.4489V179.091H61.858V168.727H64.6761V192H61.858V181.591H49.4489V192H46.6307ZM73.1364 168.727V192H70.3182V168.727H73.1364ZM78.7869 192V168.727H92.8324V171.227H81.6051V179.091H92.1051V181.591H81.6051V189.5H93.0142V192H78.7869ZM98.8665 168.727L105.776 188.318H106.048L112.957 168.727H115.912L107.366 192H104.457L95.9119 168.727H98.8665ZM119.537 192V168.727H133.582V171.227H122.355V179.091H132.855V181.591H122.355V189.5H133.764V192H119.537ZM138.662 168.727H142.026L149.935 188.045H150.207L158.116 168.727H161.48V192H158.844V174.318H158.616L151.344 192H148.798L141.526 174.318H141.298V192H138.662V168.727ZM167.131 192V168.727H181.176V171.227H169.949V179.091H180.449V181.591H169.949V189.5H181.358V192H167.131ZM204.71 168.727V192H201.983L189.301 173.727H189.074V192H186.256V168.727H188.983L201.71 187.045H201.938V168.727H204.71ZM209.077 171.227V168.727H226.531V171.227H219.213V192H216.395V171.227H209.077ZM243.608 174.545C243.472 173.394 242.919 172.5 241.949 171.864C240.979 171.227 239.79 170.909 238.381 170.909C237.35 170.909 236.449 171.076 235.676 171.409C234.911 171.742 234.313 172.201 233.881 172.784C233.456 173.367 233.244 174.03 233.244 174.773C233.244 175.394 233.392 175.928 233.688 176.375C233.991 176.814 234.377 177.182 234.847 177.477C235.316 177.765 235.809 178.004 236.324 178.193C236.839 178.375 237.312 178.523 237.744 178.636L240.108 179.273C240.714 179.432 241.388 179.652 242.131 179.932C242.881 180.212 243.597 180.595 244.278 181.08C244.968 181.557 245.536 182.17 245.983 182.92C246.43 183.67 246.653 184.591 246.653 185.682C246.653 186.939 246.324 188.076 245.665 189.091C245.013 190.106 244.059 190.913 242.801 191.511C241.551 192.11 240.032 192.409 238.244 192.409C236.578 192.409 235.134 192.14 233.915 191.602C232.703 191.064 231.748 190.314 231.051 189.352C230.362 188.39 229.972 187.273 229.881 186H232.79C232.866 186.879 233.161 187.606 233.676 188.182C234.199 188.75 234.858 189.174 235.653 189.455C236.456 189.727 237.32 189.864 238.244 189.864C239.32 189.864 240.286 189.689 241.142 189.341C241.998 188.985 242.676 188.492 243.176 187.864C243.676 187.227 243.926 186.485 243.926 185.636C243.926 184.864 243.71 184.235 243.278 183.75C242.847 183.265 242.278 182.871 241.574 182.568C240.869 182.265 240.108 182 239.29 181.773L236.426 180.955C234.608 180.432 233.169 179.686 232.108 178.716C231.047 177.746 230.517 176.477 230.517 174.909C230.517 173.606 230.869 172.47 231.574 171.5C232.286 170.523 233.241 169.765 234.438 169.227C235.642 168.682 236.987 168.409 238.472 168.409C239.972 168.409 241.305 168.678 242.472 169.216C243.638 169.746 244.563 170.473 245.244 171.398C245.934 172.322 246.297 173.371 246.335 174.545H243.608Z" fill="white"/>
<defs>
<linearGradient id="paint0_linear_158_783" x1="0" y1="89" x2="417" y2="89" gradientUnits="userSpaceOnUse">
<stop stop-color="#24CBFF" stop-opacity="0.5"/>
<stop offset="1" stop-color="#24408E" stop-opacity="0"/>
</linearGradient>
</defs>
</svg>
