<svg width="100%" viewBox="0 0 163 82" fill="none" xmlns="http://www.w3.org/2000/svg">
<path d="M10.92 19.36C8.904 19.36 7.16 18.976 5.688 18.208C4.232 17.424 3.104 16.328 2.304 14.92C1.504 13.512 1.104 11.872 1.104 10C1.104 8.128 1.504 6.488 2.304 5.08C3.104 3.672 4.232 2.584 5.688 1.816C7.16 1.032 8.904 0.639999 10.92 0.639999C12.92 0.639999 14.648 1.032 16.104 1.816C17.576 2.584 18.712 3.672 19.512 5.08C20.312 6.488 20.712 8.128 20.712 10C20.712 11.872 20.312 13.512 19.512 14.92C18.712 16.328 17.576 17.424 16.104 18.208C14.648 18.976 12.92 19.36 10.92 19.36ZM10.92 16.048C12.728 16.048 14.128 15.52 15.12 14.464C16.128 13.392 16.632 11.904 16.632 10C16.632 8.08 16.128 6.592 15.12 5.536C14.128 4.48 12.728 3.952 10.92 3.952C9.112 3.952 7.704 4.48 6.696 5.536C5.688 6.592 5.184 8.08 5.184 10C5.184 11.92 5.688 13.408 6.696 14.464C7.704 15.52 9.112 16.048 10.92 16.048ZM31.5688 0.999999V19H27.5368V2.344L29.5528 4.168L21.8968 5.512V2.344L28.5688 0.999999H31.5688Z" fill="white"/>
<rect y="41" width="163" height="9" fill="url(#paint0_linear_158_783)"/>
<path d="M11.2273 75.1818C11.2273 76.4091 11.0057 77.4697 10.5625 78.3636C10.1193 79.2576 9.51136 79.947 8.73864 80.4318C7.96591 80.9167 7.08333 81.1591 6.09091 81.1591C5.09849 81.1591 4.21591 80.9167 3.44318 80.4318C2.67045 79.947 2.0625 79.2576 1.61932 78.3636C1.17614 77.4697 0.954545 76.4091 0.954545 75.1818C0.954545 73.9545 1.17614 72.8939 1.61932 72C2.0625 71.1061 2.67045 70.4167 3.44318 69.9318C4.21591 69.447 5.09849 69.2045 6.09091 69.2045C7.08333 69.2045 7.96591 69.447 8.73864 69.9318C9.51136 70.4167 10.1193 71.1061 10.5625 72C11.0057 72.8939 11.2273 73.9545 11.2273 75.1818ZM9.86364 75.1818C9.86364 74.1742 9.69508 73.3239 9.35795 72.6307C9.02462 71.9375 8.57197 71.4129 8 71.0568C7.43182 70.7008 6.79545 70.5227 6.09091 70.5227C5.38636 70.5227 4.74811 70.7008 4.17614 71.0568C3.60795 71.4129 3.1553 71.9375 2.81818 72.6307C2.48485 73.3239 2.31818 74.1742 2.31818 75.1818C2.31818 76.1894 2.48485 77.0398 2.81818 77.733C3.1553 78.4261 3.60795 78.9508 4.17614 79.3068C4.74811 79.6629 5.38636 79.8409 6.09091 79.8409C6.79545 79.8409 7.43182 79.6629 8 79.3068C8.57197 78.9508 9.02462 78.4261 9.35795 77.733C9.69508 77.0398 9.86364 76.1894 9.86364 75.1818ZM21.233 69.3636H22.642V77.0682C22.642 77.8636 22.4545 78.5739 22.0795 79.1989C21.7083 79.8201 21.1837 80.3106 20.5057 80.6705C19.8277 81.0265 19.0322 81.2045 18.1193 81.2045C17.2064 81.2045 16.411 81.0265 15.733 80.6705C15.0549 80.3106 14.5284 79.8201 14.1534 79.1989C13.7822 78.5739 13.5966 77.8636 13.5966 77.0682V69.3636H15.0057V76.9545C15.0057 77.5227 15.1307 78.0284 15.3807 78.4716C15.6307 78.911 15.9867 79.2576 16.4489 79.5114C16.9148 79.7614 17.4716 79.8864 18.1193 79.8864C18.767 79.8864 19.3239 79.7614 19.7898 79.5114C20.2557 79.2576 20.6117 78.911 20.858 78.4716C21.108 78.0284 21.233 77.5227 21.233 76.9545V69.3636ZM25.456 81V69.3636H29.3878C30.2969 69.3636 31.0431 69.5189 31.6264 69.8295C32.2098 70.1364 32.6416 70.5587 32.9219 71.0966C33.2022 71.6345 33.3423 72.2462 33.3423 72.9318C33.3423 73.6174 33.2022 74.2254 32.9219 74.7557C32.6416 75.286 32.2116 75.7027 31.6321 76.0057C31.0526 76.3049 30.312 76.4545 29.4105 76.4545H26.2287V75.1818H29.3651C29.9863 75.1818 30.4863 75.0909 30.8651 74.9091C31.2476 74.7273 31.5241 74.4697 31.6946 74.1364C31.8688 73.7992 31.956 73.3977 31.956 72.9318C31.956 72.4659 31.8688 72.0587 31.6946 71.7102C31.5204 71.3617 31.242 71.0928 30.8594 70.9034C30.4768 70.7102 29.9711 70.6136 29.3423 70.6136H26.8651V81H25.456ZM30.9332 75.7727L33.7969 81H32.1605L29.3423 75.7727H30.9332ZM40.6676 69.3636L44.1222 79.1591H44.2585L47.7131 69.3636H49.1903L44.9176 81H43.4631L39.1903 69.3636H40.6676ZM52.4119 69.3636V81H51.0028V69.3636H52.4119ZM61.6009 72.2727C61.5327 71.697 61.2562 71.25 60.7713 70.9318C60.2865 70.6136 59.6918 70.4545 58.9872 70.4545C58.4721 70.4545 58.0213 70.5379 57.6349 70.7045C57.2524 70.8712 56.9531 71.1004 56.7372 71.392C56.5251 71.6837 56.419 72.0152 56.419 72.3864C56.419 72.697 56.4929 72.964 56.6406 73.1875C56.7921 73.4072 56.9853 73.5909 57.2202 73.7386C57.455 73.8826 57.7012 74.0019 57.9588 74.0966C58.2164 74.1875 58.4531 74.2614 58.669 74.3182L59.8509 74.6364C60.1539 74.7159 60.491 74.8258 60.8622 74.9659C61.2372 75.1061 61.5952 75.2973 61.9361 75.5398C62.2808 75.7784 62.5649 76.0852 62.7884 76.4602C63.0118 76.8352 63.1236 77.2955 63.1236 77.8409C63.1236 78.4697 62.9588 79.0379 62.6293 79.5455C62.3035 80.053 61.8262 80.4564 61.1974 80.7557C60.5724 81.0549 59.813 81.2045 58.919 81.2045C58.0857 81.2045 57.3641 81.0701 56.7543 80.8011C56.1482 80.5322 55.6709 80.1572 55.3224 79.6761C54.9777 79.1951 54.7827 78.6364 54.7372 78H56.1918C56.2296 78.4394 56.3774 78.803 56.6349 79.0909C56.8963 79.375 57.2259 79.5871 57.6236 79.7273C58.0251 79.8636 58.4569 79.9318 58.919 79.9318C59.4569 79.9318 59.9399 79.8447 60.3679 79.6705C60.7959 79.4924 61.1349 79.2462 61.3849 78.9318C61.6349 78.6136 61.7599 78.2424 61.7599 77.8182C61.7599 77.4318 61.652 77.1174 61.4361 76.875C61.2202 76.6326 60.9361 76.4356 60.5838 76.2841C60.2315 76.1326 59.8509 76 59.4418 75.8864L58.0099 75.4773C57.1009 75.2159 56.3812 74.8428 55.8509 74.358C55.3205 73.8731 55.0554 73.2386 55.0554 72.4545C55.0554 71.803 55.2315 71.2348 55.5838 70.75C55.9399 70.2614 56.4171 69.8826 57.0156 69.6136C57.6179 69.3409 58.2902 69.2045 59.0327 69.2045C59.7827 69.2045 60.4493 69.339 61.0327 69.608C61.616 69.8731 62.0781 70.2367 62.419 70.6989C62.7637 71.161 62.9455 71.6856 62.9645 72.2727H61.6009ZM66.8494 69.3636V81H65.4403V69.3636H66.8494ZM79.4929 75.1818C79.4929 76.4091 79.2713 77.4697 78.8281 78.3636C78.3849 79.2576 77.777 79.947 77.0043 80.4318C76.2315 80.9167 75.349 81.1591 74.3565 81.1591C73.3641 81.1591 72.4815 80.9167 71.7088 80.4318C70.9361 79.947 70.3281 79.2576 69.8849 78.3636C69.4418 77.4697 69.2202 76.4091 69.2202 75.1818C69.2202 73.9545 69.4418 72.8939 69.8849 72C70.3281 71.1061 70.9361 70.4167 71.7088 69.9318C72.4815 69.447 73.3641 69.2045 74.3565 69.2045C75.349 69.2045 76.2315 69.447 77.0043 69.9318C77.777 70.4167 78.3849 71.1061 78.8281 72C79.2713 72.8939 79.4929 73.9545 79.4929 75.1818ZM78.1293 75.1818C78.1293 74.1742 77.9607 73.3239 77.6236 72.6307C77.2902 71.9375 76.8376 71.4129 76.2656 71.0568C75.6974 70.7008 75.0611 70.5227 74.3565 70.5227C73.652 70.5227 73.0137 70.7008 72.4418 71.0568C71.8736 71.4129 71.4209 71.9375 71.0838 72.6307C70.7505 73.3239 70.5838 74.1742 70.5838 75.1818C70.5838 76.1894 70.7505 77.0398 71.0838 77.733C71.4209 78.4261 71.8736 78.9508 72.4418 79.3068C73.0137 79.6629 73.652 79.8409 74.3565 79.8409C75.0611 79.8409 75.6974 79.6629 76.2656 79.3068C76.8376 78.9508 77.2902 78.4261 77.6236 77.733C77.9607 77.0398 78.1293 76.1894 78.1293 75.1818ZM91.0895 69.3636V81H89.7259L83.3849 71.8636H83.2713V81H81.8622V69.3636H83.2259L89.5895 78.5227H89.7031V69.3636H91.0895Z" fill="white"/>
<defs>
<linearGradient id="paint0_linear_158_783" x1="0" y1="45.5" x2="163" y2="45.5" gradientUnits="userSpaceOnUse">
<stop stop-color="white" stop-opacity="0.4"/>
<stop offset="1" stop-color="#24408E" stop-opacity="0"/>
</linearGradient>
</defs>
</svg>
