<svg width="100%" viewBox="0 0 418 193" fill="none" xmlns="http://www.w3.org/2000/svg">
<path d="M25.98 43.84C21.276 43.84 17.2067 42.944 13.772 41.152C10.3747 39.3227 7.74267 36.7653 5.876 33.48C4.00933 30.1947 3.076 26.368 3.076 22C3.076 17.632 4.00933 13.8053 5.876 10.52C7.74267 7.23466 10.3747 4.696 13.772 2.904C17.2067 1.07466 21.276 0.159997 25.98 0.159997C30.6467 0.159997 34.6787 1.07466 38.076 2.904C41.5107 4.696 44.1613 7.23466 46.028 10.52C47.8947 13.8053 48.828 17.632 48.828 22C48.828 26.368 47.8947 30.1947 46.028 33.48C44.1613 36.7653 41.5107 39.3227 38.076 41.152C34.6787 42.944 30.6467 43.84 25.98 43.84ZM25.98 36.112C30.1987 36.112 33.4653 34.88 35.78 32.416C38.132 29.9147 39.308 26.4427 39.308 22C39.308 17.52 38.132 14.048 35.78 11.584C33.4653 9.12 30.1987 7.888 25.98 7.888C21.7613 7.888 18.476 9.12 16.124 11.584C13.772 14.048 12.596 17.52 12.596 22C12.596 26.48 13.772 29.952 16.124 32.416C18.476 34.88 21.7613 36.112 25.98 36.112ZM53.5421 15.784C53.7661 12.5733 54.8114 9.81067 56.6781 7.496C58.5447 5.144 61.0087 3.33333 64.0701 2.064C67.1687 0.794665 70.6781 0.159997 74.5981 0.159997C78.3314 0.159997 81.5981 0.738664 84.3981 1.896C87.1981 3.016 89.3821 4.60266 90.9501 6.656C92.5181 8.70933 93.3021 11.0987 93.3021 13.824C93.3021 15.9147 92.7607 17.856 91.6781 19.648C90.5954 21.44 88.8594 23.2507 86.4701 25.08C84.1181 26.872 80.9821 28.8133 77.0621 30.904L64.3501 37.904L63.6221 35.328H94.4781V43H54.1581V36.28L72.1341 25.752C75.1207 24.0347 77.4541 22.56 79.1341 21.328C80.8141 20.0587 82.0087 18.8827 82.7181 17.8C83.4274 16.7173 83.7821 15.56 83.7821 14.328C83.7821 13.0213 83.4274 11.864 82.7181 10.856C82.0087 9.848 80.9447 9.064 79.5261 8.504C78.1447 7.944 76.3901 7.664 74.2621 7.664C71.7607 7.664 69.7074 8.03733 68.1021 8.784C66.4967 9.49333 65.2834 10.464 64.4621 11.696C63.6781 12.928 63.2114 14.2907 63.0621 15.784H53.5421Z" fill="white"/>
<rect x="0.5" y="80" width="417" height="18" fill="url(#paint0_linear_158_783)"/>
<path d="M22.9545 141.364C22.9545 143.818 22.5114 145.939 21.625 147.727C20.7386 149.515 19.5227 150.894 17.9773 151.864C16.4318 152.833 14.6667 153.318 12.6818 153.318C10.697 153.318 8.93182 152.833 7.38636 151.864C5.84091 150.894 4.625 149.515 3.73864 147.727C2.85227 145.939 2.40909 143.818 2.40909 141.364C2.40909 138.909 2.85227 136.788 3.73864 135C4.625 133.212 5.84091 131.833 7.38636 130.864C8.93182 129.894 10.697 129.409 12.6818 129.409C14.6667 129.409 16.4318 129.894 17.9773 130.864C19.5227 131.833 20.7386 133.212 21.625 135C22.5114 136.788 22.9545 138.909 22.9545 141.364ZM20.2273 141.364C20.2273 139.348 19.8902 137.648 19.2159 136.261C18.5492 134.875 17.6439 133.826 16.5 133.114C15.3636 132.402 14.0909 132.045 12.6818 132.045C11.2727 132.045 9.99621 132.402 8.85227 133.114C7.71591 133.826 6.81061 134.875 6.13636 136.261C5.4697 137.648 5.13636 139.348 5.13636 141.364C5.13636 143.379 5.4697 145.08 6.13636 146.466C6.81061 147.852 7.71591 148.902 8.85227 149.614C9.99621 150.326 11.2727 150.682 12.6818 150.682C14.0909 150.682 15.3636 150.326 16.5 149.614C17.6439 148.902 18.5492 147.852 19.2159 146.466C19.8902 145.08 20.2273 143.379 20.2273 141.364ZM42.9659 129.727H45.7841V145.136C45.7841 146.727 45.4091 148.148 44.6591 149.398C43.9167 150.64 42.8674 151.621 41.5114 152.341C40.1553 153.053 38.5644 153.409 36.7386 153.409C34.9129 153.409 33.322 153.053 31.9659 152.341C30.6098 151.621 29.5568 150.64 28.8068 149.398C28.0644 148.148 27.6932 146.727 27.6932 145.136V129.727H30.5114V144.909C30.5114 146.045 30.7614 147.057 31.2614 147.943C31.7614 148.822 32.4735 149.515 33.3977 150.023C34.3295 150.523 35.4432 150.773 36.7386 150.773C38.0341 150.773 39.1477 150.523 40.0795 150.023C41.0114 149.515 41.7235 148.822 42.2159 147.943C42.7159 147.057 42.9659 146.045 42.9659 144.909V129.727ZM51.4119 153V129.727H59.2756C61.0938 129.727 62.5862 130.038 63.7528 130.659C64.9195 131.273 65.7831 132.117 66.3438 133.193C66.9044 134.269 67.1847 135.492 67.1847 136.864C67.1847 138.235 66.9044 139.451 66.3438 140.511C65.7831 141.572 64.9233 142.405 63.7642 143.011C62.6051 143.61 61.1241 143.909 59.321 143.909H52.9574V141.364H59.2301C60.4725 141.364 61.4725 141.182 62.2301 140.818C62.9953 140.455 63.5483 139.939 63.8892 139.273C64.2377 138.598 64.4119 137.795 64.4119 136.864C64.4119 135.932 64.2377 135.117 63.8892 134.42C63.5407 133.723 62.9839 133.186 62.2188 132.807C61.4536 132.42 60.4422 132.227 59.1847 132.227H54.2301V153H51.4119ZM62.3665 142.545L68.0938 153H64.821L59.1847 142.545H62.3665ZM16.0455 174.545C15.9091 173.394 15.3561 172.5 14.3864 171.864C13.4167 171.227 12.2273 170.909 10.8182 170.909C9.78788 170.909 8.88636 171.076 8.11364 171.409C7.34849 171.742 6.75 172.201 6.31818 172.784C5.89394 173.367 5.68182 174.03 5.68182 174.773C5.68182 175.394 5.82955 175.928 6.125 176.375C6.42803 176.814 6.81439 177.182 7.28409 177.477C7.75379 177.765 8.24621 178.004 8.76136 178.193C9.27652 178.375 9.75 178.523 10.1818 178.636L12.5455 179.273C13.1515 179.432 13.8258 179.652 14.5682 179.932C15.3182 180.212 16.0341 180.595 16.7159 181.08C17.4053 181.557 17.9735 182.17 18.4205 182.92C18.8674 183.67 19.0909 184.591 19.0909 185.682C19.0909 186.939 18.7614 188.076 18.1023 189.091C17.4508 190.106 16.4962 190.913 15.2386 191.511C13.9886 192.11 12.4697 192.409 10.6818 192.409C9.01515 192.409 7.57197 192.14 6.35227 191.602C5.14015 191.064 4.18561 190.314 3.48864 189.352C2.79924 188.39 2.40909 187.273 2.31818 186H5.22727C5.30303 186.879 5.59848 187.606 6.11364 188.182C6.63636 188.75 7.29545 189.174 8.09091 189.455C8.89394 189.727 9.75758 189.864 10.6818 189.864C11.7576 189.864 12.7235 189.689 13.5795 189.341C14.4356 188.985 15.1136 188.492 15.6136 187.864C16.1136 187.227 16.3636 186.485 16.3636 185.636C16.3636 184.864 16.1477 184.235 15.7159 183.75C15.2841 183.265 14.7159 182.871 14.0114 182.568C13.3068 182.265 12.5455 182 11.7273 181.773L8.86364 180.955C7.04545 180.432 5.60606 179.686 4.54545 178.716C3.48485 177.746 2.95455 176.477 2.95455 174.909C2.95455 173.606 3.30682 172.47 4.01136 171.5C4.72348 170.523 5.67803 169.765 6.875 169.227C8.07955 168.682 9.42424 168.409 10.9091 168.409C12.4091 168.409 13.7424 168.678 14.9091 169.216C16.0758 169.746 17 170.473 17.6818 171.398C18.3712 172.322 18.7348 173.371 18.7727 174.545H16.0455ZM22.4517 171.227V168.727H39.9062V171.227H32.5881V192H29.7699V171.227H22.4517ZM62.9233 180.364C62.9233 182.818 62.4801 184.939 61.5938 186.727C60.7074 188.515 59.4915 189.894 57.946 190.864C56.4006 191.833 54.6354 192.318 52.6506 192.318C50.6657 192.318 48.9006 191.833 47.3551 190.864C45.8097 189.894 44.5938 188.515 43.7074 186.727C42.821 184.939 42.3778 182.818 42.3778 180.364C42.3778 177.909 42.821 175.788 43.7074 174C44.5938 172.212 45.8097 170.833 47.3551 169.864C48.9006 168.894 50.6657 168.409 52.6506 168.409C54.6354 168.409 56.4006 168.894 57.946 169.864C59.4915 170.833 60.7074 172.212 61.5938 174C62.4801 175.788 62.9233 177.909 62.9233 180.364ZM60.196 180.364C60.196 178.348 59.8589 176.648 59.1847 175.261C58.518 173.875 57.6127 172.826 56.4688 172.114C55.3324 171.402 54.0597 171.045 52.6506 171.045C51.2415 171.045 49.965 171.402 48.821 172.114C47.6847 172.826 46.7794 173.875 46.1051 175.261C45.4384 176.648 45.1051 178.348 45.1051 180.364C45.1051 182.379 45.4384 184.08 46.1051 185.466C46.7794 186.852 47.6847 187.902 48.821 188.614C49.965 189.326 51.2415 189.682 52.6506 189.682C54.0597 189.682 55.3324 189.326 56.4688 188.614C57.6127 187.902 58.518 186.852 59.1847 185.466C59.8589 184.08 60.196 182.379 60.196 180.364ZM67.6619 192V168.727H75.5256C77.3438 168.727 78.8362 169.038 80.0028 169.659C81.1695 170.273 82.0331 171.117 82.5938 172.193C83.1544 173.269 83.4347 174.492 83.4347 175.864C83.4347 177.235 83.1544 178.451 82.5938 179.511C82.0331 180.572 81.1733 181.405 80.0142 182.011C78.8551 182.61 77.3741 182.909 75.571 182.909H69.2074V180.364H75.4801C76.7225 180.364 77.7225 180.182 78.4801 179.818C79.2453 179.455 79.7983 178.939 80.1392 178.273C80.4877 177.598 80.6619 176.795 80.6619 175.864C80.6619 174.932 80.4877 174.117 80.1392 173.42C79.7907 172.723 79.2339 172.186 78.4688 171.807C77.7036 171.42 76.6922 171.227 75.4347 171.227H70.4801V192H67.6619ZM78.6165 181.545L84.3438 192H81.071L75.4347 181.545H78.6165ZM85.3494 168.727H88.5767L95.0312 179.591H95.304L101.759 168.727H104.986L96.5767 182.409V192H93.7585V182.409L85.3494 168.727Z" fill="white"/>
<defs>
<linearGradient id="paint0_linear_158_783" x1="0.5" y1="89" x2="417.5" y2="89" gradientUnits="userSpaceOnUse">
<stop stop-color="#24408E"/>
<stop offset="1" stop-color="#24408E" stop-opacity="0"/>
</linearGradient>
</defs>
</svg>
