<svg width="100%" viewBox="0 0 163 82" fill="none" xmlns="http://www.w3.org/2000/svg">
<path d="M10.92 19.36C8.904 19.36 7.16 18.976 5.688 18.208C4.232 17.424 3.104 16.328 2.304 14.92C1.504 13.512 1.104 11.872 1.104 10C1.104 8.128 1.504 6.488 2.304 5.08C3.104 3.672 4.232 2.584 5.688 1.816C7.16 1.032 8.904 0.639999 10.92 0.639999C12.92 0.639999 14.648 1.032 16.104 1.816C17.576 2.584 18.712 3.672 19.512 5.08C20.312 6.488 20.712 8.128 20.712 10C20.712 11.872 20.312 13.512 19.512 14.92C18.712 16.328 17.576 17.424 16.104 18.208C14.648 18.976 12.92 19.36 10.92 19.36ZM10.92 16.048C12.728 16.048 14.128 15.52 15.12 14.464C16.128 13.392 16.632 11.904 16.632 10C16.632 8.08 16.128 6.592 15.12 5.536C14.128 4.48 12.728 3.952 10.92 3.952C9.112 3.952 7.704 4.48 6.696 5.536C5.688 6.592 5.184 8.08 5.184 10C5.184 11.92 5.688 13.408 6.696 14.464C7.704 15.52 9.112 16.048 10.92 16.048ZM22.7323 7.336C22.8283 5.96 23.2763 4.776 24.0763 3.784C24.8763 2.776 25.9323 2 27.2443 1.456C28.5723 0.911999 30.0763 0.639999 31.7563 0.639999C33.3563 0.639999 34.7563 0.887999 35.9563 1.384C37.1563 1.864 38.0923 2.544 38.7643 3.424C39.4363 4.304 39.7723 5.328 39.7723 6.496C39.7723 7.392 39.5403 8.224 39.0763 8.992C38.6123 9.76 37.8683 10.536 36.8443 11.32C35.8363 12.088 34.4923 12.92 32.8123 13.816L27.3643 16.816L27.0523 15.712H40.2763V19H22.9963V16.12L30.7003 11.608C31.9803 10.872 32.9803 10.24 33.7003 9.712C34.4203 9.168 34.9323 8.664 35.2363 8.2C35.5403 7.736 35.6923 7.24 35.6923 6.712C35.6923 6.152 35.5403 5.656 35.2363 5.224C34.9323 4.792 34.4763 4.456 33.8683 4.216C33.2763 3.976 32.5243 3.856 31.6123 3.856C30.5403 3.856 29.6603 4.016 28.9723 4.336C28.2843 4.64 27.7643 5.056 27.4123 5.584C27.0763 6.112 26.8763 6.696 26.8123 7.336H22.7323Z" fill="white"/>
<rect y="41" width="163" height="9" fill="url(#paint0_linear_158_783)"/>
<path d="M11.2273 75.1818C11.2273 76.4091 11.0057 77.4697 10.5625 78.3636C10.1193 79.2576 9.51136 79.947 8.73864 80.4318C7.96591 80.9167 7.08333 81.1591 6.09091 81.1591C5.09849 81.1591 4.21591 80.9167 3.44318 80.4318C2.67045 79.947 2.0625 79.2576 1.61932 78.3636C1.17614 77.4697 0.954545 76.4091 0.954545 75.1818C0.954545 73.9545 1.17614 72.8939 1.61932 72C2.0625 71.1061 2.67045 70.4167 3.44318 69.9318C4.21591 69.447 5.09849 69.2045 6.09091 69.2045C7.08333 69.2045 7.96591 69.447 8.73864 69.9318C9.51136 70.4167 10.1193 71.1061 10.5625 72C11.0057 72.8939 11.2273 73.9545 11.2273 75.1818ZM9.86364 75.1818C9.86364 74.1742 9.69508 73.3239 9.35795 72.6307C9.02462 71.9375 8.57197 71.4129 8 71.0568C7.43182 70.7008 6.79545 70.5227 6.09091 70.5227C5.38636 70.5227 4.74811 70.7008 4.17614 71.0568C3.60795 71.4129 3.1553 71.9375 2.81818 72.6307C2.48485 73.3239 2.31818 74.1742 2.31818 75.1818C2.31818 76.1894 2.48485 77.0398 2.81818 77.733C3.1553 78.4261 3.60795 78.9508 4.17614 79.3068C4.74811 79.6629 5.38636 79.8409 6.09091 79.8409C6.79545 79.8409 7.43182 79.6629 8 79.3068C8.57197 78.9508 9.02462 78.4261 9.35795 77.733C9.69508 77.0398 9.86364 76.1894 9.86364 75.1818ZM21.233 69.3636H22.642V77.0682C22.642 77.8636 22.4545 78.5739 22.0795 79.1989C21.7083 79.8201 21.1837 80.3106 20.5057 80.6705C19.8277 81.0265 19.0322 81.2045 18.1193 81.2045C17.2064 81.2045 16.411 81.0265 15.733 80.6705C15.0549 80.3106 14.5284 79.8201 14.1534 79.1989C13.7822 78.5739 13.5966 77.8636 13.5966 77.0682V69.3636H15.0057V76.9545C15.0057 77.5227 15.1307 78.0284 15.3807 78.4716C15.6307 78.911 15.9867 79.2576 16.4489 79.5114C16.9148 79.7614 17.4716 79.8864 18.1193 79.8864C18.767 79.8864 19.3239 79.7614 19.7898 79.5114C20.2557 79.2576 20.6117 78.911 20.858 78.4716C21.108 78.0284 21.233 77.5227 21.233 76.9545V69.3636ZM25.456 81V69.3636H29.3878C30.2969 69.3636 31.0431 69.5189 31.6264 69.8295C32.2098 70.1364 32.6416 70.5587 32.9219 71.0966C33.2022 71.6345 33.3423 72.2462 33.3423 72.9318C33.3423 73.6174 33.2022 74.2254 32.9219 74.7557C32.6416 75.286 32.2116 75.7027 31.6321 76.0057C31.0526 76.3049 30.312 76.4545 29.4105 76.4545H26.2287V75.1818H29.3651C29.9863 75.1818 30.4863 75.0909 30.8651 74.9091C31.2476 74.7273 31.5241 74.4697 31.6946 74.1364C31.8688 73.7992 31.956 73.3977 31.956 72.9318C31.956 72.4659 31.8688 72.0587 31.6946 71.7102C31.5204 71.3617 31.242 71.0928 30.8594 70.9034C30.4768 70.7102 29.9711 70.6136 29.3423 70.6136H26.8651V81H25.456ZM30.9332 75.7727L33.7969 81H32.1605L29.3423 75.7727H30.9332ZM46.554 72.2727C46.4858 71.697 46.2093 71.25 45.7244 70.9318C45.2396 70.6136 44.6449 70.4545 43.9403 70.4545C43.4252 70.4545 42.9744 70.5379 42.5881 70.7045C42.2055 70.8712 41.9063 71.1004 41.6903 71.392C41.4782 71.6837 41.3722 72.0152 41.3722 72.3864C41.3722 72.697 41.446 72.964 41.5938 73.1875C41.7453 73.4072 41.9384 73.5909 42.1733 73.7386C42.4081 73.8826 42.6544 74.0019 42.9119 74.0966C43.1695 74.1875 43.4062 74.2614 43.6222 74.3182L44.804 74.6364C45.107 74.7159 45.4441 74.8258 45.8153 74.9659C46.1903 75.1061 46.5483 75.2973 46.8892 75.5398C47.2339 75.7784 47.518 76.0852 47.7415 76.4602C47.965 76.8352 48.0767 77.2955 48.0767 77.8409C48.0767 78.4697 47.9119 79.0379 47.5824 79.5455C47.2566 80.053 46.7794 80.4564 46.1506 80.7557C45.5256 81.0549 44.7661 81.2045 43.8722 81.2045C43.0388 81.2045 42.3172 81.0701 41.7074 80.8011C41.1013 80.5322 40.6241 80.1572 40.2756 79.6761C39.9309 79.1951 39.7358 78.6364 39.6903 78H41.1449C41.1828 78.4394 41.3305 78.803 41.5881 79.0909C41.8494 79.375 42.179 79.5871 42.5767 79.7273C42.9782 79.8636 43.41 79.9318 43.8722 79.9318C44.41 79.9318 44.893 79.8447 45.321 79.6705C45.7491 79.4924 46.0881 79.2462 46.3381 78.9318C46.5881 78.6136 46.7131 78.2424 46.7131 77.8182C46.7131 77.4318 46.6051 77.1174 46.3892 76.875C46.1733 76.6326 45.8892 76.4356 45.5369 76.2841C45.1847 76.1326 44.804 76 44.3949 75.8864L42.9631 75.4773C42.054 75.2159 41.3343 74.8428 40.804 74.358C40.2737 73.8731 40.0085 73.2386 40.0085 72.4545C40.0085 71.803 40.1847 71.2348 40.5369 70.75C40.893 70.2614 41.3703 69.8826 41.9688 69.6136C42.571 69.3409 43.2434 69.2045 43.9858 69.2045C44.7358 69.2045 45.4025 69.339 45.9858 69.608C46.5691 69.8731 47.0313 70.2367 47.3722 70.6989C47.7169 71.161 47.8987 71.6856 47.9176 72.2727H46.554ZM49.7571 70.6136V69.3636H58.4844V70.6136H54.8253V81H53.4162V70.6136H49.7571ZM69.9929 75.1818C69.9929 76.4091 69.7713 77.4697 69.3281 78.3636C68.8849 79.2576 68.277 79.947 67.5043 80.4318C66.7315 80.9167 65.849 81.1591 64.8565 81.1591C63.8641 81.1591 62.9815 80.9167 62.2088 80.4318C61.4361 79.947 60.8281 79.2576 60.3849 78.3636C59.9418 77.4697 59.7202 76.4091 59.7202 75.1818C59.7202 73.9545 59.9418 72.8939 60.3849 72C60.8281 71.1061 61.4361 70.4167 62.2088 69.9318C62.9815 69.447 63.8641 69.2045 64.8565 69.2045C65.849 69.2045 66.7315 69.447 67.5043 69.9318C68.277 70.4167 68.8849 71.1061 69.3281 72C69.7713 72.8939 69.9929 73.9545 69.9929 75.1818ZM68.6293 75.1818C68.6293 74.1742 68.4607 73.3239 68.1236 72.6307C67.7902 71.9375 67.3376 71.4129 66.7656 71.0568C66.1974 70.7008 65.5611 70.5227 64.8565 70.5227C64.152 70.5227 63.5137 70.7008 62.9418 71.0568C62.3736 71.4129 61.9209 71.9375 61.5838 72.6307C61.2505 73.3239 61.0838 74.1742 61.0838 75.1818C61.0838 76.1894 61.2505 77.0398 61.5838 77.733C61.9209 78.4261 62.3736 78.9508 62.9418 79.3068C63.5137 79.6629 64.152 79.8409 64.8565 79.8409C65.5611 79.8409 66.1974 79.6629 66.7656 79.3068C67.3376 78.9508 67.7902 78.4261 68.1236 77.733C68.4607 77.0398 68.6293 76.1894 68.6293 75.1818ZM72.3622 81V69.3636H76.294C77.2031 69.3636 77.9493 69.5189 78.5327 69.8295C79.116 70.1364 79.5478 70.5587 79.8281 71.0966C80.1084 71.6345 80.2486 72.2462 80.2486 72.9318C80.2486 73.6174 80.1084 74.2254 79.8281 74.7557C79.5478 75.286 79.1179 75.7027 78.5384 76.0057C77.9588 76.3049 77.2183 76.4545 76.3168 76.4545H73.1349V75.1818H76.2713C76.8925 75.1818 77.3925 75.0909 77.7713 74.9091C78.1539 74.7273 78.4304 74.4697 78.6009 74.1364C78.7751 73.7992 78.8622 73.3977 78.8622 72.9318C78.8622 72.4659 78.7751 72.0587 78.6009 71.7102C78.4266 71.3617 78.1482 71.0928 77.7656 70.9034C77.383 70.7102 76.8774 70.6136 76.2486 70.6136H73.7713V81H72.3622ZM77.8395 75.7727L80.7031 81H79.0668L76.2486 75.7727H77.8395ZM81.206 69.3636H82.8196L86.0469 74.7955H86.1832L89.4105 69.3636H91.0241L86.8196 76.2045V81H85.4105V76.2045L81.206 69.3636Z" fill="white"/>
<defs>
<linearGradient id="paint0_linear_158_783" x1="0" y1="45.5" x2="163" y2="45.5" gradientUnits="userSpaceOnUse">
<stop stop-color="#24408E"/>
<stop offset="1" stop-color="#24408E" stop-opacity="0"/>
</linearGradient>
</defs>
</svg>
