<svg width="100%" viewBox="0 0 417 213" fill="none" xmlns="http://www.w3.org/2000/svg">
<path d="M25.48 56.84C20.776 56.84 16.7067 55.944 13.272 54.152C9.87467 52.3227 7.24267 49.7653 5.376 46.48C3.50933 43.1947 2.576 39.368 2.576 35C2.576 30.632 3.50933 26.8053 5.376 23.52C7.24267 20.2347 9.87467 17.696 13.272 15.904C16.7067 14.0747 20.776 13.16 25.48 13.16C30.1467 13.16 34.1787 14.0747 37.576 15.904C41.0107 17.696 43.6613 20.2347 45.528 23.52C47.3947 26.8053 48.328 30.632 48.328 35C48.328 39.368 47.3947 43.1947 45.528 46.48C43.6613 49.7653 41.0107 52.3227 37.576 54.152C34.1787 55.944 30.1467 56.84 25.48 56.84ZM25.48 49.112C29.6987 49.112 32.9653 47.88 35.28 45.416C37.632 42.9147 38.808 39.4427 38.808 35C38.808 30.52 37.632 27.048 35.28 24.584C32.9653 22.12 29.6987 20.888 25.48 20.888C21.2613 20.888 17.976 22.12 15.624 24.584C13.272 27.048 12.096 30.52 12.096 35C12.096 39.48 13.272 42.952 15.624 45.416C17.976 47.88 21.2613 49.112 25.48 49.112ZM73.6606 14V56H64.2526V17.136L68.9566 21.392L51.0926 24.528V17.136L66.6606 14H73.6606Z" fill="white"/>
<rect y="93" width="417" height="18" fill="url(#paint0_linear_2004_1344)"/>
<path d="M22.4545 154.364C22.4545 156.818 22.0114 158.939 21.125 160.727C20.2386 162.515 19.0227 163.894 17.4773 164.864C15.9318 165.833 14.1667 166.318 12.1818 166.318C10.197 166.318 8.43182 165.833 6.88636 164.864C5.34091 163.894 4.125 162.515 3.23864 160.727C2.35227 158.939 1.90909 156.818 1.90909 154.364C1.90909 151.909 2.35227 149.788 3.23864 148C4.125 146.212 5.34091 144.833 6.88636 143.864C8.43182 142.894 10.197 142.409 12.1818 142.409C14.1667 142.409 15.9318 142.894 17.4773 143.864C19.0227 144.833 20.2386 146.212 21.125 148C22.0114 149.788 22.4545 151.909 22.4545 154.364ZM19.7273 154.364C19.7273 152.348 19.3902 150.648 18.7159 149.261C18.0492 147.875 17.1439 146.826 16 146.114C14.8636 145.402 13.5909 145.045 12.1818 145.045C10.7727 145.045 9.49621 145.402 8.35227 146.114C7.21591 146.826 6.31061 147.875 5.63636 149.261C4.9697 150.648 4.63636 152.348 4.63636 154.364C4.63636 156.379 4.9697 158.08 5.63636 159.466C6.31061 160.852 7.21591 161.902 8.35227 162.614C9.49621 163.326 10.7727 163.682 12.1818 163.682C13.5909 163.682 14.8636 163.326 16 162.614C17.1439 161.902 18.0492 160.852 18.7159 159.466C19.3902 158.08 19.7273 156.379 19.7273 154.364ZM42.4659 142.727H45.2841V158.136C45.2841 159.727 44.9091 161.148 44.1591 162.398C43.4167 163.64 42.3674 164.621 41.0114 165.341C39.6553 166.053 38.0644 166.409 36.2386 166.409C34.4129 166.409 32.822 166.053 31.4659 165.341C30.1098 164.621 29.0568 163.64 28.3068 162.398C27.5644 161.148 27.1932 159.727 27.1932 158.136V142.727H30.0114V157.909C30.0114 159.045 30.2614 160.057 30.7614 160.943C31.2614 161.822 31.9735 162.515 32.8977 163.023C33.8295 163.523 34.9432 163.773 36.2386 163.773C37.5341 163.773 38.6477 163.523 39.5795 163.023C40.5114 162.515 41.2235 161.822 41.7159 160.943C42.2159 160.057 42.4659 159.045 42.4659 157.909V142.727ZM50.9119 166V142.727H58.7756C60.5938 142.727 62.0862 143.038 63.2528 143.659C64.4195 144.273 65.2831 145.117 65.8438 146.193C66.4044 147.269 66.6847 148.492 66.6847 149.864C66.6847 151.235 66.4044 152.451 65.8438 153.511C65.2831 154.572 64.4233 155.405 63.2642 156.011C62.1051 156.61 60.6241 156.909 58.821 156.909H52.4574V154.364H58.7301C59.9725 154.364 60.9725 154.182 61.7301 153.818C62.4953 153.455 63.0483 152.939 63.3892 152.273C63.7377 151.598 63.9119 150.795 63.9119 149.864C63.9119 148.932 63.7377 148.117 63.3892 147.42C63.0407 146.723 62.4839 146.186 61.7188 145.807C60.9536 145.42 59.9422 145.227 58.6847 145.227H53.7301V166H50.9119ZM61.8665 155.545L67.5938 166H64.321L58.6847 155.545H61.8665ZM3.77273 181.727L10.6818 201.318H10.9545L17.8636 181.727H20.8182L12.2727 205H9.36364L0.818182 181.727H3.77273ZM27.2614 181.727V205H24.4432V181.727H27.2614ZM45.6392 187.545C45.5028 186.394 44.9498 185.5 43.9801 184.864C43.0104 184.227 41.821 183.909 40.4119 183.909C39.3816 183.909 38.4801 184.076 37.7074 184.409C36.9422 184.742 36.3438 185.201 35.9119 185.784C35.4877 186.367 35.2756 187.03 35.2756 187.773C35.2756 188.394 35.4233 188.928 35.7188 189.375C36.0218 189.814 36.4081 190.182 36.8778 190.477C37.3475 190.765 37.84 191.004 38.3551 191.193C38.8703 191.375 39.3438 191.523 39.7756 191.636L42.1392 192.273C42.7453 192.432 43.4195 192.652 44.1619 192.932C44.9119 193.212 45.6278 193.595 46.3097 194.08C46.9991 194.557 47.5672 195.17 48.0142 195.92C48.4612 196.67 48.6847 197.591 48.6847 198.682C48.6847 199.939 48.3551 201.076 47.696 202.091C47.0445 203.106 46.09 203.913 44.8324 204.511C43.5824 205.11 42.0634 205.409 40.2756 205.409C38.6089 205.409 37.1657 205.14 35.946 204.602C34.7339 204.064 33.7794 203.314 33.0824 202.352C32.393 201.39 32.0028 200.273 31.9119 199H34.821C34.8968 199.879 35.1922 200.606 35.7074 201.182C36.2301 201.75 36.8892 202.174 37.6847 202.455C38.4877 202.727 39.3513 202.864 40.2756 202.864C41.3513 202.864 42.3172 202.689 43.1733 202.341C44.0294 201.985 44.7074 201.492 45.2074 200.864C45.7074 200.227 45.9574 199.485 45.9574 198.636C45.9574 197.864 45.7415 197.235 45.3097 196.75C44.8778 196.265 44.3097 195.871 43.6051 195.568C42.9006 195.265 42.1392 195 41.321 194.773L38.4574 193.955C36.6392 193.432 35.1998 192.686 34.1392 191.716C33.0786 190.746 32.5483 189.477 32.5483 187.909C32.5483 186.606 32.9006 185.47 33.6051 184.5C34.3172 183.523 35.2718 182.765 36.4688 182.227C37.6733 181.682 39.018 181.409 40.5028 181.409C42.0028 181.409 43.3362 181.678 44.5028 182.216C45.6695 182.746 46.5938 183.473 47.2756 184.398C47.965 185.322 48.3286 186.371 48.3665 187.545H45.6392ZM56.1364 181.727V205H53.3182V181.727H56.1364ZM81.4233 193.364C81.4233 195.818 80.9801 197.939 80.0938 199.727C79.2074 201.515 77.9915 202.894 76.446 203.864C74.9006 204.833 73.1354 205.318 71.1506 205.318C69.1657 205.318 67.4006 204.833 65.8551 203.864C64.3097 202.894 63.0938 201.515 62.2074 199.727C61.321 197.939 60.8778 195.818 60.8778 193.364C60.8778 190.909 61.321 188.788 62.2074 187C63.0938 185.212 64.3097 183.833 65.8551 182.864C67.4006 181.894 69.1657 181.409 71.1506 181.409C73.1354 181.409 74.9006 181.894 76.446 182.864C77.9915 183.833 79.2074 185.212 80.0938 187C80.9801 188.788 81.4233 190.909 81.4233 193.364ZM78.696 193.364C78.696 191.348 78.3589 189.648 77.6847 188.261C77.018 186.875 76.1127 185.826 74.9688 185.114C73.8324 184.402 72.5597 184.045 71.1506 184.045C69.7415 184.045 68.465 184.402 67.321 185.114C66.1847 185.826 65.2794 186.875 64.6051 188.261C63.9384 189.648 63.6051 191.348 63.6051 193.364C63.6051 195.379 63.9384 197.08 64.6051 198.466C65.2794 199.852 66.1847 200.902 67.321 201.614C68.465 202.326 69.7415 202.682 71.1506 202.682C72.5597 202.682 73.8324 202.326 74.9688 201.614C76.1127 200.902 77.018 199.852 77.6847 198.466C78.3589 197.08 78.696 195.379 78.696 193.364ZM104.616 181.727V205H101.889L89.2074 186.727H88.9801V205H86.1619V181.727H88.8892L101.616 200.045H101.844V181.727H104.616Z" fill="white"/>
<defs>
<linearGradient id="paint0_linear_2004_1344" x1="0" y1="102" x2="417" y2="102" gradientUnits="userSpaceOnUse">
<stop stop-color="white" stop-opacity="0.4"/>
<stop offset="1" stop-color="#24408E" stop-opacity="0"/>
</linearGradient>
</defs>
</svg>
