<svg width="100%" viewBox="0 0 417 193" fill="none" xmlns="http://www.w3.org/2000/svg">
<path d="M25.48 43.84C20.776 43.84 16.7067 42.944 13.272 41.152C9.87467 39.3227 7.24267 36.7653 5.376 33.48C3.50933 30.1947 2.576 26.368 2.576 22C2.576 17.632 3.50933 13.8053 5.376 10.52C7.24267 7.23466 9.87467 4.696 13.272 2.904C16.7067 1.07466 20.776 0.159997 25.48 0.159997C30.1467 0.159997 34.1787 1.07466 37.576 2.904C41.0107 4.696 43.6613 7.23466 45.528 10.52C47.3947 13.8053 48.328 17.632 48.328 22C48.328 26.368 47.3947 30.1947 45.528 33.48C43.6613 36.7653 41.0107 39.3227 37.576 41.152C34.1787 42.944 30.1467 43.84 25.48 43.84ZM25.48 36.112C29.6987 36.112 32.9653 34.88 35.28 32.416C37.632 29.9147 38.808 26.4427 38.808 22C38.808 17.52 37.632 14.048 35.28 11.584C32.9653 9.12 29.6987 7.888 25.48 7.888C21.2613 7.888 17.976 9.12 15.624 11.584C13.272 14.048 12.096 17.52 12.096 22C12.096 26.48 13.272 29.952 15.624 32.416C17.976 34.88 21.2613 36.112 25.48 36.112ZM75.6101 0.159997C79.1194 0.159997 82.2181 0.682664 84.9061 1.728C87.5941 2.77333 89.7781 4.21066 91.4581 6.04C93.1754 7.832 94.2207 9.88533 94.5941 12.2H85.5781C85.0181 10.856 83.9914 9.736 82.4981 8.84C81.0047 7.90666 78.8021 7.44 75.8901 7.44C72.8287 7.44 70.3087 8.01866 68.3301 9.176C66.3514 10.296 64.8954 11.92 63.9621 14.048C63.0287 16.1387 62.5621 18.6773 62.5621 21.664C62.5621 24.8373 63.0847 27.544 64.1301 29.784C65.1754 31.9867 66.7061 33.6667 68.7221 34.824C70.7754 35.944 73.2767 36.504 76.2261 36.504C78.3541 36.504 80.1461 36.2053 81.6021 35.608C83.0581 35.0107 84.1594 34.1893 84.9061 33.144C85.6527 32.0987 86.0261 30.9227 86.0261 29.616C86.0261 28.3467 85.6901 27.2267 85.0181 26.256C84.3461 25.248 83.3194 24.464 81.9381 23.904C80.5567 23.344 78.8207 23.064 76.7301 23.064C73.8927 23.064 71.2421 23.7173 68.7781 25.024C66.3141 26.3307 64.1674 28.1227 62.3381 30.4L58.8101 27.936C60.0047 25.6213 61.5541 23.5493 63.4581 21.72C65.3621 19.8907 67.6021 18.4533 70.1781 17.408C72.7541 16.3253 75.6474 15.784 78.8581 15.784C82.2554 15.784 85.2047 16.344 87.7061 17.464C90.2074 18.584 92.1301 20.1707 93.4741 22.224C94.8554 24.24 95.5461 26.6107 95.5461 29.336C95.5461 32.1733 94.7621 34.6933 93.1941 36.896C91.6634 39.0613 89.4421 40.76 86.5301 41.992C83.6554 43.224 80.1834 43.84 76.1141 43.84C71.1487 43.84 66.9861 42.9253 63.6261 41.096C60.2661 39.2293 57.7461 36.6533 56.0661 33.368C54.3861 30.0453 53.5461 26.256 53.5461 22C53.5461 17.744 54.3861 13.9733 56.0661 10.688C57.7461 7.40267 60.2287 4.82667 63.5141 2.96C66.7994 1.09333 70.8314 0.159997 75.6101 0.159997Z" fill="white"/>
<rect y="80" width="417" height="18" fill="url(#paint0_linear_158_783)"/>
<path d="M22.4545 141.364C22.4545 143.818 22.0114 145.939 21.125 147.727C20.2386 149.515 19.0227 150.894 17.4773 151.864C15.9318 152.833 14.1667 153.318 12.1818 153.318C10.197 153.318 8.43182 152.833 6.88636 151.864C5.34091 150.894 4.125 149.515 3.23864 147.727C2.35227 145.939 1.90909 143.818 1.90909 141.364C1.90909 138.909 2.35227 136.788 3.23864 135C4.125 133.212 5.34091 131.833 6.88636 130.864C8.43182 129.894 10.197 129.409 12.1818 129.409C14.1667 129.409 15.9318 129.894 17.4773 130.864C19.0227 131.833 20.2386 133.212 21.125 135C22.0114 136.788 22.4545 138.909 22.4545 141.364ZM19.7273 141.364C19.7273 139.348 19.3902 137.648 18.7159 136.261C18.0492 134.875 17.1439 133.826 16 133.114C14.8636 132.402 13.5909 132.045 12.1818 132.045C10.7727 132.045 9.49621 132.402 8.35227 133.114C7.21591 133.826 6.31061 134.875 5.63636 136.261C4.9697 137.648 4.63636 139.348 4.63636 141.364C4.63636 143.379 4.9697 145.08 5.63636 146.466C6.31061 147.852 7.21591 148.902 8.35227 149.614C9.49621 150.326 10.7727 150.682 12.1818 150.682C13.5909 150.682 14.8636 150.326 16 149.614C17.1439 148.902 18.0492 147.852 18.7159 146.466C19.3902 145.08 19.7273 143.379 19.7273 141.364ZM42.4659 129.727H45.2841V145.136C45.2841 146.727 44.9091 148.148 44.1591 149.398C43.4167 150.64 42.3674 151.621 41.0114 152.341C39.6553 153.053 38.0644 153.409 36.2386 153.409C34.4129 153.409 32.822 153.053 31.4659 152.341C30.1098 151.621 29.0568 150.64 28.3068 149.398C27.5644 148.148 27.1932 146.727 27.1932 145.136V129.727H30.0114V144.909C30.0114 146.045 30.2614 147.057 30.7614 147.943C31.2614 148.822 31.9735 149.515 32.8977 150.023C33.8295 150.523 34.9432 150.773 36.2386 150.773C37.5341 150.773 38.6477 150.523 39.5795 150.023C40.5114 149.515 41.2235 148.822 41.7159 147.943C42.2159 147.057 42.4659 146.045 42.4659 144.909V129.727ZM50.9119 153V129.727H58.7756C60.5938 129.727 62.0862 130.038 63.2528 130.659C64.4195 131.273 65.2831 132.117 65.8438 133.193C66.4044 134.269 66.6847 135.492 66.6847 136.864C66.6847 138.235 66.4044 139.451 65.8438 140.511C65.2831 141.572 64.4233 142.405 63.2642 143.011C62.1051 143.61 60.6241 143.909 58.821 143.909H52.4574V141.364H58.7301C59.9725 141.364 60.9725 141.182 61.7301 140.818C62.4953 140.455 63.0483 139.939 63.3892 139.273C63.7377 138.598 63.9119 137.795 63.9119 136.864C63.9119 135.932 63.7377 135.117 63.3892 134.42C63.0407 133.723 62.4839 133.186 61.7188 132.807C60.9536 132.42 59.9422 132.227 58.6847 132.227H53.7301V153H50.9119ZM61.8665 142.545L67.5938 153H64.321L58.6847 142.545H61.8665ZM2.81818 192V168.727H16.7727V171.227H5.63636V179.091H15.7273V181.591H5.63636V192H2.81818ZM24.4176 168.727V192H21.5994V168.727H24.4176ZM48.5227 168.727V192H45.7955L33.1136 173.727H32.8864V192H30.0682V168.727H32.7955L45.5227 187.045H45.75V168.727H48.5227ZM55.1165 192H52.1619L60.7074 168.727H63.6165L72.1619 192H69.2074L62.2528 172.409H62.071L55.1165 192ZM56.2074 182.909H68.1165V185.409H56.2074V182.909ZM94.2415 168.727V192H91.5142L78.8324 173.727H78.6051V192H75.7869V168.727H78.5142L91.2415 187.045H91.4688V168.727H94.2415ZM118.608 176H115.79C115.623 175.189 115.331 174.477 114.915 173.864C114.506 173.25 114.006 172.735 113.415 172.318C112.831 171.894 112.184 171.576 111.472 171.364C110.759 171.152 110.017 171.045 109.244 171.045C107.835 171.045 106.559 171.402 105.415 172.114C104.278 172.826 103.373 173.875 102.699 175.261C102.032 176.648 101.699 178.348 101.699 180.364C101.699 182.379 102.032 184.08 102.699 185.466C103.373 186.852 104.278 187.902 105.415 188.614C106.559 189.326 107.835 189.682 109.244 189.682C110.017 189.682 110.759 189.576 111.472 189.364C112.184 189.152 112.831 188.837 113.415 188.42C114.006 187.996 114.506 187.477 114.915 186.864C115.331 186.242 115.623 185.53 115.79 184.727H118.608C118.396 185.917 118.009 186.981 117.449 187.92C116.888 188.86 116.191 189.659 115.358 190.318C114.525 190.97 113.589 191.466 112.551 191.807C111.521 192.148 110.419 192.318 109.244 192.318C107.259 192.318 105.494 191.833 103.949 190.864C102.403 189.894 101.188 188.515 100.301 186.727C99.4148 184.939 98.9716 182.818 98.9716 180.364C98.9716 177.909 99.4148 175.788 100.301 174C101.188 172.212 102.403 170.833 103.949 169.864C105.494 168.894 107.259 168.409 109.244 168.409C110.419 168.409 111.521 168.58 112.551 168.92C113.589 169.261 114.525 169.761 115.358 170.42C116.191 171.072 116.888 171.867 117.449 172.807C118.009 173.739 118.396 174.803 118.608 176ZM125.98 168.727V192H123.162V168.727H125.98ZM132.585 192H129.631L138.176 168.727H141.085L149.631 192H146.676L139.722 172.409H139.54L132.585 192ZM133.676 182.909H145.585V185.409H133.676V182.909ZM153.256 192V168.727H156.074V189.5H166.892V192H153.256ZM183.983 174.545C183.847 173.394 183.294 172.5 182.324 171.864C181.354 171.227 180.165 170.909 178.756 170.909C177.725 170.909 176.824 171.076 176.051 171.409C175.286 171.742 174.688 172.201 174.256 172.784C173.831 173.367 173.619 174.03 173.619 174.773C173.619 175.394 173.767 175.928 174.062 176.375C174.366 176.814 174.752 177.182 175.222 177.477C175.691 177.765 176.184 178.004 176.699 178.193C177.214 178.375 177.688 178.523 178.119 178.636L180.483 179.273C181.089 179.432 181.763 179.652 182.506 179.932C183.256 180.212 183.972 180.595 184.653 181.08C185.343 181.557 185.911 182.17 186.358 182.92C186.805 183.67 187.028 184.591 187.028 185.682C187.028 186.939 186.699 188.076 186.04 189.091C185.388 190.106 184.434 190.913 183.176 191.511C181.926 192.11 180.407 192.409 178.619 192.409C176.953 192.409 175.509 192.14 174.29 191.602C173.078 191.064 172.123 190.314 171.426 189.352C170.737 188.39 170.347 187.273 170.256 186H173.165C173.241 186.879 173.536 187.606 174.051 188.182C174.574 188.75 175.233 189.174 176.028 189.455C176.831 189.727 177.695 189.864 178.619 189.864C179.695 189.864 180.661 189.689 181.517 189.341C182.373 188.985 183.051 188.492 183.551 187.864C184.051 187.227 184.301 186.485 184.301 185.636C184.301 184.864 184.085 184.235 183.653 183.75C183.222 183.265 182.653 182.871 181.949 182.568C181.244 182.265 180.483 182 179.665 181.773L176.801 180.955C174.983 180.432 173.544 179.686 172.483 178.716C171.422 177.746 170.892 176.477 170.892 174.909C170.892 173.606 171.244 172.47 171.949 171.5C172.661 170.523 173.616 169.765 174.812 169.227C176.017 168.682 177.362 168.409 178.847 168.409C180.347 168.409 181.68 168.678 182.847 169.216C184.013 169.746 184.938 170.473 185.619 171.398C186.309 172.322 186.672 173.371 186.71 174.545H183.983Z" fill="white"/>
<defs>
<linearGradient id="paint0_linear_158_783" x1="0" y1="89" x2="417" y2="89" gradientUnits="userSpaceOnUse">
<stop stop-color="white"/>
<stop offset="1" stop-color="#24408E" stop-opacity="0"/>
</linearGradient>
</defs>
</svg>
