<svg width="100%" viewBox="0 0 417 193" fill="none" xmlns="http://www.w3.org/2000/svg">
<path d="M25.48 43.84C20.776 43.84 16.7067 42.944 13.272 41.152C9.87467 39.3227 7.24267 36.7653 5.376 33.48C3.50933 30.1947 2.576 26.368 2.576 22C2.576 17.632 3.50933 13.8053 5.376 10.52C7.24267 7.23466 9.87467 4.696 13.272 2.904C16.7067 1.07466 20.776 0.159997 25.48 0.159997C30.1467 0.159997 34.1787 1.07466 37.576 2.904C41.0107 4.696 43.6613 7.23466 45.528 10.52C47.3947 13.8053 48.328 17.632 48.328 22C48.328 26.368 47.3947 30.1947 45.528 33.48C43.6613 36.7653 41.0107 39.3227 37.576 41.152C34.1787 42.944 30.1467 43.84 25.48 43.84ZM25.48 36.112C29.6987 36.112 32.9653 34.88 35.28 32.416C37.632 29.9147 38.808 26.4427 38.808 22C38.808 17.52 37.632 14.048 35.28 11.584C32.9653 9.12 29.6987 7.888 25.48 7.888C21.2613 7.888 17.976 9.12 15.624 11.584C13.272 14.048 12.096 17.52 12.096 22C12.096 26.48 13.272 29.952 15.624 32.416C17.976 34.88 21.2613 36.112 25.48 36.112ZM88.6021 0.999997V43H79.1941V5.088H82.4421L59.4821 30.512L59.3701 27.376H95.7701V34.656H52.2581V27.936L76.5621 0.999997H88.6021Z" fill="white"/>
<rect y="80" width="417" height="18" fill="url(#paint0_linear_158_783)"/>
<path d="M22.4545 141.364C22.4545 143.818 22.0114 145.939 21.125 147.727C20.2386 149.515 19.0227 150.894 17.4773 151.864C15.9318 152.833 14.1667 153.318 12.1818 153.318C10.197 153.318 8.43182 152.833 6.88636 151.864C5.34091 150.894 4.125 149.515 3.23864 147.727C2.35227 145.939 1.90909 143.818 1.90909 141.364C1.90909 138.909 2.35227 136.788 3.23864 135C4.125 133.212 5.34091 131.833 6.88636 130.864C8.43182 129.894 10.197 129.409 12.1818 129.409C14.1667 129.409 15.9318 129.894 17.4773 130.864C19.0227 131.833 20.2386 133.212 21.125 135C22.0114 136.788 22.4545 138.909 22.4545 141.364ZM19.7273 141.364C19.7273 139.348 19.3902 137.648 18.7159 136.261C18.0492 134.875 17.1439 133.826 16 133.114C14.8636 132.402 13.5909 132.045 12.1818 132.045C10.7727 132.045 9.49621 132.402 8.35227 133.114C7.21591 133.826 6.31061 134.875 5.63636 136.261C4.9697 137.648 4.63636 139.348 4.63636 141.364C4.63636 143.379 4.9697 145.08 5.63636 146.466C6.31061 147.852 7.21591 148.902 8.35227 149.614C9.49621 150.326 10.7727 150.682 12.1818 150.682C13.5909 150.682 14.8636 150.326 16 149.614C17.1439 148.902 18.0492 147.852 18.7159 146.466C19.3902 145.08 19.7273 143.379 19.7273 141.364ZM42.4659 129.727H45.2841V145.136C45.2841 146.727 44.9091 148.148 44.1591 149.398C43.4167 150.64 42.3674 151.621 41.0114 152.341C39.6553 153.053 38.0644 153.409 36.2386 153.409C34.4129 153.409 32.822 153.053 31.4659 152.341C30.1098 151.621 29.0568 150.64 28.3068 149.398C27.5644 148.148 27.1932 146.727 27.1932 145.136V129.727H30.0114V144.909C30.0114 146.045 30.2614 147.057 30.7614 147.943C31.2614 148.822 31.9735 149.515 32.8977 150.023C33.8295 150.523 34.9432 150.773 36.2386 150.773C37.5341 150.773 38.6477 150.523 39.5795 150.023C40.5114 149.515 41.2235 148.822 41.7159 147.943C42.2159 147.057 42.4659 146.045 42.4659 144.909V129.727ZM50.9119 153V129.727H58.7756C60.5938 129.727 62.0862 130.038 63.2528 130.659C64.4195 131.273 65.2831 132.117 65.8438 133.193C66.4044 134.269 66.6847 135.492 66.6847 136.864C66.6847 138.235 66.4044 139.451 65.8438 140.511C65.2831 141.572 64.4233 142.405 63.2642 143.011C62.1051 143.61 60.6241 143.909 58.821 143.909H52.4574V141.364H58.7301C59.9725 141.364 60.9725 141.182 61.7301 140.818C62.4953 140.455 63.0483 139.939 63.3892 139.273C63.7377 138.598 63.9119 137.795 63.9119 136.864C63.9119 135.932 63.7377 135.117 63.3892 134.42C63.0407 133.723 62.4839 133.186 61.7188 132.807C60.9536 132.42 59.9422 132.227 58.6847 132.227H53.7301V153H50.9119ZM61.8665 142.545L67.5938 153H64.321L58.6847 142.545H61.8665ZM18.7273 176C18.4773 175.235 18.1477 174.549 17.7386 173.943C17.3371 173.33 16.8561 172.807 16.2955 172.375C15.7424 171.943 15.1136 171.614 14.4091 171.386C13.7045 171.159 12.9318 171.045 12.0909 171.045C10.7121 171.045 9.45833 171.402 8.32955 172.114C7.20076 172.826 6.30303 173.875 5.63636 175.261C4.9697 176.648 4.63636 178.348 4.63636 180.364C4.63636 182.379 4.97349 184.08 5.64773 185.466C6.32197 186.852 7.23485 187.902 8.38636 188.614C9.53788 189.326 10.8333 189.682 12.2727 189.682C13.6061 189.682 14.7803 189.398 15.7955 188.83C16.8182 188.254 17.6136 187.443 18.1818 186.398C18.7576 185.345 19.0455 184.106 19.0455 182.682L19.9091 182.864H12.9091V180.364H21.7727V182.864C21.7727 184.78 21.3636 186.447 20.5455 187.864C19.7348 189.28 18.6136 190.379 17.1818 191.159C15.7576 191.932 14.1212 192.318 12.2727 192.318C10.2121 192.318 8.40152 191.833 6.84091 190.864C5.28788 189.894 4.07576 188.515 3.20455 186.727C2.34091 184.939 1.90909 182.818 1.90909 180.364C1.90909 178.523 2.1553 176.867 2.64773 175.398C3.14773 173.92 3.85227 172.663 4.76136 171.625C5.67045 170.587 6.74621 169.792 7.98864 169.239C9.23106 168.686 10.5985 168.409 12.0909 168.409C13.3182 168.409 14.4621 168.595 15.5227 168.966C16.5909 169.33 17.5417 169.848 18.375 170.523C19.2159 171.189 19.9167 171.989 20.4773 172.92C21.0379 173.845 21.4242 174.871 21.6364 176H18.7273ZM46.2358 180.364C46.2358 182.818 45.7926 184.939 44.9062 186.727C44.0199 188.515 42.804 189.894 41.2585 190.864C39.7131 191.833 37.9479 192.318 35.9631 192.318C33.9782 192.318 32.2131 191.833 30.6676 190.864C29.1222 189.894 27.9063 188.515 27.0199 186.727C26.1335 184.939 25.6903 182.818 25.6903 180.364C25.6903 177.909 26.1335 175.788 27.0199 174C27.9063 172.212 29.1222 170.833 30.6676 169.864C32.2131 168.894 33.9782 168.409 35.9631 168.409C37.9479 168.409 39.7131 168.894 41.2585 169.864C42.804 170.833 44.0199 172.212 44.9062 174C45.7926 175.788 46.2358 177.909 46.2358 180.364ZM43.5085 180.364C43.5085 178.348 43.1714 176.648 42.4972 175.261C41.8305 173.875 40.9252 172.826 39.7812 172.114C38.6449 171.402 37.3722 171.045 35.9631 171.045C34.554 171.045 33.2775 171.402 32.1335 172.114C30.9972 172.826 30.0919 173.875 29.4176 175.261C28.7509 176.648 28.4176 178.348 28.4176 180.364C28.4176 182.379 28.7509 184.08 29.4176 185.466C30.0919 186.852 30.9972 187.902 32.1335 188.614C33.2775 189.326 34.554 189.682 35.9631 189.682C37.3722 189.682 38.6449 189.326 39.7812 188.614C40.9252 187.902 41.8305 186.852 42.4972 185.466C43.1714 184.08 43.5085 182.379 43.5085 180.364ZM50.8352 168.727L57.7443 188.318H58.017L64.9261 168.727H67.8807L59.3352 192H56.4261L47.8807 168.727H50.8352ZM71.5057 192V168.727H85.5511V171.227H74.3239V179.091H84.8239V181.591H74.3239V189.5H85.733V192H71.5057ZM90.6307 192V168.727H98.4943C100.313 168.727 101.805 169.038 102.972 169.659C104.138 170.273 105.002 171.117 105.562 172.193C106.123 173.269 106.403 174.492 106.403 175.864C106.403 177.235 106.123 178.451 105.562 179.511C105.002 180.572 104.142 181.405 102.983 182.011C101.824 182.61 100.343 182.909 98.5398 182.909H92.1761V180.364H98.4489C99.6913 180.364 100.691 180.182 101.449 179.818C102.214 179.455 102.767 178.939 103.108 178.273C103.456 177.598 103.631 176.795 103.631 175.864C103.631 174.932 103.456 174.117 103.108 173.42C102.759 172.723 102.203 172.186 101.438 171.807C100.672 171.42 99.661 171.227 98.4034 171.227H93.4489V192H90.6307ZM101.585 181.545L107.312 192H104.04L98.4034 181.545H101.585ZM129.554 168.727V192H126.827L114.145 173.727H113.918V192H111.099V168.727H113.827L126.554 187.045H126.781V168.727H129.554ZM136.148 192H133.193L141.739 168.727H144.648L153.193 192H150.239L143.284 172.409H143.102L136.148 192ZM137.239 182.909H149.148V185.409H137.239V182.909ZM175.273 168.727V192H172.545L159.864 173.727H159.636V192H156.818V168.727H159.545L172.273 187.045H172.5V168.727H175.273ZM199.639 176H196.821C196.654 175.189 196.363 174.477 195.946 173.864C195.537 173.25 195.037 172.735 194.446 172.318C193.863 171.894 193.215 171.576 192.503 171.364C191.791 171.152 191.048 171.045 190.276 171.045C188.866 171.045 187.59 171.402 186.446 172.114C185.31 172.826 184.404 173.875 183.73 175.261C183.063 176.648 182.73 178.348 182.73 180.364C182.73 182.379 183.063 184.08 183.73 185.466C184.404 186.852 185.31 187.902 186.446 188.614C187.59 189.326 188.866 189.682 190.276 189.682C191.048 189.682 191.791 189.576 192.503 189.364C193.215 189.152 193.863 188.837 194.446 188.42C195.037 187.996 195.537 187.477 195.946 186.864C196.363 186.242 196.654 185.53 196.821 184.727H199.639C199.427 185.917 199.041 186.981 198.48 187.92C197.92 188.86 197.223 189.659 196.389 190.318C195.556 190.97 194.62 191.466 193.582 191.807C192.552 192.148 191.45 192.318 190.276 192.318C188.291 192.318 186.526 191.833 184.98 190.864C183.435 189.894 182.219 188.515 181.332 186.727C180.446 184.939 180.003 182.818 180.003 180.364C180.003 177.909 180.446 175.788 181.332 174C182.219 172.212 183.435 170.833 184.98 169.864C186.526 168.894 188.291 168.409 190.276 168.409C191.45 168.409 192.552 168.58 193.582 168.92C194.62 169.261 195.556 169.761 196.389 170.42C197.223 171.072 197.92 171.867 198.48 172.807C199.041 173.739 199.427 174.803 199.639 176ZM204.193 192V168.727H218.239V171.227H207.011V179.091H217.511V181.591H207.011V189.5H218.42V192H204.193Z" fill="white"/>
<defs>
<linearGradient id="paint0_linear_158_783" x1="0" y1="89" x2="417" y2="89" gradientUnits="userSpaceOnUse">
<stop stop-color="#24CBFF"/>
<stop offset="1" stop-color="#24408E" stop-opacity="0"/>
</linearGradient>
</defs>
</svg>
