<svg width="100%" viewBox="0 0 418 193" fill="none" xmlns="http://www.w3.org/2000/svg">
<path d="M25.98 43.84C21.276 43.84 17.2067 42.944 13.772 41.152C10.3747 39.3227 7.74267 36.7653 5.876 33.48C4.00933 30.1947 3.076 26.368 3.076 22C3.076 17.632 4.00933 13.8053 5.876 10.52C7.74267 7.23466 10.3747 4.696 13.772 2.904C17.2067 1.07466 21.276 0.159997 25.98 0.159997C30.6467 0.159997 34.6787 1.07466 38.076 2.904C41.5107 4.696 44.1613 7.23466 46.028 10.52C47.8947 13.8053 48.828 17.632 48.828 22C48.828 26.368 47.8947 30.1947 46.028 33.48C44.1613 36.7653 41.5107 39.3227 38.076 41.152C34.6787 42.944 30.6467 43.84 25.98 43.84ZM25.98 36.112C30.1987 36.112 33.4653 34.88 35.78 32.416C38.132 29.9147 39.308 26.4427 39.308 22C39.308 17.52 38.132 14.048 35.78 11.584C33.4653 9.12 30.1987 7.888 25.98 7.888C21.7613 7.888 18.476 9.12 16.124 11.584C13.772 14.048 12.596 17.52 12.596 22C12.596 26.48 13.772 29.952 16.124 32.416C18.476 34.88 21.7613 36.112 25.98 36.112ZM58.4141 0.999997H90.2221V8.28H61.3261L65.1901 6.32L62.8381 22.728H60.3181C61.1767 21.384 62.3154 20.1333 63.7341 18.976C65.1901 17.8187 66.9634 16.8853 69.0541 16.176C71.1447 15.4667 73.5527 15.112 76.2781 15.112C79.8994 15.112 82.9981 15.728 85.5741 16.96C88.1501 18.1547 90.1101 19.816 91.4541 21.944C92.8354 24.0347 93.5261 26.424 93.5261 29.112C93.5261 31.9867 92.7234 34.5253 91.1181 36.728C89.5127 38.9307 87.2354 40.6667 84.2861 41.936C81.3367 43.2053 77.8274 43.84 73.7581 43.84C69.7261 43.84 66.2167 43.2613 63.2301 42.104C60.2434 40.9093 57.8914 39.2853 56.1741 37.232C54.4941 35.1787 53.5047 32.9013 53.2061 30.4H62.6701C63.1181 32.2293 64.2941 33.6853 66.1981 34.768C68.1021 35.8133 70.6221 36.336 73.7581 36.336C75.8487 36.336 77.6594 36.056 79.1901 35.496C80.7207 34.8987 81.8967 34.0587 82.7181 32.976C83.5767 31.8933 84.0061 30.6053 84.0061 29.112C84.0061 27.656 83.6327 26.3867 82.8861 25.304C82.1767 24.184 81.0941 23.3253 79.6381 22.728C78.2194 22.1307 76.4087 21.832 74.2061 21.832C72.4141 21.832 70.7901 22.0373 69.3341 22.448C67.9154 22.8587 66.6834 23.4 65.6381 24.072C64.6301 24.7067 63.7714 25.3787 63.0621 26.088H54.9421L58.4141 0.999997Z" fill="white"/>
<rect x="0.5" y="80" width="417" height="18" fill="url(#paint0_linear_158_783)"/>
<path d="M22.9545 141.364C22.9545 143.818 22.5114 145.939 21.625 147.727C20.7386 149.515 19.5227 150.894 17.9773 151.864C16.4318 152.833 14.6667 153.318 12.6818 153.318C10.697 153.318 8.93182 152.833 7.38636 151.864C5.84091 150.894 4.625 149.515 3.73864 147.727C2.85227 145.939 2.40909 143.818 2.40909 141.364C2.40909 138.909 2.85227 136.788 3.73864 135C4.625 133.212 5.84091 131.833 7.38636 130.864C8.93182 129.894 10.697 129.409 12.6818 129.409C14.6667 129.409 16.4318 129.894 17.9773 130.864C19.5227 131.833 20.7386 133.212 21.625 135C22.5114 136.788 22.9545 138.909 22.9545 141.364ZM20.2273 141.364C20.2273 139.348 19.8902 137.648 19.2159 136.261C18.5492 134.875 17.6439 133.826 16.5 133.114C15.3636 132.402 14.0909 132.045 12.6818 132.045C11.2727 132.045 9.99621 132.402 8.85227 133.114C7.71591 133.826 6.81061 134.875 6.13636 136.261C5.4697 137.648 5.13636 139.348 5.13636 141.364C5.13636 143.379 5.4697 145.08 6.13636 146.466C6.81061 147.852 7.71591 148.902 8.85227 149.614C9.99621 150.326 11.2727 150.682 12.6818 150.682C14.0909 150.682 15.3636 150.326 16.5 149.614C17.6439 148.902 18.5492 147.852 19.2159 146.466C19.8902 145.08 20.2273 143.379 20.2273 141.364ZM42.9659 129.727H45.7841V145.136C45.7841 146.727 45.4091 148.148 44.6591 149.398C43.9167 150.64 42.8674 151.621 41.5114 152.341C40.1553 153.053 38.5644 153.409 36.7386 153.409C34.9129 153.409 33.322 153.053 31.9659 152.341C30.6098 151.621 29.5568 150.64 28.8068 149.398C28.0644 148.148 27.6932 146.727 27.6932 145.136V129.727H30.5114V144.909C30.5114 146.045 30.7614 147.057 31.2614 147.943C31.7614 148.822 32.4735 149.515 33.3977 150.023C34.3295 150.523 35.4432 150.773 36.7386 150.773C38.0341 150.773 39.1477 150.523 40.0795 150.023C41.0114 149.515 41.7235 148.822 42.2159 147.943C42.7159 147.057 42.9659 146.045 42.9659 144.909V129.727ZM51.4119 153V129.727H59.2756C61.0938 129.727 62.5862 130.038 63.7528 130.659C64.9195 131.273 65.7831 132.117 66.3438 133.193C66.9044 134.269 67.1847 135.492 67.1847 136.864C67.1847 138.235 66.9044 139.451 66.3438 140.511C65.7831 141.572 64.9233 142.405 63.7642 143.011C62.6051 143.61 61.1241 143.909 59.321 143.909H52.9574V141.364H59.2301C60.4725 141.364 61.4725 141.182 62.2301 140.818C62.9953 140.455 63.5483 139.939 63.8892 139.273C64.2377 138.598 64.4119 137.795 64.4119 136.864C64.4119 135.932 64.2377 135.117 63.8892 134.42C63.5407 133.723 62.9839 133.186 62.2188 132.807C61.4536 132.42 60.4422 132.227 59.1847 132.227H54.2301V153H51.4119ZM62.3665 142.545L68.0938 153H64.821L59.1847 142.545H62.3665ZM6.13636 168.727V192H3.31818V168.727H6.13636ZM30.2415 168.727V192H27.5142L14.8324 173.727H14.6051V192H11.7869V168.727H14.5142L27.2415 187.045H27.4688V168.727H30.2415ZM54.3352 168.727V192H51.608L38.9261 173.727H38.6989V192H35.8807V168.727H38.608L51.3352 187.045H51.5625V168.727H54.3352ZM79.6108 180.364C79.6108 182.818 79.1676 184.939 78.2812 186.727C77.3949 188.515 76.179 189.894 74.6335 190.864C73.0881 191.833 71.3229 192.318 69.3381 192.318C67.3532 192.318 65.5881 191.833 64.0426 190.864C62.4972 189.894 61.2813 188.515 60.3949 186.727C59.5085 184.939 59.0653 182.818 59.0653 180.364C59.0653 177.909 59.5085 175.788 60.3949 174C61.2813 172.212 62.4972 170.833 64.0426 169.864C65.5881 168.894 67.3532 168.409 69.3381 168.409C71.3229 168.409 73.0881 168.894 74.6335 169.864C76.179 170.833 77.3949 172.212 78.2812 174C79.1676 175.788 79.6108 177.909 79.6108 180.364ZM76.8835 180.364C76.8835 178.348 76.5464 176.648 75.8722 175.261C75.2055 173.875 74.3002 172.826 73.1562 172.114C72.0199 171.402 70.7472 171.045 69.3381 171.045C67.929 171.045 66.6525 171.402 65.5085 172.114C64.3722 172.826 63.4669 173.875 62.7926 175.261C62.1259 176.648 61.7926 178.348 61.7926 180.364C61.7926 182.379 62.1259 184.08 62.7926 185.466C63.4669 186.852 64.3722 187.902 65.5085 188.614C66.6525 189.326 67.929 189.682 69.3381 189.682C70.7472 189.682 72.0199 189.326 73.1562 188.614C74.3002 187.902 75.2055 186.852 75.8722 185.466C76.5464 184.08 76.8835 182.379 76.8835 180.364ZM84.2102 168.727L91.1193 188.318H91.392L98.3011 168.727H101.256L92.7102 192H89.8011L81.2557 168.727H84.2102ZM103.835 192H100.881L109.426 168.727H112.335L120.881 192H117.926L110.972 172.409H110.79L103.835 192ZM104.926 182.909H116.835V185.409H104.926V182.909ZM120.514 171.227V168.727H137.969V171.227H130.651V192H127.832V171.227H120.514ZM145.136 168.727V192H142.318V168.727H145.136ZM170.423 180.364C170.423 182.818 169.98 184.939 169.094 186.727C168.207 188.515 166.991 189.894 165.446 190.864C163.901 191.833 162.135 192.318 160.151 192.318C158.166 192.318 156.401 191.833 154.855 190.864C153.31 189.894 152.094 188.515 151.207 186.727C150.321 184.939 149.878 182.818 149.878 180.364C149.878 177.909 150.321 175.788 151.207 174C152.094 172.212 153.31 170.833 154.855 169.864C156.401 168.894 158.166 168.409 160.151 168.409C162.135 168.409 163.901 168.894 165.446 169.864C166.991 170.833 168.207 172.212 169.094 174C169.98 175.788 170.423 177.909 170.423 180.364ZM167.696 180.364C167.696 178.348 167.359 176.648 166.685 175.261C166.018 173.875 165.113 172.826 163.969 172.114C162.832 171.402 161.56 171.045 160.151 171.045C158.741 171.045 157.465 171.402 156.321 172.114C155.185 172.826 154.279 173.875 153.605 175.261C152.938 176.648 152.605 178.348 152.605 180.364C152.605 182.379 152.938 184.08 153.605 185.466C154.279 186.852 155.185 187.902 156.321 188.614C157.465 189.326 158.741 189.682 160.151 189.682C161.56 189.682 162.832 189.326 163.969 188.614C165.113 187.902 166.018 186.852 166.685 185.466C167.359 184.08 167.696 182.379 167.696 180.364ZM193.616 168.727V192H190.889L178.207 173.727H177.98V192H175.162V168.727H177.889L190.616 187.045H190.844V168.727H193.616Z" fill="white"/>
<defs>
<linearGradient id="paint0_linear_158_783" x1="0.5" y1="89" x2="417.5" y2="89" gradientUnits="userSpaceOnUse">
<stop stop-color="#00A93C"/>
<stop offset="1" stop-color="#24408E" stop-opacity="0"/>
</linearGradient>
</defs>
</svg>
