<svg width="100%" viewBox="0 0 163 101" fill="none" xmlns="http://www.w3.org/2000/svg">
<path d="M10.92 19.36C8.904 19.36 7.16 18.976 5.688 18.208C4.232 17.424 3.104 16.328 2.304 14.92C1.504 13.512 1.104 11.872 1.104 10C1.104 8.128 1.504 6.488 2.304 5.08C3.104 3.672 4.232 2.584 5.688 1.816C7.16 1.032 8.904 0.639999 10.92 0.639999C12.92 0.639999 14.648 1.032 16.104 1.816C17.576 2.584 18.712 3.672 19.512 5.08C20.312 6.488 20.712 8.128 20.712 10C20.712 11.872 20.312 13.512 19.512 14.92C18.712 16.328 17.576 17.424 16.104 18.208C14.648 18.976 12.92 19.36 10.92 19.36ZM10.92 16.048C12.728 16.048 14.128 15.52 15.12 14.464C16.128 13.392 16.632 11.904 16.632 10C16.632 8.08 16.128 6.592 15.12 5.536C14.128 4.48 12.728 3.952 10.92 3.952C9.112 3.952 7.704 4.48 6.696 5.536C5.688 6.592 5.184 8.08 5.184 10C5.184 11.92 5.688 13.408 6.696 14.464C7.704 15.52 9.112 16.048 10.92 16.048ZM24.8203 0.999999H38.4523V4.12H26.0683L27.7243 3.28L26.7163 10.312H25.6363C26.0043 9.736 26.4923 9.2 27.1003 8.704C27.7243 8.208 28.4843 7.808 29.3803 7.504C30.2763 7.2 31.3083 7.048 32.4763 7.048C34.0283 7.048 35.3563 7.312 36.4603 7.84C37.5643 8.352 38.4043 9.064 38.9803 9.976C39.5723 10.872 39.8683 11.896 39.8683 13.048C39.8683 14.28 39.5243 15.368 38.8363 16.312C38.1483 17.256 37.1723 18 35.9083 18.544C34.6443 19.088 33.1403 19.36 31.3963 19.36C29.6683 19.36 28.1643 19.112 26.8843 18.616C25.6043 18.104 24.5963 17.408 23.8603 16.528C23.1403 15.648 22.7163 14.672 22.5883 13.6H26.6443C26.8363 14.384 27.3403 15.008 28.1563 15.472C28.9723 15.92 30.0523 16.144 31.3963 16.144C32.2923 16.144 33.0683 16.024 33.7243 15.784C34.3803 15.528 34.8843 15.168 35.2363 14.704C35.6043 14.24 35.7883 13.688 35.7883 13.048C35.7883 12.424 35.6283 11.88 35.3083 11.416C35.0043 10.936 34.5403 10.568 33.9163 10.312C33.3083 10.056 32.5323 9.928 31.5883 9.928C30.8203 9.928 30.1243 10.016 29.5003 10.192C28.8923 10.368 28.3643 10.6 27.9163 10.888C27.4843 11.16 27.1163 11.448 26.8123 11.752H23.3323L24.8203 0.999999Z" fill="white"/>
<rect y="41" width="163" height="9" fill="url(#paint0_linear_158_783)"/>
<path d="M11.2273 75.1818C11.2273 76.4091 11.0057 77.4697 10.5625 78.3636C10.1193 79.2576 9.51136 79.947 8.73864 80.4318C7.96591 80.9167 7.08333 81.1591 6.09091 81.1591C5.09849 81.1591 4.21591 80.9167 3.44318 80.4318C2.67045 79.947 2.0625 79.2576 1.61932 78.3636C1.17614 77.4697 0.954545 76.4091 0.954545 75.1818C0.954545 73.9545 1.17614 72.8939 1.61932 72C2.0625 71.1061 2.67045 70.4167 3.44318 69.9318C4.21591 69.447 5.09849 69.2045 6.09091 69.2045C7.08333 69.2045 7.96591 69.447 8.73864 69.9318C9.51136 70.4167 10.1193 71.1061 10.5625 72C11.0057 72.8939 11.2273 73.9545 11.2273 75.1818ZM9.86364 75.1818C9.86364 74.1742 9.69508 73.3239 9.35795 72.6307C9.02462 71.9375 8.57197 71.4129 8 71.0568C7.43182 70.7008 6.79545 70.5227 6.09091 70.5227C5.38636 70.5227 4.74811 70.7008 4.17614 71.0568C3.60795 71.4129 3.1553 71.9375 2.81818 72.6307C2.48485 73.3239 2.31818 74.1742 2.31818 75.1818C2.31818 76.1894 2.48485 77.0398 2.81818 77.733C3.1553 78.4261 3.60795 78.9508 4.17614 79.3068C4.74811 79.6629 5.38636 79.8409 6.09091 79.8409C6.79545 79.8409 7.43182 79.6629 8 79.3068C8.57197 78.9508 9.02462 78.4261 9.35795 77.733C9.69508 77.0398 9.86364 76.1894 9.86364 75.1818ZM21.233 69.3636H22.642V77.0682C22.642 77.8636 22.4545 78.5739 22.0795 79.1989C21.7083 79.8201 21.1837 80.3106 20.5057 80.6705C19.8277 81.0265 19.0322 81.2045 18.1193 81.2045C17.2064 81.2045 16.411 81.0265 15.733 80.6705C15.0549 80.3106 14.5284 79.8201 14.1534 79.1989C13.7822 78.5739 13.5966 77.8636 13.5966 77.0682V69.3636H15.0057V76.9545C15.0057 77.5227 15.1307 78.0284 15.3807 78.4716C15.6307 78.911 15.9867 79.2576 16.4489 79.5114C16.9148 79.7614 17.4716 79.8864 18.1193 79.8864C18.767 79.8864 19.3239 79.7614 19.7898 79.5114C20.2557 79.2576 20.6117 78.911 20.858 78.4716C21.108 78.0284 21.233 77.5227 21.233 76.9545V69.3636ZM25.456 81V69.3636H29.3878C30.2969 69.3636 31.0431 69.5189 31.6264 69.8295C32.2098 70.1364 32.6416 70.5587 32.9219 71.0966C33.2022 71.6345 33.3423 72.2462 33.3423 72.9318C33.3423 73.6174 33.2022 74.2254 32.9219 74.7557C32.6416 75.286 32.2116 75.7027 31.6321 76.0057C31.0526 76.3049 30.312 76.4545 29.4105 76.4545H26.2287V75.1818H29.3651C29.9863 75.1818 30.4863 75.0909 30.8651 74.9091C31.2476 74.7273 31.5241 74.4697 31.6946 74.1364C31.8688 73.7992 31.956 73.3977 31.956 72.9318C31.956 72.4659 31.8688 72.0587 31.6946 71.7102C31.5204 71.3617 31.242 71.0928 30.8594 70.9034C30.4768 70.7102 29.9711 70.6136 29.3423 70.6136H26.8651V81H25.456ZM30.9332 75.7727L33.7969 81H32.1605L29.3423 75.7727H30.9332ZM2.81818 88.3636V100H1.40909V88.3636H2.81818ZM14.8707 88.3636V100H13.5071L7.16619 90.8636H7.05256V100H5.64347V88.3636H7.0071L13.3707 97.5227H13.4844V88.3636H14.8707ZM26.9176 88.3636V100H25.554L19.2131 90.8636H19.0994V100H17.6903V88.3636H19.054L25.4176 97.5227H25.5312V88.3636H26.9176ZM39.5554 94.1818C39.5554 95.4091 39.3338 96.4697 38.8906 97.3636C38.4474 98.2576 37.8395 98.947 37.0668 99.4318C36.294 99.9167 35.4115 100.159 34.419 100.159C33.4266 100.159 32.544 99.9167 31.7713 99.4318C30.9986 98.947 30.3906 98.2576 29.9474 97.3636C29.5043 96.4697 29.2827 95.4091 29.2827 94.1818C29.2827 92.9545 29.5043 91.8939 29.9474 91C30.3906 90.1061 30.9986 89.4167 31.7713 88.9318C32.544 88.447 33.4266 88.2045 34.419 88.2045C35.4115 88.2045 36.294 88.447 37.0668 88.9318C37.8395 89.4167 38.4474 90.1061 38.8906 91C39.3338 91.8939 39.5554 92.9545 39.5554 94.1818ZM38.1918 94.1818C38.1918 93.1742 38.0232 92.3239 37.6861 91.6307C37.3527 90.9375 36.9001 90.4129 36.3281 90.0568C35.7599 89.7008 35.1236 89.5227 34.419 89.5227C33.7145 89.5227 33.0762 89.7008 32.5043 90.0568C31.9361 90.4129 31.4834 90.9375 31.1463 91.6307C30.813 92.3239 30.6463 93.1742 30.6463 94.1818C30.6463 95.1894 30.813 96.0398 31.1463 96.733C31.4834 97.4261 31.9361 97.9508 32.5043 98.3068C33.0762 98.6629 33.7145 98.8409 34.419 98.8409C35.1236 98.8409 35.7599 98.6629 36.3281 98.3068C36.9001 97.9508 37.3527 97.4261 37.6861 96.733C38.0232 96.0398 38.1918 95.1894 38.1918 94.1818ZM41.8551 88.3636L45.3097 98.1591H45.446L48.9006 88.3636H50.3778L46.1051 100H44.6506L40.3778 88.3636H41.8551ZM51.6676 100H50.1903L54.4631 88.3636H55.9176L60.1903 100H58.7131L55.2358 90.2045H55.1449L51.6676 100ZM52.2131 95.4545H58.1676V96.7045H52.2131V95.4545ZM60.0071 89.6136V88.3636H68.7344V89.6136H65.0753V100H63.6662V89.6136H60.0071ZM72.3182 88.3636V100H70.9091V88.3636H72.3182ZM84.9616 94.1818C84.9616 95.4091 84.7401 96.4697 84.2969 97.3636C83.8537 98.2576 83.2457 98.947 82.473 99.4318C81.7003 99.9167 80.8177 100.159 79.8253 100.159C78.8329 100.159 77.9503 99.9167 77.1776 99.4318C76.4048 98.947 75.7969 98.2576 75.3537 97.3636C74.9105 96.4697 74.6889 95.4091 74.6889 94.1818C74.6889 92.9545 74.9105 91.8939 75.3537 91C75.7969 90.1061 76.4048 89.4167 77.1776 88.9318C77.9503 88.447 78.8329 88.2045 79.8253 88.2045C80.8177 88.2045 81.7003 88.447 82.473 88.9318C83.2457 89.4167 83.8537 90.1061 84.2969 91C84.7401 91.8939 84.9616 92.9545 84.9616 94.1818ZM83.598 94.1818C83.598 93.1742 83.4295 92.3239 83.0923 91.6307C82.759 90.9375 82.3063 90.4129 81.7344 90.0568C81.1662 89.7008 80.5298 89.5227 79.8253 89.5227C79.1207 89.5227 78.4825 89.7008 77.9105 90.0568C77.3423 90.4129 76.8897 90.9375 76.5526 91.6307C76.2192 92.3239 76.0526 93.1742 76.0526 94.1818C76.0526 95.1894 76.2192 96.0398 76.5526 96.733C76.8897 97.4261 77.3423 97.9508 77.9105 98.3068C78.4825 98.6629 79.1207 98.8409 79.8253 98.8409C80.5298 98.8409 81.1662 98.6629 81.7344 98.3068C82.3063 97.9508 82.759 97.4261 83.0923 96.733C83.4295 96.0398 83.598 95.1894 83.598 94.1818ZM96.5582 88.3636V100H95.1946L88.8537 90.8636H88.7401V100H87.331V88.3636H88.6946L95.0582 97.5227H95.1719V88.3636H96.5582Z" fill="white"/>
<defs>
<linearGradient id="paint0_linear_158_783" x1="0" y1="45.5" x2="163" y2="45.5" gradientUnits="userSpaceOnUse">
<stop stop-color="#00A93C"/>
<stop offset="1" stop-color="#24408E" stop-opacity="0"/>
</linearGradient>
</defs>
</svg>
