<svg width="100%" viewBox="0 0 163 101" fill="none" xmlns="http://www.w3.org/2000/svg">
<path d="M10.92 19.36C8.904 19.36 7.16 18.976 5.688 18.208C4.232 17.424 3.104 16.328 2.304 14.92C1.504 13.512 1.104 11.872 1.104 10C1.104 8.128 1.504 6.488 2.304 5.08C3.104 3.672 4.232 2.584 5.688 1.816C7.16 1.032 8.904 0.639999 10.92 0.639999C12.92 0.639999 14.648 1.032 16.104 1.816C17.576 2.584 18.712 3.672 19.512 5.08C20.312 6.488 20.712 8.128 20.712 10C20.712 11.872 20.312 13.512 19.512 14.92C18.712 16.328 17.576 17.424 16.104 18.208C14.648 18.976 12.92 19.36 10.92 19.36ZM10.92 16.048C12.728 16.048 14.128 15.52 15.12 14.464C16.128 13.392 16.632 11.904 16.632 10C16.632 8.08 16.128 6.592 15.12 5.536C14.128 4.48 12.728 3.952 10.92 3.952C9.112 3.952 7.704 4.48 6.696 5.536C5.688 6.592 5.184 8.08 5.184 10C5.184 11.92 5.688 13.408 6.696 14.464C7.704 15.52 9.112 16.048 10.92 16.048ZM37.9723 0.999999V19H33.9403V2.752H35.3323L25.4923 13.648L25.4443 12.304H41.0443V15.424H22.3963V12.544L32.8123 0.999999H37.9723Z" fill="white"/>
<rect y="41" width="163" height="9" fill="url(#paint0_linear_158_783)"/>
<path d="M11.2273 75.1818C11.2273 76.4091 11.0057 77.4697 10.5625 78.3636C10.1193 79.2576 9.51136 79.947 8.73864 80.4318C7.96591 80.9167 7.08333 81.1591 6.09091 81.1591C5.09849 81.1591 4.21591 80.9167 3.44318 80.4318C2.67045 79.947 2.0625 79.2576 1.61932 78.3636C1.17614 77.4697 0.954545 76.4091 0.954545 75.1818C0.954545 73.9545 1.17614 72.8939 1.61932 72C2.0625 71.1061 2.67045 70.4167 3.44318 69.9318C4.21591 69.447 5.09849 69.2045 6.09091 69.2045C7.08333 69.2045 7.96591 69.447 8.73864 69.9318C9.51136 70.4167 10.1193 71.1061 10.5625 72C11.0057 72.8939 11.2273 73.9545 11.2273 75.1818ZM9.86364 75.1818C9.86364 74.1742 9.69508 73.3239 9.35795 72.6307C9.02462 71.9375 8.57197 71.4129 8 71.0568C7.43182 70.7008 6.79545 70.5227 6.09091 70.5227C5.38636 70.5227 4.74811 70.7008 4.17614 71.0568C3.60795 71.4129 3.1553 71.9375 2.81818 72.6307C2.48485 73.3239 2.31818 74.1742 2.31818 75.1818C2.31818 76.1894 2.48485 77.0398 2.81818 77.733C3.1553 78.4261 3.60795 78.9508 4.17614 79.3068C4.74811 79.6629 5.38636 79.8409 6.09091 79.8409C6.79545 79.8409 7.43182 79.6629 8 79.3068C8.57197 78.9508 9.02462 78.4261 9.35795 77.733C9.69508 77.0398 9.86364 76.1894 9.86364 75.1818ZM21.233 69.3636H22.642V77.0682C22.642 77.8636 22.4545 78.5739 22.0795 79.1989C21.7083 79.8201 21.1837 80.3106 20.5057 80.6705C19.8277 81.0265 19.0322 81.2045 18.1193 81.2045C17.2064 81.2045 16.411 81.0265 15.733 80.6705C15.0549 80.3106 14.5284 79.8201 14.1534 79.1989C13.7822 78.5739 13.5966 77.8636 13.5966 77.0682V69.3636H15.0057V76.9545C15.0057 77.5227 15.1307 78.0284 15.3807 78.4716C15.6307 78.911 15.9867 79.2576 16.4489 79.5114C16.9148 79.7614 17.4716 79.8864 18.1193 79.8864C18.767 79.8864 19.3239 79.7614 19.7898 79.5114C20.2557 79.2576 20.6117 78.911 20.858 78.4716C21.108 78.0284 21.233 77.5227 21.233 76.9545V69.3636ZM25.456 81V69.3636H29.3878C30.2969 69.3636 31.0431 69.5189 31.6264 69.8295C32.2098 70.1364 32.6416 70.5587 32.9219 71.0966C33.2022 71.6345 33.3423 72.2462 33.3423 72.9318C33.3423 73.6174 33.2022 74.2254 32.9219 74.7557C32.6416 75.286 32.2116 75.7027 31.6321 76.0057C31.0526 76.3049 30.312 76.4545 29.4105 76.4545H26.2287V75.1818H29.3651C29.9863 75.1818 30.4863 75.0909 30.8651 74.9091C31.2476 74.7273 31.5241 74.4697 31.6946 74.1364C31.8688 73.7992 31.956 73.3977 31.956 72.9318C31.956 72.4659 31.8688 72.0587 31.6946 71.7102C31.5204 71.3617 31.242 71.0928 30.8594 70.9034C30.4768 70.7102 29.9711 70.6136 29.3423 70.6136H26.8651V81H25.456ZM30.9332 75.7727L33.7969 81H32.1605L29.3423 75.7727H30.9332ZM9.36364 92C9.23864 91.6174 9.07386 91.2746 8.86932 90.9716C8.66856 90.6648 8.42803 90.4034 8.14773 90.1875C7.87121 89.9716 7.55682 89.8068 7.20455 89.6932C6.85227 89.5795 6.46591 89.5227 6.04545 89.5227C5.35606 89.5227 4.72917 89.7008 4.16477 90.0568C3.60038 90.4129 3.15152 90.9375 2.81818 91.6307C2.48485 92.3239 2.31818 93.1742 2.31818 94.1818C2.31818 95.1894 2.48674 96.0398 2.82386 96.733C3.16098 97.4261 3.61742 97.9508 4.19318 98.3068C4.76894 98.6629 5.41667 98.8409 6.13636 98.8409C6.80303 98.8409 7.39015 98.6989 7.89773 98.4148C8.40909 98.1269 8.80682 97.7216 9.09091 97.1989C9.37879 96.6723 9.52273 96.053 9.52273 95.3409L9.95455 95.4318H6.45455V94.1818H10.8864V95.4318C10.8864 96.3902 10.6818 97.2235 10.2727 97.9318C9.86742 98.6402 9.30682 99.1894 8.59091 99.5795C7.87879 99.9659 7.06061 100.159 6.13636 100.159C5.10606 100.159 4.20076 99.9167 3.42045 99.4318C2.64394 98.947 2.03788 98.2576 1.60227 97.3636C1.17045 96.4697 0.954545 95.4091 0.954545 94.1818C0.954545 93.2614 1.07765 92.4337 1.32386 91.6989C1.57386 90.9602 1.92614 90.3314 2.38068 89.8125C2.83523 89.2936 3.37311 88.8958 3.99432 88.6193C4.61553 88.3428 5.29924 88.2045 6.04545 88.2045C6.65909 88.2045 7.23106 88.2973 7.76136 88.483C8.29545 88.6648 8.77083 88.9242 9.1875 89.2614C9.60795 89.5947 9.95833 89.9943 10.2386 90.4602C10.5189 90.9223 10.7121 91.4356 10.8182 92H9.36364ZM23.1179 94.1818C23.1179 95.4091 22.8963 96.4697 22.4531 97.3636C22.0099 98.2576 21.402 98.947 20.6293 99.4318C19.8565 99.9167 18.974 100.159 17.9815 100.159C16.9891 100.159 16.1065 99.9167 15.3338 99.4318C14.5611 98.947 13.9531 98.2576 13.5099 97.3636C13.0668 96.4697 12.8452 95.4091 12.8452 94.1818C12.8452 92.9545 13.0668 91.8939 13.5099 91C13.9531 90.1061 14.5611 89.4167 15.3338 88.9318C16.1065 88.447 16.9891 88.2045 17.9815 88.2045C18.974 88.2045 19.8565 88.447 20.6293 88.9318C21.402 89.4167 22.0099 90.1061 22.4531 91C22.8963 91.8939 23.1179 92.9545 23.1179 94.1818ZM21.7543 94.1818C21.7543 93.1742 21.5857 92.3239 21.2486 91.6307C20.9152 90.9375 20.4626 90.4129 19.8906 90.0568C19.3224 89.7008 18.6861 89.5227 17.9815 89.5227C17.277 89.5227 16.6387 89.7008 16.0668 90.0568C15.4986 90.4129 15.0459 90.9375 14.7088 91.6307C14.3755 92.3239 14.2088 93.1742 14.2088 94.1818C14.2088 95.1894 14.3755 96.0398 14.7088 96.733C15.0459 97.4261 15.4986 97.9508 16.0668 98.3068C16.6387 98.6629 17.277 98.8409 17.9815 98.8409C18.6861 98.8409 19.3224 98.6629 19.8906 98.3068C20.4626 97.9508 20.9152 97.4261 21.2486 96.733C21.5857 96.0398 21.7543 95.1894 21.7543 94.1818ZM25.4176 88.3636L28.8722 98.1591H29.0085L32.4631 88.3636H33.9403L29.6676 100H28.2131L23.9403 88.3636H25.4176ZM35.7528 100V88.3636H42.7756V89.6136H37.1619V93.5455H42.4119V94.7955H37.1619V98.75H42.8665V100H35.7528ZM45.3153 100V88.3636H49.2472C50.1563 88.3636 50.9025 88.5189 51.4858 88.8295C52.0691 89.1364 52.5009 89.5587 52.7812 90.0966C53.0616 90.6345 53.2017 91.2462 53.2017 91.9318C53.2017 92.6174 53.0616 93.2254 52.7812 93.7557C52.5009 94.286 52.071 94.7027 51.4915 95.0057C50.9119 95.3049 50.1714 95.4545 49.2699 95.4545H46.0881V94.1818H49.2244C49.8456 94.1818 50.3456 94.0909 50.7244 93.9091C51.107 93.7273 51.3835 93.4697 51.554 93.1364C51.7282 92.7992 51.8153 92.3977 51.8153 91.9318C51.8153 91.4659 51.7282 91.0587 51.554 90.7102C51.3797 90.3617 51.1013 90.0928 50.7188 89.9034C50.3362 89.7102 49.8305 89.6136 49.2017 89.6136H46.7244V100H45.3153ZM50.7926 94.7727L53.6562 100H52.0199L49.2017 94.7727H50.7926ZM64.777 88.3636V100H63.4134L57.0724 90.8636H56.9588V100H55.5497V88.3636H56.9134L63.277 97.5227H63.3906V88.3636H64.777ZM68.0739 100H66.5966L70.8693 88.3636H72.3239L76.5966 100H75.1193L71.642 90.2045H71.5511L68.0739 100ZM68.6193 95.4545H74.5739V96.7045H68.6193V95.4545ZM87.6364 88.3636V100H86.2727L79.9318 90.8636H79.8182V100H78.4091V88.3636H79.7727L86.1364 97.5227H86.25V88.3636H87.6364ZM99.8196 92H98.4105C98.3272 91.5947 98.1813 91.2386 97.973 90.9318C97.7685 90.625 97.5185 90.3674 97.223 90.1591C96.9313 89.947 96.6075 89.7879 96.2514 89.6818C95.8954 89.5758 95.5241 89.5227 95.1378 89.5227C94.4332 89.5227 93.795 89.7008 93.223 90.0568C92.6548 90.4129 92.2022 90.9375 91.8651 91.6307C91.5317 92.3239 91.3651 93.1742 91.3651 94.1818C91.3651 95.1894 91.5317 96.0398 91.8651 96.733C92.2022 97.4261 92.6548 97.9508 93.223 98.3068C93.795 98.6629 94.4332 98.8409 95.1378 98.8409C95.5241 98.8409 95.8954 98.7879 96.2514 98.6818C96.6075 98.5758 96.9313 98.4186 97.223 98.2102C97.5185 97.9981 97.7685 97.7386 97.973 97.4318C98.1813 97.1212 98.3272 96.7652 98.4105 96.3636H99.8196C99.7135 96.9583 99.5204 97.4905 99.2401 97.9602C98.9598 98.4299 98.6113 98.8295 98.1946 99.1591C97.7779 99.4848 97.3101 99.733 96.7912 99.9034C96.276 100.074 95.7249 100.159 95.1378 100.159C94.1454 100.159 93.2628 99.9167 92.4901 99.4318C91.7173 98.947 91.1094 98.2576 90.6662 97.3636C90.223 96.4697 90.0014 95.4091 90.0014 94.1818C90.0014 92.9545 90.223 91.8939 90.6662 91C91.1094 90.1061 91.7173 89.4167 92.4901 88.9318C93.2628 88.447 94.1454 88.2045 95.1378 88.2045C95.7249 88.2045 96.276 88.2898 96.7912 88.4602C97.3101 88.6307 97.7779 88.8807 98.1946 89.2102C98.6113 89.536 98.9598 89.9337 99.2401 90.4034C99.5204 90.8693 99.7135 91.4015 99.8196 92ZM102.097 100V88.3636H109.119V89.6136H103.506V93.5455H108.756V94.7955H103.506V98.75H109.21V100H102.097Z" fill="white"/>
<defs>
<linearGradient id="paint0_linear_158_783" x1="0" y1="45.5" x2="163" y2="45.5" gradientUnits="userSpaceOnUse">
<stop stop-color="#24CBFF"/>
<stop offset="1" stop-color="#24408E" stop-opacity="0"/>
</linearGradient>
</defs>
</svg>
