<svg width="100%" viewBox="0 0 375 812" fill="none" xmlns="http://www.w3.org/2000/svg">
<path d="M40.448 571.24C40.2133 573.267 39.4987 575.059 38.304 576.616C37.1307 578.152 35.5733 579.347 33.632 580.2C31.712 581.053 29.5147 581.48 27.04 581.48C24.3093 581.48 21.9093 580.957 19.84 579.912C17.792 578.867 16.192 577.416 15.04 575.56C13.888 573.683 13.312 571.496 13.312 569C13.312 566.504 13.888 564.328 15.04 562.472C16.192 560.595 17.792 559.133 19.84 558.088C21.9093 557.043 24.3093 556.52 27.04 556.52C29.5147 556.52 31.712 556.947 33.632 557.8C35.5733 558.653 37.1307 559.848 38.304 561.384C39.4987 562.92 40.2133 564.712 40.448 566.76H34.976C34.7627 565.629 34.304 564.659 33.6 563.848C32.896 563.016 31.9893 562.376 30.88 561.928C29.7707 561.48 28.48 561.256 27.008 561.256C25.3227 561.256 23.8613 561.576 22.624 562.216C21.408 562.835 20.4693 563.731 19.808 564.904C19.1467 566.056 18.816 567.421 18.816 569C18.816 570.579 19.1467 571.955 19.808 573.128C20.4693 574.28 21.408 575.176 22.624 575.816C23.8613 576.435 25.3227 576.744 27.008 576.744C28.48 576.744 29.7707 576.531 30.88 576.104C31.9893 575.656 32.896 575.027 33.6 574.216C34.304 573.384 34.7627 572.392 34.976 571.24H40.448ZM56.8273 581.48C54.0326 581.48 51.5793 580.957 49.4673 579.912C47.3766 578.867 45.7446 577.416 44.5713 575.56C43.3979 573.683 42.8113 571.496 42.8113 569C42.8113 566.504 43.3979 564.328 44.5713 562.472C45.7446 560.595 47.3766 559.133 49.4673 558.088C51.5793 557.043 54.0326 556.52 56.8273 556.52C59.6219 556.52 62.0646 557.043 64.1553 558.088C66.2673 559.133 67.9099 560.595 69.0833 562.472C70.2566 564.328 70.8433 566.504 70.8433 569C70.8433 571.496 70.2566 573.683 69.0833 575.56C67.9099 577.416 66.2673 578.867 64.1553 579.912C62.0646 580.957 59.6219 581.48 56.8273 581.48ZM56.8273 576.648C58.5766 576.648 60.0806 576.339 61.3393 575.72C62.6193 575.101 63.6006 574.216 64.2833 573.064C64.9873 571.912 65.3393 570.557 65.3393 569C65.3393 567.443 64.9873 566.088 64.2833 564.936C63.6006 563.784 62.6193 562.899 61.3393 562.28C60.0806 561.661 58.5766 561.352 56.8273 561.352C55.0993 561.352 53.5953 561.661 52.3153 562.28C51.0353 562.899 50.0433 563.784 49.3393 564.936C48.6566 566.088 48.3153 567.443 48.3153 569C48.3153 570.557 48.6566 571.912 49.3393 573.064C50.0433 574.216 51.0353 575.101 52.3153 575.72C53.5953 576.339 55.0993 576.648 56.8273 576.648ZM96.829 577.416L94.941 577.704V557H100.221V581H93.341L77.981 560.296L79.837 560.008V581H74.589V557H81.629L96.829 577.416ZM112.768 559.432H118.176V581H112.768V559.432ZM103.2 557H127.712V561.8H103.2V557ZM130.65 575.944V571.528H147.29V575.944H130.65ZM142.586 557L153.818 581H148.026L138.202 559.208H139.994L130.17 581H124.378L135.61 557H142.586ZM181.011 571.24C180.776 573.267 180.061 575.059 178.867 576.616C177.693 578.152 176.136 579.347 174.195 580.2C172.275 581.053 170.077 581.48 167.603 581.48C164.872 581.48 162.472 580.957 160.403 579.912C158.355 578.867 156.755 577.416 155.603 575.56C154.451 573.683 153.875 571.496 153.875 569C153.875 566.504 154.451 564.328 155.603 562.472C156.755 560.595 158.355 559.133 160.403 558.088C162.472 557.043 164.872 556.52 167.603 556.52C170.077 556.52 172.275 556.947 174.195 557.8C176.136 558.653 177.693 559.848 178.867 561.384C180.061 562.92 180.776 564.712 181.011 566.76H175.539C175.325 565.629 174.867 564.659 174.163 563.848C173.459 563.016 172.552 562.376 171.443 561.928C170.333 561.48 169.043 561.256 167.571 561.256C165.885 561.256 164.424 561.576 163.187 562.216C161.971 562.835 161.032 563.731 160.371 564.904C159.709 566.056 159.379 567.421 159.379 569C159.379 570.579 159.709 571.955 160.371 573.128C161.032 574.28 161.971 575.176 163.187 575.816C164.424 576.435 165.885 576.744 167.571 576.744C169.043 576.744 170.333 576.531 171.443 576.104C172.552 575.656 173.459 575.027 174.163 574.216C174.867 573.384 175.325 572.392 175.539 571.24H181.011ZM191.175 559.432H196.583V581H191.175V559.432ZM181.607 557H206.119V561.8H181.607V557ZM19.584 610.472C19.584 611.752 19.8293 612.851 20.32 613.768C20.8107 614.685 21.5253 615.4 22.464 615.912C23.424 616.403 24.576 616.648 25.92 616.648C27.2853 616.648 28.4373 616.403 29.376 615.912C30.3147 615.4 31.0293 614.685 31.52 613.768C32.0107 612.851 32.256 611.752 32.256 610.472V597H37.696V610.728C37.696 612.883 37.2053 614.771 36.224 616.392C35.2427 617.992 33.8667 619.24 32.096 620.136C30.3253 621.032 28.2667 621.48 25.92 621.48C23.5733 621.48 21.5147 621.032 19.744 620.136C17.9947 619.24 16.6187 617.992 15.616 616.392C14.6347 614.771 14.144 612.883 14.144 610.728V597H19.584V610.472ZM41.0278 613.16H46.5318C46.6598 613.971 47.0118 614.685 47.5878 615.304C48.1851 615.901 48.9744 616.371 49.9558 616.712C50.9584 617.032 52.1104 617.192 53.4118 617.192C55.3104 617.192 56.8038 616.925 57.8918 616.392C59.0011 615.837 59.5558 615.069 59.5558 614.088C59.5558 613.32 59.2358 612.733 58.5958 612.328C57.9771 611.901 56.8144 611.592 55.1078 611.4L50.2758 610.856C47.1611 610.515 44.8998 609.789 43.4918 608.68C42.1051 607.549 41.4118 605.981 41.4118 603.976C41.4118 602.397 41.8704 601.053 42.7878 599.944C43.7264 598.835 45.0384 597.992 46.7238 597.416C48.4091 596.819 50.3931 596.52 52.6758 596.52C54.8944 596.52 56.8678 596.851 58.5958 597.512C60.3238 598.152 61.6998 599.059 62.7238 600.232C63.7478 601.384 64.3024 602.739 64.3878 604.296H58.8838C58.7771 603.592 58.4571 602.984 57.9237 602.472C57.4118 601.939 56.6971 601.533 55.7798 601.256C54.8624 600.957 53.7851 600.808 52.5478 600.808C50.8198 600.808 49.4438 601.064 48.4198 601.576C47.3958 602.088 46.8838 602.813 46.8838 603.752C46.8838 604.477 47.1824 605.043 47.7798 605.448C48.3984 605.832 49.4758 606.12 51.0118 606.312L56.0358 606.92C58.2544 607.155 60.0144 607.539 61.3158 608.072C62.6384 608.584 63.5771 609.277 64.1318 610.152C64.7078 611.027 64.9958 612.136 64.9958 613.48C64.9958 615.08 64.5051 616.488 63.5238 617.704C62.5638 618.899 61.2091 619.827 59.4598 620.488C57.7104 621.149 55.6624 621.48 53.3158 621.48C50.9264 621.48 48.8251 621.139 47.0118 620.456C45.1984 619.752 43.7691 618.781 42.7238 617.544C41.6784 616.285 41.1131 614.824 41.0278 613.16Z" fill="#24CBFF"/>
</svg>
