<svg width="100%" viewBox="0 0 1920 1051" fill="none" xmlns="http://www.w3.org/2000/svg">
<path d="M353.672 761.36C353.32 764.4 352.248 767.088 350.456 769.424C348.696 771.728 346.36 773.52 343.448 774.8C340.568 776.08 337.272 776.72 333.56 776.72C329.464 776.72 325.864 775.936 322.76 774.368C319.688 772.8 317.288 770.624 315.56 767.84C313.832 765.024 312.968 761.744 312.968 758C312.968 754.256 313.832 750.992 315.56 748.208C317.288 745.392 319.688 743.2 322.76 741.632C325.864 740.064 329.464 739.28 333.56 739.28C337.272 739.28 340.568 739.92 343.448 741.2C346.36 742.48 348.696 744.272 350.456 746.576C352.248 748.88 353.32 751.568 353.672 754.64H345.464C345.144 752.944 344.456 751.488 343.4 750.272C342.344 749.024 340.984 748.064 339.32 747.392C337.656 746.72 335.72 746.384 333.512 746.384C330.984 746.384 328.792 746.864 326.936 747.824C325.112 748.752 323.704 750.096 322.712 751.856C321.72 753.584 321.224 755.632 321.224 758C321.224 760.368 321.72 762.432 322.712 764.192C323.704 765.92 325.112 767.264 326.936 768.224C328.792 769.152 330.984 769.616 333.512 769.616C335.72 769.616 337.656 769.296 339.32 768.656C340.984 767.984 342.344 767.04 343.4 765.824C344.456 764.576 345.144 763.088 345.464 761.36H353.672ZM378.241 776.72C374.049 776.72 370.369 775.936 367.201 774.368C364.065 772.8 361.617 770.624 359.857 767.84C358.097 765.024 357.217 761.744 357.217 758C357.217 754.256 358.097 750.992 359.857 748.208C361.617 745.392 364.065 743.2 367.201 741.632C370.369 740.064 374.049 739.28 378.241 739.28C382.433 739.28 386.097 740.064 389.233 741.632C392.401 743.2 394.865 745.392 396.625 748.208C398.385 750.992 399.265 754.256 399.265 758C399.265 761.744 398.385 765.024 396.625 767.84C394.865 770.624 392.401 772.8 389.233 774.368C386.097 775.936 382.433 776.72 378.241 776.72ZM378.241 769.472C380.865 769.472 383.121 769.008 385.009 768.08C386.929 767.152 388.401 765.824 389.425 764.096C390.481 762.368 391.009 760.336 391.009 758C391.009 755.664 390.481 753.632 389.425 751.904C388.401 750.176 386.929 748.848 385.009 747.92C383.121 746.992 380.865 746.528 378.241 746.528C375.649 746.528 373.393 746.992 371.473 747.92C369.553 748.848 368.065 750.176 367.009 751.904C365.985 753.632 365.473 755.664 365.473 758C365.473 760.336 365.985 762.368 367.009 764.096C368.065 765.824 369.553 767.152 371.473 768.08C373.393 769.008 375.649 769.472 378.241 769.472ZM438.244 770.624L435.412 771.056V740H443.332V776H433.012L409.972 744.944L412.756 744.512V776H404.884V740H415.444L438.244 770.624ZM462.152 743.648H470.264V776H462.152V743.648ZM447.8 740H484.568V747.2H447.8V740ZM488.975 768.416V761.792H513.935V768.416H488.975ZM506.879 740L523.727 776H515.039L500.303 743.312H502.991L488.255 776H479.567L496.415 740H506.879ZM564.516 761.36C564.164 764.4 563.092 767.088 561.3 769.424C559.54 771.728 557.204 773.52 554.292 774.8C551.412 776.08 548.116 776.72 544.404 776.72C540.308 776.72 536.708 775.936 533.604 774.368C530.532 772.8 528.132 770.624 526.404 767.84C524.676 765.024 523.812 761.744 523.812 758C523.812 754.256 524.676 750.992 526.404 748.208C528.132 745.392 530.532 743.2 533.604 741.632C536.708 740.064 540.308 739.28 544.404 739.28C548.116 739.28 551.412 739.92 554.292 741.2C557.204 742.48 559.54 744.272 561.3 746.576C563.092 748.88 564.164 751.568 564.516 754.64H556.308C555.988 752.944 555.3 751.488 554.244 750.272C553.188 749.024 551.828 748.064 550.164 747.392C548.5 746.72 546.564 746.384 544.356 746.384C541.828 746.384 539.636 746.864 537.78 747.824C535.956 748.752 534.548 750.096 533.556 751.856C532.564 753.584 532.068 755.632 532.068 758C532.068 760.368 532.564 762.432 533.556 764.192C534.548 765.92 535.956 767.264 537.78 768.224C539.636 769.152 541.828 769.616 544.356 769.616C546.564 769.616 548.5 769.296 550.164 768.656C551.828 767.984 553.188 767.04 554.244 765.824C555.3 764.576 555.988 763.088 556.308 761.36H564.516ZM579.762 743.648H587.874V776H579.762V743.648ZM565.41 740H602.178V747.2H565.41V740ZM625.095 760.208C625.095 762.128 625.463 763.776 626.199 765.152C626.935 766.528 628.007 767.6 629.415 768.368C630.855 769.104 632.583 769.472 634.599 769.472C636.647 769.472 638.375 769.104 639.783 768.368C641.191 767.6 642.263 766.528 642.999 765.152C643.735 763.776 644.103 762.128 644.103 760.208V740H652.263V760.592C652.263 763.824 651.527 766.656 650.055 769.088C648.583 771.488 646.519 773.36 643.863 774.704C641.207 776.048 638.119 776.72 634.599 776.72C631.079 776.72 627.991 776.048 625.335 774.704C622.711 773.36 620.647 771.488 619.143 769.088C617.671 766.656 616.935 763.824 616.935 760.592V740H625.095V760.208ZM657.26 764.24H665.516C665.708 765.456 666.236 766.528 667.1 767.456C667.996 768.352 669.18 769.056 670.652 769.568C672.156 770.048 673.884 770.288 675.836 770.288C678.684 770.288 680.924 769.888 682.556 769.088C684.22 768.256 685.052 767.104 685.052 765.632C685.052 764.48 684.572 763.6 683.612 762.992C682.684 762.352 680.94 761.888 678.38 761.6L671.132 760.784C666.46 760.272 663.068 759.184 660.956 757.52C658.876 755.824 657.836 753.472 657.836 750.464C657.836 748.096 658.524 746.08 659.9 744.416C661.308 742.752 663.276 741.488 665.804 740.624C668.332 739.728 671.308 739.28 674.732 739.28C678.06 739.28 681.02 739.776 683.612 740.768C686.204 741.728 688.268 743.088 689.804 744.848C691.34 746.576 692.172 748.608 692.3 750.944H684.044C683.884 749.888 683.404 748.976 682.604 748.208C681.836 747.408 680.764 746.8 679.388 746.384C678.012 745.936 676.396 745.712 674.54 745.712C671.948 745.712 669.884 746.096 668.348 746.864C666.812 747.632 666.044 748.72 666.044 750.128C666.044 751.216 666.492 752.064 667.388 752.672C668.316 753.248 669.932 753.68 672.236 753.968L679.772 754.88C683.1 755.232 685.74 755.808 687.692 756.608C689.676 757.376 691.084 758.416 691.916 759.728C692.78 761.04 693.212 762.704 693.212 764.72C693.212 767.12 692.476 769.232 691.004 771.056C689.564 772.848 687.532 774.24 684.908 775.232C682.284 776.224 679.212 776.72 675.692 776.72C672.108 776.72 668.956 776.208 666.236 775.184C663.516 774.128 661.372 772.672 659.804 770.816C658.236 768.928 657.388 766.736 657.26 764.24Z" fill="#24CBFF"/>
</svg>
