<svg width="100%" viewBox="0 0 1296 223" fill="none" xmlns="http://www.w3.org/2000/svg">
<path d="M21 16.872C20.84 18.344 20.32 19.648 19.44 20.784C18.576 21.904 17.44 22.776 16.032 23.4C14.624 24.024 13.016 24.336 11.208 24.336C9.192 24.336 7.424 23.944 5.904 23.16C4.384 22.376 3.2 21.288 2.352 19.896C1.504 18.488 1.08 16.856 1.08 15C1.08 13.144 1.504 11.52 2.352 10.128C3.2 8.72 4.384 7.624 5.904 6.84C7.424 6.056 9.192 5.664 11.208 5.664C13.016 5.664 14.624 5.976 16.032 6.6C17.44 7.224 18.576 8.096 19.44 9.216C20.32 10.336 20.84 11.64 21 13.128H17.808C17.632 12.168 17.248 11.344 16.656 10.656C16.08 9.968 15.328 9.44 14.4 9.072C13.472 8.688 12.4 8.496 11.184 8.496C9.776 8.496 8.552 8.76 7.512 9.288C6.488 9.816 5.696 10.568 5.136 11.544C4.576 12.52 4.296 13.672 4.296 15C4.296 16.328 4.576 17.48 5.136 18.456C5.696 19.432 6.488 20.184 7.512 20.712C8.552 21.24 9.776 21.504 11.184 21.504C12.4 21.504 13.472 21.32 14.4 20.952C15.328 20.584 16.08 20.056 16.656 19.368C17.248 18.664 17.632 17.832 17.808 16.872H21ZM33.2666 24.336C31.2186 24.336 29.4186 23.944 27.8666 23.16C26.3146 22.376 25.1066 21.288 24.2426 19.896C23.3786 18.488 22.9466 16.856 22.9466 15C22.9466 13.144 23.3786 11.52 24.2426 10.128C25.1066 8.72 26.3146 7.624 27.8666 6.84C29.4186 6.056 31.2186 5.664 33.2666 5.664C35.3146 5.664 37.1146 6.056 38.6666 6.84C40.2186 7.624 41.4266 8.72 42.2906 10.128C43.1546 11.52 43.5866 13.144 43.5866 15C43.5866 16.856 43.1546 18.488 42.2906 19.896C41.4266 21.288 40.2186 22.376 38.6666 23.16C37.1146 23.944 35.3146 24.336 33.2666 24.336ZM33.2666 21.504C34.7226 21.504 35.9786 21.24 37.0346 20.712C38.0906 20.184 38.9066 19.432 39.4826 18.456C40.0746 17.48 40.3706 16.328 40.3706 15C40.3706 13.672 40.0746 12.52 39.4826 11.544C38.9066 10.568 38.0906 9.816 37.0346 9.288C35.9786 8.76 34.7226 8.496 33.2666 8.496C31.8266 8.496 30.5706 8.76 29.4986 9.288C28.4426 9.816 27.6186 10.568 27.0266 11.544C26.4506 12.52 26.1626 13.672 26.1626 15C26.1626 16.328 26.4506 17.48 27.0266 18.456C27.6186 19.432 28.4426 20.184 29.4986 20.712C30.5706 21.24 31.8266 21.504 33.2666 21.504ZM63.3444 22.08L62.0484 22.224V6H65.1204V24H61.0884L48.4644 7.776L49.7364 7.632V24H46.6644V6H50.7924L63.3444 22.08ZM74.949 7.464H78.117V24H74.949V7.464ZM67.509 6H85.557V8.784H67.509V6ZM87.2207 19.872V17.256H99.7967V19.872H87.2207ZM95.5727 6L104.213 24H100.829L92.9807 7.2H94.2047L86.3567 24H82.9727L91.6127 6H95.5727ZM124.406 16.872C124.246 18.344 123.726 19.648 122.846 20.784C121.982 21.904 120.846 22.776 119.438 23.4C118.03 24.024 116.422 24.336 114.614 24.336C112.598 24.336 110.83 23.944 109.31 23.16C107.79 22.376 106.606 21.288 105.758 19.896C104.91 18.488 104.486 16.856 104.486 15C104.486 13.144 104.91 11.52 105.758 10.128C106.606 8.72 107.79 7.624 109.31 6.84C110.83 6.056 112.598 5.664 114.614 5.664C116.422 5.664 118.03 5.976 119.438 6.6C120.846 7.224 121.982 8.096 122.846 9.216C123.726 10.336 124.246 11.64 124.406 13.128H121.214C121.038 12.168 120.654 11.344 120.062 10.656C119.486 9.968 118.734 9.44 117.806 9.072C116.878 8.688 115.806 8.496 114.59 8.496C113.182 8.496 111.958 8.76 110.918 9.288C109.894 9.816 109.102 10.568 108.542 11.544C107.982 12.52 107.702 13.672 107.702 15C107.702 16.328 107.982 17.48 108.542 18.456C109.102 19.432 109.894 20.184 110.918 20.712C111.958 21.24 113.182 21.504 114.59 21.504C115.806 21.504 116.878 21.32 117.806 20.952C118.734 20.584 119.486 20.056 120.062 19.368C120.654 18.664 121.038 17.832 121.214 16.872H124.406ZM132.254 7.464H135.422V24H132.254V7.464ZM124.814 6H142.862V8.784H124.814V6Z" fill="#24CBFF"/>
<rect x="0.5" y="70.5" width="1295" height="152" rx="19.5" stroke="url(#paint0_linear_158_783)"/>
<path d="M34.2614 117H32.3977L36.5852 105.364H38.6136L42.8011 117H40.9375L37.6477 107.477H37.5568L34.2614 117ZM34.5739 112.443H40.6193V113.92H34.5739V112.443ZM47.4716 117.17C46.767 117.17 46.1383 116.991 45.5852 116.631C45.036 116.267 44.6042 115.75 44.2898 115.08C43.9792 114.405 43.8239 113.597 43.8239 112.653C43.8239 111.71 43.9811 110.903 44.2955 110.233C44.6136 109.562 45.0492 109.049 45.6023 108.693C46.1553 108.337 46.7822 108.159 47.483 108.159C48.0246 108.159 48.4602 108.25 48.7898 108.432C49.1231 108.61 49.3807 108.818 49.5625 109.057C49.7481 109.295 49.892 109.506 49.9943 109.688H50.0966V105.364H51.7955V117H50.1364V115.642H49.9943C49.892 115.828 49.7443 116.04 49.5511 116.278C49.3617 116.517 49.1004 116.725 48.767 116.903C48.4337 117.081 48.0019 117.17 47.4716 117.17ZM47.8466 115.722C48.3352 115.722 48.7481 115.593 49.0852 115.335C49.4261 115.074 49.6837 114.712 49.858 114.25C50.036 113.788 50.125 113.25 50.125 112.636C50.125 112.03 50.0379 111.5 49.8636 111.045C49.6894 110.591 49.4337 110.237 49.0966 109.983C48.7595 109.729 48.3428 109.602 47.8466 109.602C47.3352 109.602 46.9091 109.735 46.5682 110C46.2273 110.265 45.9697 110.627 45.7955 111.085C45.625 111.544 45.5398 112.061 45.5398 112.636C45.5398 113.22 45.6269 113.744 45.8011 114.21C45.9754 114.676 46.233 115.045 46.5739 115.318C46.9186 115.587 47.3428 115.722 47.8466 115.722ZM57.4872 117.17C56.7827 117.17 56.1539 116.991 55.6009 116.631C55.0516 116.267 54.6198 115.75 54.3054 115.08C53.9948 114.405 53.8395 113.597 53.8395 112.653C53.8395 111.71 53.9967 110.903 54.3111 110.233C54.6293 109.562 55.0649 109.049 55.6179 108.693C56.1709 108.337 56.7978 108.159 57.4986 108.159C58.0402 108.159 58.4759 108.25 58.8054 108.432C59.1387 108.61 59.3963 108.818 59.5781 109.057C59.7637 109.295 59.9077 109.506 60.0099 109.688H60.1122V105.364H61.8111V117H60.152V115.642H60.0099C59.9077 115.828 59.7599 116.04 59.5668 116.278C59.3774 116.517 59.116 116.725 58.7827 116.903C58.4493 117.081 58.0175 117.17 57.4872 117.17ZM57.8622 115.722C58.3509 115.722 58.7637 115.593 59.1009 115.335C59.4418 115.074 59.6993 114.712 59.8736 114.25C60.0516 113.788 60.1406 113.25 60.1406 112.636C60.1406 112.03 60.0535 111.5 59.8793 111.045C59.705 110.591 59.4493 110.237 59.1122 109.983C58.7751 109.729 58.3584 109.602 57.8622 109.602C57.3509 109.602 56.9247 109.735 56.5838 110C56.2429 110.265 55.9853 110.627 55.8111 111.085C55.6406 111.544 55.5554 112.061 55.5554 112.636C55.5554 113.22 55.6425 113.744 55.8168 114.21C55.991 114.676 56.2486 115.045 56.5895 115.318C56.9342 115.587 57.3584 115.722 57.8622 115.722ZM64.2358 117V108.273H65.8778V109.659H65.9688C66.1278 109.189 66.4081 108.82 66.8097 108.551C67.215 108.278 67.6733 108.142 68.1847 108.142C68.2907 108.142 68.4157 108.146 68.5597 108.153C68.7074 108.161 68.8229 108.17 68.9062 108.182V109.807C68.8381 109.788 68.7169 109.767 68.5426 109.744C68.3684 109.718 68.1941 109.705 68.0199 109.705C67.6184 109.705 67.2604 109.79 66.946 109.96C66.6354 110.127 66.3892 110.36 66.2074 110.659C66.0256 110.955 65.9347 111.292 65.9347 111.67V117H64.2358ZM73.8253 117.176C72.9654 117.176 72.2249 116.992 71.6037 116.625C70.9863 116.254 70.509 115.733 70.1719 115.062C69.8385 114.388 69.6719 113.598 69.6719 112.693C69.6719 111.799 69.8385 111.011 70.1719 110.33C70.509 109.648 70.9787 109.116 71.581 108.733C72.187 108.35 72.8954 108.159 73.706 108.159C74.1984 108.159 74.6757 108.241 75.1378 108.403C75.5999 108.566 76.0147 108.822 76.3821 109.17C76.7495 109.519 77.0393 109.972 77.2514 110.528C77.4635 111.081 77.5696 111.754 77.5696 112.545V113.148H70.6321V111.875H75.9048C75.9048 111.428 75.8139 111.032 75.6321 110.688C75.4503 110.339 75.1946 110.064 74.8651 109.864C74.5393 109.663 74.1567 109.562 73.7173 109.562C73.2401 109.562 72.8234 109.68 72.4673 109.915C72.1151 110.146 71.8423 110.449 71.6491 110.824C71.4598 111.195 71.3651 111.598 71.3651 112.034V113.028C71.3651 113.612 71.4673 114.108 71.6719 114.517C71.8802 114.926 72.17 115.239 72.5412 115.455C72.9124 115.667 73.3461 115.773 73.8423 115.773C74.1643 115.773 74.4579 115.727 74.723 115.636C74.9882 115.542 75.2173 115.402 75.4105 115.216C75.6037 115.03 75.7514 114.801 75.8537 114.528L77.4616 114.818C77.3329 115.292 77.1018 115.706 76.7685 116.062C76.4389 116.415 76.0241 116.689 75.5241 116.886C75.0279 117.08 74.4616 117.176 73.8253 117.176ZM85.9943 110.403L84.4545 110.676C84.3902 110.479 84.2879 110.292 84.1477 110.114C84.0114 109.936 83.8258 109.79 83.5909 109.676C83.3561 109.562 83.0625 109.506 82.7102 109.506C82.2292 109.506 81.8277 109.614 81.5057 109.83C81.1837 110.042 81.0227 110.316 81.0227 110.653C81.0227 110.945 81.1307 111.18 81.3466 111.358C81.5625 111.536 81.911 111.682 82.392 111.795L83.7784 112.114C84.5814 112.299 85.1799 112.585 85.5739 112.972C85.9678 113.358 86.1648 113.86 86.1648 114.477C86.1648 115 86.0133 115.466 85.7102 115.875C85.411 116.28 84.9924 116.598 84.4545 116.83C83.9205 117.061 83.3011 117.176 82.5966 117.176C81.6193 117.176 80.822 116.968 80.2045 116.551C79.5871 116.131 79.2083 115.534 79.0682 114.761L80.7102 114.511C80.8125 114.939 81.0227 115.263 81.3409 115.483C81.6591 115.699 82.0739 115.807 82.5852 115.807C83.142 115.807 83.5871 115.691 83.9205 115.46C84.2538 115.225 84.4205 114.939 84.4205 114.602C84.4205 114.33 84.3182 114.1 84.1136 113.915C83.9129 113.729 83.6042 113.589 83.1875 113.494L81.7102 113.17C80.8958 112.985 80.2936 112.689 79.9034 112.284C79.517 111.879 79.3239 111.366 79.3239 110.744C79.3239 110.229 79.4678 109.778 79.7557 109.392C80.0436 109.006 80.4413 108.705 80.9489 108.489C81.4564 108.269 82.0379 108.159 82.6932 108.159C83.6364 108.159 84.3788 108.364 84.9205 108.773C85.4621 109.178 85.8201 109.722 85.9943 110.403ZM94.5724 110.403L93.0327 110.676C92.9683 110.479 92.866 110.292 92.7259 110.114C92.5895 109.936 92.4039 109.79 92.169 109.676C91.9342 109.562 91.6406 109.506 91.2884 109.506C90.8073 109.506 90.4058 109.614 90.0838 109.83C89.7618 110.042 89.6009 110.316 89.6009 110.653C89.6009 110.945 89.7088 111.18 89.9247 111.358C90.1406 111.536 90.4891 111.682 90.9702 111.795L92.3565 112.114C93.1596 112.299 93.758 112.585 94.152 112.972C94.5459 113.358 94.7429 113.86 94.7429 114.477C94.7429 115 94.5914 115.466 94.2884 115.875C93.9891 116.28 93.5705 116.598 93.0327 116.83C92.4986 117.061 91.8793 117.176 91.1747 117.176C90.1974 117.176 89.4001 116.968 88.7827 116.551C88.1652 116.131 87.7865 115.534 87.6463 114.761L89.2884 114.511C89.3906 114.939 89.6009 115.263 89.919 115.483C90.2372 115.699 90.652 115.807 91.1634 115.807C91.7202 115.807 92.1652 115.691 92.4986 115.46C92.8319 115.225 92.9986 114.939 92.9986 114.602C92.9986 114.33 92.8963 114.1 92.6918 113.915C92.491 113.729 92.1823 113.589 91.7656 113.494L90.2884 113.17C89.474 112.985 88.8717 112.689 88.4815 112.284C88.0952 111.879 87.902 111.366 87.902 110.744C87.902 110.229 88.0459 109.778 88.3338 109.392C88.6217 109.006 89.0194 108.705 89.527 108.489C90.0346 108.269 90.616 108.159 91.2713 108.159C92.2145 108.159 92.9569 108.364 93.4986 108.773C94.0402 109.178 94.3982 109.722 94.5724 110.403ZM97.7301 117.108C97.4195 117.108 97.1525 116.998 96.929 116.778C96.7055 116.555 96.5938 116.286 96.5938 115.972C96.5938 115.661 96.7055 115.396 96.929 115.176C97.1525 114.953 97.4195 114.841 97.7301 114.841C98.0407 114.841 98.3078 114.953 98.5312 115.176C98.7547 115.396 98.8665 115.661 98.8665 115.972C98.8665 116.18 98.8134 116.371 98.7074 116.545C98.6051 116.716 98.4688 116.852 98.2983 116.955C98.1278 117.057 97.9384 117.108 97.7301 117.108ZM97.7301 110.756C97.4195 110.756 97.1525 110.644 96.929 110.42C96.7055 110.197 96.5938 109.93 96.5938 109.619C96.5938 109.309 96.7055 109.044 96.929 108.824C97.1525 108.6 97.4195 108.489 97.7301 108.489C98.0407 108.489 98.3078 108.6 98.5312 108.824C98.7547 109.044 98.8665 109.309 98.8665 109.619C98.8665 109.828 98.8134 110.019 98.7074 110.193C98.6051 110.364 98.4688 110.5 98.2983 110.602C98.1278 110.705 97.9384 110.756 97.7301 110.756Z" fill="white"/>
<path d="M158.608 105.364V117H157.574L150.699 107.256H150.608V117H149.545V105.364H150.574L157.472 115.119H157.562V105.364H158.608ZM167.037 113.665V108.273H168.048V117H167.037V115.551H166.957C166.753 115.998 166.429 116.371 165.986 116.67C165.543 116.966 165.001 117.114 164.361 117.114C163.804 117.114 163.31 116.992 162.878 116.75C162.446 116.504 162.107 116.144 161.861 115.67C161.615 115.197 161.491 114.616 161.491 113.926V108.273H162.503V113.864C162.503 114.545 162.704 115.095 163.105 115.511C163.507 115.924 164.022 116.131 164.651 116.131C165.045 116.131 165.423 116.036 165.787 115.847C166.151 115.657 166.45 115.381 166.685 115.017C166.92 114.65 167.037 114.199 167.037 113.665ZM170.726 117V108.273H171.709V109.614H171.8C171.974 109.163 172.264 108.809 172.669 108.551C173.078 108.29 173.569 108.159 174.141 108.159C174.743 108.159 175.237 108.301 175.624 108.585C176.014 108.866 176.305 109.252 176.499 109.744H176.572C176.769 109.259 177.089 108.875 177.533 108.591C177.98 108.303 178.521 108.159 179.158 108.159C179.968 108.159 180.608 108.415 181.078 108.926C181.548 109.434 181.783 110.176 181.783 111.153V117H180.771V111.153C180.771 110.464 180.595 109.947 180.243 109.602C179.891 109.258 179.427 109.085 178.851 109.085C178.184 109.085 177.671 109.29 177.311 109.699C176.951 110.108 176.771 110.627 176.771 111.256V117H175.737V111.062C175.737 110.472 175.572 109.994 175.243 109.631C174.913 109.267 174.449 109.085 173.851 109.085C173.449 109.085 173.088 109.184 172.766 109.381C172.447 109.578 172.196 109.852 172.01 110.205C171.828 110.553 171.737 110.955 171.737 111.409V117H170.726ZM184.67 117V105.364H185.688V109.938H185.778C185.892 109.676 186.055 109.407 186.267 109.131C186.483 108.854 186.765 108.623 187.114 108.438C187.466 108.248 187.909 108.153 188.443 108.153C189.159 108.153 189.788 108.343 190.33 108.722C190.871 109.097 191.294 109.623 191.597 110.301C191.9 110.975 192.051 111.761 192.051 112.659C192.051 113.561 191.9 114.35 191.597 115.028C191.297 115.706 190.877 116.235 190.335 116.614C189.797 116.992 189.172 117.182 188.46 117.182C187.93 117.182 187.487 117.087 187.131 116.898C186.778 116.708 186.494 116.475 186.278 116.199C186.063 115.919 185.896 115.646 185.778 115.381H185.653V117H184.67ZM185.67 112.642C185.67 113.347 185.775 113.972 185.983 114.517C186.195 115.059 186.498 115.485 186.892 115.795C187.29 116.102 187.771 116.256 188.335 116.256C188.915 116.256 189.405 116.097 189.807 115.778C190.208 115.456 190.513 115.023 190.722 114.477C190.93 113.932 191.034 113.32 191.034 112.642C191.034 111.972 190.93 111.367 190.722 110.83C190.517 110.292 190.214 109.866 189.812 109.551C189.411 109.233 188.919 109.074 188.335 109.074C187.767 109.074 187.284 109.227 186.886 109.534C186.492 109.837 186.191 110.258 185.983 110.795C185.775 111.33 185.67 111.945 185.67 112.642ZM197.801 117.182C196.987 117.182 196.282 116.992 195.688 116.614C195.093 116.231 194.633 115.703 194.307 115.028C193.985 114.35 193.824 113.57 193.824 112.688C193.824 111.809 193.985 111.028 194.307 110.347C194.633 109.661 195.081 109.125 195.653 108.739C196.229 108.348 196.894 108.153 197.648 108.153C198.121 108.153 198.578 108.241 199.017 108.415C199.456 108.585 199.85 108.848 200.199 109.205C200.551 109.557 200.83 110.002 201.034 110.54C201.239 111.074 201.341 111.706 201.341 112.438V112.938H194.523V112.045H200.307C200.307 111.485 200.193 110.981 199.966 110.534C199.742 110.083 199.43 109.727 199.028 109.466C198.631 109.205 198.17 109.074 197.648 109.074C197.095 109.074 196.608 109.222 196.188 109.517C195.767 109.812 195.438 110.203 195.199 110.688C194.964 111.172 194.845 111.703 194.841 112.278V112.812C194.841 113.506 194.96 114.112 195.199 114.631C195.441 115.146 195.784 115.545 196.227 115.83C196.67 116.114 197.195 116.256 197.801 116.256C198.214 116.256 198.576 116.191 198.886 116.062C199.201 115.934 199.464 115.761 199.676 115.545C199.892 115.326 200.055 115.085 200.165 114.824L201.125 115.136C200.992 115.504 200.775 115.843 200.472 116.153C200.172 116.464 199.797 116.714 199.347 116.903C198.9 117.089 198.384 117.182 197.801 117.182ZM203.57 117V108.273H204.553V109.614H204.626C204.801 109.174 205.104 108.82 205.536 108.551C205.971 108.278 206.464 108.142 207.013 108.142C207.096 108.142 207.189 108.144 207.291 108.148C207.393 108.152 207.479 108.155 207.547 108.159V109.188C207.501 109.18 207.422 109.169 207.308 109.153C207.195 109.138 207.071 109.131 206.939 109.131C206.484 109.131 206.079 109.227 205.723 109.42C205.371 109.61 205.092 109.873 204.888 110.21C204.683 110.547 204.581 110.932 204.581 111.364V117H203.57ZM213.455 114.5V113.636L218.642 105.364H219.278V106.812H218.807L214.642 113.472V113.545H221.443V114.5H213.455ZM218.886 117V114.227V113.83V105.364H219.898V117H218.886ZM224.923 115.409L224.821 116.017C224.757 116.426 224.666 116.877 224.548 117.369C224.431 117.862 224.31 118.33 224.185 118.773C224.06 119.216 223.952 119.572 223.861 119.841H223.082C223.132 119.583 223.194 119.256 223.27 118.858C223.349 118.46 223.431 118.019 223.514 117.534C223.598 117.053 223.673 116.557 223.741 116.045L223.821 115.409H224.923ZM235.839 117.159C235.124 117.159 234.483 117.03 233.919 116.773C233.355 116.511 232.908 116.15 232.578 115.688C232.249 115.225 232.074 114.693 232.055 114.091H233.129C233.148 114.515 233.279 114.886 233.521 115.205C233.764 115.519 234.086 115.765 234.487 115.943C234.889 116.117 235.336 116.205 235.828 116.205C236.366 116.205 236.839 116.104 237.249 115.903C237.661 115.703 237.983 115.428 238.214 115.08C238.449 114.727 238.567 114.33 238.567 113.886C238.567 113.417 238.447 113.002 238.209 112.642C237.97 112.282 237.627 112.002 237.18 111.801C236.737 111.6 236.207 111.5 235.589 111.5H234.908V110.545H235.589C236.093 110.545 236.538 110.455 236.925 110.273C237.315 110.087 237.622 109.828 237.845 109.494C238.069 109.161 238.18 108.769 238.18 108.318C238.18 107.89 238.084 107.513 237.891 107.188C237.697 106.862 237.425 106.606 237.072 106.42C236.724 106.235 236.317 106.142 235.851 106.142C235.4 106.142 234.987 106.229 234.612 106.403C234.237 106.578 233.934 106.824 233.703 107.142C233.476 107.46 233.355 107.837 233.339 108.273H232.311C232.326 107.667 232.493 107.134 232.811 106.676C233.133 106.214 233.559 105.854 234.089 105.597C234.624 105.335 235.214 105.205 235.862 105.205C236.548 105.205 237.141 105.345 237.641 105.625C238.141 105.905 238.527 106.278 238.8 106.744C239.076 107.206 239.214 107.716 239.214 108.273C239.214 108.936 239.035 109.504 238.675 109.977C238.315 110.447 237.83 110.773 237.22 110.955V111.028C237.963 111.176 238.546 111.506 238.97 112.017C239.398 112.525 239.612 113.148 239.612 113.886C239.612 114.508 239.449 115.066 239.124 115.562C238.798 116.055 238.351 116.445 237.783 116.733C237.218 117.017 236.571 117.159 235.839 117.159ZM245.737 117.159C244.919 117.159 244.22 116.924 243.641 116.455C243.065 115.981 242.622 115.297 242.311 114.403C242.004 113.509 241.851 112.436 241.851 111.182C241.851 109.932 242.004 108.862 242.311 107.972C242.622 107.078 243.067 106.394 243.646 105.92C244.23 105.443 244.927 105.205 245.737 105.205C246.548 105.205 247.243 105.443 247.822 105.92C248.406 106.394 248.851 107.078 249.158 107.972C249.468 108.862 249.624 109.932 249.624 111.182C249.624 112.436 249.468 113.509 249.158 114.403C248.851 115.297 248.408 115.981 247.828 116.455C247.252 116.924 246.555 117.159 245.737 117.159ZM245.737 116.205C246.635 116.205 247.336 115.767 247.839 114.892C248.343 114.013 248.595 112.777 248.595 111.182C248.595 110.121 248.48 109.216 248.249 108.466C248.021 107.712 247.694 107.136 247.266 106.739C246.841 106.341 246.332 106.142 245.737 106.142C244.847 106.142 244.148 106.585 243.641 107.472C243.133 108.354 242.879 109.591 242.879 111.182C242.879 112.242 242.993 113.148 243.22 113.898C243.451 114.648 243.779 115.22 244.203 115.614C244.631 116.008 245.143 116.205 245.737 116.205ZM255.754 104.818L252.004 118.75H251.055L254.805 104.818H255.754ZM257.189 114.5V113.636L262.376 105.364H263.013V106.812H262.541L258.376 113.472V113.545H265.178V114.5H257.189ZM262.621 117V114.227V113.83V105.364H263.632V117H262.621ZM278.551 108.273C278.487 107.625 278.201 107.11 277.693 106.727C277.186 106.345 276.547 106.153 275.778 106.153C275.237 106.153 274.759 106.246 274.347 106.432C273.938 106.617 273.616 106.875 273.381 107.205C273.15 107.53 273.034 107.902 273.034 108.318C273.034 108.625 273.1 108.894 273.233 109.125C273.366 109.356 273.544 109.555 273.767 109.722C273.994 109.884 274.244 110.025 274.517 110.142C274.794 110.259 275.072 110.358 275.352 110.438L276.58 110.79C276.951 110.892 277.322 111.023 277.693 111.182C278.064 111.341 278.403 111.542 278.71 111.784C279.021 112.023 279.269 112.316 279.455 112.665C279.644 113.009 279.739 113.424 279.739 113.909C279.739 114.53 279.578 115.089 279.256 115.585C278.934 116.081 278.472 116.475 277.869 116.767C277.267 117.055 276.545 117.199 275.705 117.199C274.913 117.199 274.225 117.068 273.642 116.807C273.059 116.542 272.6 116.176 272.267 115.71C271.934 115.244 271.746 114.705 271.705 114.091H272.795C272.833 114.549 272.985 114.937 273.25 115.256C273.515 115.574 273.86 115.816 274.284 115.983C274.708 116.146 275.182 116.227 275.705 116.227C276.284 116.227 276.799 116.131 277.25 115.938C277.705 115.741 278.061 115.468 278.318 115.119C278.58 114.767 278.71 114.358 278.71 113.892C278.71 113.498 278.608 113.169 278.403 112.903C278.199 112.634 277.913 112.409 277.545 112.227C277.182 112.045 276.759 111.884 276.278 111.744L274.886 111.335C273.973 111.062 273.265 110.686 272.761 110.205C272.258 109.723 272.006 109.11 272.006 108.364C272.006 107.739 272.172 107.189 272.506 106.716C272.843 106.239 273.297 105.867 273.869 105.602C274.445 105.333 275.091 105.199 275.807 105.199C276.53 105.199 277.17 105.331 277.727 105.597C278.284 105.862 278.725 106.227 279.051 106.693C279.381 107.155 279.557 107.682 279.58 108.273H278.551ZM285.523 108.273V109.153H281.358V108.273H285.523ZM282.659 106.182H283.676V114.722C283.676 115.085 283.739 115.371 283.864 115.58C283.989 115.784 284.152 115.93 284.352 116.017C284.553 116.1 284.767 116.142 284.994 116.142C285.127 116.142 285.241 116.134 285.335 116.119C285.43 116.1 285.513 116.081 285.585 116.062L285.801 116.977C285.703 117.015 285.581 117.049 285.438 117.08C285.294 117.114 285.116 117.131 284.903 117.131C284.532 117.131 284.174 117.049 283.83 116.886C283.489 116.723 283.208 116.481 282.989 116.159C282.769 115.837 282.659 115.438 282.659 114.96V106.182ZM287.82 117V108.273H288.803V109.614H288.876C289.051 109.174 289.354 108.82 289.786 108.551C290.221 108.278 290.714 108.142 291.263 108.142C291.346 108.142 291.439 108.144 291.541 108.148C291.643 108.152 291.729 108.155 291.797 108.159V109.188C291.751 109.18 291.672 109.169 291.558 109.153C291.445 109.138 291.321 109.131 291.189 109.131C290.734 109.131 290.329 109.227 289.973 109.42C289.621 109.61 289.342 109.873 289.138 110.21C288.933 110.547 288.831 110.932 288.831 111.364V117H287.82ZM296.786 117.182C295.971 117.182 295.267 116.992 294.672 116.614C294.077 116.231 293.617 115.703 293.291 115.028C292.969 114.35 292.808 113.57 292.808 112.688C292.808 111.809 292.969 111.028 293.291 110.347C293.617 109.661 294.066 109.125 294.638 108.739C295.214 108.348 295.878 108.153 296.632 108.153C297.106 108.153 297.562 108.241 298.001 108.415C298.441 108.585 298.835 108.848 299.183 109.205C299.536 109.557 299.814 110.002 300.018 110.54C300.223 111.074 300.325 111.706 300.325 112.438V112.938H293.507V112.045H299.291C299.291 111.485 299.178 110.981 298.95 110.534C298.727 110.083 298.414 109.727 298.013 109.466C297.615 109.205 297.155 109.074 296.632 109.074C296.079 109.074 295.592 109.222 295.172 109.517C294.751 109.812 294.422 110.203 294.183 110.688C293.948 111.172 293.829 111.703 293.825 112.278V112.812C293.825 113.506 293.945 114.112 294.183 114.631C294.426 115.146 294.768 115.545 295.212 115.83C295.655 116.114 296.179 116.256 296.786 116.256C297.198 116.256 297.56 116.191 297.871 116.062C298.185 115.934 298.448 115.761 298.661 115.545C298.876 115.326 299.039 115.085 299.149 114.824L300.109 115.136C299.977 115.504 299.759 115.843 299.456 116.153C299.157 116.464 298.782 116.714 298.331 116.903C297.884 117.089 297.369 117.182 296.786 117.182ZM306.082 117.182C305.268 117.182 304.563 116.992 303.969 116.614C303.374 116.231 302.914 115.703 302.588 115.028C302.266 114.35 302.105 113.57 302.105 112.688C302.105 111.809 302.266 111.028 302.588 110.347C302.914 109.661 303.363 109.125 303.935 108.739C304.51 108.348 305.175 108.153 305.929 108.153C306.402 108.153 306.859 108.241 307.298 108.415C307.738 108.585 308.132 108.848 308.48 109.205C308.832 109.557 309.111 110.002 309.315 110.54C309.52 111.074 309.622 111.706 309.622 112.438V112.938H302.804V112.045H308.588C308.588 111.485 308.474 110.981 308.247 110.534C308.024 110.083 307.711 109.727 307.31 109.466C306.912 109.205 306.452 109.074 305.929 109.074C305.376 109.074 304.889 109.222 304.469 109.517C304.048 109.812 303.719 110.203 303.48 110.688C303.245 111.172 303.126 111.703 303.122 112.278V112.812C303.122 113.506 303.241 114.112 303.48 114.631C303.723 115.146 304.065 115.545 304.509 115.83C304.952 116.114 305.476 116.256 306.082 116.256C306.495 116.256 306.857 116.191 307.168 116.062C307.482 115.934 307.745 115.761 307.957 115.545C308.173 115.326 308.336 115.085 308.446 114.824L309.406 115.136C309.274 115.504 309.056 115.843 308.753 116.153C308.454 116.464 308.079 116.714 307.628 116.903C307.181 117.089 306.666 117.182 306.082 117.182ZM315.288 108.273V109.153H311.124V108.273H315.288ZM312.425 106.182H313.442V114.722C313.442 115.085 313.504 115.371 313.629 115.58C313.754 115.784 313.917 115.93 314.118 116.017C314.319 116.1 314.533 116.142 314.76 116.142C314.893 116.142 315.006 116.134 315.101 116.119C315.196 116.1 315.279 116.081 315.351 116.062L315.567 116.977C315.468 117.015 315.347 117.049 315.203 117.08C315.059 117.114 314.881 117.131 314.669 117.131C314.298 117.131 313.94 117.049 313.595 116.886C313.254 116.723 312.974 116.481 312.754 116.159C312.535 115.837 312.425 115.438 312.425 114.96V106.182ZM319.267 115.409L319.165 116.017C319.1 116.426 319.009 116.877 318.892 117.369C318.775 117.862 318.653 118.33 318.528 118.773C318.403 119.216 318.295 119.572 318.205 119.841H317.426C317.475 119.583 317.538 119.256 317.614 118.858C317.693 118.46 317.775 118.019 317.858 117.534C317.941 117.053 318.017 116.557 318.085 116.045L318.165 115.409H319.267ZM335.717 105.364V117H334.683L327.808 107.256H327.717V117H326.655V105.364H327.683L334.581 115.119H334.672V105.364H335.717ZM344.146 113.665V108.273H345.158V117H344.146V115.551H344.067C343.862 115.998 343.538 116.371 343.095 116.67C342.652 116.966 342.11 117.114 341.47 117.114C340.913 117.114 340.419 116.992 339.987 116.75C339.555 116.504 339.216 116.144 338.97 115.67C338.724 115.197 338.601 114.616 338.601 113.926V108.273H339.612V113.864C339.612 114.545 339.813 115.095 340.214 115.511C340.616 115.924 341.131 116.131 341.76 116.131C342.154 116.131 342.533 116.036 342.896 115.847C343.26 115.657 343.559 115.381 343.794 115.017C344.029 114.65 344.146 114.199 344.146 113.665ZM347.835 117V108.273H348.818V109.614H348.909C349.083 109.163 349.373 108.809 349.778 108.551C350.188 108.29 350.678 108.159 351.25 108.159C351.852 108.159 352.347 108.301 352.733 108.585C353.123 108.866 353.415 109.252 353.608 109.744H353.682C353.879 109.259 354.199 108.875 354.642 108.591C355.089 108.303 355.631 108.159 356.267 108.159C357.078 108.159 357.718 108.415 358.188 108.926C358.657 109.434 358.892 110.176 358.892 111.153V117H357.881V111.153C357.881 110.464 357.705 109.947 357.352 109.602C357 109.258 356.536 109.085 355.96 109.085C355.294 109.085 354.78 109.29 354.42 109.699C354.061 110.108 353.881 110.627 353.881 111.256V117H352.847V111.062C352.847 110.472 352.682 109.994 352.352 109.631C352.023 109.267 351.559 109.085 350.96 109.085C350.559 109.085 350.197 109.184 349.875 109.381C349.557 109.578 349.305 109.852 349.119 110.205C348.938 110.553 348.847 110.955 348.847 111.409V117H347.835ZM361.78 117V105.364H362.797V109.938H362.888C363.001 109.676 363.164 109.407 363.376 109.131C363.592 108.854 363.875 108.623 364.223 108.438C364.575 108.248 365.018 108.153 365.553 108.153C366.268 108.153 366.897 108.343 367.439 108.722C367.981 109.097 368.403 109.623 368.706 110.301C369.009 110.975 369.161 111.761 369.161 112.659C369.161 113.561 369.009 114.35 368.706 115.028C368.407 115.706 367.986 116.235 367.445 116.614C366.907 116.992 366.282 117.182 365.57 117.182C365.039 117.182 364.596 117.087 364.24 116.898C363.888 116.708 363.604 116.475 363.388 116.199C363.172 115.919 363.005 115.646 362.888 115.381H362.763V117H361.78ZM362.78 112.642C362.78 113.347 362.884 113.972 363.092 114.517C363.304 115.059 363.607 115.485 364.001 115.795C364.399 116.102 364.88 116.256 365.445 116.256C366.024 116.256 366.515 116.097 366.916 115.778C367.318 115.456 367.623 115.023 367.831 114.477C368.039 113.932 368.143 113.32 368.143 112.642C368.143 111.972 368.039 111.367 367.831 110.83C367.626 110.292 367.323 109.866 366.922 109.551C366.52 109.233 366.028 109.074 365.445 109.074C364.876 109.074 364.393 109.227 363.996 109.534C363.602 109.837 363.301 110.258 363.092 110.795C362.884 111.33 362.78 111.945 362.78 112.642ZM374.911 117.182C374.096 117.182 373.392 116.992 372.797 116.614C372.202 116.231 371.742 115.703 371.416 115.028C371.094 114.35 370.933 113.57 370.933 112.688C370.933 111.809 371.094 111.028 371.416 110.347C371.742 109.661 372.191 109.125 372.763 108.739C373.339 108.348 374.003 108.153 374.757 108.153C375.231 108.153 375.687 108.241 376.126 108.415C376.566 108.585 376.96 108.848 377.308 109.205C377.661 109.557 377.939 110.002 378.143 110.54C378.348 111.074 378.45 111.706 378.45 112.438V112.938H371.632V112.045H377.416C377.416 111.485 377.303 110.981 377.075 110.534C376.852 110.083 376.539 109.727 376.138 109.466C375.74 109.205 375.28 109.074 374.757 109.074C374.204 109.074 373.717 109.222 373.297 109.517C372.876 109.812 372.547 110.203 372.308 110.688C372.073 111.172 371.954 111.703 371.95 112.278V112.812C371.95 113.506 372.07 114.112 372.308 114.631C372.551 115.146 372.893 115.545 373.337 115.83C373.78 116.114 374.304 116.256 374.911 116.256C375.323 116.256 375.685 116.191 375.996 116.062C376.31 115.934 376.573 115.761 376.786 115.545C377.001 115.326 377.164 115.085 377.274 114.824L378.234 115.136C378.102 115.504 377.884 115.843 377.581 116.153C377.282 116.464 376.907 116.714 376.456 116.903C376.009 117.089 375.494 117.182 374.911 117.182ZM380.679 117V108.273H381.662V109.614H381.736C381.91 109.174 382.213 108.82 382.645 108.551C383.08 108.278 383.573 108.142 384.122 108.142C384.205 108.142 384.298 108.144 384.401 108.148C384.503 108.152 384.588 108.155 384.656 108.159V109.188C384.611 109.18 384.531 109.169 384.418 109.153C384.304 109.138 384.181 109.131 384.048 109.131C383.594 109.131 383.188 109.227 382.832 109.42C382.48 109.61 382.202 109.873 381.997 110.21C381.793 110.547 381.69 110.932 381.69 111.364V117H380.679ZM394.433 105.364V117H393.371V106.477H393.303L390.575 108.29V107.188L393.325 105.364H394.433ZM404.74 117L401.553 105.364H402.632L405.268 115.369H405.359L407.996 105.364H409.223L411.859 115.369H411.95L414.587 105.364H415.672L412.484 117H411.348L408.649 107.131H408.575L405.876 117H404.74ZM419.007 117.199C418.481 117.199 418 117.097 417.564 116.892C417.128 116.684 416.782 116.384 416.524 115.994C416.267 115.6 416.138 115.123 416.138 114.562C416.138 114.131 416.219 113.767 416.382 113.472C416.545 113.176 416.776 112.934 417.075 112.744C417.375 112.555 417.729 112.405 418.138 112.295C418.547 112.186 418.998 112.1 419.49 112.04C419.979 111.979 420.392 111.926 420.729 111.881C421.07 111.835 421.329 111.763 421.507 111.665C421.685 111.566 421.774 111.407 421.774 111.188V110.983C421.774 110.388 421.596 109.92 421.24 109.58C420.888 109.235 420.38 109.062 419.717 109.062C419.089 109.062 418.575 109.201 418.178 109.477C417.784 109.754 417.507 110.08 417.348 110.455L416.388 110.108C416.585 109.631 416.857 109.25 417.206 108.966C417.554 108.678 417.945 108.472 418.376 108.347C418.808 108.218 419.246 108.153 419.689 108.153C420.022 108.153 420.369 108.197 420.729 108.284C421.092 108.371 421.429 108.523 421.74 108.739C422.051 108.951 422.303 109.248 422.496 109.631C422.689 110.009 422.786 110.491 422.786 111.074V117H421.774V115.619H421.712C421.59 115.877 421.411 116.127 421.172 116.369C420.933 116.612 420.634 116.811 420.274 116.966C419.914 117.121 419.492 117.199 419.007 117.199ZM419.143 116.273C419.681 116.273 420.147 116.153 420.541 115.915C420.935 115.676 421.238 115.36 421.45 114.966C421.666 114.568 421.774 114.131 421.774 113.653V112.392C421.698 112.464 421.571 112.528 421.393 112.585C421.219 112.642 421.017 112.693 420.786 112.739C420.558 112.78 420.331 112.816 420.104 112.847C419.876 112.877 419.672 112.903 419.49 112.926C418.998 112.987 418.577 113.081 418.229 113.21C417.88 113.339 417.613 113.517 417.428 113.744C417.242 113.968 417.149 114.256 417.149 114.608C417.149 115.138 417.339 115.549 417.717 115.841C418.096 116.129 418.571 116.273 419.143 116.273ZM425.476 117V108.273H426.459V109.614H426.533C426.707 109.174 427.01 108.82 427.442 108.551C427.877 108.278 428.37 108.142 428.919 108.142C429.002 108.142 429.095 108.144 429.197 108.148C429.3 108.152 429.385 108.155 429.453 108.159V109.188C429.408 109.18 429.328 109.169 429.214 109.153C429.101 109.138 428.978 109.131 428.845 109.131C428.391 109.131 427.985 109.227 427.629 109.42C427.277 109.61 426.999 109.873 426.794 110.21C426.589 110.547 426.487 110.932 426.487 111.364V117H425.476ZM434.055 117.182C433.339 117.182 432.713 116.992 432.175 116.614C431.637 116.235 431.216 115.706 430.913 115.028C430.614 114.35 430.464 113.561 430.464 112.659C430.464 111.761 430.614 110.975 430.913 110.301C431.216 109.623 431.639 109.097 432.18 108.722C432.722 108.343 433.353 108.153 434.072 108.153C434.603 108.153 435.044 108.248 435.396 108.438C435.749 108.623 436.031 108.854 436.243 109.131C436.455 109.407 436.62 109.676 436.737 109.938H436.828V105.364H437.845V117H436.857V115.381H436.737C436.62 115.646 436.453 115.919 436.237 116.199C436.021 116.475 435.735 116.708 435.379 116.898C435.027 117.087 434.586 117.182 434.055 117.182ZM434.175 116.256C434.739 116.256 435.22 116.102 435.618 115.795C436.016 115.485 436.319 115.059 436.527 114.517C436.739 113.972 436.845 113.347 436.845 112.642C436.845 111.945 436.741 111.33 436.533 110.795C436.324 110.258 436.021 109.837 435.624 109.534C435.226 109.227 434.743 109.074 434.175 109.074C433.591 109.074 433.099 109.233 432.697 109.551C432.3 109.866 431.997 110.292 431.788 110.83C431.584 111.367 431.482 111.972 431.482 112.642C431.482 113.32 431.586 113.932 431.794 114.477C432.002 115.023 432.305 115.456 432.703 115.778C433.105 116.097 433.595 116.256 434.175 116.256ZM442.408 115.409L442.305 116.017C442.241 116.426 442.15 116.877 442.033 117.369C441.915 117.862 441.794 118.33 441.669 118.773C441.544 119.216 441.436 119.572 441.345 119.841H440.567C440.616 119.583 440.679 119.256 440.754 118.858C440.834 118.46 440.915 118.019 440.999 117.534C441.082 117.053 441.158 116.557 441.226 116.045L441.305 115.409H442.408ZM458.909 109H457.841C457.761 108.602 457.617 108.235 457.409 107.898C457.205 107.557 456.947 107.259 456.636 107.006C456.326 106.752 455.973 106.555 455.58 106.415C455.186 106.275 454.759 106.205 454.301 106.205C453.566 106.205 452.896 106.396 452.29 106.778C451.688 107.161 451.205 107.723 450.841 108.466C450.481 109.205 450.301 110.11 450.301 111.182C450.301 112.261 450.481 113.17 450.841 113.909C451.205 114.648 451.688 115.208 452.29 115.591C452.896 115.97 453.566 116.159 454.301 116.159C454.759 116.159 455.186 116.089 455.58 115.949C455.973 115.809 456.326 115.614 456.636 115.364C456.947 115.11 457.205 114.812 457.409 114.472C457.617 114.131 457.761 113.761 457.841 113.364H458.909C458.814 113.898 458.636 114.396 458.375 114.858C458.117 115.316 457.788 115.718 457.386 116.062C456.989 116.407 456.53 116.676 456.011 116.869C455.492 117.062 454.922 117.159 454.301 117.159C453.324 117.159 452.456 116.915 451.699 116.426C450.941 115.934 450.347 115.241 449.915 114.347C449.487 113.453 449.273 112.398 449.273 111.182C449.273 109.966 449.487 108.911 449.915 108.017C450.347 107.123 450.941 106.432 451.699 105.943C452.456 105.451 453.324 105.205 454.301 105.205C454.922 105.205 455.492 105.301 456.011 105.494C456.53 105.684 456.989 105.953 457.386 106.301C457.788 106.646 458.117 107.047 458.375 107.506C458.636 107.964 458.814 108.462 458.909 109ZM463.632 117.199C463.106 117.199 462.625 117.097 462.189 116.892C461.753 116.684 461.407 116.384 461.149 115.994C460.892 115.6 460.763 115.123 460.763 114.562C460.763 114.131 460.844 113.767 461.007 113.472C461.17 113.176 461.401 112.934 461.7 112.744C462 112.555 462.354 112.405 462.763 112.295C463.172 112.186 463.623 112.1 464.115 112.04C464.604 111.979 465.017 111.926 465.354 111.881C465.695 111.835 465.954 111.763 466.132 111.665C466.31 111.566 466.399 111.407 466.399 111.188V110.983C466.399 110.388 466.221 109.92 465.865 109.58C465.513 109.235 465.005 109.062 464.342 109.062C463.714 109.062 463.2 109.201 462.803 109.477C462.409 109.754 462.132 110.08 461.973 110.455L461.013 110.108C461.21 109.631 461.482 109.25 461.831 108.966C462.179 108.678 462.57 108.472 463.001 108.347C463.433 108.218 463.871 108.153 464.314 108.153C464.647 108.153 464.994 108.197 465.354 108.284C465.717 108.371 466.054 108.523 466.365 108.739C466.676 108.951 466.928 109.248 467.121 109.631C467.314 110.009 467.411 110.491 467.411 111.074V117H466.399V115.619H466.337C466.215 115.877 466.036 116.127 465.797 116.369C465.558 116.612 465.259 116.811 464.899 116.966C464.539 117.121 464.117 117.199 463.632 117.199ZM463.768 116.273C464.306 116.273 464.772 116.153 465.166 115.915C465.56 115.676 465.863 115.36 466.075 114.966C466.291 114.568 466.399 114.131 466.399 113.653V112.392C466.323 112.464 466.196 112.528 466.018 112.585C465.844 112.642 465.642 112.693 465.411 112.739C465.183 112.78 464.956 112.816 464.729 112.847C464.501 112.877 464.297 112.903 464.115 112.926C463.623 112.987 463.202 113.081 462.854 113.21C462.505 113.339 462.238 113.517 462.053 113.744C461.867 113.968 461.774 114.256 461.774 114.608C461.774 115.138 461.964 115.549 462.342 115.841C462.721 116.129 463.196 116.273 463.768 116.273ZM473.493 117.182C472.739 117.182 472.072 116.991 471.493 116.608C470.917 116.225 470.466 115.697 470.141 115.023C469.815 114.345 469.652 113.562 469.652 112.676C469.652 111.782 469.815 110.996 470.141 110.318C470.466 109.636 470.917 109.106 471.493 108.727C472.072 108.345 472.739 108.153 473.493 108.153C474.247 108.153 474.911 108.345 475.487 108.727C476.063 109.11 476.514 109.64 476.839 110.318C477.169 110.996 477.334 111.782 477.334 112.676C477.334 113.562 477.171 114.345 476.845 115.023C476.519 115.697 476.067 116.225 475.487 116.608C474.911 116.991 474.247 117.182 473.493 117.182ZM473.493 116.256C474.099 116.256 474.612 116.093 475.033 115.767C475.453 115.441 475.771 115.008 475.987 114.466C476.207 113.924 476.317 113.328 476.317 112.676C476.317 112.025 476.207 111.426 475.987 110.881C475.771 110.335 475.453 109.898 475.033 109.568C474.612 109.239 474.099 109.074 473.493 109.074C472.891 109.074 472.377 109.239 471.953 109.568C471.533 109.898 471.213 110.335 470.993 110.881C470.777 111.426 470.669 112.025 470.669 112.676C470.669 113.328 470.777 113.924 470.993 114.466C471.213 115.008 471.533 115.441 471.953 115.767C472.374 116.093 472.887 116.256 473.493 116.256ZM484.264 117V105.364H485.327V116.045H490.872V117H484.264ZM495.491 117.199C494.965 117.199 494.484 117.097 494.048 116.892C493.613 116.684 493.266 116.384 493.009 115.994C492.751 115.6 492.622 115.123 492.622 114.562C492.622 114.131 492.704 113.767 492.866 113.472C493.029 113.176 493.26 112.934 493.56 112.744C493.859 112.555 494.213 112.405 494.622 112.295C495.031 112.186 495.482 112.1 495.974 112.04C496.463 111.979 496.876 111.926 497.213 111.881C497.554 111.835 497.813 111.763 497.991 111.665C498.17 111.566 498.259 111.407 498.259 111.188V110.983C498.259 110.388 498.08 109.92 497.724 109.58C497.372 109.235 496.865 109.062 496.202 109.062C495.573 109.062 495.06 109.201 494.662 109.477C494.268 109.754 493.991 110.08 493.832 110.455L492.872 110.108C493.069 109.631 493.342 109.25 493.69 108.966C494.039 108.678 494.429 108.472 494.861 108.347C495.293 108.218 495.73 108.153 496.173 108.153C496.507 108.153 496.853 108.197 497.213 108.284C497.577 108.371 497.914 108.523 498.224 108.739C498.535 108.951 498.787 109.248 498.98 109.631C499.173 110.009 499.27 110.491 499.27 111.074V117H498.259V115.619H498.196C498.075 115.877 497.895 116.127 497.656 116.369C497.418 116.612 497.118 116.811 496.759 116.966C496.399 117.121 495.976 117.199 495.491 117.199ZM495.628 116.273C496.166 116.273 496.632 116.153 497.026 115.915C497.42 115.676 497.723 115.36 497.935 114.966C498.151 114.568 498.259 114.131 498.259 113.653V112.392C498.183 112.464 498.056 112.528 497.878 112.585C497.704 112.642 497.501 112.693 497.27 112.739C497.043 112.78 496.815 112.816 496.588 112.847C496.361 112.877 496.156 112.903 495.974 112.926C495.482 112.987 495.062 113.081 494.713 113.21C494.365 113.339 494.098 113.517 493.912 113.744C493.726 113.968 493.634 114.256 493.634 114.608C493.634 115.138 493.823 115.549 494.202 115.841C494.58 116.129 495.056 116.273 495.628 116.273ZM502.972 111.545V117H501.96V108.273H502.943V109.642H503.034C503.239 109.195 503.557 108.837 503.989 108.568C504.424 108.295 504.962 108.159 505.602 108.159C506.189 108.159 506.705 108.282 507.148 108.528C507.595 108.771 507.941 109.129 508.188 109.602C508.438 110.076 508.562 110.657 508.562 111.347V117H507.551V111.409C507.551 110.693 507.35 110.127 506.949 109.71C506.551 109.294 506.017 109.085 505.347 109.085C504.888 109.085 504.481 109.184 504.125 109.381C503.769 109.578 503.487 109.862 503.278 110.233C503.074 110.6 502.972 111.038 502.972 111.545ZM512.237 111.545V117H511.226V105.364H512.237V109.642H512.328C512.533 109.191 512.849 108.831 513.277 108.562C513.709 108.294 514.254 108.159 514.913 108.159C515.504 108.159 516.023 108.28 516.47 108.523C516.917 108.765 517.266 109.123 517.516 109.597C517.766 110.07 517.891 110.653 517.891 111.347V117H516.874V111.409C516.874 110.689 516.673 110.123 516.271 109.71C515.874 109.294 515.336 109.085 514.658 109.085C514.192 109.085 513.777 109.184 513.413 109.381C513.05 109.578 512.762 109.862 512.55 110.233C512.341 110.6 512.237 111.038 512.237 111.545ZM534.378 109H533.31C533.23 108.602 533.086 108.235 532.878 107.898C532.673 107.557 532.416 107.259 532.105 107.006C531.795 106.752 531.442 106.555 531.048 106.415C530.654 106.275 530.228 106.205 529.77 106.205C529.035 106.205 528.365 106.396 527.759 106.778C527.156 107.161 526.673 107.723 526.31 108.466C525.95 109.205 525.77 110.11 525.77 111.182C525.77 112.261 525.95 113.17 526.31 113.909C526.673 114.648 527.156 115.208 527.759 115.591C528.365 115.97 529.035 116.159 529.77 116.159C530.228 116.159 530.654 116.089 531.048 115.949C531.442 115.809 531.795 115.614 532.105 115.364C532.416 115.11 532.673 114.812 532.878 114.472C533.086 114.131 533.23 113.761 533.31 113.364H534.378C534.283 113.898 534.105 114.396 533.844 114.858C533.586 115.316 533.257 115.718 532.855 116.062C532.457 116.407 531.999 116.676 531.48 116.869C530.961 117.062 530.391 117.159 529.77 117.159C528.793 117.159 527.925 116.915 527.168 116.426C526.41 115.934 525.815 115.241 525.384 114.347C524.955 113.453 524.741 112.398 524.741 111.182C524.741 109.966 524.955 108.911 525.384 108.017C525.815 107.123 526.41 106.432 527.168 105.943C527.925 105.451 528.793 105.205 529.77 105.205C530.391 105.205 530.961 105.301 531.48 105.494C531.999 105.684 532.457 105.953 532.855 106.301C533.257 106.646 533.586 107.047 533.844 107.506C534.105 107.964 534.283 108.462 534.378 109ZM536.675 117V108.273H537.692V117H536.675ZM537.192 106.773C536.983 106.773 536.805 106.703 536.658 106.562C536.51 106.419 536.436 106.246 536.436 106.045C536.436 105.845 536.51 105.674 536.658 105.534C536.805 105.39 536.983 105.318 537.192 105.318C537.4 105.318 537.578 105.39 537.726 105.534C537.874 105.674 537.947 105.845 537.947 106.045C537.947 106.246 537.874 106.419 537.726 106.562C537.578 106.703 537.4 106.773 537.192 106.773ZM543.804 108.273V109.153H539.639V108.273H543.804ZM540.94 106.182H541.957V114.722C541.957 115.085 542.02 115.371 542.145 115.58C542.27 115.784 542.433 115.93 542.634 116.017C542.834 116.1 543.048 116.142 543.276 116.142C543.408 116.142 543.522 116.134 543.616 116.119C543.711 116.1 543.795 116.081 543.866 116.062L544.082 116.977C543.984 117.015 543.863 117.049 543.719 117.08C543.575 117.114 543.397 117.131 543.185 117.131C542.813 117.131 542.455 117.049 542.111 116.886C541.77 116.723 541.49 116.481 541.27 116.159C541.05 115.837 540.94 115.438 540.94 114.96V106.182ZM546.805 120.273C546.605 120.273 546.417 120.254 546.243 120.216C546.069 120.178 545.93 120.136 545.828 120.091L546.101 119.199C546.446 119.305 546.752 119.343 547.021 119.312C547.29 119.286 547.529 119.165 547.737 118.949C547.946 118.737 548.131 118.411 548.294 117.972L548.612 117.085L545.402 108.273H546.499L549.089 115.665H549.169L551.76 108.273H552.857L549.163 118.381C549.008 118.801 548.817 119.152 548.589 119.432C548.362 119.716 548.099 119.926 547.8 120.062C547.504 120.203 547.173 120.273 546.805 120.273ZM555.97 115.409L555.868 116.017C555.804 116.426 555.713 116.877 555.595 117.369C555.478 117.862 555.357 118.33 555.232 118.773C555.107 119.216 554.999 119.572 554.908 119.841H554.129C554.179 119.583 554.241 119.256 554.317 118.858C554.396 118.46 554.478 118.019 554.561 117.534C554.644 117.053 554.72 116.557 554.788 116.045L554.868 115.409H555.97ZM566.767 117H563.358V105.364H566.972C568.081 105.364 569.03 105.595 569.818 106.057C570.61 106.519 571.216 107.182 571.636 108.045C572.057 108.909 572.267 109.945 572.267 111.153C572.267 112.373 572.051 113.42 571.619 114.295C571.191 115.167 570.566 115.835 569.744 116.301C568.926 116.767 567.934 117 566.767 117ZM564.42 116.045H566.705C567.705 116.045 568.542 115.848 569.216 115.455C569.89 115.061 570.396 114.498 570.733 113.767C571.07 113.036 571.239 112.165 571.239 111.153C571.235 110.15 571.068 109.286 570.739 108.562C570.413 107.839 569.928 107.284 569.284 106.898C568.644 106.511 567.852 106.318 566.909 106.318H564.42V116.045ZM578.024 117.182C577.27 117.182 576.604 116.991 576.024 116.608C575.448 116.225 574.998 115.697 574.672 115.023C574.346 114.345 574.183 113.562 574.183 112.676C574.183 111.782 574.346 110.996 574.672 110.318C574.998 109.636 575.448 109.106 576.024 108.727C576.604 108.345 577.27 108.153 578.024 108.153C578.778 108.153 579.443 108.345 580.018 108.727C580.594 109.11 581.045 109.64 581.371 110.318C581.7 110.996 581.865 111.782 581.865 112.676C581.865 113.562 581.702 114.345 581.376 115.023C581.051 115.697 580.598 116.225 580.018 116.608C579.443 116.991 578.778 117.182 578.024 117.182ZM578.024 116.256C578.63 116.256 579.143 116.093 579.564 115.767C579.984 115.441 580.303 115.008 580.518 114.466C580.738 113.924 580.848 113.328 580.848 112.676C580.848 112.025 580.738 111.426 580.518 110.881C580.303 110.335 579.984 109.898 579.564 109.568C579.143 109.239 578.63 109.074 578.024 109.074C577.422 109.074 576.909 109.239 576.484 109.568C576.064 109.898 575.744 110.335 575.524 110.881C575.308 111.426 575.2 112.025 575.2 112.676C575.2 113.328 575.308 113.924 575.524 114.466C575.744 115.008 576.064 115.441 576.484 115.767C576.905 116.093 577.418 116.256 578.024 116.256ZM585.097 111.545V117H584.085V108.273H585.068V109.642H585.159C585.364 109.195 585.682 108.837 586.114 108.568C586.549 108.295 587.087 108.159 587.727 108.159C588.314 108.159 588.83 108.282 589.273 108.528C589.72 108.771 590.066 109.129 590.312 109.602C590.562 110.076 590.688 110.657 590.688 111.347V117H589.676V111.409C589.676 110.693 589.475 110.127 589.074 109.71C588.676 109.294 588.142 109.085 587.472 109.085C587.013 109.085 586.606 109.184 586.25 109.381C585.894 109.578 585.612 109.862 585.403 110.233C585.199 110.6 585.097 111.038 585.097 111.545ZM596.68 120.455C596.086 120.455 595.565 120.377 595.118 120.222C594.671 120.07 594.294 119.862 593.987 119.597C593.68 119.331 593.442 119.034 593.271 118.705L594.101 118.159C594.226 118.379 594.393 118.595 594.601 118.807C594.813 119.019 595.088 119.195 595.425 119.335C595.766 119.475 596.184 119.545 596.68 119.545C597.453 119.545 598.076 119.352 598.55 118.966C599.027 118.58 599.266 117.979 599.266 117.165V115.199H599.175C599.057 115.464 598.889 115.729 598.669 115.994C598.449 116.256 598.161 116.473 597.805 116.648C597.453 116.822 597.016 116.909 596.493 116.909C595.796 116.909 595.177 116.737 594.635 116.392C594.097 116.047 593.673 115.555 593.362 114.915C593.055 114.271 592.902 113.504 592.902 112.614C592.902 111.731 593.052 110.955 593.351 110.284C593.654 109.614 594.076 109.091 594.618 108.716C595.16 108.341 595.79 108.153 596.51 108.153C597.044 108.153 597.487 108.248 597.839 108.438C598.192 108.623 598.474 108.854 598.686 109.131C598.902 109.407 599.071 109.676 599.192 109.938H599.294V108.273H600.283V117.227C600.283 117.966 600.125 118.574 599.811 119.051C599.497 119.528 599.069 119.881 598.527 120.108C597.985 120.339 597.37 120.455 596.68 120.455ZM596.612 115.983C597.173 115.983 597.652 115.848 598.05 115.58C598.447 115.307 598.752 114.917 598.964 114.409C599.177 113.902 599.283 113.297 599.283 112.597C599.283 111.915 599.179 111.311 598.97 110.784C598.762 110.254 598.459 109.837 598.061 109.534C597.667 109.227 597.184 109.074 596.612 109.074C596.029 109.074 595.536 109.231 595.135 109.545C594.733 109.86 594.43 110.284 594.226 110.818C594.021 111.348 593.919 111.941 593.919 112.597C593.919 113.263 594.023 113.852 594.232 114.364C594.44 114.871 594.745 115.269 595.146 115.557C595.548 115.841 596.036 115.983 596.612 115.983ZM606.966 106.318V105.364H615.403V106.318H611.716V117H610.653V106.318H606.966ZM618.597 111.545V117H617.585V105.364H618.597V109.642H618.688C618.892 109.191 619.208 108.831 619.636 108.562C620.068 108.294 620.614 108.159 621.273 108.159C621.864 108.159 622.383 108.28 622.83 108.523C623.277 108.765 623.625 109.123 623.875 109.597C624.125 110.07 624.25 110.653 624.25 111.347V117H623.233V111.409C623.233 110.689 623.032 110.123 622.631 109.71C622.233 109.294 621.695 109.085 621.017 109.085C620.551 109.085 620.136 109.184 619.773 109.381C619.409 109.578 619.121 109.862 618.909 110.233C618.701 110.6 618.597 111.038 618.597 111.545ZM629.351 117.199C628.824 117.199 628.343 117.097 627.908 116.892C627.472 116.684 627.125 116.384 626.868 115.994C626.61 115.6 626.482 115.123 626.482 114.562C626.482 114.131 626.563 113.767 626.726 113.472C626.889 113.176 627.12 112.934 627.419 112.744C627.718 112.555 628.072 112.405 628.482 112.295C628.891 112.186 629.341 112.1 629.834 112.04C630.322 111.979 630.735 111.926 631.072 111.881C631.413 111.835 631.673 111.763 631.851 111.665C632.029 111.566 632.118 111.407 632.118 111.188V110.983C632.118 110.388 631.94 109.92 631.584 109.58C631.232 109.235 630.724 109.062 630.061 109.062C629.432 109.062 628.919 109.201 628.521 109.477C628.127 109.754 627.851 110.08 627.692 110.455L626.732 110.108C626.929 109.631 627.201 109.25 627.55 108.966C627.898 108.678 628.288 108.472 628.72 108.347C629.152 108.218 629.589 108.153 630.033 108.153C630.366 108.153 630.713 108.197 631.072 108.284C631.436 108.371 631.773 108.523 632.084 108.739C632.394 108.951 632.646 109.248 632.839 109.631C633.033 110.009 633.129 110.491 633.129 111.074V117H632.118V115.619H632.055C631.934 115.877 631.754 116.127 631.516 116.369C631.277 116.612 630.978 116.811 630.618 116.966C630.258 117.121 629.836 117.199 629.351 117.199ZM629.487 116.273C630.025 116.273 630.491 116.153 630.885 115.915C631.279 115.676 631.582 115.36 631.794 114.966C632.01 114.568 632.118 114.131 632.118 113.653V112.392C632.042 112.464 631.915 112.528 631.737 112.585C631.563 112.642 631.36 112.693 631.129 112.739C630.902 112.78 630.675 112.816 630.447 112.847C630.22 112.877 630.016 112.903 629.834 112.926C629.341 112.987 628.921 113.081 628.572 113.21C628.224 113.339 627.957 113.517 627.771 113.744C627.586 113.968 627.493 114.256 627.493 114.608C627.493 115.138 627.682 115.549 628.061 115.841C628.44 116.129 628.915 116.273 629.487 116.273ZM635.82 120.273V108.273H636.803V109.938H636.922C637.043 109.676 637.21 109.409 637.422 109.136C637.634 108.86 637.914 108.627 638.263 108.438C638.615 108.248 639.058 108.153 639.592 108.153C640.312 108.153 640.941 108.343 641.479 108.722C642.02 109.097 642.441 109.623 642.74 110.301C643.043 110.975 643.195 111.761 643.195 112.659C643.195 113.561 643.043 114.35 642.74 115.028C642.441 115.706 642.02 116.235 641.479 116.614C640.941 116.992 640.316 117.182 639.604 117.182C639.077 117.182 638.636 117.087 638.28 116.898C637.928 116.708 637.642 116.475 637.422 116.199C637.206 115.919 637.039 115.646 636.922 115.381H636.831V120.273H635.82ZM636.82 112.642C636.82 113.347 636.924 113.972 637.132 114.517C637.344 115.059 637.647 115.485 638.041 115.795C638.439 116.102 638.92 116.256 639.484 116.256C640.064 116.256 640.553 116.097 640.95 115.778C641.352 115.456 641.657 115.023 641.865 114.477C642.077 113.932 642.183 113.32 642.183 112.642C642.183 111.972 642.079 111.367 641.871 110.83C641.666 110.292 641.363 109.866 640.962 109.551C640.56 109.233 640.068 109.074 639.484 109.074C638.916 109.074 638.433 109.227 638.036 109.534C637.638 109.837 637.335 110.258 637.126 110.795C636.922 111.33 636.82 111.945 636.82 112.642ZM650.124 117V105.364H653.879C654.705 105.364 655.394 105.523 655.947 105.841C656.504 106.155 656.923 106.583 657.203 107.125C657.487 107.667 657.629 108.277 657.629 108.955C657.629 109.633 657.489 110.244 657.209 110.79C656.929 111.331 656.512 111.761 655.959 112.08C655.406 112.394 654.718 112.551 653.896 112.551H650.942V111.597H653.868C654.478 111.597 654.983 111.483 655.385 111.256C655.786 111.025 656.086 110.71 656.283 110.312C656.483 109.915 656.584 109.462 656.584 108.955C656.584 108.447 656.483 107.994 656.283 107.597C656.086 107.199 655.785 106.886 655.379 106.659C654.978 106.432 654.468 106.318 653.851 106.318H651.186V117H650.124ZM659.913 117V108.273H660.896V109.614H660.97C661.144 109.174 661.447 108.82 661.879 108.551C662.315 108.278 662.807 108.142 663.357 108.142C663.44 108.142 663.533 108.144 663.635 108.148C663.737 108.152 663.822 108.155 663.891 108.159V109.188C663.845 109.18 663.766 109.169 663.652 109.153C663.538 109.138 663.415 109.131 663.283 109.131C662.828 109.131 662.423 109.227 662.067 109.42C661.714 109.61 661.436 109.873 661.232 110.21C661.027 110.547 660.925 110.932 660.925 111.364V117H659.913ZM668.743 117.182C667.989 117.182 667.322 116.991 666.743 116.608C666.167 116.225 665.716 115.697 665.391 115.023C665.065 114.345 664.902 113.562 664.902 112.676C664.902 111.782 665.065 110.996 665.391 110.318C665.716 109.636 666.167 109.106 666.743 108.727C667.322 108.345 667.989 108.153 668.743 108.153C669.497 108.153 670.161 108.345 670.737 108.727C671.313 109.11 671.764 109.64 672.089 110.318C672.419 110.996 672.584 111.782 672.584 112.676C672.584 113.562 672.421 114.345 672.095 115.023C671.769 115.697 671.317 116.225 670.737 116.608C670.161 116.991 669.497 117.182 668.743 117.182ZM668.743 116.256C669.349 116.256 669.862 116.093 670.283 115.767C670.703 115.441 671.021 115.008 671.237 114.466C671.457 113.924 671.567 113.328 671.567 112.676C671.567 112.025 671.457 111.426 671.237 110.881C671.021 110.335 670.703 109.898 670.283 109.568C669.862 109.239 669.349 109.074 668.743 109.074C668.141 109.074 667.627 109.239 667.203 109.568C666.783 109.898 666.463 110.335 666.243 110.881C666.027 111.426 665.919 112.025 665.919 112.676C665.919 113.328 666.027 113.924 666.243 114.466C666.463 115.008 666.783 115.441 667.203 115.767C667.624 116.093 668.137 116.256 668.743 116.256ZM681.247 108.273L678.06 117H676.98L673.793 108.273H674.889L677.48 115.665H677.56L680.151 108.273H681.247ZM683.237 117V108.273H684.254V117H683.237ZM683.754 106.773C683.546 106.773 683.368 106.703 683.22 106.562C683.072 106.419 682.999 106.246 682.999 106.045C682.999 105.845 683.072 105.674 683.22 105.534C683.368 105.39 683.546 105.318 683.754 105.318C683.963 105.318 684.141 105.39 684.288 105.534C684.436 105.674 684.51 105.845 684.51 106.045C684.51 106.246 684.436 106.419 684.288 106.562C684.141 106.703 683.963 106.773 683.754 106.773ZM687.94 111.545V117H686.929V108.273H687.912V109.642H688.003C688.207 109.195 688.526 108.837 688.957 108.568C689.393 108.295 689.931 108.159 690.571 108.159C691.158 108.159 691.673 108.282 692.116 108.528C692.563 108.771 692.91 109.129 693.156 109.602C693.406 110.076 693.531 110.657 693.531 111.347V117H692.52V111.409C692.52 110.693 692.319 110.127 691.918 109.71C691.52 109.294 690.986 109.085 690.315 109.085C689.857 109.085 689.45 109.184 689.094 109.381C688.738 109.578 688.455 109.862 688.247 110.233C688.043 110.6 687.94 111.038 687.94 111.545ZM699.604 117.182C698.823 117.182 698.143 116.987 697.564 116.597C696.988 116.206 696.541 115.672 696.223 114.994C695.905 114.316 695.746 113.544 695.746 112.676C695.746 111.801 695.907 111.023 696.229 110.341C696.554 109.659 697.005 109.125 697.581 108.739C698.157 108.348 698.825 108.153 699.587 108.153C700.17 108.153 700.698 108.267 701.172 108.494C701.645 108.718 702.036 109.034 702.342 109.443C702.653 109.848 702.848 110.322 702.928 110.864H701.905C701.799 110.371 701.543 109.951 701.138 109.602C700.736 109.25 700.225 109.074 699.604 109.074C699.047 109.074 698.554 109.225 698.126 109.528C697.698 109.828 697.363 110.246 697.121 110.784C696.882 111.318 696.763 111.937 696.763 112.642C696.763 113.35 696.88 113.977 697.115 114.523C697.35 115.064 697.679 115.489 698.104 115.795C698.532 116.102 699.032 116.256 699.604 116.256C699.99 116.256 700.342 116.184 700.661 116.04C700.982 115.892 701.251 115.684 701.467 115.415C701.687 115.146 701.835 114.826 701.911 114.455H702.933C702.857 114.981 702.67 115.451 702.371 115.864C702.075 116.273 701.691 116.595 701.217 116.83C700.748 117.064 700.21 117.182 699.604 117.182ZM708.629 117.182C707.815 117.182 707.11 116.992 706.516 116.614C705.921 116.231 705.461 115.703 705.135 115.028C704.813 114.35 704.652 113.57 704.652 112.688C704.652 111.809 704.813 111.028 705.135 110.347C705.461 109.661 705.91 109.125 706.482 108.739C707.057 108.348 707.722 108.153 708.476 108.153C708.949 108.153 709.406 108.241 709.845 108.415C710.285 108.585 710.679 108.848 711.027 109.205C711.379 109.557 711.658 110.002 711.862 110.54C712.067 111.074 712.169 111.706 712.169 112.438V112.938H705.351V112.045H711.135C711.135 111.485 711.021 110.981 710.794 110.534C710.571 110.083 710.258 109.727 709.857 109.466C709.459 109.205 708.999 109.074 708.476 109.074C707.923 109.074 707.436 109.222 707.016 109.517C706.595 109.812 706.266 110.203 706.027 110.688C705.792 111.172 705.673 111.703 705.669 112.278V112.812C705.669 113.506 705.788 114.112 706.027 114.631C706.269 115.146 706.612 115.545 707.055 115.83C707.499 116.114 708.023 116.256 708.629 116.256C709.042 116.256 709.404 116.191 709.714 116.062C710.029 115.934 710.292 115.761 710.504 115.545C710.72 115.326 710.883 115.085 710.993 114.824L711.953 115.136C711.821 115.504 711.603 115.843 711.3 116.153C711 116.464 710.625 116.714 710.175 116.903C709.728 117.089 709.213 117.182 708.629 117.182Z" fill="white"/>
<path d="M33.2784 152V140.364H37.4261C38.3314 140.364 39.0814 140.528 39.6761 140.858C40.2708 141.187 40.7159 141.638 41.0114 142.21C41.3068 142.778 41.4545 143.419 41.4545 144.131C41.4545 144.847 41.3049 145.491 41.0057 146.062C40.7102 146.631 40.2633 147.081 39.6648 147.415C39.0701 147.744 38.322 147.909 37.4205 147.909H34.5682V146.42H37.2614C37.8333 146.42 38.2973 146.322 38.6534 146.125C39.0095 145.924 39.2708 145.652 39.4375 145.307C39.6042 144.962 39.6875 144.57 39.6875 144.131C39.6875 143.691 39.6042 143.301 39.4375 142.96C39.2708 142.619 39.0076 142.352 38.6477 142.159C38.2917 141.966 37.822 141.869 37.2386 141.869H35.0341V152H33.2784ZM45.0753 146.818V152H43.3764V140.364H45.0526V144.693H45.1605C45.3651 144.223 45.6776 143.85 46.098 143.574C46.5185 143.297 47.0677 143.159 47.7457 143.159C48.3442 143.159 48.867 143.282 49.3139 143.528C49.7647 143.775 50.1132 144.142 50.3594 144.631C50.6094 145.116 50.7344 145.722 50.7344 146.449V152H49.0355V146.653C49.0355 146.013 48.8707 145.517 48.5412 145.165C48.2116 144.809 47.7533 144.631 47.1662 144.631C46.7647 144.631 46.4048 144.716 46.0866 144.886C45.7723 145.057 45.5241 145.307 45.3423 145.636C45.1643 145.962 45.0753 146.356 45.0753 146.818ZM56.6776 152.176C55.8594 152.176 55.1454 151.989 54.5355 151.614C53.9257 151.239 53.4522 150.714 53.1151 150.04C52.7779 149.366 52.6094 148.578 52.6094 147.676C52.6094 146.771 52.7779 145.979 53.1151 145.301C53.4522 144.623 53.9257 144.097 54.5355 143.722C55.1454 143.347 55.8594 143.159 56.6776 143.159C57.4957 143.159 58.2098 143.347 58.8196 143.722C59.4295 144.097 59.9029 144.623 60.2401 145.301C60.5772 145.979 60.7457 146.771 60.7457 147.676C60.7457 148.578 60.5772 149.366 60.2401 150.04C59.9029 150.714 59.4295 151.239 58.8196 151.614C58.2098 151.989 57.4957 152.176 56.6776 152.176ZM56.6832 150.75C57.2135 150.75 57.6529 150.61 58.0014 150.33C58.3499 150.049 58.6075 149.676 58.7741 149.21C58.9446 148.744 59.0298 148.231 59.0298 147.67C59.0298 147.114 58.9446 146.602 58.7741 146.136C58.6075 145.667 58.3499 145.29 58.0014 145.006C57.6529 144.722 57.2135 144.58 56.6832 144.58C56.1491 144.58 55.706 144.722 55.3537 145.006C55.0052 145.29 54.7457 145.667 54.5753 146.136C54.4086 146.602 54.3253 147.114 54.3253 147.67C54.3253 148.231 54.4086 148.744 54.5753 149.21C54.7457 149.676 55.0052 150.049 55.3537 150.33C55.706 150.61 56.1491 150.75 56.6832 150.75ZM64.3409 146.818V152H62.642V143.273H64.2727V144.693H64.3807C64.5814 144.231 64.8958 143.86 65.3239 143.58C65.7557 143.299 66.2992 143.159 66.9545 143.159C67.5492 143.159 68.0701 143.284 68.517 143.534C68.964 143.78 69.3106 144.148 69.5568 144.636C69.803 145.125 69.9261 145.729 69.9261 146.449V152H68.2273V146.653C68.2273 146.021 68.0625 145.527 67.733 145.17C67.4034 144.811 66.9508 144.631 66.375 144.631C65.9811 144.631 65.6307 144.716 65.3239 144.886C65.0208 145.057 64.7803 145.307 64.6023 145.636C64.428 145.962 64.3409 146.356 64.3409 146.818ZM75.9659 152.176C75.1061 152.176 74.3655 151.992 73.7443 151.625C73.1269 151.254 72.6496 150.733 72.3125 150.062C71.9792 149.388 71.8125 148.598 71.8125 147.693C71.8125 146.799 71.9792 146.011 72.3125 145.33C72.6496 144.648 73.1193 144.116 73.7216 143.733C74.3277 143.35 75.036 143.159 75.8466 143.159C76.339 143.159 76.8163 143.241 77.2784 143.403C77.7405 143.566 78.1553 143.822 78.5227 144.17C78.8902 144.519 79.1799 144.972 79.392 145.528C79.6042 146.081 79.7102 146.754 79.7102 147.545V148.148H72.7727V146.875H78.0455C78.0455 146.428 77.9545 146.032 77.7727 145.688C77.5909 145.339 77.3352 145.064 77.0057 144.864C76.6799 144.663 76.2973 144.562 75.858 144.562C75.3807 144.562 74.964 144.68 74.608 144.915C74.2557 145.146 73.983 145.449 73.7898 145.824C73.6004 146.195 73.5057 146.598 73.5057 147.034V148.028C73.5057 148.612 73.608 149.108 73.8125 149.517C74.0208 149.926 74.3106 150.239 74.6818 150.455C75.053 150.667 75.4867 150.773 75.983 150.773C76.3049 150.773 76.5985 150.727 76.8636 150.636C77.1288 150.542 77.358 150.402 77.5511 150.216C77.7443 150.03 77.892 149.801 77.9943 149.528L79.6023 149.818C79.4735 150.292 79.2424 150.706 78.9091 151.062C78.5795 151.415 78.1648 151.689 77.6648 151.886C77.1686 152.08 76.6023 152.176 75.9659 152.176ZM82.7145 152.108C82.4039 152.108 82.1368 151.998 81.9134 151.778C81.6899 151.555 81.5781 151.286 81.5781 150.972C81.5781 150.661 81.6899 150.396 81.9134 150.176C82.1368 149.953 82.4039 149.841 82.7145 149.841C83.0251 149.841 83.2921 149.953 83.5156 150.176C83.7391 150.396 83.8509 150.661 83.8509 150.972C83.8509 151.18 83.7978 151.371 83.6918 151.545C83.5895 151.716 83.4531 151.852 83.2827 151.955C83.1122 152.057 82.9228 152.108 82.7145 152.108ZM82.7145 145.756C82.4039 145.756 82.1368 145.644 81.9134 145.42C81.6899 145.197 81.5781 144.93 81.5781 144.619C81.5781 144.309 81.6899 144.044 81.9134 143.824C82.1368 143.6 82.4039 143.489 82.7145 143.489C83.0251 143.489 83.2921 143.6 83.5156 143.824C83.7391 144.044 83.8509 144.309 83.8509 144.619C83.8509 144.828 83.7978 145.019 83.6918 145.193C83.5895 145.364 83.4531 145.5 83.2827 145.602C83.1122 145.705 82.9228 145.756 82.7145 145.756Z" fill="white"/>
<path d="M149.756 146.182C149.756 144.818 149.928 143.53 150.273 142.318C150.617 141.106 151.112 139.97 151.756 138.909H152.676C152.4 139.356 152.146 139.862 151.915 140.426C151.688 140.991 151.491 141.593 151.324 142.233C151.157 142.873 151.028 143.528 150.938 144.199C150.847 144.866 150.801 145.527 150.801 146.182C150.801 147.057 150.881 147.939 151.04 148.83C151.199 149.72 151.419 150.564 151.699 151.364C151.983 152.163 152.309 152.86 152.676 153.455H151.756C151.112 152.39 150.617 151.252 150.273 150.04C149.928 148.828 149.756 147.542 149.756 146.182ZM158.274 149.795V142.597H159.246V149.795H158.274ZM155.161 146.682V145.71H162.359V146.682H155.161ZM168.861 152.159C168.118 152.159 167.457 152.019 166.878 151.739C166.298 151.458 165.844 151.076 165.514 150.591C165.185 150.102 165.02 149.551 165.02 148.938C165.02 148.456 165.12 148.008 165.321 147.591C165.522 147.17 165.798 146.818 166.151 146.534C166.503 146.246 166.899 146.059 167.338 145.972V145.909C166.766 145.742 166.306 145.415 165.957 144.926C165.609 144.434 165.437 143.875 165.44 143.25C165.437 142.67 165.584 142.152 165.884 141.693C166.183 141.235 166.59 140.873 167.105 140.608C167.624 140.339 168.209 140.205 168.861 140.205C169.509 140.205 170.09 140.339 170.605 140.608C171.12 140.873 171.527 141.235 171.827 141.693C172.13 142.152 172.283 142.67 172.287 143.25C172.283 143.871 172.107 144.43 171.759 144.926C171.41 145.419 170.952 145.746 170.384 145.909V145.972C170.823 146.055 171.217 146.241 171.565 146.528C171.914 146.816 172.19 147.17 172.395 147.591C172.599 148.008 172.702 148.456 172.702 148.938C172.702 149.551 172.535 150.102 172.202 150.591C171.872 151.076 171.418 151.458 170.838 151.739C170.262 152.019 169.603 152.159 168.861 152.159ZM168.861 151.205C169.414 151.205 169.899 151.106 170.315 150.909C170.736 150.708 171.063 150.434 171.298 150.085C171.537 149.737 171.656 149.337 171.656 148.886C171.656 148.42 171.533 148.006 171.287 147.642C171.041 147.275 170.707 146.985 170.287 146.773C169.866 146.557 169.391 146.449 168.861 146.449C168.33 146.449 167.853 146.557 167.429 146.773C167.009 146.985 166.675 147.275 166.429 147.642C166.187 148.006 166.065 148.42 166.065 148.886C166.065 149.337 166.181 149.737 166.412 150.085C166.647 150.434 166.974 150.708 167.395 150.909C167.819 151.106 168.308 151.205 168.861 151.205ZM168.861 145.54C169.315 145.54 169.723 145.443 170.082 145.25C170.442 145.057 170.726 144.794 170.935 144.46C171.147 144.123 171.255 143.741 171.259 143.312C171.255 142.888 171.149 142.513 170.94 142.188C170.732 141.858 170.448 141.602 170.088 141.42C169.732 141.235 169.323 141.142 168.861 141.142C168.399 141.142 167.986 141.235 167.622 141.42C167.262 141.602 166.978 141.858 166.77 142.188C166.565 142.513 166.465 142.888 166.469 143.312C166.465 143.741 166.567 144.123 166.776 144.46C166.988 144.794 167.274 145.057 167.634 145.25C167.997 145.443 168.406 145.54 168.861 145.54ZM174.783 149.5V148.636L179.97 140.364H180.607V141.812H180.135L175.97 148.472V148.545H182.771V149.5H174.783ZM180.214 152V149.227V148.83V140.364H181.226V152H180.214ZM187.571 146.182C187.571 147.545 187.399 148.833 187.054 150.045C186.709 151.258 186.215 152.394 185.571 153.455H184.651C184.927 153.008 185.179 152.502 185.406 151.938C185.637 151.373 185.836 150.771 186.003 150.131C186.17 149.491 186.298 148.835 186.389 148.165C186.48 147.494 186.526 146.833 186.526 146.182C186.526 145.307 186.446 144.424 186.287 143.534C186.128 142.644 185.906 141.799 185.622 141C185.342 140.201 185.018 139.504 184.651 138.909H185.571C186.215 139.973 186.709 141.112 187.054 142.324C187.399 143.536 187.571 144.822 187.571 146.182ZM195.124 152V151.222L198.925 146.949C199.421 146.388 199.821 145.909 200.124 145.511C200.427 145.114 200.646 144.746 200.783 144.409C200.923 144.072 200.993 143.722 200.993 143.358C200.993 142.915 200.889 142.528 200.68 142.199C200.476 141.866 200.194 141.606 199.834 141.42C199.474 141.235 199.069 141.142 198.618 141.142C198.141 141.142 197.722 141.244 197.362 141.449C197.006 141.653 196.73 141.934 196.533 142.29C196.336 142.646 196.237 143.055 196.237 143.517H195.22C195.22 142.873 195.368 142.303 195.663 141.807C195.963 141.307 196.37 140.915 196.885 140.631C197.404 140.347 197.991 140.205 198.646 140.205C199.294 140.205 199.87 140.345 200.374 140.625C200.877 140.902 201.273 141.278 201.561 141.756C201.849 142.233 201.993 142.767 201.993 143.358C201.993 143.786 201.917 144.201 201.766 144.602C201.618 145.004 201.362 145.451 200.999 145.943C200.635 146.436 200.131 147.038 199.487 147.75L196.601 150.972V151.045H202.357V152H195.124ZM205.224 152L210.526 141.392V141.318H204.418V140.364H211.639V141.364L206.344 152H205.224ZM214.553 152L219.854 141.392V141.318H213.746V140.364H220.967V141.364L215.672 152H214.553ZM231.511 152.159C230.795 152.159 230.155 152.03 229.591 151.773C229.027 151.511 228.58 151.15 228.25 150.688C227.92 150.225 227.746 149.693 227.727 149.091H228.801C228.82 149.515 228.951 149.886 229.193 150.205C229.436 150.519 229.758 150.765 230.159 150.943C230.561 151.117 231.008 151.205 231.5 151.205C232.038 151.205 232.511 151.104 232.92 150.903C233.333 150.703 233.655 150.428 233.886 150.08C234.121 149.727 234.239 149.33 234.239 148.886C234.239 148.417 234.119 148.002 233.881 147.642C233.642 147.282 233.299 147.002 232.852 146.801C232.409 146.6 231.879 146.5 231.261 146.5H230.58V145.545H231.261C231.765 145.545 232.21 145.455 232.597 145.273C232.987 145.087 233.294 144.828 233.517 144.494C233.741 144.161 233.852 143.769 233.852 143.318C233.852 142.89 233.756 142.513 233.562 142.188C233.369 141.862 233.097 141.606 232.744 141.42C232.396 141.235 231.989 141.142 231.523 141.142C231.072 141.142 230.659 141.229 230.284 141.403C229.909 141.578 229.606 141.824 229.375 142.142C229.148 142.46 229.027 142.837 229.011 143.273H227.983C227.998 142.667 228.165 142.134 228.483 141.676C228.805 141.214 229.231 140.854 229.761 140.597C230.295 140.335 230.886 140.205 231.534 140.205C232.22 140.205 232.812 140.345 233.312 140.625C233.812 140.905 234.199 141.278 234.472 141.744C234.748 142.206 234.886 142.716 234.886 143.273C234.886 143.936 234.706 144.504 234.347 144.977C233.987 145.447 233.502 145.773 232.892 145.955V146.028C233.634 146.176 234.218 146.506 234.642 147.017C235.07 147.525 235.284 148.148 235.284 148.886C235.284 149.508 235.121 150.066 234.795 150.562C234.47 151.055 234.023 151.445 233.455 151.733C232.89 152.017 232.242 152.159 231.511 152.159ZM241.392 152.159C240.65 152.159 239.989 152.019 239.409 151.739C238.83 151.458 238.375 151.076 238.045 150.591C237.716 150.102 237.551 149.551 237.551 148.938C237.551 148.456 237.652 148.008 237.852 147.591C238.053 147.17 238.33 146.818 238.682 146.534C239.034 146.246 239.43 146.059 239.869 145.972V145.909C239.297 145.742 238.837 145.415 238.489 144.926C238.14 144.434 237.968 143.875 237.972 143.25C237.968 142.67 238.116 142.152 238.415 141.693C238.714 141.235 239.121 140.873 239.636 140.608C240.155 140.339 240.741 140.205 241.392 140.205C242.04 140.205 242.621 140.339 243.136 140.608C243.652 140.873 244.059 141.235 244.358 141.693C244.661 142.152 244.814 142.67 244.818 143.25C244.814 143.871 244.638 144.43 244.29 144.926C243.941 145.419 243.483 145.746 242.915 145.909V145.972C243.354 146.055 243.748 146.241 244.097 146.528C244.445 146.816 244.722 147.17 244.926 147.591C245.131 148.008 245.233 148.456 245.233 148.938C245.233 149.551 245.066 150.102 244.733 150.591C244.403 151.076 243.949 151.458 243.369 151.739C242.794 152.019 242.134 152.159 241.392 152.159ZM241.392 151.205C241.945 151.205 242.43 151.106 242.847 150.909C243.267 150.708 243.595 150.434 243.83 150.085C244.068 149.737 244.188 149.337 244.188 148.886C244.188 148.42 244.064 148.006 243.818 147.642C243.572 147.275 243.239 146.985 242.818 146.773C242.398 146.557 241.922 146.449 241.392 146.449C240.862 146.449 240.384 146.557 239.96 146.773C239.54 146.985 239.206 147.275 238.96 147.642C238.718 148.006 238.597 148.42 238.597 148.886C238.597 149.337 238.712 149.737 238.943 150.085C239.178 150.434 239.506 150.708 239.926 150.909C240.35 151.106 240.839 151.205 241.392 151.205ZM241.392 145.54C241.847 145.54 242.254 145.443 242.614 145.25C242.973 145.057 243.258 144.794 243.466 144.46C243.678 144.123 243.786 143.741 243.79 143.312C243.786 142.888 243.68 142.513 243.472 142.188C243.263 141.858 242.979 141.602 242.619 141.42C242.263 141.235 241.854 141.142 241.392 141.142C240.93 141.142 240.517 141.235 240.153 141.42C239.794 141.602 239.509 141.858 239.301 142.188C239.097 142.513 238.996 142.888 239 143.312C238.996 143.741 239.098 144.123 239.307 144.46C239.519 144.794 239.805 145.057 240.165 145.25C240.528 145.443 240.938 145.54 241.392 145.54ZM250.996 152.159C250.348 152.159 249.768 152.028 249.257 151.767C248.75 151.502 248.344 151.138 248.041 150.676C247.742 150.214 247.583 149.686 247.564 149.091H248.592C248.626 149.708 248.869 150.216 249.32 150.614C249.77 151.008 250.329 151.205 250.996 151.205C251.515 151.205 251.977 151.081 252.382 150.835C252.787 150.585 253.104 150.244 253.331 149.812C253.562 149.377 253.678 148.886 253.678 148.341C253.674 147.773 253.551 147.273 253.308 146.841C253.066 146.405 252.736 146.064 252.32 145.818C251.907 145.572 251.443 145.449 250.928 145.449C250.537 145.445 250.155 145.509 249.78 145.642C249.405 145.775 249.092 145.945 248.842 146.153L247.78 146.017L248.479 140.364H254.229V141.318H249.371L248.905 145.21H248.962C249.219 144.994 249.532 144.818 249.899 144.682C250.27 144.545 250.662 144.477 251.075 144.477C251.761 144.477 252.376 144.642 252.922 144.972C253.471 145.301 253.905 145.756 254.223 146.335C254.545 146.911 254.706 147.574 254.706 148.324C254.706 149.059 254.545 149.716 254.223 150.295C253.905 150.871 253.465 151.326 252.905 151.659C252.348 151.992 251.712 152.159 250.996 152.159ZM260.714 140.364V152H259.652V141.477H259.584L256.857 143.29V142.188L259.607 140.364H260.714ZM267.749 140.205C268.233 140.208 268.703 140.307 269.158 140.5C269.616 140.689 270.029 140.996 270.396 141.42C270.764 141.841 271.055 142.402 271.271 143.102C271.487 143.799 271.595 144.657 271.595 145.676C271.595 146.627 271.512 147.498 271.345 148.29C271.179 149.081 270.929 149.767 270.595 150.347C270.266 150.922 269.849 151.369 269.345 151.688C268.845 152.002 268.26 152.159 267.589 152.159C266.964 152.159 266.41 152.028 265.925 151.767C265.444 151.506 265.054 151.144 264.754 150.682C264.455 150.216 264.269 149.678 264.197 149.068H265.243C265.345 149.689 265.595 150.201 265.993 150.602C266.394 151.004 266.927 151.205 267.589 151.205C268.54 151.205 269.279 150.761 269.805 149.875C270.332 148.989 270.595 147.727 270.595 146.091H270.521C270.339 146.432 270.101 146.729 269.805 146.983C269.514 147.237 269.18 147.436 268.805 147.58C268.43 147.72 268.035 147.79 267.618 147.79C266.97 147.79 266.377 147.627 265.839 147.301C265.302 146.972 264.872 146.523 264.55 145.955C264.228 145.383 264.067 144.731 264.067 144C264.067 143.311 264.218 142.678 264.521 142.102C264.828 141.523 265.256 141.061 265.805 140.716C266.358 140.367 267.006 140.197 267.749 140.205ZM267.749 141.159C267.245 141.159 266.792 141.288 266.391 141.545C265.993 141.799 265.677 142.142 265.442 142.574C265.211 143.002 265.095 143.477 265.095 144C265.095 144.527 265.211 145.006 265.442 145.438C265.677 145.866 265.993 146.206 266.391 146.46C266.792 146.71 267.245 146.835 267.749 146.835C268.135 146.835 268.495 146.758 268.828 146.602C269.161 146.443 269.449 146.227 269.692 145.955C269.938 145.682 270.124 145.373 270.249 145.028C270.377 144.68 270.429 144.314 270.402 143.932C270.357 143.402 270.214 142.928 269.976 142.511C269.741 142.091 269.43 141.761 269.044 141.523C268.661 141.28 268.23 141.159 267.749 141.159ZM273.72 149.5V148.636L278.908 140.364H279.544V141.812H279.072L274.908 148.472V148.545H281.709V149.5H273.72ZM279.152 152V149.227V148.83V140.364H280.163V152H279.152ZM287.449 140.364V152H286.386V141.477H286.318L283.591 143.29V142.188L286.341 140.364H287.449Z" fill="white"/>
<path d="M33.2784 187V175.364H35.0341V180.42H40.8352V175.364H42.5966V187H40.8352V181.926H35.0341V187H33.2784ZM48.6932 187.176C47.875 187.176 47.161 186.989 46.5511 186.614C45.9413 186.239 45.4678 185.714 45.1307 185.04C44.7936 184.366 44.625 183.578 44.625 182.676C44.625 181.771 44.7936 180.979 45.1307 180.301C45.4678 179.623 45.9413 179.097 46.5511 178.722C47.161 178.347 47.875 178.159 48.6932 178.159C49.5114 178.159 50.2254 178.347 50.8352 178.722C51.4451 179.097 51.9186 179.623 52.2557 180.301C52.5928 180.979 52.7614 181.771 52.7614 182.676C52.7614 183.578 52.5928 184.366 52.2557 185.04C51.9186 185.714 51.4451 186.239 50.8352 186.614C50.2254 186.989 49.5114 187.176 48.6932 187.176ZM48.6989 185.75C49.2292 185.75 49.6686 185.61 50.017 185.33C50.3655 185.049 50.6231 184.676 50.7898 184.21C50.9602 183.744 51.0455 183.231 51.0455 182.67C51.0455 182.114 50.9602 181.602 50.7898 181.136C50.6231 180.667 50.3655 180.29 50.017 180.006C49.6686 179.722 49.2292 179.58 48.6989 179.58C48.1648 179.58 47.7216 179.722 47.3693 180.006C47.0208 180.29 46.7614 180.667 46.5909 181.136C46.4242 181.602 46.3409 182.114 46.3409 182.67C46.3409 183.231 46.4242 183.744 46.5909 184.21C46.7614 184.676 47.0208 185.049 47.3693 185.33C47.7216 185.61 48.1648 185.75 48.6989 185.75ZM58.7315 178.273V179.636H53.9645V178.273H58.7315ZM55.2429 176.182H56.9418V184.438C56.9418 184.767 56.991 185.015 57.0895 185.182C57.188 185.345 57.3149 185.456 57.4702 185.517C57.6293 185.574 57.8016 185.602 57.9872 185.602C58.1236 185.602 58.2429 185.593 58.3452 185.574C58.4474 185.555 58.527 185.54 58.5838 185.528L58.8906 186.932C58.7921 186.97 58.652 187.008 58.4702 187.045C58.2884 187.087 58.0611 187.11 57.7884 187.114C57.3414 187.121 56.9247 187.042 56.5384 186.875C56.152 186.708 55.8395 186.451 55.6009 186.102C55.3622 185.754 55.2429 185.316 55.2429 184.79V176.182ZM62.4972 175.364V187H60.7983V175.364H62.4972ZM64.7827 187V178.273H66.4815V187H64.7827ZM65.6406 176.926C65.3452 176.926 65.0914 176.828 64.8793 176.631C64.6709 176.43 64.5668 176.191 64.5668 175.915C64.5668 175.634 64.6709 175.396 64.8793 175.199C65.0914 174.998 65.3452 174.898 65.6406 174.898C65.9361 174.898 66.188 174.998 66.3963 175.199C66.6084 175.396 66.7145 175.634 66.7145 175.915C66.7145 176.191 66.6084 176.43 66.3963 176.631C66.188 176.828 65.9361 176.926 65.6406 176.926ZM70.4659 181.818V187H68.767V178.273H70.3977V179.693H70.5057C70.7064 179.231 71.0208 178.86 71.4489 178.58C71.8807 178.299 72.4242 178.159 73.0795 178.159C73.6742 178.159 74.1951 178.284 74.642 178.534C75.089 178.78 75.4356 179.148 75.6818 179.636C75.928 180.125 76.0511 180.729 76.0511 181.449V187H74.3523V181.653C74.3523 181.021 74.1875 180.527 73.858 180.17C73.5284 179.811 73.0758 179.631 72.5 179.631C72.1061 179.631 71.7557 179.716 71.4489 179.886C71.1458 180.057 70.9053 180.307 70.7273 180.636C70.553 180.962 70.4659 181.356 70.4659 181.818ZM82.0909 187.176C81.2311 187.176 80.4905 186.992 79.8693 186.625C79.2519 186.254 78.7746 185.733 78.4375 185.062C78.1042 184.388 77.9375 183.598 77.9375 182.693C77.9375 181.799 78.1042 181.011 78.4375 180.33C78.7746 179.648 79.2443 179.116 79.8466 178.733C80.4527 178.35 81.161 178.159 81.9716 178.159C82.464 178.159 82.9413 178.241 83.4034 178.403C83.8655 178.566 84.2803 178.822 84.6477 179.17C85.0152 179.519 85.3049 179.972 85.517 180.528C85.7292 181.081 85.8352 181.754 85.8352 182.545V183.148H78.8977V181.875H84.1705C84.1705 181.428 84.0795 181.032 83.8977 180.688C83.7159 180.339 83.4602 180.064 83.1307 179.864C82.8049 179.663 82.4223 179.562 81.983 179.562C81.5057 179.562 81.089 179.68 80.733 179.915C80.3807 180.146 80.108 180.449 79.9148 180.824C79.7254 181.195 79.6307 181.598 79.6307 182.034V183.028C79.6307 183.612 79.733 184.108 79.9375 184.517C80.1458 184.926 80.4356 185.239 80.8068 185.455C81.178 185.667 81.6117 185.773 82.108 185.773C82.4299 185.773 82.7235 185.727 82.9886 185.636C83.2538 185.542 83.483 185.402 83.6761 185.216C83.8693 185.03 84.017 184.801 84.1193 184.528L85.7273 184.818C85.5985 185.292 85.3674 185.706 85.0341 186.062C84.7045 186.415 84.2898 186.689 83.7898 186.886C83.2936 187.08 82.7273 187.176 82.0909 187.176ZM88.8395 187.108C88.5289 187.108 88.2618 186.998 88.0384 186.778C87.8149 186.555 87.7031 186.286 87.7031 185.972C87.7031 185.661 87.8149 185.396 88.0384 185.176C88.2618 184.953 88.5289 184.841 88.8395 184.841C89.1501 184.841 89.4171 184.953 89.6406 185.176C89.8641 185.396 89.9759 185.661 89.9759 185.972C89.9759 186.18 89.9228 186.371 89.8168 186.545C89.7145 186.716 89.5781 186.852 89.4077 186.955C89.2372 187.057 89.0478 187.108 88.8395 187.108ZM88.8395 180.756C88.5289 180.756 88.2618 180.644 88.0384 180.42C87.8149 180.197 87.7031 179.93 87.7031 179.619C87.7031 179.309 87.8149 179.044 88.0384 178.824C88.2618 178.6 88.5289 178.489 88.8395 178.489C89.1501 178.489 89.4171 178.6 89.6406 178.824C89.8641 179.044 89.9759 179.309 89.9759 179.619C89.9759 179.828 89.9228 180.019 89.8168 180.193C89.7145 180.364 89.5781 180.5 89.4077 180.602C89.2372 180.705 89.0478 180.756 88.8395 180.756Z" fill="white"/>
<path d="M152.886 175.364V187H151.824V176.477H151.756L149.028 178.29V177.188L151.778 175.364H152.886ZM160.017 187.159C159.275 187.159 158.614 187.019 158.034 186.739C157.455 186.458 157 186.076 156.67 185.591C156.341 185.102 156.176 184.551 156.176 183.938C156.176 183.456 156.277 183.008 156.477 182.591C156.678 182.17 156.955 181.818 157.307 181.534C157.659 181.246 158.055 181.059 158.494 180.972V180.909C157.922 180.742 157.462 180.415 157.114 179.926C156.765 179.434 156.593 178.875 156.597 178.25C156.593 177.67 156.741 177.152 157.04 176.693C157.339 176.235 157.746 175.873 158.261 175.608C158.78 175.339 159.366 175.205 160.017 175.205C160.665 175.205 161.246 175.339 161.761 175.608C162.277 175.873 162.684 176.235 162.983 176.693C163.286 177.152 163.439 177.67 163.443 178.25C163.439 178.871 163.263 179.43 162.915 179.926C162.566 180.419 162.108 180.746 161.54 180.909V180.972C161.979 181.055 162.373 181.241 162.722 181.528C163.07 181.816 163.347 182.17 163.551 182.591C163.756 183.008 163.858 183.456 163.858 183.938C163.858 184.551 163.691 185.102 163.358 185.591C163.028 186.076 162.574 186.458 161.994 186.739C161.419 187.019 160.759 187.159 160.017 187.159ZM160.017 186.205C160.57 186.205 161.055 186.106 161.472 185.909C161.892 185.708 162.22 185.434 162.455 185.085C162.693 184.737 162.812 184.337 162.812 183.886C162.812 183.42 162.689 183.006 162.443 182.642C162.197 182.275 161.864 181.985 161.443 181.773C161.023 181.557 160.547 181.449 160.017 181.449C159.487 181.449 159.009 181.557 158.585 181.773C158.165 181.985 157.831 182.275 157.585 182.642C157.343 183.006 157.222 183.42 157.222 183.886C157.222 184.337 157.337 184.737 157.568 185.085C157.803 185.434 158.131 185.708 158.551 185.909C158.975 186.106 159.464 186.205 160.017 186.205ZM160.017 180.54C160.472 180.54 160.879 180.443 161.239 180.25C161.598 180.057 161.883 179.794 162.091 179.46C162.303 179.123 162.411 178.741 162.415 178.312C162.411 177.888 162.305 177.513 162.097 177.188C161.888 176.858 161.604 176.602 161.244 176.42C160.888 176.235 160.479 176.142 160.017 176.142C159.555 176.142 159.142 176.235 158.778 176.42C158.419 176.602 158.134 176.858 157.926 177.188C157.722 177.513 157.621 177.888 157.625 178.312C157.621 178.741 157.723 179.123 157.932 179.46C158.144 179.794 158.43 180.057 158.79 180.25C159.153 180.443 159.563 180.54 160.017 180.54ZM169.831 187.159C169.013 187.159 168.314 186.924 167.734 186.455C167.159 185.981 166.715 185.297 166.405 184.403C166.098 183.509 165.945 182.436 165.945 181.182C165.945 179.932 166.098 178.862 166.405 177.972C166.715 177.078 167.161 176.394 167.74 175.92C168.323 175.443 169.02 175.205 169.831 175.205C170.642 175.205 171.337 175.443 171.916 175.92C172.5 176.394 172.945 177.078 173.251 177.972C173.562 178.862 173.717 179.932 173.717 181.182C173.717 182.436 173.562 183.509 173.251 184.403C172.945 185.297 172.501 185.981 171.922 186.455C171.346 186.924 170.649 187.159 169.831 187.159ZM169.831 186.205C170.729 186.205 171.429 185.767 171.933 184.892C172.437 184.013 172.689 182.777 172.689 181.182C172.689 180.121 172.573 179.216 172.342 178.466C172.115 177.712 171.787 177.136 171.359 176.739C170.935 176.341 170.426 176.142 169.831 176.142C168.941 176.142 168.242 176.585 167.734 177.472C167.227 178.354 166.973 179.591 166.973 181.182C166.973 182.242 167.087 183.148 167.314 183.898C167.545 184.648 167.873 185.22 168.297 185.614C168.725 186.008 169.236 186.205 169.831 186.205ZM179.643 187.159C178.825 187.159 178.126 186.924 177.547 186.455C176.971 185.981 176.528 185.297 176.217 184.403C175.911 183.509 175.757 182.436 175.757 181.182C175.757 179.932 175.911 178.862 176.217 177.972C176.528 177.078 176.973 176.394 177.553 175.92C178.136 175.443 178.833 175.205 179.643 175.205C180.454 175.205 181.149 175.443 181.729 175.92C182.312 176.394 182.757 177.078 183.064 177.972C183.375 178.862 183.53 179.932 183.53 181.182C183.53 182.436 183.375 183.509 183.064 184.403C182.757 185.297 182.314 185.981 181.734 186.455C181.159 186.924 180.462 187.159 179.643 187.159ZM179.643 186.205C180.541 186.205 181.242 185.767 181.746 184.892C182.25 184.013 182.501 182.777 182.501 181.182C182.501 180.121 182.386 179.216 182.155 178.466C181.928 177.712 181.6 177.136 181.172 176.739C180.748 176.341 180.238 176.142 179.643 176.142C178.753 176.142 178.054 176.585 177.547 177.472C177.039 178.354 176.786 179.591 176.786 181.182C176.786 182.242 176.899 183.148 177.126 183.898C177.357 184.648 177.685 185.22 178.109 185.614C178.537 186.008 179.049 186.205 179.643 186.205ZM193.746 187.159C193.098 187.159 192.518 187.028 192.007 186.767C191.5 186.502 191.094 186.138 190.791 185.676C190.492 185.214 190.333 184.686 190.314 184.091H191.342C191.376 184.708 191.619 185.216 192.07 185.614C192.52 186.008 193.079 186.205 193.746 186.205C194.265 186.205 194.727 186.081 195.132 185.835C195.537 185.585 195.854 185.244 196.081 184.812C196.312 184.377 196.428 183.886 196.428 183.341C196.424 182.773 196.301 182.273 196.058 181.841C195.816 181.405 195.486 181.064 195.07 180.818C194.657 180.572 194.193 180.449 193.678 180.449C193.287 180.445 192.905 180.509 192.53 180.642C192.155 180.775 191.842 180.945 191.592 181.153L190.53 181.017L191.229 175.364H196.979V176.318H192.121L191.655 180.21H191.712C191.969 179.994 192.282 179.818 192.649 179.682C193.02 179.545 193.412 179.477 193.825 179.477C194.511 179.477 195.126 179.642 195.672 179.972C196.221 180.301 196.655 180.756 196.973 181.335C197.295 181.911 197.456 182.574 197.456 183.324C197.456 184.059 197.295 184.716 196.973 185.295C196.655 185.871 196.215 186.326 195.655 186.659C195.098 186.992 194.462 187.159 193.746 187.159ZM203.277 187.159C202.629 187.159 202.05 187.028 201.538 186.767C201.031 186.502 200.625 186.138 200.322 185.676C200.023 185.214 199.864 184.686 199.845 184.091H200.874C200.908 184.708 201.15 185.216 201.601 185.614C202.052 186.008 202.61 186.205 203.277 186.205C203.796 186.205 204.258 186.081 204.663 185.835C205.069 185.585 205.385 185.244 205.612 184.812C205.843 184.377 205.959 183.886 205.959 183.341C205.955 182.773 205.832 182.273 205.589 181.841C205.347 181.405 205.018 181.064 204.601 180.818C204.188 180.572 203.724 180.449 203.209 180.449C202.819 180.445 202.436 180.509 202.061 180.642C201.686 180.775 201.374 180.945 201.124 181.153L200.061 181.017L200.76 175.364H206.51V176.318H201.652L201.186 180.21H201.243C201.5 179.994 201.813 179.818 202.18 179.682C202.552 179.545 202.944 179.477 203.357 179.477C204.042 179.477 204.658 179.642 205.203 179.972C205.752 180.301 206.186 180.756 206.504 181.335C206.826 181.911 206.987 182.574 206.987 183.324C206.987 184.059 206.826 184.716 206.504 185.295C206.186 185.871 205.747 186.326 205.186 186.659C204.629 186.992 203.993 187.159 203.277 187.159ZM212.808 187.159C212.161 187.159 211.581 187.028 211.07 186.767C210.562 186.502 210.157 186.138 209.854 185.676C209.554 185.214 209.395 184.686 209.376 184.091H210.405C210.439 184.708 210.681 185.216 211.132 185.614C211.583 186.008 212.142 186.205 212.808 186.205C213.327 186.205 213.789 186.081 214.195 185.835C214.6 185.585 214.916 185.244 215.143 184.812C215.375 184.377 215.49 183.886 215.49 183.341C215.486 182.773 215.363 182.273 215.121 181.841C214.878 181.405 214.549 181.064 214.132 180.818C213.719 180.572 213.255 180.449 212.74 180.449C212.35 180.445 211.967 180.509 211.592 180.642C211.217 180.775 210.905 180.945 210.655 181.153L209.592 181.017L210.291 175.364H216.041V176.318H211.183L210.717 180.21H210.774C211.032 179.994 211.344 179.818 211.712 179.682C212.083 179.545 212.475 179.477 212.888 179.477C213.573 179.477 214.189 179.642 214.734 179.972C215.284 180.301 215.717 180.756 216.036 181.335C216.357 181.911 216.518 182.574 216.518 183.324C216.518 184.059 216.357 184.716 216.036 185.295C215.717 185.871 215.278 186.326 214.717 186.659C214.161 186.992 213.524 187.159 212.808 187.159ZM222.339 187.159C221.692 187.159 221.112 187.028 220.601 186.767C220.093 186.502 219.688 186.138 219.385 185.676C219.086 185.214 218.927 184.686 218.908 184.091H219.936C219.97 184.708 220.213 185.216 220.663 185.614C221.114 186.008 221.673 186.205 222.339 186.205C222.858 186.205 223.321 186.081 223.726 185.835C224.131 185.585 224.447 185.244 224.675 184.812C224.906 184.377 225.021 183.886 225.021 183.341C225.018 182.773 224.894 182.273 224.652 181.841C224.41 181.405 224.08 181.064 223.663 180.818C223.25 180.572 222.786 180.449 222.271 180.449C221.881 180.445 221.499 180.509 221.124 180.642C220.749 180.775 220.436 180.945 220.186 181.153L219.124 181.017L219.822 175.364H225.572V176.318H220.714L220.249 180.21H220.305C220.563 179.994 220.875 179.818 221.243 179.682C221.614 179.545 222.006 179.477 222.419 179.477C223.105 179.477 223.72 179.642 224.266 179.972C224.815 180.301 225.249 180.756 225.567 181.335C225.889 181.911 226.05 182.574 226.05 183.324C226.05 184.059 225.889 184.716 225.567 185.295C225.249 185.871 224.809 186.326 224.249 186.659C223.692 186.992 223.055 187.159 222.339 187.159ZM236.746 187.159C236.03 187.159 235.39 187.03 234.825 186.773C234.261 186.511 233.814 186.15 233.484 185.688C233.155 185.225 232.981 184.693 232.962 184.091H234.036C234.054 184.515 234.185 184.886 234.428 185.205C234.67 185.519 234.992 185.765 235.393 185.943C235.795 186.117 236.242 186.205 236.734 186.205C237.272 186.205 237.746 186.104 238.155 185.903C238.568 185.703 238.89 185.428 239.121 185.08C239.356 184.727 239.473 184.33 239.473 183.886C239.473 183.417 239.354 183.002 239.115 182.642C238.876 182.282 238.534 182.002 238.087 181.801C237.643 181.6 237.113 181.5 236.496 181.5H235.814V180.545H236.496C237 180.545 237.445 180.455 237.831 180.273C238.221 180.087 238.528 179.828 238.751 179.494C238.975 179.161 239.087 178.769 239.087 178.318C239.087 177.89 238.99 177.513 238.797 177.188C238.604 176.862 238.331 176.606 237.979 176.42C237.63 176.235 237.223 176.142 236.757 176.142C236.306 176.142 235.893 176.229 235.518 176.403C235.143 176.578 234.84 176.824 234.609 177.142C234.382 177.46 234.261 177.837 234.246 178.273H233.217C233.232 177.667 233.399 177.134 233.717 176.676C234.039 176.214 234.465 175.854 234.996 175.597C235.53 175.335 236.121 175.205 236.768 175.205C237.454 175.205 238.047 175.345 238.547 175.625C239.047 175.905 239.433 176.278 239.706 176.744C239.982 177.206 240.121 177.716 240.121 178.273C240.121 178.936 239.941 179.504 239.581 179.977C239.221 180.447 238.736 180.773 238.126 180.955V181.028C238.869 181.176 239.452 181.506 239.876 182.017C240.304 182.525 240.518 183.148 240.518 183.886C240.518 184.508 240.356 185.066 240.03 185.562C239.704 186.055 239.257 186.445 238.689 186.733C238.125 187.017 237.477 187.159 236.746 187.159ZM246.433 187.159C245.786 187.159 245.206 187.028 244.695 186.767C244.187 186.502 243.782 186.138 243.479 185.676C243.179 185.214 243.02 184.686 243.001 184.091H244.03C244.064 184.708 244.306 185.216 244.757 185.614C245.208 186.008 245.767 186.205 246.433 186.205C246.952 186.205 247.414 186.081 247.82 185.835C248.225 185.585 248.541 185.244 248.768 184.812C249 184.377 249.115 183.886 249.115 183.341C249.111 182.773 248.988 182.273 248.746 181.841C248.503 181.405 248.174 181.064 247.757 180.818C247.344 180.572 246.88 180.449 246.365 180.449C245.975 180.445 245.592 180.509 245.217 180.642C244.842 180.775 244.53 180.945 244.28 181.153L243.217 181.017L243.916 175.364H249.666V176.318H244.808L244.342 180.21H244.399C244.657 179.994 244.969 179.818 245.337 179.682C245.708 179.545 246.1 179.477 246.513 179.477C247.198 179.477 247.814 179.642 248.359 179.972C248.909 180.301 249.342 180.756 249.661 181.335C249.982 181.911 250.143 182.574 250.143 183.324C250.143 184.059 249.982 184.716 249.661 185.295C249.342 185.871 248.903 186.326 248.342 186.659C247.786 186.992 247.149 187.159 246.433 187.159Z" fill="white"/>
<defs>
<linearGradient id="paint0_linear_158_783" x1="0" y1="146.5" x2="1296" y2="146.5" gradientUnits="userSpaceOnUse">
<stop stop-color="#00A93C"/>
<stop offset="1" stop-color="#24CBFF"/>
</linearGradient>
</defs>
</svg>
