<svg width="100%" viewBox="0 0 351 207" fill="none" xmlns="http://www.w3.org/2000/svg">
<path d="M15.75 8.654C15.63 9.758 15.24 10.736 14.58 11.588C13.932 12.428 13.08 13.082 12.024 13.55C10.968 14.018 9.762 14.252 8.406 14.252C6.894 14.252 5.568 13.958 4.428 13.37C3.288 12.782 2.4 11.966 1.764 10.922C1.128 9.866 0.81 8.642 0.81 7.25C0.81 5.858 1.128 4.64 1.764 3.596C2.4 2.54 3.288 1.718 4.428 1.13C5.568 0.541999 6.894 0.247999 8.406 0.247999C9.762 0.247999 10.968 0.481999 12.024 0.95C13.08 1.418 13.932 2.072 14.58 2.912C15.24 3.752 15.63 4.73 15.75 5.846H13.356C13.224 5.126 12.936 4.508 12.492 3.992C12.06 3.476 11.496 3.08 10.8 2.804C10.104 2.516 9.3 2.372 8.388 2.372C7.332 2.372 6.414 2.57 5.634 2.966C4.866 3.362 4.272 3.926 3.852 4.658C3.432 5.39 3.222 6.254 3.222 7.25C3.222 8.246 3.432 9.11 3.852 9.842C4.272 10.574 4.866 11.138 5.634 11.534C6.414 11.93 7.332 12.128 8.388 12.128C9.3 12.128 10.104 11.99 10.8 11.714C11.496 11.438 12.06 11.042 12.492 10.526C12.936 9.998 13.224 9.374 13.356 8.654H15.75ZM24.95 14.252C23.414 14.252 22.064 13.958 20.9 13.37C19.736 12.782 18.83 11.966 18.182 10.922C17.534 9.866 17.21 8.642 17.21 7.25C17.21 5.858 17.534 4.64 18.182 3.596C18.83 2.54 19.736 1.718 20.9 1.13C22.064 0.541999 23.414 0.247999 24.95 0.247999C26.486 0.247999 27.836 0.541999 29 1.13C30.164 1.718 31.07 2.54 31.718 3.596C32.366 4.64 32.69 5.858 32.69 7.25C32.69 8.642 32.366 9.866 31.718 10.922C31.07 11.966 30.164 12.782 29 13.37C27.836 13.958 26.486 14.252 24.95 14.252ZM24.95 12.128C26.042 12.128 26.984 11.93 27.776 11.534C28.568 11.138 29.18 10.574 29.612 9.842C30.056 9.11 30.278 8.246 30.278 7.25C30.278 6.254 30.056 5.39 29.612 4.658C29.18 3.926 28.568 3.362 27.776 2.966C26.984 2.57 26.042 2.372 24.95 2.372C23.87 2.372 22.928 2.57 22.124 2.966C21.332 3.362 20.714 3.926 20.27 4.658C19.838 5.39 19.622 6.254 19.622 7.25C19.622 8.246 19.838 9.11 20.27 9.842C20.714 10.574 21.332 11.138 22.124 11.534C22.928 11.93 23.87 12.128 24.95 12.128ZM47.5083 12.56L46.5363 12.668V0.499999H48.8403V14H45.8163L36.3483 1.832L37.3023 1.724V14H34.9983V0.499999H38.0943L47.5083 12.56ZM56.2118 1.598H58.5878V14H56.2118V1.598ZM50.6318 0.499999H64.1678V2.588H50.6318V0.499999ZM65.4155 10.904V8.942H74.8475V10.904H65.4155ZM71.6795 0.499999L78.1595 14H75.6215L69.7355 1.4H70.6535L64.7675 14H62.2295L68.7095 0.499999H71.6795ZM93.3047 8.654C93.1847 9.758 92.7947 10.736 92.1347 11.588C91.4867 12.428 90.6347 13.082 89.5787 13.55C88.5227 14.018 87.3167 14.252 85.9607 14.252C84.4487 14.252 83.1227 13.958 81.9827 13.37C80.8427 12.782 79.9547 11.966 79.3187 10.922C78.6827 9.866 78.3647 8.642 78.3647 7.25C78.3647 5.858 78.6827 4.64 79.3187 3.596C79.9547 2.54 80.8427 1.718 81.9827 1.13C83.1227 0.541999 84.4487 0.247999 85.9607 0.247999C87.3167 0.247999 88.5227 0.481999 89.5787 0.95C90.6347 1.418 91.4867 2.072 92.1347 2.912C92.7947 3.752 93.1847 4.73 93.3047 5.846H90.9107C90.7787 5.126 90.4907 4.508 90.0467 3.992C89.6147 3.476 89.0507 3.08 88.3547 2.804C87.6587 2.516 86.8547 2.372 85.9427 2.372C84.8867 2.372 83.9687 2.57 83.1887 2.966C82.4207 3.362 81.8267 3.926 81.4067 4.658C80.9867 5.39 80.7767 6.254 80.7767 7.25C80.7767 8.246 80.9867 9.11 81.4067 9.842C81.8267 10.574 82.4207 11.138 83.1887 11.534C83.9687 11.93 84.8867 12.128 85.9427 12.128C86.8547 12.128 87.6587 11.99 88.3547 11.714C89.0507 11.438 89.6147 11.042 90.0467 10.526C90.4907 9.998 90.7787 9.374 90.9107 8.654H93.3047ZM99.1903 1.598H101.566V14H99.1903V1.598ZM93.6103 0.499999H107.146V2.588H93.6103V0.499999Z" fill="#24CBFF"/>
<rect x="0.5" y="42.5" width="350" height="164" rx="19.5" stroke="url(#paint0_linear_158_783)"/>
<path d="M17.9787 80H16.348L20.0121 69.8182H21.7869L25.451 80H23.8203L20.9418 71.6676H20.8622L17.9787 80ZM18.2521 76.0128H23.5419V77.3054H18.2521V76.0128ZM29.5376 80.1491C28.9212 80.1491 28.371 79.9917 27.8871 79.6768C27.4065 79.3587 27.0286 78.9062 26.7536 78.3196C26.4818 77.7296 26.3459 77.022 26.3459 76.1967C26.3459 75.3714 26.4834 74.6655 26.7585 74.0788C27.0369 73.4922 27.4181 73.0431 27.902 72.7315C28.3859 72.42 28.9344 72.2642 29.5476 72.2642C30.0215 72.2642 30.4027 72.3438 30.6911 72.5028C30.9827 72.6586 31.2081 72.8409 31.3672 73.0497C31.5296 73.2585 31.6555 73.4425 31.745 73.6016H31.8345V69.8182H33.321V80H31.8693V78.8118H31.745C31.6555 78.9742 31.5263 79.1598 31.3572 79.3686C31.1915 79.5774 30.9628 79.7597 30.6712 79.9155C30.3795 80.0713 30.0017 80.1491 29.5376 80.1491ZM29.8658 78.8814C30.2933 78.8814 30.6546 78.7687 30.9496 78.5433C31.2479 78.3146 31.4732 77.9981 31.6257 77.5938C31.7815 77.1894 31.8594 76.7187 31.8594 76.1818C31.8594 75.6515 31.7831 75.1875 31.6307 74.7898C31.4782 74.392 31.2545 74.0821 30.9595 73.8601C30.6645 73.638 30.3 73.527 29.8658 73.527C29.4183 73.527 29.0455 73.643 28.7472 73.875C28.4489 74.107 28.2235 74.4235 28.071 74.8246C27.9219 75.2256 27.8473 75.678 27.8473 76.1818C27.8473 76.6922 27.9235 77.1513 28.076 77.5589C28.2285 77.9666 28.4538 78.2898 28.7521 78.5284C29.0537 78.7637 29.425 78.8814 29.8658 78.8814ZM38.3013 80.1491C37.6848 80.1491 37.1346 79.9917 36.6507 79.6768C36.1702 79.3587 35.7923 78.9062 35.5172 78.3196C35.2454 77.7296 35.1096 77.022 35.1096 76.1967C35.1096 75.3714 35.2471 74.6655 35.5222 74.0788C35.8006 73.4922 36.1818 73.0431 36.6657 72.7315C37.1496 72.42 37.6981 72.2642 38.3113 72.2642C38.7852 72.2642 39.1664 72.3438 39.4547 72.5028C39.7464 72.6586 39.9718 72.8409 40.1309 73.0497C40.2933 73.2585 40.4192 73.4425 40.5087 73.6016H40.5982V69.8182H42.0847V80H40.633V78.8118H40.5087C40.4192 78.9742 40.29 79.1598 40.1209 79.3686C39.9552 79.5774 39.7265 79.7597 39.4348 79.9155C39.1432 80.0713 38.7653 80.1491 38.3013 80.1491ZM38.6294 78.8814C39.057 78.8814 39.4183 78.7687 39.7132 78.5433C40.0115 78.3146 40.2369 77.9981 40.3894 77.5938C40.5452 77.1894 40.623 76.7187 40.623 76.1818C40.623 75.6515 40.5468 75.1875 40.3944 74.7898C40.2419 74.392 40.0182 74.0821 39.7232 73.8601C39.4282 73.638 39.0636 73.527 38.6294 73.527C38.182 73.527 37.8091 73.643 37.5108 73.875C37.2125 74.107 36.9872 74.4235 36.8347 74.8246C36.6855 75.2256 36.611 75.678 36.611 76.1818C36.611 76.6922 36.6872 77.1513 36.8397 77.5589C36.9921 77.9666 37.2175 78.2898 37.5158 78.5284C37.8174 78.7637 38.1886 78.8814 38.6294 78.8814ZM44.2063 80V72.3636H45.6431V73.5767H45.7227C45.8619 73.1657 46.1071 72.8426 46.4585 72.6072C46.8131 72.3686 47.2141 72.2493 47.6616 72.2493C47.7544 72.2493 47.8638 72.2526 47.9897 72.2592C48.119 72.2659 48.2201 72.2741 48.293 72.2841V73.706C48.2333 73.6894 48.1272 73.6712 47.9748 73.6513C47.8223 73.6281 47.6699 73.6165 47.5174 73.6165C47.1661 73.6165 46.8529 73.6911 46.5778 73.8402C46.306 73.986 46.0906 74.1899 45.9315 74.4517C45.7724 74.7102 45.6928 75.0052 45.6928 75.3366V80H44.2063ZM52.5971 80.1541C51.8448 80.1541 51.1968 79.9934 50.6532 79.6719C50.113 79.3471 49.6954 78.8913 49.4004 78.3047C49.1087 77.7147 48.9629 77.0237 48.9629 76.2315C48.9629 75.4493 49.1087 74.7599 49.4004 74.1634C49.6954 73.5668 50.1064 73.1011 50.6333 72.7663C51.1636 72.4316 51.7834 72.2642 52.4927 72.2642C52.9236 72.2642 53.3412 72.3355 53.7456 72.478C54.1499 72.6205 54.5128 72.8442 54.8343 73.1491C55.1558 73.4541 55.4094 73.8501 55.595 74.3374C55.7806 74.8213 55.8734 75.4096 55.8734 76.1023V76.6293H49.8031V75.5156H54.4167C54.4167 75.1245 54.3372 74.7782 54.1781 74.4766C54.019 74.1716 53.7953 73.9313 53.5069 73.7557C53.2219 73.58 52.8871 73.4922 52.5027 73.4922C52.085 73.4922 51.7205 73.5949 51.4089 73.8004C51.1007 74.0026 50.862 74.2678 50.693 74.5959C50.5273 74.9207 50.4444 75.2737 50.4444 75.6548V76.5249C50.4444 77.0353 50.5339 77.4695 50.7129 77.8274C50.8952 78.1854 51.1487 78.4588 51.4735 78.6477C51.7984 78.8333 52.1779 78.9261 52.612 78.9261C52.8938 78.9261 53.1506 78.8864 53.3826 78.8068C53.6146 78.724 53.8152 78.6013 53.9842 78.4389C54.1532 78.2765 54.2825 78.076 54.372 77.8374L55.7789 78.0909C55.6663 78.5052 55.4641 78.8681 55.1724 79.1797C54.8841 79.4879 54.5211 79.7282 54.0836 79.9006C53.6494 80.0696 53.1539 80.1541 52.5971 80.1541ZM63.245 74.228L61.8977 74.4666C61.8414 74.2943 61.7519 74.1302 61.6293 73.9744C61.5099 73.8187 61.3475 73.6911 61.142 73.5916C60.9366 73.4922 60.6797 73.4425 60.3714 73.4425C59.9505 73.4425 59.5992 73.5369 59.3175 73.7259C59.0357 73.9115 58.8949 74.1518 58.8949 74.4467C58.8949 74.7019 58.9893 74.9074 59.1783 75.0632C59.3672 75.219 59.6721 75.3466 60.093 75.446L61.3061 75.7244C62.0088 75.8868 62.5324 76.1371 62.8771 76.4751C63.2218 76.8132 63.3942 77.2524 63.3942 77.7926C63.3942 78.25 63.2616 78.6577 62.9964 79.0156C62.7346 79.3703 62.3684 79.6487 61.8977 79.8509C61.4304 80.053 60.8885 80.1541 60.272 80.1541C59.4169 80.1541 58.7192 79.9718 58.179 79.6072C57.6387 79.2393 57.3073 78.7173 57.1847 78.0412L58.6214 77.8224C58.7109 78.197 58.8949 78.4804 59.1733 78.6726C59.4517 78.8615 59.8146 78.956 60.2621 78.956C60.7493 78.956 61.1387 78.8549 61.4304 78.6527C61.7221 78.4472 61.8679 78.197 61.8679 77.902C61.8679 77.6634 61.7784 77.4628 61.5994 77.3004C61.4238 77.138 61.1536 77.0154 60.7891 76.9325L59.4964 76.6491C58.7839 76.4867 58.2569 76.2282 57.9155 75.8736C57.5774 75.5189 57.4084 75.0698 57.4084 74.5263C57.4084 74.0755 57.5343 73.6811 57.7862 73.343C58.0381 73.005 58.3861 72.7415 58.8303 72.5526C59.2744 72.3603 59.7831 72.2642 60.3565 72.2642C61.1818 72.2642 61.8314 72.4432 62.3054 72.8011C62.7794 73.1558 63.0926 73.6314 63.245 74.228ZM70.7509 74.228L69.4036 74.4666C69.3472 74.2943 69.2578 74.1302 69.1351 73.9744C69.0158 73.8187 68.8534 73.6911 68.6479 73.5916C68.4424 73.4922 68.1855 73.4425 67.8773 73.4425C67.4564 73.4425 67.1051 73.5369 66.8233 73.7259C66.5416 73.9115 66.4007 74.1518 66.4007 74.4467C66.4007 74.7019 66.4952 74.9074 66.6841 75.0632C66.873 75.219 67.178 75.3466 67.5989 75.446L68.812 75.7244C69.5146 75.8868 70.0383 76.1371 70.383 76.4751C70.7277 76.8132 70.9 77.2524 70.9 77.7926C70.9 78.25 70.7675 78.6577 70.5023 79.0156C70.2405 79.3703 69.8742 79.6487 69.4036 79.8509C68.9363 80.053 68.3944 80.1541 67.7779 80.1541C66.9228 80.1541 66.2251 79.9718 65.6848 79.6072C65.1446 79.2393 64.8132 78.7173 64.6905 78.0412L66.1273 77.8224C66.2168 78.197 66.4007 78.4804 66.6792 78.6726C66.9576 78.8615 67.3205 78.956 67.7679 78.956C68.2551 78.956 68.6446 78.8549 68.9363 78.6527C69.2279 78.4472 69.3738 78.197 69.3738 77.902C69.3738 77.6634 69.2843 77.4628 69.1053 77.3004C68.9296 77.138 68.6595 77.0154 68.2949 76.9325L67.0023 76.6491C66.2897 76.4867 65.7627 76.2282 65.4213 75.8736C65.0833 75.5189 64.9142 75.0698 64.9142 74.5263C64.9142 74.0755 65.0402 73.6811 65.2921 73.343C65.544 73.005 65.892 72.7415 66.3361 72.5526C66.7802 72.3603 67.289 72.2642 67.8624 72.2642C68.6877 72.2642 69.3373 72.4432 69.8113 72.8011C70.2852 73.1558 70.5984 73.6314 70.7509 74.228ZM73.5138 80.0945C73.2421 80.0945 73.0084 79.9983 72.8129 79.8061C72.6173 79.6106 72.5195 79.3752 72.5195 79.1001C72.5195 78.8284 72.6173 78.5964 72.8129 78.4041C73.0084 78.2086 73.2421 78.1108 73.5138 78.1108C73.7856 78.1108 74.0193 78.2086 74.2148 78.4041C74.4104 78.5964 74.5082 78.8284 74.5082 79.1001C74.5082 79.2824 74.4618 79.4498 74.369 79.6023C74.2795 79.7514 74.1602 79.8707 74.011 79.9602C73.8619 80.0497 73.6961 80.0945 73.5138 80.0945ZM73.5138 74.5362C73.2421 74.5362 73.0084 74.4384 72.8129 74.2429C72.6173 74.0473 72.5195 73.8137 72.5195 73.5419C72.5195 73.2701 72.6173 73.0381 72.8129 72.8459C73.0084 72.6503 73.2421 72.5526 73.5138 72.5526C73.7856 72.5526 74.0193 72.6503 74.2148 72.8459C74.4104 73.0381 74.5082 73.2701 74.5082 73.5419C74.5082 73.7242 74.4618 73.8916 74.369 74.044C74.2795 74.1932 74.1602 74.3125 74.011 74.402C73.8619 74.4915 73.6961 74.5362 73.5138 74.5362Z" fill="white"/>
<path d="M121.282 69.8182V80H120.377L114.362 71.4737H114.282V80H113.352V69.8182H114.252L120.288 78.3544H120.367V69.8182H121.282ZM128.657 77.0817V72.3636H129.542V80H128.657V78.7322H128.588C128.409 79.1233 128.125 79.4498 127.738 79.7116C127.35 79.9702 126.876 80.0994 126.316 80.0994C125.828 80.0994 125.396 79.9934 125.018 79.7812C124.64 79.5658 124.344 79.2509 124.128 78.8366C123.913 78.4223 123.805 77.9136 123.805 77.3104V72.3636H124.69V77.2557C124.69 77.8523 124.866 78.3329 125.217 78.6974C125.568 79.0587 126.019 79.2393 126.569 79.2393C126.914 79.2393 127.245 79.1565 127.564 78.9908C127.882 78.825 128.144 78.5831 128.349 78.2649C128.555 77.9434 128.657 77.549 128.657 77.0817ZM131.885 80V72.3636H132.745V73.5369H132.825C132.977 73.1425 133.231 72.8326 133.585 72.6072C133.943 72.3786 134.373 72.2642 134.873 72.2642C135.4 72.2642 135.833 72.3885 136.171 72.6371C136.512 72.8823 136.767 73.2204 136.936 73.6513H137.001C137.173 73.227 137.453 72.8906 137.841 72.642C138.232 72.3902 138.706 72.2642 139.263 72.2642C139.972 72.2642 140.532 72.4879 140.943 72.9354C141.354 73.3795 141.56 74.0291 141.56 74.8842V80H140.675V74.8842C140.675 74.281 140.521 73.8286 140.213 73.527C139.904 73.2254 139.498 73.0746 138.994 73.0746C138.411 73.0746 137.962 73.2536 137.647 73.6115C137.332 73.9695 137.175 74.4235 137.175 74.9737V80H136.27V74.8047C136.27 74.2876 136.126 73.87 135.838 73.5518C135.549 73.2337 135.143 73.0746 134.619 73.0746C134.268 73.0746 133.952 73.1607 133.67 73.3331C133.392 73.5054 133.171 73.7457 133.009 74.054C132.85 74.3589 132.77 74.7102 132.77 75.108V80H131.885ZM144.087 80V69.8182H144.977V73.8203H145.056C145.156 73.5916 145.298 73.3563 145.484 73.1143C145.673 72.8724 145.92 72.6702 146.224 72.5078C146.533 72.3421 146.92 72.2592 147.388 72.2592C148.014 72.2592 148.564 72.425 149.038 72.7564C149.512 73.0845 149.882 73.5452 150.147 74.1385C150.412 74.7285 150.545 75.4162 150.545 76.2017C150.545 76.9905 150.412 77.6816 150.147 78.2749C149.885 78.8681 149.517 79.3305 149.043 79.6619C148.573 79.9934 148.026 80.1591 147.403 80.1591C146.939 80.1591 146.551 80.0762 146.239 79.9105C145.931 79.7448 145.683 79.541 145.494 79.299C145.305 79.0537 145.159 78.8151 145.056 78.5831H144.947V80H144.087ZM144.962 76.1868C144.962 76.8033 145.053 77.3501 145.235 77.8274C145.421 78.3014 145.686 78.6742 146.031 78.946C146.379 79.2145 146.799 79.3487 147.293 79.3487C147.8 79.3487 148.23 79.2095 148.581 78.9311C148.932 78.6494 149.199 78.2699 149.381 77.7926C149.564 77.3153 149.655 76.7801 149.655 76.1868C149.655 75.6001 149.564 75.0715 149.381 74.6009C149.202 74.1302 148.937 73.7573 148.586 73.4822C148.235 73.2038 147.804 73.0646 147.293 73.0646C146.796 73.0646 146.374 73.1989 146.026 73.4673C145.681 73.7325 145.417 74.1004 145.235 74.571C145.053 75.0384 144.962 75.5769 144.962 76.1868ZM155.576 80.1591C154.863 80.1591 154.247 79.9934 153.727 79.6619C153.206 79.3272 152.804 78.8648 152.518 78.2749C152.237 77.6816 152.096 76.9988 152.096 76.2266C152.096 75.4576 152.237 74.7749 152.518 74.1783C152.804 73.5784 153.196 73.1094 153.697 72.7713C154.201 72.4299 154.782 72.2592 155.442 72.2592C155.856 72.2592 156.255 72.3355 156.64 72.4879C157.024 72.6371 157.369 72.8674 157.674 73.179C157.982 73.4872 158.226 73.8767 158.405 74.3473C158.584 74.8146 158.673 75.3681 158.673 76.0078V76.4453H152.707V75.6648H157.768C157.768 75.1742 157.669 74.7334 157.47 74.3423C157.275 73.9479 157.001 73.6364 156.65 73.4077C156.302 73.179 155.899 73.0646 155.442 73.0646C154.958 73.0646 154.532 73.1939 154.164 73.4524C153.796 73.7109 153.508 74.0523 153.299 74.4766C153.094 74.9008 152.989 75.3648 152.986 75.8686V76.3359C152.986 76.9425 153.09 77.4728 153.299 77.9268C153.511 78.3776 153.811 78.7273 154.199 78.9759C154.587 79.2244 155.046 79.3487 155.576 79.3487C155.937 79.3487 156.254 79.2924 156.526 79.1797C156.801 79.067 157.031 78.9162 157.217 78.7273C157.406 78.535 157.548 78.3246 157.644 78.0959L158.484 78.3693C158.368 78.6908 158.178 78.9875 157.913 79.2592C157.651 79.531 157.323 79.7498 156.928 79.9155C156.537 80.0779 156.086 80.1591 155.576 80.1591ZM160.623 80V72.3636H161.483V73.5369H161.548C161.701 73.1525 161.966 72.8426 162.344 72.6072C162.725 72.3686 163.156 72.2493 163.636 72.2493C163.709 72.2493 163.79 72.2509 163.88 72.2543C163.969 72.2576 164.044 72.2609 164.104 72.2642V73.1641C164.064 73.1574 163.994 73.1475 163.895 73.1342C163.795 73.121 163.688 73.1143 163.572 73.1143C163.174 73.1143 162.819 73.1989 162.508 73.3679C162.199 73.5336 161.956 73.764 161.777 74.0589C161.598 74.3539 161.508 74.6903 161.508 75.0682V80H160.623ZM169.273 77.8125V77.0568L173.812 69.8182H174.369V71.0859H173.956L170.312 76.9126V76.9773H176.263V77.8125H169.273ZM174.026 80V77.5739V77.2259V69.8182H174.911V80H174.026ZM179.308 78.608L179.218 79.1399C179.162 79.4979 179.083 79.8923 178.98 80.3232C178.877 80.754 178.771 81.1634 178.662 81.5511C178.552 81.9389 178.458 82.2505 178.378 82.4858H177.697C177.74 82.2604 177.795 81.9737 177.861 81.6257C177.931 81.2777 178.002 80.8916 178.075 80.4673C178.148 80.0464 178.214 79.6122 178.274 79.1648L178.343 78.608H179.308ZM188.86 80.1392C188.233 80.1392 187.673 80.0265 187.179 79.8011C186.685 79.5724 186.294 79.2559 186.006 78.8516C185.718 78.4472 185.565 77.9815 185.548 77.4545H186.488C186.505 77.8258 186.619 78.1506 186.831 78.429C187.043 78.7041 187.325 78.9195 187.676 79.0753C188.028 79.2277 188.419 79.304 188.85 79.304C189.32 79.304 189.735 79.2161 190.093 79.0405C190.454 78.8648 190.735 78.6245 190.938 78.3196C191.143 78.0114 191.246 77.6634 191.246 77.2756C191.246 76.8646 191.142 76.5017 190.933 76.1868C190.724 75.8719 190.424 75.6267 190.033 75.451C189.645 75.2753 189.181 75.1875 188.641 75.1875H188.044V74.3523H188.641C189.082 74.3523 189.471 74.2727 189.809 74.1136C190.151 73.9512 190.419 73.7242 190.615 73.4325C190.81 73.1409 190.908 72.7978 190.908 72.4034C190.908 72.0289 190.823 71.6991 190.654 71.4141C190.485 71.129 190.247 70.9053 189.938 70.7429C189.633 70.5805 189.277 70.4993 188.869 70.4993C188.475 70.4993 188.114 70.5755 187.786 70.728C187.458 70.8804 187.192 71.0959 186.99 71.3743C186.791 71.6527 186.685 71.9825 186.672 72.3636H185.772C185.785 71.8333 185.931 71.3677 186.21 70.9666C186.491 70.5623 186.864 70.2474 187.328 70.022C187.796 69.7933 188.313 69.679 188.879 69.679C189.479 69.679 189.998 69.8016 190.436 70.0469C190.873 70.2921 191.211 70.6186 191.45 71.0263C191.692 71.4306 191.813 71.8764 191.813 72.3636C191.813 72.9437 191.655 73.4408 191.34 73.8551C191.026 74.2661 190.601 74.5511 190.068 74.7102V74.7749C190.717 74.9041 191.228 75.1925 191.599 75.6399C191.973 76.084 192.161 76.6293 192.161 77.2756C192.161 77.8191 192.018 78.308 191.733 78.7422C191.448 79.1731 191.057 79.5144 190.56 79.7663C190.066 80.0149 189.499 80.1392 188.86 80.1392ZM197.52 80.1392C196.804 80.1392 196.193 79.9337 195.686 79.5227C195.182 79.1084 194.794 78.5102 194.522 77.728C194.254 76.9458 194.119 76.0062 194.119 74.9091C194.119 73.8153 194.254 72.879 194.522 72.1001C194.794 71.3179 195.183 70.7197 195.691 70.3054C196.201 69.8878 196.811 69.679 197.52 69.679C198.229 69.679 198.838 69.8878 199.345 70.3054C199.855 70.7197 200.244 71.3179 200.513 72.1001C200.785 72.879 200.921 73.8153 200.921 74.9091C200.921 76.0062 200.785 76.9458 200.513 77.728C200.244 78.5102 199.857 79.1084 199.35 79.5227C198.846 79.9337 198.236 80.1392 197.52 80.1392ZM197.52 79.304C198.306 79.304 198.919 78.9212 199.36 78.1555C199.8 77.3866 200.021 76.3045 200.021 74.9091C200.021 73.9811 199.92 73.1889 199.718 72.5327C199.519 71.8731 199.232 71.3693 198.857 71.0213C198.486 70.6733 198.04 70.4993 197.52 70.4993C196.741 70.4993 196.13 70.8871 195.686 71.6626C195.241 72.4349 195.019 73.517 195.019 74.9091C195.019 75.8371 195.119 76.6293 195.318 77.2855C195.52 77.9418 195.807 78.4422 196.178 78.7869C196.552 79.1316 197 79.304 197.52 79.304ZM206.285 69.3409L203.004 81.5312H202.173L205.455 69.3409H206.285ZM207.54 77.8125V77.0568L212.079 69.8182H212.636V71.0859H212.224L208.579 76.9126V76.9773H214.53V77.8125H207.54ZM212.293 80V77.5739V77.2259V69.8182H213.178V80H212.293ZM226.232 72.3636C226.176 71.7969 225.926 71.3461 225.482 71.0114C225.037 70.6766 224.479 70.5092 223.806 70.5092C223.332 70.5092 222.915 70.5904 222.553 70.7528C222.195 70.9152 221.914 71.1406 221.708 71.429C221.506 71.714 221.405 72.0388 221.405 72.4034C221.405 72.6719 221.463 72.9072 221.579 73.1094C221.695 73.3116 221.851 73.4856 222.046 73.6314C222.245 73.7739 222.464 73.8965 222.702 73.9993C222.944 74.102 223.188 74.1882 223.433 74.2578L224.507 74.5661C224.832 74.6555 225.157 74.7699 225.482 74.9091C225.806 75.0483 226.103 75.224 226.371 75.4361C226.643 75.6449 226.86 75.9018 227.023 76.2067C227.188 76.5083 227.271 76.8712 227.271 77.2955C227.271 77.839 227.13 78.3279 226.849 78.7621C226.567 79.1963 226.163 79.541 225.636 79.7962C225.109 80.0481 224.477 80.174 223.741 80.174C223.049 80.174 222.447 80.0597 221.937 79.831C221.426 79.599 221.025 79.2791 220.734 78.8714C220.442 78.4638 220.278 77.9915 220.241 77.4545H221.196C221.229 77.8556 221.362 78.1953 221.594 78.4737C221.826 78.7521 222.127 78.9643 222.499 79.1101C222.87 79.2526 223.284 79.3239 223.741 79.3239C224.249 79.3239 224.699 79.2393 225.094 79.0703C225.491 78.898 225.803 78.6593 226.028 78.3544C226.257 78.0462 226.371 77.6882 226.371 77.2805C226.371 76.9358 226.282 76.6475 226.103 76.4155C225.924 76.1802 225.674 75.983 225.352 75.8239C225.034 75.6648 224.665 75.5239 224.244 75.4013L223.026 75.0433C222.227 74.8047 221.607 74.4749 221.166 74.054C220.725 73.633 220.505 73.0961 220.505 72.4432C220.505 71.8963 220.651 71.4157 220.942 71.0014C221.237 70.5838 221.635 70.259 222.136 70.027C222.639 69.7917 223.205 69.674 223.831 69.674C224.464 69.674 225.024 69.79 225.511 70.022C225.999 70.254 226.385 70.5739 226.67 70.9815C226.958 71.3859 227.112 71.8466 227.132 72.3636H226.232ZM232.332 72.3636V73.1342H228.688V72.3636H232.332ZM229.827 70.5341H230.717V78.0064C230.717 78.3246 230.771 78.5748 230.881 78.7571C230.99 78.9361 231.133 79.0637 231.308 79.1399C231.484 79.2128 231.671 79.2493 231.87 79.2493C231.986 79.2493 232.085 79.2427 232.168 79.2294C232.251 79.2128 232.324 79.1963 232.387 79.1797L232.576 79.9801C232.49 80.0133 232.384 80.0431 232.258 80.0696C232.132 80.0994 231.976 80.1143 231.79 80.1143C231.466 80.1143 231.152 80.0431 230.851 79.9006C230.553 79.758 230.307 79.5459 230.115 79.2642C229.923 78.9825 229.827 78.6328 229.827 78.2152V70.5341ZM234.342 80V72.3636H235.202V73.5369H235.267C235.419 73.1525 235.684 72.8426 236.062 72.6072C236.443 72.3686 236.874 72.2493 237.355 72.2493C237.428 72.2493 237.509 72.2509 237.599 72.2543C237.688 72.2576 237.763 72.2609 237.822 72.2642V73.1641C237.782 73.1574 237.713 73.1475 237.613 73.1342C237.514 73.121 237.406 73.1143 237.29 73.1143C236.893 73.1143 236.538 73.1989 236.226 73.3679C235.918 73.5336 235.675 73.764 235.496 74.0589C235.317 74.3539 235.227 74.6903 235.227 75.0682V80H234.342ZM242.187 80.1591C241.475 80.1591 240.858 79.9934 240.338 79.6619C239.818 79.3272 239.415 78.8648 239.13 78.2749C238.848 77.6816 238.707 76.9988 238.707 76.2266C238.707 75.4576 238.848 74.7749 239.13 74.1783C239.415 73.5784 239.808 73.1094 240.308 72.7713C240.812 72.4299 241.394 72.2592 242.053 72.2592C242.467 72.2592 242.867 72.3355 243.251 72.4879C243.636 72.6371 243.98 72.8674 244.285 73.179C244.594 73.4872 244.837 73.8767 245.016 74.3473C245.195 74.8146 245.285 75.3681 245.285 76.0078V76.4453H239.319V75.6648H244.38C244.38 75.1742 244.28 74.7334 244.081 74.3423C243.886 73.9479 243.613 73.6364 243.261 73.4077C242.913 73.179 242.51 73.0646 242.053 73.0646C241.569 73.0646 241.143 73.1939 240.775 73.4524C240.407 73.7109 240.119 74.0523 239.91 74.4766C239.705 74.9008 239.6 75.3648 239.597 75.8686V76.3359C239.597 76.9425 239.702 77.4728 239.91 77.9268C240.122 78.3776 240.422 78.7273 240.81 78.9759C241.198 79.2244 241.657 79.3487 242.187 79.3487C242.549 79.3487 242.865 79.2924 243.137 79.1797C243.412 79.067 243.642 78.9162 243.828 78.7273C244.017 78.535 244.159 78.3246 244.256 78.0959L245.096 78.3693C244.98 78.6908 244.789 78.9875 244.524 79.2592C244.262 79.531 243.934 79.7498 243.54 79.9155C243.148 80.0779 242.698 80.1591 242.187 80.1591ZM250.322 80.1591C249.609 80.1591 248.993 79.9934 248.473 79.6619C247.952 79.3272 247.55 78.8648 247.265 78.2749C246.983 77.6816 246.842 76.9988 246.842 76.2266C246.842 75.4576 246.983 74.7749 247.265 74.1783C247.55 73.5784 247.942 73.1094 248.443 72.7713C248.947 72.4299 249.528 72.2592 250.188 72.2592C250.602 72.2592 251.002 72.3355 251.386 72.4879C251.77 72.6371 252.115 72.8674 252.42 73.179C252.728 73.4872 252.972 73.8767 253.151 74.3473C253.33 74.8146 253.419 75.3681 253.419 76.0078V76.4453H247.453V75.6648H252.515C252.515 75.1742 252.415 74.7334 252.216 74.3423C252.021 73.9479 251.747 73.6364 251.396 73.4077C251.048 73.179 250.645 73.0646 250.188 73.0646C249.704 73.0646 249.278 73.1939 248.91 73.4524C248.542 73.7109 248.254 74.0523 248.045 74.4766C247.84 74.9008 247.735 75.3648 247.732 75.8686V76.3359C247.732 76.9425 247.836 77.4728 248.045 77.9268C248.257 78.3776 248.557 78.7273 248.945 78.9759C249.333 79.2244 249.792 79.3487 250.322 79.3487C250.683 79.3487 251 79.2924 251.272 79.1797C251.547 79.067 251.777 78.9162 251.963 78.7273C252.152 78.535 252.294 78.3246 252.39 78.0959L253.23 78.3693C253.114 78.6908 252.924 78.9875 252.659 79.2592C252.397 79.531 252.069 79.7498 251.674 79.9155C251.283 80.0779 250.833 80.1591 250.322 80.1591ZM258.377 72.3636V73.1342H254.733V72.3636H258.377ZM255.872 70.5341H256.762V78.0064C256.762 78.3246 256.816 78.5748 256.926 78.7571C257.035 78.9361 257.177 79.0637 257.353 79.1399C257.529 79.2128 257.716 79.2493 257.915 79.2493C258.031 79.2493 258.13 79.2427 258.213 79.2294C258.296 79.2128 258.369 79.1963 258.432 79.1797L258.621 79.9801C258.535 80.0133 258.429 80.0431 258.303 80.0696C258.177 80.0994 258.021 80.1143 257.835 80.1143C257.511 80.1143 257.197 80.0431 256.896 79.9006C256.597 79.758 256.352 79.5459 256.16 79.2642C255.968 78.9825 255.872 78.6328 255.872 78.2152V70.5341ZM261.859 78.608L261.769 79.1399C261.713 79.4979 261.633 79.8923 261.531 80.3232C261.428 80.754 261.322 81.1634 261.212 81.5511C261.103 81.9389 261.009 82.2505 260.929 82.4858H260.248C260.291 82.2604 260.346 81.9737 260.412 81.6257C260.482 81.2777 260.553 80.8916 260.626 80.4673C260.699 80.0464 260.765 79.6122 260.825 79.1648L260.894 78.608H261.859ZM276.253 69.8182V80H275.348L269.332 71.4737H269.253V80H268.323V69.8182H269.223L275.258 78.3544H275.338V69.8182H276.253ZM283.628 77.0817V72.3636H284.513V80H283.628V78.7322H283.558C283.379 79.1233 283.096 79.4498 282.708 79.7116C282.32 79.9702 281.847 80.0994 281.286 80.0994C280.799 80.0994 280.367 79.9934 279.989 79.7812C279.611 79.5658 279.314 79.2509 279.099 78.8366C278.883 78.4223 278.776 77.9136 278.776 77.3104V72.3636H279.661V77.2557C279.661 77.8523 279.836 78.3329 280.188 78.6974C280.539 79.0587 280.99 79.2393 281.54 79.2393C281.885 79.2393 282.216 79.1565 282.534 78.9908C282.852 78.825 283.114 78.5831 283.32 78.2649C283.525 77.9434 283.628 77.549 283.628 77.0817ZM286.856 80V72.3636H287.716V73.5369H287.795C287.948 73.1425 288.201 72.8326 288.556 72.6072C288.914 72.3786 289.343 72.2642 289.844 72.2642C290.371 72.2642 290.803 72.3885 291.141 72.6371C291.483 72.8823 291.738 73.2204 291.907 73.6513H291.972C292.144 73.227 292.424 72.8906 292.812 72.642C293.203 72.3902 293.677 72.2642 294.234 72.2642C294.943 72.2642 295.503 72.4879 295.914 72.9354C296.325 73.3795 296.531 74.0291 296.531 74.8842V80H295.646V74.8842C295.646 74.281 295.491 73.8286 295.183 73.527C294.875 73.2254 294.469 73.0746 293.965 73.0746C293.382 73.0746 292.933 73.2536 292.618 73.6115C292.303 73.9695 292.146 74.4235 292.146 74.9737V80H291.241V74.8047C291.241 74.2876 291.097 73.87 290.808 73.5518C290.52 73.2337 290.114 73.0746 289.59 73.0746C289.239 73.0746 288.922 73.1607 288.641 73.3331C288.362 73.5054 288.142 73.7457 287.979 74.054C287.82 74.3589 287.741 74.7102 287.741 75.108V80H286.856ZM299.057 80V69.8182H299.947V73.8203H300.027C300.126 73.5916 300.269 73.3563 300.454 73.1143C300.643 72.8724 300.89 72.6702 301.195 72.5078C301.503 72.3421 301.891 72.2592 302.358 72.2592C302.985 72.2592 303.535 72.425 304.009 72.7564C304.483 73.0845 304.853 73.5452 305.118 74.1385C305.383 74.7285 305.515 75.4162 305.515 76.2017C305.515 76.9905 305.383 77.6816 305.118 78.2749C304.856 78.8681 304.488 79.3305 304.014 79.6619C303.543 79.9934 302.997 80.1591 302.373 80.1591C301.909 80.1591 301.522 80.0762 301.21 79.9105C300.902 79.7448 300.653 79.541 300.464 79.299C300.275 79.0537 300.13 78.8151 300.027 78.5831H299.917V80H299.057ZM299.932 76.1868C299.932 76.8033 300.023 77.3501 300.206 77.8274C300.391 78.3014 300.657 78.6742 301.001 78.946C301.349 79.2145 301.77 79.3487 302.264 79.3487C302.771 79.3487 303.2 79.2095 303.552 78.9311C303.903 78.6494 304.17 78.2699 304.352 77.7926C304.534 77.3153 304.626 76.7801 304.626 76.1868C304.626 75.6001 304.534 75.0715 304.352 74.6009C304.173 74.1302 303.908 73.7573 303.557 73.4822C303.205 73.2038 302.774 73.0646 302.264 73.0646C301.767 73.0646 301.344 73.1989 300.996 73.4673C300.652 73.7325 300.388 74.1004 300.206 74.571C300.023 75.0384 299.932 75.5769 299.932 76.1868ZM310.547 80.1591C309.834 80.1591 309.218 79.9934 308.697 79.6619C308.177 79.3272 307.774 78.8648 307.489 78.2749C307.207 77.6816 307.067 76.9988 307.067 76.2266C307.067 75.4576 307.207 74.7749 307.489 74.1783C307.774 73.5784 308.167 73.1094 308.667 72.7713C309.171 72.4299 309.753 72.2592 310.412 72.2592C310.827 72.2592 311.226 72.3355 311.611 72.4879C311.995 72.6371 312.34 72.8674 312.645 73.179C312.953 73.4872 313.197 73.8767 313.376 74.3473C313.555 74.8146 313.644 75.3681 313.644 76.0078V76.4453H307.678V75.6648H312.739C312.739 75.1742 312.64 74.7334 312.441 74.3423C312.245 73.9479 311.972 73.6364 311.621 73.4077C311.273 73.179 310.87 73.0646 310.412 73.0646C309.929 73.0646 309.503 73.1939 309.135 73.4524C308.767 73.7109 308.479 74.0523 308.27 74.4766C308.064 74.9008 307.96 75.3648 307.956 75.8686V76.3359C307.956 76.9425 308.061 77.4728 308.27 77.9268C308.482 78.3776 308.782 78.7273 309.17 78.9759C309.557 79.2244 310.016 79.3487 310.547 79.3487C310.908 79.3487 311.224 79.2924 311.496 79.1797C311.771 79.067 312.002 78.9162 312.187 78.7273C312.376 78.535 312.519 78.3246 312.615 78.0959L313.455 78.3693C313.339 78.6908 313.148 78.9875 312.883 79.2592C312.622 79.531 312.293 79.7498 311.899 79.9155C311.508 80.0779 311.057 80.1591 310.547 80.1591ZM315.594 80V72.3636H316.454V73.5369H316.519C316.671 73.1525 316.936 72.8426 317.314 72.6072C317.695 72.3686 318.126 72.2493 318.607 72.2493C318.68 72.2493 318.761 72.2509 318.85 72.2543C318.94 72.2576 319.015 72.2609 319.074 72.2642V73.1641C319.034 73.1574 318.965 73.1475 318.865 73.1342C318.766 73.121 318.658 73.1143 318.542 73.1143C318.145 73.1143 317.79 73.1989 317.478 73.3679C317.17 73.5336 316.926 73.764 316.748 74.0589C316.569 74.3539 316.479 74.6903 316.479 75.0682V80H315.594ZM327.629 69.8182V80H326.699V70.7926H326.64L324.253 72.3786V71.4141L326.66 69.8182H327.629ZM115.122 97L112.333 86.8182H113.278L115.585 95.5732H115.664L117.971 86.8182H119.045L121.352 95.5732H121.431L123.738 86.8182H124.688L121.898 97H120.904L118.543 88.3643H118.478L116.116 97H115.122ZM127.606 97.174C127.145 97.174 126.724 97.0845 126.343 96.9055C125.962 96.7232 125.659 96.4614 125.433 96.12C125.208 95.7753 125.095 95.3577 125.095 94.8672C125.095 94.4893 125.166 94.1712 125.309 93.9126C125.451 93.6541 125.654 93.442 125.915 93.2763C126.177 93.1106 126.487 92.9796 126.845 92.8835C127.203 92.7874 127.598 92.7128 128.028 92.6598C128.456 92.6068 128.817 92.5604 129.112 92.5206C129.411 92.4808 129.638 92.4179 129.793 92.3317C129.949 92.2455 130.027 92.1063 130.027 91.9141V91.7351C130.027 91.2147 129.871 90.8054 129.56 90.5071C129.251 90.2055 128.807 90.0547 128.227 90.0547C127.677 90.0547 127.228 90.1757 126.88 90.4176C126.535 90.6596 126.293 90.9446 126.154 91.2727L125.314 90.9695C125.486 90.5518 125.725 90.2187 126.03 89.9702C126.335 89.7183 126.676 89.5376 127.054 89.4283C127.432 89.3156 127.815 89.2592 128.202 89.2592C128.494 89.2592 128.797 89.2973 129.112 89.3736C129.43 89.4498 129.725 89.5824 129.997 89.7713C130.269 89.9569 130.489 90.2171 130.658 90.5518C130.827 90.8833 130.912 91.3042 130.912 91.8146V97H130.027V95.7919H129.972C129.866 96.0173 129.709 96.236 129.5 96.4482C129.291 96.6603 129.029 96.8343 128.714 96.9702C128.4 97.1061 128.03 97.174 127.606 97.174ZM127.725 96.3636C128.196 96.3636 128.603 96.2592 128.948 96.0504C129.293 95.8416 129.558 95.5649 129.744 95.2202C129.933 94.8722 130.027 94.4893 130.027 94.0717V92.968C129.961 93.031 129.85 93.0874 129.694 93.1371C129.541 93.1868 129.364 93.2315 129.162 93.2713C128.963 93.3078 128.764 93.3393 128.565 93.3658C128.366 93.3923 128.188 93.4155 128.028 93.4354C127.598 93.4884 127.23 93.5713 126.925 93.6839C126.62 93.7966 126.386 93.9524 126.224 94.1513C126.061 94.3468 125.98 94.5987 125.98 94.907C125.98 95.371 126.146 95.7306 126.477 95.9858C126.809 96.2377 127.225 96.3636 127.725 96.3636ZM133.266 97V89.3636H134.126V90.5369H134.191C134.343 90.1525 134.608 89.8426 134.986 89.6072C135.367 89.3686 135.798 89.2493 136.279 89.2493C136.352 89.2493 136.433 89.2509 136.522 89.2543C136.612 89.2576 136.686 89.2609 136.746 89.2642V90.1641C136.706 90.1574 136.637 90.1475 136.537 90.1342C136.438 90.121 136.33 90.1143 136.214 90.1143C135.816 90.1143 135.462 90.1989 135.15 90.3679C134.842 90.5336 134.598 90.764 134.419 91.0589C134.24 91.3539 134.151 91.6903 134.151 92.0682V97H133.266ZM140.773 97.1591C140.147 97.1591 139.598 96.9934 139.127 96.6619C138.657 96.3305 138.289 95.8681 138.024 95.2749C137.762 94.6816 137.631 93.9905 137.631 93.2017C137.631 92.4162 137.762 91.7285 138.024 91.1385C138.289 90.5452 138.658 90.0845 139.132 89.7564C139.606 89.425 140.158 89.2592 140.788 89.2592C141.252 89.2592 141.638 89.3421 141.946 89.5078C142.255 89.6702 142.502 89.8724 142.687 90.1143C142.873 90.3563 143.017 90.5916 143.12 90.8203H143.199V86.8182H144.089V97H143.224V95.5831H143.12C143.017 95.8151 142.871 96.0537 142.682 96.299C142.493 96.541 142.243 96.7448 141.931 96.9105C141.623 97.0762 141.237 97.1591 140.773 97.1591ZM140.877 96.3487C141.371 96.3487 141.792 96.2145 142.14 95.946C142.488 95.6742 142.753 95.3014 142.936 94.8274C143.121 94.3501 143.214 93.8033 143.214 93.1868C143.214 92.5769 143.123 92.0384 142.941 91.571C142.758 91.1004 142.493 90.7325 142.145 90.4673C141.797 90.1989 141.375 90.0646 140.877 90.0646C140.367 90.0646 139.936 90.2038 139.585 90.4822C139.237 90.7573 138.972 91.1302 138.789 91.6009C138.61 92.0715 138.521 92.6001 138.521 93.1868C138.521 93.7801 138.612 94.3153 138.794 94.7926C138.977 95.2699 139.242 95.6494 139.59 95.9311C139.941 96.2095 140.37 96.3487 140.877 96.3487ZM148.081 95.608L147.992 96.1399C147.935 96.4979 147.856 96.8923 147.753 97.3232C147.65 97.754 147.544 98.1634 147.435 98.5511C147.326 98.9389 147.231 99.2505 147.152 99.4858H146.471C146.514 99.2604 146.568 98.9737 146.635 98.6257C146.704 98.2777 146.775 97.8916 146.848 97.4673C146.921 97.0464 146.988 96.6122 147.047 96.1648L147.117 95.608H148.081ZM162.52 90H161.585C161.516 89.652 161.39 89.3305 161.208 89.0355C161.029 88.7372 160.803 88.477 160.531 88.255C160.26 88.0329 159.951 87.8606 159.607 87.7379C159.262 87.6153 158.889 87.554 158.488 87.554C157.845 87.554 157.258 87.7214 156.728 88.0561C156.201 88.3909 155.779 88.883 155.46 89.5327C155.146 90.179 154.988 90.9711 154.988 91.9091C154.988 92.8537 155.146 93.6491 155.46 94.2955C155.779 94.9418 156.201 95.4323 156.728 95.767C157.258 96.0985 157.845 96.2642 158.488 96.2642C158.889 96.2642 159.262 96.2029 159.607 96.0803C159.951 95.9576 160.26 95.7869 160.531 95.5682C160.803 95.3461 161.029 95.0859 161.208 94.7876C161.39 94.4893 161.516 94.1662 161.585 93.8182H162.52C162.437 94.2855 162.281 94.7214 162.053 95.1257C161.827 95.5268 161.539 95.8781 161.188 96.1797C160.84 96.4813 160.439 96.7166 159.985 96.8857C159.53 97.0547 159.032 97.1392 158.488 97.1392C157.633 97.1392 156.874 96.9254 156.211 96.4979C155.548 96.067 155.028 95.4605 154.65 94.6783C154.276 93.8961 154.088 92.973 154.088 91.9091C154.088 90.8452 154.276 89.9221 154.65 89.1399C155.028 88.3577 155.548 87.7528 156.211 87.3253C156.874 86.8944 157.633 86.679 158.488 86.679C159.032 86.679 159.53 86.7635 159.985 86.9325C160.439 87.0982 160.84 87.3336 161.188 87.6385C161.539 87.9401 161.827 88.2914 162.053 88.6925C162.281 89.0935 162.437 89.5294 162.52 90ZM166.653 97.174C166.192 97.174 165.771 97.0845 165.39 96.9055C165.009 96.7232 164.705 96.4614 164.48 96.12C164.255 95.7753 164.142 95.3577 164.142 94.8672C164.142 94.4893 164.213 94.1712 164.356 93.9126C164.498 93.6541 164.701 93.442 164.962 93.2763C165.224 93.1106 165.534 92.9796 165.892 92.8835C166.25 92.7874 166.644 92.7128 167.075 92.6598C167.503 92.6068 167.864 92.5604 168.159 92.5206C168.457 92.4808 168.684 92.4179 168.84 92.3317C168.996 92.2455 169.074 92.1063 169.074 91.9141V91.7351C169.074 91.2147 168.918 90.8054 168.607 90.5071C168.298 90.2055 167.854 90.0547 167.274 90.0547C166.724 90.0547 166.275 90.1757 165.927 90.4176C165.582 90.6596 165.34 90.9446 165.201 91.2727L164.361 90.9695C164.533 90.5518 164.772 90.2187 165.077 89.9702C165.382 89.7183 165.723 89.5376 166.101 89.4283C166.479 89.3156 166.862 89.2592 167.249 89.2592C167.541 89.2592 167.844 89.2973 168.159 89.3736C168.477 89.4498 168.772 89.5824 169.044 89.7713C169.316 89.9569 169.536 90.2171 169.705 90.5518C169.874 90.8833 169.959 91.3042 169.959 91.8146V97H169.074V95.7919H169.019C168.913 96.0173 168.756 96.236 168.547 96.4482C168.338 96.6603 168.076 96.8343 167.761 96.9702C167.446 97.1061 167.077 97.174 166.653 97.174ZM166.772 96.3636C167.243 96.3636 167.65 96.2592 167.995 96.0504C168.34 95.8416 168.605 95.5649 168.79 95.2202C168.979 94.8722 169.074 94.4893 169.074 94.0717V92.968C169.008 93.031 168.897 93.0874 168.741 93.1371C168.588 93.1868 168.411 93.2315 168.209 93.2713C168.01 93.3078 167.811 93.3393 167.612 93.3658C167.413 93.3923 167.234 93.4155 167.075 93.4354C166.644 93.4884 166.277 93.5713 165.972 93.6839C165.667 93.7966 165.433 93.9524 165.271 94.1513C165.108 94.3468 165.027 94.5987 165.027 94.907C165.027 95.371 165.193 95.7306 165.524 95.9858C165.856 96.2377 166.272 96.3636 166.772 96.3636ZM175.281 97.1591C174.621 97.1591 174.038 96.9917 173.531 96.657C173.027 96.3222 172.633 95.8598 172.348 95.2699C172.063 94.6766 171.92 93.9922 171.92 93.2166C171.92 92.4344 172.063 91.7467 172.348 91.1534C172.633 90.5568 173.027 90.0928 173.531 89.7614C174.038 89.4266 174.621 89.2592 175.281 89.2592C175.94 89.2592 176.522 89.4266 177.026 89.7614C177.53 90.0961 177.924 90.5601 178.209 91.1534C178.498 91.7467 178.642 92.4344 178.642 93.2166C178.642 93.9922 178.499 94.6766 178.214 95.2699C177.929 95.8598 177.533 96.3222 177.026 96.657C176.522 96.9917 175.94 97.1591 175.281 97.1591ZM175.281 96.3487C175.811 96.3487 176.26 96.2062 176.628 95.9212C176.996 95.6361 177.275 95.2566 177.463 94.7827C177.656 94.3087 177.752 93.7867 177.752 93.2166C177.752 92.6465 177.656 92.1229 177.463 91.6456C177.275 91.1683 176.996 90.7855 176.628 90.4972C176.26 90.2088 175.811 90.0646 175.281 90.0646C174.754 90.0646 174.305 90.2088 173.934 90.4972C173.566 90.7855 173.286 91.1683 173.093 91.6456C172.904 92.1229 172.81 92.6465 172.81 93.2166C172.81 93.7867 172.904 94.3087 173.093 94.7827C173.286 95.2566 173.566 95.6361 173.934 95.9212C174.301 96.2062 174.751 96.3487 175.281 96.3487ZM184.706 97V86.8182H185.635V96.1648H190.488V97H184.706ZM194.53 97.174C194.069 97.174 193.648 97.0845 193.267 96.9055C192.886 96.7232 192.582 96.4614 192.357 96.12C192.132 95.7753 192.019 95.3577 192.019 94.8672C192.019 94.4893 192.09 94.1712 192.233 93.9126C192.375 93.6541 192.577 93.442 192.839 93.2763C193.101 93.1106 193.411 92.9796 193.769 92.8835C194.127 92.7874 194.521 92.7128 194.952 92.6598C195.38 92.6068 195.741 92.5604 196.036 92.5206C196.334 92.4808 196.561 92.4179 196.717 92.3317C196.873 92.2455 196.951 92.1063 196.951 91.9141V91.7351C196.951 91.2147 196.795 90.8054 196.483 90.5071C196.175 90.2055 195.731 90.0547 195.151 90.0547C194.601 90.0547 194.152 90.1757 193.804 90.4176C193.459 90.6596 193.217 90.9446 193.078 91.2727L192.238 90.9695C192.41 90.5518 192.649 90.2187 192.954 89.9702C193.259 89.7183 193.6 89.5376 193.978 89.4283C194.356 89.3156 194.738 89.2592 195.126 89.2592C195.418 89.2592 195.721 89.2973 196.036 89.3736C196.354 89.4498 196.649 89.5824 196.921 89.7713C197.193 89.9569 197.413 90.2171 197.582 90.5518C197.751 90.8833 197.836 91.3042 197.836 91.8146V97H196.951V95.7919H196.896C196.79 96.0173 196.633 96.236 196.424 96.4482C196.215 96.6603 195.953 96.8343 195.638 96.9702C195.323 97.1061 194.954 97.174 194.53 97.174ZM194.649 96.3636C195.12 96.3636 195.527 96.2592 195.872 96.0504C196.217 95.8416 196.482 95.5649 196.667 95.2202C196.856 94.8722 196.951 94.4893 196.951 94.0717V92.968C196.885 93.031 196.773 93.0874 196.618 93.1371C196.465 93.1868 196.288 93.2315 196.086 93.2713C195.887 93.3078 195.688 93.3393 195.489 93.3658C195.29 93.3923 195.111 93.4155 194.952 93.4354C194.521 93.4884 194.153 93.5713 193.849 93.6839C193.544 93.7966 193.31 93.9524 193.148 94.1513C192.985 94.3468 192.904 94.5987 192.904 94.907C192.904 95.371 193.07 95.7306 193.401 95.9858C193.733 96.2377 194.148 96.3636 194.649 96.3636ZM201.075 92.2273V97H200.19V89.3636H201.05V90.5618H201.129C201.308 90.1707 201.587 89.8575 201.965 89.6222C202.346 89.3835 202.816 89.2642 203.377 89.2642C203.89 89.2642 204.341 89.3719 204.729 89.5874C205.12 89.7995 205.423 90.1127 205.639 90.527C205.857 90.9413 205.967 91.45 205.967 92.0533V97H205.082V92.108C205.082 91.4815 204.906 90.986 204.555 90.6214C204.207 90.2569 203.74 90.0746 203.153 90.0746C202.752 90.0746 202.396 90.1607 202.084 90.3331C201.772 90.5054 201.526 90.754 201.343 91.0788C201.164 91.4003 201.075 91.7831 201.075 92.2273ZM209.182 92.2273V97H208.297V86.8182H209.182V90.5618H209.262C209.441 90.1674 209.717 89.8525 210.092 89.6172C210.47 89.3819 210.947 89.2642 211.524 89.2642C212.041 89.2642 212.495 89.3703 212.886 89.5824C213.277 89.7945 213.582 90.1077 213.801 90.522C214.02 90.9363 214.129 91.4467 214.129 92.0533V97H213.239V92.108C213.239 91.4782 213.063 90.9827 212.712 90.6214C212.364 90.2569 211.893 90.0746 211.3 90.0746C210.892 90.0746 210.529 90.1607 210.211 90.3331C209.893 90.5054 209.641 90.754 209.456 91.0788C209.273 91.4003 209.182 91.7831 209.182 92.2273ZM228.555 90H227.621C227.551 89.652 227.425 89.3305 227.243 89.0355C227.064 88.7372 226.838 88.477 226.567 88.255C226.295 88.0329 225.987 87.8606 225.642 87.7379C225.297 87.6153 224.924 87.554 224.523 87.554C223.88 87.554 223.294 87.7214 222.763 88.0561C222.236 88.3909 221.814 88.883 221.496 89.5327C221.181 90.179 221.023 90.9711 221.023 91.9091C221.023 92.8537 221.181 93.6491 221.496 94.2955C221.814 94.9418 222.236 95.4323 222.763 95.767C223.294 96.0985 223.88 96.2642 224.523 96.2642C224.924 96.2642 225.297 96.2029 225.642 96.0803C225.987 95.9576 226.295 95.7869 226.567 95.5682C226.838 95.3461 227.064 95.0859 227.243 94.7876C227.425 94.4893 227.551 94.1662 227.621 93.8182H228.555C228.472 94.2855 228.317 94.7214 228.088 95.1257C227.863 95.5268 227.574 95.8781 227.223 96.1797C226.875 96.4813 226.474 96.7166 226.02 96.8857C225.566 97.0547 225.067 97.1392 224.523 97.1392C223.668 97.1392 222.909 96.9254 222.246 96.4979C221.583 96.067 221.063 95.4605 220.685 94.6783C220.311 93.8961 220.123 92.973 220.123 91.9091C220.123 90.8452 220.311 89.9221 220.685 89.1399C221.063 88.3577 221.583 87.7528 222.246 87.3253C222.909 86.8944 223.668 86.679 224.523 86.679C225.067 86.679 225.566 86.7635 226.02 86.9325C226.474 87.0982 226.875 87.3336 227.223 87.6385C227.574 87.9401 227.863 88.2914 228.088 88.6925C228.317 89.0935 228.472 89.5294 228.555 90ZM230.565 97V89.3636H231.455V97H230.565ZM231.017 88.0511C230.835 88.0511 230.679 87.9898 230.55 87.8672C230.421 87.7412 230.356 87.5904 230.356 87.4148C230.356 87.2391 230.421 87.09 230.55 86.9673C230.679 86.8414 230.835 86.7784 231.017 86.7784C231.2 86.7784 231.355 86.8414 231.485 86.9673C231.614 87.09 231.679 87.2391 231.679 87.4148C231.679 87.5904 231.614 87.7412 231.485 87.8672C231.355 87.9898 231.2 88.0511 231.017 88.0511ZM236.803 89.3636V90.1342H233.159V89.3636H236.803ZM234.297 87.5341H235.187V95.0064C235.187 95.3246 235.242 95.5748 235.351 95.7571C235.461 95.9361 235.603 96.0637 235.779 96.1399C235.955 96.2128 236.142 96.2493 236.341 96.2493C236.457 96.2493 236.556 96.2427 236.639 96.2294C236.722 96.2128 236.795 96.1963 236.858 96.1797L237.047 96.9801C236.961 97.0133 236.854 97.0431 236.729 97.0696C236.603 97.0994 236.447 97.1143 236.261 97.1143C235.936 97.1143 235.623 97.0431 235.322 96.9006C235.023 96.758 234.778 96.5459 234.586 96.2642C234.394 95.9825 234.297 95.6328 234.297 95.2152V87.5341ZM239.429 99.8636C239.254 99.8636 239.09 99.8471 238.937 99.8139C238.785 99.7808 238.664 99.7443 238.574 99.7045L238.813 98.924C239.114 99.0168 239.383 99.05 239.618 99.0234C239.854 99.0002 240.062 98.8942 240.245 98.7053C240.427 98.5196 240.589 98.2346 240.732 97.8501L241.01 97.0746L238.201 89.3636H239.161L241.428 95.8317H241.498L243.765 89.3636H244.724L241.493 98.2081C241.357 98.576 241.189 98.8826 240.99 99.1278C240.792 99.3764 240.561 99.5604 240.299 99.6797C240.041 99.8023 239.751 99.8636 239.429 99.8636ZM247.449 95.608L247.359 96.1399C247.303 96.4979 247.223 96.8923 247.12 97.3232C247.018 97.754 246.912 98.1634 246.802 98.5511C246.693 98.9389 246.598 99.2505 246.519 99.4858H245.838C245.881 99.2604 245.935 98.9737 246.002 98.6257C246.071 98.2777 246.143 97.8916 246.216 97.4673C246.288 97.0464 246.355 96.6122 246.414 96.1648L246.484 95.608H247.449ZM256.896 97H253.913V86.8182H257.075C258.046 86.8182 258.876 87.0204 259.566 87.4247C260.258 87.8291 260.789 88.4091 261.156 89.1648C261.524 89.9205 261.708 90.8269 261.708 91.8842C261.708 92.9515 261.519 93.8679 261.142 94.6335C260.767 95.3958 260.22 95.9808 259.501 96.3885C258.785 96.7962 257.917 97 256.896 97ZM254.843 96.1648H256.841C257.716 96.1648 258.449 95.9924 259.039 95.6477C259.628 95.303 260.071 94.8108 260.366 94.1712C260.661 93.5315 260.808 92.7692 260.808 91.8842C260.805 91.0059 260.659 90.2502 260.371 89.6172C260.086 88.9841 259.662 88.4986 259.098 88.1605C258.538 87.8224 257.845 87.6534 257.02 87.6534H254.843V96.1648ZM266.746 97.1591C266.086 97.1591 265.503 96.9917 264.996 96.657C264.492 96.3222 264.098 95.8598 263.812 95.2699C263.527 94.6766 263.385 93.9922 263.385 93.2166C263.385 92.4344 263.527 91.7467 263.812 91.1534C264.098 90.5568 264.492 90.0928 264.996 89.7614C265.503 89.4266 266.086 89.2592 266.746 89.2592C267.405 89.2592 267.987 89.4266 268.491 89.7614C268.995 90.0961 269.389 90.5601 269.674 91.1534C269.962 91.7467 270.107 92.4344 270.107 93.2166C270.107 93.9922 269.964 94.6766 269.679 95.2699C269.394 95.8598 268.998 96.3222 268.491 96.657C267.987 96.9917 267.405 97.1591 266.746 97.1591ZM266.746 96.3487C267.276 96.3487 267.725 96.2062 268.093 95.9212C268.461 95.6361 268.739 95.2566 268.928 94.7827C269.121 94.3087 269.217 93.7867 269.217 93.2166C269.217 92.6465 269.121 92.1229 268.928 91.6456C268.739 91.1683 268.461 90.7855 268.093 90.4972C267.725 90.2088 267.276 90.0646 266.746 90.0646C266.219 90.0646 265.77 90.2088 265.398 90.4972C265.031 90.7855 264.75 91.1683 264.558 91.6456C264.369 92.1229 264.275 92.6465 264.275 93.2166C264.275 93.7867 264.369 94.3087 264.558 94.7827C264.75 95.2566 265.031 95.6361 265.398 95.9212C265.766 96.2062 266.215 96.3487 266.746 96.3487ZM272.934 92.2273V97H272.049V89.3636H272.909V90.5618H272.989C273.168 90.1707 273.446 89.8575 273.824 89.6222C274.205 89.3835 274.676 89.2642 275.236 89.2642C275.75 89.2642 276.2 89.3719 276.588 89.5874C276.979 89.7995 277.283 90.1127 277.498 90.527C277.717 90.9413 277.826 91.45 277.826 92.0533V97H276.941V92.108C276.941 91.4815 276.766 90.986 276.414 90.6214C276.066 90.2569 275.599 90.0746 275.012 90.0746C274.611 90.0746 274.255 90.1607 273.943 90.3331C273.632 90.5054 273.385 90.754 273.203 91.0788C273.024 91.4003 272.934 91.7831 272.934 92.2273ZM283.07 100.023C282.55 100.023 282.094 99.9548 281.703 99.8189C281.312 99.6863 280.982 99.504 280.713 99.272C280.445 99.04 280.236 98.7798 280.087 98.4915L280.813 98.0142C280.922 98.2064 281.068 98.3954 281.25 98.581C281.436 98.7666 281.676 98.9207 281.971 99.0433C282.27 99.166 282.636 99.2273 283.07 99.2273C283.746 99.2273 284.291 99.0582 284.706 98.7202C285.123 98.3821 285.332 97.8568 285.332 97.1442V95.424H285.252C285.15 95.656 285.002 95.888 284.81 96.12C284.618 96.3487 284.366 96.5393 284.054 96.6918C283.746 96.8442 283.363 96.9205 282.906 96.9205C282.296 96.9205 281.754 96.7696 281.28 96.468C280.81 96.1664 280.438 95.7356 280.167 95.1754C279.898 94.612 279.764 93.9408 279.764 93.1619C279.764 92.3897 279.895 91.7102 280.157 91.1236C280.422 90.5369 280.791 90.0795 281.265 89.7514C281.739 89.4233 282.291 89.2592 282.921 89.2592C283.388 89.2592 283.776 89.3421 284.084 89.5078C284.392 89.6702 284.639 89.8724 284.825 90.1143C285.014 90.3563 285.161 90.5916 285.267 90.8203H285.357V89.3636H286.222V97.1989C286.222 97.8452 286.084 98.3771 285.809 98.7947C285.534 99.2124 285.16 99.5206 284.686 99.7195C284.212 99.9216 283.673 100.023 283.07 100.023ZM283.01 96.1101C283.501 96.1101 283.92 95.9924 284.268 95.7571C284.616 95.5185 284.883 95.1771 285.069 94.733C285.254 94.2888 285.347 93.7602 285.347 93.147C285.347 92.5504 285.256 92.0218 285.074 91.5611C284.891 91.0971 284.626 90.7325 284.278 90.4673C283.933 90.1989 283.511 90.0646 283.01 90.0646C282.5 90.0646 282.069 90.2022 281.718 90.4773C281.366 90.7524 281.101 91.1236 280.922 91.5909C280.743 92.0549 280.654 92.5736 280.654 93.147C280.654 93.7304 280.745 94.2457 280.927 94.6932C281.109 95.1373 281.376 95.4853 281.728 95.7372C282.079 95.9858 282.507 96.1101 283.01 96.1101ZM292.07 87.6534V86.8182H299.453V87.6534H296.226V97H295.296V87.6534H292.07ZM302.247 92.2273V97H301.362V86.8182H302.247V90.5618H302.326C302.505 90.1674 302.782 89.8525 303.156 89.6172C303.534 89.3819 304.012 89.2642 304.588 89.2642C305.105 89.2642 305.559 89.3703 305.95 89.5824C306.342 89.7945 306.646 90.1077 306.865 90.522C307.084 90.9363 307.193 91.4467 307.193 92.0533V97H306.303V92.108C306.303 91.4782 306.128 90.9827 305.776 90.6214C305.428 90.2569 304.958 90.0746 304.365 90.0746C303.957 90.0746 303.594 90.1607 303.276 90.3331C302.958 90.5054 302.706 90.754 302.52 91.0788C302.338 91.4003 302.247 91.7831 302.247 92.2273ZM311.657 97.174C311.196 97.174 310.775 97.0845 310.394 96.9055C310.013 96.7232 309.709 96.4614 309.484 96.12C309.259 95.7753 309.146 95.3577 309.146 94.8672C309.146 94.4893 309.217 94.1712 309.36 93.9126C309.502 93.6541 309.704 93.442 309.966 93.2763C310.228 93.1106 310.538 92.9796 310.896 92.8835C311.254 92.7874 311.648 92.7128 312.079 92.6598C312.507 92.6068 312.868 92.5604 313.163 92.5206C313.461 92.4808 313.688 92.4179 313.844 92.3317C314 92.2455 314.078 92.1063 314.078 91.9141V91.7351C314.078 91.2147 313.922 90.8054 313.61 90.5071C313.302 90.2055 312.858 90.0547 312.278 90.0547C311.728 90.0547 311.279 90.1757 310.931 90.4176C310.586 90.6596 310.344 90.9446 310.205 91.2727L309.365 90.9695C309.537 90.5518 309.776 90.2187 310.081 89.9702C310.386 89.7183 310.727 89.5376 311.105 89.4283C311.483 89.3156 311.865 89.2592 312.253 89.2592C312.545 89.2592 312.848 89.2973 313.163 89.3736C313.481 89.4498 313.776 89.5824 314.048 89.7713C314.32 89.9569 314.54 90.2171 314.709 90.5518C314.878 90.8833 314.963 91.3042 314.963 91.8146V97H314.078V95.7919H314.023C313.917 96.0173 313.76 96.236 313.551 96.4482C313.342 96.6603 313.08 96.8343 312.765 96.9702C312.45 97.1061 312.081 97.174 311.657 97.174ZM311.776 96.3636C312.247 96.3636 312.654 96.2592 312.999 96.0504C313.344 95.8416 313.609 95.5649 313.794 95.2202C313.983 94.8722 314.078 94.4893 314.078 94.0717V92.968C314.011 93.031 313.9 93.0874 313.745 93.1371C313.592 93.1868 313.415 93.2315 313.213 93.2713C313.014 93.3078 312.815 93.3393 312.616 93.3658C312.417 93.3923 312.238 93.4155 312.079 93.4354C311.648 93.4884 311.28 93.5713 310.975 93.6839C310.671 93.7966 310.437 93.9524 310.275 94.1513C310.112 94.3468 310.031 94.5987 310.031 94.907C310.031 95.371 310.197 95.7306 310.528 95.9858C310.859 96.2377 311.275 96.3636 311.776 96.3636ZM317.317 99.8636V89.3636H318.177V90.8203H318.281C318.387 90.5916 318.533 90.358 318.719 90.1193C318.904 89.8774 319.15 89.6735 319.455 89.5078C319.763 89.3421 320.151 89.2592 320.618 89.2592C321.248 89.2592 321.798 89.425 322.268 89.7564C322.742 90.0845 323.11 90.5452 323.372 91.1385C323.637 91.7285 323.77 92.4162 323.77 93.2017C323.77 93.9905 323.637 94.6816 323.372 95.2749C323.11 95.8681 322.742 96.3305 322.268 96.6619C321.798 96.9934 321.251 97.1591 320.628 97.1591C320.167 97.1591 319.781 97.0762 319.469 96.9105C319.161 96.7448 318.911 96.541 318.719 96.299C318.53 96.0537 318.384 95.8151 318.281 95.5831H318.202V99.8636H317.317ZM318.192 93.1868C318.192 93.8033 318.283 94.3501 318.465 94.8274C318.651 95.3014 318.916 95.6742 319.261 95.946C319.609 96.2145 320.03 96.3487 320.523 96.3487C321.031 96.3487 321.458 96.2095 321.806 95.9311C322.157 95.6494 322.424 95.2699 322.607 94.7926C322.792 94.3153 322.885 93.7801 322.885 93.1868C322.885 92.6001 322.794 92.0715 322.612 91.6009C322.433 91.1302 322.167 90.7573 321.816 90.4822C321.465 90.2038 321.034 90.0646 320.523 90.0646C320.026 90.0646 319.604 90.1989 319.256 90.4673C318.908 90.7325 318.643 91.1004 318.46 91.571C318.281 92.0384 318.192 92.5769 318.192 93.1868ZM113.352 114V103.818H116.638C117.361 103.818 117.964 103.957 118.448 104.236C118.935 104.511 119.302 104.885 119.547 105.359C119.795 105.833 119.92 106.367 119.92 106.96C119.92 107.554 119.797 108.089 119.552 108.566C119.307 109.04 118.942 109.416 118.458 109.695C117.974 109.97 117.373 110.107 116.653 110.107H114.068V109.272H116.629C117.162 109.272 117.605 109.173 117.956 108.974C118.307 108.772 118.569 108.496 118.741 108.148C118.917 107.8 119.005 107.404 119.005 106.96C119.005 106.516 118.917 106.12 118.741 105.772C118.569 105.424 118.306 105.151 117.951 104.952C117.6 104.753 117.154 104.653 116.614 104.653H114.282V114H113.352ZM121.918 114V106.364H122.778V107.537H122.843C122.996 107.152 123.261 106.843 123.638 106.607C124.02 106.369 124.451 106.249 124.931 106.249C125.004 106.249 125.085 106.251 125.175 106.254C125.264 106.258 125.339 106.261 125.398 106.264V107.164C125.359 107.157 125.289 107.147 125.19 107.134C125.09 107.121 124.982 107.114 124.866 107.114C124.469 107.114 124.114 107.199 123.803 107.368C123.494 107.534 123.251 107.764 123.072 108.059C122.893 108.354 122.803 108.69 122.803 109.068V114H121.918ZM129.644 114.159C128.985 114.159 128.401 113.992 127.894 113.657C127.39 113.322 126.996 112.86 126.711 112.27C126.426 111.677 126.283 110.992 126.283 110.217C126.283 109.434 126.426 108.747 126.711 108.153C126.996 107.557 127.39 107.093 127.894 106.761C128.401 106.427 128.985 106.259 129.644 106.259C130.304 106.259 130.885 106.427 131.389 106.761C131.893 107.096 132.287 107.56 132.572 108.153C132.861 108.747 133.005 109.434 133.005 110.217C133.005 110.992 132.862 111.677 132.577 112.27C132.292 112.86 131.896 113.322 131.389 113.657C130.885 113.992 130.304 114.159 129.644 114.159ZM129.644 113.349C130.174 113.349 130.624 113.206 130.991 112.921C131.359 112.636 131.638 112.257 131.827 111.783C132.019 111.309 132.115 110.787 132.115 110.217C132.115 109.647 132.019 109.123 131.827 108.646C131.638 108.168 131.359 107.786 130.991 107.497C130.624 107.209 130.174 107.065 129.644 107.065C129.117 107.065 128.668 107.209 128.297 107.497C127.929 107.786 127.649 108.168 127.457 108.646C127.268 109.123 127.173 109.647 127.173 110.217C127.173 110.787 127.268 111.309 127.457 111.783C127.649 112.257 127.929 112.636 128.297 112.921C128.665 113.206 129.114 113.349 129.644 113.349ZM140.585 106.364L137.796 114H136.852L134.063 106.364H135.022L137.289 112.832H137.359L139.626 106.364H140.585ZM142.327 114V106.364H143.217V114H142.327ZM142.779 105.051C142.597 105.051 142.441 104.99 142.312 104.867C142.183 104.741 142.118 104.59 142.118 104.415C142.118 104.239 142.183 104.09 142.312 103.967C142.441 103.841 142.597 103.778 142.779 103.778C142.961 103.778 143.117 103.841 143.246 103.967C143.376 104.09 143.44 104.239 143.44 104.415C143.44 104.59 143.376 104.741 143.246 104.867C143.117 104.99 142.961 105.051 142.779 105.051ZM146.442 109.227V114H145.557V106.364H146.417V107.562H146.497C146.676 107.171 146.954 106.857 147.332 106.622C147.713 106.384 148.184 106.264 148.744 106.264C149.258 106.264 149.708 106.372 150.096 106.587C150.487 106.799 150.79 107.113 151.006 107.527C151.225 107.941 151.334 108.45 151.334 109.053V114H150.449V109.108C150.449 108.482 150.273 107.986 149.922 107.621C149.574 107.257 149.107 107.075 148.52 107.075C148.119 107.075 147.763 107.161 147.451 107.333C147.14 107.505 146.893 107.754 146.71 108.079C146.531 108.4 146.442 108.783 146.442 109.227ZM156.647 114.159C155.965 114.159 155.37 113.988 154.863 113.647C154.359 113.306 153.968 112.838 153.689 112.245C153.411 111.652 153.272 110.976 153.272 110.217C153.272 109.451 153.413 108.77 153.694 108.173C153.979 107.577 154.374 107.109 154.877 106.771C155.381 106.43 155.966 106.259 156.632 106.259C157.143 106.259 157.605 106.359 158.02 106.558C158.434 106.753 158.775 107.03 159.044 107.388C159.315 107.742 159.486 108.157 159.556 108.631H158.661C158.568 108.2 158.344 107.832 157.99 107.527C157.638 107.219 157.191 107.065 156.647 107.065C156.16 107.065 155.729 107.197 155.355 107.462C154.98 107.724 154.687 108.09 154.475 108.561C154.266 109.028 154.162 109.57 154.162 110.187C154.162 110.807 154.264 111.355 154.47 111.832C154.675 112.306 154.964 112.678 155.335 112.946C155.709 113.214 156.147 113.349 156.647 113.349C156.985 113.349 157.294 113.286 157.572 113.16C157.854 113.031 158.089 112.848 158.278 112.613C158.47 112.378 158.6 112.098 158.666 111.773H159.561C159.494 112.233 159.33 112.644 159.069 113.006C158.81 113.364 158.474 113.645 158.059 113.851C157.648 114.056 157.178 114.159 156.647 114.159ZM164.545 114.159C163.832 114.159 163.216 113.993 162.695 113.662C162.175 113.327 161.772 112.865 161.487 112.275C161.205 111.682 161.065 110.999 161.065 110.227C161.065 109.458 161.205 108.775 161.487 108.178C161.772 107.578 162.165 107.109 162.665 106.771C163.169 106.43 163.751 106.259 164.411 106.259C164.825 106.259 165.224 106.335 165.609 106.488C165.993 106.637 166.338 106.867 166.643 107.179C166.951 107.487 167.195 107.877 167.374 108.347C167.553 108.815 167.642 109.368 167.642 110.008V110.445H161.676V109.665H166.737C166.737 109.174 166.638 108.733 166.439 108.342C166.243 107.948 165.97 107.636 165.619 107.408C165.271 107.179 164.868 107.065 164.411 107.065C163.927 107.065 163.501 107.194 163.133 107.452C162.765 107.711 162.477 108.052 162.268 108.477C162.062 108.901 161.958 109.365 161.955 109.869V110.336C161.955 110.942 162.059 111.473 162.268 111.927C162.48 112.378 162.78 112.727 163.168 112.976C163.555 113.224 164.014 113.349 164.545 113.349C164.906 113.349 165.223 113.292 165.494 113.18C165.769 113.067 166 112.916 166.185 112.727C166.374 112.535 166.517 112.325 166.613 112.096L167.453 112.369C167.337 112.691 167.147 112.987 166.881 113.259C166.62 113.531 166.291 113.75 165.897 113.915C165.506 114.078 165.055 114.159 164.545 114.159Z" fill="white"/>
<path d="M17.1186 147V136.818H20.7479C21.54 136.818 22.1963 136.962 22.7166 137.251C23.237 137.539 23.6264 137.933 23.8849 138.434C24.1435 138.931 24.2727 139.491 24.2727 140.114C24.2727 140.741 24.1418 141.304 23.88 141.805C23.6214 142.302 23.2304 142.696 22.7067 142.988C22.1863 143.276 21.5317 143.42 20.7429 143.42H18.2472V142.118H20.6037C21.1042 142.118 21.5102 142.032 21.8217 141.859C22.1333 141.684 22.362 141.445 22.5078 141.143C22.6536 140.842 22.7266 140.499 22.7266 140.114C22.7266 139.73 22.6536 139.388 22.5078 139.09C22.362 138.792 22.1316 138.558 21.8168 138.389C21.5052 138.22 21.0942 138.136 20.5838 138.136H18.6548V147H17.1186ZM27.4409 142.466V147H25.9544V136.818H27.421V140.607H27.5154C27.6944 140.196 27.9679 139.869 28.3358 139.627C28.7037 139.385 29.1842 139.264 29.7775 139.264C30.3012 139.264 30.7586 139.372 31.1497 139.587C31.5441 139.803 31.849 140.124 32.0645 140.552C32.2832 140.976 32.3926 141.506 32.3926 142.143V147H30.9061V142.322C30.9061 141.762 30.7619 141.327 30.4735 141.019C30.1852 140.708 29.7842 140.552 29.2704 140.552C28.9191 140.552 28.6042 140.626 28.3258 140.776C28.0507 140.925 27.8336 141.143 27.6745 141.432C27.5188 141.717 27.4409 142.062 27.4409 142.466ZM37.5929 147.154C36.877 147.154 36.2522 146.99 35.7186 146.662C35.185 146.334 34.7707 145.875 34.4757 145.285C34.1807 144.695 34.0332 144.005 34.0332 143.217C34.0332 142.424 34.1807 141.732 34.4757 141.138C34.7707 140.545 35.185 140.085 35.7186 139.756C36.2522 139.428 36.877 139.264 37.5929 139.264C38.3088 139.264 38.9335 139.428 39.4672 139.756C40.0008 140.085 40.4151 140.545 40.71 141.138C41.005 141.732 41.1525 142.424 41.1525 143.217C41.1525 144.005 41.005 144.695 40.71 145.285C40.4151 145.875 40.0008 146.334 39.4672 146.662C38.9335 146.99 38.3088 147.154 37.5929 147.154ZM37.5978 145.906C38.0618 145.906 38.4463 145.784 38.7512 145.538C39.0562 145.293 39.2815 144.967 39.4274 144.559C39.5765 144.151 39.6511 143.702 39.6511 143.212C39.6511 142.724 39.5765 142.277 39.4274 141.869C39.2815 141.458 39.0562 141.129 38.7512 140.88C38.4463 140.631 38.0618 140.507 37.5978 140.507C37.1305 140.507 36.7427 140.631 36.4345 140.88C36.1296 141.129 35.9025 141.458 35.7534 141.869C35.6075 142.277 35.5346 142.724 35.5346 143.212C35.5346 143.702 35.6075 144.151 35.7534 144.559C35.9025 144.967 36.1296 145.293 36.4345 145.538C36.7427 145.784 37.1305 145.906 37.5978 145.906ZM44.2983 142.466V147H42.8118V139.364H44.2386V140.607H44.3331C44.5088 140.202 44.7839 139.877 45.1584 139.632C45.5362 139.387 46.0118 139.264 46.5852 139.264C47.1056 139.264 47.5613 139.374 47.9524 139.592C48.3435 139.808 48.6468 140.129 48.8622 140.557C49.0777 140.984 49.1854 141.513 49.1854 142.143V147H47.6989V142.322C47.6989 141.768 47.5547 141.336 47.2663 141.024C46.978 140.709 46.5819 140.552 46.0781 140.552C45.7334 140.552 45.4268 140.626 45.1584 140.776C44.8932 140.925 44.6828 141.143 44.527 141.432C44.3745 141.717 44.2983 142.062 44.2983 142.466ZM54.4702 147.154C53.7178 147.154 53.0698 146.993 52.5263 146.672C51.986 146.347 51.5684 145.891 51.2734 145.305C50.9818 144.715 50.8359 144.024 50.8359 143.232C50.8359 142.449 50.9818 141.76 51.2734 141.163C51.5684 140.567 51.9794 140.101 52.5064 139.766C53.0367 139.432 53.6565 139.264 54.3658 139.264C54.7966 139.264 55.2143 139.335 55.6186 139.478C56.023 139.621 56.3859 139.844 56.7074 140.149C57.0289 140.454 57.2824 140.85 57.468 141.337C57.6536 141.821 57.7464 142.41 57.7464 143.102V143.629H51.6761V142.516H56.2898C56.2898 142.125 56.2102 141.778 56.0511 141.477C55.892 141.172 55.6683 140.931 55.38 140.756C55.0949 140.58 54.7602 140.492 54.3757 140.492C53.9581 140.492 53.5935 140.595 53.282 140.8C52.9737 141.003 52.7351 141.268 52.5661 141.596C52.4003 141.921 52.3175 142.274 52.3175 142.655V143.525C52.3175 144.035 52.407 144.469 52.5859 144.827C52.7682 145.185 53.0218 145.459 53.3466 145.648C53.6714 145.833 54.0509 145.926 54.4851 145.926C54.7668 145.926 55.0237 145.886 55.2557 145.807C55.4877 145.724 55.6882 145.601 55.8572 145.439C56.0263 145.277 56.1555 145.076 56.245 144.837L57.652 145.091C57.5393 145.505 57.3371 145.868 57.0455 146.18C56.7571 146.488 56.3942 146.728 55.9567 146.901C55.5225 147.07 55.027 147.154 54.4702 147.154ZM60.3752 147.094C60.1034 147.094 59.8697 146.998 59.6742 146.806C59.4786 146.611 59.3809 146.375 59.3809 146.1C59.3809 145.828 59.4786 145.596 59.6742 145.404C59.8697 145.209 60.1034 145.111 60.3752 145.111C60.647 145.111 60.8806 145.209 61.0762 145.404C61.2717 145.596 61.3695 145.828 61.3695 146.1C61.3695 146.282 61.3231 146.45 61.2303 146.602C61.1408 146.751 61.0215 146.871 60.8723 146.96C60.7232 147.05 60.5575 147.094 60.3752 147.094ZM60.3752 141.536C60.1034 141.536 59.8697 141.438 59.6742 141.243C59.4786 141.047 59.3809 140.814 59.3809 140.542C59.3809 140.27 59.4786 140.038 59.6742 139.846C59.8697 139.65 60.1034 139.553 60.3752 139.553C60.647 139.553 60.8806 139.65 61.0762 139.846C61.2717 140.038 61.3695 140.27 61.3695 140.542C61.3695 140.724 61.3231 140.892 61.2303 141.044C61.1408 141.193 61.0215 141.312 60.8723 141.402C60.7232 141.491 60.5575 141.536 60.3752 141.536Z" fill="white"/>
<path d="M113.536 141.909C113.536 140.716 113.687 139.589 113.989 138.528C114.29 137.468 114.723 136.473 115.286 135.545H116.092C115.85 135.937 115.628 136.379 115.425 136.873C115.227 137.367 115.054 137.894 114.908 138.454C114.763 139.014 114.65 139.587 114.57 140.174C114.491 140.757 114.451 141.336 114.451 141.909C114.451 142.675 114.521 143.447 114.66 144.226C114.799 145.005 114.991 145.744 115.237 146.443C115.485 147.143 115.77 147.752 116.092 148.273H115.286C114.723 147.341 114.29 146.345 113.989 145.285C113.687 144.224 113.536 143.099 113.536 141.909ZM120.99 145.071V138.772H121.84V145.071H120.99ZM118.265 142.347V141.496H124.564V142.347H118.265ZM130.253 147.139C129.604 147.139 129.025 147.017 128.518 146.771C128.011 146.526 127.613 146.191 127.325 145.767C127.037 145.339 126.892 144.857 126.892 144.32C126.892 143.899 126.98 143.507 127.156 143.142C127.332 142.774 127.574 142.466 127.882 142.217C128.19 141.965 128.536 141.801 128.921 141.725V141.67C128.42 141.525 128.018 141.238 127.713 140.81C127.408 140.379 127.257 139.891 127.26 139.344C127.257 138.837 127.386 138.383 127.648 137.982C127.91 137.58 128.266 137.264 128.717 137.032C129.171 136.797 129.683 136.679 130.253 136.679C130.82 136.679 131.329 136.797 131.779 137.032C132.23 137.264 132.587 137.58 132.848 137.982C133.114 138.383 133.248 138.837 133.251 139.344C133.248 139.887 133.094 140.376 132.789 140.81C132.484 141.241 132.083 141.528 131.586 141.67V141.725C131.97 141.798 132.315 141.96 132.62 142.212C132.925 142.464 133.167 142.774 133.346 143.142C133.525 143.507 133.614 143.899 133.614 144.32C133.614 144.857 133.468 145.339 133.176 145.767C132.888 146.191 132.49 146.526 131.983 146.771C131.48 147.017 130.903 147.139 130.253 147.139ZM130.253 146.304C130.737 146.304 131.161 146.218 131.526 146.045C131.894 145.87 132.181 145.629 132.386 145.325C132.595 145.02 132.699 144.67 132.699 144.276C132.699 143.868 132.592 143.505 132.376 143.187C132.161 142.865 131.869 142.612 131.501 142.426C131.133 142.237 130.717 142.143 130.253 142.143C129.789 142.143 129.372 142.237 129 142.426C128.632 142.612 128.341 142.865 128.125 143.187C127.913 143.505 127.807 143.868 127.807 144.276C127.807 144.67 127.908 145.02 128.11 145.325C128.316 145.629 128.603 145.87 128.971 146.045C129.342 146.218 129.769 146.304 130.253 146.304ZM130.253 141.347C130.651 141.347 131.007 141.263 131.322 141.094C131.637 140.925 131.886 140.694 132.068 140.403C132.253 140.108 132.348 139.773 132.351 139.398C132.348 139.027 132.255 138.699 132.073 138.414C131.891 138.126 131.642 137.902 131.327 137.743C131.016 137.58 130.658 137.499 130.253 137.499C129.849 137.499 129.488 137.58 129.169 137.743C128.855 137.902 128.606 138.126 128.424 138.414C128.245 138.699 128.157 139.027 128.16 139.398C128.157 139.773 128.246 140.108 128.429 140.403C128.614 140.694 128.864 140.925 129.179 141.094C129.498 141.263 129.855 141.347 130.253 141.347ZM135.435 144.812V144.057L139.974 136.818H140.531V138.086H140.118L136.474 143.913V143.977H142.425V144.812H135.435ZM140.188 147V144.574V144.226V136.818H141.073V147H140.188ZM146.625 141.909C146.625 143.102 146.474 144.229 146.172 145.29C145.871 146.35 145.438 147.345 144.875 148.273H144.069C144.311 147.882 144.532 147.439 144.73 146.945C144.933 146.451 145.107 145.924 145.252 145.364C145.398 144.804 145.511 144.231 145.591 143.644C145.67 143.058 145.71 142.479 145.71 141.909C145.71 141.143 145.64 140.371 145.501 139.592C145.362 138.813 145.168 138.074 144.919 137.375C144.674 136.676 144.391 136.066 144.069 135.545H144.875C145.438 136.477 145.871 137.473 146.172 138.533C146.474 139.594 146.625 140.719 146.625 141.909ZM153.233 147V146.319L156.559 142.58C156.993 142.09 157.343 141.67 157.608 141.322C157.873 140.974 158.066 140.653 158.185 140.358C158.307 140.063 158.369 139.756 158.369 139.438C158.369 139.05 158.278 138.712 158.095 138.424C157.916 138.132 157.669 137.905 157.355 137.743C157.04 137.58 156.685 137.499 156.291 137.499C155.873 137.499 155.507 137.589 155.192 137.768C154.88 137.947 154.638 138.192 154.466 138.504C154.294 138.815 154.208 139.173 154.208 139.577H153.318C153.318 139.014 153.447 138.515 153.705 138.081C153.967 137.643 154.324 137.3 154.774 137.052C155.228 136.803 155.742 136.679 156.316 136.679C156.882 136.679 157.386 136.802 157.827 137.047C158.268 137.289 158.614 137.619 158.866 138.036C159.118 138.454 159.244 138.921 159.244 139.438C159.244 139.813 159.177 140.176 159.045 140.527C158.916 140.878 158.692 141.269 158.374 141.7C158.056 142.131 157.615 142.658 157.051 143.281L154.526 146.1V146.165H159.562V147H153.233ZM162.071 147L166.71 137.718V137.653H161.365V136.818H167.684V137.693L163.051 147H162.071ZM170.233 147L174.872 137.718V137.653H169.528V136.818H175.846V137.693L171.213 147H170.233ZM185.072 147.139C184.446 147.139 183.886 147.027 183.392 146.801C182.898 146.572 182.507 146.256 182.219 145.852C181.93 145.447 181.778 144.982 181.761 144.455H182.701C182.718 144.826 182.832 145.151 183.044 145.429C183.256 145.704 183.538 145.92 183.889 146.075C184.241 146.228 184.632 146.304 185.062 146.304C185.533 146.304 185.947 146.216 186.305 146.04C186.667 145.865 186.948 145.625 187.151 145.32C187.356 145.011 187.459 144.663 187.459 144.276C187.459 143.865 187.354 143.502 187.146 143.187C186.937 142.872 186.637 142.627 186.246 142.451C185.858 142.275 185.394 142.188 184.854 142.188H184.257V141.352H184.854C185.295 141.352 185.684 141.273 186.022 141.114C186.363 140.951 186.632 140.724 186.827 140.433C187.023 140.141 187.121 139.798 187.121 139.403C187.121 139.029 187.036 138.699 186.867 138.414C186.698 138.129 186.46 137.905 186.151 137.743C185.846 137.58 185.49 137.499 185.082 137.499C184.688 137.499 184.327 137.576 183.999 137.728C183.67 137.88 183.405 138.096 183.203 138.374C183.004 138.653 182.898 138.982 182.885 139.364H181.985C181.998 138.833 182.144 138.368 182.423 137.967C182.704 137.562 183.077 137.247 183.541 137.022C184.009 136.793 184.526 136.679 185.092 136.679C185.692 136.679 186.211 136.802 186.648 137.047C187.086 137.292 187.424 137.619 187.663 138.026C187.905 138.431 188.026 138.876 188.026 139.364C188.026 139.944 187.868 140.441 187.553 140.855C187.238 141.266 186.814 141.551 186.281 141.71V141.775C186.93 141.904 187.441 142.192 187.812 142.64C188.186 143.084 188.374 143.629 188.374 144.276C188.374 144.819 188.231 145.308 187.946 145.742C187.661 146.173 187.27 146.514 186.773 146.766C186.279 147.015 185.712 147.139 185.072 147.139ZM193.718 147.139C193.068 147.139 192.49 147.017 191.983 146.771C191.476 146.526 191.078 146.191 190.79 145.767C190.501 145.339 190.357 144.857 190.357 144.32C190.357 143.899 190.445 143.507 190.621 143.142C190.796 142.774 191.038 142.466 191.347 142.217C191.655 141.965 192.001 141.801 192.386 141.725V141.67C191.885 141.525 191.482 141.238 191.178 140.81C190.873 140.379 190.722 139.891 190.725 139.344C190.722 138.837 190.851 138.383 191.113 137.982C191.375 137.58 191.731 137.264 192.182 137.032C192.636 136.797 193.148 136.679 193.718 136.679C194.285 136.679 194.794 136.797 195.244 137.032C195.695 137.264 196.051 137.58 196.313 137.982C196.578 138.383 196.713 138.837 196.716 139.344C196.713 139.887 196.558 140.376 196.254 140.81C195.949 141.241 195.548 141.528 195.05 141.67V141.725C195.435 141.798 195.78 141.96 196.085 142.212C196.389 142.464 196.631 142.774 196.81 143.142C196.989 143.507 197.079 143.899 197.079 144.32C197.079 144.857 196.933 145.339 196.641 145.767C196.353 146.191 195.955 146.526 195.448 146.771C194.944 147.017 194.368 147.139 193.718 147.139ZM193.718 146.304C194.202 146.304 194.626 146.218 194.991 146.045C195.359 145.87 195.645 145.629 195.851 145.325C196.06 145.02 196.164 144.67 196.164 144.276C196.164 143.868 196.056 143.505 195.841 143.187C195.625 142.865 195.334 142.612 194.966 142.426C194.598 142.237 194.182 142.143 193.718 142.143C193.254 142.143 192.836 142.237 192.465 142.426C192.097 142.612 191.806 142.865 191.59 143.187C191.378 143.505 191.272 143.868 191.272 144.276C191.272 144.67 191.373 145.02 191.575 145.325C191.781 145.629 192.067 145.87 192.435 146.045C192.807 146.218 193.234 146.304 193.718 146.304ZM193.718 141.347C194.116 141.347 194.472 141.263 194.787 141.094C195.102 140.925 195.35 140.694 195.533 140.403C195.718 140.108 195.813 139.773 195.816 139.398C195.813 139.027 195.72 138.699 195.538 138.414C195.355 138.126 195.107 137.902 194.792 137.743C194.48 137.58 194.122 137.499 193.718 137.499C193.314 137.499 192.952 137.58 192.634 137.743C192.319 137.902 192.071 138.126 191.888 138.414C191.71 138.699 191.622 139.027 191.625 139.398C191.622 139.773 191.711 140.108 191.893 140.403C192.079 140.694 192.329 140.925 192.644 141.094C192.962 141.263 193.32 141.347 193.718 141.347ZM202.121 147.139C201.555 147.139 201.047 147.025 200.6 146.796C200.156 146.564 199.801 146.246 199.536 145.842C199.274 145.437 199.135 144.975 199.118 144.455H200.018C200.048 144.995 200.26 145.439 200.655 145.787C201.049 146.132 201.538 146.304 202.121 146.304C202.575 146.304 202.98 146.196 203.334 145.981C203.689 145.762 203.966 145.464 204.165 145.086C204.367 144.705 204.468 144.276 204.468 143.798C204.465 143.301 204.357 142.864 204.145 142.486C203.933 142.105 203.644 141.806 203.28 141.591C202.918 141.375 202.512 141.268 202.062 141.268C201.72 141.264 201.385 141.321 201.057 141.437C200.729 141.553 200.456 141.702 200.237 141.884L199.307 141.765L199.919 136.818H204.95V137.653H200.699L200.292 141.059H200.341C200.567 140.87 200.84 140.716 201.162 140.597C201.487 140.477 201.83 140.418 202.191 140.418C202.791 140.418 203.329 140.562 203.807 140.85C204.287 141.138 204.667 141.536 204.945 142.043C205.227 142.547 205.368 143.127 205.368 143.783C205.368 144.426 205.227 145.001 204.945 145.509C204.667 146.012 204.282 146.41 203.792 146.702C203.305 146.993 202.748 147.139 202.121 147.139ZM210.625 136.818V147H209.695V137.793H209.636L207.249 139.379V138.414L209.656 136.818H210.625ZM216.78 136.679C217.204 136.682 217.615 136.768 218.013 136.938C218.414 137.103 218.775 137.372 219.097 137.743C219.418 138.111 219.673 138.601 219.862 139.214C220.051 139.824 220.146 140.575 220.146 141.467C220.146 142.299 220.073 143.061 219.927 143.754C219.781 144.446 219.562 145.046 219.271 145.553C218.982 146.057 218.618 146.448 218.177 146.727C217.74 147.002 217.227 147.139 216.641 147.139C216.094 147.139 215.608 147.025 215.184 146.796C214.763 146.567 214.422 146.251 214.16 145.847C213.898 145.439 213.736 144.968 213.673 144.435H214.588C214.677 144.978 214.896 145.426 215.244 145.777C215.595 146.128 216.061 146.304 216.641 146.304C217.473 146.304 218.119 145.916 218.58 145.141C219.04 144.365 219.271 143.261 219.271 141.83H219.206C219.047 142.128 218.838 142.388 218.58 142.61C218.325 142.832 218.033 143.006 217.705 143.132C217.377 143.255 217.03 143.316 216.666 143.316C216.099 143.316 215.58 143.174 215.11 142.888C214.639 142.6 214.263 142.207 213.981 141.71C213.699 141.21 213.558 140.64 213.558 140C213.558 139.397 213.691 138.843 213.956 138.339C214.225 137.832 214.599 137.428 215.08 137.126C215.564 136.821 216.13 136.672 216.78 136.679ZM216.78 137.514C216.339 137.514 215.943 137.627 215.592 137.852C215.244 138.074 214.967 138.374 214.762 138.752C214.559 139.127 214.458 139.543 214.458 140C214.458 140.461 214.559 140.88 214.762 141.258C214.967 141.632 215.244 141.931 215.592 142.153C215.943 142.371 216.339 142.481 216.78 142.481C217.118 142.481 217.433 142.413 217.725 142.277C218.016 142.138 218.268 141.949 218.48 141.71C218.696 141.472 218.858 141.201 218.968 140.9C219.08 140.595 219.125 140.275 219.102 139.94C219.062 139.476 218.938 139.062 218.729 138.697C218.523 138.33 218.252 138.041 217.914 137.832C217.579 137.62 217.201 137.514 216.78 137.514ZM222.005 144.812V144.057L226.544 136.818H227.101V138.086H226.688L223.044 143.913V143.977H228.995V144.812H222.005ZM226.758 147V144.574V144.226V136.818H227.643V147H226.758ZM234.018 136.818V147H233.088V137.793H233.028L230.642 139.379V138.414L233.048 136.818H234.018Z" fill="white"/>
<path d="M17.1186 180V169.818H18.6548V174.243H23.7308V169.818H25.272V180H23.7308V175.56H18.6548V180H17.1186ZM30.6065 180.154C29.8906 180.154 29.2659 179.99 28.7322 179.662C28.1986 179.334 27.7843 178.875 27.4893 178.285C27.1944 177.695 27.0469 177.005 27.0469 176.217C27.0469 175.424 27.1944 174.732 27.4893 174.138C27.7843 173.545 28.1986 173.085 28.7322 172.756C29.2659 172.428 29.8906 172.264 30.6065 172.264C31.3224 172.264 31.9472 172.428 32.4808 172.756C33.0144 173.085 33.4287 173.545 33.7237 174.138C34.0187 174.732 34.1662 175.424 34.1662 176.217C34.1662 177.005 34.0187 177.695 33.7237 178.285C33.4287 178.875 33.0144 179.334 32.4808 179.662C31.9472 179.99 31.3224 180.154 30.6065 180.154ZM30.6115 178.906C31.0755 178.906 31.46 178.784 31.7649 178.538C32.0698 178.293 32.2952 177.967 32.4411 177.559C32.5902 177.151 32.6648 176.702 32.6648 176.212C32.6648 175.724 32.5902 175.277 32.4411 174.869C32.2952 174.458 32.0698 174.129 31.7649 173.88C31.46 173.631 31.0755 173.507 30.6115 173.507C30.1442 173.507 29.7564 173.631 29.4482 173.88C29.1432 174.129 28.9162 174.458 28.767 174.869C28.6212 175.277 28.5483 175.724 28.5483 176.212C28.5483 176.702 28.6212 177.151 28.767 177.559C28.9162 177.967 29.1432 178.293 29.4482 178.538C29.7564 178.784 30.1442 178.906 30.6115 178.906ZM39.3901 172.364V173.557H35.2189V172.364H39.3901ZM36.3375 170.534H37.824V177.758C37.824 178.046 37.8671 178.263 37.9533 178.409C38.0395 178.552 38.1505 178.649 38.2864 178.702C38.4256 178.752 38.5764 178.777 38.7388 178.777C38.8581 178.777 38.9625 178.769 39.052 178.752C39.1415 178.736 39.2111 178.722 39.2608 178.712L39.5293 179.94C39.4431 179.973 39.3205 180.007 39.1614 180.04C39.0023 180.076 38.8034 180.096 38.5648 180.099C38.1737 180.106 37.8091 180.036 37.4711 179.891C37.133 179.745 36.8596 179.519 36.6507 179.214C36.4419 178.91 36.3375 178.527 36.3375 178.066V170.534ZM42.685 169.818V180H41.1985V169.818H42.685ZM44.6848 180V172.364H46.1713V180H44.6848ZM45.4355 171.185C45.177 171.185 44.955 171.099 44.7694 170.927C44.5871 170.751 44.4959 170.542 44.4959 170.3C44.4959 170.055 44.5871 169.846 44.7694 169.674C44.955 169.498 45.177 169.411 45.4355 169.411C45.6941 169.411 45.9145 169.498 46.0968 169.674C46.2824 169.846 46.3752 170.055 46.3752 170.3C46.3752 170.542 46.2824 170.751 46.0968 170.927C45.9145 171.099 45.6941 171.185 45.4355 171.185ZM49.6577 175.466V180H48.1712V172.364H49.598V173.607H49.6925C49.8681 173.202 50.1432 172.877 50.5178 172.632C50.8956 172.387 51.3712 172.264 51.9446 172.264C52.465 172.264 52.9207 172.374 53.3118 172.592C53.7029 172.808 54.0062 173.129 54.2216 173.557C54.437 173.984 54.5447 174.513 54.5447 175.143V180H53.0582V175.322C53.0582 174.768 52.9141 174.336 52.6257 174.024C52.3374 173.709 51.9413 173.552 51.4375 173.552C51.0928 173.552 50.7862 173.626 50.5178 173.776C50.2526 173.925 50.0421 174.143 49.8864 174.432C49.7339 174.717 49.6577 175.062 49.6577 175.466ZM59.8295 180.154C59.0772 180.154 58.4292 179.993 57.8857 179.672C57.3454 179.347 56.9278 178.891 56.6328 178.305C56.3411 177.715 56.1953 177.024 56.1953 176.232C56.1953 175.449 56.3411 174.76 56.6328 174.163C56.9278 173.567 57.3388 173.101 57.8658 172.766C58.3961 172.432 59.0159 172.264 59.7251 172.264C60.156 172.264 60.5736 172.335 60.978 172.478C61.3823 172.621 61.7453 172.844 62.0668 173.149C62.3883 173.454 62.6418 173.85 62.8274 174.337C63.013 174.821 63.1058 175.41 63.1058 176.102V176.629H57.0355V175.516H61.6491C61.6491 175.125 61.5696 174.778 61.4105 174.477C61.2514 174.172 61.0277 173.931 60.7393 173.756C60.4543 173.58 60.1196 173.492 59.7351 173.492C59.3175 173.492 58.9529 173.595 58.6413 173.8C58.3331 174.003 58.0945 174.268 57.9254 174.596C57.7597 174.921 57.6768 175.274 57.6768 175.655V176.525C57.6768 177.035 57.7663 177.469 57.9453 177.827C58.1276 178.185 58.3812 178.459 58.706 178.648C59.0308 178.833 59.4103 178.926 59.8445 178.926C60.1262 178.926 60.383 178.886 60.6151 178.807C60.8471 178.724 61.0476 178.601 61.2166 178.439C61.3857 178.277 61.5149 178.076 61.6044 177.837L63.0114 178.091C62.8987 178.505 62.6965 178.868 62.4048 179.18C62.1165 179.488 61.7536 179.728 61.3161 179.901C60.8819 180.07 60.3864 180.154 59.8295 180.154ZM65.7346 180.094C65.4628 180.094 65.2291 179.998 65.0336 179.806C64.838 179.611 64.7402 179.375 64.7402 179.1C64.7402 178.828 64.838 178.596 65.0336 178.404C65.2291 178.209 65.4628 178.111 65.7346 178.111C66.0063 178.111 66.24 178.209 66.4355 178.404C66.6311 178.596 66.7289 178.828 66.7289 179.1C66.7289 179.282 66.6825 179.45 66.5897 179.602C66.5002 179.751 66.3809 179.871 66.2317 179.96C66.0826 180.05 65.9168 180.094 65.7346 180.094ZM65.7346 174.536C65.4628 174.536 65.2291 174.438 65.0336 174.243C64.838 174.047 64.7402 173.814 64.7402 173.542C64.7402 173.27 64.838 173.038 65.0336 172.846C65.2291 172.65 65.4628 172.553 65.7346 172.553C66.0063 172.553 66.24 172.65 66.4355 172.846C66.6311 173.038 66.7289 173.27 66.7289 173.542C66.7289 173.724 66.6825 173.892 66.5897 174.044C66.5002 174.193 66.3809 174.312 66.2317 174.402C66.0826 174.491 65.9168 174.536 65.7346 174.536Z" fill="white"/>
<path d="M116.276 169.818V180H115.346V170.793H115.286L112.9 172.379V171.414L115.306 169.818H116.276ZM122.515 180.139C121.865 180.139 121.287 180.017 120.78 179.771C120.273 179.526 119.875 179.191 119.587 178.767C119.298 178.339 119.154 177.857 119.154 177.32C119.154 176.899 119.242 176.507 119.418 176.142C119.593 175.774 119.835 175.466 120.143 175.217C120.452 174.965 120.798 174.801 121.183 174.725V174.67C120.682 174.525 120.279 174.238 119.974 173.81C119.67 173.379 119.519 172.891 119.522 172.344C119.519 171.837 119.648 171.383 119.91 170.982C120.172 170.58 120.528 170.264 120.979 170.032C121.433 169.797 121.945 169.679 122.515 169.679C123.082 169.679 123.59 169.797 124.041 170.032C124.492 170.264 124.848 170.58 125.11 170.982C125.375 171.383 125.509 171.837 125.513 172.344C125.509 172.887 125.355 173.376 125.05 173.81C124.746 174.241 124.344 174.528 123.847 174.67V174.725C124.232 174.798 124.576 174.96 124.881 175.212C125.186 175.464 125.428 175.774 125.607 176.142C125.786 176.507 125.876 176.899 125.876 177.32C125.876 177.857 125.73 178.339 125.438 178.767C125.15 179.191 124.752 179.526 124.245 179.771C123.741 180.017 123.165 180.139 122.515 180.139ZM122.515 179.304C122.999 179.304 123.423 179.218 123.788 179.045C124.156 178.87 124.442 178.629 124.648 178.325C124.857 178.02 124.961 177.67 124.961 177.276C124.961 176.868 124.853 176.505 124.638 176.187C124.422 175.865 124.131 175.612 123.763 175.426C123.395 175.237 122.979 175.143 122.515 175.143C122.051 175.143 121.633 175.237 121.262 175.426C120.894 175.612 120.603 175.865 120.387 176.187C120.175 176.505 120.069 176.868 120.069 177.276C120.069 177.67 120.17 178.02 120.372 178.325C120.578 178.629 120.864 178.87 121.232 179.045C121.603 179.218 122.031 179.304 122.515 179.304ZM122.515 174.347C122.913 174.347 123.269 174.263 123.584 174.094C123.899 173.925 124.147 173.694 124.33 173.403C124.515 173.108 124.61 172.773 124.613 172.398C124.61 172.027 124.517 171.699 124.335 171.414C124.152 171.126 123.904 170.902 123.589 170.743C123.277 170.58 122.919 170.499 122.515 170.499C122.111 170.499 121.749 170.58 121.431 170.743C121.116 170.902 120.868 171.126 120.685 171.414C120.506 171.699 120.419 172.027 120.422 172.398C120.419 172.773 120.508 173.108 120.69 173.403C120.876 173.694 121.126 173.925 121.441 174.094C121.759 174.263 122.117 174.347 122.515 174.347ZM131.102 180.139C130.386 180.139 129.775 179.934 129.268 179.523C128.764 179.108 128.376 178.51 128.104 177.728C127.836 176.946 127.702 176.006 127.702 174.909C127.702 173.815 127.836 172.879 128.104 172.1C128.376 171.318 128.765 170.72 129.273 170.305C129.783 169.888 130.393 169.679 131.102 169.679C131.811 169.679 132.42 169.888 132.927 170.305C133.437 170.72 133.827 171.318 134.095 172.1C134.367 172.879 134.503 173.815 134.503 174.909C134.503 176.006 134.367 176.946 134.095 177.728C133.827 178.51 133.439 179.108 132.932 179.523C132.428 179.934 131.818 180.139 131.102 180.139ZM131.102 179.304C131.888 179.304 132.501 178.921 132.942 178.156C133.382 177.387 133.603 176.304 133.603 174.909C133.603 173.981 133.502 173.189 133.3 172.533C133.101 171.873 132.814 171.369 132.439 171.021C132.068 170.673 131.622 170.499 131.102 170.499C130.323 170.499 129.712 170.887 129.268 171.663C128.823 172.435 128.601 173.517 128.601 174.909C128.601 175.837 128.701 176.629 128.9 177.286C129.102 177.942 129.389 178.442 129.76 178.787C130.134 179.132 130.582 179.304 131.102 179.304ZM139.688 180.139C138.972 180.139 138.361 179.934 137.854 179.523C137.35 179.108 136.962 178.51 136.69 177.728C136.422 176.946 136.287 176.006 136.287 174.909C136.287 173.815 136.422 172.879 136.69 172.1C136.962 171.318 137.351 170.72 137.858 170.305C138.369 169.888 138.979 169.679 139.688 169.679C140.397 169.679 141.006 169.888 141.513 170.305C142.023 170.72 142.412 171.318 142.681 172.1C142.953 172.879 143.089 173.815 143.089 174.909C143.089 176.006 142.953 176.946 142.681 177.728C142.412 178.51 142.025 179.108 141.518 179.523C141.014 179.934 140.404 180.139 139.688 180.139ZM139.688 179.304C140.474 179.304 141.087 178.921 141.528 178.156C141.968 177.387 142.189 176.304 142.189 174.909C142.189 173.981 142.088 173.189 141.885 172.533C141.687 171.873 141.4 171.369 141.025 171.021C140.654 170.673 140.208 170.499 139.688 170.499C138.909 170.499 138.298 170.887 137.854 171.663C137.409 172.435 137.187 173.517 137.187 174.909C137.187 175.837 137.287 176.629 137.486 177.286C137.688 177.942 137.974 178.442 138.346 178.787C138.72 179.132 139.168 179.304 139.688 179.304ZM152.028 180.139C151.461 180.139 150.954 180.025 150.506 179.796C150.062 179.564 149.707 179.246 149.442 178.842C149.18 178.437 149.041 177.975 149.025 177.455H149.925C149.954 177.995 150.166 178.439 150.561 178.787C150.955 179.132 151.444 179.304 152.028 179.304C152.482 179.304 152.886 179.196 153.241 178.981C153.595 178.762 153.872 178.464 154.071 178.086C154.273 177.705 154.374 177.276 154.374 176.798C154.371 176.301 154.263 175.864 154.051 175.486C153.839 175.105 153.55 174.806 153.186 174.591C152.825 174.375 152.419 174.268 151.968 174.268C151.626 174.264 151.292 174.321 150.964 174.437C150.635 174.553 150.362 174.702 150.143 174.884L149.214 174.765L149.825 169.818H154.856V170.653H150.606L150.198 174.059H150.248C150.473 173.87 150.747 173.716 151.068 173.597C151.393 173.477 151.736 173.418 152.097 173.418C152.697 173.418 153.236 173.562 153.713 173.85C154.193 174.138 154.573 174.536 154.851 175.043C155.133 175.547 155.274 176.127 155.274 176.783C155.274 177.426 155.133 178.001 154.851 178.509C154.573 179.012 154.189 179.41 153.698 179.702C153.211 179.993 152.654 180.139 152.028 180.139ZM160.367 180.139C159.801 180.139 159.294 180.025 158.846 179.796C158.402 179.564 158.047 179.246 157.782 178.842C157.52 178.437 157.381 177.975 157.365 177.455H158.264C158.294 177.995 158.506 178.439 158.901 178.787C159.295 179.132 159.784 179.304 160.367 179.304C160.821 179.304 161.226 179.196 161.58 178.981C161.935 178.762 162.212 178.464 162.411 178.086C162.613 177.705 162.714 177.276 162.714 176.798C162.711 176.301 162.603 175.864 162.391 175.486C162.179 175.105 161.89 174.806 161.526 174.591C161.164 174.375 160.758 174.268 160.308 174.268C159.966 174.264 159.632 174.321 159.303 174.437C158.975 174.553 158.702 174.702 158.483 174.884L157.553 174.765L158.165 169.818H163.196V170.653H158.945L158.538 174.059H158.588C158.813 173.87 159.086 173.716 159.408 173.597C159.733 173.477 160.076 173.418 160.437 173.418C161.037 173.418 161.575 173.562 162.053 173.85C162.533 174.138 162.913 174.536 163.191 175.043C163.473 175.547 163.614 176.127 163.614 176.783C163.614 177.426 163.473 178.001 163.191 178.509C162.913 179.012 162.528 179.41 162.038 179.702C161.551 179.993 160.994 180.139 160.367 180.139ZM168.707 180.139C168.14 180.139 167.633 180.025 167.186 179.796C166.742 179.564 166.387 179.246 166.122 178.842C165.86 178.437 165.721 177.975 165.704 177.455H166.604C166.634 177.995 166.846 178.439 167.241 178.787C167.635 179.132 168.124 179.304 168.707 179.304C169.161 179.304 169.566 179.196 169.92 178.981C170.275 178.762 170.552 178.464 170.751 178.086C170.953 177.705 171.054 177.276 171.054 176.798C171.05 176.301 170.943 175.864 170.731 175.486C170.519 175.105 170.23 174.806 169.866 174.591C169.504 174.375 169.098 174.268 168.648 174.268C168.306 174.264 167.971 174.321 167.643 174.437C167.315 174.553 167.042 174.702 166.823 174.884L165.893 174.765L166.505 169.818H171.536V170.653H167.285L166.878 174.059H166.927C167.153 173.87 167.426 173.716 167.748 173.597C168.073 173.477 168.416 173.418 168.777 173.418C169.377 173.418 169.915 173.562 170.393 173.85C170.873 174.138 171.253 174.536 171.531 175.043C171.813 175.547 171.954 176.127 171.954 176.783C171.954 177.426 171.813 178.001 171.531 178.509C171.253 179.012 170.868 179.41 170.378 179.702C169.89 179.993 169.334 180.139 168.707 180.139ZM177.047 180.139C176.48 180.139 175.973 180.025 175.526 179.796C175.082 179.564 174.727 179.246 174.462 178.842C174.2 178.437 174.061 177.975 174.044 177.455H174.944C174.974 177.995 175.186 178.439 175.58 178.787C175.975 179.132 176.464 179.304 177.047 179.304C177.501 179.304 177.905 179.196 178.26 178.981C178.615 178.762 178.892 178.464 179.09 178.086C179.293 177.705 179.394 177.276 179.394 176.798C179.39 176.301 179.283 175.864 179.07 175.486C178.858 175.105 178.57 174.806 178.205 174.591C177.844 174.375 177.438 174.268 176.987 174.268C176.646 174.264 176.311 174.321 175.983 174.437C175.655 174.553 175.382 174.702 175.163 174.884L174.233 174.765L174.845 169.818H179.876V170.653H175.625L175.218 174.059H175.267C175.493 173.87 175.766 173.716 176.088 173.597C176.412 173.477 176.755 173.418 177.117 173.418C177.717 173.418 178.255 173.562 178.732 173.85C179.213 174.138 179.593 174.536 179.871 175.043C180.153 175.547 180.294 176.127 180.294 176.783C180.294 177.426 180.153 178.001 179.871 178.509C179.593 179.012 179.208 179.41 178.718 179.702C178.23 179.993 177.673 180.139 177.047 180.139ZM189.653 180.139C189.026 180.139 188.466 180.027 187.972 179.801C187.478 179.572 187.087 179.256 186.799 178.852C186.51 178.447 186.358 177.982 186.341 177.455H187.281C187.298 177.826 187.412 178.151 187.624 178.429C187.836 178.704 188.118 178.92 188.469 179.075C188.821 179.228 189.212 179.304 189.643 179.304C190.113 179.304 190.528 179.216 190.885 179.04C191.247 178.865 191.528 178.625 191.731 178.32C191.936 178.011 192.039 177.663 192.039 177.276C192.039 176.865 191.934 176.502 191.726 176.187C191.517 175.872 191.217 175.627 190.826 175.451C190.438 175.275 189.974 175.188 189.434 175.188H188.837V174.352H189.434C189.875 174.352 190.264 174.273 190.602 174.114C190.943 173.951 191.212 173.724 191.407 173.433C191.603 173.141 191.701 172.798 191.701 172.403C191.701 172.029 191.616 171.699 191.447 171.414C191.278 171.129 191.04 170.905 190.731 170.743C190.426 170.58 190.07 170.499 189.662 170.499C189.268 170.499 188.907 170.576 188.579 170.728C188.251 170.88 187.985 171.096 187.783 171.374C187.584 171.653 187.478 171.982 187.465 172.364H186.565C186.578 171.833 186.724 171.368 187.003 170.967C187.284 170.562 187.657 170.247 188.121 170.022C188.589 169.793 189.106 169.679 189.672 169.679C190.272 169.679 190.791 169.802 191.229 170.047C191.666 170.292 192.004 170.619 192.243 171.026C192.485 171.431 192.606 171.876 192.606 172.364C192.606 172.944 192.448 173.441 192.133 173.855C191.818 174.266 191.394 174.551 190.861 174.71V174.775C191.51 174.904 192.021 175.192 192.392 175.64C192.766 176.084 192.954 176.629 192.954 177.276C192.954 177.819 192.811 178.308 192.526 178.742C192.241 179.173 191.85 179.514 191.353 179.766C190.859 180.015 190.292 180.139 189.653 180.139ZM198.129 180.139C197.562 180.139 197.055 180.025 196.608 179.796C196.164 179.564 195.809 179.246 195.544 178.842C195.282 178.437 195.143 177.975 195.126 177.455H196.026C196.056 177.995 196.268 178.439 196.662 178.787C197.057 179.132 197.546 179.304 198.129 179.304C198.583 179.304 198.988 179.196 199.342 178.981C199.697 178.762 199.974 178.464 200.172 178.086C200.375 177.705 200.476 177.276 200.476 176.798C200.472 176.301 200.365 175.864 200.153 175.486C199.94 175.105 199.652 174.806 199.287 174.591C198.926 174.375 198.52 174.268 198.069 174.268C197.728 174.264 197.393 174.321 197.065 174.437C196.737 174.553 196.464 174.702 196.245 174.884L195.315 174.765L195.927 169.818H200.958V170.653H196.707L196.3 174.059H196.349C196.575 173.87 196.848 173.716 197.17 173.597C197.494 173.477 197.837 173.418 198.199 173.418C198.799 173.418 199.337 173.562 199.814 173.85C200.295 174.138 200.675 174.536 200.953 175.043C201.235 175.547 201.376 176.127 201.376 176.783C201.376 177.426 201.235 178.001 200.953 178.509C200.675 179.012 200.29 179.41 199.8 179.702C199.312 179.993 198.756 180.139 198.129 180.139Z" fill="white"/>
<defs>
<linearGradient id="paint0_linear_158_783" x1="0" y1="124.5" x2="351" y2="124.5" gradientUnits="userSpaceOnUse">
<stop stop-color="#00A93C"/>
<stop offset="1" stop-color="#24CBFF"/>
</linearGradient>
</defs>
</svg>
