<svg width="100%" viewBox="0 0 351 22" fill="none" xmlns="http://www.w3.org/2000/svg">
<path d="M7.614 4.5C9.15 4.5 10.494 4.782 11.646 5.346C12.81 5.91 13.716 6.702 14.364 7.722C15.012 8.73 15.336 9.906 15.336 11.25C15.336 12.594 15.012 13.776 14.364 14.796C13.716 15.804 12.81 16.59 11.646 17.154C10.494 17.718 9.15 18 7.614 18H1.512V4.5H7.614ZM3.888 17.172L2.574 15.912H7.776C8.808 15.912 9.708 15.72 10.476 15.336C11.256 14.94 11.856 14.394 12.276 13.698C12.708 12.99 12.924 12.174 12.924 11.25C12.924 10.314 12.708 9.498 12.276 8.802C11.856 8.106 11.256 7.566 10.476 7.182C9.708 6.786 8.808 6.588 7.776 6.588H2.574L3.888 5.328V17.172ZM24.6687 18.252C23.1327 18.252 21.7827 17.958 20.6187 17.37C19.4547 16.782 18.5487 15.966 17.9007 14.922C17.2527 13.866 16.9287 12.642 16.9287 11.25C16.9287 9.858 17.2527 8.64 17.9007 7.596C18.5487 6.54 19.4547 5.718 20.6187 5.13C21.7827 4.542 23.1327 4.248 24.6687 4.248C26.2047 4.248 27.5547 4.542 28.7187 5.13C29.8827 5.718 30.7887 6.54 31.4367 7.596C32.0847 8.64 32.4087 9.858 32.4087 11.25C32.4087 12.642 32.0847 13.866 31.4367 14.922C30.7887 15.966 29.8827 16.782 28.7187 17.37C27.5547 17.958 26.2047 18.252 24.6687 18.252ZM24.6687 16.128C25.7607 16.128 26.7027 15.93 27.4947 15.534C28.2867 15.138 28.8987 14.574 29.3307 13.842C29.7747 13.11 29.9967 12.246 29.9967 11.25C29.9967 10.254 29.7747 9.39 29.3307 8.658C28.8987 7.926 28.2867 7.362 27.4947 6.966C26.7027 6.57 25.7607 6.372 24.6687 6.372C23.5887 6.372 22.6467 6.57 21.8427 6.966C21.0507 7.362 20.4327 7.926 19.9887 8.658C19.5567 9.39 19.3407 10.254 19.3407 11.25C19.3407 12.246 19.5567 13.11 19.9887 13.842C20.4327 14.574 21.0507 15.138 21.8427 15.534C22.6467 15.93 23.5887 16.128 24.6687 16.128ZM50.4776 17.1H49.5776L53.7176 4.5H56.2016L51.6296 18H48.6056L44.0516 5.634H45.1676L40.6136 18H37.5896L33.0176 4.5H35.5196L39.6416 17.1L38.7776 17.082L43.3316 4.5H45.9056L50.4776 17.1ZM70.4829 16.56L69.5109 16.668V4.5H71.8149V18H68.7909L59.3229 5.832L60.2769 5.724V18H57.9729V4.5H61.0689L70.4829 16.56ZM77.2064 4.5V16.938L76.1444 15.912H86.3144V18H74.8304V4.5H77.2064ZM94.3484 18.252C92.8124 18.252 91.4624 17.958 90.2984 17.37C89.1344 16.782 88.2284 15.966 87.5804 14.922C86.9324 13.866 86.6084 12.642 86.6084 11.25C86.6084 9.858 86.9324 8.64 87.5804 7.596C88.2284 6.54 89.1344 5.718 90.2984 5.13C91.4624 4.542 92.8124 4.248 94.3484 4.248C95.8844 4.248 97.2344 4.542 98.3984 5.13C99.5624 5.718 100.468 6.54 101.116 7.596C101.764 8.64 102.088 9.858 102.088 11.25C102.088 12.642 101.764 13.866 101.116 14.922C100.468 15.966 99.5624 16.782 98.3984 17.37C97.2344 17.958 95.8844 18.252 94.3484 18.252ZM94.3484 16.128C95.4404 16.128 96.3824 15.93 97.1744 15.534C97.9664 15.138 98.5784 14.574 99.0104 13.842C99.4544 13.11 99.6764 12.246 99.6764 11.25C99.6764 10.254 99.4544 9.39 99.0104 8.658C98.5784 7.926 97.9664 7.362 97.1744 6.966C96.3824 6.57 95.4404 6.372 94.3484 6.372C93.2684 6.372 92.3264 6.57 91.5224 6.966C90.7304 7.362 90.1124 7.926 89.6684 8.658C89.2364 9.39 89.0204 10.254 89.0204 11.25C89.0204 12.246 89.2364 13.11 89.6684 13.842C90.1124 14.574 90.7304 15.138 91.5224 15.534C92.3264 15.93 93.2684 16.128 94.3484 16.128ZM105.458 14.904V12.942H114.89V14.904H105.458ZM111.722 4.5L118.202 18H115.664L109.778 5.4H110.696L104.81 18H102.272L108.752 4.5H111.722ZM125.95 4.5C127.486 4.5 128.83 4.782 129.982 5.346C131.146 5.91 132.052 6.702 132.7 7.722C133.348 8.73 133.672 9.906 133.672 11.25C133.672 12.594 133.348 13.776 132.7 14.796C132.052 15.804 131.146 16.59 129.982 17.154C128.83 17.718 127.486 18 125.95 18H119.848V4.5H125.95ZM122.224 17.172L120.91 15.912H126.112C127.144 15.912 128.044 15.72 128.812 15.336C129.592 14.94 130.192 14.394 130.612 13.698C131.044 12.99 131.26 12.174 131.26 11.25C131.26 10.314 131.044 9.498 130.612 8.802C130.192 8.106 129.592 7.566 128.812 7.182C128.044 6.786 127.144 6.588 126.112 6.588H120.91L122.224 5.328V17.172ZM142.404 10.584H147.894C148.686 10.584 149.31 10.404 149.766 10.044C150.234 9.684 150.468 9.192 150.468 8.568C150.468 7.932 150.234 7.44 149.766 7.092C149.31 6.732 148.686 6.552 147.894 6.552H142.062L143.124 5.22V18H140.748V4.5H148.11C149.058 4.5 149.886 4.674 150.594 5.022C151.314 5.358 151.872 5.832 152.268 6.444C152.676 7.044 152.88 7.752 152.88 8.568C152.88 9.36 152.676 10.062 152.268 10.674C151.872 11.274 151.314 11.748 150.594 12.096C149.886 12.432 149.058 12.6 148.11 12.6H142.404V10.584ZM145.068 11.682H147.858L153.222 18H150.378L145.068 11.682ZM166.12 10.26V12.24H156.688V10.26H166.12ZM158.254 11.25L157.3 17.28L156.166 15.948H166.642V18H154.87L155.95 11.25L154.87 4.5H166.552V6.552H156.166L157.3 5.22L158.254 11.25ZM176.265 4.5C177.273 4.5 178.143 4.68 178.875 5.04C179.619 5.4 180.189 5.904 180.585 6.552C180.993 7.188 181.197 7.926 181.197 8.766C181.197 9.606 180.993 10.35 180.585 10.998C180.189 11.634 179.619 12.132 178.875 12.492C178.143 12.852 177.273 13.032 176.265 13.032H170.199V10.98H176.175C176.991 10.98 177.627 10.782 178.083 10.386C178.551 9.99 178.785 9.45 178.785 8.766C178.785 8.082 178.551 7.542 178.083 7.146C177.627 6.75 176.991 6.552 176.175 6.552H170.433L171.495 5.364V18H169.119V4.5H176.265ZM190.167 18.252C188.631 18.252 187.281 17.958 186.117 17.37C184.953 16.782 184.047 15.966 183.399 14.922C182.751 13.866 182.427 12.642 182.427 11.25C182.427 9.858 182.751 8.64 183.399 7.596C184.047 6.54 184.953 5.718 186.117 5.13C187.281 4.542 188.631 4.248 190.167 4.248C191.703 4.248 193.053 4.542 194.217 5.13C195.381 5.718 196.287 6.54 196.935 7.596C197.583 8.64 197.907 9.858 197.907 11.25C197.907 12.642 197.583 13.866 196.935 14.922C196.287 15.966 195.381 16.782 194.217 17.37C193.053 17.958 191.703 18.252 190.167 18.252ZM190.167 16.128C191.259 16.128 192.201 15.93 192.993 15.534C193.785 15.138 194.397 14.574 194.829 13.842C195.273 13.11 195.495 12.246 195.495 11.25C195.495 10.254 195.273 9.39 194.829 8.658C194.397 7.926 193.785 7.362 192.993 6.966C192.201 6.57 191.259 6.372 190.167 6.372C189.087 6.372 188.145 6.57 187.341 6.966C186.549 7.362 185.931 7.926 185.487 8.658C185.055 9.39 184.839 10.254 184.839 11.25C184.839 12.246 185.055 13.11 185.487 13.842C185.931 14.574 186.549 15.138 187.341 15.534C188.145 15.93 189.087 16.128 190.167 16.128ZM201.871 10.584H207.361C208.153 10.584 208.777 10.404 209.233 10.044C209.701 9.684 209.935 9.192 209.935 8.568C209.935 7.932 209.701 7.44 209.233 7.092C208.777 6.732 208.153 6.552 207.361 6.552H201.529L202.591 5.22V18H200.215V4.5H207.577C208.525 4.5 209.353 4.674 210.061 5.022C210.781 5.358 211.339 5.832 211.735 6.444C212.143 7.044 212.347 7.752 212.347 8.568C212.347 9.36 212.143 10.062 211.735 10.674C211.339 11.274 210.781 11.748 210.061 12.096C209.353 12.432 208.525 12.6 207.577 12.6H201.871V10.584ZM204.535 11.682H207.325L212.689 18H209.845L204.535 11.682ZM218.686 5.598H221.062V18H218.686V5.598ZM213.106 4.5H226.642V6.588H213.106V4.5Z" fill="#24408E"/>
</svg>
