<svg width="100%" viewBox="0 0 1296 98" fill="none" xmlns="http://www.w3.org/2000/svg">
<rect x="0.5" y="0.5" width="1295" height="97" rx="19.5" fill="#24CBFF" fill-opacity="0.2"/>
<rect x="0.5" y="0.5" width="1295" height="97" rx="19.5" stroke="#24CBFF"/>
<path d="M50.1222 42H48.4602L53.267 28.9091H54.9034L59.7102 42H58.0483L54.1364 30.9801H54.0341L50.1222 42ZM50.7358 36.8864H57.4347V38.2926H50.7358V36.8864ZM63.0533 36.0938V42H61.5447V32.1818H63.0021V33.7159H63.13C63.3601 33.2173 63.7095 32.8168 64.1783 32.5142C64.647 32.2074 65.2521 32.054 65.9936 32.054C66.6584 32.054 67.2401 32.1903 67.7386 32.4631C68.2372 32.7315 68.625 33.1406 68.902 33.6903C69.179 34.2358 69.3175 34.9261 69.3175 35.7614V42H67.8089V35.8636C67.8089 35.0923 67.6087 34.4915 67.2081 34.0611C66.8075 33.6264 66.2578 33.4091 65.5589 33.4091C65.0774 33.4091 64.647 33.5135 64.2678 33.7223C63.8928 33.9311 63.5966 34.2358 63.3793 34.6364C63.1619 35.0369 63.0533 35.5227 63.0533 36.0938ZM73.5826 36.0938V42H72.074V32.1818H73.5314V33.7159H73.6593C73.8894 33.2173 74.2388 32.8168 74.7076 32.5142C75.1763 32.2074 75.7814 32.054 76.5229 32.054C77.1877 32.054 77.7694 32.1903 78.2679 32.4631C78.7665 32.7315 79.1543 33.1406 79.4313 33.6903C79.7083 34.2358 79.8468 34.9261 79.8468 35.7614V42H78.3382V35.8636C78.3382 35.0923 78.138 34.4915 77.7374 34.0611C77.3368 33.6264 76.7871 33.4091 76.0882 33.4091C75.6067 33.4091 75.1763 33.5135 74.7971 33.7223C74.4221 33.9311 74.1259 34.2358 73.9086 34.6364C73.6912 35.0369 73.5826 35.5227 73.5826 36.0938ZM88.7908 37.9858V32.1818H90.2994V42H88.7908V40.3381H88.6886C88.4585 40.8366 88.1005 41.2607 87.6147 41.6101C87.1289 41.9553 86.5153 42.1278 85.7738 42.1278C85.1602 42.1278 84.6147 41.9936 84.1374 41.7251C83.6602 41.4524 83.2852 41.0433 83.0124 40.4979C82.7397 39.9482 82.6033 39.2557 82.6033 38.4205V32.1818H84.1119V38.3182C84.1119 39.0341 84.3121 39.6051 84.7127 40.0312C85.1175 40.4574 85.6332 40.6705 86.2596 40.6705C86.6346 40.6705 87.016 40.5746 87.4038 40.3828C87.7958 40.1911 88.1239 39.897 88.3881 39.5007C88.6566 39.1044 88.7908 38.5994 88.7908 37.9858ZM95.9515 42.2301C95.3294 42.2301 94.7647 42.1129 94.2576 41.8786C93.7505 41.6399 93.3478 41.2969 93.0495 40.8494C92.7512 40.3977 92.6021 39.8523 92.6021 39.2131C92.6021 38.6506 92.7129 38.1946 92.9345 37.8452C93.1561 37.4915 93.4522 37.2145 93.823 37.0142C94.1937 36.8139 94.6028 36.6648 95.0502 36.5668C95.502 36.4645 95.9558 36.3835 96.4118 36.3239C97.0083 36.2472 97.492 36.1896 97.8627 36.1513C98.2377 36.1087 98.5105 36.0384 98.6809 35.9403C98.8556 35.8423 98.943 35.6719 98.943 35.429V35.3778C98.943 34.7472 98.7704 34.2571 98.4252 33.9077C98.0843 33.5582 97.5666 33.3835 96.872 33.3835C96.1518 33.3835 95.5872 33.5412 95.1781 33.8565C94.769 34.1719 94.4814 34.5085 94.3152 34.8665L92.8833 34.3551C93.139 33.7585 93.4799 33.294 93.9061 32.9616C94.3365 32.625 94.8052 32.3906 95.3123 32.2585C95.8237 32.1222 96.3265 32.054 96.8208 32.054C97.1362 32.054 97.4984 32.0923 97.9075 32.169C98.3208 32.2415 98.7193 32.3928 99.1028 32.6229C99.4906 32.853 99.8123 33.2003 100.068 33.6648C100.324 34.1293 100.452 34.7514 100.452 35.5312V42H98.943V40.6705H98.8663C98.764 40.8835 98.5936 41.1115 98.3549 41.3544C98.1163 41.5973 97.7988 41.804 97.4025 41.9744C97.0062 42.1449 96.5226 42.2301 95.9515 42.2301ZM96.1816 40.875C96.7782 40.875 97.2811 40.7578 97.6902 40.5234C98.1035 40.2891 98.4146 39.9865 98.6234 39.6158C98.8365 39.245 98.943 38.8551 98.943 38.446V37.0653C98.8791 37.142 98.7385 37.2124 98.5211 37.2763C98.3081 37.3359 98.0609 37.3892 97.7797 37.4361C97.5027 37.4787 97.2321 37.517 96.9679 37.5511C96.7079 37.581 96.497 37.6065 96.3351 37.6278C95.943 37.679 95.5765 37.7621 95.2356 37.8771C94.899 37.9879 94.6262 38.1562 94.4174 38.3821C94.2129 38.6037 94.1106 38.9062 94.1106 39.2898C94.1106 39.8139 94.3045 40.2102 94.6923 40.4787C95.0843 40.7429 95.5808 40.875 96.1816 40.875ZM104.713 28.9091V42H103.205V28.9091H104.713ZM112.743 42V28.9091H117.167C118.189 28.9091 119.029 29.0838 119.685 29.4332C120.341 29.7784 120.827 30.2536 121.143 30.8587C121.458 31.4638 121.616 32.152 121.616 32.9233C121.616 33.6946 121.458 34.3786 121.143 34.9751C120.827 35.5717 120.344 36.0405 119.692 36.3814C119.04 36.718 118.206 36.8864 117.192 36.8864H113.613V35.4545H117.141C117.84 35.4545 118.403 35.3523 118.829 35.1477C119.259 34.9432 119.57 34.6534 119.762 34.2784C119.958 33.8991 120.056 33.4474 120.056 32.9233C120.056 32.3991 119.958 31.9411 119.762 31.549C119.566 31.157 119.253 30.8544 118.822 30.6413C118.392 30.424 117.823 30.3153 117.116 30.3153H114.329V42H112.743ZM118.905 36.1193L122.127 42H120.286L117.116 36.1193H118.905ZM128.064 42.2045C127.118 42.2045 126.301 41.9957 125.615 41.5781C124.934 41.1562 124.407 40.5682 124.037 39.8139C123.67 39.0554 123.487 38.1733 123.487 37.1676C123.487 36.1619 123.67 35.2756 124.037 34.5085C124.407 33.7372 124.923 33.1364 125.583 32.706C126.248 32.2713 127.024 32.054 127.91 32.054C128.422 32.054 128.926 32.1392 129.425 32.3097C129.924 32.4801 130.377 32.7571 130.787 33.1406C131.196 33.5199 131.522 34.0227 131.765 34.6491C132.007 35.2756 132.129 36.0469 132.129 36.9631V37.6023H124.561V36.2983H130.595C130.595 35.7443 130.484 35.25 130.262 34.8153C130.045 34.3807 129.734 34.0376 129.329 33.7862C128.929 33.5348 128.456 33.4091 127.91 33.4091C127.309 33.4091 126.789 33.5582 126.35 33.8565C125.916 34.1506 125.581 34.5341 125.347 35.0071C125.113 35.4801 124.995 35.9872 124.995 36.5284V37.3977C124.995 38.1392 125.123 38.7678 125.379 39.2834C125.639 39.7947 125.999 40.1847 126.459 40.4531C126.919 40.7173 127.454 40.8494 128.064 40.8494C128.46 40.8494 128.818 40.794 129.137 40.6832C129.461 40.5682 129.74 40.3977 129.975 40.1719C130.209 39.9418 130.39 39.6562 130.518 39.3153L131.975 39.7244C131.822 40.2188 131.564 40.6534 131.202 41.0284C130.84 41.3991 130.392 41.6889 129.86 41.8977C129.327 42.1023 128.728 42.2045 128.064 42.2045ZM134.424 45.6818V32.1818H135.881V33.7415H136.06C136.171 33.571 136.324 33.3537 136.52 33.0895C136.721 32.821 137.006 32.5824 137.377 32.3736C137.752 32.1605 138.259 32.054 138.898 32.054C139.725 32.054 140.453 32.2607 141.084 32.674C141.715 33.0874 142.207 33.6733 142.561 34.4318C142.914 35.1903 143.091 36.0852 143.091 37.1165C143.091 38.1562 142.914 39.0575 142.561 39.8203C142.207 40.5788 141.717 41.1669 141.091 41.5845C140.464 41.9979 139.742 42.2045 138.924 42.2045C138.293 42.2045 137.788 42.1001 137.409 41.8913C137.029 41.6783 136.738 41.4375 136.533 41.169C136.328 40.8963 136.171 40.6705 136.06 40.4915H135.932V45.6818H134.424ZM135.907 37.0909C135.907 37.8324 136.015 38.4865 136.233 39.0533C136.45 39.6158 136.767 40.0568 137.185 40.3764C137.603 40.6918 138.114 40.8494 138.719 40.8494C139.35 40.8494 139.876 40.6832 140.298 40.3509C140.724 40.0142 141.044 39.5625 141.257 38.9957C141.474 38.4247 141.583 37.7898 141.583 37.0909C141.583 36.4006 141.476 35.7784 141.263 35.2244C141.054 34.6662 140.737 34.2251 140.311 33.9013C139.889 33.5732 139.358 33.4091 138.719 33.4091C138.105 33.4091 137.59 33.5646 137.172 33.8757C136.755 34.1825 136.439 34.6129 136.226 35.1669C136.013 35.7166 135.907 36.358 135.907 37.0909ZM149.381 42.2045C148.495 42.2045 147.717 41.9936 147.048 41.5717C146.383 41.1499 145.863 40.5597 145.488 39.8011C145.118 39.0426 144.932 38.1562 144.932 37.142C144.932 36.1193 145.118 35.2266 145.488 34.4638C145.863 33.701 146.383 33.1087 147.048 32.6868C147.717 32.2649 148.495 32.054 149.381 32.054C150.267 32.054 151.043 32.2649 151.708 32.6868C152.377 33.1087 152.897 33.701 153.267 34.4638C153.642 35.2266 153.83 36.1193 153.83 37.142C153.83 38.1562 153.642 39.0426 153.267 39.8011C152.897 40.5597 152.377 41.1499 151.708 41.5717C151.043 41.9936 150.267 42.2045 149.381 42.2045ZM149.381 40.8494C150.054 40.8494 150.608 40.6768 151.043 40.3317C151.478 39.9865 151.799 39.5327 152.008 38.9702C152.217 38.4077 152.321 37.7983 152.321 37.142C152.321 36.4858 152.217 35.8743 152.008 35.3075C151.799 34.7408 151.478 34.2827 151.043 33.9332C150.608 33.5838 150.054 33.4091 149.381 33.4091C148.708 33.4091 148.154 33.5838 147.719 33.9332C147.284 34.2827 146.963 34.7408 146.754 35.3075C146.545 35.8743 146.441 36.4858 146.441 37.142C146.441 37.7983 146.545 38.4077 146.754 38.9702C146.963 39.5327 147.284 39.9865 147.719 40.3317C148.154 40.6768 148.708 40.8494 149.381 40.8494ZM156.133 42V32.1818H157.59V33.6648H157.692C157.871 33.179 158.195 32.7848 158.664 32.4822C159.133 32.1797 159.661 32.0284 160.249 32.0284C160.36 32.0284 160.498 32.0305 160.665 32.0348C160.831 32.0391 160.956 32.0455 161.042 32.054V33.5881C160.991 33.5753 160.873 33.5561 160.69 33.5305C160.511 33.5007 160.322 33.4858 160.121 33.4858C159.644 33.4858 159.218 33.5859 158.843 33.7862C158.472 33.9822 158.178 34.255 157.961 34.6044C157.748 34.9496 157.641 35.3437 157.641 35.7869V42H156.133ZM167.715 32.1818V33.4602H162.627V32.1818H167.715ZM164.11 29.8295H165.618V39.1875C165.618 39.6136 165.68 39.9332 165.804 40.1463C165.932 40.3551 166.094 40.4957 166.29 40.5682C166.49 40.6364 166.701 40.6705 166.922 40.6705C167.089 40.6705 167.225 40.6619 167.331 40.6449C167.438 40.6236 167.523 40.6065 167.587 40.5938L167.894 41.9489C167.792 41.9872 167.649 42.0256 167.466 42.0639C167.282 42.1065 167.05 42.1278 166.769 42.1278C166.343 42.1278 165.925 42.0362 165.516 41.853C165.111 41.6697 164.775 41.3906 164.506 41.0156C164.242 40.6406 164.11 40.1676 164.11 39.5966V29.8295ZM176.836 28.9091V42H175.251V28.9091H176.836ZM180.015 28.9091H181.907L186.356 39.7756H186.509L190.958 28.9091H192.85V42H191.367V32.054H191.239L187.148 42H185.717L181.626 32.054H181.498V42H180.015V28.9091ZM196.029 42V28.9091H203.929V30.3153H197.614V34.7386H203.52V36.1449H197.614V40.5938H204.031V42H196.029ZM207.553 28.9091L210.928 34.3551H211.031L214.406 28.9091H216.272L212.156 35.4545L216.272 42H214.406L211.031 36.6562H210.928L207.553 42H205.687L209.906 35.4545L205.687 28.9091H207.553ZM218.335 42V28.9091H222.759C223.786 28.9091 224.625 29.0945 225.277 29.4652C225.933 29.8317 226.419 30.3281 226.734 30.9545C227.05 31.581 227.207 32.2798 227.207 33.0511C227.207 33.8224 227.05 34.5234 226.734 35.1541C226.423 35.7848 225.942 36.2876 225.29 36.6626C224.638 37.0334 223.803 37.2188 222.784 37.2188H219.614V35.8125H222.733C223.436 35.8125 224.001 35.6911 224.427 35.4482C224.853 35.2053 225.162 34.8771 225.354 34.4638C225.55 34.0462 225.648 33.5753 225.648 33.0511C225.648 32.527 225.55 32.0582 225.354 31.6449C225.162 31.2315 224.851 30.9077 224.42 30.6733C223.99 30.4347 223.419 30.3153 222.707 30.3153H219.92V42H218.335ZM229.761 42V28.9091H231.346V34.7386H238.326V28.9091H239.912V42H238.326V36.1449H231.346V42H229.761ZM243.622 42H241.96L246.767 28.9091H248.403L253.21 42H251.548L247.636 30.9801H247.534L243.622 42ZM244.236 36.8864H250.935V38.2926H244.236V36.8864ZM255.249 42V28.9091H259.673C260.695 28.9091 261.535 29.0838 262.191 29.4332C262.847 29.7784 263.333 30.2536 263.648 30.8587C263.964 31.4638 264.121 32.152 264.121 32.9233C264.121 33.6946 263.964 34.3786 263.648 34.9751C263.333 35.5717 262.849 36.0405 262.197 36.3814C261.545 36.718 260.712 36.8864 259.698 36.8864H256.119V35.4545H259.647C260.346 35.4545 260.908 35.3523 261.335 35.1477C261.765 34.9432 262.076 34.6534 262.268 34.2784C262.464 33.8991 262.562 33.4474 262.562 32.9233C262.562 32.3991 262.464 31.9411 262.268 31.549C262.072 31.157 261.759 30.8544 261.328 30.6413C260.898 30.424 260.329 30.3153 259.621 30.3153H256.835V42H255.249ZM261.411 36.1193L264.633 42H262.792L259.621 36.1193H261.411ZM266.763 28.9091H268.655L273.104 39.7756H273.257L277.706 28.9091H279.598V42H278.115V32.054H277.987L273.896 42H272.465L268.374 32.054H268.246V42H266.763V28.9091ZM293.26 34.7514V36.1577H287.532V34.7514H293.26ZM300.951 42V40.8494L305.272 36.1193C305.779 35.5653 306.197 35.0838 306.525 34.6747C306.853 34.2614 307.096 33.8736 307.253 33.5114C307.415 33.1449 307.496 32.7614 307.496 32.3608C307.496 31.9006 307.385 31.5021 307.164 31.1655C306.947 30.8288 306.648 30.5689 306.269 30.3857C305.89 30.2024 305.464 30.1108 304.991 30.1108C304.488 30.1108 304.049 30.2152 303.674 30.424C303.303 30.6286 303.015 30.9162 302.811 31.2869C302.611 31.6577 302.51 32.0923 302.51 32.5909H301.002C301.002 31.8239 301.179 31.1506 301.532 30.571C301.886 29.9915 302.368 29.5398 302.977 29.2159C303.591 28.892 304.279 28.7301 305.042 28.7301C305.809 28.7301 306.488 28.892 307.081 29.2159C307.673 29.5398 308.138 29.9766 308.474 30.5263C308.811 31.076 308.979 31.6875 308.979 32.3608C308.979 32.8423 308.892 33.3132 308.717 33.7734C308.547 34.2294 308.248 34.7386 307.822 35.3011C307.4 35.8594 306.814 36.5412 306.064 37.3466L303.124 40.4915V40.5938H309.209V42H300.951ZM316.119 42.179C315.156 42.179 314.336 41.9169 313.658 41.3928C312.981 40.8643 312.463 40.0994 312.105 39.098C311.747 38.0923 311.568 36.8778 311.568 35.4545C311.568 34.0398 311.747 32.8317 312.105 31.8303C312.467 30.8246 312.987 30.0575 313.665 29.5291C314.346 28.9964 315.165 28.7301 316.119 28.7301C317.074 28.7301 317.89 28.9964 318.567 29.5291C319.249 30.0575 319.769 30.8246 320.127 31.8303C320.489 32.8317 320.67 34.0398 320.67 35.4545C320.67 36.8778 320.491 38.0923 320.133 39.098C319.775 40.0994 319.258 40.8643 318.58 41.3928C317.903 41.9169 317.082 42.179 316.119 42.179ZM316.119 40.7727C317.074 40.7727 317.815 40.3125 318.344 39.392C318.872 38.4716 319.136 37.1591 319.136 35.4545C319.136 34.321 319.015 33.3558 318.772 32.5589C318.533 31.7621 318.188 31.1548 317.736 30.7372C317.289 30.3196 316.75 30.1108 316.119 30.1108C315.173 30.1108 314.434 30.5774 313.901 31.5107C313.368 32.4396 313.102 33.7543 313.102 35.4545C313.102 36.5881 313.221 37.5511 313.46 38.3438C313.699 39.1364 314.042 39.7393 314.489 40.1527C314.941 40.5661 315.484 40.7727 316.119 40.7727ZM323.099 42V40.8494L327.42 36.1193C327.927 35.5653 328.345 35.0838 328.673 34.6747C329.001 34.2614 329.244 33.8736 329.402 33.5114C329.564 33.1449 329.645 32.7614 329.645 32.3608C329.645 31.9006 329.534 31.5021 329.312 31.1655C329.095 30.8288 328.797 30.5689 328.417 30.3857C328.038 30.2024 327.612 30.1108 327.139 30.1108C326.636 30.1108 326.197 30.2152 325.822 30.424C325.452 30.6286 325.164 30.9162 324.959 31.2869C324.759 31.6577 324.659 32.0923 324.659 32.5909H323.15C323.15 31.8239 323.327 31.1506 323.681 30.571C324.035 29.9915 324.516 29.5398 325.126 29.2159C325.739 28.892 326.427 28.7301 327.19 28.7301C327.957 28.7301 328.637 28.892 329.229 29.2159C329.822 29.5398 330.286 29.9766 330.623 30.5263C330.959 31.076 331.128 31.6875 331.128 32.3608C331.128 32.8423 331.04 33.3132 330.866 33.7734C330.695 34.2294 330.397 34.7386 329.971 35.3011C329.549 35.8594 328.963 36.5412 328.213 37.3466L325.273 40.4915V40.5938H331.358V42H323.099ZM338.421 42.179C337.577 42.179 336.825 42.0341 336.165 41.7443C335.508 41.4545 334.986 41.0518 334.599 40.5362C334.215 40.0163 334.006 39.4134 333.972 38.7273H335.583C335.617 39.1491 335.762 39.5135 336.018 39.8203C336.273 40.1229 336.608 40.3572 337.021 40.5234C337.434 40.6896 337.893 40.7727 338.395 40.7727C338.958 40.7727 339.456 40.6747 339.891 40.4787C340.326 40.2827 340.667 40.0099 340.914 39.6605C341.161 39.3111 341.285 38.9062 341.285 38.446C341.285 37.9645 341.165 37.5405 340.927 37.174C340.688 36.8033 340.339 36.5135 339.878 36.3047C339.418 36.0959 338.856 35.9915 338.191 35.9915H337.143V34.5852H338.191C338.711 34.5852 339.167 34.4915 339.559 34.304C339.955 34.1165 340.264 33.8523 340.486 33.5114C340.711 33.1705 340.824 32.7699 340.824 32.3097C340.824 31.8665 340.726 31.4808 340.53 31.1527C340.334 30.8246 340.057 30.5689 339.699 30.3857C339.346 30.2024 338.928 30.1108 338.447 30.1108C337.995 30.1108 337.569 30.1939 337.168 30.3601C336.772 30.522 336.448 30.7585 336.197 31.0696C335.945 31.3764 335.809 31.7472 335.787 32.1818H334.253C334.279 31.4957 334.486 30.8949 334.873 30.3793C335.261 29.8594 335.768 29.4545 336.395 29.1648C337.025 28.875 337.718 28.7301 338.472 28.7301C339.282 28.7301 339.976 28.8942 340.556 29.2223C341.135 29.5462 341.581 29.9744 341.892 30.5071C342.203 31.0398 342.358 31.6151 342.358 32.233C342.358 32.9702 342.165 33.5987 341.777 34.1186C341.393 34.6385 340.871 34.9986 340.211 35.1989V35.3011C341.037 35.4375 341.683 35.7891 342.148 36.3558C342.612 36.9183 342.844 37.6151 342.844 38.446C342.844 39.1577 342.65 39.7969 342.263 40.3636C341.879 40.9261 341.355 41.3693 340.69 41.6932C340.025 42.017 339.269 42.179 338.421 42.179Z" fill="#24408E"/>
<path d="M50 64.1818C50.2273 62.8182 50.6117 61.5303 51.1534 60.3182C51.6989 59.1061 52.3826 57.9697 53.2045 56.9091H54.125C53.7765 57.3523 53.4394 57.858 53.1136 58.4261C52.7917 58.9905 52.4943 59.5928 52.2216 60.233C51.9527 60.8731 51.7159 61.5284 51.5114 62.1989C51.3106 62.8655 51.1553 63.5265 51.0455 64.1818C50.9015 65.0568 50.8352 65.9394 50.8466 66.8295C50.858 67.7197 50.9375 68.5644 51.0852 69.3636C51.2367 70.1629 51.447 70.8598 51.7159 71.4545H50.7955C50.3295 70.3902 50.0227 69.2519 49.875 68.0398C49.7311 66.8277 49.7727 65.5417 50 64.1818ZM56.3139 58.3636L58.2514 68.6193H58.3594L63.6889 58.3636H64.8026L58.6378 70H57.5014L55.2003 58.3636H56.3139ZM64.6662 70L66.1207 61.2727H67.1378L65.6832 70H64.6662ZM66.9957 59.7557C66.7836 59.7557 66.6037 59.6837 66.456 59.5398C66.312 59.3958 66.242 59.2216 66.2457 59.017C66.2533 58.8239 66.331 58.6572 66.4787 58.517C66.6302 58.3731 66.8082 58.3011 67.0128 58.3011C67.2249 58.3011 67.4048 58.375 67.5526 58.5227C67.7003 58.6667 67.7704 58.8409 67.7628 59.0455C67.759 59.2386 67.6813 59.4053 67.5298 59.5455C67.3783 59.6856 67.2003 59.7557 66.9957 59.7557ZM71.8636 70.1818C71.0492 70.1818 70.3769 69.9924 69.8466 69.6136C69.3163 69.2311 68.9451 68.7027 68.733 68.0284C68.5208 67.3504 68.4886 66.5701 68.6364 65.6875C68.7841 64.8087 69.0758 64.0284 69.5114 63.3466C69.947 62.661 70.4848 62.125 71.125 61.7386C71.7652 61.3485 72.4602 61.1534 73.2102 61.1534C73.6837 61.1534 74.1269 61.2405 74.5398 61.4148C74.9527 61.5852 75.303 61.8485 75.5909 62.2045C75.8826 62.5568 76.0852 63.0019 76.1989 63.5398C76.3125 64.0739 76.3087 64.7064 76.1875 65.4375L76.108 65.9375H69.2898L69.4318 65.0455H75.2216C75.3163 64.4848 75.2898 63.9811 75.142 63.5341C74.9943 63.0871 74.7424 62.733 74.3864 62.4716C74.0341 62.2064 73.5966 62.0739 73.0739 62.0739C72.5398 62.0739 72.0341 62.2235 71.5568 62.5227C71.0833 62.822 70.6818 63.2121 70.3523 63.6932C70.0265 64.1705 69.8163 64.6799 69.7216 65.2216L69.608 65.892C69.4867 66.6307 69.5019 67.25 69.6534 67.75C69.8049 68.2462 70.0795 68.6212 70.4773 68.875C70.875 69.1288 71.3845 69.2557 72.0057 69.2557C72.4223 69.2557 72.7992 69.1913 73.1364 69.0625C73.4735 68.9337 73.767 68.7614 74.017 68.5455C74.267 68.3258 74.4678 68.0852 74.6193 67.8239L75.5227 68.1364C75.3295 68.5038 75.0568 68.8428 74.7045 69.1534C74.3561 69.464 73.9413 69.714 73.4602 69.9034C72.983 70.089 72.4508 70.1818 71.8636 70.1818ZM82.5469 61.2727L82.4048 62.1534H78.2344L78.3821 61.2727H82.5469ZM80.0241 59.1818H81.0412L79.6207 67.7216C79.5601 68.0852 79.5753 68.3712 79.6662 68.5795C79.7571 68.7841 79.8973 68.9299 80.0866 69.017C80.276 69.1004 80.4844 69.142 80.7116 69.142C80.8442 69.142 80.9579 69.1345 81.0526 69.1193C81.151 69.1004 81.2382 69.0814 81.3139 69.0625L81.3878 69.9773C81.2779 70.0152 81.1473 70.0492 80.9957 70.0795C80.8442 70.1136 80.6624 70.1307 80.4503 70.1307C80.0791 70.1307 79.7363 70.0492 79.4219 69.8864C79.1075 69.7235 78.8688 69.4811 78.706 69.1591C78.5431 68.8371 78.4995 68.4375 78.5753 67.9602L80.0241 59.1818ZM85.304 64.5455L84.4006 70H83.3892L84.8438 61.2727H85.8267L85.5994 62.642H85.6903C85.9631 62.1951 86.34 61.8371 86.821 61.5682C87.3059 61.2955 87.8684 61.1591 88.5085 61.1591C89.0919 61.1591 89.5843 61.2822 89.9858 61.5284C90.3911 61.7708 90.679 62.1288 90.8494 62.6023C91.0237 63.0758 91.054 63.6572 90.9403 64.3466L89.9915 70H88.9801L89.9119 64.4091C90.0294 63.697 89.9252 63.1326 89.5994 62.7159C89.2775 62.2955 88.7794 62.0852 88.1051 62.0852C87.6468 62.0852 87.2206 62.1837 86.8267 62.3807C86.4366 62.5777 86.107 62.8617 85.8381 63.233C85.5691 63.6004 85.3911 64.0379 85.304 64.5455ZM95.0696 70.1989C94.5431 70.1989 94.0791 70.0966 93.6776 69.892C93.276 69.6837 92.9768 69.3845 92.7798 68.9943C92.5866 68.6004 92.5336 68.1231 92.6207 67.5625C92.6965 67.1307 92.8404 66.767 93.0526 66.4716C93.2685 66.1761 93.5412 65.9337 93.8707 65.7443C94.2003 65.5511 94.5791 65.3996 95.0071 65.2898C95.4351 65.1799 95.901 65.0966 96.4048 65.0398C96.8973 64.9792 97.3177 64.9261 97.6662 64.8807C98.0147 64.8352 98.2855 64.7633 98.4787 64.6648C98.6719 64.5663 98.7874 64.4072 98.8253 64.1875L98.8594 63.983C98.9579 63.3883 98.867 62.9205 98.5866 62.5795C98.3063 62.2348 97.8366 62.0625 97.1776 62.0625C96.5488 62.0625 96.0033 62.2027 95.5412 62.483C95.0829 62.7595 94.742 63.0833 94.5185 63.4545L93.6207 63.108C93.8935 62.6307 94.2287 62.25 94.6264 61.9659C95.0241 61.678 95.4503 61.4716 95.9048 61.3466C96.3594 61.2178 96.8082 61.1534 97.2514 61.1534C97.5848 61.1534 97.9238 61.197 98.2685 61.2841C98.6132 61.3712 98.9219 61.5227 99.1946 61.7386C99.4711 61.9508 99.6738 62.2481 99.8026 62.6307C99.9351 63.0095 99.9541 63.4905 99.8594 64.0739L98.8707 70H97.8594L98.0923 68.6193H98.0298C97.8707 68.8769 97.651 69.1269 97.3707 69.3693C97.0942 69.6117 96.7628 69.8106 96.3764 69.9659C95.9901 70.1212 95.5545 70.1989 95.0696 70.1989ZM95.3253 69.2727C95.8632 69.2727 96.3499 69.1534 96.7855 68.9148C97.2249 68.6761 97.5848 68.3598 97.8651 67.9659C98.1491 67.5682 98.331 67.1307 98.4105 66.6534L98.6207 65.392C98.5374 65.464 98.401 65.5284 98.2116 65.5852C98.026 65.642 97.8158 65.6932 97.581 65.7386C97.3499 65.7803 97.117 65.8163 96.8821 65.8466C96.651 65.8769 96.4465 65.9034 96.2685 65.9261C95.7647 65.9867 95.3253 66.0814 94.9503 66.2102C94.5791 66.339 94.2817 66.517 94.0582 66.7443C93.8348 66.9678 93.6946 67.2557 93.6378 67.608C93.5507 68.1383 93.6662 68.5492 93.9844 68.8409C94.3063 69.1288 94.7533 69.2727 95.3253 69.2727ZM101.561 70L103.016 61.2727H103.999L103.771 62.6136H103.862C104.116 62.1629 104.468 61.8087 104.919 61.5511C105.37 61.2898 105.881 61.1591 106.453 61.1591C107.052 61.1591 107.521 61.3011 107.862 61.5852C108.203 61.8655 108.43 62.2519 108.544 62.7443H108.618C108.891 62.2595 109.275 61.875 109.771 61.5909C110.268 61.303 110.834 61.1591 111.47 61.1591C112.277 61.1591 112.874 61.4148 113.26 61.9261C113.646 62.4375 113.758 63.1799 113.595 64.1534L112.618 70H111.607L112.584 64.1534C112.694 63.464 112.605 62.947 112.317 62.6023C112.029 62.2576 111.597 62.0852 111.021 62.0852C110.355 62.0852 109.804 62.2898 109.368 62.6989C108.936 63.1042 108.669 63.6231 108.567 64.2557L107.607 70H106.572L107.567 64.0625C107.661 63.4716 107.576 62.9943 107.311 62.6307C107.05 62.267 106.62 62.0852 106.021 62.0852C105.616 62.0852 105.235 62.1856 104.879 62.3864C104.527 62.5833 104.228 62.858 103.982 63.2102C103.739 63.5587 103.58 63.9583 103.504 64.4091L102.572 70H101.561ZM118.801 70.1818C117.987 70.1818 117.314 69.9924 116.784 69.6136C116.254 69.2311 115.883 68.7027 115.67 68.0284C115.458 67.3504 115.426 66.5701 115.574 65.6875C115.722 64.8087 116.013 64.0284 116.449 63.3466C116.884 62.661 117.422 62.125 118.062 61.7386C118.703 61.3485 119.398 61.1534 120.148 61.1534C120.621 61.1534 121.064 61.2405 121.477 61.4148C121.89 61.5852 122.241 61.8485 122.528 62.2045C122.82 62.5568 123.023 63.0019 123.136 63.5398C123.25 64.0739 123.246 64.7064 123.125 65.4375L123.045 65.9375H116.227L116.369 65.0455H122.159C122.254 64.4848 122.227 63.9811 122.08 63.5341C121.932 63.0871 121.68 62.733 121.324 62.4716C120.972 62.2064 120.534 62.0739 120.011 62.0739C119.477 62.0739 118.972 62.2235 118.494 62.5227C118.021 62.822 117.619 63.2121 117.29 63.6932C116.964 64.1705 116.754 64.6799 116.659 65.2216L116.545 65.892C116.424 66.6307 116.439 67.25 116.591 67.75C116.742 68.2462 117.017 68.6212 117.415 68.875C117.813 69.1288 118.322 69.2557 118.943 69.2557C119.36 69.2557 119.737 69.1913 120.074 69.0625C120.411 68.9337 120.705 68.7614 120.955 68.5455C121.205 68.3258 121.405 68.0852 121.557 67.8239L122.46 68.1364C122.267 68.5038 121.994 68.8428 121.642 69.1534C121.294 69.464 120.879 69.714 120.398 69.9034C119.92 70.089 119.388 70.1818 118.801 70.1818ZM131.592 63.1875L130.621 63.4375C130.571 63.1761 130.481 62.9413 130.348 62.733C130.219 62.5208 130.032 62.3542 129.786 62.233C129.543 62.108 129.225 62.0455 128.831 62.0455C128.24 62.0455 127.731 62.1894 127.303 62.4773C126.875 62.7614 126.625 63.125 126.553 63.5682C126.492 63.9394 126.57 64.2405 126.786 64.4716C127.005 64.7027 127.373 64.8845 127.888 65.017L129.161 65.3409C129.865 65.5227 130.367 65.8068 130.666 66.1932C130.969 66.5795 131.073 67.0682 130.979 67.6591C130.895 68.1515 130.685 68.5871 130.348 68.9659C130.015 69.3447 129.587 69.642 129.064 69.858C128.545 70.0739 127.965 70.1818 127.325 70.1818C126.465 70.1818 125.789 69.9886 125.297 69.6023C124.808 69.2159 124.547 68.6591 124.513 67.9318L125.53 67.7045C125.56 68.2197 125.736 68.6098 126.058 68.875C126.384 69.1402 126.842 69.2727 127.433 69.2727C128.107 69.2727 128.674 69.1193 129.132 68.8125C129.59 68.5057 129.854 68.1269 129.922 67.6761C129.986 67.3201 129.92 67.0246 129.723 66.7898C129.53 66.5549 129.2 66.3807 128.734 66.267L127.376 65.9261C126.645 65.7405 126.128 65.4508 125.825 65.0568C125.526 64.6591 125.426 64.1686 125.524 63.5852C125.604 63.1042 125.804 62.6818 126.126 62.3182C126.448 61.9545 126.856 61.6705 127.348 61.4659C127.84 61.2576 128.378 61.1534 128.962 61.1534C129.765 61.1534 130.376 61.3352 130.797 61.6989C131.217 62.0587 131.482 62.5549 131.592 63.1875ZM136.301 70.1818C135.487 70.1818 134.814 69.9924 134.284 69.6136C133.754 69.2311 133.383 68.7027 133.17 68.0284C132.958 67.3504 132.926 66.5701 133.074 65.6875C133.222 64.8087 133.513 64.0284 133.949 63.3466C134.384 62.661 134.922 62.125 135.562 61.7386C136.203 61.3485 136.898 61.1534 137.648 61.1534C138.121 61.1534 138.564 61.2405 138.977 61.4148C139.39 61.5852 139.741 61.8485 140.028 62.2045C140.32 62.5568 140.523 63.0019 140.636 63.5398C140.75 64.0739 140.746 64.7064 140.625 65.4375L140.545 65.9375H133.727L133.869 65.0455H139.659C139.754 64.4848 139.727 63.9811 139.58 63.5341C139.432 63.0871 139.18 62.733 138.824 62.4716C138.472 62.2064 138.034 62.0739 137.511 62.0739C136.977 62.0739 136.472 62.2235 135.994 62.5227C135.521 62.822 135.119 63.2121 134.79 63.6932C134.464 64.1705 134.254 64.6799 134.159 65.2216L134.045 65.892C133.924 66.6307 133.939 67.25 134.091 67.75C134.242 68.2462 134.517 68.6212 134.915 68.875C135.313 69.1288 135.822 69.2557 136.443 69.2557C136.86 69.2557 137.237 69.1913 137.574 69.0625C137.911 68.9337 138.205 68.7614 138.455 68.5455C138.705 68.3258 138.905 68.0852 139.057 67.8239L139.96 68.1364C139.767 68.5038 139.494 68.8428 139.142 69.1534C138.794 69.464 138.379 69.714 137.898 69.9034C137.42 70.089 136.888 70.1818 136.301 70.1818ZM154.803 61.2727L150.161 70H149.081L147.348 61.2727H148.399L149.763 68.6648H149.837L153.661 61.2727H154.803ZM158.52 70.1818C157.705 70.1818 157.033 69.9924 156.503 69.6136C155.973 69.2311 155.601 68.7027 155.389 68.0284C155.177 67.3504 155.145 66.5701 155.293 65.6875C155.44 64.8087 155.732 64.0284 156.168 63.3466C156.603 62.661 157.141 62.125 157.781 61.7386C158.421 61.3485 159.116 61.1534 159.866 61.1534C160.34 61.1534 160.783 61.2405 161.196 61.4148C161.609 61.5852 161.959 61.8485 162.247 62.2045C162.539 62.5568 162.741 63.0019 162.855 63.5398C162.969 64.0739 162.965 64.7064 162.844 65.4375L162.764 65.9375H155.946L156.088 65.0455H161.878C161.973 64.4848 161.946 63.9811 161.798 63.5341C161.651 63.0871 161.399 62.733 161.043 62.4716C160.69 62.2064 160.253 62.0739 159.73 62.0739C159.196 62.0739 158.69 62.2235 158.213 62.5227C157.74 62.822 157.338 63.2121 157.009 63.6932C156.683 64.1705 156.473 64.6799 156.378 65.2216L156.264 65.892C156.143 66.6307 156.158 67.25 156.31 67.75C156.461 68.2462 156.736 68.6212 157.134 68.875C157.531 69.1288 158.041 69.2557 158.662 69.2557C159.079 69.2557 159.455 69.1913 159.793 69.0625C160.13 68.9337 160.423 68.7614 160.673 68.5455C160.923 68.3258 161.124 68.0852 161.276 67.8239L162.179 68.1364C161.986 68.5038 161.713 68.8428 161.361 69.1534C161.012 69.464 160.598 69.714 160.116 69.9034C159.639 70.089 159.107 70.1818 158.52 70.1818ZM164.311 70L165.766 61.2727H166.749L166.521 62.6136H166.595C166.838 62.1742 167.199 61.8201 167.68 61.5511C168.165 61.2784 168.682 61.142 169.232 61.142C169.315 61.142 169.408 61.1439 169.51 61.1477C169.612 61.1477 169.697 61.1515 169.766 61.1591L169.589 62.1875C169.544 62.1799 169.464 62.1686 169.351 62.1534C169.241 62.1383 169.118 62.1307 168.982 62.1307C168.527 62.1307 168.107 62.2273 167.72 62.4205C167.338 62.6098 167.016 62.8731 166.754 63.2102C166.497 63.5473 166.33 63.9318 166.254 64.3636L165.322 70H164.311ZM177.03 63.1875L176.058 63.4375C176.009 63.1761 175.918 62.9413 175.786 62.733C175.657 62.5208 175.469 62.3542 175.223 62.233C174.981 62.108 174.662 62.0455 174.268 62.0455C173.678 62.0455 173.168 62.1894 172.74 62.4773C172.312 62.7614 172.062 63.125 171.99 63.5682C171.929 63.9394 172.007 64.2405 172.223 64.4716C172.443 64.7027 172.81 64.8845 173.325 65.017L174.598 65.3409C175.303 65.5227 175.804 65.8068 176.104 66.1932C176.407 66.5795 176.511 67.0682 176.416 67.6591C176.333 68.1515 176.123 68.5871 175.786 68.9659C175.452 69.3447 175.024 69.642 174.501 69.858C173.982 70.0739 173.403 70.1818 172.763 70.1818C171.903 70.1818 171.227 69.9886 170.734 69.6023C170.246 69.2159 169.984 68.6591 169.95 67.9318L170.967 67.7045C170.998 68.2197 171.174 68.6098 171.496 68.875C171.821 69.1402 172.28 69.2727 172.871 69.2727C173.545 69.2727 174.111 69.1193 174.57 68.8125C175.028 68.5057 175.291 68.1269 175.359 67.6761C175.424 67.3201 175.357 67.0246 175.161 66.7898C174.967 66.5549 174.638 66.3807 174.172 66.267L172.814 65.9261C172.083 65.7405 171.566 65.4508 171.263 65.0568C170.964 64.6591 170.863 64.1686 170.962 63.5852C171.041 63.1042 171.242 62.6818 171.564 62.3182C171.886 61.9545 172.293 61.6705 172.786 61.4659C173.278 61.2576 173.816 61.1534 174.399 61.1534C175.202 61.1534 175.814 61.3352 176.234 61.6989C176.655 62.0587 176.92 62.5549 177.03 63.1875ZM178.244 70L179.699 61.2727H180.716L179.261 70H178.244ZM180.574 59.7557C180.362 59.7557 180.182 59.6837 180.034 59.5398C179.89 59.3958 179.82 59.2216 179.824 59.017C179.831 58.8239 179.909 58.6572 180.057 58.517C180.208 58.3731 180.386 58.3011 180.591 58.3011C180.803 58.3011 180.983 58.375 181.131 58.5227C181.278 58.6667 181.348 58.8409 181.341 59.0455C181.337 59.2386 181.259 59.4053 181.108 59.5455C180.956 59.6856 180.778 59.7557 180.574 59.7557ZM185.368 70.1818C184.603 70.1818 183.959 69.9886 183.436 69.6023C182.913 69.2121 182.544 68.6723 182.328 67.983C182.112 67.2936 182.076 66.4981 182.22 65.5966C182.364 64.7178 182.65 63.9451 183.078 63.2784C183.51 62.608 184.04 62.0871 184.669 61.7159C185.298 61.3409 185.982 61.1534 186.72 61.1534C187.489 61.1534 188.133 61.3485 188.652 61.7386C189.175 62.1288 189.544 62.6686 189.76 63.358C189.98 64.0473 190.018 64.8447 189.874 65.75C189.73 66.625 189.442 67.3958 189.01 68.0625C188.578 68.7254 188.048 69.2443 187.419 69.6193C186.794 69.9943 186.11 70.1818 185.368 70.1818ZM185.379 69.2557C186 69.2557 186.554 69.0909 187.038 68.7614C187.527 68.428 187.93 67.9848 188.249 67.4318C188.567 66.875 188.781 66.2633 188.891 65.5966C188.993 64.9602 188.982 64.375 188.857 63.8409C188.732 63.3068 188.491 62.8788 188.135 62.5568C187.779 62.2348 187.305 62.0739 186.714 62.0739C186.097 62.0739 185.544 62.2424 185.055 62.5795C184.567 62.9129 184.163 63.3598 183.845 63.9205C183.527 64.4773 183.315 65.0871 183.209 65.75C183.103 66.3902 183.11 66.9754 183.232 67.5057C183.357 68.036 183.597 68.4602 183.953 68.7784C184.313 69.0966 184.788 69.2557 185.379 69.2557ZM193.304 64.5455L192.401 70H191.389L192.844 61.2727H193.827L193.599 62.642H193.69C193.963 62.1951 194.34 61.8371 194.821 61.5682C195.306 61.2955 195.868 61.1591 196.509 61.1591C197.092 61.1591 197.584 61.2822 197.986 61.5284C198.391 61.7708 198.679 62.1288 198.849 62.6023C199.024 63.0758 199.054 63.6572 198.94 64.3466L197.991 70H196.98L197.912 64.4091C198.029 63.697 197.925 63.1326 197.599 62.7159C197.277 62.2955 196.779 62.0852 196.105 62.0852C195.647 62.0852 195.221 62.1837 194.827 62.3807C194.437 62.5777 194.107 62.8617 193.838 63.233C193.569 63.6004 193.391 64.0379 193.304 64.5455ZM203.928 65.0909C203.7 66.4545 203.314 67.7424 202.768 68.9545C202.227 70.1667 201.545 71.303 200.723 72.3636H199.803C200.155 71.9167 200.492 71.411 200.814 70.8466C201.136 70.2822 201.431 69.6799 201.7 69.0398C201.973 68.3996 202.21 67.7443 202.411 67.0739C202.615 66.4034 202.772 65.7424 202.882 65.0909C203.026 64.2159 203.092 63.3333 203.081 62.4432C203.07 61.553 202.988 60.7083 202.837 59.9091C202.689 59.1098 202.481 58.4129 202.212 57.8182H203.132C203.598 58.8826 203.903 60.0208 204.047 61.233C204.195 62.4451 204.155 63.7311 203.928 65.0909Z" fill="black"/>
</svg>
