<svg width="100%" viewBox="0 0 351 139" fill="none" xmlns="http://www.w3.org/2000/svg">
<rect x="0.5" y="0.5" width="350" height="138" rx="13.5" fill="#24CBFF" fill-opacity="0.2"/>
<rect x="0.5" y="0.5" width="350" height="138" rx="13.5" stroke="#24CBFF"/>
<path d="M17.8864 39H16.4091L20.6818 27.3636H22.1364L26.4091 39H24.9318L21.4545 29.2045H21.3636L17.8864 39ZM18.4318 34.4545H24.3864V35.7045H18.4318V34.4545ZM29.3807 33.75V39H28.0398V30.2727H29.3352V31.6364H29.4489C29.6534 31.1932 29.964 30.8371 30.3807 30.5682C30.7973 30.2955 31.3352 30.1591 31.9943 30.1591C32.5852 30.1591 33.1023 30.2803 33.5455 30.5227C33.9886 30.7614 34.3333 31.125 34.5795 31.6136C34.8258 32.0985 34.9489 32.7121 34.9489 33.4545V39H33.608V33.5455C33.608 32.8598 33.4299 32.3258 33.0739 31.9432C32.7178 31.5568 32.2292 31.3636 31.608 31.3636C31.1799 31.3636 30.7973 31.4564 30.4602 31.642C30.1269 31.8277 29.8636 32.0985 29.6705 32.4545C29.4773 32.8106 29.3807 33.2424 29.3807 33.75ZM38.7401 33.75V39H37.3991V30.2727H38.6946V31.6364H38.8082C39.0128 31.1932 39.3234 30.8371 39.7401 30.5682C40.1567 30.2955 40.6946 30.1591 41.3537 30.1591C41.9446 30.1591 42.4616 30.2803 42.9048 30.5227C43.348 30.7614 43.6927 31.125 43.9389 31.6136C44.1851 32.0985 44.3082 32.7121 44.3082 33.4545V39H42.9673V33.5455C42.9673 32.8598 42.7893 32.3258 42.4332 31.9432C42.0772 31.5568 41.5885 31.3636 40.9673 31.3636C40.5393 31.3636 40.1567 31.4564 39.8196 31.642C39.4863 31.8277 39.223 32.0985 39.0298 32.4545C38.8366 32.8106 38.7401 33.2424 38.7401 33.75ZM52.2585 35.4318V30.2727H53.5994V39H52.2585V37.5227H52.1676C51.9631 37.9659 51.6449 38.3428 51.2131 38.6534C50.7813 38.9602 50.2358 39.1136 49.5767 39.1136C49.0312 39.1136 48.5464 38.9943 48.1222 38.7557C47.6979 38.5133 47.3646 38.1496 47.1222 37.6648C46.8797 37.1761 46.7585 36.5606 46.7585 35.8182V30.2727H48.0994V35.7273C48.0994 36.3636 48.2775 36.8712 48.6335 37.25C48.9934 37.6288 49.4517 37.8182 50.0085 37.8182C50.3419 37.8182 50.6809 37.733 51.0256 37.5625C51.3741 37.392 51.6657 37.1307 51.9006 36.7784C52.1392 36.4261 52.2585 35.9773 52.2585 35.4318ZM58.6236 39.2045C58.0705 39.2045 57.5687 39.1004 57.1179 38.892C56.6671 38.6799 56.3092 38.375 56.044 37.9773C55.7789 37.5758 55.6463 37.0909 55.6463 36.5227C55.6463 36.0227 55.7448 35.6174 55.9418 35.3068C56.1387 34.9924 56.402 34.7462 56.7315 34.5682C57.0611 34.3902 57.4247 34.2576 57.8224 34.1705C58.224 34.0795 58.6274 34.0076 59.0327 33.9545C59.563 33.8864 59.9929 33.8352 60.3224 33.8011C60.6558 33.7633 60.8982 33.7008 61.0497 33.6136C61.205 33.5265 61.2827 33.375 61.2827 33.1591V33.1136C61.2827 32.553 61.1293 32.1174 60.8224 31.8068C60.5194 31.4962 60.0592 31.3409 59.4418 31.3409C58.8016 31.3409 58.2997 31.4811 57.9361 31.7614C57.5724 32.0417 57.3168 32.3409 57.169 32.6591L55.8963 32.2045C56.1236 31.6742 56.4266 31.2614 56.8054 30.9659C57.188 30.6667 57.6046 30.4583 58.0554 30.3409C58.5099 30.2197 58.9569 30.1591 59.3963 30.1591C59.6766 30.1591 59.9986 30.1932 60.3622 30.2614C60.7296 30.3258 61.0838 30.4602 61.4247 30.6648C61.7694 30.8693 62.0554 31.178 62.2827 31.5909C62.5099 32.0038 62.6236 32.5568 62.6236 33.25V39H61.2827V37.8182H61.2145C61.1236 38.0076 60.9721 38.2102 60.7599 38.4261C60.5478 38.642 60.2656 38.8258 59.9134 38.9773C59.5611 39.1288 59.1312 39.2045 58.6236 39.2045ZM58.8281 38C59.3584 38 59.8054 37.8958 60.169 37.6875C60.5365 37.4792 60.813 37.2102 60.9986 36.8807C61.188 36.5511 61.2827 36.2045 61.2827 35.8409V34.6136C61.2259 34.6818 61.1009 34.7443 60.9077 34.8011C60.7183 34.8542 60.4986 34.9015 60.2486 34.9432C60.0024 34.9811 59.7618 35.0152 59.527 35.0455C59.2959 35.072 59.1084 35.0947 58.9645 35.1136C58.616 35.1591 58.2902 35.233 57.9872 35.3352C57.688 35.4337 57.4455 35.5833 57.2599 35.7841C57.0781 35.9811 56.9872 36.25 56.9872 36.5909C56.9872 37.0568 57.1596 37.4091 57.5043 37.6477C57.8527 37.8826 58.294 38 58.8281 38ZM66.4119 27.3636V39H65.071V27.3636H66.4119ZM73.5497 39V27.3636H77.4815C78.3906 27.3636 79.1368 27.5189 79.7202 27.8295C80.3035 28.1364 80.7353 28.5587 81.0156 29.0966C81.2959 29.6345 81.4361 30.2462 81.4361 30.9318C81.4361 31.6174 81.2959 32.2254 81.0156 32.7557C80.7353 33.286 80.3054 33.7027 79.7259 34.0057C79.1463 34.3049 78.4058 34.4545 77.5043 34.4545H74.3224V33.1818H77.4588C78.08 33.1818 78.58 33.0909 78.9588 32.9091C79.3414 32.7273 79.6179 32.4697 79.7884 32.1364C79.9626 31.7992 80.0497 31.3977 80.0497 30.9318C80.0497 30.4659 79.9626 30.0587 79.7884 29.7102C79.6141 29.3617 79.3357 29.0928 78.9531 28.9034C78.5705 28.7102 78.0649 28.6136 77.4361 28.6136H74.9588V39H73.5497ZM79.027 33.7727L81.8906 39H80.2543L77.4361 33.7727H79.027ZM87.1676 39.1818C86.3267 39.1818 85.6013 38.9962 84.9915 38.625C84.3854 38.25 83.9176 37.7273 83.5881 37.0568C83.2623 36.3826 83.0994 35.5985 83.0994 34.7045C83.0994 33.8106 83.2623 33.0227 83.5881 32.3409C83.9176 31.6553 84.3759 31.1212 84.9631 30.7386C85.554 30.3523 86.2434 30.1591 87.0312 30.1591C87.4858 30.1591 87.9347 30.2348 88.3778 30.3864C88.821 30.5379 89.2244 30.7841 89.5881 31.125C89.9517 31.4621 90.2415 31.9091 90.4574 32.4659C90.6733 33.0227 90.7812 33.7083 90.7812 34.5227V35.0909H84.054V33.9318H89.4176C89.4176 33.4394 89.3191 33 89.1222 32.6136C88.929 32.2273 88.6525 31.9223 88.2926 31.6989C87.9366 31.4754 87.5161 31.3636 87.0312 31.3636C86.4972 31.3636 86.035 31.4962 85.6449 31.7614C85.2585 32.0227 84.9612 32.3636 84.7528 32.7841C84.5445 33.2045 84.4403 33.6553 84.4403 34.1364V34.9091C84.4403 35.5682 84.554 36.1269 84.7812 36.5852C85.0123 37.0398 85.3324 37.3864 85.7415 37.625C86.1506 37.8598 86.6259 37.9773 87.1676 37.9773C87.5199 37.9773 87.8381 37.928 88.1222 37.8295C88.41 37.7273 88.6581 37.5758 88.8665 37.375C89.0748 37.1705 89.2358 36.9167 89.3494 36.6136L90.6449 36.9773C90.5085 37.4167 90.2794 37.803 89.9574 38.1364C89.6354 38.4659 89.2377 38.7235 88.7642 38.9091C88.2907 39.0909 87.7585 39.1818 87.1676 39.1818ZM92.821 42.2727V30.2727H94.1165V31.6591H94.2756C94.3741 31.5076 94.5104 31.3144 94.6847 31.0795C94.8627 30.8409 95.1165 30.6288 95.446 30.4432C95.7794 30.2538 96.2301 30.1591 96.7983 30.1591C97.5331 30.1591 98.1809 30.3428 98.7415 30.7102C99.3021 31.0777 99.7396 31.5985 100.054 32.2727C100.368 32.947 100.526 33.7424 100.526 34.6591C100.526 35.5833 100.368 36.3845 100.054 37.0625C99.7396 37.7367 99.304 38.2595 98.7472 38.6307C98.1903 38.9981 97.5483 39.1818 96.821 39.1818C96.2604 39.1818 95.8116 39.089 95.4744 38.9034C95.1373 38.714 94.8778 38.5 94.696 38.2614C94.5142 38.0189 94.3741 37.8182 94.2756 37.6591H94.1619V42.2727H92.821ZM94.1392 34.6364C94.1392 35.2955 94.2358 35.8769 94.429 36.3807C94.6222 36.8807 94.9044 37.2727 95.2756 37.5568C95.6468 37.8371 96.1013 37.9773 96.6392 37.9773C97.1998 37.9773 97.6676 37.8295 98.0426 37.5341C98.4214 37.2348 98.7055 36.8333 98.8949 36.3295C99.0881 35.822 99.1847 35.2576 99.1847 34.6364C99.1847 34.0227 99.09 33.4697 98.9006 32.9773C98.715 32.4811 98.4328 32.089 98.054 31.8011C97.679 31.5095 97.2074 31.3636 96.6392 31.3636C96.0938 31.3636 95.6354 31.5019 95.2642 31.7784C94.893 32.0511 94.6127 32.4337 94.4233 32.9261C94.2339 33.4148 94.1392 33.9848 94.1392 34.6364ZM106.116 39.1818C105.329 39.1818 104.637 38.9943 104.043 38.6193C103.452 38.2443 102.99 37.7197 102.656 37.0455C102.327 36.3712 102.162 35.5833 102.162 34.6818C102.162 33.7727 102.327 32.9792 102.656 32.3011C102.99 31.6231 103.452 31.0966 104.043 30.7216C104.637 30.3466 105.329 30.1591 106.116 30.1591C106.904 30.1591 107.594 30.3466 108.185 30.7216C108.779 31.0966 109.241 31.6231 109.571 32.3011C109.904 32.9792 110.071 33.7727 110.071 34.6818C110.071 35.5833 109.904 36.3712 109.571 37.0455C109.241 37.7197 108.779 38.2443 108.185 38.6193C107.594 38.9943 106.904 39.1818 106.116 39.1818ZM106.116 37.9773C106.715 37.9773 107.207 37.8239 107.594 37.517C107.98 37.2102 108.266 36.8068 108.452 36.3068C108.637 35.8068 108.73 35.2652 108.73 34.6818C108.73 34.0985 108.637 33.5549 108.452 33.0511C108.266 32.5473 107.98 32.1402 107.594 31.8295C107.207 31.5189 106.715 31.3636 106.116 31.3636C105.518 31.3636 105.026 31.5189 104.639 31.8295C104.253 32.1402 103.967 32.5473 103.781 33.0511C103.596 33.5549 103.503 34.0985 103.503 34.6818C103.503 35.2652 103.596 35.8068 103.781 36.3068C103.967 36.8068 104.253 37.2102 104.639 37.517C105.026 37.8239 105.518 37.9773 106.116 37.9773ZM112.118 39V30.2727H113.413V31.5909H113.504C113.663 31.1591 113.951 30.8087 114.368 30.5398C114.785 30.2708 115.254 30.1364 115.777 30.1364C115.875 30.1364 115.999 30.1383 116.146 30.142C116.294 30.1458 116.406 30.1515 116.482 30.1591V31.5227C116.436 31.5114 116.332 31.4943 116.169 31.4716C116.01 31.4451 115.841 31.4318 115.663 31.4318C115.239 31.4318 114.86 31.5208 114.527 31.6989C114.197 31.8731 113.936 32.1155 113.743 32.4261C113.554 32.733 113.459 33.0833 113.459 33.4773V39H112.118ZM122.413 30.2727V31.4091H117.891V30.2727H122.413ZM119.209 28.1818H120.55V36.5C120.55 36.8788 120.605 37.1629 120.714 37.3523C120.828 37.5379 120.972 37.6629 121.146 37.7273C121.324 37.7879 121.512 37.8182 121.709 37.8182C121.857 37.8182 121.978 37.8106 122.072 37.7955C122.167 37.7765 122.243 37.7614 122.3 37.75L122.572 38.9545C122.482 38.9886 122.355 39.0227 122.192 39.0568C122.029 39.0947 121.822 39.1136 121.572 39.1136C121.194 39.1136 120.822 39.0322 120.459 38.8693C120.099 38.7064 119.8 38.4583 119.561 38.125C119.326 37.7917 119.209 37.3712 119.209 36.8636V28.1818ZM130.521 27.3636V39H129.112V27.3636H130.521ZM133.347 27.3636H135.028L138.983 37.0227H139.119L143.074 27.3636H144.756V39H143.438V30.1591H143.324L139.688 39H138.415L134.778 30.1591H134.665V39H133.347V27.3636ZM147.581 39V27.3636H154.604V28.6136H148.99V32.5455H154.24V33.7955H148.99V37.75H154.695V39H147.581ZM157.825 27.3636L160.825 32.2045H160.916L163.916 27.3636H165.575L161.916 33.1818L165.575 39H163.916L160.916 34.25H160.825L157.825 39H156.166L159.916 33.1818L156.166 27.3636H157.825ZM167.409 39V27.3636H171.341C172.254 27.3636 173 27.5284 173.58 27.858C174.163 28.1837 174.595 28.625 174.875 29.1818C175.155 29.7386 175.295 30.3598 175.295 31.0455C175.295 31.7311 175.155 32.3542 174.875 32.9148C174.598 33.4754 174.17 33.9223 173.591 34.2557C173.011 34.5852 172.269 34.75 171.364 34.75H168.545V33.5H171.318C171.943 33.5 172.445 33.392 172.824 33.1761C173.203 32.9602 173.477 32.6686 173.648 32.3011C173.822 31.9299 173.909 31.5114 173.909 31.0455C173.909 30.5795 173.822 30.1629 173.648 29.7955C173.477 29.428 173.201 29.1402 172.818 28.9318C172.436 28.7197 171.928 28.6136 171.295 28.6136H168.818V39H167.409ZM177.565 39V27.3636H178.974V32.5455H185.179V27.3636H186.588V39H185.179V33.7955H178.974V39H177.565ZM189.886 39H188.409L192.682 27.3636H194.136L198.409 39H196.932L193.455 29.2045H193.364L189.886 39ZM190.432 34.4545H196.386V35.7045H190.432V34.4545ZM200.222 39V27.3636H204.153C205.063 27.3636 205.809 27.5189 206.392 27.8295C206.975 28.1364 207.407 28.5587 207.688 29.0966C207.968 29.6345 208.108 30.2462 208.108 30.9318C208.108 31.6174 207.968 32.2254 207.688 32.7557C207.407 33.286 206.977 33.7027 206.398 34.0057C205.818 34.3049 205.078 34.4545 204.176 34.4545H200.994V33.1818H204.131C204.752 33.1818 205.252 33.0909 205.631 32.9091C206.013 32.7273 206.29 32.4697 206.46 32.1364C206.634 31.7992 206.722 31.3977 206.722 30.9318C206.722 30.4659 206.634 30.0587 206.46 29.7102C206.286 29.3617 206.008 29.0928 205.625 28.9034C205.242 28.7102 204.737 28.6136 204.108 28.6136H201.631V39H200.222ZM205.699 33.7727L208.562 39H206.926L204.108 33.7727H205.699ZM210.456 27.3636H212.138L216.092 37.0227H216.229L220.183 27.3636H221.865V39H220.547V30.1591H220.433L216.797 39H215.524L211.888 30.1591H211.774V39H210.456V27.3636ZM234.009 32.5568V33.8068H228.918V32.5568H234.009ZM240.845 39V37.9773L244.686 33.7727C245.137 33.2803 245.508 32.8523 245.8 32.4886C246.091 32.1212 246.307 31.7765 246.447 31.4545C246.591 31.1288 246.663 30.7879 246.663 30.4318C246.663 30.0227 246.565 29.6686 246.368 29.3693C246.175 29.0701 245.91 28.839 245.572 28.6761C245.235 28.5133 244.857 28.4318 244.436 28.4318C243.989 28.4318 243.599 28.5246 243.266 28.7102C242.936 28.892 242.68 29.1477 242.499 29.4773C242.321 29.8068 242.232 30.1932 242.232 30.6364H240.891C240.891 29.9545 241.048 29.3561 241.362 28.8409C241.677 28.3258 242.105 27.9242 242.646 27.6364C243.192 27.3485 243.804 27.2045 244.482 27.2045C245.163 27.2045 245.768 27.3485 246.294 27.6364C246.821 27.9242 247.233 28.3125 247.533 28.8011C247.832 29.2898 247.982 29.8333 247.982 30.4318C247.982 30.8598 247.904 31.2784 247.749 31.6875C247.597 32.0928 247.332 32.5455 246.953 33.0455C246.578 33.5417 246.057 34.1477 245.391 34.8636L242.777 37.6591V37.75H248.186V39H240.845ZM254.328 39.1591C253.472 39.1591 252.743 38.9261 252.141 38.4602C251.538 37.9905 251.078 37.3106 250.76 36.4205C250.442 35.5265 250.283 34.447 250.283 33.1818C250.283 31.9242 250.442 30.8504 250.76 29.9602C251.082 29.0663 251.544 28.3845 252.146 27.9148C252.752 27.4413 253.48 27.2045 254.328 27.2045C255.177 27.2045 255.902 27.4413 256.504 27.9148C257.11 28.3845 257.572 29.0663 257.891 29.9602C258.213 30.8504 258.374 31.9242 258.374 33.1818C258.374 34.447 258.214 35.5265 257.896 36.4205C257.578 37.3106 257.118 37.9905 256.516 38.4602C255.913 38.9261 255.184 39.1591 254.328 39.1591ZM254.328 37.9091C255.177 37.9091 255.836 37.5 256.305 36.6818C256.775 35.8636 257.01 34.697 257.01 33.1818C257.01 32.1742 256.902 31.3163 256.686 30.608C256.474 29.8996 256.167 29.3598 255.766 28.9886C255.368 28.6174 254.889 28.4318 254.328 28.4318C253.487 28.4318 252.83 28.8466 252.357 29.6761C251.883 30.5019 251.646 31.6705 251.646 33.1818C251.646 34.1894 251.752 35.0455 251.964 35.75C252.177 36.4545 252.482 36.9905 252.879 37.358C253.281 37.7254 253.764 37.9091 254.328 37.9091ZM260.533 39V37.9773L264.374 33.7727C264.824 33.2803 265.196 32.8523 265.487 32.4886C265.779 32.1212 265.995 31.7765 266.135 31.4545C266.279 31.1288 266.351 30.7879 266.351 30.4318C266.351 30.0227 266.252 29.6686 266.055 29.3693C265.862 29.0701 265.597 28.839 265.26 28.6761C264.923 28.5133 264.544 28.4318 264.124 28.4318C263.677 28.4318 263.286 28.5246 262.953 28.7102C262.624 28.892 262.368 29.1477 262.186 29.4773C262.008 29.8068 261.919 30.1932 261.919 30.6364H260.578C260.578 29.9545 260.735 29.3561 261.05 28.8409C261.364 28.3258 261.792 27.9242 262.334 27.6364C262.879 27.3485 263.491 27.2045 264.169 27.2045C264.851 27.2045 265.455 27.3485 265.982 27.6364C266.508 27.9242 266.921 28.3125 267.22 28.8011C267.519 29.2898 267.669 29.8333 267.669 30.4318C267.669 30.8598 267.591 31.2784 267.436 31.6875C267.285 32.0928 267.019 32.5455 266.641 33.0455C266.266 33.5417 265.745 34.1477 265.078 34.8636L262.464 37.6591V37.75H267.874V39H260.533ZM274.152 39.1591C273.402 39.1591 272.733 39.0303 272.146 38.7727C271.563 38.5152 271.099 38.1572 270.754 37.6989C270.413 37.2367 270.228 36.7008 270.197 36.0909H271.629C271.66 36.4659 271.788 36.7898 272.016 37.0625C272.243 37.3314 272.54 37.5398 272.908 37.6875C273.275 37.8352 273.682 37.9091 274.129 37.9091C274.629 37.9091 275.072 37.822 275.459 37.6477C275.845 37.4735 276.148 37.2311 276.368 36.9205C276.588 36.6098 276.697 36.25 276.697 35.8409C276.697 35.4129 276.591 35.036 276.379 34.7102C276.167 34.3807 275.857 34.1231 275.447 33.9375C275.038 33.7519 274.538 33.6591 273.947 33.6591H273.016V32.4091H273.947C274.41 32.4091 274.815 32.3258 275.163 32.1591C275.516 31.9924 275.79 31.7576 275.987 31.4545C276.188 31.1515 276.288 30.7955 276.288 30.3864C276.288 29.9924 276.201 29.6496 276.027 29.358C275.853 29.0663 275.607 28.839 275.288 28.6761C274.974 28.5133 274.603 28.4318 274.175 28.4318C273.773 28.4318 273.394 28.5057 273.038 28.6534C272.686 28.7973 272.398 29.0076 272.175 29.2841C271.951 29.5568 271.83 29.8864 271.811 30.2727H270.447C270.47 29.6629 270.654 29.1288 270.999 28.6705C271.343 28.2083 271.794 27.8485 272.351 27.5909C272.911 27.3333 273.527 27.2045 274.197 27.2045C274.917 27.2045 275.535 27.3504 276.05 27.642C276.565 27.9299 276.961 28.3106 277.237 28.7841C277.514 29.2576 277.652 29.7689 277.652 30.3182C277.652 30.9735 277.48 31.5322 277.135 31.9943C276.794 32.4564 276.33 32.7765 275.743 32.9545V33.0455C276.478 33.1667 277.052 33.4792 277.464 33.983C277.877 34.483 278.084 35.1023 278.084 35.8409C278.084 36.4735 277.911 37.0417 277.567 37.5455C277.226 38.0455 276.76 38.4394 276.169 38.7273C275.578 39.0152 274.906 39.1591 274.152 39.1591Z" fill="#24408E"/>
<path d="M17.3849 51.3182C17.5554 50.2955 17.8438 49.3295 18.25 48.4205C18.6591 47.5114 19.1719 46.6591 19.7884 45.8636H20.4787C20.2173 46.196 19.9645 46.5753 19.7202 47.0014C19.4787 47.4247 19.2557 47.8764 19.0511 48.3565C18.8494 48.8366 18.6719 49.3281 18.5185 49.831C18.3679 50.331 18.2514 50.8267 18.169 51.3182C18.0611 51.9744 18.0114 52.6364 18.0199 53.304C18.0284 53.9716 18.0881 54.6051 18.1989 55.2045C18.3125 55.804 18.4702 56.3267 18.6719 56.7727H17.9815C17.6321 55.9744 17.402 55.1207 17.2912 54.2116C17.1832 53.3026 17.2145 52.3381 17.3849 51.3182ZM20.207 57.4545L21.7156 48.4545H22.4528L22.2482 49.7031H22.3377C22.457 49.5071 22.6119 49.3054 22.8022 49.098C22.9954 48.8906 23.2354 48.7173 23.5224 48.5781C23.8121 48.4361 24.1587 48.3651 24.5621 48.3651C25.1019 48.3651 25.5494 48.5057 25.9045 48.7869C26.2624 49.0682 26.5124 49.4631 26.6545 49.9716C26.7994 50.4801 26.815 51.071 26.7013 51.7443C26.5906 52.4205 26.3789 53.0128 26.0664 53.5213C25.7539 54.0298 25.3718 54.4261 24.9201 54.7102C24.4712 54.9943 23.9798 55.1364 23.4457 55.1364C23.0508 55.1364 22.7312 55.0653 22.4869 54.9233C22.2454 54.7812 22.0607 54.6065 21.9329 54.3991C21.805 54.1889 21.7127 53.9844 21.6559 53.7855H21.5877L20.9741 57.4545H20.207ZM21.9201 51.7315C21.8349 52.2599 21.8349 52.7287 21.9201 53.1378C22.0053 53.544 22.1772 53.8636 22.4357 54.0966C22.6942 54.3267 23.0352 54.4418 23.4585 54.4418C23.8931 54.4418 24.2809 54.3224 24.6218 54.0838C24.9627 53.8423 25.2468 53.517 25.4741 53.108C25.7013 52.6989 25.8576 52.2401 25.9428 51.7315C26.0224 51.2287 26.0195 50.7756 25.9343 50.3722C25.8491 49.9687 25.6786 49.6491 25.4229 49.4134C25.1673 49.1747 24.8192 49.0554 24.3789 49.0554C23.9528 49.0554 23.5692 49.1705 23.2283 49.4006C22.8903 49.6278 22.609 49.9432 22.3846 50.3466C22.1602 50.7472 22.0053 51.2088 21.9201 51.7315ZM29.2592 50.9091L28.5817 55H27.8232L29.272 46.2727H30.0305L29.5021 49.4815H29.5703C29.7749 49.1406 30.0561 48.8707 30.4141 48.6719C30.772 48.4702 31.1996 48.3693 31.6967 48.3693C32.1371 48.3693 32.5092 48.4602 32.8132 48.642C33.12 48.8239 33.3374 49.0923 33.4652 49.4474C33.5959 49.8026 33.6186 50.2401 33.5334 50.7599L32.8217 55H32.0589L32.7578 50.8068C32.8459 50.267 32.7663 49.8423 32.5192 49.5327C32.2749 49.2202 31.8999 49.0639 31.3942 49.0639C31.0476 49.0639 30.7237 49.1378 30.4226 49.2855C30.1243 49.4332 29.8714 49.6463 29.6641 49.9247C29.4595 50.2003 29.3246 50.5284 29.2592 50.9091ZM34.8278 55L35.9187 48.4545H36.6815L35.5906 55H34.8278ZM36.5749 47.3168C36.4158 47.3168 36.2809 47.2628 36.1701 47.1548C36.0621 47.0469 36.0096 46.9162 36.0124 46.7628C36.0181 46.6179 36.0763 46.4929 36.1871 46.3878C36.3008 46.2798 36.4343 46.2259 36.5877 46.2259C36.7468 46.2259 36.8817 46.2812 36.9925 46.392C37.1033 46.5 37.1559 46.6307 37.1502 46.7841C37.1474 46.929 37.0891 47.054 36.9755 47.1591C36.8619 47.2642 36.7283 47.3168 36.5749 47.3168ZM40.2259 55.1364C39.6151 55.1364 39.1108 54.9943 38.7131 54.7102C38.3153 54.4233 38.0369 54.027 37.8778 53.5213C37.7188 53.0128 37.6946 52.4276 37.8054 51.7656C37.9162 51.1065 38.1349 50.5213 38.4616 50.0099C38.7884 49.4957 39.1918 49.0937 39.6719 48.804C40.152 48.5114 40.6733 48.3651 41.2358 48.3651C41.5909 48.3651 41.9233 48.4304 42.233 48.5611C42.5426 48.6889 42.8054 48.8864 43.0213 49.1534C43.2401 49.4176 43.392 49.7514 43.4773 50.1548C43.5625 50.5554 43.5597 51.0298 43.4688 51.5781L43.4091 51.9531H38.2955L38.402 51.2841H42.7443C42.8153 50.8636 42.7955 50.4858 42.6847 50.1506C42.5739 49.8153 42.3849 49.5497 42.1179 49.3537C41.8537 49.1548 41.5256 49.0554 41.1335 49.0554C40.733 49.0554 40.3537 49.1676 39.9957 49.392C39.6406 49.6165 39.3395 49.9091 39.0923 50.2699C38.848 50.6278 38.6903 51.0099 38.6193 51.4162L38.5341 51.919C38.4432 52.473 38.4545 52.9375 38.5682 53.3125C38.6818 53.6847 38.8878 53.9659 39.1861 54.1562C39.4844 54.3466 39.8665 54.4418 40.3324 54.4418C40.6449 54.4418 40.9276 54.3935 41.1804 54.2969C41.4332 54.2003 41.6534 54.071 41.8409 53.9091C42.0284 53.7443 42.179 53.5639 42.2926 53.3679L42.9702 53.6023C42.8253 53.8778 42.6207 54.1321 42.3565 54.3651C42.0952 54.598 41.7841 54.7855 41.4233 54.9276C41.0653 55.0668 40.6662 55.1364 40.2259 55.1364ZM42.3011 47.7045L41.4915 46.4815L40.2855 47.7045H39.5185L39.527 47.6491L41.2486 45.9318H41.8878L43.0511 47.6491L43.0384 47.7045H42.3011ZM46.0053 50.9091L45.3278 55H44.5692L45.6602 48.4545H46.3974L46.2269 49.4815H46.2951C46.4996 49.1463 46.7823 48.8778 47.1431 48.6761C47.5067 48.4716 47.9286 48.3693 48.4087 48.3693C48.8462 48.3693 49.2156 48.4616 49.5167 48.6463C49.8207 48.8281 50.0366 49.0966 50.1644 49.4517C50.2951 49.8068 50.3178 50.2429 50.2326 50.7599L49.521 55H48.7624L49.4613 50.8068C49.5494 50.2727 49.4712 49.8494 49.2269 49.5369C48.9854 49.2216 48.6119 49.0639 48.1062 49.0639C47.7624 49.0639 47.4428 49.1378 47.1474 49.2855C46.8548 49.4332 46.6076 49.6463 46.4059 49.9247C46.2042 50.2003 46.0707 50.5284 46.0053 50.9091ZM55.0511 55L56.5 46.2727H57.2628L56.7003 49.7031H56.7685C56.8849 49.5071 57.0398 49.3054 57.233 49.098C57.429 48.8906 57.6705 48.7173 57.9574 48.5781C58.2443 48.4361 58.5881 48.3651 58.9886 48.3651C59.5256 48.3651 59.973 48.5071 60.331 48.7912C60.6918 49.0724 60.9432 49.4673 61.0852 49.9759C61.2273 50.4815 61.2429 51.071 61.1321 51.7443C61.0185 52.4205 60.8068 53.0128 60.4972 53.5213C60.1875 54.0298 59.8068 54.4261 59.3551 54.7102C58.9034 54.9943 58.4105 55.1364 57.8764 55.1364C57.4787 55.1364 57.1577 55.0653 56.9134 54.9233C56.6719 54.7812 56.4872 54.6065 56.3594 54.3991C56.2344 54.1889 56.1435 53.9844 56.0866 53.7855H55.9929L55.7884 55H55.0511ZM56.3466 51.7315C56.2614 52.2599 56.2614 52.7287 56.3466 53.1378C56.4347 53.544 56.6065 53.8636 56.8622 54.0966C57.1207 54.3267 57.4616 54.4418 57.8849 54.4418C58.3196 54.4418 58.7074 54.3224 59.0483 54.0838C59.392 53.8423 59.6761 53.517 59.9006 53.108C60.1278 52.6989 60.2841 52.2401 60.3693 51.7315C60.4517 51.2287 60.4503 50.7756 60.3651 50.3722C60.2798 49.9687 60.108 49.6491 59.8494 49.4134C59.5909 49.1747 59.2429 49.0554 58.8054 49.0554C58.3793 49.0554 57.9957 49.1705 57.6548 49.4006C57.3168 49.6278 57.0355 49.9432 56.8111 50.3466C56.5866 50.7472 56.4318 51.2088 56.3466 51.7315ZM64.0639 55.1491C63.669 55.1491 63.321 55.0724 63.0199 54.919C62.7188 54.7628 62.4943 54.5384 62.3466 54.2457C62.2017 53.9503 62.1619 53.5923 62.2273 53.1719C62.2841 52.848 62.392 52.5753 62.5511 52.3537C62.7131 52.1321 62.9176 51.9503 63.1648 51.8082C63.4119 51.6634 63.696 51.5497 64.017 51.4673C64.3381 51.3849 64.6875 51.3224 65.0653 51.2798C65.4347 51.2344 65.75 51.1946 66.0114 51.1605C66.2727 51.1264 66.4759 51.0724 66.6207 50.9986C66.7656 50.9247 66.8523 50.8054 66.8807 50.6406L66.9062 50.4872C66.9801 50.0412 66.9119 49.6903 66.7017 49.4347C66.4915 49.1761 66.1392 49.0469 65.6449 49.0469C65.1733 49.0469 64.7642 49.152 64.4176 49.3622C64.0739 49.5696 63.8182 49.8125 63.6506 50.0909L62.9773 49.831C63.1818 49.473 63.4332 49.1875 63.7315 48.9744C64.0298 48.7585 64.3494 48.6037 64.6903 48.5099C65.0313 48.4134 65.3679 48.3651 65.7003 48.3651C65.9503 48.3651 66.2045 48.3977 66.4631 48.4631C66.7216 48.5284 66.9531 48.642 67.1577 48.804C67.3651 48.9631 67.517 49.1861 67.6136 49.473C67.7131 49.7571 67.7273 50.1179 67.6562 50.5554L66.9148 55H66.1562L66.331 53.9645H66.2841C66.1648 54.1577 66 54.3452 65.7898 54.527C65.5824 54.7088 65.3338 54.858 65.044 54.9744C64.7543 55.0909 64.4276 55.1491 64.0639 55.1491ZM64.2557 54.4545C64.6591 54.4545 65.0241 54.3651 65.3509 54.1861C65.6804 54.0071 65.9503 53.7699 66.1605 53.4744C66.3736 53.1761 66.5099 52.848 66.5696 52.4901L66.7273 51.544C66.6648 51.598 66.5625 51.6463 66.4205 51.6889C66.2813 51.7315 66.1236 51.7699 65.9474 51.804C65.7741 51.8352 65.5994 51.8622 65.4233 51.8849C65.25 51.9077 65.0966 51.9276 64.9631 51.9446C64.5852 51.9901 64.2557 52.0611 63.9744 52.1577C63.696 52.2543 63.473 52.3878 63.3054 52.5582C63.1378 52.7259 63.0327 52.9418 62.9901 53.206C62.9247 53.6037 63.0114 53.9119 63.25 54.1307C63.4915 54.3466 63.8267 54.4545 64.2557 54.4545ZM66.2287 47.5852H65.581L65.7259 46.6946C66.0298 46.6776 66.2514 46.6307 66.3906 46.554C66.5298 46.4744 66.6151 46.3523 66.6463 46.1875C66.6776 46 66.6122 45.8636 66.4503 45.7784C66.2912 45.6932 66.0668 45.6491 65.777 45.6463L65.9048 45.1264C66.4361 45.1264 66.821 45.2273 67.0597 45.429C67.2983 45.6278 67.3935 45.8906 67.3452 46.2173C67.2969 46.4986 67.1733 46.7102 66.9744 46.8523C66.7784 46.9915 66.5554 47.0753 66.3054 47.1037L66.2287 47.5852ZM70.3686 50.9091L69.6911 55H68.9325L70.0234 48.4545H70.7607L70.5902 49.4815H70.6584C70.8629 49.1463 71.1456 48.8778 71.5064 48.6761C71.87 48.4716 72.2919 48.3693 72.772 48.3693C73.2095 48.3693 73.5788 48.4616 73.88 48.6463C74.1839 48.8281 74.3999 49.0966 74.5277 49.4517C74.6584 49.8068 74.6811 50.2429 74.5959 50.7599L73.8842 55H73.1257L73.8246 50.8068C73.9126 50.2727 73.8345 49.8494 73.5902 49.5369C73.3487 49.2216 72.9751 49.0639 72.4695 49.0639C72.1257 49.0639 71.8061 49.1378 71.5107 49.2855C71.218 49.4332 70.9709 49.6463 70.7692 49.9247C70.5675 50.2003 70.4339 50.5284 70.3686 50.9091ZM82.9258 48.4545L82.8192 49.1151H79.6914L79.8022 48.4545H82.9258ZM81.0337 46.8864H81.7965L80.7312 53.2912C80.6857 53.5639 80.6971 53.7784 80.7653 53.9347C80.8335 54.0881 80.9386 54.1974 81.0806 54.2628C81.2227 54.3253 81.3789 54.3565 81.5494 54.3565C81.6488 54.3565 81.734 54.3509 81.805 54.3395C81.8789 54.3253 81.9442 54.3111 82.0011 54.2969L82.0565 54.983C81.9741 55.0114 81.8761 55.0369 81.7624 55.0597C81.6488 55.0852 81.5124 55.098 81.3533 55.098C81.0749 55.098 80.8178 55.0369 80.582 54.9148C80.3462 54.7926 80.1673 54.6108 80.0451 54.3693C79.9229 54.1278 79.8903 53.8281 79.9471 53.4702L81.0337 46.8864ZM83.5661 55L84.657 48.4545H85.4197L84.3288 55H83.5661ZM85.3132 47.3168C85.1541 47.3168 85.0192 47.2628 84.9084 47.1548C84.8004 47.0469 84.7479 46.9162 84.7507 46.7628C84.7564 46.6179 84.8146 46.4929 84.9254 46.3878C85.0391 46.2798 85.1726 46.2259 85.326 46.2259C85.4851 46.2259 85.62 46.2812 85.7308 46.392C85.8416 46.5 85.8942 46.6307 85.8885 46.7841C85.8857 46.929 85.8274 47.054 85.7138 47.1591C85.6001 47.2642 85.4666 47.3168 85.3132 47.3168ZM88.9641 55.1364C88.3533 55.1364 87.8491 54.9943 87.4513 54.7102C87.0536 54.4233 86.7752 54.027 86.6161 53.5213C86.457 53.0128 86.4329 52.4276 86.5437 51.7656C86.6545 51.1065 86.8732 50.5213 87.1999 50.0099C87.5266 49.4957 87.93 49.0937 88.4102 48.804C88.8903 48.5114 89.4116 48.3651 89.9741 48.3651C90.3292 48.3651 90.6616 48.4304 90.9712 48.5611C91.2809 48.6889 91.5437 48.8864 91.7596 49.1534C91.9783 49.4176 92.1303 49.7514 92.2156 50.1548C92.3008 50.5554 92.2979 51.0298 92.207 51.5781L92.1474 51.9531H87.0337L87.1403 51.2841H91.4826C91.5536 50.8636 91.5337 50.4858 91.4229 50.1506C91.3121 49.8153 91.1232 49.5497 90.8562 49.3537C90.592 49.1548 90.2638 49.0554 89.8718 49.0554C89.4712 49.0554 89.092 49.1676 88.734 49.392C88.3789 49.6165 88.0778 49.9091 87.8306 50.2699C87.5863 50.6278 87.4286 51.0099 87.3576 51.4162L87.2724 51.919C87.1815 52.473 87.1928 52.9375 87.3065 53.3125C87.4201 53.6847 87.6261 53.9659 87.9244 54.1562C88.2227 54.3466 88.6048 54.4418 89.0707 54.4418C89.3832 54.4418 89.6658 54.3935 89.9187 54.2969C90.1715 54.2003 90.3917 54.071 90.5792 53.9091C90.7667 53.7443 90.9173 53.5639 91.0309 53.3679L91.7085 53.6023C91.5636 53.8778 91.359 54.1321 91.0948 54.3651C90.8335 54.598 90.5224 54.7855 90.1616 54.9276C89.8036 55.0668 89.4045 55.1364 88.9641 55.1364ZM88.0565 47.5767L90.0039 45.9957H90.6516L92.0877 47.5767H91.1545L90.2468 46.5369L89.011 47.5767H88.0565ZM91.8661 46.5284L93.0167 45.0071H93.9585L92.5479 46.5284H91.8661ZM94.7436 50.9091L94.0661 55H93.3075L94.3984 48.4545H95.1357L94.9652 49.4815H95.0334C95.2379 49.1463 95.5206 48.8778 95.8814 48.6761C96.245 48.4716 96.6669 48.3693 97.147 48.3693C97.5845 48.3693 97.9538 48.4616 98.255 48.6463C98.5589 48.8281 98.7749 49.0966 98.9027 49.4517C99.0334 49.8068 99.0561 50.2429 98.9709 50.7599L98.2592 55H97.5007L98.1996 50.8068C98.2876 50.2727 98.2095 49.8494 97.9652 49.5369C97.7237 49.2216 97.3501 49.0639 96.8445 49.0639C96.5007 49.0639 96.1811 49.1378 95.8857 49.2855C95.593 49.4332 95.3459 49.6463 95.1442 49.9247C94.9425 50.2003 94.8089 50.5284 94.7436 50.9091ZM102.345 57.5909C101.899 57.5909 101.517 57.5327 101.199 57.4162C100.88 57.3026 100.622 57.1463 100.423 56.9474C100.227 56.7486 100.083 56.5256 99.9925 56.2784L100.683 55.8736C100.745 56.0384 100.841 56.2003 100.968 56.3594C101.096 56.5185 101.277 56.6491 101.51 56.7514C101.743 56.8565 102.048 56.9091 102.426 56.9091C103.002 56.9091 103.498 56.7628 103.913 56.4702C104.328 56.1804 104.586 55.7315 104.689 55.1236L104.919 53.6491H104.85C104.734 53.848 104.578 54.0469 104.382 54.2457C104.186 54.4418 103.943 54.6051 103.653 54.7358C103.366 54.8665 103.027 54.9318 102.635 54.9318C102.112 54.9318 101.669 54.8026 101.305 54.544C100.941 54.2855 100.684 53.9162 100.534 53.4361C100.383 52.9531 100.365 52.3778 100.478 51.7102C100.586 51.0483 100.794 50.4659 101.1 49.9631C101.41 49.4602 101.791 49.0682 102.243 48.7869C102.697 48.5057 103.194 48.3651 103.734 48.3651C104.135 48.3651 104.456 48.4361 104.697 48.5781C104.939 48.7173 105.122 48.8906 105.247 49.098C105.375 49.3054 105.467 49.5071 105.524 49.7031H105.6L105.805 48.4545H106.547L105.439 55.1705C105.345 55.7244 105.152 56.1804 104.859 56.5384C104.566 56.8963 104.203 57.1605 103.768 57.331C103.336 57.5043 102.862 57.5909 102.345 57.5909ZM102.805 54.2372C103.225 54.2372 103.603 54.1364 103.939 53.9347C104.277 53.7301 104.559 53.4389 104.787 53.0611C105.017 52.6804 105.174 52.2259 105.26 51.6974C105.345 51.1861 105.341 50.733 105.247 50.3381C105.156 49.9403 104.978 49.6278 104.714 49.4006C104.453 49.1705 104.109 49.0554 103.683 49.0554C103.243 49.0554 102.853 49.1733 102.515 49.4091C102.18 49.6449 101.903 49.9631 101.684 50.3636C101.468 50.7614 101.319 51.206 101.237 51.6974C101.157 52.1974 101.16 52.6392 101.245 53.0227C101.333 53.4034 101.507 53.7017 101.765 53.9176C102.024 54.1307 102.37 54.2372 102.805 54.2372ZM112.458 46.2727L113.911 53.9645H113.992L117.989 46.2727H118.825L114.201 55H113.349L111.623 46.2727H112.458ZM118.722 55L119.813 48.4545H120.576L119.485 55H118.722ZM120.469 47.3168C120.31 47.3168 120.175 47.2628 120.065 47.1548C119.957 47.0469 119.904 46.9162 119.907 46.7628C119.913 46.6179 119.971 46.4929 120.082 46.3878C120.195 46.2798 120.329 46.2259 120.482 46.2259C120.641 46.2259 120.776 46.2812 120.887 46.392C120.998 46.5 121.05 46.6307 121.045 46.7841C121.042 46.929 120.984 47.054 120.87 47.1591C120.756 47.2642 120.623 47.3168 120.469 47.3168ZM124.12 55.1364C123.51 55.1364 123.005 54.9943 122.608 54.7102C122.21 54.4233 121.931 54.027 121.772 53.5213C121.613 53.0128 121.589 52.4276 121.7 51.7656C121.811 51.1065 122.029 50.5213 122.356 50.0099C122.683 49.4957 123.086 49.0937 123.566 48.804C124.047 48.5114 124.568 48.3651 125.13 48.3651C125.485 48.3651 125.818 48.4304 126.127 48.5611C126.437 48.6889 126.7 48.8864 126.916 49.1534C127.135 49.4176 127.287 49.7514 127.372 50.1548C127.457 50.5554 127.454 51.0298 127.363 51.5781L127.304 51.9531H122.19L122.297 51.2841H126.639C126.71 50.8636 126.69 50.4858 126.579 50.1506C126.468 49.8153 126.279 49.5497 126.012 49.3537C125.748 49.1548 125.42 49.0554 125.028 49.0554C124.627 49.0554 124.248 49.1676 123.89 49.392C123.535 49.6165 123.234 49.9091 122.987 50.2699C122.743 50.6278 122.585 51.0099 122.514 51.4162L122.429 51.919C122.338 52.473 122.349 52.9375 122.463 53.3125C122.576 53.6847 122.782 53.9659 123.081 54.1562C123.379 54.3466 123.761 54.4418 124.227 54.4418C124.539 54.4418 124.822 54.3935 125.075 54.2969C125.328 54.2003 125.548 54.071 125.735 53.9091C125.923 53.7443 126.074 53.5639 126.187 53.3679L126.865 53.6023C126.72 53.8778 126.515 54.1321 126.251 54.3651C125.99 54.598 125.679 54.7855 125.318 54.9276C124.96 55.0668 124.561 55.1364 124.12 55.1364ZM126.196 47.7045L125.386 46.4815L124.18 47.7045H123.413L123.422 47.6491L125.143 45.9318H125.782L126.946 47.6491L126.933 47.7045H126.196ZM123.728 57.0795C123.569 57.0795 123.434 57.0241 123.324 56.9134C123.213 56.8054 123.16 56.6747 123.166 56.5213C123.169 56.3764 123.227 56.2514 123.341 56.1463C123.454 56.0412 123.588 55.9886 123.741 55.9886C123.9 55.9886 124.034 56.0426 124.142 56.1506C124.252 56.2614 124.306 56.3935 124.304 56.5469C124.298 56.6918 124.238 56.8168 124.125 56.9219C124.014 57.027 123.882 57.0795 123.728 57.0795ZM132.133 48.4545L132.026 49.1151H128.898L129.009 48.4545H132.133ZM130.241 46.8864H131.004L129.938 53.2912C129.893 53.5639 129.904 53.7784 129.972 53.9347C130.04 54.0881 130.146 54.1974 130.288 54.2628C130.43 54.3253 130.586 54.3565 130.756 54.3565C130.856 54.3565 130.941 54.3509 131.012 54.3395C131.086 54.3253 131.151 54.3111 131.208 54.2969L131.263 54.983C131.181 55.0114 131.083 55.0369 130.969 55.0597C130.856 55.0852 130.719 55.098 130.56 55.098C130.282 55.098 130.025 55.0369 129.789 54.9148C129.553 54.7926 129.374 54.6108 129.252 54.3693C129.13 54.1278 129.097 53.8281 129.154 53.4702L130.241 46.8864ZM135.219 51.3182C135.049 52.3409 134.759 53.3068 134.35 54.2159C133.944 55.125 133.432 55.9773 132.816 56.7727H132.125C132.39 56.4375 132.642 56.0582 132.884 55.6349C133.125 55.2116 133.347 54.7599 133.549 54.2798C133.753 53.7997 133.931 53.3082 134.081 52.8054C134.235 52.3026 134.353 51.8068 134.435 51.3182C134.543 50.6619 134.593 50 134.584 49.3324C134.576 48.6648 134.515 48.0312 134.401 47.4318C134.29 46.8324 134.134 46.3097 133.932 45.8636H134.623C134.972 46.6619 135.201 47.5156 135.309 48.4247C135.419 49.3338 135.39 50.2983 135.219 51.3182Z" fill="black"/>
</svg>
