<svg width="100%" viewBox="0 0 351 139" fill="none" xmlns="http://www.w3.org/2000/svg">
<rect x="0.5" y="0.5" width="350" height="138" rx="13.5" fill="#24CBFF" fill-opacity="0.2"/>
<rect x="0.5" y="0.5" width="350" height="138" rx="13.5" stroke="#24CBFF"/>
<path d="M17.8864 39H16.4091L20.6818 27.3636H22.1364L26.4091 39H24.9318L21.4545 29.2045H21.3636L17.8864 39ZM18.4318 34.4545H24.3864V35.7045H18.4318V34.4545ZM29.3807 33.75V39H28.0398V30.2727H29.3352V31.6364H29.4489C29.6534 31.1932 29.964 30.8371 30.3807 30.5682C30.7973 30.2955 31.3352 30.1591 31.9943 30.1591C32.5852 30.1591 33.1023 30.2803 33.5455 30.5227C33.9886 30.7614 34.3333 31.125 34.5795 31.6136C34.8258 32.0985 34.9489 32.7121 34.9489 33.4545V39H33.608V33.5455C33.608 32.8598 33.4299 32.3258 33.0739 31.9432C32.7178 31.5568 32.2292 31.3636 31.608 31.3636C31.1799 31.3636 30.7973 31.4564 30.4602 31.642C30.1269 31.8277 29.8636 32.0985 29.6705 32.4545C29.4773 32.8106 29.3807 33.2424 29.3807 33.75ZM38.7401 33.75V39H37.3991V30.2727H38.6946V31.6364H38.8082C39.0128 31.1932 39.3234 30.8371 39.7401 30.5682C40.1567 30.2955 40.6946 30.1591 41.3537 30.1591C41.9446 30.1591 42.4616 30.2803 42.9048 30.5227C43.348 30.7614 43.6927 31.125 43.9389 31.6136C44.1851 32.0985 44.3082 32.7121 44.3082 33.4545V39H42.9673V33.5455C42.9673 32.8598 42.7893 32.3258 42.4332 31.9432C42.0772 31.5568 41.5885 31.3636 40.9673 31.3636C40.5393 31.3636 40.1567 31.4564 39.8196 31.642C39.4863 31.8277 39.223 32.0985 39.0298 32.4545C38.8366 32.8106 38.7401 33.2424 38.7401 33.75ZM52.2585 35.4318V30.2727H53.5994V39H52.2585V37.5227H52.1676C51.9631 37.9659 51.6449 38.3428 51.2131 38.6534C50.7813 38.9602 50.2358 39.1136 49.5767 39.1136C49.0312 39.1136 48.5464 38.9943 48.1222 38.7557C47.6979 38.5133 47.3646 38.1496 47.1222 37.6648C46.8797 37.1761 46.7585 36.5606 46.7585 35.8182V30.2727H48.0994V35.7273C48.0994 36.3636 48.2775 36.8712 48.6335 37.25C48.9934 37.6288 49.4517 37.8182 50.0085 37.8182C50.3419 37.8182 50.6809 37.733 51.0256 37.5625C51.3741 37.392 51.6657 37.1307 51.9006 36.7784C52.1392 36.4261 52.2585 35.9773 52.2585 35.4318ZM58.6236 39.2045C58.0705 39.2045 57.5687 39.1004 57.1179 38.892C56.6671 38.6799 56.3092 38.375 56.044 37.9773C55.7789 37.5758 55.6463 37.0909 55.6463 36.5227C55.6463 36.0227 55.7448 35.6174 55.9418 35.3068C56.1387 34.9924 56.402 34.7462 56.7315 34.5682C57.0611 34.3902 57.4247 34.2576 57.8224 34.1705C58.224 34.0795 58.6274 34.0076 59.0327 33.9545C59.563 33.8864 59.9929 33.8352 60.3224 33.8011C60.6558 33.7633 60.8982 33.7008 61.0497 33.6136C61.205 33.5265 61.2827 33.375 61.2827 33.1591V33.1136C61.2827 32.553 61.1293 32.1174 60.8224 31.8068C60.5194 31.4962 60.0592 31.3409 59.4418 31.3409C58.8016 31.3409 58.2997 31.4811 57.9361 31.7614C57.5724 32.0417 57.3168 32.3409 57.169 32.6591L55.8963 32.2045C56.1236 31.6742 56.4266 31.2614 56.8054 30.9659C57.188 30.6667 57.6046 30.4583 58.0554 30.3409C58.5099 30.2197 58.9569 30.1591 59.3963 30.1591C59.6766 30.1591 59.9986 30.1932 60.3622 30.2614C60.7296 30.3258 61.0838 30.4602 61.4247 30.6648C61.7694 30.8693 62.0554 31.178 62.2827 31.5909C62.5099 32.0038 62.6236 32.5568 62.6236 33.25V39H61.2827V37.8182H61.2145C61.1236 38.0076 60.9721 38.2102 60.7599 38.4261C60.5478 38.642 60.2656 38.8258 59.9134 38.9773C59.5611 39.1288 59.1312 39.2045 58.6236 39.2045ZM58.8281 38C59.3584 38 59.8054 37.8958 60.169 37.6875C60.5365 37.4792 60.813 37.2102 60.9986 36.8807C61.188 36.5511 61.2827 36.2045 61.2827 35.8409V34.6136C61.2259 34.6818 61.1009 34.7443 60.9077 34.8011C60.7183 34.8542 60.4986 34.9015 60.2486 34.9432C60.0024 34.9811 59.7618 35.0152 59.527 35.0455C59.2959 35.072 59.1084 35.0947 58.9645 35.1136C58.616 35.1591 58.2902 35.233 57.9872 35.3352C57.688 35.4337 57.4455 35.5833 57.2599 35.7841C57.0781 35.9811 56.9872 36.25 56.9872 36.5909C56.9872 37.0568 57.1596 37.4091 57.5043 37.6477C57.8527 37.8826 58.294 38 58.8281 38ZM66.4119 27.3636V39H65.071V27.3636H66.4119ZM73.5497 39V27.3636H77.4815C78.3906 27.3636 79.1368 27.5189 79.7202 27.8295C80.3035 28.1364 80.7353 28.5587 81.0156 29.0966C81.2959 29.6345 81.4361 30.2462 81.4361 30.9318C81.4361 31.6174 81.2959 32.2254 81.0156 32.7557C80.7353 33.286 80.3054 33.7027 79.7259 34.0057C79.1463 34.3049 78.4058 34.4545 77.5043 34.4545H74.3224V33.1818H77.4588C78.08 33.1818 78.58 33.0909 78.9588 32.9091C79.3414 32.7273 79.6179 32.4697 79.7884 32.1364C79.9626 31.7992 80.0497 31.3977 80.0497 30.9318C80.0497 30.4659 79.9626 30.0587 79.7884 29.7102C79.6141 29.3617 79.3357 29.0928 78.9531 28.9034C78.5705 28.7102 78.0649 28.6136 77.4361 28.6136H74.9588V39H73.5497ZM79.027 33.7727L81.8906 39H80.2543L77.4361 33.7727H79.027ZM87.1676 39.1818C86.3267 39.1818 85.6013 38.9962 84.9915 38.625C84.3854 38.25 83.9176 37.7273 83.5881 37.0568C83.2623 36.3826 83.0994 35.5985 83.0994 34.7045C83.0994 33.8106 83.2623 33.0227 83.5881 32.3409C83.9176 31.6553 84.3759 31.1212 84.9631 30.7386C85.554 30.3523 86.2434 30.1591 87.0312 30.1591C87.4858 30.1591 87.9347 30.2348 88.3778 30.3864C88.821 30.5379 89.2244 30.7841 89.5881 31.125C89.9517 31.4621 90.2415 31.9091 90.4574 32.4659C90.6733 33.0227 90.7812 33.7083 90.7812 34.5227V35.0909H84.054V33.9318H89.4176C89.4176 33.4394 89.3191 33 89.1222 32.6136C88.929 32.2273 88.6525 31.9223 88.2926 31.6989C87.9366 31.4754 87.5161 31.3636 87.0312 31.3636C86.4972 31.3636 86.035 31.4962 85.6449 31.7614C85.2585 32.0227 84.9612 32.3636 84.7528 32.7841C84.5445 33.2045 84.4403 33.6553 84.4403 34.1364V34.9091C84.4403 35.5682 84.554 36.1269 84.7812 36.5852C85.0123 37.0398 85.3324 37.3864 85.7415 37.625C86.1506 37.8598 86.6259 37.9773 87.1676 37.9773C87.5199 37.9773 87.8381 37.928 88.1222 37.8295C88.41 37.7273 88.6581 37.5758 88.8665 37.375C89.0748 37.1705 89.2358 36.9167 89.3494 36.6136L90.6449 36.9773C90.5085 37.4167 90.2794 37.803 89.9574 38.1364C89.6354 38.4659 89.2377 38.7235 88.7642 38.9091C88.2907 39.0909 87.7585 39.1818 87.1676 39.1818ZM92.821 42.2727V30.2727H94.1165V31.6591H94.2756C94.3741 31.5076 94.5104 31.3144 94.6847 31.0795C94.8627 30.8409 95.1165 30.6288 95.446 30.4432C95.7794 30.2538 96.2301 30.1591 96.7983 30.1591C97.5331 30.1591 98.1809 30.3428 98.7415 30.7102C99.3021 31.0777 99.7396 31.5985 100.054 32.2727C100.368 32.947 100.526 33.7424 100.526 34.6591C100.526 35.5833 100.368 36.3845 100.054 37.0625C99.7396 37.7367 99.304 38.2595 98.7472 38.6307C98.1903 38.9981 97.5483 39.1818 96.821 39.1818C96.2604 39.1818 95.8116 39.089 95.4744 38.9034C95.1373 38.714 94.8778 38.5 94.696 38.2614C94.5142 38.0189 94.3741 37.8182 94.2756 37.6591H94.1619V42.2727H92.821ZM94.1392 34.6364C94.1392 35.2955 94.2358 35.8769 94.429 36.3807C94.6222 36.8807 94.9044 37.2727 95.2756 37.5568C95.6468 37.8371 96.1013 37.9773 96.6392 37.9773C97.1998 37.9773 97.6676 37.8295 98.0426 37.5341C98.4214 37.2348 98.7055 36.8333 98.8949 36.3295C99.0881 35.822 99.1847 35.2576 99.1847 34.6364C99.1847 34.0227 99.09 33.4697 98.9006 32.9773C98.715 32.4811 98.4328 32.089 98.054 31.8011C97.679 31.5095 97.2074 31.3636 96.6392 31.3636C96.0938 31.3636 95.6354 31.5019 95.2642 31.7784C94.893 32.0511 94.6127 32.4337 94.4233 32.9261C94.2339 33.4148 94.1392 33.9848 94.1392 34.6364ZM106.116 39.1818C105.329 39.1818 104.637 38.9943 104.043 38.6193C103.452 38.2443 102.99 37.7197 102.656 37.0455C102.327 36.3712 102.162 35.5833 102.162 34.6818C102.162 33.7727 102.327 32.9792 102.656 32.3011C102.99 31.6231 103.452 31.0966 104.043 30.7216C104.637 30.3466 105.329 30.1591 106.116 30.1591C106.904 30.1591 107.594 30.3466 108.185 30.7216C108.779 31.0966 109.241 31.6231 109.571 32.3011C109.904 32.9792 110.071 33.7727 110.071 34.6818C110.071 35.5833 109.904 36.3712 109.571 37.0455C109.241 37.7197 108.779 38.2443 108.185 38.6193C107.594 38.9943 106.904 39.1818 106.116 39.1818ZM106.116 37.9773C106.715 37.9773 107.207 37.8239 107.594 37.517C107.98 37.2102 108.266 36.8068 108.452 36.3068C108.637 35.8068 108.73 35.2652 108.73 34.6818C108.73 34.0985 108.637 33.5549 108.452 33.0511C108.266 32.5473 107.98 32.1402 107.594 31.8295C107.207 31.5189 106.715 31.3636 106.116 31.3636C105.518 31.3636 105.026 31.5189 104.639 31.8295C104.253 32.1402 103.967 32.5473 103.781 33.0511C103.596 33.5549 103.503 34.0985 103.503 34.6818C103.503 35.2652 103.596 35.8068 103.781 36.3068C103.967 36.8068 104.253 37.2102 104.639 37.517C105.026 37.8239 105.518 37.9773 106.116 37.9773ZM112.118 39V30.2727H113.413V31.5909H113.504C113.663 31.1591 113.951 30.8087 114.368 30.5398C114.785 30.2708 115.254 30.1364 115.777 30.1364C115.875 30.1364 115.999 30.1383 116.146 30.142C116.294 30.1458 116.406 30.1515 116.482 30.1591V31.5227C116.436 31.5114 116.332 31.4943 116.169 31.4716C116.01 31.4451 115.841 31.4318 115.663 31.4318C115.239 31.4318 114.86 31.5208 114.527 31.6989C114.197 31.8731 113.936 32.1155 113.743 32.4261C113.554 32.733 113.459 33.0833 113.459 33.4773V39H112.118ZM122.413 30.2727V31.4091H117.891V30.2727H122.413ZM119.209 28.1818H120.55V36.5C120.55 36.8788 120.605 37.1629 120.714 37.3523C120.828 37.5379 120.972 37.6629 121.146 37.7273C121.324 37.7879 121.512 37.8182 121.709 37.8182C121.857 37.8182 121.978 37.8106 122.072 37.7955C122.167 37.7765 122.243 37.7614 122.3 37.75L122.572 38.9545C122.482 38.9886 122.355 39.0227 122.192 39.0568C122.029 39.0947 121.822 39.1136 121.572 39.1136C121.194 39.1136 120.822 39.0322 120.459 38.8693C120.099 38.7064 119.8 38.4583 119.561 38.125C119.326 37.7917 119.209 37.3712 119.209 36.8636V28.1818ZM130.521 27.3636V39H129.112V27.3636H130.521ZM133.347 27.3636H135.028L138.983 37.0227H139.119L143.074 27.3636H144.756V39H143.438V30.1591H143.324L139.688 39H138.415L134.778 30.1591H134.665V39H133.347V27.3636ZM147.581 39V27.3636H154.604V28.6136H148.99V32.5455H154.24V33.7955H148.99V37.75H154.695V39H147.581ZM157.825 27.3636L160.825 32.2045H160.916L163.916 27.3636H165.575L161.916 33.1818L165.575 39H163.916L160.916 34.25H160.825L157.825 39H156.166L159.916 33.1818L156.166 27.3636H157.825ZM167.409 39V27.3636H171.341C172.254 27.3636 173 27.5284 173.58 27.858C174.163 28.1837 174.595 28.625 174.875 29.1818C175.155 29.7386 175.295 30.3598 175.295 31.0455C175.295 31.7311 175.155 32.3542 174.875 32.9148C174.598 33.4754 174.17 33.9223 173.591 34.2557C173.011 34.5852 172.269 34.75 171.364 34.75H168.545V33.5H171.318C171.943 33.5 172.445 33.392 172.824 33.1761C173.203 32.9602 173.477 32.6686 173.648 32.3011C173.822 31.9299 173.909 31.5114 173.909 31.0455C173.909 30.5795 173.822 30.1629 173.648 29.7955C173.477 29.428 173.201 29.1402 172.818 28.9318C172.436 28.7197 171.928 28.6136 171.295 28.6136H168.818V39H167.409ZM177.565 39V27.3636H178.974V32.5455H185.179V27.3636H186.588V39H185.179V33.7955H178.974V39H177.565ZM189.886 39H188.409L192.682 27.3636H194.136L198.409 39H196.932L193.455 29.2045H193.364L189.886 39ZM190.432 34.4545H196.386V35.7045H190.432V34.4545ZM200.222 39V27.3636H204.153C205.063 27.3636 205.809 27.5189 206.392 27.8295C206.975 28.1364 207.407 28.5587 207.688 29.0966C207.968 29.6345 208.108 30.2462 208.108 30.9318C208.108 31.6174 207.968 32.2254 207.688 32.7557C207.407 33.286 206.977 33.7027 206.398 34.0057C205.818 34.3049 205.078 34.4545 204.176 34.4545H200.994V33.1818H204.131C204.752 33.1818 205.252 33.0909 205.631 32.9091C206.013 32.7273 206.29 32.4697 206.46 32.1364C206.634 31.7992 206.722 31.3977 206.722 30.9318C206.722 30.4659 206.634 30.0587 206.46 29.7102C206.286 29.3617 206.008 29.0928 205.625 28.9034C205.242 28.7102 204.737 28.6136 204.108 28.6136H201.631V39H200.222ZM205.699 33.7727L208.562 39H206.926L204.108 33.7727H205.699ZM210.456 27.3636H212.138L216.092 37.0227H216.229L220.183 27.3636H221.865V39H220.547V30.1591H220.433L216.797 39H215.524L211.888 30.1591H211.774V39H210.456V27.3636ZM234.009 32.5568V33.8068H228.918V32.5568H234.009ZM240.845 39V37.9773L244.686 33.7727C245.137 33.2803 245.508 32.8523 245.8 32.4886C246.091 32.1212 246.307 31.7765 246.447 31.4545C246.591 31.1288 246.663 30.7879 246.663 30.4318C246.663 30.0227 246.565 29.6686 246.368 29.3693C246.175 29.0701 245.91 28.839 245.572 28.6761C245.235 28.5133 244.857 28.4318 244.436 28.4318C243.989 28.4318 243.599 28.5246 243.266 28.7102C242.936 28.892 242.68 29.1477 242.499 29.4773C242.321 29.8068 242.232 30.1932 242.232 30.6364H240.891C240.891 29.9545 241.048 29.3561 241.362 28.8409C241.677 28.3258 242.105 27.9242 242.646 27.6364C243.192 27.3485 243.804 27.2045 244.482 27.2045C245.163 27.2045 245.768 27.3485 246.294 27.6364C246.821 27.9242 247.233 28.3125 247.533 28.8011C247.832 29.2898 247.982 29.8333 247.982 30.4318C247.982 30.8598 247.904 31.2784 247.749 31.6875C247.597 32.0928 247.332 32.5455 246.953 33.0455C246.578 33.5417 246.057 34.1477 245.391 34.8636L242.777 37.6591V37.75H248.186V39H240.845ZM254.328 39.1591C253.472 39.1591 252.743 38.9261 252.141 38.4602C251.538 37.9905 251.078 37.3106 250.76 36.4205C250.442 35.5265 250.283 34.447 250.283 33.1818C250.283 31.9242 250.442 30.8504 250.76 29.9602C251.082 29.0663 251.544 28.3845 252.146 27.9148C252.752 27.4413 253.48 27.2045 254.328 27.2045C255.177 27.2045 255.902 27.4413 256.504 27.9148C257.11 28.3845 257.572 29.0663 257.891 29.9602C258.213 30.8504 258.374 31.9242 258.374 33.1818C258.374 34.447 258.214 35.5265 257.896 36.4205C257.578 37.3106 257.118 37.9905 256.516 38.4602C255.913 38.9261 255.184 39.1591 254.328 39.1591ZM254.328 37.9091C255.177 37.9091 255.836 37.5 256.305 36.6818C256.775 35.8636 257.01 34.697 257.01 33.1818C257.01 32.1742 256.902 31.3163 256.686 30.608C256.474 29.8996 256.167 29.3598 255.766 28.9886C255.368 28.6174 254.889 28.4318 254.328 28.4318C253.487 28.4318 252.83 28.8466 252.357 29.6761C251.883 30.5019 251.646 31.6705 251.646 33.1818C251.646 34.1894 251.752 35.0455 251.964 35.75C252.177 36.4545 252.482 36.9905 252.879 37.358C253.281 37.7254 253.764 37.9091 254.328 37.9091ZM260.533 39V37.9773L264.374 33.7727C264.824 33.2803 265.196 32.8523 265.487 32.4886C265.779 32.1212 265.995 31.7765 266.135 31.4545C266.279 31.1288 266.351 30.7879 266.351 30.4318C266.351 30.0227 266.252 29.6686 266.055 29.3693C265.862 29.0701 265.597 28.839 265.26 28.6761C264.923 28.5133 264.544 28.4318 264.124 28.4318C263.677 28.4318 263.286 28.5246 262.953 28.7102C262.624 28.892 262.368 29.1477 262.186 29.4773C262.008 29.8068 261.919 30.1932 261.919 30.6364H260.578C260.578 29.9545 260.735 29.3561 261.05 28.8409C261.364 28.3258 261.792 27.9242 262.334 27.6364C262.879 27.3485 263.491 27.2045 264.169 27.2045C264.851 27.2045 265.455 27.3485 265.982 27.6364C266.508 27.9242 266.921 28.3125 267.22 28.8011C267.519 29.2898 267.669 29.8333 267.669 30.4318C267.669 30.8598 267.591 31.2784 267.436 31.6875C267.285 32.0928 267.019 32.5455 266.641 33.0455C266.266 33.5417 265.745 34.1477 265.078 34.8636L262.464 37.6591V37.75H267.874V39H260.533ZM274.152 39.1591C273.402 39.1591 272.733 39.0303 272.146 38.7727C271.563 38.5152 271.099 38.1572 270.754 37.6989C270.413 37.2367 270.228 36.7008 270.197 36.0909H271.629C271.66 36.4659 271.788 36.7898 272.016 37.0625C272.243 37.3314 272.54 37.5398 272.908 37.6875C273.275 37.8352 273.682 37.9091 274.129 37.9091C274.629 37.9091 275.072 37.822 275.459 37.6477C275.845 37.4735 276.148 37.2311 276.368 36.9205C276.588 36.6098 276.697 36.25 276.697 35.8409C276.697 35.4129 276.591 35.036 276.379 34.7102C276.167 34.3807 275.857 34.1231 275.447 33.9375C275.038 33.7519 274.538 33.6591 273.947 33.6591H273.016V32.4091H273.947C274.41 32.4091 274.815 32.3258 275.163 32.1591C275.516 31.9924 275.79 31.7576 275.987 31.4545C276.188 31.1515 276.288 30.7955 276.288 30.3864C276.288 29.9924 276.201 29.6496 276.027 29.358C275.853 29.0663 275.607 28.839 275.288 28.6761C274.974 28.5133 274.603 28.4318 274.175 28.4318C273.773 28.4318 273.394 28.5057 273.038 28.6534C272.686 28.7973 272.398 29.0076 272.175 29.2841C271.951 29.5568 271.83 29.8864 271.811 30.2727H270.447C270.47 29.6629 270.654 29.1288 270.999 28.6705C271.343 28.2083 271.794 27.8485 272.351 27.5909C272.911 27.3333 273.527 27.2045 274.197 27.2045C274.917 27.2045 275.535 27.3504 276.05 27.642C276.565 27.9299 276.961 28.3106 277.237 28.7841C277.514 29.2576 277.652 29.7689 277.652 30.3182C277.652 30.9735 277.48 31.5322 277.135 31.9943C276.794 32.4564 276.33 32.7765 275.743 32.9545V33.0455C276.478 33.1667 277.052 33.4792 277.464 33.983C277.877 34.483 278.084 35.1023 278.084 35.8409C278.084 36.4735 277.911 37.0417 277.567 37.5455C277.226 38.0455 276.76 38.4394 276.169 38.7273C275.578 39.0152 274.906 39.1591 274.152 39.1591Z" fill="#24408E"/>
<path d="M17.5 50.6364C17.6705 49.6136 17.9588 48.6477 18.3651 47.7386C18.7741 46.8295 19.2869 45.9773 19.9034 45.1818H20.5938C20.3324 45.5142 20.0795 45.8935 19.8352 46.3196C19.5938 46.7429 19.3707 47.1946 19.1662 47.6747C18.9645 48.1548 18.7869 48.6463 18.6335 49.1491C18.483 49.6491 18.3665 50.1449 18.2841 50.6364C18.1761 51.2926 18.1264 51.9545 18.1349 52.6222C18.1435 53.2898 18.2031 53.9233 18.3139 54.5227C18.4276 55.1222 18.5852 55.6449 18.7869 56.0909H18.0966C17.7472 55.2926 17.517 54.4389 17.4062 53.5298C17.2983 52.6207 17.3295 51.6562 17.5 50.6364ZM20.7738 55L22.2227 46.2727H27.2852L27.1658 46.9886H22.9002L22.3548 50.2741H26.3519L26.2326 50.9901H22.2354L21.69 54.2841H26.0408L25.9215 55H20.7738ZM29.1772 50.9091L28.4996 55H27.7411L28.832 48.4545H29.5692L29.3988 49.4815H29.467C29.6715 49.1463 29.9542 48.8778 30.315 48.6761C30.6786 48.4716 31.1005 48.3693 31.5806 48.3693C32.0181 48.3693 32.3874 48.4616 32.6886 48.6463C32.9925 48.8281 33.2085 49.0966 33.3363 49.4517C33.467 49.8068 33.4897 50.2429 33.4045 50.7599L32.6928 55H31.9343L32.6332 50.8068C32.7212 50.2727 32.6431 49.8494 32.3988 49.5369C32.1573 49.2216 31.7837 49.0639 31.2781 49.0639C30.9343 49.0639 30.6147 49.1378 30.3192 49.2855C30.0266 49.4332 29.7795 49.6463 29.5778 49.9247C29.3761 50.2003 29.2425 50.5284 29.1772 50.9091ZM36.7784 57.5909C36.3324 57.5909 35.9503 57.5327 35.6321 57.4162C35.3139 57.3026 35.0554 57.1463 34.8565 56.9474C34.6605 56.7486 34.517 56.5256 34.4261 56.2784L35.1165 55.8736C35.179 56.0384 35.2741 56.2003 35.402 56.3594C35.5298 56.5185 35.7102 56.6491 35.9432 56.7514C36.1761 56.8565 36.4815 56.9091 36.8594 56.9091C37.4361 56.9091 37.9318 56.7628 38.3466 56.4702C38.7614 56.1804 39.0199 55.7315 39.1222 55.1236L39.3523 53.6491H39.2841C39.1676 53.848 39.0114 54.0469 38.8153 54.2457C38.6193 54.4418 38.3764 54.6051 38.0866 54.7358C37.7997 54.8665 37.4602 54.9318 37.0682 54.9318C36.5455 54.9318 36.1023 54.8026 35.7386 54.544C35.375 54.2855 35.1179 53.9162 34.9673 53.4361C34.8168 52.9531 34.7983 52.3778 34.9119 51.7102C35.0199 51.0483 35.2273 50.4659 35.5341 49.9631C35.8438 49.4602 36.2244 49.0682 36.6761 48.7869C37.1307 48.5057 37.6278 48.3651 38.1676 48.3651C38.5682 48.3651 38.8892 48.4361 39.1307 48.5781C39.3722 48.7173 39.5554 48.8906 39.6804 49.098C39.8082 49.3054 39.9006 49.5071 39.9574 49.7031H40.0341L40.2386 48.4545H40.9801L39.8722 55.1705C39.7784 55.7244 39.5852 56.1804 39.2926 56.5384C39 56.8963 38.6364 57.1605 38.2017 57.331C37.7699 57.5043 37.2955 57.5909 36.7784 57.5909ZM37.2386 54.2372C37.6591 54.2372 38.0369 54.1364 38.3722 53.9347C38.7102 53.7301 38.9929 53.4389 39.2202 53.0611C39.4503 52.6804 39.608 52.2259 39.6932 51.6974C39.7784 51.1861 39.7741 50.733 39.6804 50.3381C39.5895 49.9403 39.4119 49.6278 39.1477 49.4006C38.8864 49.1705 38.5426 49.0554 38.1165 49.0554C37.6761 49.0554 37.2869 49.1733 36.9489 49.4091C36.6136 49.6449 36.3366 49.9631 36.1179 50.3636C35.902 50.7614 35.7528 51.206 35.6705 51.6974C35.5909 52.1974 35.5938 52.6392 35.679 53.0227C35.767 53.4034 35.9403 53.7017 36.1989 53.9176C36.4574 54.1307 36.804 54.2372 37.2386 54.2372ZM44.1048 46.2727L42.6559 55H41.8974L43.3462 46.2727H44.1048ZM44.6715 55L45.7624 48.4545H46.5252L45.4343 55H44.6715ZM46.4187 47.3168C46.2596 47.3168 46.1246 47.2628 46.0138 47.1548C45.9059 47.0469 45.8533 46.9162 45.8562 46.7628C45.8619 46.6179 45.9201 46.4929 46.0309 46.3878C46.1445 46.2798 46.2781 46.2259 46.4315 46.2259C46.5906 46.2259 46.7255 46.2812 46.8363 46.392C46.9471 46.5 46.9996 46.6307 46.994 46.7841C46.9911 46.929 46.9329 47.054 46.8192 47.1591C46.7056 47.2642 46.5721 47.3168 46.4187 47.3168ZM52.6903 49.8906L51.9616 50.0781C51.9247 49.8821 51.8565 49.706 51.7571 49.5497C51.6605 49.3906 51.5199 49.2656 51.3352 49.1747C51.1534 49.081 50.9148 49.0341 50.6193 49.0341C50.1761 49.0341 49.794 49.142 49.473 49.358C49.152 49.571 48.9645 49.8437 48.9105 50.1761C48.8651 50.4545 48.9233 50.6804 49.0852 50.8537C49.25 51.027 49.5256 51.1634 49.9119 51.2628L50.8665 51.5057C51.3949 51.642 51.7713 51.8551 51.9957 52.1449C52.223 52.4347 52.3011 52.8011 52.2301 53.2443C52.1676 53.6136 52.0099 53.9403 51.7571 54.2244C51.5071 54.5085 51.1861 54.7315 50.794 54.8935C50.4048 55.0554 49.9702 55.1364 49.4901 55.1364C48.8452 55.1364 48.3381 54.9915 47.9688 54.7017C47.6023 54.4119 47.4063 53.9943 47.3807 53.4489L48.1435 53.2784C48.1662 53.6648 48.2983 53.9574 48.5398 54.1562C48.7841 54.3551 49.1278 54.4545 49.571 54.4545C50.0767 54.4545 50.5014 54.3395 50.8452 54.1094C51.1889 53.8793 51.3864 53.5952 51.4375 53.2571C51.4858 52.9901 51.4361 52.7685 51.2884 52.5923C51.1435 52.4162 50.8963 52.2855 50.5469 52.2003L49.5284 51.9446C48.9801 51.8054 48.5923 51.5881 48.3651 51.2926C48.1406 50.9943 48.0653 50.6264 48.1392 50.1889C48.1989 49.8281 48.3494 49.5114 48.5909 49.2386C48.8324 48.9659 49.1378 48.7528 49.5071 48.5994C49.8764 48.4432 50.2798 48.3651 50.7173 48.3651C51.3196 48.3651 51.7784 48.5014 52.0938 48.7741C52.4091 49.044 52.608 49.4162 52.6903 49.8906ZM55.0288 50.9091L54.3512 55H53.5927L55.0415 46.2727H55.8001L55.2717 49.4815H55.3398C55.5444 49.1406 55.8256 48.8707 56.1836 48.6719C56.5415 48.4702 56.9691 48.3693 57.4663 48.3693C57.9066 48.3693 58.2788 48.4602 58.5827 48.642C58.8896 48.8239 59.1069 49.0923 59.2347 49.4474C59.3654 49.8026 59.3881 50.2401 59.3029 50.7599L58.5913 55H57.8285L58.5273 50.8068C58.6154 50.267 58.5359 49.8423 58.2887 49.5327C58.0444 49.2202 57.6694 49.0639 57.1637 49.0639C56.8171 49.0639 56.4933 49.1378 56.1921 49.2855C55.8938 49.4332 55.641 49.6463 55.4336 49.9247C55.229 50.2003 55.0941 50.5284 55.0288 50.9091ZM70.1214 48.4545L66.6399 55H65.8303L64.5305 48.4545H65.3189L66.3416 53.9986H66.397L69.2649 48.4545H70.1214ZM72.9094 55.1364C72.2987 55.1364 71.7944 54.9943 71.3967 54.7102C70.9989 54.4233 70.7205 54.027 70.5614 53.5213C70.4023 53.0128 70.3782 52.4276 70.489 51.7656C70.5998 51.1065 70.8185 50.5213 71.1452 50.0099C71.4719 49.4957 71.8754 49.0937 72.3555 48.804C72.8356 48.5114 73.3569 48.3651 73.9194 48.3651C74.2745 48.3651 74.6069 48.4304 74.9165 48.5611C75.2262 48.6889 75.489 48.8864 75.7049 49.1534C75.9237 49.4176 76.0756 49.7514 76.1609 50.1548C76.2461 50.5554 76.2433 51.0298 76.1523 51.5781L76.0927 51.9531H70.979L71.0856 51.2841H75.4279C75.4989 50.8636 75.479 50.4858 75.3683 50.1506C75.2575 49.8153 75.0685 49.5497 74.8015 49.3537C74.5373 49.1548 74.2092 49.0554 73.8171 49.0554C73.4165 49.0554 73.0373 49.1676 72.6793 49.392C72.3242 49.6165 72.0231 49.9091 71.7759 50.2699C71.5316 50.6278 71.3739 51.0099 71.3029 51.4162L71.2177 51.919C71.1268 52.473 71.1381 52.9375 71.2518 53.3125C71.3654 53.6847 71.5714 53.9659 71.8697 54.1562C72.168 54.3466 72.5501 54.4418 73.016 54.4418C73.3285 54.4418 73.6112 54.3935 73.864 54.2969C74.1168 54.2003 74.337 54.071 74.5245 53.9091C74.712 53.7443 74.8626 53.5639 74.9762 53.3679L75.6538 53.6023C75.5089 53.8778 75.3043 54.1321 75.0401 54.3651C74.7788 54.598 74.4677 54.7855 74.1069 54.9276C73.7489 55.0668 73.3498 55.1364 72.9094 55.1364ZM77.2528 55L78.3438 48.4545H79.081L78.9105 49.4602H78.9659C79.1477 49.1307 79.419 48.8651 79.7798 48.6634C80.1435 48.4588 80.5313 48.3565 80.9432 48.3565C81.0057 48.3565 81.0753 48.358 81.152 48.3608C81.2287 48.3608 81.2926 48.3636 81.3438 48.3693L81.2116 49.1406C81.1776 49.1349 81.1179 49.1264 81.0327 49.1151C80.9503 49.1037 80.858 49.098 80.7557 49.098C80.4148 49.098 80.0994 49.1705 79.8097 49.3153C79.5227 49.4574 79.2813 49.6548 79.0852 49.9077C78.892 50.1605 78.767 50.4489 78.7102 50.7727L78.0114 55H77.2528ZM86.7919 49.8906L86.0632 50.0781C86.0263 49.8821 85.9581 49.706 85.8587 49.5497C85.7621 49.3906 85.6214 49.2656 85.4368 49.1747C85.255 49.081 85.0163 49.0341 84.7209 49.0341C84.2777 49.0341 83.8956 49.142 83.5746 49.358C83.2536 49.571 83.0661 49.8437 83.0121 50.1761C82.9666 50.4545 83.0249 50.6804 83.1868 50.8537C83.3516 51.027 83.6271 51.1634 84.0135 51.2628L84.968 51.5057C85.4964 51.642 85.8729 51.8551 86.0973 52.1449C86.3246 52.4347 86.4027 52.8011 86.3317 53.2443C86.2692 53.6136 86.1115 53.9403 85.8587 54.2244C85.6087 54.5085 85.2876 54.7315 84.8956 54.8935C84.5064 55.0554 84.0717 55.1364 83.5916 55.1364C82.9467 55.1364 82.4396 54.9915 82.0703 54.7017C81.7038 54.4119 81.5078 53.9943 81.4822 53.4489L82.245 53.2784C82.2678 53.6648 82.3999 53.9574 82.6413 54.1562C82.8857 54.3551 83.2294 54.4545 83.6726 54.4545C84.1783 54.4545 84.603 54.3395 84.9467 54.1094C85.2905 53.8793 85.4879 53.5952 85.5391 53.2571C85.5874 52.9901 85.5376 52.7685 85.3899 52.5923C85.245 52.4162 84.9979 52.2855 84.6484 52.2003L83.63 51.9446C83.0817 51.8054 82.6939 51.5881 82.4666 51.2926C82.2422 50.9943 82.1669 50.6264 82.2408 50.1889C82.3004 49.8281 82.451 49.5114 82.6925 49.2386C82.9339 48.9659 83.2393 48.7528 83.6087 48.5994C83.978 48.4432 84.3814 48.3651 84.8189 48.3651C85.4212 48.3651 85.88 48.5014 86.1953 48.7741C86.5107 49.044 86.7095 49.4162 86.7919 49.8906ZM87.7028 55L88.7937 48.4545H89.5565L88.4656 55H87.7028ZM89.4499 47.3168C89.2908 47.3168 89.1559 47.2628 89.0451 47.1548C88.9371 47.0469 88.8846 46.9162 88.8874 46.7628C88.8931 46.6179 88.9513 46.4929 89.0621 46.3878C89.1758 46.2798 89.3093 46.2259 89.4627 46.2259C89.6218 46.2259 89.7567 46.2812 89.8675 46.392C89.9783 46.5 90.0309 46.6307 90.0252 46.7841C90.0224 46.929 89.9641 47.054 89.8505 47.1591C89.7369 47.2642 89.6033 47.3168 89.4499 47.3168ZM93.0455 55.1364C92.4716 55.1364 91.9886 54.9915 91.5966 54.7017C91.2045 54.4091 90.9276 54.0043 90.7656 53.4872C90.6037 52.9702 90.5767 52.3736 90.6847 51.6974C90.7926 51.0384 91.0071 50.4588 91.3281 49.9588C91.652 49.456 92.0497 49.0653 92.5213 48.7869C92.9929 48.5057 93.5057 48.3651 94.0597 48.3651C94.6364 48.3651 95.1193 48.5114 95.5085 48.804C95.9006 49.0966 96.1776 49.5014 96.3395 50.0185C96.5043 50.5355 96.5327 51.1335 96.4247 51.8125C96.3168 52.4688 96.1009 53.0469 95.777 53.5469C95.4531 54.044 95.0554 54.4332 94.5838 54.7145C94.1151 54.9957 93.6023 55.1364 93.0455 55.1364ZM93.054 54.4418C93.5199 54.4418 93.9347 54.3182 94.2983 54.071C94.6648 53.821 94.9673 53.4886 95.206 53.0739C95.4446 52.6562 95.6051 52.1974 95.6875 51.6974C95.7642 51.2202 95.7557 50.7812 95.6619 50.3807C95.5682 49.9801 95.3878 49.6591 95.1207 49.4176C94.8537 49.1761 94.4986 49.0554 94.0554 49.0554C93.5923 49.0554 93.1776 49.1818 92.8111 49.4347C92.4446 49.6847 92.142 50.0199 91.9034 50.4403C91.6648 50.858 91.5057 51.3153 91.4261 51.8125C91.3466 52.2926 91.3523 52.7315 91.4432 53.1293C91.5369 53.527 91.7173 53.8452 91.9844 54.0838C92.2543 54.3224 92.6108 54.4418 93.054 54.4418ZM98.9975 50.9091L98.32 55H97.5614L98.6523 48.4545H99.3896L99.2191 49.4815H99.2873C99.4918 49.1463 99.7745 48.8778 100.135 48.6761C100.499 48.4716 100.921 48.3693 101.401 48.3693C101.838 48.3693 102.208 48.4616 102.509 48.6463C102.813 48.8281 103.029 49.0966 103.157 49.4517C103.287 49.8068 103.31 50.2429 103.225 50.7599L102.513 55H101.755L102.453 50.8068C102.542 50.2727 102.463 49.8494 102.219 49.5369C101.978 49.2216 101.604 49.0639 101.098 49.0639C100.755 49.0639 100.435 49.1378 100.14 49.2855C99.8469 49.4332 99.5998 49.6463 99.3981 49.9247C99.1964 50.2003 99.0629 50.5284 98.9975 50.9091ZM106.965 51.3182C106.795 52.3409 106.505 53.3068 106.096 54.2159C105.69 55.125 105.178 55.9773 104.562 56.7727H103.871C104.136 56.4375 104.388 56.0582 104.63 55.6349C104.871 55.2116 105.093 54.7599 105.295 54.2798C105.499 53.7997 105.677 53.3082 105.827 52.8054C105.981 52.3026 106.099 51.8068 106.181 51.3182C106.289 50.6619 106.339 50 106.33 49.3324C106.322 48.6648 106.261 48.0312 106.147 47.4318C106.036 46.8324 105.88 46.3097 105.678 45.8636H106.369C106.718 46.6619 106.947 47.5156 107.055 48.4247C107.165 49.3338 107.136 50.2983 106.965 51.3182Z" fill="black"/>
</svg>
