<svg width="100%" viewBox="0 0 1296 98" fill="none" xmlns="http://www.w3.org/2000/svg">
<rect x="0.5" y="0.5" width="1295" height="97" rx="19.5" fill="#24CBFF" fill-opacity="0.2"/>
<rect x="0.5" y="0.5" width="1295" height="97" rx="19.5" stroke="#24CBFF"/>
<path d="M50.1222 42H48.4602L53.267 28.9091H54.9034L59.7102 42H58.0483L54.1364 30.9801H54.0341L50.1222 42ZM50.7358 36.8864H57.4347V38.2926H50.7358V36.8864ZM63.0533 36.0938V42H61.5447V32.1818H63.0021V33.7159H63.13C63.3601 33.2173 63.7095 32.8168 64.1783 32.5142C64.647 32.2074 65.2521 32.054 65.9936 32.054C66.6584 32.054 67.2401 32.1903 67.7386 32.4631C68.2372 32.7315 68.625 33.1406 68.902 33.6903C69.179 34.2358 69.3175 34.9261 69.3175 35.7614V42H67.8089V35.8636C67.8089 35.0923 67.6087 34.4915 67.2081 34.0611C66.8075 33.6264 66.2578 33.4091 65.5589 33.4091C65.0774 33.4091 64.647 33.5135 64.2678 33.7223C63.8928 33.9311 63.5966 34.2358 63.3793 34.6364C63.1619 35.0369 63.0533 35.5227 63.0533 36.0938ZM73.5826 36.0938V42H72.074V32.1818H73.5314V33.7159H73.6593C73.8894 33.2173 74.2388 32.8168 74.7076 32.5142C75.1763 32.2074 75.7814 32.054 76.5229 32.054C77.1877 32.054 77.7694 32.1903 78.2679 32.4631C78.7665 32.7315 79.1543 33.1406 79.4313 33.6903C79.7083 34.2358 79.8468 34.9261 79.8468 35.7614V42H78.3382V35.8636C78.3382 35.0923 78.138 34.4915 77.7374 34.0611C77.3368 33.6264 76.7871 33.4091 76.0882 33.4091C75.6067 33.4091 75.1763 33.5135 74.7971 33.7223C74.4221 33.9311 74.1259 34.2358 73.9086 34.6364C73.6912 35.0369 73.5826 35.5227 73.5826 36.0938ZM88.7908 37.9858V32.1818H90.2994V42H88.7908V40.3381H88.6886C88.4585 40.8366 88.1005 41.2607 87.6147 41.6101C87.1289 41.9553 86.5153 42.1278 85.7738 42.1278C85.1602 42.1278 84.6147 41.9936 84.1374 41.7251C83.6602 41.4524 83.2852 41.0433 83.0124 40.4979C82.7397 39.9482 82.6033 39.2557 82.6033 38.4205V32.1818H84.1119V38.3182C84.1119 39.0341 84.3121 39.6051 84.7127 40.0312C85.1175 40.4574 85.6332 40.6705 86.2596 40.6705C86.6346 40.6705 87.016 40.5746 87.4038 40.3828C87.7958 40.1911 88.1239 39.897 88.3881 39.5007C88.6566 39.1044 88.7908 38.5994 88.7908 37.9858ZM95.9515 42.2301C95.3294 42.2301 94.7647 42.1129 94.2576 41.8786C93.7505 41.6399 93.3478 41.2969 93.0495 40.8494C92.7512 40.3977 92.6021 39.8523 92.6021 39.2131C92.6021 38.6506 92.7129 38.1946 92.9345 37.8452C93.1561 37.4915 93.4522 37.2145 93.823 37.0142C94.1937 36.8139 94.6028 36.6648 95.0502 36.5668C95.502 36.4645 95.9558 36.3835 96.4118 36.3239C97.0083 36.2472 97.492 36.1896 97.8627 36.1513C98.2377 36.1087 98.5105 36.0384 98.6809 35.9403C98.8556 35.8423 98.943 35.6719 98.943 35.429V35.3778C98.943 34.7472 98.7704 34.2571 98.4252 33.9077C98.0843 33.5582 97.5666 33.3835 96.872 33.3835C96.1518 33.3835 95.5872 33.5412 95.1781 33.8565C94.769 34.1719 94.4814 34.5085 94.3152 34.8665L92.8833 34.3551C93.139 33.7585 93.4799 33.294 93.9061 32.9616C94.3365 32.625 94.8052 32.3906 95.3123 32.2585C95.8237 32.1222 96.3265 32.054 96.8208 32.054C97.1362 32.054 97.4984 32.0923 97.9075 32.169C98.3208 32.2415 98.7193 32.3928 99.1028 32.6229C99.4906 32.853 99.8123 33.2003 100.068 33.6648C100.324 34.1293 100.452 34.7514 100.452 35.5312V42H98.943V40.6705H98.8663C98.764 40.8835 98.5936 41.1115 98.3549 41.3544C98.1163 41.5973 97.7988 41.804 97.4025 41.9744C97.0062 42.1449 96.5226 42.2301 95.9515 42.2301ZM96.1816 40.875C96.7782 40.875 97.2811 40.7578 97.6902 40.5234C98.1035 40.2891 98.4146 39.9865 98.6234 39.6158C98.8365 39.245 98.943 38.8551 98.943 38.446V37.0653C98.8791 37.142 98.7385 37.2124 98.5211 37.2763C98.3081 37.3359 98.0609 37.3892 97.7797 37.4361C97.5027 37.4787 97.2321 37.517 96.9679 37.5511C96.7079 37.581 96.497 37.6065 96.3351 37.6278C95.943 37.679 95.5765 37.7621 95.2356 37.8771C94.899 37.9879 94.6262 38.1562 94.4174 38.3821C94.2129 38.6037 94.1106 38.9062 94.1106 39.2898C94.1106 39.8139 94.3045 40.2102 94.6923 40.4787C95.0843 40.7429 95.5808 40.875 96.1816 40.875ZM104.713 28.9091V42H103.205V28.9091H104.713ZM112.743 42V28.9091H117.167C118.189 28.9091 119.029 29.0838 119.685 29.4332C120.341 29.7784 120.827 30.2536 121.143 30.8587C121.458 31.4638 121.616 32.152 121.616 32.9233C121.616 33.6946 121.458 34.3786 121.143 34.9751C120.827 35.5717 120.344 36.0405 119.692 36.3814C119.04 36.718 118.206 36.8864 117.192 36.8864H113.613V35.4545H117.141C117.84 35.4545 118.403 35.3523 118.829 35.1477C119.259 34.9432 119.57 34.6534 119.762 34.2784C119.958 33.8991 120.056 33.4474 120.056 32.9233C120.056 32.3991 119.958 31.9411 119.762 31.549C119.566 31.157 119.253 30.8544 118.822 30.6413C118.392 30.424 117.823 30.3153 117.116 30.3153H114.329V42H112.743ZM118.905 36.1193L122.127 42H120.286L117.116 36.1193H118.905ZM128.064 42.2045C127.118 42.2045 126.301 41.9957 125.615 41.5781C124.934 41.1562 124.407 40.5682 124.037 39.8139C123.67 39.0554 123.487 38.1733 123.487 37.1676C123.487 36.1619 123.67 35.2756 124.037 34.5085C124.407 33.7372 124.923 33.1364 125.583 32.706C126.248 32.2713 127.024 32.054 127.91 32.054C128.422 32.054 128.926 32.1392 129.425 32.3097C129.924 32.4801 130.377 32.7571 130.787 33.1406C131.196 33.5199 131.522 34.0227 131.765 34.6491C132.007 35.2756 132.129 36.0469 132.129 36.9631V37.6023H124.561V36.2983H130.595C130.595 35.7443 130.484 35.25 130.262 34.8153C130.045 34.3807 129.734 34.0376 129.329 33.7862C128.929 33.5348 128.456 33.4091 127.91 33.4091C127.309 33.4091 126.789 33.5582 126.35 33.8565C125.916 34.1506 125.581 34.5341 125.347 35.0071C125.113 35.4801 124.995 35.9872 124.995 36.5284V37.3977C124.995 38.1392 125.123 38.7678 125.379 39.2834C125.639 39.7947 125.999 40.1847 126.459 40.4531C126.919 40.7173 127.454 40.8494 128.064 40.8494C128.46 40.8494 128.818 40.794 129.137 40.6832C129.461 40.5682 129.74 40.3977 129.975 40.1719C130.209 39.9418 130.39 39.6562 130.518 39.3153L131.975 39.7244C131.822 40.2188 131.564 40.6534 131.202 41.0284C130.84 41.3991 130.392 41.6889 129.86 41.8977C129.327 42.1023 128.728 42.2045 128.064 42.2045ZM134.424 45.6818V32.1818H135.881V33.7415H136.06C136.171 33.571 136.324 33.3537 136.52 33.0895C136.721 32.821 137.006 32.5824 137.377 32.3736C137.752 32.1605 138.259 32.054 138.898 32.054C139.725 32.054 140.453 32.2607 141.084 32.674C141.715 33.0874 142.207 33.6733 142.561 34.4318C142.914 35.1903 143.091 36.0852 143.091 37.1165C143.091 38.1562 142.914 39.0575 142.561 39.8203C142.207 40.5788 141.717 41.1669 141.091 41.5845C140.464 41.9979 139.742 42.2045 138.924 42.2045C138.293 42.2045 137.788 42.1001 137.409 41.8913C137.029 41.6783 136.738 41.4375 136.533 41.169C136.328 40.8963 136.171 40.6705 136.06 40.4915H135.932V45.6818H134.424ZM135.907 37.0909C135.907 37.8324 136.015 38.4865 136.233 39.0533C136.45 39.6158 136.767 40.0568 137.185 40.3764C137.603 40.6918 138.114 40.8494 138.719 40.8494C139.35 40.8494 139.876 40.6832 140.298 40.3509C140.724 40.0142 141.044 39.5625 141.257 38.9957C141.474 38.4247 141.583 37.7898 141.583 37.0909C141.583 36.4006 141.476 35.7784 141.263 35.2244C141.054 34.6662 140.737 34.2251 140.311 33.9013C139.889 33.5732 139.358 33.4091 138.719 33.4091C138.105 33.4091 137.59 33.5646 137.172 33.8757C136.755 34.1825 136.439 34.6129 136.226 35.1669C136.013 35.7166 135.907 36.358 135.907 37.0909ZM149.381 42.2045C148.495 42.2045 147.717 41.9936 147.048 41.5717C146.383 41.1499 145.863 40.5597 145.488 39.8011C145.118 39.0426 144.932 38.1562 144.932 37.142C144.932 36.1193 145.118 35.2266 145.488 34.4638C145.863 33.701 146.383 33.1087 147.048 32.6868C147.717 32.2649 148.495 32.054 149.381 32.054C150.267 32.054 151.043 32.2649 151.708 32.6868C152.377 33.1087 152.897 33.701 153.267 34.4638C153.642 35.2266 153.83 36.1193 153.83 37.142C153.83 38.1562 153.642 39.0426 153.267 39.8011C152.897 40.5597 152.377 41.1499 151.708 41.5717C151.043 41.9936 150.267 42.2045 149.381 42.2045ZM149.381 40.8494C150.054 40.8494 150.608 40.6768 151.043 40.3317C151.478 39.9865 151.799 39.5327 152.008 38.9702C152.217 38.4077 152.321 37.7983 152.321 37.142C152.321 36.4858 152.217 35.8743 152.008 35.3075C151.799 34.7408 151.478 34.2827 151.043 33.9332C150.608 33.5838 150.054 33.4091 149.381 33.4091C148.708 33.4091 148.154 33.5838 147.719 33.9332C147.284 34.2827 146.963 34.7408 146.754 35.3075C146.545 35.8743 146.441 36.4858 146.441 37.142C146.441 37.7983 146.545 38.4077 146.754 38.9702C146.963 39.5327 147.284 39.9865 147.719 40.3317C148.154 40.6768 148.708 40.8494 149.381 40.8494ZM156.133 42V32.1818H157.59V33.6648H157.692C157.871 33.179 158.195 32.7848 158.664 32.4822C159.133 32.1797 159.661 32.0284 160.249 32.0284C160.36 32.0284 160.498 32.0305 160.665 32.0348C160.831 32.0391 160.956 32.0455 161.042 32.054V33.5881C160.991 33.5753 160.873 33.5561 160.69 33.5305C160.511 33.5007 160.322 33.4858 160.121 33.4858C159.644 33.4858 159.218 33.5859 158.843 33.7862C158.472 33.9822 158.178 34.255 157.961 34.6044C157.748 34.9496 157.641 35.3437 157.641 35.7869V42H156.133ZM167.715 32.1818V33.4602H162.627V32.1818H167.715ZM164.11 29.8295H165.618V39.1875C165.618 39.6136 165.68 39.9332 165.804 40.1463C165.932 40.3551 166.094 40.4957 166.29 40.5682C166.49 40.6364 166.701 40.6705 166.922 40.6705C167.089 40.6705 167.225 40.6619 167.331 40.6449C167.438 40.6236 167.523 40.6065 167.587 40.5938L167.894 41.9489C167.792 41.9872 167.649 42.0256 167.466 42.0639C167.282 42.1065 167.05 42.1278 166.769 42.1278C166.343 42.1278 165.925 42.0362 165.516 41.853C165.111 41.6697 164.775 41.3906 164.506 41.0156C164.242 40.6406 164.11 40.1676 164.11 39.5966V29.8295ZM176.836 28.9091V42H175.251V28.9091H176.836ZM180.015 28.9091H181.907L186.356 39.7756H186.509L190.958 28.9091H192.85V42H191.367V32.054H191.239L187.148 42H185.717L181.626 32.054H181.498V42H180.015V28.9091ZM196.029 42V28.9091H203.929V30.3153H197.614V34.7386H203.52V36.1449H197.614V40.5938H204.031V42H196.029ZM207.553 28.9091L210.928 34.3551H211.031L214.406 28.9091H216.272L212.156 35.4545L216.272 42H214.406L211.031 36.6562H210.928L207.553 42H205.687L209.906 35.4545L205.687 28.9091H207.553ZM218.335 42V28.9091H222.759C223.786 28.9091 224.625 29.0945 225.277 29.4652C225.933 29.8317 226.419 30.3281 226.734 30.9545C227.05 31.581 227.207 32.2798 227.207 33.0511C227.207 33.8224 227.05 34.5234 226.734 35.1541C226.423 35.7848 225.942 36.2876 225.29 36.6626C224.638 37.0334 223.803 37.2188 222.784 37.2188H219.614V35.8125H222.733C223.436 35.8125 224.001 35.6911 224.427 35.4482C224.853 35.2053 225.162 34.8771 225.354 34.4638C225.55 34.0462 225.648 33.5753 225.648 33.0511C225.648 32.527 225.55 32.0582 225.354 31.6449C225.162 31.2315 224.851 30.9077 224.42 30.6733C223.99 30.4347 223.419 30.3153 222.707 30.3153H219.92V42H218.335ZM229.761 42V28.9091H231.346V34.7386H238.326V28.9091H239.912V42H238.326V36.1449H231.346V42H229.761ZM243.622 42H241.96L246.767 28.9091H248.403L253.21 42H251.548L247.636 30.9801H247.534L243.622 42ZM244.236 36.8864H250.935V38.2926H244.236V36.8864ZM255.249 42V28.9091H259.673C260.695 28.9091 261.535 29.0838 262.191 29.4332C262.847 29.7784 263.333 30.2536 263.648 30.8587C263.964 31.4638 264.121 32.152 264.121 32.9233C264.121 33.6946 263.964 34.3786 263.648 34.9751C263.333 35.5717 262.849 36.0405 262.197 36.3814C261.545 36.718 260.712 36.8864 259.698 36.8864H256.119V35.4545H259.647C260.346 35.4545 260.908 35.3523 261.335 35.1477C261.765 34.9432 262.076 34.6534 262.268 34.2784C262.464 33.8991 262.562 33.4474 262.562 32.9233C262.562 32.3991 262.464 31.9411 262.268 31.549C262.072 31.157 261.759 30.8544 261.328 30.6413C260.898 30.424 260.329 30.3153 259.621 30.3153H256.835V42H255.249ZM261.411 36.1193L264.633 42H262.792L259.621 36.1193H261.411ZM266.763 28.9091H268.655L273.104 39.7756H273.257L277.706 28.9091H279.598V42H278.115V32.054H277.987L273.896 42H272.465L268.374 32.054H268.246V42H266.763V28.9091ZM293.26 34.7514V36.1577H287.532V34.7514H293.26ZM300.951 42V40.8494L305.272 36.1193C305.779 35.5653 306.197 35.0838 306.525 34.6747C306.853 34.2614 307.096 33.8736 307.253 33.5114C307.415 33.1449 307.496 32.7614 307.496 32.3608C307.496 31.9006 307.385 31.5021 307.164 31.1655C306.947 30.8288 306.648 30.5689 306.269 30.3857C305.89 30.2024 305.464 30.1108 304.991 30.1108C304.488 30.1108 304.049 30.2152 303.674 30.424C303.303 30.6286 303.015 30.9162 302.811 31.2869C302.611 31.6577 302.51 32.0923 302.51 32.5909H301.002C301.002 31.8239 301.179 31.1506 301.532 30.571C301.886 29.9915 302.368 29.5398 302.977 29.2159C303.591 28.892 304.279 28.7301 305.042 28.7301C305.809 28.7301 306.488 28.892 307.081 29.2159C307.673 29.5398 308.138 29.9766 308.474 30.5263C308.811 31.076 308.979 31.6875 308.979 32.3608C308.979 32.8423 308.892 33.3132 308.717 33.7734C308.547 34.2294 308.248 34.7386 307.822 35.3011C307.4 35.8594 306.814 36.5412 306.064 37.3466L303.124 40.4915V40.5938H309.209V42H300.951ZM316.119 42.179C315.156 42.179 314.336 41.9169 313.658 41.3928C312.981 40.8643 312.463 40.0994 312.105 39.098C311.747 38.0923 311.568 36.8778 311.568 35.4545C311.568 34.0398 311.747 32.8317 312.105 31.8303C312.467 30.8246 312.987 30.0575 313.665 29.5291C314.346 28.9964 315.165 28.7301 316.119 28.7301C317.074 28.7301 317.89 28.9964 318.567 29.5291C319.249 30.0575 319.769 30.8246 320.127 31.8303C320.489 32.8317 320.67 34.0398 320.67 35.4545C320.67 36.8778 320.491 38.0923 320.133 39.098C319.775 40.0994 319.258 40.8643 318.58 41.3928C317.903 41.9169 317.082 42.179 316.119 42.179ZM316.119 40.7727C317.074 40.7727 317.815 40.3125 318.344 39.392C318.872 38.4716 319.136 37.1591 319.136 35.4545C319.136 34.321 319.015 33.3558 318.772 32.5589C318.533 31.7621 318.188 31.1548 317.736 30.7372C317.289 30.3196 316.75 30.1108 316.119 30.1108C315.173 30.1108 314.434 30.5774 313.901 31.5107C313.368 32.4396 313.102 33.7543 313.102 35.4545C313.102 36.5881 313.221 37.5511 313.46 38.3438C313.699 39.1364 314.042 39.7393 314.489 40.1527C314.941 40.5661 315.484 40.7727 316.119 40.7727ZM323.099 42V40.8494L327.42 36.1193C327.927 35.5653 328.345 35.0838 328.673 34.6747C329.001 34.2614 329.244 33.8736 329.402 33.5114C329.564 33.1449 329.645 32.7614 329.645 32.3608C329.645 31.9006 329.534 31.5021 329.312 31.1655C329.095 30.8288 328.797 30.5689 328.417 30.3857C328.038 30.2024 327.612 30.1108 327.139 30.1108C326.636 30.1108 326.197 30.2152 325.822 30.424C325.452 30.6286 325.164 30.9162 324.959 31.2869C324.759 31.6577 324.659 32.0923 324.659 32.5909H323.15C323.15 31.8239 323.327 31.1506 323.681 30.571C324.035 29.9915 324.516 29.5398 325.126 29.2159C325.739 28.892 326.427 28.7301 327.19 28.7301C327.957 28.7301 328.637 28.892 329.229 29.2159C329.822 29.5398 330.286 29.9766 330.623 30.5263C330.959 31.076 331.128 31.6875 331.128 32.3608C331.128 32.8423 331.04 33.3132 330.866 33.7734C330.695 34.2294 330.397 34.7386 329.971 35.3011C329.549 35.8594 328.963 36.5412 328.213 37.3466L325.273 40.4915V40.5938H331.358V42H323.099ZM338.421 42.179C337.577 42.179 336.825 42.0341 336.165 41.7443C335.508 41.4545 334.986 41.0518 334.599 40.5362C334.215 40.0163 334.006 39.4134 333.972 38.7273H335.583C335.617 39.1491 335.762 39.5135 336.018 39.8203C336.273 40.1229 336.608 40.3572 337.021 40.5234C337.434 40.6896 337.893 40.7727 338.395 40.7727C338.958 40.7727 339.456 40.6747 339.891 40.4787C340.326 40.2827 340.667 40.0099 340.914 39.6605C341.161 39.3111 341.285 38.9062 341.285 38.446C341.285 37.9645 341.165 37.5405 340.927 37.174C340.688 36.8033 340.339 36.5135 339.878 36.3047C339.418 36.0959 338.856 35.9915 338.191 35.9915H337.143V34.5852H338.191C338.711 34.5852 339.167 34.4915 339.559 34.304C339.955 34.1165 340.264 33.8523 340.486 33.5114C340.711 33.1705 340.824 32.7699 340.824 32.3097C340.824 31.8665 340.726 31.4808 340.53 31.1527C340.334 30.8246 340.057 30.5689 339.699 30.3857C339.346 30.2024 338.928 30.1108 338.447 30.1108C337.995 30.1108 337.569 30.1939 337.168 30.3601C336.772 30.522 336.448 30.7585 336.197 31.0696C335.945 31.3764 335.809 31.7472 335.787 32.1818H334.253C334.279 31.4957 334.486 30.8949 334.873 30.3793C335.261 29.8594 335.768 29.4545 336.395 29.1648C337.025 28.875 337.718 28.7301 338.472 28.7301C339.282 28.7301 339.976 28.8942 340.556 29.2223C341.135 29.5462 341.581 29.9744 341.892 30.5071C342.203 31.0398 342.358 31.6151 342.358 32.233C342.358 32.9702 342.165 33.5987 341.777 34.1186C341.393 34.6385 340.871 34.9986 340.211 35.1989V35.3011C341.037 35.4375 341.683 35.7891 342.148 36.3558C342.612 36.9183 342.844 37.6151 342.844 38.446C342.844 39.1577 342.65 39.7969 342.263 40.3636C341.879 40.9261 341.355 41.3693 340.69 41.6932C340.025 42.017 339.269 42.179 338.421 42.179Z" fill="#24408E"/>
<path d="M49.8466 65.0909C50.0739 63.7273 50.4583 62.4394 51 61.2273C51.5455 60.0152 52.2292 58.8788 53.0511 57.8182H53.9716C53.6231 58.2614 53.286 58.767 52.9602 59.3352C52.6383 59.8996 52.3409 60.5019 52.0682 61.142C51.7992 61.7822 51.5625 62.4375 51.358 63.108C51.1572 63.7746 51.0019 64.4356 50.892 65.0909C50.7481 65.9659 50.6818 66.8485 50.6932 67.7386C50.7045 68.6288 50.7841 69.4735 50.9318 70.2727C51.0833 71.072 51.2936 71.7689 51.5625 72.3636H50.642C50.1761 71.2992 49.8693 70.161 49.7216 68.9489C49.5777 67.7367 49.6193 66.4508 49.8466 65.0909ZM53.6094 73.2727L55.6207 61.2727H56.6037L56.331 62.9375H56.4503C56.6094 62.6761 56.8158 62.4072 57.0696 62.1307C57.3272 61.8542 57.6473 61.6231 58.0298 61.4375C58.4162 61.2481 58.8783 61.1534 59.4162 61.1534C60.1359 61.1534 60.7325 61.3409 61.206 61.7159C61.6832 62.0909 62.0166 62.6174 62.206 63.2955C62.3991 63.9735 62.42 64.7614 62.2685 65.6591C62.1207 66.5606 61.8385 67.3504 61.4219 68.0284C61.0052 68.7064 60.4957 69.2348 59.8935 69.6136C59.295 69.9924 58.6397 70.1818 57.9276 70.1818C57.401 70.1818 56.9749 70.0871 56.6491 69.8977C56.3272 69.7083 56.081 69.4754 55.9105 69.1989C55.7401 68.9186 55.617 68.6458 55.5412 68.3807H55.4503L54.6321 73.2727H53.6094ZM55.8935 65.642C55.7798 66.3466 55.7798 66.9716 55.8935 67.517C56.0071 68.0587 56.2363 68.4848 56.581 68.7955C56.9257 69.1023 57.3802 69.2557 57.9446 69.2557C58.5241 69.2557 59.0412 69.0966 59.4957 68.7784C59.9503 68.4564 60.3291 68.0227 60.6321 67.4773C60.9351 66.9318 61.1435 66.3201 61.2571 65.642C61.3632 64.9716 61.3594 64.3674 61.2457 63.8295C61.1321 63.2917 60.9048 62.8655 60.5639 62.5511C60.223 62.233 59.759 62.0739 59.1719 62.0739C58.6037 62.0739 58.0923 62.2273 57.6378 62.5341C57.187 62.8371 56.812 63.2576 56.5128 63.7955C56.2135 64.3295 56.0071 64.9451 55.8935 65.642ZM65.679 64.5455L64.7756 70H63.7642L65.696 58.3636H66.7074L66.0028 62.642H66.0938C66.3665 62.1875 66.7415 61.8277 67.2188 61.5625C67.696 61.2936 68.2661 61.1591 68.929 61.1591C69.5161 61.1591 70.0123 61.2803 70.4176 61.5227C70.8267 61.7652 71.1165 62.1231 71.2869 62.5966C71.4612 63.0701 71.4915 63.6534 71.3778 64.3466L70.429 70H69.4119L70.3438 64.4091C70.4612 63.6894 70.3551 63.1231 70.0256 62.7102C69.6998 62.2936 69.1998 62.0852 68.5256 62.0852C68.0634 62.0852 67.6316 62.1837 67.2301 62.3807C66.8324 62.5777 66.4953 62.8617 66.2188 63.233C65.946 63.6004 65.7661 64.0379 65.679 64.5455ZM73.1037 70L74.5582 61.2727H75.5753L74.1207 70H73.1037ZM75.4332 59.7557C75.2211 59.7557 75.0412 59.6837 74.8935 59.5398C74.7495 59.3958 74.6795 59.2216 74.6832 59.017C74.6908 58.8239 74.7685 58.6572 74.9162 58.517C75.0677 58.3731 75.2457 58.3011 75.4503 58.3011C75.6624 58.3011 75.8423 58.375 75.9901 58.5227C76.1378 58.6667 76.2079 58.8409 76.2003 59.0455C76.1965 59.2386 76.1188 59.4053 75.9673 59.5455C75.8158 59.6856 75.6378 59.7557 75.4332 59.7557ZM80.3011 70.1818C79.4867 70.1818 78.8144 69.9924 78.2841 69.6136C77.7538 69.2311 77.3826 68.7027 77.1705 68.0284C76.9583 67.3504 76.9261 66.5701 77.0739 65.6875C77.2216 64.8087 77.5133 64.0284 77.9489 63.3466C78.3845 62.661 78.9223 62.125 79.5625 61.7386C80.2027 61.3485 80.8977 61.1534 81.6477 61.1534C82.1212 61.1534 82.5644 61.2405 82.9773 61.4148C83.3902 61.5852 83.7405 61.8485 84.0284 62.2045C84.3201 62.5568 84.5227 63.0019 84.6364 63.5398C84.75 64.0739 84.7462 64.7064 84.625 65.4375L84.5455 65.9375H77.7273L77.8693 65.0455H83.6591C83.7538 64.4848 83.7273 63.9811 83.5795 63.5341C83.4318 63.0871 83.1799 62.733 82.8239 62.4716C82.4716 62.2064 82.0341 62.0739 81.5114 62.0739C80.9773 62.0739 80.4716 62.2235 79.9943 62.5227C79.5208 62.822 79.1193 63.2121 78.7898 63.6932C78.464 64.1705 78.2538 64.6799 78.1591 65.2216L78.0455 65.892C77.9242 66.6307 77.9394 67.25 78.0909 67.75C78.2424 68.2462 78.517 68.6212 78.9148 68.875C79.3125 69.1288 79.822 69.2557 80.4432 69.2557C80.8598 69.2557 81.2367 69.1913 81.5739 69.0625C81.911 68.9337 82.2045 68.7614 82.4545 68.5455C82.7045 68.3258 82.9053 68.0852 83.0568 67.8239L83.9602 68.1364C83.767 68.5038 83.4943 68.8428 83.142 69.1534C82.7936 69.464 82.3788 69.714 81.8977 69.9034C81.4205 70.089 80.8883 70.1818 80.3011 70.1818ZM83.0682 60.2727L81.9886 58.642L80.3807 60.2727H79.358L79.3693 60.1989L81.6648 57.9091H82.517L84.0682 60.1989L84.0511 60.2727H83.0682ZM88.0071 64.5455L87.1037 70H86.0923L87.5469 61.2727H88.5298L88.3026 62.642H88.3935C88.6662 62.1951 89.0431 61.8371 89.5241 61.5682C90.009 61.2955 90.5715 61.1591 91.2116 61.1591C91.795 61.1591 92.2874 61.2822 92.6889 61.5284C93.0942 61.7708 93.3821 62.1288 93.5526 62.6023C93.7268 63.0758 93.7571 63.6572 93.6435 64.3466L92.6946 70H91.6832L92.6151 64.4091C92.7325 63.697 92.6283 63.1326 92.3026 62.7159C91.9806 62.2955 91.4825 62.0852 90.8082 62.0852C90.3499 62.0852 89.9238 62.1837 89.5298 62.3807C89.1397 62.5777 88.8101 62.8617 88.5412 63.233C88.2723 63.6004 88.0942 64.0379 88.0071 64.5455ZM100.068 70L102 58.3636H103.017L102.267 62.9375H102.358C102.513 62.6761 102.72 62.4072 102.977 62.1307C103.239 61.8542 103.561 61.6231 103.943 61.4375C104.326 61.2481 104.784 61.1534 105.318 61.1534C106.034 61.1534 106.631 61.3428 107.108 61.7216C107.589 62.0966 107.924 62.6231 108.114 63.3011C108.303 63.9754 108.324 64.7614 108.176 65.6591C108.025 66.5606 107.742 67.3504 107.33 68.0284C106.917 68.7064 106.409 69.2348 105.807 69.6136C105.205 69.9924 104.547 70.1818 103.835 70.1818C103.305 70.1818 102.877 70.0871 102.551 69.8977C102.229 69.7083 101.983 69.4754 101.812 69.1989C101.646 68.9186 101.525 68.6458 101.449 68.3807H101.324L101.051 70H100.068ZM101.795 65.642C101.682 66.3466 101.682 66.9716 101.795 67.517C101.913 68.0587 102.142 68.4848 102.483 68.7955C102.828 69.1023 103.282 69.2557 103.847 69.2557C104.426 69.2557 104.943 69.0966 105.398 68.7784C105.856 68.4564 106.235 68.0227 106.534 67.4773C106.837 66.9318 107.045 66.3201 107.159 65.642C107.269 64.9716 107.267 64.3674 107.153 63.8295C107.04 63.2917 106.811 62.8655 106.466 62.5511C106.121 62.233 105.657 62.0739 105.074 62.0739C104.506 62.0739 103.994 62.2273 103.54 62.5341C103.089 62.8371 102.714 63.2576 102.415 63.7955C102.116 64.3295 101.909 64.9451 101.795 65.642ZM112.085 70.1989C111.559 70.1989 111.095 70.0966 110.693 69.892C110.292 69.6837 109.992 69.3845 109.795 68.9943C109.602 68.6004 109.549 68.1231 109.636 67.5625C109.712 67.1307 109.856 66.767 110.068 66.4716C110.284 66.1761 110.557 65.9337 110.886 65.7443C111.216 65.5511 111.595 65.3996 112.023 65.2898C112.451 65.1799 112.917 65.0966 113.42 65.0398C113.913 64.9792 114.333 64.9261 114.682 64.8807C115.03 64.8352 115.301 64.7633 115.494 64.6648C115.688 64.5663 115.803 64.4072 115.841 64.1875L115.875 63.983C115.973 63.3883 115.883 62.9205 115.602 62.5795C115.322 62.2348 114.852 62.0625 114.193 62.0625C113.564 62.0625 113.019 62.2027 112.557 62.483C112.098 62.7595 111.758 63.0833 111.534 63.4545L110.636 63.108C110.909 62.6307 111.244 62.25 111.642 61.9659C112.04 61.678 112.466 61.4716 112.92 61.3466C113.375 61.2178 113.824 61.1534 114.267 61.1534C114.6 61.1534 114.939 61.197 115.284 61.2841C115.629 61.3712 115.938 61.5227 116.21 61.7386C116.487 61.9508 116.689 62.2481 116.818 62.6307C116.951 63.0095 116.97 63.4905 116.875 64.0739L115.886 70H114.875L115.108 68.6193H115.045C114.886 68.8769 114.667 69.1269 114.386 69.3693C114.11 69.6117 113.778 69.8106 113.392 69.9659C113.006 70.1212 112.57 70.1989 112.085 70.1989ZM112.341 69.2727C112.879 69.2727 113.366 69.1534 113.801 68.9148C114.241 68.6761 114.6 68.3598 114.881 67.9659C115.165 67.5682 115.347 67.1307 115.426 66.6534L115.636 65.392C115.553 65.464 115.417 65.5284 115.227 65.5852C115.042 65.642 114.831 65.6932 114.597 65.7386C114.366 65.7803 114.133 65.8163 113.898 65.8466C113.667 65.8769 113.462 65.9034 113.284 65.9261C112.78 65.9867 112.341 66.0814 111.966 66.2102C111.595 66.339 111.297 66.517 111.074 66.7443C110.85 66.9678 110.71 67.2557 110.653 67.608C110.566 68.1383 110.682 68.5492 111 68.8409C111.322 69.1288 111.769 69.2727 112.341 69.2727ZM114.972 60.1136H114.108L114.301 58.9261C114.706 58.9034 115.002 58.8409 115.188 58.7386C115.373 58.6326 115.487 58.4697 115.528 58.25C115.57 58 115.483 57.8182 115.267 57.7045C115.055 57.5909 114.756 57.5322 114.369 57.5284L114.54 56.8352C115.248 56.8352 115.761 56.9697 116.08 57.2386C116.398 57.5038 116.525 57.8542 116.46 58.2898C116.396 58.6648 116.231 58.947 115.966 59.1364C115.705 59.322 115.407 59.4337 115.074 59.4716L114.972 60.1136ZM120.491 64.5455L119.588 70H118.577L120.031 61.2727H121.014L120.787 62.642H120.878C121.151 62.1951 121.527 61.8371 122.009 61.5682C122.493 61.2955 123.056 61.1591 123.696 61.1591C124.279 61.1591 124.772 61.2822 125.173 61.5284C125.579 61.7708 125.866 62.1288 126.037 62.6023C126.211 63.0758 126.241 63.6572 126.128 64.3466L125.179 70H124.168L125.099 64.4091C125.217 63.697 125.113 63.1326 124.787 62.7159C124.465 62.2955 123.967 62.0852 123.293 62.0852C122.834 62.0852 122.408 62.1837 122.014 62.3807C121.624 62.5777 121.295 62.8617 121.026 63.233C120.757 63.6004 120.579 64.0379 120.491 64.5455ZM137.234 61.2727L137.092 62.1534H132.922L133.07 61.2727H137.234ZM134.712 59.1818H135.729L134.308 67.7216C134.248 68.0852 134.263 68.3712 134.354 68.5795C134.445 68.7841 134.585 68.9299 134.774 69.017C134.964 69.1004 135.172 69.142 135.399 69.142C135.532 69.142 135.645 69.1345 135.74 69.1193C135.839 69.1004 135.926 69.0814 136.001 69.0625L136.075 69.9773C135.965 70.0152 135.835 70.0492 135.683 70.0795C135.532 70.1136 135.35 70.1307 135.138 70.1307C134.767 70.1307 134.424 70.0492 134.109 69.8864C133.795 69.7235 133.556 69.4811 133.393 69.1591C133.231 68.8371 133.187 68.4375 133.263 67.9602L134.712 59.1818ZM138.088 70L139.543 61.2727H140.56L139.105 70H138.088ZM140.418 59.7557C140.205 59.7557 140.026 59.6837 139.878 59.5398C139.734 59.3958 139.664 59.2216 139.668 59.017C139.675 58.8239 139.753 58.6572 139.901 58.517C140.052 58.3731 140.23 58.3011 140.435 58.3011C140.647 58.3011 140.827 58.375 140.974 58.5227C141.122 58.6667 141.192 58.8409 141.185 59.0455C141.181 59.2386 141.103 59.4053 140.952 59.5455C140.8 59.6856 140.622 59.7557 140.418 59.7557ZM145.286 70.1818C144.471 70.1818 143.799 69.9924 143.268 69.6136C142.738 69.2311 142.367 68.7027 142.155 68.0284C141.943 67.3504 141.911 66.5701 142.058 65.6875C142.206 64.8087 142.498 64.0284 142.933 63.3466C143.369 62.661 143.907 62.125 144.547 61.7386C145.187 61.3485 145.882 61.1534 146.632 61.1534C147.106 61.1534 147.549 61.2405 147.962 61.4148C148.375 61.5852 148.725 61.8485 149.013 62.2045C149.304 62.5568 149.507 63.0019 149.621 63.5398C149.734 64.0739 149.731 64.7064 149.609 65.4375L149.53 65.9375H142.712L142.854 65.0455H148.643C148.738 64.4848 148.712 63.9811 148.564 63.5341C148.416 63.0871 148.164 62.733 147.808 62.4716C147.456 62.2064 147.018 62.0739 146.496 62.0739C145.962 62.0739 145.456 62.2235 144.979 62.5227C144.505 62.822 144.104 63.2121 143.774 63.6932C143.448 64.1705 143.238 64.6799 143.143 65.2216L143.03 65.892C142.909 66.6307 142.924 67.25 143.075 67.75C143.227 68.2462 143.501 68.6212 143.899 68.875C144.297 69.1288 144.806 69.2557 145.428 69.2557C145.844 69.2557 146.221 69.1913 146.558 69.0625C146.895 68.9337 147.189 68.7614 147.439 68.5455C147.689 68.3258 147.89 68.0852 148.041 67.8239L148.945 68.1364C148.751 68.5038 148.479 68.8428 148.126 69.1534C147.778 69.464 147.363 69.714 146.882 69.9034C146.405 70.089 145.873 70.1818 145.286 70.1818ZM144.075 60.1023L146.672 57.9943H147.536L149.45 60.1023H148.206L146.996 58.7159L145.348 60.1023H144.075ZM149.155 58.7045L150.689 56.6761H151.945L150.064 58.7045H149.155ZM152.991 64.5455L152.088 70H151.077L152.531 61.2727H153.514L153.287 62.642H153.378C153.651 62.1951 154.027 61.8371 154.509 61.5682C154.993 61.2955 155.556 61.1591 156.196 61.1591C156.779 61.1591 157.272 61.2822 157.673 61.5284C158.079 61.7708 158.366 62.1288 158.537 62.6023C158.711 63.0758 158.741 63.6572 158.628 64.3466L157.679 70H156.668L157.599 64.4091C157.717 63.697 157.613 63.1326 157.287 62.7159C156.965 62.2955 156.467 62.0852 155.793 62.0852C155.334 62.0852 154.908 62.1837 154.514 62.3807C154.124 62.5777 153.795 62.8617 153.526 63.233C153.257 63.6004 153.079 64.0379 152.991 64.5455ZM163.126 73.4545C162.532 73.4545 162.022 73.3769 161.598 73.2216C161.174 73.0701 160.829 72.8617 160.564 72.5966C160.303 72.3314 160.111 72.0341 159.99 71.7045L160.911 71.1648C160.994 71.3845 161.121 71.6004 161.291 71.8125C161.462 72.0246 161.702 72.1989 162.013 72.3352C162.323 72.4754 162.731 72.5455 163.234 72.5455C164.003 72.5455 164.664 72.3504 165.217 71.9602C165.77 71.5739 166.115 70.9754 166.251 70.1648L166.558 68.1989H166.467C166.312 68.464 166.104 68.7292 165.842 68.9943C165.581 69.2557 165.257 69.4735 164.871 69.6477C164.488 69.822 164.036 69.9091 163.513 69.9091C162.816 69.9091 162.225 69.7367 161.74 69.392C161.255 69.0473 160.912 68.5549 160.712 67.9148C160.511 67.2708 160.486 66.5038 160.638 65.6136C160.782 64.7311 161.058 63.9545 161.467 63.2841C161.88 62.6136 162.388 62.0909 162.99 61.7159C163.596 61.3409 164.259 61.1534 164.979 61.1534C165.513 61.1534 165.941 61.2481 166.263 61.4375C166.585 61.6231 166.829 61.8542 166.996 62.1307C167.166 62.4072 167.289 62.6761 167.365 62.9375H167.467L167.74 61.2727H168.729L167.251 70.2273C167.126 70.9659 166.869 71.5739 166.479 72.0511C166.089 72.5284 165.604 72.8807 165.024 73.108C164.448 73.339 163.816 73.4545 163.126 73.4545ZM163.74 68.983C164.301 68.983 164.804 68.8485 165.251 68.5795C165.702 68.3068 166.079 67.9186 166.382 67.4148C166.689 66.9072 166.899 66.3011 167.013 65.5966C167.126 64.9148 167.121 64.3106 166.996 63.7841C166.875 63.2538 166.638 62.8371 166.286 62.5341C165.937 62.2273 165.479 62.0739 164.911 62.0739C164.323 62.0739 163.804 62.2311 163.354 62.5455C162.907 62.8598 162.537 63.2841 162.246 63.8182C161.958 64.3485 161.759 64.9413 161.649 65.5966C161.543 66.2633 161.547 66.8523 161.661 67.3636C161.778 67.8712 162.009 68.2689 162.354 68.5568C162.698 68.8409 163.161 68.983 163.74 68.983ZM176.611 58.3636L178.548 68.6193H178.656L183.986 58.3636H185.099L178.935 70H177.798L175.497 58.3636H176.611ZM184.963 70L186.418 61.2727H187.435L185.98 70H184.963ZM187.293 59.7557C187.08 59.7557 186.901 59.6837 186.753 59.5398C186.609 59.3958 186.539 59.2216 186.543 59.017C186.55 58.8239 186.628 58.6572 186.776 58.517C186.927 58.3731 187.105 58.3011 187.31 58.3011C187.522 58.3011 187.702 58.375 187.849 58.5227C187.997 58.6667 188.067 58.8409 188.06 59.0455C188.056 59.2386 187.978 59.4053 187.827 59.5455C187.675 59.6856 187.497 59.7557 187.293 59.7557ZM192.161 70.1818C191.346 70.1818 190.674 69.9924 190.143 69.6136C189.613 69.2311 189.242 68.7027 189.03 68.0284C188.818 67.3504 188.786 66.5701 188.933 65.6875C189.081 64.8087 189.373 64.0284 189.808 63.3466C190.244 62.661 190.782 62.125 191.422 61.7386C192.062 61.3485 192.757 61.1534 193.507 61.1534C193.981 61.1534 194.424 61.2405 194.837 61.4148C195.25 61.5852 195.6 61.8485 195.888 62.2045C196.179 62.5568 196.382 63.0019 196.496 63.5398C196.609 64.0739 196.606 64.7064 196.484 65.4375L196.405 65.9375H189.587L189.729 65.0455H195.518C195.613 64.4848 195.587 63.9811 195.439 63.5341C195.291 63.0871 195.039 62.733 194.683 62.4716C194.331 62.2064 193.893 62.0739 193.371 62.0739C192.837 62.0739 192.331 62.2235 191.854 62.5227C191.38 62.822 190.979 63.2121 190.649 63.6932C190.323 64.1705 190.113 64.6799 190.018 65.2216L189.905 65.892C189.784 66.6307 189.799 67.25 189.95 67.75C190.102 68.2462 190.376 68.6212 190.774 68.875C191.172 69.1288 191.681 69.2557 192.303 69.2557C192.719 69.2557 193.096 69.1913 193.433 69.0625C193.77 68.9337 194.064 68.7614 194.314 68.5455C194.564 68.3258 194.765 68.0852 194.916 67.8239L195.82 68.1364C195.626 68.5038 195.354 68.8428 195.001 69.1534C194.653 69.464 194.238 69.714 193.757 69.9034C193.28 70.089 192.748 70.1818 192.161 70.1818ZM194.928 60.2727L193.848 58.642L192.24 60.2727H191.217L191.229 60.1989L193.524 57.9091H194.376L195.928 60.1989L195.911 60.2727H194.928ZM191.638 72.7727C191.426 72.7727 191.246 72.6989 191.098 72.5511C190.95 72.4072 190.88 72.233 190.888 72.0284C190.892 71.8352 190.969 71.6686 191.121 71.5284C191.272 71.3883 191.45 71.3182 191.655 71.3182C191.867 71.3182 192.045 71.3902 192.189 71.5341C192.337 71.6818 192.409 71.858 192.405 72.0625C192.397 72.2557 192.318 72.4223 192.166 72.5625C192.018 72.7027 191.842 72.7727 191.638 72.7727ZM202.844 61.2727L202.702 62.1534H198.531L198.679 61.2727H202.844ZM200.321 59.1818H201.338L199.918 67.7216C199.857 68.0852 199.872 68.3712 199.963 68.5795C200.054 68.7841 200.194 68.9299 200.384 69.017C200.573 69.1004 200.781 69.142 201.009 69.142C201.141 69.142 201.255 69.1345 201.349 69.1193C201.448 69.1004 201.535 69.0814 201.611 69.0625L201.685 69.9773C201.575 70.0152 201.444 70.0492 201.293 70.0795C201.141 70.1136 200.959 70.1307 200.747 70.1307C200.376 70.1307 200.033 70.0492 199.719 69.8864C199.404 69.7235 199.166 69.4811 199.003 69.1591C198.84 68.8371 198.796 68.4375 198.872 67.9602L200.321 59.1818ZM206.959 65.0909C206.732 66.4545 206.345 67.7424 205.8 68.9545C205.258 70.1667 204.576 71.303 203.754 72.3636H202.834C203.186 71.9167 203.523 71.411 203.845 70.8466C204.167 70.2822 204.463 69.6799 204.732 69.0398C205.004 68.3996 205.241 67.7443 205.442 67.0739C205.646 66.4034 205.804 65.7424 205.913 65.0909C206.057 64.2159 206.124 63.3333 206.112 62.4432C206.101 61.553 206.019 60.7083 205.868 59.9091C205.72 59.1098 205.512 58.4129 205.243 57.8182H206.163C206.629 58.8826 206.934 60.0208 207.078 61.233C207.226 62.4451 207.186 63.7311 206.959 65.0909Z" fill="black"/>
</svg>
