<svg width="100%" viewBox="0 0 1296 30" fill="none" xmlns="http://www.w3.org/2000/svg">
<path d="M10.152 6C12.2 6 13.992 6.376 15.528 7.128C17.08 7.88 18.288 8.936 19.152 10.296C20.016 11.64 20.448 13.208 20.448 15C20.448 16.792 20.016 18.368 19.152 19.728C18.288 21.072 17.08 22.12 15.528 22.872C13.992 23.624 12.2 24 10.152 24H2.016V6H10.152ZM5.184 22.896L3.432 21.216H10.368C11.744 21.216 12.944 20.96 13.968 20.448C15.008 19.92 15.808 19.192 16.368 18.264C16.944 17.32 17.232 16.232 17.232 15C17.232 13.752 16.944 12.664 16.368 11.736C15.808 10.808 15.008 10.088 13.968 9.576C12.944 9.048 11.744 8.784 10.368 8.784H3.432L5.184 7.104V22.896ZM32.8916 24.336C30.8436 24.336 29.0436 23.944 27.4916 23.16C25.9396 22.376 24.7316 21.288 23.8676 19.896C23.0036 18.488 22.5716 16.856 22.5716 15C22.5716 13.144 23.0036 11.52 23.8676 10.128C24.7316 8.72 25.9396 7.624 27.4916 6.84C29.0436 6.056 30.8436 5.664 32.8916 5.664C34.9396 5.664 36.7396 6.056 38.2916 6.84C39.8436 7.624 41.0516 8.72 41.9156 10.128C42.7796 11.52 43.2116 13.144 43.2116 15C43.2116 16.856 42.7796 18.488 41.9156 19.896C41.0516 21.288 39.8436 22.376 38.2916 23.16C36.7396 23.944 34.9396 24.336 32.8916 24.336ZM32.8916 21.504C34.3476 21.504 35.6036 21.24 36.6596 20.712C37.7156 20.184 38.5316 19.432 39.1076 18.456C39.6996 17.48 39.9956 16.328 39.9956 15C39.9956 13.672 39.6996 12.52 39.1076 11.544C38.5316 10.568 37.7156 9.816 36.6596 9.288C35.6036 8.76 34.3476 8.496 32.8916 8.496C31.4516 8.496 30.1956 8.76 29.1236 9.288C28.0676 9.816 27.2436 10.568 26.6516 11.544C26.0756 12.52 25.7876 13.672 25.7876 15C25.7876 16.328 26.0756 17.48 26.6516 18.456C27.2436 19.432 28.0676 20.184 29.1236 20.712C30.1956 21.24 31.4516 21.504 32.8916 21.504ZM67.3035 22.8H66.1035L71.6235 6H74.9355L68.8395 24H64.8075L58.7355 7.512H60.2235L54.1515 24H50.1195L44.0235 6H47.3595L52.8555 22.8L51.7035 22.776L57.7755 6H61.2075L67.3035 22.8ZM93.9773 22.08L92.6813 22.224V6H95.7533V24H91.7213L79.0973 7.776L80.3693 7.632V24H77.2973V6H81.4253L93.9773 22.08ZM102.942 6V22.584L101.526 21.216H115.086V24H99.7738V6H102.942ZM125.798 24.336C123.75 24.336 121.95 23.944 120.398 23.16C118.846 22.376 117.638 21.288 116.774 19.896C115.91 18.488 115.478 16.856 115.478 15C115.478 13.144 115.91 11.52 116.774 10.128C117.638 8.72 118.846 7.624 120.398 6.84C121.95 6.056 123.75 5.664 125.798 5.664C127.846 5.664 129.646 6.056 131.198 6.84C132.75 7.624 133.958 8.72 134.822 10.128C135.686 11.52 136.118 13.144 136.118 15C136.118 16.856 135.686 18.488 134.822 19.896C133.958 21.288 132.75 22.376 131.198 23.16C129.646 23.944 127.846 24.336 125.798 24.336ZM125.798 21.504C127.254 21.504 128.51 21.24 129.566 20.712C130.622 20.184 131.438 19.432 132.014 18.456C132.606 17.48 132.902 16.328 132.902 15C132.902 13.672 132.606 12.52 132.014 11.544C131.438 10.568 130.622 9.816 129.566 9.288C128.51 8.76 127.254 8.496 125.798 8.496C124.358 8.496 123.102 8.76 122.03 9.288C120.974 9.816 120.15 10.568 119.558 11.544C118.982 12.52 118.694 13.672 118.694 15C118.694 16.328 118.982 17.48 119.558 18.456C120.15 19.432 120.974 20.184 122.03 20.712C123.102 21.24 124.358 21.504 125.798 21.504ZM140.611 19.872V17.256H153.187V19.872H140.611ZM148.963 6L157.603 24H154.219L146.371 7.2H147.595L139.747 24H136.363L145.003 6H148.963ZM167.933 6C169.981 6 171.773 6.376 173.309 7.128C174.861 7.88 176.069 8.936 176.933 10.296C177.797 11.64 178.229 13.208 178.229 15C178.229 16.792 177.797 18.368 176.933 19.728C176.069 21.072 174.861 22.12 173.309 22.872C171.773 23.624 169.981 24 167.933 24H159.797V6H167.933ZM162.965 22.896L161.213 21.216H168.149C169.525 21.216 170.725 20.96 171.749 20.448C172.789 19.92 173.589 19.192 174.149 18.264C174.725 17.32 175.013 16.232 175.013 15C175.013 13.752 174.725 12.664 174.149 11.736C173.589 10.808 172.789 10.088 171.749 9.576C170.725 9.048 169.525 8.784 168.149 8.784H161.213L162.965 7.104V22.896ZM197.024 24.336C194.976 24.336 193.176 23.944 191.624 23.16C190.072 22.376 188.864 21.288 188 19.896C187.136 18.488 186.704 16.856 186.704 15C186.704 13.144 187.136 11.52 188 10.128C188.864 8.72 190.072 7.624 191.624 6.84C193.176 6.056 194.976 5.664 197.024 5.664C199.072 5.664 200.872 6.056 202.424 6.84C203.976 7.624 205.184 8.72 206.048 10.128C206.912 11.52 207.344 13.144 207.344 15C207.344 16.856 206.912 18.488 206.048 19.896C205.184 21.288 203.976 22.376 202.424 23.16C200.872 23.944 199.072 24.336 197.024 24.336ZM197.024 21.504C198.48 21.504 199.736 21.24 200.792 20.712C201.848 20.184 202.664 19.432 203.24 18.456C203.832 17.48 204.128 16.328 204.128 15C204.128 13.672 203.832 12.52 203.24 11.544C202.664 10.568 201.848 9.816 200.792 9.288C199.736 8.76 198.48 8.496 197.024 8.496C195.584 8.496 194.328 8.76 193.256 9.288C192.2 9.816 191.376 10.568 190.784 11.544C190.208 12.52 189.92 13.672 189.92 15C189.92 16.328 190.208 17.48 190.784 18.456C191.376 19.432 192.2 20.184 193.256 20.712C194.328 21.24 195.584 21.504 197.024 21.504ZM213.35 16.272C213.35 17.344 213.566 18.272 213.998 19.056C214.43 19.84 215.046 20.448 215.846 20.88C216.662 21.296 217.63 21.504 218.75 21.504C219.886 21.504 220.854 21.296 221.654 20.88C222.454 20.448 223.07 19.84 223.502 19.056C223.934 18.272 224.15 17.344 224.15 16.272V6H227.318V16.392C227.318 17.976 226.958 19.368 226.238 20.568C225.518 21.752 224.518 22.68 223.238 23.352C221.958 24.008 220.462 24.336 218.75 24.336C217.054 24.336 215.558 24.008 214.262 23.352C212.982 22.68 211.982 21.752 211.262 20.568C210.542 19.368 210.182 17.976 210.182 16.392V6H213.35V16.272ZM233.326 14.112H240.646C241.702 14.112 242.534 13.872 243.142 13.392C243.766 12.912 244.078 12.256 244.078 11.424C244.078 10.576 243.766 9.92 243.142 9.456C242.534 8.976 241.702 8.736 240.646 8.736H232.87L234.286 6.96V24H231.118V6H240.934C242.198 6 243.302 6.232 244.246 6.696C245.206 7.144 245.95 7.776 246.478 8.592C247.022 9.392 247.294 10.336 247.294 11.424C247.294 12.48 247.022 13.416 246.478 14.232C245.95 15.032 245.206 15.664 244.246 16.128C243.302 16.576 242.198 16.8 240.934 16.8H233.326V14.112ZM236.878 15.576H240.598L247.75 24H243.958L236.878 15.576ZM259.13 14.112H266.45C267.506 14.112 268.338 13.872 268.946 13.392C269.57 12.912 269.882 12.256 269.882 11.424C269.882 10.576 269.57 9.92 268.946 9.456C268.338 8.976 267.506 8.736 266.45 8.736H258.674L260.09 6.96V24H256.922V6H266.738C268.002 6 269.106 6.232 270.05 6.696C271.01 7.144 271.754 7.776 272.282 8.592C272.826 9.392 273.098 10.336 273.098 11.424C273.098 12.48 272.826 13.416 272.282 14.232C271.754 15.032 271.01 15.664 270.05 16.128C269.106 16.576 268.002 16.8 266.738 16.8H259.13V14.112ZM262.682 15.576H266.402L273.554 24H269.762L262.682 15.576ZM290.751 13.68V16.32H278.175V13.68H290.751ZM280.263 15L278.991 23.04L277.479 21.264H291.447V24H275.751L277.191 15L275.751 6H291.327V8.736H277.479L278.991 6.96L280.263 15ZM304.278 6C305.622 6 306.782 6.24 307.758 6.72C308.75 7.2 309.51 7.872 310.038 8.736C310.582 9.584 310.854 10.568 310.854 11.688C310.854 12.808 310.582 13.8 310.038 14.664C309.51 15.512 308.75 16.176 307.758 16.656C306.782 17.136 305.622 17.376 304.278 17.376H296.19V14.64H304.158C305.246 14.64 306.094 14.376 306.702 13.848C307.326 13.32 307.638 12.6 307.638 11.688C307.638 10.776 307.326 10.056 306.702 9.528C306.094 9 305.246 8.736 304.158 8.736H296.502L297.918 7.152V24H294.75V6H304.278ZM322.814 24.336C320.766 24.336 318.966 23.944 317.414 23.16C315.862 22.376 314.654 21.288 313.79 19.896C312.926 18.488 312.494 16.856 312.494 15C312.494 13.144 312.926 11.52 313.79 10.128C314.654 8.72 315.862 7.624 317.414 6.84C318.966 6.056 320.766 5.664 322.814 5.664C324.862 5.664 326.662 6.056 328.214 6.84C329.766 7.624 330.974 8.72 331.838 10.128C332.702 11.52 333.134 13.144 333.134 15C333.134 16.856 332.702 18.488 331.838 19.896C330.974 21.288 329.766 22.376 328.214 23.16C326.662 23.944 324.862 24.336 322.814 24.336ZM322.814 21.504C324.27 21.504 325.526 21.24 326.582 20.712C327.638 20.184 328.454 19.432 329.03 18.456C329.622 17.48 329.918 16.328 329.918 15C329.918 13.672 329.622 12.52 329.03 11.544C328.454 10.568 327.638 9.816 326.582 9.288C325.526 8.76 324.27 8.496 322.814 8.496C321.374 8.496 320.118 8.76 319.046 9.288C317.99 9.816 317.166 10.568 316.574 11.544C315.998 12.52 315.71 13.672 315.71 15C315.71 16.328 315.998 17.48 316.574 18.456C317.166 19.432 317.99 20.184 319.046 20.712C320.118 21.24 321.374 21.504 322.814 21.504ZM338.419 14.112H345.739C346.795 14.112 347.627 13.872 348.235 13.392C348.859 12.912 349.171 12.256 349.171 11.424C349.171 10.576 348.859 9.92 348.235 9.456C347.627 8.976 346.795 8.736 345.739 8.736H337.963L339.379 6.96V24H336.211V6H346.027C347.291 6 348.395 6.232 349.339 6.696C350.299 7.144 351.043 7.776 351.571 8.592C352.115 9.392 352.387 10.336 352.387 11.424C352.387 12.48 352.115 13.416 351.571 14.232C351.043 15.032 350.299 15.664 349.339 16.128C348.395 16.576 347.291 16.8 346.027 16.8H338.419V14.112ZM341.971 15.576H345.691L352.843 24H349.051L341.971 15.576ZM360.84 7.464H364.008V24H360.84V7.464ZM353.4 6H371.448V8.784H353.4V6Z" fill="#24408E"/>
</svg>
