<svg width="100%" viewBox="0 0 1296 98" fill="none" xmlns="http://www.w3.org/2000/svg">
<rect x="0.5" y="0.5" width="1295" height="97" rx="19.5" fill="#24CBFF" fill-opacity="0.2"/>
<rect x="0.5" y="0.5" width="1295" height="97" rx="19.5" stroke="#24CBFF"/>
<path d="M50.1222 42H48.4602L53.267 28.9091H54.9034L59.7102 42H58.0483L54.1364 30.9801H54.0341L50.1222 42ZM50.7358 36.8864H57.4347V38.2926H50.7358V36.8864ZM63.0533 36.0938V42H61.5447V32.1818H63.0021V33.7159H63.13C63.3601 33.2173 63.7095 32.8168 64.1783 32.5142C64.647 32.2074 65.2521 32.054 65.9936 32.054C66.6584 32.054 67.2401 32.1903 67.7386 32.4631C68.2372 32.7315 68.625 33.1406 68.902 33.6903C69.179 34.2358 69.3175 34.9261 69.3175 35.7614V42H67.8089V35.8636C67.8089 35.0923 67.6087 34.4915 67.2081 34.0611C66.8075 33.6264 66.2578 33.4091 65.5589 33.4091C65.0774 33.4091 64.647 33.5135 64.2678 33.7223C63.8928 33.9311 63.5966 34.2358 63.3793 34.6364C63.1619 35.0369 63.0533 35.5227 63.0533 36.0938ZM73.5826 36.0938V42H72.074V32.1818H73.5314V33.7159H73.6593C73.8894 33.2173 74.2388 32.8168 74.7076 32.5142C75.1763 32.2074 75.7814 32.054 76.5229 32.054C77.1877 32.054 77.7694 32.1903 78.2679 32.4631C78.7665 32.7315 79.1543 33.1406 79.4313 33.6903C79.7083 34.2358 79.8468 34.9261 79.8468 35.7614V42H78.3382V35.8636C78.3382 35.0923 78.138 34.4915 77.7374 34.0611C77.3368 33.6264 76.7871 33.4091 76.0882 33.4091C75.6067 33.4091 75.1763 33.5135 74.7971 33.7223C74.4221 33.9311 74.1259 34.2358 73.9086 34.6364C73.6912 35.0369 73.5826 35.5227 73.5826 36.0938ZM88.7908 37.9858V32.1818H90.2994V42H88.7908V40.3381H88.6886C88.4585 40.8366 88.1005 41.2607 87.6147 41.6101C87.1289 41.9553 86.5153 42.1278 85.7738 42.1278C85.1602 42.1278 84.6147 41.9936 84.1374 41.7251C83.6602 41.4524 83.2852 41.0433 83.0124 40.4979C82.7397 39.9482 82.6033 39.2557 82.6033 38.4205V32.1818H84.1119V38.3182C84.1119 39.0341 84.3121 39.6051 84.7127 40.0312C85.1175 40.4574 85.6332 40.6705 86.2596 40.6705C86.6346 40.6705 87.016 40.5746 87.4038 40.3828C87.7958 40.1911 88.1239 39.897 88.3881 39.5007C88.6566 39.1044 88.7908 38.5994 88.7908 37.9858ZM95.9515 42.2301C95.3294 42.2301 94.7647 42.1129 94.2576 41.8786C93.7505 41.6399 93.3478 41.2969 93.0495 40.8494C92.7512 40.3977 92.6021 39.8523 92.6021 39.2131C92.6021 38.6506 92.7129 38.1946 92.9345 37.8452C93.1561 37.4915 93.4522 37.2145 93.823 37.0142C94.1937 36.8139 94.6028 36.6648 95.0502 36.5668C95.502 36.4645 95.9558 36.3835 96.4118 36.3239C97.0083 36.2472 97.492 36.1896 97.8627 36.1513C98.2377 36.1087 98.5105 36.0384 98.6809 35.9403C98.8556 35.8423 98.943 35.6719 98.943 35.429V35.3778C98.943 34.7472 98.7704 34.2571 98.4252 33.9077C98.0843 33.5582 97.5666 33.3835 96.872 33.3835C96.1518 33.3835 95.5872 33.5412 95.1781 33.8565C94.769 34.1719 94.4814 34.5085 94.3152 34.8665L92.8833 34.3551C93.139 33.7585 93.4799 33.294 93.9061 32.9616C94.3365 32.625 94.8052 32.3906 95.3123 32.2585C95.8237 32.1222 96.3265 32.054 96.8208 32.054C97.1362 32.054 97.4984 32.0923 97.9075 32.169C98.3208 32.2415 98.7193 32.3928 99.1028 32.6229C99.4906 32.853 99.8123 33.2003 100.068 33.6648C100.324 34.1293 100.452 34.7514 100.452 35.5312V42H98.943V40.6705H98.8663C98.764 40.8835 98.5936 41.1115 98.3549 41.3544C98.1163 41.5973 97.7988 41.804 97.4025 41.9744C97.0062 42.1449 96.5226 42.2301 95.9515 42.2301ZM96.1816 40.875C96.7782 40.875 97.2811 40.7578 97.6902 40.5234C98.1035 40.2891 98.4146 39.9865 98.6234 39.6158C98.8365 39.245 98.943 38.8551 98.943 38.446V37.0653C98.8791 37.142 98.7385 37.2124 98.5211 37.2763C98.3081 37.3359 98.0609 37.3892 97.7797 37.4361C97.5027 37.4787 97.2321 37.517 96.9679 37.5511C96.7079 37.581 96.497 37.6065 96.3351 37.6278C95.943 37.679 95.5765 37.7621 95.2356 37.8771C94.899 37.9879 94.6262 38.1562 94.4174 38.3821C94.2129 38.6037 94.1106 38.9062 94.1106 39.2898C94.1106 39.8139 94.3045 40.2102 94.6923 40.4787C95.0843 40.7429 95.5808 40.875 96.1816 40.875ZM104.713 28.9091V42H103.205V28.9091H104.713ZM112.743 42V28.9091H117.167C118.189 28.9091 119.029 29.0838 119.685 29.4332C120.341 29.7784 120.827 30.2536 121.143 30.8587C121.458 31.4638 121.616 32.152 121.616 32.9233C121.616 33.6946 121.458 34.3786 121.143 34.9751C120.827 35.5717 120.344 36.0405 119.692 36.3814C119.04 36.718 118.206 36.8864 117.192 36.8864H113.613V35.4545H117.141C117.84 35.4545 118.403 35.3523 118.829 35.1477C119.259 34.9432 119.57 34.6534 119.762 34.2784C119.958 33.8991 120.056 33.4474 120.056 32.9233C120.056 32.3991 119.958 31.9411 119.762 31.549C119.566 31.157 119.253 30.8544 118.822 30.6413C118.392 30.424 117.823 30.3153 117.116 30.3153H114.329V42H112.743ZM118.905 36.1193L122.127 42H120.286L117.116 36.1193H118.905ZM128.064 42.2045C127.118 42.2045 126.301 41.9957 125.615 41.5781C124.934 41.1562 124.407 40.5682 124.037 39.8139C123.67 39.0554 123.487 38.1733 123.487 37.1676C123.487 36.1619 123.67 35.2756 124.037 34.5085C124.407 33.7372 124.923 33.1364 125.583 32.706C126.248 32.2713 127.024 32.054 127.91 32.054C128.422 32.054 128.926 32.1392 129.425 32.3097C129.924 32.4801 130.377 32.7571 130.787 33.1406C131.196 33.5199 131.522 34.0227 131.765 34.6491C132.007 35.2756 132.129 36.0469 132.129 36.9631V37.6023H124.561V36.2983H130.595C130.595 35.7443 130.484 35.25 130.262 34.8153C130.045 34.3807 129.734 34.0376 129.329 33.7862C128.929 33.5348 128.456 33.4091 127.91 33.4091C127.309 33.4091 126.789 33.5582 126.35 33.8565C125.916 34.1506 125.581 34.5341 125.347 35.0071C125.113 35.4801 124.995 35.9872 124.995 36.5284V37.3977C124.995 38.1392 125.123 38.7678 125.379 39.2834C125.639 39.7947 125.999 40.1847 126.459 40.4531C126.919 40.7173 127.454 40.8494 128.064 40.8494C128.46 40.8494 128.818 40.794 129.137 40.6832C129.461 40.5682 129.74 40.3977 129.975 40.1719C130.209 39.9418 130.39 39.6562 130.518 39.3153L131.975 39.7244C131.822 40.2188 131.564 40.6534 131.202 41.0284C130.84 41.3991 130.392 41.6889 129.86 41.8977C129.327 42.1023 128.728 42.2045 128.064 42.2045ZM134.424 45.6818V32.1818H135.881V33.7415H136.06C136.171 33.571 136.324 33.3537 136.52 33.0895C136.721 32.821 137.006 32.5824 137.377 32.3736C137.752 32.1605 138.259 32.054 138.898 32.054C139.725 32.054 140.453 32.2607 141.084 32.674C141.715 33.0874 142.207 33.6733 142.561 34.4318C142.914 35.1903 143.091 36.0852 143.091 37.1165C143.091 38.1562 142.914 39.0575 142.561 39.8203C142.207 40.5788 141.717 41.1669 141.091 41.5845C140.464 41.9979 139.742 42.2045 138.924 42.2045C138.293 42.2045 137.788 42.1001 137.409 41.8913C137.029 41.6783 136.738 41.4375 136.533 41.169C136.328 40.8963 136.171 40.6705 136.06 40.4915H135.932V45.6818H134.424ZM135.907 37.0909C135.907 37.8324 136.015 38.4865 136.233 39.0533C136.45 39.6158 136.767 40.0568 137.185 40.3764C137.603 40.6918 138.114 40.8494 138.719 40.8494C139.35 40.8494 139.876 40.6832 140.298 40.3509C140.724 40.0142 141.044 39.5625 141.257 38.9957C141.474 38.4247 141.583 37.7898 141.583 37.0909C141.583 36.4006 141.476 35.7784 141.263 35.2244C141.054 34.6662 140.737 34.2251 140.311 33.9013C139.889 33.5732 139.358 33.4091 138.719 33.4091C138.105 33.4091 137.59 33.5646 137.172 33.8757C136.755 34.1825 136.439 34.6129 136.226 35.1669C136.013 35.7166 135.907 36.358 135.907 37.0909ZM149.381 42.2045C148.495 42.2045 147.717 41.9936 147.048 41.5717C146.383 41.1499 145.863 40.5597 145.488 39.8011C145.118 39.0426 144.932 38.1562 144.932 37.142C144.932 36.1193 145.118 35.2266 145.488 34.4638C145.863 33.701 146.383 33.1087 147.048 32.6868C147.717 32.2649 148.495 32.054 149.381 32.054C150.267 32.054 151.043 32.2649 151.708 32.6868C152.377 33.1087 152.897 33.701 153.267 34.4638C153.642 35.2266 153.83 36.1193 153.83 37.142C153.83 38.1562 153.642 39.0426 153.267 39.8011C152.897 40.5597 152.377 41.1499 151.708 41.5717C151.043 41.9936 150.267 42.2045 149.381 42.2045ZM149.381 40.8494C150.054 40.8494 150.608 40.6768 151.043 40.3317C151.478 39.9865 151.799 39.5327 152.008 38.9702C152.217 38.4077 152.321 37.7983 152.321 37.142C152.321 36.4858 152.217 35.8743 152.008 35.3075C151.799 34.7408 151.478 34.2827 151.043 33.9332C150.608 33.5838 150.054 33.4091 149.381 33.4091C148.708 33.4091 148.154 33.5838 147.719 33.9332C147.284 34.2827 146.963 34.7408 146.754 35.3075C146.545 35.8743 146.441 36.4858 146.441 37.142C146.441 37.7983 146.545 38.4077 146.754 38.9702C146.963 39.5327 147.284 39.9865 147.719 40.3317C148.154 40.6768 148.708 40.8494 149.381 40.8494ZM156.133 42V32.1818H157.59V33.6648H157.692C157.871 33.179 158.195 32.7848 158.664 32.4822C159.133 32.1797 159.661 32.0284 160.249 32.0284C160.36 32.0284 160.498 32.0305 160.665 32.0348C160.831 32.0391 160.956 32.0455 161.042 32.054V33.5881C160.991 33.5753 160.873 33.5561 160.69 33.5305C160.511 33.5007 160.322 33.4858 160.121 33.4858C159.644 33.4858 159.218 33.5859 158.843 33.7862C158.472 33.9822 158.178 34.255 157.961 34.6044C157.748 34.9496 157.641 35.3437 157.641 35.7869V42H156.133ZM167.715 32.1818V33.4602H162.627V32.1818H167.715ZM164.11 29.8295H165.618V39.1875C165.618 39.6136 165.68 39.9332 165.804 40.1463C165.932 40.3551 166.094 40.4957 166.29 40.5682C166.49 40.6364 166.701 40.6705 166.922 40.6705C167.089 40.6705 167.225 40.6619 167.331 40.6449C167.438 40.6236 167.523 40.6065 167.587 40.5938L167.894 41.9489C167.792 41.9872 167.649 42.0256 167.466 42.0639C167.282 42.1065 167.05 42.1278 166.769 42.1278C166.343 42.1278 165.925 42.0362 165.516 41.853C165.111 41.6697 164.775 41.3906 164.506 41.0156C164.242 40.6406 164.11 40.1676 164.11 39.5966V29.8295ZM176.836 28.9091V42H175.251V28.9091H176.836ZM180.015 28.9091H181.907L186.356 39.7756H186.509L190.958 28.9091H192.85V42H191.367V32.054H191.239L187.148 42H185.717L181.626 32.054H181.498V42H180.015V28.9091ZM196.029 42V28.9091H203.929V30.3153H197.614V34.7386H203.52V36.1449H197.614V40.5938H204.031V42H196.029ZM207.553 28.9091L210.928 34.3551H211.031L214.406 28.9091H216.272L212.156 35.4545L216.272 42H214.406L211.031 36.6562H210.928L207.553 42H205.687L209.906 35.4545L205.687 28.9091H207.553ZM218.335 42V28.9091H222.759C223.786 28.9091 224.625 29.0945 225.277 29.4652C225.933 29.8317 226.419 30.3281 226.734 30.9545C227.05 31.581 227.207 32.2798 227.207 33.0511C227.207 33.8224 227.05 34.5234 226.734 35.1541C226.423 35.7848 225.942 36.2876 225.29 36.6626C224.638 37.0334 223.803 37.2188 222.784 37.2188H219.614V35.8125H222.733C223.436 35.8125 224.001 35.6911 224.427 35.4482C224.853 35.2053 225.162 34.8771 225.354 34.4638C225.55 34.0462 225.648 33.5753 225.648 33.0511C225.648 32.527 225.55 32.0582 225.354 31.6449C225.162 31.2315 224.851 30.9077 224.42 30.6733C223.99 30.4347 223.419 30.3153 222.707 30.3153H219.92V42H218.335ZM229.761 42V28.9091H231.346V34.7386H238.326V28.9091H239.912V42H238.326V36.1449H231.346V42H229.761ZM243.622 42H241.96L246.767 28.9091H248.403L253.21 42H251.548L247.636 30.9801H247.534L243.622 42ZM244.236 36.8864H250.935V38.2926H244.236V36.8864ZM255.249 42V28.9091H259.673C260.695 28.9091 261.535 29.0838 262.191 29.4332C262.847 29.7784 263.333 30.2536 263.648 30.8587C263.964 31.4638 264.121 32.152 264.121 32.9233C264.121 33.6946 263.964 34.3786 263.648 34.9751C263.333 35.5717 262.849 36.0405 262.197 36.3814C261.545 36.718 260.712 36.8864 259.698 36.8864H256.119V35.4545H259.647C260.346 35.4545 260.908 35.3523 261.335 35.1477C261.765 34.9432 262.076 34.6534 262.268 34.2784C262.464 33.8991 262.562 33.4474 262.562 32.9233C262.562 32.3991 262.464 31.9411 262.268 31.549C262.072 31.157 261.759 30.8544 261.328 30.6413C260.898 30.424 260.329 30.3153 259.621 30.3153H256.835V42H255.249ZM261.411 36.1193L264.633 42H262.792L259.621 36.1193H261.411ZM266.763 28.9091H268.655L273.104 39.7756H273.257L277.706 28.9091H279.598V42H278.115V32.054H277.987L273.896 42H272.465L268.374 32.054H268.246V42H266.763V28.9091ZM293.26 34.7514V36.1577H287.532V34.7514H293.26ZM300.951 42V40.8494L305.272 36.1193C305.779 35.5653 306.197 35.0838 306.525 34.6747C306.853 34.2614 307.096 33.8736 307.253 33.5114C307.415 33.1449 307.496 32.7614 307.496 32.3608C307.496 31.9006 307.385 31.5021 307.164 31.1655C306.947 30.8288 306.648 30.5689 306.269 30.3857C305.89 30.2024 305.464 30.1108 304.991 30.1108C304.488 30.1108 304.049 30.2152 303.674 30.424C303.303 30.6286 303.015 30.9162 302.811 31.2869C302.611 31.6577 302.51 32.0923 302.51 32.5909H301.002C301.002 31.8239 301.179 31.1506 301.532 30.571C301.886 29.9915 302.368 29.5398 302.977 29.2159C303.591 28.892 304.279 28.7301 305.042 28.7301C305.809 28.7301 306.488 28.892 307.081 29.2159C307.673 29.5398 308.138 29.9766 308.474 30.5263C308.811 31.076 308.979 31.6875 308.979 32.3608C308.979 32.8423 308.892 33.3132 308.717 33.7734C308.547 34.2294 308.248 34.7386 307.822 35.3011C307.4 35.8594 306.814 36.5412 306.064 37.3466L303.124 40.4915V40.5938H309.209V42H300.951ZM316.119 42.179C315.156 42.179 314.336 41.9169 313.658 41.3928C312.981 40.8643 312.463 40.0994 312.105 39.098C311.747 38.0923 311.568 36.8778 311.568 35.4545C311.568 34.0398 311.747 32.8317 312.105 31.8303C312.467 30.8246 312.987 30.0575 313.665 29.5291C314.346 28.9964 315.165 28.7301 316.119 28.7301C317.074 28.7301 317.89 28.9964 318.567 29.5291C319.249 30.0575 319.769 30.8246 320.127 31.8303C320.489 32.8317 320.67 34.0398 320.67 35.4545C320.67 36.8778 320.491 38.0923 320.133 39.098C319.775 40.0994 319.258 40.8643 318.58 41.3928C317.903 41.9169 317.082 42.179 316.119 42.179ZM316.119 40.7727C317.074 40.7727 317.815 40.3125 318.344 39.392C318.872 38.4716 319.136 37.1591 319.136 35.4545C319.136 34.321 319.015 33.3558 318.772 32.5589C318.533 31.7621 318.188 31.1548 317.736 30.7372C317.289 30.3196 316.75 30.1108 316.119 30.1108C315.173 30.1108 314.434 30.5774 313.901 31.5107C313.368 32.4396 313.102 33.7543 313.102 35.4545C313.102 36.5881 313.221 37.5511 313.46 38.3438C313.699 39.1364 314.042 39.7393 314.489 40.1527C314.941 40.5661 315.484 40.7727 316.119 40.7727ZM323.099 42V40.8494L327.42 36.1193C327.927 35.5653 328.345 35.0838 328.673 34.6747C329.001 34.2614 329.244 33.8736 329.402 33.5114C329.564 33.1449 329.645 32.7614 329.645 32.3608C329.645 31.9006 329.534 31.5021 329.312 31.1655C329.095 30.8288 328.797 30.5689 328.417 30.3857C328.038 30.2024 327.612 30.1108 327.139 30.1108C326.636 30.1108 326.197 30.2152 325.822 30.424C325.452 30.6286 325.164 30.9162 324.959 31.2869C324.759 31.6577 324.659 32.0923 324.659 32.5909H323.15C323.15 31.8239 323.327 31.1506 323.681 30.571C324.035 29.9915 324.516 29.5398 325.126 29.2159C325.739 28.892 326.427 28.7301 327.19 28.7301C327.957 28.7301 328.637 28.892 329.229 29.2159C329.822 29.5398 330.286 29.9766 330.623 30.5263C330.959 31.076 331.128 31.6875 331.128 32.3608C331.128 32.8423 331.04 33.3132 330.866 33.7734C330.695 34.2294 330.397 34.7386 329.971 35.3011C329.549 35.8594 328.963 36.5412 328.213 37.3466L325.273 40.4915V40.5938H331.358V42H323.099ZM338.421 42.179C337.577 42.179 336.825 42.0341 336.165 41.7443C335.508 41.4545 334.986 41.0518 334.599 40.5362C334.215 40.0163 334.006 39.4134 333.972 38.7273H335.583C335.617 39.1491 335.762 39.5135 336.018 39.8203C336.273 40.1229 336.608 40.3572 337.021 40.5234C337.434 40.6896 337.893 40.7727 338.395 40.7727C338.958 40.7727 339.456 40.6747 339.891 40.4787C340.326 40.2827 340.667 40.0099 340.914 39.6605C341.161 39.3111 341.285 38.9062 341.285 38.446C341.285 37.9645 341.165 37.5405 340.927 37.174C340.688 36.8033 340.339 36.5135 339.878 36.3047C339.418 36.0959 338.856 35.9915 338.191 35.9915H337.143V34.5852H338.191C338.711 34.5852 339.167 34.4915 339.559 34.304C339.955 34.1165 340.264 33.8523 340.486 33.5114C340.711 33.1705 340.824 32.7699 340.824 32.3097C340.824 31.8665 340.726 31.4808 340.53 31.1527C340.334 30.8246 340.057 30.5689 339.699 30.3857C339.346 30.2024 338.928 30.1108 338.447 30.1108C337.995 30.1108 337.569 30.1939 337.168 30.3601C336.772 30.522 336.448 30.7585 336.197 31.0696C335.945 31.3764 335.809 31.7472 335.787 32.1818H334.253C334.279 31.4957 334.486 30.8949 334.873 30.3793C335.261 29.8594 335.768 29.4545 336.395 29.1648C337.025 28.875 337.718 28.7301 338.472 28.7301C339.282 28.7301 339.976 28.8942 340.556 29.2223C341.135 29.5462 341.581 29.9744 341.892 30.5071C342.203 31.0398 342.358 31.6151 342.358 32.233C342.358 32.9702 342.165 33.5987 341.777 34.1186C341.393 34.6385 340.871 34.9986 340.211 35.1989V35.3011C341.037 35.4375 341.683 35.7891 342.148 36.3558C342.612 36.9183 342.844 37.6151 342.844 38.446C342.844 39.1577 342.65 39.7969 342.263 40.3636C341.879 40.9261 341.355 41.3693 340.69 41.6932C340.025 42.017 339.269 42.179 338.421 42.179Z" fill="#24408E"/>
<path d="M50 64.1818C50.2273 62.8182 50.6117 61.5303 51.1534 60.3182C51.6989 59.1061 52.3826 57.9697 53.2045 56.9091H54.125C53.7765 57.3523 53.4394 57.858 53.1136 58.4261C52.7917 58.9905 52.4943 59.5928 52.2216 60.233C51.9527 60.8731 51.7159 61.5284 51.5114 62.1989C51.3106 62.8655 51.1553 63.5265 51.0455 64.1818C50.9015 65.0568 50.8352 65.9394 50.8466 66.8295C50.858 67.7197 50.9375 68.5644 51.0852 69.3636C51.2367 70.1629 51.447 70.8598 51.7159 71.4545H50.7955C50.3295 70.3902 50.0227 69.2519 49.875 68.0398C49.7311 66.8277 49.7727 65.5417 50 64.1818ZM54.3651 70L56.2969 58.3636H63.0469L62.8878 59.3182H57.2003L56.473 63.6989H61.8026L61.6435 64.6534H56.3139L55.5866 69.0455H61.3878L61.2287 70H54.3651ZM65.5696 64.5455L64.6662 70H63.6548L65.1094 61.2727H66.0923L65.8651 62.642H65.956C66.2287 62.1951 66.6056 61.8371 67.0866 61.5682C67.5715 61.2955 68.134 61.1591 68.7741 61.1591C69.3575 61.1591 69.8499 61.2822 70.2514 61.5284C70.6567 61.7708 70.9446 62.1288 71.1151 62.6023C71.2893 63.0758 71.3196 63.6572 71.206 64.3466L70.2571 70H69.2457L70.1776 64.4091C70.295 63.697 70.1908 63.1326 69.8651 62.7159C69.5431 62.2955 69.045 62.0852 68.3707 62.0852C67.9124 62.0852 67.4863 62.1837 67.0923 62.3807C66.7022 62.5777 66.3726 62.8617 66.1037 63.233C65.8348 63.6004 65.6567 64.0379 65.5696 64.5455ZM75.7045 73.4545C75.1098 73.4545 74.6004 73.3769 74.1761 73.2216C73.7519 73.0701 73.4072 72.8617 73.142 72.5966C72.8807 72.3314 72.6894 72.0341 72.5682 71.7045L73.4886 71.1648C73.572 71.3845 73.6989 71.6004 73.8693 71.8125C74.0398 72.0246 74.2803 72.1989 74.5909 72.3352C74.9015 72.4754 75.3087 72.5455 75.8125 72.5455C76.5814 72.5455 77.2424 72.3504 77.7955 71.9602C78.3485 71.5739 78.6932 70.9754 78.8295 70.1648L79.1364 68.1989H79.0455C78.8902 68.464 78.6818 68.7292 78.4205 68.9943C78.1591 69.2557 77.8352 69.4735 77.4489 69.6477C77.0663 69.822 76.6136 69.9091 76.0909 69.9091C75.3939 69.9091 74.803 69.7367 74.3182 69.392C73.8333 69.0473 73.4905 68.5549 73.2898 67.9148C73.089 67.2708 73.0644 66.5038 73.2159 65.6136C73.3598 64.7311 73.6364 63.9545 74.0455 63.2841C74.4583 62.6136 74.9659 62.0909 75.5682 61.7159C76.1742 61.3409 76.8371 61.1534 77.5568 61.1534C78.0909 61.1534 78.5189 61.2481 78.8409 61.4375C79.1629 61.6231 79.4072 61.8542 79.5739 62.1307C79.7443 62.4072 79.8674 62.6761 79.9432 62.9375H80.0455L80.3182 61.2727H81.3068L79.8295 70.2273C79.7045 70.9659 79.447 71.5739 79.0568 72.0511C78.6667 72.5284 78.1818 72.8807 77.6023 73.108C77.0265 73.339 76.3939 73.4545 75.7045 73.4545ZM76.3182 68.983C76.8788 68.983 77.3826 68.8485 77.8295 68.5795C78.2803 68.3068 78.6572 67.9186 78.9602 67.4148C79.267 66.9072 79.4773 66.3011 79.5909 65.5966C79.7045 64.9148 79.6989 64.3106 79.5739 63.7841C79.4527 63.2538 79.2159 62.8371 78.8636 62.5341C78.5152 62.2273 78.0568 62.0739 77.4886 62.0739C76.9015 62.0739 76.3826 62.2311 75.9318 62.5455C75.4848 62.8598 75.1155 63.2841 74.8239 63.8182C74.536 64.3485 74.3371 64.9413 74.2273 65.5966C74.1212 66.2633 74.125 66.8523 74.2386 67.3636C74.3561 67.8712 74.5871 68.2689 74.9318 68.5568C75.2765 68.8409 75.7386 68.983 76.3182 68.983ZM85.473 58.3636L83.5412 70H82.5298L84.4616 58.3636H85.473ZM86.2287 70L87.6832 61.2727H88.7003L87.2457 70H86.2287ZM88.5582 59.7557C88.3461 59.7557 88.1662 59.6837 88.0185 59.5398C87.8745 59.3958 87.8045 59.2216 87.8082 59.017C87.8158 58.8239 87.8935 58.6572 88.0412 58.517C88.1927 58.3731 88.3707 58.3011 88.5753 58.3011C88.7874 58.3011 88.9673 58.375 89.1151 58.5227C89.2628 58.6667 89.3329 58.8409 89.3253 59.0455C89.3215 59.2386 89.2438 59.4053 89.0923 59.5455C88.9408 59.6856 88.7628 59.7557 88.5582 59.7557ZM96.9205 63.1875L95.9489 63.4375C95.8996 63.1761 95.8087 62.9413 95.6761 62.733C95.5473 62.5208 95.3598 62.3542 95.1136 62.233C94.8712 62.108 94.553 62.0455 94.1591 62.0455C93.5682 62.0455 93.0587 62.1894 92.6307 62.4773C92.2027 62.7614 91.9527 63.125 91.8807 63.5682C91.8201 63.9394 91.8977 64.2405 92.1136 64.4716C92.3333 64.7027 92.7008 64.8845 93.2159 65.017L94.4886 65.3409C95.1932 65.5227 95.6951 65.8068 95.9943 66.1932C96.2973 66.5795 96.4015 67.0682 96.3068 67.6591C96.2235 68.1515 96.0133 68.5871 95.6761 68.9659C95.3428 69.3447 94.9148 69.642 94.392 69.858C93.8731 70.0739 93.2936 70.1818 92.6534 70.1818C91.7936 70.1818 91.1174 69.9886 90.625 69.6023C90.1364 69.2159 89.875 68.6591 89.8409 67.9318L90.858 67.7045C90.8883 68.2197 91.0644 68.6098 91.3864 68.875C91.7121 69.1402 92.1705 69.2727 92.7614 69.2727C93.4356 69.2727 94.0019 69.1193 94.4602 68.8125C94.9186 68.5057 95.1818 68.1269 95.25 67.6761C95.3144 67.3201 95.2481 67.0246 95.0511 66.7898C94.858 66.5549 94.5284 66.3807 94.0625 66.267L92.7045 65.9261C91.9735 65.7405 91.4564 65.4508 91.1534 65.0568C90.8542 64.6591 90.7538 64.1686 90.8523 63.5852C90.9318 63.1042 91.1326 62.6818 91.4545 62.3182C91.7765 61.9545 92.1837 61.6705 92.6761 61.4659C93.1686 61.2576 93.7064 61.1534 94.2898 61.1534C95.0928 61.1534 95.7045 61.3352 96.125 61.6989C96.5455 62.0587 96.8106 62.5549 96.9205 63.1875ZM100.038 64.5455L99.1349 70H98.1236L100.055 58.3636H101.067L100.362 62.642H100.453C100.726 62.1875 101.101 61.8277 101.578 61.5625C102.055 61.2936 102.625 61.1591 103.288 61.1591C103.875 61.1591 104.372 61.2803 104.777 61.5227C105.186 61.7652 105.476 62.1231 105.646 62.5966C105.821 63.0701 105.851 63.6534 105.737 64.3466L104.788 70H103.771L104.703 64.4091C104.821 63.6894 104.714 63.1231 104.385 62.7102C104.059 62.2936 103.559 62.0852 102.885 62.0852C102.423 62.0852 101.991 62.1837 101.589 62.3807C101.192 62.5777 100.855 62.8617 100.578 63.233C100.305 63.6004 100.125 64.0379 100.038 64.5455ZM120.162 61.2727L115.52 70H114.44L112.707 61.2727H113.759L115.122 68.6648H115.196L119.02 61.2727H120.162ZM123.879 70.1818C123.065 70.1818 122.393 69.9924 121.862 69.6136C121.332 69.2311 120.961 68.7027 120.749 68.0284C120.536 67.3504 120.504 66.5701 120.652 65.6875C120.8 64.8087 121.091 64.0284 121.527 63.3466C121.963 62.661 122.5 62.125 123.141 61.7386C123.781 61.3485 124.476 61.1534 125.226 61.1534C125.699 61.1534 126.143 61.2405 126.555 61.4148C126.968 61.5852 127.319 61.8485 127.607 62.2045C127.898 62.5568 128.101 63.0019 128.214 63.5398C128.328 64.0739 128.324 64.7064 128.203 65.4375L128.124 65.9375H121.305L121.447 65.0455H127.237C127.332 64.4848 127.305 63.9811 127.158 63.5341C127.01 63.0871 126.758 62.733 126.402 62.4716C126.05 62.2064 125.612 62.0739 125.089 62.0739C124.555 62.0739 124.05 62.2235 123.572 62.5227C123.099 62.822 122.697 63.2121 122.368 63.6932C122.042 64.1705 121.832 64.6799 121.737 65.2216L121.624 65.892C121.502 66.6307 121.518 67.25 121.669 67.75C121.821 68.2462 122.095 68.6212 122.493 68.875C122.891 69.1288 123.4 69.2557 124.021 69.2557C124.438 69.2557 124.815 69.1913 125.152 69.0625C125.489 68.9337 125.783 68.7614 126.033 68.5455C126.283 68.3258 126.483 68.0852 126.635 67.8239L127.538 68.1364C127.345 68.5038 127.072 68.8428 126.72 69.1534C126.372 69.464 125.957 69.714 125.476 69.9034C124.999 70.089 124.466 70.1818 123.879 70.1818ZM129.67 70L131.125 61.2727H132.108L131.881 62.6136H131.955C132.197 62.1742 132.559 61.8201 133.04 61.5511C133.525 61.2784 134.042 61.142 134.591 61.142C134.674 61.142 134.767 61.1439 134.869 61.1477C134.972 61.1477 135.057 61.1515 135.125 61.1591L134.949 62.1875C134.903 62.1799 134.824 62.1686 134.71 62.1534C134.6 62.1383 134.477 62.1307 134.341 62.1307C133.886 62.1307 133.466 62.2273 133.08 62.4205C132.697 62.6098 132.375 62.8731 132.114 63.2102C131.856 63.5473 131.689 63.9318 131.614 64.3636L130.682 70H129.67ZM142.389 63.1875L141.418 63.4375C141.368 63.1761 141.277 62.9413 141.145 62.733C141.016 62.5208 140.829 62.3542 140.582 62.233C140.34 62.108 140.022 62.0455 139.628 62.0455C139.037 62.0455 138.527 62.1894 138.099 62.4773C137.671 62.7614 137.421 63.125 137.349 63.5682C137.289 63.9394 137.366 64.2405 137.582 64.4716C137.802 64.7027 138.17 64.8845 138.685 65.017L139.957 65.3409C140.662 65.5227 141.164 65.8068 141.463 66.1932C141.766 66.5795 141.87 67.0682 141.776 67.6591C141.692 68.1515 141.482 68.5871 141.145 68.9659C140.812 69.3447 140.384 69.642 139.861 69.858C139.342 70.0739 138.762 70.1818 138.122 70.1818C137.262 70.1818 136.586 69.9886 136.094 69.6023C135.605 69.2159 135.344 68.6591 135.31 67.9318L136.327 67.7045C136.357 68.2197 136.533 68.6098 136.855 68.875C137.181 69.1402 137.639 69.2727 138.23 69.2727C138.904 69.2727 139.471 69.1193 139.929 68.8125C140.387 68.5057 140.651 68.1269 140.719 67.6761C140.783 67.3201 140.717 67.0246 140.52 66.7898C140.327 66.5549 139.997 66.3807 139.531 66.267L138.173 65.9261C137.442 65.7405 136.925 65.4508 136.622 65.0568C136.323 64.6591 136.223 64.1686 136.321 63.5852C136.401 63.1042 136.601 62.6818 136.923 62.3182C137.245 61.9545 137.652 61.6705 138.145 61.4659C138.637 61.2576 139.175 61.1534 139.759 61.1534C140.562 61.1534 141.173 61.3352 141.594 61.6989C142.014 62.0587 142.279 62.5549 142.389 63.1875ZM143.604 70L145.058 61.2727H146.075L144.621 70H143.604ZM145.933 59.7557C145.721 59.7557 145.541 59.6837 145.393 59.5398C145.25 59.3958 145.179 59.2216 145.183 59.017C145.191 58.8239 145.268 58.6572 145.416 58.517C145.568 58.3731 145.746 58.3011 145.95 58.3011C146.162 58.3011 146.342 58.375 146.49 58.5227C146.638 58.6667 146.708 58.8409 146.7 59.0455C146.696 59.2386 146.619 59.4053 146.467 59.5455C146.316 59.6856 146.138 59.7557 145.933 59.7557ZM150.727 70.1818C149.962 70.1818 149.318 69.9886 148.795 69.6023C148.273 69.2121 147.903 68.6723 147.688 67.983C147.472 67.2936 147.436 66.4981 147.58 65.5966C147.723 64.7178 148.009 63.9451 148.438 63.2784C148.869 62.608 149.4 62.0871 150.028 61.7159C150.657 61.3409 151.341 61.1534 152.08 61.1534C152.848 61.1534 153.492 61.3485 154.011 61.7386C154.534 62.1288 154.903 62.6686 155.119 63.358C155.339 64.0473 155.377 64.8447 155.233 65.75C155.089 66.625 154.801 67.3958 154.369 68.0625C153.938 68.7254 153.407 69.2443 152.778 69.6193C152.153 69.9943 151.47 70.1818 150.727 70.1818ZM150.739 69.2557C151.36 69.2557 151.913 69.0909 152.398 68.7614C152.886 68.428 153.29 67.9848 153.608 67.4318C153.926 66.875 154.14 66.2633 154.25 65.5966C154.352 64.9602 154.341 64.375 154.216 63.8409C154.091 63.3068 153.85 62.8788 153.494 62.5568C153.138 62.2348 152.665 62.0739 152.074 62.0739C151.456 62.0739 150.903 62.2424 150.415 62.5795C149.926 62.9129 149.523 63.3598 149.205 63.9205C148.886 64.4773 148.674 65.0871 148.568 65.75C148.462 66.3902 148.47 66.9754 148.591 67.5057C148.716 68.036 148.956 68.4602 149.312 68.7784C149.672 69.0966 150.148 69.2557 150.739 69.2557ZM158.663 64.5455L157.76 70H156.749L158.203 61.2727H159.186L158.959 62.642H159.05C159.322 62.1951 159.699 61.8371 160.18 61.5682C160.665 61.2955 161.228 61.1591 161.868 61.1591C162.451 61.1591 162.944 61.2822 163.345 61.5284C163.75 61.7708 164.038 62.1288 164.209 62.6023C164.383 63.0758 164.413 63.6572 164.3 64.3466L163.351 70H162.339L163.271 64.4091C163.389 63.697 163.285 63.1326 162.959 62.7159C162.637 62.2955 162.139 62.0852 161.464 62.0852C161.006 62.0852 160.58 62.1837 160.186 62.3807C159.796 62.5777 159.466 62.8617 159.197 63.233C158.929 63.6004 158.75 64.0379 158.663 64.5455ZM169.287 65.0909C169.06 66.4545 168.673 67.7424 168.128 68.9545C167.586 70.1667 166.904 71.303 166.082 72.3636H165.162C165.514 71.9167 165.851 71.411 166.173 70.8466C166.495 70.2822 166.791 69.6799 167.06 69.0398C167.332 68.3996 167.569 67.7443 167.77 67.0739C167.974 66.4034 168.132 65.7424 168.241 65.0909C168.385 64.2159 168.452 63.3333 168.44 62.4432C168.429 61.553 168.348 60.7083 168.196 59.9091C168.048 59.1098 167.84 58.4129 167.571 57.8182H168.491C168.957 58.8826 169.262 60.0208 169.406 61.233C169.554 62.4451 169.514 63.7311 169.287 65.0909Z" fill="black"/>
</svg>
