<svg width="100%" viewBox="0 0 151 48" fill="none" xmlns="http://www.w3.org/2000/svg">
<path d="M0 8C0 3.58172 3.58172 0 8 0H143C147.418 0 151 3.58172 151 8V40C151 44.4183 147.418 48 143 48H8C3.58172 48 0 44.4183 0 40V8Z" fill="#24408E"/>
<path d="M34 27V30H22V27H20V30C20 31.1 20.9 32 22 32H34C35.1 32 36 31.1 36 30V27H34ZM33 23L31.59 21.59L29 24.17V16H27V24.17L24.41 21.59L23 23L28 28L33 23Z" fill="white"/>
<path d="M53.922 18.5C55.1167 18.5 56.162 18.7193 57.058 19.158C57.9633 19.5967 58.668 20.2127 59.172 21.006C59.676 21.79 59.928 22.7047 59.928 23.75C59.928 24.7953 59.676 25.7147 59.172 26.508C58.668 27.292 57.9633 27.9033 57.058 28.342C56.162 28.7807 55.1167 29 53.922 29H49.176V18.5H53.922ZM51.024 28.356L50.002 27.376H54.048C54.8507 27.376 55.5507 27.2267 56.148 26.928C56.7547 26.62 57.2213 26.1953 57.548 25.654C57.884 25.1033 58.052 24.4687 58.052 23.75C58.052 23.022 57.884 22.3873 57.548 21.846C57.2213 21.3047 56.7547 20.8847 56.148 20.586C55.5507 20.278 54.8507 20.124 54.048 20.124H50.002L51.024 19.144V28.356ZM65.4788 29.196C64.5174 29.196 63.6728 29.0233 62.9448 28.678C62.2261 28.3233 61.6614 27.8333 61.2508 27.208C60.8494 26.5827 60.6488 25.8593 60.6488 25.038C60.6488 24.2073 60.8494 23.484 61.2508 22.868C61.6614 22.2427 62.2261 21.7573 62.9448 21.412C63.6728 21.0573 64.5174 20.88 65.4788 20.88C66.4401 20.88 67.2801 21.0573 67.9988 21.412C68.7268 21.7573 69.2914 22.2427 69.6928 22.868C70.1034 23.484 70.3088 24.2073 70.3088 25.038C70.3088 25.8593 70.1034 26.5827 69.6928 27.208C69.2914 27.8333 68.7268 28.3233 67.9988 28.678C67.2801 29.0233 66.4401 29.196 65.4788 29.196ZM65.4788 27.768C66.0948 27.768 66.6221 27.656 67.0608 27.432C67.5088 27.208 67.8541 26.8953 68.0968 26.494C68.3394 26.0833 68.4608 25.598 68.4608 25.038C68.4608 24.478 68.3394 23.9973 68.0968 23.596C67.8541 23.1853 67.5088 22.868 67.0608 22.644C66.6221 22.42 66.0948 22.308 65.4788 22.308C64.8721 22.308 64.3448 22.42 63.8968 22.644C63.4488 22.868 63.1034 23.1853 62.8608 23.596C62.6181 23.9973 62.4968 24.478 62.4968 25.038C62.4968 25.598 62.6181 26.0833 62.8608 26.494C63.1034 26.8953 63.4488 27.208 63.8968 27.432C64.3448 27.656 64.8721 27.768 65.4788 27.768ZM81.3861 28.062H80.7421L83.4721 21.076H85.2921L82.1001 29H80.2381L77.4381 21.902H78.1521L75.2821 29H73.4201L70.2421 21.076H72.0901L74.8341 28.062H74.1481L76.8921 21.076H78.7121L81.3861 28.062ZM85.6229 21.076H87.4429L87.9189 23.932V29H86.0989V23.666L85.6229 21.076ZM91.0689 20.88C91.8156 20.88 92.4503 21.0293 92.9729 21.328C93.4956 21.6267 93.8923 22.056 94.1629 22.616C94.4429 23.1667 94.5829 23.834 94.5829 24.618V29H92.7629V24.912C92.7629 24.0813 92.5669 23.456 92.1749 23.036C91.7923 22.6067 91.2276 22.392 90.4809 22.392C89.9676 22.392 89.5149 22.5087 89.1229 22.742C88.7403 22.966 88.4416 23.2833 88.2269 23.694C88.0216 24.1047 87.9189 24.5853 87.9189 25.136L87.2749 24.786C87.3589 23.9647 87.5736 23.2647 87.9189 22.686C88.2643 22.1073 88.7076 21.664 89.2489 21.356C89.7903 21.0387 90.3969 20.88 91.0689 20.88ZM95.9852 18.22H97.8052V29H95.9852V18.22ZM103.693 29.196C102.732 29.196 101.887 29.0233 101.159 28.678C100.441 28.3233 99.876 27.8333 99.4653 27.208C99.064 26.5827 98.8633 25.8593 98.8633 25.038C98.8633 24.2073 99.064 23.484 99.4653 22.868C99.876 22.2427 100.441 21.7573 101.159 21.412C101.887 21.0573 102.732 20.88 103.693 20.88C104.655 20.88 105.495 21.0573 106.213 21.412C106.941 21.7573 107.506 22.2427 107.907 22.868C108.318 23.484 108.523 24.2073 108.523 25.038C108.523 25.8593 108.318 26.5827 107.907 27.208C107.506 27.8333 106.941 28.3233 106.213 28.678C105.495 29.0233 104.655 29.196 103.693 29.196ZM103.693 27.768C104.309 27.768 104.837 27.656 105.275 27.432C105.723 27.208 106.069 26.8953 106.311 26.494C106.554 26.0833 106.675 25.598 106.675 25.038C106.675 24.478 106.554 23.9973 106.311 23.596C106.069 23.1853 105.723 22.868 105.275 22.644C104.837 22.42 104.309 22.308 103.693 22.308C103.087 22.308 102.559 22.42 102.111 22.644C101.663 22.868 101.318 23.1853 101.075 23.596C100.833 23.9973 100.711 24.478 100.711 25.038C100.711 25.598 100.833 26.0833 101.075 26.494C101.318 26.8953 101.663 27.208 102.111 27.432C102.559 27.656 103.087 27.768 103.693 27.768ZM116.975 29L116.667 26.06L117.031 25.038L116.667 24.03L116.975 21.076H118.851L118.431 25.038L118.851 29H116.975ZM117.535 25.038C117.357 25.8687 117.063 26.5967 116.653 27.222C116.242 27.8473 115.733 28.3327 115.127 28.678C114.529 29.0233 113.862 29.196 113.125 29.196C112.35 29.196 111.664 29.0233 111.067 28.678C110.469 28.3233 110.003 27.8333 109.667 27.208C109.331 26.5827 109.163 25.8593 109.163 25.038C109.163 24.2073 109.331 23.484 109.667 22.868C110.003 22.2427 110.469 21.7573 111.067 21.412C111.664 21.0573 112.35 20.88 113.125 20.88C113.862 20.88 114.529 21.0527 115.127 21.398C115.733 21.7433 116.242 22.2287 116.653 22.854C117.073 23.47 117.367 24.198 117.535 25.038ZM111.011 25.038C111.011 25.57 111.118 26.0413 111.333 26.452C111.557 26.8533 111.86 27.1707 112.243 27.404C112.625 27.628 113.064 27.74 113.559 27.74C114.063 27.74 114.529 27.628 114.959 27.404C115.388 27.1707 115.766 26.8533 116.093 26.452C116.429 26.0413 116.695 25.57 116.891 25.038C116.695 24.506 116.429 24.0393 116.093 23.638C115.766 23.2273 115.388 22.91 114.959 22.686C114.529 22.4527 114.063 22.336 113.559 22.336C113.064 22.336 112.625 22.4527 112.243 22.686C111.86 22.91 111.557 23.2273 111.333 23.638C111.118 24.0393 111.011 24.506 111.011 25.038ZM127.602 29L127.294 25.99L127.7 25.052L127.308 23.974L127.896 18.22H129.772L129.058 24.926L129.464 29H127.602ZM128.134 25.038C127.957 25.8687 127.663 26.5967 127.252 27.222C126.842 27.8473 126.333 28.3327 125.726 28.678C125.129 29.0233 124.462 29.196 123.724 29.196C122.95 29.196 122.264 29.0233 121.666 28.678C121.069 28.3233 120.602 27.8333 120.266 27.208C119.93 26.5827 119.762 25.8593 119.762 25.038C119.762 24.2073 119.93 23.484 120.266 22.868C120.602 22.2427 121.069 21.7573 121.666 21.412C122.264 21.0573 122.95 20.88 123.724 20.88C124.462 20.88 125.129 21.0527 125.726 21.398C126.333 21.7433 126.842 22.2287 127.252 22.854C127.672 23.47 127.966 24.198 128.134 25.038ZM121.61 25.038C121.61 25.57 121.718 26.0413 121.932 26.452C122.156 26.8533 122.46 27.1707 122.842 27.404C123.225 27.628 123.664 27.74 124.158 27.74C124.662 27.74 125.129 27.628 125.558 27.404C125.988 27.1707 126.366 26.8533 126.692 26.452C127.028 26.0413 127.294 25.57 127.49 25.038C127.294 24.506 127.028 24.0393 126.692 23.638C126.366 23.2273 125.988 22.91 125.558 22.686C125.129 22.4527 124.662 22.336 124.158 22.336C123.664 22.336 123.225 22.4527 122.842 22.686C122.46 22.91 122.156 23.2273 121.932 23.638C121.718 24.0393 121.61 24.506 121.61 25.038Z" fill="white"/>
</svg>
