<svg width="100%" viewBox="0 0 375 812" fill="none" xmlns="http://www.w3.org/2000/svg">
<path d="M27.296 581.48C24.5013 581.48 22.048 580.957 19.936 579.912C17.8453 578.867 16.2133 577.416 15.04 575.56C13.8667 573.683 13.28 571.496 13.28 569C13.28 566.504 13.8667 564.328 15.04 562.472C16.2133 560.595 17.8453 559.133 19.936 558.088C22.048 557.043 24.5013 556.52 27.296 556.52C30.0907 556.52 32.5333 557.043 34.624 558.088C36.736 559.133 38.3787 560.595 39.552 562.472C40.7253 564.328 41.312 566.504 41.312 569C41.312 571.496 40.7253 573.683 39.552 575.56C38.3787 577.416 36.736 578.867 34.624 579.912C32.5333 580.957 30.0907 581.48 27.296 581.48ZM27.296 576.648C29.0453 576.648 30.5493 576.339 31.808 575.72C33.088 575.101 34.0693 574.216 34.752 573.064C35.456 571.912 35.808 570.557 35.808 569C35.808 567.443 35.456 566.088 34.752 564.936C34.0693 563.784 33.088 562.899 31.808 562.28C30.5493 561.661 29.0453 561.352 27.296 561.352C25.568 561.352 24.064 561.661 22.784 562.28C21.504 562.899 20.512 563.784 19.808 564.936C19.1253 566.088 18.784 567.443 18.784 569C18.784 570.557 19.1253 571.912 19.808 573.064C20.512 574.216 21.504 575.101 22.784 575.72C24.064 576.339 25.568 576.648 27.296 576.648ZM50.1778 570.472C50.1778 571.752 50.4231 572.851 50.9138 573.768C51.4044 574.685 52.1191 575.4 53.0578 575.912C54.0178 576.403 55.1698 576.648 56.5138 576.648C57.8791 576.648 59.0311 576.403 59.9698 575.912C60.9084 575.4 61.6231 574.685 62.1138 573.768C62.6044 572.851 62.8498 571.752 62.8498 570.472V557H68.2898V570.728C68.2898 572.883 67.7991 574.771 66.8178 576.392C65.8364 577.992 64.4604 579.24 62.6898 580.136C60.9191 581.032 58.8604 581.48 56.5138 581.48C54.1671 581.48 52.1084 581.032 50.3378 580.136C48.5884 579.24 47.2124 577.992 46.2098 576.392C45.2284 574.771 44.7378 572.883 44.7378 570.728V557H50.1778V570.472ZM76.6775 567.656H85.9255C87.1415 567.656 88.1015 567.379 88.8055 566.824C89.5308 566.248 89.8935 565.459 89.8935 564.456C89.8935 563.453 89.5308 562.675 88.8055 562.12C88.1015 561.565 87.1415 561.288 85.9255 561.288H75.8775L78.3415 558.504V581H72.9015V557H86.5655C88.3148 557 89.8508 557.32 91.1735 557.96C92.4962 558.579 93.5308 559.443 94.2775 560.552C95.0242 561.661 95.3975 562.963 95.3975 564.456C95.3975 565.928 95.0242 567.219 94.2775 568.328C93.5308 569.437 92.4962 570.312 91.1735 570.952C89.8508 571.571 88.3148 571.88 86.5655 571.88H76.6775V567.656ZM80.8375 569.768H87.0455L96.1015 581H89.7335L80.8375 569.768ZM17.088 607.176H34.432V611.816H17.088V607.176ZM34.976 597V601.672H17.152L19.904 598.888V621H14.464V597H34.976ZM38.6203 597H44.0603V621H38.6203V597ZM71.204 617.416L69.316 617.704V597H74.596V621H67.716L52.356 600.296L54.212 600.008V621H48.964V597H56.004L71.204 617.416ZM83.4313 615.944V611.528H100.071V615.944H83.4313ZM95.3673 597L106.599 621H100.807L90.9833 599.208H92.7753L82.9513 621H77.1593L88.3913 597H95.3673ZM131.423 617.416L129.535 617.704V597H134.815V621H127.935L112.575 600.296L114.431 600.008V621H109.183V597H116.223L131.423 617.416ZM165.698 611.24C165.463 613.267 164.749 615.059 163.554 616.616C162.381 618.152 160.823 619.347 158.882 620.2C156.962 621.053 154.765 621.48 152.29 621.48C149.559 621.48 147.159 620.957 145.09 619.912C143.042 618.867 141.442 617.416 140.29 615.56C139.138 613.683 138.562 611.496 138.562 609C138.562 606.504 139.138 604.328 140.29 602.472C141.442 600.595 143.042 599.133 145.09 598.088C147.159 597.043 149.559 596.52 152.29 596.52C154.765 596.52 156.962 596.947 158.882 597.8C160.823 598.653 162.381 599.848 163.554 601.384C164.749 602.92 165.463 604.712 165.698 606.76H160.226C160.013 605.629 159.554 604.659 158.85 603.848C158.146 603.016 157.239 602.376 156.13 601.928C155.021 601.48 153.73 601.256 152.258 601.256C150.573 601.256 149.111 601.576 147.874 602.216C146.658 602.835 145.719 603.731 145.058 604.904C144.397 606.056 144.066 607.421 144.066 609C144.066 610.579 144.397 611.955 145.058 613.128C145.719 614.28 146.658 615.176 147.874 615.816C149.111 616.435 150.573 616.744 152.258 616.744C153.73 616.744 155.021 616.531 156.13 616.104C157.239 615.656 158.146 615.027 158.85 614.216C159.554 613.384 160.013 612.392 160.226 611.24H165.698ZM169.245 597H174.685V621H169.245V597ZM183.525 615.944V611.528H200.165V615.944H183.525ZM195.461 597L206.693 621H200.901L191.077 599.208H192.869L183.045 621H177.253L188.485 597H195.461ZM214.717 597V618.6L212.253 616.2H230.269V621H209.277V597H214.717ZM231.215 613.16H236.719C236.847 613.971 237.199 614.685 237.775 615.304C238.373 615.901 239.162 616.371 240.143 616.712C241.146 617.032 242.298 617.192 243.599 617.192C245.498 617.192 246.991 616.925 248.079 616.392C249.189 615.837 249.743 615.069 249.743 614.088C249.743 613.32 249.423 612.733 248.783 612.328C248.165 611.901 247.002 611.592 245.295 611.4L240.463 610.856C237.349 610.515 235.087 609.789 233.679 608.68C232.293 607.549 231.599 605.981 231.599 603.976C231.599 602.397 232.058 601.053 232.975 599.944C233.914 598.835 235.226 597.992 236.911 597.416C238.597 596.819 240.581 596.52 242.863 596.52C245.082 596.52 247.055 596.851 248.783 597.512C250.511 598.152 251.887 599.059 252.911 600.232C253.935 601.384 254.49 602.739 254.575 604.296H249.071C248.965 603.592 248.645 602.984 248.111 602.472C247.599 601.939 246.885 601.533 245.967 601.256C245.05 600.957 243.973 600.808 242.735 600.808C241.007 600.808 239.631 601.064 238.607 601.576C237.583 602.088 237.071 602.813 237.071 603.752C237.071 604.477 237.37 605.043 237.967 605.448C238.586 605.832 239.663 606.12 241.199 606.312L246.223 606.92C248.442 607.155 250.202 607.539 251.503 608.072C252.826 608.584 253.765 609.277 254.319 610.152C254.895 611.027 255.183 612.136 255.183 613.48C255.183 615.08 254.693 616.488 253.711 617.704C252.751 618.899 251.397 619.827 249.647 620.488C247.898 621.149 245.85 621.48 243.503 621.48C241.114 621.48 239.013 621.139 237.199 620.456C235.386 619.752 233.957 618.781 232.911 617.544C231.866 616.285 231.301 614.824 231.215 613.16Z" fill="#24CBFF"/>
</svg>
