<svg width="100%" viewBox="0 0 1920 1051" fill="none" xmlns="http://www.w3.org/2000/svg">
<path d="M333.944 744.72C329.752 744.72 326.072 743.936 322.904 742.368C319.768 740.8 317.32 738.624 315.56 735.84C313.8 733.024 312.92 729.744 312.92 726C312.92 722.256 313.8 718.992 315.56 716.208C317.32 713.392 319.768 711.2 322.904 709.632C326.072 708.064 329.752 707.28 333.944 707.28C338.136 707.28 341.8 708.064 344.936 709.632C348.104 711.2 350.568 713.392 352.328 716.208C354.088 718.992 354.968 722.256 354.968 726C354.968 729.744 354.088 733.024 352.328 735.84C350.568 738.624 348.104 740.8 344.936 742.368C341.8 743.936 338.136 744.72 333.944 744.72ZM333.944 737.472C336.568 737.472 338.824 737.008 340.712 736.08C342.632 735.152 344.104 733.824 345.128 732.096C346.184 730.368 346.712 728.336 346.712 726C346.712 723.664 346.184 721.632 345.128 719.904C344.104 718.176 342.632 716.848 340.712 715.92C338.824 714.992 336.568 714.528 333.944 714.528C331.352 714.528 329.096 714.992 327.176 715.92C325.256 716.848 323.768 718.176 322.712 719.904C321.688 721.632 321.176 723.664 321.176 726C321.176 728.336 321.688 730.368 322.712 732.096C323.768 733.824 325.256 735.152 327.176 736.08C329.096 737.008 331.352 737.472 333.944 737.472ZM368.267 728.208C368.267 730.128 368.635 731.776 369.371 733.152C370.107 734.528 371.179 735.6 372.587 736.368C374.027 737.104 375.755 737.472 377.771 737.472C379.819 737.472 381.547 737.104 382.955 736.368C384.363 735.6 385.435 734.528 386.171 733.152C386.907 731.776 387.275 730.128 387.275 728.208V708H395.435V728.592C395.435 731.824 394.699 734.656 393.227 737.088C391.755 739.488 389.691 741.36 387.035 742.704C384.379 744.048 381.291 744.72 377.771 744.72C374.251 744.72 371.163 744.048 368.507 742.704C365.883 741.36 363.819 739.488 362.315 737.088C360.843 734.656 360.107 731.824 360.107 728.592V708H368.267V728.208ZM408.016 723.984H421.888C423.712 723.984 425.152 723.568 426.208 722.736C427.296 721.872 427.84 720.688 427.84 719.184C427.84 717.68 427.296 716.512 426.208 715.68C425.152 714.848 423.712 714.432 421.888 714.432H406.816L410.512 710.256V744H402.352V708H422.848C425.472 708 427.776 708.48 429.76 709.44C431.744 710.368 433.296 711.664 434.416 713.328C435.536 714.992 436.096 716.944 436.096 719.184C436.096 721.392 435.536 723.328 434.416 724.992C433.296 726.656 431.744 727.968 429.76 728.928C427.776 729.856 425.472 730.32 422.848 730.32H408.016V723.984ZM414.256 727.152H423.568L437.152 744H427.6L414.256 727.152ZM318.632 787.264H344.648V794.224H318.632V787.264ZM345.464 772V779.008H318.728L322.856 774.832V808H314.696V772H345.464ZM350.93 772H359.09V808H350.93V772ZM399.806 802.624L396.974 803.056V772H404.894V808H394.574L371.534 776.944L374.318 776.512V808H366.446V772H377.006L399.806 802.624ZM418.147 800.416V793.792H443.107V800.416H418.147ZM436.051 772L452.899 808H444.211L429.475 775.312H432.163L417.427 808H408.739L425.587 772H436.051ZM490.134 802.624L487.302 803.056V772H495.222V808H484.902L461.862 776.944L464.646 776.512V808H456.774V772H467.334L490.134 802.624ZM541.547 793.36C541.195 796.4 540.123 799.088 538.331 801.424C536.571 803.728 534.235 805.52 531.323 806.8C528.443 808.08 525.147 808.72 521.435 808.72C517.339 808.72 513.739 807.936 510.635 806.368C507.563 804.8 505.163 802.624 503.435 799.84C501.707 797.024 500.843 793.744 500.843 790C500.843 786.256 501.707 782.992 503.435 780.208C505.163 777.392 507.563 775.2 510.635 773.632C513.739 772.064 517.339 771.28 521.435 771.28C525.147 771.28 528.443 771.92 531.323 773.2C534.235 774.48 536.571 776.272 538.331 778.576C540.123 780.88 541.195 783.568 541.547 786.64H533.339C533.019 784.944 532.331 783.488 531.275 782.272C530.219 781.024 528.859 780.064 527.195 779.392C525.531 778.72 523.595 778.384 521.387 778.384C518.859 778.384 516.667 778.864 514.811 779.824C512.987 780.752 511.579 782.096 510.587 783.856C509.595 785.584 509.099 787.632 509.099 790C509.099 792.368 509.595 794.432 510.587 796.192C511.579 797.92 512.987 799.264 514.811 800.224C516.667 801.152 518.859 801.616 521.387 801.616C523.595 801.616 525.531 801.296 527.195 800.656C528.859 799.984 530.219 799.04 531.275 797.824C532.331 796.576 533.019 795.088 533.339 793.36H541.547ZM546.868 772H555.028V808H546.868V772ZM568.288 800.416V793.792H593.248V800.416H568.288ZM586.192 772L603.04 808H594.352L579.616 775.312H582.304L567.568 808H558.88L575.728 772H586.192ZM615.075 772V804.4L611.379 800.8H638.403V808H606.915V772H615.075ZM639.823 796.24H648.079C648.271 797.456 648.799 798.528 649.663 799.456C650.559 800.352 651.743 801.056 653.215 801.568C654.719 802.048 656.447 802.288 658.399 802.288C661.247 802.288 663.487 801.888 665.119 801.088C666.783 800.256 667.615 799.104 667.615 797.632C667.615 796.48 667.135 795.6 666.175 794.992C665.247 794.352 663.503 793.888 660.943 793.6L653.695 792.784C649.023 792.272 645.631 791.184 643.519 789.52C641.439 787.824 640.399 785.472 640.399 782.464C640.399 780.096 641.087 778.08 642.463 776.416C643.871 774.752 645.839 773.488 648.367 772.624C650.895 771.728 653.871 771.28 657.295 771.28C660.623 771.28 663.583 771.776 666.175 772.768C668.767 773.728 670.831 775.088 672.367 776.848C673.903 778.576 674.735 780.608 674.863 782.944H666.607C666.447 781.888 665.967 780.976 665.167 780.208C664.399 779.408 663.327 778.8 661.951 778.384C660.575 777.936 658.959 777.712 657.103 777.712C654.511 777.712 652.447 778.096 650.911 778.864C649.375 779.632 648.607 780.72 648.607 782.128C648.607 783.216 649.055 784.064 649.951 784.672C650.879 785.248 652.495 785.68 654.799 785.968L662.335 786.88C665.663 787.232 668.303 787.808 670.255 788.608C672.239 789.376 673.647 790.416 674.479 791.728C675.343 793.04 675.775 794.704 675.775 796.72C675.775 799.12 675.039 801.232 673.567 803.056C672.127 804.848 670.095 806.24 667.471 807.232C664.847 808.224 661.775 808.72 658.255 808.72C654.671 808.72 651.519 808.208 648.799 807.184C646.079 806.128 643.935 804.672 642.367 802.816C640.799 800.928 639.951 798.736 639.823 796.24Z" fill="#24CBFF"/>
</svg>
