<svg width="100%" viewBox="0 0 1920 70" fill="none" xmlns="http://www.w3.org/2000/svg">
<rect x="1245.5" y="5.5" width="436" height="58" rx="19.5" stroke="url(#paint0_linear_2014_702)"/>
<path d="M1287.44 40V28.3636H1289.55V33.2898H1294.94V28.3636H1297.06V40H1294.94V35.0568H1289.55V40H1287.44ZM1309.98 27.8523H1311.46C1311.46 28.6136 1311.36 29.2614 1311.15 29.7955C1310.93 30.3295 1310.58 30.7386 1310.08 31.0227C1309.58 31.303 1308.9 31.4432 1308.04 31.4432V30.2159C1308.6 30.2159 1309.02 30.1231 1309.3 29.9375C1309.58 29.7519 1309.76 29.483 1309.85 29.1307C1309.94 28.7784 1309.98 28.3523 1309.98 27.8523ZM1306.69 28.3636H1308.79V35.9659C1308.79 36.7992 1308.6 37.5322 1308.2 38.1648C1307.81 38.7973 1307.26 39.2917 1306.56 39.6477C1305.85 40 1305.02 40.1761 1304.07 40.1761C1303.12 40.1761 1302.29 40 1301.58 39.6477C1300.88 39.2917 1300.33 38.7973 1299.94 38.1648C1299.55 37.5322 1299.35 36.7992 1299.35 35.9659V28.3636H1301.46V35.7898C1301.46 36.2746 1301.56 36.7064 1301.78 37.0852C1301.99 37.464 1302.3 37.7614 1302.69 37.9773C1303.08 38.1894 1303.54 38.2955 1304.07 38.2955C1304.61 38.2955 1305.07 38.1894 1305.46 37.9773C1305.85 37.7614 1306.16 37.464 1306.37 37.0852C1306.58 36.7064 1306.69 36.2746 1306.69 35.7898V28.3636ZM1322.69 27.7045H1324.17C1324.17 28.7803 1323.93 29.6155 1323.44 30.2102C1322.94 30.8049 1322.18 31.1023 1321.16 31.1023V29.8977C1321.72 29.8977 1322.11 29.7045 1322.34 29.3182C1322.57 28.9318 1322.69 28.3939 1322.69 27.7045ZM1323.12 34.1818C1323.12 35.4356 1322.89 36.5095 1322.42 37.4034C1321.95 38.2936 1321.32 38.9754 1320.51 39.4489C1319.71 39.9223 1318.8 40.1591 1317.78 40.1591C1316.76 40.1591 1315.85 39.9223 1315.04 39.4489C1314.24 38.9716 1313.6 38.2879 1313.13 37.3977C1312.66 36.5038 1312.43 35.4318 1312.43 34.1818C1312.43 32.928 1312.66 31.8561 1313.13 30.9659C1313.6 30.072 1314.24 29.3883 1315.04 28.9148C1315.85 28.4413 1316.76 28.2045 1317.78 28.2045C1318.8 28.2045 1319.71 28.4413 1320.51 28.9148C1321.32 29.3883 1321.95 30.072 1322.42 30.9659C1322.89 31.8561 1323.12 32.928 1323.12 34.1818ZM1321 34.1818C1321 33.2992 1320.87 32.5549 1320.59 31.9489C1320.32 31.339 1319.94 30.8788 1319.45 30.5682C1318.97 30.2538 1318.41 30.0966 1317.78 30.0966C1317.14 30.0966 1316.59 30.2538 1316.1 30.5682C1315.62 30.8788 1315.24 31.339 1314.96 31.9489C1314.69 32.5549 1314.55 33.2992 1314.55 34.1818C1314.55 35.0644 1314.69 35.8106 1314.96 36.4205C1315.24 37.0265 1315.62 37.4867 1316.1 37.8011C1316.59 38.1117 1317.14 38.267 1317.78 38.267C1318.41 38.267 1318.97 38.1117 1319.45 37.8011C1319.94 37.4867 1320.32 37.0265 1320.59 36.4205C1320.87 35.8106 1321 35.0644 1321 34.1818ZM1316.99 27.2159L1318.26 24.6193H1320.27L1318.53 27.2159H1316.99ZM1335.1 28.3636V40H1333.23L1327.74 32.0739H1327.65V40H1325.54V28.3636H1327.42L1332.9 36.2955H1333V28.3636H1335.1ZM1345.19 32.0795C1345.1 31.7727 1344.97 31.4981 1344.8 31.2557C1344.64 31.0095 1344.44 30.7992 1344.21 30.625C1343.98 30.4508 1343.72 30.3201 1343.43 30.233C1343.13 30.142 1342.81 30.0966 1342.46 30.0966C1341.84 30.0966 1341.28 30.2538 1340.79 30.5682C1340.3 30.8826 1339.92 31.3447 1339.64 31.9545C1339.36 32.5606 1339.22 33.2992 1339.22 34.1705C1339.22 35.0492 1339.36 35.7936 1339.64 36.4034C1339.91 37.0133 1340.3 37.4773 1340.79 37.7955C1341.28 38.1098 1341.85 38.267 1342.51 38.267C1343.1 38.267 1343.61 38.1534 1344.04 37.9261C1344.48 37.6989 1344.81 37.3769 1345.05 36.9602C1345.28 36.5398 1345.4 36.0473 1345.4 35.483L1345.88 35.5568H1342.72V33.9091H1347.44V35.3068C1347.44 36.303 1347.23 37.1648 1346.8 37.892C1346.38 38.6193 1345.79 39.1799 1345.05 39.5739C1344.31 39.964 1343.46 40.1591 1342.49 40.1591C1341.42 40.1591 1340.48 39.9186 1339.67 39.4375C1338.86 38.9527 1338.23 38.2652 1337.78 37.375C1337.33 36.4811 1337.1 35.4205 1337.1 34.1932C1337.1 33.2538 1337.23 32.4148 1337.5 31.6761C1337.77 30.9375 1338.14 30.3106 1338.62 29.7955C1339.11 29.2765 1339.67 28.8826 1340.32 28.6136C1340.97 28.3409 1341.67 28.2045 1342.43 28.2045C1343.08 28.2045 1343.68 28.2992 1344.23 28.4886C1344.79 28.6742 1345.28 28.9394 1345.72 29.2841C1346.15 29.6288 1346.51 30.0379 1346.79 30.5114C1347.07 30.9848 1347.25 31.5076 1347.34 32.0795H1345.19ZM1357.39 40H1354.44V38.1761H1357.29C1358.1 38.1761 1358.77 38.0284 1359.31 37.733C1359.86 37.4337 1360.26 36.9886 1360.54 36.3977C1360.81 35.803 1360.94 35.0606 1360.94 34.1705C1360.94 33.2803 1360.81 32.5417 1360.54 31.9545C1360.26 31.3636 1359.86 30.9223 1359.33 30.6307C1358.79 30.3352 1358.14 30.1875 1357.35 30.1875H1354.38V28.3636H1357.47C1358.62 28.3636 1359.62 28.5966 1360.44 29.0625C1361.28 29.5246 1361.92 30.1894 1362.37 31.0568C1362.81 31.9242 1363.04 32.9621 1363.04 34.1705C1363.04 35.3826 1362.81 36.4242 1362.36 37.2955C1361.91 38.1667 1361.27 38.8352 1360.42 39.3011C1359.58 39.767 1358.57 40 1357.39 40ZM1355.55 28.3636V40H1353.44V28.3636H1355.55ZM1351.76 34.5568V33.2614H1357.21V34.5568H1351.76ZM1365.04 40V28.3636H1372.61V30.1307H1367.15V33.2898H1372.21V35.0568H1367.15V38.233H1372.65V40H1365.04ZM1365.87 27.3636L1368.17 25.4943H1369.46L1371.77 27.3636H1370.06L1368.83 26.3182L1367.59 27.3636H1365.87ZM1371.16 26.2273L1372.42 24.1307H1374.23L1372.48 26.2273H1371.16ZM1384.32 28.3636V40H1382.44L1376.96 32.0739H1376.87V40H1374.76V28.3636H1376.64L1382.12 36.2955H1382.22V28.3636H1384.32ZM1390.59 40V28.3636H1392.69V33.7102H1392.84L1397.38 28.3636H1399.95L1395.45 33.5852L1399.99 40H1397.45L1393.98 35.0114L1392.69 36.5341V40H1390.59ZM1401.41 40V28.3636H1403.52V33.2898H1408.91V28.3636H1411.03V40H1408.91V35.0568H1403.52V40H1401.41ZM1414.81 40H1412.56L1416.66 28.3636H1419.26L1423.37 40H1421.12L1418.01 30.75H1417.92L1414.81 40ZM1414.89 35.4375H1421.02V37.1307H1414.89V35.4375ZM1417.17 27.2159L1418.44 24.6193H1420.46L1418.71 27.2159H1417.17ZM1434.31 32.2898H1432.19C1432.13 31.9413 1432.01 31.6326 1431.85 31.3636C1431.69 31.0909 1431.49 30.8598 1431.24 30.6705C1431 30.4811 1430.72 30.339 1430.41 30.2443C1430.11 30.1458 1429.78 30.0966 1429.42 30.0966C1428.79 30.0966 1428.23 30.2557 1427.74 30.5739C1427.25 30.8883 1426.87 31.3504 1426.59 31.9602C1426.31 32.5663 1426.17 33.3068 1426.17 34.1818C1426.17 35.072 1426.31 35.822 1426.59 36.4318C1426.87 37.0379 1427.25 37.4962 1427.74 37.8068C1428.23 38.1136 1428.78 38.267 1429.41 38.267C1429.76 38.267 1430.09 38.2216 1430.39 38.1307C1430.7 38.036 1430.97 37.8977 1431.21 37.7159C1431.46 37.5341 1431.67 37.3106 1431.83 37.0455C1432 36.7803 1432.12 36.4773 1432.19 36.1364L1434.31 36.1477C1434.23 36.7008 1434.06 37.2197 1433.79 37.7045C1433.53 38.1894 1433.19 38.6174 1432.77 38.9886C1432.34 39.3561 1431.85 39.6439 1431.28 39.8523C1430.71 40.0568 1430.08 40.1591 1429.38 40.1591C1428.36 40.1591 1427.45 39.9223 1426.65 39.4489C1425.84 38.9754 1425.21 38.2917 1424.75 37.3977C1424.29 36.5038 1424.06 35.4318 1424.06 34.1818C1424.06 32.928 1424.29 31.8561 1424.75 30.9659C1425.22 30.072 1425.85 29.3883 1426.66 28.9148C1427.46 28.4413 1428.37 28.2045 1429.38 28.2045C1430.03 28.2045 1430.63 28.2955 1431.19 28.4773C1431.75 28.6591 1432.24 28.9261 1432.68 29.2784C1433.12 29.6269 1433.47 30.0549 1433.75 30.5625C1434.04 31.0663 1434.22 31.642 1434.31 32.2898ZM1436.24 40V28.3636H1438.35V33.2898H1443.74V28.3636H1445.86V40H1443.74V35.0568H1438.35V40H1436.24ZM1452.12 40V28.3636H1454.22V33.2898H1459.62V28.3636H1461.73V40H1459.62V35.0568H1454.22V40H1452.12ZM1465.52 40H1463.27L1467.36 28.3636H1469.97L1474.07 40H1471.82L1468.71 30.75H1468.62L1465.52 40ZM1465.59 35.4375H1471.73V37.1307H1465.59V35.4375ZM1467.91 27.2159L1466.17 24.6193H1468.19L1469.45 27.2159H1467.91ZM1485.16 28.3636V40H1483.29L1477.81 32.0739H1477.71V40H1475.6V28.3636H1477.49L1482.96 36.2955H1483.07V28.3636H1485.16ZM1495.26 32.0795C1495.16 31.7727 1495.03 31.4981 1494.86 31.2557C1494.7 31.0095 1494.5 30.7992 1494.27 30.625C1494.05 30.4508 1493.78 30.3201 1493.49 30.233C1493.19 30.142 1492.87 30.0966 1492.52 30.0966C1491.9 30.0966 1491.34 30.2538 1490.85 30.5682C1490.36 30.8826 1489.98 31.3447 1489.7 31.9545C1489.42 32.5606 1489.28 33.2992 1489.28 34.1705C1489.28 35.0492 1489.42 35.7936 1489.7 36.4034C1489.98 37.0133 1490.36 37.4773 1490.85 37.7955C1491.34 38.1098 1491.92 38.267 1492.57 38.267C1493.16 38.267 1493.67 38.1534 1494.1 37.9261C1494.54 37.6989 1494.87 37.3769 1495.11 36.9602C1495.34 36.5398 1495.46 36.0473 1495.46 35.483L1495.94 35.5568H1492.78V33.9091H1497.5V35.3068C1497.5 36.303 1497.29 37.1648 1496.86 37.892C1496.44 38.6193 1495.86 39.1799 1495.11 39.5739C1494.37 39.964 1493.52 40.1591 1492.56 40.1591C1491.48 40.1591 1490.54 39.9186 1489.73 39.4375C1488.93 38.9527 1488.3 38.2652 1487.84 37.375C1487.39 36.4811 1487.16 35.4205 1487.16 34.1932C1487.16 33.2538 1487.3 32.4148 1487.56 31.6761C1487.83 30.9375 1488.21 30.3106 1488.69 29.7955C1489.17 29.2765 1489.73 28.8826 1490.38 28.6136C1491.03 28.3409 1491.73 28.2045 1492.49 28.2045C1493.14 28.2045 1493.74 28.2992 1494.3 28.4886C1494.85 28.6742 1495.35 28.9394 1495.78 29.2841C1496.21 29.6288 1496.57 30.0379 1496.85 30.5114C1497.13 30.9848 1497.32 31.5076 1497.4 32.0795H1495.26ZM1508.67 33.7045V34.6591H1503.83V33.7045H1508.67ZM1519.33 40H1515.92V28.3636H1519.53C1520.64 28.3636 1521.59 28.5947 1522.38 29.0568C1523.17 29.5189 1523.78 30.1818 1524.2 31.0455C1524.62 31.9091 1524.83 32.9451 1524.83 34.1534C1524.83 35.3731 1524.61 36.4205 1524.18 37.2955C1523.75 38.1667 1523.13 38.8352 1522.31 39.3011C1521.49 39.767 1520.5 40 1519.33 40ZM1516.98 39.0455H1519.27C1520.27 39.0455 1521.1 38.8485 1521.78 38.4545C1522.45 38.0606 1522.96 37.4981 1523.3 36.767C1523.63 36.036 1523.8 35.1648 1523.8 34.1534C1523.8 33.1496 1523.63 32.286 1523.3 31.5625C1522.98 30.839 1522.49 30.2841 1521.85 29.8977C1521.21 29.5114 1520.41 29.3182 1519.47 29.3182H1516.98V39.0455ZM1527.21 40V31.2727H1528.22V40H1527.21ZM1527.72 29.7727C1527.51 29.7727 1527.34 29.7027 1527.19 29.5625C1527.04 29.4186 1526.97 29.2462 1526.97 29.0455C1526.97 28.8447 1527.04 28.6742 1527.19 28.5341C1527.34 28.3902 1527.51 28.3182 1527.72 28.3182C1527.93 28.3182 1528.11 28.3902 1528.26 28.5341C1528.4 28.6742 1528.48 28.8447 1528.48 29.0455C1528.48 29.2462 1528.4 29.4186 1528.26 29.5625C1528.11 29.7027 1527.93 29.7727 1527.72 29.7727ZM1527.72 42.7898C1527.52 42.7898 1527.34 42.7178 1527.19 42.5739C1527.04 42.4299 1526.97 42.2595 1526.97 42.0625C1526.97 41.8617 1527.04 41.6894 1527.19 41.5455C1527.34 41.4053 1527.52 41.3352 1527.72 41.3352C1527.93 41.3352 1528.11 41.4053 1528.26 41.5455C1528.41 41.6894 1528.48 41.8617 1528.48 42.0625C1528.48 42.2595 1528.41 42.4299 1528.26 42.5739C1528.11 42.7178 1527.93 42.7898 1527.72 42.7898ZM1534.31 40.1818C1533.53 40.1818 1532.85 39.9867 1532.27 39.5966C1531.69 39.2064 1531.24 38.6723 1530.93 37.9943C1530.61 37.3163 1530.45 36.5436 1530.45 35.6761C1530.45 34.8011 1530.61 34.0227 1530.93 33.3409C1531.26 32.6591 1531.71 32.125 1532.28 31.7386C1532.86 31.3485 1533.53 31.1534 1534.29 31.1534C1534.87 31.1534 1535.4 31.267 1535.88 31.4943C1536.35 31.7178 1536.74 32.0341 1537.05 32.4432C1537.36 32.8485 1537.55 33.322 1537.63 33.8636H1536.61C1536.5 33.3712 1536.25 32.9508 1535.84 32.6023C1535.44 32.25 1534.93 32.0739 1534.31 32.0739C1533.75 32.0739 1533.26 32.2254 1532.83 32.5284C1532.4 32.8277 1532.07 33.2462 1531.82 33.7841C1531.59 34.3182 1531.47 34.9375 1531.47 35.642C1531.47 36.3504 1531.58 36.9773 1531.82 37.5227C1532.05 38.0644 1532.38 38.4886 1532.81 38.7955C1533.23 39.1023 1533.73 39.2557 1534.31 39.2557C1534.69 39.2557 1535.05 39.1837 1535.36 39.0398C1535.69 38.892 1535.95 38.6837 1536.17 38.4148C1536.39 38.1458 1536.54 37.8258 1536.61 37.4545H1537.64C1537.56 37.9811 1537.37 38.4508 1537.07 38.8636C1536.78 39.2727 1536.39 39.5947 1535.92 39.8295C1535.45 40.0644 1534.91 40.1818 1534.31 40.1818ZM1540.82 34.5455V40H1539.8V28.3636H1540.82V32.642H1540.91C1541.11 32.1913 1541.43 31.8314 1541.86 31.5625C1542.29 31.2936 1542.83 31.1591 1543.49 31.1591C1544.08 31.1591 1544.6 31.2803 1545.05 31.5227C1545.5 31.7652 1545.84 32.1231 1546.09 32.5966C1546.34 33.0701 1546.47 33.6534 1546.47 34.3466V40H1545.45V34.4091C1545.45 33.6894 1545.25 33.1231 1544.85 32.7102C1544.45 32.2936 1543.91 32.0852 1543.24 32.0852C1542.77 32.0852 1542.36 32.1837 1541.99 32.3807C1541.63 32.5777 1541.34 32.8617 1541.13 33.233C1540.92 33.6004 1540.82 34.0379 1540.82 34.5455ZM1560.39 31.2727L1557.2 40H1556.12L1552.93 31.2727H1554.03L1556.62 38.6648H1556.7L1559.29 31.2727H1560.39ZM1567.91 36.6648V31.2727H1568.92V40H1567.91V38.5511H1567.83C1567.63 38.9981 1567.3 39.3712 1566.86 39.6705C1566.42 39.9659 1565.88 40.1136 1565.24 40.1136C1564.68 40.1136 1564.18 39.9924 1563.75 39.75C1563.32 39.5038 1562.98 39.1439 1562.74 38.6705C1562.49 38.197 1562.37 37.6155 1562.37 36.9261V31.2727H1563.38V36.8636C1563.38 37.5455 1563.58 38.0947 1563.98 38.5114C1564.38 38.9242 1564.9 39.1307 1565.53 39.1307C1565.92 39.1307 1566.3 39.036 1566.66 38.8466C1567.03 38.6572 1567.32 38.3807 1567.56 38.017C1567.79 37.6496 1567.91 37.1989 1567.91 36.6648ZM1565.65 42.7898C1565.45 42.7898 1565.27 42.7178 1565.12 42.5739C1564.97 42.4299 1564.89 42.2595 1564.89 42.0625C1564.89 41.8617 1564.97 41.6894 1565.12 41.5455C1565.27 41.4053 1565.45 41.3352 1565.65 41.3352C1565.86 41.3352 1566.04 41.4053 1566.18 41.5455C1566.34 41.6894 1566.41 41.8617 1566.41 42.0625C1566.41 42.2595 1566.34 42.4299 1566.18 42.5739C1566.04 42.7178 1565.86 42.7898 1565.65 42.7898ZM1579.24 40.1818C1578.53 40.1818 1577.9 39.9924 1577.36 39.6136C1576.82 39.2348 1576.4 38.7064 1576.1 38.0284C1575.8 37.3504 1575.65 36.5606 1575.65 35.6591C1575.65 34.7614 1575.8 33.9754 1576.1 33.3011C1576.4 32.6231 1576.83 32.0966 1577.37 31.7216C1577.91 31.3428 1578.54 31.1534 1579.26 31.1534C1579.79 31.1534 1580.23 31.2481 1580.58 31.4375C1580.94 31.6231 1581.22 31.8542 1581.43 32.1307C1581.64 32.4072 1581.81 32.6761 1581.92 32.9375H1582.02V28.3636H1583.03V40H1582.04V38.3807H1581.92C1581.81 38.6458 1581.64 38.9186 1581.42 39.1989C1581.21 39.4754 1580.92 39.7083 1580.57 39.8977C1580.21 40.0871 1579.77 40.1818 1579.24 40.1818ZM1579.36 39.2557C1579.93 39.2557 1580.41 39.1023 1580.81 38.7955C1581.2 38.4848 1581.51 38.0587 1581.71 37.517C1581.93 36.9716 1582.03 36.3466 1582.03 35.642C1582.03 34.9451 1581.93 34.3295 1581.72 33.7955C1581.51 33.2576 1581.21 32.8371 1580.81 32.5341C1580.41 32.2273 1579.93 32.0739 1579.36 32.0739C1578.78 32.0739 1578.29 32.233 1577.88 32.5511C1577.49 32.8655 1577.18 33.2917 1576.98 33.8295C1576.77 34.3674 1576.67 34.9716 1576.67 35.642C1576.67 36.3201 1576.77 36.9318 1576.98 37.4773C1577.19 38.0227 1577.49 38.4564 1577.89 38.7784C1578.29 39.0966 1578.78 39.2557 1579.36 39.2557ZM1588.35 40.1989C1587.82 40.1989 1587.34 40.0966 1586.91 39.892C1586.47 39.6837 1586.13 39.3845 1585.87 38.9943C1585.61 38.6004 1585.48 38.1231 1585.48 37.5625C1585.48 37.1307 1585.56 36.767 1585.73 36.4716C1585.89 36.1761 1586.12 35.9337 1586.42 35.7443C1586.72 35.5549 1587.07 35.4053 1587.48 35.2955C1587.89 35.1856 1588.34 35.1004 1588.83 35.0398C1589.32 34.9792 1589.74 34.9261 1590.07 34.8807C1590.41 34.8352 1590.67 34.7633 1590.85 34.6648C1591.03 34.5663 1591.12 34.4072 1591.12 34.1875V33.983C1591.12 33.3883 1590.94 32.9205 1590.58 32.5795C1590.23 32.2348 1589.72 32.0625 1589.06 32.0625C1588.43 32.0625 1587.92 32.2008 1587.52 32.4773C1587.13 32.7538 1586.85 33.0795 1586.69 33.4545L1585.73 33.108C1585.93 32.6307 1586.2 32.25 1586.55 31.9659C1586.9 31.678 1587.29 31.4716 1587.72 31.3466C1588.15 31.2178 1588.59 31.1534 1589.03 31.1534C1589.37 31.1534 1589.71 31.197 1590.07 31.2841C1590.44 31.3712 1590.77 31.5227 1591.08 31.7386C1591.39 31.9508 1591.65 32.2481 1591.84 32.6307C1592.03 33.0095 1592.13 33.4905 1592.13 34.0739V40H1591.12V38.6193H1591.06C1590.93 38.8769 1590.75 39.1269 1590.52 39.3693C1590.28 39.6117 1589.98 39.8106 1589.62 39.9659C1589.26 40.1212 1588.84 40.1989 1588.35 40.1989ZM1588.49 39.2727C1589.03 39.2727 1589.49 39.1534 1589.88 38.9148C1590.28 38.6761 1590.58 38.3598 1590.79 37.9659C1591.01 37.5682 1591.12 37.1307 1591.12 36.6534V35.392C1591.04 35.464 1590.92 35.5284 1590.74 35.5852C1590.56 35.642 1590.36 35.6932 1590.13 35.7386C1589.9 35.7803 1589.67 35.8163 1589.45 35.8466C1589.22 35.8769 1589.02 35.9034 1588.83 35.9261C1588.34 35.9867 1587.92 36.0814 1587.57 36.2102C1587.22 36.339 1586.96 36.517 1586.77 36.7443C1586.59 36.9678 1586.49 37.2557 1586.49 37.608C1586.49 38.1383 1586.68 38.5492 1587.06 38.8409C1587.44 39.1288 1587.92 39.2727 1588.49 39.2727ZM1589.44 28.5114L1591.75 30.5114H1590.65L1589.07 29.125L1587.48 30.5114H1586.38L1588.69 28.5114H1589.44ZM1590.61 26.5625L1591.15 26.6989C1591.13 27.0284 1591 27.3144 1590.75 27.5568C1590.5 27.7992 1590.2 27.9205 1589.86 27.9205C1589.66 27.9205 1589.49 27.8864 1589.35 27.8182C1589.21 27.75 1589.09 27.6723 1588.98 27.5852C1588.87 27.4943 1588.75 27.4148 1588.63 27.3466C1588.52 27.2784 1588.38 27.2443 1588.23 27.2443C1588.05 27.2443 1587.89 27.3106 1587.73 27.4432C1587.58 27.572 1587.5 27.7311 1587.48 27.9205L1586.95 27.7955C1586.97 27.4659 1587.1 27.178 1587.35 26.9318C1587.59 26.6856 1587.88 26.5625 1588.22 26.5625C1588.39 26.5625 1588.55 26.5966 1588.69 26.6648C1588.82 26.7292 1588.95 26.8049 1589.07 26.892C1589.19 26.9754 1589.31 27.0511 1589.44 27.1193C1589.56 27.1875 1589.71 27.2216 1589.86 27.2216C1590.04 27.2216 1590.2 27.1591 1590.35 27.0341C1590.51 26.9053 1590.59 26.7481 1590.61 26.5625ZM1595.83 34.5455V40H1594.82V31.2727H1595.8V32.642H1595.89C1596.1 32.1951 1596.42 31.8371 1596.85 31.5682C1597.28 31.2955 1597.82 31.1591 1598.46 31.1591C1599.05 31.1591 1599.56 31.2822 1600.01 31.5284C1600.45 31.7708 1600.8 32.1288 1601.05 32.6023C1601.3 33.0758 1601.42 33.6572 1601.42 34.3466V40H1600.41V34.4091C1600.41 33.6932 1600.21 33.1269 1599.81 32.7102C1599.41 32.2936 1598.88 32.0852 1598.21 32.0852C1597.75 32.0852 1597.34 32.1837 1596.98 32.3807C1596.63 32.5777 1596.35 32.8617 1596.14 33.233C1595.93 33.6004 1595.83 34.0379 1595.83 34.5455ZM1611.73 40.1818C1611.01 40.1818 1610.38 39.9924 1609.85 39.6136C1609.31 39.2348 1608.89 38.7064 1608.59 38.0284C1608.29 37.3504 1608.14 36.5606 1608.14 35.6591C1608.14 34.7614 1608.29 33.9754 1608.59 33.3011C1608.89 32.6231 1609.31 32.0966 1609.85 31.7216C1610.39 31.3428 1611.02 31.1534 1611.74 31.1534C1612.27 31.1534 1612.72 31.2481 1613.07 31.4375C1613.42 31.6231 1613.7 31.8542 1613.91 32.1307C1614.13 32.4072 1614.29 32.6761 1614.41 32.9375H1614.5V28.3636H1615.52V40H1614.53V38.3807H1614.41C1614.29 38.6458 1614.13 38.9186 1613.91 39.1989C1613.69 39.4754 1613.41 39.7083 1613.05 39.8977C1612.7 40.0871 1612.26 40.1818 1611.73 40.1818ZM1611.85 39.2557C1612.41 39.2557 1612.89 39.1023 1613.29 38.7955C1613.69 38.4848 1613.99 38.0587 1614.2 37.517C1614.41 36.9716 1614.52 36.3466 1614.52 35.642C1614.52 34.9451 1614.41 34.3295 1614.2 33.7955C1614 33.2576 1613.69 32.8371 1613.3 32.5341C1612.9 32.2273 1612.41 32.0739 1611.85 32.0739C1611.26 32.0739 1610.77 32.233 1610.37 32.5511C1609.97 32.8655 1609.67 33.2917 1609.46 33.8295C1609.26 34.3674 1609.15 34.9716 1609.15 35.642C1609.15 36.3201 1609.26 36.9318 1609.47 37.4773C1609.67 38.0227 1609.98 38.4564 1610.38 38.7784C1610.78 39.0966 1611.27 39.2557 1611.85 39.2557ZM1612.09 30.4091V29.5909H1616.86V30.4091H1612.09ZM1620.84 40.1989C1620.31 40.1989 1619.83 40.0966 1619.39 39.892C1618.96 39.6837 1618.61 39.3845 1618.35 38.9943C1618.09 38.6004 1617.97 38.1231 1617.97 37.5625C1617.97 37.1307 1618.05 36.767 1618.21 36.4716C1618.37 36.1761 1618.6 35.9337 1618.9 35.7443C1619.2 35.5549 1619.56 35.4053 1619.97 35.2955C1620.38 35.1856 1620.83 35.1004 1621.32 35.0398C1621.81 34.9792 1622.22 34.9261 1622.56 34.8807C1622.9 34.8352 1623.16 34.7633 1623.34 34.6648C1623.51 34.5663 1623.6 34.4072 1623.6 34.1875V33.983C1623.6 33.3883 1623.42 32.9205 1623.07 32.5795C1622.72 32.2348 1622.21 32.0625 1621.55 32.0625C1620.92 32.0625 1620.4 32.2008 1620.01 32.4773C1619.61 32.7538 1619.34 33.0795 1619.18 33.4545L1618.22 33.108C1618.41 32.6307 1618.69 32.25 1619.03 31.9659C1619.38 31.678 1619.77 31.4716 1620.2 31.3466C1620.64 31.2178 1621.07 31.1534 1621.52 31.1534C1621.85 31.1534 1622.2 31.197 1622.56 31.2841C1622.92 31.3712 1623.26 31.5227 1623.57 31.7386C1623.88 31.9508 1624.13 32.2481 1624.32 32.6307C1624.52 33.0095 1624.61 33.4905 1624.61 34.0739V40H1623.6V38.6193H1623.54C1623.42 38.8769 1623.24 39.1269 1623 39.3693C1622.76 39.6117 1622.46 39.8106 1622.1 39.9659C1621.74 40.1212 1621.32 40.1989 1620.84 40.1989ZM1620.97 39.2727C1621.51 39.2727 1621.98 39.1534 1622.37 38.9148C1622.76 38.6761 1623.07 38.3598 1623.28 37.9659C1623.49 37.5682 1623.6 37.1307 1623.6 36.6534V35.392C1623.53 35.464 1623.4 35.5284 1623.22 35.5852C1623.05 35.642 1622.84 35.6932 1622.61 35.7386C1622.39 35.7803 1622.16 35.8163 1621.93 35.8466C1621.7 35.8769 1621.5 35.9034 1621.32 35.9261C1620.83 35.9867 1620.41 36.0814 1620.06 36.2102C1619.71 36.339 1619.44 36.517 1619.26 36.7443C1619.07 36.9678 1618.98 37.2557 1618.98 37.608C1618.98 38.1383 1619.17 38.5492 1619.55 38.8409C1619.92 39.1288 1620.4 39.2727 1620.97 39.2727ZM1622.04 27.9261L1624.3 30.0284H1623.05L1621.61 28.642L1620.18 30.0284H1618.93L1621.18 27.9261H1622.04ZM1618.26 26.5909L1619.4 28.6364H1618.51L1616.98 26.5909H1618.26ZM1632.85 36.6648V31.2727H1633.86V40H1632.85V38.5511H1632.77C1632.57 38.9981 1632.24 39.3712 1631.8 39.6705C1631.36 39.9659 1630.81 40.1136 1630.17 40.1136C1629.62 40.1136 1629.12 39.9924 1628.69 39.75C1628.26 39.5038 1627.92 39.1439 1627.67 38.6705C1627.43 38.197 1627.3 37.6155 1627.3 36.9261V31.2727H1628.32V36.8636C1628.32 37.5455 1628.52 38.0947 1628.92 38.5114C1629.32 38.9242 1629.83 39.1307 1630.46 39.1307C1630.86 39.1307 1631.24 39.036 1631.6 38.8466C1631.96 38.6572 1632.26 38.3807 1632.5 38.017C1632.73 37.6496 1632.85 37.1989 1632.85 36.6648Z" fill="white"/>
<path d="M1239.67 35C1239.67 37.9455 1242.05 40.3333 1245 40.3333C1247.95 40.3333 1250.33 37.9455 1250.33 35C1250.33 32.0545 1247.95 29.6667 1245 29.6667C1242.05 29.6667 1239.67 32.0545 1239.67 35ZM1222 36H1245V34H1222V36Z" fill="url(#paint1_linear_2014_702)"/>
<circle cx="1190" cy="35" r="35" fill="url(#paint2_linear_2014_702)"/>
<circle cx="1190" cy="35" r="27" fill="white"/>
<path d="M1184.16 44.36C1182.15 44.36 1180.4 43.976 1178.93 43.208C1177.47 42.424 1176.35 41.328 1175.55 39.92C1174.75 38.512 1174.35 36.872 1174.35 35C1174.35 33.128 1174.75 31.488 1175.55 30.08C1176.35 28.672 1177.47 27.584 1178.93 26.816C1180.4 26.032 1182.15 25.64 1184.16 25.64C1186.16 25.64 1187.89 26.032 1189.35 26.816C1190.82 27.584 1191.95 28.672 1192.75 30.08C1193.55 31.488 1193.95 33.128 1193.95 35C1193.95 36.872 1193.55 38.512 1192.75 39.92C1191.95 41.328 1190.82 42.424 1189.35 43.208C1187.89 43.976 1186.16 44.36 1184.16 44.36ZM1184.16 41.048C1185.97 41.048 1187.37 40.52 1188.36 39.464C1189.37 38.392 1189.87 36.904 1189.87 35C1189.87 33.08 1189.37 31.592 1188.36 30.536C1187.37 29.48 1185.97 28.952 1184.16 28.952C1182.35 28.952 1180.95 29.48 1179.94 30.536C1178.93 31.592 1178.43 33.08 1178.43 35C1178.43 36.92 1178.93 38.408 1179.94 39.464C1180.95 40.52 1182.35 41.048 1184.16 41.048ZM1204.81 26V44H1200.78V27.344L1202.8 29.168L1195.14 30.512V27.344L1201.81 26H1204.81Z" fill="#000C74"/>
<defs>
<linearGradient id="paint0_linear_2014_702" x1="1245" y1="34.5" x2="1682" y2="34.5" gradientUnits="userSpaceOnUse">
<stop stop-color="#00A93C"/>
<stop offset="1" stop-color="#24CBFF"/>
</linearGradient>
<linearGradient id="paint1_linear_2014_702" x1="1222" y1="35.5" x2="1245" y2="35.5" gradientUnits="userSpaceOnUse">
<stop stop-color="#00A93C"/>
<stop offset="1" stop-color="#24CBFF"/>
</linearGradient>
<linearGradient id="paint2_linear_2014_702" x1="1155" y1="35" x2="1225" y2="35" gradientUnits="userSpaceOnUse">
<stop stop-color="#00A93C"/>
<stop offset="1" stop-color="#000C74"/>
</linearGradient>
</defs>
</svg>
