<svg width="100%" viewBox="0 0 1920 70" fill="none" xmlns="http://www.w3.org/2000/svg">
<rect x="1297.5" y="5.5" width="425" height="58" rx="19.5" stroke="url(#paint0_linear_2014_703)"/>
<path d="M1316.59 40V28.3636H1318.69V33.2898H1324.09V28.3636H1326.2V40H1324.09V35.0568H1318.69V40H1316.59ZM1338.45 27.7045H1339.94C1339.94 28.7803 1339.69 29.6155 1339.2 30.2102C1338.71 30.8049 1337.95 31.1023 1336.92 31.1023V29.8977C1337.48 29.8977 1337.88 29.7045 1338.11 29.3182C1338.34 28.9318 1338.45 28.3939 1338.45 27.7045ZM1338.89 34.1818C1338.89 35.4356 1338.65 36.5095 1338.18 37.4034C1337.72 38.2936 1337.08 38.9754 1336.28 39.4489C1335.47 39.9223 1334.56 40.1591 1333.54 40.1591C1332.52 40.1591 1331.61 39.9223 1330.8 39.4489C1330 38.9716 1329.36 38.2879 1328.89 37.3977C1328.43 36.5038 1328.2 35.4318 1328.2 34.1818C1328.2 32.928 1328.43 31.8561 1328.89 30.9659C1329.36 30.072 1330 29.3883 1330.8 28.9148C1331.61 28.4413 1332.52 28.2045 1333.54 28.2045C1334.56 28.2045 1335.47 28.4413 1336.28 28.9148C1337.08 29.3883 1337.72 30.072 1338.18 30.9659C1338.65 31.8561 1338.89 32.928 1338.89 34.1818ZM1336.77 34.1818C1336.77 33.2992 1336.63 32.5549 1336.36 31.9489C1336.08 31.339 1335.7 30.8788 1335.22 30.5682C1334.73 30.2538 1334.18 30.0966 1333.54 30.0966C1332.91 30.0966 1332.35 30.2538 1331.87 30.5682C1331.38 30.8788 1331 31.339 1330.72 31.9489C1330.45 32.5549 1330.32 33.2992 1330.32 34.1818C1330.32 35.0644 1330.45 35.8106 1330.72 36.4205C1331 37.0265 1331.38 37.4867 1331.87 37.8011C1332.35 38.1117 1332.91 38.267 1333.54 38.267C1334.18 38.267 1334.73 38.1117 1335.22 37.8011C1335.7 37.4867 1336.08 37.0265 1336.36 36.4205C1336.63 35.8106 1336.77 35.0644 1336.77 34.1818ZM1333.55 43.142C1333.22 43.142 1332.94 43.0322 1332.7 42.8125C1332.47 42.5928 1332.36 42.3295 1332.36 42.0227C1332.36 41.7159 1332.47 41.4527 1332.7 41.233C1332.94 41.0133 1333.22 40.9034 1333.54 40.9034C1333.87 40.9034 1334.15 41.0133 1334.38 41.233C1334.62 41.4527 1334.74 41.7159 1334.74 42.0227C1334.74 42.3295 1334.62 42.5928 1334.38 42.8125C1334.15 43.0322 1333.87 43.142 1333.55 43.142ZM1341.3 40V28.3636H1345.67C1346.56 28.3636 1347.31 28.5303 1347.92 28.8636C1348.53 29.197 1348.99 29.6553 1349.3 30.2386C1349.61 30.8182 1349.77 31.4773 1349.77 32.2159C1349.77 32.9621 1349.61 33.625 1349.3 34.2045C1348.98 34.7841 1348.52 35.2405 1347.91 35.5739C1347.29 35.9034 1346.54 36.0682 1345.64 36.0682H1342.75V34.3352H1345.36C1345.88 34.3352 1346.31 34.2443 1346.64 34.0625C1346.97 33.8807 1347.22 33.6307 1347.38 33.3125C1347.54 32.9943 1347.62 32.6288 1347.62 32.2159C1347.62 31.803 1347.54 31.4394 1347.38 31.125C1347.22 30.8106 1346.97 30.5663 1346.63 30.392C1346.3 30.214 1345.87 30.125 1345.34 30.125H1343.41V40H1341.3ZM1355.06 30.1307V28.3636H1364.34V30.1307H1360.75V40H1358.65V30.1307H1355.06ZM1366.22 40H1363.97L1368.07 28.3636H1370.67L1374.77 40H1372.52L1369.41 30.75H1369.32L1366.22 40ZM1366.29 35.4375H1372.43V37.1307H1366.29V35.4375ZM1368.58 27.2159L1369.85 24.6193H1371.86L1370.12 27.2159H1368.58ZM1385.72 32.2898H1383.59C1383.53 31.9413 1383.42 31.6326 1383.26 31.3636C1383.09 31.0909 1382.89 30.8598 1382.65 30.6705C1382.41 30.4811 1382.13 30.339 1381.82 30.2443C1381.51 30.1458 1381.18 30.0966 1380.83 30.0966C1380.19 30.0966 1379.63 30.2557 1379.14 30.5739C1378.65 30.8883 1378.27 31.3504 1378 31.9602C1377.72 32.5663 1377.58 33.3068 1377.58 34.1818C1377.58 35.072 1377.72 35.822 1378 36.4318C1378.28 37.0379 1378.66 37.4962 1379.14 37.8068C1379.63 38.1136 1380.19 38.267 1380.82 38.267C1381.17 38.267 1381.49 38.2216 1381.8 38.1307C1382.1 38.036 1382.38 37.8977 1382.62 37.7159C1382.87 37.5341 1383.07 37.3106 1383.24 37.0455C1383.41 36.7803 1383.53 36.4773 1383.59 36.1364L1385.72 36.1477C1385.64 36.7008 1385.47 37.2197 1385.2 37.7045C1384.94 38.1894 1384.6 38.6174 1384.17 38.9886C1383.75 39.3561 1383.25 39.6439 1382.68 39.8523C1382.12 40.0568 1381.48 40.1591 1380.79 40.1591C1379.77 40.1591 1378.86 39.9223 1378.05 39.4489C1377.25 38.9754 1376.62 38.2917 1376.15 37.3977C1375.69 36.5038 1375.46 35.4318 1375.46 34.1818C1375.46 32.928 1375.69 31.8561 1376.16 30.9659C1376.63 30.072 1377.26 29.3883 1378.06 28.9148C1378.87 28.4413 1379.78 28.2045 1380.79 28.2045C1381.44 28.2045 1382.04 28.2955 1382.6 28.4773C1383.15 28.6591 1383.65 28.9261 1384.09 29.2784C1384.52 29.6269 1384.88 30.0549 1385.16 30.5625C1385.44 31.0663 1385.63 31.642 1385.72 32.2898ZM1396.78 33.7045V34.6591H1391.94V33.7045H1396.78ZM1413.09 28.3636V40H1412.06L1405.18 30.2557H1405.09V40H1404.03V28.3636H1405.06L1411.96 38.1193H1412.05V28.3636H1413.09ZM1419.31 43.4545C1418.71 43.4545 1418.19 43.3769 1417.74 43.2216C1417.3 43.0701 1416.92 42.8617 1416.61 42.5966C1416.31 42.3314 1416.07 42.0341 1415.9 41.7045L1416.73 41.1591C1416.85 41.3788 1417.02 41.5947 1417.23 41.8068C1417.44 42.0189 1417.71 42.1951 1418.05 42.3352C1418.39 42.4754 1418.81 42.5455 1419.31 42.5455C1420.08 42.5455 1420.7 42.3523 1421.17 41.9659C1421.65 41.5795 1421.89 40.9792 1421.89 40.1648V38.1989H1421.8C1421.68 38.464 1421.51 38.7292 1421.29 38.9943C1421.07 39.2557 1420.79 39.4735 1420.43 39.6477C1420.08 39.822 1419.64 39.9091 1419.12 39.9091C1418.42 39.9091 1417.8 39.7367 1417.26 39.392C1416.72 39.0473 1416.3 38.5549 1415.99 37.9148C1415.68 37.2708 1415.53 36.5038 1415.53 35.6136C1415.53 34.7311 1415.68 33.9545 1415.98 33.2841C1416.28 32.6136 1416.7 32.0909 1417.24 31.7159C1417.78 31.3409 1418.42 31.1534 1419.13 31.1534C1419.67 31.1534 1420.11 31.2481 1420.46 31.4375C1420.82 31.6231 1421.1 31.8542 1421.31 32.1307C1421.53 32.4072 1421.7 32.6761 1421.82 32.9375H1421.92V31.2727H1422.91V40.2273C1422.91 40.9659 1422.75 41.5739 1422.44 42.0511C1422.12 42.5284 1421.69 42.8807 1421.15 43.108C1420.61 43.339 1419.99 43.4545 1419.31 43.4545ZM1419.24 38.983C1419.8 38.983 1420.28 38.8485 1420.67 38.5795C1421.07 38.3068 1421.38 37.9167 1421.59 37.4091C1421.8 36.9015 1421.91 36.2973 1421.91 35.5966C1421.91 34.9148 1421.8 34.3106 1421.6 33.7841C1421.39 33.2538 1421.08 32.8371 1420.69 32.5341C1420.29 32.2273 1419.81 32.0739 1419.24 32.0739C1418.65 32.0739 1418.16 32.2311 1417.76 32.5455C1417.36 32.8598 1417.06 33.2841 1416.85 33.8182C1416.65 34.3485 1416.54 34.9413 1416.54 35.5966C1416.54 36.2633 1416.65 36.8523 1416.86 37.3636C1417.06 37.8712 1417.37 38.2689 1417.77 38.5568C1418.17 38.8409 1418.66 38.983 1419.24 38.983ZM1431.13 36.6648V31.2727H1432.14V40H1431.13V38.5511H1431.05C1430.85 38.9981 1430.52 39.3712 1430.08 39.6705C1429.64 39.9659 1429.09 40.1136 1428.45 40.1136C1427.9 40.1136 1427.4 39.9924 1426.97 39.75C1426.54 39.5038 1426.2 39.1439 1425.95 38.6705C1425.71 38.197 1425.59 37.6155 1425.59 36.9261V31.2727H1426.6V36.8636C1426.6 37.5455 1426.8 38.0947 1427.2 38.5114C1427.6 38.9242 1428.12 39.1307 1428.74 39.1307C1429.14 39.1307 1429.52 39.036 1429.88 38.8466C1430.24 38.6572 1430.54 38.3807 1430.78 38.017C1431.01 37.6496 1431.13 37.1989 1431.13 36.6648ZM1435.52 43.2727C1435.32 43.2727 1435.14 43.2538 1434.96 43.2159C1434.79 43.178 1434.65 43.1364 1434.55 43.0909L1434.82 42.1989C1435.16 42.3049 1435.47 42.3428 1435.74 42.3125C1436.01 42.286 1436.25 42.1648 1436.46 41.9489C1436.66 41.7367 1436.85 41.411 1437.01 40.9716L1437.33 40.0852L1434.12 31.2727H1435.22L1437.81 38.6648H1437.89L1440.48 31.2727H1441.58L1437.88 41.3807C1437.73 41.8011 1437.54 42.1515 1437.31 42.4318C1437.08 42.7159 1436.82 42.9261 1436.52 43.0625C1436.22 43.2027 1435.89 43.2727 1435.52 43.2727ZM1446.77 40.1818C1445.96 40.1818 1445.25 39.9924 1444.66 39.6136C1444.06 39.2311 1443.6 38.7027 1443.28 38.0284C1442.95 37.3504 1442.79 36.5701 1442.79 35.6875C1442.79 34.8087 1442.95 34.0284 1443.28 33.3466C1443.6 32.661 1444.05 32.125 1444.62 31.7386C1445.2 31.3485 1445.86 31.1534 1446.62 31.1534C1447.09 31.1534 1447.55 31.2405 1447.99 31.4148C1448.43 31.5852 1448.82 31.8485 1449.17 32.2045C1449.52 32.5568 1449.8 33.0019 1450 33.5398C1450.21 34.0739 1450.31 34.7064 1450.31 35.4375V35.9375H1443.49V35.0455H1449.28C1449.28 34.4848 1449.16 33.9811 1448.93 33.5341C1448.71 33.0833 1448.4 32.7273 1448 32.4659C1447.6 32.2045 1447.14 32.0739 1446.62 32.0739C1446.06 32.0739 1445.58 32.2216 1445.16 32.517C1444.74 32.8125 1444.41 33.2027 1444.17 33.6875C1443.93 34.1723 1443.81 34.7027 1443.81 35.2784V35.8125C1443.81 36.5057 1443.93 37.1117 1444.17 37.6307C1444.41 38.1458 1444.75 38.5455 1445.2 38.8295C1445.64 39.1136 1446.16 39.2557 1446.77 39.2557C1447.18 39.2557 1447.54 39.1913 1447.86 39.0625C1448.17 38.9337 1448.43 38.7614 1448.64 38.5455C1448.86 38.3258 1449.02 38.0852 1449.13 37.8239L1450.09 38.1364C1449.96 38.5038 1449.74 38.8428 1449.44 39.1534C1449.14 39.464 1448.77 39.714 1448.32 39.9034C1447.87 40.089 1447.35 40.1818 1446.77 40.1818ZM1447.92 30.2727L1446.57 28.6307L1445.21 30.2727H1444.22V30.1989L1446.14 27.9091H1446.99L1448.91 30.1989V30.2727H1447.92ZM1453.55 34.5455V40H1452.54V31.2727H1453.52V32.642H1453.61C1453.82 32.1951 1454.13 31.8371 1454.57 31.5682C1455 31.2955 1455.54 31.1591 1456.18 31.1591C1456.77 31.1591 1457.28 31.2822 1457.73 31.5284C1458.17 31.7708 1458.52 32.1288 1458.77 32.6023C1459.02 33.0758 1459.14 33.6572 1459.14 34.3466V40H1458.13V34.4091C1458.13 33.6932 1457.93 33.1269 1457.53 32.7102C1457.13 32.2936 1456.6 32.0852 1455.92 32.0852C1455.47 32.0852 1455.06 32.1837 1454.7 32.3807C1454.35 32.5777 1454.06 32.8617 1453.86 33.233C1453.65 33.6004 1453.55 34.0379 1453.55 34.5455ZM1467.32 34.5455V40H1466.3V31.2727H1467.29V32.642H1467.38C1467.58 32.1951 1467.9 31.8371 1468.33 31.5682C1468.77 31.2955 1469.31 31.1591 1469.95 31.1591C1470.53 31.1591 1471.05 31.2822 1471.49 31.5284C1471.94 31.7708 1472.29 32.1288 1472.53 32.6023C1472.78 33.0758 1472.91 33.6572 1472.91 34.3466V40H1471.89V34.4091C1471.89 33.6932 1471.69 33.1269 1471.29 32.7102C1470.89 32.2936 1470.36 32.0852 1469.69 32.0852C1469.23 32.0852 1468.82 32.1837 1468.47 32.3807C1468.11 32.5777 1467.83 32.8617 1467.62 33.233C1467.42 33.6004 1467.32 34.0379 1467.32 34.5455ZM1476.58 34.5455V40H1475.57V28.3636H1476.58V32.642H1476.67C1476.88 32.1913 1477.19 31.8314 1477.62 31.5625C1478.05 31.2936 1478.6 31.1591 1479.26 31.1591C1479.85 31.1591 1480.37 31.2803 1480.81 31.5227C1481.26 31.7652 1481.61 32.1231 1481.86 32.5966C1482.11 33.0701 1482.23 33.6534 1482.23 34.3466V40H1481.22V34.4091C1481.22 33.6894 1481.02 33.1231 1480.62 32.7102C1480.22 32.2936 1479.68 32.0852 1479 32.0852C1478.54 32.0852 1478.12 32.1837 1477.76 32.3807C1477.39 32.5777 1477.11 32.8617 1476.89 33.233C1476.69 33.6004 1476.58 34.0379 1476.58 34.5455ZM1487.34 40.1989C1486.81 40.1989 1486.33 40.0966 1485.89 39.892C1485.46 39.6837 1485.11 39.3845 1484.85 38.9943C1484.59 38.6004 1484.47 38.1231 1484.47 37.5625C1484.47 37.1307 1484.55 36.767 1484.71 36.4716C1484.87 36.1761 1485.1 35.9337 1485.4 35.7443C1485.7 35.5549 1486.06 35.4053 1486.47 35.2955C1486.88 35.1856 1487.33 35.1004 1487.82 35.0398C1488.31 34.9792 1488.72 34.9261 1489.06 34.8807C1489.4 34.8352 1489.66 34.7633 1489.84 34.6648C1490.01 34.5663 1490.1 34.4072 1490.1 34.1875V33.983C1490.1 33.3883 1489.92 32.9205 1489.57 32.5795C1489.22 32.2348 1488.71 32.0625 1488.05 32.0625C1487.42 32.0625 1486.9 32.2008 1486.51 32.4773C1486.11 32.7538 1485.84 33.0795 1485.68 33.4545L1484.72 33.108C1484.91 32.6307 1485.19 32.25 1485.53 31.9659C1485.88 31.678 1486.27 31.4716 1486.7 31.3466C1487.14 31.2178 1487.57 31.1534 1488.02 31.1534C1488.35 31.1534 1488.7 31.197 1489.06 31.2841C1489.42 31.3712 1489.76 31.5227 1490.07 31.7386C1490.38 31.9508 1490.63 32.2481 1490.82 32.6307C1491.02 33.0095 1491.11 33.4905 1491.11 34.0739V40H1490.1V38.6193H1490.04C1489.92 38.8769 1489.74 39.1269 1489.5 39.3693C1489.26 39.6117 1488.96 39.8106 1488.6 39.9659C1488.24 40.1212 1487.82 40.1989 1487.34 40.1989ZM1487.47 39.2727C1488.01 39.2727 1488.48 39.1534 1488.87 38.9148C1489.26 38.6761 1489.57 38.3598 1489.78 37.9659C1489.99 37.5682 1490.1 37.1307 1490.1 36.6534V35.392C1490.03 35.464 1489.9 35.5284 1489.72 35.5852C1489.55 35.642 1489.34 35.6932 1489.11 35.7386C1488.89 35.7803 1488.66 35.8163 1488.43 35.8466C1488.2 35.8769 1488 35.9034 1487.82 35.9261C1487.33 35.9867 1486.91 36.0814 1486.56 36.2102C1486.21 36.339 1485.94 36.517 1485.76 36.7443C1485.57 36.9678 1485.48 37.2557 1485.48 37.608C1485.48 38.1383 1485.67 38.5492 1486.05 38.8409C1486.42 39.1288 1486.9 39.2727 1487.47 39.2727ZM1489.47 30.2727L1488.11 28.6307L1486.75 30.2727H1485.76V30.1989L1487.68 27.9091H1488.53L1490.45 30.1989V30.2727H1489.47ZM1494.82 34.5455V40H1493.8V31.2727H1494.79V32.642H1494.88C1495.08 32.1951 1495.4 31.8371 1495.83 31.5682C1496.27 31.2955 1496.81 31.1591 1497.45 31.1591C1498.03 31.1591 1498.55 31.2822 1498.99 31.5284C1499.44 31.7708 1499.79 32.1288 1500.03 32.6023C1500.28 33.0758 1500.41 33.6572 1500.41 34.3466V40H1499.39V34.4091C1499.39 33.6932 1499.19 33.1269 1498.79 32.7102C1498.39 32.2936 1497.86 32.0852 1497.19 32.0852C1496.73 32.0852 1496.32 32.1837 1495.97 32.3807C1495.61 32.5777 1495.33 32.8617 1495.12 33.233C1494.92 33.6004 1494.82 34.0379 1494.82 34.5455ZM1510.71 40.1818C1510 40.1818 1509.37 39.9924 1508.83 39.6136C1508.29 39.2348 1507.87 38.7064 1507.57 38.0284C1507.27 37.3504 1507.12 36.5606 1507.12 35.6591C1507.12 34.7614 1507.27 33.9754 1507.57 33.3011C1507.87 32.6231 1508.29 32.0966 1508.84 31.7216C1509.38 31.3428 1510.01 31.1534 1510.73 31.1534C1511.26 31.1534 1511.7 31.2481 1512.05 31.4375C1512.4 31.6231 1512.69 31.8542 1512.9 32.1307C1513.11 32.4072 1513.28 32.6761 1513.39 32.9375H1513.48V28.3636H1514.5V40H1513.51V38.3807H1513.39C1513.28 38.6458 1513.11 38.9186 1512.89 39.1989C1512.68 39.4754 1512.39 39.7083 1512.04 39.8977C1511.68 40.0871 1511.24 40.1818 1510.71 40.1818ZM1510.83 39.2557C1511.4 39.2557 1511.88 39.1023 1512.27 38.7955C1512.67 38.4848 1512.97 38.0587 1513.18 37.517C1513.4 36.9716 1513.5 36.3466 1513.5 35.642C1513.5 34.9451 1513.4 34.3295 1513.19 33.7955C1512.98 33.2576 1512.68 32.8371 1512.28 32.5341C1511.88 32.2273 1511.4 32.0739 1510.83 32.0739C1510.25 32.0739 1509.76 32.233 1509.35 32.5511C1508.96 32.8655 1508.65 33.2917 1508.44 33.8295C1508.24 34.3674 1508.14 34.9716 1508.14 35.642C1508.14 36.3201 1508.24 36.9318 1508.45 37.4773C1508.66 38.0227 1508.96 38.4564 1509.36 38.7784C1509.76 39.0966 1510.25 39.2557 1510.83 39.2557ZM1511.07 30.4091V29.5909H1515.84V30.4091H1511.07ZM1519.82 40.1989C1519.29 40.1989 1518.81 40.0966 1518.38 39.892C1517.94 39.6837 1517.59 39.3845 1517.34 38.9943C1517.08 38.6004 1516.95 38.1231 1516.95 37.5625C1516.95 37.1307 1517.03 36.767 1517.19 36.4716C1517.36 36.1761 1517.59 35.9337 1517.89 35.7443C1518.19 35.5549 1518.54 35.4053 1518.95 35.2955C1519.36 35.1856 1519.81 35.1004 1520.3 35.0398C1520.79 34.9792 1521.2 34.9261 1521.54 34.8807C1521.88 34.8352 1522.14 34.7633 1522.32 34.6648C1522.5 34.5663 1522.59 34.4072 1522.59 34.1875V33.983C1522.59 33.3883 1522.41 32.9205 1522.05 32.5795C1521.7 32.2348 1521.19 32.0625 1520.53 32.0625C1519.9 32.0625 1519.39 32.2008 1518.99 32.4773C1518.6 32.7538 1518.32 33.0795 1518.16 33.4545L1517.2 33.108C1517.4 32.6307 1517.67 32.25 1518.02 31.9659C1518.37 31.678 1518.76 31.4716 1519.19 31.3466C1519.62 31.2178 1520.06 31.1534 1520.5 31.1534C1520.83 31.1534 1521.18 31.197 1521.54 31.2841C1521.9 31.3712 1522.24 31.5227 1522.55 31.7386C1522.86 31.9508 1523.12 32.2481 1523.31 32.6307C1523.5 33.0095 1523.6 33.4905 1523.6 34.0739V40H1522.59V38.6193H1522.52C1522.4 38.8769 1522.22 39.1269 1521.98 39.3693C1521.75 39.6117 1521.45 39.8106 1521.09 39.9659C1520.73 40.1212 1520.3 40.1989 1519.82 40.1989ZM1519.96 39.2727C1520.49 39.2727 1520.96 39.1534 1521.35 38.9148C1521.75 38.6761 1522.05 38.3598 1522.26 37.9659C1522.48 37.5682 1522.59 37.1307 1522.59 36.6534V35.392C1522.51 35.464 1522.38 35.5284 1522.21 35.5852C1522.03 35.642 1521.83 35.6932 1521.6 35.7386C1521.37 35.7803 1521.14 35.8163 1520.92 35.8466C1520.69 35.8769 1520.48 35.9034 1520.3 35.9261C1519.81 35.9867 1519.39 36.0814 1519.04 36.2102C1518.69 36.339 1518.43 36.517 1518.24 36.7443C1518.05 36.9678 1517.96 37.2557 1517.96 37.608C1517.96 38.1383 1518.15 38.5492 1518.53 38.8409C1518.91 39.1288 1519.38 39.2727 1519.96 39.2727ZM1521.02 27.9261L1523.28 30.0284H1522.03L1520.6 28.642L1519.17 30.0284H1517.92L1520.16 27.9261H1521.02ZM1517.24 26.5909L1518.38 28.6364H1517.49L1515.97 26.5909H1517.24ZM1531.83 36.6648V31.2727H1532.85V40H1531.83V38.5511H1531.75C1531.55 38.9981 1531.23 39.3712 1530.78 39.6705C1530.34 39.9659 1529.8 40.1136 1529.16 40.1136C1528.6 40.1136 1528.11 39.9924 1527.67 39.75C1527.24 39.5038 1526.9 39.1439 1526.66 38.6705C1526.41 38.197 1526.29 37.6155 1526.29 36.9261V31.2727H1527.3V36.8636C1527.3 37.5455 1527.5 38.0947 1527.9 38.5114C1528.3 38.9242 1528.82 39.1307 1529.45 39.1307C1529.84 39.1307 1530.22 39.036 1530.58 38.8466C1530.95 38.6572 1531.25 38.3807 1531.48 38.017C1531.72 37.6496 1531.83 37.1989 1531.83 36.6648ZM1543.46 31.2727V32.1534H1539.3V31.2727H1543.46ZM1540.6 29.1818H1541.61V37.7216C1541.61 38.0852 1541.68 38.3712 1541.8 38.5795C1541.93 38.7841 1542.09 38.9299 1542.29 39.017C1542.49 39.1004 1542.7 39.142 1542.93 39.142C1543.06 39.142 1543.18 39.1345 1543.27 39.1193C1543.37 39.1004 1543.45 39.0814 1543.52 39.0625L1543.74 39.9773C1543.64 40.0152 1543.52 40.0492 1543.38 40.0795C1543.23 40.1136 1543.05 40.1307 1542.84 40.1307C1542.47 40.1307 1542.11 40.0492 1541.77 39.8864C1541.43 39.7235 1541.15 39.4811 1540.93 39.1591C1540.71 38.8371 1540.6 38.4375 1540.6 37.9602V29.1818ZM1545.77 40V31.2727H1546.79V40H1545.77ZM1546.29 29.7727C1546.08 29.7727 1545.9 29.7027 1545.75 29.5625C1545.6 29.4186 1545.53 29.2462 1545.53 29.0455C1545.53 28.8447 1545.6 28.6742 1545.75 28.5341C1545.9 28.3902 1546.08 28.3182 1546.29 28.3182C1546.49 28.3182 1546.67 28.3902 1546.82 28.5341C1546.97 28.6742 1547.04 28.8447 1547.04 29.0455C1547.04 29.2462 1546.97 29.4186 1546.82 29.5625C1546.67 29.7027 1546.49 29.7727 1546.29 29.7727ZM1552.99 40.1818C1552.17 40.1818 1551.47 39.9924 1550.88 39.6136C1550.28 39.2311 1549.82 38.7027 1549.49 38.0284C1549.17 37.3504 1549.01 36.5701 1549.01 35.6875C1549.01 34.8087 1549.17 34.0284 1549.49 33.3466C1549.82 32.661 1550.27 32.125 1550.84 31.7386C1551.42 31.3485 1552.08 31.1534 1552.84 31.1534C1553.31 31.1534 1553.77 31.2405 1554.2 31.4148C1554.64 31.5852 1555.04 31.8485 1555.39 32.2045C1555.74 32.5568 1556.02 33.0019 1556.22 33.5398C1556.43 34.0739 1556.53 34.7064 1556.53 35.4375V35.9375H1549.71V35.0455H1555.49C1555.49 34.4848 1555.38 33.9811 1555.15 33.5341C1554.93 33.0833 1554.62 32.7273 1554.22 32.4659C1553.82 32.2045 1553.36 32.0739 1552.84 32.0739C1552.28 32.0739 1551.8 32.2216 1551.38 32.517C1550.95 32.8125 1550.63 33.2027 1550.39 33.6875C1550.15 34.1723 1550.03 34.7027 1550.03 35.2784V35.8125C1550.03 36.5057 1550.15 37.1117 1550.39 37.6307C1550.63 38.1458 1550.97 38.5455 1551.41 38.8295C1551.86 39.1136 1552.38 39.2557 1552.99 39.2557C1553.4 39.2557 1553.76 39.1913 1554.07 39.0625C1554.39 38.9337 1554.65 38.7614 1554.86 38.5455C1555.08 38.3258 1555.24 38.0852 1555.35 37.8239L1556.31 38.1364C1556.18 38.5038 1555.96 38.8428 1555.66 39.1534C1555.36 39.464 1554.98 39.714 1554.53 39.9034C1554.09 40.089 1553.57 40.1818 1552.99 40.1818ZM1554.14 30.2727L1552.78 28.6307L1551.43 30.2727H1550.44V30.1989L1552.36 27.9091H1553.21L1555.13 30.1989V30.2727H1554.14ZM1559.77 34.5455V40H1558.76V31.2727H1559.74V32.642H1559.83C1560.04 32.1951 1560.35 31.8371 1560.79 31.5682C1561.22 31.2955 1561.76 31.1591 1562.4 31.1591C1562.99 31.1591 1563.5 31.2822 1563.94 31.5284C1564.39 31.7708 1564.74 32.1288 1564.98 32.6023C1565.23 33.0758 1565.36 33.6572 1565.36 34.3466V40H1564.35V34.4091C1564.35 33.6932 1564.15 33.1269 1563.75 32.7102C1563.35 32.2936 1562.81 32.0852 1562.14 32.0852C1561.69 32.0852 1561.28 32.1837 1560.92 32.3807C1560.57 32.5777 1560.28 32.8617 1560.08 33.233C1559.87 33.6004 1559.77 34.0379 1559.77 34.5455ZM1575.93 40.1818C1575.15 40.1818 1574.47 39.9867 1573.89 39.5966C1573.32 39.2064 1572.87 38.6723 1572.55 37.9943C1572.23 37.3163 1572.07 36.5436 1572.07 35.6761C1572.07 34.8011 1572.23 34.0227 1572.56 33.3409C1572.88 32.6591 1573.33 32.125 1573.91 31.7386C1574.48 31.3485 1575.15 31.1534 1575.91 31.1534C1576.5 31.1534 1577.03 31.267 1577.5 31.4943C1577.97 31.7178 1578.36 32.0341 1578.67 32.4432C1578.98 32.8485 1579.18 33.322 1579.26 33.8636H1578.23C1578.13 33.3712 1577.87 32.9508 1577.47 32.6023C1577.06 32.25 1576.55 32.0739 1575.93 32.0739C1575.38 32.0739 1574.88 32.2254 1574.45 32.5284C1574.03 32.8277 1573.69 33.2462 1573.45 33.7841C1573.21 34.3182 1573.09 34.9375 1573.09 35.642C1573.09 36.3504 1573.21 36.9773 1573.44 37.5227C1573.68 38.0644 1574.01 38.4886 1574.43 38.7955C1574.86 39.1023 1575.36 39.2557 1575.93 39.2557C1576.32 39.2557 1576.67 39.1837 1576.99 39.0398C1577.31 38.892 1577.58 38.6837 1577.8 38.4148C1578.02 38.1458 1578.16 37.8258 1578.24 37.4545H1579.26C1579.19 37.9811 1579 38.4508 1578.7 38.8636C1578.4 39.2727 1578.02 39.5947 1577.55 39.8295C1577.08 40.0644 1576.54 40.1818 1575.93 40.1818ZM1586.97 36.6648V31.2727H1587.99V40H1586.97V38.5511H1586.89C1586.69 38.9981 1586.37 39.3712 1585.92 39.6705C1585.48 39.9659 1584.94 40.1136 1584.3 40.1136C1583.74 40.1136 1583.25 39.9924 1582.82 39.75C1582.38 39.5038 1582.04 39.1439 1581.8 38.6705C1581.55 38.197 1581.43 37.6155 1581.43 36.9261V31.2727H1582.44V36.8636C1582.44 37.5455 1582.64 38.0947 1583.04 38.5114C1583.44 38.9242 1583.96 39.1307 1584.59 39.1307C1584.98 39.1307 1585.36 39.036 1585.72 38.8466C1586.09 38.6572 1586.39 38.3807 1586.62 38.017C1586.86 37.6496 1586.97 37.1989 1586.97 36.6648ZM1585.16 30.1136H1584.3V28.9261C1584.71 28.9034 1585 28.8409 1585.17 28.7386C1585.33 28.6364 1585.42 28.4754 1585.42 28.2557C1585.42 28.0057 1585.3 27.8239 1585.07 27.7102C1584.83 27.5928 1584.53 27.5322 1584.14 27.5284L1584.19 26.8352C1584.91 26.8352 1585.44 26.9659 1585.8 27.2273C1586.17 27.4886 1586.35 27.8371 1586.35 28.2727C1586.35 28.6515 1586.23 28.9375 1585.99 29.1307C1585.76 29.3201 1585.48 29.4337 1585.16 29.4716V30.1136ZM1593.1 40.1989C1592.57 40.1989 1592.09 40.0966 1591.66 39.892C1591.22 39.6837 1590.88 39.3845 1590.62 38.9943C1590.36 38.6004 1590.23 38.1231 1590.23 37.5625C1590.23 37.1307 1590.31 36.767 1590.48 36.4716C1590.64 36.1761 1590.87 35.9337 1591.17 35.7443C1591.47 35.5549 1591.82 35.4053 1592.23 35.2955C1592.64 35.1856 1593.09 35.1004 1593.58 35.0398C1594.07 34.9792 1594.49 34.9261 1594.82 34.8807C1595.16 34.8352 1595.42 34.7633 1595.6 34.6648C1595.78 34.5663 1595.87 34.4072 1595.87 34.1875V33.983C1595.87 33.3883 1595.69 32.9205 1595.33 32.5795C1594.98 32.2348 1594.47 32.0625 1593.81 32.0625C1593.18 32.0625 1592.67 32.2008 1592.27 32.4773C1591.88 32.7538 1591.6 33.0795 1591.44 33.4545L1590.48 33.108C1590.68 32.6307 1590.95 32.25 1591.3 31.9659C1591.65 31.678 1592.04 31.4716 1592.47 31.3466C1592.9 31.2178 1593.34 31.1534 1593.78 31.1534C1594.12 31.1534 1594.46 31.197 1594.82 31.2841C1595.19 31.3712 1595.52 31.5227 1595.83 31.7386C1596.14 31.9508 1596.4 32.2481 1596.59 32.6307C1596.78 33.0095 1596.88 33.4905 1596.88 34.0739V40H1595.87V38.6193H1595.81C1595.68 38.8769 1595.5 39.1269 1595.27 39.3693C1595.03 39.6117 1594.73 39.8106 1594.37 39.9659C1594.01 40.1212 1593.59 40.1989 1593.1 40.1989ZM1593.24 39.2727C1593.78 39.2727 1594.24 39.1534 1594.63 38.9148C1595.03 38.6761 1595.33 38.3598 1595.54 37.9659C1595.76 37.5682 1595.87 37.1307 1595.87 36.6534V35.392C1595.79 35.464 1595.67 35.5284 1595.49 35.5852C1595.31 35.642 1595.11 35.6932 1594.88 35.7386C1594.65 35.7803 1594.42 35.8163 1594.2 35.8466C1593.97 35.8769 1593.77 35.9034 1593.58 35.9261C1593.09 35.9867 1592.67 36.0814 1592.32 36.2102C1591.97 36.339 1591.71 36.517 1591.52 36.7443C1591.34 36.9678 1591.24 37.2557 1591.24 37.608C1591.24 38.1383 1591.43 38.5492 1591.81 38.8409C1592.19 39.1288 1592.67 39.2727 1593.24 39.2727ZM1610.83 31.2727L1607.64 40H1606.56L1603.37 31.2727H1604.47L1607.06 38.6648H1607.14L1609.73 31.2727H1610.83ZM1614.98 40.1989C1614.45 40.1989 1613.97 40.0966 1613.53 39.892C1613.1 39.6837 1612.75 39.3845 1612.49 38.9943C1612.24 38.6004 1612.11 38.1231 1612.11 37.5625C1612.11 37.1307 1612.19 36.767 1612.35 36.4716C1612.51 36.1761 1612.74 35.9337 1613.04 35.7443C1613.34 35.5549 1613.7 35.4053 1614.11 35.2955C1614.52 35.1856 1614.97 35.1004 1615.46 35.0398C1615.95 34.9792 1616.36 34.9261 1616.7 34.8807C1617.04 34.8352 1617.3 34.7633 1617.48 34.6648C1617.65 34.5663 1617.74 34.4072 1617.74 34.1875V33.983C1617.74 33.3883 1617.56 32.9205 1617.21 32.5795C1616.86 32.2348 1616.35 32.0625 1615.69 32.0625C1615.06 32.0625 1614.54 32.2008 1614.15 32.4773C1613.75 32.7538 1613.48 33.0795 1613.32 33.4545L1612.36 33.108C1612.55 32.6307 1612.83 32.25 1613.17 31.9659C1613.52 31.678 1613.91 31.4716 1614.35 31.3466C1614.78 31.2178 1615.21 31.1534 1615.66 31.1534C1615.99 31.1534 1616.34 31.197 1616.7 31.2841C1617.06 31.3712 1617.4 31.5227 1617.71 31.7386C1618.02 31.9508 1618.27 32.2481 1618.46 32.6307C1618.66 33.0095 1618.75 33.4905 1618.75 34.0739V40H1617.74V38.6193H1617.68C1617.56 38.8769 1617.38 39.1269 1617.14 39.3693C1616.9 39.6117 1616.6 39.8106 1616.24 39.9659C1615.88 40.1212 1615.46 40.1989 1614.98 40.1989ZM1615.11 39.2727C1615.65 39.2727 1616.12 39.1534 1616.51 38.9148C1616.9 38.6761 1617.21 38.3598 1617.42 37.9659C1617.63 37.5682 1617.74 37.1307 1617.74 36.6534V35.392C1617.67 35.464 1617.54 35.5284 1617.36 35.5852C1617.19 35.642 1616.99 35.6932 1616.75 35.7386C1616.53 35.7803 1616.3 35.8163 1616.07 35.8466C1615.85 35.8769 1615.64 35.9034 1615.46 35.9261C1614.97 35.9867 1614.55 36.0814 1614.2 36.2102C1613.85 36.339 1613.58 36.517 1613.4 36.7443C1613.21 36.9678 1613.12 37.2557 1613.12 37.608C1613.12 38.1383 1613.31 38.5492 1613.69 38.8409C1614.06 39.1288 1614.54 39.2727 1615.11 39.2727ZM1613.09 30.1136L1615.35 28.0057H1616.21L1618.47 30.1136H1617.22L1615.79 28.7273L1614.36 30.1136H1613.09ZM1618.02 28.7159L1619.21 26.6875H1620.47L1618.92 28.7159H1618.02ZM1622.46 34.5455V40H1621.44V31.2727H1622.43V32.642H1622.52C1622.72 32.1951 1623.04 31.8371 1623.47 31.5682C1623.91 31.2955 1624.45 31.1591 1625.09 31.1591C1625.67 31.1591 1626.19 31.2822 1626.63 31.5284C1627.08 31.7708 1627.43 32.1288 1627.67 32.6023C1627.92 33.0758 1628.05 33.6572 1628.05 34.3466V40H1627.04V34.4091C1627.04 33.6932 1626.83 33.1269 1626.43 32.7102C1626.04 32.2936 1625.5 32.0852 1624.83 32.0852C1624.37 32.0852 1623.97 32.1837 1623.61 32.3807C1623.25 32.5777 1622.97 32.8617 1622.76 33.233C1622.56 33.6004 1622.46 34.0379 1622.46 34.5455ZM1638.35 40.1818C1637.64 40.1818 1637.01 39.9924 1636.47 39.6136C1635.93 39.2348 1635.51 38.7064 1635.21 38.0284C1634.91 37.3504 1634.76 36.5606 1634.76 35.6591C1634.76 34.7614 1634.91 33.9754 1635.21 33.3011C1635.51 32.6231 1635.94 32.0966 1636.48 31.7216C1637.02 31.3428 1637.65 31.1534 1638.37 31.1534C1638.9 31.1534 1639.34 31.2481 1639.69 31.4375C1640.05 31.6231 1640.33 31.8542 1640.54 32.1307C1640.75 32.4072 1640.92 32.6761 1641.03 32.9375H1641.12V28.3636H1642.14V40H1641.15V38.3807H1641.03C1640.92 38.6458 1640.75 38.9186 1640.53 39.1989C1640.32 39.4754 1640.03 39.7083 1639.68 39.8977C1639.32 40.0871 1638.88 40.1818 1638.35 40.1818ZM1638.47 39.2557C1639.04 39.2557 1639.52 39.1023 1639.91 38.7955C1640.31 38.4848 1640.62 38.0587 1640.82 37.517C1641.04 36.9716 1641.14 36.3466 1641.14 35.642C1641.14 34.9451 1641.04 34.3295 1640.83 33.7955C1640.62 33.2576 1640.32 32.8371 1639.92 32.5341C1639.52 32.2273 1639.04 32.0739 1638.47 32.0739C1637.89 32.0739 1637.4 32.233 1636.99 32.5511C1636.6 32.8655 1636.29 33.2917 1636.09 33.8295C1635.88 34.3674 1635.78 34.9716 1635.78 35.642C1635.78 36.3201 1635.88 36.9318 1636.09 37.4773C1636.3 38.0227 1636.6 38.4564 1637 38.7784C1637.4 39.0966 1637.89 39.2557 1638.47 39.2557ZM1638.71 30.4091V29.5909H1643.48V30.4091H1638.71ZM1648.55 40.1818C1647.74 40.1818 1647.03 39.9924 1646.44 39.6136C1645.84 39.2311 1645.38 38.7027 1645.06 38.0284C1644.73 37.3504 1644.57 36.5701 1644.57 35.6875C1644.57 34.8087 1644.73 34.0284 1645.06 33.3466C1645.38 32.661 1645.83 32.125 1646.4 31.7386C1646.98 31.3485 1647.64 31.1534 1648.4 31.1534C1648.87 31.1534 1649.33 31.2405 1649.77 31.4148C1650.21 31.5852 1650.6 31.8485 1650.95 32.2045C1651.3 32.5568 1651.58 33.0019 1651.78 33.5398C1651.99 34.0739 1652.09 34.7064 1652.09 35.4375V35.9375H1645.27V35.0455H1651.06C1651.06 34.4848 1650.94 33.9811 1650.72 33.5341C1650.49 33.0833 1650.18 32.7273 1649.78 32.4659C1649.38 32.2045 1648.92 32.0739 1648.4 32.0739C1647.84 32.0739 1647.36 32.2216 1646.94 32.517C1646.52 32.8125 1646.19 33.2027 1645.95 33.6875C1645.71 34.1723 1645.59 34.7027 1645.59 35.2784V35.8125C1645.59 36.5057 1645.71 37.1117 1645.95 37.6307C1646.19 38.1458 1646.53 38.5455 1646.98 38.8295C1647.42 39.1136 1647.95 39.2557 1648.55 39.2557C1648.96 39.2557 1649.33 39.1913 1649.64 39.0625C1649.95 38.9337 1650.21 38.7614 1650.43 38.5455C1650.64 38.3258 1650.8 38.0852 1650.91 37.8239L1651.88 38.1364C1651.74 38.5038 1651.52 38.8428 1651.22 39.1534C1650.92 39.464 1650.55 39.714 1650.1 39.9034C1649.65 40.089 1649.13 40.1818 1648.55 40.1818ZM1648.78 27.9261L1651.03 30.0284H1649.78L1648.35 28.642L1646.92 30.0284H1645.67L1647.91 27.9261H1648.78ZM1644.99 26.5909L1646.14 28.6364H1645.24L1643.72 26.5909H1644.99ZM1659.83 28.3636V40H1658.82V28.3636H1659.83ZM1664.94 40.1989C1664.42 40.1989 1663.94 40.0966 1663.5 39.892C1663.07 39.6837 1662.72 39.3845 1662.46 38.9943C1662.2 38.6004 1662.08 38.1231 1662.08 37.5625C1662.08 37.1307 1662.16 36.767 1662.32 36.4716C1662.48 36.1761 1662.71 35.9337 1663.01 35.7443C1663.31 35.5549 1663.67 35.4053 1664.08 35.2955C1664.48 35.1856 1664.94 35.1004 1665.43 35.0398C1665.92 34.9792 1666.33 34.9261 1666.67 34.8807C1667.01 34.8352 1667.27 34.7633 1667.44 34.6648C1667.62 34.5663 1667.71 34.4072 1667.71 34.1875V33.983C1667.71 33.3883 1667.53 32.9205 1667.18 32.5795C1666.83 32.2348 1666.32 32.0625 1665.65 32.0625C1665.03 32.0625 1664.51 32.2008 1664.12 32.4773C1663.72 32.7538 1663.44 33.0795 1663.29 33.4545L1662.33 33.108C1662.52 32.6307 1662.79 32.25 1663.14 31.9659C1663.49 31.678 1663.88 31.4716 1664.31 31.3466C1664.75 31.2178 1665.18 31.1534 1665.63 31.1534C1665.96 31.1534 1666.31 31.197 1666.67 31.2841C1667.03 31.3712 1667.37 31.5227 1667.68 31.7386C1667.99 31.9508 1668.24 32.2481 1668.43 32.6307C1668.63 33.0095 1668.72 33.4905 1668.72 34.0739V40H1667.71V38.6193H1667.65C1667.53 38.8769 1667.35 39.1269 1667.11 39.3693C1666.87 39.6117 1666.57 39.8106 1666.21 39.9659C1665.85 40.1212 1665.43 40.1989 1664.94 40.1989ZM1665.08 39.2727C1665.62 39.2727 1666.08 39.1534 1666.48 38.9148C1666.87 38.6761 1667.18 38.3598 1667.39 37.9659C1667.6 37.5682 1667.71 37.1307 1667.71 36.6534V35.392C1667.64 35.464 1667.51 35.5284 1667.33 35.5852C1667.16 35.642 1666.95 35.6932 1666.72 35.7386C1666.5 35.7803 1666.27 35.8163 1666.04 35.8466C1665.81 35.8769 1665.61 35.9034 1665.43 35.9261C1664.94 35.9867 1664.51 36.0814 1664.17 36.2102C1663.82 36.339 1663.55 36.517 1663.37 36.7443C1663.18 36.9678 1663.09 37.2557 1663.09 37.608C1663.09 38.1383 1663.28 38.5492 1663.65 38.8409C1664.03 39.1288 1664.51 39.2727 1665.08 39.2727ZM1665.29 30.0625L1663.54 27.483H1664.74L1666.19 30.0625H1665.29ZM1676.12 40V28.3636H1677.14V32.9375H1677.23C1677.35 32.6761 1677.51 32.4072 1677.72 32.1307C1677.94 31.8542 1678.22 31.6231 1678.57 31.4375C1678.92 31.2481 1679.36 31.1534 1679.9 31.1534C1680.61 31.1534 1681.24 31.3428 1681.78 31.7216C1682.32 32.0966 1682.75 32.6231 1683.05 33.3011C1683.35 33.9754 1683.5 34.7614 1683.5 35.6591C1683.5 36.5606 1683.35 37.3504 1683.05 38.0284C1682.75 38.7064 1682.33 39.2348 1681.79 39.6136C1681.25 39.9924 1680.63 40.1818 1679.91 40.1818C1679.38 40.1818 1678.94 40.0871 1678.58 39.8977C1678.23 39.7083 1677.95 39.4754 1677.73 39.1989C1677.52 38.9186 1677.35 38.6458 1677.23 38.3807H1677.11V40H1676.12ZM1677.12 35.642C1677.12 36.3466 1677.23 36.9716 1677.44 37.517C1677.65 38.0587 1677.95 38.4848 1678.35 38.7955C1678.74 39.1023 1679.22 39.2557 1679.79 39.2557C1680.37 39.2557 1680.86 39.0966 1681.26 38.7784C1681.66 38.4564 1681.97 38.0227 1682.17 37.4773C1682.38 36.9318 1682.49 36.3201 1682.49 35.642C1682.49 34.9716 1682.38 34.3674 1682.17 33.8295C1681.97 33.2917 1681.67 32.8655 1681.27 32.5511C1680.86 32.233 1680.37 32.0739 1679.79 32.0739C1679.22 32.0739 1678.74 32.2273 1678.34 32.5341C1677.95 32.8371 1677.64 33.2576 1677.44 33.7955C1677.23 34.3295 1677.12 34.9451 1677.12 35.642ZM1688.16 40.1989C1687.64 40.1989 1687.16 40.0966 1686.72 39.892C1686.28 39.6837 1685.94 39.3845 1685.68 38.9943C1685.42 38.6004 1685.29 38.1231 1685.29 37.5625C1685.29 37.1307 1685.38 36.767 1685.54 36.4716C1685.7 36.1761 1685.93 35.9337 1686.23 35.7443C1686.53 35.5549 1686.88 35.4053 1687.29 35.2955C1687.7 35.1856 1688.15 35.1004 1688.65 35.0398C1689.13 34.9792 1689.55 34.9261 1689.88 34.8807C1690.23 34.8352 1690.49 34.7633 1690.66 34.6648C1690.84 34.5663 1690.93 34.4072 1690.93 34.1875V33.983C1690.93 33.3883 1690.75 32.9205 1690.4 32.5795C1690.04 32.2348 1689.54 32.0625 1688.87 32.0625C1688.24 32.0625 1687.73 32.2008 1687.33 32.4773C1686.94 32.7538 1686.66 33.0795 1686.5 33.4545L1685.54 33.108C1685.74 32.6307 1686.01 32.25 1686.36 31.9659C1686.71 31.678 1687.1 31.4716 1687.53 31.3466C1687.96 31.2178 1688.4 31.1534 1688.85 31.1534C1689.18 31.1534 1689.53 31.197 1689.88 31.2841C1690.25 31.3712 1690.59 31.5227 1690.9 31.7386C1691.21 31.9508 1691.46 32.2481 1691.65 32.6307C1691.85 33.0095 1691.94 33.4905 1691.94 34.0739V40H1690.93V38.6193H1690.87C1690.75 38.8769 1690.57 39.1269 1690.33 39.3693C1690.09 39.6117 1689.79 39.8106 1689.43 39.9659C1689.07 40.1212 1688.65 40.1989 1688.16 40.1989ZM1688.3 39.2727C1688.84 39.2727 1689.3 39.1534 1689.7 38.9148C1690.09 38.6761 1690.39 38.3598 1690.61 37.9659C1690.82 37.5682 1690.93 37.1307 1690.93 36.6534V35.392C1690.85 35.464 1690.73 35.5284 1690.55 35.5852C1690.38 35.642 1690.17 35.6932 1689.94 35.7386C1689.71 35.7803 1689.49 35.8163 1689.26 35.8466C1689.03 35.8769 1688.83 35.9034 1688.65 35.9261C1688.15 35.9867 1687.73 36.0814 1687.38 36.2102C1687.04 36.339 1686.77 36.517 1686.58 36.7443C1686.4 36.9678 1686.31 37.2557 1686.31 37.608C1686.31 38.1383 1686.49 38.5492 1686.87 38.8409C1687.25 39.1288 1687.73 39.2727 1688.3 39.2727ZM1688.9 42.7898C1688.69 42.7898 1688.51 42.7178 1688.36 42.5739C1688.21 42.4299 1688.14 42.2595 1688.14 42.0625C1688.14 41.8617 1688.21 41.6894 1688.36 41.5455C1688.51 41.4053 1688.69 41.3352 1688.9 41.3352C1689.1 41.3352 1689.28 41.4053 1689.43 41.5455C1689.58 41.6894 1689.66 41.8617 1689.66 42.0625C1689.66 42.2595 1689.58 42.4299 1689.43 42.5739C1689.28 42.7178 1689.1 42.7898 1688.9 42.7898ZM1695.64 34.5455V40H1694.63V31.2727H1695.62V32.642H1695.71C1695.91 32.1951 1696.23 31.8371 1696.66 31.5682C1697.1 31.2955 1697.63 31.1591 1698.27 31.1591C1698.86 31.1591 1699.38 31.2822 1699.82 31.5284C1700.27 31.7708 1700.61 32.1288 1700.86 32.6023C1701.11 33.0758 1701.23 33.6572 1701.23 34.3466V40H1700.22V34.4091C1700.22 33.6932 1700.02 33.1269 1699.62 32.7102C1699.22 32.2936 1698.69 32.0852 1698.02 32.0852C1697.56 32.0852 1697.15 32.1837 1696.8 32.3807C1696.44 32.5777 1696.16 32.8617 1695.95 33.233C1695.75 33.6004 1695.64 34.0379 1695.64 34.5455Z" fill="white"/>
<path d="M1291.67 35C1291.67 37.9455 1294.05 40.3333 1297 40.3333C1299.95 40.3333 1302.33 37.9455 1302.33 35C1302.33 32.0545 1299.95 29.6667 1297 29.6667C1294.05 29.6667 1291.67 32.0545 1291.67 35ZM1274 36H1297V34H1274V36Z" fill="url(#paint1_linear_2014_703)"/>
<circle cx="1242" cy="35" r="35" fill="url(#paint2_linear_2014_703)"/>
<circle cx="1242" cy="35" r="27" fill="white"/>
<path d="M1232.27 44.36C1230.26 44.36 1228.51 43.976 1227.04 43.208C1225.58 42.424 1224.46 41.328 1223.66 39.92C1222.86 38.512 1222.46 36.872 1222.46 35C1222.46 33.128 1222.86 31.488 1223.66 30.08C1224.46 28.672 1225.58 27.584 1227.04 26.816C1228.51 26.032 1230.26 25.64 1232.27 25.64C1234.27 25.64 1236 26.032 1237.46 26.816C1238.93 27.584 1240.06 28.672 1240.86 30.08C1241.66 31.488 1242.06 33.128 1242.06 35C1242.06 36.872 1241.66 38.512 1240.86 39.92C1240.06 41.328 1238.93 42.424 1237.46 43.208C1236 43.976 1234.27 44.36 1232.27 44.36ZM1232.27 41.048C1234.08 41.048 1235.48 40.52 1236.47 39.464C1237.48 38.392 1237.98 36.904 1237.98 35C1237.98 33.08 1237.48 31.592 1236.47 30.536C1235.48 29.48 1234.08 28.952 1232.27 28.952C1230.46 28.952 1229.06 29.48 1228.05 30.536C1227.04 31.592 1226.54 33.08 1226.54 35C1226.54 36.92 1227.04 38.408 1228.05 39.464C1229.06 40.52 1230.46 41.048 1232.27 41.048ZM1244.08 32.336C1244.18 30.96 1244.63 29.776 1245.43 28.784C1246.23 27.776 1247.28 27 1248.6 26.456C1249.92 25.912 1251.43 25.64 1253.11 25.64C1254.71 25.64 1256.11 25.888 1257.31 26.384C1258.51 26.864 1259.44 27.544 1260.12 28.424C1260.79 29.304 1261.12 30.328 1261.12 31.496C1261.12 32.392 1260.89 33.224 1260.43 33.992C1259.96 34.76 1259.22 35.536 1258.2 36.32C1257.19 37.088 1255.84 37.92 1254.16 38.816L1248.72 41.816L1248.4 40.712H1261.63V44H1244.35V41.12L1252.05 36.608C1253.33 35.872 1254.33 35.24 1255.05 34.712C1255.77 34.168 1256.28 33.664 1256.59 33.2C1256.89 32.736 1257.04 32.24 1257.04 31.712C1257.04 31.152 1256.89 30.656 1256.59 30.224C1256.28 29.792 1255.83 29.456 1255.22 29.216C1254.63 28.976 1253.88 28.856 1252.96 28.856C1251.89 28.856 1251.01 29.016 1250.32 29.336C1249.64 29.64 1249.12 30.056 1248.76 30.584C1248.43 31.112 1248.23 31.696 1248.16 32.336H1244.08Z" fill="#000C74"/>
<defs>
<linearGradient id="paint0_linear_2014_703" x1="1297" y1="34.5" x2="1723" y2="34.5" gradientUnits="userSpaceOnUse">
<stop stop-color="#00A93C"/>
<stop offset="1" stop-color="#24CBFF"/>
</linearGradient>
<linearGradient id="paint1_linear_2014_703" x1="1274" y1="35.5" x2="1297" y2="35.5" gradientUnits="userSpaceOnUse">
<stop stop-color="#00A93C"/>
<stop offset="1" stop-color="#24CBFF"/>
</linearGradient>
<linearGradient id="paint2_linear_2014_703" x1="1207" y1="35" x2="1277" y2="35" gradientUnits="userSpaceOnUse">
<stop stop-color="#00A93C"/>
<stop offset="1" stop-color="#000C74"/>
</linearGradient>
</defs>
</svg>
