<svg width="100%" viewBox="0 0 1920 70" fill="none" xmlns="http://www.w3.org/2000/svg">
<rect x="1288.5" y="5.5" width="469" height="58" rx="19.5" stroke="url(#paint0_linear_2014_706)"/>
<path d="M1304.26 40V28.3636H1306.37V33.2898H1311.76V28.3636H1313.87V40H1311.76V35.0568H1306.37V40H1304.26ZM1326.56 34.1818C1326.56 35.4356 1326.33 36.5095 1325.86 37.4034C1325.39 38.2936 1324.75 38.9754 1323.95 39.4489C1323.14 39.9223 1322.23 40.1591 1321.21 40.1591C1320.2 40.1591 1319.28 39.9223 1318.48 39.4489C1317.67 38.9716 1317.04 38.2879 1316.57 37.3977C1316.1 36.5038 1315.87 35.4318 1315.87 34.1818C1315.87 32.928 1316.1 31.8561 1316.57 30.9659C1317.04 30.072 1317.67 29.3883 1318.48 28.9148C1319.28 28.4413 1320.2 28.2045 1321.21 28.2045C1322.23 28.2045 1323.14 28.4413 1323.95 28.9148C1324.75 29.3883 1325.39 30.072 1325.86 30.9659C1326.33 31.8561 1326.56 32.928 1326.56 34.1818ZM1324.44 34.1818C1324.44 33.2992 1324.3 32.5549 1324.03 31.9489C1323.75 31.339 1323.38 30.8788 1322.89 30.5682C1322.41 30.2538 1321.85 30.0966 1321.21 30.0966C1320.58 30.0966 1320.02 30.2538 1319.54 30.5682C1319.05 30.8788 1318.67 31.339 1318.4 31.9489C1318.12 32.5549 1317.99 33.2992 1317.99 34.1818C1317.99 35.0644 1318.12 35.8106 1318.4 36.4205C1318.67 37.0265 1319.05 37.4867 1319.54 37.8011C1320.02 38.1117 1320.58 38.267 1321.21 38.267C1321.85 38.267 1322.41 38.1117 1322.89 37.8011C1323.38 37.4867 1323.75 37.0265 1324.03 36.4205C1324.3 35.8106 1324.44 35.0644 1324.44 34.1818ZM1321.22 43.142C1320.89 43.142 1320.61 43.0322 1320.37 42.8125C1320.14 42.5928 1320.03 42.3295 1320.03 42.0227C1320.03 41.7159 1320.14 41.4527 1320.37 41.233C1320.61 41.0133 1320.89 40.9034 1321.21 40.9034C1321.54 40.9034 1321.82 41.0133 1322.06 41.233C1322.29 41.4527 1322.41 41.7159 1322.41 42.0227C1322.41 42.3295 1322.29 42.5928 1322.06 42.8125C1321.82 43.0322 1321.55 43.142 1321.22 43.142ZM1338.51 32.2898H1336.39C1336.33 31.9413 1336.22 31.6326 1336.05 31.3636C1335.89 31.0909 1335.69 30.8598 1335.45 30.6705C1335.2 30.4811 1334.93 30.339 1334.62 30.2443C1334.31 30.1458 1333.98 30.0966 1333.62 30.0966C1332.99 30.0966 1332.43 30.2557 1331.94 30.5739C1331.45 30.8883 1331.07 31.3504 1330.79 31.9602C1330.52 32.5663 1330.38 33.3068 1330.38 34.1818C1330.38 35.072 1330.52 35.822 1330.79 36.4318C1331.07 37.0379 1331.46 37.4962 1331.94 37.8068C1332.43 38.1136 1332.99 38.267 1333.62 38.267C1333.96 38.267 1334.29 38.2216 1334.59 38.1307C1334.9 38.036 1335.18 37.8977 1335.42 37.7159C1335.66 37.5341 1335.87 37.3106 1336.04 37.0455C1336.21 36.7803 1336.32 36.4773 1336.39 36.1364L1338.51 36.1477C1338.43 36.7008 1338.26 37.2197 1338 37.7045C1337.74 38.1894 1337.39 38.6174 1336.97 38.9886C1336.54 39.3561 1336.05 39.6439 1335.48 39.8523C1334.91 40.0568 1334.28 40.1591 1333.59 40.1591C1332.57 40.1591 1331.65 39.9223 1330.85 39.4489C1330.05 38.9754 1329.41 38.2917 1328.95 37.3977C1328.49 36.5038 1328.26 35.4318 1328.26 34.1818C1328.26 32.928 1328.49 31.8561 1328.96 30.9659C1329.42 30.072 1330.06 29.3883 1330.86 28.9148C1331.66 28.4413 1332.57 28.2045 1333.59 28.2045C1334.24 28.2045 1334.84 28.2955 1335.39 28.4773C1335.95 28.6591 1336.45 28.9261 1336.88 29.2784C1337.32 29.6269 1337.68 30.0549 1337.96 30.5625C1338.24 31.0663 1338.43 31.642 1338.51 32.2898ZM1344.41 40V28.3636H1346.52V33.2898H1351.91V28.3636H1354.03V40H1351.91V35.0568H1346.52V40H1344.41ZM1366.72 34.1818C1366.72 35.4356 1366.48 36.5095 1366.01 37.4034C1365.55 38.2936 1364.91 38.9754 1364.1 39.4489C1363.3 39.9223 1362.39 40.1591 1361.37 40.1591C1360.35 40.1591 1359.44 39.9223 1358.63 39.4489C1357.83 38.9716 1357.19 38.2879 1356.72 37.3977C1356.26 36.5038 1356.02 35.4318 1356.02 34.1818C1356.02 32.928 1356.26 31.8561 1356.72 30.9659C1357.19 30.072 1357.83 29.3883 1358.63 28.9148C1359.44 28.4413 1360.35 28.2045 1361.37 28.2045C1362.39 28.2045 1363.3 28.4413 1364.1 28.9148C1364.91 29.3883 1365.55 30.072 1366.01 30.9659C1366.48 31.8561 1366.72 32.928 1366.72 34.1818ZM1364.6 34.1818C1364.6 33.2992 1364.46 32.5549 1364.18 31.9489C1363.91 31.339 1363.53 30.8788 1363.05 30.5682C1362.56 30.2538 1362 30.0966 1361.37 30.0966C1360.74 30.0966 1360.18 30.2538 1359.69 30.5682C1359.21 30.8788 1358.83 31.339 1358.55 31.9489C1358.28 32.5549 1358.14 33.2992 1358.14 34.1818C1358.14 35.0644 1358.28 35.8106 1358.55 36.4205C1358.83 37.0265 1359.21 37.4867 1359.69 37.8011C1360.18 38.1117 1360.74 38.267 1361.37 38.267C1362 38.267 1362.56 38.1117 1363.05 37.8011C1363.53 37.4867 1363.91 37.0265 1364.18 36.4205C1364.46 35.8106 1364.6 35.0644 1364.6 34.1818ZM1362.16 27.1364H1360.59L1360.51 26.0455C1360.91 26.0303 1361.2 25.9792 1361.37 25.892C1361.53 25.8011 1361.61 25.6761 1361.61 25.517C1361.61 25.3125 1361.5 25.1705 1361.28 25.0909C1361.06 25.0114 1360.78 24.9716 1360.45 24.9716L1360.5 23.9545C1361.44 23.9545 1362.15 24.0909 1362.64 24.3636C1363.12 24.6364 1363.36 25.0076 1363.36 25.4773C1363.36 25.8371 1363.24 26.1061 1362.99 26.2841C1362.74 26.4583 1362.46 26.5682 1362.16 26.6136V27.1364ZM1370.82 28.3636V40H1368.71V28.3636H1370.82ZM1378.63 28.3636L1381.65 37.5227H1381.77L1384.8 28.3636H1387.12L1383.01 40H1380.41L1376.31 28.3636H1378.63ZM1388.78 40H1386.53L1390.63 28.3636H1393.23L1397.33 40H1395.08L1391.98 30.75H1391.88L1388.78 40ZM1388.86 35.4375H1394.99V37.1307H1388.86V35.4375ZM1391.18 27.2159L1389.44 24.6193H1391.45L1392.72 27.2159H1391.18ZM1412.8 32.2898H1410.67C1410.61 31.9413 1410.5 31.6326 1410.34 31.3636C1410.17 31.0909 1409.97 30.8598 1409.73 30.6705C1409.48 30.4811 1409.21 30.339 1408.9 30.2443C1408.59 30.1458 1408.26 30.0966 1407.9 30.0966C1407.27 30.0966 1406.71 30.2557 1406.22 30.5739C1405.73 30.8883 1405.35 31.3504 1405.07 31.9602C1404.8 32.5663 1404.66 33.3068 1404.66 34.1818C1404.66 35.072 1404.8 35.822 1405.07 36.4318C1405.35 37.0379 1405.74 37.4962 1406.22 37.8068C1406.71 38.1136 1407.27 38.267 1407.9 38.267C1408.25 38.267 1408.57 38.2216 1408.88 38.1307C1409.18 38.036 1409.46 37.8977 1409.7 37.7159C1409.95 37.5341 1410.15 37.3106 1410.32 37.0455C1410.49 36.7803 1410.61 36.4773 1410.67 36.1364L1412.8 36.1477C1412.72 36.7008 1412.54 37.2197 1412.28 37.7045C1412.02 38.1894 1411.67 38.6174 1411.25 38.9886C1410.83 39.3561 1410.33 39.6439 1409.76 39.8523C1409.19 40.0568 1408.56 40.1591 1407.87 40.1591C1406.85 40.1591 1405.93 39.9223 1405.13 39.4489C1404.33 38.9754 1403.7 38.2917 1403.23 37.3977C1402.77 36.5038 1402.54 35.4318 1402.54 34.1818C1402.54 32.928 1402.77 31.8561 1403.24 30.9659C1403.7 30.072 1404.34 29.3883 1405.14 28.9148C1405.95 28.4413 1406.85 28.2045 1407.87 28.2045C1408.52 28.2045 1409.12 28.2955 1409.68 28.4773C1410.23 28.6591 1410.73 28.9261 1411.16 29.2784C1411.6 29.6269 1411.96 30.0549 1412.24 30.5625C1412.52 31.0663 1412.71 31.642 1412.8 32.2898ZM1416.08 40H1413.83L1417.93 28.3636H1420.53L1424.63 40H1422.38L1419.27 30.75H1419.18L1416.08 40ZM1416.15 35.4375H1422.29V37.1307H1416.15V35.4375ZM1420.02 27.1364H1418.45L1418.37 26.0455C1418.77 26.0303 1419.05 25.9792 1419.22 25.892C1419.39 25.8011 1419.47 25.6761 1419.47 25.517C1419.47 25.3125 1419.36 25.1705 1419.14 25.0909C1418.91 25.0114 1418.64 24.9716 1418.31 24.9716L1418.36 23.9545C1419.3 23.9545 1420.01 24.0909 1420.49 24.3636C1420.98 24.6364 1421.22 25.0076 1421.22 25.4773C1421.22 25.8371 1421.1 26.1061 1420.85 26.2841C1420.6 26.4583 1420.32 26.5682 1420.02 26.6136V27.1364ZM1428.27 28.3636V40H1426.16V28.3636H1428.27ZM1434.01 30.1307V28.3636H1443.3V30.1307H1439.7V40H1437.61V30.1307H1434.01ZM1447.19 28.3636V40H1445.09V28.3636H1447.19ZM1449.48 40V28.3636H1457.04V30.1307H1451.58V33.2898H1456.65V35.0568H1451.58V38.233H1457.09V40H1449.48ZM1450.31 27.3636L1452.61 25.4943H1453.9L1456.21 27.3636H1454.5L1453.27 26.3182L1452.03 27.3636H1450.31ZM1455.6 26.2273L1456.86 24.1307H1458.67L1456.91 26.2273H1455.6ZM1468.76 28.3636V40H1466.88L1461.4 32.0739H1461.3V40H1459.19V28.3636H1461.08L1466.56 36.2955H1466.66V28.3636H1468.76ZM1480.19 33.7045V34.6591H1475.35V33.7045H1480.19ZM1496.55 32H1495.48C1495.4 31.6023 1495.26 31.2348 1495.05 30.8977C1494.85 30.5568 1494.59 30.2595 1494.28 30.0057C1493.97 29.7519 1493.61 29.5549 1493.22 29.4148C1492.83 29.2746 1492.4 29.2045 1491.94 29.2045C1491.21 29.2045 1490.54 29.3958 1489.93 29.7784C1489.33 30.161 1488.85 30.7235 1488.48 31.4659C1488.12 32.2045 1487.94 33.1098 1487.94 34.1818C1487.94 35.2614 1488.12 36.1705 1488.48 36.9091C1488.85 37.6477 1489.33 38.2083 1489.93 38.5909C1490.54 38.9697 1491.21 39.1591 1491.94 39.1591C1492.4 39.1591 1492.83 39.089 1493.22 38.9489C1493.61 38.8087 1493.97 38.6136 1494.28 38.3636C1494.59 38.1098 1494.85 37.8125 1495.05 37.4716C1495.26 37.1307 1495.4 36.7614 1495.48 36.3636H1496.55C1496.46 36.8977 1496.28 37.3958 1496.02 37.858C1495.76 38.3163 1495.43 38.7178 1495.03 39.0625C1494.63 39.4072 1494.17 39.6761 1493.65 39.8693C1493.13 40.0625 1492.56 40.1591 1491.94 40.1591C1490.96 40.1591 1490.1 39.9148 1489.34 39.4261C1488.58 38.9337 1487.99 38.2405 1487.56 37.3466C1487.13 36.4527 1486.91 35.3977 1486.91 34.1818C1486.91 32.9659 1487.13 31.911 1487.56 31.017C1487.99 30.1231 1488.58 29.4318 1489.34 28.9432C1490.1 28.4508 1490.96 28.2045 1491.94 28.2045C1492.56 28.2045 1493.13 28.3011 1493.65 28.4943C1494.17 28.6837 1494.63 28.9527 1495.03 29.3011C1495.43 29.6458 1495.76 30.0473 1496.02 30.5057C1496.28 30.964 1496.46 31.4621 1496.55 32ZM1499.85 34.5455V40H1498.84V28.3636H1499.85V32.642H1499.94C1500.14 32.1913 1500.46 31.8314 1500.89 31.5625C1501.32 31.2936 1501.86 31.1591 1502.52 31.1591C1503.11 31.1591 1503.63 31.2803 1504.08 31.5227C1504.53 31.7652 1504.88 32.1231 1505.12 32.5966C1505.38 33.0701 1505.5 33.6534 1505.5 34.3466V40H1504.48V34.4091C1504.48 33.6894 1504.28 33.1231 1503.88 32.7102C1503.48 32.2936 1502.95 32.0852 1502.27 32.0852C1501.8 32.0852 1501.39 32.1837 1501.02 32.3807C1500.66 32.5777 1500.37 32.8617 1500.16 33.233C1499.95 33.6004 1499.85 34.0379 1499.85 34.5455ZM1511.56 40.1818C1510.8 40.1818 1510.13 39.9905 1509.56 39.608C1508.98 39.2254 1508.53 38.697 1508.2 38.0227C1507.88 37.3447 1507.71 36.5625 1507.71 35.6761C1507.71 34.7822 1507.88 33.9962 1508.2 33.3182C1508.53 32.6364 1508.98 32.1061 1509.56 31.7273C1510.13 31.3447 1510.8 31.1534 1511.56 31.1534C1512.31 31.1534 1512.97 31.3447 1513.55 31.7273C1514.13 32.1098 1514.58 32.6402 1514.9 33.3182C1515.23 33.9962 1515.4 34.7822 1515.4 35.6761C1515.4 36.5625 1515.23 37.3447 1514.91 38.0227C1514.58 38.697 1514.13 39.2254 1513.55 39.608C1512.97 39.9905 1512.31 40.1818 1511.56 40.1818ZM1511.56 39.2557C1512.16 39.2557 1512.67 39.0928 1513.1 38.767C1513.52 38.4413 1513.83 38.0076 1514.05 37.4659C1514.27 36.9242 1514.38 36.3277 1514.38 35.6761C1514.38 35.0246 1514.27 34.4261 1514.05 33.8807C1513.83 33.3352 1513.52 32.8977 1513.1 32.5682C1512.67 32.2386 1512.16 32.0739 1511.56 32.0739C1510.95 32.0739 1510.44 32.2386 1510.02 32.5682C1509.6 32.8977 1509.28 33.3352 1509.06 33.8807C1508.84 34.4261 1508.73 35.0246 1508.73 35.6761C1508.73 36.3277 1508.84 36.9242 1509.06 37.4659C1509.28 38.0076 1509.6 38.4413 1510.02 38.767C1510.44 39.0928 1510.95 39.2557 1511.56 39.2557ZM1522.12 40V31.2727H1523.1V32.6136H1523.19C1523.36 32.1629 1523.65 31.8087 1524.06 31.5511C1524.47 31.2898 1524.96 31.1591 1525.53 31.1591C1526.13 31.1591 1526.63 31.3011 1527.01 31.5852C1527.4 31.8655 1527.7 32.2519 1527.89 32.7443H1527.96C1528.16 32.2595 1528.48 31.875 1528.92 31.5909C1529.37 31.303 1529.91 31.1591 1530.55 31.1591C1531.36 31.1591 1532 31.4148 1532.47 31.9261C1532.94 32.4337 1533.17 33.1761 1533.17 34.1534V40H1532.16V34.1534C1532.16 33.464 1531.99 32.947 1531.63 32.6023C1531.28 32.2576 1530.82 32.0852 1530.24 32.0852C1529.57 32.0852 1529.06 32.2898 1528.7 32.6989C1528.34 33.108 1528.16 33.6269 1528.16 34.2557V40H1527.13V34.0625C1527.13 33.4716 1526.96 32.9943 1526.63 32.6307C1526.3 32.267 1525.84 32.0852 1525.24 32.0852C1524.84 32.0852 1524.48 32.1837 1524.16 32.3807C1523.84 32.5777 1523.59 32.8523 1523.4 33.2045C1523.22 33.553 1523.13 33.9545 1523.13 34.4091V40H1522.12ZM1535.86 40V31.2727H1536.88V40H1535.86ZM1535.95 30.0625L1534.2 27.483H1535.4L1536.86 30.0625H1535.95ZM1540.57 34.5455V40H1539.55V31.2727H1540.54V32.642H1540.63C1540.83 32.1951 1541.15 31.8371 1541.58 31.5682C1542.02 31.2955 1542.56 31.1591 1543.2 31.1591C1543.78 31.1591 1544.3 31.2822 1544.74 31.5284C1545.19 31.7708 1545.54 32.1288 1545.78 32.6023C1546.03 33.0758 1546.16 33.6572 1546.16 34.3466V40H1545.14V34.4091C1545.14 33.6932 1544.94 33.1269 1544.54 32.7102C1544.14 32.2936 1543.61 32.0852 1542.94 32.0852C1542.48 32.0852 1542.07 32.1837 1541.72 32.3807C1541.36 32.5777 1541.08 32.8617 1540.87 33.233C1540.67 33.6004 1540.57 34.0379 1540.57 34.5455ZM1549.83 34.5455V40H1548.82V28.3636H1549.83V32.642H1549.92C1550.13 32.1913 1550.44 31.8314 1550.87 31.5625C1551.3 31.2936 1551.85 31.1591 1552.51 31.1591C1553.1 31.1591 1553.62 31.2803 1554.06 31.5227C1554.51 31.7652 1554.86 32.1231 1555.11 32.5966C1555.36 33.0701 1555.48 33.6534 1555.48 34.3466V40H1554.47V34.4091C1554.47 33.6894 1554.27 33.1231 1553.87 32.7102C1553.47 32.2936 1552.93 32.0852 1552.25 32.0852C1551.79 32.0852 1551.37 32.1837 1551.01 32.3807C1550.64 32.5777 1550.36 32.8617 1550.14 33.233C1549.94 33.6004 1549.83 34.0379 1549.83 34.5455ZM1565.98 43.4545C1565.38 43.4545 1564.86 43.3769 1564.41 43.2216C1563.97 43.0701 1563.59 42.8617 1563.28 42.5966C1562.98 42.3314 1562.74 42.0341 1562.57 41.7045L1563.4 41.1591C1563.52 41.3788 1563.69 41.5947 1563.9 41.8068C1564.11 42.0189 1564.38 42.1951 1564.72 42.3352C1565.06 42.4754 1565.48 42.5455 1565.98 42.5455C1566.75 42.5455 1567.37 42.3523 1567.85 41.9659C1568.32 41.5795 1568.56 40.9792 1568.56 40.1648V38.1989H1568.47C1568.35 38.464 1568.19 38.7292 1567.97 38.9943C1567.75 39.2557 1567.46 39.4735 1567.1 39.6477C1566.75 39.822 1566.31 39.9091 1565.79 39.9091C1565.09 39.9091 1564.47 39.7367 1563.93 39.392C1563.39 39.0473 1562.97 38.5549 1562.66 37.9148C1562.35 37.2708 1562.2 36.5038 1562.2 35.6136C1562.2 34.7311 1562.35 33.9545 1562.65 33.2841C1562.95 32.6136 1563.37 32.0909 1563.91 31.7159C1564.46 31.3409 1565.09 31.1534 1565.81 31.1534C1566.34 31.1534 1566.78 31.2481 1567.14 31.4375C1567.49 31.6231 1567.77 31.8542 1567.98 32.1307C1568.2 32.4072 1568.37 32.6761 1568.49 32.9375H1568.59V31.2727H1569.58V40.2273C1569.58 40.9659 1569.42 41.5739 1569.11 42.0511C1568.79 42.5284 1568.37 42.8807 1567.82 43.108C1567.28 43.339 1566.67 43.4545 1565.98 43.4545ZM1565.91 38.983C1566.47 38.983 1566.95 38.8485 1567.35 38.5795C1567.74 38.3068 1568.05 37.9167 1568.26 37.4091C1568.47 36.9015 1568.58 36.2973 1568.58 35.5966C1568.58 34.9148 1568.48 34.3106 1568.27 33.7841C1568.06 33.2538 1567.76 32.8371 1567.36 32.5341C1566.96 32.2273 1566.48 32.0739 1565.91 32.0739C1565.33 32.0739 1564.83 32.2311 1564.43 32.5455C1564.03 32.8598 1563.73 33.2841 1563.52 33.8182C1563.32 34.3485 1563.22 34.9413 1563.22 35.5966C1563.22 36.2633 1563.32 36.8523 1563.53 37.3636C1563.74 37.8712 1564.04 38.2689 1564.44 38.5568C1564.84 38.8409 1565.33 38.983 1565.91 38.983ZM1572.27 40V31.2727H1573.29V40H1572.27ZM1572.79 29.7727C1572.58 29.7727 1572.4 29.7027 1572.25 29.5625C1572.1 29.4186 1572.03 29.2462 1572.03 29.0455C1572.03 28.8447 1572.1 28.6742 1572.25 28.5341C1572.4 28.3902 1572.58 28.3182 1572.79 28.3182C1572.99 28.3182 1573.17 28.3902 1573.32 28.5341C1573.47 28.6742 1573.54 28.8447 1573.54 29.0455C1573.54 29.2462 1573.47 29.4186 1573.32 29.5625C1573.17 29.7027 1572.99 29.7727 1572.79 29.7727ZM1579.35 40.1818C1578.6 40.1818 1577.93 39.9905 1577.35 39.608C1576.78 39.2254 1576.33 38.697 1576 38.0227C1575.67 37.3447 1575.51 36.5625 1575.51 35.6761C1575.51 34.7822 1575.67 33.9962 1576 33.3182C1576.33 32.6364 1576.78 32.1061 1577.35 31.7273C1577.93 31.3447 1578.6 31.1534 1579.35 31.1534C1580.11 31.1534 1580.77 31.3447 1581.35 31.7273C1581.92 32.1098 1582.37 32.6402 1582.7 33.3182C1583.03 33.9962 1583.19 34.7822 1583.19 35.6761C1583.19 36.5625 1583.03 37.3447 1582.7 38.0227C1582.38 38.697 1581.93 39.2254 1581.35 39.608C1580.77 39.9905 1580.11 40.1818 1579.35 40.1818ZM1579.35 39.2557C1579.96 39.2557 1580.47 39.0928 1580.89 38.767C1581.31 38.4413 1581.63 38.0076 1581.85 37.4659C1582.07 36.9242 1582.18 36.3277 1582.18 35.6761C1582.18 35.0246 1582.07 34.4261 1581.85 33.8807C1581.63 33.3352 1581.31 32.8977 1580.89 32.5682C1580.47 32.2386 1579.96 32.0739 1579.35 32.0739C1578.75 32.0739 1578.24 32.2386 1577.81 32.5682C1577.39 32.8977 1577.07 33.3352 1576.85 33.8807C1576.64 34.4261 1576.53 35.0246 1576.53 35.6761C1576.53 36.3277 1576.64 36.9242 1576.85 37.4659C1577.07 38.0076 1577.39 38.4413 1577.81 38.767C1578.23 39.0928 1578.75 39.2557 1579.35 39.2557ZM1579.8 30.1136H1578.94V28.9261C1579.35 28.9034 1579.64 28.8409 1579.81 28.7386C1579.97 28.6364 1580.06 28.4754 1580.06 28.2557C1580.06 28.0057 1579.94 27.8239 1579.7 27.7102C1579.47 27.5928 1579.16 27.5322 1578.78 27.5284L1578.83 26.8352C1579.55 26.8352 1580.08 26.9659 1580.44 27.2273C1580.81 27.4886 1580.99 27.8371 1580.99 28.2727C1580.99 28.6515 1580.87 28.9375 1580.63 29.1307C1580.4 29.3201 1580.12 29.4337 1579.8 29.4716V30.1136ZM1585.42 40V31.2727H1586.44V40H1585.42ZM1585.94 29.7727C1585.73 29.7727 1585.56 29.7027 1585.41 29.5625C1585.26 29.4186 1585.19 29.2462 1585.19 29.0455C1585.19 28.8447 1585.26 28.6742 1585.41 28.5341C1585.56 28.3902 1585.73 28.3182 1585.94 28.3182C1586.15 28.3182 1586.33 28.3902 1586.48 28.5341C1586.62 28.6742 1586.7 28.8447 1586.7 29.0455C1586.7 29.2462 1586.62 29.4186 1586.48 29.5625C1586.33 29.7027 1586.15 29.7727 1585.94 29.7727ZM1596.76 40.1818C1596.04 40.1818 1595.42 39.9924 1594.88 39.6136C1594.34 39.2348 1593.92 38.7064 1593.62 38.0284C1593.32 37.3504 1593.17 36.5606 1593.17 35.6591C1593.17 34.7614 1593.32 33.9754 1593.62 33.3011C1593.92 32.6231 1594.34 32.0966 1594.88 31.7216C1595.43 31.3428 1596.06 31.1534 1596.78 31.1534C1597.31 31.1534 1597.75 31.2481 1598.1 31.4375C1598.45 31.6231 1598.73 31.8542 1598.95 32.1307C1599.16 32.4072 1599.32 32.6761 1599.44 32.9375H1599.53V28.3636H1600.55V40H1599.56V38.3807H1599.44C1599.32 38.6458 1599.16 38.9186 1598.94 39.1989C1598.72 39.4754 1598.44 39.7083 1598.08 39.8977C1597.73 40.0871 1597.29 40.1818 1596.76 40.1818ZM1596.88 39.2557C1597.44 39.2557 1597.92 39.1023 1598.32 38.7955C1598.72 38.4848 1599.02 38.0587 1599.23 37.517C1599.44 36.9716 1599.55 36.3466 1599.55 35.642C1599.55 34.9451 1599.44 34.3295 1599.24 33.7955C1599.03 33.2576 1598.72 32.8371 1598.33 32.5341C1597.93 32.2273 1597.45 32.0739 1596.88 32.0739C1596.29 32.0739 1595.8 32.233 1595.4 32.5511C1595 32.8655 1594.7 33.2917 1594.49 33.8295C1594.29 34.3674 1594.18 34.9716 1594.18 35.642C1594.18 36.3201 1594.29 36.9318 1594.5 37.4773C1594.71 38.0227 1595.01 38.4564 1595.41 38.7784C1595.81 39.0966 1596.3 39.2557 1596.88 39.2557ZM1597.12 30.4091V29.5909H1601.89V30.4091H1597.12ZM1606.82 40.1818C1606.07 40.1818 1605.4 39.9905 1604.82 39.608C1604.25 39.2254 1603.79 38.697 1603.47 38.0227C1603.14 37.3447 1602.98 36.5625 1602.98 35.6761C1602.98 34.7822 1603.14 33.9962 1603.47 33.3182C1603.79 32.6364 1604.25 32.1061 1604.82 31.7273C1605.4 31.3447 1606.07 31.1534 1606.82 31.1534C1607.57 31.1534 1608.24 31.3447 1608.82 31.7273C1609.39 32.1098 1609.84 32.6402 1610.17 33.3182C1610.5 33.9962 1610.66 34.7822 1610.66 35.6761C1610.66 36.5625 1610.5 37.3447 1610.17 38.0227C1609.85 38.697 1609.39 39.2254 1608.82 39.608C1608.24 39.9905 1607.57 40.1818 1606.82 40.1818ZM1606.82 39.2557C1607.43 39.2557 1607.94 39.0928 1608.36 38.767C1608.78 38.4413 1609.1 38.0076 1609.32 37.4659C1609.54 36.9242 1609.64 36.3277 1609.64 35.6761C1609.64 35.0246 1609.54 34.4261 1609.32 33.8807C1609.1 33.3352 1608.78 32.8977 1608.36 32.5682C1607.94 32.2386 1607.43 32.0739 1606.82 32.0739C1606.22 32.0739 1605.71 32.2386 1605.28 32.5682C1604.86 32.8977 1604.54 33.3352 1604.32 33.8807C1604.11 34.4261 1604 35.0246 1604 35.6761C1604 36.3277 1604.11 36.9242 1604.32 37.4659C1604.54 38.0076 1604.86 38.4413 1605.28 38.767C1605.7 39.0928 1606.21 39.2557 1606.82 39.2557ZM1607.25 27.9261L1609.51 30.0284H1608.26L1606.83 28.642L1605.39 30.0284H1604.14L1606.39 27.9261H1607.25ZM1603.47 26.5909L1604.61 28.6364H1603.72L1602.2 26.5909H1603.47ZM1613.89 34.5455V40H1612.88V31.2727H1613.87V32.642H1613.96C1614.16 32.1951 1614.48 31.8371 1614.91 31.5682C1615.35 31.2955 1615.88 31.1591 1616.52 31.1591C1617.11 31.1591 1617.63 31.2822 1618.07 31.5284C1618.52 31.7708 1618.86 32.1288 1619.11 32.6023C1619.36 33.0758 1619.48 33.6572 1619.48 34.3466V40H1618.47V34.4091C1618.47 33.6932 1618.27 33.1269 1617.87 32.7102C1617.47 32.2936 1616.94 32.0852 1616.27 32.0852C1615.81 32.0852 1615.4 32.1837 1615.05 32.3807C1614.69 32.5777 1614.41 32.8617 1614.2 33.233C1614 33.6004 1613.89 34.0379 1613.89 34.5455ZM1625.48 43.4545C1624.88 43.4545 1624.36 43.3769 1623.91 43.2216C1623.47 43.0701 1623.09 42.8617 1622.78 42.5966C1622.48 42.3314 1622.24 42.0341 1622.07 41.7045L1622.9 41.1591C1623.02 41.3788 1623.19 41.5947 1623.4 41.8068C1623.61 42.0189 1623.88 42.1951 1624.22 42.3352C1624.56 42.4754 1624.98 42.5455 1625.48 42.5455C1626.25 42.5455 1626.87 42.3523 1627.35 41.9659C1627.82 41.5795 1628.06 40.9792 1628.06 40.1648V38.1989H1627.97C1627.85 38.464 1627.69 38.7292 1627.47 38.9943C1627.25 39.2557 1626.96 39.4735 1626.6 39.6477C1626.25 39.822 1625.81 39.9091 1625.29 39.9091C1624.59 39.9091 1623.97 39.7367 1623.43 39.392C1622.89 39.0473 1622.47 38.5549 1622.16 37.9148C1621.85 37.2708 1621.7 36.5038 1621.7 35.6136C1621.7 34.7311 1621.85 33.9545 1622.15 33.2841C1622.45 32.6136 1622.87 32.0909 1623.41 31.7159C1623.96 31.3409 1624.59 31.1534 1625.31 31.1534C1625.84 31.1534 1626.28 31.2481 1626.64 31.4375C1626.99 31.6231 1627.27 31.8542 1627.48 32.1307C1627.7 32.4072 1627.87 32.6761 1627.99 32.9375H1628.09V31.2727H1629.08V40.2273C1629.08 40.9659 1628.92 41.5739 1628.61 42.0511C1628.29 42.5284 1627.87 42.8807 1627.32 43.108C1626.78 43.339 1626.17 43.4545 1625.48 43.4545ZM1625.41 38.983C1625.97 38.983 1626.45 38.8485 1626.85 38.5795C1627.24 38.3068 1627.55 37.9167 1627.76 37.4091C1627.97 36.9015 1628.08 36.2973 1628.08 35.5966C1628.08 34.9148 1627.98 34.3106 1627.77 33.7841C1627.56 33.2538 1627.26 32.8371 1626.86 32.5341C1626.46 32.2273 1625.98 32.0739 1625.41 32.0739C1624.83 32.0739 1624.33 32.2311 1623.93 32.5455C1623.53 32.8598 1623.23 33.2841 1623.02 33.8182C1622.82 34.3485 1622.72 34.9413 1622.72 35.5966C1622.72 36.2633 1622.82 36.8523 1623.03 37.3636C1623.24 37.8712 1623.54 38.2689 1623.94 38.5568C1624.34 38.8409 1624.83 38.983 1625.41 38.983ZM1637.27 34.5455V40H1636.26V31.2727H1637.24V32.642H1637.33C1637.54 32.1951 1637.85 31.8371 1638.29 31.5682C1638.72 31.2955 1639.26 31.1591 1639.9 31.1591C1640.49 31.1591 1641 31.2822 1641.44 31.5284C1641.89 31.7708 1642.24 32.1288 1642.48 32.6023C1642.73 33.0758 1642.86 33.6572 1642.86 34.3466V40H1641.85V34.4091C1641.85 33.6932 1641.65 33.1269 1641.25 32.7102C1640.85 32.2936 1640.31 32.0852 1639.64 32.0852C1639.19 32.0852 1638.78 32.1837 1638.42 32.3807C1638.07 32.5777 1637.78 32.8617 1637.58 33.233C1637.37 33.6004 1637.27 34.0379 1637.27 34.5455ZM1648.85 43.4545C1648.26 43.4545 1647.74 43.3769 1647.29 43.2216C1646.84 43.0701 1646.47 42.8617 1646.16 42.5966C1645.85 42.3314 1645.61 42.0341 1645.44 41.7045L1646.27 41.1591C1646.4 41.3788 1646.56 41.5947 1646.77 41.8068C1646.98 42.0189 1647.26 42.1951 1647.6 42.3352C1647.94 42.4754 1648.36 42.5455 1648.85 42.5455C1649.63 42.5455 1650.25 42.3523 1650.72 41.9659C1651.2 41.5795 1651.44 40.9792 1651.44 40.1648V38.1989H1651.35C1651.23 38.464 1651.06 38.7292 1650.84 38.9943C1650.62 39.2557 1650.33 39.4735 1649.98 39.6477C1649.63 39.822 1649.19 39.9091 1648.66 39.9091C1647.97 39.9091 1647.35 39.7367 1646.81 39.392C1646.27 39.0473 1645.84 38.5549 1645.53 37.9148C1645.23 37.2708 1645.07 36.5038 1645.07 35.6136C1645.07 34.7311 1645.22 33.9545 1645.52 33.2841C1645.83 32.6136 1646.25 32.0909 1646.79 31.7159C1647.33 31.3409 1647.96 31.1534 1648.68 31.1534C1649.22 31.1534 1649.66 31.2481 1650.01 31.4375C1650.36 31.6231 1650.65 31.8542 1650.86 32.1307C1651.07 32.4072 1651.24 32.6761 1651.36 32.9375H1651.47V31.2727H1652.45V40.2273C1652.45 40.9659 1652.3 41.5739 1651.98 42.0511C1651.67 42.5284 1651.24 42.8807 1650.7 43.108C1650.16 43.339 1649.54 43.4545 1648.85 43.4545ZM1648.78 38.983C1649.34 38.983 1649.82 38.8485 1650.22 38.5795C1650.62 38.3068 1650.92 37.9167 1651.14 37.4091C1651.35 36.9015 1651.45 36.2973 1651.45 35.5966C1651.45 34.9148 1651.35 34.3106 1651.14 33.7841C1650.93 33.2538 1650.63 32.8371 1650.23 32.5341C1649.84 32.2273 1649.36 32.0739 1648.78 32.0739C1648.2 32.0739 1647.71 32.2311 1647.31 32.5455C1646.91 32.8598 1646.6 33.2841 1646.4 33.8182C1646.19 34.3485 1646.09 34.9413 1646.09 35.5966C1646.09 36.2633 1646.2 36.8523 1646.4 37.3636C1646.61 37.8712 1646.92 38.2689 1647.32 38.5568C1647.72 38.8409 1648.21 38.983 1648.78 38.983ZM1656.14 34.5455V40H1655.13V28.3636H1656.14V32.642H1656.23C1656.44 32.1913 1656.76 31.8314 1657.18 31.5625C1657.62 31.2936 1658.16 31.1591 1658.82 31.1591C1659.41 31.1591 1659.93 31.2803 1660.38 31.5227C1660.82 31.7652 1661.17 32.1231 1661.42 32.5966C1661.67 33.0701 1661.8 33.6534 1661.8 34.3466V40H1660.78V34.4091C1660.78 33.6894 1660.58 33.1231 1660.18 32.7102C1659.78 32.2936 1659.24 32.0852 1658.56 32.0852C1658.1 32.0852 1657.68 32.1837 1657.32 32.3807C1656.96 32.5777 1656.67 32.8617 1656.46 33.233C1656.25 33.6004 1656.14 34.0379 1656.14 34.5455ZM1664.7 40V31.2727H1665.72V40H1664.7ZM1663.3 30.0682L1662.48 30.0227C1662.5 29.5189 1662.66 29.1061 1662.98 28.7841C1663.29 28.4621 1663.68 28.3011 1664.13 28.3011C1664.36 28.3011 1664.56 28.3428 1664.74 28.4261C1664.91 28.5057 1665.08 28.5985 1665.23 28.7045C1665.38 28.8068 1665.54 28.8977 1665.7 28.9773C1665.86 29.0568 1666.05 29.0966 1666.25 29.0966C1666.48 29.0966 1666.68 29.0133 1666.85 28.8466C1667.03 28.6799 1667.13 28.4735 1667.15 28.2273L1667.95 28.3182C1667.92 28.8258 1667.75 29.233 1667.43 29.5398C1667.12 29.8428 1666.74 29.9943 1666.3 29.9943C1666.04 29.9943 1665.83 29.9545 1665.65 29.875C1665.48 29.7917 1665.33 29.6989 1665.19 29.5966C1665.05 29.4905 1664.9 29.3977 1664.74 29.3182C1664.59 29.2386 1664.4 29.1989 1664.18 29.1989C1663.93 29.1989 1663.73 29.2822 1663.56 29.4489C1663.4 29.6155 1663.31 29.822 1663.3 30.0682ZM1671.05 40.1989C1670.53 40.1989 1670.05 40.0966 1669.61 39.892C1669.18 39.6837 1668.83 39.3845 1668.57 38.9943C1668.31 38.6004 1668.18 38.1231 1668.18 37.5625C1668.18 37.1307 1668.27 36.767 1668.43 36.4716C1668.59 36.1761 1668.82 35.9337 1669.12 35.7443C1669.42 35.5549 1669.78 35.4053 1670.18 35.2955C1670.59 35.1856 1671.04 35.1004 1671.54 35.0398C1672.03 34.9792 1672.44 34.9261 1672.78 34.8807C1673.12 34.8352 1673.38 34.7633 1673.55 34.6648C1673.73 34.5663 1673.82 34.4072 1673.82 34.1875V33.983C1673.82 33.3883 1673.64 32.9205 1673.29 32.5795C1672.93 32.2348 1672.43 32.0625 1671.76 32.0625C1671.14 32.0625 1670.62 32.2008 1670.22 32.4773C1669.83 32.7538 1669.55 33.0795 1669.39 33.4545L1668.43 33.108C1668.63 32.6307 1668.9 32.25 1669.25 31.9659C1669.6 31.678 1669.99 31.4716 1670.42 31.3466C1670.86 31.2178 1671.29 31.1534 1671.74 31.1534C1672.07 31.1534 1672.42 31.197 1672.78 31.2841C1673.14 31.3712 1673.48 31.5227 1673.79 31.7386C1674.1 31.9508 1674.35 32.2481 1674.54 32.6307C1674.74 33.0095 1674.83 33.4905 1674.83 34.0739V40H1673.82V38.6193H1673.76C1673.64 38.8769 1673.46 39.1269 1673.22 39.3693C1672.98 39.6117 1672.68 39.8106 1672.32 39.9659C1671.96 40.1212 1671.54 40.1989 1671.05 40.1989ZM1671.19 39.2727C1671.73 39.2727 1672.19 39.1534 1672.59 38.9148C1672.98 38.6761 1673.29 38.3598 1673.5 37.9659C1673.71 37.5682 1673.82 37.1307 1673.82 36.6534V35.392C1673.75 35.464 1673.62 35.5284 1673.44 35.5852C1673.27 35.642 1673.06 35.6932 1672.83 35.7386C1672.61 35.7803 1672.38 35.8163 1672.15 35.8466C1671.92 35.8769 1671.72 35.9034 1671.54 35.9261C1671.04 35.9867 1670.62 36.0814 1670.28 36.2102C1669.93 36.339 1669.66 36.517 1669.47 36.7443C1669.29 36.9678 1669.2 37.2557 1669.2 37.608C1669.2 38.1383 1669.39 38.5492 1669.76 38.8409C1670.14 39.1288 1670.62 39.2727 1671.19 39.2727ZM1688.78 31.2727L1685.59 40H1684.51L1681.32 31.2727H1682.42L1685.01 38.6648H1685.09L1687.68 31.2727H1688.78ZM1697.44 30.5625H1698.39C1698.39 31.3655 1698.22 31.9981 1697.88 32.4602C1697.54 32.9186 1696.96 33.1553 1696.13 33.1705V32.4148C1696.49 32.4034 1696.77 32.3239 1696.96 32.1761C1697.15 32.0246 1697.27 31.8125 1697.34 31.5398C1697.4 31.267 1697.44 30.9413 1697.44 30.5625ZM1693.84 40.1818C1693.08 40.1818 1692.42 39.9905 1691.84 39.608C1691.26 39.2254 1690.81 38.697 1690.48 38.0227C1690.16 37.3447 1690 36.5625 1690 35.6761C1690 34.7822 1690.16 33.9962 1690.48 33.3182C1690.81 32.6364 1691.26 32.1061 1691.84 31.7273C1692.42 31.3447 1693.08 31.1534 1693.84 31.1534C1694.59 31.1534 1695.26 31.3447 1695.83 31.7273C1696.41 32.1098 1696.86 32.6402 1697.18 33.3182C1697.51 33.9962 1697.68 34.7822 1697.68 35.6761C1697.68 36.5625 1697.51 37.3447 1697.19 38.0227C1696.86 38.697 1696.41 39.2254 1695.83 39.608C1695.26 39.9905 1694.59 40.1818 1693.84 40.1818ZM1693.84 39.2557C1694.44 39.2557 1694.96 39.0928 1695.38 38.767C1695.8 38.4413 1696.12 38.0076 1696.33 37.4659C1696.55 36.9242 1696.66 36.3277 1696.66 35.6761C1696.66 35.0246 1696.55 34.4261 1696.33 33.8807C1696.12 33.3352 1695.8 32.8977 1695.38 32.5682C1694.96 32.2386 1694.44 32.0739 1693.84 32.0739C1693.23 32.0739 1692.72 32.2386 1692.3 32.5682C1691.88 32.8977 1691.56 33.3352 1691.34 33.8807C1691.12 34.4261 1691.01 35.0246 1691.01 35.6761C1691.01 36.3277 1691.12 36.9242 1691.34 37.4659C1691.56 38.0076 1691.88 38.4413 1692.3 38.767C1692.72 39.0928 1693.23 39.2557 1693.84 39.2557ZM1693.37 30.0625L1694.82 27.483H1696.02L1694.27 30.0625H1693.37ZM1699.85 40V31.2727H1700.86V40H1699.85ZM1700.36 29.7727C1700.16 29.7727 1699.98 29.7027 1699.83 29.5625C1699.68 29.4186 1699.61 29.2462 1699.61 29.0455C1699.61 28.8447 1699.68 28.6742 1699.83 28.5341C1699.98 28.3902 1700.16 28.3182 1700.36 28.3182C1700.57 28.3182 1700.75 28.3902 1700.9 28.5341C1701.05 28.6742 1701.12 28.8447 1701.12 29.0455C1701.12 29.2462 1701.05 29.4186 1700.9 29.5625C1700.75 29.7027 1700.57 29.7727 1700.36 29.7727ZM1711.18 40.1818C1710.46 40.1818 1709.84 39.9924 1709.3 39.6136C1708.76 39.2348 1708.34 38.7064 1708.04 38.0284C1707.74 37.3504 1707.59 36.5606 1707.59 35.6591C1707.59 34.7614 1707.74 33.9754 1708.04 33.3011C1708.34 32.6231 1708.76 32.0966 1709.31 31.7216C1709.85 31.3428 1710.48 31.1534 1711.2 31.1534C1711.73 31.1534 1712.17 31.2481 1712.52 31.4375C1712.87 31.6231 1713.16 31.8542 1713.37 32.1307C1713.58 32.4072 1713.74 32.6761 1713.86 32.9375H1713.95V28.3636H1714.97V40H1713.98V38.3807H1713.86C1713.74 38.6458 1713.58 38.9186 1713.36 39.1989C1713.15 39.4754 1712.86 39.7083 1712.5 39.8977C1712.15 40.0871 1711.71 40.1818 1711.18 40.1818ZM1711.3 39.2557C1711.86 39.2557 1712.35 39.1023 1712.74 38.7955C1713.14 38.4848 1713.44 38.0587 1713.65 37.517C1713.86 36.9716 1713.97 36.3466 1713.97 35.642C1713.97 34.9451 1713.87 34.3295 1713.66 33.7955C1713.45 33.2576 1713.15 32.8371 1712.75 32.5341C1712.35 32.2273 1711.87 32.0739 1711.3 32.0739C1710.72 32.0739 1710.22 32.233 1709.82 32.5511C1709.42 32.8655 1709.12 33.2917 1708.91 33.8295C1708.71 34.3674 1708.61 34.9716 1708.61 35.642C1708.61 36.3201 1708.71 36.9318 1708.92 37.4773C1709.13 38.0227 1709.43 38.4564 1709.83 38.7784C1710.23 39.0966 1710.72 39.2557 1711.3 39.2557ZM1711.54 30.4091V29.5909H1716.31V30.4091H1711.54ZM1718.41 40V31.2727H1719.43V40H1718.41ZM1718.93 29.7727C1718.72 29.7727 1718.54 29.7027 1718.39 29.5625C1718.24 29.4186 1718.17 29.2462 1718.17 29.0455C1718.17 28.8447 1718.24 28.6742 1718.39 28.5341C1718.54 28.3902 1718.72 28.3182 1718.93 28.3182C1719.13 28.3182 1719.31 28.3902 1719.46 28.5341C1719.61 28.6742 1719.68 28.8447 1719.68 29.0455C1719.68 29.2462 1719.61 29.4186 1719.46 29.5625C1719.31 29.7027 1719.13 29.7727 1718.93 29.7727ZM1727.61 28.3636V40H1726.6V28.3636H1727.61ZM1735.83 36.6648V31.2727H1736.85V40H1735.83V38.5511H1735.75C1735.55 38.9981 1735.23 39.3712 1734.78 39.6705C1734.34 39.9659 1733.8 40.1136 1733.16 40.1136C1732.6 40.1136 1732.11 39.9924 1731.67 39.75C1731.24 39.5038 1730.9 39.1439 1730.66 38.6705C1730.41 38.197 1730.29 37.6155 1730.29 36.9261V31.2727H1731.3V36.8636C1731.3 37.5455 1731.5 38.0947 1731.9 38.5114C1732.3 38.9242 1732.82 39.1307 1733.45 39.1307C1733.84 39.1307 1734.22 39.036 1734.58 38.8466C1734.95 38.6572 1735.25 38.3807 1735.48 38.017C1735.72 37.6496 1735.83 37.1989 1735.83 36.6648ZM1733.14 30.0625L1731.4 27.483H1732.6L1734.05 30.0625H1733.14ZM1739.53 40V31.2727H1740.55V40H1739.53ZM1740.05 29.7727C1739.84 29.7727 1739.66 29.7027 1739.52 29.5625C1739.37 29.4186 1739.3 29.2462 1739.3 29.0455C1739.3 28.8447 1739.37 28.6742 1739.52 28.5341C1739.66 28.3902 1739.84 28.3182 1740.05 28.3182C1740.26 28.3182 1740.44 28.3902 1740.59 28.5341C1740.73 28.6742 1740.81 28.8447 1740.81 29.0455C1740.81 29.2462 1740.73 29.4186 1740.59 29.5625C1740.44 29.7027 1740.26 29.7727 1740.05 29.7727Z" fill="white"/>
<path d="M1282.67 35C1282.67 37.9455 1285.05 40.3333 1288 40.3333C1290.95 40.3333 1293.33 37.9455 1293.33 35C1293.33 32.0545 1290.95 29.6667 1288 29.6667C1285.05 29.6667 1282.67 32.0545 1282.67 35ZM1265 36H1288V34H1265V36Z" fill="url(#paint1_linear_2014_706)"/>
<circle cx="1233" cy="35" r="35" fill="url(#paint2_linear_2014_706)"/>
<circle cx="1233" cy="35" r="27" fill="white"/>
<path d="M1224.02 44.36C1222 44.36 1220.26 43.976 1218.79 43.208C1217.33 42.424 1216.2 41.328 1215.4 39.92C1214.6 38.512 1214.2 36.872 1214.2 35C1214.2 33.128 1214.6 31.488 1215.4 30.08C1216.2 28.672 1217.33 27.584 1218.79 26.816C1220.26 26.032 1222 25.64 1224.02 25.64C1226.02 25.64 1227.75 26.032 1229.2 26.816C1230.67 27.584 1231.81 28.672 1232.61 30.08C1233.41 31.488 1233.81 33.128 1233.81 35C1233.81 36.872 1233.41 38.512 1232.61 39.92C1231.81 41.328 1230.67 42.424 1229.2 43.208C1227.75 43.976 1226.02 44.36 1224.02 44.36ZM1224.02 41.048C1225.83 41.048 1227.23 40.52 1228.22 39.464C1229.23 38.392 1229.73 36.904 1229.73 35C1229.73 33.08 1229.23 31.592 1228.22 30.536C1227.23 29.48 1225.83 28.952 1224.02 28.952C1222.21 28.952 1220.8 29.48 1219.79 30.536C1218.79 31.592 1218.28 33.08 1218.28 35C1218.28 36.92 1218.79 38.408 1219.79 39.464C1220.8 40.52 1222.21 41.048 1224.02 41.048ZM1237.92 26H1251.55V29.12H1239.17L1240.82 28.28L1239.81 35.312H1238.73C1239.1 34.736 1239.59 34.2 1240.2 33.704C1240.82 33.208 1241.58 32.808 1242.48 32.504C1243.37 32.2 1244.41 32.048 1245.57 32.048C1247.13 32.048 1248.45 32.312 1249.56 32.84C1250.66 33.352 1251.5 34.064 1252.08 34.976C1252.67 35.872 1252.97 36.896 1252.97 38.048C1252.97 39.28 1252.62 40.368 1251.93 41.312C1251.25 42.256 1250.27 43 1249.01 43.544C1247.74 44.088 1246.24 44.36 1244.49 44.36C1242.77 44.36 1241.26 44.112 1239.98 43.616C1238.7 43.104 1237.69 42.408 1236.96 41.528C1236.24 40.648 1235.81 39.672 1235.69 38.6H1239.74C1239.93 39.384 1240.44 40.008 1241.25 40.472C1242.07 40.92 1243.15 41.144 1244.49 41.144C1245.39 41.144 1246.17 41.024 1246.82 40.784C1247.48 40.528 1247.98 40.168 1248.33 39.704C1248.7 39.24 1248.89 38.688 1248.89 38.048C1248.89 37.424 1248.73 36.88 1248.41 36.416C1248.1 35.936 1247.64 35.568 1247.01 35.312C1246.41 35.056 1245.63 34.928 1244.69 34.928C1243.92 34.928 1243.22 35.016 1242.6 35.192C1241.99 35.368 1241.46 35.6 1241.01 35.888C1240.58 36.16 1240.21 36.448 1239.91 36.752H1236.43L1237.92 26Z" fill="#000C74"/>
<defs>
<linearGradient id="paint0_linear_2014_706" x1="1288" y1="34.5" x2="1758" y2="34.5" gradientUnits="userSpaceOnUse">
<stop stop-color="#00A93C"/>
<stop offset="1" stop-color="#24CBFF"/>
</linearGradient>
<linearGradient id="paint1_linear_2014_706" x1="1265" y1="35.5" x2="1288" y2="35.5" gradientUnits="userSpaceOnUse">
<stop stop-color="#00A93C"/>
<stop offset="1" stop-color="#24CBFF"/>
</linearGradient>
<linearGradient id="paint2_linear_2014_706" x1="1198" y1="35" x2="1268" y2="35" gradientUnits="userSpaceOnUse">
<stop stop-color="#00A93C"/>
<stop offset="1" stop-color="#000C74"/>
</linearGradient>
</defs>
</svg>
