<svg width="100%" viewBox="0 0 1320 126" fill="none" xmlns="http://www.w3.org/2000/svg">
<path d="M912.04 18.176C912.024 19.296 911.808 20.352 911.392 21.344C910.976 22.32 910.384 23.184 909.616 23.936C908.848 24.688 907.912 25.28 906.808 25.712C905.72 26.128 904.472 26.336 903.064 26.336C901.64 26.336 900.32 26.12 899.104 25.688C897.888 25.256 896.824 24.64 895.912 23.84C895.016 23.024 894.32 22.04 893.824 20.888C893.328 19.736 893.08 18.44 893.08 17C893.08 15.56 893.328 14.264 893.824 13.112C894.336 11.96 895.048 10.984 895.96 10.184C896.872 9.368 897.944 8.744 899.176 8.312C900.408 7.88 901.76 7.664 903.232 7.664C905.072 7.664 906.68 7.968 908.056 8.576C909.448 9.168 910.568 9.984 911.416 11.024C912.264 12.064 912.784 13.256 912.976 14.6H909.76C909.584 13.752 909.2 13.016 908.608 12.392C908.032 11.768 907.288 11.288 906.376 10.952C905.464 10.616 904.408 10.448 903.208 10.448C901.8 10.448 900.576 10.712 899.536 11.24C898.512 11.752 897.712 12.496 897.136 13.472C896.576 14.448 896.296 15.624 896.296 17C896.296 18.376 896.584 19.56 897.16 20.552C897.752 21.544 898.584 22.304 899.656 22.832C900.728 23.36 901.992 23.624 903.448 23.624C904.856 23.624 906.088 23.384 907.144 22.904C908.2 22.424 909.032 21.76 909.64 20.912C910.248 20.048 910.576 19.048 910.624 17.912L912.04 18.176ZM904.072 19.544V17.144H913.168V26H910.816L910.432 18.536L911.176 19.544H904.072ZM916.727 8H919.895V26H916.727V8ZM926.322 21.872V19.256H938.898V21.872H926.322ZM934.674 8L943.314 26H939.93L932.082 9.2H933.306L925.458 26H922.074L930.714 8H934.674ZM934.026 2.888H937.722L933.786 6.536H930.522L934.026 2.888ZM955.887 9.464H959.055V26H955.887V9.464ZM948.447 8H966.495V10.784H948.447V8ZM971.107 16.112H978.427C979.483 16.112 980.315 15.872 980.923 15.392C981.547 14.912 981.859 14.256 981.859 13.424C981.859 12.576 981.547 11.92 980.923 11.456C980.315 10.976 979.483 10.736 978.427 10.736H970.651L972.067 8.96V26H968.899V8H978.715C979.979 8 981.083 8.232 982.027 8.696C982.987 9.144 983.731 9.776 984.259 10.592C984.803 11.392 985.075 12.336 985.075 13.424C985.075 14.48 984.803 15.416 984.259 16.232C983.731 17.032 982.987 17.664 982.027 18.128C981.083 18.576 979.979 18.8 978.715 18.8H971.107V16.112ZM974.659 17.576H978.379L985.531 26H981.739L974.659 17.576ZM988.352 8H991.52V26H988.352V8ZM989.936 30.944C989.344 30.944 988.856 30.776 988.472 30.44C988.088 30.12 987.896 29.696 987.896 29.168C987.896 28.64 988.088 28.208 988.472 27.872C988.856 27.552 989.344 27.392 989.936 27.392C990.544 27.392 991.032 27.552 991.4 27.872C991.784 28.208 991.976 28.64 991.976 29.168C991.976 29.696 991.784 30.12 991.4 30.44C991.032 30.776 990.544 30.944 989.936 30.944ZM1020.88 18.872C1020.72 20.344 1020.2 21.648 1019.32 22.784C1018.46 23.904 1017.32 24.776 1015.91 25.4C1014.51 26.024 1012.9 26.336 1011.09 26.336C1009.07 26.336 1007.31 25.944 1005.79 25.16C1004.27 24.376 1003.08 23.288 1002.23 21.896C1001.39 20.488 1000.96 18.856 1000.96 17C1000.96 15.144 1001.39 13.52 1002.23 12.128C1003.08 10.72 1004.27 9.624 1005.79 8.84C1007.31 8.056 1009.07 7.664 1011.09 7.664C1012.9 7.664 1014.51 7.976 1015.91 8.6C1017.32 9.224 1018.46 10.096 1019.32 11.216C1020.2 12.336 1020.72 13.64 1020.88 15.128H1017.69C1017.51 14.168 1017.13 13.344 1016.54 12.656C1015.96 11.968 1015.21 11.44 1014.28 11.072C1013.35 10.688 1012.28 10.496 1011.07 10.496C1009.66 10.496 1008.43 10.76 1007.39 11.288C1006.37 11.816 1005.58 12.568 1005.02 13.544C1004.46 14.52 1004.18 15.672 1004.18 17C1004.18 18.328 1004.46 19.48 1005.02 20.456C1005.58 21.432 1006.37 22.184 1007.39 22.712C1008.43 23.24 1009.66 23.504 1011.07 23.504C1012.28 23.504 1013.35 23.32 1014.28 22.952C1015.21 22.584 1015.96 22.056 1016.54 21.368C1017.13 20.664 1017.51 19.832 1017.69 18.872H1020.88ZM1033.15 26.336C1031.1 26.336 1029.3 25.944 1027.75 25.16C1026.2 24.376 1024.99 23.288 1024.13 21.896C1023.26 20.488 1022.83 18.856 1022.83 17C1022.83 15.144 1023.26 13.52 1024.13 12.128C1024.99 10.72 1026.2 9.624 1027.75 8.84C1029.3 8.056 1031.1 7.664 1033.15 7.664C1035.2 7.664 1037 8.056 1038.55 8.84C1040.1 9.624 1041.31 10.72 1042.17 12.128C1043.04 13.52 1043.47 15.144 1043.47 17C1043.47 18.856 1043.04 20.488 1042.17 21.896C1041.31 23.288 1040.1 24.376 1038.55 25.16C1037 25.944 1035.2 26.336 1033.15 26.336ZM1033.15 23.504C1034.61 23.504 1035.86 23.24 1036.92 22.712C1037.97 22.184 1038.79 21.432 1039.37 20.456C1039.96 19.48 1040.25 18.328 1040.25 17C1040.25 15.672 1039.96 14.52 1039.37 13.544C1038.79 12.568 1037.97 11.816 1036.92 11.288C1035.86 10.76 1034.61 10.496 1033.15 10.496C1031.71 10.496 1030.45 10.76 1029.38 11.288C1028.33 11.816 1027.5 12.568 1026.91 13.544C1026.33 14.52 1026.05 15.672 1026.05 17C1026.05 18.328 1026.33 19.48 1026.91 20.456C1027.5 21.432 1028.33 22.184 1029.38 22.712C1030.45 23.24 1031.71 23.504 1033.15 23.504ZM1038.29 0.247998H1041.31L1038.81 3.56H1036.29L1038.29 0.247998ZM1031.4 2.888H1034.9L1038.45 6.536H1035.6L1032.48 4.04H1033.82L1030.7 6.536H1027.87L1031.4 2.888ZM1051.42 9.464H1054.59V26H1051.42V9.464ZM1043.98 8H1062.03V10.784H1043.98V8ZM1073.11 8V24.584L1071.69 23.216H1085.25V26H1069.94V8H1073.11ZM1095.96 26.336C1093.91 26.336 1092.11 25.944 1090.56 25.16C1089.01 24.376 1087.8 23.288 1086.94 21.896C1086.07 20.488 1085.64 18.856 1085.64 17C1085.64 15.144 1086.07 13.52 1086.94 12.128C1087.8 10.72 1089.01 9.624 1090.56 8.84C1092.11 8.056 1093.91 7.664 1095.96 7.664C1098.01 7.664 1099.81 8.056 1101.36 8.84C1102.91 9.624 1104.12 10.72 1104.99 12.128C1105.85 13.52 1106.28 15.144 1106.28 17C1106.28 18.856 1105.85 20.488 1104.99 21.896C1104.12 23.288 1102.91 24.376 1101.36 25.16C1099.81 25.944 1098.01 26.336 1095.96 26.336ZM1095.96 23.504C1097.42 23.504 1098.67 23.24 1099.73 22.712C1100.79 22.184 1101.6 21.432 1102.18 20.456C1102.77 19.48 1103.07 18.328 1103.07 17C1103.07 15.672 1102.77 14.52 1102.18 13.544C1101.6 12.568 1100.79 11.816 1099.73 11.288C1098.67 10.76 1097.42 10.496 1095.96 10.496C1094.52 10.496 1093.27 10.76 1092.19 11.288C1091.14 11.816 1090.31 12.568 1089.72 13.544C1089.15 14.52 1088.86 15.672 1088.86 17C1088.86 18.328 1089.15 19.48 1089.72 20.456C1090.31 21.432 1091.14 22.184 1092.19 22.712C1093.27 23.24 1094.52 23.504 1095.96 23.504ZM1090.25 6.368C1090.36 5.328 1090.7 4.496 1091.26 3.872C1091.82 3.232 1092.61 2.912 1093.63 2.912C1094.07 2.912 1094.49 2.984 1094.91 3.128C1095.32 3.256 1095.72 3.408 1096.11 3.584C1096.51 3.744 1096.87 3.896 1097.21 4.04C1097.56 4.168 1097.88 4.232 1098.17 4.232C1098.54 4.232 1098.83 4.128 1099.06 3.92C1099.28 3.696 1099.42 3.384 1099.47 2.984H1101.65C1101.54 4.024 1101.19 4.864 1100.62 5.504C1100.06 6.128 1099.27 6.44 1098.27 6.44C1097.83 6.44 1097.41 6.376 1096.99 6.248C1096.58 6.104 1096.18 5.952 1095.79 5.792C1095.41 5.616 1095.04 5.464 1094.69 5.336C1094.34 5.192 1094.02 5.12 1093.73 5.12C1093.38 5.12 1093.08 5.232 1092.84 5.456C1092.62 5.664 1092.48 5.968 1092.43 6.368H1090.25ZM1109.36 8H1112.53V26H1109.36V8ZM1122.31 16.352H1134.95V18.752H1122.31V16.352ZM910.696 54.08L909.4 54.224V38H912.472V56H908.44L895.816 39.776L897.088 39.632V56H894.016V38H898.144L910.696 54.08ZM934.517 48.176C934.501 49.296 934.285 50.352 933.869 51.344C933.453 52.32 932.861 53.184 932.093 53.936C931.325 54.688 930.389 55.28 929.285 55.712C928.197 56.128 926.949 56.336 925.541 56.336C924.117 56.336 922.797 56.12 921.581 55.688C920.365 55.256 919.301 54.64 918.389 53.84C917.493 53.024 916.797 52.04 916.301 50.888C915.805 49.736 915.557 48.44 915.557 47C915.557 45.56 915.805 44.264 916.301 43.112C916.813 41.96 917.525 40.984 918.437 40.184C919.349 39.368 920.421 38.744 921.653 38.312C922.885 37.88 924.237 37.664 925.709 37.664C927.549 37.664 929.157 37.968 930.533 38.576C931.925 39.168 933.045 39.984 933.893 41.024C934.741 42.064 935.261 43.256 935.453 44.6H932.237C932.061 43.752 931.677 43.016 931.085 42.392C930.509 41.768 929.765 41.288 928.853 40.952C927.941 40.616 926.885 40.448 925.685 40.448C924.277 40.448 923.053 40.712 922.013 41.24C920.989 41.752 920.189 42.496 919.613 43.472C919.053 44.448 918.773 45.624 918.773 47C918.773 48.376 919.061 49.56 919.637 50.552C920.229 51.544 921.061 52.304 922.133 52.832C923.205 53.36 924.469 53.624 925.925 53.624C927.333 53.624 928.565 53.384 929.621 52.904C930.677 52.424 931.509 51.76 932.117 50.912C932.725 50.048 933.053 49.048 933.101 47.912L934.517 48.176ZM926.549 49.544V47.144H935.645V56H933.293L932.909 48.536L933.653 49.544H926.549ZM942.132 48.272C942.132 49.344 942.348 50.272 942.78 51.056C943.212 51.84 943.828 52.448 944.628 52.88C945.444 53.296 946.412 53.504 947.532 53.504C948.668 53.504 949.636 53.296 950.436 52.88C951.236 52.448 951.852 51.84 952.284 51.056C952.716 50.272 952.932 49.344 952.932 48.272V38H956.1V48.392C956.1 49.976 955.74 51.368 955.02 52.568C954.3 53.752 953.3 54.68 952.02 55.352C950.74 56.008 949.244 56.336 947.532 56.336C945.836 56.336 944.34 56.008 943.044 55.352C941.764 54.68 940.764 53.752 940.044 52.568C939.324 51.368 938.964 49.976 938.964 48.392V38H942.132V48.272ZM966.763 56V47.408H969.931V56H966.763ZM958.267 38H961.843L969.187 47.216H967.483L974.827 38H978.403L969.355 49.352L967.339 49.376L958.267 38ZM995.181 45.68V48.32H982.605V45.68H995.181ZM984.693 47L983.421 55.04L981.909 53.264H995.877V56H980.181L981.621 47L980.181 38H995.757V40.736H981.909L983.421 38.96L984.693 47ZM986.301 32.888H989.805L993.357 36.536H990.501L987.381 34.04H988.725L985.605 36.536H982.773L986.301 32.888ZM1015.86 54.08L1014.56 54.224V38H1017.64V56H1013.6L1000.98 39.776L1002.25 39.632V56H999.18V38H1003.31L1015.86 54.08ZM1032.97 39.464H1036.14V56H1032.97V39.464ZM1025.53 38H1043.58V40.784H1025.53V38ZM1045.24 51.872V49.256H1057.82V51.872H1045.24ZM1053.6 38L1062.24 56H1058.85L1051 39.2H1052.23L1044.38 56H1041L1049.64 38H1053.6ZM1052.18 29.288H1055.2L1052.71 32.6H1050.19L1052.18 29.288ZM1046.44 32.84H1048.94C1049.13 33.4 1049.44 33.84 1049.88 34.16C1050.32 34.464 1050.9 34.616 1051.6 34.616C1052.31 34.616 1052.88 34.464 1053.33 34.16C1053.78 33.84 1054.1 33.4 1054.29 32.84H1056.79C1056.48 34.088 1055.88 35.04 1054.96 35.696C1054.05 36.336 1052.93 36.656 1051.6 36.656C1050.29 36.656 1049.17 36.336 1048.24 35.696C1047.33 35.04 1046.73 34.088 1046.44 32.84ZM1082.43 48.872C1082.27 50.344 1081.75 51.648 1080.87 52.784C1080.01 53.904 1078.87 54.776 1077.46 55.4C1076.05 56.024 1074.45 56.336 1072.64 56.336C1070.62 56.336 1068.85 55.944 1067.33 55.16C1065.81 54.376 1064.63 53.288 1063.78 51.896C1062.93 50.488 1062.51 48.856 1062.51 47C1062.51 45.144 1062.93 43.52 1063.78 42.128C1064.63 40.72 1065.81 39.624 1067.33 38.84C1068.85 38.056 1070.62 37.664 1072.64 37.664C1074.45 37.664 1076.05 37.976 1077.46 38.6C1078.87 39.224 1080.01 40.096 1080.87 41.216C1081.75 42.336 1082.27 43.64 1082.43 45.128H1079.24C1079.06 44.168 1078.68 43.344 1078.09 42.656C1077.51 41.968 1076.76 41.44 1075.83 41.072C1074.9 40.688 1073.83 40.496 1072.61 40.496C1071.21 40.496 1069.98 40.76 1068.94 41.288C1067.92 41.816 1067.13 42.568 1066.57 43.544C1066.01 44.52 1065.73 45.672 1065.73 47C1065.73 48.328 1066.01 49.48 1066.57 50.456C1067.13 51.432 1067.92 52.184 1068.94 52.712C1069.98 53.24 1071.21 53.504 1072.61 53.504C1073.83 53.504 1074.9 53.32 1075.83 52.952C1076.76 52.584 1077.51 52.056 1078.09 51.368C1078.68 50.664 1079.06 49.832 1079.24 48.872H1082.43ZM1100.16 54.656H1098.67L1106.42 38H1109.81L1101.12 56H1097.59L1088.9 38H1092.31L1100.16 54.656ZM1111.46 51.872V49.256H1124.03V51.872H1111.46ZM1119.81 38L1128.45 56H1125.06L1117.22 39.2H1118.44L1110.59 56H1107.21L1115.85 38H1119.81ZM1112.66 32.84H1115.15C1115.34 33.4 1115.66 33.84 1116.09 34.16C1116.54 34.464 1117.11 34.616 1117.82 34.616C1118.52 34.616 1119.1 34.464 1119.54 34.16C1119.99 33.84 1120.31 33.4 1120.5 32.84H1123C1122.7 34.088 1122.09 35.04 1121.18 35.696C1120.26 36.336 1119.14 36.656 1117.82 36.656C1116.5 36.656 1115.38 36.336 1114.46 35.696C1113.54 35.04 1112.94 34.088 1112.66 32.84ZM1147.32 54.08L1146.03 54.224V38H1149.1V56H1145.07L1132.44 39.776L1133.71 39.632V56H1130.64V38H1134.77L1147.32 54.08ZM1159.47 38H1162.64V56H1159.47V38ZM1174.11 38H1177.28V56H1174.11V38ZM1161.17 45.536H1175.62V48.32H1161.17V45.536ZM1190.67 56.336C1188.62 56.336 1186.82 55.944 1185.27 55.16C1183.72 54.376 1182.51 53.288 1181.65 51.896C1180.78 50.488 1180.35 48.856 1180.35 47C1180.35 45.144 1180.78 43.52 1181.65 42.128C1182.51 40.72 1183.72 39.624 1185.27 38.84C1186.82 38.056 1188.62 37.664 1190.67 37.664C1192.72 37.664 1194.52 38.056 1196.07 38.84C1197.62 39.624 1198.83 40.72 1199.7 42.128C1200.56 43.52 1200.99 45.144 1200.99 47C1200.99 48.856 1200.56 50.488 1199.7 51.896C1198.83 53.288 1197.62 54.376 1196.07 55.16C1194.52 55.944 1192.72 56.336 1190.67 56.336ZM1190.67 53.504C1192.13 53.504 1193.38 53.24 1194.44 52.712C1195.5 52.184 1196.31 51.432 1196.89 50.456C1197.48 49.48 1197.78 48.328 1197.78 47C1197.78 45.672 1197.48 44.52 1196.89 43.544C1196.31 42.568 1195.5 41.816 1194.44 41.288C1193.38 40.76 1192.13 40.496 1190.67 40.496C1189.23 40.496 1187.98 40.76 1186.9 41.288C1185.85 41.816 1185.02 42.568 1184.43 43.544C1183.86 44.52 1183.57 45.672 1183.57 47C1183.57 48.328 1183.86 49.48 1184.43 50.456C1185.02 51.432 1185.85 52.184 1186.9 52.712C1187.98 53.24 1189.23 53.504 1190.67 53.504ZM1191.99 32.888H1195.69L1191.75 36.536H1188.49L1191.99 32.888ZM1205.49 51.872V49.256H1218.06V51.872H1205.49ZM1213.84 38L1222.48 56H1219.09L1211.25 39.2H1212.47L1204.62 56H1201.24L1209.88 38H1213.84Z" fill="#24CBFF"/>
<path d="M892.841 91.3182V90.3636H901.278V91.3182H897.591V102H896.528V91.3182H892.841ZM902.554 102V93.2727H903.537V94.6136H903.611C903.785 94.1742 904.088 93.8201 904.52 93.5511C904.955 93.2784 905.448 93.142 905.997 93.142C906.08 93.142 906.173 93.1439 906.276 93.1477C906.378 93.1515 906.463 93.1553 906.531 93.1591V94.1875C906.486 94.1799 906.406 94.1686 906.293 94.1534C906.179 94.1383 906.056 94.1307 905.923 94.1307C905.469 94.1307 905.063 94.2273 904.707 94.4205C904.355 94.6098 904.077 94.8731 903.872 95.2102C903.668 95.5473 903.565 95.9318 903.565 96.3636V102H902.554ZM911.384 102.182C910.63 102.182 909.963 101.991 909.384 101.608C908.808 101.225 908.357 100.697 908.031 100.023C907.705 99.3447 907.543 98.5625 907.543 97.6761C907.543 96.7822 907.705 95.9962 908.031 95.3182C908.357 94.6364 908.808 94.1061 909.384 93.7273C909.963 93.3447 910.63 93.1534 911.384 93.1534C912.137 93.1534 912.802 93.3447 913.378 93.7273C913.954 94.1098 914.404 94.6402 914.73 95.3182C915.06 95.9962 915.224 96.7822 915.224 97.6761C915.224 98.5625 915.062 99.3447 914.736 100.023C914.41 100.697 913.957 101.225 913.378 101.608C912.802 101.991 912.137 102.182 911.384 102.182ZM911.384 101.256C911.99 101.256 912.503 101.093 912.923 100.767C913.344 100.441 913.662 100.008 913.878 99.4659C914.098 98.9242 914.207 98.3277 914.207 97.6761C914.207 97.0246 914.098 96.4261 913.878 95.8807C913.662 95.3352 913.344 94.8977 912.923 94.5682C912.503 94.2386 911.99 94.0739 911.384 94.0739C910.781 94.0739 910.268 94.2386 909.844 94.5682C909.423 94.8977 909.103 95.3352 908.884 95.8807C908.668 96.4261 908.56 97.0246 908.56 97.6761C908.56 98.3277 908.668 98.9242 908.884 99.4659C909.103 100.008 909.423 100.441 909.844 100.767C910.264 101.093 910.777 101.256 911.384 101.256ZM918.456 96.5455V102H917.445V93.2727H918.428V94.642H918.518C918.723 94.1951 919.041 93.8371 919.473 93.5682C919.909 93.2955 920.446 93.1591 921.087 93.1591C921.674 93.1591 922.189 93.2822 922.632 93.5284C923.079 93.7708 923.426 94.1288 923.672 94.6023C923.922 95.0758 924.047 95.6572 924.047 96.3466V102H923.036V96.4091C923.036 95.6932 922.835 95.1269 922.433 94.7102C922.036 94.2936 921.501 94.0852 920.831 94.0852C920.373 94.0852 919.965 94.1837 919.609 94.3807C919.253 94.5777 918.971 94.8617 918.763 95.233C918.558 95.6004 918.456 96.0379 918.456 96.5455ZM930.04 105.455C929.445 105.455 928.924 105.377 928.477 105.222C928.03 105.07 927.653 104.862 927.347 104.597C927.04 104.331 926.801 104.034 926.631 103.705L927.46 103.159C927.585 103.379 927.752 103.595 927.96 103.807C928.172 104.019 928.447 104.195 928.784 104.335C929.125 104.475 929.544 104.545 930.04 104.545C930.813 104.545 931.436 104.352 931.909 103.966C932.386 103.58 932.625 102.979 932.625 102.165V100.199H932.534C932.417 100.464 932.248 100.729 932.028 100.994C931.809 101.256 931.521 101.473 931.165 101.648C930.813 101.822 930.375 101.909 929.852 101.909C929.155 101.909 928.536 101.737 927.994 101.392C927.456 101.047 927.032 100.555 926.722 99.9148C926.415 99.2708 926.261 98.5038 926.261 97.6136C926.261 96.7311 926.411 95.9545 926.71 95.2841C927.013 94.6136 927.436 94.0909 927.977 93.7159C928.519 93.3409 929.15 93.1534 929.869 93.1534C930.403 93.1534 930.847 93.2481 931.199 93.4375C931.551 93.6231 931.833 93.8542 932.045 94.1307C932.261 94.4072 932.43 94.6761 932.551 94.9375H932.653V93.2727H933.642V102.227C933.642 102.966 933.485 103.574 933.17 104.051C932.856 104.528 932.428 104.881 931.886 105.108C931.345 105.339 930.729 105.455 930.04 105.455ZM929.972 100.983C930.532 100.983 931.011 100.848 931.409 100.58C931.807 100.307 932.112 99.9167 932.324 99.4091C932.536 98.9015 932.642 98.2973 932.642 97.5966C932.642 96.9148 932.538 96.3106 932.33 95.7841C932.121 95.2538 931.818 94.8371 931.42 94.5341C931.027 94.2273 930.544 94.0739 929.972 94.0739C929.388 94.0739 928.896 94.2311 928.494 94.5455C928.093 94.8598 927.79 95.2841 927.585 95.8182C927.381 96.3485 927.278 96.9413 927.278 97.5966C927.278 98.2633 927.383 98.8523 927.591 99.3636C927.799 99.8712 928.104 100.269 928.506 100.557C928.907 100.841 929.396 100.983 929.972 100.983ZM944.192 96.5455V102H943.181V93.2727H944.164V94.642H944.255C944.459 94.1951 944.777 93.8371 945.209 93.5682C945.645 93.2955 946.183 93.1591 946.823 93.1591C947.41 93.1591 947.925 93.2822 948.368 93.5284C948.815 93.7708 949.162 94.1288 949.408 94.6023C949.658 95.0758 949.783 95.6572 949.783 96.3466V102H948.772V96.4091C948.772 95.6932 948.571 95.1269 948.169 94.7102C947.772 94.2936 947.238 94.0852 946.567 94.0852C946.109 94.0852 945.702 94.1837 945.345 94.3807C944.989 94.5777 944.707 94.8617 944.499 95.233C944.294 95.6004 944.192 96.0379 944.192 96.5455ZM955.776 105.455C955.181 105.455 954.66 105.377 954.213 105.222C953.766 105.07 953.39 104.862 953.083 104.597C952.776 104.331 952.537 104.034 952.367 103.705L953.196 103.159C953.321 103.379 953.488 103.595 953.696 103.807C953.908 104.019 954.183 104.195 954.52 104.335C954.861 104.475 955.28 104.545 955.776 104.545C956.549 104.545 957.172 104.352 957.645 103.966C958.122 103.58 958.361 102.979 958.361 102.165V100.199H958.27C958.153 100.464 957.984 100.729 957.765 100.994C957.545 101.256 957.257 101.473 956.901 101.648C956.549 101.822 956.111 101.909 955.588 101.909C954.891 101.909 954.272 101.737 953.73 101.392C953.193 101.047 952.768 100.555 952.458 99.9148C952.151 99.2708 951.997 98.5038 951.997 97.6136C951.997 96.7311 952.147 95.9545 952.446 95.2841C952.749 94.6136 953.172 94.0909 953.713 93.7159C954.255 93.3409 954.886 93.1534 955.605 93.1534C956.14 93.1534 956.583 93.2481 956.935 93.4375C957.287 93.6231 957.569 93.8542 957.782 94.1307C957.997 94.4072 958.166 94.6761 958.287 94.9375H958.39V93.2727H959.378V102.227C959.378 102.966 959.221 103.574 958.907 104.051C958.592 104.528 958.164 104.881 957.622 105.108C957.081 105.339 956.465 105.455 955.776 105.455ZM955.708 100.983C956.268 100.983 956.747 100.848 957.145 100.58C957.543 100.307 957.848 99.9167 958.06 99.4091C958.272 98.9015 958.378 98.2973 958.378 97.5966C958.378 96.9148 958.274 96.3106 958.066 95.7841C957.857 95.2538 957.554 94.8371 957.157 94.5341C956.763 94.2273 956.28 94.0739 955.708 94.0739C955.124 94.0739 954.632 94.2311 954.23 94.5455C953.829 94.8598 953.526 95.2841 953.321 95.8182C953.117 96.3485 953.015 96.9413 953.015 97.5966C953.015 98.2633 953.119 98.8523 953.327 99.3636C953.535 99.8712 953.84 100.269 954.242 100.557C954.643 100.841 955.132 100.983 955.708 100.983ZM967.601 98.6648V93.2727H968.613V102H967.601V100.551H967.522C967.317 100.998 966.993 101.371 966.55 101.67C966.107 101.966 965.565 102.114 964.925 102.114C964.368 102.114 963.874 101.992 963.442 101.75C963.01 101.504 962.671 101.144 962.425 100.67C962.179 100.197 962.056 99.6155 962.056 98.9261V93.2727H963.067V98.8636C963.067 99.5455 963.268 100.095 963.669 100.511C964.071 100.924 964.586 101.131 965.215 101.131C965.609 101.131 965.988 101.036 966.351 100.847C966.715 100.657 967.014 100.381 967.249 100.017C967.484 99.6496 967.601 99.1989 967.601 98.6648ZM971.995 105.273C971.794 105.273 971.606 105.254 971.432 105.216C971.258 105.178 971.12 105.136 971.017 105.091L971.29 104.199C971.635 104.305 971.942 104.343 972.211 104.312C972.479 104.286 972.718 104.165 972.926 103.949C973.135 103.737 973.32 103.411 973.483 102.972L973.801 102.085L970.591 93.2727H971.688L974.279 100.665H974.358L976.949 93.2727H978.046L974.353 103.381C974.197 103.801 974.006 104.152 973.779 104.432C973.551 104.716 973.288 104.926 972.989 105.062C972.694 105.203 972.362 105.273 971.995 105.273ZM983.24 102.182C982.426 102.182 981.721 101.992 981.127 101.614C980.532 101.231 980.072 100.703 979.746 100.028C979.424 99.3504 979.263 98.5701 979.263 97.6875C979.263 96.8087 979.424 96.0284 979.746 95.3466C980.072 94.661 980.521 94.125 981.093 93.7386C981.668 93.3485 982.333 93.1534 983.087 93.1534C983.56 93.1534 984.017 93.2405 984.456 93.4148C984.896 93.5852 985.29 93.8485 985.638 94.2045C985.99 94.5568 986.269 95.0019 986.473 95.5398C986.678 96.0739 986.78 96.7064 986.78 97.4375V97.9375H979.962V97.0455H985.746C985.746 96.4848 985.632 95.9811 985.405 95.5341C985.182 95.0833 984.869 94.7273 984.468 94.4659C984.07 94.2045 983.61 94.0739 983.087 94.0739C982.534 94.0739 982.047 94.2216 981.627 94.517C981.206 94.8125 980.877 95.2027 980.638 95.6875C980.403 96.1723 980.284 96.7027 980.28 97.2784V97.8125C980.28 98.5057 980.399 99.1117 980.638 99.6307C980.881 100.146 981.223 100.545 981.667 100.83C982.11 101.114 982.634 101.256 983.24 101.256C983.653 101.256 984.015 101.191 984.326 101.062C984.64 100.934 984.903 100.761 985.115 100.545C985.331 100.326 985.494 100.085 985.604 99.8239L986.564 100.136C986.432 100.504 986.214 100.843 985.911 101.153C985.612 101.464 985.237 101.714 984.786 101.903C984.339 102.089 983.824 102.182 983.24 102.182ZM984.394 92.2727L983.036 90.6307L981.678 92.2727H980.689V92.1989L982.61 89.9091H983.462L985.382 92.1989V92.2727H984.394ZM990.02 96.5455V102H989.009V93.2727H989.992V94.642H990.083C990.287 94.1951 990.605 93.8371 991.037 93.5682C991.473 93.2955 992.011 93.1591 992.651 93.1591C993.238 93.1591 993.753 93.2822 994.196 93.5284C994.643 93.7708 994.99 94.1288 995.236 94.6023C995.486 95.0758 995.611 95.6572 995.611 96.3466V102H994.6V96.4091C994.6 95.6932 994.399 95.1269 993.997 94.7102C993.6 94.2936 993.066 94.0852 992.395 94.0852C991.937 94.0852 991.53 94.1837 991.174 94.3807C990.818 94.5777 990.535 94.8617 990.327 95.233C990.122 95.6004 990.02 96.0379 990.02 96.5455ZM1008.57 93.2727V94.1534H1004.41V93.2727H1008.57ZM1005.71 91.1818H1006.73V99.7216C1006.73 100.085 1006.79 100.371 1006.91 100.58C1007.04 100.784 1007.2 100.93 1007.4 101.017C1007.6 101.1 1007.82 101.142 1008.04 101.142C1008.18 101.142 1008.29 101.134 1008.39 101.119C1008.48 101.1 1008.56 101.081 1008.64 101.062L1008.85 101.977C1008.75 102.015 1008.63 102.049 1008.49 102.08C1008.34 102.114 1008.17 102.131 1007.95 102.131C1007.58 102.131 1007.22 102.049 1006.88 101.886C1006.54 101.723 1006.26 101.481 1006.04 101.159C1005.82 100.837 1005.71 100.438 1005.71 99.9602V91.1818ZM1013.31 102.199C1012.78 102.199 1012.3 102.097 1011.86 101.892C1011.43 101.684 1011.08 101.384 1010.82 100.994C1010.57 100.6 1010.44 100.123 1010.44 99.5625C1010.44 99.1307 1010.52 98.767 1010.68 98.4716C1010.85 98.1761 1011.08 97.9337 1011.38 97.7443C1011.67 97.5549 1012.03 97.4053 1012.44 97.2955C1012.85 97.1856 1013.3 97.1004 1013.79 97.0398C1014.28 96.9792 1014.69 96.9261 1015.03 96.8807C1015.37 96.8352 1015.63 96.7633 1015.81 96.6648C1015.99 96.5663 1016.07 96.4072 1016.07 96.1875V95.983C1016.07 95.3883 1015.9 94.9205 1015.54 94.5795C1015.19 94.2348 1014.68 94.0625 1014.02 94.0625C1013.39 94.0625 1012.88 94.2008 1012.48 94.4773C1012.08 94.7538 1011.81 95.0795 1011.65 95.4545L1010.69 95.108C1010.89 94.6307 1011.16 94.25 1011.51 93.9659C1011.85 93.678 1012.24 93.4716 1012.68 93.3466C1013.11 93.2178 1013.55 93.1534 1013.99 93.1534C1014.32 93.1534 1014.67 93.197 1015.03 93.2841C1015.39 93.3712 1015.73 93.5227 1016.04 93.7386C1016.35 93.9508 1016.6 94.2481 1016.8 94.6307C1016.99 95.0095 1017.09 95.4905 1017.09 96.0739V102H1016.07V100.619H1016.01C1015.89 100.877 1015.71 101.127 1015.47 101.369C1015.23 101.612 1014.93 101.811 1014.57 101.966C1014.21 102.121 1013.79 102.199 1013.31 102.199ZM1013.44 101.273C1013.98 101.273 1014.45 101.153 1014.84 100.915C1015.24 100.676 1015.54 100.36 1015.75 99.9659C1015.97 99.5682 1016.07 99.1307 1016.07 98.6534V97.392C1016 97.464 1015.87 97.5284 1015.69 97.5852C1015.52 97.642 1015.32 97.6932 1015.09 97.7386C1014.86 97.7803 1014.63 97.8163 1014.4 97.8466C1014.18 97.8769 1013.97 97.9034 1013.79 97.9261C1013.3 97.9867 1012.88 98.0814 1012.53 98.2102C1012.18 98.339 1011.91 98.517 1011.73 98.7443C1011.54 98.9678 1011.45 99.2557 1011.45 99.608C1011.45 100.138 1011.64 100.549 1012.02 100.841C1012.4 101.129 1012.87 101.273 1013.44 101.273ZM1015.07 90.6477H1016.05C1016.05 91.0985 1015.87 91.4659 1015.51 91.75C1015.15 92.0303 1014.65 92.1705 1014.03 92.1705C1013.4 92.1705 1012.91 92.0303 1012.55 91.75C1012.19 91.4659 1012.01 91.0985 1012.01 90.6477H1012.98C1012.98 90.9053 1013.07 91.1193 1013.23 91.2898C1013.39 91.4602 1013.66 91.5455 1014.03 91.5455C1014.39 91.5455 1014.66 91.4602 1014.82 91.2898C1014.99 91.1193 1015.07 90.9053 1015.07 90.6477ZM1013.66 90.4034L1014.51 88.8182H1015.51L1014.32 90.4034H1013.66ZM1023.19 102.182C1022.4 102.182 1021.73 101.987 1021.15 101.597C1020.57 101.206 1020.12 100.672 1019.8 99.9943C1019.49 99.3163 1019.33 98.5436 1019.33 97.6761C1019.33 96.8011 1019.49 96.0227 1019.81 95.3409C1020.14 94.6591 1020.59 94.125 1021.16 93.7386C1021.74 93.3485 1022.41 93.1534 1023.17 93.1534C1023.75 93.1534 1024.28 93.267 1024.75 93.4943C1025.23 93.7178 1025.62 94.0341 1025.92 94.4432C1026.23 94.8485 1026.43 95.322 1026.51 95.8636H1025.49C1025.38 95.3712 1025.12 94.9508 1024.72 94.6023C1024.32 94.25 1023.81 94.0739 1023.19 94.0739C1022.63 94.0739 1022.14 94.2254 1021.71 94.5284C1021.28 94.8277 1020.94 95.2462 1020.7 95.7841C1020.46 96.3182 1020.34 96.9375 1020.34 97.642C1020.34 98.3504 1020.46 98.9773 1020.7 99.5227C1020.93 100.064 1021.26 100.489 1021.69 100.795C1022.11 101.102 1022.61 101.256 1023.19 101.256C1023.57 101.256 1023.92 101.184 1024.24 101.04C1024.56 100.892 1024.83 100.684 1025.05 100.415C1025.27 100.146 1025.42 99.8258 1025.49 99.4545H1026.51C1026.44 99.9811 1026.25 100.451 1025.95 100.864C1025.66 101.273 1025.27 101.595 1024.8 101.83C1024.33 102.064 1023.79 102.182 1023.19 102.182ZM1042.3 93.2727L1039.11 102H1038.03L1034.84 93.2727H1035.94L1038.53 100.665H1038.61L1041.2 93.2727H1042.3ZM1046.45 102.199C1045.92 102.199 1045.44 102.097 1045.01 101.892C1044.57 101.684 1044.22 101.384 1043.97 100.994C1043.71 100.6 1043.58 100.123 1043.58 99.5625C1043.58 99.1307 1043.66 98.767 1043.82 98.4716C1043.99 98.1761 1044.22 97.9337 1044.52 97.7443C1044.82 97.5549 1045.17 97.4053 1045.58 97.2955C1045.99 97.1856 1046.44 97.1004 1046.93 97.0398C1047.42 96.9792 1047.83 96.9261 1048.17 96.8807C1048.51 96.8352 1048.77 96.7633 1048.95 96.6648C1049.13 96.5663 1049.22 96.4072 1049.22 96.1875V95.983C1049.22 95.3883 1049.04 94.9205 1048.68 94.5795C1048.33 94.2348 1047.82 94.0625 1047.16 94.0625C1046.53 94.0625 1046.02 94.2008 1045.62 94.4773C1045.23 94.7538 1044.95 95.0795 1044.79 95.4545L1043.83 95.108C1044.03 94.6307 1044.3 94.25 1044.65 93.9659C1045 93.678 1045.39 93.4716 1045.82 93.3466C1046.25 93.2178 1046.69 93.1534 1047.13 93.1534C1047.46 93.1534 1047.81 93.197 1048.17 93.2841C1048.54 93.3712 1048.87 93.5227 1049.18 93.7386C1049.49 93.9508 1049.75 94.2481 1049.94 94.6307C1050.13 95.0095 1050.23 95.4905 1050.23 96.0739V102H1049.22V100.619H1049.15C1049.03 100.877 1048.85 101.127 1048.61 101.369C1048.38 101.612 1048.08 101.811 1047.72 101.966C1047.36 102.121 1046.93 102.199 1046.45 102.199ZM1046.59 101.273C1047.12 101.273 1047.59 101.153 1047.98 100.915C1048.38 100.676 1048.68 100.36 1048.89 99.9659C1049.11 99.5682 1049.22 99.1307 1049.22 98.6534V97.392C1049.14 97.464 1049.01 97.5284 1048.84 97.5852C1048.66 97.642 1048.46 97.6932 1048.23 97.7386C1048 97.7803 1047.77 97.8163 1047.55 97.8466C1047.32 97.8769 1047.11 97.9034 1046.93 97.9261C1046.44 97.9867 1046.02 98.0814 1045.67 98.2102C1045.32 98.339 1045.06 98.517 1044.87 98.7443C1044.68 98.9678 1044.59 99.2557 1044.59 99.608C1044.59 100.138 1044.78 100.549 1045.16 100.841C1045.54 101.129 1046.01 101.273 1046.59 101.273ZM1048.27 90.3636H1049.22C1049.22 90.9053 1049.04 91.3447 1048.68 91.6818C1048.33 92.0189 1047.84 92.1875 1047.22 92.1875C1046.61 92.1875 1046.13 92.0189 1045.77 91.6818C1045.42 91.3447 1045.24 90.9053 1045.24 90.3636H1046.19C1046.19 90.6591 1046.27 90.9091 1046.43 91.1136C1046.6 91.3144 1046.86 91.4148 1047.22 91.4148C1047.59 91.4148 1047.85 91.3144 1048.02 91.1136C1048.18 90.9091 1048.27 90.6591 1048.27 90.3636ZM1053.93 96.5455V102H1052.92V93.2727H1053.9V94.642H1053.99C1054.2 94.1951 1054.52 93.8371 1054.95 93.5682C1055.38 93.2955 1055.92 93.1591 1056.56 93.1591C1057.15 93.1591 1057.66 93.2822 1058.11 93.5284C1058.55 93.7708 1058.9 94.1288 1059.15 94.6023C1059.4 95.0758 1059.52 95.6572 1059.52 96.3466V102H1058.51V96.4091C1058.51 95.6932 1058.31 95.1269 1057.91 94.7102C1057.51 94.2936 1056.98 94.0852 1056.3 94.0852C1055.85 94.0852 1055.44 94.1837 1055.08 94.3807C1054.73 94.5777 1054.45 94.8617 1054.24 95.233C1054.03 95.6004 1053.93 96.0379 1053.93 96.5455ZM1070.06 96.5455V102H1069.05V90.3636H1070.06V94.642H1070.15C1070.35 94.1913 1070.67 93.8314 1071.1 93.5625C1071.53 93.2936 1072.07 93.1591 1072.73 93.1591C1073.32 93.1591 1073.84 93.2803 1074.29 93.5227C1074.74 93.7652 1075.09 94.1231 1075.34 94.5966C1075.59 95.0701 1075.71 95.6534 1075.71 96.3466V102H1074.69V96.4091C1074.69 95.6894 1074.49 95.1231 1074.09 94.7102C1073.69 94.2936 1073.16 94.0852 1072.48 94.0852C1072.01 94.0852 1071.6 94.1837 1071.23 94.3807C1070.87 94.5777 1070.58 94.8617 1070.37 95.233C1070.16 95.6004 1070.06 96.0379 1070.06 96.5455ZM1081.77 102.182C1081.01 102.182 1080.35 101.991 1079.77 101.608C1079.19 101.225 1078.74 100.697 1078.41 100.023C1078.09 99.3447 1077.92 98.5625 1077.92 97.6761C1077.92 96.7822 1078.09 95.9962 1078.41 95.3182C1078.74 94.6364 1079.19 94.1061 1079.77 93.7273C1080.35 93.3447 1081.01 93.1534 1081.77 93.1534C1082.52 93.1534 1083.18 93.3447 1083.76 93.7273C1084.34 94.1098 1084.79 94.6402 1085.11 95.3182C1085.44 95.9962 1085.61 96.7822 1085.61 97.6761C1085.61 98.5625 1085.44 99.3447 1085.12 100.023C1084.79 100.697 1084.34 101.225 1083.76 101.608C1083.18 101.991 1082.52 102.182 1081.77 102.182ZM1081.77 101.256C1082.37 101.256 1082.88 101.093 1083.31 100.767C1083.73 100.441 1084.04 100.008 1084.26 99.4659C1084.48 98.9242 1084.59 98.3277 1084.59 97.6761C1084.59 97.0246 1084.48 96.4261 1084.26 95.8807C1084.04 95.3352 1083.73 94.8977 1083.31 94.5682C1082.88 94.2386 1082.37 94.0739 1081.77 94.0739C1081.16 94.0739 1080.65 94.2386 1080.23 94.5682C1079.81 94.8977 1079.49 95.3352 1079.27 95.8807C1079.05 96.4261 1078.94 97.0246 1078.94 97.6761C1078.94 98.3277 1079.05 98.9242 1079.27 99.4659C1079.49 100.008 1079.81 100.441 1080.23 100.767C1080.65 101.093 1081.16 101.256 1081.77 101.256ZM1081.29 92.0625L1082.75 89.483H1083.95L1082.2 92.0625H1081.29ZM1090.26 102.199C1089.74 102.199 1089.26 102.097 1088.82 101.892C1088.39 101.684 1088.04 101.384 1087.78 100.994C1087.52 100.6 1087.39 100.123 1087.39 99.5625C1087.39 99.1307 1087.48 98.767 1087.64 98.4716C1087.8 98.1761 1088.03 97.9337 1088.33 97.7443C1088.63 97.5549 1088.99 97.4053 1089.39 97.2955C1089.8 97.1856 1090.25 97.1004 1090.75 97.0398C1091.24 96.9792 1091.65 96.9261 1091.99 96.8807C1092.33 96.8352 1092.59 96.7633 1092.76 96.6648C1092.94 96.5663 1093.03 96.4072 1093.03 96.1875V95.983C1093.03 95.3883 1092.85 94.9205 1092.5 94.5795C1092.14 94.2348 1091.64 94.0625 1090.97 94.0625C1090.35 94.0625 1089.83 94.2008 1089.43 94.4773C1089.04 94.7538 1088.76 95.0795 1088.6 95.4545L1087.64 95.108C1087.84 94.6307 1088.11 94.25 1088.46 93.9659C1088.81 93.678 1089.2 93.4716 1089.63 93.3466C1090.07 93.2178 1090.5 93.1534 1090.95 93.1534C1091.28 93.1534 1091.63 93.197 1091.99 93.2841C1092.35 93.3712 1092.69 93.5227 1093 93.7386C1093.31 93.9508 1093.56 94.2481 1093.75 94.6307C1093.95 95.0095 1094.04 95.4905 1094.04 96.0739V102H1093.03V100.619H1092.97C1092.85 100.877 1092.67 101.127 1092.43 101.369C1092.19 101.612 1091.89 101.811 1091.53 101.966C1091.17 102.121 1090.75 102.199 1090.26 102.199ZM1090.4 101.273C1090.94 101.273 1091.4 101.153 1091.8 100.915C1092.19 100.676 1092.5 100.36 1092.71 99.9659C1092.92 99.5682 1093.03 99.1307 1093.03 98.6534V97.392C1092.96 97.464 1092.83 97.5284 1092.65 97.5852C1092.48 97.642 1092.27 97.6932 1092.04 97.7386C1091.82 97.7803 1091.59 97.8163 1091.36 97.8466C1091.13 97.8769 1090.93 97.9034 1090.75 97.9261C1090.25 97.9867 1089.83 98.0814 1089.49 98.2102C1089.14 98.339 1088.87 98.517 1088.68 98.7443C1088.5 98.9678 1088.41 99.2557 1088.41 99.608C1088.41 100.138 1088.6 100.549 1088.97 100.841C1089.35 101.129 1089.83 101.273 1090.4 101.273ZM1107 102.182C1106.22 102.182 1105.54 101.987 1104.96 101.597C1104.39 101.206 1103.94 100.672 1103.62 99.9943C1103.3 99.3163 1103.15 98.5436 1103.15 97.6761C1103.15 96.8011 1103.31 96.0227 1103.63 95.3409C1103.95 94.6591 1104.4 94.125 1104.98 93.7386C1105.56 93.3485 1106.22 93.1534 1106.99 93.1534C1107.57 93.1534 1108.1 93.267 1108.57 93.4943C1109.04 93.7178 1109.43 94.0341 1109.74 94.4432C1110.05 94.8485 1110.25 95.322 1110.33 95.8636H1109.3C1109.2 95.3712 1108.94 94.9508 1108.54 94.6023C1108.14 94.25 1107.62 94.0739 1107 94.0739C1106.45 94.0739 1105.95 94.2254 1105.53 94.5284C1105.1 94.8277 1104.76 95.2462 1104.52 95.7841C1104.28 96.3182 1104.16 96.9375 1104.16 97.642C1104.16 98.3504 1104.28 98.9773 1104.51 99.5227C1104.75 100.064 1105.08 100.489 1105.5 100.795C1105.93 101.102 1106.43 101.256 1107 101.256C1107.39 101.256 1107.74 101.184 1108.06 101.04C1108.38 100.892 1108.65 100.684 1108.87 100.415C1109.09 100.146 1109.23 99.8258 1109.31 99.4545H1110.33C1110.26 99.9811 1110.07 100.451 1109.77 100.864C1109.47 101.273 1109.09 101.595 1108.62 101.83C1108.15 102.064 1107.61 102.182 1107 102.182ZM1118.05 98.6648V93.2727H1119.06V102H1118.05V100.551H1117.97C1117.76 100.998 1117.44 101.371 1116.99 101.67C1116.55 101.966 1116.01 102.114 1115.37 102.114C1114.81 102.114 1114.32 101.992 1113.89 101.75C1113.45 101.504 1113.12 101.144 1112.87 100.67C1112.62 100.197 1112.5 99.6155 1112.5 98.9261V93.2727H1113.51V98.8636C1113.51 99.5455 1113.71 100.095 1114.11 100.511C1114.52 100.924 1115.03 101.131 1115.66 101.131C1116.05 101.131 1116.43 101.036 1116.8 100.847C1117.16 100.657 1117.46 100.381 1117.69 100.017C1117.93 99.6496 1118.05 99.1989 1118.05 98.6648ZM1116.23 92.1136H1115.37V90.9261C1115.78 90.9034 1116.07 90.8409 1116.24 90.7386C1116.41 90.6364 1116.49 90.4754 1116.49 90.2557C1116.49 90.0057 1116.37 89.8239 1116.14 89.7102C1115.91 89.5928 1115.6 89.5322 1115.21 89.5284L1115.26 88.8352C1115.98 88.8352 1116.52 88.9659 1116.88 89.2273C1117.24 89.4886 1117.42 89.8371 1117.42 90.2727C1117.42 90.6515 1117.3 90.9375 1117.06 91.1307C1116.83 91.3201 1116.55 91.4337 1116.23 91.4716V92.1136ZM1124.17 102.199C1123.65 102.199 1123.16 102.097 1122.73 101.892C1122.29 101.684 1121.95 101.384 1121.69 100.994C1121.43 100.6 1121.3 100.123 1121.3 99.5625C1121.3 99.1307 1121.38 98.767 1121.55 98.4716C1121.71 98.1761 1121.94 97.9337 1122.24 97.7443C1122.54 97.5549 1122.89 97.4053 1123.3 97.2955C1123.71 97.1856 1124.16 97.1004 1124.65 97.0398C1125.14 96.9792 1125.56 96.9261 1125.89 96.8807C1126.23 96.8352 1126.49 96.7633 1126.67 96.6648C1126.85 96.5663 1126.94 96.4072 1126.94 96.1875V95.983C1126.94 95.3883 1126.76 94.9205 1126.4 94.5795C1126.05 94.2348 1125.55 94.0625 1124.88 94.0625C1124.25 94.0625 1123.74 94.2008 1123.34 94.4773C1122.95 94.7538 1122.67 95.0795 1122.51 95.4545L1121.55 95.108C1121.75 94.6307 1122.02 94.25 1122.37 93.9659C1122.72 93.678 1123.11 93.4716 1123.54 93.3466C1123.97 93.2178 1124.41 93.1534 1124.85 93.1534C1125.19 93.1534 1125.53 93.197 1125.89 93.2841C1126.26 93.3712 1126.59 93.5227 1126.9 93.7386C1127.22 93.9508 1127.47 94.2481 1127.66 94.6307C1127.85 95.0095 1127.95 95.4905 1127.95 96.0739V102H1126.94V100.619H1126.88C1126.76 100.877 1126.58 101.127 1126.34 101.369C1126.1 101.612 1125.8 101.811 1125.44 101.966C1125.08 102.121 1124.66 102.199 1124.17 102.199ZM1124.31 101.273C1124.85 101.273 1125.31 101.153 1125.71 100.915C1126.1 100.676 1126.4 100.36 1126.62 99.9659C1126.83 99.5682 1126.94 99.1307 1126.94 98.6534V97.392C1126.86 97.464 1126.74 97.5284 1126.56 97.5852C1126.38 97.642 1126.18 97.6932 1125.95 97.7386C1125.72 97.7803 1125.5 97.8163 1125.27 97.8466C1125.04 97.8769 1124.84 97.9034 1124.65 97.9261C1124.16 97.9867 1123.74 98.0814 1123.39 98.2102C1123.05 98.339 1122.78 98.517 1122.59 98.7443C1122.41 98.9678 1122.31 99.2557 1122.31 99.608C1122.31 100.138 1122.5 100.549 1122.88 100.841C1123.26 101.129 1123.74 101.273 1124.31 101.273ZM1138.77 90.3636V102H1137.71V90.3636H1138.77ZM1141.66 102V93.2727H1142.64V94.6136H1142.73C1142.91 94.1629 1143.2 93.8087 1143.6 93.5511C1144.01 93.2898 1144.5 93.1591 1145.07 93.1591C1145.68 93.1591 1146.17 93.3011 1146.56 93.5852C1146.95 93.8655 1147.24 94.2519 1147.43 94.7443H1147.5C1147.7 94.2595 1148.02 93.875 1148.46 93.5909C1148.91 93.303 1149.45 93.1591 1150.09 93.1591C1150.9 93.1591 1151.54 93.4148 1152.01 93.9261C1152.48 94.4337 1152.71 95.1761 1152.71 96.1534V102H1151.7V96.1534C1151.7 95.464 1151.53 94.947 1151.18 94.6023C1150.82 94.2576 1150.36 94.0852 1149.78 94.0852C1149.12 94.0852 1148.6 94.2898 1148.24 94.6989C1147.88 95.108 1147.7 95.6269 1147.7 96.2557V102H1146.67V96.0625C1146.67 95.4716 1146.5 94.9943 1146.18 94.6307C1145.85 94.267 1145.38 94.0852 1144.78 94.0852C1144.38 94.0852 1144.02 94.1837 1143.7 94.3807C1143.38 94.5777 1143.13 94.8523 1142.94 95.2045C1142.76 95.553 1142.67 95.9545 1142.67 96.4091V102H1141.66ZM1158.92 102.182C1158.11 102.182 1157.4 101.992 1156.81 101.614C1156.21 101.231 1155.75 100.703 1155.43 100.028C1155.1 99.3504 1154.94 98.5701 1154.94 97.6875C1154.94 96.8087 1155.1 96.0284 1155.43 95.3466C1155.75 94.661 1156.2 94.125 1156.77 93.7386C1157.35 93.3485 1158.01 93.1534 1158.77 93.1534C1159.24 93.1534 1159.7 93.2405 1160.14 93.4148C1160.58 93.5852 1160.97 93.8485 1161.32 94.2045C1161.67 94.5568 1161.95 95.0019 1162.15 95.5398C1162.36 96.0739 1162.46 96.7064 1162.46 97.4375V97.9375H1155.64V97.0455H1161.43C1161.43 96.4848 1161.31 95.9811 1161.09 95.5341C1160.86 95.0833 1160.55 94.7273 1160.15 94.4659C1159.75 94.2045 1159.29 94.0739 1158.77 94.0739C1158.21 94.0739 1157.73 94.2216 1157.31 94.517C1156.89 94.8125 1156.56 95.2027 1156.32 95.6875C1156.08 96.1723 1155.96 96.7027 1155.96 97.2784V97.8125C1155.96 98.5057 1156.08 99.1117 1156.32 99.6307C1156.56 100.146 1156.9 100.545 1157.35 100.83C1157.79 101.114 1158.31 101.256 1158.92 101.256C1159.33 101.256 1159.7 101.191 1160.01 101.062C1160.32 100.934 1160.58 100.761 1160.8 100.545C1161.01 100.326 1161.17 100.085 1161.28 99.8239L1162.24 100.136C1162.11 100.504 1161.89 100.843 1161.59 101.153C1161.29 101.464 1160.92 101.714 1160.47 101.903C1160.02 102.089 1159.5 102.182 1158.92 102.182ZM1165.08 93.2727L1167.33 96.9943L1169.58 93.2727H1170.76L1167.95 97.6364L1170.76 102H1169.58L1167.33 98.3977L1165.08 102H1163.91L1166.68 97.6364L1163.91 93.2727H1165.08ZM1172.88 105.273V93.2727H1173.86V94.9375H1173.98C1174.1 94.6761 1174.27 94.4091 1174.48 94.1364C1174.69 93.8598 1174.97 93.6269 1175.32 93.4375C1175.67 93.2481 1176.12 93.1534 1176.65 93.1534C1177.37 93.1534 1178 93.3428 1178.54 93.7216C1179.08 94.0966 1179.5 94.6231 1179.8 95.3011C1180.1 95.9754 1180.25 96.7614 1180.25 97.6591C1180.25 98.5606 1180.1 99.3504 1179.8 100.028C1179.5 100.706 1179.08 101.235 1178.54 101.614C1178 101.992 1177.37 102.182 1176.66 102.182C1176.13 102.182 1175.69 102.087 1175.34 101.898C1174.98 101.708 1174.7 101.475 1174.48 101.199C1174.26 100.919 1174.1 100.646 1173.98 100.381H1173.89V105.273H1172.88ZM1173.88 97.642C1173.88 98.3466 1173.98 98.9716 1174.19 99.517C1174.4 100.059 1174.7 100.485 1175.1 100.795C1175.5 101.102 1175.98 101.256 1176.54 101.256C1177.12 101.256 1177.61 101.097 1178.01 100.778C1178.41 100.456 1178.71 100.023 1178.92 99.4773C1179.13 98.9318 1179.24 98.3201 1179.24 97.642C1179.24 96.9716 1179.14 96.3674 1178.93 95.8295C1178.72 95.2917 1178.42 94.8655 1178.02 94.5511C1177.62 94.233 1177.12 94.0739 1176.54 94.0739C1175.97 94.0739 1175.49 94.2273 1175.09 94.5341C1174.7 94.8371 1174.39 95.2576 1174.18 95.7955C1173.98 96.3295 1173.88 96.9451 1173.88 97.642ZM1183.48 96.5455V102H1182.47V90.3636H1183.48V94.642H1183.57C1183.78 94.1913 1184.09 93.8314 1184.52 93.5625C1184.95 93.2936 1185.5 93.1591 1186.16 93.1591C1186.75 93.1591 1187.27 93.2803 1187.71 93.5227C1188.16 93.7652 1188.51 94.1231 1188.76 94.5966C1189.01 95.0701 1189.14 95.6534 1189.14 96.3466V102H1188.12V96.4091C1188.12 95.6894 1187.92 95.1231 1187.52 94.7102C1187.12 94.2936 1186.58 94.0852 1185.9 94.0852C1185.44 94.0852 1185.02 94.1837 1184.66 94.3807C1184.29 94.5777 1184.01 94.8617 1183.79 95.233C1183.59 95.6004 1183.48 96.0379 1183.48 96.5455ZM1194.24 102.199C1193.71 102.199 1193.23 102.097 1192.79 101.892C1192.36 101.684 1192.01 101.384 1191.75 100.994C1191.5 100.6 1191.37 100.123 1191.37 99.5625C1191.37 99.1307 1191.45 98.767 1191.61 98.4716C1191.77 98.1761 1192.01 97.9337 1192.3 97.7443C1192.6 97.5549 1192.96 97.4053 1193.37 97.2955C1193.78 97.1856 1194.23 97.1004 1194.72 97.0398C1195.21 96.9792 1195.62 96.9261 1195.96 96.8807C1196.3 96.8352 1196.56 96.7633 1196.74 96.6648C1196.91 96.5663 1197 96.4072 1197 96.1875V95.983C1197 95.3883 1196.83 94.9205 1196.47 94.5795C1196.12 94.2348 1195.61 94.0625 1194.95 94.0625C1194.32 94.0625 1193.8 94.2008 1193.41 94.4773C1193.01 94.7538 1192.74 95.0795 1192.58 95.4545L1191.62 95.108C1191.81 94.6307 1192.09 94.25 1192.44 93.9659C1192.78 93.678 1193.17 93.4716 1193.61 93.3466C1194.04 93.2178 1194.47 93.1534 1194.92 93.1534C1195.25 93.1534 1195.6 93.197 1195.96 93.2841C1196.32 93.3712 1196.66 93.5227 1196.97 93.7386C1197.28 93.9508 1197.53 94.2481 1197.72 94.6307C1197.92 95.0095 1198.01 95.4905 1198.01 96.0739V102H1197V100.619H1196.94C1196.82 100.877 1196.64 101.127 1196.4 101.369C1196.16 101.612 1195.86 101.811 1195.5 101.966C1195.14 102.121 1194.72 102.199 1194.24 102.199ZM1194.37 101.273C1194.91 101.273 1195.38 101.153 1195.77 100.915C1196.16 100.676 1196.47 100.36 1196.68 99.9659C1196.9 99.5682 1197 99.1307 1197 98.6534V97.392C1196.93 97.464 1196.8 97.5284 1196.62 97.5852C1196.45 97.642 1196.25 97.6932 1196.01 97.7386C1195.79 97.7803 1195.56 97.8163 1195.33 97.8466C1195.11 97.8769 1194.9 97.9034 1194.72 97.9261C1194.23 97.9867 1193.81 98.0814 1193.46 98.2102C1193.11 98.339 1192.84 98.517 1192.66 98.7443C1192.47 98.9678 1192.38 99.2557 1192.38 99.608C1192.38 100.138 1192.57 100.549 1192.95 100.841C1193.33 101.129 1193.8 101.273 1194.37 101.273ZM1200.71 102V93.2727H1201.69V94.6136H1201.76C1201.94 94.1742 1202.24 93.8201 1202.67 93.5511C1203.11 93.2784 1203.6 93.142 1204.15 93.142C1204.23 93.142 1204.32 93.1439 1204.43 93.1477C1204.53 93.1515 1204.61 93.1553 1204.68 93.1591V94.1875C1204.64 94.1799 1204.56 94.1686 1204.44 94.1534C1204.33 94.1383 1204.21 94.1307 1204.07 94.1307C1203.62 94.1307 1203.21 94.2273 1202.86 94.4205C1202.51 94.6098 1202.23 94.8731 1202.02 95.2102C1201.82 95.5473 1201.72 95.9318 1201.72 96.3636V102H1200.71ZM1206.41 102V93.2727H1207.39V94.6136H1207.48C1207.66 94.1629 1207.95 93.8087 1208.35 93.5511C1208.76 93.2898 1209.25 93.1591 1209.82 93.1591C1210.43 93.1591 1210.92 93.3011 1211.31 93.5852C1211.7 93.8655 1211.99 94.2519 1212.18 94.7443H1212.25C1212.45 94.2595 1212.77 93.875 1213.21 93.5909C1213.66 93.303 1214.2 93.1591 1214.84 93.1591C1215.65 93.1591 1216.29 93.4148 1216.76 93.9261C1217.23 94.4337 1217.46 95.1761 1217.46 96.1534V102H1216.45V96.1534C1216.45 95.464 1216.28 94.947 1215.93 94.6023C1215.57 94.2576 1215.11 94.0852 1214.53 94.0852C1213.87 94.0852 1213.35 94.2898 1212.99 94.6989C1212.63 95.108 1212.45 95.6269 1212.45 96.2557V102H1211.42V96.0625C1211.42 95.4716 1211.25 94.9943 1210.93 94.6307C1210.6 94.267 1210.13 94.0852 1209.53 94.0852C1209.13 94.0852 1208.77 94.1837 1208.45 94.3807C1208.13 94.5777 1207.88 94.8523 1207.69 95.2045C1207.51 95.553 1207.42 95.9545 1207.42 96.4091V102H1206.41ZM1221.82 100.409L1221.72 101.017C1221.66 101.426 1221.57 101.877 1221.45 102.369C1221.33 102.862 1221.21 103.33 1221.09 103.773C1220.96 104.216 1220.85 104.572 1220.76 104.841H1219.98C1220.03 104.583 1220.1 104.256 1220.17 103.858C1220.25 103.46 1220.33 103.019 1220.42 102.534C1220.5 102.053 1220.57 101.557 1220.64 101.045L1220.72 100.409H1221.82ZM1239.62 94C1239.52 93.6136 1239.36 93.2519 1239.16 92.9148C1238.95 92.5739 1238.7 92.2765 1238.4 92.0227C1238.1 91.7652 1237.75 91.5644 1237.36 91.4205C1236.97 91.2765 1236.53 91.2045 1236.05 91.2045C1235.29 91.2045 1234.61 91.4015 1234.02 91.7955C1233.42 92.1894 1232.94 92.7576 1232.6 93.5C1232.25 94.2424 1232.08 95.1364 1232.08 96.1818C1232.08 97.2235 1232.25 98.1155 1232.6 98.858C1232.95 99.6004 1233.43 100.17 1234.03 100.568C1234.64 100.962 1235.34 101.159 1236.12 101.159C1236.84 101.159 1237.47 101 1238.02 100.682C1238.57 100.364 1239 99.9091 1239.31 99.3182C1239.62 98.7273 1239.77 98.0246 1239.76 97.2102L1240.1 97.3182H1236.37V96.3636H1240.79V97.3182C1240.79 98.3106 1240.59 99.1686 1240.19 99.892C1239.79 100.616 1239.24 101.174 1238.54 101.568C1237.84 101.962 1237.03 102.159 1236.12 102.159C1235.11 102.159 1234.22 101.915 1233.46 101.426C1232.7 100.934 1232.11 100.241 1231.68 99.3466C1231.26 98.4489 1231.05 97.3939 1231.05 96.1818C1231.05 95.2689 1231.17 94.4451 1231.41 93.7102C1231.66 92.9754 1232 92.3466 1232.44 91.8239C1232.89 91.3011 1233.42 90.9015 1234.03 90.625C1234.64 90.3447 1235.31 90.2045 1236.05 90.2045C1236.69 90.2045 1237.27 90.3049 1237.79 90.5057C1238.33 90.7064 1238.79 90.983 1239.19 91.3352C1239.6 91.6837 1239.93 92.0871 1240.19 92.5455C1240.45 93 1240.62 93.4848 1240.72 94H1239.62ZM1243.78 102V93.2727H1244.8V102H1243.78ZM1244.3 91.7727C1244.09 91.7727 1243.91 91.7027 1243.76 91.5625C1243.62 91.4186 1243.54 91.2462 1243.54 91.0455C1243.54 90.8447 1243.62 90.6742 1243.76 90.5341C1243.91 90.3902 1244.09 90.3182 1244.3 90.3182C1244.51 90.3182 1244.68 90.3902 1244.83 90.5341C1244.98 90.6742 1245.05 90.8447 1245.05 91.0455C1245.05 91.2462 1244.98 91.4186 1244.83 91.5625C1244.68 91.7027 1244.51 91.7727 1244.3 91.7727ZM1249.91 102.199C1249.38 102.199 1248.9 102.097 1248.47 101.892C1248.03 101.684 1247.68 101.384 1247.43 100.994C1247.17 100.6 1247.04 100.123 1247.04 99.5625C1247.04 99.1307 1247.12 98.767 1247.28 98.4716C1247.45 98.1761 1247.68 97.9337 1247.98 97.7443C1248.28 97.5549 1248.63 97.4053 1249.04 97.2955C1249.45 97.1856 1249.9 97.1004 1250.39 97.0398C1250.88 96.9792 1251.29 96.9261 1251.63 96.8807C1251.97 96.8352 1252.23 96.7633 1252.41 96.6648C1252.59 96.5663 1252.68 96.4072 1252.68 96.1875V95.983C1252.68 95.3883 1252.5 94.9205 1252.14 94.5795C1251.79 94.2348 1251.28 94.0625 1250.62 94.0625C1249.99 94.0625 1249.48 94.2008 1249.08 94.4773C1248.69 94.7538 1248.41 95.0795 1248.25 95.4545L1247.29 95.108C1247.49 94.6307 1247.76 94.25 1248.11 93.9659C1248.46 93.678 1248.85 93.4716 1249.28 93.3466C1249.71 93.2178 1250.15 93.1534 1250.59 93.1534C1250.93 93.1534 1251.27 93.197 1251.63 93.2841C1252 93.3712 1252.33 93.5227 1252.64 93.7386C1252.95 93.9508 1253.21 94.2481 1253.4 94.6307C1253.59 95.0095 1253.69 95.4905 1253.69 96.0739V102H1252.68V100.619H1252.61C1252.49 100.877 1252.31 101.127 1252.07 101.369C1251.84 101.612 1251.54 101.811 1251.18 101.966C1250.82 102.121 1250.39 102.199 1249.91 102.199ZM1250.05 101.273C1250.58 101.273 1251.05 101.153 1251.44 100.915C1251.84 100.676 1252.14 100.36 1252.35 99.9659C1252.57 99.5682 1252.68 99.1307 1252.68 98.6534V97.392C1252.6 97.464 1252.47 97.5284 1252.3 97.5852C1252.12 97.642 1251.92 97.6932 1251.69 97.7386C1251.46 97.7803 1251.23 97.8163 1251.01 97.8466C1250.78 97.8769 1250.57 97.9034 1250.39 97.9261C1249.9 97.9867 1249.48 98.0814 1249.13 98.2102C1248.78 98.339 1248.52 98.517 1248.33 98.7443C1248.14 98.9678 1248.05 99.2557 1248.05 99.608C1248.05 100.138 1248.24 100.549 1248.62 100.841C1249 101.129 1249.47 101.273 1250.05 101.273ZM1250.21 92.0625L1251.67 89.483H1252.86L1251.12 92.0625H1250.21ZM1266.68 93.2727V94.1534H1262.51V93.2727H1266.68ZM1263.81 91.1818H1264.83V99.7216C1264.83 100.085 1264.89 100.371 1265.02 100.58C1265.14 100.784 1265.31 100.93 1265.51 101.017C1265.71 101.1 1265.92 101.142 1266.15 101.142C1266.28 101.142 1266.4 101.134 1266.49 101.119C1266.58 101.1 1266.67 101.081 1266.74 101.062L1266.96 101.977C1266.86 102.015 1266.74 102.049 1266.59 102.08C1266.45 102.114 1266.27 102.131 1266.06 102.131C1265.69 102.131 1265.33 102.049 1264.98 101.886C1264.64 101.723 1264.36 101.481 1264.14 101.159C1263.92 100.837 1263.81 100.438 1263.81 99.9602V91.1818ZM1268.97 102V93.2727H1269.96V94.6136H1270.03C1270.21 94.1742 1270.51 93.8201 1270.94 93.5511C1271.38 93.2784 1271.87 93.142 1272.42 93.142C1272.5 93.142 1272.59 93.1439 1272.7 93.1477C1272.8 93.1515 1272.88 93.1553 1272.95 93.1591V94.1875C1272.91 94.1799 1272.83 94.1686 1272.71 94.1534C1272.6 94.1383 1272.48 94.1307 1272.34 94.1307C1271.89 94.1307 1271.48 94.2273 1271.13 94.4205C1270.78 94.6098 1270.5 94.8731 1270.29 95.2102C1270.09 95.5473 1269.99 95.9318 1269.99 96.3636V102H1268.97ZM1274.69 102V93.2727H1275.71V102H1274.69ZM1275.21 91.7727C1275 91.7727 1274.82 91.7027 1274.67 91.5625C1274.52 91.4186 1274.45 91.2462 1274.45 91.0455C1274.45 90.8447 1274.52 90.6742 1274.67 90.5341C1274.82 90.3902 1275 90.3182 1275.21 90.3182C1275.41 90.3182 1275.59 90.3902 1275.74 90.5341C1275.89 90.6742 1275.96 90.8447 1275.96 91.0455C1275.96 91.2462 1275.89 91.4186 1275.74 91.5625C1275.59 91.7027 1275.41 91.7727 1275.21 91.7727ZM1275.21 104.79C1275 104.79 1274.82 104.718 1274.67 104.574C1274.52 104.43 1274.45 104.259 1274.45 104.062C1274.45 103.862 1274.52 103.689 1274.67 103.545C1274.82 103.405 1275 103.335 1275.21 103.335C1275.41 103.335 1275.59 103.405 1275.74 103.545C1275.89 103.689 1275.97 103.862 1275.97 104.062C1275.97 104.259 1275.89 104.43 1275.74 104.574C1275.59 104.718 1275.41 104.79 1275.21 104.79ZM1288.65 102.182C1287.87 102.182 1287.19 101.987 1286.61 101.597C1286.04 101.206 1285.59 100.672 1285.27 99.9943C1284.95 99.3163 1284.79 98.5436 1284.79 97.6761C1284.79 96.8011 1284.95 96.0227 1285.28 95.3409C1285.6 94.6591 1286.05 94.125 1286.63 93.7386C1287.2 93.3485 1287.87 93.1534 1288.63 93.1534C1289.22 93.1534 1289.75 93.267 1290.22 93.4943C1290.69 93.7178 1291.08 94.0341 1291.39 94.4432C1291.7 94.8485 1291.89 95.322 1291.97 95.8636H1290.95C1290.85 95.3712 1290.59 94.9508 1290.18 94.6023C1289.78 94.25 1289.27 94.0739 1288.65 94.0739C1288.09 94.0739 1287.6 94.2254 1287.17 94.5284C1286.75 94.8277 1286.41 95.2462 1286.17 95.7841C1285.93 96.3182 1285.81 96.9375 1285.81 97.642C1285.81 98.3504 1285.93 98.9773 1286.16 99.5227C1286.4 100.064 1286.73 100.489 1287.15 100.795C1287.58 101.102 1288.08 101.256 1288.65 101.256C1289.04 101.256 1289.39 101.184 1289.71 101.04C1290.03 100.892 1290.3 100.684 1290.51 100.415C1290.73 100.146 1290.88 99.8258 1290.96 99.4545H1291.98C1291.9 99.9811 1291.72 100.451 1291.42 100.864C1291.12 101.273 1290.74 101.595 1290.26 101.83C1289.79 102.064 1289.26 102.182 1288.65 102.182ZM1297.54 102.182C1296.79 102.182 1296.12 101.991 1295.54 101.608C1294.96 101.225 1294.51 100.697 1294.19 100.023C1293.86 99.3447 1293.7 98.5625 1293.7 97.6761C1293.7 96.7822 1293.86 95.9962 1294.19 95.3182C1294.51 94.6364 1294.96 94.1061 1295.54 93.7273C1296.12 93.3447 1296.79 93.1534 1297.54 93.1534C1298.29 93.1534 1298.96 93.3447 1299.53 93.7273C1300.11 94.1098 1300.56 94.6402 1300.89 95.3182C1301.22 95.9962 1301.38 96.7822 1301.38 97.6761C1301.38 98.5625 1301.22 99.3447 1300.89 100.023C1300.57 100.697 1300.11 101.225 1299.53 101.608C1298.96 101.991 1298.29 102.182 1297.54 102.182ZM1297.54 101.256C1298.15 101.256 1298.66 101.093 1299.08 100.767C1299.5 100.441 1299.82 100.008 1300.03 99.4659C1300.25 98.9242 1300.36 98.3277 1300.36 97.6761C1300.36 97.0246 1300.25 96.4261 1300.03 95.8807C1299.82 95.3352 1299.5 94.8977 1299.08 94.5682C1298.66 94.2386 1298.15 94.0739 1297.54 94.0739C1296.94 94.0739 1296.42 94.2386 1296 94.5682C1295.58 94.8977 1295.26 95.3352 1295.04 95.8807C1294.82 96.4261 1294.72 97.0246 1294.72 97.6761C1294.72 98.3277 1294.82 98.9242 1295.04 99.4659C1295.26 100.008 1295.58 100.441 1296 100.767C1296.42 101.093 1296.93 101.256 1297.54 101.256ZM1294.88 92.1136L1297.14 90.0057H1298L1300.26 92.1136H1299.01L1297.58 90.7273L1296.15 92.1136H1294.88ZM1299.81 90.7159L1301 88.6875H1302.26L1300.72 90.7159H1299.81ZM1307.04 93.2727V94.1534H1302.87V93.2727H1307.04ZM1304.17 91.1818H1305.19V99.7216C1305.19 100.085 1305.25 100.371 1305.38 100.58C1305.5 100.784 1305.67 100.93 1305.87 101.017C1306.07 101.1 1306.28 101.142 1306.51 101.142C1306.64 101.142 1306.76 101.134 1306.85 101.119C1306.95 101.1 1307.03 101.081 1307.1 101.062L1307.32 101.977C1307.22 102.015 1307.1 102.049 1306.95 102.08C1306.81 102.114 1306.63 102.131 1306.42 102.131C1306.05 102.131 1305.69 102.049 1305.35 101.886C1305 101.723 1304.72 101.481 1304.5 101.159C1304.28 100.837 1304.17 100.438 1304.17 99.9602V91.1818ZM894.347 110.364V122H893.335V110.364H894.347ZM900.415 122.182C899.661 122.182 898.994 121.991 898.415 121.608C897.839 121.225 897.388 120.697 897.062 120.023C896.737 119.345 896.574 118.562 896.574 117.676C896.574 116.782 896.737 115.996 897.062 115.318C897.388 114.636 897.839 114.106 898.415 113.727C898.994 113.345 899.661 113.153 900.415 113.153C901.169 113.153 901.833 113.345 902.409 113.727C902.985 114.11 903.436 114.64 903.761 115.318C904.091 115.996 904.256 116.782 904.256 117.676C904.256 118.562 904.093 119.345 903.767 120.023C903.441 120.697 902.989 121.225 902.409 121.608C901.833 121.991 901.169 122.182 900.415 122.182ZM900.415 121.256C901.021 121.256 901.534 121.093 901.955 120.767C902.375 120.441 902.693 120.008 902.909 119.466C903.129 118.924 903.239 118.328 903.239 117.676C903.239 117.025 903.129 116.426 902.909 115.881C902.693 115.335 902.375 114.898 901.955 114.568C901.534 114.239 901.021 114.074 900.415 114.074C899.813 114.074 899.299 114.239 898.875 114.568C898.455 114.898 898.134 115.335 897.915 115.881C897.699 116.426 897.591 117.025 897.591 117.676C897.591 118.328 897.699 118.924 897.915 119.466C898.134 120.008 898.455 120.441 898.875 120.767C899.295 121.093 899.809 121.256 900.415 121.256ZM898.494 112.068L897.676 112.023C897.695 111.519 897.862 111.106 898.176 110.784C898.491 110.462 898.875 110.301 899.33 110.301C899.561 110.301 899.763 110.343 899.938 110.426C900.112 110.506 900.275 110.598 900.426 110.705C900.581 110.807 900.739 110.898 900.898 110.977C901.061 111.057 901.244 111.097 901.449 111.097C901.68 111.097 901.881 111.013 902.051 110.847C902.225 110.68 902.324 110.473 902.347 110.227L903.148 110.318C903.121 110.826 902.949 111.233 902.631 111.54C902.316 111.843 901.938 111.994 901.494 111.994C901.241 111.994 901.027 111.955 900.852 111.875C900.682 111.792 900.527 111.699 900.386 111.597C900.25 111.491 900.102 111.398 899.943 111.318C899.788 111.239 899.598 111.199 899.375 111.199C899.133 111.199 898.928 111.282 898.761 111.449C898.598 111.616 898.509 111.822 898.494 112.068ZM906.487 122V113.273H907.504V122H906.487ZM907.004 111.773C906.796 111.773 906.618 111.703 906.47 111.562C906.322 111.419 906.249 111.246 906.249 111.045C906.249 110.845 906.322 110.674 906.47 110.534C906.618 110.39 906.796 110.318 907.004 110.318C907.213 110.318 907.391 110.39 907.538 110.534C907.686 110.674 907.76 110.845 907.76 111.045C907.76 111.246 907.686 111.419 907.538 111.562C907.391 111.703 907.213 111.773 907.004 111.773ZM921.435 113.273L918.247 122H917.168L913.98 113.273H915.077L917.668 120.665H917.747L920.338 113.273H921.435ZM925.585 122.199C925.059 122.199 924.578 122.097 924.142 121.892C923.706 121.684 923.36 121.384 923.102 120.994C922.845 120.6 922.716 120.123 922.716 119.562C922.716 119.131 922.797 118.767 922.96 118.472C923.123 118.176 923.354 117.934 923.653 117.744C923.953 117.555 924.307 117.405 924.716 117.295C925.125 117.186 925.576 117.1 926.068 117.04C926.557 116.979 926.97 116.926 927.307 116.881C927.648 116.835 927.907 116.763 928.085 116.665C928.263 116.566 928.352 116.407 928.352 116.188V115.983C928.352 115.388 928.174 114.92 927.818 114.58C927.466 114.235 926.958 114.062 926.295 114.062C925.667 114.062 925.153 114.201 924.756 114.477C924.362 114.754 924.085 115.08 923.926 115.455L922.966 115.108C923.163 114.631 923.436 114.25 923.784 113.966C924.133 113.678 924.523 113.472 924.955 113.347C925.386 113.218 925.824 113.153 926.267 113.153C926.6 113.153 926.947 113.197 927.307 113.284C927.67 113.371 928.008 113.523 928.318 113.739C928.629 113.951 928.881 114.248 929.074 114.631C929.267 115.009 929.364 115.491 929.364 116.074V122H928.352V120.619H928.29C928.169 120.877 927.989 121.127 927.75 121.369C927.511 121.612 927.212 121.811 926.852 121.966C926.492 122.121 926.07 122.199 925.585 122.199ZM925.722 121.273C926.259 121.273 926.725 121.153 927.119 120.915C927.513 120.676 927.816 120.36 928.028 119.966C928.244 119.568 928.352 119.131 928.352 118.653V117.392C928.277 117.464 928.15 117.528 927.972 117.585C927.797 117.642 927.595 117.693 927.364 117.739C927.136 117.78 926.909 117.816 926.682 117.847C926.455 117.877 926.25 117.903 926.068 117.926C925.576 117.987 925.155 118.081 924.807 118.21C924.458 118.339 924.191 118.517 924.006 118.744C923.82 118.968 923.727 119.256 923.727 119.608C923.727 120.138 923.917 120.549 924.295 120.841C924.674 121.129 925.15 121.273 925.722 121.273ZM925.926 112.062L924.182 109.483H925.381L926.835 112.062H925.926ZM945.827 110.364V122H944.793L937.918 112.256H937.827V122H936.764V110.364H937.793L944.69 120.119H944.781V110.364H945.827ZM952.04 125.455C951.445 125.455 950.924 125.377 950.477 125.222C950.03 125.07 949.653 124.862 949.347 124.597C949.04 124.331 948.801 124.034 948.631 123.705L949.46 123.159C949.585 123.379 949.752 123.595 949.96 123.807C950.172 124.019 950.447 124.195 950.784 124.335C951.125 124.475 951.544 124.545 952.04 124.545C952.813 124.545 953.436 124.352 953.909 123.966C954.386 123.58 954.625 122.979 954.625 122.165V120.199H954.534C954.417 120.464 954.248 120.729 954.028 120.994C953.809 121.256 953.521 121.473 953.165 121.648C952.813 121.822 952.375 121.909 951.852 121.909C951.155 121.909 950.536 121.737 949.994 121.392C949.456 121.047 949.032 120.555 948.722 119.915C948.415 119.271 948.261 118.504 948.261 117.614C948.261 116.731 948.411 115.955 948.71 115.284C949.013 114.614 949.436 114.091 949.977 113.716C950.519 113.341 951.15 113.153 951.869 113.153C952.403 113.153 952.847 113.248 953.199 113.438C953.551 113.623 953.833 113.854 954.045 114.131C954.261 114.407 954.43 114.676 954.551 114.938H954.653V113.273H955.642V122.227C955.642 122.966 955.485 123.574 955.17 124.051C954.856 124.528 954.428 124.881 953.886 125.108C953.345 125.339 952.729 125.455 952.04 125.455ZM951.972 120.983C952.532 120.983 953.011 120.848 953.409 120.58C953.807 120.307 954.112 119.917 954.324 119.409C954.536 118.902 954.642 118.297 954.642 117.597C954.642 116.915 954.538 116.311 954.33 115.784C954.121 115.254 953.818 114.837 953.42 114.534C953.027 114.227 952.544 114.074 951.972 114.074C951.388 114.074 950.896 114.231 950.494 114.545C950.093 114.86 949.79 115.284 949.585 115.818C949.381 116.348 949.278 116.941 949.278 117.597C949.278 118.263 949.383 118.852 949.591 119.364C949.799 119.871 950.104 120.269 950.506 120.557C950.907 120.841 951.396 120.983 951.972 120.983ZM963.865 118.665V113.273H964.876V122H963.865V120.551H963.786C963.581 120.998 963.257 121.371 962.814 121.67C962.371 121.966 961.829 122.114 961.189 122.114C960.632 122.114 960.138 121.992 959.706 121.75C959.274 121.504 958.935 121.144 958.689 120.67C958.443 120.197 958.32 119.616 958.32 118.926V113.273H959.331V118.864C959.331 119.545 959.532 120.095 959.933 120.511C960.335 120.924 960.85 121.131 961.479 121.131C961.873 121.131 962.251 121.036 962.615 120.847C962.979 120.657 963.278 120.381 963.513 120.017C963.748 119.65 963.865 119.199 963.865 118.665ZM968.259 125.273C968.058 125.273 967.87 125.254 967.696 125.216C967.522 125.178 967.384 125.136 967.281 125.091L967.554 124.199C967.899 124.305 968.205 124.343 968.474 124.312C968.743 124.286 968.982 124.165 969.19 123.949C969.399 123.737 969.584 123.411 969.747 122.972L970.065 122.085L966.855 113.273H967.952L970.543 120.665H970.622L973.213 113.273H974.31L970.616 123.381C970.461 123.801 970.27 124.152 970.043 124.432C969.815 124.716 969.552 124.926 969.253 125.062C968.957 125.203 968.626 125.273 968.259 125.273ZM979.504 122.182C978.69 122.182 977.985 121.992 977.391 121.614C976.796 121.231 976.336 120.703 976.01 120.028C975.688 119.35 975.527 118.57 975.527 117.688C975.527 116.809 975.688 116.028 976.01 115.347C976.336 114.661 976.785 114.125 977.357 113.739C977.932 113.348 978.597 113.153 979.351 113.153C979.824 113.153 980.281 113.241 980.72 113.415C981.16 113.585 981.554 113.848 981.902 114.205C982.254 114.557 982.533 115.002 982.737 115.54C982.942 116.074 983.044 116.706 983.044 117.438V117.938H976.226V117.045H982.01C982.01 116.485 981.896 115.981 981.669 115.534C981.446 115.083 981.133 114.727 980.732 114.466C980.334 114.205 979.874 114.074 979.351 114.074C978.798 114.074 978.311 114.222 977.891 114.517C977.47 114.812 977.141 115.203 976.902 115.688C976.667 116.172 976.548 116.703 976.544 117.278V117.812C976.544 118.506 976.663 119.112 976.902 119.631C977.144 120.146 977.487 120.545 977.93 120.83C978.374 121.114 978.898 121.256 979.504 121.256C979.917 121.256 980.279 121.191 980.589 121.062C980.904 120.934 981.167 120.761 981.379 120.545C981.595 120.326 981.758 120.085 981.868 119.824L982.828 120.136C982.696 120.504 982.478 120.843 982.175 121.153C981.875 121.464 981.5 121.714 981.05 121.903C980.603 122.089 980.088 122.182 979.504 122.182ZM980.658 112.273L979.3 110.631L977.942 112.273H976.953V112.199L978.874 109.909H979.726L981.646 112.199V112.273H980.658ZM986.284 116.545V122H985.273V113.273H986.256V114.642H986.347C986.551 114.195 986.869 113.837 987.301 113.568C987.737 113.295 988.275 113.159 988.915 113.159C989.502 113.159 990.017 113.282 990.46 113.528C990.907 113.771 991.254 114.129 991.5 114.602C991.75 115.076 991.875 115.657 991.875 116.347V122H990.864V116.409C990.864 115.693 990.663 115.127 990.261 114.71C989.864 114.294 989.33 114.085 988.659 114.085C988.201 114.085 987.794 114.184 987.438 114.381C987.081 114.578 986.799 114.862 986.591 115.233C986.386 115.6 986.284 116.038 986.284 116.545ZM1002.48 113.273V114.153H998.311V113.273H1002.48ZM999.612 111.182H1000.63V119.722C1000.63 120.085 1000.69 120.371 1000.82 120.58C1000.94 120.784 1001.1 120.93 1001.31 121.017C1001.51 121.1 1001.72 121.142 1001.95 121.142C1002.08 121.142 1002.19 121.134 1002.29 121.119C1002.38 121.1 1002.47 121.081 1002.54 121.062L1002.75 121.977C1002.66 122.015 1002.53 122.049 1002.39 122.08C1002.25 122.114 1002.07 122.131 1001.86 122.131C1001.49 122.131 1001.13 122.049 1000.78 121.886C1000.44 121.723 1000.16 121.481 999.942 121.159C999.722 120.837 999.612 120.438 999.612 119.96V111.182ZM1007.21 122.199C1006.68 122.199 1006.2 122.097 1005.77 121.892C1005.33 121.684 1004.98 121.384 1004.73 120.994C1004.47 120.6 1004.34 120.123 1004.34 119.562C1004.34 119.131 1004.42 118.767 1004.59 118.472C1004.75 118.176 1004.98 117.934 1005.28 117.744C1005.58 117.555 1005.93 117.405 1006.34 117.295C1006.75 117.186 1007.2 117.1 1007.69 117.04C1008.18 116.979 1008.59 116.926 1008.93 116.881C1009.27 116.835 1009.53 116.763 1009.71 116.665C1009.89 116.566 1009.98 116.407 1009.98 116.188V115.983C1009.98 115.388 1009.8 114.92 1009.44 114.58C1009.09 114.235 1008.58 114.062 1007.92 114.062C1007.29 114.062 1006.78 114.201 1006.38 114.477C1005.99 114.754 1005.71 115.08 1005.55 115.455L1004.59 115.108C1004.79 114.631 1005.06 114.25 1005.41 113.966C1005.76 113.678 1006.15 113.472 1006.58 113.347C1007.01 113.218 1007.45 113.153 1007.89 113.153C1008.23 113.153 1008.57 113.197 1008.93 113.284C1009.3 113.371 1009.63 113.523 1009.94 113.739C1010.25 113.951 1010.51 114.248 1010.7 114.631C1010.89 115.009 1010.99 115.491 1010.99 116.074V122H1009.98V120.619H1009.91C1009.79 120.877 1009.61 121.127 1009.38 121.369C1009.14 121.612 1008.84 121.811 1008.48 121.966C1008.12 122.121 1007.7 122.199 1007.21 122.199ZM1007.35 121.273C1007.88 121.273 1008.35 121.153 1008.74 120.915C1009.14 120.676 1009.44 120.36 1009.65 119.966C1009.87 119.568 1009.98 119.131 1009.98 118.653V117.392C1009.9 117.464 1009.77 117.528 1009.6 117.585C1009.42 117.642 1009.22 117.693 1008.99 117.739C1008.76 117.78 1008.53 117.816 1008.31 117.847C1008.08 117.877 1007.88 117.903 1007.69 117.926C1007.2 117.987 1006.78 118.081 1006.43 118.21C1006.08 118.339 1005.82 118.517 1005.63 118.744C1005.45 118.968 1005.35 119.256 1005.35 119.608C1005.35 120.138 1005.54 120.549 1005.92 120.841C1006.3 121.129 1006.77 121.273 1007.35 121.273ZM1008.98 110.648H1009.95C1009.95 111.098 1009.77 111.466 1009.41 111.75C1009.05 112.03 1008.56 112.17 1007.93 112.17C1007.31 112.17 1006.81 112.03 1006.45 111.75C1006.09 111.466 1005.91 111.098 1005.91 110.648H1006.89C1006.89 110.905 1006.97 111.119 1007.13 111.29C1007.29 111.46 1007.56 111.545 1007.93 111.545C1008.3 111.545 1008.56 111.46 1008.73 111.29C1008.89 111.119 1008.98 110.905 1008.98 110.648ZM1007.56 110.403L1008.41 108.818H1009.41L1008.22 110.403H1007.56ZM1017.09 122.182C1016.31 122.182 1015.63 121.987 1015.05 121.597C1014.47 121.206 1014.03 120.672 1013.71 119.994C1013.39 119.316 1013.23 118.544 1013.23 117.676C1013.23 116.801 1013.39 116.023 1013.71 115.341C1014.04 114.659 1014.49 114.125 1015.07 113.739C1015.64 113.348 1016.31 113.153 1017.07 113.153C1017.65 113.153 1018.18 113.267 1018.66 113.494C1019.13 113.718 1019.52 114.034 1019.83 114.443C1020.14 114.848 1020.33 115.322 1020.41 115.864H1019.39C1019.28 115.371 1019.03 114.951 1018.62 114.602C1018.22 114.25 1017.71 114.074 1017.09 114.074C1016.53 114.074 1016.04 114.225 1015.61 114.528C1015.18 114.828 1014.85 115.246 1014.61 115.784C1014.37 116.318 1014.25 116.937 1014.25 117.642C1014.25 118.35 1014.36 118.977 1014.6 119.523C1014.83 120.064 1015.16 120.489 1015.59 120.795C1016.02 121.102 1016.52 121.256 1017.09 121.256C1017.47 121.256 1017.83 121.184 1018.14 121.04C1018.47 120.892 1018.74 120.684 1018.95 120.415C1019.17 120.146 1019.32 119.826 1019.39 119.455H1020.42C1020.34 119.981 1020.15 120.451 1019.86 120.864C1019.56 121.273 1019.18 121.595 1018.7 121.83C1018.23 122.064 1017.69 122.182 1017.09 122.182ZM1033.84 113.273L1030.65 122H1029.57L1026.39 113.273H1027.48L1030.07 120.665H1030.15L1032.74 113.273H1033.84ZM1037.99 122.199C1037.46 122.199 1036.98 122.097 1036.55 121.892C1036.11 121.684 1035.77 121.384 1035.51 120.994C1035.25 120.6 1035.12 120.123 1035.12 119.562C1035.12 119.131 1035.2 118.767 1035.37 118.472C1035.53 118.176 1035.76 117.934 1036.06 117.744C1036.36 117.555 1036.71 117.405 1037.12 117.295C1037.53 117.186 1037.98 117.1 1038.47 117.04C1038.96 116.979 1039.38 116.926 1039.71 116.881C1040.05 116.835 1040.31 116.763 1040.49 116.665C1040.67 116.566 1040.76 116.407 1040.76 116.188V115.983C1040.76 115.388 1040.58 114.92 1040.22 114.58C1039.87 114.235 1039.36 114.062 1038.7 114.062C1038.07 114.062 1037.56 114.201 1037.16 114.477C1036.77 114.754 1036.49 115.08 1036.33 115.455L1035.37 115.108C1035.57 114.631 1035.84 114.25 1036.19 113.966C1036.54 113.678 1036.93 113.472 1037.36 113.347C1037.79 113.218 1038.23 113.153 1038.67 113.153C1039.01 113.153 1039.35 113.197 1039.71 113.284C1040.08 113.371 1040.41 113.523 1040.72 113.739C1041.04 113.951 1041.29 114.248 1041.48 114.631C1041.67 115.009 1041.77 115.491 1041.77 116.074V122H1040.76V120.619H1040.7C1040.57 120.877 1040.39 121.127 1040.16 121.369C1039.92 121.612 1039.62 121.811 1039.26 121.966C1038.9 122.121 1038.48 122.199 1037.99 122.199ZM1038.13 121.273C1038.67 121.273 1039.13 121.153 1039.53 120.915C1039.92 120.676 1040.22 120.36 1040.43 119.966C1040.65 119.568 1040.76 119.131 1040.76 118.653V117.392C1040.68 117.464 1040.56 117.528 1040.38 117.585C1040.2 117.642 1040 117.693 1039.77 117.739C1039.54 117.78 1039.32 117.816 1039.09 117.847C1038.86 117.877 1038.66 117.903 1038.47 117.926C1037.98 117.987 1037.56 118.081 1037.21 118.21C1036.86 118.339 1036.6 118.517 1036.41 118.744C1036.23 118.968 1036.13 119.256 1036.13 119.608C1036.13 120.138 1036.32 120.549 1036.7 120.841C1037.08 121.129 1037.56 121.273 1038.13 121.273ZM1039.81 110.364H1040.76C1040.76 110.905 1040.58 111.345 1040.22 111.682C1039.87 112.019 1039.38 112.188 1038.76 112.188C1038.15 112.188 1037.67 112.019 1037.32 111.682C1036.96 111.345 1036.78 110.905 1036.78 110.364H1037.74C1037.74 110.659 1037.82 110.909 1037.97 111.114C1038.14 111.314 1038.4 111.415 1038.76 111.415C1039.13 111.415 1039.39 111.314 1039.56 111.114C1039.73 110.909 1039.81 110.659 1039.81 110.364ZM1045.47 116.545V122H1044.46V113.273H1045.44V114.642H1045.53C1045.74 114.195 1046.06 113.837 1046.49 113.568C1046.92 113.295 1047.46 113.159 1048.1 113.159C1048.69 113.159 1049.2 113.282 1049.65 113.528C1050.09 113.771 1050.44 114.129 1050.69 114.602C1050.94 115.076 1051.06 115.657 1051.06 116.347V122H1050.05V116.409C1050.05 115.693 1049.85 115.127 1049.45 114.71C1049.05 114.294 1048.52 114.085 1047.85 114.085C1047.39 114.085 1046.98 114.184 1046.62 114.381C1046.27 114.578 1045.99 114.862 1045.78 115.233C1045.57 115.6 1045.47 116.038 1045.47 116.545ZM1059.24 116.545V122H1058.23V110.364H1059.24V114.642H1059.33C1059.53 114.191 1059.85 113.831 1060.28 113.562C1060.71 113.294 1061.25 113.159 1061.91 113.159C1062.5 113.159 1063.02 113.28 1063.47 113.523C1063.92 113.765 1064.27 114.123 1064.52 114.597C1064.77 115.07 1064.89 115.653 1064.89 116.347V122H1063.87V116.409C1063.87 115.689 1063.67 115.123 1063.27 114.71C1062.87 114.294 1062.34 114.085 1061.66 114.085C1061.19 114.085 1060.78 114.184 1060.41 114.381C1060.05 114.578 1059.76 114.862 1059.55 115.233C1059.34 115.6 1059.24 116.038 1059.24 116.545ZM1070.95 122.182C1070.19 122.182 1069.53 121.991 1068.95 121.608C1068.37 121.225 1067.92 120.697 1067.59 120.023C1067.27 119.345 1067.11 118.562 1067.11 117.676C1067.11 116.782 1067.27 115.996 1067.59 115.318C1067.92 114.636 1068.37 114.106 1068.95 113.727C1069.53 113.345 1070.19 113.153 1070.95 113.153C1071.7 113.153 1072.36 113.345 1072.94 113.727C1073.52 114.11 1073.97 114.64 1074.29 115.318C1074.62 115.996 1074.79 116.782 1074.79 117.676C1074.79 118.562 1074.62 119.345 1074.3 120.023C1073.97 120.697 1073.52 121.225 1072.94 121.608C1072.36 121.991 1071.7 122.182 1070.95 122.182ZM1070.95 121.256C1071.55 121.256 1072.07 121.093 1072.49 120.767C1072.91 120.441 1073.22 120.008 1073.44 119.466C1073.66 118.924 1073.77 118.328 1073.77 117.676C1073.77 117.025 1073.66 116.426 1073.44 115.881C1073.22 115.335 1072.91 114.898 1072.49 114.568C1072.07 114.239 1071.55 114.074 1070.95 114.074C1070.34 114.074 1069.83 114.239 1069.41 114.568C1068.99 114.898 1068.67 115.335 1068.45 115.881C1068.23 116.426 1068.12 117.025 1068.12 117.676C1068.12 118.328 1068.23 118.924 1068.45 119.466C1068.67 120.008 1068.99 120.441 1069.41 120.767C1069.83 121.093 1070.34 121.256 1070.95 121.256ZM1070.47 112.062L1071.93 109.483H1073.13L1071.38 112.062H1070.47ZM1079.44 122.199C1078.92 122.199 1078.44 122.097 1078 121.892C1077.57 121.684 1077.22 121.384 1076.96 120.994C1076.7 120.6 1076.58 120.123 1076.58 119.562C1076.58 119.131 1076.66 118.767 1076.82 118.472C1076.98 118.176 1077.21 117.934 1077.51 117.744C1077.81 117.555 1078.17 117.405 1078.58 117.295C1078.98 117.186 1079.44 117.1 1079.93 117.04C1080.42 116.979 1080.83 116.926 1081.17 116.881C1081.51 116.835 1081.77 116.763 1081.94 116.665C1082.12 116.566 1082.21 116.407 1082.21 116.188V115.983C1082.21 115.388 1082.03 114.92 1081.68 114.58C1081.33 114.235 1080.82 114.062 1080.15 114.062C1079.53 114.062 1079.01 114.201 1078.62 114.477C1078.22 114.754 1077.94 115.08 1077.79 115.455L1076.83 115.108C1077.02 114.631 1077.29 114.25 1077.64 113.966C1077.99 113.678 1078.38 113.472 1078.81 113.347C1079.25 113.218 1079.68 113.153 1080.13 113.153C1080.46 113.153 1080.81 113.197 1081.17 113.284C1081.53 113.371 1081.87 113.523 1082.18 113.739C1082.49 113.951 1082.74 114.248 1082.93 114.631C1083.13 115.009 1083.22 115.491 1083.22 116.074V122H1082.21V120.619H1082.15C1082.03 120.877 1081.85 121.127 1081.61 121.369C1081.37 121.612 1081.07 121.811 1080.71 121.966C1080.35 122.121 1079.93 122.199 1079.44 122.199ZM1079.58 121.273C1080.12 121.273 1080.58 121.153 1080.98 120.915C1081.37 120.676 1081.68 120.36 1081.89 119.966C1082.1 119.568 1082.21 119.131 1082.21 118.653V117.392C1082.14 117.464 1082.01 117.528 1081.83 117.585C1081.66 117.642 1081.45 117.693 1081.22 117.739C1081 117.78 1080.77 117.816 1080.54 117.847C1080.31 117.877 1080.11 117.903 1079.93 117.926C1079.44 117.987 1079.01 118.081 1078.67 118.21C1078.32 118.339 1078.05 118.517 1077.87 118.744C1077.68 118.968 1077.59 119.256 1077.59 119.608C1077.59 120.138 1077.78 120.549 1078.15 120.841C1078.53 121.129 1079.01 121.273 1079.58 121.273ZM1090.41 125.273V113.273H1091.4V114.938H1091.52C1091.64 114.676 1091.8 114.409 1092.02 114.136C1092.23 113.86 1092.51 113.627 1092.86 113.438C1093.21 113.248 1093.65 113.153 1094.19 113.153C1094.91 113.153 1095.53 113.343 1096.07 113.722C1096.61 114.097 1097.03 114.623 1097.33 115.301C1097.64 115.975 1097.79 116.761 1097.79 117.659C1097.79 118.561 1097.64 119.35 1097.33 120.028C1097.03 120.706 1096.61 121.235 1096.07 121.614C1095.53 121.992 1094.91 122.182 1094.2 122.182C1093.67 122.182 1093.23 122.087 1092.87 121.898C1092.52 121.708 1092.24 121.475 1092.02 121.199C1091.8 120.919 1091.63 120.646 1091.52 120.381H1091.42V125.273H1090.41ZM1091.41 117.642C1091.41 118.347 1091.52 118.972 1091.73 119.517C1091.94 120.059 1092.24 120.485 1092.63 120.795C1093.03 121.102 1093.51 121.256 1094.08 121.256C1094.66 121.256 1095.15 121.097 1095.54 120.778C1095.95 120.456 1096.25 120.023 1096.46 119.477C1096.67 118.932 1096.78 118.32 1096.78 117.642C1096.78 116.972 1096.67 116.367 1096.46 115.83C1096.26 115.292 1095.96 114.866 1095.56 114.551C1095.15 114.233 1094.66 114.074 1094.08 114.074C1093.51 114.074 1093.03 114.227 1092.63 114.534C1092.23 114.837 1091.93 115.258 1091.72 115.795C1091.52 116.33 1091.41 116.945 1091.41 117.642ZM1101.02 116.545V122H1100.01V110.364H1101.02V114.642H1101.11C1101.31 114.191 1101.63 113.831 1102.06 113.562C1102.49 113.294 1103.04 113.159 1103.69 113.159C1104.29 113.159 1104.8 113.28 1105.25 113.523C1105.7 113.765 1106.05 114.123 1106.3 114.597C1106.55 115.07 1106.67 115.653 1106.67 116.347V122H1105.65V116.409C1105.65 115.689 1105.45 115.123 1105.05 114.71C1104.65 114.294 1104.12 114.085 1103.44 114.085C1102.97 114.085 1102.56 114.184 1102.19 114.381C1101.83 114.578 1101.54 114.862 1101.33 115.233C1101.12 115.6 1101.02 116.038 1101.02 116.545ZM1111.77 122.199C1111.25 122.199 1110.77 122.097 1110.33 121.892C1109.89 121.684 1109.55 121.384 1109.29 120.994C1109.03 120.6 1108.9 120.123 1108.9 119.562C1108.9 119.131 1108.98 118.767 1109.15 118.472C1109.31 118.176 1109.54 117.934 1109.84 117.744C1110.14 117.555 1110.49 117.405 1110.9 117.295C1111.31 117.186 1111.76 117.1 1112.26 117.04C1112.74 116.979 1113.16 116.926 1113.49 116.881C1113.84 116.835 1114.09 116.763 1114.27 116.665C1114.45 116.566 1114.54 116.407 1114.54 116.188V115.983C1114.54 115.388 1114.36 114.92 1114.01 114.58C1113.65 114.235 1113.15 114.062 1112.48 114.062C1111.85 114.062 1111.34 114.201 1110.94 114.477C1110.55 114.754 1110.27 115.08 1110.11 115.455L1109.15 115.108C1109.35 114.631 1109.62 114.25 1109.97 113.966C1110.32 113.678 1110.71 113.472 1111.14 113.347C1111.57 113.218 1112.01 113.153 1112.45 113.153C1112.79 113.153 1113.13 113.197 1113.49 113.284C1113.86 113.371 1114.2 113.523 1114.51 113.739C1114.82 113.951 1115.07 114.248 1115.26 114.631C1115.45 115.009 1115.55 115.491 1115.55 116.074V122H1114.54V120.619H1114.48C1114.36 120.877 1114.18 121.127 1113.94 121.369C1113.7 121.612 1113.4 121.811 1113.04 121.966C1112.68 122.121 1112.26 122.199 1111.77 122.199ZM1111.91 121.273C1112.45 121.273 1112.91 121.153 1113.31 120.915C1113.7 120.676 1114 120.36 1114.22 119.966C1114.43 119.568 1114.54 119.131 1114.54 118.653V117.392C1114.46 117.464 1114.34 117.528 1114.16 117.585C1113.98 117.642 1113.78 117.693 1113.55 117.739C1113.32 117.78 1113.1 117.816 1112.87 117.847C1112.64 117.877 1112.44 117.903 1112.26 117.926C1111.76 117.987 1111.34 118.081 1110.99 118.21C1110.65 118.339 1110.38 118.517 1110.19 118.744C1110.01 118.968 1109.91 119.256 1109.91 119.608C1109.91 120.138 1110.1 120.549 1110.48 120.841C1110.86 121.129 1111.34 121.273 1111.91 121.273ZM1112.99 112.114H1112.13V110.926C1112.54 110.903 1112.83 110.841 1113 110.739C1113.17 110.636 1113.25 110.475 1113.25 110.256C1113.25 110.006 1113.13 109.824 1112.9 109.71C1112.67 109.593 1112.36 109.532 1111.97 109.528L1112.02 108.835C1112.74 108.835 1113.28 108.966 1113.64 109.227C1114 109.489 1114.18 109.837 1114.18 110.273C1114.18 110.652 1114.06 110.937 1113.82 111.131C1113.59 111.32 1113.31 111.434 1112.99 111.472V112.114ZM1118.25 122V113.273H1119.27V122H1118.25ZM1118.77 111.773C1118.56 111.773 1118.38 111.703 1118.24 111.562C1118.09 111.419 1118.01 111.246 1118.01 111.045C1118.01 110.845 1118.09 110.674 1118.24 110.534C1118.38 110.39 1118.56 110.318 1118.77 110.318C1118.98 110.318 1119.16 110.39 1119.3 110.534C1119.45 110.674 1119.53 110.845 1119.53 111.045C1119.53 111.246 1119.45 111.419 1119.3 111.562C1119.16 111.703 1118.98 111.773 1118.77 111.773ZM1129.59 122.182C1128.87 122.182 1128.24 121.992 1127.71 121.614C1127.17 121.235 1126.75 120.706 1126.44 120.028C1126.15 119.35 1126 118.561 1126 117.659C1126 116.761 1126.15 115.975 1126.44 115.301C1126.75 114.623 1127.17 114.097 1127.71 113.722C1128.25 113.343 1128.88 113.153 1129.6 113.153C1130.13 113.153 1130.58 113.248 1130.93 113.438C1131.28 113.623 1131.56 113.854 1131.77 114.131C1131.99 114.407 1132.15 114.676 1132.27 114.938H1132.36V110.364H1133.38V122H1132.39V120.381H1132.27C1132.15 120.646 1131.98 120.919 1131.77 121.199C1131.55 121.475 1131.27 121.708 1130.91 121.898C1130.56 122.087 1130.12 122.182 1129.59 122.182ZM1129.71 121.256C1130.27 121.256 1130.75 121.102 1131.15 120.795C1131.55 120.485 1131.85 120.059 1132.06 119.517C1132.27 118.972 1132.38 118.347 1132.38 117.642C1132.38 116.945 1132.27 116.33 1132.06 115.795C1131.86 115.258 1131.55 114.837 1131.15 114.534C1130.76 114.227 1130.27 114.074 1129.71 114.074C1129.12 114.074 1128.63 114.233 1128.23 114.551C1127.83 114.866 1127.53 115.292 1127.32 115.83C1127.12 116.367 1127.01 116.972 1127.01 117.642C1127.01 118.32 1127.12 118.932 1127.33 119.477C1127.53 120.023 1127.84 120.456 1128.23 120.778C1128.64 121.097 1129.13 121.256 1129.71 121.256ZM1129.94 112.409V111.591H1134.72V112.409H1129.94ZM1136.82 122V113.273H1137.83V122H1136.82ZM1137.33 111.773C1137.12 111.773 1136.95 111.703 1136.8 111.562C1136.65 111.419 1136.58 111.246 1136.58 111.045C1136.58 110.845 1136.65 110.674 1136.8 110.534C1136.95 110.39 1137.12 110.318 1137.33 110.318C1137.54 110.318 1137.72 110.39 1137.87 110.534C1138.01 110.674 1138.09 110.845 1138.09 111.045C1138.09 111.246 1138.01 111.419 1137.87 111.562C1137.72 111.703 1137.54 111.773 1137.33 111.773ZM1148.15 122.182C1147.43 122.182 1146.81 121.992 1146.27 121.614C1145.73 121.235 1145.31 120.706 1145.01 120.028C1144.71 119.35 1144.56 118.561 1144.56 117.659C1144.56 116.761 1144.71 115.975 1145.01 115.301C1145.31 114.623 1145.73 114.097 1146.27 113.722C1146.82 113.343 1147.45 113.153 1148.17 113.153C1148.7 113.153 1149.14 113.248 1149.49 113.438C1149.84 113.623 1150.12 113.854 1150.34 114.131C1150.55 114.407 1150.71 114.676 1150.83 114.938H1150.92V110.364H1151.94V122H1150.95V120.381H1150.83C1150.71 120.646 1150.55 120.919 1150.33 121.199C1150.12 121.475 1149.83 121.708 1149.47 121.898C1149.12 122.087 1148.68 122.182 1148.15 122.182ZM1148.27 121.256C1148.83 121.256 1149.31 121.102 1149.71 120.795C1150.11 120.485 1150.41 120.059 1150.62 119.517C1150.83 118.972 1150.94 118.347 1150.94 117.642C1150.94 116.945 1150.83 116.33 1150.63 115.795C1150.42 115.258 1150.12 114.837 1149.72 114.534C1149.32 114.227 1148.84 114.074 1148.27 114.074C1147.69 114.074 1147.19 114.233 1146.79 114.551C1146.39 114.866 1146.09 115.292 1145.88 115.83C1145.68 116.367 1145.58 116.972 1145.58 117.642C1145.58 118.32 1145.68 118.932 1145.89 119.477C1146.1 120.023 1146.4 120.456 1146.8 120.778C1147.2 121.097 1147.69 121.256 1148.27 121.256ZM1148.51 112.409V111.591H1153.28V112.409H1148.51ZM1158.21 122.182C1157.46 122.182 1156.79 121.991 1156.21 121.608C1155.64 121.225 1155.19 120.697 1154.86 120.023C1154.53 119.345 1154.37 118.562 1154.37 117.676C1154.37 116.782 1154.53 115.996 1154.86 115.318C1155.19 114.636 1155.64 114.106 1156.21 113.727C1156.79 113.345 1157.46 113.153 1158.21 113.153C1158.97 113.153 1159.63 113.345 1160.21 113.727C1160.78 114.11 1161.23 114.64 1161.56 115.318C1161.89 115.996 1162.05 116.782 1162.05 117.676C1162.05 118.562 1161.89 119.345 1161.56 120.023C1161.24 120.697 1160.79 121.225 1160.21 121.608C1159.63 121.991 1158.97 122.182 1158.21 122.182ZM1158.21 121.256C1158.82 121.256 1159.33 121.093 1159.75 120.767C1160.17 120.441 1160.49 120.008 1160.71 119.466C1160.93 118.924 1161.04 118.328 1161.04 117.676C1161.04 117.025 1160.93 116.426 1160.71 115.881C1160.49 115.335 1160.17 114.898 1159.75 114.568C1159.33 114.239 1158.82 114.074 1158.21 114.074C1157.61 114.074 1157.1 114.239 1156.67 114.568C1156.25 114.898 1155.93 115.335 1155.71 115.881C1155.5 116.426 1155.39 117.025 1155.39 117.676C1155.39 118.328 1155.5 118.924 1155.71 119.466C1155.93 120.008 1156.25 120.441 1156.67 120.767C1157.09 121.093 1157.61 121.256 1158.21 121.256ZM1159.57 112.273L1158.21 110.631L1156.85 112.273H1155.87V112.199L1157.79 109.909H1158.64L1160.56 112.199V112.273H1159.57ZM1164.28 122V113.273H1165.3V122H1164.28ZM1164.8 111.773C1164.59 111.773 1164.41 111.703 1164.27 111.562C1164.12 111.419 1164.05 111.246 1164.05 111.045C1164.05 110.845 1164.12 110.674 1164.27 110.534C1164.41 110.39 1164.59 110.318 1164.8 110.318C1165.01 110.318 1165.19 110.39 1165.34 110.534C1165.48 110.674 1165.56 110.845 1165.56 111.045C1165.56 111.246 1165.48 111.419 1165.34 111.562C1165.19 111.703 1165.01 111.773 1164.8 111.773ZM1179.23 113.273L1176.04 122H1174.96L1171.78 113.273H1172.87L1175.46 120.665H1175.54L1178.13 113.273H1179.23ZM1187.89 112.562H1188.85C1188.85 113.366 1188.68 113.998 1188.34 114.46C1188 114.919 1187.41 115.155 1186.58 115.17V114.415C1186.95 114.403 1187.22 114.324 1187.41 114.176C1187.6 114.025 1187.73 113.812 1187.79 113.54C1187.86 113.267 1187.89 112.941 1187.89 112.562ZM1184.29 122.182C1183.54 122.182 1182.87 121.991 1182.29 121.608C1181.71 121.225 1181.26 120.697 1180.94 120.023C1180.61 119.345 1180.45 118.562 1180.45 117.676C1180.45 116.782 1180.61 115.996 1180.94 115.318C1181.26 114.636 1181.71 114.106 1182.29 113.727C1182.87 113.345 1183.54 113.153 1184.29 113.153C1185.04 113.153 1185.71 113.345 1186.28 113.727C1186.86 114.11 1187.31 114.64 1187.64 115.318C1187.97 115.996 1188.13 116.782 1188.13 117.676C1188.13 118.562 1187.97 119.345 1187.64 120.023C1187.32 120.697 1186.86 121.225 1186.28 121.608C1185.71 121.991 1185.04 122.182 1184.29 122.182ZM1184.29 121.256C1184.9 121.256 1185.41 121.093 1185.83 120.767C1186.25 120.441 1186.57 120.008 1186.78 119.466C1187 118.924 1187.11 118.328 1187.11 117.676C1187.11 117.025 1187 116.426 1186.78 115.881C1186.57 115.335 1186.25 114.898 1185.83 114.568C1185.41 114.239 1184.9 114.074 1184.29 114.074C1183.69 114.074 1183.17 114.239 1182.75 114.568C1182.33 114.898 1182.01 115.335 1181.79 115.881C1181.57 116.426 1181.47 117.025 1181.47 117.676C1181.47 118.328 1181.57 118.924 1181.79 119.466C1182.01 120.008 1182.33 120.441 1182.75 120.767C1183.17 121.093 1183.68 121.256 1184.29 121.256ZM1183.82 112.062L1185.27 109.483H1186.47L1184.73 112.062H1183.82ZM1190.3 122V113.273H1191.32V122H1190.3ZM1190.82 111.773C1190.61 111.773 1190.43 111.703 1190.28 111.562C1190.13 111.419 1190.06 111.246 1190.06 111.045C1190.06 110.845 1190.13 110.674 1190.28 110.534C1190.43 110.39 1190.61 110.318 1190.82 110.318C1191.03 110.318 1191.2 110.39 1191.35 110.534C1191.5 110.674 1191.57 110.845 1191.57 111.045C1191.57 111.246 1191.5 111.419 1191.35 111.562C1191.2 111.703 1191.03 111.773 1190.82 111.773ZM1199.5 116.545V122H1198.49V113.273H1199.47V114.642H1199.57C1199.77 114.195 1200.09 113.837 1200.52 113.568C1200.96 113.295 1201.49 113.159 1202.13 113.159C1202.72 113.159 1203.24 113.282 1203.68 113.528C1204.13 113.771 1204.47 114.129 1204.72 114.602C1204.97 115.076 1205.09 115.657 1205.09 116.347V122H1204.08V116.409C1204.08 115.693 1203.88 115.127 1203.48 114.71C1203.08 114.294 1202.55 114.085 1201.88 114.085C1201.42 114.085 1201.01 114.184 1200.66 114.381C1200.3 114.578 1200.02 114.862 1199.81 115.233C1199.61 115.6 1199.5 116.038 1199.5 116.545ZM1208.77 116.545V122H1207.76V110.364H1208.77V114.642H1208.86C1209.06 114.191 1209.38 113.831 1209.81 113.562C1210.24 113.294 1210.79 113.159 1211.44 113.159C1212.04 113.159 1212.55 113.28 1213 113.523C1213.45 113.765 1213.8 114.123 1214.05 114.597C1214.3 115.07 1214.42 115.653 1214.42 116.347V122H1213.4V116.409C1213.4 115.689 1213.2 115.123 1212.8 114.71C1212.4 114.294 1211.87 114.085 1211.19 114.085C1210.72 114.085 1210.31 114.184 1209.94 114.381C1209.58 114.578 1209.29 114.862 1209.08 115.233C1208.87 115.6 1208.77 116.038 1208.77 116.545ZM1219.52 122.199C1219 122.199 1218.52 122.097 1218.08 121.892C1217.64 121.684 1217.3 121.384 1217.04 120.994C1216.78 120.6 1216.65 120.123 1216.65 119.562C1216.65 119.131 1216.73 118.767 1216.9 118.472C1217.06 118.176 1217.29 117.934 1217.59 117.744C1217.89 117.555 1218.24 117.405 1218.65 117.295C1219.06 117.186 1219.51 117.1 1220.01 117.04C1220.49 116.979 1220.91 116.926 1221.24 116.881C1221.59 116.835 1221.84 116.763 1222.02 116.665C1222.2 116.566 1222.29 116.407 1222.29 116.188V115.983C1222.29 115.388 1222.11 114.92 1221.76 114.58C1221.4 114.235 1220.9 114.062 1220.23 114.062C1219.6 114.062 1219.09 114.201 1218.69 114.477C1218.3 114.754 1218.02 115.08 1217.86 115.455L1216.9 115.108C1217.1 114.631 1217.37 114.25 1217.72 113.966C1218.07 113.678 1218.46 113.472 1218.89 113.347C1219.32 113.218 1219.76 113.153 1220.2 113.153C1220.54 113.153 1220.88 113.197 1221.24 113.284C1221.61 113.371 1221.95 113.523 1222.26 113.739C1222.57 113.951 1222.82 114.248 1223.01 114.631C1223.2 115.009 1223.3 115.491 1223.3 116.074V122H1222.29V120.619H1222.23C1222.11 120.877 1221.93 121.127 1221.69 121.369C1221.45 121.612 1221.15 121.811 1220.79 121.966C1220.43 122.121 1220.01 122.199 1219.52 122.199ZM1219.66 121.273C1220.2 121.273 1220.66 121.153 1221.06 120.915C1221.45 120.676 1221.75 120.36 1221.97 119.966C1222.18 119.568 1222.29 119.131 1222.29 118.653V117.392C1222.21 117.464 1222.09 117.528 1221.91 117.585C1221.73 117.642 1221.53 117.693 1221.3 117.739C1221.07 117.78 1220.85 117.816 1220.62 117.847C1220.39 117.877 1220.19 117.903 1220.01 117.926C1219.51 117.987 1219.09 118.081 1218.74 118.21C1218.4 118.339 1218.13 118.517 1217.94 118.744C1217.76 118.968 1217.66 119.256 1217.66 119.608C1217.66 120.138 1217.85 120.549 1218.23 120.841C1218.61 121.129 1219.09 121.273 1219.66 121.273ZM1231.54 118.665V113.273H1232.55V122H1231.54V120.551H1231.46C1231.25 120.998 1230.93 121.371 1230.49 121.67C1230.04 121.966 1229.5 122.114 1228.86 122.114C1228.3 122.114 1227.81 121.992 1227.38 121.75C1226.95 121.504 1226.61 121.144 1226.36 120.67C1226.11 120.197 1225.99 119.616 1225.99 118.926V113.273H1227V118.864C1227 119.545 1227.2 120.095 1227.61 120.511C1228.01 120.924 1228.52 121.131 1229.15 121.131C1229.54 121.131 1229.92 121.036 1230.29 120.847C1230.65 120.657 1230.95 120.381 1231.18 120.017C1231.42 119.65 1231.54 119.199 1231.54 118.665ZM1236.03 122.085C1235.81 122.085 1235.62 122.006 1235.45 121.847C1235.29 121.684 1235.21 121.491 1235.21 121.267C1235.21 121.04 1235.29 120.847 1235.45 120.688C1235.62 120.528 1235.81 120.449 1236.03 120.449C1236.26 120.449 1236.45 120.528 1236.61 120.688C1236.77 120.847 1236.85 121.04 1236.85 121.267C1236.85 121.415 1236.81 121.551 1236.74 121.676C1236.67 121.801 1236.57 121.902 1236.44 121.977C1236.32 122.049 1236.18 122.085 1236.03 122.085Z" fill="white"/>
</svg>
