<svg width="100%" viewBox="0 0 1920 70" fill="none" xmlns="http://www.w3.org/2000/svg">
<rect x="1323.5" y="5.5" width="415" height="58" rx="19.5" stroke="url(#paint0_linear_2014_705)"/>
<path d="M1407.14 28.3636V40H1405.26L1399.78 32.0739H1399.69V40H1397.58V28.3636H1399.46L1404.94 36.2955H1405.04V28.3636H1407.14ZM1409.44 40V28.3636H1411.54V33.2898H1416.94V28.3636H1419.05V40H1416.94V35.0568H1411.54V40H1409.44ZM1423.45 28.3636V40H1421.34V28.3636H1423.45ZM1425.73 40V28.3636H1433.3V30.1307H1427.84V33.2898H1432.91V35.0568H1427.84V38.233H1433.35V40H1425.73ZM1430.68 27.3182L1429.52 25.8636L1428.37 27.3182H1426.57V27.2386L1428.72 24.7841H1430.33L1432.48 27.2386V27.3182H1430.68ZM1429.46 43.142C1429.13 43.142 1428.84 43.0322 1428.61 42.8125C1428.38 42.5928 1428.26 42.3295 1428.26 42.0227C1428.26 41.7159 1428.38 41.4527 1428.61 41.233C1428.84 41.0133 1429.12 40.9034 1429.45 40.9034C1429.78 40.9034 1430.06 41.0133 1430.29 41.233C1430.53 41.4527 1430.64 41.7159 1430.64 42.0227C1430.64 42.3295 1430.53 42.5928 1430.29 42.8125C1430.06 43.0322 1429.78 43.142 1429.46 43.142ZM1434.94 30.1307V28.3636H1444.23V30.1307H1440.63V40H1438.54V30.1307H1434.94ZM1449.98 40V28.3636H1452.09V33.2898H1457.48V28.3636H1459.6V40H1457.48V35.0568H1452.09V40H1449.98ZM1469.23 28.3636H1471.33V35.9659C1471.33 36.7992 1471.14 37.5322 1470.74 38.1648C1470.35 38.7973 1469.8 39.2917 1469.09 39.6477C1468.39 40 1467.56 40.1761 1466.61 40.1761C1465.66 40.1761 1464.83 40 1464.12 39.6477C1463.41 39.2917 1462.87 38.7973 1462.48 38.1648C1462.08 37.5322 1461.89 36.7992 1461.89 35.9659V28.3636H1464V35.7898C1464 36.2746 1464.1 36.7064 1464.32 37.0852C1464.53 37.464 1464.83 37.7614 1465.23 37.9773C1465.62 38.1894 1466.08 38.2955 1466.61 38.2955C1467.15 38.2955 1467.61 38.1894 1468 37.9773C1468.39 37.7614 1468.69 37.464 1468.91 37.0852C1469.12 36.7064 1469.23 36.2746 1469.23 35.7898V28.3636ZM1472.83 28.3636H1475.21L1478.06 33.5114H1478.17L1481.02 28.3636H1483.4L1479.16 35.6591V40H1477.06V35.6591L1472.83 28.3636ZM1484.89 40V28.3636H1492.46V30.1307H1487V33.2898H1492.07V35.0568H1487V38.233H1492.5V40H1484.89ZM1485.73 27.3636L1488.03 25.4943H1489.31L1491.62 27.3636H1489.91L1488.68 26.3182L1487.44 27.3636H1485.73ZM1491.01 26.2273L1492.28 24.1307H1494.08L1492.33 26.2273H1491.01ZM1494.1 30.1307V28.3636H1503.38V30.1307H1499.78V40H1497.69V30.1307H1494.1ZM1514.3 33.7045V34.6591H1509.46V33.7045H1514.3ZM1530.67 32H1529.6C1529.52 31.6023 1529.38 31.2348 1529.17 30.8977C1528.96 30.5568 1528.7 30.2595 1528.39 30.0057C1528.08 29.7519 1527.73 29.5549 1527.34 29.4148C1526.94 29.2746 1526.52 29.2045 1526.06 29.2045C1525.32 29.2045 1524.65 29.3958 1524.05 29.7784C1523.45 30.161 1522.96 30.7235 1522.6 31.4659C1522.24 32.2045 1522.06 33.1098 1522.06 34.1818C1522.06 35.2614 1522.24 36.1705 1522.6 36.9091C1522.96 37.6477 1523.45 38.2083 1524.05 38.5909C1524.65 38.9697 1525.32 39.1591 1526.06 39.1591C1526.52 39.1591 1526.94 39.089 1527.34 38.9489C1527.73 38.8087 1528.08 38.6136 1528.39 38.3636C1528.7 38.1098 1528.96 37.8125 1529.17 37.4716C1529.38 37.1307 1529.52 36.7614 1529.6 36.3636H1530.67C1530.57 36.8977 1530.39 37.3958 1530.13 37.858C1529.88 38.3163 1529.55 38.7178 1529.14 39.0625C1528.75 39.4072 1528.29 39.6761 1527.77 39.8693C1527.25 40.0625 1526.68 40.1591 1526.06 40.1591C1525.08 40.1591 1524.21 39.9148 1523.46 39.4261C1522.7 38.9337 1522.1 38.2405 1521.67 37.3466C1521.24 36.4527 1521.03 35.3977 1521.03 34.1818C1521.03 32.9659 1521.24 31.911 1521.67 31.017C1522.1 30.1231 1522.7 29.4318 1523.46 28.9432C1524.21 28.4508 1525.08 28.2045 1526.06 28.2045C1526.68 28.2045 1527.25 28.3011 1527.77 28.4943C1528.29 28.6837 1528.75 28.9527 1529.14 29.3011C1529.55 29.6458 1529.88 30.0473 1530.13 30.5057C1530.39 30.964 1530.57 31.4621 1530.67 32ZM1533.96 34.5455V40H1532.95V28.3636H1533.96V32.642H1534.05C1534.26 32.1913 1534.58 31.8314 1535 31.5625C1535.44 31.2936 1535.98 31.1591 1536.64 31.1591C1537.23 31.1591 1537.75 31.2803 1538.2 31.5227C1538.64 31.7652 1538.99 32.1231 1539.24 32.5966C1539.49 33.0701 1539.62 33.6534 1539.62 34.3466V40H1538.6V34.4091C1538.6 33.6894 1538.4 33.1231 1538 32.7102C1537.6 32.2936 1537.06 32.0852 1536.38 32.0852C1535.92 32.0852 1535.5 32.1837 1535.14 32.3807C1534.78 32.5777 1534.49 32.8617 1534.28 33.233C1534.07 33.6004 1533.96 34.0379 1533.96 34.5455ZM1549.85 30.9148H1550.76C1550.76 31.4602 1550.69 31.9148 1550.55 32.2784C1550.41 32.6383 1550.17 32.9091 1549.83 33.0909C1549.5 33.2727 1549.04 33.3636 1548.45 33.3636V32.6193C1548.87 32.6193 1549.18 32.5625 1549.38 32.4489C1549.58 32.3314 1549.71 32.1477 1549.76 31.8977C1549.82 31.6439 1549.85 31.3163 1549.85 30.9148ZM1547.8 36.6648V31.2727H1548.81V40H1547.8V38.5511H1547.72C1547.52 38.9981 1547.2 39.3712 1546.75 39.6705C1546.31 39.9659 1545.77 40.1136 1545.13 40.1136C1544.57 40.1136 1544.08 39.9924 1543.64 39.75C1543.21 39.5038 1542.87 39.1439 1542.63 38.6705C1542.38 38.197 1542.26 37.6155 1542.26 36.9261V31.2727H1543.27V36.8636C1543.27 37.5455 1543.47 38.0947 1543.87 38.5114C1544.27 38.9242 1544.79 39.1307 1545.42 39.1307C1545.81 39.1307 1546.19 39.036 1546.55 38.8466C1546.92 38.6572 1547.22 38.3807 1547.45 38.017C1547.69 37.6496 1547.8 37.1989 1547.8 36.6648ZM1554.2 40.1989C1553.68 40.1989 1553.19 40.0966 1552.76 39.892C1552.32 39.6837 1551.98 39.3845 1551.72 38.9943C1551.46 38.6004 1551.33 38.1231 1551.33 37.5625C1551.33 37.1307 1551.41 36.767 1551.58 36.4716C1551.74 36.1761 1551.97 35.9337 1552.27 35.7443C1552.57 35.5549 1552.92 35.4053 1553.33 35.2955C1553.74 35.1856 1554.19 35.1004 1554.69 35.0398C1555.17 34.9792 1555.59 34.9261 1555.92 34.8807C1556.26 34.8352 1556.52 34.7633 1556.7 34.6648C1556.88 34.5663 1556.97 34.4072 1556.97 34.1875V33.983C1556.97 33.3883 1556.79 32.9205 1556.44 32.5795C1556.08 32.2348 1555.58 32.0625 1554.91 32.0625C1554.28 32.0625 1553.77 32.2008 1553.37 32.4773C1552.98 32.7538 1552.7 33.0795 1552.54 33.4545L1551.58 33.108C1551.78 32.6307 1552.05 32.25 1552.4 31.9659C1552.75 31.678 1553.14 31.4716 1553.57 31.3466C1554 31.2178 1554.44 31.1534 1554.88 31.1534C1555.22 31.1534 1555.56 31.197 1555.92 31.2841C1556.29 31.3712 1556.62 31.5227 1556.94 31.7386C1557.25 31.9508 1557.5 32.2481 1557.69 32.6307C1557.88 33.0095 1557.98 33.4905 1557.98 34.0739V40H1556.97V38.6193H1556.91C1556.79 38.8769 1556.61 39.1269 1556.37 39.3693C1556.13 39.6117 1555.83 39.8106 1555.47 39.9659C1555.11 40.1212 1554.69 40.1989 1554.2 40.1989ZM1554.34 39.2727C1554.88 39.2727 1555.34 39.1534 1555.74 38.9148C1556.13 38.6761 1556.43 38.3598 1556.65 37.9659C1556.86 37.5682 1556.97 37.1307 1556.97 36.6534V35.392C1556.89 35.464 1556.77 35.5284 1556.59 35.5852C1556.41 35.642 1556.21 35.6932 1555.98 35.7386C1555.75 35.7803 1555.53 35.8163 1555.3 35.8466C1555.07 35.8769 1554.87 35.9034 1554.69 35.9261C1554.19 35.9867 1553.77 36.0814 1553.42 36.2102C1553.08 36.339 1552.81 36.517 1552.62 36.7443C1552.44 36.9678 1552.34 37.2557 1552.34 37.608C1552.34 38.1383 1552.53 38.5492 1552.91 38.8409C1553.29 39.1288 1553.77 39.2727 1554.34 39.2727ZM1565.8 31.2727L1568.05 34.9943L1570.3 31.2727H1571.47L1568.67 35.6364L1571.47 40H1570.3L1568.05 36.3977L1565.8 40H1564.63L1567.4 35.6364L1564.63 31.2727H1565.8ZM1576.63 40.1818C1575.87 40.1818 1575.21 39.9905 1574.63 39.608C1574.05 39.2254 1573.6 38.697 1573.27 38.0227C1572.95 37.3447 1572.78 36.5625 1572.78 35.6761C1572.78 34.7822 1572.95 33.9962 1573.27 33.3182C1573.6 32.6364 1574.05 32.1061 1574.63 31.7273C1575.21 31.3447 1575.87 31.1534 1576.63 31.1534C1577.38 31.1534 1578.04 31.3447 1578.62 31.7273C1579.2 32.1098 1579.65 32.6402 1579.97 33.3182C1580.3 33.9962 1580.47 34.7822 1580.47 35.6761C1580.47 36.5625 1580.3 37.3447 1579.98 38.0227C1579.65 38.697 1579.2 39.2254 1578.62 39.608C1578.04 39.9905 1577.38 40.1818 1576.63 40.1818ZM1576.63 39.2557C1577.23 39.2557 1577.75 39.0928 1578.17 38.767C1578.59 38.4413 1578.9 38.0076 1579.12 37.4659C1579.34 36.9242 1579.45 36.3277 1579.45 35.6761C1579.45 35.0246 1579.34 34.4261 1579.12 33.8807C1578.9 33.3352 1578.59 32.8977 1578.17 32.5682C1577.75 32.2386 1577.23 32.0739 1576.63 32.0739C1576.02 32.0739 1575.51 32.2386 1575.09 32.5682C1574.67 32.8977 1574.35 33.3352 1574.13 33.8807C1573.91 34.4261 1573.8 35.0246 1573.8 35.6761C1573.8 36.3277 1573.91 36.9242 1574.13 37.4659C1574.35 38.0076 1574.67 38.4413 1575.09 38.767C1575.51 39.0928 1576.02 39.2557 1576.63 39.2557ZM1583.7 34.5455V40H1582.69V31.2727H1583.67V32.642H1583.76C1583.97 32.1951 1584.28 31.8371 1584.72 31.5682C1585.15 31.2955 1585.69 31.1591 1586.33 31.1591C1586.92 31.1591 1587.43 31.2822 1587.87 31.5284C1588.32 31.7708 1588.67 32.1288 1588.91 32.6023C1589.16 33.0758 1589.29 33.6572 1589.29 34.3466V40H1588.28V34.4091C1588.28 33.6932 1588.08 33.1269 1587.68 32.7102C1587.28 32.2936 1586.74 32.0852 1586.07 32.0852C1585.61 32.0852 1585.21 32.1837 1584.85 32.3807C1584.5 32.5777 1584.21 32.8617 1584 33.233C1583.8 33.6004 1583.7 34.0379 1583.7 34.5455ZM1595.28 43.4545C1594.69 43.4545 1594.17 43.3769 1593.72 43.2216C1593.27 43.0701 1592.9 42.8617 1592.59 42.5966C1592.28 42.3314 1592.04 42.0341 1591.87 41.7045L1592.7 41.1591C1592.83 41.3788 1592.99 41.5947 1593.2 41.8068C1593.41 42.0189 1593.69 42.1951 1594.03 42.3352C1594.37 42.4754 1594.79 42.5455 1595.28 42.5455C1596.05 42.5455 1596.68 42.3523 1597.15 41.9659C1597.63 41.5795 1597.87 40.9792 1597.87 40.1648V38.1989H1597.78C1597.66 38.464 1597.49 38.7292 1597.27 38.9943C1597.05 39.2557 1596.76 39.4735 1596.41 39.6477C1596.05 39.822 1595.62 39.9091 1595.09 39.9091C1594.4 39.9091 1593.78 39.7367 1593.24 39.392C1592.7 39.0473 1592.27 38.5549 1591.96 37.9148C1591.66 37.2708 1591.5 36.5038 1591.5 35.6136C1591.5 34.7311 1591.65 33.9545 1591.95 33.2841C1592.26 32.6136 1592.68 32.0909 1593.22 31.7159C1593.76 31.3409 1594.39 31.1534 1595.11 31.1534C1595.65 31.1534 1596.09 31.2481 1596.44 31.4375C1596.79 31.6231 1597.08 31.8542 1597.29 32.1307C1597.5 32.4072 1597.67 32.6761 1597.79 32.9375H1597.9V31.2727H1598.88V40.2273C1598.88 40.9659 1598.73 41.5739 1598.41 42.0511C1598.1 42.5284 1597.67 42.8807 1597.13 43.108C1596.59 43.339 1595.97 43.4545 1595.28 43.4545ZM1595.21 38.983C1595.77 38.983 1596.25 38.8485 1596.65 38.5795C1597.05 38.3068 1597.35 37.9167 1597.57 37.4091C1597.78 36.9015 1597.88 36.2973 1597.88 35.5966C1597.88 34.9148 1597.78 34.3106 1597.57 33.7841C1597.36 33.2538 1597.06 32.8371 1596.66 32.5341C1596.27 32.2273 1595.79 32.0739 1595.21 32.0739C1594.63 32.0739 1594.14 32.2311 1593.74 32.5455C1593.33 32.8598 1593.03 33.2841 1592.83 33.8182C1592.62 34.3485 1592.52 34.9413 1592.52 35.5966C1592.52 36.2633 1592.62 36.8523 1592.83 37.3636C1593.04 37.8712 1593.35 38.2689 1593.75 38.5568C1594.15 38.8409 1594.64 38.983 1595.21 38.983ZM1609.47 40.1818C1608.69 40.1818 1608.01 39.9867 1607.43 39.5966C1606.86 39.2064 1606.41 38.6723 1606.09 37.9943C1605.77 37.3163 1605.61 36.5436 1605.61 35.6761C1605.61 34.8011 1605.77 34.0227 1606.1 33.3409C1606.42 32.6591 1606.87 32.125 1607.45 31.7386C1608.02 31.3485 1608.69 31.1534 1609.45 31.1534C1610.04 31.1534 1610.57 31.267 1611.04 31.4943C1611.51 31.7178 1611.9 32.0341 1612.21 32.4432C1612.52 32.8485 1612.72 33.322 1612.79 33.8636H1611.77C1611.67 33.3712 1611.41 32.9508 1611 32.6023C1610.6 32.25 1610.09 32.0739 1609.47 32.0739C1608.91 32.0739 1608.42 32.2254 1607.99 32.5284C1607.57 32.8277 1607.23 33.2462 1606.99 33.7841C1606.75 34.3182 1606.63 34.9375 1606.63 35.642C1606.63 36.3504 1606.75 36.9773 1606.98 37.5227C1607.22 38.0644 1607.55 38.4886 1607.97 38.7955C1608.4 39.1023 1608.9 39.2557 1609.47 39.2557C1609.86 39.2557 1610.21 39.1837 1610.53 39.0398C1610.85 38.892 1611.12 38.6837 1611.33 38.4148C1611.55 38.1458 1611.7 37.8258 1611.78 37.4545H1612.8C1612.72 37.9811 1612.54 38.4508 1612.24 38.8636C1611.94 39.2727 1611.56 39.5947 1611.08 39.8295C1610.61 40.0644 1610.08 40.1818 1609.47 40.1818ZM1615.98 34.5455V40H1614.97V28.3636H1615.98V32.642H1616.07C1616.27 32.1913 1616.59 31.8314 1617.02 31.5625C1617.45 31.2936 1618 31.1591 1618.66 31.1591C1619.25 31.1591 1619.77 31.2803 1620.21 31.5227C1620.66 31.7652 1621.01 32.1231 1621.26 32.5966C1621.51 33.0701 1621.63 33.6534 1621.63 34.3466V40H1620.62V34.4091C1620.62 33.6894 1620.42 33.1231 1620.01 32.7102C1619.62 32.2936 1619.08 32.0852 1618.4 32.0852C1617.93 32.0852 1617.52 32.1837 1617.16 32.3807C1616.79 32.5777 1616.5 32.8617 1616.29 33.233C1616.08 33.6004 1615.98 34.0379 1615.98 34.5455ZM1631.87 30.9148H1632.78C1632.78 31.4602 1632.71 31.9148 1632.56 32.2784C1632.42 32.6383 1632.18 32.9091 1631.85 33.0909C1631.51 33.2727 1631.05 33.3636 1630.47 33.3636V32.6193C1630.89 32.6193 1631.2 32.5625 1631.39 32.4489C1631.59 32.3314 1631.72 32.1477 1631.78 31.8977C1631.84 31.6439 1631.87 31.3163 1631.87 30.9148ZM1629.82 36.6648V31.2727H1630.83V40H1629.82V38.5511H1629.74C1629.53 38.9981 1629.21 39.3712 1628.77 39.6705C1628.32 39.9659 1627.78 40.1136 1627.14 40.1136C1626.59 40.1136 1626.09 39.9924 1625.66 39.75C1625.23 39.5038 1624.89 39.1439 1624.64 38.6705C1624.4 38.197 1624.27 37.6155 1624.27 36.9261V31.2727H1625.28V36.8636C1625.28 37.5455 1625.49 38.0947 1625.89 38.5114C1626.29 38.9242 1626.8 39.1307 1627.43 39.1307C1627.83 39.1307 1628.21 39.036 1628.57 38.8466C1628.93 38.6572 1629.23 38.3807 1629.47 38.017C1629.7 37.6496 1629.82 37.1989 1629.82 36.6648ZM1636.22 40.1989C1635.69 40.1989 1635.21 40.0966 1634.77 39.892C1634.34 39.6837 1633.99 39.3845 1633.74 38.9943C1633.48 38.6004 1633.35 38.1231 1633.35 37.5625C1633.35 37.1307 1633.43 36.767 1633.59 36.4716C1633.76 36.1761 1633.99 35.9337 1634.29 35.7443C1634.59 35.5549 1634.94 35.4053 1635.35 35.2955C1635.76 35.1856 1636.21 35.1004 1636.7 35.0398C1637.19 34.9792 1637.6 34.9261 1637.94 34.8807C1638.28 34.8352 1638.54 34.7633 1638.72 34.6648C1638.9 34.5663 1638.99 34.4072 1638.99 34.1875V33.983C1638.99 33.3883 1638.81 32.9205 1638.45 32.5795C1638.1 32.2348 1637.59 32.0625 1636.93 32.0625C1636.3 32.0625 1635.79 32.2008 1635.39 32.4773C1634.99 32.7538 1634.72 33.0795 1634.56 33.4545L1633.6 33.108C1633.8 32.6307 1634.07 32.25 1634.42 31.9659C1634.77 31.678 1635.16 31.4716 1635.59 31.3466C1636.02 31.2178 1636.46 31.1534 1636.9 31.1534C1637.23 31.1534 1637.58 31.197 1637.94 31.2841C1638.3 31.3712 1638.64 31.5227 1638.95 31.7386C1639.26 31.9508 1639.51 32.2481 1639.71 32.6307C1639.9 33.0095 1640 33.4905 1640 34.0739V40H1638.99V38.6193H1638.92C1638.8 38.8769 1638.62 39.1269 1638.38 39.3693C1638.14 39.6117 1637.84 39.8106 1637.49 39.9659C1637.13 40.1212 1636.7 40.1989 1636.22 40.1989ZM1636.35 39.2727C1636.89 39.2727 1637.36 39.1534 1637.75 38.9148C1638.15 38.6761 1638.45 38.3598 1638.66 37.9659C1638.88 37.5682 1638.99 37.1307 1638.99 36.6534V35.392C1638.91 35.464 1638.78 35.5284 1638.6 35.5852C1638.43 35.642 1638.23 35.6932 1638 35.7386C1637.77 35.7803 1637.54 35.8163 1637.31 35.8466C1637.09 35.8769 1636.88 35.9034 1636.7 35.9261C1636.21 35.9867 1635.79 36.0814 1635.44 36.2102C1635.09 36.339 1634.82 36.517 1634.64 36.7443C1634.45 36.9678 1634.36 37.2557 1634.36 37.608C1634.36 38.1383 1634.55 38.5492 1634.93 38.8409C1635.31 39.1288 1635.78 39.2727 1636.35 39.2727ZM1653.94 31.2727L1650.75 40H1649.68L1646.49 31.2727H1647.58L1650.18 38.6648H1650.25L1652.85 31.2727H1653.94ZM1659.14 40.1818C1658.32 40.1818 1657.62 39.9924 1657.02 39.6136C1656.43 39.2311 1655.97 38.7027 1655.64 38.0284C1655.32 37.3504 1655.16 36.5701 1655.16 35.6875C1655.16 34.8087 1655.32 34.0284 1655.64 33.3466C1655.97 32.661 1656.42 32.125 1656.99 31.7386C1657.57 31.3485 1658.23 31.1534 1658.98 31.1534C1659.46 31.1534 1659.91 31.2405 1660.35 31.4148C1660.79 31.5852 1661.19 31.8485 1661.53 32.2045C1661.89 32.5568 1662.17 33.0019 1662.37 33.5398C1662.57 34.0739 1662.68 34.7064 1662.68 35.4375V35.9375H1655.86V35.0455H1661.64C1661.64 34.4848 1661.53 33.9811 1661.3 33.5341C1661.08 33.0833 1660.77 32.7273 1660.36 32.4659C1659.97 32.2045 1659.51 32.0739 1658.98 32.0739C1658.43 32.0739 1657.94 32.2216 1657.52 32.517C1657.1 32.8125 1656.77 33.2027 1656.53 33.6875C1656.3 34.1723 1656.18 34.7027 1656.18 35.2784V35.8125C1656.18 36.5057 1656.3 37.1117 1656.53 37.6307C1656.78 38.1458 1657.12 38.5455 1657.56 38.8295C1658.01 39.1136 1658.53 39.2557 1659.14 39.2557C1659.55 39.2557 1659.91 39.1913 1660.22 39.0625C1660.54 38.9337 1660.8 38.7614 1661.01 38.5455C1661.23 38.3258 1661.39 38.0852 1661.5 37.8239L1662.46 38.1364C1662.33 38.5038 1662.11 38.8428 1661.81 39.1534C1661.51 39.464 1661.13 39.714 1660.68 39.9034C1660.24 40.089 1659.72 40.1818 1659.14 40.1818ZM1659.36 27.9261L1661.62 30.0284H1660.37L1658.94 28.642L1657.51 30.0284H1656.26L1658.5 27.9261H1659.36ZM1655.58 26.5909L1656.72 28.6364H1655.83L1654.31 26.5909H1655.58Z" fill="white"/>
<path d="M1317.67 35C1317.67 37.9455 1320.05 40.3333 1323 40.3333C1325.95 40.3333 1328.33 37.9455 1328.33 35C1328.33 32.0545 1325.95 29.6667 1323 29.6667C1320.05 29.6667 1317.67 32.0545 1317.67 35ZM1300 36H1323V34H1300V36Z" fill="url(#paint1_linear_2014_705)"/>
<circle cx="1268" cy="35" r="35" fill="url(#paint2_linear_2014_705)"/>
<circle cx="1268" cy="35" r="27" fill="white"/>
<path d="M1258.03 44.36C1256.01 44.36 1254.27 43.976 1252.79 43.208C1251.34 42.424 1250.21 41.328 1249.41 39.92C1248.61 38.512 1248.21 36.872 1248.21 35C1248.21 33.128 1248.61 31.488 1249.41 30.08C1250.21 28.672 1251.34 27.584 1252.79 26.816C1254.27 26.032 1256.01 25.64 1258.03 25.64C1260.03 25.64 1261.75 26.032 1263.21 26.816C1264.68 27.584 1265.82 28.672 1266.62 30.08C1267.42 31.488 1267.82 33.128 1267.82 35C1267.82 36.872 1267.42 38.512 1266.62 39.92C1265.82 41.328 1264.68 42.424 1263.21 43.208C1261.75 43.976 1260.03 44.36 1258.03 44.36ZM1258.03 41.048C1259.83 41.048 1261.23 40.52 1262.23 39.464C1263.23 38.392 1263.74 36.904 1263.74 35C1263.74 33.08 1263.23 31.592 1262.23 30.536C1261.23 29.48 1259.83 28.952 1258.03 28.952C1256.22 28.952 1254.81 29.48 1253.8 30.536C1252.79 31.592 1252.29 33.08 1252.29 35C1252.29 36.92 1252.79 38.408 1253.8 39.464C1254.81 40.52 1256.22 41.048 1258.03 41.048ZM1285.08 26V44H1281.05V27.752H1282.44L1272.6 38.648L1272.55 37.304H1288.15V40.424H1269.5V37.544L1279.92 26H1285.08Z" fill="#000C74"/>
<defs>
<linearGradient id="paint0_linear_2014_705" x1="1323" y1="34.5" x2="1739" y2="34.5" gradientUnits="userSpaceOnUse">
<stop stop-color="#00A93C"/>
<stop offset="1" stop-color="#24CBFF"/>
</linearGradient>
<linearGradient id="paint1_linear_2014_705" x1="1300" y1="35.5" x2="1323" y2="35.5" gradientUnits="userSpaceOnUse">
<stop stop-color="#00A93C"/>
<stop offset="1" stop-color="#24CBFF"/>
</linearGradient>
<linearGradient id="paint2_linear_2014_705" x1="1233" y1="35" x2="1303" y2="35" gradientUnits="userSpaceOnUse">
<stop stop-color="#00A93C"/>
<stop offset="1" stop-color="#000C74"/>
</linearGradient>
</defs>
</svg>
