<svg width="100%" viewBox="0 0 1920 70" fill="none" xmlns="http://www.w3.org/2000/svg">
<rect x="1332.5" y="5.5" width="410" height="58" rx="19.5" stroke="url(#paint0_linear_2014_704)"/>
<path d="M1359.43 40V28.3636H1361.54V33.7102H1361.68L1366.22 28.3636H1368.79L1364.29 33.5852L1368.83 40H1366.3L1362.83 35.0114L1361.54 36.5341V40H1359.43ZM1372.37 28.3636V40H1370.26V28.3636H1372.37ZM1374.65 40V28.3636H1382.22V30.1307H1376.76V33.2898H1381.82V35.0568H1376.76V38.233H1382.26V40H1374.65ZM1379.59 27.3182L1378.44 25.8636L1377.28 27.3182H1375.48V27.2386L1377.64 24.7841H1379.24L1381.39 27.2386V27.3182H1379.59ZM1393.93 28.3636V40H1392.05L1386.57 32.0739H1386.47V40H1384.37V28.3636H1386.25L1391.73 36.2955H1391.83V28.3636H1393.93ZM1399.68 30.1307V28.3636H1408.97V30.1307H1405.37V40H1403.28V30.1307H1399.68ZM1410.76 40V28.3636H1415.12C1416.01 28.3636 1416.76 28.5189 1417.37 28.8295C1417.98 29.1402 1418.44 29.5758 1418.75 30.1364C1419.07 30.6932 1419.22 31.3428 1419.22 32.0852C1419.22 32.8314 1419.06 33.4792 1418.75 34.0284C1418.43 34.5739 1417.97 34.9962 1417.35 35.2955C1416.74 35.5909 1415.99 35.7386 1415.09 35.7386H1411.98V33.9886H1414.81C1415.33 33.9886 1415.76 33.9167 1416.09 33.7727C1416.43 33.625 1416.67 33.411 1416.83 33.1307C1416.99 32.8466 1417.08 32.4981 1417.08 32.0852C1417.08 31.6723 1416.99 31.3201 1416.83 31.0284C1416.67 30.733 1416.42 30.5095 1416.09 30.358C1415.75 30.2027 1415.32 30.125 1414.8 30.125H1412.87V40H1410.76ZM1416.77 34.7273L1419.65 40H1417.3L1414.47 34.7273H1416.77ZM1423.27 28.3636V40H1421.16V28.3636H1423.27ZM1421.47 27.2159L1419.73 24.6193H1421.74L1423.01 27.2159H1421.47ZM1434.69 33.7045V34.6591H1429.85V33.7045H1434.69ZM1445.35 40H1442.53V39.0455H1445.28C1446.28 39.0455 1447.12 38.8485 1447.79 38.4545C1448.47 38.0606 1448.97 37.4981 1449.31 36.767C1449.65 36.036 1449.82 35.1648 1449.82 34.1534C1449.81 33.1496 1449.65 32.286 1449.32 31.5625C1448.99 30.839 1448.51 30.2841 1447.86 29.8977C1447.22 29.5114 1446.43 29.3182 1445.49 29.3182H1442.48V28.3636H1445.55C1446.66 28.3636 1447.61 28.5947 1448.4 29.0568C1449.19 29.5189 1449.79 30.1818 1450.21 31.0455C1450.63 31.9091 1450.85 32.9451 1450.85 34.1534C1450.85 35.3731 1450.63 36.4205 1450.2 37.2955C1449.77 38.1667 1449.14 38.8352 1448.32 39.3011C1447.5 39.767 1446.51 40 1445.35 40ZM1443 28.3636V40H1441.94V28.3636H1443ZM1440.08 34.4375V33.6193H1444.85V34.4375H1440.08ZM1460.78 30.9148H1461.69C1461.69 31.4602 1461.62 31.9148 1461.48 32.2784C1461.34 32.6383 1461.1 32.9091 1460.76 33.0909C1460.43 33.2727 1459.97 33.3636 1459.38 33.3636V32.6193C1459.8 32.6193 1460.11 32.5625 1460.31 32.4489C1460.51 32.3314 1460.64 32.1477 1460.69 31.8977C1460.75 31.6439 1460.78 31.3163 1460.78 30.9148ZM1458.73 36.6648V31.2727H1459.74V40H1458.73V38.5511H1458.65C1458.45 38.9981 1458.13 39.3712 1457.68 39.6705C1457.24 39.9659 1456.7 40.1136 1456.06 40.1136C1455.5 40.1136 1455.01 39.9924 1454.57 39.75C1454.14 39.5038 1453.8 39.1439 1453.56 38.6705C1453.31 38.197 1453.19 37.6155 1453.19 36.9261V31.2727H1454.2V36.8636C1454.2 37.5455 1454.4 38.0947 1454.8 38.5114C1455.2 38.9242 1455.72 39.1307 1456.35 39.1307C1456.74 39.1307 1457.12 39.036 1457.48 38.8466C1457.85 38.6572 1458.15 38.3807 1458.38 38.017C1458.62 37.6496 1458.73 37.1989 1458.73 36.6648ZM1456.04 30.0625L1454.3 27.483H1455.49L1456.95 30.0625H1456.04ZM1463.72 34.5455V40H1462.71V31.2727H1463.69V32.642H1463.78C1463.99 32.1951 1464.31 31.8371 1464.74 31.5682C1465.17 31.2955 1465.71 31.1591 1466.35 31.1591C1466.94 31.1591 1467.45 31.2822 1467.9 31.5284C1468.34 31.7708 1468.69 32.1288 1468.94 32.6023C1469.19 33.0758 1469.31 33.6572 1469.31 34.3466V40H1468.3V34.4091C1468.3 33.6932 1468.1 33.1269 1467.7 32.7102C1467.3 32.2936 1466.77 32.0852 1466.1 32.0852C1465.64 32.0852 1465.23 32.1837 1464.88 32.3807C1464.52 32.5777 1464.24 32.8617 1464.03 33.233C1463.82 33.6004 1463.72 34.0379 1463.72 34.5455ZM1475.31 43.4545C1474.71 43.4545 1474.19 43.3769 1473.74 43.2216C1473.3 43.0701 1472.92 42.8617 1472.61 42.5966C1472.31 42.3314 1472.07 42.0341 1471.9 41.7045L1472.73 41.1591C1472.85 41.3788 1473.02 41.5947 1473.23 41.8068C1473.44 42.0189 1473.71 42.1951 1474.05 42.3352C1474.39 42.4754 1474.81 42.5455 1475.31 42.5455C1476.08 42.5455 1476.7 42.3523 1477.17 41.9659C1477.65 41.5795 1477.89 40.9792 1477.89 40.1648V38.1989H1477.8C1477.68 38.464 1477.51 38.7292 1477.29 38.9943C1477.07 39.2557 1476.79 39.4735 1476.43 39.6477C1476.08 39.822 1475.64 39.9091 1475.12 39.9091C1474.42 39.9091 1473.8 39.7367 1473.26 39.392C1472.72 39.0473 1472.3 38.5549 1471.99 37.9148C1471.68 37.2708 1471.53 36.5038 1471.53 35.6136C1471.53 34.7311 1471.68 33.9545 1471.98 33.2841C1472.28 32.6136 1472.7 32.0909 1473.24 31.7159C1473.78 31.3409 1474.42 31.1534 1475.13 31.1534C1475.67 31.1534 1476.11 31.2481 1476.46 31.4375C1476.82 31.6231 1477.1 31.8542 1477.31 32.1307C1477.53 32.4072 1477.7 32.6761 1477.82 32.9375H1477.92V31.2727H1478.91V40.2273C1478.91 40.9659 1478.75 41.5739 1478.44 42.0511C1478.12 42.5284 1477.69 42.8807 1477.15 43.108C1476.61 43.339 1475.99 43.4545 1475.31 43.4545ZM1475.24 38.983C1475.8 38.983 1476.28 38.8485 1476.67 38.5795C1477.07 38.3068 1477.38 37.9167 1477.59 37.4091C1477.8 36.9015 1477.91 36.2973 1477.91 35.5966C1477.91 34.9148 1477.8 34.3106 1477.6 33.7841C1477.39 33.2538 1477.08 32.8371 1476.69 32.5341C1476.29 32.2273 1475.81 32.0739 1475.24 32.0739C1474.65 32.0739 1474.16 32.2311 1473.76 32.5455C1473.36 32.8598 1473.06 33.2841 1472.85 33.8182C1472.65 34.3485 1472.54 34.9413 1472.54 35.5966C1472.54 36.2633 1472.65 36.8523 1472.86 37.3636C1473.06 37.8712 1473.37 38.2689 1473.77 38.5568C1474.17 38.8409 1474.66 38.983 1475.24 38.983ZM1487.1 34.5455V40H1486.09V31.2727H1487.07V32.642H1487.16C1487.36 32.1951 1487.68 31.8371 1488.11 31.5682C1488.55 31.2955 1489.09 31.1591 1489.73 31.1591C1490.31 31.1591 1490.83 31.2822 1491.27 31.5284C1491.72 31.7708 1492.07 32.1288 1492.31 32.6023C1492.56 33.0758 1492.69 33.6572 1492.69 34.3466V40H1491.68V34.4091C1491.68 33.6932 1491.48 33.1269 1491.07 32.7102C1490.68 32.2936 1490.14 32.0852 1489.47 32.0852C1489.01 32.0852 1488.61 32.1837 1488.25 32.3807C1487.89 32.5777 1487.61 32.8617 1487.4 33.233C1487.2 33.6004 1487.1 34.0379 1487.1 34.5455ZM1498.74 40.1818C1497.99 40.1818 1497.32 39.9905 1496.74 39.608C1496.17 39.2254 1495.72 38.697 1495.39 38.0227C1495.06 37.3447 1494.9 36.5625 1494.9 35.6761C1494.9 34.7822 1495.06 33.9962 1495.39 33.3182C1495.72 32.6364 1496.17 32.1061 1496.74 31.7273C1497.32 31.3447 1497.99 31.1534 1498.74 31.1534C1499.5 31.1534 1500.16 31.3447 1500.74 31.7273C1501.31 32.1098 1501.76 32.6402 1502.09 33.3182C1502.42 33.9962 1502.58 34.7822 1502.58 35.6761C1502.58 36.5625 1502.42 37.3447 1502.1 38.0227C1501.77 38.697 1501.32 39.2254 1500.74 39.608C1500.16 39.9905 1499.5 40.1818 1498.74 40.1818ZM1498.74 39.2557C1499.35 39.2557 1499.86 39.0928 1500.28 38.767C1500.7 38.4413 1501.02 38.0076 1501.24 37.4659C1501.46 36.9242 1501.57 36.3277 1501.57 35.6761C1501.57 35.0246 1501.46 34.4261 1501.24 33.8807C1501.02 33.3352 1500.7 32.8977 1500.28 32.5682C1499.86 32.2386 1499.35 32.0739 1498.74 32.0739C1498.14 32.0739 1497.63 32.2386 1497.2 32.5682C1496.78 32.8977 1496.46 33.3352 1496.24 33.8807C1496.03 34.4261 1495.92 35.0246 1495.92 35.6761C1495.92 36.3277 1496.03 36.9242 1496.24 37.4659C1496.46 38.0076 1496.78 38.4413 1497.2 38.767C1497.62 39.0928 1498.14 39.2557 1498.74 39.2557ZM1498.27 30.0625L1499.73 27.483H1500.92L1499.18 30.0625H1498.27ZM1504.82 40V31.2727H1505.83V40H1504.82ZM1505.33 29.7727C1505.12 29.7727 1504.95 29.7027 1504.8 29.5625C1504.65 29.4186 1504.58 29.2462 1504.58 29.0455C1504.58 28.8447 1504.65 28.6742 1504.8 28.5341C1504.95 28.3902 1505.12 28.3182 1505.33 28.3182C1505.54 28.3182 1505.72 28.3902 1505.87 28.5341C1506.01 28.6742 1506.09 28.8447 1506.09 29.0455C1506.09 29.2462 1506.01 29.4186 1505.87 29.5625C1505.72 29.7027 1505.54 29.7727 1505.33 29.7727ZM1513.93 36.7045L1513.92 35.3807H1514.14L1518.23 31.2727H1519.51L1515.47 35.3182L1515.38 35.3352L1513.93 36.7045ZM1513.01 40V28.3636H1514.02V40H1513.01ZM1518.44 40L1514.9 35.517L1515.63 34.8182L1519.74 40H1518.44ZM1522.42 34.5455V40H1521.41V28.3636H1522.42V32.642H1522.52C1522.72 32.1913 1523.04 31.8314 1523.46 31.5625C1523.9 31.2936 1524.44 31.1591 1525.1 31.1591C1525.69 31.1591 1526.21 31.2803 1526.66 31.5227C1527.1 31.7652 1527.45 32.1231 1527.7 32.5966C1527.95 33.0701 1528.08 33.6534 1528.08 34.3466V40H1527.06V34.4091C1527.06 33.6894 1526.86 33.1231 1526.46 32.7102C1526.06 32.2936 1525.52 32.0852 1524.85 32.0852C1524.38 32.0852 1523.96 32.1837 1523.6 32.3807C1523.24 32.5777 1522.95 32.8617 1522.74 33.233C1522.53 33.6004 1522.42 34.0379 1522.42 34.5455ZM1534.13 40.1818C1533.38 40.1818 1532.71 39.9905 1532.13 39.608C1531.56 39.2254 1531.11 38.697 1530.78 38.0227C1530.46 37.3447 1530.29 36.5625 1530.29 35.6761C1530.29 34.7822 1530.46 33.9962 1530.78 33.3182C1531.11 32.6364 1531.56 32.1061 1532.13 31.7273C1532.71 31.3447 1533.38 31.1534 1534.13 31.1534C1534.89 31.1534 1535.55 31.3447 1536.13 31.7273C1536.7 32.1098 1537.15 32.6402 1537.48 33.3182C1537.81 33.9962 1537.97 34.7822 1537.97 35.6761C1537.97 36.5625 1537.81 37.3447 1537.49 38.0227C1537.16 38.697 1536.71 39.2254 1536.13 39.608C1535.55 39.9905 1534.89 40.1818 1534.13 40.1818ZM1534.13 39.2557C1534.74 39.2557 1535.25 39.0928 1535.67 38.767C1536.09 38.4413 1536.41 38.0076 1536.63 37.4659C1536.85 36.9242 1536.96 36.3277 1536.96 35.6761C1536.96 35.0246 1536.85 34.4261 1536.63 33.8807C1536.41 33.3352 1536.09 32.8977 1535.67 32.5682C1535.25 32.2386 1534.74 32.0739 1534.13 32.0739C1533.53 32.0739 1533.02 32.2386 1532.59 32.5682C1532.17 32.8977 1531.85 33.3352 1531.63 33.8807C1531.42 34.4261 1531.31 35.0246 1531.31 35.6761C1531.31 36.3277 1531.42 36.9242 1531.63 37.4659C1531.85 38.0076 1532.17 38.4413 1532.59 38.767C1533.01 39.0928 1533.53 39.2557 1534.13 39.2557ZM1535.49 30.2727L1534.13 28.6307L1532.78 30.2727H1531.79V30.1989L1533.71 27.9091H1534.56L1536.48 30.1989V30.2727H1535.49ZM1541.21 34.5455V40H1540.19V31.2727H1541.18V32.642H1541.27C1541.47 32.1951 1541.79 31.8371 1542.22 31.5682C1542.66 31.2955 1543.2 31.1591 1543.84 31.1591C1544.42 31.1591 1544.94 31.2822 1545.38 31.5284C1545.83 31.7708 1546.18 32.1288 1546.42 32.6023C1546.67 33.0758 1546.8 33.6572 1546.8 34.3466V40H1545.79V34.4091C1545.79 33.6932 1545.58 33.1269 1545.18 32.7102C1544.79 32.2936 1544.25 32.0852 1543.58 32.0852C1543.12 32.0852 1542.72 32.1837 1542.36 32.3807C1542 32.5777 1541.72 32.8617 1541.51 33.233C1541.31 33.6004 1541.21 34.0379 1541.21 34.5455ZM1552.79 43.4545C1552.2 43.4545 1551.67 43.3769 1551.23 43.2216C1550.78 43.0701 1550.4 42.8617 1550.1 42.5966C1549.79 42.3314 1549.55 42.0341 1549.38 41.7045L1550.21 41.1591C1550.34 41.3788 1550.5 41.5947 1550.71 41.8068C1550.92 42.0189 1551.2 42.1951 1551.53 42.3352C1551.88 42.4754 1552.29 42.5455 1552.79 42.5455C1553.56 42.5455 1554.19 42.3523 1554.66 41.9659C1555.14 41.5795 1555.38 40.9792 1555.38 40.1648V38.1989H1555.28C1555.17 38.464 1555 38.7292 1554.78 38.9943C1554.56 39.2557 1554.27 39.4735 1553.91 39.6477C1553.56 39.822 1553.13 39.9091 1552.6 39.9091C1551.91 39.9091 1551.29 39.7367 1550.74 39.392C1550.21 39.0473 1549.78 38.5549 1549.47 37.9148C1549.16 37.2708 1549.01 36.5038 1549.01 35.6136C1549.01 34.7311 1549.16 33.9545 1549.46 33.2841C1549.76 32.6136 1550.19 32.0909 1550.73 31.7159C1551.27 31.3409 1551.9 31.1534 1552.62 31.1534C1553.15 31.1534 1553.6 31.2481 1553.95 31.4375C1554.3 31.6231 1554.58 31.8542 1554.8 32.1307C1555.01 32.4072 1555.18 32.6761 1555.3 32.9375H1555.4V31.2727H1556.39V40.2273C1556.39 40.9659 1556.23 41.5739 1555.92 42.0511C1555.61 42.5284 1555.18 42.8807 1554.64 43.108C1554.09 43.339 1553.48 43.4545 1552.79 43.4545ZM1552.72 38.983C1553.28 38.983 1553.76 38.8485 1554.16 38.5795C1554.56 38.3068 1554.86 37.9167 1555.07 37.4091C1555.29 36.9015 1555.39 36.2973 1555.39 35.5966C1555.39 34.9148 1555.29 34.3106 1555.08 33.7841C1554.87 33.2538 1554.57 32.8371 1554.17 32.5341C1553.78 32.2273 1553.29 32.0739 1552.72 32.0739C1552.14 32.0739 1551.65 32.2311 1551.24 32.5455C1550.84 32.8598 1550.54 33.2841 1550.34 33.8182C1550.13 34.3485 1550.03 34.9413 1550.03 35.5966C1550.03 36.2633 1550.13 36.8523 1550.34 37.3636C1550.55 37.8712 1550.85 38.2689 1551.26 38.5568C1551.66 38.8409 1552.15 38.983 1552.72 38.983ZM1564.58 34.5455V40H1563.57V28.3636H1564.58V32.642H1564.67C1564.88 32.1913 1565.19 31.8314 1565.62 31.5625C1566.05 31.2936 1566.6 31.1591 1567.26 31.1591C1567.85 31.1591 1568.37 31.2803 1568.81 31.5227C1569.26 31.7652 1569.61 32.1231 1569.86 32.5966C1570.11 33.0701 1570.23 33.6534 1570.23 34.3466V40H1569.22V34.4091C1569.22 33.6894 1569.02 33.1231 1568.62 32.7102C1568.22 32.2936 1567.68 32.0852 1567 32.0852C1566.54 32.0852 1566.12 32.1837 1565.76 32.3807C1565.39 32.5777 1565.11 32.8617 1564.89 33.233C1564.69 33.6004 1564.58 34.0379 1564.58 34.5455ZM1575.34 40.1989C1574.81 40.1989 1574.33 40.0966 1573.89 39.892C1573.46 39.6837 1573.11 39.3845 1572.85 38.9943C1572.59 38.6004 1572.47 38.1231 1572.47 37.5625C1572.47 37.1307 1572.55 36.767 1572.71 36.4716C1572.87 36.1761 1573.1 35.9337 1573.4 35.7443C1573.7 35.5549 1574.06 35.4053 1574.47 35.2955C1574.88 35.1856 1575.33 35.1004 1575.82 35.0398C1576.31 34.9792 1576.72 34.9261 1577.06 34.8807C1577.4 34.8352 1577.66 34.7633 1577.84 34.6648C1578.01 34.5663 1578.1 34.4072 1578.1 34.1875V33.983C1578.1 33.3883 1577.92 32.9205 1577.57 32.5795C1577.22 32.2348 1576.71 32.0625 1576.05 32.0625C1575.42 32.0625 1574.9 32.2008 1574.51 32.4773C1574.11 32.7538 1573.84 33.0795 1573.68 33.4545L1572.72 33.108C1572.91 32.6307 1573.19 32.25 1573.53 31.9659C1573.88 31.678 1574.27 31.4716 1574.7 31.3466C1575.14 31.2178 1575.57 31.1534 1576.02 31.1534C1576.35 31.1534 1576.7 31.197 1577.06 31.2841C1577.42 31.3712 1577.76 31.5227 1578.07 31.7386C1578.38 31.9508 1578.63 32.2481 1578.82 32.6307C1579.02 33.0095 1579.11 33.4905 1579.11 34.0739V40H1578.1V38.6193H1578.04C1577.92 38.8769 1577.74 39.1269 1577.5 39.3693C1577.26 39.6117 1576.96 39.8106 1576.6 39.9659C1576.24 40.1212 1575.82 40.1989 1575.34 40.1989ZM1575.47 39.2727C1576.01 39.2727 1576.48 39.1534 1576.87 38.9148C1577.26 38.6761 1577.57 38.3598 1577.78 37.9659C1577.99 37.5682 1578.1 37.1307 1578.1 36.6534V35.392C1578.03 35.464 1577.9 35.5284 1577.72 35.5852C1577.55 35.642 1577.34 35.6932 1577.11 35.7386C1576.89 35.7803 1576.66 35.8163 1576.43 35.8466C1576.2 35.8769 1576 35.9034 1575.82 35.9261C1575.33 35.9867 1574.91 36.0814 1574.56 36.2102C1574.21 36.339 1573.94 36.517 1573.76 36.7443C1573.57 36.9678 1573.48 37.2557 1573.48 37.608C1573.48 38.1383 1573.67 38.5492 1574.05 38.8409C1574.42 39.1288 1574.9 39.2727 1575.47 39.2727ZM1574.19 30.0682L1573.37 30.0227C1573.39 29.5189 1573.55 29.1061 1573.87 28.7841C1574.18 28.4621 1574.57 28.3011 1575.02 28.3011C1575.25 28.3011 1575.46 28.3428 1575.63 28.4261C1575.8 28.5057 1575.97 28.5985 1576.12 28.7045C1576.27 28.8068 1576.43 28.8977 1576.59 28.9773C1576.75 29.0568 1576.94 29.0966 1577.14 29.0966C1577.37 29.0966 1577.57 29.0133 1577.74 28.8466C1577.92 28.6799 1578.02 28.4735 1578.04 28.2273L1578.84 28.3182C1578.81 28.8258 1578.64 29.233 1578.32 29.5398C1578.01 29.8428 1577.63 29.9943 1577.19 29.9943C1576.93 29.9943 1576.72 29.9545 1576.55 29.875C1576.38 29.7917 1576.22 29.6989 1576.08 29.5966C1575.94 29.4905 1575.8 29.3977 1575.64 29.3182C1575.48 29.2386 1575.29 29.1989 1575.07 29.1989C1574.83 29.1989 1574.62 29.2822 1574.45 29.4489C1574.29 29.6155 1574.2 29.822 1574.19 30.0682ZM1582.2 43.2727C1582 43.2727 1581.81 43.2538 1581.63 43.2159C1581.46 43.178 1581.32 43.1364 1581.22 43.0909L1581.49 42.1989C1581.84 42.3049 1582.14 42.3428 1582.41 42.3125C1582.68 42.286 1582.92 42.1648 1583.13 41.9489C1583.34 41.7367 1583.52 41.411 1583.68 40.9716L1584 40.0852L1580.79 31.2727H1581.89L1584.48 38.6648H1584.56L1587.15 31.2727H1588.25L1584.55 41.3807C1584.4 41.8011 1584.21 42.1515 1583.98 42.4318C1583.75 42.7159 1583.49 42.9261 1583.19 43.0625C1582.89 43.2027 1582.56 43.2727 1582.2 43.2727ZM1598.13 40.1818C1597.35 40.1818 1596.67 39.9867 1596.1 39.5966C1595.52 39.2064 1595.07 38.6723 1594.75 37.9943C1594.44 37.3163 1594.28 36.5436 1594.28 35.6761C1594.28 34.8011 1594.44 34.0227 1594.76 33.3409C1595.09 32.6591 1595.54 32.125 1596.11 31.7386C1596.69 31.3485 1597.36 31.1534 1598.12 31.1534C1598.7 31.1534 1599.23 31.267 1599.7 31.4943C1600.18 31.7178 1600.57 32.0341 1600.87 32.4432C1601.18 32.8485 1601.38 33.322 1601.46 33.8636H1600.44C1600.33 33.3712 1600.07 32.9508 1599.67 32.6023C1599.27 32.25 1598.76 32.0739 1598.13 32.0739C1597.58 32.0739 1597.09 32.2254 1596.66 32.5284C1596.23 32.8277 1595.89 33.2462 1595.65 33.7841C1595.41 34.3182 1595.29 34.9375 1595.29 35.642C1595.29 36.3504 1595.41 36.9773 1595.65 37.5227C1595.88 38.0644 1596.21 38.4886 1596.63 38.7955C1597.06 39.1023 1597.56 39.2557 1598.13 39.2557C1598.52 39.2557 1598.87 39.1837 1599.19 39.0398C1599.51 38.892 1599.78 38.6837 1600 38.4148C1600.22 38.1458 1600.37 37.8258 1600.44 37.4545H1601.46C1601.39 37.9811 1601.2 38.4508 1600.9 38.8636C1600.61 39.2727 1600.22 39.5947 1599.75 39.8295C1599.28 40.0644 1598.74 40.1818 1598.13 40.1818ZM1604.64 34.5455V40H1603.63V28.3636H1604.64V32.642H1604.73C1604.94 32.1913 1605.26 31.8314 1605.68 31.5625C1606.12 31.2936 1606.66 31.1591 1607.32 31.1591C1607.91 31.1591 1608.43 31.2803 1608.88 31.5227C1609.32 31.7652 1609.67 32.1231 1609.92 32.5966C1610.17 33.0701 1610.3 33.6534 1610.3 34.3466V40H1609.28V34.4091C1609.28 33.6894 1609.08 33.1231 1608.68 32.7102C1608.28 32.2936 1607.74 32.0852 1607.06 32.0852C1606.6 32.0852 1606.18 32.1837 1605.82 32.3807C1605.46 32.5777 1605.17 32.8617 1604.96 33.233C1604.75 33.6004 1604.64 34.0379 1604.64 34.5455ZM1616.35 40.1818C1615.6 40.1818 1614.93 39.9905 1614.35 39.608C1613.78 39.2254 1613.33 38.697 1613 38.0227C1612.67 37.3447 1612.51 36.5625 1612.51 35.6761C1612.51 34.7822 1612.67 33.9962 1613 33.3182C1613.33 32.6364 1613.78 32.1061 1614.35 31.7273C1614.93 31.3447 1615.6 31.1534 1616.35 31.1534C1617.11 31.1534 1617.77 31.3447 1618.35 31.7273C1618.92 32.1098 1619.37 32.6402 1619.7 33.3182C1620.03 33.9962 1620.19 34.7822 1620.19 35.6761C1620.19 36.5625 1620.03 37.3447 1619.7 38.0227C1619.38 38.697 1618.93 39.2254 1618.35 39.608C1617.77 39.9905 1617.11 40.1818 1616.35 40.1818ZM1616.35 39.2557C1616.96 39.2557 1617.47 39.0928 1617.89 38.767C1618.31 38.4413 1618.63 38.0076 1618.85 37.4659C1619.07 36.9242 1619.18 36.3277 1619.18 35.6761C1619.18 35.0246 1619.07 34.4261 1618.85 33.8807C1618.63 33.3352 1618.31 32.8977 1617.89 32.5682C1617.47 32.2386 1616.96 32.0739 1616.35 32.0739C1615.75 32.0739 1615.24 32.2386 1614.81 32.5682C1614.39 32.8977 1614.07 33.3352 1613.85 33.8807C1613.64 34.4261 1613.53 35.0246 1613.53 35.6761C1613.53 36.3277 1613.64 36.9242 1613.85 37.4659C1614.07 38.0076 1614.39 38.4413 1614.81 38.767C1615.23 39.0928 1615.75 39.2557 1616.35 39.2557ZM1630.35 31.2727V32.1534H1626.19V31.2727H1630.35ZM1627.49 29.1818H1628.5V37.7216C1628.5 38.0852 1628.57 38.3712 1628.69 38.5795C1628.82 38.7841 1628.98 38.9299 1629.18 39.017C1629.38 39.1004 1629.6 39.142 1629.82 39.142C1629.96 39.142 1630.07 39.1345 1630.16 39.1193C1630.26 39.1004 1630.34 39.0814 1630.41 39.0625L1630.63 39.9773C1630.53 40.0152 1630.41 40.0492 1630.27 40.0795C1630.12 40.1136 1629.94 40.1307 1629.73 40.1307C1629.36 40.1307 1629 40.0492 1628.66 39.8864C1628.32 39.7235 1628.04 39.4811 1627.82 39.1591C1627.6 38.8371 1627.49 38.4375 1627.49 37.9602V29.1818ZM1635.95 40.1818C1635.19 40.1818 1634.53 39.9905 1633.95 39.608C1633.37 39.2254 1632.92 38.697 1632.59 38.0227C1632.27 37.3447 1632.11 36.5625 1632.11 35.6761C1632.11 34.7822 1632.27 33.9962 1632.59 33.3182C1632.92 32.6364 1633.37 32.1061 1633.95 31.7273C1634.53 31.3447 1635.19 31.1534 1635.95 31.1534C1636.7 31.1534 1637.36 31.3447 1637.94 31.7273C1638.52 32.1098 1638.97 32.6402 1639.29 33.3182C1639.62 33.9962 1639.79 34.7822 1639.79 35.6761C1639.79 36.5625 1639.62 37.3447 1639.3 38.0227C1638.97 38.697 1638.52 39.2254 1637.94 39.608C1637.36 39.9905 1636.7 40.1818 1635.95 40.1818ZM1635.95 39.2557C1636.55 39.2557 1637.07 39.0928 1637.49 38.767C1637.91 38.4413 1638.22 38.0076 1638.44 37.4659C1638.66 36.9242 1638.77 36.3277 1638.77 35.6761C1638.77 35.0246 1638.66 34.4261 1638.44 33.8807C1638.22 33.3352 1637.91 32.8977 1637.49 32.5682C1637.07 32.2386 1636.55 32.0739 1635.95 32.0739C1635.34 32.0739 1634.83 32.2386 1634.41 32.5682C1633.99 32.8977 1633.67 33.3352 1633.45 33.8807C1633.23 34.4261 1633.12 35.0246 1633.12 35.6761C1633.12 36.3277 1633.23 36.9242 1633.45 37.4659C1633.67 38.0076 1633.99 38.4413 1634.41 38.767C1634.83 39.0928 1635.34 39.2557 1635.95 39.2557ZM1637.3 30.2727L1635.95 28.6307L1634.59 30.2727H1633.6V30.1989L1635.52 27.9091H1636.37L1638.29 30.1989V30.2727H1637.3ZM1642.02 40V31.2727H1643.04V40H1642.02ZM1642.54 29.7727C1642.33 29.7727 1642.15 29.7027 1642 29.5625C1641.85 29.4186 1641.78 29.2462 1641.78 29.0455C1641.78 28.8447 1641.85 28.6742 1642 28.5341C1642.15 28.3902 1642.33 28.3182 1642.54 28.3182C1642.74 28.3182 1642.92 28.3902 1643.07 28.5341C1643.22 28.6742 1643.29 28.8447 1643.29 29.0455C1643.29 29.2462 1643.22 29.4186 1643.07 29.5625C1642.92 29.7027 1642.74 29.7727 1642.54 29.7727ZM1653.54 43.4545C1652.95 43.4545 1652.42 43.3769 1651.98 43.2216C1651.53 43.0701 1651.15 42.8617 1650.85 42.5966C1650.54 42.3314 1650.3 42.0341 1650.13 41.7045L1650.96 41.1591C1651.09 41.3788 1651.25 41.5947 1651.46 41.8068C1651.67 42.0189 1651.95 42.1951 1652.28 42.3352C1652.63 42.4754 1653.04 42.5455 1653.54 42.5455C1654.31 42.5455 1654.94 42.3523 1655.41 41.9659C1655.89 41.5795 1656.12 40.9792 1656.12 40.1648V38.1989H1656.03C1655.92 38.464 1655.75 38.7292 1655.53 38.9943C1655.31 39.2557 1655.02 39.4735 1654.66 39.6477C1654.31 39.822 1653.88 39.9091 1653.35 39.9091C1652.66 39.9091 1652.04 39.7367 1651.49 39.392C1650.96 39.0473 1650.53 38.5549 1650.22 37.9148C1649.91 37.2708 1649.76 36.5038 1649.76 35.6136C1649.76 34.7311 1649.91 33.9545 1650.21 33.2841C1650.51 32.6136 1650.94 32.0909 1651.48 31.7159C1652.02 31.3409 1652.65 31.1534 1653.37 31.1534C1653.9 31.1534 1654.35 31.2481 1654.7 31.4375C1655.05 31.6231 1655.33 31.8542 1655.55 32.1307C1655.76 32.4072 1655.93 32.6761 1656.05 32.9375H1656.15V31.2727H1657.14V40.2273C1657.14 40.9659 1656.98 41.5739 1656.67 42.0511C1656.36 42.5284 1655.93 42.8807 1655.39 43.108C1654.84 43.339 1654.23 43.4545 1653.54 43.4545ZM1653.47 38.983C1654.03 38.983 1654.51 38.8485 1654.91 38.5795C1655.31 38.3068 1655.61 37.9167 1655.82 37.4091C1656.04 36.9015 1656.14 36.2973 1656.14 35.5966C1656.14 34.9148 1656.04 34.3106 1655.83 33.7841C1655.62 33.2538 1655.32 32.8371 1654.92 32.5341C1654.53 32.2273 1654.04 32.0739 1653.47 32.0739C1652.89 32.0739 1652.4 32.2311 1651.99 32.5455C1651.59 32.8598 1651.29 33.2841 1651.09 33.8182C1650.88 34.3485 1650.78 34.9413 1650.78 35.5966C1650.78 36.2633 1650.88 36.8523 1651.09 37.3636C1651.3 37.8712 1651.6 38.2689 1652.01 38.5568C1652.41 38.8409 1652.9 38.983 1653.47 38.983ZM1659.83 40V31.2727H1660.85V40H1659.83ZM1660.35 29.7727C1660.14 29.7727 1659.96 29.7027 1659.81 29.5625C1659.67 29.4186 1659.59 29.2462 1659.59 29.0455C1659.59 28.8447 1659.67 28.6742 1659.81 28.5341C1659.96 28.3902 1660.14 28.3182 1660.35 28.3182C1660.56 28.3182 1660.73 28.3902 1660.88 28.5341C1661.03 28.6742 1661.1 28.8447 1661.1 29.0455C1661.1 29.2462 1661.03 29.4186 1660.88 29.5625C1660.73 29.7027 1660.56 29.7727 1660.35 29.7727ZM1665.96 40.1989C1665.43 40.1989 1664.95 40.0966 1664.52 39.892C1664.08 39.6837 1663.73 39.3845 1663.48 38.9943C1663.22 38.6004 1663.09 38.1231 1663.09 37.5625C1663.09 37.1307 1663.17 36.767 1663.34 36.4716C1663.5 36.1761 1663.73 35.9337 1664.03 35.7443C1664.33 35.5549 1664.68 35.4053 1665.09 35.2955C1665.5 35.1856 1665.95 35.1004 1666.44 35.0398C1666.93 34.9792 1667.34 34.9261 1667.68 34.8807C1668.02 34.8352 1668.28 34.7633 1668.46 34.6648C1668.64 34.5663 1668.73 34.4072 1668.73 34.1875V33.983C1668.73 33.3883 1668.55 32.9205 1668.19 32.5795C1667.84 32.2348 1667.33 32.0625 1666.67 32.0625C1666.04 32.0625 1665.53 32.2008 1665.13 32.4773C1664.74 32.7538 1664.46 33.0795 1664.3 33.4545L1663.34 33.108C1663.54 32.6307 1663.81 32.25 1664.16 31.9659C1664.51 31.678 1664.9 31.4716 1665.33 31.3466C1665.76 31.2178 1666.2 31.1534 1666.64 31.1534C1666.98 31.1534 1667.32 31.197 1667.68 31.2841C1668.05 31.3712 1668.38 31.5227 1668.69 31.7386C1669 31.9508 1669.26 32.2481 1669.45 32.6307C1669.64 33.0095 1669.74 33.4905 1669.74 34.0739V40H1668.73V38.6193H1668.66C1668.54 38.8769 1668.36 39.1269 1668.12 39.3693C1667.89 39.6117 1667.59 39.8106 1667.23 39.9659C1666.87 40.1212 1666.45 40.1989 1665.96 40.1989ZM1666.1 39.2727C1666.63 39.2727 1667.1 39.1534 1667.49 38.9148C1667.89 38.6761 1668.19 38.3598 1668.4 37.9659C1668.62 37.5682 1668.73 37.1307 1668.73 36.6534V35.392C1668.65 35.464 1668.52 35.5284 1668.35 35.5852C1668.17 35.642 1667.97 35.6932 1667.74 35.7386C1667.51 35.7803 1667.28 35.8163 1667.06 35.8466C1666.83 35.8769 1666.62 35.9034 1666.44 35.9261C1665.95 35.9867 1665.53 36.0814 1665.18 36.2102C1664.83 36.339 1664.57 36.517 1664.38 36.7443C1664.2 36.9678 1664.1 37.2557 1664.1 37.608C1664.1 38.1383 1664.29 38.5492 1664.67 38.8409C1665.05 39.1288 1665.52 39.2727 1666.1 39.2727ZM1667.18 30.1136H1666.32V28.9261C1666.73 28.9034 1667.02 28.8409 1667.19 28.7386C1667.35 28.6364 1667.44 28.4754 1667.44 28.2557C1667.44 28.0057 1667.32 27.8239 1667.09 27.7102C1666.85 27.5928 1666.55 27.5322 1666.16 27.5284L1666.21 26.8352C1666.93 26.8352 1667.46 26.9659 1667.82 27.2273C1668.19 27.4886 1668.37 27.8371 1668.37 28.2727C1668.37 28.6515 1668.25 28.9375 1668.01 29.1307C1667.78 29.3201 1667.5 29.4337 1667.18 29.4716V30.1136ZM1672.44 40V31.2727H1673.46V40H1672.44ZM1672.96 29.7727C1672.75 29.7727 1672.57 29.7027 1672.42 29.5625C1672.28 29.4186 1672.2 29.2462 1672.2 29.0455C1672.2 28.8447 1672.28 28.6742 1672.42 28.5341C1672.57 28.3902 1672.75 28.3182 1672.96 28.3182C1673.17 28.3182 1673.34 28.3902 1673.49 28.5341C1673.64 28.6742 1673.71 28.8447 1673.71 29.0455C1673.71 29.2462 1673.64 29.4186 1673.49 29.5625C1673.34 29.7027 1673.17 29.7727 1672.96 29.7727ZM1680.63 43.2727V31.2727H1681.62V32.9375H1681.73C1681.86 32.6761 1682.02 32.4091 1682.23 32.1364C1682.45 31.8598 1682.73 31.6269 1683.08 31.4375C1683.43 31.2481 1683.87 31.1534 1684.4 31.1534C1685.12 31.1534 1685.75 31.3428 1686.29 31.7216C1686.83 32.0966 1687.25 32.6231 1687.55 33.3011C1687.86 33.9754 1688.01 34.7614 1688.01 35.6591C1688.01 36.5606 1687.86 37.3504 1687.55 38.0284C1687.25 38.7064 1686.83 39.2348 1686.29 39.6136C1685.75 39.9924 1685.13 40.1818 1684.42 40.1818C1683.89 40.1818 1683.45 40.0871 1683.09 39.8977C1682.74 39.7083 1682.45 39.4754 1682.23 39.1989C1682.02 38.9186 1681.85 38.6458 1681.73 38.3807H1681.64V43.2727H1680.63ZM1681.63 35.642C1681.63 36.3466 1681.74 36.9716 1681.94 37.517C1682.16 38.0587 1682.46 38.4848 1682.85 38.7955C1683.25 39.1023 1683.73 39.2557 1684.3 39.2557C1684.88 39.2557 1685.37 39.0966 1685.76 38.7784C1686.16 38.4564 1686.47 38.0227 1686.68 37.4773C1686.89 36.9318 1687 36.3201 1687 35.642C1687 34.9716 1686.89 34.3674 1686.68 33.8295C1686.48 33.2917 1686.18 32.8655 1685.77 32.5511C1685.37 32.233 1684.88 32.0739 1684.3 32.0739C1683.73 32.0739 1683.25 32.2273 1682.85 32.5341C1682.45 32.8371 1682.15 33.2576 1681.94 33.7955C1681.73 34.3295 1681.63 34.9451 1681.63 35.642ZM1691.24 34.5455V40H1690.23V28.3636H1691.24V32.642H1691.33C1691.53 32.1913 1691.85 31.8314 1692.28 31.5625C1692.71 31.2936 1693.25 31.1591 1693.91 31.1591C1694.5 31.1591 1695.02 31.2803 1695.47 31.5227C1695.92 31.7652 1696.27 32.1231 1696.52 32.5966C1696.77 33.0701 1696.89 33.6534 1696.89 34.3466V40H1695.87V34.4091C1695.87 33.6894 1695.67 33.1231 1695.27 32.7102C1694.87 32.2936 1694.34 32.0852 1693.66 32.0852C1693.19 32.0852 1692.78 32.1837 1692.41 32.3807C1692.05 32.5777 1691.76 32.8617 1691.55 33.233C1691.34 33.6004 1691.24 34.0379 1691.24 34.5455ZM1701.99 40.1989C1701.46 40.1989 1700.98 40.0966 1700.55 39.892C1700.11 39.6837 1699.77 39.3845 1699.51 38.9943C1699.25 38.6004 1699.12 38.1231 1699.12 37.5625C1699.12 37.1307 1699.2 36.767 1699.37 36.4716C1699.53 36.1761 1699.76 35.9337 1700.06 35.7443C1700.36 35.5549 1700.71 35.4053 1701.12 35.2955C1701.53 35.1856 1701.98 35.1004 1702.47 35.0398C1702.96 34.9792 1703.38 34.9261 1703.71 34.8807C1704.05 34.8352 1704.31 34.7633 1704.49 34.6648C1704.67 34.5663 1704.76 34.4072 1704.76 34.1875V33.983C1704.76 33.3883 1704.58 32.9205 1704.22 32.5795C1703.87 32.2348 1703.36 32.0625 1702.7 32.0625C1702.07 32.0625 1701.56 32.2008 1701.16 32.4773C1700.77 32.7538 1700.49 33.0795 1700.33 33.4545L1699.37 33.108C1699.57 32.6307 1699.84 32.25 1700.19 31.9659C1700.54 31.678 1700.93 31.4716 1701.36 31.3466C1701.79 31.2178 1702.23 31.1534 1702.67 31.1534C1703.01 31.1534 1703.35 31.197 1703.71 31.2841C1704.08 31.3712 1704.41 31.5227 1704.72 31.7386C1705.04 31.9508 1705.29 32.2481 1705.48 32.6307C1705.67 33.0095 1705.77 33.4905 1705.77 34.0739V40H1704.76V38.6193H1704.7C1704.57 38.8769 1704.39 39.1269 1704.16 39.3693C1703.92 39.6117 1703.62 39.8106 1703.26 39.9659C1702.9 40.1212 1702.48 40.1989 1701.99 40.1989ZM1702.13 39.2727C1702.67 39.2727 1703.13 39.1534 1703.53 38.9148C1703.92 38.6761 1704.22 38.3598 1704.43 37.9659C1704.65 37.5682 1704.76 37.1307 1704.76 36.6534V35.392C1704.68 35.464 1704.56 35.5284 1704.38 35.5852C1704.2 35.642 1704 35.6932 1703.77 35.7386C1703.54 35.7803 1703.32 35.8163 1703.09 35.8466C1702.86 35.8769 1702.66 35.9034 1702.47 35.9261C1701.98 35.9867 1701.56 36.0814 1701.21 36.2102C1700.86 36.339 1700.6 36.517 1700.41 36.7443C1700.23 36.9678 1700.13 37.2557 1700.13 37.608C1700.13 38.1383 1700.32 38.5492 1700.7 38.8409C1701.08 39.1288 1701.56 39.2727 1702.13 39.2727ZM1702.29 30.0625L1703.75 27.483H1704.95L1703.2 30.0625H1702.29ZM1708.46 43.2727V31.2727H1709.44V32.9375H1709.56C1709.68 32.6761 1709.85 32.4091 1710.06 32.1364C1710.27 31.8598 1710.55 31.6269 1710.9 31.4375C1711.26 31.2481 1711.7 31.1534 1712.23 31.1534C1712.95 31.1534 1713.58 31.3428 1714.12 31.7216C1714.66 32.0966 1715.08 32.6231 1715.38 33.3011C1715.68 33.9754 1715.84 34.7614 1715.84 35.6591C1715.84 36.5606 1715.68 37.3504 1715.38 38.0284C1715.08 38.7064 1714.66 39.2348 1714.12 39.6136C1713.58 39.9924 1712.96 40.1818 1712.24 40.1818C1711.72 40.1818 1711.28 40.0871 1710.92 39.8977C1710.57 39.7083 1710.28 39.4754 1710.06 39.1989C1709.85 38.9186 1709.68 38.6458 1709.56 38.3807H1709.47V43.2727H1708.46ZM1709.46 35.642C1709.46 36.3466 1709.56 36.9716 1709.77 37.517C1709.98 38.0587 1710.29 38.4848 1710.68 38.7955C1711.08 39.1023 1711.56 39.2557 1712.12 39.2557C1712.7 39.2557 1713.19 39.0966 1713.59 38.7784C1713.99 38.4564 1714.3 38.0227 1714.51 37.4773C1714.72 36.9318 1714.82 36.3201 1714.82 35.642C1714.82 34.9716 1714.72 34.3674 1714.51 33.8295C1714.31 33.2917 1714 32.8655 1713.6 32.5511C1713.2 32.233 1712.71 32.0739 1712.12 32.0739C1711.56 32.0739 1711.07 32.2273 1710.68 32.5341C1710.28 32.8371 1709.98 33.2576 1709.77 33.7955C1709.56 34.3295 1709.46 34.9451 1709.46 35.642Z" fill="white"/>
<path d="M1326.67 35C1326.67 37.9455 1329.05 40.3333 1332 40.3333C1334.95 40.3333 1337.33 37.9455 1337.33 35C1337.33 32.0545 1334.95 29.6667 1332 29.6667C1329.05 29.6667 1326.67 32.0545 1326.67 35ZM1309 36H1332V34H1309V36Z" fill="url(#paint1_linear_2014_704)"/>
<circle cx="1277" cy="35" r="35" fill="url(#paint2_linear_2014_704)"/>
<circle cx="1277" cy="35" r="27" fill="white"/>
<path d="M1267.15 44.36C1265.14 44.36 1263.39 43.976 1261.92 43.208C1260.47 42.424 1259.34 41.328 1258.54 39.92C1257.74 38.512 1257.34 36.872 1257.34 35C1257.34 33.128 1257.74 31.488 1258.54 30.08C1259.34 28.672 1260.47 27.584 1261.92 26.816C1263.39 26.032 1265.14 25.64 1267.15 25.64C1269.15 25.64 1270.88 26.032 1272.34 26.816C1273.81 27.584 1274.95 28.672 1275.75 30.08C1276.55 31.488 1276.95 33.128 1276.95 35C1276.95 36.872 1276.55 38.512 1275.75 39.92C1274.95 41.328 1273.81 42.424 1272.34 43.208C1270.88 43.976 1269.15 44.36 1267.15 44.36ZM1267.15 41.048C1268.96 41.048 1270.36 40.52 1271.35 39.464C1272.36 38.392 1272.87 36.904 1272.87 35C1272.87 33.08 1272.36 31.592 1271.35 30.536C1270.36 29.48 1268.96 28.952 1267.15 28.952C1265.35 28.952 1263.94 29.48 1262.93 30.536C1261.92 31.592 1261.42 33.08 1261.42 35C1261.42 36.92 1261.92 38.408 1262.93 39.464C1263.94 40.52 1265.35 41.048 1267.15 41.048ZM1279.3 31.688C1279.4 30.552 1279.8 29.528 1280.5 28.616C1281.22 27.704 1282.24 26.984 1283.55 26.456C1284.86 25.912 1286.44 25.64 1288.28 25.64C1289.89 25.64 1291.29 25.848 1292.48 26.264C1293.66 26.68 1294.58 27.256 1295.24 27.992C1295.89 28.728 1296.22 29.6 1296.22 30.608C1296.22 31.424 1295.97 32.168 1295.48 32.84C1295 33.496 1294.25 34.024 1293.22 34.424C1292.2 34.808 1290.9 34.992 1289.33 34.976V34.52C1290.85 34.44 1292.15 34.56 1293.22 34.88C1294.31 35.184 1295.15 35.664 1295.74 36.32C1296.33 36.976 1296.63 37.8 1296.63 38.792C1296.63 39.864 1296.29 40.824 1295.6 41.672C1294.93 42.504 1293.94 43.16 1292.65 43.64C1291.35 44.12 1289.77 44.36 1287.92 44.36C1286.11 44.36 1284.53 44.104 1283.19 43.592C1281.85 43.08 1280.8 42.36 1280.05 41.432C1279.29 40.504 1278.89 39.416 1278.82 38.168H1282.9C1283.03 39.128 1283.51 39.864 1284.34 40.376C1285.17 40.888 1286.37 41.144 1287.92 41.144C1289.42 41.144 1290.56 40.912 1291.33 40.448C1292.09 39.984 1292.48 39.336 1292.48 38.504C1292.48 38.008 1292.35 37.592 1292.09 37.256C1291.84 36.92 1291.4 36.672 1290.77 36.512C1290.17 36.336 1289.33 36.248 1288.28 36.248H1285.11V33.392H1288.28C1289.65 33.392 1290.64 33.184 1291.23 32.768C1291.82 32.352 1292.12 31.816 1292.12 31.16C1292.12 30.424 1291.78 29.856 1291.11 29.456C1290.44 29.056 1289.42 28.856 1288.06 28.856C1286.67 28.856 1285.58 29.104 1284.8 29.6C1284.01 30.08 1283.54 30.776 1283.38 31.688H1279.3Z" fill="#000C74"/>
<defs>
<linearGradient id="paint0_linear_2014_704" x1="1332" y1="34.5" x2="1743" y2="34.5" gradientUnits="userSpaceOnUse">
<stop stop-color="#00A93C"/>
<stop offset="1" stop-color="#24CBFF"/>
</linearGradient>
<linearGradient id="paint1_linear_2014_704" x1="1309" y1="35.5" x2="1332" y2="35.5" gradientUnits="userSpaceOnUse">
<stop stop-color="#00A93C"/>
<stop offset="1" stop-color="#24CBFF"/>
</linearGradient>
<linearGradient id="paint2_linear_2014_704" x1="1242" y1="35" x2="1312" y2="35" gradientUnits="userSpaceOnUse">
<stop stop-color="#00A93C"/>
<stop offset="1" stop-color="#000C74"/>
</linearGradient>
</defs>
</svg>
