<svg width="100%" viewBox="0 0 1920 70" fill="none" xmlns="http://www.w3.org/2000/svg">
<rect x="1220.5" y="5.5" width="486" height="58" rx="19.5" stroke="url(#paint0_linear_2014_707)"/>
<path d="M1278.62 40V28.3636H1280.72V33.2898H1286.12V28.3636H1288.23V40H1286.12V35.0568H1280.72V40H1278.62ZM1292.63 28.3636V40H1290.52V28.3636H1292.63ZM1294.91 40V28.3636H1302.48V30.1307H1297.02V33.2898H1302.09V35.0568H1297.02V38.233H1302.53V40H1294.91ZM1299.86 27.3182L1298.7 25.8636L1297.55 27.3182H1295.75V27.2386L1297.9 24.7841H1299.51L1301.66 27.2386V27.3182H1299.86ZM1298.63 43.142C1298.31 43.142 1298.02 43.0322 1297.79 42.8125C1297.56 42.5928 1297.44 42.3295 1297.44 42.0227C1297.44 41.7159 1297.56 41.4527 1297.79 41.233C1298.02 41.0133 1298.3 40.9034 1298.63 40.9034C1298.96 40.9034 1299.24 41.0133 1299.47 41.233C1299.71 41.4527 1299.82 41.7159 1299.82 42.0227C1299.82 42.3295 1299.71 42.5928 1299.47 42.8125C1299.24 43.0322 1298.96 43.142 1298.63 43.142ZM1311.97 28.3636H1314.08V35.9659C1314.08 36.7992 1313.88 37.5322 1313.48 38.1648C1313.09 38.7973 1312.54 39.2917 1311.84 39.6477C1311.13 40 1310.3 40.1761 1309.35 40.1761C1308.4 40.1761 1307.57 40 1306.87 39.6477C1306.16 39.2917 1305.61 38.7973 1305.22 38.1648C1304.83 37.5322 1304.63 36.7992 1304.63 35.9659V28.3636H1306.74V35.7898C1306.74 36.2746 1306.85 36.7064 1307.06 37.0852C1307.27 37.464 1307.58 37.7614 1307.97 37.9773C1308.36 38.1894 1308.82 38.2955 1309.35 38.2955C1309.89 38.2955 1310.35 38.1894 1310.74 37.9773C1311.13 37.7614 1311.44 37.464 1311.65 37.0852C1311.86 36.7064 1311.97 36.2746 1311.97 35.7898V28.3636ZM1324.67 36.0909H1326.58L1327.71 37.5568L1328.52 38.5114L1330.45 41H1328.41L1327.09 39.3295L1326.53 38.5341L1324.67 36.0909ZM1330.73 34.1818C1330.73 35.4356 1330.5 36.5095 1330.03 37.4034C1329.56 38.2936 1328.93 38.9754 1328.12 39.4489C1327.32 39.9223 1326.41 40.1591 1325.39 40.1591C1324.37 40.1591 1323.45 39.9223 1322.65 39.4489C1321.84 38.9716 1321.21 38.2879 1320.74 37.3977C1320.27 36.5038 1320.04 35.4318 1320.04 34.1818C1320.04 32.928 1320.27 31.8561 1320.74 30.9659C1321.21 30.072 1321.84 29.3883 1322.65 28.9148C1323.45 28.4413 1324.37 28.2045 1325.39 28.2045C1326.41 28.2045 1327.32 28.4413 1328.12 28.9148C1328.93 29.3883 1329.56 30.072 1330.03 30.9659C1330.5 31.8561 1330.73 32.928 1330.73 34.1818ZM1328.61 34.1818C1328.61 33.2992 1328.48 32.5549 1328.2 31.9489C1327.93 31.339 1327.55 30.8788 1327.06 30.5682C1326.58 30.2538 1326.02 30.0966 1325.39 30.0966C1324.75 30.0966 1324.2 30.2538 1323.71 30.5682C1323.23 30.8788 1322.84 31.339 1322.57 31.9489C1322.3 32.5549 1322.16 33.2992 1322.16 34.1818C1322.16 35.0644 1322.3 35.8106 1322.57 36.4205C1322.84 37.0265 1323.23 37.4867 1323.71 37.8011C1324.2 38.1117 1324.75 38.267 1325.39 38.267C1326.02 38.267 1326.58 38.1117 1327.06 37.8011C1327.55 37.4867 1327.93 37.0265 1328.2 36.4205C1328.48 35.8106 1328.61 35.0644 1328.61 34.1818ZM1340.08 28.3636H1342.18V35.9659C1342.18 36.7992 1341.99 37.5322 1341.59 38.1648C1341.2 38.7973 1340.65 39.2917 1339.95 39.6477C1339.24 40 1338.41 40.1761 1337.46 40.1761C1336.51 40.1761 1335.68 40 1334.97 39.6477C1334.27 39.2917 1333.72 38.7973 1333.33 38.1648C1332.94 37.5322 1332.74 36.7992 1332.74 35.9659V28.3636H1334.85V35.7898C1334.85 36.2746 1334.96 36.7064 1335.17 37.0852C1335.38 37.464 1335.69 37.7614 1336.08 37.9773C1336.47 38.1894 1336.93 38.2955 1337.46 38.2955C1338 38.2955 1338.46 38.1894 1338.85 37.9773C1339.24 37.7614 1339.55 37.464 1339.76 37.0852C1339.97 36.7064 1340.08 36.2746 1340.08 35.7898V28.3636ZM1345.97 40H1343.72L1347.82 28.3636H1350.42L1354.52 40H1352.27L1349.16 30.75H1349.07L1345.97 40ZM1346.04 35.4375H1352.18V37.1307H1346.04V35.4375ZM1349.91 27.1364H1348.34L1348.26 26.0455C1348.66 26.0303 1348.95 25.9792 1349.11 25.892C1349.28 25.8011 1349.36 25.6761 1349.36 25.517C1349.36 25.3125 1349.25 25.1705 1349.03 25.0909C1348.8 25.0114 1348.53 24.9716 1348.2 24.9716L1348.25 23.9545C1349.19 23.9545 1349.9 24.0909 1350.38 24.3636C1350.87 24.6364 1351.11 25.0076 1351.11 25.4773C1351.11 25.8371 1350.99 26.1061 1350.74 26.2841C1350.49 26.4583 1350.21 26.5682 1349.91 26.6136V27.1364ZM1365.19 33.7045V34.6591H1360.35V33.7045H1365.19ZM1372.44 40V28.3636H1373.5V33.6989H1380.1V28.3636H1381.16V40H1380.1V34.6534H1373.5V40H1372.44ZM1386.48 40.1989C1385.95 40.1989 1385.47 40.0966 1385.03 39.892C1384.6 39.6837 1384.25 39.3845 1383.99 38.9943C1383.74 38.6004 1383.61 38.1231 1383.61 37.5625C1383.61 37.1307 1383.69 36.767 1383.85 36.4716C1384.01 36.1761 1384.24 35.9337 1384.54 35.7443C1384.84 35.5549 1385.2 35.4053 1385.61 35.2955C1386.02 35.1856 1386.47 35.1004 1386.96 35.0398C1387.45 34.9792 1387.86 34.9261 1388.2 34.8807C1388.54 34.8352 1388.8 34.7633 1388.98 34.6648C1389.15 34.5663 1389.24 34.4072 1389.24 34.1875V33.983C1389.24 33.3883 1389.06 32.9205 1388.71 32.5795C1388.36 32.2348 1387.85 32.0625 1387.19 32.0625C1386.56 32.0625 1386.04 32.2008 1385.65 32.4773C1385.25 32.7538 1384.98 33.0795 1384.82 33.4545L1383.86 33.108C1384.05 32.6307 1384.33 32.25 1384.67 31.9659C1385.02 31.678 1385.41 31.4716 1385.85 31.3466C1386.28 31.2178 1386.71 31.1534 1387.16 31.1534C1387.49 31.1534 1387.84 31.197 1388.2 31.2841C1388.56 31.3712 1388.9 31.5227 1389.21 31.7386C1389.52 31.9508 1389.77 32.2481 1389.96 32.6307C1390.16 33.0095 1390.25 33.4905 1390.25 34.0739V40H1389.24V38.6193H1389.18C1389.06 38.8769 1388.88 39.1269 1388.64 39.3693C1388.4 39.6117 1388.1 39.8106 1387.74 39.9659C1387.38 40.1212 1386.96 40.1989 1386.48 40.1989ZM1386.61 39.2727C1387.15 39.2727 1387.62 39.1534 1388.01 38.9148C1388.4 38.6761 1388.71 38.3598 1388.92 37.9659C1389.13 37.5682 1389.24 37.1307 1389.24 36.6534V35.392C1389.17 35.464 1389.04 35.5284 1388.86 35.5852C1388.69 35.642 1388.49 35.6932 1388.25 35.7386C1388.03 35.7803 1387.8 35.8163 1387.57 35.8466C1387.35 35.8769 1387.14 35.9034 1386.96 35.9261C1386.47 35.9867 1386.05 36.0814 1385.7 36.2102C1385.35 36.339 1385.08 36.517 1384.9 36.7443C1384.71 36.9678 1384.62 37.2557 1384.62 37.608C1384.62 38.1383 1384.81 38.5492 1385.19 38.8409C1385.56 39.1288 1386.04 39.2727 1386.61 39.2727ZM1385.33 30.0682L1384.51 30.0227C1384.53 29.5189 1384.7 29.1061 1385.01 28.7841C1385.32 28.4621 1385.71 28.3011 1386.16 28.3011C1386.39 28.3011 1386.6 28.3428 1386.77 28.4261C1386.95 28.5057 1387.11 28.5985 1387.26 28.7045C1387.42 28.8068 1387.57 28.8977 1387.73 28.9773C1387.89 29.0568 1388.08 29.0966 1388.28 29.0966C1388.51 29.0966 1388.71 29.0133 1388.88 28.8466C1389.06 28.6799 1389.16 28.4735 1389.18 28.2273L1389.98 28.3182C1389.96 28.8258 1389.78 29.233 1389.46 29.5398C1389.15 29.8428 1388.77 29.9943 1388.33 29.9943C1388.07 29.9943 1387.86 29.9545 1387.69 29.875C1387.52 29.7917 1387.36 29.6989 1387.22 29.5966C1387.08 29.4905 1386.94 29.3977 1386.78 29.3182C1386.62 29.2386 1386.43 29.1989 1386.21 29.1989C1385.97 29.1989 1385.76 29.2822 1385.6 29.4489C1385.43 29.6155 1385.34 29.822 1385.33 30.0682ZM1393.34 43.2727C1393.14 43.2727 1392.95 43.2538 1392.77 43.2159C1392.6 43.178 1392.46 43.1364 1392.36 43.0909L1392.63 42.1989C1392.98 42.3049 1393.28 42.3428 1393.55 42.3125C1393.82 42.286 1394.06 42.1648 1394.27 41.9489C1394.48 41.7367 1394.66 41.411 1394.83 40.9716L1395.14 40.0852L1391.93 31.2727H1393.03L1395.62 38.6648H1395.7L1398.29 31.2727H1399.39L1395.69 41.3807C1395.54 41.8011 1395.35 42.1515 1395.12 42.4318C1394.89 42.7159 1394.63 42.9261 1394.33 43.0625C1394.04 43.2027 1393.7 43.2727 1393.34 43.2727ZM1406.88 34.5455V40H1405.87V31.2727H1406.85V32.642H1406.94C1407.14 32.1951 1407.46 31.8371 1407.89 31.5682C1408.33 31.2955 1408.87 31.1591 1409.51 31.1591C1410.1 31.1591 1410.61 31.2822 1411.05 31.5284C1411.5 31.7708 1411.85 32.1288 1412.09 32.6023C1412.34 33.0758 1412.47 33.6572 1412.47 34.3466V40H1411.46V34.4091C1411.46 33.6932 1411.26 33.1269 1410.86 32.7102C1410.46 32.2936 1409.92 32.0852 1409.25 32.0852C1408.79 32.0852 1408.39 32.1837 1408.03 32.3807C1407.68 32.5777 1407.39 32.8617 1407.18 33.233C1406.98 33.6004 1406.88 34.0379 1406.88 34.5455ZM1418.52 40.1818C1417.77 40.1818 1417.1 39.9905 1416.52 39.608C1415.95 39.2254 1415.5 38.697 1415.17 38.0227C1414.85 37.3447 1414.68 36.5625 1414.68 35.6761C1414.68 34.7822 1414.85 33.9962 1415.17 33.3182C1415.5 32.6364 1415.95 32.1061 1416.52 31.7273C1417.1 31.3447 1417.77 31.1534 1418.52 31.1534C1419.28 31.1534 1419.94 31.3447 1420.52 31.7273C1421.09 32.1098 1421.54 32.6402 1421.87 33.3182C1422.2 33.9962 1422.37 34.7822 1422.37 35.6761C1422.37 36.5625 1422.2 37.3447 1421.88 38.0227C1421.55 38.697 1421.1 39.2254 1420.52 39.608C1419.94 39.9905 1419.28 40.1818 1418.52 40.1818ZM1418.52 39.2557C1419.13 39.2557 1419.64 39.0928 1420.06 38.767C1420.48 38.4413 1420.8 38.0076 1421.02 37.4659C1421.24 36.9242 1421.35 36.3277 1421.35 35.6761C1421.35 35.0246 1421.24 34.4261 1421.02 33.8807C1420.8 33.3352 1420.48 32.8977 1420.06 32.5682C1419.64 32.2386 1419.13 32.0739 1418.52 32.0739C1417.92 32.0739 1417.41 32.2386 1416.98 32.5682C1416.56 32.8977 1416.24 33.3352 1416.02 33.8807C1415.81 34.4261 1415.7 35.0246 1415.7 35.6761C1415.7 36.3277 1415.81 36.9242 1416.02 37.4659C1416.24 38.0076 1416.56 38.4413 1416.98 38.767C1417.4 39.0928 1417.92 39.2557 1418.52 39.2557ZM1418.05 30.0625L1419.51 27.483H1420.71L1418.96 30.0625H1418.05ZM1424.6 40V31.2727H1425.61V40H1424.6ZM1425.11 29.7727C1424.91 29.7727 1424.73 29.7027 1424.58 29.5625C1424.43 29.4186 1424.36 29.2462 1424.36 29.0455C1424.36 28.8447 1424.43 28.6742 1424.58 28.5341C1424.73 28.3902 1424.91 28.3182 1425.11 28.3182C1425.32 28.3182 1425.5 28.3902 1425.65 28.5341C1425.8 28.6742 1425.87 28.8447 1425.87 29.0455C1425.87 29.2462 1425.8 29.4186 1425.65 29.5625C1425.5 29.7027 1425.32 29.7727 1425.11 29.7727ZM1436.2 40.1818C1435.42 40.1818 1434.74 39.9867 1434.16 39.5966C1433.58 39.2064 1433.13 38.6723 1432.82 37.9943C1432.5 37.3163 1432.34 36.5436 1432.34 35.6761C1432.34 34.8011 1432.5 34.0227 1432.82 33.3409C1433.15 32.6591 1433.6 32.125 1434.17 31.7386C1434.75 31.3485 1435.42 31.1534 1436.18 31.1534C1436.76 31.1534 1437.29 31.267 1437.77 31.4943C1438.24 31.7178 1438.63 32.0341 1438.94 32.4432C1439.25 32.8485 1439.44 33.322 1439.52 33.8636H1438.5C1438.39 33.3712 1438.14 32.9508 1437.73 32.6023C1437.33 32.25 1436.82 32.0739 1436.2 32.0739C1435.64 32.0739 1435.15 32.2254 1434.72 32.5284C1434.29 32.8277 1433.96 33.2462 1433.71 33.7841C1433.48 34.3182 1433.36 34.9375 1433.36 35.642C1433.36 36.3504 1433.47 36.9773 1433.71 37.5227C1433.94 38.0644 1434.27 38.4886 1434.7 38.7955C1435.13 39.1023 1435.63 39.2557 1436.2 39.2557C1436.58 39.2557 1436.94 39.1837 1437.25 39.0398C1437.58 38.892 1437.85 38.6837 1438.06 38.4148C1438.28 38.1458 1438.43 37.8258 1438.5 37.4545H1439.53C1439.45 37.9811 1439.26 38.4508 1438.96 38.8636C1438.67 39.2727 1438.28 39.5947 1437.81 39.8295C1437.34 40.0644 1436.8 40.1818 1436.2 40.1818ZM1442.71 34.5455V40H1441.69V28.3636H1442.71V32.642H1442.8C1443 32.1913 1443.32 31.8314 1443.75 31.5625C1444.18 31.2936 1444.72 31.1591 1445.38 31.1591C1445.97 31.1591 1446.49 31.2803 1446.94 31.5227C1447.39 31.7652 1447.73 32.1231 1447.98 32.5966C1448.23 33.0701 1448.36 33.6534 1448.36 34.3466V40H1447.34V34.4091C1447.34 33.6894 1447.14 33.1231 1446.74 32.7102C1446.34 32.2936 1445.8 32.0852 1445.13 32.0852C1444.66 32.0852 1444.25 32.1837 1443.88 32.3807C1443.52 32.5777 1443.23 32.8617 1443.02 33.233C1442.81 33.6004 1442.71 34.0379 1442.71 34.5455ZM1456.57 36.6648V31.2727H1457.58V40H1456.57V38.5511H1456.49C1456.28 38.9981 1455.96 39.3712 1455.52 39.6705C1455.07 39.9659 1454.53 40.1136 1453.89 40.1136C1453.34 40.1136 1452.84 39.9924 1452.41 39.75C1451.98 39.5038 1451.64 39.1439 1451.39 38.6705C1451.15 38.197 1451.02 37.6155 1451.02 36.9261V31.2727H1452.03V36.8636C1452.03 37.5455 1452.23 38.0947 1452.64 38.5114C1453.04 38.9242 1453.55 39.1307 1454.18 39.1307C1454.58 39.1307 1454.95 39.036 1455.32 38.8466C1455.68 38.6572 1455.98 38.3807 1456.22 38.017C1456.45 37.6496 1456.57 37.1989 1456.57 36.6648ZM1460.96 43.2727C1460.76 43.2727 1460.57 43.2538 1460.4 43.2159C1460.22 43.178 1460.09 43.1364 1459.98 43.0909L1460.26 42.1989C1460.6 42.3049 1460.91 42.3428 1461.18 42.3125C1461.45 42.286 1461.69 42.1648 1461.89 41.9489C1462.1 41.7367 1462.29 41.411 1462.45 40.9716L1462.77 40.0852L1459.56 31.2727H1460.65L1463.25 38.6648H1463.33L1465.92 31.2727H1467.01L1463.32 41.3807C1463.16 41.8011 1462.97 42.1515 1462.75 42.4318C1462.52 42.7159 1462.26 42.9261 1461.96 43.0625C1461.66 43.2027 1461.33 43.2727 1460.96 43.2727ZM1472.21 40.1818C1471.39 40.1818 1470.69 39.9924 1470.09 39.6136C1469.5 39.2311 1469.04 38.7027 1468.71 38.0284C1468.39 37.3504 1468.23 36.5701 1468.23 35.6875C1468.23 34.8087 1468.39 34.0284 1468.71 33.3466C1469.04 32.661 1469.49 32.125 1470.06 31.7386C1470.64 31.3485 1471.3 31.1534 1472.05 31.1534C1472.53 31.1534 1472.98 31.2405 1473.42 31.4148C1473.86 31.5852 1474.26 31.8485 1474.61 32.2045C1474.96 32.5568 1475.24 33.0019 1475.44 33.5398C1475.64 34.0739 1475.75 34.7064 1475.75 35.4375V35.9375H1468.93V35.0455H1474.71C1474.71 34.4848 1474.6 33.9811 1474.37 33.5341C1474.15 33.0833 1473.84 32.7273 1473.43 32.4659C1473.04 32.2045 1472.58 32.0739 1472.05 32.0739C1471.5 32.0739 1471.01 32.2216 1470.59 32.517C1470.17 32.8125 1469.84 33.2027 1469.61 33.6875C1469.37 34.1723 1469.25 34.7027 1469.25 35.2784V35.8125C1469.25 36.5057 1469.37 37.1117 1469.61 37.6307C1469.85 38.1458 1470.19 38.5455 1470.63 38.8295C1471.08 39.1136 1471.6 39.2557 1472.21 39.2557C1472.62 39.2557 1472.98 39.1913 1473.29 39.0625C1473.61 38.9337 1473.87 38.7614 1474.08 38.5455C1474.3 38.3258 1474.46 38.0852 1474.57 37.8239L1475.53 38.1364C1475.4 38.5038 1475.18 38.8428 1474.88 39.1534C1474.58 39.464 1474.2 39.714 1473.75 39.9034C1473.31 40.089 1472.79 40.1818 1472.21 40.1818ZM1473.36 30.2727L1472 28.6307L1470.64 30.2727H1469.66V30.1989L1471.58 27.9091H1472.43L1474.35 30.1989V30.2727H1473.36ZM1472 42.7898C1471.8 42.7898 1471.62 42.7178 1471.47 42.5739C1471.32 42.4299 1471.25 42.2595 1471.25 42.0625C1471.25 41.8617 1471.32 41.6894 1471.47 41.5455C1471.62 41.4053 1471.8 41.3352 1472 41.3352C1472.21 41.3352 1472.39 41.4053 1472.54 41.5455C1472.69 41.6894 1472.76 41.8617 1472.76 42.0625C1472.76 42.2595 1472.69 42.4299 1472.54 42.5739C1472.39 42.7178 1472.21 42.7898 1472 42.7898ZM1478.99 34.5455V40H1477.98V31.2727H1478.96V32.642H1479.05C1479.25 32.1951 1479.57 31.8371 1480 31.5682C1480.44 31.2955 1480.98 31.1591 1481.62 31.1591C1482.21 31.1591 1482.72 31.2822 1483.16 31.5284C1483.61 31.7708 1483.96 32.1288 1484.2 32.6023C1484.45 33.0758 1484.58 33.6572 1484.58 34.3466V40H1483.57V34.4091C1483.57 33.6932 1483.37 33.1269 1482.96 32.7102C1482.57 32.2936 1482.03 32.0852 1481.36 32.0852C1480.9 32.0852 1480.5 32.1837 1480.14 32.3807C1479.78 32.5777 1479.5 32.8617 1479.29 33.233C1479.09 33.6004 1478.99 34.0379 1478.99 34.5455ZM1498.5 31.2727L1495.31 40H1494.23L1491.04 31.2727H1492.14L1494.73 38.6648H1494.81L1497.4 31.2727H1498.5ZM1507.16 30.5625H1508.11C1508.11 31.3655 1507.94 31.9981 1507.6 32.4602C1507.26 32.9186 1506.68 33.1553 1505.85 33.1705V32.4148C1506.21 32.4034 1506.49 32.3239 1506.67 32.1761C1506.86 32.0246 1506.99 31.8125 1507.06 31.5398C1507.12 31.267 1507.16 30.9413 1507.16 30.5625ZM1503.56 40.1818C1502.8 40.1818 1502.13 39.9905 1501.56 39.608C1500.98 39.2254 1500.53 38.697 1500.2 38.0227C1499.88 37.3447 1499.71 36.5625 1499.71 35.6761C1499.71 34.7822 1499.88 33.9962 1500.2 33.3182C1500.53 32.6364 1500.98 32.1061 1501.56 31.7273C1502.13 31.3447 1502.8 31.1534 1503.56 31.1534C1504.31 31.1534 1504.97 31.3447 1505.55 31.7273C1506.13 32.1098 1506.58 32.6402 1506.9 33.3182C1507.23 33.9962 1507.4 34.7822 1507.4 35.6761C1507.4 36.5625 1507.23 37.3447 1506.91 38.0227C1506.58 38.697 1506.13 39.2254 1505.55 39.608C1504.97 39.9905 1504.31 40.1818 1503.56 40.1818ZM1503.56 39.2557C1504.16 39.2557 1504.67 39.0928 1505.1 38.767C1505.52 38.4413 1505.83 38.0076 1506.05 37.4659C1506.27 36.9242 1506.38 36.3277 1506.38 35.6761C1506.38 35.0246 1506.27 34.4261 1506.05 33.8807C1505.83 33.3352 1505.52 32.8977 1505.1 32.5682C1504.67 32.2386 1504.16 32.0739 1503.56 32.0739C1502.95 32.0739 1502.44 32.2386 1502.02 32.5682C1501.6 32.8977 1501.28 33.3352 1501.06 33.8807C1500.84 34.4261 1500.73 35.0246 1500.73 35.6761C1500.73 36.3277 1500.84 36.9242 1501.06 37.4659C1501.28 38.0076 1501.6 38.4413 1502.02 38.767C1502.44 39.0928 1502.95 39.2557 1503.56 39.2557ZM1503.08 30.0625L1504.54 27.483H1505.74L1503.99 30.0625H1503.08ZM1509.57 40V31.2727H1510.58V40H1509.57ZM1510.08 29.7727C1509.87 29.7727 1509.7 29.7027 1509.55 29.5625C1509.4 29.4186 1509.33 29.2462 1509.33 29.0455C1509.33 28.8447 1509.4 28.6742 1509.55 28.5341C1509.7 28.3902 1509.87 28.3182 1510.08 28.3182C1510.29 28.3182 1510.47 28.3902 1510.62 28.5341C1510.76 28.6742 1510.84 28.8447 1510.84 29.0455C1510.84 29.2462 1510.76 29.4186 1510.62 29.5625C1510.47 29.7027 1510.29 29.7727 1510.08 29.7727ZM1518.77 34.5455V40H1517.76V31.2727H1518.74V32.642H1518.83C1519.04 32.1951 1519.35 31.8371 1519.79 31.5682C1520.22 31.2955 1520.76 31.1591 1521.4 31.1591C1521.99 31.1591 1522.5 31.2822 1522.94 31.5284C1523.39 31.7708 1523.74 32.1288 1523.98 32.6023C1524.23 33.0758 1524.36 33.6572 1524.36 34.3466V40H1523.35V34.4091C1523.35 33.6932 1523.15 33.1269 1522.75 32.7102C1522.35 32.2936 1521.81 32.0852 1521.14 32.0852C1520.69 32.0852 1520.28 32.1837 1519.92 32.3807C1519.57 32.5777 1519.28 32.8617 1519.08 33.233C1518.87 33.6004 1518.77 34.0379 1518.77 34.5455ZM1528.03 34.5455V40H1527.02V28.3636H1528.03V32.642H1528.12C1528.33 32.1913 1528.65 31.8314 1529.07 31.5625C1529.51 31.2936 1530.05 31.1591 1530.71 31.1591C1531.3 31.1591 1531.82 31.2803 1532.27 31.5227C1532.71 31.7652 1533.06 32.1231 1533.31 32.5966C1533.56 33.0701 1533.69 33.6534 1533.69 34.3466V40H1532.67V34.4091C1532.67 33.6894 1532.47 33.1231 1532.07 32.7102C1531.67 32.2936 1531.13 32.0852 1530.45 32.0852C1529.99 32.0852 1529.57 32.1837 1529.21 32.3807C1528.85 32.5777 1528.56 32.8617 1528.35 33.233C1528.14 33.6004 1528.03 34.0379 1528.03 34.5455ZM1538.79 40.1989C1538.26 40.1989 1537.78 40.0966 1537.35 39.892C1536.91 39.6837 1536.56 39.3845 1536.31 38.9943C1536.05 38.6004 1535.92 38.1231 1535.92 37.5625C1535.92 37.1307 1536 36.767 1536.16 36.4716C1536.33 36.1761 1536.56 35.9337 1536.86 35.7443C1537.16 35.5549 1537.51 35.4053 1537.92 35.2955C1538.33 35.1856 1538.78 35.1004 1539.27 35.0398C1539.76 34.9792 1540.17 34.9261 1540.51 34.8807C1540.85 34.8352 1541.11 34.7633 1541.29 34.6648C1541.47 34.5663 1541.56 34.4072 1541.56 34.1875V33.983C1541.56 33.3883 1541.38 32.9205 1541.02 32.5795C1540.67 32.2348 1540.16 32.0625 1539.5 32.0625C1538.87 32.0625 1538.36 32.2008 1537.96 32.4773C1537.56 32.7538 1537.29 33.0795 1537.13 33.4545L1536.17 33.108C1536.37 32.6307 1536.64 32.25 1536.99 31.9659C1537.34 31.678 1537.73 31.4716 1538.16 31.3466C1538.59 31.2178 1539.03 31.1534 1539.47 31.1534C1539.8 31.1534 1540.15 31.197 1540.51 31.2841C1540.87 31.3712 1541.21 31.5227 1541.52 31.7386C1541.83 31.9508 1542.08 32.2481 1542.28 32.6307C1542.47 33.0095 1542.57 33.4905 1542.57 34.0739V40H1541.56V38.6193H1541.49C1541.37 38.8769 1541.19 39.1269 1540.95 39.3693C1540.71 39.6117 1540.42 39.8106 1540.06 39.9659C1539.7 40.1212 1539.27 40.1989 1538.79 40.1989ZM1538.92 39.2727C1539.46 39.2727 1539.93 39.1534 1540.32 38.9148C1540.72 38.6761 1541.02 38.3598 1541.23 37.9659C1541.45 37.5682 1541.56 37.1307 1541.56 36.6534V35.392C1541.48 35.464 1541.35 35.5284 1541.17 35.5852C1541 35.642 1540.8 35.6932 1540.57 35.7386C1540.34 35.7803 1540.11 35.8163 1539.88 35.8466C1539.66 35.8769 1539.45 35.9034 1539.27 35.9261C1538.78 35.9867 1538.36 36.0814 1538.01 36.2102C1537.66 36.339 1537.39 36.517 1537.21 36.7443C1537.02 36.9678 1536.93 37.2557 1536.93 37.608C1536.93 38.1383 1537.12 38.5492 1537.5 38.8409C1537.88 39.1288 1538.35 39.2727 1538.92 39.2727ZM1550.8 36.6648V31.2727H1551.81V40H1550.8V38.5511H1550.72C1550.52 38.9981 1550.19 39.3712 1549.75 39.6705C1549.31 39.9659 1548.77 40.1136 1548.13 40.1136C1547.57 40.1136 1547.08 39.9924 1546.64 39.75C1546.21 39.5038 1545.87 39.1439 1545.63 38.6705C1545.38 38.197 1545.26 37.6155 1545.26 36.9261V31.2727H1546.27V36.8636C1546.27 37.5455 1546.47 38.0947 1546.87 38.5114C1547.27 38.9242 1547.79 39.1307 1548.42 39.1307C1548.81 39.1307 1549.19 39.036 1549.55 38.8466C1549.92 38.6572 1550.22 38.3807 1550.45 38.017C1550.69 37.6496 1550.8 37.1989 1550.8 36.6648ZM1559.2 40V28.3636H1560.22V32.9375H1560.31C1560.42 32.6761 1560.59 32.4072 1560.8 32.1307C1561.01 31.8542 1561.3 31.6231 1561.64 31.4375C1562 31.2481 1562.44 31.1534 1562.97 31.1534C1563.69 31.1534 1564.32 31.3428 1564.86 31.7216C1565.4 32.0966 1565.82 32.6231 1566.13 33.3011C1566.43 33.9754 1566.58 34.7614 1566.58 35.6591C1566.58 36.5606 1566.43 37.3504 1566.13 38.0284C1565.83 38.7064 1565.41 39.2348 1564.87 39.6136C1564.33 39.9924 1563.7 40.1818 1562.99 40.1818C1562.46 40.1818 1562.02 40.0871 1561.66 39.8977C1561.31 39.7083 1561.03 39.4754 1560.81 39.1989C1560.59 38.9186 1560.43 38.6458 1560.31 38.3807H1560.18V40H1559.2ZM1560.2 35.642C1560.2 36.3466 1560.31 36.9716 1560.51 37.517C1560.73 38.0587 1561.03 38.4848 1561.42 38.7955C1561.82 39.1023 1562.3 39.2557 1562.87 39.2557C1563.45 39.2557 1563.94 39.0966 1564.34 38.7784C1564.74 38.4564 1565.04 38.0227 1565.25 37.4773C1565.46 36.9318 1565.57 36.3201 1565.57 35.642C1565.57 34.9716 1565.46 34.3674 1565.25 33.8295C1565.05 33.2917 1564.75 32.8655 1564.34 32.5511C1563.94 32.233 1563.45 32.0739 1562.87 32.0739C1562.3 32.0739 1561.82 32.2273 1561.42 32.5341C1561.02 32.8371 1560.72 33.2576 1560.51 33.7955C1560.31 34.3295 1560.2 34.9451 1560.2 35.642ZM1571.24 40.1989C1570.71 40.1989 1570.23 40.0966 1569.8 39.892C1569.36 39.6837 1569.02 39.3845 1568.76 38.9943C1568.5 38.6004 1568.37 38.1231 1568.37 37.5625C1568.37 37.1307 1568.45 36.767 1568.62 36.4716C1568.78 36.1761 1569.01 35.9337 1569.31 35.7443C1569.61 35.5549 1569.96 35.4053 1570.37 35.2955C1570.78 35.1856 1571.23 35.1004 1571.72 35.0398C1572.21 34.9792 1572.63 34.9261 1572.96 34.8807C1573.3 34.8352 1573.56 34.7633 1573.74 34.6648C1573.92 34.5663 1574.01 34.4072 1574.01 34.1875V33.983C1574.01 33.3883 1573.83 32.9205 1573.47 32.5795C1573.12 32.2348 1572.61 32.0625 1571.95 32.0625C1571.32 32.0625 1570.81 32.2008 1570.41 32.4773C1570.02 32.7538 1569.74 33.0795 1569.58 33.4545L1568.62 33.108C1568.82 32.6307 1569.09 32.25 1569.44 31.9659C1569.79 31.678 1570.18 31.4716 1570.61 31.3466C1571.04 31.2178 1571.48 31.1534 1571.92 31.1534C1572.26 31.1534 1572.6 31.197 1572.96 31.2841C1573.33 31.3712 1573.66 31.5227 1573.97 31.7386C1574.29 31.9508 1574.54 32.2481 1574.73 32.6307C1574.92 33.0095 1575.02 33.4905 1575.02 34.0739V40H1574.01V38.6193H1573.95C1573.82 38.8769 1573.64 39.1269 1573.41 39.3693C1573.17 39.6117 1572.87 39.8106 1572.51 39.9659C1572.15 40.1212 1571.73 40.1989 1571.24 40.1989ZM1571.38 39.2727C1571.92 39.2727 1572.38 39.1534 1572.78 38.9148C1573.17 38.6761 1573.47 38.3598 1573.68 37.9659C1573.9 37.5682 1574.01 37.1307 1574.01 36.6534V35.392C1573.93 35.464 1573.81 35.5284 1573.63 35.5852C1573.45 35.642 1573.25 35.6932 1573.02 35.7386C1572.79 35.7803 1572.57 35.8163 1572.34 35.8466C1572.11 35.8769 1571.91 35.9034 1571.72 35.9261C1571.23 35.9867 1570.81 36.0814 1570.46 36.2102C1570.11 36.339 1569.85 36.517 1569.66 36.7443C1569.48 36.9678 1569.38 37.2557 1569.38 37.608C1569.38 38.1383 1569.57 38.5492 1569.95 38.8409C1570.33 39.1288 1570.81 39.2727 1571.38 39.2727ZM1573.01 28.6477H1573.98C1573.98 29.0985 1573.8 29.4659 1573.44 29.75C1573.08 30.0303 1572.59 30.1705 1571.96 30.1705C1571.34 30.1705 1570.85 30.0303 1570.49 29.75C1570.13 29.4659 1569.95 29.0985 1569.95 28.6477H1570.92C1570.92 28.9053 1571 29.1193 1571.16 29.2898C1571.32 29.4602 1571.59 29.5455 1571.96 29.5455C1572.33 29.5455 1572.59 29.4602 1572.76 29.2898C1572.93 29.1193 1573.01 28.9053 1573.01 28.6477ZM1571.75 28.4034L1570.56 26.8295H1571.56L1572.41 28.4034H1571.75ZM1578.72 34.5455V40H1577.71V31.2727H1578.69V32.642H1578.78C1578.99 32.1951 1579.31 31.8371 1579.74 31.5682C1580.17 31.2955 1580.71 31.1591 1581.35 31.1591C1581.94 31.1591 1582.45 31.2822 1582.9 31.5284C1583.34 31.7708 1583.69 32.1288 1583.94 32.6023C1584.19 33.0758 1584.31 33.6572 1584.31 34.3466V40H1583.3V34.4091C1583.3 33.6932 1583.1 33.1269 1582.7 32.7102C1582.3 32.2936 1581.77 32.0852 1581.1 32.0852C1580.64 32.0852 1580.23 32.1837 1579.88 32.3807C1579.52 32.5777 1579.24 32.8617 1579.03 33.233C1578.82 33.6004 1578.72 34.0379 1578.72 34.5455ZM1590.31 43.4545C1589.71 43.4545 1589.19 43.3769 1588.74 43.2216C1588.3 43.0701 1587.92 42.8617 1587.61 42.5966C1587.31 42.3314 1587.07 42.0341 1586.9 41.7045L1587.73 41.1591C1587.85 41.3788 1588.02 41.5947 1588.23 41.8068C1588.44 42.0189 1588.71 42.1951 1589.05 42.3352C1589.39 42.4754 1589.81 42.5455 1590.31 42.5455C1591.08 42.5455 1591.7 42.3523 1592.17 41.9659C1592.65 41.5795 1592.89 40.9792 1592.89 40.1648V38.1989H1592.8C1592.68 38.464 1592.51 38.7292 1592.29 38.9943C1592.07 39.2557 1591.79 39.4735 1591.43 39.6477C1591.08 39.822 1590.64 39.9091 1590.12 39.9091C1589.42 39.9091 1588.8 39.7367 1588.26 39.392C1587.72 39.0473 1587.3 38.5549 1586.99 37.9148C1586.68 37.2708 1586.53 36.5038 1586.53 35.6136C1586.53 34.7311 1586.68 33.9545 1586.98 33.2841C1587.28 32.6136 1587.7 32.0909 1588.24 31.7159C1588.78 31.3409 1589.42 31.1534 1590.13 31.1534C1590.67 31.1534 1591.11 31.2481 1591.46 31.4375C1591.82 31.6231 1592.1 31.8542 1592.31 32.1307C1592.53 32.4072 1592.7 32.6761 1592.82 32.9375H1592.92V31.2727H1593.91V40.2273C1593.91 40.9659 1593.75 41.5739 1593.44 42.0511C1593.12 42.5284 1592.69 42.8807 1592.15 43.108C1591.61 43.339 1590.99 43.4545 1590.31 43.4545ZM1590.24 38.983C1590.8 38.983 1591.28 38.8485 1591.67 38.5795C1592.07 38.3068 1592.38 37.9167 1592.59 37.4091C1592.8 36.9015 1592.91 36.2973 1592.91 35.5966C1592.91 34.9148 1592.8 34.3106 1592.6 33.7841C1592.39 33.2538 1592.08 32.8371 1591.69 32.5341C1591.29 32.2273 1590.81 32.0739 1590.24 32.0739C1589.65 32.0739 1589.16 32.2311 1588.76 32.5455C1588.36 32.8598 1588.06 33.2841 1587.85 33.8182C1587.65 34.3485 1587.54 34.9413 1587.54 35.5966C1587.54 36.2633 1587.65 36.8523 1587.86 37.3636C1588.06 37.8712 1588.37 38.2689 1588.77 38.5568C1589.17 38.8409 1589.66 38.983 1590.24 38.983ZM1604.49 40.1818C1603.71 40.1818 1603.03 39.9867 1602.45 39.5966C1601.88 39.2064 1601.43 38.6723 1601.11 37.9943C1600.8 37.3163 1600.64 36.5436 1600.64 35.6761C1600.64 34.8011 1600.8 34.0227 1601.12 33.3409C1601.45 32.6591 1601.9 32.125 1602.47 31.7386C1603.05 31.3485 1603.72 31.1534 1604.48 31.1534C1605.06 31.1534 1605.59 31.267 1606.06 31.4943C1606.54 31.7178 1606.93 32.0341 1607.23 32.4432C1607.54 32.8485 1607.74 33.322 1607.82 33.8636H1606.8C1606.69 33.3712 1606.43 32.9508 1606.03 32.6023C1605.63 32.25 1605.12 32.0739 1604.49 32.0739C1603.94 32.0739 1603.45 32.2254 1603.02 32.5284C1602.59 32.8277 1602.25 33.2462 1602.01 33.7841C1601.77 34.3182 1601.65 34.9375 1601.65 35.642C1601.65 36.3504 1601.77 36.9773 1602.01 37.5227C1602.24 38.0644 1602.57 38.4886 1602.99 38.7955C1603.42 39.1023 1603.92 39.2557 1604.49 39.2557C1604.88 39.2557 1605.23 39.1837 1605.55 39.0398C1605.87 38.892 1606.14 38.6837 1606.36 38.4148C1606.58 38.1458 1606.73 37.8258 1606.8 37.4545H1607.82C1607.75 37.9811 1607.56 38.4508 1607.26 38.8636C1606.97 39.2727 1606.58 39.5947 1606.11 39.8295C1605.64 40.0644 1605.1 40.1818 1604.49 40.1818ZM1613.38 40.1818C1612.63 40.1818 1611.96 39.9905 1611.38 39.608C1610.81 39.2254 1610.36 38.697 1610.03 38.0227C1609.71 37.3447 1609.54 36.5625 1609.54 35.6761C1609.54 34.7822 1609.71 33.9962 1610.03 33.3182C1610.36 32.6364 1610.81 32.1061 1611.38 31.7273C1611.96 31.3447 1612.63 31.1534 1613.38 31.1534C1614.14 31.1534 1614.8 31.3447 1615.38 31.7273C1615.95 32.1098 1616.4 32.6402 1616.73 33.3182C1617.06 33.9962 1617.22 34.7822 1617.22 35.6761C1617.22 36.5625 1617.06 37.3447 1616.74 38.0227C1616.41 38.697 1615.96 39.2254 1615.38 39.608C1614.8 39.9905 1614.14 40.1818 1613.38 40.1818ZM1613.38 39.2557C1613.99 39.2557 1614.5 39.0928 1614.92 38.767C1615.34 38.4413 1615.66 38.0076 1615.88 37.4659C1616.1 36.9242 1616.21 36.3277 1616.21 35.6761C1616.21 35.0246 1616.1 34.4261 1615.88 33.8807C1615.66 33.3352 1615.34 32.8977 1614.92 32.5682C1614.5 32.2386 1613.99 32.0739 1613.38 32.0739C1612.78 32.0739 1612.27 32.2386 1611.84 32.5682C1611.42 32.8977 1611.1 33.3352 1610.88 33.8807C1610.67 34.4261 1610.56 35.0246 1610.56 35.6761C1610.56 36.3277 1610.67 36.9242 1610.88 37.4659C1611.1 38.0076 1611.42 38.4413 1611.84 38.767C1612.26 39.0928 1612.78 39.2557 1613.38 39.2557ZM1620.46 34.5455V40H1619.44V31.2727H1620.43V32.642H1620.52C1620.72 32.1951 1621.04 31.8371 1621.47 31.5682C1621.91 31.2955 1622.45 31.1591 1623.09 31.1591C1623.67 31.1591 1624.19 31.2822 1624.63 31.5284C1625.08 31.7708 1625.43 32.1288 1625.67 32.6023C1625.92 33.0758 1626.05 33.6572 1626.05 34.3466V40H1625.04V34.4091C1625.04 33.6932 1624.83 33.1269 1624.43 32.7102C1624.04 32.2936 1623.5 32.0852 1622.83 32.0852C1622.37 32.0852 1621.97 32.1837 1621.61 32.3807C1621.25 32.5777 1620.97 32.8617 1620.76 33.233C1620.56 33.6004 1620.46 34.0379 1620.46 34.5455ZM1639.07 33.1875L1638.15 33.4489C1638.06 33.1875 1637.93 32.9508 1637.76 32.7386C1637.59 32.5265 1637.38 32.358 1637.11 32.233C1636.84 32.108 1636.51 32.0455 1636.12 32.0455C1635.53 32.0455 1635.04 32.1856 1634.66 32.4659C1634.29 32.7462 1634.1 33.108 1634.1 33.5511C1634.1 33.9261 1634.23 34.2311 1634.48 34.4659C1634.74 34.697 1635.15 34.8807 1635.69 35.017L1637.01 35.3409C1637.74 35.5189 1638.28 35.8011 1638.65 36.1875C1639.02 36.5739 1639.2 37.0587 1639.2 37.642C1639.2 38.1345 1639.06 38.572 1638.79 38.9545C1638.52 39.3371 1638.14 39.6383 1637.65 39.858C1637.16 40.0739 1636.6 40.1818 1635.96 40.1818C1635.11 40.1818 1634.41 39.9905 1633.85 39.608C1633.3 39.2216 1632.95 38.6648 1632.79 37.9375L1633.76 37.6989C1633.89 38.2178 1634.13 38.6098 1634.49 38.875C1634.86 39.1402 1635.34 39.2727 1635.94 39.2727C1636.61 39.2727 1637.15 39.1231 1637.55 38.8239C1637.95 38.5208 1638.15 38.142 1638.15 37.6875C1638.15 37.3352 1638.04 37.0398 1637.8 36.8011C1637.57 36.5587 1637.21 36.3807 1636.73 36.267L1635.31 35.9261C1634.55 35.7443 1633.99 35.4564 1633.62 35.0625C1633.26 34.6686 1633.08 34.1799 1633.08 33.5966C1633.08 33.1155 1633.21 32.6932 1633.47 32.3295C1633.73 31.9621 1634.09 31.6742 1634.55 31.4659C1635.01 31.2576 1635.53 31.1534 1636.12 31.1534C1636.92 31.1534 1637.56 31.3352 1638.03 31.6989C1638.52 32.0587 1638.86 32.5549 1639.07 33.1875ZM1644.81 40.1818C1644.05 40.1818 1643.38 39.9905 1642.81 39.608C1642.23 39.2254 1641.78 38.697 1641.45 38.0227C1641.13 37.3447 1640.96 36.5625 1640.96 35.6761C1640.96 34.7822 1641.13 33.9962 1641.45 33.3182C1641.78 32.6364 1642.23 32.1061 1642.81 31.7273C1643.38 31.3447 1644.05 31.1534 1644.81 31.1534C1645.56 31.1534 1646.22 31.3447 1646.8 31.7273C1647.38 32.1098 1647.83 32.6402 1648.15 33.3182C1648.48 33.9962 1648.65 34.7822 1648.65 35.6761C1648.65 36.5625 1648.48 37.3447 1648.16 38.0227C1647.83 38.697 1647.38 39.2254 1646.8 39.608C1646.22 39.9905 1645.56 40.1818 1644.81 40.1818ZM1644.81 39.2557C1645.41 39.2557 1645.92 39.0928 1646.35 38.767C1646.77 38.4413 1647.08 38.0076 1647.3 37.4659C1647.52 36.9242 1647.63 36.3277 1647.63 35.6761C1647.63 35.0246 1647.52 34.4261 1647.3 33.8807C1647.08 33.3352 1646.77 32.8977 1646.35 32.5682C1645.92 32.2386 1645.41 32.0739 1644.81 32.0739C1644.2 32.0739 1643.69 32.2386 1643.27 32.5682C1642.85 32.8977 1642.53 33.3352 1642.31 33.8807C1642.09 34.4261 1641.98 35.0246 1641.98 35.6761C1641.98 36.3277 1642.09 36.9242 1642.31 37.4659C1642.53 38.0076 1642.85 38.4413 1643.27 38.767C1643.69 39.0928 1644.2 39.2557 1644.81 39.2557ZM1642.15 30.1136L1644.4 28.0057H1645.27L1647.53 30.1136H1646.28L1644.85 28.7273L1643.41 30.1136H1642.15ZM1647.07 28.7159L1648.27 26.6875H1649.53L1647.98 28.7159H1647.07Z" fill="white"/>
<path d="M1214.67 35C1214.67 37.9455 1217.05 40.3333 1220 40.3333C1222.95 40.3333 1225.33 37.9455 1225.33 35C1225.33 32.0545 1222.95 29.6667 1220 29.6667C1217.05 29.6667 1214.67 32.0545 1214.67 35ZM1197 36H1220V34H1197V36Z" fill="url(#paint1_linear_2014_707)"/>
<circle cx="1165" cy="35" r="35" fill="url(#paint2_linear_2014_707)"/>
<circle cx="1165" cy="35" r="27" fill="white"/>
<path d="M1154.92 44.36C1152.9 44.36 1151.16 43.976 1149.69 43.208C1148.23 42.424 1147.1 41.328 1146.3 39.92C1145.5 38.512 1145.1 36.872 1145.1 35C1145.1 33.128 1145.5 31.488 1146.3 30.08C1147.1 28.672 1148.23 27.584 1149.69 26.816C1151.16 26.032 1152.9 25.64 1154.92 25.64C1156.92 25.64 1158.65 26.032 1160.1 26.816C1161.58 27.584 1162.71 28.672 1163.51 30.08C1164.31 31.488 1164.71 33.128 1164.71 35C1164.71 36.872 1164.31 38.512 1163.51 39.92C1162.71 41.328 1161.58 42.424 1160.1 43.208C1158.65 43.976 1156.92 44.36 1154.92 44.36ZM1154.92 41.048C1156.73 41.048 1158.13 40.52 1159.12 39.464C1160.13 38.392 1160.63 36.904 1160.63 35C1160.63 33.08 1160.13 31.592 1159.12 30.536C1158.13 29.48 1156.73 28.952 1154.92 28.952C1153.11 28.952 1151.7 29.48 1150.7 30.536C1149.69 31.592 1149.18 33.08 1149.18 35C1149.18 36.92 1149.69 38.408 1150.7 39.464C1151.7 40.52 1153.11 41.048 1154.92 41.048ZM1176.4 25.64C1177.91 25.64 1179.24 25.864 1180.39 26.312C1181.54 26.76 1182.48 27.376 1183.2 28.16C1183.93 28.928 1184.38 29.808 1184.54 30.8H1180.68C1180.44 30.224 1180 29.744 1179.36 29.36C1178.72 28.96 1177.77 28.76 1176.52 28.76C1175.21 28.76 1174.13 29.008 1173.28 29.504C1172.44 29.984 1171.81 30.68 1171.41 31.592C1171.01 32.488 1170.81 33.576 1170.81 34.856C1170.81 36.216 1171.04 37.376 1171.48 38.336C1171.93 39.28 1172.59 40 1173.45 40.496C1174.33 40.976 1175.4 41.216 1176.67 41.216C1177.58 41.216 1178.35 41.088 1178.97 40.832C1179.6 40.576 1180.07 40.224 1180.39 39.776C1180.71 39.328 1180.87 38.824 1180.87 38.264C1180.87 37.72 1180.72 37.24 1180.44 36.824C1180.15 36.392 1179.71 36.056 1179.12 35.816C1178.52 35.576 1177.78 35.456 1176.88 35.456C1175.67 35.456 1174.53 35.736 1173.48 36.296C1172.42 36.856 1171.5 37.624 1170.72 38.6L1169.2 37.544C1169.72 36.552 1170.38 35.664 1171.2 34.88C1172.01 34.096 1172.97 33.48 1174.08 33.032C1175.18 32.568 1176.42 32.336 1177.8 32.336C1179.25 32.336 1180.52 32.576 1181.59 33.056C1182.66 33.536 1183.48 34.216 1184.06 35.096C1184.65 35.96 1184.95 36.976 1184.95 38.144C1184.95 39.36 1184.61 40.44 1183.94 41.384C1183.28 42.312 1182.33 43.04 1181.08 43.568C1179.85 44.096 1178.36 44.36 1176.62 44.36C1174.49 44.36 1172.71 43.968 1171.27 43.184C1169.83 42.384 1168.75 41.28 1168.03 39.872C1167.31 38.448 1166.95 36.824 1166.95 35C1166.95 33.176 1167.31 31.56 1168.03 30.152C1168.75 28.744 1169.81 27.64 1171.22 26.84C1172.63 26.04 1174.36 25.64 1176.4 25.64Z" fill="#000C74"/>
<defs>
<linearGradient id="paint0_linear_2014_707" x1="1220" y1="34.5" x2="1707" y2="34.5" gradientUnits="userSpaceOnUse">
<stop stop-color="#00A93C"/>
<stop offset="1" stop-color="#24CBFF"/>
</linearGradient>
<linearGradient id="paint1_linear_2014_707" x1="1197" y1="35.5" x2="1220" y2="35.5" gradientUnits="userSpaceOnUse">
<stop stop-color="#00A93C"/>
<stop offset="1" stop-color="#24CBFF"/>
</linearGradient>
<linearGradient id="paint2_linear_2014_707" x1="1130" y1="35" x2="1200" y2="35" gradientUnits="userSpaceOnUse">
<stop stop-color="#00A93C"/>
<stop offset="1" stop-color="#000C74"/>
</linearGradient>
</defs>
</svg>
