<svg width="100%" viewBox="0 0 375 812" fill="none" xmlns="http://www.w3.org/2000/svg">
<path d="M40.448 571.24C40.2133 573.267 39.4987 575.059 38.304 576.616C37.1307 578.152 35.5733 579.347 33.632 580.2C31.712 581.053 29.5147 581.48 27.04 581.48C24.3093 581.48 21.9093 580.957 19.84 579.912C17.792 578.867 16.192 577.416 15.04 575.56C13.888 573.683 13.312 571.496 13.312 569C13.312 566.504 13.888 564.328 15.04 562.472C16.192 560.595 17.792 559.133 19.84 558.088C21.9093 557.043 24.3093 556.52 27.04 556.52C29.5147 556.52 31.712 556.947 33.632 557.8C35.5733 558.653 37.1307 559.848 38.304 561.384C39.4987 562.92 40.2133 564.712 40.448 566.76H34.976C34.7627 565.629 34.304 564.659 33.6 563.848C32.896 563.016 31.9893 562.376 30.88 561.928C29.7707 561.48 28.48 561.256 27.008 561.256C25.3227 561.256 23.8613 561.576 22.624 562.216C21.408 562.835 20.4693 563.731 19.808 564.904C19.1467 566.056 18.816 567.421 18.816 569C18.816 570.579 19.1467 571.955 19.808 573.128C20.4693 574.28 21.408 575.176 22.624 575.816C23.8613 576.435 25.3227 576.744 27.008 576.744C28.48 576.744 29.7707 576.531 30.88 576.104C31.9893 575.656 32.896 575.027 33.6 574.216C34.304 573.384 34.7627 572.392 34.976 571.24H40.448ZM46.7438 575.944V571.528H63.3838V575.944H46.7438ZM58.6798 557L69.9118 581H64.1198L54.2958 559.208H56.0878L46.2638 581H40.4718L51.7038 557H58.6798ZM52.2798 549.992H58.0718L62.8718 555.144H58.2958L53.9758 551.816H56.3758L52.0558 555.144H47.5118L52.2798 549.992ZM76.209 570.472C76.209 571.752 76.4543 572.851 76.945 573.768C77.4357 574.685 78.1503 575.4 79.089 575.912C80.049 576.403 81.201 576.648 82.545 576.648C83.9103 576.648 85.0623 576.403 86.001 575.912C86.9397 575.4 87.6543 574.685 88.145 573.768C88.6357 572.851 88.881 571.752 88.881 570.472V557H94.321V570.728C94.321 572.883 93.8303 574.771 92.849 576.392C91.8677 577.992 90.4917 579.24 88.721 580.136C86.9503 581.032 84.8917 581.48 82.545 581.48C80.1983 581.48 78.1397 581.032 76.369 580.136C74.6197 579.24 73.2437 577.992 72.241 576.392C71.2597 574.771 70.769 572.883 70.769 570.728V557H76.209V570.472ZM133.104 571.24C132.87 573.267 132.155 575.059 130.96 576.616C129.787 578.152 128.23 579.347 126.288 580.2C124.368 581.053 122.171 581.48 119.696 581.48C116.966 581.48 114.566 580.957 112.496 579.912C110.448 578.867 108.848 577.416 107.696 575.56C106.544 573.683 105.968 571.496 105.968 569C105.968 566.504 106.544 564.328 107.696 562.472C108.848 560.595 110.448 559.133 112.496 558.088C114.566 557.043 116.966 556.52 119.696 556.52C122.171 556.52 124.368 556.947 126.288 557.8C128.23 558.653 129.787 559.848 130.96 561.384C132.155 562.92 132.87 564.712 133.104 566.76H127.632C127.419 565.629 126.96 564.659 126.256 563.848C125.552 563.016 124.646 562.376 123.536 561.928C122.427 561.48 121.136 561.256 119.664 561.256C117.979 561.256 116.518 561.576 115.28 562.216C114.064 562.835 113.126 563.731 112.464 564.904C111.803 566.056 111.472 567.421 111.472 569C111.472 570.579 111.803 571.955 112.464 573.128C113.126 574.28 114.064 575.176 115.28 575.816C116.518 576.435 117.979 576.744 119.664 576.744C121.136 576.744 122.427 576.531 123.536 576.104C124.646 575.656 125.552 575.027 126.256 574.216C126.96 573.384 127.419 572.392 127.632 571.24H133.104ZM136.652 557H142.092V581H136.652V557ZM155.852 557H161.292V581H155.852V557ZM139.628 566.472H158.252V571.24H139.628V566.472ZM171.334 570.472C171.334 571.752 171.579 572.851 172.07 573.768C172.561 574.685 173.275 575.4 174.214 575.912C175.174 576.403 176.326 576.648 177.67 576.648C179.035 576.648 180.187 576.403 181.126 575.912C182.065 575.4 182.779 574.685 183.27 573.768C183.761 572.851 184.006 571.752 184.006 570.472V557H189.446V570.728C189.446 572.883 188.955 574.771 187.974 576.392C186.993 577.992 185.617 579.24 183.846 580.136C182.075 581.032 180.017 581.48 177.67 581.48C175.323 581.48 173.265 581.032 171.494 580.136C169.745 579.24 168.369 577.992 167.366 576.392C166.385 574.771 165.894 572.883 165.894 570.728V557H171.334V570.472ZM203.242 581V569.416H208.682V581H203.242ZM191.946 557H197.994L207.242 568.68H204.618L213.866 557H219.914L207.69 572.456L204.202 572.488L191.946 557ZM242.617 566.92V571.08H225.433V566.92H242.617ZM229.081 569L227.481 579.176L225.113 576.488H243.609V581H222.009L223.865 569L222.009 557H243.449V561.512H225.113L227.481 558.824L229.081 569ZM233.465 588.232C232.505 588.232 231.715 587.976 231.097 587.464C230.499 586.973 230.201 586.312 230.201 585.48C230.201 584.627 230.499 583.944 231.097 583.432C231.715 582.941 232.505 582.696 233.465 582.696C234.446 582.696 235.235 582.941 235.833 583.432C236.43 583.944 236.729 584.627 236.729 585.48C236.729 586.312 236.43 586.973 235.833 587.464C235.235 587.976 234.446 588.232 233.465 588.232ZM229.977 549.992H235.769L240.569 555.144H235.993L231.673 551.816H234.073L229.753 555.144H225.209L229.977 549.992ZM269.985 577.416L268.097 577.704V557H273.377V581H266.497L251.137 560.296L252.993 560.008V581H247.745V557H254.785L269.985 577.416ZM40.448 611.24C40.2133 613.267 39.4987 615.059 38.304 616.616C37.1307 618.152 35.5733 619.347 33.632 620.2C31.712 621.053 29.5147 621.48 27.04 621.48C24.3093 621.48 21.9093 620.957 19.84 619.912C17.792 618.867 16.192 617.416 15.04 615.56C13.888 613.683 13.312 611.496 13.312 609C13.312 606.504 13.888 604.328 15.04 602.472C16.192 600.595 17.792 599.133 19.84 598.088C21.9093 597.043 24.3093 596.52 27.04 596.52C29.5147 596.52 31.712 596.947 33.632 597.8C35.5733 598.653 37.1307 599.848 38.304 601.384C39.4987 602.92 40.2133 604.712 40.448 606.76H34.976C34.7627 605.629 34.304 604.659 33.6 603.848C32.896 603.016 31.9893 602.376 30.88 601.928C29.7707 601.48 28.48 601.256 27.008 601.256C25.3227 601.256 23.8613 601.576 22.624 602.216C21.408 602.835 20.4693 603.731 19.808 604.904C19.1467 606.056 18.816 607.421 18.816 609C18.816 610.579 19.1467 611.955 19.808 613.128C20.4693 614.28 21.408 615.176 22.624 615.816C23.8613 616.435 25.3227 616.744 27.008 616.744C28.48 616.744 29.7707 616.531 30.88 616.104C31.9893 615.656 32.896 615.027 33.6 614.216C34.304 613.384 34.7627 612.392 34.976 611.24H40.448ZM49.1153 610.472C49.1153 611.752 49.3606 612.851 49.8513 613.768C50.3419 614.685 51.0566 615.4 51.9953 615.912C52.9553 616.403 54.1073 616.648 55.4513 616.648C56.8166 616.648 57.9686 616.403 58.9073 615.912C59.8459 615.4 60.5606 614.685 61.0513 613.768C61.5419 612.851 61.7873 611.752 61.7873 610.472V597H67.2273V610.728C67.2273 612.883 66.7366 614.771 65.7553 616.392C64.7739 617.992 63.3979 619.24 61.6273 620.136C59.8566 621.032 57.7979 621.48 55.4513 621.48C53.1046 621.48 51.0459 621.032 49.2753 620.136C47.5259 619.24 46.1499 617.992 45.1473 616.392C44.1659 614.771 43.6753 612.883 43.6753 610.728V597H49.1153V610.472ZM54.2033 595.592L53.1153 593.768C54.1393 593.597 54.8646 593.395 55.2913 593.16C55.7393 592.904 55.9633 592.627 55.9633 592.328C55.9633 592.051 55.7926 591.848 55.4513 591.72C55.1099 591.592 54.6086 591.528 53.9473 591.528C53.4353 591.528 52.9659 591.56 52.5393 591.624C52.1126 591.688 51.6646 591.763 51.1953 591.848V588.968C51.6219 588.84 52.1873 588.723 52.8913 588.616C53.6166 588.509 54.3633 588.456 55.1313 588.456C56.8806 588.456 58.2139 588.712 59.1313 589.224C60.0699 589.715 60.5393 590.504 60.5393 591.592C60.5393 592.573 60.0486 593.395 59.0673 594.056C58.0859 594.717 56.4646 595.229 54.2033 595.592ZM74.3688 615.944V611.528H91.0088V615.944H74.3688ZM86.3048 597L97.5368 621H91.7448L81.9208 599.208H83.7128L73.8888 621H68.0968L79.3288 597H86.3048ZM133.104 611.24C132.87 613.267 132.155 615.059 130.96 616.616C129.787 618.152 128.23 619.347 126.288 620.2C124.368 621.053 122.171 621.48 119.696 621.48C116.966 621.48 114.566 620.957 112.496 619.912C110.448 618.867 108.848 617.416 107.696 615.56C106.544 613.683 105.968 611.496 105.968 609C105.968 606.504 106.544 604.328 107.696 602.472C108.848 600.595 110.448 599.133 112.496 598.088C114.566 597.043 116.966 596.52 119.696 596.52C122.171 596.52 124.368 596.947 126.288 597.8C128.23 598.653 129.787 599.848 130.96 601.384C132.155 602.92 132.87 604.712 133.104 606.76H127.632C127.419 605.629 126.96 604.659 126.256 603.848C125.552 603.016 124.646 602.376 123.536 601.928C122.427 601.48 121.136 601.256 119.664 601.256C117.979 601.256 116.518 601.576 115.28 602.216C114.064 602.835 113.126 603.731 112.464 604.904C111.803 606.056 111.472 607.421 111.472 609C111.472 610.579 111.803 611.955 112.464 613.128C113.126 614.28 114.064 615.176 115.28 615.816C116.518 616.435 117.979 616.744 119.664 616.744C121.136 616.744 122.427 616.531 123.536 616.104C124.646 615.656 125.552 615.027 126.256 614.216C126.96 613.384 127.419 612.392 127.632 611.24H133.104ZM136.652 597H142.092V621H136.652V597ZM155.852 597H161.292V621H155.852V597ZM139.628 606.472H158.252V611.24H139.628V606.472ZM171.334 610.472C171.334 611.752 171.579 612.851 172.07 613.768C172.561 614.685 173.275 615.4 174.214 615.912C175.174 616.403 176.326 616.648 177.67 616.648C179.035 616.648 180.187 616.403 181.126 615.912C182.065 615.4 182.779 614.685 183.27 613.768C183.761 612.851 184.006 611.752 184.006 610.472V597H189.446V610.728C189.446 612.883 188.955 614.771 187.974 616.392C186.993 617.992 185.617 619.24 183.846 620.136C182.075 621.032 180.017 621.48 177.67 621.48C175.323 621.48 173.265 621.032 171.494 620.136C169.745 619.24 168.369 617.992 167.366 616.392C166.385 614.771 165.894 612.883 165.894 610.728V597H171.334V610.472ZM178.918 589.992H185.094L179.686 595.144H174.214L178.918 589.992ZM216.298 617.416L214.41 617.704V597H219.69V621H212.81L197.45 600.296L199.306 600.008V621H194.058V597H201.098L216.298 617.416ZM248.877 610.6C248.856 612.051 248.568 613.437 248.013 614.76C247.48 616.061 246.712 617.224 245.709 618.248C244.706 619.251 243.469 620.04 241.997 620.616C240.525 621.192 238.818 621.48 236.877 621.48C235 621.48 233.24 621.203 231.597 620.648C229.976 620.072 228.546 619.251 227.309 618.184C226.093 617.117 225.144 615.816 224.461 614.28C223.778 612.723 223.437 610.963 223.437 609C223.437 607.037 223.778 605.288 224.461 603.752C225.165 602.195 226.136 600.883 227.373 599.816C228.61 598.749 230.061 597.939 231.725 597.384C233.389 596.808 235.202 596.52 237.165 596.52C239.725 596.52 241.944 596.925 243.821 597.736C245.698 598.525 247.213 599.624 248.365 601.032C249.538 602.44 250.264 604.051 250.541 605.864H245.069C244.856 604.883 244.386 604.04 243.661 603.336C242.957 602.632 242.05 602.088 240.941 601.704C239.853 601.32 238.594 601.128 237.165 601.128C235.48 601.128 234.018 601.437 232.781 602.056C231.565 602.653 230.616 603.539 229.933 604.712C229.272 605.885 228.941 607.315 228.941 609C228.941 610.685 229.293 612.125 229.997 613.32C230.701 614.515 231.704 615.432 233.005 616.072C234.306 616.691 235.842 617 237.613 617C239.341 617 240.856 616.733 242.157 616.2C243.458 615.645 244.482 614.877 245.229 613.896C245.997 612.893 246.434 611.709 246.541 610.344L248.877 610.6ZM238.349 612.808V608.872H250.797V621H246.893L246.157 611.272L247.277 612.808H238.349ZM269.925 599.432H275.333V621H269.925V599.432ZM260.357 597H284.869V601.8H260.357V597ZM299.609 621.48C296.814 621.48 294.361 620.957 292.249 619.912C290.158 618.867 288.526 617.416 287.353 615.56C286.179 613.683 285.593 611.496 285.593 609C285.593 606.504 286.179 604.328 287.353 602.472C288.526 600.595 290.158 599.133 292.249 598.088C294.361 597.043 296.814 596.52 299.609 596.52C302.403 596.52 304.846 597.043 306.937 598.088C309.049 599.133 310.691 600.595 311.865 602.472C313.038 604.328 313.625 606.504 313.625 609C313.625 611.496 313.038 613.683 311.865 615.56C310.691 617.416 309.049 618.867 306.937 619.912C304.846 620.957 302.403 621.48 299.609 621.48ZM299.609 616.648C301.358 616.648 302.862 616.339 304.121 615.72C305.401 615.101 306.382 614.216 307.065 613.064C307.769 611.912 308.121 610.557 308.121 609C308.121 607.443 307.769 606.088 307.065 604.936C306.382 603.784 305.401 602.899 304.121 602.28C302.862 601.661 301.358 601.352 299.609 601.352C297.881 601.352 296.377 601.661 295.097 602.28C293.817 602.899 292.825 603.784 292.121 604.936C291.438 606.088 291.097 607.443 291.097 609C291.097 610.557 291.438 611.912 292.121 613.064C292.825 614.216 293.817 615.101 295.097 615.72C296.377 616.339 297.881 616.648 299.609 616.648ZM296.697 589.992H302.489L307.289 595.144H302.713L298.393 591.816H300.793L296.473 595.144H291.929L296.697 589.992ZM317.37 597H322.81V621H317.37V597Z" fill="#24CBFF"/>
</svg>
