<svg width="100%" viewBox="0 0 1920 1051" fill="none" xmlns="http://www.w3.org/2000/svg">
<path d="M353.672 729.36C353.32 732.4 352.248 735.088 350.456 737.424C348.696 739.728 346.36 741.52 343.448 742.8C340.568 744.08 337.272 744.72 333.56 744.72C329.464 744.72 325.864 743.936 322.76 742.368C319.688 740.8 317.288 738.624 315.56 735.84C313.832 733.024 312.968 729.744 312.968 726C312.968 722.256 313.832 718.992 315.56 716.208C317.288 713.392 319.688 711.2 322.76 709.632C325.864 708.064 329.464 707.28 333.56 707.28C337.272 707.28 340.568 707.92 343.448 709.2C346.36 710.48 348.696 712.272 350.456 714.576C352.248 716.88 353.32 719.568 353.672 722.64H345.464C345.144 720.944 344.456 719.488 343.4 718.272C342.344 717.024 340.984 716.064 339.32 715.392C337.656 714.72 335.72 714.384 333.512 714.384C330.984 714.384 328.792 714.864 326.936 715.824C325.112 716.752 323.704 718.096 322.712 719.856C321.72 721.584 321.224 723.632 321.224 726C321.224 728.368 321.72 730.432 322.712 732.192C323.704 733.92 325.112 735.264 326.936 736.224C328.792 737.152 330.984 737.616 333.512 737.616C335.72 737.616 337.656 737.296 339.32 736.656C340.984 735.984 342.344 735.04 343.4 733.824C344.456 732.576 345.144 731.088 345.464 729.36H353.672ZM363.116 736.416V729.792H388.076V736.416H363.116ZM381.02 708L397.868 744H389.18L374.444 711.312H377.132L362.396 744H353.708L370.556 708H381.02ZM371.42 697.488H380.108L387.308 705.216H380.444L373.964 700.224H377.564L371.084 705.216H364.268L371.42 697.488ZM407.314 728.208C407.314 730.128 407.682 731.776 408.418 733.152C409.154 734.528 410.226 735.6 411.634 736.368C413.074 737.104 414.802 737.472 416.818 737.472C418.866 737.472 420.594 737.104 422.002 736.368C423.41 735.6 424.482 734.528 425.218 733.152C425.954 731.776 426.322 730.128 426.322 728.208V708H434.482V728.592C434.482 731.824 433.746 734.656 432.274 737.088C430.802 739.488 428.738 741.36 426.082 742.704C423.426 744.048 420.338 744.72 416.818 744.72C413.298 744.72 410.21 744.048 407.554 742.704C404.93 741.36 402.866 739.488 401.362 737.088C399.89 734.656 399.154 731.824 399.154 728.592V708H407.314V728.208ZM492.656 729.36C492.304 732.4 491.232 735.088 489.44 737.424C487.68 739.728 485.344 741.52 482.432 742.8C479.552 744.08 476.256 744.72 472.544 744.72C468.448 744.72 464.848 743.936 461.744 742.368C458.672 740.8 456.272 738.624 454.544 735.84C452.816 733.024 451.952 729.744 451.952 726C451.952 722.256 452.816 718.992 454.544 716.208C456.272 713.392 458.672 711.2 461.744 709.632C464.848 708.064 468.448 707.28 472.544 707.28C476.256 707.28 479.552 707.92 482.432 709.2C485.344 710.48 487.68 712.272 489.44 714.576C491.232 716.88 492.304 719.568 492.656 722.64H484.448C484.128 720.944 483.44 719.488 482.384 718.272C481.328 717.024 479.968 716.064 478.304 715.392C476.64 714.72 474.704 714.384 472.496 714.384C469.968 714.384 467.776 714.864 465.92 715.824C464.096 716.752 462.688 718.096 461.696 719.856C460.704 721.584 460.208 723.632 460.208 726C460.208 728.368 460.704 730.432 461.696 732.192C462.688 733.92 464.096 735.264 465.92 736.224C467.776 737.152 469.968 737.616 472.496 737.616C474.704 737.616 476.64 737.296 478.304 736.656C479.968 735.984 481.328 735.04 482.384 733.824C483.44 732.576 484.128 731.088 484.448 729.36H492.656ZM497.977 708H506.137V744H497.977V708ZM526.777 708H534.937V744H526.777V708ZM502.441 722.208H530.377V729.36H502.441V722.208ZM550.001 728.208C550.001 730.128 550.369 731.776 551.105 733.152C551.841 734.528 552.913 735.6 554.321 736.368C555.761 737.104 557.489 737.472 559.505 737.472C561.553 737.472 563.281 737.104 564.689 736.368C566.097 735.6 567.169 734.528 567.905 733.152C568.641 731.776 569.009 730.128 569.009 728.208V708H577.169V728.592C577.169 731.824 576.433 734.656 574.961 737.088C573.489 739.488 571.425 741.36 568.769 742.704C566.113 744.048 563.025 744.72 559.505 744.72C555.985 744.72 552.897 744.048 550.241 742.704C547.617 741.36 545.553 739.488 544.049 737.088C542.577 734.656 541.841 731.824 541.841 728.592V708H550.001V728.208ZM597.863 744V726.624H606.023V744H597.863ZM580.919 708H589.991L603.863 725.52H599.927L613.799 708H622.871L604.535 731.184L599.303 731.232L580.919 708ZM656.925 722.88V729.12H631.149V722.88H656.925ZM636.621 726L634.221 741.264L630.669 737.232H658.413V744H626.013L628.797 726L626.013 708H658.173V714.768H630.669L634.221 710.736L636.621 726ZM643.197 754.848C641.757 754.848 640.573 754.464 639.645 753.696C638.749 752.96 638.301 751.968 638.301 750.72C638.301 749.44 638.749 748.416 639.645 747.648C640.573 746.912 641.757 746.544 643.197 746.544C644.669 746.544 645.853 746.912 646.749 747.648C647.645 748.416 648.093 749.44 648.093 750.72C648.093 751.968 647.645 752.96 646.749 753.696C645.853 754.464 644.669 754.848 643.197 754.848ZM637.965 697.488H646.653L653.853 705.216H646.989L640.509 700.224H644.109L637.629 705.216H630.813L637.965 697.488ZM697.978 738.624L695.146 739.056V708H703.066V744H692.746L669.706 712.944L672.49 712.512V744H664.618V708H675.178L697.978 738.624ZM353.672 793.36C353.32 796.4 352.248 799.088 350.456 801.424C348.696 803.728 346.36 805.52 343.448 806.8C340.568 808.08 337.272 808.72 333.56 808.72C329.464 808.72 325.864 807.936 322.76 806.368C319.688 804.8 317.288 802.624 315.56 799.84C313.832 797.024 312.968 793.744 312.968 790C312.968 786.256 313.832 782.992 315.56 780.208C317.288 777.392 319.688 775.2 322.76 773.632C325.864 772.064 329.464 771.28 333.56 771.28C337.272 771.28 340.568 771.92 343.448 773.2C346.36 774.48 348.696 776.272 350.456 778.576C352.248 780.88 353.32 783.568 353.672 786.64H345.464C345.144 784.944 344.456 783.488 343.4 782.272C342.344 781.024 340.984 780.064 339.32 779.392C337.656 778.72 335.72 778.384 333.512 778.384C330.984 778.384 328.792 778.864 326.936 779.824C325.112 780.752 323.704 782.096 322.712 783.856C321.72 785.584 321.224 787.632 321.224 790C321.224 792.368 321.72 794.432 322.712 796.192C323.704 797.92 325.112 799.264 326.936 800.224C328.792 801.152 330.984 801.616 333.512 801.616C335.72 801.616 337.656 801.296 339.32 800.656C340.984 799.984 342.344 799.04 343.4 797.824C344.456 796.576 345.144 795.088 345.464 793.36H353.672ZM366.673 792.208C366.673 794.128 367.041 795.776 367.777 797.152C368.513 798.528 369.585 799.6 370.993 800.368C372.433 801.104 374.161 801.472 376.177 801.472C378.225 801.472 379.953 801.104 381.361 800.368C382.769 799.6 383.841 798.528 384.577 797.152C385.313 795.776 385.681 794.128 385.681 792.208V772H393.841V792.592C393.841 795.824 393.105 798.656 391.633 801.088C390.161 803.488 388.097 805.36 385.441 806.704C382.785 808.048 379.697 808.72 376.177 808.72C372.657 808.72 369.569 808.048 366.913 806.704C364.289 805.36 362.225 803.488 360.721 801.088C359.249 798.656 358.513 795.824 358.513 792.592V772H366.673V792.208ZM374.305 769.888L372.673 767.152C374.209 766.896 375.297 766.592 375.937 766.24C376.609 765.856 376.945 765.44 376.945 764.992C376.945 764.576 376.689 764.272 376.177 764.08C375.665 763.888 374.913 763.792 373.921 763.792C373.153 763.792 372.449 763.84 371.809 763.936C371.169 764.032 370.497 764.144 369.793 764.272V759.952C370.433 759.76 371.281 759.584 372.337 759.424C373.425 759.264 374.545 759.184 375.697 759.184C378.321 759.184 380.321 759.568 381.697 760.336C383.105 761.072 383.809 762.256 383.809 763.888C383.809 765.36 383.073 766.592 381.601 767.584C380.129 768.576 377.697 769.344 374.305 769.888ZM404.553 800.416V793.792H429.513V800.416H404.553ZM422.457 772L439.305 808H430.617L415.881 775.312H418.569L403.833 808H395.145L411.993 772H422.457ZM492.656 793.36C492.304 796.4 491.232 799.088 489.44 801.424C487.68 803.728 485.344 805.52 482.432 806.8C479.552 808.08 476.256 808.72 472.544 808.72C468.448 808.72 464.848 807.936 461.744 806.368C458.672 804.8 456.272 802.624 454.544 799.84C452.816 797.024 451.952 793.744 451.952 790C451.952 786.256 452.816 782.992 454.544 780.208C456.272 777.392 458.672 775.2 461.744 773.632C464.848 772.064 468.448 771.28 472.544 771.28C476.256 771.28 479.552 771.92 482.432 773.2C485.344 774.48 487.68 776.272 489.44 778.576C491.232 780.88 492.304 783.568 492.656 786.64H484.448C484.128 784.944 483.44 783.488 482.384 782.272C481.328 781.024 479.968 780.064 478.304 779.392C476.64 778.72 474.704 778.384 472.496 778.384C469.968 778.384 467.776 778.864 465.92 779.824C464.096 780.752 462.688 782.096 461.696 783.856C460.704 785.584 460.208 787.632 460.208 790C460.208 792.368 460.704 794.432 461.696 796.192C462.688 797.92 464.096 799.264 465.92 800.224C467.776 801.152 469.968 801.616 472.496 801.616C474.704 801.616 476.64 801.296 478.304 800.656C479.968 799.984 481.328 799.04 482.384 797.824C483.44 796.576 484.128 795.088 484.448 793.36H492.656ZM497.977 772H506.137V808H497.977V772ZM526.777 772H534.937V808H526.777V772ZM502.441 786.208H530.377V793.36H502.441V786.208ZM550.001 792.208C550.001 794.128 550.369 795.776 551.105 797.152C551.841 798.528 552.913 799.6 554.321 800.368C555.761 801.104 557.489 801.472 559.505 801.472C561.553 801.472 563.281 801.104 564.689 800.368C566.097 799.6 567.169 798.528 567.905 797.152C568.641 795.776 569.009 794.128 569.009 792.208V772H577.169V792.592C577.169 795.824 576.433 798.656 574.961 801.088C573.489 803.488 571.425 805.36 568.769 806.704C566.113 808.048 563.025 808.72 559.505 808.72C555.985 808.72 552.897 808.048 550.241 806.704C547.617 805.36 545.553 803.488 544.049 801.088C542.577 798.656 541.841 795.824 541.841 792.592V772H550.001V792.208ZM561.377 761.488H570.641L562.529 769.216H554.321L561.377 761.488ZM617.447 802.624L614.615 803.056V772H622.535V808H612.215L589.175 776.944L591.959 776.512V808H584.087V772H594.647L617.447 802.624ZM666.316 792.4C666.284 794.576 665.852 796.656 665.02 798.64C664.22 800.592 663.068 802.336 661.564 803.872C660.06 805.376 658.204 806.56 655.996 807.424C653.788 808.288 651.228 808.72 648.316 808.72C645.5 808.72 642.86 808.304 640.396 807.472C637.964 806.608 635.82 805.376 633.964 803.776C632.14 802.176 630.716 800.224 629.692 797.92C628.668 795.584 628.156 792.944 628.156 790C628.156 787.056 628.668 784.432 629.692 782.128C630.748 779.792 632.204 777.824 634.06 776.224C635.916 774.624 638.092 773.408 640.588 772.576C643.084 771.712 645.804 771.28 648.748 771.28C652.588 771.28 655.916 771.888 658.732 773.104C661.548 774.288 663.82 775.936 665.548 778.048C667.308 780.16 668.396 782.576 668.812 785.296H660.604C660.284 783.824 659.58 782.56 658.492 781.504C657.436 780.448 656.076 779.632 654.411 779.056C652.78 778.48 650.892 778.192 648.748 778.192C646.22 778.192 644.028 778.656 642.172 779.584C640.348 780.48 638.924 781.808 637.9 783.568C636.908 785.328 636.412 787.472 636.412 790C636.412 792.528 636.94 794.688 637.996 796.48C639.052 798.272 640.556 799.648 642.508 800.608C644.46 801.536 646.764 802 649.42 802C652.012 802 654.284 801.6 656.236 800.8C658.188 799.968 659.724 798.816 660.844 797.344C661.996 795.84 662.652 794.064 662.812 792.016L666.316 792.4ZM650.524 795.712V789.808H669.196V808H663.34L662.236 793.408L663.916 795.712H650.524ZM697.887 775.648H705.999V808H697.887V775.648ZM683.535 772H720.303V779.2H683.535V772ZM742.413 808.72C738.221 808.72 734.541 807.936 731.373 806.368C728.237 804.8 725.789 802.624 724.029 799.84C722.269 797.024 721.389 793.744 721.389 790C721.389 786.256 722.269 782.992 724.029 780.208C725.789 777.392 728.237 775.2 731.373 773.632C734.541 772.064 738.221 771.28 742.413 771.28C746.605 771.28 750.269 772.064 753.405 773.632C756.573 775.2 759.037 777.392 760.797 780.208C762.557 782.992 763.437 786.256 763.437 790C763.437 793.744 762.557 797.024 760.797 799.84C759.037 802.624 756.573 804.8 753.405 806.368C750.269 807.936 746.605 808.72 742.413 808.72ZM742.413 801.472C745.037 801.472 747.293 801.008 749.181 800.08C751.101 799.152 752.573 797.824 753.597 796.096C754.653 794.368 755.181 792.336 755.181 790C755.181 787.664 754.653 785.632 753.597 783.904C752.573 782.176 751.101 780.848 749.181 779.92C747.293 778.992 745.037 778.528 742.413 778.528C739.821 778.528 737.565 778.992 735.645 779.92C733.725 780.848 732.237 782.176 731.181 783.904C730.157 785.632 729.645 787.664 729.645 790C729.645 792.336 730.157 794.368 731.181 796.096C732.237 797.824 733.725 799.152 735.645 800.08C737.565 801.008 739.821 801.472 742.413 801.472ZM738.045 761.488H746.733L753.933 769.216H747.069L740.589 764.224H744.189L737.709 769.216H730.893L738.045 761.488ZM769.055 772H777.215V808H769.055V772Z" fill="#24CBFF"/>
</svg>
