<svg width="100%" viewBox="0 0 1296 106" fill="none" xmlns="http://www.w3.org/2000/svg">
<mask id="path-1-inside-1_50_1934" fill="white">
<path d="M0 0H1296V106H0V0Z"/>
</mask>
<path d="M0 0H1296V106H0V0Z" fill="#4986E8" fill-opacity="0.2"/>
<path d="M0 3H1296V-3H0V3Z" fill="#4986E8" mask="url(#path-1-inside-1_50_1934)"/>
<path d="M224.13 29.5455V47H222.016V29.5455H224.13ZM228.095 47V33.9091H230.038V35.9545H230.208C230.481 35.2557 230.922 34.7131 231.529 34.3267C232.137 33.9347 232.868 33.7386 233.72 33.7386C234.583 33.7386 235.302 33.9347 235.876 34.3267C236.456 34.7131 236.907 35.2557 237.231 35.9545H237.368C237.703 35.2784 238.206 34.7415 238.876 34.3438C239.547 33.9403 240.35 33.7386 241.288 33.7386C242.458 33.7386 243.416 34.1051 244.16 34.8381C244.904 35.5653 245.277 36.6989 245.277 38.2386V47H243.265V38.2386C243.265 37.2727 243.001 36.5824 242.473 36.1676C241.944 35.7528 241.322 35.5455 240.606 35.5455C239.686 35.5455 238.973 35.8239 238.467 36.3807C237.961 36.9318 237.708 37.6307 237.708 38.4773V47H235.663V38.0341C235.663 37.2898 235.422 36.6903 234.939 36.2358C234.456 35.7756 233.833 35.5455 233.072 35.5455C232.549 35.5455 232.061 35.6847 231.606 35.9631C231.157 36.2415 230.794 36.6278 230.515 37.1222C230.243 37.6108 230.106 38.1761 230.106 38.8182V47H228.095ZM254.443 47.2727C253.181 47.2727 252.093 46.9943 251.179 46.4375C250.27 45.875 249.568 45.0909 249.074 44.0852C248.585 43.0739 248.341 41.8977 248.341 40.5568C248.341 39.2159 248.585 38.0341 249.074 37.0114C249.568 35.983 250.255 35.1818 251.136 34.608C252.022 34.0284 253.056 33.7386 254.238 33.7386C254.92 33.7386 255.593 33.8523 256.258 34.0795C256.923 34.3068 257.528 34.6761 258.074 35.1875C258.619 35.6932 259.054 36.3636 259.377 37.1989C259.701 38.0341 259.863 39.0625 259.863 40.2841V41.1364H249.772V39.3977H257.818C257.818 38.6591 257.67 38 257.375 37.4205C257.085 36.8409 256.67 36.3835 256.13 36.0483C255.596 35.7131 254.966 35.5455 254.238 35.5455C253.437 35.5455 252.744 35.7443 252.159 36.142C251.579 36.5341 251.133 37.0455 250.821 37.6761C250.508 38.3068 250.352 38.983 250.352 39.7045V40.8636C250.352 41.8523 250.522 42.6903 250.863 43.3778C251.21 44.0597 251.69 44.5795 252.304 44.9375C252.917 45.2898 253.63 45.4659 254.443 45.4659C254.971 45.4659 255.449 45.392 255.875 45.2443C256.306 45.0909 256.679 44.8636 256.991 44.5625C257.304 44.2557 257.545 43.875 257.716 43.4205L259.659 43.9659C259.454 44.625 259.11 45.2045 258.627 45.7045C258.145 46.1989 257.548 46.5852 256.838 46.8636C256.127 47.1364 255.329 47.2727 254.443 47.2727ZM264.071 33.9091L267.208 39.2614L270.344 33.9091H272.662L268.435 40.4545L272.662 47H270.344L267.208 41.9205L264.071 47H261.753L265.912 40.4545L261.753 33.9091H264.071ZM275.532 51.9091V33.9091H277.475V35.9886H277.714C277.862 35.7614 278.066 35.4716 278.328 35.1193C278.595 34.7614 278.975 34.4432 279.47 34.1648C279.97 33.8807 280.646 33.7386 281.498 33.7386C282.6 33.7386 283.572 34.0142 284.413 34.5653C285.254 35.1165 285.91 35.8977 286.382 36.9091C286.853 37.9205 287.089 39.1136 287.089 40.4886C287.089 41.875 286.853 43.0767 286.382 44.0938C285.91 45.1051 285.257 45.8892 284.422 46.446C283.586 46.9972 282.623 47.2727 281.532 47.2727C280.691 47.2727 280.018 47.1335 279.512 46.8551C279.007 46.571 278.618 46.25 278.345 45.892C278.072 45.5284 277.862 45.2273 277.714 44.9886H277.544V51.9091H275.532ZM277.51 40.4545C277.51 41.4432 277.654 42.3153 277.944 43.071C278.234 43.821 278.657 44.4091 279.214 44.8352C279.771 45.2557 280.453 45.4659 281.26 45.4659C282.1 45.4659 282.802 45.2443 283.365 44.8011C283.933 44.3523 284.359 43.75 284.643 42.9943C284.933 42.233 285.078 41.3864 285.078 40.4545C285.078 39.5341 284.936 38.7045 284.652 37.9659C284.373 37.2216 283.95 36.6335 283.382 36.2017C282.819 35.7642 282.112 35.5455 281.26 35.5455C280.441 35.5455 279.754 35.7528 279.197 36.1676C278.64 36.5767 278.22 37.1506 277.936 37.8892C277.652 38.6222 277.51 39.4773 277.51 40.4545ZM292.169 39.125V47H290.157V29.5455H292.169V35.9545H292.339C292.646 35.2784 293.106 34.7415 293.72 34.3438C294.339 33.9403 295.163 33.7386 296.191 33.7386C297.083 33.7386 297.865 33.9176 298.535 34.2756C299.206 34.6278 299.725 35.1705 300.095 35.9034C300.47 36.6307 300.657 37.5568 300.657 38.6818V47H298.646V38.8182C298.646 37.7784 298.376 36.9744 297.836 36.4062C297.302 35.8324 296.561 35.5455 295.612 35.5455C294.953 35.5455 294.362 35.6847 293.839 35.9631C293.322 36.2415 292.913 36.6477 292.612 37.1818C292.316 37.7159 292.169 38.3636 292.169 39.125ZM308.189 47.3068C307.36 47.3068 306.607 47.1506 305.931 46.8381C305.255 46.5199 304.718 46.0625 304.32 45.4659C303.922 44.8636 303.723 44.1364 303.723 43.2841C303.723 42.5341 303.871 41.9261 304.167 41.4602C304.462 40.9886 304.857 40.6193 305.351 40.3523C305.846 40.0852 306.391 39.8864 306.988 39.7557C307.59 39.6193 308.195 39.5114 308.803 39.4318C309.598 39.3295 310.243 39.2528 310.738 39.2017C311.238 39.1449 311.601 39.0511 311.828 38.9205C312.061 38.7898 312.178 38.5625 312.178 38.2386V38.1705C312.178 37.3295 311.948 36.6761 311.488 36.2102C311.033 35.7443 310.343 35.5114 309.417 35.5114C308.456 35.5114 307.703 35.7216 307.158 36.142C306.613 36.5625 306.229 37.0114 306.007 37.4886L304.098 36.8068C304.439 36.0114 304.894 35.392 305.462 34.9489C306.036 34.5 306.661 34.1875 307.337 34.0114C308.019 33.8295 308.689 33.7386 309.348 33.7386C309.769 33.7386 310.252 33.7898 310.797 33.892C311.348 33.9886 311.88 34.1903 312.391 34.4972C312.908 34.804 313.337 35.267 313.678 35.8864C314.019 36.5057 314.189 37.3352 314.189 38.375V47H312.178V45.2273H312.076C311.939 45.5114 311.712 45.8153 311.394 46.1392C311.076 46.4631 310.652 46.7386 310.124 46.9659C309.596 47.1932 308.951 47.3068 308.189 47.3068ZM308.496 45.5C309.292 45.5 309.962 45.3438 310.507 45.0312C311.059 44.7188 311.473 44.3153 311.752 43.821C312.036 43.3267 312.178 42.8068 312.178 42.2614V40.4205C312.093 40.5227 311.905 40.6165 311.615 40.7017C311.331 40.7812 311.002 40.8523 310.627 40.9148C310.257 40.9716 309.897 41.0227 309.544 41.0682C309.198 41.108 308.917 41.142 308.701 41.1705C308.178 41.2386 307.689 41.3494 307.235 41.5028C306.786 41.6506 306.422 41.875 306.144 42.1761C305.871 42.4716 305.735 42.875 305.735 43.3864C305.735 44.0852 305.993 44.6136 306.51 44.9716C307.033 45.3239 307.695 45.5 308.496 45.5ZM317.86 47V33.9091H319.804V35.8864H319.94C320.179 35.2386 320.61 34.7131 321.235 34.3097C321.86 33.9062 322.565 33.7045 323.349 33.7045C323.497 33.7045 323.681 33.7074 323.903 33.7131C324.125 33.7187 324.292 33.7273 324.406 33.7386V35.7841C324.338 35.767 324.181 35.7415 323.937 35.7074C323.699 35.6676 323.446 35.6477 323.179 35.6477C322.542 35.6477 321.974 35.7812 321.474 36.0483C320.98 36.3097 320.588 36.6733 320.298 37.1392C320.014 37.5994 319.872 38.125 319.872 38.7159V47H317.86ZM326.79 47V33.9091H328.733V35.9545H328.904C329.176 35.2557 329.617 34.7131 330.225 34.3267C330.833 33.9347 331.563 33.7386 332.415 33.7386C333.279 33.7386 333.998 33.9347 334.571 34.3267C335.151 34.7131 335.603 35.2557 335.926 35.9545H336.063C336.398 35.2784 336.901 34.7415 337.571 34.3438C338.242 33.9403 339.046 33.7386 339.983 33.7386C341.154 33.7386 342.111 34.1051 342.855 34.8381C343.6 35.5653 343.972 36.6989 343.972 38.2386V47H341.961V38.2386C341.961 37.2727 341.696 36.5824 341.168 36.1676C340.64 35.7528 340.017 35.5455 339.301 35.5455C338.381 35.5455 337.668 35.8239 337.162 36.3807C336.657 36.9318 336.404 37.6307 336.404 38.4773V47H334.358V38.0341C334.358 37.2898 334.117 36.6903 333.634 36.2358C333.151 35.7756 332.529 35.5455 331.767 35.5455C331.245 35.5455 330.756 35.6847 330.301 35.9631C329.853 36.2415 329.489 36.6278 329.211 37.1222C328.938 37.6108 328.801 38.1761 328.801 38.8182V47H326.79ZM359.343 47.2727C358.252 47.2727 357.289 46.9972 356.453 46.446C355.618 45.8892 354.965 45.1051 354.493 44.0938C354.022 43.0767 353.786 41.875 353.786 40.4886C353.786 39.1136 354.022 37.9205 354.493 36.9091C354.965 35.8977 355.621 35.1165 356.462 34.5653C357.303 34.0142 358.275 33.7386 359.377 33.7386C360.229 33.7386 360.902 33.8807 361.397 34.1648C361.897 34.4432 362.277 34.7614 362.539 35.1193C362.806 35.4716 363.013 35.7614 363.161 35.9886H363.331V29.5455H365.343V47H363.4V44.9886H363.161C363.013 45.2273 362.803 45.5284 362.53 45.892C362.257 46.25 361.868 46.571 361.363 46.8551C360.857 47.1335 360.184 47.2727 359.343 47.2727ZM359.615 45.4659C360.422 45.4659 361.104 45.2557 361.661 44.8352C362.218 44.4091 362.641 43.821 362.931 43.071C363.221 42.3153 363.365 41.4432 363.365 40.4545C363.365 39.4773 363.223 38.6222 362.939 37.8892C362.655 37.1506 362.235 36.5767 361.678 36.1676C361.121 35.7528 360.434 35.5455 359.615 35.5455C358.763 35.5455 358.053 35.7642 357.485 36.2017C356.922 36.6335 356.499 37.2216 356.215 37.9659C355.936 38.7045 355.797 39.5341 355.797 40.4545C355.797 41.3864 355.939 42.233 356.223 42.9943C356.513 43.75 356.939 44.3523 357.502 44.8011C358.07 45.2443 358.775 45.4659 359.615 45.4659ZM373.158 47.3068C372.328 47.3068 371.576 47.1506 370.9 46.8381C370.223 46.5199 369.686 46.0625 369.289 45.4659C368.891 44.8636 368.692 44.1364 368.692 43.2841C368.692 42.5341 368.84 41.9261 369.135 41.4602C369.431 40.9886 369.826 40.6193 370.32 40.3523C370.814 40.0852 371.36 39.8864 371.956 39.7557C372.559 39.6193 373.164 39.5114 373.772 39.4318C374.567 39.3295 375.212 39.2528 375.706 39.2017C376.206 39.1449 376.57 39.0511 376.797 38.9205C377.03 38.7898 377.147 38.5625 377.147 38.2386V38.1705C377.147 37.3295 376.917 36.6761 376.456 36.2102C376.002 35.7443 375.311 35.5114 374.385 35.5114C373.425 35.5114 372.672 35.7216 372.127 36.142C371.581 36.5625 371.198 37.0114 370.976 37.4886L369.067 36.8068C369.408 36.0114 369.863 35.392 370.431 34.9489C371.005 34.5 371.63 34.1875 372.306 34.0114C372.988 33.8295 373.658 33.7386 374.317 33.7386C374.738 33.7386 375.221 33.7898 375.766 33.892C376.317 33.9886 376.848 34.1903 377.36 34.4972C377.877 34.804 378.306 35.267 378.647 35.8864C378.988 36.5057 379.158 37.3352 379.158 38.375V47H377.147V45.2273H377.044C376.908 45.5114 376.681 45.8153 376.363 46.1392C376.044 46.4631 375.621 46.7386 375.093 46.9659C374.564 47.1932 373.919 47.3068 373.158 47.3068ZM373.465 45.5C374.26 45.5 374.931 45.3438 375.476 45.0312C376.027 44.7188 376.442 44.3153 376.721 43.821C377.005 43.3267 377.147 42.8068 377.147 42.2614V40.4205C377.061 40.5227 376.874 40.6165 376.584 40.7017C376.3 40.7812 375.971 40.8523 375.596 40.9148C375.226 40.9716 374.865 41.0227 374.513 41.0682C374.167 41.108 373.885 41.142 373.669 41.1705C373.147 41.2386 372.658 41.3494 372.203 41.5028C371.755 41.6506 371.391 41.875 371.113 42.1761C370.84 42.4716 370.703 42.875 370.703 43.3864C370.703 44.0852 370.962 44.6136 371.479 44.9716C372.002 45.3239 372.664 45.5 373.465 45.5ZM375.238 29.8864L378.817 32.75H376.703L374.419 30.9432L372.135 32.75H370.022L373.601 29.8864H375.238ZM376.533 26.8864L377.488 27.1591C377.488 27.6193 377.3 28.0426 376.925 28.429C376.55 28.8097 376.09 29 375.544 29C375.255 29 375.01 28.9602 374.811 28.8807C374.613 28.7955 374.434 28.6989 374.275 28.5909C374.121 28.483 373.959 28.3892 373.789 28.3097C373.624 28.2244 373.425 28.1818 373.192 28.1818C372.953 28.1818 372.729 28.2727 372.519 28.4545C372.309 28.6364 372.203 28.8295 372.203 29.0341L371.283 28.7955C371.283 28.3352 371.465 27.9091 371.828 27.517C372.192 27.1193 372.647 26.9205 373.192 26.9205C373.431 26.9205 373.647 26.9602 373.84 27.0398C374.033 27.1193 374.218 27.2102 374.394 27.3125C374.57 27.4148 374.749 27.5057 374.931 27.5852C375.118 27.6648 375.323 27.7045 375.544 27.7045C375.783 27.7045 376.007 27.6193 376.218 27.4489C376.428 27.2784 376.533 27.0909 376.533 26.8864ZM384.841 39.125V47H382.829V33.9091H384.772V35.9545H384.943C385.25 35.2898 385.716 34.7557 386.341 34.3523C386.966 33.9432 387.772 33.7386 388.761 33.7386C389.647 33.7386 390.423 33.9205 391.088 34.2841C391.752 34.642 392.27 35.1875 392.639 35.9205C393.008 36.6477 393.193 37.5682 393.193 38.6818V47H391.181V38.8182C391.181 37.7898 390.914 36.9886 390.38 36.4148C389.846 35.8352 389.113 35.5455 388.181 35.5455C387.539 35.5455 386.966 35.6847 386.46 35.9631C385.96 36.2415 385.565 36.6477 385.275 37.1818C384.985 37.7159 384.841 38.3636 384.841 39.125ZM408.561 47.2727C407.471 47.2727 406.507 46.9972 405.672 46.446C404.837 45.8892 404.184 45.1051 403.712 44.0938C403.24 43.0767 403.005 41.875 403.005 40.4886C403.005 39.1136 403.24 37.9205 403.712 36.9091C404.184 35.8977 404.84 35.1165 405.681 34.5653C406.522 34.0142 407.493 33.7386 408.596 33.7386C409.448 33.7386 410.121 33.8807 410.615 34.1648C411.115 34.4432 411.496 34.7614 411.757 35.1193C412.025 35.4716 412.232 35.7614 412.38 35.9886H412.55V29.5455H414.561V47H412.618V44.9886H412.38C412.232 45.2273 412.022 45.5284 411.749 45.892C411.476 46.25 411.087 46.571 410.581 46.8551C410.076 47.1335 409.402 47.2727 408.561 47.2727ZM408.834 45.4659C409.641 45.4659 410.323 45.2557 410.88 44.8352C411.436 44.4091 411.86 43.821 412.15 43.071C412.439 42.3153 412.584 41.4432 412.584 40.4545C412.584 39.4773 412.442 38.6222 412.158 37.8892C411.874 37.1506 411.453 36.5767 410.897 36.1676C410.34 35.7528 409.652 35.5455 408.834 35.5455C407.982 35.5455 407.272 35.7642 406.703 36.2017C406.141 36.6335 405.718 37.2216 405.434 37.9659C405.155 38.7045 405.016 39.5341 405.016 40.4545C405.016 41.3864 405.158 42.233 405.442 42.9943C405.732 43.75 406.158 44.3523 406.721 44.8011C407.289 45.2443 407.993 45.4659 408.834 45.4659ZM408.936 32.7841V31.2159H416.436V32.7841H408.936ZM422.377 47.3068C421.547 47.3068 420.794 47.1506 420.118 46.8381C419.442 46.5199 418.905 46.0625 418.507 45.4659C418.11 44.8636 417.911 44.1364 417.911 43.2841C417.911 42.5341 418.059 41.9261 418.354 41.4602C418.65 40.9886 419.044 40.6193 419.539 40.3523C420.033 40.0852 420.578 39.8864 421.175 39.7557C421.777 39.6193 422.382 39.5114 422.99 39.4318C423.786 39.3295 424.431 39.2528 424.925 39.2017C425.425 39.1449 425.789 39.0511 426.016 38.9205C426.249 38.7898 426.365 38.5625 426.365 38.2386V38.1705C426.365 37.3295 426.135 36.6761 425.675 36.2102C425.221 35.7443 424.53 35.5114 423.604 35.5114C422.644 35.5114 421.891 35.7216 421.346 36.142C420.8 36.5625 420.417 37.0114 420.195 37.4886L418.286 36.8068C418.627 36.0114 419.081 35.392 419.65 34.9489C420.223 34.5 420.848 34.1875 421.525 34.0114C422.206 33.8295 422.877 33.7386 423.536 33.7386C423.956 33.7386 424.439 33.7898 424.985 33.892C425.536 33.9886 426.067 34.1903 426.578 34.4972C427.096 34.804 427.525 35.267 427.865 35.8864C428.206 36.5057 428.377 37.3352 428.377 38.375V47H426.365V45.2273H426.263C426.127 45.5114 425.9 45.8153 425.581 46.1392C425.263 46.4631 424.84 46.7386 424.311 46.9659C423.783 47.1932 423.138 47.3068 422.377 47.3068ZM422.684 45.5C423.479 45.5 424.15 45.3438 424.695 45.0312C425.246 44.7188 425.661 44.3153 425.939 43.821C426.223 43.3267 426.365 42.8068 426.365 42.2614V40.4205C426.28 40.5227 426.093 40.6165 425.803 40.7017C425.519 40.7812 425.189 40.8523 424.814 40.9148C424.445 40.9716 424.084 41.0227 423.732 41.0682C423.385 41.108 423.104 41.142 422.888 41.1705C422.365 41.2386 421.877 41.3494 421.422 41.5028C420.973 41.6506 420.61 41.875 420.331 42.1761C420.059 42.4716 419.922 42.875 419.922 43.3864C419.922 44.0852 420.181 44.6136 420.698 44.9716C421.221 45.3239 421.882 45.5 422.684 45.5ZM424.593 29.2045L428.07 32.3068H425.615L423.672 30.5L421.729 32.3068H419.275L422.718 29.2045H424.593ZM418.525 27.125L420.161 30.2273H418.422L416.002 27.125H418.525ZM440.298 41.6477V33.9091H442.309V47H440.298V44.7841H440.162C439.855 45.4489 439.377 46.0142 438.73 46.4801C438.082 46.9403 437.264 47.1705 436.275 47.1705C435.457 47.1705 434.73 46.9915 434.093 46.6335C433.457 46.2699 432.957 45.7244 432.593 44.9972C432.23 44.2642 432.048 43.3409 432.048 42.2273V33.9091H434.059V42.0909C434.059 43.0455 434.326 43.8068 434.86 44.375C435.4 44.9432 436.088 45.2273 436.923 45.2273C437.423 45.2273 437.931 45.0994 438.449 44.8438C438.971 44.5881 439.409 44.196 439.761 43.6676C440.119 43.1392 440.298 42.4659 440.298 41.6477ZM458.436 33.9091V35.6136H451.652V33.9091H458.436ZM453.63 30.7727H455.641V43.25C455.641 43.8182 455.723 44.2443 455.888 44.5284C456.059 44.8068 456.275 44.9943 456.536 45.0909C456.803 45.1818 457.084 45.2273 457.38 45.2273C457.601 45.2273 457.783 45.2159 457.925 45.1932C458.067 45.1648 458.181 45.142 458.266 45.125L458.675 46.9318C458.539 46.983 458.348 47.0341 458.104 47.0852C457.86 47.142 457.55 47.1705 457.175 47.1705C456.607 47.1705 456.05 47.0483 455.505 46.804C454.965 46.5597 454.516 46.1875 454.158 45.6875C453.806 45.1875 453.63 44.5568 453.63 43.7955V30.7727ZM463.755 39.125V47H461.743V29.5455H463.755V35.9545H463.925C464.232 35.2784 464.692 34.7415 465.306 34.3438C465.925 33.9403 466.749 33.7386 467.777 33.7386C468.669 33.7386 469.451 33.9176 470.121 34.2756C470.792 34.6278 471.311 35.1705 471.681 35.9034C472.056 36.6307 472.243 37.5568 472.243 38.6818V47H470.232V38.8182C470.232 37.7784 469.962 36.9744 469.422 36.4062C468.888 35.8324 468.147 35.5455 467.198 35.5455C466.539 35.5455 465.948 35.6847 465.425 35.9631C464.908 36.2415 464.499 36.6477 464.198 37.1818C463.902 37.7159 463.755 38.3636 463.755 39.125ZM475.923 47V33.9091H477.934V47H475.923ZM476.946 31.7273C476.554 31.7273 476.216 31.5938 475.931 31.3267C475.653 31.0597 475.514 30.7386 475.514 30.3636C475.514 29.9886 475.653 29.6676 475.931 29.4006C476.216 29.1335 476.554 29 476.946 29C477.338 29 477.673 29.1335 477.951 29.4006C478.235 29.6676 478.377 29.9886 478.377 30.3636C478.377 30.7386 478.235 31.0597 477.951 31.3267C477.673 31.5938 477.338 31.7273 476.946 31.7273ZM476.946 51.3295C476.554 51.3295 476.216 51.196 475.931 50.929C475.653 50.6619 475.514 50.3409 475.514 49.9659C475.514 49.5909 475.653 49.2699 475.931 49.0028C476.216 48.7358 476.554 48.6023 476.946 48.6023C477.338 48.6023 477.673 48.7358 477.951 49.0028C478.235 49.2699 478.377 49.5909 478.377 49.9659C478.377 50.3409 478.235 50.6619 477.951 50.929C477.673 51.196 477.338 51.3295 476.946 51.3295ZM494.061 33.9091V35.6136H487.277V33.9091H494.061ZM489.255 30.7727H491.266V43.25C491.266 43.8182 491.348 44.2443 491.513 44.5284C491.684 44.8068 491.9 44.9943 492.161 45.0909C492.428 45.1818 492.709 45.2273 493.005 45.2273C493.226 45.2273 493.408 45.2159 493.55 45.1932C493.692 45.1648 493.806 45.142 493.891 45.125L494.3 46.9318C494.164 46.983 493.973 47.0341 493.729 47.0852C493.485 47.142 493.175 47.1705 492.8 47.1705C492.232 47.1705 491.675 47.0483 491.13 46.804C490.59 46.5597 490.141 46.1875 489.783 45.6875C489.431 45.1875 489.255 44.5568 489.255 43.7955V30.7727ZM497.087 47V33.9091H499.03V35.8864H499.167C499.405 35.2386 499.837 34.7131 500.462 34.3097C501.087 33.9062 501.792 33.7045 502.576 33.7045C502.723 33.7045 502.908 33.7074 503.13 33.7131C503.351 33.7187 503.519 33.7273 503.632 33.7386V35.7841C503.564 35.767 503.408 35.7415 503.164 35.7074C502.925 35.6676 502.672 35.6477 502.405 35.6477C501.769 35.6477 501.201 35.7812 500.701 36.0483C500.206 36.3097 499.814 36.6733 499.525 37.1392C499.24 37.5994 499.098 38.125 499.098 38.7159V47H497.087ZM517.812 33.3295H519.585C519.585 34.1932 519.471 34.9176 519.244 35.5028C519.017 36.0824 518.619 36.5199 518.051 36.8153C517.483 37.1051 516.687 37.25 515.664 37.25V35.8523C516.369 35.8523 516.869 35.767 517.164 35.5966C517.466 35.4205 517.647 35.1477 517.71 34.7784C517.778 34.4034 517.812 33.9205 517.812 33.3295ZM514.267 41.6477V33.9091H516.278V47H514.267V44.7841H514.13C513.824 45.4489 513.346 46.0142 512.699 46.4801C512.051 46.9403 511.233 47.1705 510.244 47.1705C509.426 47.1705 508.699 46.9915 508.062 46.6335C507.426 46.2699 506.926 45.7244 506.562 44.9972C506.199 44.2642 506.017 43.3409 506.017 42.2273V33.9091H508.028V42.0909C508.028 43.0455 508.295 43.8068 508.829 44.375C509.369 44.9432 510.056 45.2273 510.892 45.2273C511.392 45.2273 511.9 45.0994 512.417 44.8438C512.94 44.5881 513.377 44.196 513.73 43.6676C514.088 43.1392 514.267 42.4659 514.267 41.6477ZM531.583 32.9205H533.458C533.458 34.2159 533.174 35.2443 532.605 36.0057C532.043 36.767 531.054 37.1477 529.64 37.1477V35.7159C530.208 35.7159 530.628 35.5994 530.901 35.3665C531.179 35.1335 531.361 34.8068 531.446 34.3864C531.537 33.9659 531.583 33.4773 531.583 32.9205ZM526.265 47.2727C525.083 47.2727 524.046 46.9915 523.154 46.429C522.267 45.8665 521.574 45.0795 521.074 44.0682C520.58 43.0568 520.333 41.875 520.333 40.5227C520.333 39.1591 520.58 37.9687 521.074 36.9517C521.574 35.9347 522.267 35.1449 523.154 34.5824C524.046 34.0199 525.083 33.7386 526.265 33.7386C527.446 33.7386 528.48 34.0199 529.367 34.5824C530.259 35.1449 530.952 35.9347 531.446 36.9517C531.946 37.9687 532.196 39.1591 532.196 40.5227C532.196 41.875 531.946 43.0568 531.446 44.0682C530.952 45.0795 530.259 45.8665 529.367 46.429C528.48 46.9915 527.446 47.2727 526.265 47.2727ZM526.265 45.4659C527.162 45.4659 527.901 45.2358 528.48 44.7756C529.06 44.3153 529.489 43.7102 529.767 42.9602C530.046 42.2102 530.185 41.3977 530.185 40.5227C530.185 39.6477 530.046 38.8324 529.767 38.0767C529.489 37.321 529.06 36.7102 528.48 36.2443C527.901 35.7784 527.162 35.5455 526.265 35.5455C525.367 35.5455 524.628 35.7784 524.049 36.2443C523.469 36.7102 523.04 37.321 522.762 38.0767C522.483 38.8324 522.344 39.6477 522.344 40.5227C522.344 41.3977 522.483 42.2102 522.762 42.9602C523.04 43.7102 523.469 44.3153 524.049 44.7756C524.628 45.2358 525.367 45.4659 526.265 45.4659ZM525.412 32.1364L522.753 28.1818H525.105L527.185 32.1364H525.412ZM537.301 39.125V47H535.29V33.9091H537.233V35.9545H537.404C537.711 35.2898 538.176 34.7557 538.801 34.3523C539.426 33.9432 540.233 33.7386 541.222 33.7386C542.108 33.7386 542.884 33.9205 543.549 34.2841C544.213 34.642 544.73 35.1875 545.1 35.9205C545.469 36.6477 545.654 37.5682 545.654 38.6818V47H543.642V38.8182C543.642 37.7898 543.375 36.9886 542.841 36.4148C542.307 35.8352 541.574 35.5455 540.642 35.5455C540 35.5455 539.426 35.6847 538.921 35.9631C538.421 36.2415 538.026 36.6477 537.736 37.1818C537.446 37.7159 537.301 38.3636 537.301 39.125ZM554.613 52.1818C553.642 52.1818 552.806 52.0568 552.108 51.8068C551.409 51.5625 550.826 51.2386 550.36 50.8352C549.9 50.4375 549.534 50.0114 549.261 49.5568L550.863 48.4318C551.045 48.6705 551.275 48.9432 551.554 49.25C551.832 49.5625 552.213 49.8324 552.696 50.0597C553.184 50.2926 553.824 50.4091 554.613 50.4091C555.67 50.4091 556.542 50.1534 557.23 49.642C557.917 49.1307 558.261 48.3295 558.261 47.2386V44.5795H558.091C557.943 44.8182 557.733 45.1136 557.46 45.4659C557.193 45.8125 556.806 46.1222 556.301 46.3949C555.801 46.6619 555.125 46.7955 554.272 46.7955C553.216 46.7955 552.267 46.5455 551.426 46.0455C550.591 45.5455 549.929 44.8182 549.44 43.8636C548.957 42.9091 548.716 41.75 548.716 40.3864C548.716 39.0455 548.951 37.8778 549.423 36.8835C549.895 35.8835 550.551 35.1108 551.392 34.5653C552.233 34.0142 553.204 33.7386 554.306 33.7386C555.159 33.7386 555.835 33.8807 556.335 34.1648C556.841 34.4432 557.227 34.7614 557.494 35.1193C557.767 35.4716 557.977 35.7614 558.125 35.9886H558.329V33.9091H560.272V47.375C560.272 48.5 560.017 49.4148 559.505 50.1193C559 50.8295 558.318 51.3494 557.46 51.679C556.608 52.0142 555.659 52.1818 554.613 52.1818ZM554.545 44.9886C555.352 44.9886 556.034 44.804 556.591 44.4347C557.147 44.0653 557.571 43.5341 557.86 42.8409C558.15 42.1477 558.295 41.3182 558.295 40.3523C558.295 39.4091 558.153 38.5767 557.869 37.8551C557.585 37.1335 557.164 36.5682 556.608 36.1591C556.051 35.75 555.363 35.5455 554.545 35.5455C553.693 35.5455 552.983 35.7614 552.414 36.1932C551.852 36.625 551.429 37.2045 551.145 37.9318C550.866 38.6591 550.727 39.4659 550.727 40.3523C550.727 41.2614 550.869 42.0653 551.153 42.7642C551.443 43.4574 551.869 44.0028 552.431 44.4006C553 44.7926 553.704 44.9886 554.545 44.9886ZM581.409 33.9091L576.568 47H574.522L569.681 33.9091H571.863L575.477 44.3409H575.613L579.227 33.9091H581.409ZM594.231 32.9205H596.106C596.106 34.2159 595.822 35.2443 595.254 36.0057C594.691 36.767 593.703 37.1477 592.288 37.1477V35.7159C592.856 35.7159 593.277 35.5994 593.549 35.3665C593.828 35.1335 594.01 34.8068 594.095 34.3864C594.186 33.9659 594.231 33.4773 594.231 32.9205ZM588.913 47.2727C587.731 47.2727 586.694 46.9915 585.802 46.429C584.916 45.8665 584.223 45.0795 583.723 44.0682C583.228 43.0568 582.981 41.875 582.981 40.5227C582.981 39.1591 583.228 37.9687 583.723 36.9517C584.223 35.9347 584.916 35.1449 585.802 34.5824C586.694 34.0199 587.731 33.7386 588.913 33.7386C590.095 33.7386 591.129 34.0199 592.015 34.5824C592.907 35.1449 593.6 35.9347 594.095 36.9517C594.595 37.9687 594.845 39.1591 594.845 40.5227C594.845 41.875 594.595 43.0568 594.095 44.0682C593.6 45.0795 592.907 45.8665 592.015 46.429C591.129 46.9915 590.095 47.2727 588.913 47.2727ZM588.913 45.4659C589.811 45.4659 590.549 45.2358 591.129 44.7756C591.708 44.3153 592.137 43.7102 592.416 42.9602C592.694 42.2102 592.833 41.3977 592.833 40.5227C592.833 39.6477 592.694 38.8324 592.416 38.0767C592.137 37.321 591.708 36.7102 591.129 36.2443C590.549 35.7784 589.811 35.5455 588.913 35.5455C588.015 35.5455 587.277 35.7784 586.697 36.2443C586.118 36.7102 585.689 37.321 585.41 38.0767C585.132 38.8324 584.993 39.6477 584.993 40.5227C584.993 41.3977 585.132 42.2102 585.41 42.9602C585.689 43.7102 586.118 44.3153 586.697 44.7756C587.277 45.2358 588.015 45.4659 588.913 45.4659ZM587.993 32.1364L590.072 28.1818H592.424L589.765 32.1364H587.993ZM597.939 47V33.9091H599.95V47H597.939ZM598.961 31.7273C598.569 31.7273 598.231 31.5938 597.947 31.3267C597.669 31.0597 597.529 30.7386 597.529 30.3636C597.529 29.9886 597.669 29.6676 597.947 29.4006C598.231 29.1335 598.569 29 598.961 29C599.353 29 599.689 29.1335 599.967 29.4006C600.251 29.6676 600.393 29.9886 600.393 30.3636C600.393 30.7386 600.251 31.0597 599.967 31.3267C599.689 31.5938 599.353 31.7273 598.961 31.7273ZM621.088 33.9091L616.248 47H614.202L609.361 33.9091H611.543L615.157 44.3409H615.293L618.907 33.9091H621.088ZM623.743 47V33.9091H625.755V47H623.743ZM624.766 31.7273C624.374 31.7273 624.036 31.5938 623.752 31.3267C623.473 31.0597 623.334 30.7386 623.334 30.3636C623.334 29.9886 623.473 29.6676 623.752 29.4006C624.036 29.1335 624.374 29 624.766 29C625.158 29 625.493 29.1335 625.772 29.4006C626.056 29.6676 626.198 29.9886 626.198 30.3636C626.198 30.7386 626.056 31.0597 625.772 31.3267C625.493 31.5938 625.158 31.7273 624.766 31.7273ZM624.766 51.3295C624.374 51.3295 624.036 51.196 623.752 50.929C623.473 50.6619 623.334 50.3409 623.334 49.9659C623.334 49.5909 623.473 49.2699 623.752 49.0028C624.036 48.7358 624.374 48.6023 624.766 48.6023C625.158 48.6023 625.493 48.7358 625.772 49.0028C626.056 49.2699 626.198 49.5909 626.198 49.9659C626.198 50.3409 626.056 50.6619 625.772 50.929C625.493 51.196 625.158 51.3295 624.766 51.3295ZM641.882 33.9091V35.6136H635.098V33.9091H641.882ZM637.075 30.7727H639.086V43.25C639.086 43.8182 639.169 44.2443 639.333 44.5284C639.504 44.8068 639.72 44.9943 639.981 45.0909C640.248 45.1818 640.529 45.2273 640.825 45.2273C641.047 45.2273 641.228 45.2159 641.37 45.1932C641.512 45.1648 641.626 45.142 641.711 45.125L642.12 46.9318C641.984 46.983 641.794 47.0341 641.549 47.0852C641.305 47.142 640.995 47.1705 640.62 47.1705C640.052 47.1705 639.495 47.0483 638.95 46.804C638.41 46.5597 637.961 46.1875 637.603 45.6875C637.251 45.1875 637.075 44.5568 637.075 43.7955V30.7727ZM644.907 47V33.9091H646.85V35.8864H646.987C647.225 35.2386 647.657 34.7131 648.282 34.3097C648.907 33.9062 649.612 33.7045 650.396 33.7045C650.544 33.7045 650.728 33.7074 650.95 33.7131C651.172 33.7187 651.339 33.7273 651.453 33.7386V35.7841C651.385 35.767 651.228 35.7415 650.984 35.7074C650.745 35.6676 650.493 35.6477 650.225 35.6477C649.589 35.6477 649.021 35.7812 648.521 36.0483C648.027 36.3097 647.635 36.6733 647.345 37.1392C647.061 37.5994 646.919 38.125 646.919 38.7159V47H644.907ZM653.837 47V33.9091H655.848V47H653.837ZM653.939 32.1364L656.019 28.1818H658.371L655.712 32.1364H653.939ZM675.555 36.8409L673.748 37.3523C673.635 37.0511 673.467 36.7585 673.245 36.4744C673.029 36.1847 672.734 35.946 672.359 35.7585C671.984 35.571 671.504 35.4773 670.919 35.4773C670.118 35.4773 669.45 35.6619 668.916 36.0312C668.387 36.3949 668.123 36.858 668.123 37.4205C668.123 37.9205 668.305 38.3153 668.669 38.6051C669.032 38.8949 669.6 39.1364 670.373 39.3295L672.316 39.8068C673.487 40.0909 674.359 40.5256 674.933 41.1108C675.507 41.6903 675.794 42.4375 675.794 43.3523C675.794 44.1023 675.578 44.7727 675.146 45.3636C674.72 45.9545 674.123 46.4205 673.356 46.7614C672.589 47.1023 671.697 47.2727 670.68 47.2727C669.345 47.2727 668.24 46.983 667.365 46.4034C666.49 45.8239 665.936 44.9773 665.703 43.8636L667.612 43.3864C667.794 44.0909 668.137 44.6193 668.643 44.9716C669.154 45.3239 669.822 45.5 670.646 45.5C671.583 45.5 672.328 45.3011 672.879 44.9034C673.436 44.5 673.714 44.017 673.714 43.4545C673.714 43 673.555 42.6193 673.237 42.3125C672.919 42 672.43 41.767 671.771 41.6136L669.589 41.1023C668.39 40.8182 667.51 40.3778 666.947 39.7812C666.39 39.179 666.112 38.4261 666.112 37.5227C666.112 36.7841 666.319 36.1307 666.734 35.5625C667.154 34.9943 667.725 34.5483 668.447 34.2244C669.174 33.9006 669.998 33.7386 670.919 33.7386C672.214 33.7386 673.231 34.0227 673.97 34.5909C674.714 35.1591 675.243 35.9091 675.555 36.8409ZM684.14 47.2727C682.958 47.2727 681.921 46.9915 681.029 46.429C680.142 45.8665 679.449 45.0795 678.949 44.0682C678.455 43.0568 678.208 41.875 678.208 40.5227C678.208 39.1591 678.455 37.9687 678.949 36.9517C679.449 35.9347 680.142 35.1449 681.029 34.5824C681.921 34.0199 682.958 33.7386 684.14 33.7386C685.321 33.7386 686.355 34.0199 687.242 34.5824C688.134 35.1449 688.827 35.9347 689.321 36.9517C689.821 37.9687 690.071 39.1591 690.071 40.5227C690.071 41.875 689.821 43.0568 689.321 44.0682C688.827 45.0795 688.134 45.8665 687.242 46.429C686.355 46.9915 685.321 47.2727 684.14 47.2727ZM684.14 45.4659C685.037 45.4659 685.776 45.2358 686.355 44.7756C686.935 44.3153 687.364 43.7102 687.642 42.9602C687.921 42.2102 688.06 41.3977 688.06 40.5227C688.06 39.6477 687.921 38.8324 687.642 38.0767C687.364 37.321 686.935 36.7102 686.355 36.2443C685.776 35.7784 685.037 35.5455 684.14 35.5455C683.242 35.5455 682.503 35.7784 681.924 36.2443C681.344 36.7102 680.915 37.321 680.637 38.0767C680.358 38.8324 680.219 39.6477 680.219 40.5227C680.219 41.3977 680.358 42.2102 680.637 42.9602C680.915 43.7102 681.344 44.3153 681.924 44.7756C682.503 45.2358 683.242 45.4659 684.14 45.4659ZM679.742 32.2727L683.219 29.1705H685.094L688.571 32.2727H686.117L684.174 30.4659L682.23 32.2727H679.742ZM687.651 30.1932L689.321 27.125H691.81L689.424 30.1932H687.651ZM699.892 47V33.9091H701.835V35.9545H702.005C702.278 35.2557 702.718 34.7131 703.326 34.3267C703.934 33.9347 704.664 33.7386 705.517 33.7386C706.38 33.7386 707.099 33.9347 707.673 34.3267C708.252 34.7131 708.704 35.2557 709.028 35.9545H709.164C709.5 35.2784 710.002 34.7415 710.673 34.3438C711.343 33.9403 712.147 33.7386 713.085 33.7386C714.255 33.7386 715.213 34.1051 715.957 34.8381C716.701 35.5653 717.074 36.6989 717.074 38.2386V47H715.062V38.2386C715.062 37.2727 714.798 36.5824 714.27 36.1676C713.741 35.7528 713.119 35.5455 712.403 35.5455C711.483 35.5455 710.77 35.8239 710.264 36.3807C709.758 36.9318 709.505 37.6307 709.505 38.4773V47H707.46V38.0341C707.46 37.2898 707.218 36.6903 706.735 36.2358C706.252 35.7756 705.63 35.5455 704.869 35.5455C704.346 35.5455 703.858 35.6847 703.403 35.9631C702.954 36.2415 702.591 36.6278 702.312 37.1222C702.039 37.6108 701.903 38.1761 701.903 38.8182V47H699.892ZM726.069 47.2727C724.887 47.2727 723.85 46.9915 722.958 46.429C722.072 45.8665 721.379 45.0795 720.879 44.0682C720.385 43.0568 720.137 41.875 720.137 40.5227C720.137 39.1591 720.385 37.9687 720.879 36.9517C721.379 35.9347 722.072 35.1449 722.958 34.5824C723.85 34.0199 724.887 33.7386 726.069 33.7386C727.251 33.7386 728.285 34.0199 729.172 34.5824C730.064 35.1449 730.757 35.9347 731.251 36.9517C731.751 37.9687 732.001 39.1591 732.001 40.5227C732.001 41.875 731.751 43.0568 731.251 44.0682C730.757 45.0795 730.064 45.8665 729.172 46.429C728.285 46.9915 727.251 47.2727 726.069 47.2727ZM726.069 45.4659C726.967 45.4659 727.706 45.2358 728.285 44.7756C728.865 44.3153 729.294 43.7102 729.572 42.9602C729.85 42.2102 729.99 41.3977 729.99 40.5227C729.99 39.6477 729.85 38.8324 729.572 38.0767C729.294 37.321 728.865 36.7102 728.285 36.2443C727.706 35.7784 726.967 35.5455 726.069 35.5455C725.172 35.5455 724.433 35.7784 723.853 36.2443C723.274 36.7102 722.845 37.321 722.566 38.0767C722.288 38.8324 722.149 39.6477 722.149 40.5227C722.149 41.3977 722.288 42.2102 722.566 42.9602C722.845 43.7102 723.274 44.3153 723.853 44.7756C724.433 45.2358 725.172 45.4659 726.069 45.4659ZM727.842 32.3409L726.069 29.9545L724.297 32.3409H722.387V32.2045L725.149 28.6591H726.99L729.751 32.2045V32.3409H727.842ZM726.069 51.3295C725.677 51.3295 725.339 51.196 725.055 50.929C724.777 50.6619 724.637 50.3409 724.637 49.9659C724.637 49.5909 724.777 49.2699 725.055 49.0028C725.339 48.7358 725.677 48.6023 726.069 48.6023C726.461 48.6023 726.797 48.7358 727.075 49.0028C727.359 49.2699 727.501 49.5909 727.501 49.9659C727.501 50.3409 727.359 50.6619 727.075 50.929C726.797 51.196 726.461 51.3295 726.069 51.3295ZM740.765 33.9091V35.6136H733.98V33.9091H740.765ZM735.958 30.7727H737.969V43.25C737.969 43.8182 738.051 44.2443 738.216 44.5284C738.387 44.8068 738.603 44.9943 738.864 45.0909C739.131 45.1818 739.412 45.2273 739.708 45.2273C739.929 45.2273 740.111 45.2159 740.253 45.1932C740.395 45.1648 740.509 45.142 740.594 45.125L741.003 46.9318C740.867 46.983 740.676 47.0341 740.432 47.0852C740.188 47.142 739.878 47.1705 739.503 47.1705C738.935 47.1705 738.378 47.0483 737.833 46.804C737.293 46.5597 736.844 46.1875 736.486 45.6875C736.134 45.1875 735.958 44.5568 735.958 43.7955V30.7727ZM761.245 33.9091L756.404 47H754.358L749.517 33.9091H751.699L755.313 44.3409H755.449L759.063 33.9091H761.245ZM768.919 47.2727C767.658 47.2727 766.57 46.9943 765.655 46.4375C764.746 45.875 764.044 45.0909 763.55 44.0852C763.061 43.0739 762.817 41.8977 762.817 40.5568C762.817 39.2159 763.061 38.0341 763.55 37.0114C764.044 35.983 764.732 35.1818 765.613 34.608C766.499 34.0284 767.533 33.7386 768.715 33.7386C769.397 33.7386 770.07 33.8523 770.735 34.0795C771.4 34.3068 772.005 34.6761 772.55 35.1875C773.096 35.6932 773.53 36.3636 773.854 37.1989C774.178 38.0341 774.34 39.0625 774.34 40.2841V41.1364H764.249V39.3977H772.294C772.294 38.6591 772.147 38 771.851 37.4205C771.561 36.8409 771.147 36.3835 770.607 36.0483C770.073 35.7131 769.442 35.5455 768.715 35.5455C767.914 35.5455 767.221 35.7443 766.635 36.142C766.056 36.5341 765.61 37.0455 765.297 37.6761C764.985 38.3068 764.828 38.983 764.828 39.7045V40.8636C764.828 41.8523 764.999 42.6903 765.34 43.3778C765.686 44.0597 766.167 44.5795 766.78 44.9375C767.394 45.2898 768.107 45.4659 768.919 45.4659C769.448 45.4659 769.925 45.392 770.351 45.2443C770.783 45.0909 771.155 44.8636 771.468 44.5625C771.78 44.2557 772.022 43.875 772.192 43.4205L774.135 43.9659C773.931 44.625 773.587 45.2045 773.104 45.7045C772.621 46.1989 772.025 46.5852 771.314 46.8636C770.604 47.1364 769.806 47.2727 768.919 47.2727ZM769.533 29.2045L773.01 32.3068H770.556L768.613 30.5L766.669 32.3068H764.215L767.658 29.2045H769.533ZM763.465 27.125L765.101 30.2273H763.363L760.942 27.125H763.465ZM793.422 36.8409L791.615 37.3523C791.502 37.0511 791.334 36.7585 791.113 36.4744C790.897 36.1847 790.601 35.946 790.226 35.7585C789.851 35.571 789.371 35.4773 788.786 35.4773C787.985 35.4773 787.317 35.6619 786.783 36.0312C786.255 36.3949 785.99 36.858 785.99 37.4205C785.99 37.9205 786.172 38.3153 786.536 38.6051C786.9 38.8949 787.468 39.1364 788.24 39.3295L790.184 39.8068C791.354 40.0909 792.226 40.5256 792.8 41.1108C793.374 41.6903 793.661 42.4375 793.661 43.3523C793.661 44.1023 793.445 44.7727 793.013 45.3636C792.587 45.9545 791.99 46.4205 791.223 46.7614C790.456 47.1023 789.564 47.2727 788.547 47.2727C787.212 47.2727 786.107 46.983 785.232 46.4034C784.357 45.8239 783.803 44.9773 783.57 43.8636L785.479 43.3864C785.661 44.0909 786.005 44.6193 786.51 44.9716C787.022 45.3239 787.689 45.5 788.513 45.5C789.451 45.5 790.195 45.3011 790.746 44.9034C791.303 44.5 791.581 44.017 791.581 43.4545C791.581 43 791.422 42.6193 791.104 42.3125C790.786 42 790.297 41.767 789.638 41.6136L787.456 41.1023C786.257 40.8182 785.377 40.3778 784.814 39.7812C784.257 39.179 783.979 38.4261 783.979 37.5227C783.979 36.7841 784.186 36.1307 784.601 35.5625C785.022 34.9943 785.593 34.5483 786.314 34.2244C787.042 33.9006 787.865 33.7386 788.786 33.7386C790.081 33.7386 791.098 34.0227 791.837 34.5909C792.581 35.1591 793.11 35.9091 793.422 36.8409ZM800.541 47.3068C799.711 47.3068 798.958 47.1506 798.282 46.8381C797.606 46.5199 797.069 46.0625 796.672 45.4659C796.274 44.8636 796.075 44.1364 796.075 43.2841C796.075 42.5341 796.223 41.9261 796.518 41.4602C796.814 40.9886 797.208 40.6193 797.703 40.3523C798.197 40.0852 798.743 39.8864 799.339 39.7557C799.941 39.6193 800.547 39.5114 801.154 39.4318C801.95 39.3295 802.595 39.2528 803.089 39.2017C803.589 39.1449 803.953 39.0511 804.18 38.9205C804.413 38.7898 804.529 38.5625 804.529 38.2386V38.1705C804.529 37.3295 804.299 36.6761 803.839 36.2102C803.385 35.7443 802.694 35.5114 801.768 35.5114C800.808 35.5114 800.055 35.7216 799.51 36.142C798.964 36.5625 798.581 37.0114 798.359 37.4886L796.45 36.8068C796.791 36.0114 797.245 35.392 797.814 34.9489C798.387 34.5 799.012 34.1875 799.689 34.0114C800.37 33.8295 801.041 33.7386 801.7 33.7386C802.12 33.7386 802.603 33.7898 803.149 33.892C803.7 33.9886 804.231 34.1903 804.743 34.4972C805.26 34.804 805.689 35.267 806.029 35.8864C806.37 36.5057 806.541 37.3352 806.541 38.375V47H804.529V45.2273H804.427C804.291 45.5114 804.064 45.8153 803.745 46.1392C803.427 46.4631 803.004 46.7386 802.475 46.9659C801.947 47.1932 801.302 47.3068 800.541 47.3068ZM800.848 45.5C801.643 45.5 802.314 45.3438 802.859 45.0312C803.41 44.7188 803.825 44.3153 804.103 43.821C804.387 43.3267 804.529 42.8068 804.529 42.2614V40.4205C804.444 40.5227 804.257 40.6165 803.967 40.7017C803.683 40.7812 803.353 40.8523 802.978 40.9148C802.609 40.9716 802.248 41.0227 801.896 41.0682C801.549 41.108 801.268 41.142 801.052 41.1705C800.529 41.2386 800.041 41.3494 799.586 41.5028C799.137 41.6506 798.774 41.875 798.495 42.1761C798.223 42.4716 798.086 42.875 798.086 43.3864C798.086 44.0852 798.345 44.6136 798.862 44.9716C799.385 45.3239 800.047 45.5 800.848 45.5ZM802.723 32.1364H801.052V30.2955C801.649 30.2614 802.069 30.179 802.314 30.0483C802.564 29.9176 802.689 29.7159 802.689 29.4432C802.689 29.1364 802.51 28.9119 802.152 28.7699C801.794 28.6278 801.359 28.5568 800.848 28.5568L800.916 27.2614C802.092 27.2614 802.981 27.4659 803.583 27.875C804.191 28.2841 804.495 28.8295 804.495 29.5114C804.495 30.0909 804.311 30.5142 803.941 30.7812C803.572 31.0483 803.166 31.2159 802.723 31.2841V32.1364ZM812.223 39.125V47H810.212V33.9091H812.155V35.9545H812.326C812.632 35.2898 813.098 34.7557 813.723 34.3523C814.348 33.9432 815.155 33.7386 816.144 33.7386C817.03 33.7386 817.806 33.9205 818.471 34.2841C819.135 34.642 819.652 35.1875 820.022 35.9205C820.391 36.6477 820.576 37.5682 820.576 38.6818V47H818.564V38.8182C818.564 37.7898 818.297 36.9886 817.763 36.4148C817.229 35.8352 816.496 35.5455 815.564 35.5455C814.922 35.5455 814.348 35.6847 813.843 35.9631C813.343 36.2415 812.948 36.6477 812.658 37.1818C812.368 37.7159 812.223 38.3636 812.223 39.125ZM832.501 33.9091L835.637 39.2614L838.774 33.9091H841.092L836.865 40.4545L841.092 47H838.774L835.637 41.9205L832.501 47H830.183L834.342 40.4545L830.183 33.9091H832.501ZM852.212 41.6477V33.9091H854.223V47H852.212V44.7841H852.076C851.769 45.4489 851.292 46.0142 850.644 46.4801C849.996 46.9403 849.178 47.1705 848.189 47.1705C847.371 47.1705 846.644 46.9915 846.007 46.6335C845.371 46.2699 844.871 45.7244 844.507 44.9972C844.144 44.2642 843.962 43.3409 843.962 42.2273V33.9091H845.973V42.0909C845.973 43.0455 846.24 43.8068 846.775 44.375C847.314 44.9432 848.002 45.2273 848.837 45.2273C849.337 45.2273 849.846 45.0994 850.363 44.8438C850.885 44.5881 851.323 44.196 851.675 43.6676C852.033 43.1392 852.212 42.4659 852.212 41.6477ZM861.76 47.3068C860.93 47.3068 860.177 47.1506 859.501 46.8381C858.825 46.5199 858.288 46.0625 857.89 45.4659C857.493 44.8636 857.294 44.1364 857.294 43.2841C857.294 42.5341 857.441 41.9261 857.737 41.4602C858.032 40.9886 858.427 40.6193 858.922 40.3523C859.416 40.0852 859.961 39.8864 860.558 39.7557C861.16 39.6193 861.765 39.5114 862.373 39.4318C863.169 39.3295 863.814 39.2528 864.308 39.2017C864.808 39.1449 865.172 39.0511 865.399 38.9205C865.632 38.7898 865.748 38.5625 865.748 38.2386V38.1705C865.748 37.3295 865.518 36.6761 865.058 36.2102C864.603 35.7443 863.913 35.5114 862.987 35.5114C862.027 35.5114 861.274 35.7216 860.728 36.142C860.183 36.5625 859.799 37.0114 859.578 37.4886L857.669 36.8068C858.01 36.0114 858.464 35.392 859.032 34.9489C859.606 34.5 860.231 34.1875 860.907 34.0114C861.589 33.8295 862.26 33.7386 862.919 33.7386C863.339 33.7386 863.822 33.7898 864.368 33.892C864.919 33.9886 865.45 34.1903 865.961 34.4972C866.478 34.804 866.907 35.267 867.248 35.8864C867.589 36.5057 867.76 37.3352 867.76 38.375V47H865.748V45.2273H865.646C865.51 45.5114 865.282 45.8153 864.964 46.1392C864.646 46.4631 864.223 46.7386 863.694 46.9659C863.166 47.1932 862.521 47.3068 861.76 47.3068ZM862.066 45.5C862.862 45.5 863.532 45.3438 864.078 45.0312C864.629 44.7188 865.044 44.3153 865.322 43.821C865.606 43.3267 865.748 42.8068 865.748 42.2614V40.4205C865.663 40.5227 865.475 40.6165 865.186 40.7017C864.902 40.7812 864.572 40.8523 864.197 40.9148C863.828 40.9716 863.467 41.0227 863.115 41.0682C862.768 41.108 862.487 41.142 862.271 41.1705C861.748 41.2386 861.26 41.3494 860.805 41.5028C860.356 41.6506 859.993 41.875 859.714 42.1761C859.441 42.4716 859.305 42.875 859.305 43.3864C859.305 44.0852 859.564 44.6136 860.081 44.9716C860.603 45.3239 861.265 45.5 862.066 45.5ZM858.657 32.2727L862.135 29.1705H864.01L867.487 32.2727H865.032L863.089 30.4659L861.146 32.2727H858.657ZM866.566 30.1932L868.237 27.125H870.725L868.339 30.1932H866.566ZM877.124 33.9091V35.6136H870.34V33.9091H877.124ZM872.317 30.7727H874.328V43.25C874.328 43.8182 874.411 44.2443 874.576 44.5284C874.746 44.8068 874.962 44.9943 875.223 45.0909C875.49 45.1818 875.772 45.2273 876.067 45.2273C876.289 45.2273 876.471 45.2159 876.613 45.1932C876.755 45.1648 876.868 45.142 876.953 45.125L877.363 46.9318C877.226 46.983 877.036 47.0341 876.792 47.0852C876.547 47.142 876.238 47.1705 875.863 47.1705C875.294 47.1705 874.738 47.0483 874.192 46.804C873.652 46.5597 873.203 46.1875 872.846 45.6875C872.493 45.1875 872.317 44.5568 872.317 43.7955V30.7727ZM897.604 33.9091L892.763 47H890.718L885.877 33.9091H888.059L891.672 44.3409H891.809L895.422 33.9091H897.604ZM903.713 47.3068C902.883 47.3068 902.13 47.1506 901.454 46.8381C900.778 46.5199 900.241 46.0625 899.843 45.4659C899.446 44.8636 899.247 44.1364 899.247 43.2841C899.247 42.5341 899.395 41.9261 899.69 41.4602C899.985 40.9886 900.38 40.6193 900.875 40.3523C901.369 40.0852 901.914 39.8864 902.511 39.7557C903.113 39.6193 903.718 39.5114 904.326 39.4318C905.122 39.3295 905.767 39.2528 906.261 39.2017C906.761 39.1449 907.125 39.0511 907.352 38.9205C907.585 38.7898 907.701 38.5625 907.701 38.2386V38.1705C907.701 37.3295 907.471 36.6761 907.011 36.2102C906.556 35.7443 905.866 35.5114 904.94 35.5114C903.98 35.5114 903.227 35.7216 902.681 36.142C902.136 36.5625 901.752 37.0114 901.531 37.4886L899.622 36.8068C899.963 36.0114 900.417 35.392 900.985 34.9489C901.559 34.5 902.184 34.1875 902.86 34.0114C903.542 33.8295 904.213 33.7386 904.872 33.7386C905.292 33.7386 905.775 33.7898 906.321 33.892C906.872 33.9886 907.403 34.1903 907.914 34.4972C908.431 34.804 908.86 35.267 909.201 35.8864C909.542 36.5057 909.713 37.3352 909.713 38.375V47H907.701V45.2273H907.599C907.463 45.5114 907.235 45.8153 906.917 46.1392C906.599 46.4631 906.176 46.7386 905.647 46.9659C905.119 47.1932 904.474 47.3068 903.713 47.3068ZM904.02 45.5C904.815 45.5 905.485 45.3438 906.031 45.0312C906.582 44.7188 906.997 44.3153 907.275 43.821C907.559 43.3267 907.701 42.8068 907.701 42.2614V40.4205C907.616 40.5227 907.429 40.6165 907.139 40.7017C906.855 40.7812 906.525 40.8523 906.15 40.9148C905.781 40.9716 905.42 41.0227 905.068 41.0682C904.721 41.108 904.44 41.142 904.224 41.1705C903.701 41.2386 903.213 41.3494 902.758 41.5028C902.309 41.6506 901.946 41.875 901.667 42.1761C901.395 42.4716 901.258 42.875 901.258 43.3864C901.258 44.0852 901.517 44.6136 902.034 44.9716C902.556 45.3239 903.218 45.5 904.02 45.5ZM904.156 32.1364L901.497 28.1818H903.849L905.929 32.1364H904.156ZM925.827 33.9091V35.6136H919.043V33.9091H925.827ZM921.02 30.7727H923.032V43.25C923.032 43.8182 923.114 44.2443 923.279 44.5284C923.449 44.8068 923.665 44.9943 923.926 45.0909C924.194 45.1818 924.475 45.2273 924.77 45.2273C924.992 45.2273 925.174 45.2159 925.316 45.1932C925.458 45.1648 925.571 45.142 925.657 45.125L926.066 46.9318C925.929 46.983 925.739 47.0341 925.495 47.0852C925.25 47.142 924.941 47.1705 924.566 47.1705C923.998 47.1705 923.441 47.0483 922.895 46.804C922.355 46.5597 921.907 46.1875 921.549 45.6875C921.196 45.1875 921.02 44.5568 921.02 43.7955V30.7727ZM928.853 47V33.9091H930.864V47H928.853ZM929.875 31.7273C929.483 31.7273 929.145 31.5938 928.861 31.3267C928.583 31.0597 928.444 30.7386 928.444 30.3636C928.444 29.9886 928.583 29.6676 928.861 29.4006C929.145 29.1335 929.483 29 929.875 29C930.267 29 930.603 29.1335 930.881 29.4006C931.165 29.6676 931.307 29.9886 931.307 30.3636C931.307 30.7386 931.165 31.0597 930.881 31.3267C930.603 31.5938 930.267 31.7273 929.875 31.7273ZM940.037 47.2727C938.775 47.2727 937.687 46.9943 936.772 46.4375C935.863 45.875 935.162 45.0909 934.667 44.0852C934.179 43.0739 933.934 41.8977 933.934 40.5568C933.934 39.2159 934.179 38.0341 934.667 37.0114C935.162 35.983 935.849 35.1818 936.73 34.608C937.616 34.0284 938.65 33.7386 939.832 33.7386C940.514 33.7386 941.187 33.8523 941.852 34.0795C942.517 34.3068 943.122 34.6761 943.667 35.1875C944.213 35.6932 944.647 36.3636 944.971 37.1989C945.295 38.0341 945.457 39.0625 945.457 40.2841V41.1364H935.366V39.3977H943.412C943.412 38.6591 943.264 38 942.968 37.4205C942.679 36.8409 942.264 36.3835 941.724 36.0483C941.19 35.7131 940.559 35.5455 939.832 35.5455C939.031 35.5455 938.338 35.7443 937.752 36.142C937.173 36.5341 936.727 37.0455 936.414 37.6761C936.102 38.3068 935.946 38.983 935.946 39.7045V40.8636C935.946 41.8523 936.116 42.6903 936.457 43.3778C936.804 44.0597 937.284 44.5795 937.897 44.9375C938.511 45.2898 939.224 45.4659 940.037 45.4659C940.565 45.4659 941.042 45.392 941.468 45.2443C941.9 45.0909 942.272 44.8636 942.585 44.5625C942.897 44.2557 943.139 43.875 943.309 43.4205L945.252 43.9659C945.048 44.625 944.704 45.2045 944.221 45.7045C943.738 46.1989 943.142 46.5852 942.431 46.8636C941.721 47.1364 940.923 47.2727 940.037 47.2727ZM941.502 32.3409L939.73 29.9545L937.957 32.3409H936.048V32.2045L938.809 28.6591H940.65L943.412 32.2045V32.3409H941.502ZM956.767 41.6477V33.9091H958.778V47H956.767V44.7841H956.63C956.324 45.4489 955.846 46.0142 955.199 46.4801C954.551 46.9403 953.733 47.1705 952.744 47.1705C951.926 47.1705 951.199 46.9915 950.562 46.6335C949.926 46.2699 949.426 45.7244 949.062 44.9972C948.699 44.2642 948.517 43.3409 948.517 42.2273V33.9091H950.528V42.0909C950.528 43.0455 950.795 43.8068 951.329 44.375C951.869 44.9432 952.556 45.2273 953.392 45.2273C953.892 45.2273 954.4 45.0994 954.917 44.8438C955.44 44.5881 955.877 44.196 956.23 43.6676C956.588 43.1392 956.767 42.4659 956.767 41.6477ZM974.905 33.9091V35.6136H968.121V33.9091H974.905ZM970.098 30.7727H972.11V43.25C972.11 43.8182 972.192 44.2443 972.357 44.5284C972.527 44.8068 972.743 44.9943 973.005 45.0909C973.272 45.1818 973.553 45.2273 973.848 45.2273C974.07 45.2273 974.252 45.2159 974.394 45.1932C974.536 45.1648 974.65 45.142 974.735 45.125L975.144 46.9318C975.007 46.983 974.817 47.0341 974.573 47.0852C974.328 47.142 974.019 47.1705 973.644 47.1705C973.076 47.1705 972.519 47.0483 971.973 46.804C971.434 46.5597 970.985 46.1875 970.627 45.6875C970.275 45.1875 970.098 44.5568 970.098 43.7955V30.7727ZM980.223 39.125V47H978.212V29.5455H980.223V35.9545H980.394C980.701 35.2784 981.161 34.7415 981.775 34.3438C982.394 33.9403 983.218 33.7386 984.246 33.7386C985.138 33.7386 985.919 33.9176 986.59 34.2756C987.26 34.6278 987.78 35.1705 988.15 35.9034C988.525 36.6307 988.712 37.5568 988.712 38.6818V47H986.701V38.8182C986.701 37.7784 986.431 36.9744 985.891 36.4062C985.357 35.8324 984.615 35.5455 983.667 35.5455C983.007 35.5455 982.417 35.6847 981.894 35.9631C981.377 36.2415 980.968 36.6477 980.667 37.1818C980.371 37.7159 980.223 38.3636 980.223 39.125ZM1000.64 41.6477V33.9091H1002.65V47H1000.64V44.7841H1000.51C1000.2 45.4489 999.721 46.0142 999.074 46.4801C998.426 46.9403 997.608 47.1705 996.619 47.1705C995.801 47.1705 995.074 46.9915 994.437 46.6335C993.801 46.2699 993.301 45.7244 992.937 44.9972C992.574 44.2642 992.392 43.3409 992.392 42.2273V33.9091H994.403V42.0909C994.403 43.0455 994.67 43.8068 995.204 44.375C995.744 44.9432 996.431 45.2273 997.267 45.2273C997.767 45.2273 998.275 45.0994 998.792 44.8438C999.315 44.5881 999.752 44.196 1000.1 43.6676C1000.46 43.1392 1000.64 42.4659 1000.64 41.6477ZM997.539 51.3295C997.147 51.3295 996.809 51.196 996.525 50.929C996.247 50.6619 996.108 50.3409 996.108 49.9659C996.108 49.5909 996.247 49.2699 996.525 49.0028C996.809 48.7358 997.147 48.6023 997.539 48.6023C997.931 48.6023 998.267 48.7358 998.545 49.0028C998.829 49.2699 998.971 49.5909 998.971 49.9659C998.971 50.3409 998.829 50.6619 998.545 50.929C998.267 51.196 997.931 51.3295 997.539 51.3295ZM1018.78 33.9091V35.6136H1012V33.9091H1018.78ZM1013.97 30.7727H1015.98V43.25C1015.98 43.8182 1016.07 44.2443 1016.23 44.5284C1016.4 44.8068 1016.62 44.9943 1016.88 45.0909C1017.15 45.1818 1017.43 45.2273 1017.72 45.2273C1017.94 45.2273 1018.13 45.2159 1018.27 45.1932C1018.41 45.1648 1018.52 45.142 1018.61 45.125L1019.02 46.9318C1018.88 46.983 1018.69 47.0341 1018.45 47.0852C1018.2 47.142 1017.89 47.1705 1017.52 47.1705C1016.95 47.1705 1016.39 47.0483 1015.85 46.804C1015.31 46.5597 1014.86 46.1875 1014.5 45.6875C1014.15 45.1875 1013.97 44.5568 1013.97 43.7955V30.7727ZM1024.1 39.125V47H1022.09V29.5455H1024.1V35.9545H1024.27C1024.58 35.2784 1025.04 34.7415 1025.65 34.3438C1026.27 33.9403 1027.09 33.7386 1028.12 33.7386C1029.01 33.7386 1029.79 33.9176 1030.46 34.2756C1031.14 34.6278 1031.66 35.1705 1032.02 35.9034C1032.4 36.6307 1032.59 37.5568 1032.59 38.6818V47H1030.58V38.8182C1030.58 37.7784 1030.31 36.9744 1029.77 36.4062C1029.23 35.8324 1028.49 35.5455 1027.54 35.5455C1026.88 35.5455 1026.29 35.6847 1025.77 35.9631C1025.25 36.2415 1024.84 36.6477 1024.54 37.1818C1024.25 37.7159 1024.1 38.3636 1024.1 39.125ZM1044.52 41.6477V33.9091H1046.53V47H1044.52V44.7841H1044.38C1044.07 45.4489 1043.6 46.0142 1042.95 46.4801C1042.3 46.9403 1041.48 47.1705 1040.49 47.1705C1039.68 47.1705 1038.95 46.9915 1038.31 46.6335C1037.68 46.2699 1037.18 45.7244 1036.81 44.9972C1036.45 44.2642 1036.27 43.3409 1036.27 42.2273V33.9091H1038.28V42.0909C1038.28 43.0455 1038.55 43.8068 1039.08 44.375C1039.62 44.9432 1040.31 45.2273 1041.14 45.2273C1041.64 45.2273 1042.15 45.0994 1042.67 44.8438C1043.19 44.5881 1043.63 44.196 1043.98 43.6676C1044.34 43.1392 1044.52 42.4659 1044.52 41.6477ZM1055.53 47.2727C1054.35 47.2727 1053.31 46.9915 1052.42 46.429C1051.53 45.8665 1050.84 45.0795 1050.34 44.0682C1049.85 43.0568 1049.6 41.875 1049.6 40.5227C1049.6 39.1591 1049.85 37.9687 1050.34 36.9517C1050.84 35.9347 1051.53 35.1449 1052.42 34.5824C1053.31 34.0199 1054.35 33.7386 1055.53 33.7386C1056.71 33.7386 1057.75 34.0199 1058.63 34.5824C1059.52 35.1449 1060.22 35.9347 1060.71 36.9517C1061.21 37.9687 1061.46 39.1591 1061.46 40.5227C1061.46 41.875 1061.21 43.0568 1060.71 44.0682C1060.22 45.0795 1059.52 45.8665 1058.63 46.429C1057.75 46.9915 1056.71 47.2727 1055.53 47.2727ZM1055.53 45.4659C1056.43 45.4659 1057.17 45.2358 1057.75 44.7756C1058.33 44.3153 1058.75 43.7102 1059.03 42.9602C1059.31 42.2102 1059.45 41.3977 1059.45 40.5227C1059.45 39.6477 1059.31 38.8324 1059.03 38.0767C1058.75 37.321 1058.33 36.7102 1057.75 36.2443C1057.17 35.7784 1056.43 35.5455 1055.53 35.5455C1054.63 35.5455 1053.89 35.7784 1053.31 36.2443C1052.73 36.7102 1052.31 37.321 1052.03 38.0767C1051.75 38.8324 1051.61 39.6477 1051.61 40.5227C1051.61 41.3977 1051.75 42.2102 1052.03 42.9602C1052.31 43.7102 1052.73 44.3153 1053.31 44.7756C1053.89 45.2358 1054.63 45.4659 1055.53 45.4659ZM1051.13 32.2727L1054.61 29.1705H1056.48L1059.96 32.2727H1057.51L1055.56 30.4659L1053.62 32.2727H1051.13ZM1059.04 30.1932L1060.71 27.125H1063.2L1060.81 30.1932H1059.04ZM1069.85 47.2727C1068.62 47.2727 1067.57 46.983 1066.68 46.4034C1065.79 45.8239 1065.11 45.0256 1064.63 44.0085C1064.16 42.9915 1063.92 41.8295 1063.92 40.5227C1063.92 39.1932 1064.16 38.0199 1064.65 37.0028C1065.15 35.9801 1065.83 35.1818 1066.71 34.608C1067.6 34.0284 1068.63 33.7386 1069.82 33.7386C1070.74 33.7386 1071.57 33.9091 1072.31 34.25C1073.04 34.5909 1073.65 35.0682 1074.12 35.6818C1074.59 36.2955 1074.88 37.0114 1075 37.8295H1072.99C1072.83 37.233 1072.49 36.7045 1071.96 36.2443C1071.44 35.7784 1070.74 35.5455 1069.85 35.5455C1069.07 35.5455 1068.38 35.75 1067.79 36.1591C1067.2 36.5625 1066.75 37.1335 1066.42 37.8722C1066.09 38.6051 1065.93 39.4659 1065.93 40.4545C1065.93 41.4659 1066.09 42.3466 1066.41 43.0966C1066.73 43.8466 1067.19 44.429 1067.77 44.8438C1068.36 45.2585 1069.06 45.4659 1069.85 45.4659C1070.37 45.4659 1070.85 45.375 1071.27 45.1932C1071.7 45.0114 1072.06 44.75 1072.36 44.4091C1072.65 44.0682 1072.86 43.6591 1072.99 43.1818H1075C1074.88 43.9545 1074.6 44.6506 1074.15 45.2699C1073.71 45.8835 1073.12 46.3722 1072.39 46.7358C1071.66 47.0938 1070.82 47.2727 1069.85 47.2727ZM351.071 71.2273L351.037 68.7386H351.446L357.174 62.9091H359.662L353.56 69.0795H353.39L351.071 71.2273ZM349.196 76V58.5455H351.208V76H349.196ZM357.515 76L352.401 69.5227L353.833 68.125L360.071 76H357.515ZM364.262 68.125V76H362.251V58.5455H364.262V64.9545H364.433C364.74 64.2784 365.2 63.7415 365.814 63.3438C366.433 62.9403 367.257 62.7386 368.285 62.7386C369.177 62.7386 369.958 62.9176 370.629 63.2756C371.299 63.6278 371.819 64.1705 372.189 64.9034C372.564 65.6307 372.751 66.5568 372.751 67.6818V76H370.74V67.8182C370.74 66.7784 370.47 65.9744 369.93 65.4062C369.396 64.8324 368.654 64.5455 367.706 64.5455C367.047 64.5455 366.456 64.6847 365.933 64.9631C365.416 65.2415 365.007 65.6477 364.706 66.1818C364.41 66.7159 364.262 67.3636 364.262 68.125ZM380.283 76.3068C379.453 76.3068 378.701 76.1506 378.025 75.8381C377.348 75.5199 376.811 75.0625 376.414 74.4659C376.016 73.8636 375.817 73.1364 375.817 72.2841C375.817 71.5341 375.965 70.9261 376.26 70.4602C376.556 69.9886 376.951 69.6193 377.445 69.3523C377.939 69.0852 378.485 68.8864 379.081 68.7557C379.684 68.6193 380.289 68.5114 380.897 68.4318C381.692 68.3295 382.337 68.2528 382.831 68.2017C383.331 68.1449 383.695 68.0511 383.922 67.9205C384.155 67.7898 384.272 67.5625 384.272 67.2386V67.1705C384.272 66.3295 384.042 65.6761 383.581 65.2102C383.127 64.7443 382.436 64.5114 381.51 64.5114C380.55 64.5114 379.797 64.7216 379.252 65.142C378.706 65.5625 378.323 66.0114 378.101 66.4886L376.192 65.8068C376.533 65.0114 376.988 64.392 377.556 63.9489C378.13 63.5 378.755 63.1875 379.431 63.0114C380.113 62.8295 380.783 62.7386 381.442 62.7386C381.863 62.7386 382.346 62.7898 382.891 62.892C383.442 62.9886 383.973 63.1903 384.485 63.4972C385.002 63.804 385.431 64.267 385.772 64.8864C386.113 65.5057 386.283 66.3352 386.283 67.375V76H384.272V74.2273H384.169C384.033 74.5114 383.806 74.8153 383.488 75.1392C383.169 75.4631 382.746 75.7386 382.218 75.9659C381.689 76.1932 381.044 76.3068 380.283 76.3068ZM380.59 74.5C381.385 74.5 382.056 74.3438 382.601 74.0312C383.152 73.7188 383.567 73.3153 383.846 72.821C384.13 72.3267 384.272 71.8068 384.272 71.2614V69.4205C384.186 69.5227 383.999 69.6165 383.709 69.7017C383.425 69.7812 383.096 69.8523 382.721 69.9148C382.351 69.9716 381.99 70.0227 381.638 70.0682C381.292 70.108 381.01 70.142 380.794 70.1705C380.272 70.2386 379.783 70.3494 379.328 70.5028C378.88 70.6506 378.516 70.875 378.238 71.1761C377.965 71.4716 377.828 71.875 377.828 72.3864C377.828 73.0852 378.087 73.6136 378.604 73.9716C379.127 74.3239 379.789 74.5 380.59 74.5ZM380.658 61.1364L382.738 57.1818H385.09L382.431 61.1364H380.658ZM391.966 68.125V76H389.954V62.9091H391.897V64.9545H392.068C392.375 64.2898 392.841 63.7557 393.466 63.3523C394.091 62.9432 394.897 62.7386 395.886 62.7386C396.772 62.7386 397.548 62.9205 398.213 63.2841C398.877 63.642 399.395 64.1875 399.764 64.9205C400.133 65.6477 400.318 66.5682 400.318 67.6818V76H398.306V67.8182C398.306 66.7898 398.039 65.9886 397.505 65.4148C396.971 64.8352 396.238 64.5455 395.306 64.5455C394.664 64.5455 394.091 64.6847 393.585 64.9631C393.085 65.2415 392.69 65.6477 392.4 66.1818C392.11 66.7159 391.966 67.3636 391.966 68.125ZM409.277 81.1818C408.306 81.1818 407.471 81.0568 406.772 80.8068C406.073 80.5625 405.49 80.2386 405.025 79.8352C404.564 79.4375 404.198 79.0114 403.925 78.5568L405.527 77.4318C405.709 77.6705 405.939 77.9432 406.218 78.25C406.496 78.5625 406.877 78.8324 407.36 79.0597C407.848 79.2926 408.488 79.4091 409.277 79.4091C410.334 79.4091 411.206 79.1534 411.894 78.642C412.581 78.1307 412.925 77.3295 412.925 76.2386V73.5795H412.755C412.607 73.8182 412.397 74.1136 412.124 74.4659C411.857 74.8125 411.471 75.1222 410.965 75.3949C410.465 75.6619 409.789 75.7955 408.936 75.7955C407.88 75.7955 406.931 75.5455 406.09 75.0455C405.255 74.5455 404.593 73.8182 404.104 72.8636C403.621 71.9091 403.38 70.75 403.38 69.3864C403.38 68.0455 403.615 66.8778 404.087 65.8835C404.559 64.8835 405.215 64.1108 406.056 63.5653C406.897 63.0142 407.868 62.7386 408.971 62.7386C409.823 62.7386 410.499 62.8807 410.999 63.1648C411.505 63.4432 411.891 63.7614 412.158 64.1193C412.431 64.4716 412.641 64.7614 412.789 64.9886H412.993V62.9091H414.936V76.375C414.936 77.5 414.681 78.4148 414.169 79.1193C413.664 79.8295 412.982 80.3494 412.124 80.679C411.272 81.0142 410.323 81.1818 409.277 81.1818ZM409.209 73.9886C410.016 73.9886 410.698 73.804 411.255 73.4347C411.811 73.0653 412.235 72.5341 412.525 71.8409C412.814 71.1477 412.959 70.3182 412.959 69.3523C412.959 68.4091 412.817 67.5767 412.533 66.8551C412.249 66.1335 411.828 65.5682 411.272 65.1591C410.715 64.75 410.027 64.5455 409.209 64.5455C408.357 64.5455 407.647 64.7614 407.078 65.1932C406.516 65.625 406.093 66.2045 405.809 66.9318C405.53 67.6591 405.391 68.4659 405.391 69.3523C405.391 70.2614 405.533 71.0653 405.817 71.7642C406.107 72.4574 406.533 73.0028 407.096 73.4006C407.664 73.7926 408.368 73.9886 409.209 73.9886ZM434.641 65.8409L432.834 66.3523C432.721 66.0511 432.553 65.7585 432.331 65.4744C432.115 65.1847 431.82 64.946 431.445 64.7585C431.07 64.571 430.59 64.4773 430.005 64.4773C429.203 64.4773 428.536 64.6619 428.002 65.0312C427.473 65.3949 427.209 65.858 427.209 66.4205C427.209 66.9205 427.391 67.3153 427.755 67.6051C428.118 67.8949 428.686 68.1364 429.459 68.3295L431.402 68.8068C432.573 69.0909 433.445 69.5256 434.019 70.1108C434.593 70.6903 434.88 71.4375 434.88 72.3523C434.88 73.1023 434.664 73.7727 434.232 74.3636C433.806 74.9545 433.209 75.4205 432.442 75.7614C431.675 76.1023 430.783 76.2727 429.766 76.2727C428.431 76.2727 427.326 75.983 426.451 75.4034C425.576 74.8239 425.022 73.9773 424.789 72.8636L426.698 72.3864C426.88 73.0909 427.223 73.6193 427.729 73.9716C428.24 74.3239 428.908 74.5 429.732 74.5C430.669 74.5 431.414 74.3011 431.965 73.9034C432.522 73.5 432.8 73.017 432.8 72.4545C432.8 72 432.641 71.6193 432.323 71.3125C432.005 71 431.516 70.767 430.857 70.6136L428.675 70.1023C427.476 69.8182 426.596 69.3778 426.033 68.7812C425.476 68.179 425.198 67.4261 425.198 66.5227C425.198 65.7841 425.405 65.1307 425.82 64.5625C426.24 63.9943 426.811 63.5483 427.533 63.2244C428.26 62.9006 429.084 62.7386 430.005 62.7386C431.3 62.7386 432.317 63.0227 433.056 63.5909C433.8 64.1591 434.328 64.9091 434.641 65.8409ZM437.907 76V62.9091H439.919V76H437.907ZM438.93 60.7273C438.538 60.7273 438.2 60.5938 437.916 60.3267C437.637 60.0597 437.498 59.7386 437.498 59.3636C437.498 58.9886 437.637 58.6676 437.916 58.4006C438.2 58.1335 438.538 58 438.93 58C439.322 58 439.657 58.1335 439.936 58.4006C440.22 58.6676 440.362 58.9886 440.362 59.3636C440.362 59.7386 440.22 60.0597 439.936 60.3267C439.657 60.5938 439.322 60.7273 438.93 60.7273ZM445.614 68.125V76H443.603V62.9091H445.546V64.9545H445.716C446.023 64.2898 446.489 63.7557 447.114 63.3523C447.739 62.9432 448.546 62.7386 449.534 62.7386C450.421 62.7386 451.196 62.9205 451.861 63.2841C452.526 63.642 453.043 64.1875 453.412 64.9205C453.782 65.6477 453.966 66.5682 453.966 67.6818V76H451.955V67.8182C451.955 66.7898 451.688 65.9886 451.154 65.4148C450.62 64.8352 449.887 64.5455 448.955 64.5455C448.313 64.5455 447.739 64.6847 447.233 64.9631C446.733 65.2415 446.338 65.6477 446.049 66.1818C445.759 66.7159 445.614 67.3636 445.614 68.125ZM459.653 68.125V76H457.642V58.5455H459.653V64.9545H459.824C460.13 64.2784 460.591 63.7415 461.204 63.3438C461.824 62.9403 462.647 62.7386 463.676 62.7386C464.568 62.7386 465.349 62.9176 466.02 63.2756C466.69 63.6278 467.21 64.1705 467.579 64.9034C467.954 65.6307 468.142 66.5568 468.142 67.6818V76H466.13V67.8182C466.13 66.7784 465.86 65.9744 465.321 65.4062C464.787 64.8324 464.045 64.5455 463.096 64.5455C462.437 64.5455 461.846 64.6847 461.324 64.9631C460.806 65.2415 460.397 65.6477 460.096 66.1818C459.801 66.7159 459.653 67.3636 459.653 68.125ZM484.265 62.9091V64.6136H477.48V62.9091H484.265ZM479.458 59.7727H481.469V72.25C481.469 72.8182 481.551 73.2443 481.716 73.5284C481.887 73.8068 482.103 73.9943 482.364 74.0909C482.631 74.1818 482.912 74.2273 483.208 74.2273C483.429 74.2273 483.611 74.2159 483.753 74.1932C483.895 74.1648 484.009 74.142 484.094 74.125L484.503 75.9318C484.367 75.983 484.176 76.0341 483.932 76.0852C483.688 76.142 483.378 76.1705 483.003 76.1705C482.435 76.1705 481.878 76.0483 481.333 75.804C480.793 75.5597 480.344 75.1875 479.986 74.6875C479.634 74.1875 479.458 73.5568 479.458 72.7955V59.7727ZM491.142 76.3068C490.313 76.3068 489.56 76.1506 488.884 75.8381C488.208 75.5199 487.671 75.0625 487.273 74.4659C486.875 73.8636 486.676 73.1364 486.676 72.2841C486.676 71.5341 486.824 70.9261 487.12 70.4602C487.415 69.9886 487.81 69.6193 488.304 69.3523C488.799 69.0852 489.344 68.8864 489.941 68.7557C490.543 68.6193 491.148 68.5114 491.756 68.4318C492.551 68.3295 493.196 68.2528 493.691 68.2017C494.191 68.1449 494.554 68.0511 494.782 67.9205C495.015 67.7898 495.131 67.5625 495.131 67.2386V67.1705C495.131 66.3295 494.901 65.6761 494.441 65.2102C493.986 64.7443 493.296 64.5114 492.37 64.5114C491.409 64.5114 490.657 64.7216 490.111 65.142C489.566 65.5625 489.182 66.0114 488.961 66.4886L487.051 65.8068C487.392 65.0114 487.847 64.392 488.415 63.9489C488.989 63.5 489.614 63.1875 490.29 63.0114C490.972 62.8295 491.642 62.7386 492.301 62.7386C492.722 62.7386 493.205 62.7898 493.75 62.892C494.301 62.9886 494.833 63.1903 495.344 63.4972C495.861 63.804 496.29 64.267 496.631 64.8864C496.972 65.5057 497.142 66.3352 497.142 67.375V76H495.131V74.2273H495.029C494.892 74.5114 494.665 74.8153 494.347 75.1392C494.029 75.4631 493.605 75.7386 493.077 75.9659C492.549 76.1932 491.904 76.3068 491.142 76.3068ZM491.449 74.5C492.245 74.5 492.915 74.3438 493.461 74.0312C494.012 73.7188 494.426 73.3153 494.705 72.821C494.989 72.3267 495.131 71.8068 495.131 71.2614V69.4205C495.046 69.5227 494.858 69.6165 494.569 69.7017C494.284 69.7812 493.955 69.8523 493.58 69.9148C493.211 69.9716 492.85 70.0227 492.498 70.0682C492.151 70.108 491.87 70.142 491.654 70.1705C491.131 70.2386 490.642 70.3494 490.188 70.5028C489.739 70.6506 489.375 70.875 489.097 71.1761C488.824 71.4716 488.688 71.875 488.688 72.3864C488.688 73.0852 488.946 73.6136 489.463 73.9716C489.986 74.3239 490.648 74.5 491.449 74.5ZM492.336 80.3295C491.944 80.3295 491.605 80.196 491.321 79.929C491.043 79.6619 490.904 79.3409 490.904 78.9659C490.904 78.5909 491.043 78.2699 491.321 78.0028C491.605 77.7358 491.944 77.6023 492.336 77.6023C492.728 77.6023 493.063 77.7358 493.341 78.0028C493.625 78.2699 493.767 78.5909 493.767 78.9659C493.767 79.3409 493.625 79.6619 493.341 79.929C493.063 80.196 492.728 80.3295 492.336 80.3295ZM500.814 76V62.9091H502.825V76H500.814ZM501.836 60.7273C501.444 60.7273 501.106 60.5938 500.822 60.3267C500.544 60.0597 500.404 59.7386 500.404 59.3636C500.404 58.9886 500.544 58.6676 500.822 58.4006C501.106 58.1335 501.444 58 501.836 58C502.228 58 502.564 58.1335 502.842 58.4006C503.126 58.6676 503.268 58.9886 503.268 59.3636C503.268 59.7386 503.126 60.0597 502.842 60.3267C502.564 60.5938 502.228 60.7273 501.836 60.7273ZM514.248 58.5455L519.429 73.2386H519.634L524.816 58.5455H527.032L520.623 76H518.441L512.032 58.5455H514.248ZM529.478 76V62.9091H531.489V76H529.478ZM530.5 60.7273C530.108 60.7273 529.77 60.5938 529.486 60.3267C529.208 60.0597 529.069 59.7386 529.069 59.3636C529.069 58.9886 529.208 58.6676 529.486 58.4006C529.77 58.1335 530.108 58 530.5 58C530.892 58 531.228 58.1335 531.506 58.4006C531.79 58.6676 531.932 58.9886 531.932 59.3636C531.932 59.7386 531.79 60.0597 531.506 60.3267C531.228 60.5938 530.892 60.7273 530.5 60.7273ZM540.662 76.2727C539.4 76.2727 538.312 75.9943 537.397 75.4375C536.488 74.875 535.787 74.0909 535.292 73.0852C534.804 72.0739 534.559 70.8977 534.559 69.5568C534.559 68.2159 534.804 67.0341 535.292 66.0114C535.787 64.983 536.474 64.1818 537.355 63.608C538.241 63.0284 539.275 62.7386 540.457 62.7386C541.139 62.7386 541.812 62.8523 542.477 63.0795C543.142 63.3068 543.747 63.6761 544.292 64.1875C544.838 64.6932 545.272 65.3636 545.596 66.1989C545.92 67.0341 546.082 68.0625 546.082 69.2841V70.1364H535.991V68.3977H544.037C544.037 67.6591 543.889 67 543.593 66.4205C543.304 65.8409 542.889 65.3835 542.349 65.0483C541.815 64.7131 541.184 64.5455 540.457 64.5455C539.656 64.5455 538.963 64.7443 538.377 65.142C537.798 65.5341 537.352 66.0455 537.039 66.6761C536.727 67.3068 536.571 67.983 536.571 68.7045V69.8636C536.571 70.8523 536.741 71.6903 537.082 72.3778C537.429 73.0597 537.909 73.5795 538.522 73.9375C539.136 74.2898 539.849 74.4659 540.662 74.4659C541.19 74.4659 541.667 74.392 542.093 74.2443C542.525 74.0909 542.897 73.8636 543.21 73.5625C543.522 73.2557 543.764 72.875 543.934 72.4205L545.877 72.9659C545.673 73.625 545.329 74.2045 544.846 74.7045C544.363 75.1989 543.767 75.5852 543.056 75.8636C542.346 76.1364 541.548 76.2727 540.662 76.2727ZM542.127 61.3409L540.355 58.9545L538.582 61.3409H536.673V61.2045L539.434 57.6591H541.275L544.037 61.2045V61.3409H542.127ZM540.355 80.3295C539.963 80.3295 539.625 80.196 539.341 79.929C539.062 79.6619 538.923 79.3409 538.923 78.9659C538.923 78.5909 539.062 78.2699 539.341 78.0028C539.625 77.7358 539.963 77.6023 540.355 77.6023C540.747 77.6023 541.082 77.7358 541.36 78.0028C541.645 78.2699 541.787 78.5909 541.787 78.9659C541.787 79.3409 541.645 79.6619 541.36 79.929C541.082 80.196 540.747 80.3295 540.355 80.3295ZM554.835 62.9091V64.6136H548.051V62.9091H554.835ZM550.028 59.7727H552.039V72.25C552.039 72.8182 552.122 73.2443 552.287 73.5284C552.457 73.8068 552.673 73.9943 552.934 74.0909C553.201 74.1818 553.483 74.2273 553.778 74.2273C554 74.2273 554.181 74.2159 554.324 74.1932C554.466 74.1648 554.579 74.142 554.664 74.125L555.074 75.9318C554.937 75.983 554.747 76.0341 554.502 76.0852C554.258 76.142 553.949 76.1705 553.574 76.1705C553.005 76.1705 552.449 76.0483 551.903 75.804C551.363 75.5597 550.914 75.1875 550.556 74.6875C550.204 74.1875 550.028 73.5568 550.028 72.7955V59.7727ZM578.724 58.5455V76H576.679L567.167 62.2955H566.997V76H564.883V58.5455H566.929L576.474 72.2841H576.645V58.5455H578.724ZM586.533 76.3068C585.703 76.3068 584.951 76.1506 584.275 75.8381C583.598 75.5199 583.061 75.0625 582.664 74.4659C582.266 73.8636 582.067 73.1364 582.067 72.2841C582.067 71.5341 582.215 70.9261 582.51 70.4602C582.806 69.9886 583.201 69.6193 583.695 69.3523C584.189 69.0852 584.735 68.8864 585.331 68.7557C585.934 68.6193 586.539 68.5114 587.147 68.4318C587.942 68.3295 588.587 68.2528 589.081 68.2017C589.581 68.1449 589.945 68.0511 590.172 67.9205C590.405 67.7898 590.522 67.5625 590.522 67.2386V67.1705C590.522 66.3295 590.292 65.6761 589.831 65.2102C589.377 64.7443 588.686 64.5114 587.76 64.5114C586.8 64.5114 586.047 64.7216 585.502 65.142C584.956 65.5625 584.573 66.0114 584.351 66.4886L582.442 65.8068C582.783 65.0114 583.238 64.392 583.806 63.9489C584.38 63.5 585.005 63.1875 585.681 63.0114C586.363 62.8295 587.033 62.7386 587.692 62.7386C588.113 62.7386 588.596 62.7898 589.141 62.892C589.692 62.9886 590.223 63.1903 590.735 63.4972C591.252 63.804 591.681 64.267 592.022 64.8864C592.363 65.5057 592.533 66.3352 592.533 67.375V76H590.522V74.2273H590.419C590.283 74.5114 590.056 74.8153 589.738 75.1392C589.419 75.4631 588.996 75.7386 588.468 75.9659C587.939 76.1932 587.294 76.3068 586.533 76.3068ZM586.84 74.5C587.635 74.5 588.306 74.3438 588.851 74.0312C589.402 73.7188 589.817 73.3153 590.096 72.821C590.38 72.3267 590.522 71.8068 590.522 71.2614V69.4205C590.436 69.5227 590.249 69.6165 589.959 69.7017C589.675 69.7812 589.346 69.8523 588.971 69.9148C588.601 69.9716 588.24 70.0227 587.888 70.0682C587.542 70.108 587.26 70.142 587.044 70.1705C586.522 70.2386 586.033 70.3494 585.578 70.5028C585.13 70.6506 584.766 70.875 584.488 71.1761C584.215 71.4716 584.078 71.875 584.078 72.3864C584.078 73.0852 584.337 73.6136 584.854 73.9716C585.377 74.3239 586.039 74.5 586.84 74.5ZM596.204 76V62.9091H598.147V64.9545H598.318C598.591 64.2557 599.031 63.7131 599.639 63.3267C600.247 62.9347 600.977 62.7386 601.829 62.7386C602.693 62.7386 603.412 62.9347 603.985 63.3267C604.565 63.7131 605.017 64.2557 605.341 64.9545H605.477C605.812 64.2784 606.315 63.7415 606.985 63.3438C607.656 62.9403 608.46 62.7386 609.397 62.7386C610.568 62.7386 611.525 63.1051 612.27 63.8381C613.014 64.5653 613.386 65.6989 613.386 67.2386V76H611.375V67.2386C611.375 66.2727 611.11 65.5824 610.582 65.1676C610.054 64.7528 609.431 64.5455 608.716 64.5455C607.795 64.5455 607.082 64.8239 606.576 65.3807C606.071 65.9318 605.818 66.6307 605.818 67.4773V76H603.772V67.0341C603.772 66.2898 603.531 65.6903 603.048 65.2358C602.565 64.7756 601.943 64.5455 601.181 64.5455C600.659 64.5455 600.17 64.6847 599.716 64.9631C599.267 65.2415 598.903 65.6278 598.625 66.1222C598.352 66.6108 598.216 67.1761 598.216 67.8182V76H596.204ZM620.064 73.6136L619.927 74.5341C619.831 75.1818 619.683 75.875 619.484 76.6136C619.291 77.3523 619.089 78.0483 618.879 78.7017C618.669 79.3551 618.495 79.875 618.359 80.2614H616.825C616.899 79.8977 616.995 79.4176 617.115 78.821C617.234 78.2244 617.353 77.5568 617.473 76.8182C617.598 76.0852 617.7 75.3352 617.779 74.5682L617.882 73.6136H620.064ZM641.245 62.9091L636.404 76H634.358L629.517 62.9091H631.699L635.313 73.3409H635.449L639.063 62.9091H641.245ZM654.067 61.9205H655.942C655.942 63.2159 655.658 64.2443 655.09 65.0057C654.527 65.767 653.539 66.1477 652.124 66.1477V64.7159C652.692 64.7159 653.113 64.5994 653.385 64.3665C653.664 64.1335 653.846 63.8068 653.931 63.3864C654.022 62.9659 654.067 62.4773 654.067 61.9205ZM648.749 76.2727C647.567 76.2727 646.53 75.9915 645.638 75.429C644.752 74.8665 644.059 74.0795 643.559 73.0682C643.064 72.0568 642.817 70.875 642.817 69.5227C642.817 68.1591 643.064 66.9687 643.559 65.9517C644.059 64.9347 644.752 64.1449 645.638 63.5824C646.53 63.0199 647.567 62.7386 648.749 62.7386C649.931 62.7386 650.965 63.0199 651.851 63.5824C652.743 64.1449 653.436 64.9347 653.931 65.9517C654.431 66.9687 654.681 68.1591 654.681 69.5227C654.681 70.875 654.431 72.0568 653.931 73.0682C653.436 74.0795 652.743 74.8665 651.851 75.429C650.965 75.9915 649.931 76.2727 648.749 76.2727ZM648.749 74.4659C649.647 74.4659 650.385 74.2358 650.965 73.7756C651.544 73.3153 651.973 72.7102 652.252 71.9602C652.53 71.2102 652.669 70.3977 652.669 69.5227C652.669 68.6477 652.53 67.8324 652.252 67.0767C651.973 66.321 651.544 65.7102 650.965 65.2443C650.385 64.7784 649.647 64.5455 648.749 64.5455C647.851 64.5455 647.113 64.7784 646.533 65.2443C645.953 65.7102 645.525 66.321 645.246 67.0767C644.968 67.8324 644.828 68.6477 644.828 69.5227C644.828 70.3977 644.968 71.2102 645.246 71.9602C645.525 72.7102 645.953 73.3153 646.533 73.7756C647.113 74.2358 647.851 74.4659 648.749 74.4659ZM647.828 61.1364L649.908 57.1818H652.26L649.601 61.1364H647.828ZM657.775 76V62.9091H659.786V76H657.775ZM658.797 60.7273C658.405 60.7273 658.067 60.5938 657.783 60.3267C657.505 60.0597 657.365 59.7386 657.365 59.3636C657.365 58.9886 657.505 58.6676 657.783 58.4006C658.067 58.1335 658.405 58 658.797 58C659.189 58 659.525 58.1335 659.803 58.4006C660.087 58.6676 660.229 58.9886 660.229 59.3636C660.229 59.7386 660.087 60.0597 659.803 60.3267C659.525 60.5938 659.189 60.7273 658.797 60.7273ZM675.913 62.9091V64.6136H669.129V62.9091H675.913ZM671.106 59.7727H673.118V72.25C673.118 72.8182 673.2 73.2443 673.365 73.5284C673.535 73.8068 673.751 73.9943 674.012 74.0909C674.279 74.1818 674.561 74.2273 674.856 74.2273C675.078 74.2273 675.26 74.2159 675.402 74.1932C675.544 74.1648 675.657 74.142 675.743 74.125L676.152 75.9318C676.015 75.983 675.825 76.0341 675.581 76.0852C675.336 76.142 675.027 76.1705 674.652 76.1705C674.083 76.1705 673.527 76.0483 672.981 75.804C672.441 75.5597 671.993 75.1875 671.635 74.6875C671.282 74.1875 671.106 73.5568 671.106 72.7955V59.7727ZM681.231 68.125V76H679.22V58.5455H681.231V64.9545H681.402C681.708 64.2784 682.169 63.7415 682.782 63.3438C683.402 62.9403 684.225 62.7386 685.254 62.7386C686.146 62.7386 686.927 62.9176 687.598 63.2756C688.268 63.6278 688.788 64.1705 689.157 64.9034C689.532 65.6307 689.72 66.5568 689.72 67.6818V76H687.708V67.8182C687.708 66.7784 687.439 65.9744 686.899 65.4062C686.365 64.8324 685.623 64.5455 684.674 64.5455C684.015 64.5455 683.424 64.6847 682.902 64.9631C682.385 65.2415 681.975 65.6477 681.674 66.1818C681.379 66.7159 681.231 67.3636 681.231 68.125ZM693.4 76V62.9091H695.411V76H693.4ZM694.422 60.7273C694.03 60.7273 693.692 60.5938 693.408 60.3267C693.13 60.0597 692.99 59.7386 692.99 59.3636C692.99 58.9886 693.13 58.6676 693.408 58.4006C693.692 58.1335 694.03 58 694.422 58C694.814 58 695.15 58.1335 695.428 58.4006C695.712 58.6676 695.854 58.9886 695.854 59.3636C695.854 59.7386 695.712 60.0597 695.428 60.3267C695.15 60.5938 694.814 60.7273 694.422 60.7273ZM694.422 80.3295C694.03 80.3295 693.692 80.196 693.408 79.929C693.13 79.6619 692.99 79.3409 692.99 78.9659C692.99 78.5909 693.13 78.2699 693.408 78.0028C693.692 77.7358 694.03 77.6023 694.422 77.6023C694.814 77.6023 695.15 77.7358 695.428 78.0028C695.712 78.2699 695.854 78.5909 695.854 78.9659C695.854 79.3409 695.712 79.6619 695.428 79.929C695.15 80.196 694.814 80.3295 694.422 80.3295ZM705.845 80.9091V62.9091H707.788V64.9886H708.027C708.174 64.7614 708.379 64.4716 708.64 64.1193C708.907 63.7614 709.288 63.4432 709.782 63.1648C710.282 62.8807 710.958 62.7386 711.811 62.7386C712.913 62.7386 713.885 63.0142 714.725 63.5653C715.566 64.1165 716.223 64.8977 716.694 65.9091C717.166 66.9205 717.402 68.1136 717.402 69.4886C717.402 70.875 717.166 72.0767 716.694 73.0938C716.223 74.1051 715.569 74.8892 714.734 75.446C713.899 75.9972 712.936 76.2727 711.845 76.2727C711.004 76.2727 710.331 76.1335 709.825 75.8551C709.319 75.571 708.93 75.25 708.657 74.892C708.385 74.5284 708.174 74.2273 708.027 73.9886H707.856V80.9091H705.845ZM707.822 69.4545C707.822 70.4432 707.967 71.3153 708.257 72.071C708.547 72.821 708.97 73.4091 709.527 73.8352C710.083 74.2557 710.765 74.4659 711.572 74.4659C712.413 74.4659 713.115 74.2443 713.677 73.8011C714.245 73.3523 714.672 72.75 714.956 71.9943C715.245 71.233 715.39 70.3864 715.39 69.4545C715.39 68.5341 715.248 67.7045 714.964 66.9659C714.686 66.2216 714.262 65.6335 713.694 65.2017C713.132 64.7642 712.424 64.5455 711.572 64.5455C710.754 64.5455 710.066 64.7528 709.51 65.1676C708.953 65.5767 708.532 66.1506 708.248 66.8892C707.964 67.6222 707.822 68.4773 707.822 69.4545ZM722.481 68.125V76H720.47V58.5455H722.481V64.9545H722.652C722.958 64.2784 723.419 63.7415 724.032 63.3438C724.652 62.9403 725.475 62.7386 726.504 62.7386C727.396 62.7386 728.177 62.9176 728.848 63.2756C729.518 63.6278 730.038 64.1705 730.407 64.9034C730.782 65.6307 730.97 66.5568 730.97 67.6818V76H728.958V67.8182C728.958 66.7784 728.689 65.9744 728.149 65.4062C727.615 64.8324 726.873 64.5455 725.924 64.5455C725.265 64.5455 724.674 64.6847 724.152 64.9631C723.635 65.2415 723.225 65.6477 722.924 66.1818C722.629 66.7159 722.481 67.3636 722.481 68.125ZM738.502 76.3068C737.672 76.3068 736.919 76.1506 736.243 75.8381C735.567 75.5199 735.03 75.0625 734.632 74.4659C734.235 73.8636 734.036 73.1364 734.036 72.2841C734.036 71.5341 734.184 70.9261 734.479 70.4602C734.775 69.9886 735.169 69.6193 735.664 69.3523C736.158 69.0852 736.703 68.8864 737.3 68.7557C737.902 68.6193 738.507 68.5114 739.115 68.4318C739.911 68.3295 740.556 68.2528 741.05 68.2017C741.55 68.1449 741.914 68.0511 742.141 67.9205C742.374 67.7898 742.49 67.5625 742.49 67.2386V67.1705C742.49 66.3295 742.26 65.6761 741.8 65.2102C741.346 64.7443 740.655 64.5114 739.729 64.5114C738.769 64.5114 738.016 64.7216 737.471 65.142C736.925 65.5625 736.542 66.0114 736.32 66.4886L734.411 65.8068C734.752 65.0114 735.206 64.392 735.775 63.9489C736.348 63.5 736.973 63.1875 737.65 63.0114C738.331 62.8295 739.002 62.7386 739.661 62.7386C740.081 62.7386 740.564 62.7898 741.11 62.892C741.661 62.9886 742.192 63.1903 742.703 63.4972C743.221 63.804 743.65 64.267 743.99 64.8864C744.331 65.5057 744.502 66.3352 744.502 67.375V76H742.49V74.2273H742.388C742.252 74.5114 742.025 74.8153 741.706 75.1392C741.388 75.4631 740.965 75.7386 740.436 75.9659C739.908 76.1932 739.263 76.3068 738.502 76.3068ZM738.809 74.5C739.604 74.5 740.275 74.3438 740.82 74.0312C741.371 73.7188 741.786 73.3153 742.064 72.821C742.348 72.3267 742.49 71.8068 742.49 71.2614V69.4205C742.405 69.5227 742.218 69.6165 741.928 69.7017C741.644 69.7812 741.314 69.8523 740.939 69.9148C740.57 69.9716 740.209 70.0227 739.857 70.0682C739.51 70.108 739.229 70.142 739.013 70.1705C738.49 70.2386 738.002 70.3494 737.547 70.5028C737.098 70.6506 736.735 70.875 736.456 71.1761C736.184 71.4716 736.047 71.875 736.047 72.3864C736.047 73.0852 736.306 73.6136 736.823 73.9716C737.346 74.3239 738.007 74.5 738.809 74.5ZM740.718 58.2045L744.195 61.3068H741.74L739.797 59.5L737.854 61.3068H735.4L738.843 58.2045H740.718ZM734.65 56.125L736.286 59.2273H734.547L732.127 56.125H734.65ZM750.184 68.125V76H748.173V62.9091H750.116V64.9545H750.287C750.593 64.2898 751.059 63.7557 751.684 63.3523C752.309 62.9432 753.116 62.7386 754.105 62.7386C754.991 62.7386 755.767 62.9205 756.431 63.2841C757.096 63.642 757.613 64.1875 757.983 64.9205C758.352 65.6477 758.537 66.5682 758.537 67.6818V76H756.525V67.8182C756.525 66.7898 756.258 65.9886 755.724 65.4148C755.19 64.8352 754.457 64.5455 753.525 64.5455C752.883 64.5455 752.309 64.6847 751.804 64.9631C751.304 65.2415 750.909 65.6477 750.619 66.1818C750.329 66.7159 750.184 67.3636 750.184 68.125ZM774.655 62.9091V64.6136H767.871V62.9091H774.655ZM769.848 59.7727H771.86V72.25C771.86 72.8182 771.942 73.2443 772.107 73.5284C772.277 73.8068 772.493 73.9943 772.755 74.0909C773.022 74.1818 773.303 74.2273 773.598 74.2273C773.82 74.2273 774.002 74.2159 774.144 74.1932C774.286 74.1648 774.4 74.142 774.485 74.125L774.894 75.9318C774.757 75.983 774.567 76.0341 774.323 76.0852C774.078 76.142 773.769 76.1705 773.394 76.1705C772.826 76.1705 772.269 76.0483 771.723 75.804C771.184 75.5597 770.735 75.1875 770.377 74.6875C770.025 74.1875 769.848 73.5568 769.848 72.7955V59.7727ZM781.533 76.3068C780.703 76.3068 779.951 76.1506 779.275 75.8381C778.598 75.5199 778.061 75.0625 777.664 74.4659C777.266 73.8636 777.067 73.1364 777.067 72.2841C777.067 71.5341 777.215 70.9261 777.51 70.4602C777.806 69.9886 778.201 69.6193 778.695 69.3523C779.189 69.0852 779.735 68.8864 780.331 68.7557C780.934 68.6193 781.539 68.5114 782.147 68.4318C782.942 68.3295 783.587 68.2528 784.081 68.2017C784.581 68.1449 784.945 68.0511 785.172 67.9205C785.405 67.7898 785.522 67.5625 785.522 67.2386V67.1705C785.522 66.3295 785.292 65.6761 784.831 65.2102C784.377 64.7443 783.686 64.5114 782.76 64.5114C781.8 64.5114 781.047 64.7216 780.502 65.142C779.956 65.5625 779.573 66.0114 779.351 66.4886L777.442 65.8068C777.783 65.0114 778.238 64.392 778.806 63.9489C779.38 63.5 780.005 63.1875 780.681 63.0114C781.363 62.8295 782.033 62.7386 782.692 62.7386C783.113 62.7386 783.596 62.7898 784.141 62.892C784.692 62.9886 785.223 63.1903 785.735 63.4972C786.252 63.804 786.681 64.267 787.022 64.8864C787.363 65.5057 787.533 66.3352 787.533 67.375V76H785.522V74.2273H785.419C785.283 74.5114 785.056 74.8153 784.738 75.1392C784.419 75.4631 783.996 75.7386 783.468 75.9659C782.939 76.1932 782.294 76.3068 781.533 76.3068ZM781.84 74.5C782.635 74.5 783.306 74.3438 783.851 74.0312C784.402 73.7188 784.817 73.3153 785.096 72.821C785.38 72.3267 785.522 71.8068 785.522 71.2614V69.4205C785.436 69.5227 785.249 69.6165 784.959 69.7017C784.675 69.7812 784.346 69.8523 783.971 69.9148C783.601 69.9716 783.24 70.0227 782.888 70.0682C782.542 70.108 782.26 70.142 782.044 70.1705C781.522 70.2386 781.033 70.3494 780.578 70.5028C780.13 70.6506 779.766 70.875 779.488 71.1761C779.215 71.4716 779.078 71.875 779.078 72.3864C779.078 73.0852 779.337 73.6136 779.854 73.9716C780.377 74.3239 781.039 74.5 781.84 74.5ZM784.499 58.5455H786.374C786.374 59.4659 786.056 60.2188 785.419 60.804C784.783 61.3892 783.919 61.6818 782.828 61.6818C781.755 61.6818 780.9 61.3892 780.263 60.804C779.632 60.2188 779.317 59.4659 779.317 58.5455H781.192C781.192 58.9886 781.314 59.3778 781.559 59.7131C781.809 60.0483 782.232 60.2159 782.828 60.2159C783.425 60.2159 783.851 60.0483 784.107 59.7131C784.368 59.3778 784.499 58.9886 784.499 58.5455ZM793.216 68.125V76H791.204V62.9091H793.147V64.9545H793.318C793.625 64.2898 794.091 63.7557 794.716 63.3523C795.341 62.9432 796.147 62.7386 797.136 62.7386C798.022 62.7386 798.798 62.9205 799.463 63.2841C800.127 63.642 800.645 64.1875 801.014 64.9205C801.383 65.6477 801.568 66.5682 801.568 67.6818V76H799.556V67.8182C799.556 66.7898 799.289 65.9886 798.755 65.4148C798.221 64.8352 797.488 64.5455 796.556 64.5455C795.914 64.5455 795.341 64.6847 794.835 64.9631C794.335 65.2415 793.94 65.6477 793.65 66.1818C793.36 66.7159 793.216 67.3636 793.216 68.125ZM810.527 81.1818C809.556 81.1818 808.721 81.0568 808.022 80.8068C807.323 80.5625 806.74 80.2386 806.275 79.8352C805.814 79.4375 805.448 79.0114 805.175 78.5568L806.777 77.4318C806.959 77.6705 807.189 77.9432 807.468 78.25C807.746 78.5625 808.127 78.8324 808.61 79.0597C809.098 79.2926 809.738 79.4091 810.527 79.4091C811.584 79.4091 812.456 79.1534 813.144 78.642C813.831 78.1307 814.175 77.3295 814.175 76.2386V73.5795H814.005C813.857 73.8182 813.647 74.1136 813.374 74.4659C813.107 74.8125 812.721 75.1222 812.215 75.3949C811.715 75.6619 811.039 75.7955 810.186 75.7955C809.13 75.7955 808.181 75.5455 807.34 75.0455C806.505 74.5455 805.843 73.8182 805.354 72.8636C804.871 71.9091 804.63 70.75 804.63 69.3864C804.63 68.0455 804.865 66.8778 805.337 65.8835C805.809 64.8835 806.465 64.1108 807.306 63.5653C808.147 63.0142 809.118 62.7386 810.221 62.7386C811.073 62.7386 811.749 62.8807 812.249 63.1648C812.755 63.4432 813.141 63.7614 813.408 64.1193C813.681 64.4716 813.891 64.7614 814.039 64.9886H814.243V62.9091H816.186V76.375C816.186 77.5 815.931 78.4148 815.419 79.1193C814.914 79.8295 814.232 80.3494 813.374 80.679C812.522 81.0142 811.573 81.1818 810.527 81.1818ZM810.459 73.9886C811.266 73.9886 811.948 73.804 812.505 73.4347C813.061 73.0653 813.485 72.5341 813.775 71.8409C814.064 71.1477 814.209 70.3182 814.209 69.3523C814.209 68.4091 814.067 67.5767 813.783 66.8551C813.499 66.1335 813.078 65.5682 812.522 65.1591C811.965 64.75 811.277 64.5455 810.459 64.5455C809.607 64.5455 808.897 64.7614 808.328 65.1932C807.766 65.625 807.343 66.2045 807.059 66.9318C806.78 67.6591 806.641 68.4659 806.641 69.3523C806.641 70.2614 806.783 71.0653 807.067 71.7642C807.357 72.4574 807.783 73.0028 808.346 73.4006C808.914 73.7926 809.618 73.9886 810.459 73.9886ZM828.63 58.5455V76H826.618V58.5455H828.63ZM837.802 76.2727C836.541 76.2727 835.453 75.9943 834.538 75.4375C833.629 74.875 832.927 74.0909 832.433 73.0852C831.944 72.0739 831.7 70.8977 831.7 69.5568C831.7 68.2159 831.944 67.0341 832.433 66.0114C832.927 64.983 833.615 64.1818 834.495 63.608C835.382 63.0284 836.416 62.7386 837.598 62.7386C838.279 62.7386 838.953 62.8523 839.618 63.0795C840.282 63.3068 840.887 63.6761 841.433 64.1875C841.978 64.6932 842.413 65.3636 842.737 66.1989C843.061 67.0341 843.223 68.0625 843.223 69.2841V70.1364H833.132V68.3977H841.177C841.177 67.6591 841.029 67 840.734 66.4205C840.444 65.8409 840.029 65.3835 839.49 65.0483C838.956 64.7131 838.325 64.5455 837.598 64.5455C836.797 64.5455 836.103 64.7443 835.518 65.142C834.939 65.5341 834.493 66.0455 834.18 66.6761C833.868 67.3068 833.711 67.983 833.711 68.7045V69.8636C833.711 70.8523 833.882 71.6903 834.223 72.3778C834.569 73.0597 835.049 73.5795 835.663 73.9375C836.277 74.2898 836.99 74.4659 837.802 74.4659C838.331 74.4659 838.808 74.392 839.234 74.2443C839.666 74.0909 840.038 73.8636 840.35 73.5625C840.663 73.2557 840.904 72.875 841.075 72.4205L843.018 72.9659C842.814 73.625 842.47 74.2045 841.987 74.7045C841.504 75.1989 840.907 75.5852 840.197 75.8636C839.487 76.1364 838.689 76.2727 837.802 76.2727ZM839.268 61.3409L837.495 58.9545L835.723 61.3409H833.814V61.2045L836.575 57.6591H838.416L841.177 61.2045V61.3409H839.268ZM848.294 68.125V76H846.282V62.9091H848.225V64.9545H848.396C848.703 64.2898 849.169 63.7557 849.794 63.3523C850.419 62.9432 851.225 62.7386 852.214 62.7386C853.1 62.7386 853.876 62.9205 854.541 63.2841C855.206 63.642 855.723 64.1875 856.092 64.9205C856.461 65.6477 856.646 66.5682 856.646 67.6818V76H854.635V67.8182C854.635 66.7898 854.368 65.9886 853.833 65.4148C853.299 64.8352 852.566 64.5455 851.635 64.5455C850.993 64.5455 850.419 64.6847 849.913 64.9631C849.413 65.2415 849.018 65.6477 848.728 66.1818C848.439 66.7159 848.294 67.3636 848.294 68.125ZM872.355 81.1818C871.384 81.1818 870.549 81.0568 869.85 80.8068C869.151 80.5625 868.569 80.2386 868.103 79.8352C867.642 79.4375 867.276 79.0114 867.003 78.5568L868.605 77.4318C868.787 77.6705 869.017 77.9432 869.296 78.25C869.574 78.5625 869.955 78.8324 870.438 79.0597C870.926 79.2926 871.566 79.4091 872.355 79.4091C873.412 79.4091 874.284 79.1534 874.972 78.642C875.659 78.1307 876.003 77.3295 876.003 76.2386V73.5795H875.833C875.685 73.8182 875.475 74.1136 875.202 74.4659C874.935 74.8125 874.549 75.1222 874.043 75.3949C873.543 75.6619 872.867 75.7955 872.015 75.7955C870.958 75.7955 870.009 75.5455 869.168 75.0455C868.333 74.5455 867.671 73.8182 867.182 72.8636C866.699 71.9091 866.458 70.75 866.458 69.3864C866.458 68.0455 866.694 66.8778 867.165 65.8835C867.637 64.8835 868.293 64.1108 869.134 63.5653C869.975 63.0142 870.946 62.7386 872.049 62.7386C872.901 62.7386 873.577 62.8807 874.077 63.1648C874.583 63.4432 874.969 63.7614 875.236 64.1193C875.509 64.4716 875.719 64.7614 875.867 64.9886H876.071V62.9091H878.015V76.375C878.015 77.5 877.759 78.4148 877.248 79.1193C876.742 79.8295 876.06 80.3494 875.202 80.679C874.35 81.0142 873.401 81.1818 872.355 81.1818ZM872.287 73.9886C873.094 73.9886 873.776 73.804 874.333 73.4347C874.89 73.0653 875.313 72.5341 875.603 71.8409C875.892 71.1477 876.037 70.3182 876.037 69.3523C876.037 68.4091 875.895 67.5767 875.611 66.8551C875.327 66.1335 874.907 65.5682 874.35 65.1591C873.793 64.75 873.105 64.5455 872.287 64.5455C871.435 64.5455 870.725 64.7614 870.157 65.1932C869.594 65.625 869.171 66.2045 868.887 66.9318C868.608 67.6591 868.469 68.4659 868.469 69.3523C868.469 70.2614 868.611 71.0653 868.895 71.7642C869.185 72.4574 869.611 73.0028 870.174 73.4006C870.742 73.7926 871.446 73.9886 872.287 73.9886ZM885.549 76.3068C884.719 76.3068 883.966 76.1506 883.29 75.8381C882.614 75.5199 882.077 75.0625 881.679 74.4659C881.282 73.8636 881.083 73.1364 881.083 72.2841C881.083 71.5341 881.23 70.9261 881.526 70.4602C881.821 69.9886 882.216 69.6193 882.711 69.3523C883.205 69.0852 883.75 68.8864 884.347 68.7557C884.949 68.6193 885.554 68.5114 886.162 68.4318C886.958 68.3295 887.603 68.2528 888.097 68.2017C888.597 68.1449 888.961 68.0511 889.188 67.9205C889.421 67.7898 889.537 67.5625 889.537 67.2386V67.1705C889.537 66.3295 889.307 65.6761 888.847 65.2102C888.392 64.7443 887.702 64.5114 886.776 64.5114C885.816 64.5114 885.063 64.7216 884.517 65.142C883.972 65.5625 883.588 66.0114 883.367 66.4886L881.458 65.8068C881.799 65.0114 882.253 64.392 882.821 63.9489C883.395 63.5 884.02 63.1875 884.696 63.0114C885.378 62.8295 886.049 62.7386 886.708 62.7386C887.128 62.7386 887.611 62.7898 888.157 62.892C888.708 62.9886 889.239 63.1903 889.75 63.4972C890.267 63.804 890.696 64.267 891.037 64.8864C891.378 65.5057 891.549 66.3352 891.549 67.375V76H889.537V74.2273H889.435C889.299 74.5114 889.071 74.8153 888.753 75.1392C888.435 75.4631 888.012 75.7386 887.483 75.9659C886.955 76.1932 886.31 76.3068 885.549 76.3068ZM885.855 74.5C886.651 74.5 887.321 74.3438 887.867 74.0312C888.418 73.7188 888.833 73.3153 889.111 72.821C889.395 72.3267 889.537 71.8068 889.537 71.2614V69.4205C889.452 69.5227 889.265 69.6165 888.975 69.7017C888.691 69.7812 888.361 69.8523 887.986 69.9148C887.617 69.9716 887.256 70.0227 886.904 70.0682C886.557 70.108 886.276 70.142 886.06 70.1705C885.537 70.2386 885.049 70.3494 884.594 70.5028C884.145 70.6506 883.782 70.875 883.503 71.1761C883.23 71.4716 883.094 71.875 883.094 72.3864C883.094 73.0852 883.353 73.6136 883.87 73.9716C884.392 74.3239 885.054 74.5 885.855 74.5ZM887.765 58.2045L891.242 61.3068H888.787L886.844 59.5L884.901 61.3068H882.446L885.89 58.2045H887.765ZM881.696 56.125L883.333 59.2273H881.594L879.174 56.125H881.696ZM897.231 68.125V76H895.22V62.9091H897.163V64.9545H897.333C897.64 64.2898 898.106 63.7557 898.731 63.3523C899.356 62.9432 900.163 62.7386 901.152 62.7386C902.038 62.7386 902.814 62.9205 903.478 63.2841C904.143 63.642 904.66 64.1875 905.029 64.9205C905.399 65.6477 905.583 66.5682 905.583 67.6818V76H903.572V67.8182C903.572 66.7898 903.305 65.9886 902.771 65.4148C902.237 64.8352 901.504 64.5455 900.572 64.5455C899.93 64.5455 899.356 64.6847 898.85 64.9631C898.35 65.2415 897.956 65.6477 897.666 66.1818C897.376 66.7159 897.231 67.3636 897.231 68.125ZM921.532 58.3068C922.248 58.3125 922.963 58.4489 923.679 58.7159C924.395 58.983 925.049 59.4261 925.64 60.0455C926.23 60.6591 926.705 61.4972 927.063 62.5597C927.421 63.6222 927.6 64.9545 927.6 66.5568C927.6 68.108 927.452 69.4858 927.157 70.6903C926.867 71.8892 926.446 72.9006 925.895 73.7244C925.35 74.5483 924.685 75.1733 923.901 75.5994C923.123 76.0256 922.242 76.2386 921.259 76.2386C920.282 76.2386 919.409 76.0455 918.642 75.6591C917.881 75.267 917.256 74.7244 916.767 74.0312C916.284 73.3324 915.975 72.5227 915.838 71.6023H917.918C918.105 72.4034 918.478 73.0653 919.034 73.5881C919.597 74.1051 920.338 74.3636 921.259 74.3636C922.605 74.3636 923.668 73.7756 924.446 72.5994C925.23 71.4233 925.623 69.7614 925.623 67.6136H925.486C925.168 68.0909 924.79 68.5028 924.353 68.8494C923.915 69.196 923.429 69.4631 922.895 69.6506C922.361 69.8381 921.793 69.9318 921.191 69.9318C920.191 69.9318 919.273 69.6847 918.438 69.1903C917.608 68.6903 916.944 68.0057 916.444 67.1364C915.949 66.2614 915.702 65.2614 915.702 64.1364C915.702 63.0682 915.941 62.0909 916.418 61.2045C916.901 60.3125 917.577 59.6023 918.446 59.0739C919.321 58.5455 920.35 58.2898 921.532 58.3068ZM921.532 60.1818C920.816 60.1818 920.171 60.3608 919.597 60.7188C919.029 61.071 918.577 61.5483 918.242 62.1506C917.912 62.7472 917.748 63.4091 917.748 64.1364C917.748 64.8636 917.907 65.5256 918.225 66.1222C918.549 66.7131 918.989 67.1847 919.546 67.5369C920.108 67.8835 920.748 68.0568 921.463 68.0568C922.003 68.0568 922.506 67.9517 922.972 67.7415C923.438 67.5256 923.844 67.233 924.191 66.8636C924.543 66.4886 924.819 66.0653 925.017 65.5938C925.216 65.1165 925.316 64.6193 925.316 64.1023C925.316 63.4205 925.151 62.7812 924.821 62.1847C924.498 61.5881 924.049 61.1051 923.475 60.7358C922.907 60.3665 922.259 60.1818 921.532 60.1818ZM939.849 72.7273V71.8068C939.849 71.1705 939.98 70.5881 940.241 70.0597C940.508 69.5256 940.895 69.0994 941.4 68.7812C941.912 68.4574 942.531 68.2955 943.258 68.2955C943.997 68.2955 944.616 68.4574 945.116 68.7812C945.616 69.0994 945.994 69.5256 946.25 70.0597C946.505 70.5881 946.633 71.1705 946.633 71.8068V72.7273C946.633 73.3636 946.502 73.9489 946.241 74.483C945.985 75.0114 945.605 75.4375 945.099 75.7614C944.599 76.0795 943.985 76.2386 943.258 76.2386C942.52 76.2386 941.897 76.0795 941.392 75.7614C940.886 75.4375 940.502 75.0114 940.241 74.483C939.98 73.9489 939.849 73.3636 939.849 72.7273ZM941.588 71.8068V72.7273C941.588 73.2557 941.713 73.7301 941.963 74.1506C942.213 74.5653 942.645 74.7727 943.258 74.7727C943.855 74.7727 944.275 74.5653 944.52 74.1506C944.77 73.7301 944.895 73.2557 944.895 72.7273V71.8068C944.895 71.2784 944.775 70.8068 944.537 70.392C944.298 69.9716 943.872 69.7614 943.258 69.7614C942.662 69.7614 942.233 69.9716 941.971 70.392C941.716 70.8068 941.588 71.2784 941.588 71.8068ZM931.156 62.7386V61.8182C931.156 61.1818 931.287 60.5994 931.548 60.071C931.815 59.5369 932.201 59.1108 932.707 58.7926C933.218 58.4687 933.838 58.3068 934.565 58.3068C935.304 58.3068 935.923 58.4687 936.423 58.7926C936.923 59.1108 937.301 59.5369 937.556 60.071C937.812 60.5994 937.94 61.1818 937.94 61.8182V62.7386C937.94 63.375 937.809 63.9602 937.548 64.4943C937.292 65.0227 936.912 65.4489 936.406 65.7727C935.906 66.0909 935.292 66.25 934.565 66.25C933.826 66.25 933.204 66.0909 932.699 65.7727C932.193 65.4489 931.809 65.0227 931.548 64.4943C931.287 63.9602 931.156 63.375 931.156 62.7386ZM932.895 61.8182V62.7386C932.895 63.267 933.02 63.7415 933.27 64.1619C933.52 64.5767 933.951 64.7841 934.565 64.7841C935.162 64.7841 935.582 64.5767 935.826 64.1619C936.076 63.7415 936.201 63.267 936.201 62.7386V61.8182C936.201 61.2898 936.082 60.8182 935.843 60.4034C935.605 59.983 935.179 59.7727 934.565 59.7727C933.968 59.7727 933.539 59.983 933.278 60.4034C933.022 60.8182 932.895 61.2898 932.895 61.8182ZM931.804 76L943.804 58.5455H945.747L933.747 76H931.804Z" fill="#24408E"/>
</svg>
