<svg width="100%" viewBox="0 0 351 54" fill="none" xmlns="http://www.w3.org/2000/svg">
<mask id="path-1-inside-1_2079_2475" fill="white">
<path d="M0 0H351V54H0V0Z"/>
</mask>
<path d="M0 0H351V54H0V0Z" fill="#24CBFF" fill-opacity="0.2"/>
<path d="M351 51H0V57H351V51Z" fill="#24CBFF" mask="url(#path-1-inside-1_2079_2475)"/>
<path d="M109.32 22.6094V20.9091H119.451V22.6094H115.367V34H113.398V22.6094H109.32ZM121.249 34H119.153L123.863 20.9091H126.145L130.856 34H128.76L125.059 23.2869H124.956L121.249 34ZM121.601 28.8736H128.402V30.5355H121.601V28.8736ZM126.26 17.5852H127.833C127.833 18.3054 127.577 18.8913 127.066 19.343C126.559 19.7905 125.873 20.0142 125.008 20.0142C124.147 20.0142 123.463 19.7905 122.956 19.343C122.449 18.8913 122.195 18.3054 122.195 17.5852H123.761C123.761 17.9048 123.855 18.1882 124.042 18.4354C124.23 18.6783 124.552 18.7997 125.008 18.7997C125.455 18.7997 125.775 18.6783 125.966 18.4354C126.162 18.1925 126.26 17.9091 126.26 17.5852ZM143.313 20.9091V34H141.498L134.843 24.3991H134.722V34H132.747V20.9091H134.575L141.235 30.5227H141.357V20.9091H143.313ZM155.053 25.0447C154.93 24.657 154.764 24.3097 154.555 24.0028C154.35 23.6918 154.105 23.4276 153.82 23.2102C153.534 22.9886 153.208 22.8203 152.842 22.7053C152.48 22.5902 152.081 22.5327 151.646 22.5327C150.909 22.5327 150.244 22.7223 149.652 23.1016C149.06 23.4808 148.591 24.0369 148.246 24.7699C147.905 25.4986 147.735 26.3913 147.735 27.4482C147.735 28.5092 147.907 29.4062 148.252 30.1392C148.597 30.8722 149.07 31.4283 149.671 31.8075C150.272 32.1868 150.956 32.3764 151.723 32.3764C152.435 32.3764 153.055 32.2315 153.583 31.9418C154.116 31.652 154.527 31.2429 154.817 30.7145C155.111 30.1818 155.258 29.5554 155.258 28.8352L155.769 28.9311H152.024V27.3011H157.169V28.7905C157.169 29.8899 156.935 30.8445 156.466 31.6541C156.002 32.4595 155.358 33.0817 154.536 33.5206C153.718 33.9595 152.78 34.179 151.723 34.179C150.539 34.179 149.499 33.9062 148.604 33.3608C147.713 32.8153 147.019 32.0419 146.52 31.0405C146.021 30.0348 145.772 28.8416 145.772 27.4609C145.772 26.4169 145.917 25.4794 146.207 24.6484C146.497 23.8175 146.904 23.1122 147.428 22.5327C147.956 21.9489 148.576 21.5036 149.288 21.1967C150.004 20.8857 150.786 20.7301 151.634 20.7301C152.341 20.7301 152.999 20.8345 153.609 21.0433C154.222 21.2521 154.768 21.5483 155.245 21.9318C155.727 22.3153 156.125 22.7713 156.441 23.2997C156.756 23.8239 156.969 24.4055 157.08 25.0447H155.053ZM163.795 22.6094V20.9091H173.926V22.6094H169.841V34H167.873V22.6094H163.795ZM176.165 34V20.9091H180.831C181.845 20.9091 182.687 21.0838 183.356 21.4332C184.029 21.7827 184.532 22.2663 184.864 22.8842C185.197 23.4979 185.363 24.2074 185.363 25.0128C185.363 25.8139 185.195 26.5192 184.858 27.1286C184.526 27.7337 184.023 28.2045 183.349 28.5412C182.68 28.8778 181.839 29.0462 180.825 29.0462H177.29V27.3459H180.646C181.285 27.3459 181.805 27.2543 182.205 27.071C182.61 26.8878 182.906 26.6214 183.094 26.272C183.281 25.9226 183.375 25.5028 183.375 25.0128C183.375 24.5185 183.279 24.0902 183.087 23.728C182.9 23.3658 182.604 23.0888 182.199 22.897C181.798 22.701 181.272 22.603 180.62 22.603H178.14V34H176.165ZM182.627 28.0938L185.862 34H183.612L180.441 28.0938H182.627ZM199.56 20.2251H201.138C201.138 21.0732 201.015 21.7891 200.768 22.3729C200.525 22.9567 200.124 23.402 199.566 23.7088C199.012 24.0114 198.268 24.1626 197.335 24.1626V22.8459C197.949 22.8459 198.415 22.7457 198.735 22.5455C199.059 22.3409 199.276 22.0447 199.387 21.657C199.502 21.2649 199.56 20.7876 199.56 20.2251ZM196.185 20.9091H198.166V29.5192C198.166 30.4354 197.951 31.2472 197.521 31.9545C197.09 32.6577 196.485 33.2116 195.705 33.6165C194.925 34.017 194.011 34.2173 192.963 34.2173C191.919 34.2173 191.007 34.017 190.227 33.6165C189.447 33.2116 188.842 32.6577 188.412 31.9545C187.982 31.2472 187.766 30.4354 187.766 29.5192V20.9091H189.741V29.3594C189.741 29.9517 189.871 30.478 190.131 30.9382C190.396 31.3984 190.768 31.7607 191.25 32.0249C191.732 32.2848 192.303 32.4148 192.963 32.4148C193.628 32.4148 194.201 32.2848 194.683 32.0249C195.168 31.7607 195.539 31.3984 195.795 30.9382C196.055 30.478 196.185 29.9517 196.185 29.3594V20.9091ZM213.712 20.0653H215.297C215.297 21.2457 215.016 22.1598 214.453 22.8075C213.891 23.4553 213.036 23.7791 211.89 23.7791V22.4751C212.538 22.4751 213.002 22.2642 213.283 21.8423C213.569 21.4162 213.712 20.8239 213.712 20.0653ZM214.185 27.4545C214.185 28.8523 213.929 30.054 213.418 31.0597C212.906 32.0611 212.205 32.8324 211.315 33.3736C210.428 33.9105 209.42 34.179 208.291 34.179C207.158 34.179 206.146 33.9105 205.255 33.3736C204.369 32.8324 203.67 32.0589 203.158 31.0533C202.647 30.0476 202.391 28.848 202.391 27.4545C202.391 26.0568 202.647 24.8572 203.158 23.8558C203.67 22.8501 204.369 22.0788 205.255 21.5419C206.146 21.0007 207.158 20.7301 208.291 20.7301C209.42 20.7301 210.428 21.0007 211.315 21.5419C212.205 22.0788 212.906 22.8501 213.418 23.8558C213.929 24.8572 214.185 26.0568 214.185 27.4545ZM212.229 27.4545C212.229 26.3892 212.056 25.4922 211.711 24.7635C211.37 24.0305 210.901 23.4766 210.305 23.1016C209.712 22.7223 209.041 22.5327 208.291 22.5327C207.537 22.5327 206.864 22.7223 206.271 23.1016C205.679 23.4766 205.21 24.0305 204.865 24.7635C204.524 25.4922 204.354 26.3892 204.354 27.4545C204.354 28.5199 204.524 29.419 204.865 30.152C205.21 30.8807 205.679 31.4347 206.271 31.8139C206.864 32.1889 207.537 32.3764 208.291 32.3764C209.041 32.3764 209.712 32.1889 210.305 31.8139C210.901 31.4347 211.37 30.8807 211.711 30.152C212.056 29.419 212.229 28.5199 212.229 27.4545ZM209.071 19.554H207.562L207.511 18.25C207.963 18.2287 208.283 18.169 208.47 18.071C208.658 17.9687 208.749 17.8217 208.745 17.63C208.749 17.3999 208.619 17.2358 208.355 17.1378C208.095 17.0398 207.778 16.9908 207.403 16.9908L207.46 15.9361C208.428 15.9361 209.161 16.0895 209.659 16.3963C210.162 16.7031 210.411 17.1165 210.407 17.6364C210.411 18.0582 210.273 18.3693 209.991 18.5696C209.714 18.7656 209.408 18.8892 209.071 18.9403V19.554ZM227.547 20.9091V34H225.732L219.078 24.3991H218.956V34H216.981V20.9091H218.809L225.47 30.5227H225.591V20.9091H227.547ZM239.288 25.0447C239.164 24.657 238.998 24.3097 238.789 24.0028C238.585 23.6918 238.34 23.4276 238.054 23.2102C237.769 22.9886 237.443 22.8203 237.076 22.7053C236.714 22.5902 236.316 22.5327 235.881 22.5327C235.144 22.5327 234.479 22.7223 233.887 23.1016C233.294 23.4808 232.825 24.0369 232.48 24.7699C232.139 25.4986 231.969 26.3913 231.969 27.4482C231.969 28.5092 232.142 29.4062 232.487 30.1392C232.832 30.8722 233.305 31.4283 233.906 31.8075C234.507 32.1868 235.191 32.3764 235.958 32.3764C236.669 32.3764 237.289 32.2315 237.818 31.9418C238.35 31.652 238.762 31.2429 239.051 30.7145C239.345 30.1818 239.492 29.5554 239.492 28.8352L240.004 28.9311H236.258V27.3011H241.404V28.7905C241.404 29.8899 241.169 30.8445 240.7 31.6541C240.236 32.4595 239.593 33.0817 238.77 33.5206C237.952 33.9595 237.014 34.179 235.958 34.179C234.773 34.179 233.733 33.9062 232.838 33.3608C231.948 32.8153 231.253 32.0419 230.754 31.0405C230.256 30.0348 230.007 28.8416 230.007 27.4609C230.007 26.4169 230.151 25.4794 230.441 24.6484C230.731 23.8175 231.138 23.1122 231.662 22.5327C232.191 21.9489 232.811 21.5036 233.522 21.1967C234.238 20.8857 235.02 20.7301 235.868 20.7301C236.575 20.7301 237.234 20.8345 237.843 21.0433C238.457 21.2521 239.002 21.5483 239.48 21.9318C239.961 22.3153 240.36 22.7713 240.675 23.2997C240.99 23.8239 241.203 24.4055 241.314 25.0447H239.288Z" fill="#24408E"/>
</svg>
