<svg width="100%" viewBox="0 0 1298 77" fill="none" xmlns="http://www.w3.org/2000/svg">
<mask id="path-1-inside-1_49_1306" fill="white">
<path d="M0 0H1298V77H0V0Z"/>
</mask>
<path d="M0 0H1298V77H0V0Z" fill="#4986E8" fill-opacity="0.2"/>
<path d="M0 3H1298V-3H0V3Z" fill="#4986E8" mask="url(#path-1-inside-1_49_1306)"/>
<path d="M501.566 34.1307C501.475 33.3239 501.1 32.6989 500.441 32.2557C499.782 31.8068 498.953 31.5824 497.953 31.5824C497.237 31.5824 496.618 31.696 496.095 31.9233C495.572 32.1449 495.166 32.4517 494.876 32.8438C494.592 33.2301 494.45 33.6705 494.45 34.1648C494.45 34.5795 494.547 34.9375 494.74 35.2386C494.939 35.5398 495.197 35.7926 495.515 35.9972C495.839 36.196 496.186 36.3636 496.555 36.5C496.924 36.6307 497.279 36.7386 497.62 36.8239L499.325 37.267C499.882 37.4034 500.453 37.5881 501.038 37.821C501.623 38.054 502.166 38.3608 502.666 38.7415C503.166 39.1222 503.569 39.5938 503.876 40.1562C504.189 40.7188 504.345 41.392 504.345 42.1761C504.345 43.1648 504.089 44.0426 503.578 44.8097C503.072 45.5767 502.336 46.1818 501.37 46.625C500.41 47.0682 499.248 47.2898 497.885 47.2898C496.578 47.2898 495.447 47.0824 494.493 46.6676C493.538 46.2528 492.791 45.6648 492.251 44.9034C491.711 44.1364 491.413 43.2273 491.356 42.1761H493.998C494.049 42.8068 494.254 43.3324 494.612 43.7528C494.975 44.1676 495.439 44.4773 496.001 44.6818C496.569 44.8807 497.191 44.9801 497.868 44.9801C498.612 44.9801 499.274 44.8636 499.853 44.6307C500.439 44.392 500.899 44.0625 501.234 43.642C501.569 43.2159 501.737 42.7187 501.737 42.1506C501.737 41.6335 501.589 41.2102 501.294 40.8807C501.004 40.5511 500.609 40.2784 500.109 40.0625C499.615 39.8466 499.055 39.6562 498.43 39.4915L496.368 38.929C494.97 38.5483 493.862 37.9886 493.044 37.25C492.231 36.5114 491.825 35.5341 491.825 34.3182C491.825 33.3125 492.098 32.4347 492.643 31.6847C493.189 30.9347 493.927 30.3523 494.859 29.9375C495.791 29.517 496.842 29.3068 498.012 29.3068C499.194 29.3068 500.237 29.5142 501.14 29.929C502.049 30.3438 502.765 30.9148 503.288 31.642C503.811 32.3636 504.083 33.1932 504.106 34.1307H501.566ZM512.801 47.2642C511.574 47.2642 510.503 46.983 509.588 46.4205C508.674 45.858 507.963 45.071 507.458 44.0597C506.952 43.0483 506.699 41.8665 506.699 40.5142C506.699 39.1562 506.952 37.9687 507.458 36.9517C507.963 35.9347 508.674 35.1449 509.588 34.5824C510.503 34.0199 511.574 33.7386 512.801 33.7386C514.029 33.7386 515.1 34.0199 516.015 34.5824C516.929 35.1449 517.64 35.9347 518.145 36.9517C518.651 37.9687 518.904 39.1562 518.904 40.5142C518.904 41.8665 518.651 43.0483 518.145 44.0597C517.64 45.071 516.929 45.858 516.015 46.4205C515.1 46.983 514.029 47.2642 512.801 47.2642ZM512.81 45.125C513.605 45.125 514.265 44.9148 514.787 44.4943C515.31 44.0739 515.696 43.5142 515.946 42.8153C516.202 42.1165 516.33 41.3466 516.33 40.5057C516.33 39.6705 516.202 38.9034 515.946 38.2045C515.696 37.5 515.31 36.9347 514.787 36.5085C514.265 36.0824 513.605 35.8693 512.81 35.8693C512.009 35.8693 511.344 36.0824 510.816 36.5085C510.293 36.9347 509.904 37.5 509.648 38.2045C509.398 38.9034 509.273 39.6705 509.273 40.5057C509.273 41.3466 509.398 42.1165 509.648 42.8153C509.904 43.5142 510.293 44.0739 510.816 44.4943C511.344 44.9148 512.009 45.125 512.81 45.125ZM508.395 32.3409L511.855 29.3835H513.756L517.225 32.3409H514.719L512.827 30.6534L510.918 32.3409H508.395ZM516.313 30.4489L518.094 27.3381H520.694L518.179 30.4489H516.313ZM528.1 47V33.9091H530.546V36.0398H530.708C530.98 35.3182 531.426 34.7557 532.046 34.3523C532.665 33.9432 533.407 33.7386 534.27 33.7386C535.145 33.7386 535.878 33.9432 536.469 34.3523C537.066 34.7614 537.506 35.3239 537.79 36.0398H537.926C538.239 35.3409 538.736 34.7841 539.418 34.3693C540.1 33.9489 540.912 33.7386 541.855 33.7386C543.043 33.7386 544.012 34.1108 544.762 34.8551C545.517 35.5994 545.895 36.7216 545.895 38.2216V47H543.347V38.4602C543.347 37.5739 543.105 36.9318 542.623 36.5341C542.14 36.1364 541.563 35.9375 540.892 35.9375C540.063 35.9375 539.418 36.1932 538.958 36.7045C538.498 37.2102 538.267 37.8608 538.267 38.6562V47H535.728V38.2983C535.728 37.5881 535.506 37.017 535.063 36.5852C534.62 36.1534 534.043 35.9375 533.333 35.9375C532.85 35.9375 532.404 36.0653 531.995 36.321C531.591 36.571 531.265 36.9205 531.015 37.3693C530.77 37.8182 530.648 38.3381 530.648 38.929V47H528.1ZM554.825 47.2642C553.598 47.2642 552.527 46.983 551.612 46.4205C550.697 45.858 549.987 45.071 549.481 44.0597C548.975 43.0483 548.723 41.8665 548.723 40.5142C548.723 39.1562 548.975 37.9687 549.481 36.9517C549.987 35.9347 550.697 35.1449 551.612 34.5824C552.527 34.0199 553.598 33.7386 554.825 33.7386C556.052 33.7386 557.123 34.0199 558.038 34.5824C558.953 35.1449 559.663 35.9347 560.169 36.9517C560.674 37.9687 560.927 39.1562 560.927 40.5142C560.927 41.8665 560.674 43.0483 560.169 44.0597C559.663 45.071 558.953 45.858 558.038 46.4205C557.123 46.983 556.052 47.2642 554.825 47.2642ZM554.833 45.125C555.629 45.125 556.288 44.9148 556.811 44.4943C557.333 44.0739 557.72 43.5142 557.97 42.8153C558.225 42.1165 558.353 41.3466 558.353 40.5057C558.353 39.6705 558.225 38.9034 557.97 38.2045C557.72 37.5 557.333 36.9347 556.811 36.5085C556.288 36.0824 555.629 35.8693 554.833 35.8693C554.032 35.8693 553.368 36.0824 552.839 36.5085C552.316 36.9347 551.927 37.5 551.672 38.2045C551.422 38.9034 551.297 39.6705 551.297 40.5057C551.297 41.3466 551.422 42.1165 551.672 42.8153C551.927 43.5142 552.316 44.0739 552.839 44.4943C553.368 44.9148 554.032 45.125 554.833 45.125ZM556.572 32.3409L554.825 30.0568L553.069 32.3409H550.768V32.2131L553.76 28.5994H555.882L558.882 32.2131V32.3409H556.572ZM554.825 51.517C554.387 51.517 554.01 51.3693 553.691 51.0739C553.373 50.7784 553.214 50.4205 553.214 50C553.214 49.5795 553.373 49.2216 553.691 48.9261C554.01 48.6307 554.387 48.483 554.825 48.483C555.268 48.483 555.646 48.6307 555.958 48.9261C556.277 49.2216 556.436 49.5795 556.436 50C556.436 50.4205 556.277 50.7784 555.958 51.0739C555.646 51.3693 555.268 51.517 554.825 51.517ZM569.882 33.9091V35.9545H562.732V33.9091H569.882ZM564.65 30.7727H567.198V43.1562C567.198 43.6506 567.272 44.0227 567.419 44.2727C567.567 44.517 567.757 44.6847 567.99 44.7756C568.229 44.8608 568.488 44.9034 568.766 44.9034C568.971 44.9034 569.15 44.8892 569.303 44.8608C569.456 44.8324 569.576 44.8097 569.661 44.7926L570.121 46.8977C569.973 46.9545 569.763 47.0114 569.49 47.0682C569.218 47.1307 568.877 47.1648 568.468 47.1705C567.797 47.1818 567.172 47.0625 566.593 46.8125C566.013 46.5625 565.544 46.1761 565.186 45.6534C564.828 45.1307 564.65 44.4744 564.65 43.6847V30.7727ZM590.252 33.9091L585.505 47H582.777L578.022 33.9091H580.757L584.073 43.983H584.209L587.516 33.9091H590.252ZM597.843 47.2642C596.554 47.2642 595.443 46.9886 594.511 46.4375C593.585 45.8807 592.869 45.0994 592.363 44.0938C591.863 43.0824 591.613 41.8977 591.613 40.5398C591.613 39.1989 591.863 38.017 592.363 36.9943C592.869 35.9716 593.574 35.1733 594.477 34.5994C595.386 34.0256 596.449 33.7386 597.664 33.7386C598.403 33.7386 599.119 33.8608 599.812 34.1051C600.505 34.3494 601.127 34.733 601.679 35.2557C602.23 35.7784 602.664 36.4574 602.983 37.2926C603.301 38.1222 603.46 39.1307 603.46 40.3182V41.2216H593.054V39.3125H600.963C600.963 38.642 600.826 38.0483 600.554 37.5312C600.281 37.0085 599.897 36.5966 599.403 36.2955C598.914 35.9943 598.341 35.8438 597.681 35.8438C596.966 35.8438 596.341 36.0199 595.806 36.3722C595.278 36.7187 594.869 37.1733 594.579 37.7358C594.295 38.2926 594.153 38.8977 594.153 39.5511V41.0426C594.153 41.9176 594.306 42.6619 594.613 43.2756C594.926 43.8892 595.36 44.358 595.917 44.6818C596.474 45 597.125 45.1591 597.869 45.1591C598.352 45.1591 598.792 45.0909 599.19 44.9545C599.588 44.8125 599.931 44.6023 600.221 44.3239C600.511 44.0455 600.733 43.7017 600.886 43.2926L603.298 43.7273C603.105 44.4375 602.758 45.0597 602.258 45.5938C601.764 46.1222 601.142 46.5341 600.392 46.8295C599.647 47.1193 598.798 47.2642 597.843 47.2642ZM598.5 29.4261L601.977 32.3835H599.463L597.571 30.696L595.67 32.3835H593.164L596.599 29.4261H598.5ZM592.295 27.3636L594.051 30.4915H592.218L589.679 27.3636H592.295ZM618.75 33.9091V35.9545H611.599V33.9091H618.75ZM613.517 30.7727H616.065V43.1562C616.065 43.6506 616.139 44.0227 616.287 44.2727C616.434 44.517 616.625 44.6847 616.858 44.7756C617.096 44.8608 617.355 44.9034 617.633 44.9034C617.838 44.9034 618.017 44.8892 618.17 44.8608C618.324 44.8324 618.443 44.8097 618.528 44.7926L618.988 46.8977C618.841 46.9545 618.63 47.0114 618.358 47.0682C618.085 47.1307 617.744 47.1648 617.335 47.1705C616.664 47.1818 616.039 47.0625 615.46 46.8125C614.88 46.5625 614.412 46.1761 614.054 45.6534C613.696 45.1307 613.517 44.4744 613.517 43.6847V30.7727ZM624.398 39.2273V47H621.85V29.5455H624.364V36.0398H624.526C624.833 35.3352 625.301 34.7756 625.932 34.3608C626.563 33.946 627.387 33.7386 628.404 33.7386C629.301 33.7386 630.086 33.9233 630.756 34.2926C631.432 34.6619 631.955 35.2131 632.324 35.946C632.699 36.6733 632.887 37.5824 632.887 38.6733V47H630.338V38.9801C630.338 38.0199 630.091 37.2756 629.597 36.7472C629.103 36.2131 628.415 35.946 627.534 35.946C626.932 35.946 626.392 36.0739 625.915 36.3295C625.444 36.5852 625.071 36.9602 624.799 37.4545C624.532 37.9432 624.398 38.5341 624.398 39.2273ZM644.58 41.571V33.9091H647.137V47H644.631V44.733H644.495C644.194 45.4318 643.711 46.0142 643.046 46.4801C642.387 46.9403 641.566 47.1705 640.583 47.1705C639.742 47.1705 638.998 46.9858 638.35 46.6165C637.708 46.2415 637.202 45.6875 636.833 44.9545C636.469 44.2216 636.287 43.3153 636.287 42.2358V33.9091H638.836V41.929C638.836 42.821 639.083 43.5312 639.577 44.0597C640.071 44.5881 640.713 44.8523 641.503 44.8523C641.98 44.8523 642.455 44.733 642.926 44.4943C643.404 44.2557 643.799 43.8949 644.111 43.4119C644.429 42.929 644.586 42.3153 644.58 41.571ZM656.075 47.2642C654.848 47.2642 653.777 46.983 652.862 46.4205C651.947 45.858 651.237 45.071 650.731 44.0597C650.225 43.0483 649.973 41.8665 649.973 40.5142C649.973 39.1562 650.225 37.9687 650.731 36.9517C651.237 35.9347 651.947 35.1449 652.862 34.5824C653.777 34.0199 654.848 33.7386 656.075 33.7386C657.302 33.7386 658.373 34.0199 659.288 34.5824C660.203 35.1449 660.913 35.9347 661.419 36.9517C661.924 37.9687 662.177 39.1562 662.177 40.5142C662.177 41.8665 661.924 43.0483 661.419 44.0597C660.913 45.071 660.203 45.858 659.288 46.4205C658.373 46.983 657.302 47.2642 656.075 47.2642ZM656.083 45.125C656.879 45.125 657.538 44.9148 658.061 44.4943C658.583 44.0739 658.97 43.5142 659.22 42.8153C659.475 42.1165 659.603 41.3466 659.603 40.5057C659.603 39.6705 659.475 38.9034 659.22 38.2045C658.97 37.5 658.583 36.9347 658.061 36.5085C657.538 36.0824 656.879 35.8693 656.083 35.8693C655.282 35.8693 654.618 36.0824 654.089 36.5085C653.566 36.9347 653.177 37.5 652.922 38.2045C652.672 38.9034 652.547 39.6705 652.547 40.5057C652.547 41.3466 652.672 42.1165 652.922 42.8153C653.177 43.5142 653.566 44.0739 654.089 44.4943C654.618 44.9148 655.282 45.125 656.083 45.125ZM651.669 32.3409L655.129 29.3835H657.029L660.498 32.3409H657.993L656.1 30.6534L654.191 32.3409H651.669ZM659.586 30.4489L661.368 27.3381H663.967L661.453 30.4489H659.586ZM670.536 47.2642C669.269 47.2642 668.178 46.9773 667.263 46.4034C666.354 45.8239 665.655 45.0256 665.167 44.0085C664.678 42.9915 664.434 41.8267 664.434 40.5142C664.434 39.1847 664.684 38.0114 665.184 36.9943C665.684 35.9716 666.388 35.1733 667.297 34.5994C668.206 34.0256 669.277 33.7386 670.51 33.7386C671.505 33.7386 672.391 33.9233 673.169 34.2926C673.948 34.6562 674.576 35.1676 675.053 35.8267C675.536 36.4858 675.823 37.2557 675.914 38.1364H673.434C673.297 37.5227 672.985 36.9943 672.496 36.5511C672.013 36.108 671.365 35.8864 670.553 35.8864C669.843 35.8864 669.221 36.0739 668.686 36.4489C668.158 36.8182 667.746 37.3466 667.451 38.0341C667.155 38.7159 667.007 39.5227 667.007 40.4545C667.007 41.4091 667.152 42.233 667.442 42.9261C667.732 43.6193 668.141 44.1562 668.669 44.5369C669.203 44.9176 669.831 45.108 670.553 45.108C671.036 45.108 671.473 45.0199 671.865 44.8438C672.263 44.6619 672.596 44.4034 672.863 44.0682C673.135 43.733 673.326 43.3295 673.434 42.858H675.914C675.823 43.7045 675.547 44.4602 675.087 45.125C674.627 45.7898 674.01 46.3125 673.238 46.6932C672.471 47.0739 671.57 47.2642 670.536 47.2642ZM687.334 42.5597L687.317 39.4489H687.76L692.976 33.9091H696.027L690.078 40.2159H689.678L687.334 42.5597ZM684.99 47V29.5455H687.539V47H684.99ZM693.257 47L688.57 40.7784L690.326 38.9972L696.385 47H693.257ZM700.898 39.2273V47H698.35V29.5455H700.864V36.0398H701.026C701.333 35.3352 701.801 34.7756 702.432 34.3608C703.063 33.946 703.887 33.7386 704.904 33.7386C705.801 33.7386 706.586 33.9233 707.256 34.2926C707.932 34.6619 708.455 35.2131 708.824 35.946C709.199 36.6733 709.387 37.5824 709.387 38.6733V47H706.838V38.9801C706.838 38.0199 706.591 37.2756 706.097 36.7472C705.603 36.2131 704.915 35.946 704.034 35.946C703.432 35.946 702.892 36.0739 702.415 36.3295C701.944 36.5852 701.571 36.9602 701.299 37.4545C701.032 37.9432 700.898 38.5341 700.898 39.2273ZM716.597 47.2898C715.767 47.2898 715.017 47.1364 714.347 46.8295C713.676 46.517 713.145 46.0653 712.753 45.4744C712.367 44.8835 712.174 44.1591 712.174 43.3011C712.174 42.5625 712.316 41.9545 712.6 41.4773C712.884 41 713.267 40.6222 713.75 40.3438C714.233 40.0653 714.773 39.8551 715.37 39.7131C715.966 39.571 716.574 39.4631 717.194 39.3892C717.978 39.2983 718.614 39.2244 719.103 39.1676C719.591 39.1051 719.946 39.0057 720.168 38.8693C720.39 38.733 720.5 38.5114 720.5 38.2045V38.1449C720.5 37.4006 720.29 36.8239 719.87 36.4148C719.455 36.0057 718.836 35.8011 718.012 35.8011C717.154 35.8011 716.478 35.9915 715.983 36.3722C715.495 36.7472 715.157 37.1648 714.969 37.625L712.574 37.0795C712.858 36.2841 713.273 35.642 713.819 35.1534C714.37 34.6591 715.003 34.3011 715.719 34.0795C716.435 33.8523 717.188 33.7386 717.978 33.7386C718.5 33.7386 719.054 33.8011 719.64 33.9261C720.23 34.0455 720.782 34.267 721.293 34.5909C721.81 34.9148 722.233 35.3778 722.563 35.9801C722.892 36.5767 723.057 37.3523 723.057 38.3068V47H720.569V45.2102H720.466C720.301 45.5398 720.054 45.8636 719.725 46.1818C719.395 46.5 718.972 46.7642 718.455 46.9744C717.938 47.1847 717.319 47.2898 716.597 47.2898ZM717.151 45.2443C717.855 45.2443 718.458 45.1051 718.958 44.8267C719.463 44.5483 719.847 44.1847 720.108 43.7358C720.375 43.2812 720.509 42.7955 720.509 42.2784V40.5909C720.418 40.6818 720.242 40.767 719.98 40.8466C719.725 40.9205 719.432 40.9858 719.103 41.0426C718.773 41.0937 718.452 41.142 718.14 41.1875C717.827 41.2273 717.566 41.2614 717.355 41.2898C716.861 41.3523 716.409 41.4574 716 41.6051C715.597 41.7528 715.273 41.9659 715.029 42.2443C714.79 42.517 714.671 42.8807 714.671 43.3352C714.671 43.9659 714.904 44.4432 715.37 44.767C715.836 45.0852 716.429 45.2443 717.151 45.2443ZM717.057 32.1619L719.051 28.233H721.736L719.094 32.1619H717.057ZM729 39.2273V47H726.451V33.9091H728.897V36.0398H729.059C729.36 35.3466 729.832 34.7898 730.474 34.3693C731.122 33.9489 731.937 33.7386 732.92 33.7386C733.812 33.7386 734.593 33.9261 735.264 34.3011C735.934 34.6705 736.454 35.2216 736.824 35.9545C737.193 36.6875 737.377 37.5937 737.377 38.6733V47H734.829V38.9801C734.829 38.0312 734.582 37.2898 734.088 36.7557C733.593 36.2159 732.914 35.946 732.051 35.946C731.46 35.946 730.934 36.0739 730.474 36.3295C730.02 36.5852 729.659 36.9602 729.392 37.4545C729.13 37.9432 729 38.5341 729 39.2273ZM746.284 52.1818C745.244 52.1818 744.349 52.0455 743.599 51.7727C742.855 51.5 742.247 51.1392 741.775 50.6903C741.304 50.2415 740.951 49.75 740.718 49.2159L742.909 48.3125C743.062 48.5625 743.267 48.8267 743.522 49.1051C743.784 49.3892 744.136 49.6307 744.579 49.8295C745.028 50.0284 745.605 50.1278 746.309 50.1278C747.275 50.1278 748.074 49.892 748.704 49.4205C749.335 48.9545 749.65 48.2102 749.65 47.1875V44.6136H749.488C749.335 44.892 749.113 45.2017 748.824 45.5426C748.539 45.8835 748.147 46.179 747.647 46.429C747.147 46.679 746.497 46.804 745.696 46.804C744.662 46.804 743.73 46.5625 742.9 46.0795C742.076 45.5909 741.423 44.8722 740.94 43.9233C740.463 42.9687 740.224 41.7955 740.224 40.4034C740.224 39.0114 740.46 37.8182 740.931 36.8239C741.409 35.8295 742.062 35.0682 742.892 34.5398C743.721 34.0057 744.662 33.7386 745.713 33.7386C746.525 33.7386 747.181 33.875 747.681 34.1477C748.181 34.4148 748.571 34.7273 748.849 35.0852C749.133 35.4432 749.352 35.7585 749.505 36.0312H749.693V33.9091H752.19V47.2898C752.19 48.4148 751.929 49.3381 751.406 50.0597C750.883 50.7813 750.176 51.3153 749.284 51.6619C748.397 52.0085 747.397 52.1818 746.284 52.1818ZM746.258 44.6903C746.991 44.6903 747.61 44.5199 748.116 44.179C748.627 43.8324 749.014 43.3381 749.275 42.696C749.542 42.0483 749.676 41.2727 749.676 40.3693C749.676 39.4886 749.545 38.7131 749.284 38.0426C749.022 37.3722 748.639 36.8494 748.133 36.4744C747.627 36.0937 747.002 35.9034 746.258 35.9034C745.491 35.9034 744.852 36.1023 744.341 36.5C743.829 36.892 743.443 37.4261 743.181 38.1023C742.926 38.7784 742.798 39.5341 742.798 40.3693C742.798 41.2273 742.929 41.9801 743.19 42.6278C743.451 43.2756 743.838 43.7812 744.349 44.1449C744.866 44.5085 745.502 44.6903 746.258 44.6903ZM771.769 37.1051L769.459 37.5142C769.363 37.2187 769.209 36.9375 768.999 36.6705C768.794 36.4034 768.516 36.1847 768.164 36.0142C767.811 35.8437 767.371 35.7585 766.843 35.7585C766.121 35.7585 765.519 35.9205 765.036 36.2443C764.553 36.5625 764.311 36.9744 764.311 37.4801C764.311 37.9176 764.473 38.2699 764.797 38.5369C765.121 38.804 765.644 39.0227 766.365 39.1932L768.445 39.6705C769.65 39.9489 770.547 40.3778 771.138 40.9574C771.729 41.5369 772.025 42.2898 772.025 43.2159C772.025 44 771.797 44.6989 771.343 45.3125C770.894 45.9205 770.266 46.3977 769.459 46.7443C768.658 47.0909 767.729 47.2642 766.672 47.2642C765.206 47.2642 764.01 46.9517 763.084 46.3267C762.158 45.696 761.59 44.8011 761.38 43.642L763.843 43.267C763.996 43.9091 764.311 44.3949 764.789 44.7244C765.266 45.0483 765.888 45.2102 766.655 45.2102C767.49 45.2102 768.158 45.0369 768.658 44.6903C769.158 44.3381 769.408 43.9091 769.408 43.4034C769.408 42.9943 769.255 42.6506 768.948 42.3722C768.647 42.0937 768.184 41.8835 767.559 41.7415L765.343 41.2557C764.121 40.9773 763.218 40.5341 762.632 39.9261C762.053 39.3182 761.763 38.5483 761.763 37.6165C761.763 36.8437 761.979 36.1676 762.411 35.5881C762.843 35.0085 763.439 34.5568 764.201 34.233C764.962 33.9034 765.834 33.7386 766.817 33.7386C768.232 33.7386 769.346 34.0455 770.158 34.6591C770.971 35.267 771.507 36.0824 771.769 37.1051ZM774.826 47V33.9091H777.375V47H774.826ZM776.113 31.8892C775.67 31.8892 775.289 31.7415 774.971 31.446C774.659 31.1449 774.502 30.7869 774.502 30.3722C774.502 29.9517 774.659 29.5937 774.971 29.2983C775.289 28.9972 775.67 28.8466 776.113 28.8466C776.556 28.8466 776.934 28.9972 777.247 29.2983C777.565 29.5937 777.724 29.9517 777.724 30.3722C777.724 30.7869 777.565 31.1449 777.247 31.446C776.934 31.7415 776.556 31.8892 776.113 31.8892ZM783.351 39.2273V47H780.803V33.9091H783.249V36.0398H783.411C783.712 35.3466 784.184 34.7898 784.826 34.3693C785.473 33.9489 786.289 33.7386 787.272 33.7386C788.164 33.7386 788.945 33.9261 789.615 34.3011C790.286 34.6705 790.806 35.2216 791.175 35.9545C791.544 36.6875 791.729 37.5937 791.729 38.6733V47H789.181V38.9801C789.181 38.0312 788.934 37.2898 788.439 36.7557C787.945 36.2159 787.266 35.946 786.402 35.946C785.811 35.946 785.286 36.0739 784.826 36.3295C784.371 36.5852 784.01 36.9602 783.743 37.4545C783.482 37.9432 783.351 38.5341 783.351 39.2273ZM797.695 39.2273V47H795.147V29.5455H797.661V36.0398H797.823C798.13 35.3352 798.598 34.7756 799.229 34.3608C799.86 33.946 800.684 33.7386 801.701 33.7386C802.598 33.7386 803.382 33.9233 804.053 34.2926C804.729 34.6619 805.252 35.2131 805.621 35.946C805.996 36.6733 806.184 37.5824 806.184 38.6733V47H803.635V38.9801C803.635 38.0199 803.388 37.2756 802.894 36.7472C802.4 36.2131 801.712 35.946 800.831 35.946C800.229 35.946 799.689 36.0739 799.212 36.3295C798.74 36.5852 798.368 36.9602 798.096 37.4545C797.828 37.9432 797.695 38.5341 797.695 39.2273Z" fill="#24408E"/>
</svg>
