<svg width="100%" viewBox="0 0 351 136" fill="none" xmlns="http://www.w3.org/2000/svg">
<mask id="path-1-inside-1_2040_1518" fill="white">
<path d="M0 0H351V136H0V0Z"/>
</mask>
<path d="M0 0H351V136H0V0Z" fill="#4986E8" fill-opacity="0.2"/>
<path d="M0 3H351V-3H0V3Z" fill="#4986E8" mask="url(#path-1-inside-1_2040_1518)"/>
<path d="M14.4996 28.9091V42H12.9143V28.9091H14.4996ZM17.4735 42V32.1818H18.9308V33.7159H19.0587C19.2632 33.1918 19.5935 32.7848 20.0494 32.495C20.5054 32.201 21.053 32.054 21.6922 32.054C22.3399 32.054 22.879 32.201 23.3094 32.495C23.7441 32.7848 24.0828 33.1918 24.3257 33.7159H24.428C24.6794 33.2088 25.0566 32.8061 25.5594 32.5078C26.0622 32.2053 26.6652 32.054 27.3683 32.054C28.2462 32.054 28.9642 32.3288 29.5225 32.8786C30.0807 33.424 30.3598 34.2741 30.3598 35.429V42H28.8513V35.429C28.8513 34.7045 28.6531 34.1868 28.2568 33.8757C27.8605 33.5646 27.3939 33.4091 26.857 33.4091C26.1666 33.4091 25.6318 33.6179 25.2526 34.0355C24.8733 34.4489 24.6837 34.973 24.6837 35.608V42H23.1496V35.2756C23.1496 34.7173 22.9685 34.2678 22.6063 33.9268C22.2441 33.5817 21.7774 33.4091 21.2064 33.4091C20.8144 33.4091 20.4479 33.5135 20.107 33.7223C19.7703 33.9311 19.4976 34.2209 19.2888 34.5916C19.0843 34.9581 18.982 35.3821 18.982 35.8636V42H17.4735ZM37.2345 42.2045C36.2884 42.2045 35.4724 41.9957 34.7863 41.5781C34.1045 41.1562 33.5782 40.5682 33.2075 39.8139C32.841 39.0554 32.6578 38.1733 32.6578 37.1676C32.6578 36.1619 32.841 35.2756 33.2075 34.5085C33.5782 33.7372 34.0938 33.1364 34.7544 32.706C35.4191 32.2713 36.1947 32.054 37.0811 32.054C37.5924 32.054 38.0974 32.1392 38.596 32.3097C39.0945 32.4801 39.5484 32.7571 39.9575 33.1406C40.3666 33.5199 40.6926 34.0227 40.9355 34.6491C41.1784 35.2756 41.2998 36.0469 41.2998 36.9631V37.6023H33.7316V36.2983H39.7657C39.7657 35.7443 39.6549 35.25 39.4333 34.8153C39.216 34.3807 38.9049 34.0376 38.5001 33.7862C38.0995 33.5348 37.6265 33.4091 37.0811 33.4091C36.4802 33.4091 35.9603 33.5582 35.5214 33.8565C35.0867 34.1506 34.7522 34.5341 34.5178 35.0071C34.2835 35.4801 34.1663 35.9872 34.1663 36.5284V37.3977C34.1663 38.1392 34.2941 38.7678 34.5498 39.2834C34.8097 39.7947 35.1698 40.1847 35.6301 40.4531C36.0903 40.7173 36.6251 40.8494 37.2345 40.8494C37.6308 40.8494 37.9887 40.794 38.3083 40.6832C38.6322 40.5682 38.9113 40.3977 39.1457 40.1719C39.3801 39.9418 39.5612 39.6562 39.689 39.3153L41.1464 39.7244C40.993 40.2188 40.7352 40.6534 40.373 41.0284C40.0107 41.3991 39.5633 41.6889 39.0306 41.8977C38.498 42.1023 37.8992 42.2045 37.2345 42.2045ZM44.4559 32.1818L46.8082 36.196L49.1604 32.1818H50.8991L47.7286 37.0909L50.8991 42H49.1604L46.8082 38.1903L44.4559 42H42.7172L45.8366 37.0909L42.7172 32.1818H44.4559ZM53.0516 45.6818V32.1818H54.509V33.7415H54.6879C54.7987 33.571 54.9521 33.3537 55.1482 33.0895C55.3485 32.821 55.634 32.5824 56.0047 32.3736C56.3797 32.1605 56.8868 32.054 57.526 32.054C58.3527 32.054 59.0814 32.2607 59.7121 32.674C60.3428 33.0874 60.835 33.6733 61.1887 34.4318C61.5423 35.1903 61.7192 36.0852 61.7192 37.1165C61.7192 38.1562 61.5423 39.0575 61.1887 39.8203C60.835 40.5788 60.3449 41.1669 59.7185 41.5845C59.0921 41.9979 58.3698 42.2045 57.5516 42.2045C56.9209 42.2045 56.4159 42.1001 56.0367 41.8913C55.6574 41.6783 55.3655 41.4375 55.161 41.169C54.9564 40.8963 54.7987 40.6705 54.6879 40.4915H54.5601V45.6818H53.0516ZM54.5345 37.0909C54.5345 37.8324 54.6432 38.4865 54.8605 39.0533C55.0779 39.6158 55.3953 40.0568 55.8129 40.3764C56.2306 40.6918 56.7419 40.8494 57.347 40.8494C57.9777 40.8494 58.504 40.6832 58.9259 40.3509C59.352 40.0142 59.6716 39.5625 59.8847 38.9957C60.102 38.4247 60.2107 37.7898 60.2107 37.0909C60.2107 36.4006 60.1041 35.7784 59.8911 35.2244C59.6823 34.6662 59.3648 34.2251 58.9387 33.9013C58.5168 33.5732 57.9862 33.4091 57.347 33.4091C56.7334 33.4091 56.2178 33.5646 55.8002 33.8757C55.3825 34.1825 55.0672 34.6129 54.8541 35.1669C54.6411 35.7166 54.5345 36.358 54.5345 37.0909ZM65.5289 36.0938V42H64.0203V28.9091H65.5289V33.7159H65.6567C65.8868 33.2088 66.232 32.8061 66.6922 32.5078C67.1567 32.2053 67.7746 32.054 68.5459 32.054C69.2149 32.054 69.8009 32.1882 70.3037 32.4567C70.8066 32.7209 71.1965 33.1278 71.4735 33.6776C71.7547 34.223 71.8953 34.9176 71.8953 35.7614V42H70.3868V35.8636C70.3868 35.0838 70.1844 34.4808 69.7796 34.0547C69.379 33.6243 68.8229 33.4091 68.1112 33.4091C67.6169 33.4091 67.1737 33.5135 66.7817 33.7223C66.3939 33.9311 66.0871 34.2358 65.8612 34.6364C65.6396 35.0369 65.5289 35.5227 65.5289 36.0938ZM77.5443 42.2301C76.9221 42.2301 76.3575 42.1129 75.8504 41.8786C75.3433 41.6399 74.9406 41.2969 74.6423 40.8494C74.344 40.3977 74.1949 39.8523 74.1949 39.2131C74.1949 38.6506 74.3057 38.1946 74.5273 37.8452C74.7488 37.4915 75.045 37.2145 75.4157 37.0142C75.7865 36.8139 76.1956 36.6648 76.643 36.5668C77.0947 36.4645 77.5486 36.3835 78.0045 36.3239C78.6011 36.2472 79.0848 36.1896 79.4555 36.1513C79.8305 36.1087 80.1032 36.0384 80.2737 35.9403C80.4484 35.8423 80.5358 35.6719 80.5358 35.429V35.3778C80.5358 34.7472 80.3632 34.2571 80.018 33.9077C79.6771 33.5582 79.1594 33.3835 78.4648 33.3835C77.7446 33.3835 77.18 33.5412 76.7709 33.8565C76.3618 34.1719 76.0741 34.5085 75.9079 34.8665L74.4761 34.3551C74.7318 33.7585 75.0727 33.294 75.4988 32.9616C75.9292 32.625 76.398 32.3906 76.9051 32.2585C77.4165 32.1222 77.9193 32.054 78.4136 32.054C78.729 32.054 79.0912 32.0923 79.5003 32.169C79.9136 32.2415 80.3121 32.3928 80.6956 32.6229C81.0834 32.853 81.4051 33.2003 81.6608 33.6648C81.9165 34.1293 82.0443 34.7514 82.0443 35.5312V42H80.5358V40.6705H80.4591C80.3568 40.8835 80.1863 41.1115 79.9477 41.3544C79.7091 41.5973 79.3916 41.804 78.9953 41.9744C78.599 42.1449 78.1153 42.2301 77.5443 42.2301ZM77.7744 40.875C78.371 40.875 78.8738 40.7578 79.2829 40.5234C79.6963 40.2891 80.0074 39.9865 80.2162 39.6158C80.4292 39.245 80.5358 38.8551 80.5358 38.446V37.0653C80.4719 37.142 80.3312 37.2124 80.1139 37.2763C79.9008 37.3359 79.6537 37.3892 79.3724 37.4361C79.0954 37.4787 78.8248 37.517 78.5606 37.5511C78.3007 37.581 78.0898 37.6065 77.9278 37.6278C77.5358 37.679 77.1693 37.7621 76.8284 37.8771C76.4917 37.9879 76.219 38.1562 76.0102 38.3821C75.8057 38.6037 75.7034 38.9062 75.7034 39.2898C75.7034 39.8139 75.8973 40.2102 76.2851 40.4787C76.6771 40.7429 77.1736 40.875 77.7744 40.875ZM84.7977 42V32.1818H86.2551V33.6648H86.3573C86.5363 33.179 86.8602 32.7848 87.3289 32.4822C87.7977 32.1797 88.3261 32.0284 88.9142 32.0284C89.0249 32.0284 89.1634 32.0305 89.3296 32.0348C89.4958 32.0391 89.6215 32.0455 89.7068 32.054V33.5881C89.6556 33.5753 89.5384 33.5561 89.3552 33.5305C89.1762 33.5007 88.9866 33.4858 88.7863 33.4858C88.309 33.4858 87.8829 33.5859 87.5079 33.7862C87.1372 33.9822 86.8431 34.255 86.6258 34.6044C86.4127 34.9496 86.3062 35.3437 86.3062 35.7869V42H84.7977ZM91.4949 42V32.1818H92.9523V33.7159H93.0802C93.2847 33.1918 93.615 32.7848 94.0709 32.495C94.5269 32.201 95.0745 32.054 95.7137 32.054C96.3614 32.054 96.9005 32.201 97.3309 32.495C97.7655 32.7848 98.1043 33.1918 98.3472 33.7159H98.4495C98.7009 33.2088 99.078 32.8061 99.5809 32.5078C100.084 32.2053 100.687 32.054 101.39 32.054C102.268 32.054 102.986 32.3288 103.544 32.8786C104.102 33.424 104.381 34.2741 104.381 35.429V42H102.873V35.429C102.873 34.7045 102.675 34.1868 102.278 33.8757C101.882 33.5646 101.415 33.4091 100.878 33.4091C100.188 33.4091 99.6533 33.6179 99.2741 34.0355C98.8948 34.4489 98.7052 34.973 98.7052 35.608V42H97.1711V35.2756C97.1711 34.7173 96.99 34.2678 96.6278 33.9268C96.2655 33.5817 95.7989 33.4091 95.2279 33.4091C94.8358 33.4091 94.4694 33.5135 94.1285 33.7223C93.7918 33.9311 93.5191 34.2209 93.3103 34.5916C93.1057 34.9581 93.0035 35.3821 93.0035 35.8636V42H91.4949ZM115.909 42.2045C115.091 42.2045 114.369 41.9979 113.742 41.5845C113.116 41.1669 112.626 40.5788 112.272 39.8203C111.919 39.0575 111.742 38.1562 111.742 37.1165C111.742 36.0852 111.919 35.1903 112.272 34.4318C112.626 33.6733 113.118 33.0874 113.749 32.674C114.38 32.2607 115.108 32.054 115.935 32.054C116.574 32.054 117.079 32.1605 117.45 32.3736C117.825 32.5824 118.11 32.821 118.306 33.0895C118.507 33.3537 118.662 33.571 118.773 33.7415H118.901V28.9091H120.409V42H118.952V40.4915H118.773C118.662 40.6705 118.505 40.8963 118.3 41.169C118.095 41.4375 117.804 41.6783 117.424 41.8913C117.045 42.1001 116.54 42.2045 115.909 42.2045ZM116.114 40.8494C116.719 40.8494 117.23 40.6918 117.648 40.3764C118.066 40.0568 118.383 39.6158 118.6 39.0533C118.818 38.4865 118.926 37.8324 118.926 37.0909C118.926 36.358 118.82 35.7166 118.607 35.1669C118.394 34.6129 118.078 34.1825 117.661 33.8757C117.243 33.5646 116.728 33.4091 116.114 33.4091C115.475 33.4091 114.942 33.5732 114.516 33.9013C114.094 34.2251 113.777 34.6662 113.563 35.2244C113.355 35.7784 113.25 36.4006 113.25 37.0909C113.25 37.7898 113.357 38.4247 113.57 38.9957C113.787 39.5625 114.107 40.0142 114.529 40.3509C114.955 40.6832 115.483 40.8494 116.114 40.8494ZM126.271 42.2301C125.649 42.2301 125.084 42.1129 124.577 41.8786C124.07 41.6399 123.667 41.2969 123.369 40.8494C123.071 40.3977 122.921 39.8523 122.921 39.2131C122.921 38.6506 123.032 38.1946 123.254 37.8452C123.475 37.4915 123.772 37.2145 124.142 37.0142C124.513 36.8139 124.922 36.6648 125.37 36.5668C125.821 36.4645 126.275 36.3835 126.731 36.3239C127.328 36.2472 127.811 36.1896 128.182 36.1513C128.557 36.1087 128.83 36.0384 129 35.9403C129.175 35.8423 129.262 35.6719 129.262 35.429V35.3778C129.262 34.7472 129.09 34.2571 128.745 33.9077C128.404 33.5582 127.886 33.3835 127.191 33.3835C126.471 33.3835 125.907 33.5412 125.497 33.8565C125.088 34.1719 124.801 34.5085 124.634 34.8665L123.203 34.3551C123.458 33.7585 123.799 33.294 124.225 32.9616C124.656 32.625 125.125 32.3906 125.632 32.2585C126.143 32.1222 126.646 32.054 127.14 32.054C127.456 32.054 127.818 32.0923 128.227 32.169C128.64 32.2415 129.039 32.3928 129.422 32.6229C129.81 32.853 130.132 33.2003 130.387 33.6648C130.643 34.1293 130.771 34.7514 130.771 35.5312V42H129.262V40.6705H129.186C129.083 40.8835 128.913 41.1115 128.674 41.3544C128.436 41.5973 128.118 41.804 127.722 41.9744C127.326 42.1449 126.842 42.2301 126.271 42.2301ZM126.501 40.875C127.098 40.875 127.6 40.7578 128.009 40.5234C128.423 40.2891 128.734 39.9865 128.943 39.6158C129.156 39.245 129.262 38.8551 129.262 38.446V37.0653C129.198 37.142 129.058 37.2124 128.84 37.2763C128.627 37.3359 128.38 37.3892 128.099 37.4361C127.822 37.4787 127.551 37.517 127.287 37.5511C127.027 37.581 126.816 37.6065 126.654 37.6278C126.262 37.679 125.896 37.7621 125.555 37.8771C125.218 37.9879 124.946 38.1562 124.737 38.3821C124.532 38.6037 124.43 38.9062 124.43 39.2898C124.43 39.8139 124.624 40.2102 125.012 40.4787C125.404 40.7429 125.9 40.875 126.501 40.875ZM127.831 29.1648L130.515 31.3125H128.93L127.217 29.9574L125.504 31.3125H123.919L126.603 29.1648H127.831ZM128.802 26.9148L129.518 27.1193C129.518 27.4645 129.377 27.782 129.096 28.0717C128.815 28.3572 128.47 28.5 128.061 28.5C127.843 28.5 127.66 28.4702 127.511 28.4105C127.362 28.3466 127.228 28.2741 127.108 28.1932C126.993 28.1122 126.872 28.0419 126.744 27.9822C126.62 27.9183 126.471 27.8864 126.296 27.8864C126.117 27.8864 125.949 27.9545 125.791 28.0909C125.634 28.2273 125.555 28.3722 125.555 28.5256L124.865 28.3466C124.865 28.0014 125.001 27.6818 125.274 27.3878C125.546 27.0895 125.887 26.9403 126.296 26.9403C126.475 26.9403 126.637 26.9702 126.782 27.0298C126.927 27.0895 127.066 27.1577 127.198 27.2344C127.33 27.3111 127.464 27.3793 127.6 27.4389C127.741 27.4986 127.894 27.5284 128.061 27.5284C128.24 27.5284 128.408 27.4645 128.566 27.3366C128.723 27.2088 128.802 27.0682 128.802 26.9148ZM135.033 36.0938V42H133.524V32.1818H134.982V33.7159H135.109C135.34 33.2173 135.689 32.8168 136.158 32.5142C136.627 32.2074 137.232 32.054 137.973 32.054C138.638 32.054 139.22 32.1903 139.718 32.4631C140.217 32.7315 140.604 33.1406 140.881 33.6903C141.158 34.2358 141.297 34.9261 141.297 35.7614V42H139.788V35.8636C139.788 35.0923 139.588 34.4915 139.188 34.0611C138.787 33.6264 138.237 33.4091 137.538 33.4091C137.057 33.4091 136.627 33.5135 136.247 33.7223C135.872 33.9311 135.576 34.2358 135.359 34.6364C135.141 35.0369 135.033 35.5227 135.033 36.0938ZM152.823 42.2045C152.005 42.2045 151.283 41.9979 150.657 41.5845C150.03 41.1669 149.54 40.5788 149.186 39.8203C148.833 39.0575 148.656 38.1562 148.656 37.1165C148.656 36.0852 148.833 35.1903 149.186 34.4318C149.54 33.6733 150.032 33.0874 150.663 32.674C151.294 32.2607 152.022 32.054 152.849 32.054C153.488 32.054 153.993 32.1605 154.364 32.3736C154.739 32.5824 155.024 32.821 155.22 33.0895C155.421 33.3537 155.576 33.571 155.687 33.7415H155.815V28.9091H157.323V42H155.866V40.4915H155.687C155.576 40.6705 155.419 40.8963 155.214 41.169C155.009 41.4375 154.718 41.6783 154.338 41.8913C153.959 42.1001 153.454 42.2045 152.823 42.2045ZM153.028 40.8494C153.633 40.8494 154.144 40.6918 154.562 40.3764C154.98 40.0568 155.297 39.6158 155.514 39.0533C155.732 38.4865 155.84 37.8324 155.84 37.0909C155.84 36.358 155.734 35.7166 155.521 35.1669C155.308 34.6129 154.992 34.1825 154.575 33.8757C154.157 33.5646 153.642 33.4091 153.028 33.4091C152.389 33.4091 151.856 33.5732 151.43 33.9013C151.008 34.2251 150.691 34.6662 150.478 35.2244C150.269 35.7784 150.164 36.4006 150.164 37.0909C150.164 37.7898 150.271 38.4247 150.484 38.9957C150.701 39.5625 151.021 40.0142 151.443 40.3509C151.869 40.6832 152.397 40.8494 153.028 40.8494ZM153.105 31.3381V30.1619H158.73V31.3381H153.105ZM163.185 42.2301C162.563 42.2301 161.998 42.1129 161.491 41.8786C160.984 41.6399 160.581 41.2969 160.283 40.8494C159.985 40.3977 159.835 39.8523 159.835 39.2131C159.835 38.6506 159.946 38.1946 160.168 37.8452C160.389 37.4915 160.686 37.2145 161.056 37.0142C161.427 36.8139 161.836 36.6648 162.284 36.5668C162.735 36.4645 163.189 36.3835 163.645 36.3239C164.242 36.2472 164.725 36.1896 165.096 36.1513C165.471 36.1087 165.744 36.0384 165.914 35.9403C166.089 35.8423 166.176 35.6719 166.176 35.429V35.3778C166.176 34.7472 166.004 34.2571 165.659 33.9077C165.318 33.5582 164.8 33.3835 164.105 33.3835C163.385 33.3835 162.821 33.5412 162.411 33.8565C162.002 34.1719 161.715 34.5085 161.549 34.8665L160.117 34.3551C160.372 33.7585 160.713 33.294 161.139 32.9616C161.57 32.625 162.039 32.3906 162.546 32.2585C163.057 32.1222 163.56 32.054 164.054 32.054C164.37 32.054 164.732 32.0923 165.141 32.169C165.554 32.2415 165.953 32.3928 166.336 32.6229C166.724 32.853 167.046 33.2003 167.301 33.6648C167.557 34.1293 167.685 34.7514 167.685 35.5312V42H166.176V40.6705H166.1C165.997 40.8835 165.827 41.1115 165.588 41.3544C165.35 41.5973 165.032 41.804 164.636 41.9744C164.24 42.1449 163.756 42.2301 163.185 42.2301ZM163.415 40.875C164.012 40.875 164.514 40.7578 164.924 40.5234C165.337 40.2891 165.648 39.9865 165.857 39.6158C166.07 39.245 166.176 38.8551 166.176 38.446V37.0653C166.112 37.142 165.972 37.2124 165.755 37.2763C165.541 37.3359 165.294 37.3892 165.013 37.4361C164.736 37.4787 164.465 37.517 164.201 37.5511C163.941 37.581 163.73 37.6065 163.568 37.6278C163.176 37.679 162.81 37.7621 162.469 37.8771C162.132 37.9879 161.86 38.1562 161.651 38.3821C161.446 38.6037 161.344 38.9062 161.344 39.2898C161.344 39.8139 161.538 40.2102 161.926 40.4787C162.318 40.7429 162.814 40.875 163.415 40.875ZM164.847 28.6534L167.455 30.9801H165.614L164.157 29.625L162.699 30.9801H160.858L163.441 28.6534H164.847ZM160.296 27.0938L161.523 29.4205H160.219L158.404 27.0938H160.296ZM176.626 37.9858V32.1818H178.134V42H176.626V40.3381H176.524C176.293 40.8366 175.935 41.2607 175.45 41.6101C174.964 41.9553 174.35 42.1278 173.609 42.1278C172.995 42.1278 172.45 41.9936 171.972 41.7251C171.495 41.4524 171.12 41.0433 170.847 40.4979C170.575 39.9482 170.438 39.2557 170.438 38.4205V32.1818H171.947V38.3182C171.947 39.0341 172.147 39.6051 172.548 40.0312C172.953 40.4574 173.468 40.6705 174.095 40.6705C174.47 40.6705 174.851 40.5746 175.239 40.3828C175.631 40.1911 175.959 39.897 176.223 39.5007C176.492 39.1044 176.626 38.5994 176.626 37.9858ZM190.23 32.1818V33.4602H185.142V32.1818H190.23ZM186.625 29.8295H188.133V39.1875C188.133 39.6136 188.195 39.9332 188.318 40.1463C188.446 40.3551 188.608 40.4957 188.804 40.5682C189.005 40.6364 189.215 40.6705 189.437 40.6705C189.603 40.6705 189.74 40.6619 189.846 40.6449C189.953 40.6236 190.038 40.6065 190.102 40.5938L190.409 41.9489C190.306 41.9872 190.164 42.0256 189.98 42.0639C189.797 42.1065 189.565 42.1278 189.284 42.1278C188.858 42.1278 188.44 42.0362 188.031 41.853C187.626 41.6697 187.289 41.3906 187.021 41.0156C186.757 40.6406 186.625 40.1676 186.625 39.5966V29.8295ZM194.218 36.0938V42H192.71V28.9091H194.218V33.7159H194.346C194.576 33.2088 194.921 32.8061 195.382 32.5078C195.846 32.2053 196.464 32.054 197.235 32.054C197.904 32.054 198.49 32.1882 198.993 32.4567C199.496 32.7209 199.886 33.1278 200.163 33.6776C200.444 34.223 200.585 34.9176 200.585 35.7614V42H199.076V35.8636C199.076 35.0838 198.874 34.4808 198.469 34.0547C198.068 33.6243 197.512 33.4091 196.801 33.4091C196.306 33.4091 195.863 33.5135 195.471 33.7223C195.083 33.9311 194.777 34.2358 194.551 34.6364C194.329 35.0369 194.218 35.5227 194.218 36.0938ZM203.345 42V32.1818H204.853V42H203.345ZM204.112 30.5455C203.818 30.5455 203.564 30.4453 203.351 30.245C203.142 30.0447 203.038 29.804 203.038 29.5227C203.038 29.2415 203.142 29.0007 203.351 28.8004C203.564 28.6001 203.818 28.5 204.112 28.5C204.406 28.5 204.657 28.6001 204.866 28.8004C205.079 29.0007 205.185 29.2415 205.185 29.5227C205.185 29.804 205.079 30.0447 204.866 30.245C204.657 30.4453 204.406 30.5455 204.112 30.5455ZM204.112 45.2472C203.818 45.2472 203.564 45.147 203.351 44.9467C203.142 44.7464 203.038 44.5057 203.038 44.2244C203.038 43.9432 203.142 43.7024 203.351 43.5021C203.564 43.3018 203.818 43.2017 204.112 43.2017C204.406 43.2017 204.657 43.3018 204.866 43.5021C205.079 43.7024 205.185 43.9432 205.185 44.2244C205.185 44.5057 205.079 44.7464 204.866 44.9467C204.657 45.147 204.406 45.2472 204.112 45.2472ZM216.948 32.1818V33.4602H211.86V32.1818H216.948ZM213.343 29.8295H214.852V39.1875C214.852 39.6136 214.914 39.9332 215.037 40.1463C215.165 40.3551 215.327 40.4957 215.523 40.5682C215.723 40.6364 215.934 40.6705 216.156 40.6705C216.322 40.6705 216.458 40.6619 216.565 40.6449C216.671 40.6236 216.757 40.6065 216.821 40.5938L217.127 41.9489C217.025 41.9872 216.882 42.0256 216.699 42.0639C216.516 42.1065 216.284 42.1278 216.002 42.1278C215.576 42.1278 215.159 42.0362 214.75 41.853C214.345 41.6697 214.008 41.3906 213.74 41.0156C213.475 40.6406 213.343 40.1676 213.343 39.5966V29.8295ZM219.218 42V32.1818H220.675V33.6648H220.777C220.956 33.179 221.28 32.7848 221.749 32.4822C222.218 32.1797 222.746 32.0284 223.334 32.0284C223.445 32.0284 223.583 32.0305 223.75 32.0348C223.916 32.0391 224.041 32.0455 224.127 32.054V33.5881C224.076 33.5753 223.958 33.5561 223.775 33.5305C223.596 33.5007 223.407 33.4858 223.206 33.4858C222.729 33.4858 222.303 33.5859 221.928 33.7862C221.557 33.9822 221.263 34.255 221.046 34.6044C220.833 34.9496 220.726 35.3437 220.726 35.7869V42H219.218ZM234.761 31.7472H236.091C236.091 32.3949 236.006 32.9382 235.835 33.3771C235.665 33.8118 235.367 34.1399 234.94 34.3615C234.514 34.5788 233.918 34.6875 233.151 34.6875V33.6392C233.679 33.6392 234.054 33.5753 234.276 33.4474C234.502 33.3153 234.638 33.1108 234.685 32.8338C234.736 32.5526 234.761 32.1903 234.761 31.7472ZM232.102 37.9858V32.1818H233.611V42H232.102V40.3381H232C231.77 40.8366 231.412 41.2607 230.926 41.6101C230.44 41.9553 229.827 42.1278 229.085 42.1278C228.472 42.1278 227.926 41.9936 227.449 41.7251C226.972 41.4524 226.597 41.0433 226.324 40.4979C226.051 39.9482 225.915 39.2557 225.915 38.4205V32.1818H227.423V38.3182C227.423 39.0341 227.624 39.6051 228.024 40.0312C228.429 40.4574 228.945 40.6705 229.571 40.6705C229.946 40.6705 230.328 40.5746 230.715 40.3828C231.107 40.1911 231.435 39.897 231.7 39.5007C231.968 39.1044 232.102 38.5994 232.102 37.9858ZM245.089 31.4403H246.496C246.496 32.4119 246.283 33.1832 245.856 33.7543C245.435 34.3253 244.693 34.6108 243.632 34.6108V33.5369C244.058 33.5369 244.373 33.4496 244.578 33.2749C244.787 33.1001 244.923 32.8551 244.987 32.5398C245.055 32.2244 245.089 31.858 245.089 31.4403ZM241.101 42.2045C240.214 42.2045 239.437 41.9936 238.768 41.5717C238.103 41.1499 237.583 40.5597 237.208 39.8011C236.837 39.0426 236.652 38.1562 236.652 37.142C236.652 36.1193 236.837 35.2266 237.208 34.4638C237.583 33.701 238.103 33.1087 238.768 32.6868C239.437 32.2649 240.214 32.054 241.101 32.054C241.987 32.054 242.763 32.2649 243.427 32.6868C244.097 33.1087 244.616 33.701 244.987 34.4638C245.362 35.2266 245.55 36.1193 245.55 37.142C245.55 38.1562 245.362 39.0426 244.987 39.8011C244.616 40.5597 244.097 41.1499 243.427 41.5717C242.763 41.9936 241.987 42.2045 241.101 42.2045ZM241.101 40.8494C241.774 40.8494 242.328 40.6768 242.763 40.3317C243.197 39.9865 243.519 39.5327 243.728 38.9702C243.937 38.4077 244.041 37.7983 244.041 37.142C244.041 36.4858 243.937 35.8743 243.728 35.3075C243.519 34.7408 243.197 34.2827 242.763 33.9332C242.328 33.5838 241.774 33.4091 241.101 33.4091C240.427 33.4091 239.873 33.5838 239.439 33.9332C239.004 34.2827 238.682 34.7408 238.474 35.3075C238.265 35.8743 238.16 36.4858 238.16 37.142C238.16 37.7983 238.265 38.4077 238.474 38.9702C238.682 39.5327 239.004 39.9865 239.439 40.3317C239.873 40.6768 240.427 40.8494 241.101 40.8494ZM240.462 30.8523L238.467 27.8864H240.231L241.791 30.8523H240.462ZM249.378 36.0938V42H247.87V32.1818H249.327V33.7159H249.455C249.685 33.2173 250.035 32.8168 250.503 32.5142C250.972 32.2074 251.577 32.054 252.319 32.054C252.984 32.054 253.565 32.1903 254.064 32.4631C254.562 32.7315 254.95 33.1406 255.227 33.6903C255.504 34.2358 255.643 34.9261 255.643 35.7614V42H254.134V35.8636C254.134 35.0923 253.934 34.4915 253.533 34.0611C253.133 33.6264 252.583 33.4091 251.884 33.4091C251.403 33.4091 250.972 33.5135 250.593 33.7223C250.218 33.9311 249.922 34.2358 249.704 34.6364C249.487 35.0369 249.378 35.5227 249.378 36.0938ZM262.362 45.8864C261.634 45.8864 261.007 45.7926 260.483 45.6051C259.959 45.4219 259.522 45.179 259.173 44.8764C258.828 44.5781 258.553 44.2585 258.348 43.9176L259.55 43.0739C259.686 43.2528 259.859 43.4574 260.068 43.6875C260.276 43.9219 260.562 44.1243 260.924 44.2947C261.291 44.4695 261.77 44.5568 262.362 44.5568C263.155 44.5568 263.809 44.3651 264.325 43.9815C264.84 43.598 265.098 42.9972 265.098 42.179V40.1847H264.97C264.859 40.3636 264.702 40.5852 264.497 40.8494C264.297 41.1094 264.007 41.3416 263.628 41.5462C263.253 41.7464 262.746 41.8466 262.107 41.8466C261.314 41.8466 260.602 41.6591 259.972 41.2841C259.345 40.9091 258.849 40.3636 258.482 39.6477C258.12 38.9318 257.939 38.0625 257.939 37.0398C257.939 36.0341 258.116 35.1584 258.47 34.4126C258.823 33.6626 259.315 33.0831 259.946 32.674C260.577 32.2607 261.305 32.054 262.132 32.054C262.771 32.054 263.278 32.1605 263.653 32.3736C264.033 32.5824 264.323 32.821 264.523 33.0895C264.727 33.3537 264.885 33.571 264.996 33.7415H265.149V32.1818H266.607V42.2812C266.607 43.125 266.415 43.8111 266.031 44.3395C265.652 44.8722 265.141 45.2621 264.497 45.5092C263.858 45.7607 263.146 45.8864 262.362 45.8864ZM262.311 40.4915C262.916 40.4915 263.428 40.353 263.845 40.076C264.263 39.799 264.58 39.4006 264.798 38.8807C265.015 38.3608 265.124 37.7386 265.124 37.0142C265.124 36.3068 265.017 35.6825 264.804 35.1413C264.591 34.6001 264.276 34.1761 263.858 33.8693C263.44 33.5625 262.925 33.4091 262.311 33.4091C261.672 33.4091 261.139 33.571 260.713 33.8949C260.291 34.2187 259.974 34.6534 259.761 35.1989C259.552 35.7443 259.448 36.3494 259.448 37.0142C259.448 37.696 259.554 38.299 259.767 38.8232C259.984 39.343 260.304 39.7521 260.726 40.0504C261.152 40.3445 261.68 40.4915 262.311 40.4915ZM282.459 32.1818L278.828 42H277.294L273.663 32.1818H275.3L278.01 40.0057H278.112L280.823 32.1818H282.459ZM292.076 31.4403H293.482C293.482 32.4119 293.269 33.1832 292.843 33.7543C292.421 34.3253 291.679 34.6108 290.618 34.6108V33.5369C291.044 33.5369 291.36 33.4496 291.564 33.2749C291.773 33.1001 291.91 32.8551 291.973 32.5398C292.042 32.2244 292.076 31.858 292.076 31.4403ZM288.087 42.2045C287.201 42.2045 286.423 41.9936 285.754 41.5717C285.089 41.1499 284.569 40.5597 284.194 39.8011C283.824 39.0426 283.638 38.1562 283.638 37.142C283.638 36.1193 283.824 35.2266 284.194 34.4638C284.569 33.701 285.089 33.1087 285.754 32.6868C286.423 32.2649 287.201 32.054 288.087 32.054C288.973 32.054 289.749 32.2649 290.414 32.6868C291.083 33.1087 291.603 33.701 291.973 34.4638C292.348 35.2266 292.536 36.1193 292.536 37.142C292.536 38.1562 292.348 39.0426 291.973 39.8011C291.603 40.5597 291.083 41.1499 290.414 41.5717C289.749 41.9936 288.973 42.2045 288.087 42.2045ZM288.087 40.8494C288.76 40.8494 289.314 40.6768 289.749 40.3317C290.184 39.9865 290.505 39.5327 290.714 38.9702C290.923 38.4077 291.027 37.7983 291.027 37.142C291.027 36.4858 290.923 35.8743 290.714 35.3075C290.505 34.7408 290.184 34.2827 289.749 33.9332C289.314 33.5838 288.76 33.4091 288.087 33.4091C287.414 33.4091 286.86 33.5838 286.425 33.9332C285.991 34.2827 285.669 34.7408 285.46 35.3075C285.251 35.8743 285.147 36.4858 285.147 37.142C285.147 37.7983 285.251 38.4077 285.46 38.9702C285.669 39.5327 285.991 39.9865 286.425 40.3317C286.86 40.6768 287.414 40.8494 288.087 40.8494ZM287.397 30.8523L288.956 27.8864H290.721L288.726 30.8523H287.397ZM294.856 42V32.1818H296.365V42H294.856ZM295.623 30.5455C295.329 30.5455 295.076 30.4453 294.863 30.245C294.654 30.0447 294.549 29.804 294.549 29.5227C294.549 29.2415 294.654 29.0007 294.863 28.8004C295.076 28.6001 295.329 28.5 295.623 28.5C295.917 28.5 296.169 28.6001 296.378 28.8004C296.591 29.0007 296.697 29.2415 296.697 29.5227C296.697 29.804 296.591 30.0447 296.378 30.245C296.169 30.4453 295.917 30.5455 295.623 30.5455ZM312.219 32.1818L308.588 42H307.054L303.423 32.1818H305.06L307.77 40.0057H307.872L310.582 32.1818H312.219ZM314.21 42V32.1818H315.718V42H314.21ZM314.977 30.5455C314.683 30.5455 314.429 30.4453 314.216 30.245C314.007 30.0447 313.903 29.804 313.903 29.5227C313.903 29.2415 314.007 29.0007 314.216 28.8004C314.429 28.6001 314.683 28.5 314.977 28.5C315.271 28.5 315.522 28.6001 315.731 28.8004C315.944 29.0007 316.051 29.2415 316.051 29.5227C316.051 29.804 315.944 30.0447 315.731 30.245C315.522 30.4453 315.271 30.5455 314.977 30.5455ZM314.977 45.2472C314.683 45.2472 314.429 45.147 314.216 44.9467C314.007 44.7464 313.903 44.5057 313.903 44.2244C313.903 43.9432 314.007 43.7024 314.216 43.5021C314.429 43.3018 314.683 43.2017 314.977 43.2017C315.271 43.2017 315.522 43.3018 315.731 43.5021C315.944 43.7024 316.051 43.9432 316.051 44.2244C316.051 44.5057 315.944 44.7464 315.731 44.9467C315.522 45.147 315.271 45.2472 314.977 45.2472ZM327.814 32.1818V33.4602H322.726V32.1818H327.814ZM324.209 29.8295H325.717V39.1875C325.717 39.6136 325.779 39.9332 325.902 40.1463C326.03 40.3551 326.192 40.4957 326.388 40.5682C326.589 40.6364 326.799 40.6705 327.021 40.6705C327.187 40.6705 327.324 40.6619 327.43 40.6449C327.537 40.6236 327.622 40.6065 327.686 40.5938L327.993 41.9489C327.89 41.9872 327.748 42.0256 327.564 42.0639C327.381 42.1065 327.149 42.1278 326.868 42.1278C326.441 42.1278 326.024 42.0362 325.615 41.853C325.21 41.6697 324.873 41.3906 324.605 41.0156C324.341 40.6406 324.209 40.1676 324.209 39.5966V29.8295ZM330.083 42V32.1818H331.54V33.6648H331.642C331.821 33.179 332.145 32.7848 332.614 32.4822C333.083 32.1797 333.611 32.0284 334.199 32.0284C334.31 32.0284 334.449 32.0305 334.615 32.0348C334.781 32.0391 334.907 32.0455 334.992 32.054V33.5881C334.941 33.5753 334.824 33.5561 334.64 33.5305C334.461 33.5007 334.272 33.4858 334.071 33.4858C333.594 33.4858 333.168 33.5859 332.793 33.7862C332.422 33.9822 332.128 34.255 331.911 34.6044C331.698 34.9496 331.591 35.3437 331.591 35.7869V42H330.083ZM336.78 42V32.1818H338.289V42H336.78ZM336.857 30.8523L338.416 27.8864H340.181L338.186 30.8523H336.857ZM29.4641 56.3807L28.109 56.7642C28.0238 56.5384 27.8981 56.3189 27.7319 56.1058C27.57 55.8885 27.3484 55.7095 27.0671 55.5689C26.7859 55.4283 26.4258 55.358 25.9869 55.358C25.386 55.358 24.8853 55.4964 24.4847 55.7734C24.0884 56.0462 23.8903 56.3935 23.8903 56.8153C23.8903 57.1903 24.0266 57.4865 24.2994 57.7038C24.5721 57.9212 24.9982 58.1023 25.5778 58.2472L27.0352 58.6051C27.913 58.8182 28.5671 59.1442 28.9975 59.5831C29.4279 60.0178 29.6431 60.5781 29.6431 61.2642C29.6431 61.8267 29.4812 62.3295 29.1573 62.7727C28.8377 63.2159 28.3903 63.5653 27.815 63.821C27.2397 64.0767 26.5707 64.2045 25.8079 64.2045C24.8065 64.2045 23.9776 63.9872 23.3214 63.5526C22.6651 63.1179 22.2496 62.483 22.0749 61.6477L23.5067 61.2898C23.6431 61.8182 23.9009 62.2145 24.2802 62.4787C24.6637 62.7429 25.1644 62.875 25.7823 62.875C26.4854 62.875 27.0437 62.7259 27.457 62.4276C27.8746 62.125 28.0835 61.7628 28.0835 61.3409C28.0835 61 27.9641 60.7145 27.7255 60.4844C27.4869 60.25 27.1204 60.0753 26.6261 59.9602L24.9897 59.5767C24.0906 59.3636 23.43 59.0334 23.0082 58.5859C22.5906 58.1342 22.3817 57.5696 22.3817 56.892C22.3817 56.3381 22.5373 55.848 22.8484 55.4219C23.1637 54.9957 23.592 54.6612 24.1332 54.4183C24.6786 54.1754 25.2965 54.054 25.9869 54.054C26.9585 54.054 27.7212 54.267 28.2752 54.6932C28.8335 55.1193 29.2298 55.6818 29.4641 56.3807ZM35.9025 64.2045C35.0162 64.2045 34.2385 63.9936 33.5694 63.5717C32.9047 63.1499 32.3848 62.5597 32.0098 61.8011C31.639 61.0426 31.4537 60.1562 31.4537 59.142C31.4537 58.1193 31.639 57.2266 32.0098 56.4638C32.3848 55.701 32.9047 55.1087 33.5694 54.6868C34.2385 54.2649 35.0162 54.054 35.9025 54.054C36.7889 54.054 37.5645 54.2649 38.2292 54.6868C38.8983 55.1087 39.4181 55.701 39.7889 56.4638C40.1639 57.2266 40.3514 58.1193 40.3514 59.142C40.3514 60.1562 40.1639 61.0426 39.7889 61.8011C39.4181 62.5597 38.8983 63.1499 38.2292 63.5717C37.5645 63.9936 36.7889 64.2045 35.9025 64.2045ZM35.9025 62.8494C36.5758 62.8494 37.1298 62.6768 37.5645 62.3317C37.9991 61.9865 38.3208 61.5327 38.5297 60.9702C38.7385 60.4077 38.8429 59.7983 38.8429 59.142C38.8429 58.4858 38.7385 57.8743 38.5297 57.3075C38.3208 56.7408 37.9991 56.2827 37.5645 55.9332C37.1298 55.5838 36.5758 55.4091 35.9025 55.4091C35.2292 55.4091 34.6752 55.5838 34.2406 55.9332C33.8059 56.2827 33.4842 56.7408 33.2754 57.3075C33.0666 57.8743 32.9622 58.4858 32.9622 59.142C32.9622 59.7983 33.0666 60.4077 33.2754 60.9702C33.4842 61.5327 33.8059 61.9865 34.2406 62.3317C34.6752 62.6768 35.2292 62.8494 35.9025 62.8494ZM32.6042 52.9545L35.2122 50.6278H36.6184L39.2264 52.9545H37.3855L35.9281 51.5994L34.4707 52.9545H32.6042ZM38.536 51.3949L39.7889 49.0938H41.6554L39.8656 51.3949H38.536ZM47.7166 64V54.1818H49.174V55.7159H49.3018C49.5064 55.1918 49.8366 54.7848 50.2926 54.495C50.7486 54.201 51.2962 54.054 51.9354 54.054C52.5831 54.054 53.1222 54.201 53.5526 54.495C53.9872 54.7848 54.326 55.1918 54.5689 55.7159H54.6712C54.9226 55.2088 55.2997 54.8061 55.8026 54.5078C56.3054 54.2053 56.9084 54.054 57.6115 54.054C58.4893 54.054 59.2074 54.3288 59.7656 54.8786C60.3239 55.424 60.603 56.2741 60.603 57.429V64H59.0945V57.429C59.0945 56.7045 58.8963 56.1868 58.5 55.8757C58.1037 55.5646 57.6371 55.4091 57.1001 55.4091C56.4098 55.4091 55.875 55.6179 55.4957 56.0355C55.1165 56.4489 54.9268 56.973 54.9268 57.608V64H53.3928V57.2756C53.3928 56.7173 53.2116 56.2678 52.8494 55.9268C52.4872 55.5817 52.0206 55.4091 51.4496 55.4091C51.0575 55.4091 50.6911 55.5135 50.3501 55.7223C50.0135 55.9311 49.7408 56.2209 49.532 56.5916C49.3274 56.9581 49.2251 57.3821 49.2251 57.8636V64H47.7166ZM67.3498 64.2045C66.4634 64.2045 65.6857 63.9936 65.0167 63.5717C64.3519 63.1499 63.832 62.5597 63.457 61.8011C63.0863 61.0426 62.9009 60.1562 62.9009 59.142C62.9009 58.1193 63.0863 57.2266 63.457 56.4638C63.832 55.701 64.3519 55.1087 65.0167 54.6868C65.6857 54.2649 66.4634 54.054 67.3498 54.054C68.2362 54.054 69.0117 54.2649 69.6765 54.6868C70.3455 55.1087 70.8654 55.701 71.2362 56.4638C71.6112 57.2266 71.7987 58.1193 71.7987 59.142C71.7987 60.1562 71.6112 61.0426 71.2362 61.8011C70.8654 62.5597 70.3455 63.1499 69.6765 63.5717C69.0117 63.9936 68.2362 64.2045 67.3498 64.2045ZM67.3498 62.8494C68.0231 62.8494 68.5771 62.6768 69.0117 62.3317C69.4464 61.9865 69.7681 61.5327 69.9769 60.9702C70.1857 60.4077 70.2901 59.7983 70.2901 59.142C70.2901 58.4858 70.1857 57.8743 69.9769 57.3075C69.7681 56.7408 69.4464 56.2827 69.0117 55.9332C68.5771 55.5838 68.0231 55.4091 67.3498 55.4091C66.6765 55.4091 66.1225 55.5838 65.6879 55.9332C65.2532 56.2827 64.9315 56.7408 64.7227 57.3075C64.5138 57.8743 64.4094 58.4858 64.4094 59.142C64.4094 59.7983 64.5138 60.4077 64.7227 60.9702C64.9315 61.5327 65.2532 61.9865 65.6879 62.3317C66.1225 62.6768 66.6765 62.8494 67.3498 62.8494ZM68.6793 53.0057L67.3498 51.2159L66.0202 53.0057H64.5884V52.9034L66.6594 50.2443H68.0401L70.1112 52.9034V53.0057H68.6793ZM67.3498 67.2472C67.0558 67.2472 66.8022 67.147 66.5891 66.9467C66.3803 66.7464 66.2759 66.5057 66.2759 66.2244C66.2759 65.9432 66.3803 65.7024 66.5891 65.5021C66.8022 65.3018 67.0558 65.2017 67.3498 65.2017C67.6438 65.2017 67.8952 65.3018 68.104 65.5021C68.3171 65.7024 68.4237 65.9432 68.4237 66.2244C68.4237 66.5057 68.3171 66.7464 68.104 66.9467C67.8952 67.147 67.6438 67.2472 67.3498 67.2472ZM78.3713 54.1818V55.4602H73.2832V54.1818H78.3713ZM74.7662 51.8295H76.2747V61.1875C76.2747 61.6136 76.3365 61.9332 76.46 62.1463C76.5879 62.3551 76.7498 62.4957 76.9458 62.5682C77.1461 62.6364 77.3571 62.6705 77.5787 62.6705C77.7449 62.6705 77.8812 62.6619 77.9877 62.6449C78.0943 62.6236 78.1795 62.6065 78.2434 62.5938L78.5502 63.9489C78.448 63.9872 78.3052 64.0256 78.122 64.0639C77.9387 64.1065 77.7065 64.1278 77.4252 64.1278C76.9991 64.1278 76.5815 64.0362 76.1724 63.853C75.7676 63.6697 75.4309 63.3906 75.1625 63.0156C74.8983 62.6406 74.7662 62.1676 74.7662 61.5966V51.8295ZM93.7314 54.1818L90.1007 64H88.5666L84.9359 54.1818H86.5723L89.2825 62.0057H89.3848L92.095 54.1818H93.7314ZM99.4874 64.2045C98.5414 64.2045 97.7253 63.9957 97.0392 63.5781C96.3574 63.1562 95.8311 62.5682 95.4604 61.8139C95.0939 61.0554 94.9107 60.1733 94.9107 59.1676C94.9107 58.1619 95.0939 57.2756 95.4604 56.5085C95.8311 55.7372 96.3468 55.1364 97.0073 54.706C97.6721 54.2713 98.4476 54.054 99.334 54.054C99.8453 54.054 100.35 54.1392 100.849 54.3097C101.347 54.4801 101.801 54.7571 102.21 55.1406C102.619 55.5199 102.945 56.0227 103.188 56.6491C103.431 57.2756 103.553 58.0469 103.553 58.9631V59.6023H95.9846V58.2983H102.019C102.019 57.7443 101.908 57.25 101.686 56.8153C101.469 56.3807 101.158 56.0376 100.753 55.7862C100.352 55.5348 99.8794 55.4091 99.334 55.4091C98.7331 55.4091 98.2132 55.5582 97.7743 55.8565C97.3397 56.1506 97.0051 56.5341 96.7708 57.0071C96.5364 57.4801 96.4192 57.9872 96.4192 58.5284V59.3977C96.4192 60.1392 96.5471 60.7678 96.8027 61.2834C97.0627 61.7947 97.4228 62.1847 97.883 62.4531C98.3432 62.7173 98.878 62.8494 99.4874 62.8494C99.8837 62.8494 100.242 62.794 100.561 62.6832C100.885 62.5682 101.164 62.3977 101.399 62.1719C101.633 61.9418 101.814 61.6562 101.942 61.3153L103.399 61.7244C103.246 62.2188 102.988 62.6534 102.626 63.0284C102.264 63.3991 101.816 63.6889 101.284 63.8977C100.751 64.1023 100.152 64.2045 99.4874 64.2045ZM99.9476 50.6534L102.556 52.9801H100.715L99.2573 51.625L97.7999 52.9801H95.959L98.5414 50.6534H99.9476ZM95.3965 49.0938L96.6238 51.4205H95.3198L93.5044 49.0938H95.3965ZM117.865 56.3807L116.509 56.7642C116.424 56.5384 116.298 56.3189 116.132 56.1058C115.97 55.8885 115.749 55.7095 115.468 55.5689C115.186 55.4283 114.826 55.358 114.387 55.358C113.786 55.358 113.286 55.4964 112.885 55.7734C112.489 56.0462 112.291 56.3935 112.291 56.8153C112.291 57.1903 112.427 57.4865 112.7 57.7038C112.972 57.9212 113.399 58.1023 113.978 58.2472L115.436 58.6051C116.313 58.8182 116.968 59.1442 117.398 59.5831C117.828 60.0178 118.044 60.5781 118.044 61.2642C118.044 61.8267 117.882 62.3295 117.558 62.7727C117.238 63.2159 116.791 63.5653 116.215 63.821C115.64 64.0767 114.971 64.2045 114.208 64.2045C113.207 64.2045 112.378 63.9872 111.722 63.5526C111.066 63.1179 110.65 62.483 110.475 61.6477L111.907 61.2898C112.044 61.8182 112.301 62.2145 112.681 62.4787C113.064 62.7429 113.565 62.875 114.183 62.875C114.886 62.875 115.444 62.7259 115.857 62.4276C116.275 62.125 116.484 61.7628 116.484 61.3409C116.484 61 116.365 60.7145 116.126 60.4844C115.887 60.25 115.521 60.0753 115.026 59.9602L113.39 59.5767C112.491 59.3636 111.83 59.0334 111.409 58.5859C110.991 58.1342 110.782 57.5696 110.782 56.892C110.782 56.3381 110.938 55.848 111.249 55.4219C111.564 54.9957 111.992 54.6612 112.534 54.4183C113.079 54.1754 113.697 54.054 114.387 54.054C115.359 54.054 116.122 54.267 116.676 54.6932C117.234 55.1193 117.63 55.6818 117.865 56.3807ZM123.203 64.2301C122.581 64.2301 122.017 64.1129 121.51 63.8786C121.002 63.6399 120.6 63.2969 120.301 62.8494C120.003 62.3977 119.854 61.8523 119.854 61.2131C119.854 60.6506 119.965 60.1946 120.186 59.8452C120.408 59.4915 120.704 59.2145 121.075 59.0142C121.446 58.8139 121.855 58.6648 122.302 58.5668C122.754 58.4645 123.208 58.3835 123.664 58.3239C124.26 58.2472 124.744 58.1896 125.115 58.1513C125.49 58.1087 125.762 58.0384 125.933 57.9403C126.108 57.8423 126.195 57.6719 126.195 57.429V57.3778C126.195 56.7472 126.022 56.2571 125.677 55.9077C125.336 55.5582 124.819 55.3835 124.124 55.3835C123.404 55.3835 122.839 55.5412 122.43 55.8565C122.021 56.1719 121.733 56.5085 121.567 56.8665L120.135 56.3551C120.391 55.7585 120.732 55.294 121.158 54.9616C121.588 54.625 122.057 54.3906 122.564 54.2585C123.076 54.1222 123.578 54.054 124.073 54.054C124.388 54.054 124.75 54.0923 125.159 54.169C125.573 54.2415 125.971 54.3928 126.355 54.6229C126.743 54.853 127.064 55.2003 127.32 55.6648C127.576 56.1293 127.703 56.7514 127.703 57.5312V64H126.195V62.6705H126.118C126.016 62.8835 125.846 63.1115 125.607 63.3544C125.368 63.5973 125.051 63.804 124.654 63.9744C124.258 64.1449 123.775 64.2301 123.203 64.2301ZM123.434 62.875C124.03 62.875 124.533 62.7578 124.942 62.5234C125.355 62.2891 125.667 61.9865 125.875 61.6158C126.088 61.245 126.195 60.8551 126.195 60.446V59.0653C126.131 59.142 125.99 59.2124 125.773 59.2763C125.56 59.3359 125.313 59.3892 125.032 59.4361C124.755 59.4787 124.484 59.517 124.22 59.5511C123.96 59.581 123.749 59.6065 123.587 59.6278C123.195 59.679 122.828 59.7621 122.488 59.8771C122.151 59.9879 121.878 60.1562 121.669 60.3821C121.465 60.6037 121.363 60.9062 121.363 61.2898C121.363 61.8139 121.556 62.2102 121.944 62.4787C122.336 62.7429 122.833 62.875 123.434 62.875ZM124.84 52.8523H123.587V51.4716C124.034 51.446 124.35 51.3842 124.533 51.2862C124.721 51.1882 124.814 51.0369 124.814 50.8324C124.814 50.6023 124.68 50.4339 124.412 50.3274C124.143 50.2209 123.817 50.1676 123.434 50.1676L123.485 49.196C124.367 49.196 125.034 49.3494 125.485 49.6562C125.941 49.9631 126.169 50.3722 126.169 50.8835C126.169 51.3182 126.031 51.6357 125.754 51.8359C125.477 52.0362 125.172 52.1619 124.84 52.2131V52.8523ZM131.965 58.0938V64H130.457V54.1818H131.914V55.7159H132.042C132.272 55.2173 132.622 54.8168 133.09 54.5142C133.559 54.2074 134.164 54.054 134.906 54.054C135.57 54.054 136.152 54.1903 136.651 54.4631C137.149 54.7315 137.537 55.1406 137.814 55.6903C138.091 56.2358 138.23 56.9261 138.23 57.7614V64H136.721V57.8636C136.721 57.0923 136.521 56.4915 136.12 56.0611C135.72 55.6264 135.17 55.4091 134.471 55.4091C133.99 55.4091 133.559 55.5135 133.18 55.7223C132.805 55.9311 132.509 56.2358 132.291 56.6364C132.074 57.0369 131.965 57.5227 131.965 58.0938ZM147.174 54.1818L149.526 58.196L151.878 54.1818H153.617L150.446 59.0909L153.617 64H151.878L149.526 60.1903L147.174 64H145.435L148.554 59.0909L145.435 54.1818H147.174ZM161.957 59.9858V54.1818H163.465V64H161.957V62.3381H161.855C161.624 62.8366 161.267 63.2607 160.781 63.6101C160.295 63.9553 159.681 64.1278 158.94 64.1278C158.326 64.1278 157.781 63.9936 157.303 63.7251C156.826 63.4524 156.451 63.0433 156.178 62.4979C155.906 61.9482 155.769 61.2557 155.769 60.4205V54.1818H157.278V60.3182C157.278 61.0341 157.478 61.6051 157.879 62.0312C158.284 62.4574 158.799 62.6705 159.426 62.6705C159.801 62.6705 160.182 62.5746 160.57 62.3828C160.962 62.1911 161.29 61.897 161.554 61.5007C161.823 61.1044 161.957 60.5994 161.957 59.9858ZM169.118 64.2301C168.495 64.2301 167.931 64.1129 167.424 63.8786C166.917 63.6399 166.514 63.2969 166.216 62.8494C165.917 62.3977 165.768 61.8523 165.768 61.2131C165.768 60.6506 165.879 60.1946 166.1 59.8452C166.322 59.4915 166.618 59.2145 166.989 59.0142C167.36 58.8139 167.769 58.6648 168.216 58.5668C168.668 58.4645 169.122 58.3835 169.578 58.3239C170.174 58.2472 170.658 58.1896 171.029 58.1513C171.404 58.1087 171.676 58.0384 171.847 57.9403C172.022 57.8423 172.109 57.6719 172.109 57.429V57.3778C172.109 56.7472 171.936 56.2571 171.591 55.9077C171.25 55.5582 170.733 55.3835 170.038 55.3835C169.318 55.3835 168.753 55.5412 168.344 55.8565C167.935 56.1719 167.647 56.5085 167.481 56.8665L166.049 56.3551C166.305 55.7585 166.646 55.294 167.072 54.9616C167.502 54.625 167.971 54.3906 168.478 54.2585C168.99 54.1222 169.493 54.054 169.987 54.054C170.302 54.054 170.664 54.0923 171.074 54.169C171.487 54.2415 171.885 54.3928 172.269 54.6229C172.657 54.853 172.978 55.2003 173.234 55.6648C173.49 56.1293 173.618 56.7514 173.618 57.5312V64H172.109V62.6705H172.032C171.93 62.8835 171.76 63.1115 171.521 63.3544C171.282 63.5973 170.965 63.804 170.569 63.9744C170.172 64.1449 169.689 64.2301 169.118 64.2301ZM169.348 62.875C169.944 62.875 170.447 62.7578 170.856 62.5234C171.27 62.2891 171.581 61.9865 171.789 61.6158C172.002 61.245 172.109 60.8551 172.109 60.446V59.0653C172.045 59.142 171.904 59.2124 171.687 59.2763C171.474 59.3359 171.227 59.3892 170.946 59.4361C170.669 59.4787 170.398 59.517 170.134 59.5511C169.874 59.581 169.663 59.6065 169.501 59.6278C169.109 59.679 168.743 59.7621 168.402 59.8771C168.065 59.9879 167.792 60.1562 167.583 60.3821C167.379 60.6037 167.277 60.9062 167.277 61.2898C167.277 61.8139 167.471 62.2102 167.858 62.4787C168.25 62.7429 168.747 62.875 169.348 62.875ZM166.791 52.9545L169.399 50.6278H170.805L173.413 52.9545H171.572L170.115 51.5994L168.657 52.9545H166.791ZM172.723 51.3949L173.975 49.0938H175.842L174.052 51.3949H172.723ZM180.641 54.1818V55.4602H175.553V54.1818H180.641ZM177.036 51.8295H178.544V61.1875C178.544 61.6136 178.606 61.9332 178.73 62.1463C178.857 62.3551 179.019 62.4957 179.215 62.5682C179.416 62.6364 179.627 62.6705 179.848 62.6705C180.014 62.6705 180.151 62.6619 180.257 62.6449C180.364 62.6236 180.449 62.6065 180.513 62.5938L180.82 63.9489C180.718 63.9872 180.575 64.0256 180.392 64.0639C180.208 64.1065 179.976 64.1278 179.695 64.1278C179.269 64.1278 178.851 64.0362 178.442 63.853C178.037 63.6697 177.7 63.3906 177.432 63.0156C177.168 62.6406 177.036 62.1676 177.036 61.5966V51.8295ZM196.001 54.1818L192.37 64H190.836L187.205 54.1818H188.842L191.552 62.0057H191.654L194.365 54.1818H196.001ZM200.582 64.2301C199.96 64.2301 199.396 64.1129 198.888 63.8786C198.381 63.6399 197.979 63.2969 197.68 62.8494C197.382 62.3977 197.233 61.8523 197.233 61.2131C197.233 60.6506 197.344 60.1946 197.565 59.8452C197.787 59.4915 198.083 59.2145 198.454 59.0142C198.825 58.8139 199.234 58.6648 199.681 58.5668C200.133 58.4645 200.587 58.3835 201.043 58.3239C201.639 58.2472 202.123 58.1896 202.494 58.1513C202.869 58.1087 203.141 58.0384 203.312 57.9403C203.487 57.8423 203.574 57.6719 203.574 57.429V57.3778C203.574 56.7472 203.401 56.2571 203.056 55.9077C202.715 55.5582 202.197 55.3835 201.503 55.3835C200.783 55.3835 200.218 55.5412 199.809 55.8565C199.4 56.1719 199.112 56.5085 198.946 56.8665L197.514 56.3551C197.77 55.7585 198.111 55.294 198.537 54.9616C198.967 54.625 199.436 54.3906 199.943 54.2585C200.455 54.1222 200.957 54.054 201.452 54.054C201.767 54.054 202.129 54.0923 202.538 54.169C202.952 54.2415 203.35 54.3928 203.734 54.6229C204.121 54.853 204.443 55.2003 204.699 55.6648C204.955 56.1293 205.082 56.7514 205.082 57.5312V64H203.574V62.6705H203.497C203.395 62.8835 203.224 63.1115 202.986 63.3544C202.747 63.5973 202.43 63.804 202.033 63.9744C201.637 64.1449 201.153 64.2301 200.582 64.2301ZM200.812 62.875C201.409 62.875 201.912 62.7578 202.321 62.5234C202.734 62.2891 203.045 61.9865 203.254 61.6158C203.467 61.245 203.574 60.8551 203.574 60.446V59.0653C203.51 59.142 203.369 59.2124 203.152 59.2763C202.939 59.3359 202.692 59.3892 202.411 59.4361C202.134 59.4787 201.863 59.517 201.599 59.5511C201.339 59.581 201.128 59.6065 200.966 59.6278C200.574 59.679 200.207 59.7621 199.866 59.8771C199.53 59.9879 199.257 60.1562 199.048 60.3821C198.844 60.6037 198.741 60.9062 198.741 61.2898C198.741 61.8139 198.935 62.2102 199.323 62.4787C199.715 62.7429 200.212 62.875 200.812 62.875ZM200.915 52.8523L198.92 49.8864H200.685L202.244 52.8523H200.915ZM217.168 54.1818V55.4602H212.08V54.1818H217.168ZM213.563 51.8295H215.072V61.1875C215.072 61.6136 215.133 61.9332 215.257 62.1463C215.385 62.3551 215.547 62.4957 215.743 62.5682C215.943 62.6364 216.154 62.6705 216.376 62.6705C216.542 62.6705 216.678 62.6619 216.785 62.6449C216.891 62.6236 216.976 62.6065 217.04 62.5938L217.347 63.9489C217.245 63.9872 217.102 64.0256 216.919 64.0639C216.736 64.1065 216.503 64.1278 216.222 64.1278C215.796 64.1278 215.378 64.0362 214.969 63.853C214.564 63.6697 214.228 63.3906 213.959 63.0156C213.695 62.6406 213.563 62.1676 213.563 61.5966V51.8295ZM219.437 64V54.1818H220.946V64H219.437ZM220.204 52.5455C219.91 52.5455 219.657 52.4453 219.444 52.245C219.235 52.0447 219.131 51.804 219.131 51.5227C219.131 51.2415 219.235 51.0007 219.444 50.8004C219.657 50.6001 219.91 50.5 220.204 50.5C220.498 50.5 220.75 50.6001 220.959 50.8004C221.172 51.0007 221.278 51.2415 221.278 51.5227C221.278 51.804 221.172 52.0447 220.959 52.245C220.75 52.4453 220.498 52.5455 220.204 52.5455ZM227.825 64.2045C226.879 64.2045 226.063 63.9957 225.377 63.5781C224.695 63.1562 224.169 62.5682 223.798 61.8139C223.432 61.0554 223.249 60.1733 223.249 59.1676C223.249 58.1619 223.432 57.2756 223.798 56.5085C224.169 55.7372 224.685 55.1364 225.345 54.706C226.01 54.2713 226.786 54.054 227.672 54.054C228.183 54.054 228.688 54.1392 229.187 54.3097C229.685 54.4801 230.139 54.7571 230.548 55.1406C230.957 55.5199 231.283 56.0227 231.526 56.6491C231.769 57.2756 231.891 58.0469 231.891 58.9631V59.6023H224.322V58.2983H230.357C230.357 57.7443 230.246 57.25 230.024 56.8153C229.807 56.3807 229.496 56.0376 229.091 55.7862C228.69 55.5348 228.217 55.4091 227.672 55.4091C227.071 55.4091 226.551 55.5582 226.112 55.8565C225.678 56.1506 225.343 56.5341 225.109 57.0071C224.874 57.4801 224.757 57.9872 224.757 58.5284V59.3977C224.757 60.1392 224.885 60.7678 225.141 61.2834C225.401 61.7947 225.761 62.1847 226.221 62.4531C226.681 62.7173 227.216 62.8494 227.825 62.8494C228.222 62.8494 228.58 62.794 228.899 62.6832C229.223 62.5682 229.502 62.3977 229.737 62.1719C229.971 61.9418 230.152 61.6562 230.28 61.3153L231.737 61.7244C231.584 62.2188 231.326 62.6534 230.964 63.0284C230.602 63.3991 230.154 63.6889 229.621 63.8977C229.089 64.1023 228.49 64.2045 227.825 64.2045ZM228.925 53.0057L227.595 51.2159L226.266 53.0057H224.834V52.9034L226.905 50.2443H228.286L230.357 52.9034V53.0057H228.925ZM240.373 59.9858V54.1818H241.881V64H240.373V62.3381H240.271C240.04 62.8366 239.683 63.2607 239.197 63.6101C238.711 63.9553 238.097 64.1278 237.356 64.1278C236.742 64.1278 236.197 63.9936 235.719 63.7251C235.242 63.4524 234.867 63.0433 234.594 62.4979C234.322 61.9482 234.185 61.2557 234.185 60.4205V54.1818H235.694V60.3182C235.694 61.0341 235.894 61.6051 236.295 62.0312C236.7 62.4574 237.215 62.6705 237.842 62.6705C238.217 62.6705 238.598 62.5746 238.986 62.3828C239.378 62.1911 239.706 61.897 239.97 61.5007C240.239 61.1044 240.373 60.5994 240.373 59.9858ZM253.977 54.1818V55.4602H248.889V54.1818H253.977ZM250.372 51.8295H251.88V61.1875C251.88 61.6136 251.942 61.9332 252.066 62.1463C252.193 62.3551 252.355 62.4957 252.551 62.5682C252.752 62.6364 252.963 62.6705 253.184 62.6705C253.35 62.6705 253.487 62.6619 253.593 62.6449C253.7 62.6236 253.785 62.6065 253.849 62.5938L254.156 63.9489C254.053 63.9872 253.911 64.0256 253.727 64.0639C253.544 64.1065 253.312 64.1278 253.031 64.1278C252.605 64.1278 252.187 64.0362 251.778 63.853C251.373 63.6697 251.036 63.3906 250.768 63.0156C250.504 62.6406 250.372 62.1676 250.372 61.5966V51.8295ZM257.965 58.0938V64H256.457V50.9091H257.965V55.7159H258.093C258.323 55.2088 258.669 54.8061 259.129 54.5078C259.593 54.2053 260.211 54.054 260.982 54.054C261.651 54.054 262.237 54.1882 262.74 54.4567C263.243 54.7209 263.633 55.1278 263.91 55.6776C264.191 56.223 264.332 56.9176 264.332 57.7614V64H262.823V57.8636C262.823 57.0838 262.621 56.4808 262.216 56.0547C261.816 55.6243 261.259 55.4091 260.548 55.4091C260.053 55.4091 259.61 55.5135 259.218 55.7223C258.83 55.9311 258.524 56.2358 258.298 56.6364C258.076 57.0369 257.965 57.5227 257.965 58.0938ZM273.279 59.9858V54.1818H274.788V64H273.279V62.3381H273.177C272.947 62.8366 272.589 63.2607 272.103 63.6101C271.617 63.9553 271.004 64.1278 270.262 64.1278C269.648 64.1278 269.103 63.9936 268.626 63.7251C268.148 63.4524 267.773 63.0433 267.501 62.4979C267.228 61.9482 267.092 61.2557 267.092 60.4205V54.1818H268.6V60.3182C268.6 61.0341 268.8 61.6051 269.201 62.0312C269.606 62.4574 270.121 62.6705 270.748 62.6705C271.123 62.6705 271.504 62.5746 271.892 62.3828C272.284 62.1911 272.612 61.897 272.876 61.5007C273.145 61.1044 273.279 60.5994 273.279 59.9858ZM270.952 67.2472C270.658 67.2472 270.405 67.147 270.192 66.9467C269.983 66.7464 269.879 66.5057 269.879 66.2244C269.879 65.9432 269.983 65.7024 270.192 65.5021C270.405 65.3018 270.658 65.2017 270.952 65.2017C271.246 65.2017 271.498 65.3018 271.707 65.5021C271.92 65.7024 272.026 65.9432 272.026 66.2244C272.026 66.5057 271.92 66.7464 271.707 66.9467C271.498 67.147 271.246 67.2472 270.952 67.2472ZM286.883 54.1818V55.4602H281.795V54.1818H286.883ZM283.278 51.8295H284.786V61.1875C284.786 61.6136 284.848 61.9332 284.972 62.1463C285.1 62.3551 285.262 62.4957 285.458 62.5682C285.658 62.6364 285.869 62.6705 286.09 62.6705C286.257 62.6705 286.393 62.6619 286.499 62.6449C286.606 62.6236 286.691 62.6065 286.755 62.5938L287.062 63.9489C286.96 63.9872 286.817 64.0256 286.634 64.0639C286.45 64.1065 286.218 64.1278 285.937 64.1278C285.511 64.1278 285.093 64.0362 284.684 63.853C284.279 63.6697 283.943 63.3906 283.674 63.0156C283.41 62.6406 283.278 62.1676 283.278 61.5966V51.8295ZM290.872 58.0938V64H289.363V50.9091H290.872V55.7159H290.999C291.23 55.2088 291.575 54.8061 292.035 54.5078C292.499 54.2053 293.117 54.054 293.889 54.054C294.558 54.054 295.144 54.1882 295.646 54.4567C296.149 54.7209 296.539 55.1278 296.816 55.6776C297.097 56.223 297.238 56.9176 297.238 57.7614V64H295.73V57.8636C295.73 57.0838 295.527 56.4808 295.122 56.0547C294.722 55.6243 294.166 55.4091 293.454 55.4091C292.96 55.4091 292.517 55.5135 292.124 55.7223C291.737 55.9311 291.43 56.2358 291.204 56.6364C290.982 57.0369 290.872 57.5227 290.872 58.0938ZM306.185 59.9858V54.1818H307.694V64H306.185V62.3381H306.083C305.853 62.8366 305.495 63.2607 305.009 63.6101C304.523 63.9553 303.91 64.1278 303.168 64.1278C302.555 64.1278 302.009 63.9936 301.532 63.7251C301.055 63.4524 300.68 63.0433 300.407 62.4979C300.134 61.9482 299.998 61.2557 299.998 60.4205V54.1818H301.506V60.3182C301.506 61.0341 301.707 61.6051 302.107 62.0312C302.512 62.4574 303.028 62.6705 303.654 62.6705C304.029 62.6705 304.411 62.5746 304.798 62.3828C305.19 62.1911 305.518 61.897 305.783 61.5007C306.051 61.1044 306.185 60.5994 306.185 59.9858ZM314.445 64.2045C313.559 64.2045 312.781 63.9936 312.112 63.5717C311.448 63.1499 310.928 62.5597 310.553 61.8011C310.182 61.0426 309.997 60.1562 309.997 59.142C309.997 58.1193 310.182 57.2266 310.553 56.4638C310.928 55.701 311.448 55.1087 312.112 54.6868C312.781 54.2649 313.559 54.054 314.445 54.054C315.332 54.054 316.107 54.2649 316.772 54.6868C317.441 55.1087 317.961 55.701 318.332 56.4638C318.707 57.2266 318.894 58.1193 318.894 59.142C318.894 60.1562 318.707 61.0426 318.332 61.8011C317.961 62.5597 317.441 63.1499 316.772 63.5717C316.107 63.9936 315.332 64.2045 314.445 64.2045ZM314.445 62.8494C315.119 62.8494 315.673 62.6768 316.107 62.3317C316.542 61.9865 316.864 61.5327 317.073 60.9702C317.281 60.4077 317.386 59.7983 317.386 59.142C317.386 58.4858 317.281 57.8743 317.073 57.3075C316.864 56.7408 316.542 56.2827 316.107 55.9332C315.673 55.5838 315.119 55.4091 314.445 55.4091C313.772 55.4091 313.218 55.5838 312.784 55.9332C312.349 56.2827 312.027 56.7408 311.818 57.3075C311.61 57.8743 311.505 58.4858 311.505 59.142C311.505 59.7983 311.61 60.4077 311.818 60.9702C312.027 61.5327 312.349 61.9865 312.784 62.3317C313.218 62.6768 313.772 62.8494 314.445 62.8494ZM311.147 52.9545L313.755 50.6278H315.161L317.769 52.9545H315.928L314.471 51.5994L313.014 52.9545H311.147ZM317.079 51.3949L318.332 49.0938H320.198L318.409 51.3949H317.079ZM325.186 64.2045C324.265 64.2045 323.473 63.9872 322.808 63.5526C322.143 63.1179 321.632 62.5192 321.274 61.7564C320.916 60.9936 320.737 60.1222 320.737 59.142C320.737 58.1449 320.92 57.2649 321.287 56.5021C321.657 55.7351 322.173 55.1364 322.833 54.706C323.498 54.2713 324.274 54.054 325.16 54.054C325.85 54.054 326.473 54.1818 327.027 54.4375C327.581 54.6932 328.034 55.0511 328.388 55.5114C328.742 55.9716 328.961 56.5085 329.047 57.1222H327.538C327.423 56.6747 327.167 56.2784 326.771 55.9332C326.379 55.5838 325.85 55.4091 325.186 55.4091C324.598 55.4091 324.082 55.5625 323.639 55.8693C323.2 56.1719 322.857 56.6001 322.61 57.1541C322.367 57.7038 322.245 58.3494 322.245 59.0909C322.245 59.8494 322.365 60.5099 322.603 61.0724C322.846 61.6349 323.187 62.0717 323.626 62.3828C324.069 62.6939 324.589 62.8494 325.186 62.8494C325.578 62.8494 325.934 62.7812 326.253 62.6449C326.573 62.5085 326.843 62.3125 327.065 62.0568C327.287 61.8011 327.444 61.4943 327.538 61.1364H329.047C328.961 61.7159 328.75 62.2379 328.414 62.7024C328.081 63.1626 327.64 63.5291 327.091 63.8018C326.545 64.0703 325.91 64.2045 325.186 64.2045ZM23.4061 82.4205L23.3805 80.554H23.6873L27.9828 76.1818H29.8493L25.2726 80.8097H25.1447L23.4061 82.4205ZM21.9998 86V72.9091H23.5083V86H21.9998ZM28.2385 86L24.4032 81.142L25.4771 80.0938L30.1561 86H28.2385ZM33.2994 80.0938V86H31.7908V72.9091H33.2994V77.7159H33.4272C33.6573 77.2088 34.0025 76.8061 34.4627 76.5078C34.9272 76.2053 35.5451 76.054 36.3164 76.054C36.9854 76.054 37.5714 76.1882 38.0742 76.4567C38.5771 76.7209 38.967 77.1278 39.244 77.6776C39.5252 78.223 39.6658 78.9176 39.6658 79.7614V86H38.1573V79.8636C38.1573 79.0838 37.9549 78.4808 37.5501 78.0547C37.1495 77.6243 36.5934 77.4091 35.8817 77.4091C35.3874 77.4091 34.9442 77.5135 34.5522 77.7223C34.1644 77.9311 33.8576 78.2358 33.6317 78.6364C33.4102 79.0369 33.2994 79.5227 33.2994 80.0938ZM45.3148 86.2301C44.6926 86.2301 44.128 86.1129 43.6209 85.8786C43.1138 85.6399 42.7111 85.2969 42.4128 84.8494C42.1145 84.3977 41.9654 83.8523 41.9654 83.2131C41.9654 82.6506 42.0762 82.1946 42.2978 81.8452C42.5194 81.4915 42.8155 81.2145 43.1863 81.0142C43.557 80.8139 43.9661 80.6648 44.4135 80.5668C44.8652 80.4645 45.3191 80.3835 45.775 80.3239C46.3716 80.2472 46.8553 80.1896 47.226 80.1513C47.601 80.1087 47.8738 80.0384 48.0442 79.9403C48.2189 79.8423 48.3063 79.6719 48.3063 79.429V79.3778C48.3063 78.7472 48.1337 78.2571 47.7885 77.9077C47.4476 77.5582 46.9299 77.3835 46.2353 77.3835C45.5151 77.3835 44.9505 77.5412 44.5414 77.8565C44.1323 78.1719 43.8446 78.5085 43.6784 78.8665L42.2466 78.3551C42.5023 77.7585 42.8432 77.294 43.2694 76.9616C43.6998 76.625 44.1685 76.3906 44.6756 76.2585C45.187 76.1222 45.6898 76.054 46.1841 76.054C46.4995 76.054 46.8617 76.0923 47.2708 76.169C47.6841 76.2415 48.0826 76.3928 48.4661 76.6229C48.8539 76.853 49.1756 77.2003 49.4313 77.6648C49.687 78.1293 49.8148 78.7514 49.8148 79.5312V86H48.3063V84.6705H48.2296C48.1273 84.8835 47.9569 85.1115 47.7182 85.3544C47.4796 85.5973 47.1621 85.804 46.7658 85.9744C46.3695 86.1449 45.8858 86.2301 45.3148 86.2301ZM45.5449 84.875C46.1415 84.875 46.6444 84.7578 47.0534 84.5234C47.4668 84.2891 47.7779 83.9865 47.9867 83.6158C48.1998 83.245 48.3063 82.8551 48.3063 82.446V81.0653C48.2424 81.142 48.1017 81.2124 47.8844 81.2763C47.6713 81.3359 47.4242 81.3892 47.1429 81.4361C46.8659 81.4787 46.5953 81.517 46.3311 81.5511C46.0712 81.581 45.8603 81.6065 45.6983 81.6278C45.3063 81.679 44.9398 81.7621 44.5989 81.8771C44.2623 81.9879 43.9895 82.1562 43.7807 82.3821C43.5762 82.6037 43.4739 82.9062 43.4739 83.2898C43.4739 83.8139 43.6678 84.2102 44.0556 84.4787C44.4476 84.7429 44.9441 84.875 45.5449 84.875ZM45.5961 74.8523L47.1557 71.8864H48.9199L46.9256 74.8523H45.5961ZM54.0767 80.0938V86H52.5682V76.1818H54.0256V77.7159H54.1534C54.3835 77.2173 54.733 76.8168 55.2017 76.5142C55.6705 76.2074 56.2756 76.054 57.017 76.054C57.6818 76.054 58.2635 76.1903 58.7621 76.4631C59.2607 76.7315 59.6484 77.1406 59.9254 77.6903C60.2024 78.2358 60.3409 78.9261 60.3409 79.7614V86H58.8324V79.8636C58.8324 79.0923 58.6321 78.4915 58.2315 78.0611C57.831 77.6264 57.2813 77.4091 56.5824 77.4091C56.1009 77.4091 55.6705 77.5135 55.2912 77.7223C54.9162 77.9311 54.62 78.2358 54.4027 78.6364C54.1854 79.0369 54.0767 79.5227 54.0767 80.0938ZM67.0605 89.8864C66.3319 89.8864 65.7054 89.7926 65.1813 89.6051C64.6571 89.4219 64.2203 89.179 63.8709 88.8764C63.5257 88.5781 63.2509 88.2585 63.0463 87.9176L64.248 87.0739C64.3844 87.2528 64.557 87.4574 64.7658 87.6875C64.9746 87.9219 65.2601 88.1243 65.6223 88.2947C65.9888 88.4695 66.4682 88.5568 67.0605 88.5568C67.8532 88.5568 68.5073 88.3651 69.0229 87.9815C69.5385 87.598 69.7963 86.9972 69.7963 86.179V84.1847H69.6685C69.5577 84.3636 69.4 84.5852 69.1955 84.8494C68.9952 85.1094 68.7054 85.3416 68.3262 85.5462C67.9512 85.7464 67.4441 85.8466 66.8049 85.8466C66.0123 85.8466 65.3006 85.6591 64.6699 85.2841C64.0435 84.9091 63.5471 84.3636 63.1806 83.6477C62.8184 82.9318 62.6373 82.0625 62.6373 81.0398C62.6373 80.0341 62.8141 79.1584 63.1678 78.4126C63.5215 77.6626 64.0137 77.0831 64.6444 76.674C65.275 76.2607 66.0037 76.054 66.8304 76.054C67.4696 76.054 67.9767 76.1605 68.3517 76.3736C68.731 76.5824 69.0208 76.821 69.2211 77.0895C69.4256 77.3537 69.5833 77.571 69.6941 77.7415H69.8475V76.1818H71.3049V86.2812C71.3049 87.125 71.1131 87.8111 70.7296 88.3395C70.3503 88.8722 69.839 89.2621 69.1955 89.5092C68.5563 89.7607 67.8446 89.8864 67.0605 89.8864ZM67.0094 84.4915C67.6145 84.4915 68.1259 84.353 68.5435 84.076C68.9611 83.799 69.2786 83.4006 69.4959 82.8807C69.7132 82.3608 69.8219 81.7386 69.8219 81.0142C69.8219 80.3068 69.7154 79.6825 69.5023 79.1413C69.2892 78.6001 68.9739 78.1761 68.5563 77.8693C68.1387 77.5625 67.623 77.4091 67.0094 77.4091C66.3702 77.4091 65.8375 77.571 65.4114 77.8949C64.9895 78.2187 64.6721 78.6534 64.459 79.1989C64.2502 79.7443 64.1458 80.3494 64.1458 81.0142C64.1458 81.696 64.2523 82.299 64.4654 82.8232C64.6827 83.343 65.0023 83.7521 65.4242 84.0504C65.8503 84.3445 66.3787 84.4915 67.0094 84.4915ZM86.0833 78.3807L84.7282 78.7642C84.6429 78.5384 84.5172 78.3189 84.351 78.1058C84.1891 77.8885 83.9675 77.7095 83.6863 77.5689C83.405 77.4283 83.0449 77.358 82.606 77.358C82.0051 77.358 81.5044 77.4964 81.1039 77.7734C80.7076 78.0462 80.5094 78.3935 80.5094 78.8153C80.5094 79.1903 80.6458 79.4865 80.9185 79.7038C81.1912 79.9212 81.6174 80.1023 82.1969 80.2472L83.6543 80.6051C84.5321 80.8182 85.1863 81.1442 85.6167 81.5831C86.0471 82.0178 86.2623 82.5781 86.2623 83.2642C86.2623 83.8267 86.1003 84.3295 85.7765 84.7727C85.4569 85.2159 85.0094 85.5653 84.4341 85.821C83.8588 86.0767 83.1898 86.2045 82.427 86.2045C81.4256 86.2045 80.5968 85.9872 79.9405 85.5526C79.2843 85.1179 78.8688 84.483 78.6941 83.6477L80.1259 83.2898C80.2623 83.8182 80.5201 84.2145 80.8993 84.4787C81.2828 84.7429 81.7836 84.875 82.4015 84.875C83.1046 84.875 83.6628 84.7259 84.0762 84.4276C84.4938 84.125 84.7026 83.7628 84.7026 83.3409C84.7026 83 84.5833 82.7145 84.3446 82.4844C84.106 82.25 83.7395 82.0753 83.2452 81.9602L81.6088 81.5767C80.7097 81.3636 80.0492 81.0334 79.6273 80.5859C79.2097 80.1342 79.0009 79.5696 79.0009 78.892C79.0009 78.3381 79.1564 77.848 79.4675 77.4219C79.7828 76.9957 80.2111 76.6612 80.7523 76.4183C81.2978 76.1754 81.9157 76.054 82.606 76.054C83.5776 76.054 84.3404 76.267 84.8944 76.6932C85.4526 77.1193 85.8489 77.6818 86.0833 78.3807ZM88.533 86V76.1818H90.0415V86H88.533ZM89.3001 74.5455C89.006 74.5455 88.7525 74.4453 88.5394 74.245C88.3306 74.0447 88.2262 73.804 88.2262 73.5227C88.2262 73.2415 88.3306 73.0007 88.5394 72.8004C88.7525 72.6001 89.006 72.5 89.3001 72.5C89.5941 72.5 89.8455 72.6001 90.0543 72.8004C90.2674 73.0007 90.3739 73.2415 90.3739 73.5227C90.3739 73.804 90.2674 74.0447 90.0543 74.245C89.8455 74.4453 89.5941 74.5455 89.3001 74.5455ZM94.313 80.0938V86H92.8045V76.1818H94.2619V77.7159H94.3897C94.6199 77.2173 94.9693 76.8168 95.438 76.5142C95.9068 76.2074 96.5119 76.054 97.2534 76.054C97.9181 76.054 98.4998 76.1903 98.9984 76.4631C99.497 76.7315 99.8848 77.1406 100.162 77.6903C100.439 78.2358 100.577 78.9261 100.577 79.7614V86H99.0687V79.8636C99.0687 79.0923 98.8684 78.4915 98.4679 78.0611C98.0673 77.6264 97.5176 77.4091 96.8187 77.4091C96.3372 77.4091 95.9068 77.5135 95.5275 77.7223C95.1525 77.9311 94.8564 78.2358 94.639 78.6364C94.4217 79.0369 94.313 79.5227 94.313 80.0938ZM104.842 80.0938V86H103.334V72.9091H104.842V77.7159H104.97C105.2 77.2088 105.545 76.8061 106.006 76.5078C106.47 76.2053 107.088 76.054 107.859 76.054C108.528 76.054 109.114 76.1882 109.617 76.4567C110.12 76.7209 110.51 77.1278 110.787 77.6776C111.068 78.223 111.209 78.9176 111.209 79.7614V86H109.7V79.8636C109.7 79.0838 109.498 78.4808 109.093 78.0547C108.692 77.6243 108.136 77.4091 107.425 77.4091C106.93 77.4091 106.487 77.5135 106.095 77.7223C105.707 77.9311 105.401 78.2358 105.175 78.6364C104.953 79.0369 104.842 79.5227 104.842 80.0938ZM123.301 76.1818V77.4602H118.213V76.1818H123.301ZM119.696 73.8295H121.204V83.1875C121.204 83.6136 121.266 83.9332 121.39 84.1463C121.518 84.3551 121.68 84.4957 121.876 84.5682C122.076 84.6364 122.287 84.6705 122.508 84.6705C122.675 84.6705 122.811 84.6619 122.917 84.6449C123.024 84.6236 123.109 84.6065 123.173 84.5938L123.48 85.9489C123.378 85.9872 123.235 86.0256 123.052 86.0639C122.868 86.1065 122.636 86.1278 122.355 86.1278C121.929 86.1278 121.511 86.0362 121.102 85.853C120.697 85.6697 120.361 85.3906 120.092 85.0156C119.828 84.6406 119.696 84.1676 119.696 83.5966V73.8295ZM128.459 86.2301C127.837 86.2301 127.273 86.1129 126.765 85.8786C126.258 85.6399 125.856 85.2969 125.557 84.8494C125.259 84.3977 125.11 83.8523 125.11 83.2131C125.11 82.6506 125.221 82.1946 125.442 81.8452C125.664 81.4915 125.96 81.2145 126.331 81.0142C126.702 80.8139 127.111 80.6648 127.558 80.5668C128.01 80.4645 128.464 80.3835 128.92 80.3239C129.516 80.2472 130 80.1896 130.371 80.1513C130.746 80.1087 131.018 80.0384 131.189 79.9403C131.363 79.8423 131.451 79.6719 131.451 79.429V79.3778C131.451 78.7472 131.278 78.2571 130.933 77.9077C130.592 77.5582 130.074 77.3835 129.38 77.3835C128.66 77.3835 128.095 77.5412 127.686 77.8565C127.277 78.1719 126.989 78.5085 126.823 78.8665L125.391 78.3551C125.647 77.7585 125.988 77.294 126.414 76.9616C126.844 76.625 127.313 76.3906 127.82 76.2585C128.331 76.1222 128.834 76.054 129.329 76.054C129.644 76.054 130.006 76.0923 130.415 76.169C130.829 76.2415 131.227 76.3928 131.611 76.6229C131.998 76.853 132.32 77.2003 132.576 77.6648C132.831 78.1293 132.959 78.7514 132.959 79.5312V86H131.451V84.6705H131.374C131.272 84.8835 131.101 85.1115 130.863 85.3544C130.624 85.5973 130.307 85.804 129.91 85.9744C129.514 86.1449 129.03 86.2301 128.459 86.2301ZM128.689 84.875C129.286 84.875 129.789 84.7578 130.198 84.5234C130.611 84.2891 130.922 83.9865 131.131 83.6158C131.344 83.245 131.451 82.8551 131.451 82.446V81.0653C131.387 81.142 131.246 81.2124 131.029 81.2763C130.816 81.3359 130.569 81.3892 130.287 81.4361C130.01 81.4787 129.74 81.517 129.476 81.5511C129.216 81.581 129.005 81.6065 128.843 81.6278C128.451 81.679 128.084 81.7621 127.743 81.8771C127.407 81.9879 127.134 82.1562 126.925 82.3821C126.721 82.6037 126.618 82.9062 126.618 83.2898C126.618 83.8139 126.812 84.2102 127.2 84.4787C127.592 84.7429 128.089 84.875 128.689 84.875ZM129.354 89.2472C129.06 89.2472 128.807 89.147 128.594 88.9467C128.385 88.7464 128.28 88.5057 128.28 88.2244C128.28 87.9432 128.385 87.7024 128.594 87.5021C128.807 87.3018 129.06 87.2017 129.354 87.2017C129.648 87.2017 129.9 87.3018 130.108 87.5021C130.322 87.7024 130.428 87.9432 130.428 88.2244C130.428 88.5057 130.322 88.7464 130.108 88.9467C129.9 89.147 129.648 89.2472 129.354 89.2472ZM135.713 86V76.1818H137.221V86H135.713ZM136.48 74.5455C136.186 74.5455 135.932 74.4453 135.719 74.245C135.51 74.0447 135.406 73.804 135.406 73.5227C135.406 73.2415 135.51 73.0007 135.719 72.8004C135.932 72.6001 136.186 72.5 136.48 72.5C136.774 72.5 137.025 72.6001 137.234 72.8004C137.447 73.0007 137.554 73.2415 137.554 73.5227C137.554 73.804 137.447 74.0447 137.234 74.245C137.025 74.4453 136.774 74.5455 136.48 74.5455ZM145.788 72.9091L149.675 83.929H149.828L153.714 72.9091H155.376L150.569 86H148.933L144.126 72.9091H145.788ZM157.211 86V76.1818H158.719V86H157.211ZM157.978 74.5455C157.684 74.5455 157.43 74.4453 157.217 74.245C157.008 74.0447 156.904 73.804 156.904 73.5227C156.904 73.2415 157.008 73.0007 157.217 72.8004C157.43 72.6001 157.684 72.5 157.978 72.5C158.272 72.5 158.523 72.6001 158.732 72.8004C158.945 73.0007 159.052 73.2415 159.052 73.5227C159.052 73.804 158.945 74.0447 158.732 74.245C158.523 74.4453 158.272 74.5455 157.978 74.5455ZM165.599 86.2045C164.653 86.2045 163.837 85.9957 163.151 85.5781C162.469 85.1562 161.942 84.5682 161.572 83.8139C161.205 83.0554 161.022 82.1733 161.022 81.1676C161.022 80.1619 161.205 79.2756 161.572 78.5085C161.942 77.7372 162.458 77.1364 163.119 76.706C163.783 76.2713 164.559 76.054 165.445 76.054C165.957 76.054 166.462 76.1392 166.96 76.3097C167.459 76.4801 167.913 76.7571 168.322 77.1406C168.731 77.5199 169.057 78.0227 169.3 78.6491C169.543 79.2756 169.664 80.0469 169.664 80.9631V81.6023H162.096V80.2983H168.13C168.13 79.7443 168.019 79.25 167.798 78.8153C167.58 78.3807 167.269 78.0376 166.864 77.7862C166.464 77.5348 165.991 77.4091 165.445 77.4091C164.844 77.4091 164.325 77.5582 163.886 77.8565C163.451 78.1506 163.116 78.5341 162.882 79.0071C162.648 79.4801 162.531 79.9872 162.531 80.5284V81.3977C162.531 82.1392 162.658 82.7678 162.914 83.2834C163.174 83.7947 163.534 84.1847 163.994 84.4531C164.455 84.7173 164.989 84.8494 165.599 84.8494C165.995 84.8494 166.353 84.794 166.673 84.6832C166.996 84.5682 167.276 84.3977 167.51 84.1719C167.744 83.9418 167.925 83.6562 168.053 83.3153L169.511 83.7244C169.357 84.2188 169.099 84.6534 168.737 85.0284C168.375 85.3991 167.928 85.6889 167.395 85.8977C166.862 86.1023 166.263 86.2045 165.599 86.2045ZM166.698 75.0057L165.369 73.2159L164.039 75.0057H162.607V74.9034L164.678 72.2443H166.059L168.13 74.9034V75.0057H166.698ZM165.369 89.2472C165.075 89.2472 164.821 89.147 164.608 88.9467C164.399 88.7464 164.295 88.5057 164.295 88.2244C164.295 87.9432 164.399 87.7024 164.608 87.5021C164.821 87.3018 165.075 87.2017 165.369 87.2017C165.663 87.2017 165.914 87.3018 166.123 87.5021C166.336 87.7024 166.442 87.9432 166.442 88.2244C166.442 88.5057 166.336 88.7464 166.123 88.9467C165.914 89.147 165.663 89.2472 165.369 89.2472ZM176.229 76.1818V77.4602H171.141V76.1818H176.229ZM172.624 73.8295H174.132V83.1875C174.132 83.6136 174.194 83.9332 174.317 84.1463C174.445 84.3551 174.607 84.4957 174.803 84.5682C175.004 84.6364 175.214 84.6705 175.436 84.6705C175.602 84.6705 175.739 84.6619 175.845 84.6449C175.952 84.6236 176.037 84.6065 176.101 84.5938L176.408 85.9489C176.305 85.9872 176.163 86.0256 175.979 86.0639C175.796 86.1065 175.564 86.1278 175.283 86.1278C174.857 86.1278 174.439 86.0362 174.03 85.853C173.625 85.6697 173.288 85.3906 173.02 85.0156C172.756 84.6406 172.624 84.1676 172.624 83.5966V73.8295ZM194.146 72.9091V86H192.612L185.478 75.7216H185.35V86H183.765V72.9091H185.299L192.458 83.2131H192.586V72.9091H194.146ZM200.002 86.2301C199.38 86.2301 198.816 86.1129 198.308 85.8786C197.801 85.6399 197.399 85.2969 197.1 84.8494C196.802 84.3977 196.653 83.8523 196.653 83.2131C196.653 82.6506 196.764 82.1946 196.985 81.8452C197.207 81.4915 197.503 81.2145 197.874 81.0142C198.244 80.8139 198.654 80.6648 199.101 80.5668C199.553 80.4645 200.007 80.3835 200.463 80.3239C201.059 80.2472 201.543 80.1896 201.914 80.1513C202.289 80.1087 202.561 80.0384 202.732 79.9403C202.906 79.8423 202.994 79.6719 202.994 79.429V79.3778C202.994 78.7472 202.821 78.2571 202.476 77.9077C202.135 77.5582 201.617 77.3835 200.923 77.3835C200.203 77.3835 199.638 77.5412 199.229 77.8565C198.82 78.1719 198.532 78.5085 198.366 78.8665L196.934 78.3551C197.19 77.7585 197.531 77.294 197.957 76.9616C198.387 76.625 198.856 76.3906 199.363 76.2585C199.874 76.1222 200.377 76.054 200.872 76.054C201.187 76.054 201.549 76.0923 201.958 76.169C202.372 76.2415 202.77 76.3928 203.154 76.6229C203.541 76.853 203.863 77.2003 204.119 77.6648C204.374 78.1293 204.502 78.7514 204.502 79.5312V86H202.994V84.6705H202.917C202.815 84.8835 202.644 85.1115 202.406 85.3544C202.167 85.5973 201.85 85.804 201.453 85.9744C201.057 86.1449 200.573 86.2301 200.002 86.2301ZM200.232 84.875C200.829 84.875 201.332 84.7578 201.741 84.5234C202.154 84.2891 202.465 83.9865 202.674 83.6158C202.887 83.245 202.994 82.8551 202.994 82.446V81.0653C202.93 81.142 202.789 81.2124 202.572 81.2763C202.359 81.3359 202.112 81.3892 201.83 81.4361C201.553 81.4787 201.283 81.517 201.019 81.5511C200.759 81.581 200.548 81.6065 200.386 81.6278C199.994 81.679 199.627 81.7621 199.286 81.8771C198.95 81.9879 198.677 82.1562 198.468 82.3821C198.264 82.6037 198.161 82.9062 198.161 83.2898C198.161 83.8139 198.355 84.2102 198.743 84.4787C199.135 84.7429 199.632 84.875 200.232 84.875ZM207.256 86V76.1818H208.713V77.7159H208.841C209.045 77.1918 209.376 76.7848 209.832 76.495C210.288 76.201 210.835 76.054 211.474 76.054C212.122 76.054 212.661 76.201 213.092 76.495C213.526 76.7848 213.865 77.1918 214.108 77.7159H214.21C214.462 77.2088 214.839 76.8061 215.342 76.5078C215.844 76.2053 216.447 76.054 217.151 76.054C218.028 76.054 218.746 76.3288 219.305 76.8786C219.863 77.424 220.142 78.2741 220.142 79.429V86H218.634V79.429C218.634 78.7045 218.435 78.1868 218.039 77.8757C217.643 77.5646 217.176 77.4091 216.639 77.4091C215.949 77.4091 215.414 77.6179 215.035 78.0355C214.656 78.4489 214.466 78.973 214.466 79.608V86H212.932V79.2756C212.932 78.7173 212.751 78.2678 212.388 77.9268C212.026 77.5817 211.56 77.4091 210.989 77.4091C210.597 77.4091 210.23 77.5135 209.889 77.7223C209.553 77.9311 209.28 78.2209 209.071 78.5916C208.866 78.9581 208.764 79.3821 208.764 79.8636V86H207.256ZM225.15 84.2102L225.048 84.9006C224.975 85.3864 224.865 85.9062 224.716 86.4602C224.571 87.0142 224.419 87.5362 224.262 88.0263C224.104 88.5163 223.974 88.9063 223.872 89.196H222.721C222.777 88.9233 222.849 88.5632 222.939 88.1158C223.028 87.6683 223.118 87.1676 223.207 86.6136C223.301 86.0639 223.377 85.5014 223.437 84.9261L223.514 84.2102H225.15ZM241.036 76.1818L237.405 86H235.871L232.241 76.1818H233.877L236.587 84.0057H236.689L239.4 76.1818H241.036ZM250.653 75.4403H252.059C252.059 76.4119 251.846 77.1832 251.42 77.7543C250.998 78.3253 250.257 78.6108 249.195 78.6108V77.5369C249.622 77.5369 249.937 77.4496 250.142 77.2749C250.35 77.1001 250.487 76.8551 250.551 76.5398C250.619 76.2244 250.653 75.858 250.653 75.4403ZM246.664 86.2045C245.778 86.2045 245 85.9936 244.331 85.5717C243.666 85.1499 243.146 84.5597 242.771 83.8011C242.401 83.0426 242.215 82.1562 242.215 81.142C242.215 80.1193 242.401 79.2266 242.771 78.4638C243.146 77.701 243.666 77.1087 244.331 76.6868C245 76.2649 245.778 76.054 246.664 76.054C247.551 76.054 248.326 76.2649 248.991 76.6868C249.66 77.1087 250.18 77.701 250.551 78.4638C250.926 79.2266 251.113 80.1193 251.113 81.142C251.113 82.1562 250.926 83.0426 250.551 83.8011C250.18 84.5597 249.66 85.1499 248.991 85.5717C248.326 85.9936 247.551 86.2045 246.664 86.2045ZM246.664 84.8494C247.338 84.8494 247.892 84.6768 248.326 84.3317C248.761 83.9865 249.083 83.5327 249.291 82.9702C249.5 82.4077 249.605 81.7983 249.605 81.142C249.605 80.4858 249.5 79.8743 249.291 79.3075C249.083 78.7408 248.761 78.2827 248.326 77.9332C247.892 77.5838 247.338 77.4091 246.664 77.4091C245.991 77.4091 245.437 77.5838 245.002 77.9332C244.568 78.2827 244.246 78.7408 244.037 79.3075C243.828 79.8743 243.724 80.4858 243.724 81.142C243.724 81.7983 243.828 82.4077 244.037 82.9702C244.246 83.5327 244.568 83.9865 245.002 84.3317C245.437 84.6768 245.991 84.8494 246.664 84.8494ZM245.974 74.8523L247.534 71.8864H249.298L247.303 74.8523H245.974ZM253.433 86V76.1818H254.942V86H253.433ZM254.2 74.5455C253.906 74.5455 253.653 74.4453 253.44 74.245C253.231 74.0447 253.127 73.804 253.127 73.5227C253.127 73.2415 253.231 73.0007 253.44 72.8004C253.653 72.6001 253.906 72.5 254.2 72.5C254.494 72.5 254.746 72.6001 254.955 72.8004C255.168 73.0007 255.274 73.2415 255.274 73.5227C255.274 73.804 255.168 74.0447 254.955 74.245C254.746 74.4453 254.494 74.5455 254.2 74.5455ZM267.037 76.1818V77.4602H261.949V76.1818H267.037ZM263.432 73.8295H264.941V83.1875C264.941 83.6136 265.002 83.9332 265.126 84.1463C265.254 84.3551 265.416 84.4957 265.612 84.5682C265.812 84.6364 266.023 84.6705 266.245 84.6705C266.411 84.6705 266.547 84.6619 266.654 84.6449C266.76 84.6236 266.846 84.6065 266.909 84.5938L267.216 85.9489C267.114 85.9872 266.971 86.0256 266.788 86.0639C266.605 86.1065 266.373 86.1278 266.091 86.1278C265.665 86.1278 265.248 86.0362 264.838 85.853C264.434 85.6697 264.097 85.3906 263.828 85.0156C263.564 84.6406 263.432 84.1676 263.432 83.5966V73.8295ZM271.026 80.0938V86H269.517V72.9091H271.026V77.7159H271.154C271.384 77.2088 271.729 76.8061 272.189 76.5078C272.654 76.2053 273.272 76.054 274.043 76.054C274.712 76.054 275.298 76.1882 275.801 76.4567C276.304 76.7209 276.694 77.1278 276.971 77.6776C277.252 78.223 277.392 78.9176 277.392 79.7614V86H275.884V79.8636C275.884 79.0838 275.681 78.4808 275.277 78.0547C274.876 77.6243 274.32 77.4091 273.608 77.4091C273.114 77.4091 272.671 77.5135 272.279 77.7223C271.891 77.9311 271.584 78.2358 271.358 78.6364C271.137 79.0369 271.026 79.5227 271.026 80.0938ZM280.152 86V76.1818H281.661V86H280.152ZM280.919 74.5455C280.625 74.5455 280.372 74.4453 280.159 74.245C279.95 74.0447 279.845 73.804 279.845 73.5227C279.845 73.2415 279.95 73.0007 280.159 72.8004C280.372 72.6001 280.625 72.5 280.919 72.5C281.213 72.5 281.465 72.6001 281.673 72.8004C281.887 73.0007 281.993 73.2415 281.993 73.5227C281.993 73.804 281.887 74.0447 281.673 74.245C281.465 74.4453 281.213 74.5455 280.919 74.5455ZM280.919 89.2472C280.625 89.2472 280.372 89.147 280.159 88.9467C279.95 88.7464 279.845 88.5057 279.845 88.2244C279.845 87.9432 279.95 87.7024 280.159 87.5021C280.372 87.3018 280.625 87.2017 280.919 87.2017C281.213 87.2017 281.465 87.3018 281.673 87.5021C281.887 87.7024 281.993 87.9432 281.993 88.2244C281.993 88.5057 281.887 88.7464 281.673 88.9467C281.465 89.147 281.213 89.2472 280.919 89.2472ZM289.486 89.6818V76.1818H290.944V77.7415H291.123C291.233 77.571 291.387 77.3537 291.583 77.0895C291.783 76.821 292.069 76.5824 292.439 76.3736C292.814 76.1605 293.321 76.054 293.961 76.054C294.787 76.054 295.516 76.2607 296.147 76.674C296.777 77.0874 297.27 77.6733 297.623 78.4318C297.977 79.1903 298.154 80.0852 298.154 81.1165C298.154 82.1562 297.977 83.0575 297.623 83.8203C297.27 84.5788 296.779 85.1669 296.153 85.5845C295.527 85.9979 294.804 86.2045 293.986 86.2045C293.355 86.2045 292.85 86.1001 292.471 85.8913C292.092 85.6783 291.8 85.4375 291.596 85.169C291.391 84.8963 291.233 84.6705 291.123 84.4915H290.995V89.6818H289.486ZM290.969 81.0909C290.969 81.8324 291.078 82.4865 291.295 83.0533C291.512 83.6158 291.83 84.0568 292.248 84.3764C292.665 84.6918 293.176 84.8494 293.782 84.8494C294.412 84.8494 294.939 84.6832 295.36 84.3509C295.787 84.0142 296.106 83.5625 296.319 82.9957C296.537 82.4247 296.645 81.7898 296.645 81.0909C296.645 80.4006 296.539 79.7784 296.326 79.2244C296.117 78.6662 295.799 78.2251 295.373 77.9013C294.951 77.5732 294.421 77.4091 293.782 77.4091C293.168 77.4091 292.652 77.5646 292.235 77.8757C291.817 78.1825 291.502 78.6129 291.289 79.1669C291.076 79.7166 290.969 80.358 290.969 81.0909ZM301.963 80.0938V86H300.455V72.9091H301.963V77.7159H302.091C302.321 77.2088 302.667 76.8061 303.127 76.5078C303.591 76.2053 304.209 76.054 304.98 76.054C305.65 76.054 306.235 76.1882 306.738 76.4567C307.241 76.7209 307.631 77.1278 307.908 77.6776C308.189 78.223 308.33 78.9176 308.33 79.7614V86H306.821V79.8636C306.821 79.0838 306.619 78.4808 306.214 78.0547C305.814 77.6243 305.257 77.4091 304.546 77.4091C304.051 77.4091 303.608 77.5135 303.216 77.7223C302.828 77.9311 302.522 78.2358 302.296 78.6364C302.074 79.0369 301.963 79.5227 301.963 80.0938ZM313.979 86.2301C313.357 86.2301 312.792 86.1129 312.285 85.8786C311.778 85.6399 311.375 85.2969 311.077 84.8494C310.779 84.3977 310.629 83.8523 310.629 83.2131C310.629 82.6506 310.74 82.1946 310.962 81.8452C311.183 81.4915 311.48 81.2145 311.85 81.0142C312.221 80.8139 312.63 80.6648 313.078 80.5668C313.529 80.4645 313.983 80.3835 314.439 80.3239C315.036 80.2472 315.519 80.1896 315.89 80.1513C316.265 80.1087 316.538 80.0384 316.708 79.9403C316.883 79.8423 316.97 79.6719 316.97 79.429V79.3778C316.97 78.7472 316.798 78.2571 316.453 77.9077C316.112 77.5582 315.594 77.3835 314.899 77.3835C314.179 77.3835 313.615 77.5412 313.205 77.8565C312.796 78.1719 312.509 78.5085 312.343 78.8665L310.911 78.3551C311.166 77.7585 311.507 77.294 311.933 76.9616C312.364 76.625 312.833 76.3906 313.34 76.2585C313.851 76.1222 314.354 76.054 314.848 76.054C315.164 76.054 315.526 76.0923 315.935 76.169C316.348 76.2415 316.747 76.3928 317.13 76.6229C317.518 76.853 317.84 77.2003 318.095 77.6648C318.351 78.1293 318.479 78.7514 318.479 79.5312V86H316.97V84.6705H316.894C316.791 84.8835 316.621 85.1115 316.382 85.3544C316.144 85.5973 315.826 85.804 315.43 85.9744C315.034 86.1449 314.55 86.2301 313.979 86.2301ZM314.209 84.875C314.806 84.875 315.308 84.7578 315.718 84.5234C316.131 84.2891 316.442 83.9865 316.651 83.6158C316.864 83.245 316.97 82.8551 316.97 82.446V81.0653C316.906 81.142 316.766 81.2124 316.548 81.2763C316.335 81.3359 316.088 81.3892 315.807 81.4361C315.53 81.4787 315.259 81.517 314.995 81.5511C314.735 81.581 314.524 81.6065 314.362 81.6278C313.97 81.679 313.604 81.7621 313.263 81.8771C312.926 81.9879 312.654 82.1562 312.445 82.3821C312.24 82.6037 312.138 82.9062 312.138 83.2898C312.138 83.8139 312.332 84.2102 312.72 84.4787C313.112 84.7429 313.608 84.875 314.209 84.875ZM315.641 72.6534L318.249 74.9801H316.408L314.95 73.625L313.493 74.9801H311.652L314.235 72.6534H315.641ZM311.09 71.0938L312.317 73.4205H311.013L309.198 71.0938H311.09ZM322.741 80.0938V86H321.232V76.1818H322.69V77.7159H322.817C323.048 77.2173 323.397 76.8168 323.866 76.5142C324.335 76.2074 324.94 76.054 325.681 76.054C326.346 76.054 326.928 76.1903 327.426 76.4631C327.925 76.7315 328.313 77.1406 328.589 77.6903C328.866 78.2358 329.005 78.9261 329.005 79.7614V86H327.496V79.8636C327.496 79.0923 327.296 78.4915 326.896 78.0611C326.495 77.6264 325.945 77.4091 325.246 77.4091C324.765 77.4091 324.335 77.5135 323.955 77.7223C323.58 77.9311 323.284 78.2358 323.067 78.6364C322.849 79.0369 322.741 79.5227 322.741 80.0938ZM113.079 98.1818V99.4602H107.991V98.1818H113.079ZM109.474 95.8295H110.983V105.188C110.983 105.614 111.044 105.933 111.168 106.146C111.296 106.355 111.458 106.496 111.654 106.568C111.854 106.636 112.065 106.67 112.287 106.67C112.453 106.67 112.589 106.662 112.696 106.645C112.802 106.624 112.888 106.607 112.951 106.594L113.258 107.949C113.156 107.987 113.013 108.026 112.83 108.064C112.647 108.107 112.415 108.128 112.133 108.128C111.707 108.128 111.29 108.036 110.88 107.853C110.476 107.67 110.139 107.391 109.87 107.016C109.606 106.641 109.474 106.168 109.474 105.597V95.8295ZM118.238 108.23C117.616 108.23 117.051 108.113 116.544 107.879C116.037 107.64 115.634 107.297 115.336 106.849C115.037 106.398 114.888 105.852 114.888 105.213C114.888 104.651 114.999 104.195 115.221 103.845C115.442 103.491 115.738 103.214 116.109 103.014C116.48 102.814 116.889 102.665 117.336 102.567C117.788 102.464 118.242 102.384 118.698 102.324C119.294 102.247 119.778 102.19 120.149 102.151C120.524 102.109 120.797 102.038 120.967 101.94C121.142 101.842 121.229 101.672 121.229 101.429V101.378C121.229 100.747 121.057 100.257 120.711 99.9077C120.37 99.5582 119.853 99.3835 119.158 99.3835C118.438 99.3835 117.873 99.5412 117.464 99.8565C117.055 100.172 116.767 100.509 116.601 100.866L115.169 100.355C115.425 99.7585 115.766 99.294 116.192 98.9616C116.623 98.625 117.091 98.3906 117.598 98.2585C118.11 98.1222 118.613 98.054 119.107 98.054C119.422 98.054 119.785 98.0923 120.194 98.169C120.607 98.2415 121.005 98.3928 121.389 98.6229C121.777 98.853 122.098 99.2003 122.354 99.6648C122.61 100.129 122.738 100.751 122.738 101.531V108H121.229V106.67H121.152C121.05 106.884 120.88 107.112 120.641 107.354C120.402 107.597 120.085 107.804 119.689 107.974C119.292 108.145 118.809 108.23 118.238 108.23ZM118.468 106.875C119.064 106.875 119.567 106.758 119.976 106.523C120.39 106.289 120.701 105.987 120.91 105.616C121.123 105.245 121.229 104.855 121.229 104.446V103.065C121.165 103.142 121.025 103.212 120.807 103.276C120.594 103.336 120.347 103.389 120.066 103.436C119.789 103.479 119.518 103.517 119.254 103.551C118.994 103.581 118.783 103.607 118.621 103.628C118.229 103.679 117.863 103.762 117.522 103.877C117.185 103.988 116.912 104.156 116.704 104.382C116.499 104.604 116.397 104.906 116.397 105.29C116.397 105.814 116.591 106.21 116.978 106.479C117.37 106.743 117.867 106.875 118.468 106.875ZM120.462 94.9091H121.868C121.868 95.5994 121.63 96.1641 121.152 96.603C120.675 97.0419 120.027 97.2614 119.209 97.2614C118.404 97.2614 117.763 97.0419 117.285 96.603C116.812 96.1641 116.576 95.5994 116.576 94.9091H117.982C117.982 95.2415 118.074 95.5334 118.257 95.7848C118.444 96.0362 118.762 96.1619 119.209 96.1619C119.657 96.1619 119.976 96.0362 120.168 95.7848C120.364 95.5334 120.462 95.2415 120.462 94.9091ZM127 102.094V108H125.491V98.1818H126.948V99.7159H127.076C127.306 99.2173 127.656 98.8168 128.125 98.5142C128.593 98.2074 129.198 98.054 129.94 98.054C130.605 98.054 131.186 98.1903 131.685 98.4631C132.184 98.7315 132.571 99.1406 132.848 99.6903C133.125 100.236 133.264 100.926 133.264 101.761V108H131.755V101.864C131.755 101.092 131.555 100.491 131.154 100.061C130.754 99.6264 130.204 99.4091 129.505 99.4091C129.024 99.4091 128.593 99.5135 128.214 99.7223C127.839 99.9311 127.543 100.236 127.326 100.636C127.108 101.037 127 101.523 127 102.094ZM139.983 111.886C139.255 111.886 138.628 111.793 138.104 111.605C137.58 111.422 137.143 111.179 136.794 110.876C136.449 110.578 136.174 110.259 135.969 109.918L137.171 109.074C137.307 109.253 137.48 109.457 137.689 109.688C137.897 109.922 138.183 110.124 138.545 110.295C138.912 110.469 139.391 110.557 139.983 110.557C140.776 110.557 141.43 110.365 141.946 109.982C142.461 109.598 142.719 108.997 142.719 108.179V106.185H142.591C142.481 106.364 142.323 106.585 142.118 106.849C141.918 107.109 141.628 107.342 141.249 107.546C140.874 107.746 140.367 107.847 139.728 107.847C138.935 107.847 138.223 107.659 137.593 107.284C136.966 106.909 136.47 106.364 136.103 105.648C135.741 104.932 135.56 104.062 135.56 103.04C135.56 102.034 135.737 101.158 136.091 100.413C136.444 99.6626 136.937 99.0831 137.567 98.674C138.198 98.2607 138.927 98.054 139.753 98.054C140.392 98.054 140.9 98.1605 141.275 98.3736C141.654 98.5824 141.944 98.821 142.144 99.0895C142.348 99.3537 142.506 99.571 142.617 99.7415H142.77V98.1818H144.228V108.281C144.228 109.125 144.036 109.811 143.652 110.339C143.273 110.872 142.762 111.262 142.118 111.509C141.479 111.761 140.767 111.886 139.983 111.886ZM139.932 106.491C140.537 106.491 141.049 106.353 141.466 106.076C141.884 105.799 142.201 105.401 142.419 104.881C142.636 104.361 142.745 103.739 142.745 103.014C142.745 102.307 142.638 101.683 142.425 101.141C142.212 100.6 141.897 100.176 141.479 99.8693C141.062 99.5625 140.546 99.4091 139.932 99.4091C139.293 99.4091 138.76 99.571 138.334 99.8949C137.912 100.219 137.595 100.653 137.382 101.199C137.173 101.744 137.069 102.349 137.069 103.014C137.069 103.696 137.175 104.299 137.388 104.823C137.606 105.343 137.925 105.752 138.347 106.05C138.773 106.344 139.302 106.491 139.932 106.491ZM153.56 94.9091V108H152.052V94.9091H153.56ZM160.44 108.205C159.494 108.205 158.677 107.996 157.991 107.578C157.31 107.156 156.783 106.568 156.413 105.814C156.046 105.055 155.863 104.173 155.863 103.168C155.863 102.162 156.046 101.276 156.413 100.509C156.783 99.7372 157.299 99.1364 157.959 98.706C158.624 98.2713 159.4 98.054 160.286 98.054C160.797 98.054 161.302 98.1392 161.801 98.3097C162.3 98.4801 162.753 98.7571 163.163 99.1406C163.572 99.5199 163.898 100.023 164.141 100.649C164.383 101.276 164.505 102.047 164.505 102.963V103.602H156.937V102.298H162.971C162.971 101.744 162.86 101.25 162.638 100.815C162.421 100.381 162.11 100.038 161.705 99.7862C161.305 99.5348 160.832 99.4091 160.286 99.4091C159.685 99.4091 159.165 99.5582 158.726 99.8565C158.292 100.151 157.957 100.534 157.723 101.007C157.489 101.48 157.371 101.987 157.371 102.528V103.398C157.371 104.139 157.499 104.768 157.755 105.283C158.015 105.795 158.375 106.185 158.835 106.453C159.295 106.717 159.83 106.849 160.44 106.849C160.836 106.849 161.194 106.794 161.513 106.683C161.837 106.568 162.116 106.398 162.351 106.172C162.585 105.942 162.766 105.656 162.894 105.315L164.351 105.724C164.198 106.219 163.94 106.653 163.578 107.028C163.216 107.399 162.768 107.689 162.236 107.898C161.703 108.102 161.104 108.205 160.44 108.205ZM161.539 97.0057L160.209 95.2159L158.88 97.0057H157.448V96.9034L159.519 94.2443H160.9L162.971 96.9034V97.0057H161.539ZM168.308 102.094V108H166.8V98.1818H168.257V99.7159H168.385C168.615 99.2173 168.964 98.8168 169.433 98.5142C169.902 98.2074 170.507 98.054 171.248 98.054C171.913 98.054 172.495 98.1903 172.994 98.4631C173.492 98.7315 173.88 99.1406 174.157 99.6903C174.434 100.236 174.572 100.926 174.572 101.761V108H173.064V101.864C173.064 101.092 172.864 100.491 172.463 100.061C172.062 99.6264 171.513 99.4091 170.814 99.4091C170.332 99.4091 169.902 99.5135 169.523 99.7223C169.148 99.9311 168.851 100.236 168.634 100.636C168.417 101.037 168.308 101.523 168.308 102.094ZM186.354 111.886C185.626 111.886 184.999 111.793 184.475 111.605C183.951 111.422 183.514 111.179 183.165 110.876C182.82 110.578 182.545 110.259 182.34 109.918L183.542 109.074C183.678 109.253 183.851 109.457 184.06 109.688C184.269 109.922 184.554 110.124 184.916 110.295C185.283 110.469 185.762 110.557 186.354 110.557C187.147 110.557 187.801 110.365 188.317 109.982C188.832 109.598 189.09 108.997 189.09 108.179V106.185H188.962C188.852 106.364 188.694 106.585 188.489 106.849C188.289 107.109 187.999 107.342 187.62 107.546C187.245 107.746 186.738 107.847 186.099 107.847C185.306 107.847 184.595 107.659 183.964 107.284C183.337 106.909 182.841 106.364 182.475 105.648C182.112 104.932 181.931 104.062 181.931 103.04C181.931 102.034 182.108 101.158 182.462 100.413C182.815 99.6626 183.308 99.0831 183.938 98.674C184.569 98.2607 185.298 98.054 186.124 98.054C186.764 98.054 187.271 98.1605 187.646 98.3736C188.025 98.5824 188.315 98.821 188.515 99.0895C188.72 99.3537 188.877 99.571 188.988 99.7415H189.141V98.1818H190.599V108.281C190.599 109.125 190.407 109.811 190.024 110.339C189.644 110.872 189.133 111.262 188.489 111.509C187.85 111.761 187.139 111.886 186.354 111.886ZM186.303 106.491C186.908 106.491 187.42 106.353 187.837 106.076C188.255 105.799 188.573 105.401 188.79 104.881C189.007 104.361 189.116 103.739 189.116 103.014C189.116 102.307 189.009 101.683 188.796 101.141C188.583 100.6 188.268 100.176 187.85 99.8693C187.433 99.5625 186.917 99.4091 186.303 99.4091C185.664 99.4091 185.131 99.571 184.705 99.8949C184.283 100.219 183.966 100.653 183.753 101.199C183.544 101.744 183.44 102.349 183.44 103.014C183.44 103.696 183.546 104.299 183.759 104.823C183.977 105.343 184.296 105.752 184.718 106.05C185.144 106.344 185.673 106.491 186.303 106.491ZM196.249 108.23C195.627 108.23 195.063 108.113 194.555 107.879C194.048 107.64 193.646 107.297 193.347 106.849C193.049 106.398 192.9 105.852 192.9 105.213C192.9 104.651 193.011 104.195 193.232 103.845C193.454 103.491 193.75 103.214 194.121 103.014C194.492 102.814 194.901 102.665 195.348 102.567C195.8 102.464 196.254 102.384 196.71 102.324C197.306 102.247 197.79 102.19 198.161 102.151C198.536 102.109 198.808 102.038 198.979 101.94C199.153 101.842 199.241 101.672 199.241 101.429V101.378C199.241 100.747 199.068 100.257 198.723 99.9077C198.382 99.5582 197.864 99.3835 197.17 99.3835C196.45 99.3835 195.885 99.5412 195.476 99.8565C195.067 100.172 194.779 100.509 194.613 100.866L193.181 100.355C193.437 99.7585 193.778 99.294 194.204 98.9616C194.634 98.625 195.103 98.3906 195.61 98.2585C196.122 98.1222 196.624 98.054 197.119 98.054C197.434 98.054 197.796 98.0923 198.205 98.169C198.619 98.2415 199.017 98.3928 199.401 98.6229C199.788 98.853 200.11 99.2003 200.366 99.6648C200.622 100.129 200.749 100.751 200.749 101.531V108H199.241V106.67H199.164C199.062 106.884 198.891 107.112 198.653 107.354C198.414 107.597 198.097 107.804 197.7 107.974C197.304 108.145 196.82 108.23 196.249 108.23ZM196.479 106.875C197.076 106.875 197.579 106.758 197.988 106.523C198.401 106.289 198.712 105.987 198.921 105.616C199.134 105.245 199.241 104.855 199.241 104.446V103.065C199.177 103.142 199.036 103.212 198.819 103.276C198.606 103.336 198.359 103.389 198.078 103.436C197.801 103.479 197.53 103.517 197.266 103.551C197.006 103.581 196.795 103.607 196.633 103.628C196.241 103.679 195.874 103.762 195.533 103.877C195.197 103.988 194.924 104.156 194.715 104.382C194.511 104.604 194.408 104.906 194.408 105.29C194.408 105.814 194.602 106.21 194.99 106.479C195.382 106.743 195.879 106.875 196.479 106.875ZM197.911 94.6534L200.519 96.9801H198.678L197.221 95.625L195.764 96.9801H193.923L196.505 94.6534H197.911ZM193.36 93.0938L194.587 95.4205H193.283L191.468 93.0938H193.36ZM205.011 102.094V108H203.503V98.1818H204.96V99.7159H205.088C205.318 99.2173 205.668 98.8168 206.136 98.5142C206.605 98.2074 207.21 98.054 207.952 98.054C208.616 98.054 209.198 98.1903 209.697 98.4631C210.195 98.7315 210.583 99.1406 210.86 99.6903C211.137 100.236 211.275 100.926 211.275 101.761V108H209.767V101.864C209.767 101.092 209.567 100.491 209.166 100.061C208.766 99.6264 208.216 99.4091 207.517 99.4091C207.035 99.4091 206.605 99.5135 206.226 99.7223C205.851 99.9311 205.555 100.236 205.337 100.636C205.12 101.037 205.011 101.523 205.011 102.094ZM223.237 94.7301C223.774 94.7344 224.31 94.8366 224.847 95.0369C225.384 95.2372 225.874 95.5696 226.318 96.0341C226.761 96.4943 227.117 97.1229 227.385 97.9197C227.653 98.7166 227.788 99.7159 227.788 100.918C227.788 102.081 227.677 103.114 227.455 104.018C227.238 104.917 226.923 105.675 226.509 106.293C226.1 106.911 225.602 107.38 225.014 107.7C224.43 108.019 223.769 108.179 223.032 108.179C222.299 108.179 221.645 108.034 221.07 107.744C220.499 107.45 220.03 107.043 219.663 106.523C219.301 105.999 219.069 105.392 218.967 104.702H220.526C220.667 105.303 220.946 105.799 221.364 106.191C221.786 106.579 222.342 106.773 223.032 106.773C224.042 106.773 224.839 106.332 225.423 105.45C226.011 104.567 226.305 103.321 226.305 101.71H226.203C225.964 102.068 225.68 102.377 225.352 102.637C225.024 102.897 224.66 103.097 224.259 103.238C223.859 103.379 223.433 103.449 222.981 103.449C222.231 103.449 221.543 103.263 220.916 102.893C220.294 102.518 219.796 102.004 219.421 101.352C219.05 100.696 218.864 99.946 218.864 99.1023C218.864 98.3011 219.043 97.5682 219.401 96.9034C219.764 96.2344 220.271 95.7017 220.923 95.3054C221.579 94.9091 222.35 94.7173 223.237 94.7301ZM223.237 96.1364C222.7 96.1364 222.216 96.2706 221.786 96.5391C221.359 96.8033 221.021 97.1612 220.769 97.6129C220.522 98.0604 220.399 98.5568 220.399 99.1023C220.399 99.6477 220.518 100.144 220.756 100.592C220.999 101.035 221.33 101.388 221.747 101.653C222.169 101.913 222.649 102.043 223.185 102.043C223.59 102.043 223.967 101.964 224.317 101.806C224.666 101.644 224.971 101.425 225.231 101.148C225.495 100.866 225.702 100.549 225.851 100.195C226 99.8374 226.075 99.4645 226.075 99.0767C226.075 98.5653 225.951 98.0859 225.704 97.6385C225.461 97.1911 225.124 96.8288 224.694 96.5518C224.268 96.2749 223.782 96.1364 223.237 96.1364ZM236.975 105.545V104.855C236.975 104.378 237.073 103.941 237.269 103.545C237.469 103.144 237.759 102.825 238.138 102.586C238.522 102.343 238.986 102.222 239.532 102.222C240.085 102.222 240.55 102.343 240.925 102.586C241.3 102.825 241.583 103.144 241.775 103.545C241.967 103.941 242.063 104.378 242.063 104.855V105.545C242.063 106.023 241.965 106.462 241.769 106.862C241.577 107.259 241.291 107.578 240.912 107.821C240.537 108.06 240.077 108.179 239.532 108.179C238.978 108.179 238.511 108.06 238.132 107.821C237.752 107.578 237.465 107.259 237.269 106.862C237.073 106.462 236.975 106.023 236.975 105.545ZM238.279 104.855V105.545C238.279 105.942 238.372 106.298 238.56 106.613C238.747 106.924 239.071 107.08 239.532 107.08C239.979 107.08 240.294 106.924 240.478 106.613C240.665 106.298 240.759 105.942 240.759 105.545V104.855C240.759 104.459 240.669 104.105 240.49 103.794C240.311 103.479 239.992 103.321 239.532 103.321C239.084 103.321 238.762 103.479 238.566 103.794C238.375 104.105 238.279 104.459 238.279 104.855ZM230.455 98.054V97.3636C230.455 96.8864 230.553 96.4496 230.749 96.0533C230.949 95.6527 231.239 95.3331 231.618 95.0945C232.002 94.8516 232.466 94.7301 233.012 94.7301C233.566 94.7301 234.03 94.8516 234.405 95.0945C234.78 95.3331 235.063 95.6527 235.255 96.0533C235.447 96.4496 235.543 96.8864 235.543 97.3636V98.054C235.543 98.5312 235.445 98.9702 235.249 99.3707C235.057 99.767 234.772 100.087 234.392 100.33C234.017 100.568 233.557 100.688 233.012 100.688C232.458 100.688 231.991 100.568 231.612 100.33C231.233 100.087 230.945 99.767 230.749 99.3707C230.553 98.9702 230.455 98.5312 230.455 98.054ZM231.759 97.3636V98.054C231.759 98.4503 231.853 98.8061 232.04 99.1214C232.228 99.4325 232.551 99.5881 233.012 99.5881C233.459 99.5881 233.774 99.4325 233.958 99.1214C234.145 98.8061 234.239 98.4503 234.239 98.054V97.3636C234.239 96.9673 234.149 96.6136 233.97 96.3026C233.791 95.9872 233.472 95.8295 233.012 95.8295C232.564 95.8295 232.242 95.9872 232.046 96.3026C231.855 96.6136 231.759 96.9673 231.759 97.3636ZM230.941 108L239.941 94.9091H241.398L232.398 108H230.941Z" fill="#24408E"/>
</svg>
