<svg width="100%" viewBox="0 0 317 29" fill="none" xmlns="http://www.w3.org/2000/svg">
<path d="M8.85938 2.27273L7.41051 11H6.63494L2.69318 3.69176H2.625L1.41051 11H0.613636L2.0625 2.27273H2.83381L6.78835 9.58949H6.85653L8.07528 2.27273H8.85938ZM11.6612 13.5909C11.2152 13.5909 10.8331 13.5327 10.5149 13.4162C10.1967 13.3026 9.93821 13.1463 9.73935 12.9474C9.54332 12.7486 9.39986 12.5256 9.30895 12.2784L9.99929 11.8736C10.0618 12.0384 10.157 12.2003 10.2848 12.3594C10.4126 12.5185 10.593 12.6491 10.826 12.7514C11.0589 12.8565 11.3643 12.9091 11.7422 12.9091C12.3189 12.9091 12.8146 12.7628 13.2294 12.4702C13.6442 12.1804 13.9027 11.7315 14.005 11.1236L14.2351 9.64915H14.1669C14.0504 9.84801 13.8942 10.0469 13.6982 10.2457C13.5021 10.4418 13.2592 10.6051 12.9695 10.7358C12.6825 10.8665 12.343 10.9318 11.951 10.9318C11.4283 10.9318 10.9851 10.8026 10.6214 10.544C10.2578 10.2855 10.0007 9.91619 9.85014 9.43608C9.69957 8.95312 9.68111 8.37784 9.79474 7.71023C9.9027 7.0483 10.1101 6.46591 10.4169 5.96307C10.7266 5.46023 11.1072 5.06818 11.5589 4.78693C12.0135 4.50568 12.5107 4.36506 13.0504 4.36506C13.451 4.36506 13.772 4.43608 14.0135 4.57812C14.255 4.71733 14.4382 4.89062 14.5632 5.09801C14.6911 5.3054 14.7834 5.5071 14.8402 5.70312H14.9169L15.1214 4.45455H15.8629L14.755 11.1705C14.6612 11.7244 14.468 12.1804 14.1754 12.5384C13.8828 12.8963 13.5192 13.1605 13.0845 13.331C12.6527 13.5043 12.1783 13.5909 11.6612 13.5909ZM12.1214 10.2372C12.5419 10.2372 12.9197 10.1364 13.255 9.93466C13.593 9.73011 13.8757 9.43892 14.103 9.06108C14.3331 8.6804 14.4908 8.22585 14.576 7.69744C14.6612 7.18608 14.657 6.73295 14.5632 6.33807C14.4723 5.94034 14.2947 5.62784 14.0305 5.40057C13.7692 5.17045 13.4254 5.0554 12.9993 5.0554C12.5589 5.0554 12.1697 5.1733 11.8317 5.40909C11.4964 5.64489 11.2195 5.96307 11.0007 6.36364C10.7848 6.76136 10.6357 7.20597 10.5533 7.69744C10.4737 8.19744 10.4766 8.6392 10.5618 9.02273C10.6499 9.40341 10.8232 9.7017 11.0817 9.91761C11.3402 10.1307 11.6868 10.2372 12.1214 10.2372ZM21.3526 8.49858L22.0302 4.45455H22.7887L21.6978 11H20.9393L21.1183 9.91335H21.0629C20.8583 10.2486 20.5685 10.5284 20.1935 10.7528C19.8214 10.9744 19.3952 11.0852 18.9151 11.0852C18.4975 11.0852 18.141 10.9943 17.8455 10.8125C17.5529 10.6278 17.3441 10.358 17.2191 10.0028C17.0941 9.64773 17.0742 9.21165 17.1594 8.6946L17.8711 4.45455H18.6296L17.9308 8.64773C17.8484 9.15909 17.9308 9.57102 18.1779 9.88352C18.4279 10.1932 18.7887 10.348 19.2603 10.348C19.5558 10.348 19.8512 10.277 20.1467 10.1349C20.445 9.9929 20.7035 9.78551 20.9222 9.51278C21.1438 9.23722 21.2873 8.89915 21.3526 8.49858ZM26.2798 11.1364C25.706 11.1364 25.223 10.9915 24.831 10.7017C24.4389 10.4091 24.1619 10.0043 24 9.48722C23.8381 8.97017 23.8111 8.37358 23.919 7.69744C24.027 7.03835 24.2415 6.45881 24.5625 5.95881C24.8864 5.45597 25.2841 5.06534 25.7557 4.78693C26.2273 4.50568 26.7401 4.36506 27.294 4.36506C27.8707 4.36506 28.3537 4.51136 28.7429 4.80398C29.1349 5.09659 29.4119 5.50142 29.5739 6.01847C29.7386 6.53551 29.767 7.13352 29.6591 7.8125C29.5511 8.46875 29.3352 9.04688 29.0114 9.54688C28.6875 10.044 28.2898 10.4332 27.8182 10.7145C27.3494 10.9957 26.8366 11.1364 26.2798 11.1364ZM26.2884 10.4418C26.7543 10.4418 27.169 10.3182 27.5327 10.071C27.8991 9.82102 28.2017 9.48864 28.4403 9.07386C28.679 8.65625 28.8395 8.19744 28.9219 7.69744C28.9986 7.22017 28.9901 6.78125 28.8963 6.38068C28.8026 5.98011 28.6222 5.65909 28.3551 5.41761C28.0881 5.17614 27.733 5.0554 27.2898 5.0554C26.8267 5.0554 26.4119 5.18182 26.0455 5.43466C25.679 5.68466 25.3764 6.01989 25.1378 6.44034C24.8991 6.85795 24.7401 7.31534 24.6605 7.8125C24.581 8.29261 24.5866 8.73153 24.6776 9.12926C24.7713 9.52699 24.9517 9.84517 25.2188 10.0838C25.4886 10.3224 25.8452 10.4418 26.2884 10.4418ZM28.1037 1.9446L29.5398 3.52131H28.6065L27.7074 2.48153L26.4631 3.52131H25.5213L27.456 1.9446H28.1037ZM25.4744 0.943182L26.0582 2.47727H25.3935L24.5241 0.943182H25.4744ZM32.2319 6.90909L31.5543 11H30.7958L31.8867 4.45455H32.6239L32.4535 5.48153H32.5217C32.7262 5.14631 33.0089 4.87784 33.3697 4.67614C33.7333 4.47159 34.1552 4.36932 34.6353 4.36932C35.0728 4.36932 35.4421 4.46165 35.7433 4.64631C36.0472 4.82812 36.2631 5.09659 36.391 5.4517C36.5217 5.80682 36.5444 6.2429 36.4592 6.75994L35.7475 11H34.989L35.6879 6.80682C35.7759 6.27273 35.6978 5.84943 35.4535 5.53693C35.212 5.22159 34.8384 5.06392 34.3327 5.06392C33.989 5.06392 33.6694 5.13778 33.3739 5.28551C33.0813 5.43324 32.8342 5.64631 32.6325 5.92472C32.4308 6.20028 32.2972 6.52841 32.2319 6.90909ZM38.4695 10.8338C38.299 10.8338 38.1555 10.7741 38.0391 10.6548C37.9254 10.5355 37.8686 10.3906 37.8686 10.2202C37.8686 10.0497 37.9311 9.90767 38.0561 9.79403C38.1811 9.67756 38.3274 9.61932 38.495 9.61932C38.6626 9.61932 38.8061 9.67898 38.9254 9.7983C39.0447 9.91477 39.1016 10.0554 39.0959 10.2202C39.093 10.3338 39.0618 10.4375 39.0021 10.5312C38.9453 10.625 38.87 10.6989 38.7763 10.7528C38.6854 10.8068 38.5831 10.8338 38.4695 10.8338ZM39.2536 6.11222C39.0831 6.11222 38.9396 6.05256 38.8232 5.93324C38.7095 5.81392 38.6527 5.66903 38.6527 5.49858C38.6527 5.32812 38.7152 5.18608 38.8402 5.07244C38.9652 4.95597 39.1115 4.89773 39.2791 4.89773C39.4467 4.89773 39.5902 4.95739 39.7095 5.0767C39.8288 5.19318 39.8857 5.33381 39.88 5.49858C39.8771 5.61222 39.8459 5.71591 39.7862 5.80966C39.7294 5.90341 39.6541 5.97727 39.5604 6.03125C39.4695 6.08523 39.3672 6.11222 39.2536 6.11222ZM46.7461 2.27273L45.2972 11H44.5004L45.9492 2.27273H46.7461ZM51.2013 8.27273H52.0877L53.2085 9.75142L53.396 9.99858L54.7638 11.8182H53.8775L52.8718 10.4759L52.6971 10.2372L51.2013 8.27273ZM55.4883 6.68324C55.3377 7.58381 55.0479 8.36648 54.619 9.03125C54.19 9.69602 53.6658 10.2102 53.0465 10.5739C52.4272 10.9375 51.7539 11.1193 51.0266 11.1193C50.2795 11.1193 49.6488 10.9332 49.1346 10.5611C48.6232 10.1861 48.261 9.66051 48.0479 8.98438C47.8349 8.3054 47.8036 7.5071 47.9542 6.58949C48.1048 5.68892 48.3945 4.90625 48.8235 4.24148C49.2525 3.5767 49.7781 3.0625 50.4002 2.69886C51.0224 2.33523 51.6985 2.15341 52.4286 2.15341C53.1673 2.15341 53.7923 2.33949 54.3036 2.71165C54.815 3.08381 55.1786 3.60937 55.3945 4.28835C55.6104 4.96449 55.6417 5.76278 55.4883 6.68324ZM54.7255 6.58949C54.8562 5.81108 54.8391 5.14773 54.6744 4.59943C54.5124 4.05114 54.234 3.6321 53.8391 3.34233C53.4442 3.04972 52.9656 2.90341 52.4031 2.90341C51.8207 2.90341 51.2738 3.05398 50.7624 3.35511C50.2511 3.65341 49.815 4.08523 49.4542 4.65057C49.0934 5.21307 48.8462 5.89062 48.7127 6.68324C48.5849 7.45881 48.6019 8.12216 48.7638 8.6733C48.9258 9.22159 49.2042 9.64205 49.5991 9.93466C49.9968 10.2244 50.4783 10.3693 51.0437 10.3693C51.6289 10.3693 52.1772 10.2187 52.6886 9.91761C53.1999 9.61648 53.6346 9.18466 53.9925 8.62216C54.3533 8.05682 54.5977 7.37926 54.7255 6.58949ZM57.8565 2.27273L59.3097 9.96449H59.3906L63.3878 2.27273H64.223L59.5994 11H58.7472L57.0213 2.27273H57.8565ZM66.5156 2.27273L65.0668 11H64.2699L65.7188 2.27273H66.5156ZM67.3999 11H66.5646L71.1882 2.27273H72.0405L73.7663 11H72.9311L71.478 3.30824H71.4226L67.3999 11ZM68.5589 7.65483H72.8885L72.7692 8.37074H68.4396L68.5589 7.65483ZM79.4084 7.31818C79.5788 6.29545 79.8672 5.32955 80.2734 4.42045C80.6825 3.51136 81.1953 2.65909 81.8118 1.86364H82.5021C82.2408 2.19602 81.9879 2.57528 81.7436 3.00142C81.5021 3.42472 81.2791 3.87642 81.0746 4.35653C80.8729 4.83665 80.6953 5.32812 80.5419 5.83097C80.3913 6.33097 80.2749 6.8267 80.1925 7.31818C80.0845 7.97443 80.0348 8.63636 80.0433 9.30398C80.0518 9.97159 80.1115 10.6051 80.2223 11.2045C80.3359 11.804 80.4936 12.3267 80.6953 12.7727H80.005C79.6555 11.9744 79.4254 11.1207 79.3146 10.2116C79.2067 9.30256 79.2379 8.33807 79.4084 7.31818ZM84.8427 11.1364C84.3058 11.1364 83.8583 10.9943 83.5004 10.7102C83.1424 10.4261 82.8924 10.0298 82.7504 9.52131C82.6083 9.01278 82.5927 8.42045 82.7035 7.74432C82.8171 7.07102 83.0288 6.48153 83.3384 5.97585C83.6509 5.46733 84.033 5.07244 84.4847 4.79119C84.9393 4.5071 85.435 4.36506 85.9719 4.36506C86.3725 4.36506 86.6921 4.43608 86.9308 4.57812C87.1722 4.71733 87.3555 4.89062 87.4805 5.09801C87.6055 5.3054 87.695 5.5071 87.7489 5.70312H87.8171L88.3881 2.27273H89.1509L87.7021 11H86.9648L87.1694 9.78551H87.0756C86.9535 9.98437 86.793 10.1889 86.5941 10.3991C86.3981 10.6065 86.1566 10.7812 85.8697 10.9233C85.5827 11.0653 85.2404 11.1364 84.8427 11.1364ZM85.0089 10.4418C85.4322 10.4418 85.8143 10.3267 86.1552 10.0966C86.4989 9.86364 86.7859 9.54403 87.016 9.13778C87.2489 8.72869 87.408 8.25994 87.4933 7.73153C87.5813 7.20881 87.5799 6.74716 87.489 6.34659C87.3981 5.94318 87.2219 5.62784 86.9606 5.40057C86.6992 5.17045 86.354 5.0554 85.9251 5.0554C85.4904 5.0554 85.104 5.17472 84.766 5.41335C84.4279 5.64915 84.1481 5.96875 83.9265 6.37216C83.7077 6.77557 83.5558 7.22869 83.4705 7.73153C83.3881 8.24006 83.3881 8.69886 83.4705 9.10795C83.5529 9.51705 83.7205 9.84233 83.9734 10.0838C84.229 10.3224 84.5742 10.4418 85.0089 10.4418ZM92.4322 11.1364C91.8583 11.1364 91.3754 10.9915 90.9833 10.7017C90.5913 10.4091 90.3143 10.0043 90.1523 9.48722C89.9904 8.97017 89.9634 8.37358 90.0714 7.69744C90.1793 7.03835 90.3938 6.45881 90.7148 5.95881C91.0387 5.45597 91.4364 5.06534 91.908 4.78693C92.3796 4.50568 92.8924 4.36506 93.4464 4.36506C94.0231 4.36506 94.506 4.51136 94.8952 4.80398C95.2873 5.09659 95.5643 5.50142 95.7262 6.01847C95.891 6.53551 95.9194 7.13352 95.8114 7.8125C95.7035 8.46875 95.4876 9.04688 95.1637 9.54688C94.8398 10.044 94.4421 10.4332 93.9705 10.7145C93.5018 10.9957 92.989 11.1364 92.4322 11.1364ZM92.4407 10.4418C92.9066 10.4418 93.3214 10.3182 93.685 10.071C94.0515 9.82102 94.354 9.48864 94.5927 9.07386C94.8313 8.65625 94.9918 8.19744 95.0742 7.69744C95.1509 7.22017 95.1424 6.78125 95.0487 6.38068C94.9549 5.98011 94.7745 5.65909 94.5075 5.41761C94.2404 5.17614 93.8853 5.0554 93.4421 5.0554C92.979 5.0554 92.5643 5.18182 92.1978 5.43466C91.8313 5.68466 91.5288 6.01989 91.2901 6.44034C91.0515 6.85795 90.8924 7.31534 90.8129 7.8125C90.7333 8.29261 90.739 8.73153 90.8299 9.12926C90.9237 9.52699 91.104 9.84517 91.3711 10.0838C91.641 10.3224 91.9975 10.4418 92.4407 10.4418ZM98.7592 11.1491C98.3643 11.1491 98.0163 11.0724 97.7152 10.919C97.4141 10.7628 97.1896 10.5384 97.0419 10.2457C96.897 9.95028 96.8572 9.59233 96.9226 9.17188C96.9794 8.84801 97.0874 8.57528 97.2464 8.35369C97.4084 8.1321 97.6129 7.95028 97.8601 7.80824C98.1072 7.66335 98.3913 7.54972 98.7124 7.46733C99.0334 7.38494 99.3828 7.32244 99.7607 7.27983C100.13 7.23437 100.445 7.1946 100.707 7.16051C100.968 7.12642 101.171 7.07244 101.316 6.99858C101.461 6.92472 101.548 6.8054 101.576 6.64062L101.602 6.48722C101.675 6.04119 101.607 5.69034 101.397 5.43466C101.187 5.17614 100.835 5.04688 100.34 5.04688C99.8686 5.04688 99.4595 5.15199 99.1129 5.36222C98.7692 5.5696 98.5135 5.8125 98.3459 6.09091L97.6726 5.83097C97.8771 5.47301 98.1286 5.1875 98.4268 4.97443C98.7251 4.75852 99.0447 4.60369 99.3857 4.50994C99.7266 4.41335 100.063 4.36506 100.396 4.36506C100.646 4.36506 100.9 4.39773 101.158 4.46307C101.417 4.52841 101.648 4.64205 101.853 4.80398C102.06 4.96307 102.212 5.18608 102.309 5.47301C102.408 5.7571 102.423 6.1179 102.352 6.5554L101.61 11H100.852L101.026 9.96449H100.979C100.86 10.1577 100.695 10.3452 100.485 10.527C100.278 10.7088 100.029 10.858 99.7393 10.9744C99.4496 11.0909 99.1229 11.1491 98.7592 11.1491ZM98.951 10.4545C99.3544 10.4545 99.7195 10.3651 100.046 10.1861C100.376 10.0071 100.646 9.76989 100.856 9.47443C101.069 9.17614 101.205 8.84801 101.265 8.49006L101.423 7.54403C101.36 7.59801 101.258 7.64631 101.116 7.68892C100.977 7.73153 100.819 7.76989 100.643 7.80398C100.469 7.83523 100.295 7.86222 100.119 7.88494C99.9453 7.90767 99.7919 7.92756 99.6584 7.9446C99.2805 7.99006 98.951 8.06108 98.6697 8.15767C98.3913 8.25426 98.1683 8.38778 98.0007 8.55824C97.8331 8.72585 97.728 8.94176 97.6854 9.20597C97.62 9.60369 97.7067 9.91193 97.9453 10.1307C98.1868 10.3466 98.522 10.4545 98.951 10.4545ZM105.064 6.90909L104.386 11H103.628L104.719 4.45455H105.456L105.286 5.48153H105.354C105.558 5.14631 105.841 4.87784 106.202 4.67614C106.565 4.47159 106.987 4.36932 107.467 4.36932C107.905 4.36932 108.274 4.46165 108.575 4.64631C108.879 4.82812 109.095 5.09659 109.223 5.4517C109.354 5.80682 109.376 6.2429 109.291 6.75994L108.58 11H107.821L108.52 6.80682C108.608 6.27273 108.53 5.84943 108.286 5.53693C108.044 5.22159 107.67 5.06392 107.165 5.06392C106.821 5.06392 106.501 5.13778 106.206 5.28551C105.913 5.43324 105.666 5.64631 105.464 5.92472C105.263 6.20028 105.129 6.52841 105.064 6.90909ZM112.013 6.90909L111.336 11H110.577L112.026 2.27273H112.784L112.256 5.48153H112.324C112.529 5.14062 112.81 4.87074 113.168 4.67188C113.526 4.47017 113.953 4.36932 114.451 4.36932C114.891 4.36932 115.263 4.46023 115.567 4.64205C115.874 4.82386 116.091 5.09233 116.219 5.44744C116.35 5.80256 116.373 6.24006 116.287 6.75994L115.576 11H114.813L115.512 6.80682C115.6 6.26705 115.52 5.84233 115.273 5.53267C115.029 5.22017 114.654 5.06392 114.148 5.06392C113.801 5.06392 113.478 5.13778 113.176 5.28551C112.878 5.43324 112.625 5.64631 112.418 5.92472C112.213 6.20028 112.078 6.52841 112.013 6.90909ZM126.198 5.89062L125.469 6.07812C125.433 5.8821 125.364 5.70597 125.265 5.54972C125.168 5.39062 125.028 5.26562 124.843 5.17472C124.661 5.08097 124.423 5.03409 124.127 5.03409C123.684 5.03409 123.302 5.14205 122.981 5.35795C122.66 5.57102 122.472 5.84375 122.418 6.17614C122.373 6.45455 122.431 6.6804 122.593 6.85369C122.758 7.02699 123.033 7.16335 123.42 7.26278L124.374 7.50568C124.903 7.64205 125.279 7.85511 125.504 8.14489C125.731 8.43466 125.809 8.80114 125.738 9.24432C125.675 9.61364 125.518 9.94034 125.265 10.2244C125.015 10.5085 124.694 10.7315 124.302 10.8935C123.913 11.0554 123.478 11.1364 122.998 11.1364C122.353 11.1364 121.846 10.9915 121.477 10.7017C121.11 10.4119 120.914 9.99432 120.888 9.44886L121.651 9.27841C121.674 9.66477 121.806 9.95739 122.048 10.1562C122.292 10.3551 122.636 10.4545 123.079 10.4545C123.585 10.4545 124.009 10.3395 124.353 10.1094C124.697 9.87926 124.894 9.59517 124.945 9.2571C124.994 8.99006 124.944 8.76847 124.796 8.59233C124.651 8.41619 124.404 8.28551 124.055 8.20028L123.036 7.9446C122.488 7.8054 122.1 7.58807 121.873 7.29261C121.648 6.99432 121.573 6.62642 121.647 6.18892C121.707 5.82812 121.857 5.51136 122.099 5.23864C122.34 4.96591 122.646 4.75284 123.015 4.59943C123.384 4.44318 123.788 4.36506 124.225 4.36506C124.827 4.36506 125.286 4.50142 125.602 4.77415C125.917 5.04403 126.116 5.41619 126.198 5.89062ZM129.674 11.1364C129.1 11.1364 128.618 10.9915 128.225 10.7017C127.833 10.4091 127.556 10.0043 127.395 9.48722C127.233 8.97017 127.206 8.37358 127.314 7.69744C127.422 7.03835 127.636 6.45881 127.957 5.95881C128.281 5.45597 128.679 5.06534 129.15 4.78693C129.622 4.50568 130.135 4.36506 130.689 4.36506C131.265 4.36506 131.748 4.51136 132.137 4.80398C132.529 5.09659 132.806 5.50142 132.968 6.01847C133.133 6.53551 133.162 7.13352 133.054 7.8125C132.946 8.46875 132.73 9.04688 132.406 9.54688C132.082 10.044 131.684 10.4332 131.213 10.7145C130.744 10.9957 130.231 11.1364 129.674 11.1364ZM129.683 10.4418C130.149 10.4418 130.564 10.3182 130.927 10.071C131.294 9.82102 131.596 9.48864 131.835 9.07386C132.074 8.65625 132.234 8.19744 132.316 7.69744C132.393 7.22017 132.385 6.78125 132.291 6.38068C132.197 5.98011 132.017 5.65909 131.75 5.41761C131.483 5.17614 131.127 5.0554 130.684 5.0554C130.221 5.0554 129.806 5.18182 129.44 5.43466C129.074 5.68466 128.771 6.01989 128.532 6.44034C128.294 6.85795 128.135 7.31534 128.055 7.8125C127.975 8.29261 127.981 8.73153 128.072 9.12926C128.166 9.52699 128.346 9.84517 128.613 10.0838C128.883 10.3224 129.24 10.4418 129.683 10.4418ZM128.877 3.5767L130.825 1.99574H131.473L132.909 3.5767H131.975L131.068 2.53693L129.832 3.5767H128.877ZM132.687 2.52841L133.838 1.0071H134.779L133.369 2.52841H132.687ZM137.723 11L139.172 2.27273H139.935L139.372 5.70312H139.44C139.557 5.5071 139.712 5.3054 139.905 5.09801C140.101 4.89062 140.342 4.71733 140.629 4.57812C140.916 4.43608 141.26 4.36506 141.661 4.36506C142.197 4.36506 142.645 4.5071 143.003 4.79119C143.364 5.07244 143.615 5.46733 143.757 5.97585C143.899 6.48153 143.915 7.07102 143.804 7.74432C143.69 8.42045 143.479 9.01278 143.169 9.52131C142.859 10.0298 142.479 10.4261 142.027 10.7102C141.575 10.9943 141.082 11.1364 140.548 11.1364C140.151 11.1364 139.83 11.0653 139.585 10.9233C139.344 10.7812 139.159 10.6065 139.031 10.3991C138.906 10.1889 138.815 9.98437 138.759 9.78551H138.665L138.46 11H137.723ZM139.018 7.73153C138.933 8.25994 138.933 8.72869 139.018 9.13778C139.107 9.54403 139.278 9.86364 139.534 10.0966C139.793 10.3267 140.134 10.4418 140.557 10.4418C140.991 10.4418 141.379 10.3224 141.72 10.0838C142.064 9.84233 142.348 9.51705 142.572 9.10795C142.8 8.69886 142.956 8.24006 143.041 7.73153C143.124 7.22869 143.122 6.77557 143.037 6.37216C142.952 5.96875 142.78 5.64915 142.521 5.41335C142.263 5.17472 141.915 5.0554 141.477 5.0554C141.051 5.0554 140.668 5.17045 140.327 5.40057C139.989 5.62784 139.707 5.94318 139.483 6.34659C139.259 6.74716 139.104 7.20881 139.018 7.73153ZM146.736 11.1491C146.341 11.1491 145.993 11.0724 145.692 10.919C145.391 10.7628 145.166 10.5384 145.018 10.2457C144.874 9.95028 144.834 9.59233 144.899 9.17188C144.956 8.84801 145.064 8.57528 145.223 8.35369C145.385 8.1321 145.589 7.95028 145.837 7.80824C146.084 7.66335 146.368 7.54972 146.689 7.46733C147.01 7.38494 147.359 7.32244 147.737 7.27983C148.107 7.23437 148.422 7.1946 148.683 7.16051C148.945 7.12642 149.148 7.07244 149.293 6.99858C149.438 6.92472 149.524 6.8054 149.553 6.64062L149.578 6.48722C149.652 6.04119 149.584 5.69034 149.374 5.43466C149.163 5.17614 148.811 5.04688 148.317 5.04688C147.845 5.04688 147.436 5.15199 147.089 5.36222C146.746 5.5696 146.49 5.8125 146.322 6.09091L145.649 5.83097C145.854 5.47301 146.105 5.1875 146.403 4.97443C146.702 4.75852 147.021 4.60369 147.362 4.50994C147.703 4.41335 148.04 4.36506 148.372 4.36506C148.622 4.36506 148.876 4.39773 149.135 4.46307C149.393 4.52841 149.625 4.64205 149.83 4.80398C150.037 4.96307 150.189 5.18608 150.286 5.47301C150.385 5.7571 150.399 6.1179 150.328 6.5554L149.587 11H148.828L149.003 9.96449H148.956C148.837 10.1577 148.672 10.3452 148.462 10.527C148.254 10.7088 148.006 10.858 147.716 10.9744C147.426 11.0909 147.099 11.1491 146.736 11.1491ZM146.928 10.4545C147.331 10.4545 147.696 10.3651 148.023 10.1861C148.352 10.0071 148.622 9.76989 148.832 9.47443C149.045 9.17614 149.182 8.84801 149.241 8.49006L149.399 7.54403C149.337 7.59801 149.234 7.64631 149.092 7.68892C148.953 7.73153 148.795 7.76989 148.619 7.80398C148.446 7.83523 148.271 7.86222 148.095 7.88494C147.922 7.90767 147.768 7.92756 147.635 7.9446C147.257 7.99006 146.928 8.06108 146.646 8.15767C146.368 8.25426 146.145 8.38778 145.977 8.55824C145.81 8.72585 145.705 8.94176 145.662 9.20597C145.597 9.60369 145.683 9.91193 145.922 10.1307C146.163 10.3466 146.499 10.4545 146.928 10.4545ZM148.202 3.54688L149.612 1.61222H150.516L148.892 3.54688H148.202ZM153.04 6.90909L152.363 11H151.604L152.695 4.45455H153.433L153.262 5.48153H153.33C153.535 5.14631 153.817 4.87784 154.178 4.67614C154.542 4.47159 154.964 4.36932 155.444 4.36932C155.881 4.36932 156.251 4.46165 156.552 4.64631C156.856 4.82812 157.072 5.09659 157.2 5.4517C157.33 5.80682 157.353 6.2429 157.268 6.75994L156.556 11H155.798L156.496 6.80682C156.585 6.27273 156.506 5.84943 156.262 5.53693C156.021 5.22159 155.647 5.06392 155.141 5.06392C154.798 5.06392 154.478 5.13778 154.183 5.28551C153.89 5.43324 153.643 5.64631 153.441 5.92472C153.239 6.20028 153.106 6.52841 153.04 6.90909ZM164.272 11.1364C163.735 11.1364 163.288 10.9943 162.93 10.7102C162.572 10.4261 162.322 10.0298 162.18 9.52131C162.038 9.01278 162.022 8.42045 162.133 7.74432C162.247 7.07102 162.458 6.48153 162.768 5.97585C163.081 5.46733 163.463 5.07244 163.914 4.79119C164.369 4.5071 164.865 4.36506 165.402 4.36506C165.802 4.36506 166.122 4.43608 166.36 4.57812C166.602 4.71733 166.785 4.89062 166.91 5.09801C167.035 5.3054 167.125 5.5071 167.179 5.70312H167.247L167.818 2.27273H168.581L167.132 11H166.395L166.599 9.78551H166.505C166.383 9.98437 166.223 10.1889 166.024 10.3991C165.828 10.6065 165.586 10.7812 165.299 10.9233C165.012 11.0653 164.67 11.1364 164.272 11.1364ZM164.439 10.4418C164.862 10.4418 165.244 10.3267 165.585 10.0966C165.929 9.86364 166.216 9.54403 166.446 9.13778C166.679 8.72869 166.838 8.25994 166.923 7.73153C167.011 7.20881 167.01 6.74716 166.919 6.34659C166.828 5.94318 166.652 5.62784 166.39 5.40057C166.129 5.17045 165.784 5.0554 165.355 5.0554C164.92 5.0554 164.534 5.17472 164.196 5.41335C163.858 5.64915 163.578 5.96875 163.356 6.37216C163.137 6.77557 162.985 7.22869 162.9 7.73153C162.818 8.24006 162.818 8.69886 162.9 9.10795C162.983 9.51705 163.15 9.84233 163.403 10.0838C163.659 10.3224 164.004 10.4418 164.439 10.4418ZM176.14 4.18608H176.822C176.751 4.59801 176.637 4.94034 176.481 5.21307C176.328 5.48295 176.112 5.68466 175.833 5.81818C175.555 5.9517 175.191 6.01847 174.743 6.01847L174.828 5.46449C175.152 5.46449 175.397 5.42045 175.565 5.33239C175.735 5.24432 175.86 5.10653 175.94 4.91903C176.02 4.73153 176.086 4.48722 176.14 4.18608ZM173.848 8.49858L174.525 4.45455H175.288L174.197 11H173.434L173.618 9.91335H173.558C173.353 10.2486 173.064 10.5284 172.689 10.7528C172.316 10.9744 171.89 11.0852 171.41 11.0852C170.993 11.0852 170.636 10.9943 170.341 10.8125C170.048 10.6278 169.839 10.358 169.714 10.0028C169.589 9.64773 169.569 9.21165 169.654 8.6946L170.366 4.45455H171.129L170.43 8.64773C170.348 9.15909 170.43 9.57102 170.677 9.88352C170.927 10.1932 171.288 10.348 171.76 10.348C172.055 10.348 172.35 10.277 172.646 10.1349C172.941 9.9929 173.199 9.78551 173.417 9.51278C173.639 9.23722 173.782 8.89915 173.848 8.49858ZM171.487 13.0795C171.328 13.0795 171.193 13.0241 171.082 12.9134C170.971 12.8054 170.919 12.6747 170.924 12.5213C170.927 12.3764 170.985 12.2514 171.099 12.1463C171.213 12.0412 171.346 11.9886 171.5 11.9886C171.659 11.9886 171.792 12.0426 171.9 12.1506C172.011 12.2614 172.065 12.3935 172.062 12.5469C172.056 12.6918 171.997 12.8168 171.883 12.9219C171.772 13.027 171.64 13.0795 171.487 13.0795ZM178.224 11.1491C177.829 11.1491 177.481 11.0724 177.18 10.919C176.879 10.7628 176.654 10.5384 176.507 10.2457C176.362 9.95028 176.322 9.59233 176.387 9.17188C176.444 8.84801 176.552 8.57528 176.711 8.35369C176.873 8.1321 177.078 7.95028 177.325 7.80824C177.572 7.66335 177.856 7.54972 178.177 7.46733C178.498 7.38494 178.848 7.32244 179.225 7.27983C179.595 7.23437 179.91 7.1946 180.172 7.16051C180.433 7.12642 180.636 7.07244 180.781 6.99858C180.926 6.92472 181.012 6.8054 181.041 6.64062L181.066 6.48722C181.14 6.04119 181.072 5.69034 180.862 5.43466C180.652 5.17614 180.299 5.04688 179.805 5.04688C179.333 5.04688 178.924 5.15199 178.578 5.36222C178.234 5.5696 177.978 5.8125 177.811 6.09091L177.137 5.83097C177.342 5.47301 177.593 5.1875 177.892 4.97443C178.19 4.75852 178.51 4.60369 178.85 4.50994C179.191 4.41335 179.528 4.36506 179.86 4.36506C180.11 4.36506 180.365 4.39773 180.623 4.46307C180.882 4.52841 181.113 4.64205 181.318 4.80398C181.525 4.96307 181.677 5.18608 181.774 5.47301C181.873 5.7571 181.887 6.1179 181.816 6.5554L181.075 11H180.316L180.491 9.96449H180.444C180.325 10.1577 180.16 10.3452 179.95 10.527C179.743 10.7088 179.494 10.858 179.204 10.9744C178.914 11.0909 178.588 11.1491 178.224 11.1491ZM178.416 10.4545C178.819 10.4545 179.184 10.3651 179.511 10.1861C179.841 10.0071 180.11 9.76989 180.321 9.47443C180.534 9.17614 180.67 8.84801 180.73 8.49006L180.887 7.54403C180.825 7.59801 180.723 7.64631 180.581 7.68892C180.441 7.73153 180.284 7.76989 180.108 7.80398C179.934 7.83523 179.76 7.86222 179.583 7.88494C179.41 7.90767 179.257 7.92756 179.123 7.9446C178.745 7.99006 178.416 8.06108 178.135 8.15767C177.856 8.25426 177.633 8.38778 177.466 8.55824C177.298 8.72585 177.193 8.94176 177.15 9.20597C177.085 9.60369 177.172 9.91193 177.41 10.1307C177.652 10.3466 177.987 10.4545 178.416 10.4545ZM190.137 4.45455L190.03 5.11506H186.902L187.013 4.45455H190.137ZM188.245 2.88636H189.007L187.942 9.29119C187.897 9.56392 187.908 9.77841 187.976 9.93466C188.044 10.0881 188.15 10.1974 188.292 10.2628C188.434 10.3253 188.59 10.3565 188.76 10.3565C188.86 10.3565 188.945 10.3509 189.016 10.3395C189.09 10.3253 189.155 10.3111 189.212 10.2969L189.267 10.983C189.185 11.0114 189.087 11.0369 188.973 11.0597C188.86 11.0852 188.723 11.098 188.564 11.098C188.286 11.098 188.029 11.0369 187.793 10.9148C187.557 10.7926 187.378 10.6108 187.256 10.3693C187.134 10.1278 187.101 9.82812 187.158 9.47017L188.245 2.88636ZM190.768 11L191.859 4.45455H192.597L192.426 5.46023H192.482C192.663 5.13068 192.935 4.86506 193.295 4.66335C193.659 4.45881 194.047 4.35653 194.459 4.35653C194.521 4.35653 194.591 4.35795 194.668 4.3608C194.744 4.3608 194.808 4.36364 194.859 4.36932L194.727 5.14062C194.693 5.13494 194.634 5.12642 194.548 5.11506C194.466 5.10369 194.374 5.09801 194.271 5.09801C193.93 5.09801 193.615 5.17045 193.325 5.31534C193.038 5.45739 192.797 5.65483 192.601 5.90767C192.408 6.16051 192.283 6.44886 192.226 6.77273L191.527 11H190.768ZM197.488 11.1364C196.877 11.1364 196.373 10.9943 195.975 10.7102C195.577 10.4233 195.299 10.027 195.14 9.52131C194.98 9.01278 194.956 8.42756 195.067 7.76562C195.178 7.10653 195.397 6.52131 195.723 6.00994C196.05 5.49574 196.453 5.09375 196.934 4.80398C197.414 4.51136 197.935 4.36506 198.498 4.36506C198.853 4.36506 199.185 4.4304 199.495 4.56108C199.804 4.68892 200.067 4.88636 200.283 5.15341C200.502 5.41761 200.654 5.75142 200.739 6.15483C200.824 6.5554 200.821 7.02983 200.73 7.57812L200.671 7.95312H195.557L195.664 7.28409H200.006C200.077 6.86364 200.057 6.4858 199.946 6.15057C199.836 5.81534 199.647 5.54972 199.38 5.35369C199.115 5.15483 198.787 5.0554 198.395 5.0554C197.995 5.0554 197.615 5.16761 197.257 5.39205C196.902 5.61648 196.601 5.90909 196.354 6.26989C196.11 6.62784 195.952 7.00994 195.881 7.41619L195.796 7.91903C195.705 8.47301 195.716 8.9375 195.83 9.3125C195.944 9.68466 196.15 9.96591 196.448 10.1562C196.746 10.3466 197.128 10.4418 197.594 10.4418C197.907 10.4418 198.189 10.3935 198.442 10.2969C198.695 10.2003 198.915 10.071 199.103 9.90909C199.29 9.74432 199.441 9.56392 199.554 9.3679L200.232 9.60227C200.087 9.87784 199.882 10.1321 199.618 10.3651C199.357 10.598 199.046 10.7855 198.685 10.9276C198.327 11.0668 197.928 11.1364 197.488 11.1364ZM199.563 3.70455L198.753 2.48153L197.547 3.70455H196.78L196.789 3.64915L198.51 1.93182H199.15L200.313 3.64915L200.3 3.70455H199.563ZM203.267 6.90909L202.589 11H201.831L202.922 4.45455H203.659L203.489 5.48153H203.557C203.761 5.14631 204.044 4.87784 204.405 4.67614C204.768 4.47159 205.19 4.36932 205.67 4.36932C206.108 4.36932 206.477 4.46165 206.778 4.64631C207.082 4.82812 207.298 5.09659 207.426 5.4517C207.557 5.80682 207.58 6.2429 207.494 6.75994L206.783 11H206.024L206.723 6.80682C206.811 6.27273 206.733 5.84943 206.489 5.53693C206.247 5.22159 205.874 5.06392 205.368 5.06392C205.024 5.06392 204.705 5.13778 204.409 5.28551C204.116 5.43324 203.869 5.64631 203.668 5.92472C203.466 6.20028 203.332 6.52841 203.267 6.90909ZM219.007 4.18608H219.689C219.618 4.59801 219.505 4.94034 219.348 5.21307C219.195 5.48295 218.979 5.68466 218.701 5.81818C218.422 5.9517 218.059 6.01847 217.61 6.01847L217.695 5.46449C218.019 5.46449 218.265 5.42045 218.432 5.33239C218.603 5.24432 218.728 5.10653 218.807 4.91903C218.887 4.73153 218.953 4.48722 219.007 4.18608ZM216.715 8.49858L217.392 4.45455H218.155L217.064 11H216.301L216.485 9.91335H216.425C216.221 10.2486 215.931 10.5284 215.556 10.7528C215.184 10.9744 214.757 11.0852 214.277 11.0852C213.86 11.0852 213.503 10.9943 213.208 10.8125C212.915 10.6278 212.706 10.358 212.581 10.0028C212.456 9.64773 212.436 9.21165 212.522 8.6946L213.233 4.45455H213.996L213.297 8.64773C213.215 9.15909 213.297 9.57102 213.544 9.88352C213.794 10.1932 214.155 10.348 214.627 10.348C214.922 10.348 215.218 10.277 215.513 10.1349C215.809 9.9929 216.066 9.78551 216.284 9.51278C216.506 9.23722 216.65 8.89915 216.715 8.49858ZM225.711 3.92188H226.426C226.313 4.54403 226.1 5.02557 225.787 5.36648C225.478 5.70455 225.03 5.89347 224.445 5.93324L224.53 5.36222C224.775 5.33665 224.972 5.26562 225.123 5.14915C225.276 5.03267 225.398 4.87216 225.489 4.66761C225.58 4.46023 225.654 4.21165 225.711 3.92188ZM221.854 11.1364C221.28 11.1364 220.797 10.9915 220.405 10.7017C220.013 10.4091 219.736 10.0043 219.574 9.48722C219.412 8.97017 219.385 8.37358 219.493 7.69744C219.601 7.03835 219.816 6.45881 220.137 5.95881C220.461 5.45597 220.858 5.06534 221.33 4.78693C221.801 4.50568 222.314 4.36506 222.868 4.36506C223.445 4.36506 223.928 4.51136 224.317 4.80398C224.709 5.09659 224.986 5.50142 225.148 6.01847C225.313 6.53551 225.341 7.13352 225.233 7.8125C225.125 8.46875 224.909 9.04688 224.586 9.54688C224.262 10.044 223.864 10.4332 223.392 10.7145C222.924 10.9957 222.411 11.1364 221.854 11.1364ZM221.863 10.4418C222.328 10.4418 222.743 10.3182 223.107 10.071C223.473 9.82102 223.776 9.48864 224.015 9.07386C224.253 8.65625 224.414 8.19744 224.496 7.69744C224.573 7.22017 224.564 6.78125 224.471 6.38068C224.377 5.98011 224.196 5.65909 223.929 5.41761C223.662 5.17614 223.307 5.0554 222.864 5.0554C222.401 5.0554 221.986 5.18182 221.62 5.43466C221.253 5.68466 220.951 6.01989 220.712 6.44034C220.473 6.85795 220.314 7.31534 220.235 7.8125C220.155 8.29261 220.161 8.73153 220.252 9.12926C220.346 9.52699 220.526 9.84517 220.793 10.0838C221.063 10.3224 221.419 10.4418 221.863 10.4418ZM222.698 3.54688L224.108 1.61222H225.012L223.388 3.54688H222.698ZM228.875 11.1364C228.284 11.1364 227.797 10.9901 227.413 10.6974C227.029 10.4048 226.761 10.0043 226.608 9.49574C226.457 8.98437 226.436 8.40483 226.544 7.7571C226.652 7.09801 226.869 6.5142 227.196 6.00568C227.522 5.49432 227.926 5.09375 228.406 4.80398C228.889 4.51136 229.416 4.36506 229.987 4.36506C230.427 4.36506 230.811 4.45028 231.137 4.62074C231.464 4.78835 231.717 5.02557 231.896 5.33239C232.075 5.63636 232.16 5.99148 232.152 6.39773H231.385C231.365 6.01989 231.227 5.7017 230.971 5.44318C230.718 5.18466 230.36 5.0554 229.897 5.0554C229.474 5.0554 229.082 5.16903 228.721 5.39631C228.36 5.62074 228.055 5.93466 227.805 6.33807C227.558 6.73864 227.392 7.20312 227.306 7.73153C227.216 8.26278 227.224 8.73295 227.332 9.14205C227.44 9.5483 227.633 9.86648 227.912 10.0966C228.193 10.3267 228.548 10.4418 228.977 10.4418C229.27 10.4418 229.545 10.3878 229.804 10.2798C230.062 10.169 230.291 10.0128 230.49 9.81108C230.689 9.60653 230.841 9.36648 230.946 9.09091H231.713C231.585 9.48864 231.383 9.84091 231.108 10.1477C230.835 10.4545 230.508 10.696 230.127 10.8722C229.747 11.0483 229.329 11.1364 228.875 11.1364ZM240.059 4.45455L239.952 5.11506H236.824L236.935 4.45455H240.059ZM238.167 2.88636H238.929L237.864 9.29119C237.819 9.56392 237.83 9.77841 237.898 9.93466C237.966 10.0881 238.071 10.1974 238.213 10.2628C238.355 10.3253 238.512 10.3565 238.682 10.3565C238.782 10.3565 238.867 10.3509 238.938 10.3395C239.012 10.3253 239.077 10.3111 239.134 10.2969L239.189 10.983C239.107 11.0114 239.009 11.0369 238.895 11.0597C238.782 11.0852 238.645 11.098 238.486 11.098C238.208 11.098 237.951 11.0369 237.715 10.9148C237.479 10.7926 237.3 10.6108 237.178 10.3693C237.056 10.1278 237.023 9.82812 237.08 9.47017L238.167 2.88636ZM240.699 11L241.79 4.45455H242.553L241.462 11H240.699ZM241.964 3.53409L243.375 1.59943H244.278L242.655 3.53409H241.964ZM244.904 6.90909L244.226 11H243.468L244.559 4.45455H245.296L245.125 5.48153H245.194C245.398 5.14631 245.681 4.87784 246.042 4.67614C246.405 4.47159 246.827 4.36932 247.307 4.36932C247.745 4.36932 248.114 4.46165 248.415 4.64631C248.719 4.82812 248.935 5.09659 249.063 5.4517C249.194 5.80682 249.216 6.2429 249.131 6.75994L248.419 11H247.661L248.36 6.80682C248.448 6.27273 248.37 5.84943 248.125 5.53693C247.884 5.22159 247.51 5.06392 247.005 5.06392C246.661 5.06392 246.341 5.13778 246.046 5.28551C245.753 5.43324 245.506 5.64631 245.304 5.92472C245.103 6.20028 244.969 6.52841 244.904 6.90909ZM251.853 6.90909L251.175 11H250.417L251.866 2.27273H252.624L252.096 5.48153H252.164C252.369 5.14062 252.65 4.87074 253.008 4.67188C253.366 4.47017 253.793 4.36932 254.29 4.36932C254.731 4.36932 255.103 4.46023 255.407 4.64205C255.714 4.82386 255.931 5.09233 256.059 5.44744C256.19 5.80256 256.212 6.24006 256.127 6.75994L255.415 11H254.653L255.352 6.80682C255.44 6.26705 255.36 5.84233 255.113 5.53267C254.869 5.22017 254.494 5.06392 253.988 5.06392C253.641 5.06392 253.317 5.13778 253.016 5.28551C252.718 5.43324 252.465 5.64631 252.258 5.92472C252.053 6.20028 251.918 6.52841 251.853 6.90909ZM263.328 11.1364C262.737 11.1364 262.25 10.9901 261.866 10.6974C261.483 10.4048 261.214 10.0043 261.061 9.49574C260.91 8.98437 260.889 8.40483 260.997 7.7571C261.105 7.09801 261.322 6.5142 261.649 6.00568C261.975 5.49432 262.379 5.09375 262.859 4.80398C263.342 4.51136 263.869 4.36506 264.44 4.36506C264.88 4.36506 265.264 4.45028 265.591 4.62074C265.917 4.78835 266.17 5.02557 266.349 5.33239C266.528 5.63636 266.613 5.99148 266.605 6.39773H265.838C265.818 6.01989 265.68 5.7017 265.424 5.44318C265.172 5.18466 264.814 5.0554 264.35 5.0554C263.927 5.0554 263.535 5.16903 263.174 5.39631C262.814 5.62074 262.508 5.93466 262.258 6.33807C262.011 6.73864 261.845 7.20312 261.76 7.73153C261.669 8.26278 261.677 8.73295 261.785 9.14205C261.893 9.5483 262.086 9.86648 262.365 10.0966C262.646 10.3267 263.001 10.4418 263.43 10.4418C263.723 10.4418 263.998 10.3878 264.257 10.2798C264.515 10.169 264.744 10.0128 264.943 9.81108C265.142 9.60653 265.294 9.36648 265.399 9.09091H266.166C266.038 9.48864 265.836 9.84091 265.561 10.1477C265.288 10.4545 264.961 10.696 264.581 10.8722C264.2 11.0483 263.782 11.1364 263.328 11.1364ZM272.04 8.49858L272.718 4.45455H273.476L272.385 11H271.627L271.806 9.91335H271.75C271.546 10.2486 271.256 10.5284 270.881 10.7528C270.509 10.9744 270.083 11.0852 269.603 11.0852C269.185 11.0852 268.828 10.9943 268.533 10.8125C268.24 10.6278 268.032 10.358 267.907 10.0028C267.782 9.64773 267.762 9.21165 267.847 8.6946L268.559 4.45455H269.317L268.618 8.64773C268.536 9.15909 268.618 9.57102 268.865 9.88352C269.115 10.1932 269.476 10.348 269.948 10.348C270.243 10.348 270.539 10.277 270.834 10.1349C271.132 9.9929 271.391 9.78551 271.61 9.51278C271.831 9.23722 271.975 8.89915 272.04 8.49858ZM271.499 3.58523H270.851L270.996 2.6946C271.3 2.67756 271.522 2.63068 271.661 2.55398C271.8 2.47443 271.885 2.35227 271.917 2.1875C271.948 2 271.882 1.86364 271.721 1.77841C271.561 1.69318 271.337 1.64915 271.047 1.64631L271.175 1.12642C271.706 1.12642 272.091 1.22727 272.33 1.42898C272.569 1.62784 272.664 1.89062 272.615 2.21733C272.567 2.49858 272.444 2.71023 272.245 2.85227C272.049 2.99148 271.826 3.07528 271.576 3.10369L271.499 3.58523ZM276.205 11.1491C275.81 11.1491 275.462 11.0724 275.161 10.919C274.859 10.7628 274.635 10.5384 274.487 10.2457C274.342 9.95028 274.303 9.59233 274.368 9.17188C274.425 8.84801 274.533 8.57528 274.692 8.35369C274.854 8.1321 275.058 7.95028 275.305 7.80824C275.553 7.66335 275.837 7.54972 276.158 7.46733C276.479 7.38494 276.828 7.32244 277.206 7.27983C277.575 7.23437 277.891 7.1946 278.152 7.16051C278.413 7.12642 278.616 7.07244 278.761 6.99858C278.906 6.92472 278.993 6.8054 279.021 6.64062L279.047 6.48722C279.121 6.04119 279.053 5.69034 278.842 5.43466C278.632 5.17614 278.28 5.04688 277.786 5.04688C277.314 5.04688 276.905 5.15199 276.558 5.36222C276.214 5.5696 275.959 5.8125 275.791 6.09091L275.118 5.83097C275.322 5.47301 275.574 5.1875 275.872 4.97443C276.17 4.75852 276.49 4.60369 276.831 4.50994C277.172 4.41335 277.509 4.36506 277.841 4.36506C278.091 4.36506 278.345 4.39773 278.604 4.46307C278.862 4.52841 279.094 4.64205 279.298 4.80398C279.506 4.96307 279.658 5.18608 279.754 5.47301C279.854 5.7571 279.868 6.1179 279.797 6.5554L279.055 11H278.297L278.472 9.96449H278.425C278.305 10.1577 278.141 10.3452 277.93 10.527C277.723 10.7088 277.474 10.858 277.185 10.9744C276.895 11.0909 276.568 11.1491 276.205 11.1491ZM276.396 10.4545C276.8 10.4545 277.165 10.3651 277.491 10.1861C277.821 10.0071 278.091 9.76989 278.301 9.47443C278.514 9.17614 278.651 8.84801 278.71 8.49006L278.868 7.54403C278.805 7.59801 278.703 7.64631 278.561 7.68892C278.422 7.73153 278.264 7.76989 278.088 7.80398C277.915 7.83523 277.74 7.86222 277.564 7.88494C277.391 7.90767 277.237 7.92756 277.104 7.9446C276.726 7.99006 276.396 8.06108 276.115 8.15767C275.837 8.25426 275.614 8.38778 275.446 8.55824C275.278 8.72585 275.173 8.94176 275.131 9.20597C275.065 9.60369 275.152 9.91193 275.391 10.1307C275.632 10.3466 275.967 10.4545 276.396 10.4545ZM286.852 2.27273L285.403 11H284.606L286.055 2.27273H286.852ZM291.307 8.27273H292.193L293.314 9.75142L293.501 9.99858L294.869 11.8182H293.983L292.977 10.4759L292.803 10.2372L291.307 8.27273ZM295.594 6.68324C295.443 7.58381 295.153 8.36648 294.724 9.03125C294.295 9.69602 293.771 10.2102 293.152 10.5739C292.533 10.9375 291.859 11.1193 291.132 11.1193C290.385 11.1193 289.754 10.9332 289.24 10.5611C288.729 10.1861 288.366 9.66051 288.153 8.98438C287.94 8.3054 287.909 7.5071 288.06 6.58949C288.21 5.68892 288.5 4.90625 288.929 4.24148C289.358 3.5767 289.884 3.0625 290.506 2.69886C291.128 2.33523 291.804 2.15341 292.534 2.15341C293.273 2.15341 293.898 2.33949 294.409 2.71165C294.92 3.08381 295.284 3.60937 295.5 4.28835C295.716 4.96449 295.747 5.76278 295.594 6.68324ZM294.831 6.58949C294.962 5.81108 294.945 5.14773 294.78 4.59943C294.618 4.05114 294.339 3.6321 293.945 3.34233C293.55 3.04972 293.071 2.90341 292.509 2.90341C291.926 2.90341 291.379 3.05398 290.868 3.35511C290.357 3.65341 289.92 4.08523 289.56 4.65057C289.199 5.21307 288.952 5.89062 288.818 6.68324C288.69 7.45881 288.707 8.12216 288.869 8.6733C289.031 9.22159 289.31 9.64205 289.705 9.93466C290.102 10.2244 290.584 10.3693 291.149 10.3693C291.734 10.3693 292.283 10.2187 292.794 9.91761C293.305 9.61648 293.74 9.18466 294.098 8.62216C294.459 8.05682 294.703 7.37926 294.831 6.58949ZM297.962 2.27273L299.415 9.96449H299.496L303.493 2.27273H304.328L299.705 11H298.853L297.127 2.27273H297.962ZM306.621 2.27273L305.172 11H304.375L305.824 2.27273H306.621ZM307.505 11H306.67L311.294 2.27273H312.146L313.872 11H313.037L311.583 3.30824H311.528L307.505 11ZM308.664 7.65483H312.994L312.875 8.37074H308.545L308.664 7.65483ZM316.659 9.80682L316.497 10.2628C316.395 10.5696 316.27 10.9062 316.122 11.2727C315.974 11.642 315.828 11.9929 315.683 12.3253C315.538 12.6605 315.416 12.929 315.316 13.1307H314.733C314.798 12.9375 314.883 12.6918 314.988 12.3935C315.096 12.0952 315.211 11.7656 315.333 11.4048C315.456 11.044 315.574 10.6705 315.687 10.2841L315.832 9.80682H316.659ZM1.5554 23.5284L1.70881 22.527H1.87926L5.45455 19.4545H6.42614L2.89347 22.4886L2.82528 22.5014L1.5554 23.5284ZM0.455966 26L1.90483 17.2727H2.66335L1.21449 26H0.455966ZM4.54688 26L2.4375 22.6378L3.0554 22.1136L5.50568 26H4.54688ZM8.19673 21.9091L7.51918 26H6.76065L8.20952 17.2727H8.96804L8.43963 20.4815H8.50781C8.71236 20.1406 8.99361 19.8707 9.35156 19.6719C9.70952 19.4702 10.1371 19.3693 10.6342 19.3693C11.0746 19.3693 11.4467 19.4602 11.7507 19.642C12.0575 19.8239 12.2749 20.0923 12.4027 20.4474C12.5334 20.8026 12.5561 21.2401 12.4709 21.7599L11.7592 26H10.9964L11.6953 21.8068C11.7834 21.267 11.7038 20.8423 11.4567 20.5327C11.2124 20.2202 10.8374 20.0639 10.3317 20.0639C9.98509 20.0639 9.66122 20.1378 9.36009 20.2855C9.06179 20.4332 8.80895 20.6463 8.60156 20.9247C8.39702 21.2003 8.26207 21.5284 8.19673 21.9091ZM16.3306 26.1364C15.7567 26.1364 15.2738 25.9915 14.8817 25.7017C14.4897 25.4091 14.2127 25.0043 14.0508 24.4872C13.8888 23.9702 13.8619 23.3736 13.9698 22.6974C14.0778 22.0384 14.2923 21.4588 14.6133 20.9588C14.9371 20.456 15.3349 20.0653 15.8065 19.7869C16.2781 19.5057 16.7908 19.3651 17.3448 19.3651C17.9215 19.3651 18.4045 19.5114 18.7937 19.804C19.1857 20.0966 19.4627 20.5014 19.6246 21.0185C19.7894 21.5355 19.8178 22.1335 19.7099 22.8125C19.6019 23.4688 19.386 24.0469 19.0621 24.5469C18.7383 25.044 18.3406 25.4332 17.869 25.7145C17.4002 25.9957 16.8874 26.1364 16.3306 26.1364ZM16.3391 25.4418C16.805 25.4418 17.2198 25.3182 17.5835 25.071C17.9499 24.821 18.2525 24.4886 18.4911 24.0739C18.7298 23.6562 18.8903 23.1974 18.9727 22.6974C19.0494 22.2202 19.0408 21.7812 18.9471 21.3807C18.8533 20.9801 18.6729 20.6591 18.4059 20.4176C18.1388 20.1761 17.7837 20.0554 17.3406 20.0554C16.8775 20.0554 16.4627 20.1818 16.0962 20.4347C15.7298 20.6847 15.4272 21.0199 15.1886 21.4403C14.9499 21.858 14.7908 22.3153 14.7113 22.8125C14.6317 23.2926 14.6374 23.7315 14.7283 24.1293C14.8221 24.527 15.0025 24.8452 15.2695 25.0838C15.5394 25.3224 15.896 25.4418 16.3391 25.4418ZM18.521 18.7045L17.7113 17.4815L16.5053 18.7045H15.7383L15.7468 18.6491L17.4684 16.9318H18.1076L19.271 18.6491L19.2582 18.7045H18.521ZM22.2827 21.9091L21.6051 26H20.8466L21.9375 19.4545H22.6747L22.5043 20.4815H22.5724C22.777 20.1463 23.0597 19.8778 23.4205 19.6761C23.7841 19.4716 24.206 19.3693 24.6861 19.3693C25.1236 19.3693 25.4929 19.4616 25.794 19.6463C26.098 19.8281 26.3139 20.0966 26.4418 20.4517C26.5724 20.8068 26.5952 21.2429 26.5099 21.7599L25.7983 26H25.0398L25.7386 21.8068C25.8267 21.2727 25.7486 20.8494 25.5043 20.5369C25.2628 20.2216 24.8892 20.0639 24.3835 20.0639C24.0398 20.0639 23.7202 20.1378 23.4247 20.2855C23.1321 20.4332 22.8849 20.6463 22.6832 20.9247C22.4815 21.2003 22.348 21.5284 22.2827 21.9091ZM29.8839 28.5909C29.4379 28.5909 29.0558 28.5327 28.7376 28.4162C28.4194 28.3026 28.1609 28.1463 27.962 27.9474C27.766 27.7486 27.6225 27.5256 27.5316 27.2784L28.2219 26.8736C28.2844 27.0384 28.3796 27.2003 28.5075 27.3594C28.6353 27.5185 28.8157 27.6491 29.0487 27.7514C29.2816 27.8565 29.587 27.9091 29.9648 27.9091C30.5415 27.9091 31.0373 27.7628 31.4521 27.4702C31.8668 27.1804 32.1254 26.7315 32.2276 26.1236L32.4577 24.6491H32.3896C32.2731 24.848 32.1168 25.0469 31.9208 25.2457C31.7248 25.4418 31.4819 25.6051 31.1921 25.7358C30.9052 25.8665 30.5657 25.9318 30.1737 25.9318C29.6509 25.9318 29.2077 25.8026 28.8441 25.544C28.4805 25.2855 28.2234 24.9162 28.0728 24.4361C27.9222 23.9531 27.9038 23.3778 28.0174 22.7102C28.1254 22.0483 28.3327 21.4659 28.6396 20.9631C28.9492 20.4602 29.3299 20.0682 29.7816 19.7869C30.2362 19.5057 30.7333 19.3651 31.2731 19.3651C31.6737 19.3651 31.9947 19.4361 32.2362 19.5781C32.4776 19.7173 32.6609 19.8906 32.7859 20.098C32.9137 20.3054 33.006 20.5071 33.0629 20.7031H33.1396L33.3441 19.4545H34.0856L32.9776 26.1705C32.8839 26.7244 32.6907 27.1804 32.3981 27.5384C32.1055 27.8963 31.7418 28.1605 31.3072 28.331C30.8754 28.5043 30.4009 28.5909 29.8839 28.5909ZM30.3441 25.2372C30.7646 25.2372 31.1424 25.1364 31.4776 24.9347C31.8157 24.7301 32.0984 24.4389 32.3256 24.0611C32.5558 23.6804 32.7134 23.2259 32.7987 22.6974C32.8839 22.1861 32.8796 21.733 32.7859 21.3381C32.695 20.9403 32.5174 20.6278 32.2532 20.4006C31.9918 20.1705 31.6481 20.0554 31.2219 20.0554C30.7816 20.0554 30.3924 20.1733 30.0543 20.4091C29.7191 20.6449 29.4421 20.9631 29.2234 21.3636C29.0075 21.7614 28.8583 22.206 28.7759 22.6974C28.6964 23.1974 28.6992 23.6392 28.7844 24.0227C28.8725 24.4034 29.0458 24.7017 29.3043 24.9176C29.5629 25.1307 29.9094 25.2372 30.3441 25.2372ZM37.9688 28.4545L39.4773 19.4545H40.2145L40.0099 20.7031H40.0994C40.2188 20.5071 40.3736 20.3054 40.5639 20.098C40.7571 19.8906 40.9972 19.7173 41.2841 19.5781C41.5739 19.4361 41.9205 19.3651 42.3239 19.3651C42.8636 19.3651 43.3111 19.5057 43.6662 19.7869C44.0241 20.0682 44.2741 20.4631 44.4162 20.9716C44.5611 21.4801 44.5767 22.071 44.4631 22.7443C44.3523 23.4205 44.1406 24.0128 43.8281 24.5213C43.5156 25.0298 43.1335 25.4261 42.6818 25.7102C42.233 25.9943 41.7415 26.1364 41.2074 26.1364C40.8125 26.1364 40.4929 26.0653 40.2486 25.9233C40.0071 25.7812 39.8224 25.6065 39.6946 25.3991C39.5668 25.1889 39.4744 24.9844 39.4176 24.7855H39.3494L38.7358 28.4545H37.9688ZM39.6818 22.7315C39.5966 23.2599 39.5966 23.7287 39.6818 24.1378C39.767 24.544 39.9389 24.8636 40.1974 25.0966C40.456 25.3267 40.7969 25.4418 41.2202 25.4418C41.6548 25.4418 42.0426 25.3224 42.3835 25.0838C42.7244 24.8423 43.0085 24.517 43.2358 24.108C43.4631 23.6989 43.6193 23.2401 43.7045 22.7315C43.7841 22.2287 43.7813 21.7756 43.696 21.3722C43.6108 20.9687 43.4403 20.6491 43.1847 20.4134C42.929 20.1747 42.581 20.0554 42.1406 20.0554C41.7145 20.0554 41.331 20.1705 40.9901 20.4006C40.652 20.6278 40.3707 20.9432 40.1463 21.3466C39.9219 21.7472 39.767 22.2088 39.6818 22.7315ZM47.021 21.9091L46.3434 26H45.5849L47.0337 17.2727H47.7923L47.2638 20.4815H47.332C47.5366 20.1406 47.8178 19.8707 48.1758 19.6719C48.5337 19.4702 48.9613 19.3693 49.4585 19.3693C49.8988 19.3693 50.271 19.4602 50.5749 19.642C50.8817 19.8239 51.0991 20.0923 51.2269 20.4474C51.3576 20.8026 51.3803 21.2401 51.2951 21.7599L50.5835 26H49.8207L50.5195 21.8068C50.6076 21.267 50.5281 20.8423 50.2809 20.5327C50.0366 20.2202 49.6616 20.0639 49.1559 20.0639C48.8093 20.0639 48.4854 20.1378 48.1843 20.2855C47.886 20.4332 47.6332 20.6463 47.4258 20.9247C47.2212 21.2003 47.0863 21.5284 47.021 21.9091ZM54.392 26.1491C53.9972 26.1491 53.6491 26.0724 53.348 25.919C53.0469 25.7628 52.8224 25.5384 52.6747 25.2457C52.5298 24.9503 52.4901 24.5923 52.5554 24.1719C52.6122 23.848 52.7202 23.5753 52.8793 23.3537C53.0412 23.1321 53.2457 22.9503 53.4929 22.8082C53.7401 22.6634 54.0241 22.5497 54.3452 22.4673C54.6662 22.3849 55.0156 22.3224 55.3935 22.2798C55.7628 22.2344 56.0781 22.1946 56.3395 22.1605C56.6009 22.1264 56.804 22.0724 56.9489 21.9986C57.0938 21.9247 57.1804 21.8054 57.2088 21.6406L57.2344 21.4872C57.3082 21.0412 57.2401 20.6903 57.0298 20.4347C56.8196 20.1761 56.4673 20.0469 55.973 20.0469C55.5014 20.0469 55.0923 20.152 54.7457 20.3622C54.402 20.5696 54.1463 20.8125 53.9787 21.0909L53.3054 20.831C53.5099 20.473 53.7614 20.1875 54.0597 19.9744C54.358 19.7585 54.6776 19.6037 55.0185 19.5099C55.3594 19.4134 55.696 19.3651 56.0284 19.3651C56.2784 19.3651 56.5327 19.3977 56.7912 19.4631C57.0497 19.5284 57.2813 19.642 57.4858 19.804C57.6932 19.9631 57.8452 20.1861 57.9418 20.473C58.0412 20.7571 58.0554 21.1179 57.9844 21.5554L57.2429 26H56.4844L56.6591 24.9645H56.6122C56.4929 25.1577 56.3281 25.3452 56.1179 25.527C55.9105 25.7088 55.6619 25.858 55.3722 25.9744C55.0824 26.0909 54.7557 26.1491 54.392 26.1491ZM54.5838 25.4545C54.9872 25.4545 55.3523 25.3651 55.679 25.1861C56.0085 25.0071 56.2784 24.7699 56.4886 24.4744C56.7017 24.1761 56.8381 23.848 56.8977 23.4901L57.0554 22.544C56.9929 22.598 56.8906 22.6463 56.7486 22.6889C56.6094 22.7315 56.4517 22.7699 56.2756 22.804C56.1023 22.8352 55.9276 22.8622 55.7514 22.8849C55.5781 22.9077 55.4247 22.9276 55.2912 22.9446C54.9134 22.9901 54.5838 23.0611 54.3026 23.1577C54.0241 23.2543 53.8011 23.3878 53.6335 23.5582C53.4659 23.7259 53.3608 23.9418 53.3182 24.206C53.2528 24.6037 53.3395 24.9119 53.5781 25.1307C53.8196 25.3466 54.1548 25.4545 54.5838 25.4545ZM56.5568 18.5852H55.9091L56.054 17.6946C56.358 17.6776 56.5795 17.6307 56.7188 17.554C56.858 17.4744 56.9432 17.3523 56.9744 17.1875C57.0057 17 56.9403 16.8636 56.7784 16.7784C56.6193 16.6932 56.3949 16.6491 56.1051 16.6463L56.233 16.1264C56.7642 16.1264 57.1491 16.2273 57.3878 16.429C57.6264 16.6278 57.7216 16.8906 57.6733 17.2173C57.625 17.4986 57.5014 17.7102 57.3026 17.8523C57.1065 17.9915 56.8835 18.0753 56.6335 18.1037L56.5568 18.5852ZM59.2692 26L60.3601 19.4545H61.1229L60.032 26H59.2692ZM61.0163 18.3168C60.8572 18.3168 60.7223 18.2628 60.6115 18.1548C60.5036 18.0469 60.451 17.9162 60.4538 17.7628C60.4595 17.6179 60.5178 17.4929 60.6286 17.3878C60.7422 17.2798 60.8757 17.2259 61.0291 17.2259C61.1882 17.2259 61.3232 17.2812 61.4339 17.392C61.5447 17.5 61.5973 17.6307 61.5916 17.7841C61.5888 17.929 61.5305 18.054 61.4169 18.1591C61.3033 18.2642 61.1697 18.3168 61.0163 18.3168ZM70.663 20.8906L69.9343 21.0781C69.8974 20.8821 69.8292 20.706 69.7298 20.5497C69.6332 20.3906 69.4925 20.2656 69.3079 20.1747C69.1261 20.081 68.8874 20.0341 68.592 20.0341C68.1488 20.0341 67.7667 20.142 67.4457 20.358C67.1246 20.571 66.9371 20.8437 66.8832 21.1761C66.8377 21.4545 66.896 21.6804 67.0579 21.8537C67.2227 22.027 67.4982 22.1634 67.8846 22.2628L68.8391 22.5057C69.3675 22.642 69.744 22.8551 69.9684 23.1449C70.1957 23.4347 70.2738 23.8011 70.2028 24.2443C70.1403 24.6136 69.9826 24.9403 69.7298 25.2244C69.4798 25.5085 69.1587 25.7315 68.7667 25.8935C68.3775 26.0554 67.9428 26.1364 67.4627 26.1364C66.8178 26.1364 66.3107 25.9915 65.9414 25.7017C65.5749 25.4119 65.3789 24.9943 65.3533 24.4489L66.1161 24.2784C66.1388 24.6648 66.271 24.9574 66.5124 25.1562C66.7567 25.3551 67.1005 25.4545 67.5437 25.4545C68.0494 25.4545 68.4741 25.3395 68.8178 25.1094C69.1616 24.8793 69.359 24.5952 69.4102 24.2571C69.4585 23.9901 69.4087 23.7685 69.261 23.5923C69.1161 23.4162 68.869 23.2855 68.5195 23.2003L67.5011 22.9446C66.9528 22.8054 66.565 22.5881 66.3377 22.2926C66.1133 21.9943 66.038 21.6264 66.1119 21.1889C66.1715 20.8281 66.3221 20.5114 66.5636 20.2386C66.805 19.9659 67.1104 19.7528 67.4798 19.5994C67.8491 19.4432 68.2525 19.3651 68.69 19.3651C69.2923 19.3651 69.7511 19.5014 70.0664 19.7741C70.3817 20.044 70.5806 20.4162 70.663 20.8906ZM74.1392 26.1364C73.5653 26.1364 73.0824 25.9915 72.6903 25.7017C72.2983 25.4091 72.0213 25.0043 71.8594 24.4872C71.6974 23.9702 71.6705 23.3736 71.7784 22.6974C71.8864 22.0384 72.1009 21.4588 72.4219 20.9588C72.7457 20.456 73.1435 20.0653 73.6151 19.7869C74.0866 19.5057 74.5994 19.3651 75.1534 19.3651C75.7301 19.3651 76.2131 19.5114 76.6023 19.804C76.9943 20.0966 77.2713 20.5014 77.4332 21.0185C77.598 21.5355 77.6264 22.1335 77.5185 22.8125C77.4105 23.4688 77.1946 24.0469 76.8707 24.5469C76.5469 25.044 76.1491 25.4332 75.6776 25.7145C75.2088 25.9957 74.696 26.1364 74.1392 26.1364ZM74.1477 25.4418C74.6136 25.4418 75.0284 25.3182 75.392 25.071C75.7585 24.821 76.0611 24.4886 76.2997 24.0739C76.5384 23.6562 76.6989 23.1974 76.7812 22.6974C76.858 22.2202 76.8494 21.7812 76.7557 21.3807C76.6619 20.9801 76.4815 20.6591 76.2145 20.4176C75.9474 20.1761 75.5923 20.0554 75.1491 20.0554C74.6861 20.0554 74.2713 20.1818 73.9048 20.4347C73.5384 20.6847 73.2358 21.0199 72.9972 21.4403C72.7585 21.858 72.5994 22.3153 72.5199 22.8125C72.4403 23.2926 72.446 23.7315 72.5369 24.1293C72.6307 24.527 72.8111 24.8452 73.0781 25.0838C73.348 25.3224 73.7045 25.4418 74.1477 25.4418ZM73.3423 18.5767L75.2898 16.9957H75.9375L77.3736 18.5767H76.4403L75.5327 17.5369L74.2969 18.5767H73.3423ZM77.152 17.5284L78.3026 16.0071H79.2443L77.8338 17.5284H77.152ZM85.6992 19.4545L85.5927 20.1151H82.4648L82.5756 19.4545H85.6992ZM83.8072 17.8864H84.57L83.5046 24.2912C83.4592 24.5639 83.4705 24.7784 83.5387 24.9347C83.6069 25.0881 83.712 25.1974 83.854 25.2628C83.9961 25.3253 84.1523 25.3565 84.3228 25.3565C84.4222 25.3565 84.5075 25.3509 84.5785 25.3395C84.6523 25.3253 84.7177 25.3111 84.7745 25.2969L84.8299 25.983C84.7475 26.0114 84.6495 26.0369 84.5359 26.0597C84.4222 26.0852 84.2859 26.098 84.1268 26.098C83.8484 26.098 83.5913 26.0369 83.3555 25.9148C83.1197 25.7926 82.9407 25.6108 82.8185 25.3693C82.6964 25.1278 82.6637 24.8281 82.7205 24.4702L83.8072 17.8864ZM87.9077 21.9091L87.2301 26H86.4716L87.9205 17.2727H88.679L88.1506 20.4815H88.2188C88.4233 20.1406 88.7045 19.8707 89.0625 19.6719C89.4205 19.4702 89.848 19.3693 90.3452 19.3693C90.7855 19.3693 91.1577 19.4602 91.4616 19.642C91.7685 19.8239 91.9858 20.0923 92.1136 20.4474C92.2443 20.8026 92.267 21.2401 92.1818 21.7599L91.4702 26H90.7074L91.4062 21.8068C91.4943 21.267 91.4148 20.8423 91.1676 20.5327C90.9233 20.2202 90.5483 20.0639 90.0426 20.0639C89.696 20.0639 89.3722 20.1378 89.071 20.2855C88.7727 20.4332 88.5199 20.6463 88.3125 20.9247C88.108 21.2003 87.973 21.5284 87.9077 21.9091ZM100.32 19.1861H101.002C100.931 19.598 100.817 19.9403 100.661 20.2131C100.507 20.483 100.292 20.6847 100.013 20.8182C99.7347 20.9517 99.3711 21.0185 98.9222 21.0185L99.0075 20.4645C99.3313 20.4645 99.5771 20.4205 99.7447 20.3324C99.9151 20.2443 100.04 20.1065 100.12 19.919C100.199 19.7315 100.266 19.4872 100.32 19.1861ZM98.0273 23.4986L98.7049 19.4545H99.4677L98.3768 26H97.614L97.7972 24.9134H97.7376C97.533 25.2486 97.2433 25.5284 96.8683 25.7528C96.4961 25.9744 96.07 26.0852 95.5898 26.0852C95.1722 26.0852 94.8157 25.9943 94.5202 25.8125C94.2276 25.6278 94.0188 25.358 93.8938 25.0028C93.7688 24.6477 93.7489 24.2116 93.8342 23.6946L94.5458 19.4545H95.3086L94.6097 23.6477C94.5273 24.1591 94.6097 24.571 94.8569 24.8835C95.1069 25.1932 95.4677 25.348 95.9393 25.348C96.2347 25.348 96.5302 25.277 96.8256 25.1349C97.1211 24.9929 97.3782 24.7855 97.5969 24.5128C97.8185 24.2372 97.962 23.8991 98.0273 23.4986ZM95.6665 28.0795C95.5075 28.0795 95.3725 28.0241 95.2617 27.9134C95.1509 27.8054 95.0984 27.6747 95.104 27.5213C95.1069 27.3764 95.1651 27.2514 95.2788 27.1463C95.3924 27.0412 95.5259 26.9886 95.6793 26.9886C95.8384 26.9886 95.9719 27.0426 96.0799 27.1506C96.1907 27.2614 96.2447 27.3935 96.2418 27.5469C96.2362 27.6918 96.1765 27.8168 96.0629 27.9219C95.9521 28.027 95.82 28.0795 95.6665 28.0795ZM103.132 26.1364C102.542 26.1364 102.054 25.9901 101.671 25.6974C101.287 25.4048 101.019 25.0043 100.865 24.4957C100.715 23.9844 100.694 23.4048 100.801 22.7571C100.909 22.098 101.127 21.5142 101.453 21.0057C101.78 20.4943 102.184 20.0937 102.664 19.804C103.147 19.5114 103.674 19.3651 104.245 19.3651C104.685 19.3651 105.069 19.4503 105.395 19.6207C105.722 19.7884 105.975 20.0256 106.154 20.3324C106.333 20.6364 106.418 20.9915 106.409 21.3977H105.642C105.623 21.0199 105.485 20.7017 105.229 20.4432C104.976 20.1847 104.618 20.0554 104.155 20.0554C103.732 20.0554 103.34 20.169 102.979 20.3963C102.618 20.6207 102.313 20.9347 102.063 21.3381C101.816 21.7386 101.65 22.2031 101.564 22.7315C101.473 23.2628 101.482 23.733 101.59 24.142C101.698 24.5483 101.891 24.8665 102.169 25.0966C102.451 25.3267 102.806 25.4418 103.235 25.4418C103.527 25.4418 103.803 25.3878 104.061 25.2798C104.32 25.169 104.549 25.0128 104.748 24.8111C104.946 24.6065 105.098 24.3665 105.203 24.0909H105.971C105.843 24.4886 105.641 24.8409 105.365 25.1477C105.093 25.4545 104.766 25.696 104.385 25.8722C104.005 26.0483 103.587 26.1364 103.132 26.1364ZM112.083 21.9091L111.406 26H110.647L112.096 17.2727H112.855L112.326 20.4815H112.395C112.599 20.1406 112.88 19.8707 113.238 19.6719C113.596 19.4702 114.024 19.3693 114.521 19.3693C114.961 19.3693 115.333 19.4602 115.637 19.642C115.944 19.8239 116.162 20.0923 116.289 20.4474C116.42 20.8026 116.443 21.2401 116.358 21.7599L115.646 26H114.883L115.582 21.8068C115.67 21.267 115.591 20.8423 115.343 20.5327C115.099 20.2202 114.724 20.0639 114.218 20.0639C113.872 20.0639 113.548 20.1378 113.247 20.2855C112.949 20.4332 112.696 20.6463 112.488 20.9247C112.284 21.2003 112.149 21.5284 112.083 21.9091ZM117.652 26L118.743 19.4545H119.506L118.415 26H117.652ZM119.399 18.3168C119.24 18.3168 119.105 18.2628 118.994 18.1548C118.886 18.0469 118.834 17.9162 118.837 17.7628C118.842 17.6179 118.901 17.4929 119.011 17.3878C119.125 17.2798 119.259 17.2259 119.412 17.2259C119.571 17.2259 119.706 17.2812 119.817 17.392C119.928 17.5 119.98 17.6307 119.974 17.7841C119.972 17.929 119.913 18.054 119.8 18.1591C119.686 18.2642 119.553 18.3168 119.399 18.3168ZM123.05 26.1364C122.439 26.1364 121.935 25.9943 121.537 25.7102C121.14 25.4233 120.861 25.027 120.702 24.5213C120.543 24.0128 120.519 23.4276 120.63 22.7656C120.74 22.1065 120.959 21.5213 121.286 21.0099C121.613 20.4957 122.016 20.0937 122.496 19.804C122.976 19.5114 123.498 19.3651 124.06 19.3651C124.415 19.3651 124.748 19.4304 125.057 19.5611C125.367 19.6889 125.63 19.8864 125.846 20.1534C126.064 20.4176 126.216 20.7514 126.301 21.1548C126.387 21.5554 126.384 22.0298 126.293 22.5781L126.233 22.9531H121.12L121.226 22.2841H125.569C125.64 21.8636 125.62 21.4858 125.509 21.1506C125.398 20.8153 125.209 20.5497 124.942 20.3537C124.678 20.1548 124.35 20.0554 123.958 20.0554C123.557 20.0554 123.178 20.1676 122.82 20.392C122.465 20.6165 122.164 20.9091 121.917 21.2699C121.672 21.6278 121.515 22.0099 121.444 22.4162L121.358 22.919C121.267 23.473 121.279 23.9375 121.392 24.3125C121.506 24.6847 121.712 24.9659 122.01 25.1562C122.309 25.3466 122.691 25.4418 123.157 25.4418C123.469 25.4418 123.752 25.3935 124.005 25.2969C124.257 25.2003 124.478 25.071 124.665 24.9091C124.853 24.7443 125.003 24.5639 125.117 24.3679L125.794 24.6023C125.65 24.8778 125.445 25.1321 125.181 25.3651C124.919 25.598 124.608 25.7855 124.248 25.9276C123.89 26.0668 123.49 26.1364 123.05 26.1364ZM125.125 18.7045L124.316 17.4815L123.11 18.7045H122.343L122.351 18.6491L124.073 16.9318H124.712L125.875 18.6491L125.863 18.7045H125.125ZM122.658 28.0795C122.499 28.0795 122.364 28.0241 122.253 27.9134C122.142 27.8054 122.09 27.6747 122.096 27.5213C122.098 27.3764 122.157 27.2514 122.27 27.1463C122.384 27.0412 122.517 26.9886 122.671 26.9886C122.83 26.9886 122.963 27.0426 123.071 27.1506C123.182 27.2614 123.236 27.3935 123.233 27.5469C123.228 27.6918 123.168 27.8168 123.054 27.9219C122.944 28.027 122.811 28.0795 122.658 28.0795ZM128.83 21.9091L128.152 26H127.393L128.484 19.4545H129.222L129.051 20.4815H129.119C129.324 20.1463 129.607 19.8778 129.967 19.6761C130.331 19.4716 130.753 19.3693 131.233 19.3693C131.67 19.3693 132.04 19.4616 132.341 19.6463C132.645 19.8281 132.861 20.0966 132.989 20.4517C133.119 20.8068 133.142 21.2429 133.057 21.7599L132.345 26H131.587L132.286 21.8068C132.374 21.2727 132.295 20.8494 132.051 20.5369C131.81 20.2216 131.436 20.0639 130.93 20.0639C130.587 20.0639 130.267 20.1378 129.972 20.2855C129.679 20.4332 129.432 20.6463 129.23 20.9247C129.028 21.2003 128.895 21.5284 128.83 21.9091ZM137.688 26L137.79 25.4162L141.165 22.2116C141.605 21.7912 141.965 21.4318 142.243 21.1335C142.522 20.8324 142.735 20.5568 142.882 20.3068C143.03 20.054 143.127 19.7912 143.172 19.5185C143.226 19.1861 143.198 18.8963 143.087 18.6491C142.979 18.3991 142.804 18.2045 142.563 18.0653C142.324 17.9261 142.034 17.8565 141.694 17.8565C141.336 17.8565 141.007 17.9332 140.709 18.0866C140.411 18.2401 140.162 18.4517 139.963 18.7216C139.767 18.9886 139.64 19.294 139.58 19.6378H138.817C138.897 19.1548 139.08 18.7273 139.367 18.3551C139.657 17.9801 140.015 17.6861 140.441 17.473C140.867 17.2599 141.326 17.1534 141.817 17.1534C142.306 17.1534 142.721 17.2585 143.061 17.4688C143.402 17.6761 143.65 17.9588 143.803 18.3168C143.956 18.6747 143.996 19.0753 143.922 19.5185C143.865 19.8423 143.756 20.1548 143.594 20.456C143.432 20.7543 143.184 21.0881 142.848 21.4574C142.513 21.8267 142.06 22.2784 141.489 22.8125L138.928 25.2287L138.915 25.2841H143.232L143.113 26H137.688ZM147.701 26.1193C147.087 26.1193 146.593 25.9432 146.218 25.5909C145.843 25.2358 145.597 24.7244 145.481 24.0568C145.364 23.3864 145.383 22.5795 145.536 21.6364C145.69 20.6989 145.937 19.8963 146.278 19.2287C146.619 18.5582 147.035 18.0455 147.526 17.6903C148.021 17.3324 148.573 17.1534 149.184 17.1534C149.792 17.1534 150.285 17.3324 150.663 17.6903C151.04 18.0455 151.29 18.5582 151.413 19.2287C151.538 19.8963 151.522 20.6989 151.366 21.6364C151.207 22.5767 150.957 23.3821 150.616 24.0526C150.275 24.7202 149.856 25.2315 149.359 25.5866C148.864 25.9418 148.312 26.1193 147.701 26.1193ZM147.808 25.4034C148.478 25.4034 149.059 25.0767 149.55 24.4233C150.045 23.7699 150.391 22.8409 150.59 21.6364C150.721 20.8494 150.748 20.1733 150.671 19.608C150.597 19.0426 150.425 18.6094 150.156 18.3082C149.886 18.0071 149.528 17.8565 149.082 17.8565C148.414 17.8565 147.835 18.1861 147.343 18.8452C146.852 19.5014 146.506 20.4318 146.308 21.6364C146.177 22.4233 146.148 23.098 146.222 23.6605C146.296 24.223 146.467 24.6548 146.734 24.956C147.001 25.2543 147.359 25.4034 147.808 25.4034ZM152.371 26L152.474 25.4162L155.849 22.2116C156.289 21.7912 156.648 21.4318 156.927 21.1335C157.205 20.8324 157.418 20.5568 157.566 20.3068C157.714 20.054 157.81 19.7912 157.856 19.5185C157.91 19.1861 157.881 18.8963 157.771 18.6491C157.663 18.3991 157.488 18.2045 157.246 18.0653C157.008 17.9261 156.718 17.8565 156.377 17.8565C156.019 17.8565 155.691 17.9332 155.393 18.0866C155.094 18.2401 154.846 18.4517 154.647 18.7216C154.451 18.9886 154.323 19.294 154.263 19.6378H153.501C153.58 19.1548 153.763 18.7273 154.05 18.3551C154.34 17.9801 154.698 17.6861 155.124 17.473C155.55 17.2599 156.009 17.1534 156.501 17.1534C156.989 17.1534 157.404 17.2585 157.745 17.4688C158.086 17.6761 158.333 17.9588 158.487 18.3168C158.64 18.6747 158.68 19.0753 158.606 19.5185C158.549 19.8423 158.44 20.1548 158.278 20.456C158.116 20.7543 157.867 21.0881 157.532 21.4574C157.197 21.8267 156.744 22.2784 156.173 22.8125L153.612 25.2287L153.599 25.2841H157.915L157.796 26H152.371ZM162.547 26.1193C162.007 26.1193 161.538 26.0227 161.14 25.8295C160.743 25.6335 160.447 25.3636 160.254 25.0199C160.061 24.6733 159.995 24.2727 160.058 23.8182H160.855C160.818 24.1335 160.865 24.4105 160.995 24.6491C161.126 24.8878 161.325 25.0739 161.592 25.2074C161.862 25.3381 162.184 25.4034 162.559 25.4034C162.957 25.4034 163.328 25.3295 163.672 25.1818C164.015 25.0312 164.302 24.8224 164.532 24.5554C164.765 24.2855 164.909 23.973 164.963 23.6179C165.017 23.277 164.977 22.9759 164.843 22.7145C164.713 22.4503 164.495 22.2443 164.191 22.0966C163.887 21.9489 163.504 21.875 163.041 21.875H162.521L162.632 21.1591H163.122C163.5 21.1591 163.848 21.0895 164.166 20.9503C164.484 20.8082 164.75 20.6094 164.963 20.3537C165.176 20.0952 165.311 19.7912 165.368 19.4418C165.419 19.1293 165.396 18.8551 165.299 18.6193C165.206 18.3807 165.044 18.1946 164.814 18.0611C164.583 17.9247 164.292 17.8565 163.94 17.8565C163.602 17.8565 163.275 17.9219 162.96 18.0526C162.645 18.1832 162.377 18.3679 162.159 18.6065C161.94 18.8452 161.802 19.1278 161.745 19.4545H160.974C161.056 19.0028 161.244 18.6037 161.537 18.2571C161.829 17.9105 162.187 17.6406 162.61 17.4474C163.034 17.2514 163.487 17.1534 163.97 17.1534C164.487 17.1534 164.917 17.2614 165.261 17.4773C165.608 17.6932 165.856 17.9787 166.007 18.3338C166.157 18.6889 166.197 19.0781 166.126 19.5014C166.049 19.9901 165.846 20.4062 165.517 20.75C165.187 21.0938 164.782 21.3366 164.302 21.4787V21.5213C164.842 21.6321 165.238 21.8864 165.491 22.2841C165.747 22.6818 165.828 23.1577 165.734 23.7116C165.657 24.1889 165.471 24.6094 165.176 24.973C164.88 25.3338 164.507 25.6151 164.055 25.8168C163.603 26.0185 163.1 26.1193 162.547 26.1193ZM169.842 21.6364C169.672 22.6591 169.382 23.625 168.973 24.5341C168.566 25.4432 168.055 26.2955 167.439 27.0909H166.748C167.012 26.7557 167.265 26.3764 167.507 25.9531C167.748 25.5298 167.97 25.0781 168.172 24.598C168.376 24.1179 168.554 23.6264 168.704 23.1236C168.858 22.6207 168.975 22.125 169.058 21.6364C169.166 20.9801 169.216 20.3182 169.207 19.6506C169.199 18.983 169.137 18.3494 169.024 17.75C168.913 17.1506 168.757 16.6278 168.555 16.1818H169.245C169.595 16.9801 169.824 17.8338 169.931 18.7429C170.042 19.652 170.012 20.6165 169.842 21.6364Z" fill="#24408E"/>
</svg>
