<svg width="100%" viewBox="0 0 1296 63" fill="none" xmlns="http://www.w3.org/2000/svg">
<line x1="4.37114e-08" y1="0.5" x2="1296" y2="0.500113" stroke="url(#paint0_linear_2020_2391)"/>
<path d="M13.2443 47.6477L9.51136 51.3807L5.72727 47.6477L9.51136 43.8636L13.2443 47.6477ZM18.0511 52.4545L14.3182 56.2386L10.5852 52.4545L14.3182 48.7216L18.0511 52.4545ZM8.4375 52.4545L4.65341 56.2386L0.869318 52.4545L4.65341 48.7216L8.4375 52.4545ZM13.2443 57.3125L9.51136 61.0455L5.72727 57.3125L9.51136 53.5284L13.2443 57.3125ZM29.6016 59H25.5618V45.9091H29.7805C31.0504 45.9091 32.1371 46.1712 33.0405 46.6953C33.9439 47.2152 34.6364 47.9631 35.1179 48.9389C35.5994 49.9105 35.8402 51.0739 35.8402 52.429C35.8402 53.7926 35.5973 54.9666 35.1115 55.951C34.6257 56.9311 33.9183 57.6854 32.9893 58.2138C32.0604 58.7379 30.9311 59 29.6016 59ZM27.147 57.5938H29.4993C30.5817 57.5938 31.4787 57.3849 32.1903 56.9673C32.902 56.5497 33.4325 55.9553 33.782 55.1839C34.1314 54.4126 34.3061 53.4943 34.3061 52.429C34.3061 51.3722 34.1335 50.4624 33.7884 49.6996C33.4432 48.9325 32.9276 48.3445 32.2415 47.9354C31.5554 47.522 30.701 47.3153 29.6783 47.3153H27.147V57.5938ZM42.2834 59.2045C41.397 59.2045 40.6193 58.9936 39.9503 58.5717C39.2855 58.1499 38.7656 57.5597 38.3906 56.8011C38.0199 56.0426 37.8345 55.1562 37.8345 54.142C37.8345 53.1193 38.0199 52.2266 38.3906 51.4638C38.7656 50.701 39.2855 50.1087 39.9503 49.6868C40.6193 49.2649 41.397 49.054 42.2834 49.054C43.1697 49.054 43.9453 49.2649 44.6101 49.6868C45.2791 50.1087 45.799 50.701 46.1697 51.4638C46.5447 52.2266 46.7322 53.1193 46.7322 54.142C46.7322 55.1562 46.5447 56.0426 46.1697 56.8011C45.799 57.5597 45.2791 58.1499 44.6101 58.5717C43.9453 58.9936 43.1697 59.2045 42.2834 59.2045ZM42.2834 57.8494C42.9567 57.8494 43.5107 57.6768 43.9453 57.3317C44.38 56.9865 44.7017 56.5327 44.9105 55.9702C45.1193 55.4077 45.2237 54.7983 45.2237 54.142C45.2237 53.4858 45.1193 52.8743 44.9105 52.3075C44.7017 51.7408 44.38 51.2827 43.9453 50.9332C43.5107 50.5838 42.9567 50.4091 42.2834 50.4091C41.6101 50.4091 41.0561 50.5838 40.6214 50.9332C40.1868 51.2827 39.8651 51.7408 39.6562 52.3075C39.4474 52.8743 39.343 53.4858 39.343 54.142C39.343 54.7983 39.4474 55.4077 39.6562 55.9702C39.8651 56.5327 40.1868 56.9865 40.6214 57.3317C41.0561 57.6768 41.6101 57.8494 42.2834 57.8494ZM51.9242 59.2301C51.302 59.2301 50.7374 59.1129 50.2303 58.8786C49.7232 58.6399 49.3205 58.2969 49.0222 57.8494C48.7239 57.3977 48.5748 56.8523 48.5748 56.2131C48.5748 55.6506 48.6855 55.1946 48.9071 54.8452C49.1287 54.4915 49.4249 54.2145 49.7956 54.0142C50.1664 53.8139 50.5755 53.6648 51.0229 53.5668C51.4746 53.4645 51.9284 53.3835 52.3844 53.3239C52.981 53.2472 53.4647 53.1896 53.8354 53.1513C54.2104 53.1087 54.4831 53.0384 54.6536 52.9403C54.8283 52.8423 54.9157 52.6719 54.9157 52.429V52.3778C54.9157 51.7472 54.7431 51.2571 54.3979 50.9077C54.057 50.5582 53.5392 50.3835 52.8446 50.3835C52.1245 50.3835 51.5598 50.5412 51.1507 50.8565C50.7417 51.1719 50.454 51.5085 50.2878 51.8665L48.856 51.3551C49.1117 50.7585 49.4526 50.294 49.8787 49.9616C50.3091 49.625 50.7779 49.3906 51.285 49.2585C51.7963 49.1222 52.2992 49.054 52.7935 49.054C53.1088 49.054 53.4711 49.0923 53.8801 49.169C54.2935 49.2415 54.6919 49.3928 55.0755 49.6229C55.4632 49.853 55.785 50.2003 56.0407 50.6648C56.2963 51.1293 56.4242 51.7514 56.4242 52.5312V59H54.9157V57.6705H54.839C54.7367 57.8835 54.5662 58.1115 54.3276 58.3544C54.089 58.5973 53.7715 58.804 53.3752 58.9744C52.9789 59.1449 52.4952 59.2301 51.9242 59.2301ZM52.1543 57.875C52.7509 57.875 53.2537 57.7578 53.6628 57.5234C54.0762 57.2891 54.3873 56.9865 54.5961 56.6158C54.8091 56.245 54.9157 55.8551 54.9157 55.446V54.0653C54.8517 54.142 54.7111 54.2124 54.4938 54.2763C54.2807 54.3359 54.0336 54.3892 53.7523 54.4361C53.4753 54.4787 53.2047 54.517 52.9405 54.5511C52.6806 54.581 52.4696 54.6065 52.3077 54.6278C51.9157 54.679 51.5492 54.7621 51.2083 54.8771C50.8716 54.9879 50.5989 55.1562 50.3901 55.3821C50.1855 55.6037 50.0833 55.9062 50.0833 56.2898C50.0833 56.8139 50.2772 57.2102 50.665 57.4787C51.057 57.7429 51.5534 57.875 52.1543 57.875ZM60.6861 53.0938V59H59.1776V49.1818H60.6349V50.7159H60.7628C60.9929 50.2173 61.3423 49.8168 61.8111 49.5142C62.2798 49.2074 62.8849 49.054 63.6264 49.054C64.2912 49.054 64.8729 49.1903 65.3714 49.4631C65.87 49.7315 66.2578 50.1406 66.5348 50.6903C66.8118 51.2358 66.9503 51.9261 66.9503 52.7614V59H65.4418V52.8636C65.4418 52.0923 65.2415 51.4915 64.8409 51.0611C64.4403 50.6264 63.8906 50.4091 63.1918 50.4091C62.7102 50.4091 62.2798 50.5135 61.9006 50.7223C61.5256 50.9311 61.2294 51.2358 61.0121 51.6364C60.7947 52.0369 60.6861 52.5227 60.6861 53.0938ZM71.2154 53.0938V59H69.7069V45.9091H71.2154V50.7159H71.3432C71.5733 50.2088 71.9185 49.8061 72.3787 49.5078C72.8432 49.2053 73.4611 49.054 74.2324 49.054C74.9015 49.054 75.4874 49.1882 75.9902 49.4567C76.4931 49.7209 76.883 50.1278 77.16 50.6776C77.4412 51.223 77.5819 51.9176 77.5819 52.7614V59H76.0733V52.8636C76.0733 52.0838 75.8709 51.4808 75.4661 51.0547C75.0655 50.6243 74.5094 50.4091 73.7978 50.4091C73.3034 50.4091 72.8603 50.5135 72.4682 50.7223C72.0804 50.9311 71.7736 51.2358 71.5478 51.6364C71.3262 52.0369 71.2154 52.5227 71.2154 53.0938ZM89.674 49.1818V50.4602H84.5859V49.1818H89.674ZM86.0689 46.8295H87.5774V56.1875C87.5774 56.6136 87.6392 56.9332 87.7628 57.1463C87.8906 57.3551 88.0526 57.4957 88.2486 57.5682C88.4489 57.6364 88.6598 57.6705 88.8814 57.6705C89.0476 57.6705 89.1839 57.6619 89.2905 57.6449C89.397 57.6236 89.4822 57.6065 89.5462 57.5938L89.853 58.9489C89.7507 58.9872 89.608 59.0256 89.4247 59.0639C89.2415 59.1065 89.0092 59.1278 88.728 59.1278C88.3018 59.1278 87.8842 59.0362 87.4751 58.853C87.0703 58.6697 86.7337 58.3906 86.4652 58.0156C86.201 57.6406 86.0689 57.1676 86.0689 56.5966V46.8295ZM93.6626 53.0938V59H92.1541V45.9091H93.6626V50.7159H93.7905C94.0206 50.2088 94.3658 49.8061 94.826 49.5078C95.2905 49.2053 95.9084 49.054 96.6797 49.054C97.3487 49.054 97.9347 49.1882 98.4375 49.4567C98.9403 49.7209 99.3303 50.1278 99.6072 50.6776C99.8885 51.223 100.029 51.9176 100.029 52.7614V59H98.5206V52.8636C98.5206 52.0838 98.3182 51.4808 97.9134 51.0547C97.5128 50.6243 96.9567 50.4091 96.245 50.4091C95.7507 50.4091 95.3075 50.5135 94.9155 50.7223C94.5277 50.9311 94.2209 51.2358 93.995 51.6364C93.7734 52.0369 93.6626 52.5227 93.6626 53.0938ZM108.976 54.9858V49.1818H110.485V59H108.976V57.3381H108.874C108.644 57.8366 108.286 58.2607 107.8 58.6101C107.314 58.9553 106.701 59.1278 105.959 59.1278C105.346 59.1278 104.8 58.9936 104.323 58.7251C103.846 58.4524 103.471 58.0433 103.198 57.4979C102.925 56.9482 102.789 56.2557 102.789 55.4205V49.1818H104.297V55.3182C104.297 56.0341 104.498 56.6051 104.898 57.0312C105.303 57.4574 105.819 57.6705 106.445 57.6705C106.82 57.6705 107.202 57.5746 107.589 57.3828C107.981 57.1911 108.309 56.897 108.574 56.5007C108.842 56.1044 108.976 55.5994 108.976 54.9858ZM126.339 49.1818L122.708 59H121.174L117.543 49.1818H119.18L121.89 57.0057H121.992L124.702 49.1818H126.339ZM130.92 59.2301C130.298 59.2301 129.733 59.1129 129.226 58.8786C128.719 58.6399 128.317 58.2969 128.018 57.8494C127.72 57.3977 127.571 56.8523 127.571 56.2131C127.571 55.6506 127.682 55.1946 127.903 54.8452C128.125 54.4915 128.421 54.2145 128.792 54.0142C129.162 53.8139 129.572 53.6648 130.019 53.5668C130.471 53.4645 130.925 53.3835 131.381 53.3239C131.977 53.2472 132.461 53.1896 132.831 53.1513C133.206 53.1087 133.479 53.0384 133.65 52.9403C133.824 52.8423 133.912 52.6719 133.912 52.429V52.3778C133.912 51.7472 133.739 51.2571 133.394 50.9077C133.053 50.5582 132.535 50.3835 131.841 50.3835C131.121 50.3835 130.556 50.5412 130.147 50.8565C129.738 51.1719 129.45 51.5085 129.284 51.8665L127.852 51.3551C128.108 50.7585 128.449 50.294 128.875 49.9616C129.305 49.625 129.774 49.3906 130.281 49.2585C130.792 49.1222 131.295 49.054 131.79 49.054C132.105 49.054 132.467 49.0923 132.876 49.169C133.29 49.2415 133.688 49.3928 134.072 49.6229C134.459 49.853 134.781 50.2003 135.037 50.6648C135.292 51.1293 135.42 51.7514 135.42 52.5312V59H133.912V57.6705H133.835C133.733 57.8835 133.562 58.1115 133.324 58.3544C133.085 58.5973 132.768 58.804 132.371 58.9744C131.975 59.1449 131.491 59.2301 130.92 59.2301ZM131.15 57.875C131.747 57.875 132.25 57.7578 132.659 57.5234C133.072 57.2891 133.383 56.9865 133.592 56.6158C133.805 56.245 133.912 55.8551 133.912 55.446V54.0653C133.848 54.142 133.707 54.2124 133.49 54.2763C133.277 54.3359 133.03 54.3892 132.748 54.4361C132.471 54.4787 132.201 54.517 131.937 54.5511C131.677 54.581 131.466 54.6065 131.304 54.6278C130.912 54.679 130.545 54.7621 130.204 54.8771C129.868 54.9879 129.595 55.1562 129.386 55.3821C129.182 55.6037 129.079 55.9062 129.079 56.2898C129.079 56.8139 129.273 57.2102 129.661 57.4787C130.053 57.7429 130.55 57.875 131.15 57.875ZM131.253 47.8523L129.258 44.8864H131.023L132.582 47.8523H131.253ZM143.441 59V45.9091H145.026V57.5938H151.111V59H143.441ZM161.338 48.4403H162.745C162.745 49.4119 162.532 50.1832 162.105 50.7543C161.684 51.3253 160.942 51.6108 159.881 51.6108V50.5369C160.307 50.5369 160.623 50.4496 160.827 50.2749C161.036 50.1001 161.172 49.8551 161.236 49.5398C161.304 49.2244 161.338 48.858 161.338 48.4403ZM157.35 59.2045C156.463 59.2045 155.686 58.9936 155.017 58.5717C154.352 58.1499 153.832 57.5597 153.457 56.8011C153.086 56.0426 152.901 55.1562 152.901 54.142C152.901 53.1193 153.086 52.2266 153.457 51.4638C153.832 50.701 154.352 50.1087 155.017 49.6868C155.686 49.2649 156.463 49.054 157.35 49.054C158.236 49.054 159.012 49.2649 159.676 49.6868C160.346 50.1087 160.865 50.701 161.236 51.4638C161.611 52.2266 161.799 53.1193 161.799 54.142C161.799 55.1562 161.611 56.0426 161.236 56.8011C160.865 57.5597 160.346 58.1499 159.676 58.5717C159.012 58.9936 158.236 59.2045 157.35 59.2045ZM157.35 57.8494C158.023 57.8494 158.577 57.6768 159.012 57.3317C159.446 56.9865 159.768 56.5327 159.977 55.9702C160.186 55.4077 160.29 54.7983 160.29 54.142C160.29 53.4858 160.186 52.8743 159.977 52.3075C159.768 51.7408 159.446 51.2827 159.012 50.9332C158.577 50.5838 158.023 50.4091 157.35 50.4091C156.676 50.4091 156.123 50.5838 155.688 50.9332C155.253 51.2827 154.931 51.7408 154.723 52.3075C154.514 52.8743 154.409 53.4858 154.409 54.142C154.409 54.7983 154.514 55.4077 154.723 55.9702C154.931 56.5327 155.253 56.9865 155.688 57.3317C156.123 57.6768 156.676 57.8494 157.35 57.8494ZM157.35 62.2472C157.056 62.2472 156.802 62.147 156.589 61.9467C156.38 61.7464 156.276 61.5057 156.276 61.2244C156.276 60.9432 156.38 60.7024 156.589 60.5021C156.802 60.3018 157.056 60.2017 157.35 60.2017C157.644 60.2017 157.895 60.3018 158.104 60.5021C158.317 60.7024 158.424 60.9432 158.424 61.2244C158.424 61.5057 158.317 61.7464 158.104 61.9467C157.895 62.147 157.644 62.2472 157.35 62.2472ZM164.119 59V49.1818H165.627V59H164.119ZM164.886 47.5455C164.592 47.5455 164.338 47.4453 164.125 47.245C163.917 47.0447 163.812 46.804 163.812 46.5227C163.812 46.2415 163.917 46.0007 164.125 45.8004C164.338 45.6001 164.592 45.5 164.886 45.5C165.18 45.5 165.431 45.6001 165.64 45.8004C165.853 46.0007 165.96 46.2415 165.96 46.5227C165.96 46.804 165.853 47.0447 165.64 47.245C165.431 47.4453 165.18 47.5455 164.886 47.5455ZM174.961 53.0938V59H173.453V49.1818H174.91V50.7159H175.038C175.268 50.2173 175.618 49.8168 176.086 49.5142C176.555 49.2074 177.16 49.054 177.902 49.054C178.567 49.054 179.148 49.1903 179.647 49.4631C180.145 49.7315 180.533 50.1406 180.81 50.6903C181.087 51.2358 181.226 51.9261 181.226 52.7614V59H179.717V52.8636C179.717 52.0923 179.517 51.4915 179.116 51.0611C178.716 50.6264 178.166 50.4091 177.467 50.4091C176.986 50.4091 176.555 50.5135 176.176 50.7223C175.801 50.9311 175.505 51.2358 175.287 51.6364C175.07 52.0369 174.961 52.5227 174.961 53.0938ZM185.491 53.0938V59H183.982V45.9091H185.491V50.7159H185.619C185.849 50.2088 186.194 49.8061 186.654 49.5078C187.119 49.2053 187.737 49.054 188.508 49.054C189.177 49.054 189.763 49.1882 190.266 49.4567C190.768 49.7209 191.158 50.1278 191.435 50.6776C191.717 51.223 191.857 51.9176 191.857 52.7614V59H190.349V52.8636C190.349 52.0838 190.146 51.4808 189.741 51.0547C189.341 50.6243 188.785 50.4091 188.073 50.4091C187.579 50.4091 187.136 50.5135 186.744 50.7223C186.356 50.9311 186.049 51.2358 185.823 51.6364C185.602 52.0369 185.491 52.5227 185.491 53.0938ZM200.805 54.9858V49.1818H202.313V59H200.805V57.3381H200.702C200.472 57.8366 200.114 58.2607 199.628 58.6101C199.143 58.9553 198.529 59.1278 197.787 59.1278C197.174 59.1278 196.628 58.9936 196.151 58.7251C195.674 58.4524 195.299 58.0433 195.026 57.4979C194.753 56.9482 194.617 56.2557 194.617 55.4205V49.1818H196.126V55.3182C196.126 56.0341 196.326 56.6051 196.726 57.0312C197.131 57.4574 197.647 57.6705 198.273 57.6705C198.648 57.6705 199.03 57.5746 199.417 57.3828C199.809 57.1911 200.138 56.897 200.402 56.5007C200.67 56.1044 200.805 55.5994 200.805 54.9858ZM207.965 59.2301C207.343 59.2301 206.778 59.1129 206.271 58.8786C205.764 58.6399 205.362 58.2969 205.063 57.8494C204.765 57.3977 204.616 56.8523 204.616 56.2131C204.616 55.6506 204.727 55.1946 204.948 54.8452C205.17 54.4915 205.466 54.2145 205.837 54.0142C206.207 53.8139 206.616 53.6648 207.064 53.5668C207.516 53.4645 207.969 53.3835 208.425 53.3239C209.022 53.2472 209.506 53.1896 209.876 53.1513C210.251 53.1087 210.524 53.0384 210.695 52.9403C210.869 52.8423 210.957 52.6719 210.957 52.429V52.3778C210.957 51.7472 210.784 51.2571 210.439 50.9077C210.098 50.5582 209.58 50.3835 208.886 50.3835C208.165 50.3835 207.601 50.5412 207.192 50.8565C206.783 51.1719 206.495 51.5085 206.329 51.8665L204.897 51.3551C205.153 50.7585 205.494 50.294 205.92 49.9616C206.35 49.625 206.819 49.3906 207.326 49.2585C207.837 49.1222 208.34 49.054 208.835 49.054C209.15 49.054 209.512 49.0923 209.921 49.169C210.335 49.2415 210.733 49.3928 211.116 49.6229C211.504 49.853 211.826 50.2003 212.082 50.6648C212.337 51.1293 212.465 51.7514 212.465 52.5312V59H210.957V57.6705H210.88C210.778 57.8835 210.607 58.1115 210.369 58.3544C210.13 58.5973 209.813 58.804 209.416 58.9744C209.02 59.1449 208.536 59.2301 207.965 59.2301ZM208.195 57.875C208.792 57.875 209.295 57.7578 209.704 57.5234C210.117 57.2891 210.428 56.9865 210.637 56.6158C210.85 56.245 210.957 55.8551 210.957 55.446V54.0653C210.893 54.142 210.752 54.2124 210.535 54.2763C210.322 54.3359 210.075 54.3892 209.793 54.4361C209.516 54.4787 209.246 54.517 208.982 54.5511C208.722 54.581 208.511 54.6065 208.349 54.6278C207.957 54.679 207.59 54.7621 207.249 54.8771C206.913 54.9879 206.64 55.1562 206.431 55.3821C206.227 55.6037 206.124 55.9062 206.124 56.2898C206.124 56.8139 206.318 57.2102 206.706 57.4787C207.098 57.7429 207.594 57.875 208.195 57.875ZM210.266 48.0057L208.937 46.2159L207.607 48.0057H206.175V47.9034L208.246 45.2443H209.627L211.698 47.9034V48.0057H210.266ZM208.86 62.2472C208.566 62.2472 208.313 62.147 208.099 61.9467C207.891 61.7464 207.786 61.5057 207.786 61.2244C207.786 60.9432 207.891 60.7024 208.099 60.5021C208.313 60.3018 208.566 60.2017 208.86 60.2017C209.154 60.2017 209.406 60.3018 209.614 60.5021C209.827 60.7024 209.934 60.9432 209.934 61.2244C209.934 61.5057 209.827 61.7464 209.614 61.9467C209.406 62.147 209.154 62.2472 208.86 62.2472ZM216.727 53.0938V59H215.219V49.1818H216.676V50.7159H216.804C217.034 50.2173 217.383 49.8168 217.852 49.5142C218.321 49.2074 218.926 49.054 219.667 49.054C220.332 49.054 220.914 49.1903 221.412 49.4631C221.911 49.7315 222.299 50.1406 222.576 50.6903C222.853 51.2358 222.991 51.9261 222.991 52.7614V59H221.483V52.8636C221.483 52.0923 221.282 51.4915 220.882 51.0611C220.481 50.6264 219.932 50.4091 219.233 50.4091C218.751 50.4091 218.321 50.5135 217.942 50.7223C217.567 50.9311 217.27 51.2358 217.053 51.6364C216.836 52.0369 216.727 52.5227 216.727 53.0938ZM235.08 49.1818V50.4602H229.992V49.1818H235.08ZM231.475 46.8295H232.984V56.1875C232.984 56.6136 233.045 56.9332 233.169 57.1463C233.297 57.3551 233.459 57.4957 233.655 57.5682C233.855 57.6364 234.066 57.6705 234.288 57.6705C234.454 57.6705 234.59 57.6619 234.697 57.6449C234.803 57.6236 234.888 57.6065 234.952 57.5938L235.259 58.9489C235.157 58.9872 235.014 59.0256 234.831 59.0639C234.648 59.1065 234.415 59.1278 234.134 59.1278C233.708 59.1278 233.29 59.0362 232.881 58.853C232.477 58.6697 232.14 58.3906 231.871 58.0156C231.607 57.6406 231.475 57.1676 231.475 56.5966V46.8295ZM240.239 59.2301C239.616 59.2301 239.052 59.1129 238.545 58.8786C238.038 58.6399 237.635 58.2969 237.337 57.8494C237.038 57.3977 236.889 56.8523 236.889 56.2131C236.889 55.6506 237 55.1946 237.222 54.8452C237.443 54.4915 237.739 54.2145 238.11 54.0142C238.481 53.8139 238.89 53.6648 239.337 53.5668C239.789 53.4645 240.243 53.3835 240.699 53.3239C241.295 53.2472 241.779 53.1896 242.15 53.1513C242.525 53.1087 242.798 53.0384 242.968 52.9403C243.143 52.8423 243.23 52.6719 243.23 52.429V52.3778C243.23 51.7472 243.058 51.2571 242.712 50.9077C242.371 50.5582 241.854 50.3835 241.159 50.3835C240.439 50.3835 239.874 50.5412 239.465 50.8565C239.056 51.1719 238.768 51.5085 238.602 51.8665L237.17 51.3551C237.426 50.7585 237.767 50.294 238.193 49.9616C238.624 49.625 239.092 49.3906 239.599 49.2585C240.111 49.1222 240.614 49.054 241.108 49.054C241.423 49.054 241.786 49.0923 242.195 49.169C242.608 49.2415 243.006 49.3928 243.39 49.6229C243.778 49.853 244.099 50.2003 244.355 50.6648C244.611 51.1293 244.739 51.7514 244.739 52.5312V59H243.23V57.6705H243.153C243.051 57.8835 242.881 58.1115 242.642 58.3544C242.403 58.5973 242.086 58.804 241.69 58.9744C241.293 59.1449 240.81 59.2301 240.239 59.2301ZM240.469 57.875C241.065 57.875 241.568 57.7578 241.977 57.5234C242.391 57.2891 242.702 56.9865 242.911 56.6158C243.124 56.245 243.23 55.8551 243.23 55.446V54.0653C243.166 54.142 243.026 54.2124 242.808 54.2763C242.595 54.3359 242.348 54.3892 242.067 54.4361C241.79 54.4787 241.519 54.517 241.255 54.5511C240.995 54.581 240.784 54.6065 240.622 54.6278C240.23 54.679 239.864 54.7621 239.523 54.8771C239.186 54.9879 238.913 55.1562 238.705 55.3821C238.5 55.6037 238.398 55.9062 238.398 56.2898C238.398 56.8139 238.592 57.2102 238.979 57.4787C239.371 57.7429 239.868 57.875 240.469 57.875ZM242.463 45.9091H243.869C243.869 46.5994 243.631 47.1641 243.153 47.603C242.676 48.0419 242.028 48.2614 241.21 48.2614C240.405 48.2614 239.763 48.0419 239.286 47.603C238.813 47.1641 238.577 46.5994 238.577 45.9091H239.983C239.983 46.2415 240.075 46.5334 240.258 46.7848C240.445 47.0362 240.763 47.1619 241.21 47.1619C241.658 47.1619 241.977 47.0362 242.169 46.7848C242.365 46.5334 242.463 46.2415 242.463 45.9091ZM249.001 53.0938V59H247.492V49.1818H248.949V50.7159H249.077C249.307 50.2173 249.657 49.8168 250.126 49.5142C250.594 49.2074 251.199 49.054 251.941 49.054C252.606 49.054 253.187 49.1903 253.686 49.4631C254.184 49.7315 254.572 50.1406 254.849 50.6903C255.126 51.2358 255.265 51.9261 255.265 52.7614V59H253.756V52.8636C253.756 52.0923 253.556 51.4915 253.155 51.0611C252.755 50.6264 252.205 50.4091 251.506 50.4091C251.025 50.4091 250.594 50.5135 250.215 50.7223C249.84 50.9311 249.544 51.2358 249.327 51.6364C249.109 52.0369 249.001 52.5227 249.001 53.0938ZM261.984 62.8864C261.256 62.8864 260.629 62.7926 260.105 62.6051C259.581 62.4219 259.144 62.179 258.795 61.8764C258.45 61.5781 258.175 61.2585 257.97 60.9176L259.172 60.0739C259.308 60.2528 259.481 60.4574 259.69 60.6875C259.898 60.9219 260.184 61.1243 260.546 61.2947C260.913 61.4695 261.392 61.5568 261.984 61.5568C262.777 61.5568 263.431 61.3651 263.947 60.9815C264.462 60.598 264.72 59.9972 264.72 59.179V57.1847H264.592C264.482 57.3636 264.324 57.5852 264.119 57.8494C263.919 58.1094 263.629 58.3416 263.25 58.5462C262.875 58.7464 262.368 58.8466 261.729 58.8466C260.936 58.8466 260.224 58.6591 259.594 58.2841C258.967 57.9091 258.471 57.3636 258.104 56.6477C257.742 55.9318 257.561 55.0625 257.561 54.0398C257.561 53.0341 257.738 52.1584 258.092 51.4126C258.445 50.6626 258.938 50.0831 259.568 49.674C260.199 49.2607 260.928 49.054 261.754 49.054C262.393 49.054 262.901 49.1605 263.276 49.3736C263.655 49.5824 263.945 49.821 264.145 50.0895C264.349 50.3537 264.507 50.571 264.618 50.7415H264.771V49.1818H266.229V59.2812C266.229 60.125 266.037 60.8111 265.653 61.3395C265.274 61.8722 264.763 62.2621 264.119 62.5092C263.48 62.7607 262.768 62.8864 261.984 62.8864ZM261.933 57.4915C262.538 57.4915 263.05 57.353 263.467 57.076C263.885 56.799 264.202 56.4006 264.42 55.8807C264.637 55.3608 264.746 54.7386 264.746 54.0142C264.746 53.3068 264.639 52.6825 264.426 52.1413C264.213 51.6001 263.898 51.1761 263.48 50.8693C263.063 50.5625 262.547 50.4091 261.933 50.4091C261.294 50.4091 260.761 50.571 260.335 50.8949C259.913 51.2187 259.596 51.6534 259.383 52.1989C259.174 52.7443 259.07 53.3494 259.07 54.0142C259.07 54.696 259.176 55.299 259.389 55.8232C259.607 56.343 259.926 56.7521 260.348 57.0504C260.774 57.3445 261.303 57.4915 261.933 57.4915ZM278.322 49.1818V50.4602H273.234V49.1818H278.322ZM274.717 46.8295H276.226V56.1875C276.226 56.6136 276.288 56.9332 276.411 57.1463C276.539 57.3551 276.701 57.4957 276.897 57.5682C277.097 57.6364 277.308 57.6705 277.53 57.6705C277.696 57.6705 277.832 57.6619 277.939 57.6449C278.045 57.6236 278.131 57.6065 278.195 57.5938L278.501 58.9489C278.399 58.9872 278.256 59.0256 278.073 59.0639C277.89 59.1065 277.658 59.1278 277.376 59.1278C276.95 59.1278 276.533 59.0362 276.124 58.853C275.719 58.6697 275.382 58.3906 275.114 58.0156C274.849 57.6406 274.717 57.1676 274.717 56.5966V46.8295ZM280.592 59V49.1818H282.049V50.6648H282.151C282.33 50.179 282.654 49.7848 283.123 49.4822C283.592 49.1797 284.12 49.0284 284.708 49.0284C284.819 49.0284 284.957 49.0305 285.124 49.0348C285.29 49.0391 285.415 49.0455 285.501 49.054V50.5881C285.45 50.5753 285.332 50.5561 285.149 50.5305C284.97 50.5007 284.781 50.4858 284.58 50.4858C284.103 50.4858 283.677 50.5859 283.302 50.7862C282.931 50.9822 282.637 51.255 282.42 51.6044C282.207 51.9496 282.1 52.3437 282.1 52.7869V59H280.592ZM296.135 48.7472H297.465C297.465 49.3949 297.38 49.9382 297.209 50.3771C297.039 50.8118 296.741 51.1399 296.314 51.3615C295.888 51.5788 295.292 51.6875 294.525 51.6875V50.6392C295.053 50.6392 295.428 50.5753 295.65 50.4474C295.876 50.3153 296.012 50.1108 296.059 49.8338C296.11 49.5526 296.135 49.1903 296.135 48.7472ZM293.476 54.9858V49.1818H294.985V59H293.476V57.3381H293.374C293.144 57.8366 292.786 58.2607 292.3 58.6101C291.814 58.9553 291.201 59.1278 290.459 59.1278C289.846 59.1278 289.3 58.9936 288.823 58.7251C288.346 58.4524 287.971 58.0433 287.698 57.4979C287.425 56.9482 287.289 56.2557 287.289 55.4205V49.1818H288.797V55.3182C288.797 56.0341 288.998 56.6051 289.398 57.0312C289.803 57.4574 290.319 57.6705 290.945 57.6705C291.32 57.6705 291.702 57.5746 292.089 57.3828C292.481 57.1911 292.809 56.897 293.074 56.5007C293.342 56.1044 293.476 55.5994 293.476 54.9858ZM306.463 48.4403H307.87C307.87 49.4119 307.657 50.1832 307.23 50.7543C306.809 51.3253 306.067 51.6108 305.006 51.6108V50.5369C305.432 50.5369 305.748 50.4496 305.952 50.2749C306.161 50.1001 306.297 49.8551 306.361 49.5398C306.429 49.2244 306.463 48.858 306.463 48.4403ZM302.475 59.2045C301.588 59.2045 300.811 58.9936 300.142 58.5717C299.477 58.1499 298.957 57.5597 298.582 56.8011C298.211 56.0426 298.026 55.1562 298.026 54.142C298.026 53.1193 298.211 52.2266 298.582 51.4638C298.957 50.701 299.477 50.1087 300.142 49.6868C300.811 49.2649 301.588 49.054 302.475 49.054C303.361 49.054 304.137 49.2649 304.801 49.6868C305.471 50.1087 305.99 50.701 306.361 51.4638C306.736 52.2266 306.924 53.1193 306.924 54.142C306.924 55.1562 306.736 56.0426 306.361 56.8011C305.99 57.5597 305.471 58.1499 304.801 58.5717C304.137 58.9936 303.361 59.2045 302.475 59.2045ZM302.475 57.8494C303.148 57.8494 303.702 57.6768 304.137 57.3317C304.571 56.9865 304.893 56.5327 305.102 55.9702C305.311 55.4077 305.415 54.7983 305.415 54.142C305.415 53.4858 305.311 52.8743 305.102 52.3075C304.893 51.7408 304.571 51.2827 304.137 50.9332C303.702 50.5838 303.148 50.4091 302.475 50.4091C301.801 50.4091 301.248 50.5838 300.813 50.9332C300.378 51.2827 300.056 51.7408 299.848 52.3075C299.639 52.8743 299.534 53.4858 299.534 54.142C299.534 54.7983 299.639 55.4077 299.848 55.9702C300.056 56.5327 300.378 56.9865 300.813 57.3317C301.248 57.6768 301.801 57.8494 302.475 57.8494ZM303.14 47.8523H301.887V46.4716C302.334 46.446 302.65 46.3842 302.833 46.2862C303.02 46.1882 303.114 46.0369 303.114 45.8324C303.114 45.6023 302.98 45.4339 302.711 45.3274C302.443 45.2209 302.117 45.1676 301.733 45.1676L301.784 44.196C302.667 44.196 303.333 44.3494 303.785 44.6562C304.241 44.9631 304.469 45.3722 304.469 45.8835C304.469 46.3182 304.331 46.6357 304.054 46.8359C303.777 47.0362 303.472 47.1619 303.14 47.2131V47.8523ZM310.752 53.0938V59H309.244V49.1818H310.701V50.7159H310.829C311.059 50.2173 311.409 49.8168 311.877 49.5142C312.346 49.2074 312.951 49.054 313.693 49.054C314.358 49.054 314.939 49.1903 315.438 49.4631C315.936 49.7315 316.324 50.1406 316.601 50.6903C316.878 51.2358 317.017 51.9261 317.017 52.7614V59H315.508V52.8636C315.508 52.0923 315.308 51.4915 314.907 51.0611C314.507 50.6264 313.957 50.4091 313.258 50.4091C312.777 50.4091 312.346 50.5135 311.967 50.7223C311.592 50.9311 311.296 51.2358 311.078 51.6364C310.861 52.0369 310.752 52.5227 310.752 53.0938ZM323.736 62.8864C323.008 62.8864 322.381 62.7926 321.857 62.6051C321.333 62.4219 320.896 62.179 320.547 61.8764C320.202 61.5781 319.927 61.2585 319.722 60.9176L320.924 60.0739C321.06 60.2528 321.233 60.4574 321.442 60.6875C321.65 60.9219 321.936 61.1243 322.298 61.2947C322.665 61.4695 323.144 61.5568 323.736 61.5568C324.529 61.5568 325.183 61.3651 325.699 60.9815C326.214 60.598 326.472 59.9972 326.472 59.179V57.1847H326.344C326.233 57.3636 326.076 57.5852 325.871 57.8494C325.671 58.1094 325.381 58.3416 325.002 58.5462C324.627 58.7464 324.12 58.8466 323.481 58.8466C322.688 58.8466 321.976 58.6591 321.346 58.2841C320.719 57.9091 320.223 57.3636 319.856 56.6477C319.494 55.9318 319.313 55.0625 319.313 54.0398C319.313 53.0341 319.49 52.1584 319.844 51.4126C320.197 50.6626 320.689 50.0831 321.32 49.674C321.951 49.2607 322.68 49.054 323.506 49.054C324.145 49.054 324.653 49.1605 325.028 49.3736C325.407 49.5824 325.697 49.821 325.897 50.0895C326.101 50.3537 326.259 50.571 326.37 50.7415H326.523V49.1818H327.981V59.2812C327.981 60.125 327.789 60.8111 327.405 61.3395C327.026 61.8722 326.515 62.2621 325.871 62.5092C325.232 62.7607 324.52 62.8864 323.736 62.8864ZM323.685 57.4915C324.29 57.4915 324.802 57.353 325.219 57.076C325.637 56.799 325.954 56.4006 326.172 55.8807C326.389 55.3608 326.498 54.7386 326.498 54.0142C326.498 53.3068 326.391 52.6825 326.178 52.1413C325.965 51.6001 325.65 51.1761 325.232 50.8693C324.814 50.5625 324.299 50.4091 323.685 50.4091C323.046 50.4091 322.513 50.571 322.087 50.8949C321.665 51.2187 321.348 51.6534 321.135 52.1989C320.926 52.7443 320.822 53.3494 320.822 54.0142C320.822 54.696 320.928 55.299 321.141 55.8232C321.358 56.343 321.678 56.7521 322.1 57.0504C322.526 57.3445 323.055 57.4915 323.685 57.4915ZM337.211 55.4205L337.185 53.554H337.492L341.787 49.1818H343.654L339.077 53.8097H338.949L337.211 55.4205ZM335.805 59V45.9091H337.313V59H335.805ZM342.043 59L338.208 54.142L339.282 53.0938L343.961 59H342.043ZM346.567 62.6818C346.311 62.6818 346.083 62.6605 345.883 62.6179C345.683 62.5795 345.544 62.5412 345.468 62.5028L345.851 61.1733C346.218 61.267 346.542 61.3011 346.823 61.2756C347.104 61.25 347.353 61.1243 347.571 60.8984C347.792 60.6768 347.995 60.3168 348.178 59.8182L348.459 59.0511L344.828 49.1818H346.465L349.175 57.0057H349.277L351.988 49.1818H353.624L349.456 60.4318C349.269 60.9389 349.037 61.3587 348.76 61.6911C348.483 62.0277 348.161 62.277 347.794 62.4389C347.432 62.6009 347.023 62.6818 346.567 62.6818ZM349.891 47.8523H348.638V46.4716C349.086 46.446 349.401 46.3842 349.584 46.2862C349.772 46.1882 349.865 46.0369 349.865 45.8324C349.865 45.6023 349.731 45.4339 349.463 45.3274C349.194 45.2209 348.868 45.1676 348.485 45.1676L348.536 44.196C349.418 44.196 350.085 44.3494 350.537 44.6562C350.993 44.9631 351.221 45.3722 351.221 45.8835C351.221 46.3182 351.082 46.6357 350.805 46.8359C350.528 47.0362 350.223 47.1619 349.891 47.2131V47.8523ZM362.186 45.9091V59H360.678V45.9091H362.186ZM371.137 54.9858V49.1818H372.645V59H371.137V57.3381H371.034C370.804 57.8366 370.446 58.2607 369.96 58.6101C369.475 58.9553 368.861 59.1278 368.119 59.1278C367.506 59.1278 366.96 58.9936 366.483 58.7251C366.006 58.4524 365.631 58.0433 365.358 57.4979C365.085 56.9482 364.949 56.2557 364.949 55.4205V49.1818H366.458V55.3182C366.458 56.0341 366.658 56.6051 367.058 57.0312C367.463 57.4574 367.979 57.6705 368.605 57.6705C368.98 57.6705 369.362 57.5746 369.749 57.3828C370.142 57.1911 370.47 56.897 370.734 56.5007C371.002 56.1044 371.137 55.5994 371.137 54.9858ZM368.81 62.2472C368.516 62.2472 368.262 62.147 368.049 61.9467C367.84 61.7464 367.736 61.5057 367.736 61.2244C367.736 60.9432 367.84 60.7024 368.049 60.5021C368.262 60.3018 368.516 60.2017 368.81 60.2017C369.104 60.2017 369.355 60.3018 369.564 60.5021C369.777 60.7024 369.884 60.9432 369.884 61.2244C369.884 61.5057 369.777 61.7464 369.564 61.9467C369.355 62.147 369.104 62.2472 368.81 62.2472ZM379.397 59.2045C378.476 59.2045 377.684 58.9872 377.019 58.5526C376.354 58.1179 375.843 57.5192 375.485 56.7564C375.127 55.9936 374.948 55.1222 374.948 54.142C374.948 53.1449 375.131 52.2649 375.498 51.5021C375.868 50.7351 376.384 50.1364 377.044 49.706C377.709 49.2713 378.485 49.054 379.371 49.054C380.061 49.054 380.684 49.1818 381.238 49.4375C381.792 49.6932 382.245 50.0511 382.599 50.5114C382.953 50.9716 383.172 51.5085 383.257 52.1222H381.749C381.634 51.6747 381.378 51.2784 380.982 50.9332C380.59 50.5838 380.061 50.4091 379.397 50.4091C378.809 50.4091 378.293 50.5625 377.85 50.8693C377.411 51.1719 377.068 51.6001 376.821 52.1541C376.578 52.7038 376.456 53.3494 376.456 54.0909C376.456 54.8494 376.576 55.5099 376.814 56.0724C377.057 56.6349 377.398 57.0717 377.837 57.3828C378.28 57.6939 378.8 57.8494 379.397 57.8494C379.789 57.8494 380.145 57.7812 380.464 57.6449C380.784 57.5085 381.054 57.3125 381.276 57.0568C381.498 56.8011 381.655 56.4943 381.749 56.1364H383.257C383.172 56.7159 382.961 57.2379 382.625 57.7024C382.292 58.1626 381.851 58.5291 381.301 58.8018C380.756 59.0703 380.121 59.2045 379.397 59.2045ZM394.795 49.1818V50.4602H389.707V49.1818H394.795ZM391.19 46.8295H392.699V56.1875C392.699 56.6136 392.76 56.9332 392.884 57.1463C393.012 57.3551 393.174 57.4957 393.37 57.5682C393.57 57.6364 393.781 57.6705 394.002 57.6705C394.169 57.6705 394.305 57.6619 394.412 57.6449C394.518 57.6236 394.603 57.6065 394.667 57.5938L394.974 58.9489C394.872 58.9872 394.729 59.0256 394.546 59.0639C394.363 59.1065 394.13 59.1278 393.849 59.1278C393.423 59.1278 393.005 59.0362 392.596 58.853C392.191 58.6697 391.855 58.3906 391.586 58.0156C391.322 57.6406 391.19 57.1676 391.19 56.5966V46.8295ZM397.064 59V49.1818H398.522V50.6648H398.624C398.803 50.179 399.127 49.7848 399.596 49.4822C400.064 49.1797 400.593 49.0284 401.181 49.0284C401.292 49.0284 401.43 49.0305 401.596 49.0348C401.762 49.0391 401.888 49.0455 401.973 49.054V50.5881C401.922 50.5753 401.805 50.5561 401.622 50.5305C401.443 50.5007 401.253 50.4858 401.053 50.4858C400.576 50.4858 400.15 50.5859 399.775 50.7862C399.404 50.9822 399.11 51.255 398.892 51.6044C398.679 51.9496 398.573 52.3437 398.573 52.7869V59H397.064ZM407.451 59.2045C406.565 59.2045 405.787 58.9936 405.118 58.5717C404.453 58.1499 403.934 57.5597 403.559 56.8011C403.188 56.0426 403.002 55.1562 403.002 54.142C403.002 53.1193 403.188 52.2266 403.559 51.4638C403.934 50.701 404.453 50.1087 405.118 49.6868C405.787 49.2649 406.565 49.054 407.451 49.054C408.338 49.054 409.113 49.2649 409.778 49.6868C410.447 50.1087 410.967 50.701 411.338 51.4638C411.713 52.2266 411.9 53.1193 411.9 54.142C411.9 55.1562 411.713 56.0426 411.338 56.8011C410.967 57.5597 410.447 58.1499 409.778 58.5717C409.113 58.9936 408.338 59.2045 407.451 59.2045ZM407.451 57.8494C408.125 57.8494 408.679 57.6768 409.113 57.3317C409.548 56.9865 409.87 56.5327 410.078 55.9702C410.287 55.4077 410.392 54.7983 410.392 54.142C410.392 53.4858 410.287 52.8743 410.078 52.3075C409.87 51.7408 409.548 51.2827 409.113 50.9332C408.679 50.5838 408.125 50.4091 407.451 50.4091C406.778 50.4091 406.224 50.5838 405.789 50.9332C405.355 51.2827 405.033 51.7408 404.824 52.3075C404.615 52.8743 404.511 53.4858 404.511 54.142C404.511 54.7983 404.615 55.4077 404.824 55.9702C405.033 56.5327 405.355 56.9865 405.789 57.3317C406.224 57.6768 406.778 57.8494 407.451 57.8494ZM415.711 53.0938V59H414.203V49.1818H415.66V50.7159H415.788C416.018 50.2173 416.368 49.8168 416.836 49.5142C417.305 49.2074 417.91 49.054 418.652 49.054C419.317 49.054 419.898 49.1903 420.397 49.4631C420.895 49.7315 421.283 50.1406 421.56 50.6903C421.837 51.2358 421.976 51.9261 421.976 52.7614V59H420.467V52.8636C420.467 52.0923 420.267 51.4915 419.866 51.0611C419.466 50.6264 418.916 50.4091 418.217 50.4091C417.736 50.4091 417.305 50.5135 416.926 50.7223C416.551 50.9311 416.255 51.2358 416.037 51.6364C415.82 52.0369 415.711 52.5227 415.711 53.0938ZM428.695 62.8864C427.967 62.8864 427.34 62.7926 426.816 62.6051C426.292 62.4219 425.855 62.179 425.506 61.8764C425.161 61.5781 424.886 61.2585 424.681 60.9176L425.883 60.0739C426.019 60.2528 426.192 60.4574 426.401 60.6875C426.609 60.9219 426.895 61.1243 427.257 61.2947C427.624 61.4695 428.103 61.5568 428.695 61.5568C429.488 61.5568 430.142 61.3651 430.658 60.9815C431.173 60.598 431.431 59.9972 431.431 59.179V57.1847H431.303C431.192 57.3636 431.035 57.5852 430.83 57.8494C430.63 58.1094 430.34 58.3416 429.961 58.5462C429.586 58.7464 429.079 58.8466 428.44 58.8466C427.647 58.8466 426.935 58.6591 426.305 58.2841C425.678 57.9091 425.182 57.3636 424.815 56.6477C424.453 55.9318 424.272 55.0625 424.272 54.0398C424.272 53.0341 424.449 52.1584 424.803 51.4126C425.156 50.6626 425.648 50.0831 426.279 49.674C426.91 49.2607 427.638 49.054 428.465 49.054C429.104 49.054 429.612 49.1605 429.987 49.3736C430.366 49.5824 430.656 49.821 430.856 50.0895C431.06 50.3537 431.218 50.571 431.329 50.7415H431.482V49.1818H432.94V59.2812C432.94 60.125 432.748 60.8111 432.364 61.3395C431.985 61.8722 431.474 62.2621 430.83 62.5092C430.191 62.7607 429.479 62.8864 428.695 62.8864ZM428.644 57.4915C429.249 57.4915 429.761 57.353 430.178 57.076C430.596 56.799 430.913 56.4006 431.131 55.8807C431.348 55.3608 431.457 54.7386 431.457 54.0142C431.457 53.3068 431.35 52.6825 431.137 52.1413C430.924 51.6001 430.609 51.1761 430.191 50.8693C429.773 50.5625 429.258 50.4091 428.644 50.4091C428.005 50.4091 427.472 50.571 427.046 50.8949C426.624 51.2187 426.307 51.6534 426.094 52.1989C425.885 52.7443 425.781 53.3494 425.781 54.0142C425.781 54.696 425.887 55.299 426.1 55.8232C426.317 56.343 426.637 56.7521 427.059 57.0504C427.485 57.3445 428.013 57.4915 428.644 57.4915ZM442.272 53.0938V59H440.763V49.1818H442.221V50.7159H442.349C442.579 50.2173 442.928 49.8168 443.397 49.5142C443.866 49.2074 444.471 49.054 445.212 49.054C445.877 49.054 446.459 49.1903 446.957 49.4631C447.456 49.7315 447.844 50.1406 448.121 50.6903C448.398 51.2358 448.536 51.9261 448.536 52.7614V59H447.028V52.8636C447.028 52.0923 446.827 51.4915 446.427 51.0611C446.026 50.6264 445.477 50.4091 444.778 50.4091C444.296 50.4091 443.866 50.5135 443.487 50.7223C443.112 50.9311 442.815 51.2358 442.598 51.6364C442.381 52.0369 442.272 52.5227 442.272 53.0938ZM454.182 59.2301C453.56 59.2301 452.995 59.1129 452.488 58.8786C451.981 58.6399 451.578 58.2969 451.28 57.8494C450.982 57.3977 450.833 56.8523 450.833 56.2131C450.833 55.6506 450.943 55.1946 451.165 54.8452C451.387 54.4915 451.683 54.2145 452.053 54.0142C452.424 53.8139 452.833 53.6648 453.281 53.5668C453.732 53.4645 454.186 53.3835 454.642 53.3239C455.239 53.2472 455.722 53.1896 456.093 53.1513C456.468 53.1087 456.741 53.0384 456.911 52.9403C457.086 52.8423 457.173 52.6719 457.173 52.429V52.3778C457.173 51.7472 457.001 51.2571 456.656 50.9077C456.315 50.5582 455.797 50.3835 455.102 50.3835C454.382 50.3835 453.818 50.5412 453.409 50.8565C452.999 51.1719 452.712 51.5085 452.546 51.8665L451.114 51.3551C451.369 50.7585 451.71 50.294 452.137 49.9616C452.567 49.625 453.036 49.3906 453.543 49.2585C454.054 49.1222 454.557 49.054 455.051 49.054C455.367 49.054 455.729 49.0923 456.138 49.169C456.551 49.2415 456.95 49.3928 457.333 49.6229C457.721 49.853 458.043 50.2003 458.298 50.6648C458.554 51.1293 458.682 51.7514 458.682 52.5312V59H457.173V57.6705H457.097C456.994 57.8835 456.824 58.1115 456.585 58.3544C456.347 58.5973 456.029 58.804 455.633 58.9744C455.237 59.1449 454.753 59.2301 454.182 59.2301ZM454.412 57.875C455.009 57.875 455.512 57.7578 455.921 57.5234C456.334 57.2891 456.645 56.9865 456.854 56.6158C457.067 56.245 457.173 55.8551 457.173 55.446V54.0653C457.11 54.142 456.969 54.2124 456.752 54.2763C456.539 54.3359 456.291 54.3892 456.01 54.4361C455.733 54.4787 455.463 54.517 455.198 54.5511C454.938 54.581 454.727 54.6065 454.566 54.6278C454.173 54.679 453.807 54.7621 453.466 54.8771C453.129 54.9879 452.857 55.1562 452.648 55.3821C452.443 55.6037 452.341 55.9062 452.341 56.2898C452.341 56.8139 452.535 57.2102 452.923 57.4787C453.315 57.7429 453.811 57.875 454.412 57.875ZM456.406 45.9091H457.813C457.813 46.5994 457.574 47.1641 457.097 47.603C456.619 48.0419 455.972 48.2614 455.154 48.2614C454.348 48.2614 453.707 48.0419 453.23 47.603C452.757 47.1641 452.52 46.5994 452.52 45.9091H453.926C453.926 46.2415 454.018 46.5334 454.201 46.7848C454.389 47.0362 454.706 47.1619 455.154 47.1619C455.601 47.1619 455.921 47.0362 456.112 46.7848C456.308 46.5334 456.406 46.2415 456.406 45.9091ZM461.435 59V49.1818H462.893V50.7159H463.021C463.225 50.1918 463.555 49.7848 464.011 49.495C464.467 49.201 465.015 49.054 465.654 49.054C466.302 49.054 466.841 49.201 467.271 49.495C467.706 49.7848 468.045 50.1918 468.288 50.7159H468.39C468.641 50.2088 469.018 49.8061 469.521 49.5078C470.024 49.2053 470.627 49.054 471.33 49.054C472.208 49.054 472.926 49.3288 473.484 49.8786C474.043 50.424 474.322 51.2741 474.322 52.429V59H472.813V52.429C472.813 51.7045 472.615 51.1868 472.219 50.8757C471.822 50.5646 471.356 50.4091 470.819 50.4091C470.129 50.4091 469.594 50.6179 469.214 51.0355C468.835 51.4489 468.646 51.973 468.646 52.608V59H467.112V52.2756C467.112 51.7173 466.93 51.2678 466.568 50.9268C466.206 50.5817 465.739 50.4091 465.168 50.4091C464.776 50.4091 464.41 50.5135 464.069 50.7223C463.732 50.9311 463.46 51.2209 463.251 51.5916C463.046 51.9581 462.944 52.3821 462.944 52.8636V59H461.435Z" fill="#24408E"/>
<defs>
<linearGradient id="paint0_linear_2020_2391" x1="-4.37114e-08" y1="1.5" x2="1296" y2="1.50011" gradientUnits="userSpaceOnUse">
<stop stop-color="#00A93C"/>
<stop offset="1" stop-color="#24CBFF"/>
</linearGradient>
</defs>
</svg>
