<svg width="100%" viewBox="0 0 1296 353" fill="none" xmlns="http://www.w3.org/2000/svg">
<path d="M61.5455 133H58.7273C58.5606 132.189 58.2689 131.477 57.8523 130.864C57.4432 130.25 56.9432 129.735 56.3523 129.318C55.7689 128.894 55.1212 128.576 54.4091 128.364C53.697 128.152 52.9545 128.045 52.1818 128.045C50.7727 128.045 49.4962 128.402 48.3523 129.114C47.2159 129.826 46.3106 130.875 45.6364 132.261C44.9697 133.648 44.6364 135.348 44.6364 137.364C44.6364 139.379 44.9697 141.08 45.6364 142.466C46.3106 143.852 47.2159 144.902 48.3523 145.614C49.4962 146.326 50.7727 146.682 52.1818 146.682C52.9545 146.682 53.697 146.576 54.4091 146.364C55.1212 146.152 55.7689 145.837 56.3523 145.42C56.9432 144.996 57.4432 144.477 57.8523 143.864C58.2689 143.242 58.5606 142.53 58.7273 141.727H61.5455C61.3333 142.917 60.947 143.981 60.3864 144.92C59.8258 145.86 59.1288 146.659 58.2955 147.318C57.4621 147.97 56.5265 148.466 55.4886 148.807C54.4583 149.148 53.3561 149.318 52.1818 149.318C50.197 149.318 48.4318 148.833 46.8864 147.864C45.3409 146.894 44.125 145.515 43.2386 143.727C42.3523 141.939 41.9091 139.818 41.9091 137.364C41.9091 134.909 42.3523 132.788 43.2386 131C44.125 129.212 45.3409 127.833 46.8864 126.864C48.4318 125.894 50.197 125.409 52.1818 125.409C53.3561 125.409 54.4583 125.58 55.4886 125.92C56.5265 126.261 57.4621 126.761 58.2955 127.42C59.1288 128.072 59.8258 128.867 60.3864 129.807C60.947 130.739 61.3333 131.803 61.5455 133ZM72.8267 149.364C71.2509 149.364 69.8684 148.989 68.679 148.239C67.4972 147.489 66.5729 146.439 65.9062 145.091C65.2472 143.742 64.9176 142.167 64.9176 140.364C64.9176 138.545 65.2472 136.958 65.9062 135.602C66.5729 134.246 67.4972 133.193 68.679 132.443C69.8684 131.693 71.2509 131.318 72.8267 131.318C74.4025 131.318 75.7813 131.693 76.9631 132.443C78.1525 133.193 79.0767 134.246 79.7358 135.602C80.4025 136.958 80.7358 138.545 80.7358 140.364C80.7358 142.167 80.4025 143.742 79.7358 145.091C79.0767 146.439 78.1525 147.489 76.9631 148.239C75.7813 148.989 74.4025 149.364 72.8267 149.364ZM72.8267 146.955C74.0237 146.955 75.0085 146.648 75.7812 146.034C76.554 145.42 77.1259 144.614 77.4972 143.614C77.8684 142.614 78.054 141.53 78.054 140.364C78.054 139.197 77.8684 138.11 77.4972 137.102C77.1259 136.095 76.554 135.28 75.7812 134.659C75.0085 134.038 74.0237 133.727 72.8267 133.727C71.6297 133.727 70.6449 134.038 69.8722 134.659C69.0994 135.28 68.5275 136.095 68.1562 137.102C67.785 138.11 67.5994 139.197 67.5994 140.364C67.5994 141.53 67.785 142.614 68.1562 143.614C68.5275 144.614 69.0994 145.42 69.8722 146.034C70.6449 146.648 71.6297 146.955 72.8267 146.955ZM75.1903 129.455L72.8267 126.273L70.4631 129.455H67.9176V129.273L71.5994 124.545H74.054L77.7358 129.273V129.455H75.1903ZM87.5114 138.5V149H84.8295V131.545H87.4205V134.273H87.6477C88.0568 133.386 88.678 132.674 89.5114 132.136C90.3447 131.591 91.4205 131.318 92.7386 131.318C93.9205 131.318 94.9545 131.561 95.8409 132.045C96.7273 132.523 97.4167 133.25 97.9091 134.227C98.4015 135.197 98.6477 136.424 98.6477 137.909V149H95.9659V138.091C95.9659 136.72 95.6098 135.652 94.8977 134.886C94.1856 134.114 93.2083 133.727 91.9659 133.727C91.1098 133.727 90.3447 133.913 89.6705 134.284C89.0038 134.655 88.4773 135.197 88.0909 135.909C87.7045 136.621 87.5114 137.485 87.5114 138.5ZM110.594 155.909C109.298 155.909 108.185 155.742 107.253 155.409C106.321 155.083 105.545 154.652 104.923 154.114C104.31 153.583 103.821 153.015 103.457 152.409L105.594 150.909C105.836 151.227 106.143 151.591 106.514 152C106.885 152.417 107.393 152.777 108.037 153.08C108.688 153.39 109.541 153.545 110.594 153.545C112.003 153.545 113.166 153.205 114.082 152.523C114.999 151.841 115.457 150.773 115.457 149.318V145.773H115.23C115.033 146.091 114.753 146.485 114.389 146.955C114.033 147.417 113.518 147.83 112.844 148.193C112.177 148.549 111.276 148.727 110.139 148.727C108.73 148.727 107.465 148.394 106.344 147.727C105.23 147.061 104.348 146.091 103.696 144.818C103.052 143.545 102.73 142 102.73 140.182C102.73 138.394 103.045 136.837 103.673 135.511C104.302 134.178 105.177 133.148 106.298 132.42C107.42 131.686 108.715 131.318 110.185 131.318C111.321 131.318 112.223 131.508 112.889 131.886C113.563 132.258 114.079 132.682 114.435 133.159C114.798 133.629 115.079 134.015 115.276 134.318H115.548V131.545H118.139V149.5C118.139 151 117.798 152.22 117.116 153.159C116.442 154.106 115.533 154.799 114.389 155.239C113.253 155.686 111.988 155.909 110.594 155.909ZM110.503 146.318C111.579 146.318 112.488 146.072 113.23 145.58C113.973 145.087 114.537 144.379 114.923 143.455C115.31 142.53 115.503 141.424 115.503 140.136C115.503 138.879 115.313 137.769 114.935 136.807C114.556 135.845 113.995 135.091 113.253 134.545C112.51 134 111.594 133.727 110.503 133.727C109.366 133.727 108.42 134.015 107.662 134.591C106.912 135.167 106.348 135.939 105.969 136.909C105.598 137.879 105.412 138.955 105.412 140.136C105.412 141.348 105.601 142.42 105.98 143.352C106.366 144.277 106.935 145.004 107.685 145.534C108.442 146.057 109.382 146.318 110.503 146.318ZM139.639 131.545V133.818H130.594V131.545H139.639ZM133.23 127.364H135.912V144C135.912 144.758 136.022 145.326 136.241 145.705C136.469 146.076 136.757 146.326 137.105 146.455C137.461 146.576 137.836 146.636 138.23 146.636C138.526 146.636 138.768 146.621 138.957 146.591C139.147 146.553 139.298 146.523 139.412 146.5L139.957 148.909C139.776 148.977 139.522 149.045 139.196 149.114C138.87 149.189 138.457 149.227 137.957 149.227C137.2 149.227 136.457 149.064 135.73 148.739C135.01 148.413 134.412 147.917 133.935 147.25C133.465 146.583 133.23 145.742 133.23 144.727V127.364ZM145.401 155.545C144.946 155.545 144.541 155.508 144.185 155.432C143.829 155.364 143.582 155.295 143.446 155.227L144.128 152.864C144.779 153.03 145.355 153.091 145.855 153.045C146.355 153 146.798 152.777 147.185 152.375C147.579 151.981 147.938 151.341 148.264 150.455L148.764 149.091L142.31 131.545H145.219L150.037 145.455H150.219L155.037 131.545H157.946L150.537 151.545C150.204 152.447 149.791 153.193 149.298 153.784C148.806 154.383 148.234 154.826 147.582 155.114C146.938 155.402 146.211 155.545 145.401 155.545ZM178.031 149H170.849V125.727H178.349C180.607 125.727 182.539 126.193 184.145 127.125C185.751 128.049 186.982 129.379 187.838 131.114C188.694 132.841 189.122 134.909 189.122 137.318C189.122 139.742 188.69 141.83 187.827 143.58C186.963 145.322 185.705 146.663 184.054 147.602C182.402 148.534 180.395 149 178.031 149ZM173.668 146.5H177.849C179.774 146.5 181.368 146.129 182.634 145.386C183.899 144.644 184.842 143.587 185.463 142.216C186.084 140.845 186.395 139.212 186.395 137.318C186.395 135.439 186.088 133.822 185.474 132.466C184.861 131.102 183.944 130.057 182.724 129.33C181.505 128.595 179.986 128.227 178.168 128.227H173.668V146.5ZM209.213 130.773H211.577C211.577 131.924 211.425 132.89 211.122 133.67C210.819 134.443 210.289 135.027 209.531 135.42C208.774 135.807 207.713 136 206.349 136V134.136C207.289 134.136 207.955 134.023 208.349 133.795C208.751 133.561 208.993 133.197 209.077 132.705C209.168 132.205 209.213 131.561 209.213 130.773ZM204.486 141.864V131.545H207.168V149H204.486V146.045H204.304C203.895 146.932 203.259 147.686 202.395 148.307C201.531 148.92 200.44 149.227 199.122 149.227C198.031 149.227 197.062 148.989 196.213 148.511C195.365 148.027 194.698 147.299 194.213 146.33C193.728 145.352 193.486 144.121 193.486 142.636V131.545H196.168V142.455C196.168 143.727 196.524 144.742 197.236 145.5C197.955 146.258 198.872 146.636 199.986 146.636C200.652 146.636 201.33 146.466 202.02 146.125C202.717 145.784 203.3 145.261 203.77 144.557C204.247 143.852 204.486 142.955 204.486 141.864ZM227.574 130.227H230.074C230.074 131.955 229.695 133.326 228.938 134.341C228.188 135.356 226.869 135.864 224.983 135.864V133.955C225.741 133.955 226.301 133.799 226.665 133.489C227.036 133.178 227.278 132.742 227.392 132.182C227.513 131.621 227.574 130.97 227.574 130.227ZM220.483 149.364C218.907 149.364 217.525 148.989 216.335 148.239C215.153 147.489 214.229 146.439 213.562 145.091C212.903 143.742 212.574 142.167 212.574 140.364C212.574 138.545 212.903 136.958 213.562 135.602C214.229 134.246 215.153 133.193 216.335 132.443C217.525 131.693 218.907 131.318 220.483 131.318C222.059 131.318 223.438 131.693 224.619 132.443C225.809 133.193 226.733 134.246 227.392 135.602C228.059 136.958 228.392 138.545 228.392 140.364C228.392 142.167 228.059 143.742 227.392 145.091C226.733 146.439 225.809 147.489 224.619 148.239C223.438 148.989 222.059 149.364 220.483 149.364ZM220.483 146.955C221.68 146.955 222.665 146.648 223.438 146.034C224.21 145.42 224.782 144.614 225.153 143.614C225.525 142.614 225.71 141.53 225.71 140.364C225.71 139.197 225.525 138.11 225.153 137.102C224.782 136.095 224.21 135.28 223.438 134.659C222.665 134.038 221.68 133.727 220.483 133.727C219.286 133.727 218.301 134.038 217.528 134.659C216.756 135.28 216.184 136.095 215.812 137.102C215.441 138.11 215.256 139.197 215.256 140.364C215.256 141.53 215.441 142.614 215.812 143.614C216.184 144.614 216.756 145.42 217.528 146.034C218.301 146.648 219.286 146.955 220.483 146.955ZM220.483 154.773C219.96 154.773 219.509 154.595 219.131 154.239C218.759 153.883 218.574 153.455 218.574 152.955C218.574 152.455 218.759 152.027 219.131 151.67C219.509 151.314 219.96 151.136 220.483 151.136C221.006 151.136 221.453 151.314 221.824 151.67C222.203 152.027 222.392 152.455 222.392 152.955C222.392 153.455 222.203 153.883 221.824 154.239C221.453 154.595 221.006 154.773 220.483 154.773ZM239.608 149.364C237.972 149.364 236.563 148.977 235.381 148.205C234.199 147.432 233.29 146.367 232.653 145.011C232.017 143.655 231.699 142.106 231.699 140.364C231.699 138.591 232.025 137.027 232.676 135.67C233.335 134.307 234.252 133.242 235.426 132.477C236.608 131.705 237.987 131.318 239.562 131.318C240.79 131.318 241.896 131.545 242.881 132C243.866 132.455 244.672 133.091 245.301 133.909C245.93 134.727 246.32 135.682 246.472 136.773H243.79C243.585 135.977 243.131 135.273 242.426 134.659C241.729 134.038 240.79 133.727 239.608 133.727C238.563 133.727 237.646 134 236.858 134.545C236.078 135.083 235.468 135.845 235.028 136.83C234.597 137.807 234.381 138.955 234.381 140.273C234.381 141.621 234.593 142.795 235.017 143.795C235.449 144.795 236.055 145.572 236.835 146.125C237.623 146.678 238.547 146.955 239.608 146.955C240.305 146.955 240.938 146.833 241.506 146.591C242.074 146.348 242.555 146 242.949 145.545C243.343 145.091 243.623 144.545 243.79 143.909H246.472C246.32 144.939 245.945 145.867 245.347 146.693C244.756 147.511 243.972 148.163 242.994 148.648C242.025 149.125 240.896 149.364 239.608 149.364ZM259.392 155.545V131.545H261.983V134.318H262.301C262.498 134.015 262.771 133.629 263.119 133.159C263.475 132.682 263.983 132.258 264.642 131.886C265.309 131.508 266.21 131.318 267.347 131.318C268.816 131.318 270.112 131.686 271.233 132.42C272.354 133.155 273.229 134.197 273.858 135.545C274.487 136.894 274.801 138.485 274.801 140.318C274.801 142.167 274.487 143.769 273.858 145.125C273.229 146.473 272.358 147.519 271.244 148.261C270.131 148.996 268.847 149.364 267.392 149.364C266.271 149.364 265.373 149.178 264.699 148.807C264.025 148.428 263.506 148 263.142 147.523C262.778 147.038 262.498 146.636 262.301 146.318H262.074V155.545H259.392ZM262.028 140.273C262.028 141.591 262.222 142.754 262.608 143.761C262.994 144.761 263.559 145.545 264.301 146.114C265.044 146.674 265.953 146.955 267.028 146.955C268.15 146.955 269.085 146.659 269.835 146.068C270.593 145.47 271.161 144.667 271.54 143.659C271.926 142.644 272.119 141.515 272.119 140.273C272.119 139.045 271.93 137.939 271.551 136.955C271.18 135.962 270.616 135.178 269.858 134.602C269.108 134.019 268.165 133.727 267.028 133.727C265.938 133.727 265.021 134.004 264.278 134.557C263.536 135.102 262.975 135.867 262.597 136.852C262.218 137.83 262.028 138.97 262.028 140.273ZM281.574 138.5V149H278.892V125.727H281.574V134.273H281.801C282.21 133.371 282.824 132.655 283.642 132.125C284.468 131.587 285.566 131.318 286.938 131.318C288.127 131.318 289.169 131.557 290.062 132.034C290.956 132.504 291.65 133.227 292.142 134.205C292.642 135.174 292.892 136.409 292.892 137.909V149H290.21V138.091C290.21 136.705 289.85 135.633 289.131 134.875C288.419 134.11 287.43 133.727 286.165 133.727C285.286 133.727 284.498 133.913 283.801 134.284C283.112 134.655 282.566 135.197 282.165 135.909C281.771 136.621 281.574 137.485 281.574 138.5ZM302.935 149.409C301.829 149.409 300.825 149.201 299.923 148.784C299.022 148.36 298.306 147.75 297.776 146.955C297.245 146.152 296.98 145.182 296.98 144.045C296.98 143.045 297.177 142.235 297.571 141.614C297.965 140.985 298.491 140.492 299.151 140.136C299.81 139.78 300.537 139.515 301.332 139.341C302.135 139.159 302.942 139.015 303.753 138.909C304.813 138.773 305.673 138.67 306.332 138.602C306.999 138.527 307.484 138.402 307.787 138.227C308.098 138.053 308.253 137.75 308.253 137.318V137.227C308.253 136.106 307.946 135.235 307.332 134.614C306.726 133.992 305.806 133.682 304.571 133.682C303.291 133.682 302.287 133.962 301.56 134.523C300.832 135.083 300.321 135.682 300.026 136.318L297.48 135.409C297.935 134.348 298.541 133.523 299.298 132.932C300.063 132.333 300.897 131.917 301.798 131.682C302.707 131.439 303.601 131.318 304.48 131.318C305.041 131.318 305.685 131.386 306.412 131.523C307.147 131.652 307.855 131.92 308.537 132.33C309.226 132.739 309.798 133.356 310.253 134.182C310.707 135.008 310.935 136.114 310.935 137.5V149H308.253V146.636H308.116C307.935 147.015 307.632 147.42 307.207 147.852C306.783 148.284 306.219 148.652 305.514 148.955C304.81 149.258 303.95 149.409 302.935 149.409ZM303.344 147C304.404 147 305.298 146.792 306.026 146.375C306.76 145.958 307.313 145.42 307.685 144.761C308.063 144.102 308.253 143.409 308.253 142.682V140.227C308.139 140.364 307.889 140.489 307.503 140.602C307.124 140.708 306.685 140.803 306.185 140.886C305.692 140.962 305.211 141.03 304.741 141.091C304.279 141.144 303.904 141.189 303.616 141.227C302.92 141.318 302.268 141.466 301.662 141.67C301.063 141.867 300.579 142.167 300.207 142.568C299.844 142.962 299.662 143.5 299.662 144.182C299.662 145.114 300.007 145.818 300.696 146.295C301.393 146.765 302.276 147 303.344 147ZM306.207 125.545L310.526 129.682H307.707L304.616 126.818L301.571 129.682H298.753L303.071 125.545H306.207ZM310.98 127.5H309.071V125.409C309.707 125.364 310.177 125.28 310.48 125.159C310.783 125.03 310.935 124.795 310.935 124.455C310.935 124.091 310.73 123.833 310.321 123.682C309.92 123.53 309.412 123.455 308.798 123.455L308.889 121.955C310.253 121.955 311.283 122.186 311.98 122.648C312.677 123.11 313.026 123.727 313.026 124.5C313.026 125.182 312.813 125.678 312.389 125.989C311.973 126.292 311.503 126.477 310.98 126.545V127.5ZM315.83 149V131.545H318.42V134.273H318.648C319.011 133.341 319.598 132.617 320.409 132.102C321.22 131.58 322.193 131.318 323.33 131.318C324.481 131.318 325.439 131.58 326.205 132.102C326.977 132.617 327.58 133.341 328.011 134.273H328.193C328.64 133.371 329.311 132.655 330.205 132.125C331.098 131.587 332.17 131.318 333.42 131.318C334.981 131.318 336.258 131.807 337.25 132.784C338.242 133.754 338.739 135.265 338.739 137.318V149H336.057V137.318C336.057 136.03 335.705 135.11 335 134.557C334.295 134.004 333.466 133.727 332.511 133.727C331.284 133.727 330.333 134.098 329.659 134.841C328.985 135.576 328.648 136.508 328.648 137.636V149H325.92V137.045C325.92 136.053 325.598 135.254 324.955 134.648C324.311 134.034 323.481 133.727 322.466 133.727C321.769 133.727 321.117 133.913 320.511 134.284C319.913 134.655 319.428 135.17 319.057 135.83C318.693 136.481 318.511 137.235 318.511 138.091V149H315.83ZM351.733 128.227V125.727H369.188V128.227H361.869V149H359.051V128.227H351.733ZM377.733 149.364C376.157 149.364 374.775 148.989 373.585 148.239C372.403 147.489 371.479 146.439 370.812 145.091C370.153 143.742 369.824 142.167 369.824 140.364C369.824 138.545 370.153 136.958 370.812 135.602C371.479 134.246 372.403 133.193 373.585 132.443C374.775 131.693 376.157 131.318 377.733 131.318C379.309 131.318 380.688 131.693 381.869 132.443C383.059 133.193 383.983 134.246 384.642 135.602C385.309 136.958 385.642 138.545 385.642 140.364C385.642 142.167 385.309 143.742 384.642 145.091C383.983 146.439 383.059 147.489 381.869 148.239C380.688 148.989 379.309 149.364 377.733 149.364ZM377.733 146.955C378.93 146.955 379.915 146.648 380.688 146.034C381.46 145.42 382.032 144.614 382.403 143.614C382.775 142.614 382.96 141.53 382.96 140.364C382.96 139.197 382.775 138.11 382.403 137.102C382.032 136.095 381.46 135.28 380.688 134.659C379.915 134.038 378.93 133.727 377.733 133.727C376.536 133.727 375.551 134.038 374.778 134.659C374.006 135.28 373.434 136.095 373.062 137.102C372.691 138.11 372.506 139.197 372.506 140.364C372.506 141.53 372.691 142.614 373.062 143.614C373.434 144.614 374.006 145.42 374.778 146.034C375.551 146.648 376.536 146.955 377.733 146.955ZM389.736 155.545V131.545H392.327V134.318H392.645C392.842 134.015 393.115 133.629 393.463 133.159C393.819 132.682 394.327 132.258 394.986 131.886C395.652 131.508 396.554 131.318 397.69 131.318C399.16 131.318 400.455 131.686 401.577 132.42C402.698 133.155 403.573 134.197 404.202 135.545C404.83 136.894 405.145 138.485 405.145 140.318C405.145 142.167 404.83 143.769 404.202 145.125C403.573 146.473 402.702 147.519 401.588 148.261C400.474 148.996 399.19 149.364 397.736 149.364C396.615 149.364 395.717 149.178 395.043 148.807C394.368 148.428 393.849 148 393.486 147.523C393.122 147.038 392.842 146.636 392.645 146.318H392.418V155.545H389.736ZM392.372 140.273C392.372 141.591 392.565 142.754 392.952 143.761C393.338 144.761 393.902 145.545 394.645 146.114C395.387 146.674 396.296 146.955 397.372 146.955C398.493 146.955 399.429 146.659 400.179 146.068C400.937 145.47 401.505 144.667 401.884 143.659C402.27 142.644 402.463 141.515 402.463 140.273C402.463 139.045 402.274 137.939 401.895 136.955C401.524 135.962 400.959 135.178 400.202 134.602C399.452 134.019 398.509 133.727 397.372 133.727C396.281 133.727 395.365 134.004 394.622 134.557C393.88 135.102 393.319 135.867 392.94 136.852C392.562 137.83 392.372 138.97 392.372 140.273ZM425.463 149.318C424.13 149.318 422.929 149.053 421.861 148.523C420.793 147.992 419.937 147.265 419.293 146.341C418.649 145.417 418.296 144.364 418.236 143.182H420.963C421.069 144.235 421.546 145.106 422.395 145.795C423.251 146.477 424.274 146.818 425.463 146.818C426.418 146.818 427.266 146.595 428.009 146.148C428.759 145.701 429.346 145.087 429.77 144.307C430.202 143.519 430.418 142.629 430.418 141.636C430.418 140.621 430.194 139.716 429.747 138.92C429.308 138.117 428.702 137.485 427.929 137.023C427.156 136.561 426.274 136.326 425.281 136.318C424.569 136.311 423.838 136.42 423.088 136.648C422.338 136.867 421.721 137.152 421.236 137.5L418.599 137.182L420.009 125.727H432.099V128.227H422.372L421.554 135.091H421.69C422.168 134.712 422.766 134.398 423.486 134.148C424.205 133.898 424.955 133.773 425.736 133.773C427.16 133.773 428.429 134.114 429.543 134.795C430.664 135.47 431.543 136.394 432.179 137.568C432.823 138.742 433.145 140.083 433.145 141.591C433.145 143.076 432.812 144.402 432.145 145.568C431.486 146.727 430.577 147.644 429.418 148.318C428.259 148.985 426.94 149.318 425.463 149.318ZM454.295 131.545V133.818H445.25V131.545H454.295ZM447.886 127.364H450.568V144C450.568 144.758 450.678 145.326 450.898 145.705C451.125 146.076 451.413 146.326 451.761 146.455C452.117 146.576 452.492 146.636 452.886 146.636C453.182 146.636 453.424 146.621 453.614 146.591C453.803 146.553 453.955 146.523 454.068 146.5L454.614 148.909C454.432 148.977 454.178 149.045 453.852 149.114C453.527 149.189 453.114 149.227 452.614 149.227C451.856 149.227 451.114 149.064 450.386 148.739C449.667 148.413 449.068 147.917 448.591 147.25C448.121 146.583 447.886 145.742 447.886 144.727V127.364ZM461.386 138.5V149H458.705V125.727H461.386V134.273H461.614C462.023 133.371 462.636 132.655 463.455 132.125C464.28 131.587 465.379 131.318 466.75 131.318C467.939 131.318 468.981 131.557 469.875 132.034C470.769 132.504 471.462 133.227 471.955 134.205C472.455 135.174 472.705 136.409 472.705 137.909V149H470.023V138.091C470.023 136.705 469.663 135.633 468.943 134.875C468.231 134.11 467.242 133.727 465.977 133.727C465.098 133.727 464.311 133.913 463.614 134.284C462.924 134.655 462.379 135.197 461.977 135.909C461.583 136.621 461.386 137.485 461.386 138.5ZM477.611 149V131.545H480.293V149H477.611ZM478.974 128.636C478.452 128.636 478.001 128.458 477.622 128.102C477.251 127.746 477.065 127.318 477.065 126.818C477.065 126.318 477.251 125.89 477.622 125.534C478.001 125.178 478.452 125 478.974 125C479.497 125 479.944 125.178 480.315 125.534C480.694 125.89 480.884 126.318 480.884 126.818C480.884 127.318 480.694 127.746 480.315 128.102C479.944 128.458 479.497 128.636 478.974 128.636ZM478.974 154.773C478.452 154.773 478.001 154.595 477.622 154.239C477.251 153.883 477.065 153.455 477.065 152.955C477.065 152.455 477.251 152.027 477.622 151.67C478.001 151.314 478.452 151.136 478.974 151.136C479.497 151.136 479.944 151.314 480.315 151.67C480.694 152.027 480.884 152.455 480.884 152.955C480.884 153.455 480.694 153.883 480.315 154.239C479.944 154.595 479.497 154.773 478.974 154.773ZM501.795 131.545V133.818H492.75V131.545H501.795ZM495.386 127.364H498.068V144C498.068 144.758 498.178 145.326 498.398 145.705C498.625 146.076 498.913 146.326 499.261 146.455C499.617 146.576 499.992 146.636 500.386 146.636C500.682 146.636 500.924 146.621 501.114 146.591C501.303 146.553 501.455 146.523 501.568 146.5L502.114 148.909C501.932 148.977 501.678 149.045 501.352 149.114C501.027 149.189 500.614 149.227 500.114 149.227C499.356 149.227 498.614 149.064 497.886 148.739C497.167 148.413 496.568 147.917 496.091 147.25C495.621 146.583 495.386 145.742 495.386 144.727V127.364ZM505.83 149V131.545H508.42V134.182H508.602C508.92 133.318 509.496 132.617 510.33 132.08C511.163 131.542 512.102 131.273 513.148 131.273C513.345 131.273 513.591 131.277 513.886 131.284C514.182 131.292 514.405 131.303 514.557 131.318V134.045C514.466 134.023 514.258 133.989 513.932 133.943C513.614 133.89 513.277 133.864 512.92 133.864C512.072 133.864 511.314 134.042 510.648 134.398C509.989 134.746 509.466 135.231 509.08 135.852C508.701 136.466 508.511 137.167 508.511 137.955V149H505.83ZM533.463 130.773H535.827C535.827 131.924 535.675 132.89 535.372 133.67C535.069 134.443 534.539 135.027 533.781 135.42C533.024 135.807 531.963 136 530.599 136V134.136C531.539 134.136 532.205 134.023 532.599 133.795C533.001 133.561 533.243 133.197 533.327 132.705C533.418 132.205 533.463 131.561 533.463 130.773ZM528.736 141.864V131.545H531.418V149H528.736V146.045H528.554C528.145 146.932 527.509 147.686 526.645 148.307C525.781 148.92 524.69 149.227 523.372 149.227C522.281 149.227 521.312 148.989 520.463 148.511C519.615 148.027 518.948 147.299 518.463 146.33C517.978 145.352 517.736 144.121 517.736 142.636V131.545H520.418V142.455C520.418 143.727 520.774 144.742 521.486 145.5C522.205 146.258 523.122 146.636 524.236 146.636C524.902 146.636 525.58 146.466 526.27 146.125C526.967 145.784 527.55 145.261 528.02 144.557C528.497 143.852 528.736 142.955 528.736 141.864ZM551.824 130.227H554.324C554.324 131.955 553.945 133.326 553.188 134.341C552.438 135.356 551.119 135.864 549.233 135.864V133.955C549.991 133.955 550.551 133.799 550.915 133.489C551.286 133.178 551.528 132.742 551.642 132.182C551.763 131.621 551.824 130.97 551.824 130.227ZM544.733 149.364C543.157 149.364 541.775 148.989 540.585 148.239C539.403 147.489 538.479 146.439 537.812 145.091C537.153 143.742 536.824 142.167 536.824 140.364C536.824 138.545 537.153 136.958 537.812 135.602C538.479 134.246 539.403 133.193 540.585 132.443C541.775 131.693 543.157 131.318 544.733 131.318C546.309 131.318 547.688 131.693 548.869 132.443C550.059 133.193 550.983 134.246 551.642 135.602C552.309 136.958 552.642 138.545 552.642 140.364C552.642 142.167 552.309 143.742 551.642 145.091C550.983 146.439 550.059 147.489 548.869 148.239C547.688 148.989 546.309 149.364 544.733 149.364ZM544.733 146.955C545.93 146.955 546.915 146.648 547.688 146.034C548.46 145.42 549.032 144.614 549.403 143.614C549.775 142.614 549.96 141.53 549.96 140.364C549.96 139.197 549.775 138.11 549.403 137.102C549.032 136.095 548.46 135.28 547.688 134.659C546.915 134.038 545.93 133.727 544.733 133.727C543.536 133.727 542.551 134.038 541.778 134.659C541.006 135.28 540.434 136.095 540.062 137.102C539.691 138.11 539.506 139.197 539.506 140.364C539.506 141.53 539.691 142.614 540.062 143.614C540.434 144.614 541.006 145.42 541.778 146.034C542.551 146.648 543.536 146.955 544.733 146.955ZM543.597 129.182L540.051 123.909H543.188L545.96 129.182H543.597ZM559.449 138.5V149H556.767V131.545H559.358V134.273H559.585C559.994 133.386 560.616 132.674 561.449 132.136C562.282 131.591 563.358 131.318 564.676 131.318C565.858 131.318 566.892 131.561 567.778 132.045C568.665 132.523 569.354 133.25 569.847 134.227C570.339 135.197 570.585 136.424 570.585 137.909V149H567.903V138.091C567.903 136.72 567.547 135.652 566.835 134.886C566.123 134.114 565.146 133.727 563.903 133.727C563.047 133.727 562.282 133.913 561.608 134.284C560.941 134.655 560.415 135.197 560.028 135.909C559.642 136.621 559.449 137.485 559.449 138.5ZM582.531 155.909C581.236 155.909 580.122 155.742 579.19 155.409C578.259 155.083 577.482 154.652 576.861 154.114C576.247 153.583 575.759 153.015 575.395 152.409L577.531 150.909C577.774 151.227 578.08 151.591 578.452 152C578.823 152.417 579.33 152.777 579.974 153.08C580.626 153.39 581.478 153.545 582.531 153.545C583.94 153.545 585.103 153.205 586.02 152.523C586.937 151.841 587.395 150.773 587.395 149.318V145.773H587.168C586.971 146.091 586.69 146.485 586.327 146.955C585.971 147.417 585.455 147.83 584.781 148.193C584.115 148.549 583.213 148.727 582.077 148.727C580.668 148.727 579.402 148.394 578.281 147.727C577.168 147.061 576.285 146.091 575.634 144.818C574.99 143.545 574.668 142 574.668 140.182C574.668 138.394 574.982 136.837 575.611 135.511C576.24 134.178 577.115 133.148 578.236 132.42C579.357 131.686 580.652 131.318 582.122 131.318C583.259 131.318 584.16 131.508 584.827 131.886C585.501 132.258 586.016 132.682 586.372 133.159C586.736 133.629 587.016 134.015 587.213 134.318H587.486V131.545H590.077V149.5C590.077 151 589.736 152.22 589.054 153.159C588.38 154.106 587.471 154.799 586.327 155.239C585.19 155.686 583.925 155.909 582.531 155.909ZM582.44 146.318C583.516 146.318 584.425 146.072 585.168 145.58C585.91 145.087 586.474 144.379 586.861 143.455C587.247 142.53 587.44 141.424 587.44 140.136C587.44 138.879 587.251 137.769 586.872 136.807C586.493 135.845 585.933 135.091 585.19 134.545C584.448 134 583.531 133.727 582.44 133.727C581.304 133.727 580.357 134.015 579.599 134.591C578.849 135.167 578.285 135.939 577.906 136.909C577.535 137.879 577.349 138.955 577.349 140.136C577.349 141.348 577.539 142.42 577.918 143.352C578.304 144.277 578.872 145.004 579.622 145.534C580.38 146.057 581.319 146.318 582.44 146.318ZM49.0455 188.364C47.5909 188.364 46.3068 187.996 45.1932 187.261C44.0795 186.519 43.2083 185.473 42.5795 184.125C41.9508 182.769 41.6364 181.167 41.6364 179.318C41.6364 177.485 41.9508 175.894 42.5795 174.545C43.2083 173.197 44.0833 172.155 45.2045 171.42C46.3258 170.686 47.6212 170.318 49.0909 170.318C50.2273 170.318 51.125 170.508 51.7841 170.886C52.4508 171.258 52.9583 171.682 53.3068 172.159C53.6629 172.629 53.9394 173.015 54.1364 173.318H54.3636V164.727H57.0455V188H54.4545V185.318H54.1364C53.9394 185.636 53.6591 186.038 53.2955 186.523C52.9318 187 52.4129 187.428 51.7386 187.807C51.0644 188.178 50.1667 188.364 49.0455 188.364ZM49.4091 185.955C50.4848 185.955 51.3939 185.674 52.1364 185.114C52.8788 184.545 53.4432 183.761 53.8295 182.761C54.2159 181.754 54.4091 180.591 54.4091 179.273C54.4091 177.97 54.2197 176.83 53.8409 175.852C53.4621 174.867 52.9015 174.102 52.1591 173.557C51.4167 173.004 50.5 172.727 49.4091 172.727C48.2727 172.727 47.3258 173.019 46.5682 173.602C45.8182 174.178 45.2538 174.962 44.875 175.955C44.5038 176.939 44.3182 178.045 44.3182 179.273C44.3182 180.515 44.5076 181.644 44.8864 182.659C45.2727 183.667 45.8409 184.47 46.5909 185.068C47.3485 185.659 48.2879 185.955 49.4091 185.955ZM78.0568 169.773H80.4205C80.4205 170.924 80.2689 171.89 79.9659 172.67C79.6629 173.443 79.1326 174.027 78.375 174.42C77.6174 174.807 76.5568 175 75.1932 175V173.136C76.1326 173.136 76.7992 173.023 77.1932 172.795C77.5947 172.561 77.8371 172.197 77.9205 171.705C78.0114 171.205 78.0568 170.561 78.0568 169.773ZM73.3295 180.864V170.545H76.0114V188H73.3295V185.045H73.1477C72.7386 185.932 72.1023 186.686 71.2386 187.307C70.375 187.92 69.2841 188.227 67.9659 188.227C66.875 188.227 65.9053 187.989 65.0568 187.511C64.2083 187.027 63.5417 186.299 63.0568 185.33C62.572 184.352 62.3295 183.121 62.3295 181.636V170.545H65.0114V181.455C65.0114 182.727 65.3674 183.742 66.0795 184.5C66.7992 185.258 67.7159 185.636 68.8295 185.636C69.4962 185.636 70.1742 185.466 70.8636 185.125C71.5606 184.784 72.1439 184.261 72.6136 183.557C73.0909 182.852 73.3295 181.955 73.3295 180.864ZM96.4176 169.227H98.9176C98.9176 170.955 98.5388 172.326 97.7812 173.341C97.0312 174.356 95.7131 174.864 93.8267 174.864V172.955C94.5843 172.955 95.1449 172.799 95.5085 172.489C95.8797 172.178 96.1222 171.742 96.2358 171.182C96.357 170.621 96.4176 169.97 96.4176 169.227ZM89.3267 188.364C87.7509 188.364 86.3684 187.989 85.179 187.239C83.9972 186.489 83.0729 185.439 82.4062 184.091C81.7472 182.742 81.4176 181.167 81.4176 179.364C81.4176 177.545 81.7472 175.958 82.4062 174.602C83.0729 173.246 83.9972 172.193 85.179 171.443C86.3684 170.693 87.7509 170.318 89.3267 170.318C90.9025 170.318 92.2813 170.693 93.4631 171.443C94.6525 172.193 95.5767 173.246 96.2358 174.602C96.9025 175.958 97.2358 177.545 97.2358 179.364C97.2358 181.167 96.9025 182.742 96.2358 184.091C95.5767 185.439 94.6525 186.489 93.4631 187.239C92.2813 187.989 90.9025 188.364 89.3267 188.364ZM89.3267 185.955C90.5237 185.955 91.5085 185.648 92.2812 185.034C93.054 184.42 93.6259 183.614 93.9972 182.614C94.3684 181.614 94.554 180.53 94.554 179.364C94.554 178.197 94.3684 177.11 93.9972 176.102C93.6259 175.095 93.054 174.28 92.2812 173.659C91.5085 173.038 90.5237 172.727 89.3267 172.727C88.1297 172.727 87.1449 173.038 86.3722 173.659C85.5994 174.28 85.0275 175.095 84.6562 176.102C84.285 177.11 84.0994 178.197 84.0994 179.364C84.0994 180.53 84.285 181.614 84.6562 182.614C85.0275 183.614 85.5994 184.42 86.3722 185.034C87.1449 185.648 88.1297 185.955 89.3267 185.955ZM89.3267 193.773C88.804 193.773 88.3532 193.595 87.9744 193.239C87.6032 192.883 87.4176 192.455 87.4176 191.955C87.4176 191.455 87.6032 191.027 87.9744 190.67C88.3532 190.314 88.804 190.136 89.3267 190.136C89.8494 190.136 90.2964 190.314 90.6676 190.67C91.0464 191.027 91.2358 191.455 91.2358 191.955C91.2358 192.455 91.0464 192.883 90.6676 193.239C90.2964 193.595 89.8494 193.773 89.3267 193.773ZM108.452 188.364C106.815 188.364 105.406 187.977 104.224 187.205C103.043 186.432 102.134 185.367 101.497 184.011C100.861 182.655 100.543 181.106 100.543 179.364C100.543 177.591 100.868 176.027 101.52 174.67C102.179 173.307 103.096 172.242 104.27 171.477C105.452 170.705 106.83 170.318 108.406 170.318C109.634 170.318 110.74 170.545 111.724 171C112.709 171.455 113.516 172.091 114.145 172.909C114.774 173.727 115.164 174.682 115.315 175.773H112.634C112.429 174.977 111.974 174.273 111.27 173.659C110.573 173.038 109.634 172.727 108.452 172.727C107.406 172.727 106.49 173 105.702 173.545C104.921 174.083 104.312 174.845 103.872 175.83C103.44 176.807 103.224 177.955 103.224 179.273C103.224 180.621 103.437 181.795 103.861 182.795C104.293 183.795 104.899 184.572 105.679 185.125C106.467 185.678 107.391 185.955 108.452 185.955C109.149 185.955 109.781 185.833 110.349 185.591C110.918 185.348 111.399 185 111.793 184.545C112.187 184.091 112.467 183.545 112.634 182.909H115.315C115.164 183.939 114.789 184.867 114.19 185.693C113.599 186.511 112.815 187.163 111.838 187.648C110.868 188.125 109.74 188.364 108.452 188.364ZM134.827 188.364C133.372 188.364 132.088 187.996 130.974 187.261C129.861 186.519 128.99 185.473 128.361 184.125C127.732 182.769 127.418 181.167 127.418 179.318C127.418 177.485 127.732 175.894 128.361 174.545C128.99 173.197 129.865 172.155 130.986 171.42C132.107 170.686 133.402 170.318 134.872 170.318C136.009 170.318 136.906 170.508 137.565 170.886C138.232 171.258 138.74 171.682 139.088 172.159C139.444 172.629 139.721 173.015 139.918 173.318H140.145V164.727H142.827V188H140.236V185.318H139.918C139.721 185.636 139.44 186.038 139.077 186.523C138.713 187 138.194 187.428 137.52 187.807C136.846 188.178 135.948 188.364 134.827 188.364ZM135.19 185.955C136.266 185.955 137.175 185.674 137.918 185.114C138.66 184.545 139.224 183.761 139.611 182.761C139.997 181.754 140.19 180.591 140.19 179.273C140.19 177.97 140.001 176.83 139.622 175.852C139.243 174.867 138.683 174.102 137.94 173.557C137.198 173.004 136.281 172.727 135.19 172.727C134.054 172.727 133.107 173.019 132.349 173.602C131.599 174.178 131.035 174.962 130.656 175.955C130.285 176.939 130.099 178.045 130.099 179.273C130.099 180.515 130.289 181.644 130.668 182.659C131.054 183.667 131.622 184.47 132.372 185.068C133.13 185.659 134.069 185.955 135.19 185.955ZM135.327 169.045V166.955H145.327V169.045H135.327ZM153.247 188.409C152.141 188.409 151.137 188.201 150.236 187.784C149.334 187.36 148.618 186.75 148.088 185.955C147.558 185.152 147.293 184.182 147.293 183.045C147.293 182.045 147.49 181.235 147.884 180.614C148.277 179.985 148.804 179.492 149.463 179.136C150.122 178.78 150.849 178.515 151.645 178.341C152.448 178.159 153.255 178.015 154.065 177.909C155.126 177.773 155.986 177.67 156.645 177.602C157.312 177.527 157.796 177.402 158.099 177.227C158.41 177.053 158.565 176.75 158.565 176.318V176.227C158.565 175.106 158.259 174.235 157.645 173.614C157.039 172.992 156.118 172.682 154.884 172.682C153.603 172.682 152.599 172.962 151.872 173.523C151.145 174.083 150.634 174.682 150.338 175.318L147.793 174.409C148.247 173.348 148.853 172.523 149.611 171.932C150.376 171.333 151.209 170.917 152.111 170.682C153.02 170.439 153.914 170.318 154.793 170.318C155.353 170.318 155.997 170.386 156.724 170.523C157.459 170.652 158.168 170.92 158.849 171.33C159.539 171.739 160.111 172.356 160.565 173.182C161.02 174.008 161.247 175.114 161.247 176.5V188H158.565V185.636H158.429C158.247 186.015 157.944 186.42 157.52 186.852C157.096 187.284 156.531 187.652 155.827 187.955C155.122 188.258 154.262 188.409 153.247 188.409ZM153.656 186C154.717 186 155.611 185.792 156.338 185.375C157.073 184.958 157.626 184.42 157.997 183.761C158.376 183.102 158.565 182.409 158.565 181.682V179.227C158.452 179.364 158.202 179.489 157.815 179.602C157.437 179.708 156.997 179.803 156.497 179.886C156.005 179.962 155.524 180.03 155.054 180.091C154.592 180.144 154.217 180.189 153.929 180.227C153.232 180.318 152.58 180.466 151.974 180.67C151.376 180.867 150.891 181.167 150.52 181.568C150.156 181.962 149.974 182.5 149.974 183.182C149.974 184.114 150.319 184.818 151.009 185.295C151.705 185.765 152.588 186 153.656 186ZM168.824 177.5V188H166.142V170.545H168.733V173.273H168.96C169.369 172.386 169.991 171.674 170.824 171.136C171.657 170.591 172.733 170.318 174.051 170.318C175.233 170.318 176.267 170.561 177.153 171.045C178.04 171.523 178.729 172.25 179.222 173.227C179.714 174.197 179.96 175.424 179.96 176.909V188H177.278V177.091C177.278 175.72 176.922 174.652 176.21 173.886C175.498 173.114 174.521 172.727 173.278 172.727C172.422 172.727 171.657 172.913 170.983 173.284C170.316 173.655 169.79 174.197 169.403 174.909C169.017 175.621 168.824 176.485 168.824 177.5ZM191.906 194.909C190.611 194.909 189.497 194.742 188.565 194.409C187.634 194.083 186.857 193.652 186.236 193.114C185.622 192.583 185.134 192.015 184.77 191.409L186.906 189.909C187.149 190.227 187.455 190.591 187.827 191C188.198 191.417 188.705 191.777 189.349 192.08C190.001 192.39 190.853 192.545 191.906 192.545C193.315 192.545 194.478 192.205 195.395 191.523C196.312 190.841 196.77 189.773 196.77 188.318V184.773H196.543C196.346 185.091 196.065 185.485 195.702 185.955C195.346 186.417 194.83 186.83 194.156 187.193C193.49 187.549 192.588 187.727 191.452 187.727C190.043 187.727 188.777 187.394 187.656 186.727C186.543 186.061 185.66 185.091 185.009 183.818C184.365 182.545 184.043 181 184.043 179.182C184.043 177.394 184.357 175.837 184.986 174.511C185.615 173.178 186.49 172.148 187.611 171.42C188.732 170.686 190.027 170.318 191.497 170.318C192.634 170.318 193.535 170.508 194.202 170.886C194.876 171.258 195.391 171.682 195.747 172.159C196.111 172.629 196.391 173.015 196.588 173.318H196.861V170.545H199.452V188.5C199.452 190 199.111 191.22 198.429 192.159C197.755 193.106 196.846 193.799 195.702 194.239C194.565 194.686 193.3 194.909 191.906 194.909ZM191.815 185.318C192.891 185.318 193.8 185.072 194.543 184.58C195.285 184.087 195.849 183.379 196.236 182.455C196.622 181.53 196.815 180.424 196.815 179.136C196.815 177.879 196.626 176.769 196.247 175.807C195.868 174.845 195.308 174.091 194.565 173.545C193.823 173 192.906 172.727 191.815 172.727C190.679 172.727 189.732 173.015 188.974 173.591C188.224 174.167 187.66 174.939 187.281 175.909C186.91 176.879 186.724 177.955 186.724 179.136C186.724 180.348 186.914 181.42 187.293 182.352C187.679 183.277 188.247 184.004 188.997 184.534C189.755 185.057 190.694 185.318 191.815 185.318ZM213.361 194.545V170.545H215.952V173.318H216.27C216.467 173.015 216.74 172.629 217.088 172.159C217.444 171.682 217.952 171.258 218.611 170.886C219.277 170.508 220.179 170.318 221.315 170.318C222.785 170.318 224.08 170.686 225.202 171.42C226.323 172.155 227.198 173.197 227.827 174.545C228.455 175.894 228.77 177.485 228.77 179.318C228.77 181.167 228.455 182.769 227.827 184.125C227.198 185.473 226.327 186.519 225.213 187.261C224.099 187.996 222.815 188.364 221.361 188.364C220.24 188.364 219.342 188.178 218.668 187.807C217.993 187.428 217.474 187 217.111 186.523C216.747 186.038 216.467 185.636 216.27 185.318H216.043V194.545H213.361ZM215.997 179.273C215.997 180.591 216.19 181.754 216.577 182.761C216.963 183.761 217.527 184.545 218.27 185.114C219.012 185.674 219.921 185.955 220.997 185.955C222.118 185.955 223.054 185.659 223.804 185.068C224.562 184.47 225.13 183.667 225.509 182.659C225.895 181.644 226.088 180.515 226.088 179.273C226.088 178.045 225.899 176.939 225.52 175.955C225.149 174.962 224.584 174.178 223.827 173.602C223.077 173.019 222.134 172.727 220.997 172.727C219.906 172.727 218.99 173.004 218.247 173.557C217.505 174.102 216.944 174.867 216.565 175.852C216.187 176.83 215.997 177.97 215.997 179.273ZM235.543 177.5V188H232.861V164.727H235.543V173.273H235.77C236.179 172.371 236.793 171.655 237.611 171.125C238.437 170.587 239.535 170.318 240.906 170.318C242.096 170.318 243.137 170.557 244.031 171.034C244.925 171.504 245.618 172.227 246.111 173.205C246.611 174.174 246.861 175.409 246.861 176.909V188H244.179V177.091C244.179 175.705 243.819 174.633 243.099 173.875C242.387 173.11 241.399 172.727 240.134 172.727C239.255 172.727 238.467 172.913 237.77 173.284C237.08 173.655 236.535 174.197 236.134 174.909C235.74 175.621 235.543 176.485 235.543 177.5ZM256.903 188.409C255.797 188.409 254.794 188.201 253.892 187.784C252.991 187.36 252.275 186.75 251.744 185.955C251.214 185.152 250.949 184.182 250.949 183.045C250.949 182.045 251.146 181.235 251.54 180.614C251.934 179.985 252.46 179.492 253.119 179.136C253.778 178.78 254.506 178.515 255.301 178.341C256.104 178.159 256.911 178.015 257.722 177.909C258.782 177.773 259.642 177.67 260.301 177.602C260.968 177.527 261.453 177.402 261.756 177.227C262.066 177.053 262.222 176.75 262.222 176.318V176.227C262.222 175.106 261.915 174.235 261.301 173.614C260.695 172.992 259.775 172.682 258.54 172.682C257.259 172.682 256.256 172.962 255.528 173.523C254.801 174.083 254.29 174.682 253.994 175.318L251.449 174.409C251.903 173.348 252.509 172.523 253.267 171.932C254.032 171.333 254.866 170.917 255.767 170.682C256.676 170.439 257.57 170.318 258.449 170.318C259.009 170.318 259.653 170.386 260.381 170.523C261.116 170.652 261.824 170.92 262.506 171.33C263.195 171.739 263.767 172.356 264.222 173.182C264.676 174.008 264.903 175.114 264.903 176.5V188H262.222V185.636H262.085C261.903 186.015 261.6 186.42 261.176 186.852C260.752 187.284 260.188 187.652 259.483 187.955C258.778 188.258 257.919 188.409 256.903 188.409ZM257.312 186C258.373 186 259.267 185.792 259.994 185.375C260.729 184.958 261.282 184.42 261.653 183.761C262.032 183.102 262.222 182.409 262.222 181.682V179.227C262.108 179.364 261.858 179.489 261.472 179.602C261.093 179.708 260.653 179.803 260.153 179.886C259.661 179.962 259.18 180.03 258.71 180.091C258.248 180.144 257.873 180.189 257.585 180.227C256.888 180.318 256.237 180.466 255.631 180.67C255.032 180.867 254.547 181.167 254.176 181.568C253.813 181.962 253.631 182.5 253.631 183.182C253.631 184.114 253.975 184.818 254.665 185.295C255.362 185.765 256.244 186 257.312 186ZM257.403 168.182L260.176 162.909H263.312L259.767 168.182H257.403ZM277.389 170.545V172.818H268.344V170.545H277.389ZM270.98 166.364H273.662V183C273.662 183.758 273.772 184.326 273.991 184.705C274.219 185.076 274.507 185.326 274.855 185.455C275.211 185.576 275.586 185.636 275.98 185.636C276.276 185.636 276.518 185.621 276.707 185.591C276.897 185.553 277.048 185.523 277.162 185.5L277.707 187.909C277.526 187.977 277.272 188.045 276.946 188.114C276.62 188.189 276.207 188.227 275.707 188.227C274.95 188.227 274.207 188.064 273.48 187.739C272.76 187.413 272.162 186.917 271.685 186.25C271.215 185.583 270.98 184.742 270.98 183.727V166.364ZM298.014 170.545V172.818H288.969V170.545H298.014ZM291.605 166.364H294.287V183C294.287 183.758 294.397 184.326 294.616 184.705C294.844 185.076 295.132 185.326 295.48 185.455C295.836 185.576 296.211 185.636 296.605 185.636C296.901 185.636 297.143 185.621 297.332 185.591C297.522 185.553 297.673 185.523 297.787 185.5L298.332 187.909C298.151 187.977 297.897 188.045 297.571 188.114C297.245 188.189 296.832 188.227 296.332 188.227C295.575 188.227 294.832 188.064 294.105 187.739C293.385 187.413 292.787 186.917 292.31 186.25C291.84 185.583 291.605 184.742 291.605 183.727V166.364ZM302.048 188V170.545H304.639V173.182H304.821C305.139 172.318 305.715 171.617 306.548 171.08C307.382 170.542 308.321 170.273 309.366 170.273C309.563 170.273 309.81 170.277 310.105 170.284C310.401 170.292 310.624 170.303 310.776 170.318V173.045C310.685 173.023 310.476 172.989 310.151 172.943C309.832 172.89 309.495 172.864 309.139 172.864C308.291 172.864 307.533 173.042 306.866 173.398C306.207 173.746 305.685 174.231 305.298 174.852C304.92 175.466 304.73 176.167 304.73 176.955V188H302.048ZM313.955 188V170.545H316.636V188H313.955ZM315.318 167.636C314.795 167.636 314.345 167.458 313.966 167.102C313.595 166.746 313.409 166.318 313.409 165.818C313.409 165.318 313.595 164.89 313.966 164.534C314.345 164.178 314.795 164 315.318 164C315.841 164 316.288 164.178 316.659 164.534C317.038 164.89 317.227 165.318 317.227 165.818C317.227 166.318 317.038 166.746 316.659 167.102C316.288 167.458 315.841 167.636 315.318 167.636ZM328.866 188.364C327.185 188.364 325.734 187.992 324.514 187.25C323.302 186.5 322.366 185.455 321.707 184.114C321.056 182.765 320.73 181.197 320.73 179.409C320.73 177.621 321.056 176.045 321.707 174.682C322.366 173.311 323.283 172.242 324.457 171.477C325.639 170.705 327.018 170.318 328.594 170.318C329.503 170.318 330.401 170.47 331.287 170.773C332.173 171.076 332.98 171.568 333.707 172.25C334.435 172.924 335.014 173.818 335.446 174.932C335.878 176.045 336.094 177.417 336.094 179.045V180.182H322.639V177.864H333.366C333.366 176.879 333.17 176 332.776 175.227C332.389 174.455 331.836 173.845 331.116 173.398C330.404 172.951 329.563 172.727 328.594 172.727C327.526 172.727 326.601 172.992 325.821 173.523C325.048 174.045 324.454 174.727 324.037 175.568C323.62 176.409 323.412 177.311 323.412 178.273V179.818C323.412 181.136 323.639 182.254 324.094 183.17C324.556 184.08 325.196 184.773 326.014 185.25C326.832 185.72 327.783 185.955 328.866 185.955C329.571 185.955 330.207 185.856 330.776 185.659C331.351 185.455 331.848 185.152 332.264 184.75C332.681 184.341 333.003 183.833 333.23 183.227L335.821 183.955C335.548 184.833 335.09 185.606 334.446 186.273C333.802 186.932 333.007 187.447 332.06 187.818C331.113 188.182 330.048 188.364 328.866 188.364ZM330.003 164.545L334.321 168.682H331.503L328.412 165.818L325.366 168.682H322.548L326.866 164.545H330.003ZM334.776 166.5H332.866V164.409C333.503 164.364 333.973 164.28 334.276 164.159C334.579 164.03 334.73 163.795 334.73 163.455C334.73 163.091 334.526 162.833 334.116 162.682C333.715 162.53 333.207 162.455 332.594 162.455L332.685 160.955C334.048 160.955 335.079 161.186 335.776 161.648C336.473 162.11 336.821 162.727 336.821 163.5C336.821 164.182 336.609 164.678 336.185 164.989C335.768 165.292 335.298 165.477 334.776 165.545V166.5ZM342.855 177.5V188H340.173V170.545H342.764V173.273H342.991C343.401 172.386 344.022 171.674 344.855 171.136C345.688 170.591 346.764 170.318 348.082 170.318C349.264 170.318 350.298 170.561 351.185 171.045C352.071 171.523 352.76 172.25 353.253 173.227C353.745 174.197 353.991 175.424 353.991 176.909V188H351.31V177.091C351.31 175.72 350.954 174.652 350.241 173.886C349.529 173.114 348.552 172.727 347.31 172.727C346.454 172.727 345.688 172.913 345.014 173.284C344.348 173.655 343.821 174.197 343.435 174.909C343.048 175.621 342.855 176.485 342.855 177.5ZM370.574 177.5V188H367.892V170.545H370.483V173.273H370.71C371.119 172.386 371.741 171.674 372.574 171.136C373.407 170.591 374.483 170.318 375.801 170.318C376.983 170.318 378.017 170.561 378.903 171.045C379.79 171.523 380.479 172.25 380.972 173.227C381.464 174.197 381.71 175.424 381.71 176.909V188H379.028V177.091C379.028 175.72 378.672 174.652 377.96 173.886C377.248 173.114 376.271 172.727 375.028 172.727C374.172 172.727 373.407 172.913 372.733 173.284C372.066 173.655 371.54 174.197 371.153 174.909C370.767 175.621 370.574 176.485 370.574 177.5ZM389.293 177.5V188H386.611V164.727H389.293V173.273H389.52C389.929 172.371 390.543 171.655 391.361 171.125C392.187 170.587 393.285 170.318 394.656 170.318C395.846 170.318 396.887 170.557 397.781 171.034C398.675 171.504 399.368 172.227 399.861 173.205C400.361 174.174 400.611 175.409 400.611 176.909V188H397.929V177.091C397.929 175.705 397.569 174.633 396.849 173.875C396.137 173.11 395.149 172.727 393.884 172.727C393.005 172.727 392.217 172.913 391.52 173.284C390.83 173.655 390.285 174.197 389.884 174.909C389.49 175.621 389.293 176.485 389.293 177.5ZM410.653 188.409C409.547 188.409 408.544 188.201 407.642 187.784C406.741 187.36 406.025 186.75 405.494 185.955C404.964 185.152 404.699 184.182 404.699 183.045C404.699 182.045 404.896 181.235 405.29 180.614C405.684 179.985 406.21 179.492 406.869 179.136C407.528 178.78 408.256 178.515 409.051 178.341C409.854 178.159 410.661 178.015 411.472 177.909C412.532 177.773 413.392 177.67 414.051 177.602C414.718 177.527 415.203 177.402 415.506 177.227C415.816 177.053 415.972 176.75 415.972 176.318V176.227C415.972 175.106 415.665 174.235 415.051 173.614C414.445 172.992 413.525 172.682 412.29 172.682C411.009 172.682 410.006 172.962 409.278 173.523C408.551 174.083 408.04 174.682 407.744 175.318L405.199 174.409C405.653 173.348 406.259 172.523 407.017 171.932C407.782 171.333 408.616 170.917 409.517 170.682C410.426 170.439 411.32 170.318 412.199 170.318C412.759 170.318 413.403 170.386 414.131 170.523C414.866 170.652 415.574 170.92 416.256 171.33C416.945 171.739 417.517 172.356 417.972 173.182C418.426 174.008 418.653 175.114 418.653 176.5V188H415.972V185.636H415.835C415.653 186.015 415.35 186.42 414.926 186.852C414.502 187.284 413.938 187.652 413.233 187.955C412.528 188.258 411.669 188.409 410.653 188.409ZM411.062 186C412.123 186 413.017 185.792 413.744 185.375C414.479 184.958 415.032 184.42 415.403 183.761C415.782 183.102 415.972 182.409 415.972 181.682V179.227C415.858 179.364 415.608 179.489 415.222 179.602C414.843 179.708 414.403 179.803 413.903 179.886C413.411 179.962 412.93 180.03 412.46 180.091C411.998 180.144 411.623 180.189 411.335 180.227C410.638 180.318 409.987 180.466 409.381 180.67C408.782 180.867 408.297 181.167 407.926 181.568C407.563 181.962 407.381 182.5 407.381 183.182C407.381 184.114 407.725 184.818 408.415 185.295C409.112 185.765 409.994 186 411.062 186ZM426.23 177.5V188H423.548V170.545H426.139V173.273H426.366C426.776 172.386 427.397 171.674 428.23 171.136C429.063 170.591 430.139 170.318 431.457 170.318C432.639 170.318 433.673 170.561 434.56 171.045C435.446 171.523 436.135 172.25 436.628 173.227C437.12 174.197 437.366 175.424 437.366 176.909V188H434.685V177.091C434.685 175.72 434.329 174.652 433.616 173.886C432.904 173.114 431.927 172.727 430.685 172.727C429.829 172.727 429.063 172.913 428.389 173.284C427.723 173.655 427.196 174.197 426.81 174.909C426.423 175.621 426.23 176.485 426.23 177.5ZM444.949 177.5V188H442.267V164.727H444.949V173.273H445.176C445.585 172.371 446.199 171.655 447.017 171.125C447.843 170.587 448.941 170.318 450.312 170.318C451.502 170.318 452.544 170.557 453.438 171.034C454.331 171.504 455.025 172.227 455.517 173.205C456.017 174.174 456.267 175.409 456.267 176.909V188H453.585V177.091C453.585 175.705 453.225 174.633 452.506 173.875C451.794 173.11 450.805 172.727 449.54 172.727C448.661 172.727 447.873 172.913 447.176 173.284C446.487 173.655 445.941 174.197 445.54 174.909C445.146 175.621 444.949 176.485 444.949 177.5ZM477.264 188.364C475.628 188.364 474.219 187.977 473.037 187.205C471.855 186.432 470.946 185.367 470.31 184.011C469.673 182.655 469.355 181.106 469.355 179.364C469.355 177.591 469.681 176.027 470.332 174.67C470.991 173.307 471.908 172.242 473.082 171.477C474.264 170.705 475.643 170.318 477.219 170.318C478.446 170.318 479.552 170.545 480.537 171C481.522 171.455 482.329 172.091 482.957 172.909C483.586 173.727 483.976 174.682 484.128 175.773H481.446C481.241 174.977 480.787 174.273 480.082 173.659C479.385 173.038 478.446 172.727 477.264 172.727C476.219 172.727 475.302 173 474.514 173.545C473.734 174.083 473.124 174.845 472.685 175.83C472.253 176.807 472.037 177.955 472.037 179.273C472.037 180.621 472.249 181.795 472.673 182.795C473.105 183.795 473.711 184.572 474.491 185.125C475.279 185.678 476.204 185.955 477.264 185.955C477.961 185.955 478.594 185.833 479.162 185.591C479.73 185.348 480.211 185 480.605 184.545C480.999 184.091 481.279 183.545 481.446 182.909H484.128C483.976 183.939 483.601 184.867 483.003 185.693C482.412 186.511 481.628 187.163 480.651 187.648C479.681 188.125 478.552 188.364 477.264 188.364ZM490.73 177.5V188H488.048V164.727H490.73V173.273H490.957C491.366 172.371 491.98 171.655 492.798 171.125C493.624 170.587 494.723 170.318 496.094 170.318C497.283 170.318 498.325 170.557 499.219 171.034C500.113 171.504 500.806 172.227 501.298 173.205C501.798 174.174 502.048 175.409 502.048 176.909V188H499.366V177.091C499.366 175.705 499.007 174.633 498.287 173.875C497.575 173.11 496.586 172.727 495.321 172.727C494.442 172.727 493.654 172.913 492.957 173.284C492.268 173.655 491.723 174.197 491.321 174.909C490.927 175.621 490.73 176.485 490.73 177.5ZM514.045 188.364C512.47 188.364 511.087 187.989 509.898 187.239C508.716 186.489 507.792 185.439 507.125 184.091C506.466 182.742 506.136 181.167 506.136 179.364C506.136 177.545 506.466 175.958 507.125 174.602C507.792 173.246 508.716 172.193 509.898 171.443C511.087 170.693 512.47 170.318 514.045 170.318C515.621 170.318 517 170.693 518.182 171.443C519.371 172.193 520.295 173.246 520.955 174.602C521.621 175.958 521.955 177.545 521.955 179.364C521.955 181.167 521.621 182.742 520.955 184.091C520.295 185.439 519.371 186.489 518.182 187.239C517 187.989 515.621 188.364 514.045 188.364ZM514.045 185.955C515.242 185.955 516.227 185.648 517 185.034C517.773 184.42 518.345 183.614 518.716 182.614C519.087 181.614 519.273 180.53 519.273 179.364C519.273 178.197 519.087 177.11 518.716 176.102C518.345 175.095 517.773 174.28 517 173.659C516.227 173.038 515.242 172.727 514.045 172.727C512.848 172.727 511.864 173.038 511.091 173.659C510.318 174.28 509.746 175.095 509.375 176.102C509.004 177.11 508.818 178.197 508.818 179.364C508.818 180.53 509.004 181.614 509.375 182.614C509.746 183.614 510.318 184.42 511.091 185.034C511.864 185.648 512.848 185.955 514.045 185.955ZM512.818 168.182L515.591 162.909H518.727L515.182 168.182H512.818ZM528.73 177.5V188H526.048V170.545H528.639V173.273H528.866C529.276 172.386 529.897 171.674 530.73 171.136C531.563 170.591 532.639 170.318 533.957 170.318C535.139 170.318 536.173 170.561 537.06 171.045C537.946 171.523 538.635 172.25 539.128 173.227C539.62 174.197 539.866 175.424 539.866 176.909V188H537.185V177.091C537.185 175.72 536.829 174.652 536.116 173.886C535.404 173.114 534.427 172.727 533.185 172.727C532.329 172.727 531.563 172.913 530.889 173.284C530.223 173.655 529.696 174.197 529.31 174.909C528.923 175.621 528.73 176.485 528.73 177.5ZM551.812 194.909C550.517 194.909 549.403 194.742 548.472 194.409C547.54 194.083 546.763 193.652 546.142 193.114C545.528 192.583 545.04 192.015 544.676 191.409L546.812 189.909C547.055 190.227 547.362 190.591 547.733 191C548.104 191.417 548.612 191.777 549.256 192.08C549.907 192.39 550.759 192.545 551.812 192.545C553.222 192.545 554.384 192.205 555.301 191.523C556.218 190.841 556.676 189.773 556.676 188.318V184.773H556.449C556.252 185.091 555.972 185.485 555.608 185.955C555.252 186.417 554.737 186.83 554.062 187.193C553.396 187.549 552.494 187.727 551.358 187.727C549.949 187.727 548.684 187.394 547.562 186.727C546.449 186.061 545.566 185.091 544.915 183.818C544.271 182.545 543.949 181 543.949 179.182C543.949 177.394 544.263 175.837 544.892 174.511C545.521 173.178 546.396 172.148 547.517 171.42C548.638 170.686 549.934 170.318 551.403 170.318C552.54 170.318 553.441 170.508 554.108 170.886C554.782 171.258 555.297 171.682 555.653 172.159C556.017 172.629 556.297 173.015 556.494 173.318H556.767V170.545H559.358V188.5C559.358 190 559.017 191.22 558.335 192.159C557.661 193.106 556.752 193.799 555.608 194.239C554.472 194.686 553.206 194.909 551.812 194.909ZM551.722 185.318C552.797 185.318 553.706 185.072 554.449 184.58C555.191 184.087 555.756 183.379 556.142 182.455C556.528 181.53 556.722 180.424 556.722 179.136C556.722 177.879 556.532 176.769 556.153 175.807C555.775 174.845 555.214 174.091 554.472 173.545C553.729 173 552.813 172.727 551.722 172.727C550.585 172.727 549.638 173.015 548.881 173.591C548.131 174.167 547.566 174.939 547.188 175.909C546.816 176.879 546.631 177.955 546.631 179.136C546.631 180.348 546.82 181.42 547.199 182.352C547.585 183.277 548.153 184.004 548.903 184.534C549.661 185.057 550.6 185.318 551.722 185.318ZM580.858 170.545V172.818H571.812V170.545H580.858ZM574.449 166.364H577.131V183C577.131 183.758 577.241 184.326 577.46 184.705C577.688 185.076 577.975 185.326 578.324 185.455C578.68 185.576 579.055 185.636 579.449 185.636C579.744 185.636 579.987 185.621 580.176 185.591C580.366 185.553 580.517 185.523 580.631 185.5L581.176 187.909C580.994 187.977 580.741 188.045 580.415 188.114C580.089 188.189 579.676 188.227 579.176 188.227C578.419 188.227 577.676 188.064 576.949 187.739C576.229 187.413 575.631 186.917 575.153 186.25C574.684 185.583 574.449 184.742 574.449 183.727V166.364ZM590.028 188.409C588.922 188.409 587.919 188.201 587.017 187.784C586.116 187.36 585.4 186.75 584.869 185.955C584.339 185.152 584.074 184.182 584.074 183.045C584.074 182.045 584.271 181.235 584.665 180.614C585.059 179.985 585.585 179.492 586.244 179.136C586.903 178.78 587.631 178.515 588.426 178.341C589.229 178.159 590.036 178.015 590.847 177.909C591.907 177.773 592.767 177.67 593.426 177.602C594.093 177.527 594.578 177.402 594.881 177.227C595.191 177.053 595.347 176.75 595.347 176.318V176.227C595.347 175.106 595.04 174.235 594.426 173.614C593.82 172.992 592.9 172.682 591.665 172.682C590.384 172.682 589.381 172.962 588.653 173.523C587.926 174.083 587.415 174.682 587.119 175.318L584.574 174.409C585.028 173.348 585.634 172.523 586.392 171.932C587.157 171.333 587.991 170.917 588.892 170.682C589.801 170.439 590.695 170.318 591.574 170.318C592.134 170.318 592.778 170.386 593.506 170.523C594.241 170.652 594.949 170.92 595.631 171.33C596.32 171.739 596.892 172.356 597.347 173.182C597.801 174.008 598.028 175.114 598.028 176.5V188H595.347V185.636H595.21C595.028 186.015 594.725 186.42 594.301 186.852C593.877 187.284 593.313 187.652 592.608 187.955C591.903 188.258 591.044 188.409 590.028 188.409ZM590.438 186C591.498 186 592.392 185.792 593.119 185.375C593.854 184.958 594.407 184.42 594.778 183.761C595.157 183.102 595.347 182.409 595.347 181.682V179.227C595.233 179.364 594.983 179.489 594.597 179.602C594.218 179.708 593.778 179.803 593.278 179.886C592.786 179.962 592.305 180.03 591.835 180.091C591.373 180.144 590.998 180.189 590.71 180.227C590.013 180.318 589.362 180.466 588.756 180.67C588.157 180.867 587.672 181.167 587.301 181.568C586.938 181.962 586.756 182.5 586.756 183.182C586.756 184.114 587.1 184.818 587.79 185.295C588.487 185.765 589.369 186 590.438 186ZM591.619 193.773C591.097 193.773 590.646 193.595 590.267 193.239C589.896 192.883 589.71 192.455 589.71 191.955C589.71 191.455 589.896 191.027 590.267 190.67C590.646 190.314 591.097 190.136 591.619 190.136C592.142 190.136 592.589 190.314 592.96 190.67C593.339 191.027 593.528 191.455 593.528 191.955C593.528 192.455 593.339 192.883 592.96 193.239C592.589 193.595 592.142 193.773 591.619 193.773ZM602.923 188V170.545H605.605V188H602.923ZM604.287 167.636C603.764 167.636 603.313 167.458 602.935 167.102C602.563 166.746 602.378 166.318 602.378 165.818C602.378 165.318 602.563 164.89 602.935 164.534C603.313 164.178 603.764 164 604.287 164C604.81 164 605.257 164.178 605.628 164.534C606.007 164.89 606.196 165.318 606.196 165.818C606.196 166.318 606.007 166.746 605.628 167.102C605.257 167.458 604.81 167.636 604.287 167.636ZM43.7727 203.727L50.6818 223.318H50.9545L57.8636 203.727H60.8182L52.2727 227H49.3636L40.8182 203.727H43.7727ZM64.0795 227V209.545H66.7614V227H64.0795ZM65.4432 206.636C64.9205 206.636 64.4697 206.458 64.0909 206.102C63.7197 205.746 63.5341 205.318 63.5341 204.818C63.5341 204.318 63.7197 203.89 64.0909 203.534C64.4697 203.178 64.9205 203 65.4432 203C65.9659 203 66.4129 203.178 66.7841 203.534C67.1629 203.89 67.3523 204.318 67.3523 204.818C67.3523 205.318 67.1629 205.746 66.7841 206.102C66.4129 206.458 65.9659 206.636 65.4432 206.636ZM78.9915 227.364C77.3097 227.364 75.8589 226.992 74.6392 226.25C73.4271 225.5 72.4915 224.455 71.8324 223.114C71.1809 221.765 70.8551 220.197 70.8551 218.409C70.8551 216.621 71.1809 215.045 71.8324 213.682C72.4915 212.311 73.4081 211.242 74.5824 210.477C75.7642 209.705 77.143 209.318 78.7188 209.318C79.6278 209.318 80.5256 209.47 81.4119 209.773C82.2983 210.076 83.1051 210.568 83.8324 211.25C84.5597 211.924 85.1392 212.818 85.571 213.932C86.0028 215.045 86.2188 216.417 86.2188 218.045V219.182H72.7642V216.864H83.4915C83.4915 215.879 83.2945 215 82.9006 214.227C82.5142 213.455 81.9612 212.845 81.2415 212.398C80.5294 211.951 79.6884 211.727 78.7188 211.727C77.6506 211.727 76.7263 211.992 75.946 212.523C75.1733 213.045 74.5786 213.727 74.1619 214.568C73.7453 215.409 73.5369 216.311 73.5369 217.273V218.818C73.5369 220.136 73.7642 221.254 74.2188 222.17C74.6809 223.08 75.321 223.773 76.1392 224.25C76.9574 224.72 77.9081 224.955 78.9915 224.955C79.696 224.955 80.3324 224.856 80.9006 224.659C81.4763 224.455 81.9725 224.152 82.3892 223.75C82.8059 223.341 83.1278 222.833 83.3551 222.227L85.946 222.955C85.6733 223.833 85.215 224.606 84.571 225.273C83.9271 225.932 83.1316 226.447 82.1847 226.818C81.2377 227.182 80.1733 227.364 78.9915 227.364ZM80.946 207.455L78.5824 204.273L76.2188 207.455H73.6733V207.273L77.3551 202.545H79.8097L83.4915 207.273V207.455H80.946ZM78.5824 232.773C78.0597 232.773 77.6089 232.595 77.2301 232.239C76.8589 231.883 76.6733 231.455 76.6733 230.955C76.6733 230.455 76.8589 230.027 77.2301 229.67C77.6089 229.314 78.0597 229.136 78.5824 229.136C79.1051 229.136 79.5521 229.314 79.9233 229.67C80.3021 230.027 80.4915 230.455 80.4915 230.955C80.4915 231.455 80.3021 231.883 79.9233 232.239C79.5521 232.595 79.1051 232.773 78.5824 232.773ZM97.8892 209.545V211.818H88.8438V209.545H97.8892ZM91.4801 205.364H94.1619V222C94.1619 222.758 94.2718 223.326 94.4915 223.705C94.7188 224.076 95.0066 224.326 95.3551 224.455C95.7112 224.576 96.0862 224.636 96.4801 224.636C96.7756 224.636 97.018 224.621 97.2074 224.591C97.3968 224.553 97.5483 224.523 97.6619 224.5L98.2074 226.909C98.0256 226.977 97.7718 227.045 97.446 227.114C97.1203 227.189 96.7074 227.227 96.2074 227.227C95.4498 227.227 94.7074 227.064 93.9801 226.739C93.2604 226.413 92.6619 225.917 92.1847 225.25C91.715 224.583 91.4801 223.742 91.4801 222.727V205.364ZM129.741 203.727V227H127.014L114.332 208.727H114.105V227H111.287V203.727H114.014L126.741 222.045H126.969V203.727H129.741ZM140.153 227.409C139.047 227.409 138.044 227.201 137.142 226.784C136.241 226.36 135.525 225.75 134.994 224.955C134.464 224.152 134.199 223.182 134.199 222.045C134.199 221.045 134.396 220.235 134.79 219.614C135.184 218.985 135.71 218.492 136.369 218.136C137.028 217.78 137.756 217.515 138.551 217.341C139.354 217.159 140.161 217.015 140.972 216.909C142.032 216.773 142.892 216.67 143.551 216.602C144.218 216.527 144.703 216.402 145.006 216.227C145.316 216.053 145.472 215.75 145.472 215.318V215.227C145.472 214.106 145.165 213.235 144.551 212.614C143.945 211.992 143.025 211.682 141.79 211.682C140.509 211.682 139.506 211.962 138.778 212.523C138.051 213.083 137.54 213.682 137.244 214.318L134.699 213.409C135.153 212.348 135.759 211.523 136.517 210.932C137.282 210.333 138.116 209.917 139.017 209.682C139.926 209.439 140.82 209.318 141.699 209.318C142.259 209.318 142.903 209.386 143.631 209.523C144.366 209.652 145.074 209.92 145.756 210.33C146.445 210.739 147.017 211.356 147.472 212.182C147.926 213.008 148.153 214.114 148.153 215.5V227H145.472V224.636H145.335C145.153 225.015 144.85 225.42 144.426 225.852C144.002 226.284 143.438 226.652 142.733 226.955C142.028 227.258 141.169 227.409 140.153 227.409ZM140.562 225C141.623 225 142.517 224.792 143.244 224.375C143.979 223.958 144.532 223.42 144.903 222.761C145.282 222.102 145.472 221.409 145.472 220.682V218.227C145.358 218.364 145.108 218.489 144.722 218.602C144.343 218.708 143.903 218.803 143.403 218.886C142.911 218.962 142.43 219.03 141.96 219.091C141.498 219.144 141.123 219.189 140.835 219.227C140.138 219.318 139.487 219.466 138.881 219.67C138.282 219.867 137.797 220.167 137.426 220.568C137.063 220.962 136.881 221.5 136.881 222.182C136.881 223.114 137.225 223.818 137.915 224.295C138.612 224.765 139.494 225 140.562 225ZM153.048 227V209.545H155.639V212.273H155.866C156.23 211.341 156.817 210.617 157.628 210.102C158.438 209.58 159.412 209.318 160.548 209.318C161.7 209.318 162.658 209.58 163.423 210.102C164.196 210.617 164.798 211.341 165.23 212.273H165.412C165.859 211.371 166.529 210.655 167.423 210.125C168.317 209.587 169.389 209.318 170.639 209.318C172.2 209.318 173.476 209.807 174.469 210.784C175.461 211.754 175.957 213.265 175.957 215.318V227H173.276V215.318C173.276 214.03 172.923 213.11 172.219 212.557C171.514 212.004 170.685 211.727 169.73 211.727C168.503 211.727 167.552 212.098 166.878 212.841C166.204 213.576 165.866 214.508 165.866 215.636V227H163.139V215.045C163.139 214.053 162.817 213.254 162.173 212.648C161.529 212.034 160.7 211.727 159.685 211.727C158.988 211.727 158.336 211.913 157.73 212.284C157.132 212.655 156.647 213.17 156.276 213.83C155.912 214.481 155.73 215.235 155.73 216.091V227H153.048Z" fill="#24408E"/>
</svg>
