<svg width="100%" viewBox="0 0 375 812" fill="none" xmlns="http://www.w3.org/2000/svg">
<path d="M14.464 581V557H19.872V576.584L18.336 575.496L33.184 557H38.976L19.36 581H14.464ZM25.92 569.256L29.824 565.768L39.328 581H33.12L25.92 569.256ZM61.5228 566.92V571.08H44.3388V566.92H61.5228ZM47.9868 569L46.3868 579.176L44.0188 576.488H62.5148V581H40.9148L42.7708 569L40.9148 557H62.3548V561.512H44.0188L46.3868 558.824L47.9868 569ZM59.4108 546.28H64.3708L60.7868 551.016H56.5948L59.4108 546.28ZM48.9468 549.992H54.7068L59.5388 555.144H54.9308L50.6108 551.816H53.0428L48.7228 555.144H44.1468L48.9468 549.992ZM73.9558 559.432H79.3638V581H73.9558V559.432ZM64.3878 557H88.8998V561.8H64.3878V557ZM108.306 571.528H114.834L125.394 582.728H118.706L108.306 571.528ZM111.89 581.48C109.095 581.48 106.642 580.957 104.53 579.912C102.439 578.867 100.807 577.416 99.6338 575.56C98.4604 573.683 97.8738 571.496 97.8738 569C97.8738 566.504 98.4604 564.328 99.6338 562.472C100.807 560.595 102.439 559.133 104.53 558.088C106.642 557.043 109.095 556.52 111.89 556.52C114.684 556.52 117.127 557.043 119.218 558.088C121.33 559.133 122.972 560.595 124.146 562.472C125.319 564.328 125.906 566.504 125.906 569C125.906 571.496 125.319 573.683 124.146 575.56C122.972 577.416 121.33 578.867 119.218 579.912C117.127 580.957 114.684 581.48 111.89 581.48ZM111.89 576.648C113.639 576.648 115.143 576.339 116.402 575.72C117.682 575.101 118.663 574.216 119.346 573.064C120.05 571.912 120.402 570.557 120.402 569C120.402 567.443 120.05 566.088 119.346 564.936C118.663 563.784 117.682 562.899 116.402 562.28C115.143 561.661 113.639 561.352 111.89 561.352C110.162 561.352 108.658 561.661 107.378 562.28C106.098 562.899 105.106 563.784 104.402 564.936C103.719 566.088 103.378 567.443 103.378 569C103.378 570.557 103.719 571.912 104.402 573.064C105.106 574.216 106.098 575.101 107.378 575.72C108.658 576.339 110.162 576.648 111.89 576.648ZM134.803 570.472C134.803 571.752 135.048 572.851 135.539 573.768C136.029 574.685 136.744 575.4 137.683 575.912C138.643 576.403 139.795 576.648 141.139 576.648C142.504 576.648 143.656 576.403 144.595 575.912C145.533 575.4 146.248 574.685 146.739 573.768C147.229 572.851 147.475 571.752 147.475 570.472V557H152.915V570.728C152.915 572.883 152.424 574.771 151.443 576.392C150.461 577.992 149.085 579.24 147.315 580.136C145.544 581.032 143.485 581.48 141.139 581.48C138.792 581.48 136.733 581.032 134.963 580.136C133.213 579.24 131.837 577.992 130.835 576.392C129.853 574.771 129.363 572.883 129.363 570.728V557H134.803V570.472ZM160.056 575.944V571.528H176.696V575.944H160.056ZM171.992 557L183.224 581H177.432L167.608 559.208H169.4L159.576 581H153.784L165.016 557H171.992ZM167.256 555.592L166.168 553.768C167.192 553.597 167.918 553.395 168.344 553.16C168.792 552.904 169.016 552.627 169.016 552.328C169.016 552.051 168.846 551.848 168.504 551.72C168.163 551.592 167.662 551.528 167 551.528C166.488 551.528 166.019 551.56 165.592 551.624C165.166 551.688 164.718 551.763 164.248 551.848V548.968C164.675 548.84 165.24 548.723 165.944 548.616C166.67 548.509 167.416 548.456 168.184 548.456C169.934 548.456 171.267 548.712 172.184 549.224C173.123 549.715 173.592 550.504 173.592 551.592C173.592 552.573 173.102 553.395 172.12 554.056C171.139 554.717 169.518 555.229 167.256 555.592ZM191.208 567.08H205.16V570.856H191.208V567.08ZM205.16 557C207.933 557 210.365 557.501 212.456 558.504C214.568 559.507 216.21 560.904 217.384 562.696C218.557 564.488 219.144 566.589 219.144 569C219.144 571.389 218.557 573.491 217.384 575.304C216.21 577.096 214.568 578.493 212.456 579.496C210.365 580.499 207.933 581 205.16 581H193.736V557H205.16ZM199.144 578.856L196.392 576.2H205.544C207.186 576.2 208.616 575.901 209.832 575.304C211.048 574.707 211.986 573.864 212.648 572.776C213.309 571.688 213.64 570.429 213.64 569C213.64 567.549 213.309 566.291 212.648 565.224C211.986 564.136 211.048 563.293 209.832 562.696C208.616 562.099 207.186 561.8 205.544 561.8H196.392L199.144 559.144V578.856ZM225.4 575.944V571.528H242.04V575.944H225.4ZM237.336 557L248.568 581H242.776L232.952 559.208H234.744L224.92 581H219.128L230.36 557H237.336ZM233.848 588.232C232.888 588.232 232.099 587.976 231.48 587.464C230.883 586.973 230.584 586.312 230.584 585.48C230.584 584.627 230.883 583.944 231.48 583.432C232.099 582.941 232.888 582.696 233.848 582.696C234.829 582.696 235.619 582.941 236.216 583.432C236.813 583.944 237.112 584.627 237.112 585.48C237.112 586.312 236.813 586.973 236.216 587.464C235.619 587.976 234.829 588.232 233.848 588.232ZM254.768 559.432H260.176V581H254.768V559.432ZM245.2 557H269.712V561.8H245.2V557ZM12.864 607.08H26.816V610.856H12.864V607.08ZM26.816 597C29.5893 597 32.0213 597.501 34.112 598.504C36.224 599.507 37.8667 600.904 39.04 602.696C40.2133 604.488 40.8 606.589 40.8 609C40.8 611.389 40.2133 613.491 39.04 615.304C37.8667 617.096 36.224 618.493 34.112 619.496C32.0213 620.499 29.5893 621 26.816 621H15.392V597H26.816ZM20.8 618.856L18.048 616.2H27.2C28.8427 616.2 30.272 615.901 31.488 615.304C32.704 614.707 33.6427 613.864 34.304 612.776C34.9653 611.688 35.296 610.429 35.296 609C35.296 607.549 34.9653 606.291 34.304 605.224C33.6427 604.136 32.704 603.293 31.488 602.696C30.272 602.099 28.8427 601.8 27.2 601.8H18.048L20.8 599.144V618.856ZM49.6778 610.472C49.6778 611.752 49.9231 612.851 50.4138 613.768C50.9044 614.685 51.6191 615.4 52.5578 615.912C53.5178 616.403 54.6698 616.648 56.0138 616.648C57.3791 616.648 58.5311 616.403 59.4698 615.912C60.4084 615.4 61.1231 614.685 61.6138 613.768C62.1044 612.851 62.3498 611.752 62.3498 610.472V597H67.7898V610.728C67.7898 612.883 67.2991 614.771 66.3178 616.392C65.3364 617.992 63.9604 619.24 62.1898 620.136C60.4191 621.032 58.3604 621.48 56.0138 621.48C53.6671 621.48 51.6084 621.032 49.8378 620.136C48.0884 619.24 46.7124 617.992 45.7098 616.392C44.7284 614.771 44.2378 612.883 44.2378 610.728V597H49.6778V610.472ZM73.2618 595.848C73.2618 597.128 72.7284 598.152 71.6618 598.92C70.5951 599.667 69.1444 600.04 67.3098 600.04C67.2458 600.04 67.1604 600.04 67.0538 600.04C66.9471 600.04 66.8618 600.04 66.7978 600.04V597C66.8404 597 66.8618 597 66.8618 597C66.8618 597 66.8724 597 66.8938 597C67.5551 597 68.0778 596.84 68.4618 596.52C68.8458 596.179 69.0378 595.731 69.0378 595.176C69.0378 594.835 68.9631 594.461 68.8138 594.056C68.6644 593.629 68.4511 593.224 68.1738 592.84H72.3018C72.9418 593.8 73.2618 594.803 73.2618 595.848ZM86.5765 621.48C83.8032 621.48 81.3605 620.957 79.2485 619.912C77.1578 618.867 75.5258 617.416 74.3525 615.56C73.1792 613.683 72.5925 611.496 72.5925 609C72.5925 606.504 73.1792 604.328 74.3525 602.472C75.5258 600.595 77.1578 599.133 79.2485 598.088C81.3605 597.043 83.8032 596.52 86.5765 596.52C87.4298 596.52 88.1872 596.563 88.8485 596.648C89.5098 596.712 90.1178 596.808 90.6725 596.936C91.1632 597.043 91.6432 597.139 92.1125 597.224C92.5818 597.288 93.0618 597.32 93.5525 597.32C94.6618 597.32 95.4512 597.117 95.9205 596.712C96.3898 596.285 96.6245 595.773 96.6245 595.176C96.6245 594.813 96.5498 594.429 96.4005 594.024C96.2725 593.619 96.0592 593.213 95.7605 592.808H100.113C100.411 593.299 100.635 593.811 100.785 594.344C100.955 594.877 101.041 595.4 101.041 595.912C101.041 596.979 100.667 597.885 99.9205 598.632C99.1952 599.357 98.1178 599.837 96.6885 600.072C97.9258 601.139 98.8858 602.429 99.5685 603.944C100.251 605.459 100.593 607.144 100.593 609C100.593 611.496 100.006 613.683 98.8325 615.56C97.6592 617.416 96.0165 618.867 93.9045 619.912C91.8138 620.957 89.3712 621.48 86.5765 621.48ZM86.5765 616.648C88.3472 616.648 89.8618 616.339 91.1205 615.72C92.3792 615.101 93.3498 614.216 94.0325 613.064C94.7365 611.912 95.0885 610.557 95.0885 609C95.0885 607.443 94.7365 606.088 94.0325 604.936C93.3498 603.784 92.3792 602.899 91.1205 602.28C89.8618 601.661 88.3472 601.352 86.5765 601.352C84.8485 601.352 83.3445 601.661 82.0645 602.28C80.8058 602.899 79.8245 603.784 79.1205 604.936C78.4378 606.088 78.0965 607.443 78.0965 609C78.0965 610.557 78.4378 611.912 79.1205 613.064C79.8245 614.216 80.8058 615.101 82.0645 615.72C83.3445 616.339 84.8485 616.648 86.5765 616.648ZM86.4485 628.232C85.4885 628.232 84.6992 627.976 84.0805 627.464C83.4832 626.973 83.1845 626.312 83.1845 625.48C83.1845 624.627 83.4832 623.944 84.0805 623.432C84.6992 622.941 85.4885 622.696 86.4485 622.696C87.4298 622.696 88.2192 622.941 88.8165 623.432C89.4138 623.944 89.7125 624.627 89.7125 625.48C89.7125 626.312 89.4138 626.973 88.8165 627.464C88.2192 627.976 87.4298 628.232 86.4485 628.232ZM130.386 611.24C130.151 613.267 129.436 615.059 128.242 616.616C127.068 618.152 125.511 619.347 123.57 620.2C121.65 621.053 119.452 621.48 116.978 621.48C114.247 621.48 111.847 620.957 109.778 619.912C107.73 618.867 106.13 617.416 104.978 615.56C103.826 613.683 103.25 611.496 103.25 609C103.25 606.504 103.826 604.328 104.978 602.472C106.13 600.595 107.73 599.133 109.778 598.088C111.847 597.043 114.247 596.52 116.978 596.52C119.452 596.52 121.65 596.947 123.57 597.8C125.511 598.653 127.068 599.848 128.242 601.384C129.436 602.92 130.151 604.712 130.386 606.76H124.914C124.7 605.629 124.242 604.659 123.538 603.848C122.834 603.016 121.927 602.376 120.818 601.928C119.708 601.48 118.418 601.256 116.946 601.256C115.26 601.256 113.799 601.576 112.562 602.216C111.346 602.835 110.407 603.731 109.746 604.904C109.084 606.056 108.754 607.421 108.754 609C108.754 610.579 109.084 611.955 109.746 613.128C110.407 614.28 111.346 615.176 112.562 615.816C113.799 616.435 115.26 616.744 116.946 616.744C118.418 616.744 119.708 616.531 120.818 616.104C121.927 615.656 122.834 615.027 123.538 614.216C124.242 613.384 124.7 612.392 124.914 611.24H130.386ZM148.706 599.432H154.114V621H148.706V599.432ZM139.138 597H163.65V601.8H139.138V597ZM170.459 607.656H179.707C180.923 607.656 181.883 607.379 182.587 606.824C183.312 606.248 183.675 605.459 183.675 604.456C183.675 603.453 183.312 602.675 182.587 602.12C181.883 601.565 180.923 601.288 179.707 601.288H169.659L172.123 598.504V621H166.683V597H180.347C182.096 597 183.632 597.32 184.955 597.96C186.277 598.579 187.312 599.443 188.059 600.552C188.805 601.661 189.179 602.963 189.179 604.456C189.179 605.928 188.805 607.219 188.059 608.328C187.312 609.437 186.277 610.312 184.955 610.952C183.632 611.571 182.096 611.88 180.347 611.88H170.459V607.656ZM174.619 609.768H180.827L189.883 621H183.515L174.619 609.768ZM205.859 621.48C203.064 621.48 200.611 620.957 198.499 619.912C196.408 618.867 194.776 617.416 193.603 615.56C192.429 613.683 191.843 611.496 191.843 609C191.843 606.504 192.429 604.328 193.603 602.472C194.776 600.595 196.408 599.133 198.499 598.088C200.611 597.043 203.064 596.52 205.859 596.52C208.653 596.52 211.096 597.043 213.187 598.088C215.299 599.133 216.941 600.595 218.115 602.472C219.288 604.328 219.875 606.504 219.875 609C219.875 611.496 219.288 613.683 218.115 615.56C216.941 617.416 215.299 618.867 213.187 619.912C211.096 620.957 208.653 621.48 205.859 621.48ZM205.859 616.648C207.608 616.648 209.112 616.339 210.371 615.72C211.651 615.101 212.632 614.216 213.315 613.064C214.019 611.912 214.371 610.557 214.371 609C214.371 607.443 214.019 606.088 213.315 604.936C212.632 603.784 211.651 602.899 210.371 602.28C209.112 601.661 207.608 601.352 205.859 601.352C204.131 601.352 202.627 601.661 201.347 602.28C200.067 602.899 199.075 603.784 198.371 604.936C197.688 606.088 197.347 607.443 197.347 609C197.347 610.557 197.688 611.912 198.371 613.064C199.075 614.216 200.067 615.101 201.347 615.72C202.627 616.339 204.131 616.648 205.859 616.648ZM245.86 617.416L243.972 617.704V597H249.252V621H242.372L227.012 600.296L228.868 600.008V621H223.62V597H230.66L245.86 617.416ZM278.44 610.6C278.418 612.051 278.13 613.437 277.576 614.76C277.042 616.061 276.274 617.224 275.272 618.248C274.269 619.251 273.032 620.04 271.56 620.616C270.088 621.192 268.381 621.48 266.44 621.48C264.562 621.48 262.802 621.203 261.16 620.648C259.538 620.072 258.109 619.251 256.872 618.184C255.656 617.117 254.706 615.816 254.024 614.28C253.341 612.723 253 610.963 253 609C253 607.037 253.341 605.288 254.024 603.752C254.728 602.195 255.698 600.883 256.936 599.816C258.173 598.749 259.624 597.939 261.288 597.384C262.952 596.808 264.765 596.52 266.728 596.52C269.288 596.52 271.506 596.925 273.384 597.736C275.261 598.525 276.776 599.624 277.928 601.032C279.101 602.44 279.826 604.051 280.104 605.864H274.632C274.418 604.883 273.949 604.04 273.224 603.336C272.52 602.632 271.613 602.088 270.503 601.704C269.416 601.32 268.157 601.128 266.728 601.128C265.042 601.128 263.581 601.437 262.344 602.056C261.128 602.653 260.178 603.539 259.496 604.712C258.834 605.885 258.504 607.315 258.504 609C258.504 610.685 258.856 612.125 259.56 613.32C260.264 614.515 261.266 615.432 262.568 616.072C263.869 616.691 265.405 617 267.176 617C268.904 617 270.418 616.733 271.72 616.2C273.021 615.645 274.045 614.877 274.792 613.896C275.56 612.893 275.997 611.709 276.104 610.344L278.44 610.6ZM267.912 612.808V608.872H280.36V621H276.456L275.72 611.272L276.84 612.808H267.912ZM36.704 657.416L34.816 657.704V637H40.096V661H33.216L17.856 640.296L19.712 640.008V661H14.464V637H21.504L36.704 657.416ZM48.9313 655.944V651.528H65.5713V655.944H48.9313ZM60.8673 637L72.0993 661H66.3073L56.4833 639.208H58.2753L48.4513 661H42.6593L53.8913 637H60.8673ZM49.8593 629.896H54.0193C54.2966 630.579 54.7126 631.101 55.2673 631.464C55.8219 631.805 56.5259 631.976 57.3793 631.976C58.2326 631.976 58.9366 631.805 59.4913 631.464C60.0459 631.101 60.4619 630.579 60.7393 629.896H64.8993C64.4299 631.709 63.5339 633.075 62.2113 633.992C60.8886 634.888 59.2779 635.336 57.3793 635.336C55.5019 635.336 53.8913 634.888 52.5473 633.992C51.2246 633.075 50.3286 631.709 49.8593 629.896ZM108.379 637V661H103.195V638.824L104.571 638.92L94.3308 661H88.7308L78.4908 638.984L79.8348 638.856V661H74.6828V637H83.0348L92.6988 658.376H90.3628L100.027 637H108.379Z" fill="#24CBFF"/>
</svg>
