<svg width="100%" viewBox="0 0 1920 1051" fill="none" xmlns="http://www.w3.org/2000/svg">
<path d="M314.696 744V708H322.808V737.376L320.504 735.744L342.776 708H351.464L322.04 744H314.696ZM331.88 726.384L337.736 721.152L351.992 744H342.68L331.88 726.384ZM385.284 722.88V729.12H359.508V722.88H385.284ZM364.98 726L362.58 741.264L359.028 737.232H386.772V744H354.372L357.156 726L354.372 708H386.532V714.768H359.028L362.58 710.736L364.98 726ZM382.116 691.92H389.556L384.18 699.024H377.892L382.116 691.92ZM366.42 697.488H375.06L382.308 705.216H375.396L368.916 700.224H372.564L366.084 705.216H359.22L366.42 697.488ZM403.934 711.648H412.046V744H403.934V711.648ZM389.582 708H426.35V715.2H389.582V708ZM455.459 729.792H465.251L481.091 746.592H471.059L455.459 729.792ZM460.835 744.72C456.643 744.72 452.963 743.936 449.795 742.368C446.659 740.8 444.211 738.624 442.451 735.84C440.691 733.024 439.811 729.744 439.811 726C439.811 722.256 440.691 718.992 442.451 716.208C444.211 713.392 446.659 711.2 449.795 709.632C452.963 708.064 456.643 707.28 460.835 707.28C465.027 707.28 468.691 708.064 471.827 709.632C474.995 711.2 477.459 713.392 479.219 716.208C480.979 718.992 481.859 722.256 481.859 726C481.859 729.744 480.979 733.024 479.219 735.84C477.459 738.624 474.995 740.8 471.827 742.368C468.691 743.936 465.027 744.72 460.835 744.72ZM460.835 737.472C463.459 737.472 465.715 737.008 467.603 736.08C469.523 735.152 470.995 733.824 472.019 732.096C473.075 730.368 473.603 728.336 473.603 726C473.603 723.664 473.075 721.632 472.019 719.904C470.995 718.176 469.523 716.848 467.603 715.92C465.715 714.992 463.459 714.528 460.835 714.528C458.243 714.528 455.987 714.992 454.067 715.92C452.147 716.848 450.659 718.176 449.603 719.904C448.579 721.632 448.067 723.664 448.067 726C448.067 728.336 448.579 730.368 449.603 732.096C450.659 733.824 452.147 735.152 454.067 736.08C455.987 737.008 458.243 737.472 460.835 737.472ZM495.204 728.208C495.204 730.128 495.572 731.776 496.308 733.152C497.044 734.528 498.116 735.6 499.524 736.368C500.964 737.104 502.692 737.472 504.708 737.472C506.756 737.472 508.484 737.104 509.892 736.368C511.3 735.6 512.372 734.528 513.108 733.152C513.844 731.776 514.212 730.128 514.212 728.208V708H522.372V728.592C522.372 731.824 521.636 734.656 520.164 737.088C518.692 739.488 516.628 741.36 513.972 742.704C511.316 744.048 508.228 744.72 504.708 744.72C501.188 744.72 498.1 744.048 495.444 742.704C492.82 741.36 490.756 739.488 489.252 737.088C487.78 734.656 487.044 731.824 487.044 728.592V708H495.204V728.208ZM533.084 736.416V729.792H558.044V736.416H533.084ZM550.988 708L567.836 744H559.148L544.412 711.312H547.1L532.364 744H523.676L540.524 708H550.988ZM543.884 705.888L542.252 703.152C543.788 702.896 544.876 702.592 545.516 702.24C546.188 701.856 546.524 701.44 546.524 700.992C546.524 700.576 546.268 700.272 545.756 700.08C545.244 699.888 544.492 699.792 543.5 699.792C542.732 699.792 542.028 699.84 541.388 699.936C540.748 700.032 540.076 700.144 539.372 700.272V695.952C540.012 695.76 540.86 695.584 541.916 695.424C543.004 695.264 544.124 695.184 545.276 695.184C547.9 695.184 549.9 695.568 551.276 696.336C552.684 697.072 553.388 698.256 553.388 699.888C553.388 701.36 552.652 702.592 551.18 703.584C549.708 704.576 547.276 705.344 543.884 705.888ZM579.812 723.12H600.74V728.784H579.812V723.12ZM600.74 708C604.9 708 608.548 708.752 611.684 710.256C614.852 711.76 617.316 713.856 619.076 716.544C620.836 719.232 621.716 722.384 621.716 726C621.716 729.584 620.836 732.736 619.076 735.456C617.316 738.144 614.852 740.24 611.684 741.744C608.548 743.248 604.9 744 600.74 744H583.604V708H600.74ZM591.716 740.784L587.588 736.8H601.316C603.78 736.8 605.924 736.352 607.748 735.456C609.572 734.56 610.98 733.296 611.972 731.664C612.964 730.032 613.46 728.144 613.46 726C613.46 723.824 612.964 721.936 611.972 720.336C610.98 718.704 609.572 717.44 607.748 716.544C605.924 715.648 603.78 715.2 601.316 715.2H587.588L591.716 711.216V740.784ZM631.1 736.416V729.792H656.06V736.416H631.1ZM649.004 708L665.852 744H657.164L642.428 711.312H645.116L630.38 744H621.692L638.54 708H649.004ZM643.772 754.848C642.332 754.848 641.148 754.464 640.22 753.696C639.324 752.96 638.876 751.968 638.876 750.72C638.876 749.44 639.324 748.416 640.22 747.648C641.148 746.912 642.332 746.544 643.772 746.544C645.244 746.544 646.428 746.912 647.324 747.648C648.22 748.416 648.668 749.44 648.668 750.72C648.668 751.968 648.22 752.96 647.324 753.696C646.428 754.464 645.244 754.848 643.772 754.848ZM675.152 711.648H683.264V744H675.152V711.648ZM660.8 708H697.568V715.2H660.8V708ZM710.405 723.12H731.333V728.784H710.405V723.12ZM731.333 708C735.493 708 739.141 708.752 742.277 710.256C745.445 711.76 747.909 713.856 749.669 716.544C751.429 719.232 752.309 722.384 752.309 726C752.309 729.584 751.429 732.736 749.669 735.456C747.909 738.144 745.445 740.24 742.277 741.744C739.141 743.248 735.493 744 731.333 744H714.197V708H731.333ZM722.309 740.784L718.181 736.8H731.909C734.373 736.8 736.517 736.352 738.341 735.456C740.165 734.56 741.573 733.296 742.565 731.664C743.557 730.032 744.053 728.144 744.053 726C744.053 723.824 743.557 721.936 742.565 720.336C741.573 718.704 740.165 717.44 738.341 716.544C736.517 715.648 734.373 715.2 731.909 715.2H718.181L722.309 711.216V740.784ZM765.626 728.208C765.626 730.128 765.994 731.776 766.73 733.152C767.466 734.528 768.538 735.6 769.946 736.368C771.386 737.104 773.114 737.472 775.13 737.472C777.178 737.472 778.906 737.104 780.314 736.368C781.722 735.6 782.794 734.528 783.53 733.152C784.266 731.776 784.634 730.128 784.634 728.208V708H792.794V728.592C792.794 731.824 792.058 734.656 790.586 737.088C789.114 739.488 787.05 741.36 784.394 742.704C781.738 744.048 778.65 744.72 775.13 744.72C771.61 744.72 768.522 744.048 765.866 742.704C763.242 741.36 761.178 739.488 759.674 737.088C758.202 734.656 757.466 731.824 757.466 728.592V708H765.626V728.208ZM801.002 706.272C801.002 708.192 800.202 709.728 798.602 710.88C797.002 712 794.826 712.56 792.074 712.56C791.978 712.56 791.85 712.56 791.69 712.56C791.53 712.56 791.402 712.56 791.306 712.56V708C791.37 708 791.402 708 791.402 708C791.402 708 791.418 708 791.45 708C792.442 708 793.226 707.76 793.802 707.28C794.378 706.768 794.666 706.096 794.666 705.264C794.666 704.752 794.554 704.192 794.33 703.584C794.106 702.944 793.786 702.336 793.37 701.76H799.562C800.522 703.2 801.002 704.704 801.002 706.272ZM820.974 744.72C816.814 744.72 813.15 743.936 809.982 742.368C806.846 740.8 804.398 738.624 802.638 735.84C800.878 733.024 799.998 729.744 799.998 726C799.998 722.256 800.878 718.992 802.638 716.208C804.398 713.392 806.846 711.2 809.982 709.632C813.15 708.064 816.814 707.28 820.974 707.28C822.254 707.28 823.39 707.344 824.382 707.472C825.374 707.568 826.286 707.712 827.118 707.904C827.854 708.064 828.574 708.208 829.278 708.336C829.982 708.432 830.702 708.48 831.438 708.48C833.102 708.48 834.286 708.176 834.99 707.568C835.694 706.928 836.046 706.16 836.046 705.264C836.046 704.72 835.934 704.144 835.71 703.536C835.518 702.928 835.198 702.32 834.75 701.712H841.278C841.726 702.448 842.062 703.216 842.286 704.016C842.542 704.816 842.67 705.6 842.67 706.368C842.67 707.968 842.11 709.328 840.99 710.448C839.902 711.536 838.286 712.256 836.142 712.608C837.998 714.208 839.438 716.144 840.462 718.416C841.486 720.688 841.998 723.216 841.998 726C841.998 729.744 841.118 733.024 839.358 735.84C837.598 738.624 835.134 740.8 831.966 742.368C828.83 743.936 825.166 744.72 820.974 744.72ZM820.974 737.472C823.63 737.472 825.902 737.008 827.79 736.08C829.678 735.152 831.134 733.824 832.158 732.096C833.214 730.368 833.742 728.336 833.742 726C833.742 723.664 833.214 721.632 832.158 719.904C831.134 718.176 829.678 716.848 827.79 715.92C825.902 714.992 823.63 714.528 820.974 714.528C818.382 714.528 816.126 714.992 814.206 715.92C812.318 716.848 810.846 718.176 809.79 719.904C808.766 721.632 808.254 723.664 808.254 726C808.254 728.336 808.766 730.368 809.79 732.096C810.846 733.824 812.318 735.152 814.206 736.08C816.126 737.008 818.382 737.472 820.974 737.472ZM820.782 754.848C819.342 754.848 818.158 754.464 817.23 753.696C816.334 752.96 815.886 751.968 815.886 750.72C815.886 749.44 816.334 748.416 817.23 747.648C818.158 746.912 819.342 746.544 820.782 746.544C822.254 746.544 823.438 746.912 824.334 747.648C825.23 748.416 825.678 749.44 825.678 750.72C825.678 751.968 825.23 752.96 824.334 753.696C823.438 754.464 822.254 754.848 820.782 754.848ZM886.688 729.36C886.336 732.4 885.264 735.088 883.472 737.424C881.712 739.728 879.376 741.52 876.464 742.8C873.584 744.08 870.288 744.72 866.576 744.72C862.48 744.72 858.88 743.936 855.776 742.368C852.704 740.8 850.304 738.624 848.576 735.84C846.848 733.024 845.984 729.744 845.984 726C845.984 722.256 846.848 718.992 848.576 716.208C850.304 713.392 852.704 711.2 855.776 709.632C858.88 708.064 862.48 707.28 866.576 707.28C870.288 707.28 873.584 707.92 876.464 709.2C879.376 710.48 881.712 712.272 883.472 714.576C885.264 716.88 886.336 719.568 886.688 722.64H878.48C878.16 720.944 877.472 719.488 876.416 718.272C875.36 717.024 874 716.064 872.336 715.392C870.672 714.72 868.736 714.384 866.528 714.384C864 714.384 861.808 714.864 859.952 715.824C858.128 716.752 856.72 718.096 855.728 719.856C854.736 721.584 854.24 723.632 854.24 726C854.24 728.368 854.736 730.432 855.728 732.192C856.72 733.92 858.128 735.264 859.952 736.224C861.808 737.152 864 737.616 866.528 737.616C868.736 737.616 870.672 737.296 872.336 736.656C874 735.984 875.36 735.04 876.416 733.824C877.472 732.576 878.16 731.088 878.48 729.36H886.688ZM326.168 775.648H334.28V808H326.168V775.648ZM311.816 772H348.584V779.2H311.816V772ZM358.798 787.984H372.67C374.494 787.984 375.934 787.568 376.99 786.736C378.078 785.872 378.622 784.688 378.622 783.184C378.622 781.68 378.078 780.512 376.99 779.68C375.934 778.848 374.494 778.432 372.67 778.432H357.598L361.294 774.256V808H353.134V772H373.63C376.254 772 378.558 772.48 380.542 773.44C382.526 774.368 384.078 775.664 385.198 777.328C386.318 778.992 386.878 780.944 386.878 783.184C386.878 785.392 386.318 787.328 385.198 788.992C384.078 790.656 382.526 791.968 380.542 792.928C378.558 793.856 376.254 794.32 373.63 794.32H358.798V787.984ZM365.038 791.152H374.35L387.934 808H378.382L365.038 791.152ZM411.897 808.72C407.705 808.72 404.025 807.936 400.857 806.368C397.721 804.8 395.273 802.624 393.513 799.84C391.753 797.024 390.873 793.744 390.873 790C390.873 786.256 391.753 782.992 393.513 780.208C395.273 777.392 397.721 775.2 400.857 773.632C404.025 772.064 407.705 771.28 411.897 771.28C416.089 771.28 419.753 772.064 422.889 773.632C426.057 775.2 428.521 777.392 430.281 780.208C432.041 782.992 432.921 786.256 432.921 790C432.921 793.744 432.041 797.024 430.281 799.84C428.521 802.624 426.057 804.8 422.889 806.368C419.753 807.936 416.089 808.72 411.897 808.72ZM411.897 801.472C414.521 801.472 416.777 801.008 418.665 800.08C420.585 799.152 422.057 797.824 423.081 796.096C424.137 794.368 424.665 792.336 424.665 790C424.665 787.664 424.137 785.632 423.081 783.904C422.057 782.176 420.585 780.848 418.665 779.92C416.777 778.992 414.521 778.528 411.897 778.528C409.305 778.528 407.049 778.992 405.129 779.92C403.209 780.848 401.721 782.176 400.665 783.904C399.641 785.632 399.129 787.664 399.129 790C399.129 792.336 399.641 794.368 400.665 796.096C401.721 797.824 403.209 799.152 405.129 800.08C407.049 801.008 409.305 801.472 411.897 801.472ZM471.9 802.624L469.068 803.056V772H476.988V808H466.668L443.628 776.944L446.412 776.512V808H438.54V772H449.1L471.9 802.624ZM520.769 792.4C520.737 794.576 520.305 796.656 519.473 798.64C518.673 800.592 517.521 802.336 516.017 803.872C514.513 805.376 512.657 806.56 510.449 807.424C508.241 808.288 505.681 808.72 502.769 808.72C499.953 808.72 497.313 808.304 494.849 807.472C492.417 806.608 490.273 805.376 488.417 803.776C486.593 802.176 485.169 800.224 484.145 797.92C483.121 795.584 482.609 792.944 482.609 790C482.609 787.056 483.121 784.432 484.145 782.128C485.201 779.792 486.657 777.824 488.513 776.224C490.369 774.624 492.545 773.408 495.041 772.576C497.537 771.712 500.257 771.28 503.201 771.28C507.041 771.28 510.369 771.888 513.185 773.104C516.001 774.288 518.273 775.936 520.001 778.048C521.761 780.16 522.849 782.576 523.265 785.296H515.057C514.737 783.824 514.033 782.56 512.945 781.504C511.889 780.448 510.529 779.632 508.865 779.056C507.233 778.48 505.345 778.192 503.201 778.192C500.673 778.192 498.481 778.656 496.625 779.584C494.801 780.48 493.377 781.808 492.353 783.568C491.361 785.328 490.865 787.472 490.865 790C490.865 792.528 491.393 794.688 492.449 796.48C493.505 798.272 495.009 799.648 496.961 800.608C498.913 801.536 501.217 802 503.873 802C506.465 802 508.737 801.6 510.689 800.8C512.641 799.968 514.177 798.816 515.297 797.344C516.449 795.84 517.105 794.064 517.265 792.016L520.769 792.4ZM504.977 795.712V789.808H523.649V808H517.793L516.689 793.408L518.369 795.712H504.977ZM575.822 802.624L572.99 803.056V772H580.91V808H570.59L547.55 776.944L550.334 776.512V808H542.462V772H553.022L575.822 802.624ZM594.163 800.416V793.792H619.123V800.416H594.163ZM612.067 772L628.915 808H620.227L605.491 775.312H608.179L593.443 808H584.755L601.603 772H612.067ZM595.555 761.344H601.795C602.211 762.368 602.835 763.152 603.667 763.696C604.499 764.208 605.555 764.464 606.835 764.464C608.115 764.464 609.171 764.208 610.003 763.696C610.835 763.152 611.459 762.368 611.875 761.344H618.115C617.411 764.064 616.067 766.112 614.083 767.488C612.099 768.832 609.683 769.504 606.835 769.504C604.019 769.504 601.603 768.832 599.587 767.488C597.603 766.112 596.259 764.064 595.555 761.344ZM683.334 772V808H675.558V774.736L677.622 774.88L662.262 808H653.862L638.502 774.976L640.518 774.784V808H632.79V772H645.318L659.814 804.064H656.31L670.806 772H683.334Z" fill="#24CBFF"/>
</svg>
