<svg width="100%" viewBox="0 0 1296 33" fill="none" xmlns="http://www.w3.org/2000/svg">
<path d="M7.824 10.464H10.992V27H7.824V10.464ZM0.384 9H18.432V11.784H0.384V9ZM29.2588 27.336C27.2108 27.336 25.4108 26.944 23.8588 26.16C22.3068 25.376 21.0988 24.288 20.2348 22.896C19.3708 21.488 18.9388 19.856 18.9388 18C18.9388 16.144 19.3708 14.52 20.2348 13.128C21.0988 11.72 22.3068 10.624 23.8588 9.84C25.4108 9.056 27.2108 8.664 29.2588 8.664C31.3068 8.664 33.1068 9.056 34.6588 9.84C36.2108 10.624 37.4188 11.72 38.2828 13.128C39.1468 14.52 39.5788 16.144 39.5788 18C39.5788 19.856 39.1468 21.488 38.2828 22.896C37.4188 24.288 36.2108 25.376 34.6588 26.16C33.1068 26.944 31.3068 27.336 29.2588 27.336ZM29.2588 24.504C30.7148 24.504 31.9708 24.24 33.0268 23.712C34.0828 23.184 34.8988 22.432 35.4748 21.456C36.0668 20.48 36.3628 19.328 36.3628 18C36.3628 16.672 36.0668 15.52 35.4748 14.544C34.8988 13.568 34.0828 12.816 33.0268 12.288C31.9708 11.76 30.7148 11.496 29.2588 11.496C27.8188 11.496 26.5628 11.76 25.4908 12.288C24.4348 12.816 23.6108 13.568 23.0188 14.544C22.4428 15.52 22.1548 16.672 22.1548 18C22.1548 19.328 22.4428 20.48 23.0188 21.456C23.6108 22.432 24.4348 23.184 25.4908 23.712C26.5628 24.24 27.8188 24.504 29.2588 24.504ZM33.5068 5.064L32.8348 4.056C33.3948 3.88 33.7868 3.696 34.0108 3.504C34.2508 3.296 34.3708 3.088 34.3708 2.88C34.3708 2.336 33.8748 2.064 32.8828 2.064C32.6428 2.064 32.3948 2.08 32.1388 2.112C31.8828 2.144 31.6348 2.192 31.3948 2.256V0.48C31.6508 0.4 31.9708 0.335999 32.3548 0.287999C32.7388 0.223998 33.1548 0.191998 33.6028 0.191998C34.6588 0.191998 35.4828 0.383998 36.0748 0.767999C36.6668 1.152 36.9628 1.688 36.9628 2.376C36.9628 3 36.6828 3.536 36.1228 3.984C35.5628 4.432 34.6908 4.792 33.5068 5.064ZM27.5068 3.888H31.0108L34.5628 7.536H31.7068L28.5868 5.04H29.9308L26.8108 7.536H23.9788L27.5068 3.888ZM59.3366 25.08L58.0406 25.224V9H61.1126V27H57.0806L44.4566 10.776L45.7286 10.632V27H42.6566V9H46.7846L59.3366 25.08ZM83.1572 19.176C83.1412 20.296 82.9252 21.352 82.5092 22.344C82.0932 23.32 81.5012 24.184 80.7332 24.936C79.9652 25.688 79.0292 26.28 77.9252 26.712C76.8372 27.128 75.5892 27.336 74.1812 27.336C72.7572 27.336 71.4372 27.12 70.2212 26.688C69.0052 26.256 67.9412 25.64 67.0292 24.84C66.1332 24.024 65.4372 23.04 64.9412 21.888C64.4452 20.736 64.1972 19.44 64.1972 18C64.1972 16.56 64.4452 15.264 64.9412 14.112C65.4532 12.96 66.1652 11.984 67.0772 11.184C67.9892 10.368 69.0612 9.744 70.2932 9.312C71.5252 8.88 72.8772 8.664 74.3492 8.664C76.1892 8.664 77.7972 8.968 79.1732 9.576C80.5652 10.168 81.6852 10.984 82.5332 12.024C83.3812 13.064 83.9012 14.256 84.0932 15.6H80.8772C80.7012 14.752 80.3172 14.016 79.7252 13.392C79.1492 12.768 78.4052 12.288 77.4932 11.952C76.5812 11.616 75.5252 11.448 74.3252 11.448C72.9172 11.448 71.6932 11.712 70.6532 12.24C69.6292 12.752 68.8292 13.496 68.2532 14.472C67.6932 15.448 67.4132 16.624 67.4132 18C67.4132 19.376 67.7012 20.56 68.2772 21.552C68.8692 22.544 69.7012 23.304 70.7732 23.832C71.8452 24.36 73.1092 24.624 74.5652 24.624C75.9732 24.624 77.2052 24.384 78.2612 23.904C79.3172 23.424 80.1492 22.76 80.7572 21.912C81.3652 21.048 81.6932 20.048 81.7412 18.912L83.1572 19.176ZM75.1892 20.544V18.144H84.2852V27H81.9332L81.5492 19.536L82.2932 20.544H75.1892ZM101.276 20.136H105.14L113.132 28.248H109.196L101.276 20.136ZM103.556 27.336C101.508 27.336 99.7077 26.944 98.1557 26.16C96.6037 25.376 95.3957 24.288 94.5317 22.896C93.6677 21.488 93.2357 19.856 93.2357 18C93.2357 16.144 93.6677 14.52 94.5317 13.128C95.3957 11.72 96.6037 10.624 98.1557 9.84C99.7077 9.056 101.508 8.664 103.556 8.664C105.604 8.664 107.404 9.056 108.956 9.84C110.508 10.624 111.716 11.72 112.58 13.128C113.444 14.52 113.876 16.144 113.876 18C113.876 19.856 113.444 21.488 112.58 22.896C111.716 24.288 110.508 25.376 108.956 26.16C107.404 26.944 105.604 27.336 103.556 27.336ZM103.556 24.504C105.012 24.504 106.268 24.24 107.324 23.712C108.38 23.184 109.196 22.432 109.772 21.456C110.364 20.48 110.66 19.328 110.66 18C110.66 16.672 110.364 15.52 109.772 14.544C109.196 13.568 108.38 12.816 107.324 12.288C106.268 11.76 105.012 11.496 103.556 11.496C102.116 11.496 100.86 11.76 99.7877 12.288C98.7317 12.816 97.9077 13.568 97.3157 14.544C96.7397 15.52 96.4517 16.672 96.4517 18C96.4517 19.328 96.7397 20.48 97.3157 21.456C97.9077 22.432 98.7317 23.184 99.7877 23.712C100.86 24.24 102.116 24.504 103.556 24.504ZM119.882 19.272C119.882 20.344 120.098 21.272 120.53 22.056C120.962 22.84 121.578 23.448 122.378 23.88C123.194 24.296 124.162 24.504 125.282 24.504C126.418 24.504 127.386 24.296 128.186 23.88C128.986 23.448 129.602 22.84 130.034 22.056C130.466 21.272 130.682 20.344 130.682 19.272V9H133.85V19.392C133.85 20.976 133.49 22.368 132.77 23.568C132.05 24.752 131.05 25.68 129.77 26.352C128.49 27.008 126.994 27.336 125.282 27.336C123.586 27.336 122.09 27.008 120.794 26.352C119.514 25.68 118.514 24.752 117.794 23.568C117.074 22.368 116.714 20.976 116.714 19.392V9H119.882V19.272ZM139.041 22.872V20.256H151.617V22.872H139.041ZM147.393 9L156.033 27H152.649L144.801 10.2H146.025L138.177 27H134.793L143.433 9H147.393ZM174.907 25.08L173.611 25.224V9H176.683V27H172.651L160.027 10.776L161.299 10.632V27H158.227V9H162.355L174.907 25.08ZM187.055 9H190.223V27H187.055V9ZM201.695 9H204.863V27H201.695V9ZM188.759 16.536H203.207V19.32H188.759V16.536ZM208.899 9H212.067V27H208.899V9ZM230.47 16.68V19.32H217.894V16.68H230.47ZM219.982 18L218.71 26.04L217.198 24.264H231.166V27H215.47L216.91 18L215.47 9H231.046V11.736H217.198L218.71 9.96L219.982 18ZM223.87 31.944C223.278 31.944 222.79 31.776 222.406 31.44C222.022 31.12 221.83 30.696 221.83 30.168C221.83 29.64 222.022 29.208 222.406 28.872C222.79 28.552 223.278 28.392 223.87 28.392C224.478 28.392 224.966 28.552 225.334 28.872C225.718 29.208 225.91 29.64 225.91 30.168C225.91 30.696 225.718 31.12 225.334 31.44C224.966 31.776 224.478 31.944 223.87 31.944ZM221.59 3.888H225.094L228.646 7.536H225.79L222.67 5.04H224.014L220.894 7.536H218.062L221.59 3.888ZM237.397 19.272C237.397 20.344 237.613 21.272 238.045 22.056C238.477 22.84 239.093 23.448 239.893 23.88C240.709 24.296 241.677 24.504 242.797 24.504C243.933 24.504 244.901 24.296 245.701 23.88C246.501 23.448 247.117 22.84 247.549 22.056C247.981 21.272 248.197 20.344 248.197 19.272V9H251.365V19.392C251.365 20.976 251.005 22.368 250.285 23.568C249.565 24.752 248.565 25.68 247.285 26.352C246.005 27.008 244.509 27.336 242.797 27.336C241.101 27.336 239.605 27.008 238.309 26.352C237.029 25.68 236.029 24.752 235.309 23.568C234.589 22.368 234.229 20.976 234.229 19.392V9H237.397V19.272ZM268.596 20.136H272.46L280.452 28.248H276.516L268.596 20.136ZM270.876 27.336C268.828 27.336 267.028 26.944 265.476 26.16C263.924 25.376 262.716 24.288 261.852 22.896C260.988 21.488 260.556 19.856 260.556 18C260.556 16.144 260.988 14.52 261.852 13.128C262.716 11.72 263.924 10.624 265.476 9.84C267.028 9.056 268.828 8.664 270.876 8.664C272.924 8.664 274.724 9.056 276.276 9.84C277.828 10.624 279.036 11.72 279.9 13.128C280.764 14.52 281.196 16.144 281.196 18C281.196 19.856 280.764 21.488 279.9 22.896C279.036 24.288 277.828 25.376 276.276 26.16C274.724 26.944 272.924 27.336 270.876 27.336ZM270.876 24.504C272.332 24.504 273.588 24.24 274.644 23.712C275.7 23.184 276.516 22.432 277.092 21.456C277.684 20.48 277.98 19.328 277.98 18C277.98 16.672 277.684 15.52 277.092 14.544C276.516 13.568 275.7 12.816 274.644 12.288C273.588 11.76 272.332 11.496 270.876 11.496C269.436 11.496 268.18 11.76 267.108 12.288C266.052 12.816 265.228 13.568 264.636 14.544C264.06 15.52 263.772 16.672 263.772 18C263.772 19.328 264.06 20.48 264.636 21.456C265.228 22.432 266.052 23.184 267.108 23.712C268.18 24.24 269.436 24.504 270.876 24.504ZM287.202 19.272C287.202 20.344 287.418 21.272 287.85 22.056C288.282 22.84 288.898 23.448 289.698 23.88C290.514 24.296 291.482 24.504 292.602 24.504C293.738 24.504 294.706 24.296 295.506 23.88C296.306 23.448 296.922 22.84 297.354 22.056C297.786 21.272 298.002 20.344 298.002 19.272V9H301.17V19.392C301.17 20.976 300.81 22.368 300.09 23.568C299.37 24.752 298.37 25.68 297.09 26.352C295.81 27.008 294.314 27.336 292.602 27.336C290.906 27.336 289.41 27.008 288.114 26.352C286.834 25.68 285.834 24.752 285.114 23.568C284.394 22.368 284.034 20.976 284.034 19.392V9H287.202V19.272ZM306.361 22.872V20.256H318.937V22.872H306.361ZM314.713 9L323.353 27H319.969L312.121 10.2H313.345L305.497 27H302.113L310.753 9H314.713ZM311.929 7.872L311.209 6.648C311.977 6.52 312.537 6.36 312.889 6.168C313.241 5.976 313.417 5.76 313.417 5.52C313.417 5.296 313.273 5.136 312.985 5.04C312.713 4.928 312.321 4.872 311.809 4.872C311.409 4.872 311.041 4.896 310.705 4.944C310.385 4.992 310.049 5.056 309.697 5.136V3.264C310.001 3.184 310.393 3.104 310.873 3.024C311.369 2.944 311.889 2.904 312.433 2.904C313.617 2.904 314.529 3.088 315.169 3.456C315.825 3.808 316.153 4.36 316.153 5.112C316.153 5.8 315.817 6.376 315.145 6.84C314.489 7.288 313.417 7.632 311.929 7.872ZM330.961 9H334.129V27H330.961V9ZM345.601 9H348.769V27H345.601V9ZM332.665 16.536H347.113V19.32H332.665V16.536ZM362.165 27.336C360.117 27.336 358.317 26.944 356.765 26.16C355.213 25.376 354.005 24.288 353.141 22.896C352.277 21.488 351.845 19.856 351.845 18C351.845 16.144 352.277 14.52 353.141 13.128C354.005 11.72 355.213 10.624 356.765 9.84C358.317 9.056 360.117 8.664 362.165 8.664C364.213 8.664 366.013 9.056 367.565 9.84C369.117 10.624 370.325 11.72 371.189 13.128C372.053 14.52 372.485 16.144 372.485 18C372.485 19.856 372.053 21.488 371.189 22.896C370.325 24.288 369.117 25.376 367.565 26.16C366.013 26.944 364.213 27.336 362.165 27.336ZM362.165 24.504C363.621 24.504 364.877 24.24 365.933 23.712C366.989 23.184 367.805 22.432 368.381 21.456C368.973 20.48 369.269 19.328 369.269 18C369.269 16.672 368.973 15.52 368.381 14.544C367.805 13.568 366.989 12.816 365.933 12.288C364.877 11.76 363.621 11.496 362.165 11.496C360.725 11.496 359.469 11.76 358.397 12.288C357.341 12.816 356.517 13.568 355.925 14.544C355.349 15.52 355.061 16.672 355.061 18C355.061 19.328 355.349 20.48 355.925 21.456C356.517 22.432 357.341 23.184 358.397 23.712C359.469 24.24 360.725 24.504 362.165 24.504ZM376.979 22.872V20.256H389.555V22.872H376.979ZM385.331 9L393.971 27H390.587L382.739 10.2H383.963L376.115 27H372.731L381.371 9H385.331ZM383.363 31.944C382.771 31.944 382.283 31.776 381.899 31.44C381.515 31.12 381.323 30.696 381.323 30.168C381.323 29.64 381.515 29.208 381.899 28.872C382.283 28.552 382.771 28.392 383.363 28.392C383.971 28.392 384.459 28.552 384.827 28.872C385.211 29.208 385.403 29.64 385.403 30.168C385.403 30.696 385.211 31.12 384.827 31.44C384.459 31.776 383.971 31.944 383.363 31.944ZM398.832 10.464H402V27H398.832V10.464ZM391.392 9H409.44V11.784H391.392V9ZM415.96 16.776H426.28V19.176H415.96V16.776ZM426.28 9C428.328 9 430.12 9.376 431.656 10.128C433.208 10.88 434.416 11.936 435.28 13.296C436.144 14.64 436.576 16.208 436.576 18C436.576 19.792 436.144 21.368 435.28 22.728C434.416 24.072 433.208 25.12 431.656 25.872C430.12 26.624 428.328 27 426.28 27H418.144V9H426.28ZM421.312 25.896L419.56 24.216H426.496C427.872 24.216 429.072 23.96 430.096 23.448C431.136 22.92 431.936 22.192 432.496 21.264C433.072 20.32 433.36 19.232 433.36 18C433.36 16.752 433.072 15.664 432.496 14.736C431.936 13.808 431.136 13.088 430.096 12.576C429.072 12.048 427.872 11.784 426.496 11.784H419.56L421.312 10.104V25.896ZM449.001 27.336C446.953 27.336 445.153 26.944 443.601 26.16C442.049 25.376 440.841 24.288 439.977 22.896C439.113 21.488 438.681 19.856 438.681 18C438.681 16.144 439.113 14.52 439.977 13.128C440.841 11.72 442.049 10.624 443.601 9.84C445.153 9.056 446.953 8.664 449.001 8.664C451.049 8.664 452.849 9.056 454.401 9.84C455.953 10.624 457.161 11.72 458.025 13.128C458.889 14.52 459.321 16.144 459.321 18C459.321 19.856 458.889 21.488 458.025 22.896C457.161 24.288 455.953 25.376 454.401 26.16C452.849 26.944 451.049 27.336 449.001 27.336ZM449.001 24.504C450.457 24.504 451.713 24.24 452.769 23.712C453.825 23.184 454.641 22.432 455.217 21.456C455.809 20.48 456.105 19.328 456.105 18C456.105 16.672 455.809 15.52 455.217 14.544C454.641 13.568 453.825 12.816 452.769 12.288C451.713 11.76 450.457 11.496 449.001 11.496C447.561 11.496 446.305 11.76 445.233 12.288C444.177 12.816 443.353 13.568 442.761 14.544C442.185 15.52 441.897 16.672 441.897 18C441.897 19.328 442.185 20.48 442.761 21.456C443.353 22.432 444.177 23.184 445.233 23.712C446.305 24.24 447.561 24.504 449.001 24.504ZM449.001 31.944C448.409 31.944 447.921 31.776 447.537 31.44C447.153 31.12 446.961 30.696 446.961 30.168C446.961 29.64 447.153 29.208 447.537 28.872C447.921 28.552 448.409 28.392 449.001 28.392C449.609 28.392 450.097 28.552 450.465 28.872C450.849 29.208 451.041 29.64 451.041 30.168C451.041 30.696 450.849 31.12 450.465 31.44C450.097 31.776 449.609 31.944 449.001 31.944ZM447.225 3.888H450.729L454.281 7.536H451.425L448.305 5.04H449.649L446.529 7.536H443.697L447.225 3.888ZM479.079 25.08L477.783 25.224V9H480.855V27H476.823L464.199 10.776L465.471 10.632V27H462.399V9H466.527L479.079 25.08ZM502.899 19.176C502.883 20.296 502.667 21.352 502.251 22.344C501.835 23.32 501.243 24.184 500.475 24.936C499.707 25.688 498.771 26.28 497.667 26.712C496.579 27.128 495.331 27.336 493.923 27.336C492.499 27.336 491.179 27.12 489.963 26.688C488.747 26.256 487.683 25.64 486.771 24.84C485.875 24.024 485.179 23.04 484.683 21.888C484.187 20.736 483.939 19.44 483.939 18C483.939 16.56 484.187 15.264 484.683 14.112C485.195 12.96 485.907 11.984 486.819 11.184C487.731 10.368 488.803 9.744 490.035 9.312C491.267 8.88 492.619 8.664 494.091 8.664C495.931 8.664 497.539 8.968 498.915 9.576C500.307 10.168 501.427 10.984 502.275 12.024C503.123 13.064 503.643 14.256 503.835 15.6H500.619C500.443 14.752 500.059 14.016 499.467 13.392C498.891 12.768 498.147 12.288 497.235 11.952C496.323 11.616 495.267 11.448 494.067 11.448C492.659 11.448 491.435 11.712 490.395 12.24C489.371 12.752 488.571 13.496 487.995 14.472C487.435 15.448 487.155 16.624 487.155 18C487.155 19.376 487.443 20.56 488.019 21.552C488.611 22.544 489.443 23.304 490.515 23.832C491.587 24.36 492.851 24.624 494.307 24.624C495.715 24.624 496.947 24.384 498.003 23.904C499.059 23.424 499.891 22.76 500.499 21.912C501.107 21.048 501.435 20.048 501.483 18.912L502.899 19.176ZM494.931 20.544V18.144H504.027V27H501.675L501.291 19.536L502.035 20.544H494.931Z" fill="#24408E"/>
</svg>
