<svg width="100%" viewBox="0 0 1296 30" fill="none" xmlns="http://www.w3.org/2000/svg">
<path d="M11.376 24.336C9.328 24.336 7.528 23.944 5.976 23.16C4.424 22.376 3.216 21.288 2.352 19.896C1.488 18.488 1.056 16.856 1.056 15C1.056 13.144 1.488 11.52 2.352 10.128C3.216 8.72 4.424 7.624 5.976 6.84C7.528 6.056 9.328 5.664 11.376 5.664C13.424 5.664 15.224 6.056 16.776 6.84C18.328 7.624 19.536 8.72 20.4 10.128C21.264 11.52 21.696 13.144 21.696 15C21.696 16.856 21.264 18.488 20.4 19.896C19.536 21.288 18.328 22.376 16.776 23.16C15.224 23.944 13.424 24.336 11.376 24.336ZM11.376 21.504C12.832 21.504 14.088 21.24 15.144 20.712C16.2 20.184 17.016 19.432 17.592 18.456C18.184 17.48 18.48 16.328 18.48 15C18.48 13.672 18.184 12.52 17.592 11.544C17.016 10.568 16.2 9.816 15.144 9.288C14.088 8.76 12.832 8.496 11.376 8.496C9.936 8.496 8.68 8.76 7.608 9.288C6.552 9.816 5.728 10.568 5.136 11.544C4.56 12.52 4.272 13.672 4.272 15C4.272 16.328 4.56 17.48 5.136 18.456C5.728 19.432 6.552 20.184 7.608 20.712C8.68 21.24 9.936 21.504 11.376 21.504ZM27.7018 16.272C27.7018 17.344 27.9178 18.272 28.3498 19.056C28.7818 19.84 29.3978 20.448 30.1978 20.88C31.0138 21.296 31.9818 21.504 33.1018 21.504C34.2378 21.504 35.2058 21.296 36.0058 20.88C36.8058 20.448 37.4218 19.84 37.8538 19.056C38.2858 18.272 38.5018 17.344 38.5018 16.272V6H41.6698V16.392C41.6698 17.976 41.3098 19.368 40.5898 20.568C39.8698 21.752 38.8698 22.68 37.5898 23.352C36.3098 24.008 34.8138 24.336 33.1018 24.336C31.4058 24.336 29.9098 24.008 28.6138 23.352C27.3338 22.68 26.3338 21.752 25.6138 20.568C24.8938 19.368 24.5338 17.976 24.5338 16.392V6H27.7018V16.272ZM47.6771 14.112H54.9971C56.0531 14.112 56.8851 13.872 57.4931 13.392C58.1171 12.912 58.4291 12.256 58.4291 11.424C58.4291 10.576 58.1171 9.92 57.4931 9.456C56.8851 8.976 56.0531 8.736 54.9971 8.736H47.2211L48.6371 6.96V24H45.4691V6H55.2851C56.5491 6 57.6531 6.232 58.5971 6.696C59.5571 7.144 60.3011 7.776 60.8291 8.592C61.3731 9.392 61.6451 10.336 61.6451 11.424C61.6451 12.48 61.3731 13.416 60.8291 14.232C60.3011 15.032 59.5571 15.664 58.5971 16.128C57.6531 16.576 56.5491 16.8 55.2851 16.8H47.6771V14.112ZM51.2291 15.576H54.9491L62.1011 24H58.3091L51.2291 15.576ZM72.7363 19.872V17.256H85.3123V19.872H72.7363ZM81.0883 6L89.7283 24H86.3443L78.4963 7.2H79.7203L71.8723 24H68.4883L77.1283 6H81.0883ZM111.905 22.8H110.705L116.225 6H119.537L113.441 24H109.409L103.337 7.512H104.825L98.7531 24H94.7211L88.6251 6H91.9611L97.4571 22.8L96.3051 22.776L102.377 6H105.809L111.905 22.8ZM122.682 19.872V17.256H135.258V19.872H122.682ZM131.034 6L139.674 24H136.29L128.442 7.2H129.666L121.818 24H118.434L127.074 6H131.034ZM144.076 14.112H151.396C152.452 14.112 153.284 13.872 153.892 13.392C154.516 12.912 154.828 12.256 154.828 11.424C154.828 10.576 154.516 9.92 153.892 9.456C153.284 8.976 152.452 8.736 151.396 8.736H143.62L145.036 6.96V24H141.868V6H151.684C152.948 6 154.052 6.232 154.996 6.696C155.956 7.144 156.7 7.776 157.228 8.592C157.772 9.392 158.044 10.336 158.044 11.424C158.044 12.48 157.772 13.416 157.228 14.232C156.7 15.032 155.956 15.664 154.996 16.128C154.052 16.576 152.948 16.8 151.684 16.8H144.076V14.112ZM147.628 15.576H151.348L158.5 24H154.708L147.628 15.576ZM169.457 6C171.505 6 173.297 6.376 174.833 7.128C176.385 7.88 177.593 8.936 178.457 10.296C179.321 11.64 179.753 13.208 179.753 15C179.753 16.792 179.321 18.368 178.457 19.728C177.593 21.072 176.385 22.12 174.833 22.872C173.297 23.624 171.505 24 169.457 24H161.321V6H169.457ZM164.489 22.896L162.737 21.216H169.673C171.049 21.216 172.249 20.96 173.273 20.448C174.313 19.92 175.113 19.192 175.673 18.264C176.249 17.32 176.537 16.232 176.537 15C176.537 13.752 176.249 12.664 175.673 11.736C175.113 10.808 174.313 10.088 173.273 9.576C172.249 9.048 171.049 8.784 169.673 8.784H162.737L164.489 7.104V22.896ZM181.732 18.144H184.948C185.044 18.864 185.34 19.496 185.836 20.04C186.348 20.584 187.02 21.008 187.852 21.312C188.684 21.6 189.644 21.744 190.732 21.744C192.348 21.744 193.628 21.496 194.572 21C195.516 20.488 195.988 19.8 195.988 18.936C195.988 18.232 195.716 17.704 195.172 17.352C194.628 17 193.644 16.736 192.22 16.56L188.332 16.056C186.156 15.768 184.572 15.232 183.58 14.448C182.604 13.648 182.116 12.52 182.116 11.064C182.116 9.96 182.444 9.008 183.1 8.208C183.772 7.392 184.716 6.768 185.932 6.336C187.148 5.888 188.572 5.664 190.204 5.664C191.82 5.664 193.252 5.904 194.5 6.384C195.748 6.864 196.74 7.536 197.476 8.4C198.228 9.248 198.636 10.248 198.7 11.4H195.484C195.404 10.76 195.132 10.208 194.668 9.744C194.22 9.28 193.612 8.92 192.844 8.664C192.076 8.392 191.172 8.256 190.132 8.256C188.66 8.256 187.484 8.496 186.604 8.976C185.724 9.456 185.284 10.112 185.284 10.944C185.284 11.584 185.54 12.08 186.052 12.432C186.58 12.768 187.492 13.024 188.788 13.2L192.724 13.752C194.34 13.976 195.612 14.28 196.54 14.664C197.484 15.032 198.156 15.536 198.556 16.176C198.956 16.8 199.156 17.608 199.156 18.6C199.156 19.752 198.804 20.76 198.1 21.624C197.396 22.488 196.404 23.16 195.124 23.64C193.86 24.104 192.38 24.336 190.684 24.336C188.956 24.336 187.428 24.08 186.1 23.568C184.788 23.04 183.748 22.312 182.98 21.384C182.212 20.456 181.796 19.376 181.732 18.144Z" fill="white"/>
</svg>
