<svg width="100%" viewBox="0 0 351 22" fill="none" xmlns="http://www.w3.org/2000/svg">
<path d="M8.532 18.252C6.996 18.252 5.646 17.958 4.482 17.37C3.318 16.782 2.412 15.966 1.764 14.922C1.116 13.866 0.792 12.642 0.792 11.25C0.792 9.858 1.116 8.64 1.764 7.596C2.412 6.54 3.318 5.718 4.482 5.13C5.646 4.542 6.996 4.248 8.532 4.248C10.068 4.248 11.418 4.542 12.582 5.13C13.746 5.718 14.652 6.54 15.3 7.596C15.948 8.64 16.272 9.858 16.272 11.25C16.272 12.642 15.948 13.866 15.3 14.922C14.652 15.966 13.746 16.782 12.582 17.37C11.418 17.958 10.068 18.252 8.532 18.252ZM8.532 16.128C9.624 16.128 10.566 15.93 11.358 15.534C12.15 15.138 12.762 14.574 13.194 13.842C13.638 13.11 13.86 12.246 13.86 11.25C13.86 10.254 13.638 9.39 13.194 8.658C12.762 7.926 12.15 7.362 11.358 6.966C10.566 6.57 9.624 6.372 8.532 6.372C7.452 6.372 6.51 6.57 5.706 6.966C4.914 7.362 4.296 7.926 3.852 8.658C3.42 9.39 3.204 10.254 3.204 11.25C3.204 12.246 3.42 13.11 3.852 13.842C4.296 14.574 4.914 15.138 5.706 15.534C6.51 15.93 7.452 16.128 8.532 16.128ZM20.7764 12.204C20.7764 13.008 20.9384 13.704 21.2624 14.292C21.5864 14.88 22.0484 15.336 22.6484 15.66C23.2604 15.972 23.9864 16.128 24.8264 16.128C25.6784 16.128 26.4044 15.972 27.0044 15.66C27.6044 15.336 28.0664 14.88 28.3904 14.292C28.7144 13.704 28.8764 13.008 28.8764 12.204V4.5H31.2524V12.294C31.2524 13.482 30.9824 14.526 30.4424 15.426C29.9024 16.314 29.1524 17.01 28.1924 17.514C27.2324 18.006 26.1104 18.252 24.8264 18.252C23.5544 18.252 22.4324 18.006 21.4604 17.514C20.5004 17.01 19.7504 16.314 19.2104 15.426C18.6704 14.526 18.4004 13.482 18.4004 12.294V4.5H20.7764V12.204ZM35.7578 10.584H41.2478C42.0398 10.584 42.6638 10.404 43.1198 10.044C43.5878 9.684 43.8218 9.192 43.8218 8.568C43.8218 7.932 43.5878 7.44 43.1198 7.092C42.6638 6.732 42.0398 6.552 41.2478 6.552H35.4158L36.4778 5.22V18H34.1018V4.5H41.4638C42.4118 4.5 43.2398 4.674 43.9478 5.022C44.6678 5.358 45.2258 5.832 45.6218 6.444C46.0298 7.044 46.2338 7.752 46.2338 8.568C46.2338 9.36 46.0298 10.062 45.6218 10.674C45.2258 11.274 44.6678 11.748 43.9478 12.096C43.2398 12.432 42.4118 12.6 41.4638 12.6H35.7578V10.584ZM38.4218 11.682H41.2118L46.5758 18H43.7318L38.4218 11.682ZM54.5522 14.904V12.942H63.9842V14.904H54.5522ZM60.8162 4.5L67.2962 18H64.7582L58.8722 5.4H59.7902L53.9042 18H51.3662L57.8462 4.5H60.8162ZM83.9288 17.1H83.0288L87.1688 4.5H89.6528L85.0808 18H82.0568L77.5028 5.634H78.6188L74.0648 18H71.0408L66.4688 4.5H68.9708L73.0928 17.1L72.2288 17.082L76.7828 4.5H79.3568L83.9288 17.1ZM92.0112 14.904V12.942H101.443V14.904H92.0112ZM98.2752 4.5L104.755 18H102.217L96.3312 5.4H97.2492L91.3632 18H88.8252L95.3052 4.5H98.2752ZM108.057 10.584H113.547C114.339 10.584 114.963 10.404 115.419 10.044C115.887 9.684 116.121 9.192 116.121 8.568C116.121 7.932 115.887 7.44 115.419 7.092C114.963 6.732 114.339 6.552 113.547 6.552H107.715L108.777 5.22V18H106.401V4.5H113.763C114.711 4.5 115.539 4.674 116.247 5.022C116.967 5.358 117.525 5.832 117.921 6.444C118.329 7.044 118.533 7.752 118.533 8.568C118.533 9.36 118.329 10.062 117.921 10.674C117.525 11.274 116.967 11.748 116.247 12.096C115.539 12.432 114.711 12.6 113.763 12.6H108.057V10.584ZM110.721 11.682H113.511L118.875 18H116.031L110.721 11.682ZM127.093 4.5C128.629 4.5 129.973 4.782 131.125 5.346C132.289 5.91 133.195 6.702 133.843 7.722C134.491 8.73 134.815 9.906 134.815 11.25C134.815 12.594 134.491 13.776 133.843 14.796C133.195 15.804 132.289 16.59 131.125 17.154C129.973 17.718 128.629 18 127.093 18H120.991V4.5H127.093ZM123.367 17.172L122.053 15.912H127.255C128.287 15.912 129.187 15.72 129.955 15.336C130.735 14.94 131.335 14.394 131.755 13.698C132.187 12.99 132.403 12.174 132.403 11.25C132.403 10.314 132.187 9.498 131.755 8.802C131.335 8.106 130.735 7.566 129.955 7.182C129.187 6.786 128.287 6.588 127.255 6.588H122.053L123.367 5.328V17.172ZM136.299 13.608H138.711C138.783 14.148 139.005 14.622 139.377 15.03C139.761 15.438 140.265 15.756 140.889 15.984C141.513 16.2 142.233 16.308 143.049 16.308C144.261 16.308 145.221 16.122 145.929 15.75C146.637 15.366 146.991 14.85 146.991 14.202C146.991 13.674 146.787 13.278 146.379 13.014C145.971 12.75 145.233 12.552 144.165 12.42L141.249 12.042C139.617 11.826 138.429 11.424 137.685 10.836C136.953 10.236 136.587 9.39 136.587 8.298C136.587 7.47 136.833 6.756 137.325 6.156C137.829 5.544 138.537 5.076 139.449 4.752C140.361 4.416 141.429 4.248 142.653 4.248C143.865 4.248 144.939 4.428 145.875 4.788C146.811 5.148 147.555 5.652 148.107 6.3C148.671 6.936 148.977 7.686 149.025 8.55H146.613C146.553 8.07 146.349 7.656 146.001 7.308C145.665 6.96 145.209 6.69 144.633 6.498C144.057 6.294 143.379 6.192 142.599 6.192C141.495 6.192 140.613 6.372 139.953 6.732C139.293 7.092 138.963 7.584 138.963 8.208C138.963 8.688 139.155 9.06 139.539 9.324C139.935 9.576 140.619 9.768 141.591 9.9L144.543 10.314C145.755 10.482 146.709 10.71 147.405 10.998C148.113 11.274 148.617 11.652 148.917 12.132C149.217 12.6 149.367 13.206 149.367 13.95C149.367 14.814 149.103 15.57 148.575 16.218C148.047 16.866 147.303 17.37 146.343 17.73C145.395 18.078 144.285 18.252 143.013 18.252C141.717 18.252 140.571 18.06 139.575 17.676C138.591 17.28 137.811 16.734 137.235 16.038C136.659 15.342 136.347 14.532 136.299 13.608Z" fill="white"/>
</svg>
