<svg width="100%" viewBox="0 0 375 812" fill="none" xmlns="http://www.w3.org/2000/svg">
<path d="M27.296 581.48C24.5013 581.48 22.048 580.957 19.936 579.912C17.8453 578.867 16.2133 577.416 15.04 575.56C13.8667 573.683 13.28 571.496 13.28 569C13.28 566.504 13.8667 564.328 15.04 562.472C16.2133 560.595 17.8453 559.133 19.936 558.088C22.048 557.043 24.5013 556.52 27.296 556.52C30.0907 556.52 32.5333 557.043 34.624 558.088C36.736 559.133 38.3787 560.595 39.552 562.472C40.7253 564.328 41.312 566.504 41.312 569C41.312 571.496 40.7253 573.683 39.552 575.56C38.3787 577.416 36.736 578.867 34.624 579.912C32.5333 580.957 30.0907 581.48 27.296 581.48ZM27.296 576.648C29.0453 576.648 30.5493 576.339 31.808 575.72C33.088 575.101 34.0693 574.216 34.752 573.064C35.456 571.912 35.808 570.557 35.808 569C35.808 567.443 35.456 566.088 34.752 564.936C34.0693 563.784 33.088 562.899 31.808 562.28C30.5493 561.661 29.0453 561.352 27.296 561.352C25.568 561.352 24.064 561.661 22.784 562.28C21.504 562.899 20.512 563.784 19.808 564.936C19.1253 566.088 18.784 567.443 18.784 569C18.784 570.557 19.1253 571.912 19.808 573.064C20.512 574.216 21.504 575.101 22.784 575.72C24.064 576.339 25.568 576.648 27.296 576.648ZM50.1778 570.472C50.1778 571.752 50.4231 572.851 50.9138 573.768C51.4044 574.685 52.1191 575.4 53.0578 575.912C54.0178 576.403 55.1698 576.648 56.5138 576.648C57.8791 576.648 59.0311 576.403 59.9698 575.912C60.9084 575.4 61.6231 574.685 62.1138 573.768C62.6044 572.851 62.8498 571.752 62.8498 570.472V557H68.2898V570.728C68.2898 572.883 67.7991 574.771 66.8178 576.392C65.8364 577.992 64.4604 579.24 62.6898 580.136C60.9191 581.032 58.8604 581.48 56.5138 581.48C54.1671 581.48 52.1084 581.032 50.3378 580.136C48.5884 579.24 47.2124 577.992 46.2098 576.392C45.2284 574.771 44.7378 572.883 44.7378 570.728V557H50.1778V570.472ZM76.6775 567.656H85.9255C87.1415 567.656 88.1015 567.379 88.8055 566.824C89.5308 566.248 89.8935 565.459 89.8935 564.456C89.8935 563.453 89.5308 562.675 88.8055 562.12C88.1015 561.565 87.1415 561.288 85.9255 561.288H75.8775L78.3415 558.504V581H72.9015V557H86.5655C88.3148 557 89.8508 557.32 91.1735 557.96C92.4962 558.579 93.5308 559.443 94.2775 560.552C95.0242 561.661 95.3975 562.963 95.3975 564.456C95.3975 565.928 95.0242 567.219 94.2775 568.328C93.5308 569.437 92.4962 570.312 91.1735 570.952C89.8508 571.571 88.3148 571.88 86.5655 571.88H76.6775V567.656ZM80.8375 569.768H87.0455L96.1015 581H89.7335L80.8375 569.768ZM14.464 597H19.904V621H14.464V597ZM47.0478 617.416L45.1598 617.704V597H50.4398V621H43.5598L28.1998 600.296L30.0558 600.008V621H24.8078V597H31.8478L47.0478 617.416ZM77.579 617.416L75.691 617.704V597H80.971V621H74.091L58.731 600.296L60.587 600.008V621H55.339V597H62.379L77.579 617.416ZM98.7023 621.48C95.9076 621.48 93.4543 620.957 91.3423 619.912C89.2516 618.867 87.6196 617.416 86.4463 615.56C85.2729 613.683 84.6863 611.496 84.6863 609C84.6863 606.504 85.2729 604.328 86.4463 602.472C87.6196 600.595 89.2516 599.133 91.3423 598.088C93.4543 597.043 95.9076 596.52 98.7023 596.52C101.497 596.52 103.94 597.043 106.03 598.088C108.142 599.133 109.785 600.595 110.958 602.472C112.132 604.328 112.718 606.504 112.718 609C112.718 611.496 112.132 613.683 110.958 615.56C109.785 617.416 108.142 618.867 106.03 619.912C103.94 620.957 101.497 621.48 98.7023 621.48ZM98.7023 616.648C100.452 616.648 101.956 616.339 103.214 615.72C104.494 615.101 105.476 614.216 106.158 613.064C106.862 611.912 107.214 610.557 107.214 609C107.214 607.443 106.862 606.088 106.158 604.936C105.476 603.784 104.494 602.899 103.214 602.28C101.956 601.661 100.452 601.352 98.7023 601.352C96.9743 601.352 95.4703 601.661 94.1903 602.28C92.9103 602.899 91.9183 603.784 91.2143 604.936C90.5316 606.088 90.1903 607.443 90.1903 609C90.1903 610.557 90.5316 611.912 91.2143 613.064C91.9183 614.216 92.9103 615.101 94.1903 615.72C95.4703 616.339 96.9743 616.648 98.7023 616.648ZM128.465 618.6H126.065L135.857 597H141.617L130.225 621H124.113L112.753 597H118.577L128.465 618.6ZM144.15 615.944V611.528H160.79V615.944H144.15ZM156.086 597L167.318 621H161.526L151.702 599.208H153.494L143.67 621H137.878L149.11 597H156.086ZM173.518 599.432H178.926V621H173.518V599.432ZM163.95 597H188.462V601.8H163.95V597ZM191.495 597H196.935V621H191.495V597ZM214.671 621.48C211.876 621.48 209.423 620.957 207.311 619.912C205.22 618.867 203.588 617.416 202.415 615.56C201.242 613.683 200.655 611.496 200.655 609C200.655 606.504 201.242 604.328 202.415 602.472C203.588 600.595 205.22 599.133 207.311 598.088C209.423 597.043 211.876 596.52 214.671 596.52C217.466 596.52 219.908 597.043 221.999 598.088C224.111 599.133 225.754 600.595 226.927 602.472C228.1 604.328 228.687 606.504 228.687 609C228.687 611.496 228.1 613.683 226.927 615.56C225.754 617.416 224.111 618.867 221.999 619.912C219.908 620.957 217.466 621.48 214.671 621.48ZM214.671 616.648C216.42 616.648 217.924 616.339 219.183 615.72C220.463 615.101 221.444 614.216 222.127 613.064C222.831 611.912 223.183 610.557 223.183 609C223.183 607.443 222.831 606.088 222.127 604.936C221.444 603.784 220.463 602.899 219.183 602.28C217.924 601.661 216.42 601.352 214.671 601.352C212.943 601.352 211.439 601.661 210.159 602.28C208.879 602.899 207.887 603.784 207.183 604.936C206.5 606.088 206.159 607.443 206.159 609C206.159 610.557 206.5 611.912 207.183 613.064C207.887 614.216 208.879 615.101 210.159 615.72C211.439 616.339 212.943 616.648 214.671 616.648ZM254.673 617.416L252.785 617.704V597H258.065V621H251.185L235.825 600.296L237.681 600.008V621H232.433V597H239.473L254.673 617.416Z" fill="#24CBFF"/>
</svg>
