<svg width="100%" viewBox="0 0 1920 1051" fill="none" xmlns="http://www.w3.org/2000/svg">
<path d="M333.944 744.72C329.752 744.72 326.072 743.936 322.904 742.368C319.768 740.8 317.32 738.624 315.56 735.84C313.8 733.024 312.92 729.744 312.92 726C312.92 722.256 313.8 718.992 315.56 716.208C317.32 713.392 319.768 711.2 322.904 709.632C326.072 708.064 329.752 707.28 333.944 707.28C338.136 707.28 341.8 708.064 344.936 709.632C348.104 711.2 350.568 713.392 352.328 716.208C354.088 718.992 354.968 722.256 354.968 726C354.968 729.744 354.088 733.024 352.328 735.84C350.568 738.624 348.104 740.8 344.936 742.368C341.8 743.936 338.136 744.72 333.944 744.72ZM333.944 737.472C336.568 737.472 338.824 737.008 340.712 736.08C342.632 735.152 344.104 733.824 345.128 732.096C346.184 730.368 346.712 728.336 346.712 726C346.712 723.664 346.184 721.632 345.128 719.904C344.104 718.176 342.632 716.848 340.712 715.92C338.824 714.992 336.568 714.528 333.944 714.528C331.352 714.528 329.096 714.992 327.176 715.92C325.256 716.848 323.768 718.176 322.712 719.904C321.688 721.632 321.176 723.664 321.176 726C321.176 728.336 321.688 730.368 322.712 732.096C323.768 733.824 325.256 735.152 327.176 736.08C329.096 737.008 331.352 737.472 333.944 737.472ZM368.267 728.208C368.267 730.128 368.635 731.776 369.371 733.152C370.107 734.528 371.179 735.6 372.587 736.368C374.027 737.104 375.755 737.472 377.771 737.472C379.819 737.472 381.547 737.104 382.955 736.368C384.363 735.6 385.435 734.528 386.171 733.152C386.907 731.776 387.275 730.128 387.275 728.208V708H395.435V728.592C395.435 731.824 394.699 734.656 393.227 737.088C391.755 739.488 389.691 741.36 387.035 742.704C384.379 744.048 381.291 744.72 377.771 744.72C374.251 744.72 371.163 744.048 368.507 742.704C365.883 741.36 363.819 739.488 362.315 737.088C360.843 734.656 360.107 731.824 360.107 728.592V708H368.267V728.208ZM408.016 723.984H421.888C423.712 723.984 425.152 723.568 426.208 722.736C427.296 721.872 427.84 720.688 427.84 719.184C427.84 717.68 427.296 716.512 426.208 715.68C425.152 714.848 423.712 714.432 421.888 714.432H406.816L410.512 710.256V744H402.352V708H422.848C425.472 708 427.776 708.48 429.76 709.44C431.744 710.368 433.296 711.664 434.416 713.328C435.536 714.992 436.096 716.944 436.096 719.184C436.096 721.392 435.536 723.328 434.416 724.992C433.296 726.656 431.744 727.968 429.76 728.928C427.776 729.856 425.472 730.32 422.848 730.32H408.016V723.984ZM414.256 727.152H423.568L437.152 744H427.6L414.256 727.152ZM314.696 772H322.856V808H314.696V772ZM363.572 802.624L360.74 803.056V772H368.66V808H358.34L335.3 776.944L338.084 776.512V808H330.212V772H340.772L363.572 802.624ZM409.369 802.624L406.537 803.056V772H414.457V808H404.137L381.097 776.944L383.881 776.512V808H376.009V772H386.569L409.369 802.624ZM441.053 808.72C436.861 808.72 433.181 807.936 430.013 806.368C426.877 804.8 424.429 802.624 422.669 799.84C420.909 797.024 420.029 793.744 420.029 790C420.029 786.256 420.909 782.992 422.669 780.208C424.429 777.392 426.877 775.2 430.013 773.632C433.181 772.064 436.861 771.28 441.053 771.28C445.245 771.28 448.909 772.064 452.045 773.632C455.213 775.2 457.677 777.392 459.437 780.208C461.197 782.992 462.077 786.256 462.077 790C462.077 793.744 461.197 797.024 459.437 799.84C457.677 802.624 455.213 804.8 452.045 806.368C448.909 807.936 445.245 808.72 441.053 808.72ZM441.053 801.472C443.677 801.472 445.933 801.008 447.821 800.08C449.741 799.152 451.213 797.824 452.237 796.096C453.293 794.368 453.821 792.336 453.821 790C453.821 787.664 453.293 785.632 452.237 783.904C451.213 782.176 449.741 780.848 447.821 779.92C445.933 778.992 443.677 778.528 441.053 778.528C438.461 778.528 436.205 778.992 434.285 779.92C432.365 780.848 430.877 782.176 429.821 783.904C428.797 785.632 428.285 787.664 428.285 790C428.285 792.336 428.797 794.368 429.821 796.096C430.877 797.824 432.365 799.152 434.285 800.08C436.205 801.008 438.461 801.472 441.053 801.472ZM485.698 804.4H482.098L496.786 772H505.426L488.338 808H479.17L462.13 772H470.866L485.698 804.4ZM509.225 800.416V793.792H534.185V800.416H509.225ZM527.129 772L543.977 808H535.289L520.553 775.312H523.241L508.505 808H499.817L516.665 772H527.129ZM553.277 775.648H561.389V808H553.277V775.648ZM538.925 772H575.693V779.2H538.925V772ZM580.243 772H588.403V808H580.243V772ZM615.007 808.72C610.815 808.72 607.135 807.936 603.967 806.368C600.831 804.8 598.383 802.624 596.623 799.84C594.863 797.024 593.983 793.744 593.983 790C593.983 786.256 594.863 782.992 596.623 780.208C598.383 777.392 600.831 775.2 603.967 773.632C607.135 772.064 610.815 771.28 615.007 771.28C619.199 771.28 622.863 772.064 625.999 773.632C629.167 775.2 631.631 777.392 633.391 780.208C635.151 782.992 636.031 786.256 636.031 790C636.031 793.744 635.151 797.024 633.391 799.84C631.631 802.624 629.167 804.8 625.999 806.368C622.863 807.936 619.199 808.72 615.007 808.72ZM615.007 801.472C617.631 801.472 619.887 801.008 621.775 800.08C623.695 799.152 625.167 797.824 626.191 796.096C627.247 794.368 627.775 792.336 627.775 790C627.775 787.664 627.247 785.632 626.191 783.904C625.167 782.176 623.695 780.848 621.775 779.92C619.887 778.992 617.631 778.528 615.007 778.528C612.415 778.528 610.159 778.992 608.239 779.92C606.319 780.848 604.831 782.176 603.775 783.904C602.751 785.632 602.239 787.664 602.239 790C602.239 792.336 602.751 794.368 603.775 796.096C604.831 797.824 606.319 799.152 608.239 800.08C610.159 801.008 612.415 801.472 615.007 801.472ZM675.009 802.624L672.177 803.056V772H680.097V808H669.777L646.737 776.944L649.521 776.512V808H641.649V772H652.209L675.009 802.624Z" fill="#24CBFF"/>
</svg>
