<svg width="100%" viewBox="0 0 189 41" fill="none" xmlns="http://www.w3.org/2000/svg">
<path d="M0 8.5C0 4.08172 3.58172 0.5 8 0.5H181C185.418 0.5 189 4.08172 189 8.5V32.5C189 36.9183 185.418 40.5 181 40.5H8C3.58173 40.5 0 36.9183 0 32.5V8.5Z" fill="#24408E"/>
<path d="M24.0003 22.5001V24.5001H16.0003V22.5001H14.667V24.5001C14.667 25.2334 15.267 25.8334 16.0003 25.8334H24.0003C24.7337 25.8334 25.3337 25.2334 25.3337 24.5001V22.5001H24.0003ZM23.3337 19.8334L22.3937 18.8934L20.667 20.6134V15.1667H19.3337V20.6134L17.607 18.8934L16.667 19.8334L20.0003 23.1667L23.3337 19.8334Z" fill="white"/>
<path d="M41.922 15C43.1167 15 44.162 15.2193 45.058 15.658C45.9633 16.0967 46.668 16.7127 47.172 17.506C47.676 18.29 47.928 19.2047 47.928 20.25C47.928 21.2953 47.676 22.2147 47.172 23.008C46.668 23.792 45.9633 24.4033 45.058 24.842C44.162 25.2807 43.1167 25.5 41.922 25.5H37.176V15H41.922ZM39.024 24.856L38.002 23.876H42.048C42.8507 23.876 43.5507 23.7267 44.148 23.428C44.7547 23.12 45.2213 22.6953 45.548 22.154C45.884 21.6033 46.052 20.9687 46.052 20.25C46.052 19.522 45.884 18.8873 45.548 18.346C45.2213 17.8047 44.7547 17.3847 44.148 17.086C43.5507 16.778 42.8507 16.624 42.048 16.624H38.002L39.024 15.644V24.856ZM53.4788 25.696C52.5174 25.696 51.6728 25.5233 50.9448 25.178C50.2261 24.8233 49.6614 24.3333 49.2508 23.708C48.8494 23.0827 48.6488 22.3593 48.6488 21.538C48.6488 20.7073 48.8494 19.984 49.2508 19.368C49.6614 18.7427 50.2261 18.2573 50.9448 17.912C51.6728 17.5573 52.5174 17.38 53.4788 17.38C54.4401 17.38 55.2801 17.5573 55.9988 17.912C56.7268 18.2573 57.2914 18.7427 57.6928 19.368C58.1034 19.984 58.3088 20.7073 58.3088 21.538C58.3088 22.3593 58.1034 23.0827 57.6928 23.708C57.2914 24.3333 56.7268 24.8233 55.9988 25.178C55.2801 25.5233 54.4401 25.696 53.4788 25.696ZM53.4788 24.268C54.0948 24.268 54.6221 24.156 55.0608 23.932C55.5088 23.708 55.8541 23.3953 56.0968 22.994C56.3394 22.5833 56.4608 22.098 56.4608 21.538C56.4608 20.978 56.3394 20.4973 56.0968 20.096C55.8541 19.6853 55.5088 19.368 55.0608 19.144C54.6221 18.92 54.0948 18.808 53.4788 18.808C52.8721 18.808 52.3448 18.92 51.8968 19.144C51.4488 19.368 51.1034 19.6853 50.8608 20.096C50.6181 20.4973 50.4968 20.978 50.4968 21.538C50.4968 22.098 50.6181 22.5833 50.8608 22.994C51.1034 23.3953 51.4488 23.708 51.8968 23.932C52.3448 24.156 52.8721 24.268 53.4788 24.268ZM69.3861 24.562H68.7421L71.4721 17.576H73.2921L70.1001 25.5H68.2381L65.4381 18.402H66.1521L63.2821 25.5H61.4201L58.2421 17.576H60.0901L62.8341 24.562H62.1481L64.8921 17.576H66.7121L69.3861 24.562ZM73.6229 17.576H75.4429L75.9189 20.432V25.5H74.0989V20.166L73.6229 17.576ZM79.0689 17.38C79.8156 17.38 80.4503 17.5293 80.9729 17.828C81.4956 18.1267 81.8923 18.556 82.1629 19.116C82.4429 19.6667 82.5829 20.334 82.5829 21.118V25.5H80.7629V21.412C80.7629 20.5813 80.5669 19.956 80.1749 19.536C79.7923 19.1067 79.2276 18.892 78.4809 18.892C77.9676 18.892 77.5149 19.0087 77.1229 19.242C76.7403 19.466 76.4416 19.7833 76.2269 20.194C76.0216 20.6047 75.9189 21.0853 75.9189 21.636L75.2749 21.286C75.3589 20.4647 75.5736 19.7647 75.9189 19.186C76.2643 18.6073 76.7076 18.164 77.2489 17.856C77.7903 17.5387 78.3969 17.38 79.0689 17.38ZM83.9852 14.72H85.8052V25.5H83.9852V14.72ZM91.6933 25.696C90.732 25.696 89.8873 25.5233 89.1593 25.178C88.4406 24.8233 87.876 24.3333 87.4653 23.708C87.064 23.0827 86.8633 22.3593 86.8633 21.538C86.8633 20.7073 87.064 19.984 87.4653 19.368C87.876 18.7427 88.4406 18.2573 89.1593 17.912C89.8873 17.5573 90.732 17.38 91.6933 17.38C92.6546 17.38 93.4946 17.5573 94.2133 17.912C94.9413 18.2573 95.506 18.7427 95.9073 19.368C96.318 19.984 96.5233 20.7073 96.5233 21.538C96.5233 22.3593 96.318 23.0827 95.9073 23.708C95.506 24.3333 94.9413 24.8233 94.2133 25.178C93.4946 25.5233 92.6546 25.696 91.6933 25.696ZM91.6933 24.268C92.3093 24.268 92.8366 24.156 93.2753 23.932C93.7233 23.708 94.0686 23.3953 94.3113 22.994C94.554 22.5833 94.6753 22.098 94.6753 21.538C94.6753 20.978 94.554 20.4973 94.3113 20.096C94.0686 19.6853 93.7233 19.368 93.2753 19.144C92.8366 18.92 92.3093 18.808 91.6933 18.808C91.0866 18.808 90.5593 18.92 90.1113 19.144C89.6633 19.368 89.318 19.6853 89.0753 20.096C88.8326 20.4973 88.7113 20.978 88.7113 21.538C88.7113 22.098 88.8326 22.5833 89.0753 22.994C89.318 23.3953 89.6633 23.708 90.1113 23.932C90.5593 24.156 91.0866 24.268 91.6933 24.268ZM104.975 25.5L104.667 22.56L105.031 21.538L104.667 20.53L104.975 17.576H106.851L106.431 21.538L106.851 25.5H104.975ZM105.535 21.538C105.357 22.3687 105.063 23.0967 104.653 23.722C104.242 24.3473 103.733 24.8327 103.127 25.178C102.529 25.5233 101.862 25.696 101.125 25.696C100.35 25.696 99.6641 25.5233 99.0667 25.178C98.4694 24.8233 98.0027 24.3333 97.6667 23.708C97.3307 23.0827 97.1627 22.3593 97.1627 21.538C97.1627 20.7073 97.3307 19.984 97.6667 19.368C98.0027 18.7427 98.4694 18.2573 99.0667 17.912C99.6641 17.5573 100.35 17.38 101.125 17.38C101.862 17.38 102.529 17.5527 103.127 17.898C103.733 18.2433 104.242 18.7287 104.653 19.354C105.073 19.97 105.367 20.698 105.535 21.538ZM99.0107 21.538C99.0107 22.07 99.1181 22.5413 99.3327 22.952C99.5567 23.3533 99.8601 23.6707 100.243 23.904C100.625 24.128 101.064 24.24 101.559 24.24C102.063 24.24 102.529 24.128 102.959 23.904C103.388 23.6707 103.766 23.3533 104.093 22.952C104.429 22.5413 104.695 22.07 104.891 21.538C104.695 21.006 104.429 20.5393 104.093 20.138C103.766 19.7273 103.388 19.41 102.959 19.186C102.529 18.9527 102.063 18.836 101.559 18.836C101.064 18.836 100.625 18.9527 100.243 19.186C99.8601 19.41 99.5567 19.7273 99.3327 20.138C99.1181 20.5393 99.0107 21.006 99.0107 21.538ZM115.602 25.5L115.294 22.49L115.7 21.552L115.308 20.474L115.896 14.72H117.772L117.058 21.426L117.464 25.5H115.602ZM116.134 21.538C115.957 22.3687 115.663 23.0967 115.252 23.722C114.842 24.3473 114.333 24.8327 113.726 25.178C113.129 25.5233 112.462 25.696 111.724 25.696C110.95 25.696 110.264 25.5233 109.666 25.178C109.069 24.8233 108.602 24.3333 108.266 23.708C107.93 23.0827 107.762 22.3593 107.762 21.538C107.762 20.7073 107.93 19.984 108.266 19.368C108.602 18.7427 109.069 18.2573 109.666 17.912C110.264 17.5573 110.95 17.38 111.724 17.38C112.462 17.38 113.129 17.5527 113.726 17.898C114.333 18.2433 114.842 18.7287 115.252 19.354C115.672 19.97 115.966 20.698 116.134 21.538ZM109.61 21.538C109.61 22.07 109.718 22.5413 109.932 22.952C110.156 23.3533 110.46 23.6707 110.842 23.904C111.225 24.128 111.664 24.24 112.158 24.24C112.662 24.24 113.129 24.128 113.558 23.904C113.988 23.6707 114.366 23.3533 114.692 22.952C115.028 22.5413 115.294 22.07 115.49 21.538C115.294 21.006 115.028 20.5393 114.692 20.138C114.366 19.7273 113.988 19.41 113.558 19.186C113.129 18.9527 112.662 18.836 112.158 18.836C111.664 18.836 111.225 18.9527 110.842 19.186C110.46 19.41 110.156 19.7273 109.932 20.138C109.718 20.5393 109.61 21.006 109.61 21.538ZM123.579 19.732H127.849C128.465 19.732 128.95 19.592 129.305 19.312C129.669 19.032 129.851 18.6493 129.851 18.164C129.851 17.6693 129.669 17.2867 129.305 17.016C128.95 16.736 128.465 16.596 127.849 16.596H123.313L124.139 15.56V25.5H122.291V15H128.017C128.754 15 129.398 15.1353 129.949 15.406C130.509 15.6673 130.943 16.036 131.251 16.512C131.568 16.9787 131.727 17.5293 131.727 18.164C131.727 18.78 131.568 19.326 131.251 19.802C130.943 20.2687 130.509 20.6373 129.949 20.908C129.398 21.1693 128.754 21.3 128.017 21.3H123.579V19.732ZM125.651 20.586H127.821L131.993 25.5H129.781L125.651 20.586ZM136.979 25.696C136.055 25.696 135.233 25.5233 134.515 25.178C133.796 24.8233 133.231 24.3333 132.821 23.708C132.41 23.0827 132.205 22.3547 132.205 21.524C132.205 20.7027 132.396 19.984 132.779 19.368C133.171 18.7427 133.707 18.2573 134.389 17.912C135.079 17.5573 135.868 17.38 136.755 17.38C137.641 17.38 138.407 17.5807 139.051 17.982C139.704 18.374 140.208 18.9293 140.563 19.648C140.917 20.3667 141.095 21.2113 141.095 22.182H133.633V20.796H140.185L139.275 21.314C139.247 20.7913 139.121 20.3433 138.897 19.97C138.682 19.5967 138.388 19.312 138.015 19.116C137.651 18.9107 137.217 18.808 136.713 18.808C136.181 18.808 135.714 18.9153 135.313 19.13C134.921 19.3447 134.613 19.648 134.389 20.04C134.165 20.4227 134.053 20.88 134.053 21.412C134.053 22 134.183 22.5087 134.445 22.938C134.715 23.3673 135.093 23.6987 135.579 23.932C136.073 24.156 136.657 24.268 137.329 24.268C137.935 24.268 138.556 24.1747 139.191 23.988C139.825 23.792 140.385 23.5213 140.871 23.176V24.492C140.385 24.8653 139.793 25.1593 139.093 25.374C138.402 25.5887 137.697 25.696 136.979 25.696ZM142.172 17.576H143.992V20.334L143.908 20.614V22.21L143.992 22.7V27.81H142.172V17.576ZM143.292 21.538C143.47 20.698 143.764 19.97 144.174 19.354C144.585 18.7287 145.089 18.2433 145.686 17.898C146.293 17.5527 146.965 17.38 147.702 17.38C148.477 17.38 149.163 17.5573 149.76 17.912C150.358 18.2573 150.824 18.7427 151.16 19.368C151.496 19.984 151.664 20.7073 151.664 21.538C151.664 22.3593 151.496 23.0827 151.16 23.708C150.824 24.3333 150.358 24.8233 149.76 25.178C149.163 25.5233 148.477 25.696 147.702 25.696C146.965 25.696 146.298 25.5233 145.7 25.178C145.103 24.8327 144.594 24.3473 144.174 23.722C143.764 23.0967 143.47 22.3687 143.292 21.538ZM149.816 21.538C149.816 21.006 149.704 20.5393 149.48 20.138C149.266 19.7273 148.967 19.41 148.584 19.186C148.202 18.9527 147.763 18.836 147.268 18.836C146.774 18.836 146.307 18.9527 145.868 19.186C145.439 19.41 145.061 19.7273 144.734 20.138C144.408 20.5393 144.142 21.006 143.936 21.538C144.142 22.07 144.408 22.5413 144.734 22.952C145.061 23.3533 145.439 23.6707 145.868 23.904C146.307 24.128 146.774 24.24 147.268 24.24C147.763 24.24 148.202 24.128 148.584 23.904C148.967 23.6707 149.266 23.3533 149.48 22.952C149.704 22.5413 149.816 22.07 149.816 21.538ZM157.14 25.696C156.179 25.696 155.334 25.5233 154.606 25.178C153.887 24.8233 153.323 24.3333 152.912 23.708C152.511 23.0827 152.31 22.3593 152.31 21.538C152.31 20.7073 152.511 19.984 152.912 19.368C153.323 18.7427 153.887 18.2573 154.606 17.912C155.334 17.5573 156.179 17.38 157.14 17.38C158.101 17.38 158.941 17.5573 159.66 17.912C160.388 18.2573 160.953 18.7427 161.354 19.368C161.765 19.984 161.97 20.7073 161.97 21.538C161.97 22.3593 161.765 23.0827 161.354 23.708C160.953 24.3333 160.388 24.8233 159.66 25.178C158.941 25.5233 158.101 25.696 157.14 25.696ZM157.14 24.268C157.756 24.268 158.283 24.156 158.722 23.932C159.17 23.708 159.515 23.3953 159.758 22.994C160.001 22.5833 160.122 22.098 160.122 21.538C160.122 20.978 160.001 20.4973 159.758 20.096C159.515 19.6853 159.17 19.368 158.722 19.144C158.283 18.92 157.756 18.808 157.14 18.808C156.533 18.808 156.006 18.92 155.558 19.144C155.11 19.368 154.765 19.6853 154.522 20.096C154.279 20.4973 154.158 20.978 154.158 21.538C154.158 22.098 154.279 22.5833 154.522 22.994C154.765 23.3953 155.11 23.708 155.558 23.932C156.006 24.156 156.533 24.268 157.14 24.268ZM162.651 17.576H164.471L164.947 20.46V25.5H163.127V20.11L162.651 17.576ZM168.965 17.52V19.116C168.76 19.06 168.536 19.018 168.293 18.99C168.051 18.962 167.822 18.948 167.607 18.948C167.094 18.948 166.637 19.06 166.235 19.284C165.834 19.508 165.517 19.844 165.283 20.292C165.059 20.7307 164.947 21.272 164.947 21.916L164.527 21.398C164.565 20.838 164.658 20.3153 164.807 19.83C164.966 19.3353 165.181 18.906 165.451 18.542C165.731 18.178 166.072 17.8933 166.473 17.688C166.875 17.4827 167.341 17.38 167.873 17.38C168.06 17.38 168.251 17.394 168.447 17.422C168.643 17.4407 168.816 17.4733 168.965 17.52ZM168.877 18.976V18.15L170.571 17.716L171.327 15.504H172.391V17.576H176.073V18.976H172.391V22.406C172.391 23.0687 172.531 23.5353 172.811 23.806C173.101 24.0673 173.567 24.198 174.211 24.198C174.622 24.198 174.986 24.156 175.303 24.072C175.621 23.9787 175.924 23.848 176.213 23.68V25.178C175.971 25.2993 175.625 25.416 175.177 25.528C174.739 25.64 174.286 25.696 173.819 25.696C173.045 25.696 172.419 25.57 171.943 25.318C171.467 25.0567 171.117 24.702 170.893 24.254C170.679 23.7967 170.571 23.274 170.571 22.686V18.976H168.877Z" fill="white"/>
</svg>
