<svg height="100%" viewBox="0 0 123 40" fill="none" xmlns="http://www.w3.org/2000/svg">
<path d="M0 8C0 3.58172 3.58172 0 8 0H115C119.418 0 123 3.58172 123 8V32C123 36.4183 119.418 40 115 40H8C3.58172 40 0 36.4183 0 32V8Z" fill="#24408E"/>
<path d="M20.0001 22.0001V24.0001H12.0001V22.0001H10.6667V24.0001C10.6667 24.7334 11.2667 25.3334 12.0001 25.3334H20.0001C20.7334 25.3334 21.3334 24.7334 21.3334 24.0001V22.0001H20.0001ZM19.3334 19.3334L18.3934 18.3934L16.6667 20.1134V14.6667H15.3334V20.1134L13.6067 18.3934L12.6667 19.3334L16.0001 22.6667L19.3334 19.3334Z" fill="white"/>
<path d="M37.922 14.5C39.1167 14.5 40.162 14.7193 41.058 15.158C41.9633 15.5967 42.668 16.2127 43.172 17.006C43.676 17.79 43.928 18.7047 43.928 19.75C43.928 20.7953 43.676 21.7147 43.172 22.508C42.668 23.292 41.9633 23.9033 41.058 24.342C40.162 24.7807 39.1167 25 37.922 25H33.176V14.5H37.922ZM35.024 24.356L34.002 23.376H38.048C38.8507 23.376 39.5507 23.2267 40.148 22.928C40.7547 22.62 41.2213 22.1953 41.548 21.654C41.884 21.1033 42.052 20.4687 42.052 19.75C42.052 19.022 41.884 18.3873 41.548 17.846C41.2213 17.3047 40.7547 16.8847 40.148 16.586C39.5507 16.278 38.8507 16.124 38.048 16.124H34.002L35.024 15.144V24.356ZM49.4788 25.196C48.5174 25.196 47.6728 25.0233 46.9448 24.678C46.2261 24.3233 45.6614 23.8333 45.2508 23.208C44.8494 22.5827 44.6488 21.8593 44.6488 21.038C44.6488 20.2073 44.8494 19.484 45.2508 18.868C45.6614 18.2427 46.2261 17.7573 46.9448 17.412C47.6728 17.0573 48.5174 16.88 49.4788 16.88C50.4401 16.88 51.2801 17.0573 51.9988 17.412C52.7268 17.7573 53.2914 18.2427 53.6928 18.868C54.1034 19.484 54.3088 20.2073 54.3088 21.038C54.3088 21.8593 54.1034 22.5827 53.6928 23.208C53.2914 23.8333 52.7268 24.3233 51.9988 24.678C51.2801 25.0233 50.4401 25.196 49.4788 25.196ZM49.4788 23.768C50.0948 23.768 50.6221 23.656 51.0608 23.432C51.5088 23.208 51.8541 22.8953 52.0968 22.494C52.3394 22.0833 52.4608 21.598 52.4608 21.038C52.4608 20.478 52.3394 19.9973 52.0968 19.596C51.8541 19.1853 51.5088 18.868 51.0608 18.644C50.6221 18.42 50.0948 18.308 49.4788 18.308C48.8721 18.308 48.3448 18.42 47.8968 18.644C47.4488 18.868 47.1034 19.1853 46.8608 19.596C46.6181 19.9973 46.4968 20.478 46.4968 21.038C46.4968 21.598 46.6181 22.0833 46.8608 22.494C47.1034 22.8953 47.4488 23.208 47.8968 23.432C48.3448 23.656 48.8721 23.768 49.4788 23.768ZM65.3861 24.062H64.7421L67.4721 17.076H69.2921L66.1001 25H64.2381L61.4381 17.902H62.1521L59.2821 25H57.4201L54.2421 17.076H56.0901L58.8341 24.062H58.1481L60.8921 17.076H62.7121L65.3861 24.062ZM69.6229 17.076H71.4429L71.9189 19.932V25H70.0989V19.666L69.6229 17.076ZM75.0689 16.88C75.8156 16.88 76.4503 17.0293 76.9729 17.328C77.4956 17.6267 77.8923 18.056 78.1629 18.616C78.4429 19.1667 78.5829 19.834 78.5829 20.618V25H76.7629V20.912C76.7629 20.0813 76.5669 19.456 76.1749 19.036C75.7923 18.6067 75.2276 18.392 74.4809 18.392C73.9676 18.392 73.5149 18.5087 73.1229 18.742C72.7403 18.966 72.4416 19.2833 72.2269 19.694C72.0216 20.1047 71.9189 20.5853 71.9189 21.136L71.2749 20.786C71.3589 19.9647 71.5736 19.2647 71.9189 18.686C72.2643 18.1073 72.7076 17.664 73.2489 17.356C73.7903 17.0387 74.3969 16.88 75.0689 16.88ZM79.9852 14.22H81.8052V25H79.9852V14.22ZM87.6933 25.196C86.732 25.196 85.8873 25.0233 85.1593 24.678C84.4406 24.3233 83.876 23.8333 83.4653 23.208C83.064 22.5827 82.8633 21.8593 82.8633 21.038C82.8633 20.2073 83.064 19.484 83.4653 18.868C83.876 18.2427 84.4406 17.7573 85.1593 17.412C85.8873 17.0573 86.732 16.88 87.6933 16.88C88.6546 16.88 89.4946 17.0573 90.2133 17.412C90.9413 17.7573 91.506 18.2427 91.9073 18.868C92.318 19.484 92.5233 20.2073 92.5233 21.038C92.5233 21.8593 92.318 22.5827 91.9073 23.208C91.506 23.8333 90.9413 24.3233 90.2133 24.678C89.4946 25.0233 88.6546 25.196 87.6933 25.196ZM87.6933 23.768C88.3093 23.768 88.8366 23.656 89.2753 23.432C89.7233 23.208 90.0686 22.8953 90.3113 22.494C90.554 22.0833 90.6753 21.598 90.6753 21.038C90.6753 20.478 90.554 19.9973 90.3113 19.596C90.0686 19.1853 89.7233 18.868 89.2753 18.644C88.8366 18.42 88.3093 18.308 87.6933 18.308C87.0866 18.308 86.5593 18.42 86.1113 18.644C85.6633 18.868 85.318 19.1853 85.0753 19.596C84.8326 19.9973 84.7113 20.478 84.7113 21.038C84.7113 21.598 84.8326 22.0833 85.0753 22.494C85.318 22.8953 85.6633 23.208 86.1113 23.432C86.5593 23.656 87.0866 23.768 87.6933 23.768ZM100.975 25L100.667 22.06L101.031 21.038L100.667 20.03L100.975 17.076H102.851L102.431 21.038L102.851 25H100.975ZM101.535 21.038C101.357 21.8687 101.063 22.5967 100.653 23.222C100.242 23.8473 99.7334 24.3327 99.1267 24.678C98.5294 25.0233 97.8621 25.196 97.1247 25.196C96.3501 25.196 95.6641 25.0233 95.0667 24.678C94.4694 24.3233 94.0027 23.8333 93.6667 23.208C93.3307 22.5827 93.1627 21.8593 93.1627 21.038C93.1627 20.2073 93.3307 19.484 93.6667 18.868C94.0027 18.2427 94.4694 17.7573 95.0667 17.412C95.6641 17.0573 96.3501 16.88 97.1247 16.88C97.8621 16.88 98.5294 17.0527 99.1267 17.398C99.7334 17.7433 100.242 18.2287 100.653 18.854C101.073 19.47 101.367 20.198 101.535 21.038ZM95.0107 21.038C95.0107 21.57 95.1181 22.0413 95.3327 22.452C95.5567 22.8533 95.8601 23.1707 96.2427 23.404C96.6254 23.628 97.0641 23.74 97.5587 23.74C98.0627 23.74 98.5294 23.628 98.9587 23.404C99.3881 23.1707 99.7661 22.8533 100.093 22.452C100.429 22.0413 100.695 21.57 100.891 21.038C100.695 20.506 100.429 20.0393 100.093 19.638C99.7661 19.2273 99.3881 18.91 98.9587 18.686C98.5294 18.4527 98.0627 18.336 97.5587 18.336C97.0641 18.336 96.6254 18.4527 96.2427 18.686C95.8601 18.91 95.5567 19.2273 95.3327 19.638C95.1181 20.0393 95.0107 20.506 95.0107 21.038ZM111.602 25L111.294 21.99L111.7 21.052L111.308 19.974L111.896 14.22H113.772L113.058 20.926L113.464 25H111.602ZM112.134 21.038C111.957 21.8687 111.663 22.5967 111.252 23.222C110.842 23.8473 110.333 24.3327 109.726 24.678C109.129 25.0233 108.462 25.196 107.724 25.196C106.95 25.196 106.264 25.0233 105.666 24.678C105.069 24.3233 104.602 23.8333 104.266 23.208C103.93 22.5827 103.762 21.8593 103.762 21.038C103.762 20.2073 103.93 19.484 104.266 18.868C104.602 18.2427 105.069 17.7573 105.666 17.412C106.264 17.0573 106.95 16.88 107.724 16.88C108.462 16.88 109.129 17.0527 109.726 17.398C110.333 17.7433 110.842 18.2287 111.252 18.854C111.672 19.47 111.966 20.198 112.134 21.038ZM105.61 21.038C105.61 21.57 105.718 22.0413 105.932 22.452C106.156 22.8533 106.46 23.1707 106.842 23.404C107.225 23.628 107.664 23.74 108.158 23.74C108.662 23.74 109.129 23.628 109.558 23.404C109.988 23.1707 110.366 22.8533 110.692 22.452C111.028 22.0413 111.294 21.57 111.49 21.038C111.294 20.506 111.028 20.0393 110.692 19.638C110.366 19.2273 109.988 18.91 109.558 18.686C109.129 18.4527 108.662 18.336 108.158 18.336C107.664 18.336 107.225 18.4527 106.842 18.686C106.46 18.91 106.156 19.2273 105.932 19.638C105.718 20.0393 105.61 20.506 105.61 21.038Z" fill="white"/>
</svg>
