<svg width="100%" viewBox="0 0 20 15" fill="none" xmlns="http://www.w3.org/2000/svg">
<g clip-path="url(#clip0_2006_479)">
<rect width="20" height="15" fill="white"/>
<path fill-rule="evenodd" clip-rule="evenodd" d="M0 0H20V15H0V0Z" fill="#E31D1C"/>
<path fill-rule="evenodd" clip-rule="evenodd" d="M0 1.25V2.5H20V1.25H0ZM0 3.75V5H20V3.75H0ZM0 7.5V6.25H20V7.5H0ZM0 8.75V10H20V8.75H0ZM0 12.5V11.25H20V12.5H0ZM0 15V13.75H20V15H0Z" fill="#F7FCFF"/>
<rect width="11.25" height="8.75" fill="#2E42A5"/>
<path fill-rule="evenodd" clip-rule="evenodd" d="M1.30025 2.71718L1.96265 2.25577L2.47647 2.62569H2.18555L2.77388 3.14606L2.57517 3.87569H2.26393L1.96172 3.20557L1.70399 3.87569H0.935547L1.52388 4.39606L1.30025 5.21719L1.96265 4.75577L2.47647 5.12569H2.18555L2.77388 5.64606L2.57517 6.37569H2.26393L1.96172 5.70557L1.70399 6.37569H0.935547L1.52388 6.89606L1.30025 7.71719L1.96265 7.25577L2.60357 7.71719L2.4043 6.89606L2.91901 6.37569H2.6816L3.21265 6.00577L3.72647 6.37569H3.43555L4.02388 6.89606L3.80025 7.71719L4.46265 7.25577L5.10357 7.71719L4.9043 6.89606L5.41901 6.37569H5.1816L5.71265 6.00577L6.22647 6.37569H5.93555L6.52388 6.89606L6.30025 7.71719L6.96265 7.25577L7.60357 7.71719L7.4043 6.89606L7.91901 6.37569H7.6816L8.21265 6.00577L8.72647 6.37569H8.43555L9.02388 6.89606L8.80025 7.71719L9.46265 7.25577L10.1036 7.71719L9.9043 6.89606L10.419 6.37569H9.76393L9.46172 5.70557L9.20399 6.37569H8.83136L8.6543 5.64606L9.16901 5.12569H8.9316L9.46265 4.75577L10.1036 5.21719L9.9043 4.39606L10.419 3.87569H9.76393L9.46172 3.20557L9.20399 3.87569H8.83136L8.6543 3.14606L9.16901 2.62569H8.9316L9.46265 2.25577L10.1036 2.71718L9.9043 1.89606L10.419 1.37569H9.76393L9.46172 0.705566L9.20399 1.37569H8.43555L9.02388 1.89606L8.82517 2.62569H8.51393L8.21172 1.95557L7.95399 2.62569H7.58136L7.4043 1.89606L7.91901 1.37569H7.26393L6.96172 0.705566L6.70399 1.37569H5.93555L6.52388 1.89606L6.32517 2.62569H6.01393L5.71172 1.95557L5.45399 2.62569H5.08136L4.9043 1.89606L5.41901 1.37569H4.76393L4.46172 0.705566L4.20399 1.37569H3.43555L4.02388 1.89606L3.82517 2.62569H3.51393L3.21172 1.95557L2.95399 2.62569H2.58136L2.4043 1.89606L2.91901 1.37569H2.26393L1.96172 0.705566L1.70399 1.37569H0.935547L1.52388 1.89606L1.30025 2.71718ZM8.82517 5.12569L9.02388 4.39606L8.43555 3.87569H8.72647L8.21265 3.50577L7.6816 3.87569H7.91901L7.4043 4.39606L7.58136 5.12569H7.95399L8.21172 4.45557L8.51393 5.12569H8.82517ZM7.47647 5.12569L6.96265 4.75577L6.4316 5.12569H6.66901L6.1543 5.64606L6.33136 6.37569H6.70399L6.96172 5.70557L7.26393 6.37569H7.57517L7.77388 5.64606L7.18555 5.12569H7.47647ZM5.27388 5.64606L5.07517 6.37569H4.76393L4.46172 5.70557L4.20399 6.37569H3.83136L3.6543 5.64606L4.16901 5.12569H3.9316L4.46265 4.75577L4.97647 5.12569H4.68555L5.27388 5.64606ZM5.45399 5.12569H5.08136L4.9043 4.39606L5.41901 3.87569H5.1816L5.71265 3.50577L6.22647 3.87569H5.93555L6.52388 4.39606L6.32517 5.12569H6.01393L5.71172 4.45557L5.45399 5.12569ZM3.82517 5.12569L4.02388 4.39606L3.43555 3.87569H3.72647L3.21265 3.50577L2.6816 3.87569H2.91901L2.4043 4.39606L2.58136 5.12569H2.95399L3.21172 4.45557L3.51393 5.12569H3.82517ZM7.77388 3.14606L7.57517 3.87569H7.26393L6.96172 3.20557L6.70399 3.87569H6.33136L6.1543 3.14606L6.66901 2.62569H6.4316L6.96265 2.25577L7.47647 2.62569H7.18555L7.77388 3.14606ZM4.97647 2.62569L4.46265 2.25577L3.9316 2.62569H4.16901L3.6543 3.14606L3.83136 3.87569H4.20399L4.46172 3.20557L4.76393 3.87569H5.07517L5.27388 3.14606L4.68555 2.62569H4.97647Z" fill="#F7FCFF"/>
</g>
<defs>
<clipPath id="clip0_2006_479">
<rect width="20" height="15" fill="white"/>
</clipPath>
</defs>
</svg>
