<svg width="100%" viewBox="0 0 1920 1051" fill="none" xmlns="http://www.w3.org/2000/svg">
<path d="M333 619.872C332.84 621.344 332.32 622.648 331.44 623.784C330.576 624.904 329.44 625.776 328.032 626.4C326.624 627.024 325.016 627.336 323.208 627.336C321.192 627.336 319.424 626.944 317.904 626.16C316.384 625.376 315.2 624.288 314.352 622.896C313.504 621.488 313.08 619.856 313.08 618C313.08 616.144 313.504 614.52 314.352 613.128C315.2 611.72 316.384 610.624 317.904 609.84C319.424 609.056 321.192 608.664 323.208 608.664C325.016 608.664 326.624 608.976 328.032 609.6C329.44 610.224 330.576 611.096 331.44 612.216C332.32 613.336 332.84 614.64 333 616.128H329.808C329.632 615.168 329.248 614.344 328.656 613.656C328.08 612.968 327.328 612.44 326.4 612.072C325.472 611.688 324.4 611.496 323.184 611.496C321.776 611.496 320.552 611.76 319.512 612.288C318.488 612.816 317.696 613.568 317.136 614.544C316.576 615.52 316.296 616.672 316.296 618C316.296 619.328 316.576 620.48 317.136 621.456C317.696 622.432 318.488 623.184 319.512 623.712C320.552 624.24 321.776 624.504 323.184 624.504C324.4 624.504 325.472 624.32 326.4 623.952C327.328 623.584 328.08 623.056 328.656 622.368C329.248 621.664 329.632 620.832 329.808 619.872H333ZM335.907 609H339.075V627H335.907V609ZM350.547 609H353.715V627H350.547V609ZM337.611 616.536H352.059V619.32H337.611V616.536ZM360.15 622.872V620.256H372.726V622.872H360.15ZM368.502 609L377.142 627H373.758L365.91 610.2H367.134L359.286 627H355.902L364.542 609H368.502ZM361.35 603.84H363.846C364.038 604.4 364.35 604.84 364.782 605.16C365.23 605.464 365.806 605.616 366.51 605.616C367.214 605.616 367.79 605.464 368.238 605.16C368.686 604.84 369.006 604.4 369.198 603.84H371.694C371.39 605.088 370.782 606.04 369.87 606.696C368.958 607.336 367.838 607.656 366.51 607.656C365.198 607.656 364.078 607.336 363.15 606.696C362.238 606.04 361.638 605.088 361.35 603.84ZM403.552 609V627H400.528V609.96L401.512 610.008L393.136 627H389.752L381.376 610.032L382.36 609.984V627H379.336V609H384.184L392.248 625.632H390.664L398.704 609H403.552ZM412.826 621.144H416.042C416.138 621.864 416.434 622.496 416.93 623.04C417.442 623.584 418.114 624.008 418.946 624.312C419.778 624.6 420.738 624.744 421.826 624.744C423.442 624.744 424.722 624.496 425.666 624C426.61 623.488 427.082 622.8 427.082 621.936C427.082 621.232 426.81 620.704 426.266 620.352C425.722 620 424.738 619.736 423.314 619.56L419.426 619.056C417.25 618.768 415.666 618.232 414.674 617.448C413.698 616.648 413.21 615.52 413.21 614.064C413.21 612.96 413.538 612.008 414.194 611.208C414.866 610.392 415.81 609.768 417.026 609.336C418.242 608.888 419.666 608.664 421.298 608.664C422.914 608.664 424.346 608.904 425.594 609.384C426.842 609.864 427.834 610.536 428.57 611.4C429.322 612.248 429.73 613.248 429.794 614.4H426.578C426.498 613.76 426.226 613.208 425.762 612.744C425.314 612.28 424.706 611.92 423.938 611.664C423.17 611.392 422.266 611.256 421.226 611.256C419.754 611.256 418.578 611.496 417.698 611.976C416.818 612.456 416.378 613.112 416.378 613.944C416.378 614.584 416.634 615.08 417.146 615.432C417.674 615.768 418.586 616.024 419.882 616.2L423.818 616.752C425.434 616.976 426.706 617.28 427.634 617.664C428.578 618.032 429.25 618.536 429.65 619.176C430.05 619.8 430.25 620.608 430.25 621.6C430.25 622.752 429.898 623.76 429.194 624.624C428.49 625.488 427.498 626.16 426.218 626.64C424.954 627.104 423.474 627.336 421.778 627.336C420.05 627.336 418.522 627.08 417.194 626.568C415.882 626.04 414.842 625.312 414.074 624.384C413.306 623.456 412.89 622.376 412.826 621.144ZM442.556 627.336C440.508 627.336 438.708 626.944 437.156 626.16C435.604 625.376 434.396 624.288 433.532 622.896C432.668 621.488 432.236 619.856 432.236 618C432.236 616.144 432.668 614.52 433.532 613.128C434.396 611.72 435.604 610.624 437.156 609.84C438.708 609.056 440.508 608.664 442.556 608.664C444.604 608.664 446.404 609.056 447.956 609.84C449.508 610.624 450.716 611.72 451.58 613.128C452.444 614.52 452.876 616.144 452.876 618C452.876 619.856 452.444 621.488 451.58 622.896C450.716 624.288 449.508 625.376 447.956 626.16C446.404 626.944 444.604 627.336 442.556 627.336ZM442.556 624.504C444.012 624.504 445.268 624.24 446.324 623.712C447.38 623.184 448.196 622.432 448.772 621.456C449.364 620.48 449.66 619.328 449.66 618C449.66 616.672 449.364 615.52 448.772 614.544C448.196 613.568 447.38 612.816 446.324 612.288C445.268 611.76 444.012 611.496 442.556 611.496C441.116 611.496 439.86 611.76 438.788 612.288C437.732 612.816 436.908 613.568 436.316 614.544C435.74 615.52 435.452 616.672 435.452 618C435.452 619.328 435.74 620.48 436.316 621.456C436.908 622.432 437.732 623.184 438.788 623.712C439.86 624.24 441.116 624.504 442.556 624.504ZM443.876 603.888H447.572L443.636 607.536H440.372L443.876 603.888ZM474.938 619.872C474.778 621.344 474.258 622.648 473.378 623.784C472.514 624.904 471.378 625.776 469.97 626.4C468.562 627.024 466.954 627.336 465.146 627.336C463.13 627.336 461.362 626.944 459.842 626.16C458.322 625.376 457.138 624.288 456.29 622.896C455.442 621.488 455.018 619.856 455.018 618C455.018 616.144 455.442 614.52 456.29 613.128C457.138 611.72 458.322 610.624 459.842 609.84C461.362 609.056 463.13 608.664 465.146 608.664C466.954 608.664 468.562 608.976 469.97 609.6C471.378 610.224 472.514 611.096 473.378 612.216C474.258 613.336 474.778 614.64 474.938 616.128H471.746C471.57 615.168 471.186 614.344 470.594 613.656C470.018 612.968 469.266 612.44 468.338 612.072C467.41 611.688 466.338 611.496 465.122 611.496C463.714 611.496 462.49 611.76 461.45 612.288C460.426 612.816 459.634 613.568 459.074 614.544C458.514 615.52 458.234 616.672 458.234 618C458.234 619.328 458.514 620.48 459.074 621.456C459.634 622.432 460.426 623.184 461.45 623.712C462.49 624.24 463.714 624.504 465.122 624.504C466.338 624.504 467.41 624.32 468.338 623.952C469.266 623.584 470.018 623.056 470.594 622.368C471.186 621.664 471.57 620.832 471.746 619.872H474.938ZM483.092 621.144H486.308C486.404 621.864 486.7 622.496 487.196 623.04C487.708 623.584 488.38 624.008 489.212 624.312C490.044 624.6 491.004 624.744 492.092 624.744C493.708 624.744 494.988 624.496 495.932 624C496.876 623.488 497.348 622.8 497.348 621.936C497.348 621.232 497.076 620.704 496.532 620.352C495.988 620 495.004 619.736 493.58 619.56L489.692 619.056C487.516 618.768 485.932 618.232 484.94 617.448C483.964 616.648 483.476 615.52 483.476 614.064C483.476 612.96 483.804 612.008 484.46 611.208C485.132 610.392 486.076 609.768 487.292 609.336C488.508 608.888 489.932 608.664 491.564 608.664C493.18 608.664 494.612 608.904 495.86 609.384C497.108 609.864 498.1 610.536 498.836 611.4C499.588 612.248 499.996 613.248 500.06 614.4H496.844C496.764 613.76 496.492 613.208 496.028 612.744C495.58 612.28 494.972 611.92 494.204 611.664C493.436 611.392 492.532 611.256 491.492 611.256C490.02 611.256 488.844 611.496 487.964 611.976C487.084 612.456 486.644 613.112 486.644 613.944C486.644 614.584 486.9 615.08 487.412 615.432C487.94 615.768 488.852 616.024 490.148 616.2L494.084 616.752C495.7 616.976 496.972 617.28 497.9 617.664C498.844 618.032 499.516 618.536 499.916 619.176C500.316 619.8 500.516 620.608 500.516 621.6C500.516 622.752 500.164 623.76 499.46 624.624C498.756 625.488 497.764 626.16 496.484 626.64C495.22 627.104 493.74 627.336 492.044 627.336C490.316 627.336 488.788 627.08 487.46 626.568C486.148 626.04 485.108 625.312 484.34 624.384C483.572 623.456 483.156 622.376 483.092 621.144ZM506.389 619.272C506.389 620.344 506.605 621.272 507.037 622.056C507.469 622.84 508.085 623.448 508.885 623.88C509.701 624.296 510.669 624.504 511.789 624.504C512.925 624.504 513.893 624.296 514.693 623.88C515.493 623.448 516.109 622.84 516.541 622.056C516.973 621.272 517.189 620.344 517.189 619.272V609H520.357V619.392C520.357 620.976 519.997 622.368 519.277 623.568C518.557 624.752 517.557 625.68 516.277 626.352C514.997 627.008 513.501 627.336 511.789 627.336C510.093 627.336 508.597 627.008 507.301 626.352C506.021 625.68 505.021 624.752 504.301 623.568C503.581 622.368 503.221 620.976 503.221 619.392V609H506.389V619.272ZM524.077 607.92C524.077 608.816 523.717 609.536 522.997 610.08C522.277 610.608 521.301 610.872 520.069 610.872C520.021 610.872 519.965 610.872 519.901 610.872C519.837 610.872 519.789 610.872 519.757 610.872V609C519.789 609 519.805 609 519.805 609C519.805 609 519.813 609 519.829 609C520.357 609 520.773 608.872 521.077 608.616C521.381 608.36 521.533 608.016 521.533 607.584C521.533 607.328 521.477 607.048 521.365 606.744C521.269 606.424 521.125 606.128 520.933 605.856H523.453C523.869 606.512 524.077 607.2 524.077 607.92ZM513.157 603.888H516.853L512.917 607.536H509.653L513.157 603.888ZM543.891 619.872C543.731 621.344 543.211 622.648 542.331 623.784C541.467 624.904 540.331 625.776 538.923 626.4C537.515 627.024 535.907 627.336 534.099 627.336C532.083 627.336 530.315 626.944 528.795 626.16C527.275 625.376 526.091 624.288 525.243 622.896C524.395 621.488 523.971 619.856 523.971 618C523.971 616.144 524.395 614.52 525.243 613.128C526.091 611.72 527.275 610.624 528.795 609.84C530.315 609.056 532.083 608.664 534.099 608.664C535.907 608.664 537.515 608.976 538.923 609.6C540.331 610.224 541.467 611.096 542.331 612.216C543.211 613.336 543.731 614.64 543.891 616.128H540.699C540.523 615.168 540.139 614.344 539.547 613.656C538.971 612.968 538.219 612.44 537.291 612.072C536.363 611.688 535.291 611.496 534.075 611.496C532.667 611.496 531.443 611.76 530.403 612.288C529.379 612.816 528.587 613.568 528.027 614.544C527.467 615.52 527.187 616.672 527.187 618C527.187 619.328 527.467 620.48 528.027 621.456C528.587 622.432 529.379 623.184 530.403 623.712C531.443 624.24 532.667 624.504 534.075 624.504C535.291 624.504 536.363 624.32 537.291 623.952C538.219 623.584 538.971 623.056 539.547 622.368C540.139 621.664 540.523 620.832 540.699 619.872H543.891ZM553.149 627V609H556.317V624.336L555.357 623.736L567.405 609H570.837L555.981 627H553.149ZM561.717 617.952L563.949 615.768L571.101 627H567.477L561.717 617.952ZM573.118 609H576.286V627H573.118V609ZM587.758 609H590.926V627H587.758V609ZM574.822 616.536H589.27V619.32H574.822V616.536ZM604.321 627.336C602.273 627.336 600.473 626.944 598.921 626.16C597.369 625.376 596.161 624.288 595.297 622.896C594.433 621.488 594.001 619.856 594.001 618C594.001 616.144 594.433 614.52 595.297 613.128C596.161 611.72 597.369 610.624 598.921 609.84C600.473 609.056 602.273 608.664 604.321 608.664C606.369 608.664 608.169 609.056 609.721 609.84C611.273 610.624 612.481 611.72 613.345 613.128C614.209 614.52 614.641 616.144 614.641 618C614.641 619.856 614.209 621.488 613.345 622.896C612.481 624.288 611.273 625.376 609.721 626.16C608.169 626.944 606.369 627.336 604.321 627.336ZM604.321 624.504C605.777 624.504 607.033 624.24 608.089 623.712C609.145 623.184 609.961 622.432 610.537 621.456C611.129 620.48 611.425 619.328 611.425 618C611.425 616.672 611.129 615.52 610.537 614.544C609.961 613.568 609.145 612.816 608.089 612.288C607.033 611.76 605.777 611.496 604.321 611.496C602.881 611.496 601.625 611.76 600.553 612.288C599.497 612.816 598.673 613.568 598.081 614.544C597.505 615.52 597.217 616.672 597.217 618C597.217 619.328 597.505 620.48 598.081 621.456C598.673 622.432 599.497 623.184 600.553 623.712C601.625 624.24 602.881 624.504 604.321 624.504ZM631.931 616.68V619.32H619.355V616.68H631.931ZM621.443 618L620.171 626.04L618.659 624.264H632.627V627H616.931L618.371 618L616.931 609H632.507V611.736H618.659L620.171 609.96L621.443 618ZM624.011 607.872L623.291 606.648C624.059 606.52 624.619 606.36 624.971 606.168C625.323 605.976 625.499 605.76 625.499 605.52C625.499 605.296 625.355 605.136 625.067 605.04C624.795 604.928 624.403 604.872 623.891 604.872C623.491 604.872 623.123 604.896 622.787 604.944C622.467 604.992 622.131 605.056 621.779 605.136V603.264C622.083 603.184 622.475 603.104 622.955 603.024C623.451 602.944 623.971 602.904 624.515 602.904C625.699 602.904 626.611 603.088 627.251 603.456C627.907 603.808 628.235 604.36 628.235 605.112C628.235 605.8 627.899 606.376 627.227 606.84C626.571 607.288 625.499 607.632 624.011 607.872ZM319.824 642.464H322.992V659H319.824V642.464ZM312.384 641H330.432V643.784H312.384V641ZM341.259 659.336C339.211 659.336 337.411 658.944 335.859 658.16C334.307 657.376 333.099 656.288 332.235 654.896C331.371 653.488 330.939 651.856 330.939 650C330.939 648.144 331.371 646.52 332.235 645.128C333.099 643.72 334.307 642.624 335.859 641.84C337.411 641.056 339.211 640.664 341.259 640.664C343.307 640.664 345.107 641.056 346.659 641.84C348.211 642.624 349.419 643.72 350.283 645.128C351.147 646.52 351.579 648.144 351.579 650C351.579 651.856 351.147 653.488 350.283 654.896C349.419 656.288 348.211 657.376 346.659 658.16C345.107 658.944 343.307 659.336 341.259 659.336ZM341.259 656.504C342.715 656.504 343.971 656.24 345.027 655.712C346.083 655.184 346.899 654.432 347.475 653.456C348.067 652.48 348.363 651.328 348.363 650C348.363 648.672 348.067 647.52 347.475 646.544C346.899 645.568 346.083 644.816 345.027 644.288C343.971 643.76 342.715 643.496 341.259 643.496C339.819 643.496 338.563 643.76 337.491 644.288C336.435 644.816 335.611 645.568 335.019 646.544C334.443 647.52 334.155 648.672 334.155 650C334.155 651.328 334.443 652.48 335.019 653.456C335.611 654.432 336.435 655.184 337.491 655.712C338.563 656.24 339.819 656.504 341.259 656.504ZM356.072 654.872V652.256H368.648V654.872H356.072ZM364.424 641L373.064 659H369.68L361.832 642.2H363.056L355.208 659H351.824L360.464 641H364.424ZM360.776 635.888L364.28 639.536H361.016L357.08 635.888H360.776ZM391.938 657.08L390.642 657.224V641H393.714V659H389.682L377.058 642.776L378.33 642.632V659H375.258V641H379.386L391.938 657.08ZM412.222 641C414.27 641 416.062 641.376 417.598 642.128C419.15 642.88 420.358 643.936 421.222 645.296C422.086 646.64 422.518 648.208 422.518 650C422.518 651.792 422.086 653.368 421.222 654.728C420.358 656.072 419.15 657.12 417.598 657.872C416.062 658.624 414.27 659 412.222 659H404.086V641H412.222ZM407.254 657.896L405.502 656.216H412.438C413.814 656.216 415.014 655.96 416.038 655.448C417.078 654.92 417.878 654.192 418.438 653.264C419.014 652.32 419.302 651.232 419.302 650C419.302 648.752 419.014 647.664 418.438 646.736C417.878 645.808 417.078 645.088 416.038 644.576C415.014 644.048 413.814 643.784 412.438 643.784H405.502L407.254 642.104V657.896ZM425.602 641H428.77V659H425.602V641ZM447.173 648.68V651.32H434.597V648.68H447.173ZM436.685 650L435.413 658.04L433.901 656.264H447.869V659H432.173L433.613 650L432.173 641H447.749V643.736H433.901L435.413 641.96L436.685 650ZM440.573 663.944C439.981 663.944 439.493 663.776 439.109 663.44C438.725 663.12 438.533 662.696 438.533 662.168C438.533 661.64 438.725 661.208 439.109 660.872C439.493 660.552 439.981 660.392 440.573 660.392C441.181 660.392 441.669 660.552 442.037 660.872C442.421 661.208 442.613 661.64 442.613 662.168C442.613 662.696 442.421 663.12 442.037 663.44C441.669 663.776 441.181 663.944 440.573 663.944ZM438.293 635.888H441.797L445.349 639.536H442.493L439.373 637.04H440.717L437.597 639.536H434.765L438.293 635.888ZM467.852 657.08L466.556 657.224V641H469.628V659H465.596L452.972 642.776L454.244 642.632V659H451.172V641H455.3L467.852 657.08Z" fill="white"/>
<path d="M354.672 717.36C354.32 720.4 353.248 723.088 351.456 725.424C349.696 727.728 347.36 729.52 344.448 730.8C341.568 732.08 338.272 732.72 334.56 732.72C330.464 732.72 326.864 731.936 323.76 730.368C320.688 728.8 318.288 726.624 316.56 723.84C314.832 721.024 313.968 717.744 313.968 714C313.968 710.256 314.832 706.992 316.56 704.208C318.288 701.392 320.688 699.2 323.76 697.632C326.864 696.064 330.464 695.28 334.56 695.28C338.272 695.28 341.568 695.92 344.448 697.2C347.36 698.48 349.696 700.272 351.456 702.576C353.248 704.88 354.32 707.568 354.672 710.64H346.464C346.144 708.944 345.456 707.488 344.4 706.272C343.344 705.024 341.984 704.064 340.32 703.392C338.656 702.72 336.72 702.384 334.512 702.384C331.984 702.384 329.792 702.864 327.936 703.824C326.112 704.752 324.704 706.096 323.712 707.856C322.72 709.584 322.224 711.632 322.224 714C322.224 716.368 322.72 718.432 323.712 720.192C324.704 721.92 326.112 723.264 327.936 724.224C329.792 725.152 331.984 725.616 334.512 725.616C336.72 725.616 338.656 725.296 340.32 724.656C341.984 723.984 343.344 723.04 344.4 721.824C345.456 720.576 346.144 719.088 346.464 717.36H354.672ZM359.993 696H368.153V732H359.993V696ZM388.793 696H396.953V732H388.793V696ZM364.457 710.208H392.393V717.36H364.457V710.208ZM423.585 732.72C419.393 732.72 415.713 731.936 412.545 730.368C409.409 728.8 406.961 726.624 405.201 723.84C403.441 721.024 402.561 717.744 402.561 714C402.561 710.256 403.441 706.992 405.201 704.208C406.961 701.392 409.409 699.2 412.545 697.632C415.713 696.064 419.393 695.28 423.585 695.28C427.777 695.28 431.441 696.064 434.577 697.632C437.745 699.2 440.209 701.392 441.969 704.208C443.729 706.992 444.609 710.256 444.609 714C444.609 717.744 443.729 721.024 441.969 723.84C440.209 726.624 437.745 728.8 434.577 730.368C431.441 731.936 427.777 732.72 423.585 732.72ZM423.585 725.472C426.209 725.472 428.465 725.008 430.353 724.08C432.273 723.152 433.745 721.824 434.769 720.096C435.825 718.368 436.353 716.336 436.353 714C436.353 711.664 435.825 709.632 434.769 707.904C433.745 706.176 432.273 704.848 430.353 703.92C428.465 702.992 426.209 702.528 423.585 702.528C420.993 702.528 418.737 702.992 416.817 703.92C414.897 704.848 413.409 706.176 412.353 707.904C411.329 709.632 410.817 711.664 410.817 714C410.817 716.336 411.329 718.368 412.353 720.096C413.409 721.824 414.897 723.152 416.817 724.08C418.737 725.008 420.993 725.472 423.585 725.472ZM472.387 699.648H480.499V732H472.387V699.648ZM458.035 696H494.803V703.2H458.035V696ZM507.032 716.208C507.032 718.128 507.4 719.776 508.136 721.152C508.872 722.528 509.944 723.6 511.352 724.368C512.792 725.104 514.52 725.472 516.536 725.472C518.584 725.472 520.312 725.104 521.72 724.368C523.128 723.6 524.2 722.528 524.936 721.152C525.672 719.776 526.04 718.128 526.04 716.208V696H534.2V716.592C534.2 719.824 533.464 722.656 531.992 725.088C530.52 727.488 528.456 729.36 525.8 730.704C523.144 732.048 520.056 732.72 516.536 732.72C513.016 732.72 509.928 732.048 507.272 730.704C504.648 729.36 502.584 727.488 501.08 725.088C499.608 722.656 498.872 719.824 498.872 716.592V696H507.032V716.208ZM542.408 694.272C542.408 696.192 541.608 697.728 540.008 698.88C538.408 700 536.232 700.56 533.48 700.56C533.384 700.56 533.256 700.56 533.096 700.56C532.936 700.56 532.808 700.56 532.712 700.56V696C532.776 696 532.808 696 532.808 696C532.808 696 532.824 696 532.856 696C533.848 696 534.632 695.76 535.208 695.28C535.784 694.768 536.072 694.096 536.072 693.264C536.072 692.752 535.96 692.192 535.736 691.584C535.512 690.944 535.192 690.336 534.776 689.76H540.968C541.928 691.2 542.408 692.704 542.408 694.272ZM562.38 732.72C558.22 732.72 554.556 731.936 551.388 730.368C548.252 728.8 545.804 726.624 544.044 723.84C542.284 721.024 541.404 717.744 541.404 714C541.404 710.256 542.284 706.992 544.044 704.208C545.804 701.392 548.252 699.2 551.388 697.632C554.556 696.064 558.22 695.28 562.38 695.28C563.66 695.28 564.796 695.344 565.788 695.472C566.78 695.568 567.692 695.712 568.524 695.904C569.26 696.064 569.98 696.208 570.684 696.336C571.388 696.432 572.108 696.48 572.844 696.48C574.508 696.48 575.692 696.176 576.396 695.568C577.1 694.928 577.452 694.16 577.452 693.264C577.452 692.72 577.34 692.144 577.116 691.536C576.924 690.928 576.604 690.32 576.156 689.712H582.684C583.132 690.448 583.468 691.216 583.692 692.016C583.948 692.816 584.076 693.6 584.076 694.368C584.076 695.968 583.516 697.328 582.396 698.448C581.308 699.536 579.692 700.256 577.548 700.608C579.404 702.208 580.844 704.144 581.868 706.416C582.892 708.688 583.404 711.216 583.404 714C583.404 717.744 582.524 721.024 580.764 723.84C579.004 726.624 576.54 728.8 573.372 730.368C570.236 731.936 566.572 732.72 562.38 732.72ZM562.38 725.472C565.036 725.472 567.308 725.008 569.196 724.08C571.084 723.152 572.54 721.824 573.564 720.096C574.62 718.368 575.148 716.336 575.148 714C575.148 711.664 574.62 709.632 573.564 707.904C572.54 706.176 571.084 704.848 569.196 703.92C567.308 702.992 565.036 702.528 562.38 702.528C559.788 702.528 557.532 702.992 555.612 703.92C553.724 704.848 552.252 706.176 551.196 707.904C550.172 709.632 549.66 711.664 549.66 714C549.66 716.336 550.172 718.368 551.196 720.096C552.252 721.824 553.724 723.152 555.612 724.08C557.532 725.008 559.788 725.472 562.38 725.472ZM622.478 726.624L619.646 727.056V696H627.566V732H617.246L594.206 700.944L596.99 700.512V732H589.118V696H599.678L622.478 726.624ZM671.347 716.4C671.315 718.576 670.883 720.656 670.051 722.64C669.251 724.592 668.099 726.336 666.595 727.872C665.091 729.376 663.235 730.56 661.027 731.424C658.819 732.288 656.259 732.72 653.347 732.72C650.531 732.72 647.891 732.304 645.427 731.472C642.995 730.608 640.851 729.376 638.995 727.776C637.171 726.176 635.747 724.224 634.723 721.92C633.699 719.584 633.187 716.944 633.187 714C633.187 711.056 633.699 708.432 634.723 706.128C635.779 703.792 637.235 701.824 639.091 700.224C640.947 698.624 643.123 697.408 645.619 696.576C648.115 695.712 650.835 695.28 653.779 695.28C657.619 695.28 660.947 695.888 663.763 697.104C666.579 698.288 668.851 699.936 670.579 702.048C672.339 704.16 673.427 706.576 673.843 709.296H665.635C665.315 707.824 664.611 706.56 663.523 705.504C662.467 704.448 661.107 703.632 659.443 703.056C657.811 702.48 655.923 702.192 653.779 702.192C651.251 702.192 649.059 702.656 647.203 703.584C645.379 704.48 643.955 705.808 642.931 707.568C641.939 709.328 641.443 711.472 641.443 714C641.443 716.528 641.971 718.688 643.027 720.48C644.083 722.272 645.587 723.648 647.539 724.608C649.491 725.536 651.795 726 654.451 726C657.043 726 659.315 725.6 661.267 724.8C663.219 723.968 664.755 722.816 665.875 721.344C667.027 719.84 667.683 718.064 667.843 716.016L671.347 716.4ZM655.555 719.712V713.808H674.227V732H668.371L667.267 717.408L668.947 719.712H655.555ZM701.2 696V728.4L697.504 724.8H724.528V732H693.04V696H701.2ZM734.991 724.416V717.792H759.951V724.416H734.991ZM752.895 696L769.743 732H761.055L746.319 699.312H749.007L734.271 732H725.583L742.431 696H752.895ZM773.618 696H781.778V732H773.618V696ZM335.76 792.4H332.16L346.848 760H355.488L338.4 796H329.232L312.192 760H320.928L335.76 792.4ZM359.384 760H367.544V796H359.384V760ZM404.659 774.88V781.12H378.883V774.88H404.659ZM384.355 778L381.955 793.264L378.403 789.232H406.147V796H373.747L376.531 778L373.747 760H405.907V766.768H378.403L381.955 762.736L384.355 778ZM390.931 806.848C389.491 806.848 388.307 806.464 387.379 805.696C386.483 804.96 386.035 803.968 386.035 802.72C386.035 801.44 386.483 800.416 387.379 799.648C388.307 798.912 389.491 798.544 390.931 798.544C392.403 798.544 393.587 798.912 394.483 799.648C395.379 800.416 395.827 801.44 395.827 802.72C395.827 803.968 395.379 804.96 394.483 805.696C393.587 806.464 392.403 806.848 390.931 806.848ZM385.699 749.488H394.387L401.587 757.216H394.723L388.243 752.224H391.843L385.363 757.216H378.547L385.699 749.488ZM423.309 763.648H431.421V796H423.309V763.648ZM408.957 760H445.725V767.2H408.957V760ZM494.322 790.624L491.49 791.056V760H499.41V796H489.09L466.05 764.944L468.834 764.512V796H460.962V760H471.522L494.322 790.624ZM512.663 788.416V781.792H537.623V788.416H512.663ZM530.567 760L547.415 796H538.727L523.991 763.312H526.679L511.943 796H503.255L520.103 760H530.567ZM601.834 760V796H594.058V762.736L596.122 762.88L580.762 796H572.362L557.002 762.976L559.018 762.784V796H551.29V760H563.818L578.314 792.064H574.81L589.306 760H601.834Z" fill="#24CBFF"/>
<path d="M314.114 849V831.545H320.216C321.432 831.545 322.435 831.756 323.224 832.176C324.014 832.591 324.602 833.151 324.989 833.855C325.375 834.554 325.568 835.33 325.568 836.182C325.568 836.932 325.435 837.551 325.168 838.04C324.906 838.528 324.56 838.915 324.128 839.199C323.702 839.483 323.239 839.693 322.739 839.83V840C323.273 840.034 323.81 840.222 324.349 840.562C324.889 840.903 325.341 841.392 325.705 842.028C326.068 842.665 326.25 843.443 326.25 844.364C326.25 845.239 326.051 846.026 325.653 846.724C325.256 847.423 324.628 847.977 323.77 848.386C322.912 848.795 321.795 849 320.42 849H314.114ZM316.227 847.125H320.42C321.801 847.125 322.781 846.858 323.361 846.324C323.946 845.784 324.239 845.131 324.239 844.364C324.239 843.773 324.088 843.227 323.787 842.727C323.486 842.222 323.057 841.818 322.5 841.517C321.943 841.21 321.284 841.057 320.523 841.057H316.227V847.125ZM316.227 839.216H320.148C320.784 839.216 321.358 839.091 321.869 838.841C322.386 838.591 322.795 838.239 323.097 837.784C323.403 837.33 323.557 836.795 323.557 836.182C323.557 835.415 323.29 834.764 322.756 834.23C322.222 833.69 321.375 833.42 320.216 833.42H316.227V839.216ZM333.303 849.307C332.473 849.307 331.72 849.151 331.044 848.838C330.368 848.52 329.831 848.062 329.433 847.466C329.036 846.864 328.837 846.136 328.837 845.284C328.837 844.534 328.984 843.926 329.28 843.46C329.575 842.989 329.97 842.619 330.464 842.352C330.959 842.085 331.504 841.886 332.101 841.756C332.703 841.619 333.308 841.511 333.916 841.432C334.712 841.33 335.357 841.253 335.851 841.202C336.351 841.145 336.714 841.051 336.942 840.92C337.175 840.79 337.291 840.562 337.291 840.239V840.17C337.291 839.33 337.061 838.676 336.601 838.21C336.146 837.744 335.456 837.511 334.53 837.511C333.57 837.511 332.817 837.722 332.271 838.142C331.726 838.562 331.342 839.011 331.121 839.489L329.212 838.807C329.553 838.011 330.007 837.392 330.575 836.949C331.149 836.5 331.774 836.187 332.45 836.011C333.132 835.83 333.803 835.739 334.462 835.739C334.882 835.739 335.365 835.79 335.911 835.892C336.462 835.989 336.993 836.19 337.504 836.497C338.021 836.804 338.45 837.267 338.791 837.886C339.132 838.506 339.303 839.335 339.303 840.375V849H337.291V847.227H337.189C337.053 847.511 336.825 847.815 336.507 848.139C336.189 848.463 335.766 848.739 335.237 848.966C334.709 849.193 334.064 849.307 333.303 849.307ZM333.609 847.5C334.405 847.5 335.075 847.344 335.621 847.031C336.172 846.719 336.587 846.315 336.865 845.821C337.149 845.327 337.291 844.807 337.291 844.261V842.42C337.206 842.523 337.018 842.616 336.729 842.702C336.445 842.781 336.115 842.852 335.74 842.915C335.371 842.972 335.01 843.023 334.658 843.068C334.311 843.108 334.03 843.142 333.814 843.17C333.291 843.239 332.803 843.349 332.348 843.503C331.899 843.651 331.536 843.875 331.257 844.176C330.984 844.472 330.848 844.875 330.848 845.386C330.848 846.085 331.107 846.614 331.624 846.972C332.146 847.324 332.808 847.5 333.609 847.5ZM333.678 834.136L335.757 830.182H338.109L335.45 834.136H333.678ZM348.292 849.273C347.11 849.273 346.073 848.991 345.181 848.429C344.295 847.866 343.602 847.08 343.102 846.068C342.607 845.057 342.36 843.875 342.36 842.523C342.36 841.159 342.607 839.969 343.102 838.952C343.602 837.935 344.295 837.145 345.181 836.582C346.073 836.02 347.11 835.739 348.292 835.739C349.474 835.739 350.508 836.02 351.394 836.582C352.286 837.145 352.979 837.935 353.474 838.952C353.974 839.969 354.224 841.159 354.224 842.523C354.224 843.875 353.974 845.057 353.474 846.068C352.979 847.08 352.286 847.866 351.394 848.429C350.508 848.991 349.474 849.273 348.292 849.273ZM348.292 847.466C349.19 847.466 349.928 847.236 350.508 846.776C351.087 846.315 351.516 845.71 351.795 844.96C352.073 844.21 352.212 843.398 352.212 842.523C352.212 841.648 352.073 840.832 351.795 840.077C351.516 839.321 351.087 838.71 350.508 838.244C349.928 837.778 349.19 837.545 348.292 837.545C347.394 837.545 346.656 837.778 346.076 838.244C345.496 838.71 345.067 839.321 344.789 840.077C344.511 840.832 344.371 841.648 344.371 842.523C344.371 843.398 344.511 844.21 344.789 844.96C345.067 845.71 345.496 846.315 346.076 846.776C346.656 847.236 347.394 847.466 348.292 847.466ZM369.362 849.273C368.135 849.273 367.078 848.983 366.192 848.403C365.305 847.824 364.624 847.026 364.146 846.009C363.669 844.991 363.43 843.83 363.43 842.523C363.43 841.193 363.675 840.02 364.163 839.003C364.658 837.98 365.345 837.182 366.226 836.608C367.112 836.028 368.146 835.739 369.328 835.739C370.249 835.739 371.078 835.909 371.817 836.25C372.555 836.591 373.161 837.068 373.632 837.682C374.104 838.295 374.396 839.011 374.51 839.83H372.499C372.345 839.233 372.004 838.705 371.476 838.244C370.953 837.778 370.249 837.545 369.362 837.545C368.578 837.545 367.891 837.75 367.3 838.159C366.714 838.562 366.257 839.134 365.928 839.872C365.604 840.605 365.442 841.466 365.442 842.455C365.442 843.466 365.601 844.347 365.919 845.097C366.243 845.847 366.697 846.429 367.283 846.844C367.874 847.259 368.567 847.466 369.362 847.466C369.885 847.466 370.359 847.375 370.786 847.193C371.212 847.011 371.572 846.75 371.868 846.409C372.163 846.068 372.374 845.659 372.499 845.182H374.51C374.396 845.955 374.115 846.651 373.666 847.27C373.223 847.884 372.635 848.372 371.902 848.736C371.175 849.094 370.328 849.273 369.362 849.273ZM381.303 849.307C380.473 849.307 379.72 849.151 379.044 848.838C378.368 848.52 377.831 848.062 377.433 847.466C377.036 846.864 376.837 846.136 376.837 845.284C376.837 844.534 376.984 843.926 377.28 843.46C377.575 842.989 377.97 842.619 378.464 842.352C378.959 842.085 379.504 841.886 380.101 841.756C380.703 841.619 381.308 841.511 381.916 841.432C382.712 841.33 383.357 841.253 383.851 841.202C384.351 841.145 384.714 841.051 384.942 840.92C385.175 840.79 385.291 840.562 385.291 840.239V840.17C385.291 839.33 385.061 838.676 384.601 838.21C384.146 837.744 383.456 837.511 382.53 837.511C381.57 837.511 380.817 837.722 380.271 838.142C379.726 838.562 379.342 839.011 379.121 839.489L377.212 838.807C377.553 838.011 378.007 837.392 378.575 836.949C379.149 836.5 379.774 836.187 380.45 836.011C381.132 835.83 381.803 835.739 382.462 835.739C382.882 835.739 383.365 835.79 383.911 835.892C384.462 835.989 384.993 836.19 385.504 836.497C386.021 836.804 386.45 837.267 386.791 837.886C387.132 838.506 387.303 839.335 387.303 840.375V849H385.291V847.227H385.189C385.053 847.511 384.825 847.815 384.507 848.139C384.189 848.463 383.766 848.739 383.237 848.966C382.709 849.193 382.064 849.307 381.303 849.307ZM381.609 847.5C382.405 847.5 383.075 847.344 383.621 847.031C384.172 846.719 384.587 846.315 384.865 845.821C385.149 845.327 385.291 844.807 385.291 844.261V842.42C385.206 842.523 385.018 842.616 384.729 842.702C384.445 842.781 384.115 842.852 383.74 842.915C383.371 842.972 383.01 843.023 382.658 843.068C382.311 843.108 382.03 843.142 381.814 843.17C381.291 843.239 380.803 843.349 380.348 843.503C379.899 843.651 379.536 843.875 379.257 844.176C378.984 844.472 378.848 844.875 378.848 845.386C378.848 846.085 379.107 846.614 379.624 846.972C380.146 847.324 380.808 847.5 381.609 847.5ZM381.678 834.136L383.757 830.182H386.109L383.45 834.136H381.678ZM396.292 849.273C395.11 849.273 394.073 848.991 393.181 848.429C392.295 847.866 391.602 847.08 391.102 846.068C390.607 845.057 390.36 843.875 390.36 842.523C390.36 841.159 390.607 839.969 391.102 838.952C391.602 837.935 392.295 837.145 393.181 836.582C394.073 836.02 395.11 835.739 396.292 835.739C397.474 835.739 398.508 836.02 399.394 836.582C400.286 837.145 400.979 837.935 401.474 838.952C401.974 839.969 402.224 841.159 402.224 842.523C402.224 843.875 401.974 845.057 401.474 846.068C400.979 847.08 400.286 847.866 399.394 848.429C398.508 848.991 397.474 849.273 396.292 849.273ZM396.292 847.466C397.19 847.466 397.928 847.236 398.508 846.776C399.087 846.315 399.516 845.71 399.795 844.96C400.073 844.21 400.212 843.398 400.212 842.523C400.212 841.648 400.073 840.832 399.795 840.077C399.516 839.321 399.087 838.71 398.508 838.244C397.928 837.778 397.19 837.545 396.292 837.545C395.394 837.545 394.656 837.778 394.076 838.244C393.496 838.71 393.067 839.321 392.789 840.077C392.511 840.832 392.371 841.648 392.371 842.523C392.371 843.398 392.511 844.21 392.789 844.96C393.067 845.71 393.496 846.315 394.076 846.776C394.656 847.236 395.394 847.466 396.292 847.466ZM417.737 835.909V837.614H410.953V835.909H417.737ZM412.93 832.773H414.942V845.25C414.942 845.818 415.024 846.244 415.189 846.528C415.359 846.807 415.575 846.994 415.837 847.091C416.104 847.182 416.385 847.227 416.68 847.227C416.902 847.227 417.084 847.216 417.226 847.193C417.368 847.165 417.482 847.142 417.567 847.125L417.976 848.932C417.839 848.983 417.649 849.034 417.405 849.085C417.161 849.142 416.851 849.17 416.476 849.17C415.908 849.17 415.351 849.048 414.805 848.804C414.266 848.56 413.817 848.188 413.459 847.688C413.107 847.188 412.93 846.557 412.93 845.795V832.773ZM423.055 841.125V849H421.044V831.545H423.055V837.955H423.226C423.533 837.278 423.993 836.741 424.607 836.344C425.226 835.94 426.05 835.739 427.078 835.739C427.97 835.739 428.751 835.918 429.422 836.276C430.092 836.628 430.612 837.17 430.982 837.903C431.357 838.631 431.544 839.557 431.544 840.682V849H429.533V840.818C429.533 839.778 429.263 838.974 428.723 838.406C428.189 837.832 427.447 837.545 426.499 837.545C425.839 837.545 425.249 837.685 424.726 837.963C424.209 838.241 423.8 838.648 423.499 839.182C423.203 839.716 423.055 840.364 423.055 841.125ZM447.019 835.33H448.792C448.792 836.193 448.678 836.918 448.451 837.503C448.224 838.082 447.826 838.52 447.258 838.815C446.69 839.105 445.894 839.25 444.871 839.25V837.852C445.576 837.852 446.076 837.767 446.371 837.597C446.673 837.42 446.854 837.148 446.917 836.778C446.985 836.403 447.019 835.92 447.019 835.33ZM443.474 843.648V835.909H445.485V849H443.474V846.784H443.337C443.031 847.449 442.553 848.014 441.906 848.48C441.258 848.94 440.44 849.17 439.451 849.17C438.633 849.17 437.906 848.991 437.269 848.634C436.633 848.27 436.133 847.724 435.769 846.997C435.406 846.264 435.224 845.341 435.224 844.227V835.909H437.235V844.091C437.235 845.045 437.502 845.807 438.036 846.375C438.576 846.943 439.263 847.227 440.099 847.227C440.599 847.227 441.107 847.099 441.624 846.844C442.147 846.588 442.585 846.196 442.937 845.668C443.295 845.139 443.474 844.466 443.474 843.648ZM460.79 834.92H462.665C462.665 836.216 462.381 837.244 461.812 838.006C461.25 838.767 460.261 839.148 458.847 839.148V837.716C459.415 837.716 459.835 837.599 460.108 837.366C460.386 837.134 460.568 836.807 460.653 836.386C460.744 835.966 460.79 835.477 460.79 834.92ZM455.472 849.273C454.29 849.273 453.253 848.991 452.361 848.429C451.474 847.866 450.781 847.08 450.281 846.068C449.787 845.057 449.54 843.875 449.54 842.523C449.54 841.159 449.787 839.969 450.281 838.952C450.781 837.935 451.474 837.145 452.361 836.582C453.253 836.02 454.29 835.739 455.472 835.739C456.653 835.739 457.688 836.02 458.574 836.582C459.466 837.145 460.159 837.935 460.653 838.952C461.153 839.969 461.403 841.159 461.403 842.523C461.403 843.875 461.153 845.057 460.653 846.068C460.159 847.08 459.466 847.866 458.574 848.429C457.688 848.991 456.653 849.273 455.472 849.273ZM455.472 847.466C456.369 847.466 457.108 847.236 457.688 846.776C458.267 846.315 458.696 845.71 458.974 844.96C459.253 844.21 459.392 843.398 459.392 842.523C459.392 841.648 459.253 840.832 458.974 840.077C458.696 839.321 458.267 838.71 457.688 838.244C457.108 837.778 456.369 837.545 455.472 837.545C454.574 837.545 453.835 837.778 453.256 838.244C452.676 838.71 452.247 839.321 451.969 840.077C451.69 840.832 451.551 841.648 451.551 842.523C451.551 843.398 451.69 844.21 451.969 844.96C452.247 845.71 452.676 846.315 453.256 846.776C453.835 847.236 454.574 847.466 455.472 847.466ZM454.619 834.136L451.96 830.182H454.312L456.392 834.136H454.619ZM466.509 841.125V849H464.497V835.909H466.44V837.955H466.611C466.918 837.29 467.384 836.756 468.009 836.352C468.634 835.943 469.44 835.739 470.429 835.739C471.315 835.739 472.091 835.92 472.756 836.284C473.42 836.642 473.938 837.188 474.307 837.92C474.676 838.648 474.861 839.568 474.861 840.682V849H472.849V840.818C472.849 839.79 472.582 838.989 472.048 838.415C471.514 837.835 470.781 837.545 469.849 837.545C469.207 837.545 468.634 837.685 468.128 837.963C467.628 838.241 467.233 838.648 466.943 839.182C466.653 839.716 466.509 840.364 466.509 841.125ZM483.82 854.182C482.849 854.182 482.013 854.057 481.315 853.807C480.616 853.562 480.033 853.239 479.567 852.835C479.107 852.438 478.741 852.011 478.468 851.557L480.07 850.432C480.252 850.67 480.482 850.943 480.761 851.25C481.039 851.562 481.42 851.832 481.903 852.06C482.391 852.293 483.031 852.409 483.82 852.409C484.877 852.409 485.749 852.153 486.437 851.642C487.124 851.131 487.468 850.33 487.468 849.239V846.58H487.298C487.15 846.818 486.94 847.114 486.667 847.466C486.4 847.812 486.013 848.122 485.508 848.395C485.008 848.662 484.332 848.795 483.479 848.795C482.423 848.795 481.474 848.545 480.633 848.045C479.798 847.545 479.136 846.818 478.647 845.864C478.164 844.909 477.923 843.75 477.923 842.386C477.923 841.045 478.158 839.878 478.63 838.884C479.102 837.884 479.758 837.111 480.599 836.565C481.44 836.014 482.411 835.739 483.513 835.739C484.366 835.739 485.042 835.881 485.542 836.165C486.048 836.443 486.434 836.761 486.701 837.119C486.974 837.472 487.184 837.761 487.332 837.989H487.536V835.909H489.479V849.375C489.479 850.5 489.224 851.415 488.712 852.119C488.207 852.83 487.525 853.349 486.667 853.679C485.815 854.014 484.866 854.182 483.82 854.182ZM483.752 846.989C484.559 846.989 485.241 846.804 485.798 846.435C486.354 846.065 486.778 845.534 487.067 844.841C487.357 844.148 487.502 843.318 487.502 842.352C487.502 841.409 487.36 840.577 487.076 839.855C486.792 839.134 486.371 838.568 485.815 838.159C485.258 837.75 484.57 837.545 483.752 837.545C482.9 837.545 482.19 837.761 481.621 838.193C481.059 838.625 480.636 839.205 480.352 839.932C480.073 840.659 479.934 841.466 479.934 842.352C479.934 843.261 480.076 844.065 480.36 844.764C480.65 845.457 481.076 846.003 481.638 846.401C482.207 846.793 482.911 846.989 483.752 846.989ZM501.923 841.125V849H499.911V835.909H501.854V837.955H502.025C502.332 837.29 502.798 836.756 503.423 836.352C504.048 835.943 504.854 835.739 505.843 835.739C506.729 835.739 507.505 835.92 508.17 836.284C508.835 836.642 509.352 837.188 509.721 837.92C510.09 838.648 510.275 839.568 510.275 840.682V849H508.263V840.818C508.263 839.79 507.996 838.989 507.462 838.415C506.928 837.835 506.195 837.545 505.263 837.545C504.621 837.545 504.048 837.685 503.542 837.963C503.042 838.241 502.647 838.648 502.357 839.182C502.067 839.716 501.923 840.364 501.923 841.125ZM513.95 849V835.909H515.962V849H513.95ZM514.973 833.727C514.581 833.727 514.243 833.594 513.959 833.327C513.68 833.06 513.541 832.739 513.541 832.364C513.541 831.989 513.68 831.668 513.959 831.401C514.243 831.134 514.581 831 514.973 831C515.365 831 515.7 831.134 515.979 831.401C516.263 831.668 516.405 831.989 516.405 832.364C516.405 832.739 516.263 833.06 515.979 833.327C515.7 833.594 515.365 833.727 514.973 833.727ZM525.134 849.273C523.873 849.273 522.785 848.994 521.87 848.438C520.961 847.875 520.259 847.091 519.765 846.085C519.276 845.074 519.032 843.898 519.032 842.557C519.032 841.216 519.276 840.034 519.765 839.011C520.259 837.983 520.947 837.182 521.827 836.608C522.714 836.028 523.748 835.739 524.93 835.739C525.612 835.739 526.285 835.852 526.95 836.08C527.614 836.307 528.219 836.676 528.765 837.188C529.31 837.693 529.745 838.364 530.069 839.199C530.393 840.034 530.555 841.062 530.555 842.284V843.136H520.464V841.398H528.509C528.509 840.659 528.362 840 528.066 839.42C527.776 838.841 527.362 838.384 526.822 838.048C526.288 837.713 525.657 837.545 524.93 837.545C524.129 837.545 523.435 837.744 522.85 838.142C522.271 838.534 521.825 839.045 521.512 839.676C521.2 840.307 521.043 840.983 521.043 841.705V842.864C521.043 843.852 521.214 844.69 521.555 845.378C521.901 846.06 522.381 846.58 522.995 846.938C523.609 847.29 524.322 847.466 525.134 847.466C525.663 847.466 526.14 847.392 526.566 847.244C526.998 847.091 527.37 846.864 527.683 846.562C527.995 846.256 528.237 845.875 528.407 845.42L530.35 845.966C530.146 846.625 529.802 847.205 529.319 847.705C528.836 848.199 528.239 848.585 527.529 848.864C526.819 849.136 526.021 849.273 525.134 849.273ZM526.6 834.341L524.827 831.955L523.055 834.341H521.146V834.205L523.907 830.659H525.748L528.509 834.205V834.341H526.6ZM535.626 841.125V849H533.614V835.909H535.558V837.955H535.728C536.035 837.29 536.501 836.756 537.126 836.352C537.751 835.943 538.558 835.739 539.546 835.739C540.433 835.739 541.208 835.92 541.873 836.284C542.538 836.642 543.055 837.188 543.424 837.92C543.793 838.648 543.978 839.568 543.978 840.682V849H541.967V840.818C541.967 839.79 541.7 838.989 541.165 838.415C540.631 837.835 539.898 837.545 538.967 837.545C538.325 837.545 537.751 837.685 537.245 837.963C536.745 838.241 536.35 838.648 536.06 839.182C535.771 839.716 535.626 840.364 535.626 841.125ZM554.369 849V847.466L560.131 841.159C560.807 840.42 561.364 839.778 561.801 839.233C562.239 838.682 562.563 838.165 562.773 837.682C562.989 837.193 563.097 836.682 563.097 836.148C563.097 835.534 562.949 835.003 562.653 834.554C562.364 834.105 561.966 833.759 561.46 833.514C560.955 833.27 560.386 833.148 559.756 833.148C559.085 833.148 558.5 833.287 558 833.565C557.506 833.838 557.122 834.222 556.849 834.716C556.582 835.21 556.449 835.79 556.449 836.455H554.438C554.438 835.432 554.673 834.534 555.145 833.761C555.616 832.989 556.259 832.386 557.071 831.955C557.889 831.523 558.807 831.307 559.824 831.307C560.847 831.307 561.753 831.523 562.543 831.955C563.332 832.386 563.952 832.969 564.401 833.702C564.849 834.435 565.074 835.25 565.074 836.148C565.074 836.79 564.957 837.418 564.724 838.031C564.497 838.639 564.099 839.318 563.531 840.068C562.969 840.812 562.188 841.722 561.188 842.795L557.267 846.989V847.125H565.381V849H554.369ZM574.594 849.239C573.31 849.239 572.216 848.889 571.312 848.19C570.409 847.486 569.719 846.466 569.241 845.131C568.764 843.79 568.526 842.17 568.526 840.273C568.526 838.386 568.764 836.776 569.241 835.44C569.724 834.099 570.418 833.077 571.321 832.372C572.23 831.662 573.321 831.307 574.594 831.307C575.866 831.307 576.955 831.662 577.858 832.372C578.767 833.077 579.46 834.099 579.938 835.44C580.42 836.776 580.662 838.386 580.662 840.273C580.662 842.17 580.423 843.79 579.946 845.131C579.469 846.466 578.778 847.486 577.875 848.19C576.972 848.889 575.878 849.239 574.594 849.239ZM574.594 847.364C575.866 847.364 576.855 846.75 577.56 845.523C578.264 844.295 578.616 842.545 578.616 840.273C578.616 838.761 578.455 837.474 578.131 836.412C577.813 835.349 577.352 834.54 576.75 833.983C576.153 833.426 575.435 833.148 574.594 833.148C573.332 833.148 572.347 833.77 571.636 835.014C570.926 836.253 570.571 838.006 570.571 840.273C570.571 841.784 570.73 843.068 571.048 844.125C571.366 845.182 571.824 845.986 572.42 846.537C573.023 847.088 573.747 847.364 574.594 847.364ZM583.901 849V847.466L589.662 841.159C590.338 840.42 590.895 839.778 591.332 839.233C591.77 838.682 592.094 838.165 592.304 837.682C592.52 837.193 592.628 836.682 592.628 836.148C592.628 835.534 592.48 835.003 592.185 834.554C591.895 834.105 591.497 833.759 590.991 833.514C590.486 833.27 589.918 833.148 589.287 833.148C588.616 833.148 588.031 833.287 587.531 833.565C587.037 833.838 586.653 834.222 586.381 834.716C586.114 835.21 585.98 835.79 585.98 836.455H583.969C583.969 835.432 584.205 834.534 584.676 833.761C585.148 832.989 585.79 832.386 586.602 831.955C587.42 831.523 588.338 831.307 589.355 831.307C590.378 831.307 591.284 831.523 592.074 831.955C592.864 832.386 593.483 832.969 593.932 833.702C594.381 834.435 594.605 835.25 594.605 836.148C594.605 836.79 594.489 837.418 594.256 838.031C594.028 838.639 593.631 839.318 593.062 840.068C592.5 840.812 591.719 841.722 590.719 842.795L586.798 846.989V847.125H594.912V849H583.901ZM604.33 849.239C603.205 849.239 602.202 849.045 601.321 848.659C600.446 848.273 599.75 847.736 599.233 847.048C598.722 846.355 598.443 845.551 598.398 844.636H600.545C600.591 845.199 600.784 845.685 601.125 846.094C601.466 846.497 601.912 846.81 602.463 847.031C603.014 847.253 603.625 847.364 604.295 847.364C605.045 847.364 605.71 847.233 606.29 846.972C606.869 846.71 607.324 846.347 607.653 845.881C607.983 845.415 608.148 844.875 608.148 844.261C608.148 843.619 607.989 843.054 607.67 842.565C607.352 842.071 606.886 841.685 606.273 841.406C605.659 841.128 604.909 840.989 604.023 840.989H602.625V839.114H604.023C604.716 839.114 605.324 838.989 605.847 838.739C606.375 838.489 606.787 838.136 607.082 837.682C607.384 837.227 607.534 836.693 607.534 836.08C607.534 835.489 607.403 834.974 607.142 834.537C606.881 834.099 606.511 833.759 606.034 833.514C605.563 833.27 605.006 833.148 604.364 833.148C603.761 833.148 603.193 833.259 602.659 833.48C602.131 833.696 601.699 834.011 601.364 834.426C601.028 834.835 600.847 835.33 600.818 835.909H598.773C598.807 834.994 599.082 834.193 599.599 833.506C600.116 832.812 600.793 832.273 601.628 831.886C602.469 831.5 603.392 831.307 604.398 831.307C605.477 831.307 606.403 831.526 607.176 831.963C607.949 832.395 608.543 832.966 608.957 833.676C609.372 834.386 609.58 835.153 609.58 835.977C609.58 836.96 609.321 837.798 608.804 838.491C608.293 839.185 607.597 839.665 606.716 839.932V840.068C607.818 840.25 608.679 840.719 609.298 841.474C609.918 842.224 610.227 843.153 610.227 844.261C610.227 845.21 609.969 846.062 609.452 846.818C608.94 847.568 608.241 848.159 607.355 848.591C606.469 849.023 605.46 849.239 604.33 849.239Z" fill="#24CBFF"/>
</svg>
