<svg width="100%" viewBox="0 0 375 812" fill="none" xmlns="http://www.w3.org/2000/svg">
<path d="M26 197.248C25.8933 198.229 25.5467 199.099 24.96 199.856C24.384 200.603 23.6267 201.184 22.688 201.6C21.7493 202.016 20.6773 202.224 19.472 202.224C18.128 202.224 16.9493 201.963 15.936 201.44C14.9227 200.917 14.1333 200.192 13.568 199.264C13.0027 198.325 12.72 197.237 12.72 196C12.72 194.763 13.0027 193.68 13.568 192.752C14.1333 191.813 14.9227 191.083 15.936 190.56C16.9493 190.037 18.128 189.776 19.472 189.776C20.6773 189.776 21.7493 189.984 22.688 190.4C23.6267 190.816 24.384 191.397 24.96 192.144C25.5467 192.891 25.8933 193.76 26 194.752H23.872C23.7547 194.112 23.4987 193.563 23.104 193.104C22.72 192.645 22.2187 192.293 21.6 192.048C20.9813 191.792 20.2667 191.664 19.456 191.664C18.5173 191.664 17.7013 191.84 17.008 192.192C16.3253 192.544 15.7973 193.045 15.424 193.696C15.0507 194.347 14.864 195.115 14.864 196C14.864 196.885 15.0507 197.653 15.424 198.304C15.7973 198.955 16.3253 199.456 17.008 199.808C17.7013 200.16 18.5173 200.336 19.456 200.336C20.2667 200.336 20.9813 200.213 21.6 199.968C22.2187 199.723 22.72 199.371 23.104 198.912C23.4987 198.443 23.7547 197.888 23.872 197.248H26ZM27.9378 190H30.0498V202H27.9378V190ZM37.6978 190H39.8098V202H37.6978V190ZM29.0738 195.024H38.7058V196.88H29.0738V195.024ZM44.1003 199.248V197.504H52.4843V199.248H44.1003ZM49.6683 190L55.4283 202H53.1723L47.9403 190.8H48.7563L43.5243 202H41.2683L47.0283 190H49.6683ZM44.9003 186.56H46.5643C46.6923 186.933 46.9003 187.227 47.1883 187.44C47.4869 187.643 47.8709 187.744 48.3403 187.744C48.8096 187.744 49.1936 187.643 49.4923 187.44C49.7909 187.227 50.0043 186.933 50.1323 186.56H51.7963C51.5936 187.392 51.1883 188.027 50.5803 188.464C49.9723 188.891 49.2256 189.104 48.3403 189.104C47.4656 189.104 46.7189 188.891 46.1003 188.464C45.4923 188.027 45.0923 187.392 44.9003 186.56ZM73.0349 190V202H71.0189V190.64L71.6749 190.672L66.0909 202H63.8349L58.2509 190.688L58.9069 190.656V202H56.8909V190H60.1229L65.4989 201.088H64.4429L69.8029 190H73.0349ZM79.2174 198.096H81.3614C81.4254 198.576 81.6227 198.997 81.9534 199.36C82.2947 199.723 82.7427 200.005 83.2974 200.208C83.852 200.4 84.492 200.496 85.2174 200.496C86.2947 200.496 87.148 200.331 87.7774 200C88.4067 199.659 88.7214 199.2 88.7214 198.624C88.7214 198.155 88.54 197.803 88.1774 197.568C87.8147 197.333 87.1587 197.157 86.2094 197.04L83.6174 196.704C82.1667 196.512 81.1107 196.155 80.4494 195.632C79.7987 195.099 79.4734 194.347 79.4734 193.376C79.4734 192.64 79.692 192.005 80.1294 191.472C80.5774 190.928 81.2067 190.512 82.0174 190.224C82.828 189.925 83.7774 189.776 84.8654 189.776C85.9427 189.776 86.8974 189.936 87.7294 190.256C88.5614 190.576 89.2227 191.024 89.7134 191.6C90.2147 192.165 90.4867 192.832 90.5294 193.6H88.3854C88.332 193.173 88.1507 192.805 87.8414 192.496C87.5427 192.187 87.1374 191.947 86.6254 191.776C86.1134 191.595 85.5107 191.504 84.8174 191.504C83.836 191.504 83.052 191.664 82.4654 191.984C81.8787 192.304 81.5854 192.741 81.5854 193.296C81.5854 193.723 81.756 194.053 82.0974 194.288C82.4494 194.512 83.0574 194.683 83.9214 194.8L86.5454 195.168C87.6227 195.317 88.4707 195.52 89.0894 195.776C89.7187 196.021 90.1667 196.357 90.4334 196.784C90.7 197.2 90.8334 197.739 90.8334 198.4C90.8334 199.168 90.5987 199.84 90.1294 200.416C89.66 200.992 88.9987 201.44 88.1454 201.76C87.3027 202.069 86.316 202.224 85.1854 202.224C84.0334 202.224 83.0147 202.053 82.1294 201.712C81.2547 201.36 80.5614 200.875 80.0494 200.256C79.5374 199.637 79.26 198.917 79.2174 198.096ZM99.0371 202.224C97.6718 202.224 96.4718 201.963 95.4371 201.44C94.4025 200.917 93.5971 200.192 93.0211 199.264C92.4451 198.325 92.1571 197.237 92.1571 196C92.1571 194.763 92.4451 193.68 93.0211 192.752C93.5971 191.813 94.4025 191.083 95.4371 190.56C96.4718 190.037 97.6718 189.776 99.0371 189.776C100.402 189.776 101.602 190.037 102.637 190.56C103.672 191.083 104.477 191.813 105.053 192.752C105.629 193.68 105.917 194.763 105.917 196C105.917 197.237 105.629 198.325 105.053 199.264C104.477 200.192 103.672 200.917 102.637 201.44C101.602 201.963 100.402 202.224 99.0371 202.224ZM99.0371 200.336C100.008 200.336 100.845 200.16 101.549 199.808C102.253 199.456 102.797 198.955 103.181 198.304C103.576 197.653 103.773 196.885 103.773 196C103.773 195.115 103.576 194.347 103.181 193.696C102.797 193.045 102.253 192.544 101.549 192.192C100.845 191.84 100.008 191.664 99.0371 191.664C98.0771 191.664 97.2398 191.84 96.5251 192.192C95.8211 192.544 95.2718 193.045 94.8771 193.696C94.4931 194.347 94.3011 195.115 94.3011 196C94.3011 196.885 94.4931 197.653 94.8771 198.304C95.2718 198.955 95.8211 199.456 96.5251 199.808C97.2398 200.16 98.0771 200.336 99.0371 200.336ZM99.9171 186.592H102.381L99.7571 189.024H97.5811L99.9171 186.592ZM120.625 197.248C120.518 198.229 120.172 199.099 119.585 199.856C119.009 200.603 118.252 201.184 117.313 201.6C116.374 202.016 115.302 202.224 114.097 202.224C112.753 202.224 111.574 201.963 110.561 201.44C109.548 200.917 108.758 200.192 108.193 199.264C107.628 198.325 107.345 197.237 107.345 196C107.345 194.763 107.628 193.68 108.193 192.752C108.758 191.813 109.548 191.083 110.561 190.56C111.574 190.037 112.753 189.776 114.097 189.776C115.302 189.776 116.374 189.984 117.313 190.4C118.252 190.816 119.009 191.397 119.585 192.144C120.172 192.891 120.518 193.76 120.625 194.752H118.497C118.38 194.112 118.124 193.563 117.729 193.104C117.345 192.645 116.844 192.293 116.225 192.048C115.606 191.792 114.892 191.664 114.081 191.664C113.142 191.664 112.326 191.84 111.633 192.192C110.95 192.544 110.422 193.045 110.049 193.696C109.676 194.347 109.489 195.115 109.489 196C109.489 196.885 109.676 197.653 110.049 198.304C110.422 198.955 110.95 199.456 111.633 199.808C112.326 200.16 113.142 200.336 114.081 200.336C114.892 200.336 115.606 200.213 116.225 199.968C116.844 199.723 117.345 199.371 117.729 198.912C118.124 198.443 118.38 197.888 118.497 197.248H120.625ZM126.061 198.096H128.205C128.269 198.576 128.466 198.997 128.797 199.36C129.138 199.723 129.586 200.005 130.141 200.208C130.696 200.4 131.336 200.496 132.061 200.496C133.138 200.496 133.992 200.331 134.621 200C135.25 199.659 135.565 199.2 135.565 198.624C135.565 198.155 135.384 197.803 135.021 197.568C134.658 197.333 134.002 197.157 133.053 197.04L130.461 196.704C129.01 196.512 127.954 196.155 127.293 195.632C126.642 195.099 126.317 194.347 126.317 193.376C126.317 192.64 126.536 192.005 126.973 191.472C127.421 190.928 128.05 190.512 128.861 190.224C129.672 189.925 130.621 189.776 131.709 189.776C132.786 189.776 133.741 189.936 134.573 190.256C135.405 190.576 136.066 191.024 136.557 191.6C137.058 192.165 137.33 192.832 137.373 193.6H135.229C135.176 193.173 134.994 192.805 134.685 192.496C134.386 192.187 133.981 191.947 133.469 191.776C132.957 191.595 132.354 191.504 131.661 191.504C130.68 191.504 129.896 191.664 129.309 191.984C128.722 192.304 128.429 192.741 128.429 193.296C128.429 193.723 128.6 194.053 128.941 194.288C129.293 194.512 129.901 194.683 130.765 194.8L133.389 195.168C134.466 195.317 135.314 195.52 135.933 195.776C136.562 196.021 137.01 196.357 137.277 196.784C137.544 197.2 137.677 197.739 137.677 198.4C137.677 199.168 137.442 199.84 136.973 200.416C136.504 200.992 135.842 201.44 134.989 201.76C134.146 202.069 133.16 202.224 132.029 202.224C130.877 202.224 129.858 202.053 128.973 201.712C128.098 201.36 127.405 200.875 126.893 200.256C126.381 199.637 126.104 198.917 126.061 198.096ZM141.593 196.848C141.593 197.563 141.737 198.181 142.025 198.704C142.313 199.227 142.724 199.632 143.257 199.92C143.801 200.197 144.446 200.336 145.193 200.336C145.95 200.336 146.596 200.197 147.129 199.92C147.662 199.632 148.073 199.227 148.361 198.704C148.649 198.181 148.793 197.563 148.793 196.848V190H150.905V196.928C150.905 197.984 150.665 198.912 150.185 199.712C149.705 200.501 149.038 201.12 148.185 201.568C147.332 202.005 146.334 202.224 145.193 202.224C144.062 202.224 143.065 202.005 142.201 201.568C141.348 201.12 140.681 200.501 140.201 199.712C139.721 198.912 139.481 197.984 139.481 196.928V190H141.593V196.848ZM153.385 189.28C153.385 189.877 153.145 190.357 152.665 190.72C152.185 191.072 151.534 191.248 150.713 191.248C150.681 191.248 150.644 191.248 150.601 191.248C150.558 191.248 150.526 191.248 150.505 191.248V190C150.526 190 150.537 190 150.537 190C150.537 190 150.542 190 150.553 190C150.905 190 151.182 189.915 151.385 189.744C151.588 189.573 151.689 189.344 151.689 189.056C151.689 188.885 151.652 188.699 151.577 188.496C151.513 188.283 151.417 188.085 151.289 187.904H152.969C153.246 188.341 153.385 188.8 153.385 189.28ZM146.105 186.592H148.569L145.945 189.024H143.769L146.105 186.592ZM166.594 197.248C166.487 198.229 166.14 199.099 165.554 199.856C164.978 200.603 164.22 201.184 163.282 201.6C162.343 202.016 161.271 202.224 160.066 202.224C158.722 202.224 157.543 201.963 156.53 201.44C155.516 200.917 154.727 200.192 154.162 199.264C153.596 198.325 153.314 197.237 153.314 196C153.314 194.763 153.596 193.68 154.162 192.752C154.727 191.813 155.516 191.083 156.53 190.56C157.543 190.037 158.722 189.776 160.066 189.776C161.271 189.776 162.343 189.984 163.282 190.4C164.22 190.816 164.978 191.397 165.554 192.144C166.14 192.891 166.487 193.76 166.594 194.752H164.466C164.348 194.112 164.092 193.563 163.698 193.104C163.314 192.645 162.812 192.293 162.194 192.048C161.575 191.792 160.86 191.664 160.05 191.664C159.111 191.664 158.295 191.84 157.602 192.192C156.919 192.544 156.391 193.045 156.018 193.696C155.644 194.347 155.458 195.115 155.458 196C155.458 196.885 155.644 197.653 156.018 198.304C156.391 198.955 156.919 199.456 157.602 199.808C158.295 200.16 159.111 200.336 160.05 200.336C160.86 200.336 161.575 200.213 162.194 199.968C162.812 199.723 163.314 199.371 163.698 198.912C164.092 198.443 164.348 197.888 164.466 197.248H166.594ZM172.766 202V190H174.878V200.224L174.238 199.824L182.27 190H184.558L174.654 202H172.766ZM178.478 195.968L179.966 194.512L184.734 202H182.318L178.478 195.968ZM186.078 190H188.19V202H186.078V190ZM195.838 190H197.95V202H195.838V190ZM187.214 195.024H196.846V196.88H187.214V195.024ZM206.881 202.224C205.516 202.224 204.316 201.963 203.281 201.44C202.246 200.917 201.441 200.192 200.865 199.264C200.289 198.325 200.001 197.237 200.001 196C200.001 194.763 200.289 193.68 200.865 192.752C201.441 191.813 202.246 191.083 203.281 190.56C204.316 190.037 205.516 189.776 206.881 189.776C208.246 189.776 209.446 190.037 210.481 190.56C211.516 191.083 212.321 191.813 212.897 192.752C213.473 193.68 213.761 194.763 213.761 196C213.761 197.237 213.473 198.325 212.897 199.264C212.321 200.192 211.516 200.917 210.481 201.44C209.446 201.963 208.246 202.224 206.881 202.224ZM206.881 200.336C207.852 200.336 208.689 200.16 209.393 199.808C210.097 199.456 210.641 198.955 211.025 198.304C211.42 197.653 211.617 196.885 211.617 196C211.617 195.115 211.42 194.347 211.025 193.696C210.641 193.045 210.097 192.544 209.393 192.192C208.689 191.84 207.852 191.664 206.881 191.664C205.921 191.664 205.084 191.84 204.369 192.192C203.665 192.544 203.116 193.045 202.721 193.696C202.337 194.347 202.145 195.115 202.145 196C202.145 196.885 202.337 197.653 202.721 198.304C203.116 198.955 203.665 199.456 204.369 199.808C205.084 200.16 205.921 200.336 206.881 200.336ZM225.287 195.12V196.88H216.903V195.12H225.287ZM218.295 196L217.447 201.36L216.439 200.176H225.751V202H215.287L216.247 196L215.287 190H225.671V191.824H216.439L217.447 190.64L218.295 196ZM220.007 189.248L219.527 188.432C220.039 188.347 220.413 188.24 220.647 188.112C220.882 187.984 220.999 187.84 220.999 187.68C220.999 187.531 220.903 187.424 220.711 187.36C220.53 187.285 220.269 187.248 219.927 187.248C219.661 187.248 219.415 187.264 219.191 187.296C218.978 187.328 218.754 187.371 218.519 187.424V186.176C218.722 186.123 218.983 186.069 219.303 186.016C219.634 185.963 219.981 185.936 220.343 185.936C221.133 185.936 221.741 186.059 222.167 186.304C222.605 186.539 222.823 186.907 222.823 187.408C222.823 187.867 222.599 188.251 222.151 188.56C221.714 188.859 220.999 189.088 220.007 189.248ZM235.497 190.976H237.609V202H235.497V190.976ZM230.537 190H242.569V191.856H230.537V190ZM249.787 202.224C248.422 202.224 247.222 201.963 246.187 201.44C245.152 200.917 244.347 200.192 243.771 199.264C243.195 198.325 242.907 197.237 242.907 196C242.907 194.763 243.195 193.68 243.771 192.752C244.347 191.813 245.152 191.083 246.187 190.56C247.222 190.037 248.422 189.776 249.787 189.776C251.152 189.776 252.352 190.037 253.387 190.56C254.422 191.083 255.227 191.813 255.803 192.752C256.379 193.68 256.667 194.763 256.667 196C256.667 197.237 256.379 198.325 255.803 199.264C255.227 200.192 254.422 200.917 253.387 201.44C252.352 201.963 251.152 202.224 249.787 202.224ZM249.787 200.336C250.758 200.336 251.595 200.16 252.299 199.808C253.003 199.456 253.547 198.955 253.931 198.304C254.326 197.653 254.523 196.885 254.523 196C254.523 195.115 254.326 194.347 253.931 193.696C253.547 193.045 253.003 192.544 252.299 192.192C251.595 191.84 250.758 191.664 249.787 191.664C248.827 191.664 247.99 191.84 247.275 192.192C246.571 192.544 246.022 193.045 245.627 193.696C245.243 194.347 245.051 195.115 245.051 196C245.051 196.885 245.243 197.653 245.627 198.304C246.022 198.955 246.571 199.456 247.275 199.808C247.99 200.16 248.827 200.336 249.787 200.336ZM259.663 199.248V197.504H268.047V199.248H259.663ZM265.231 190L270.991 202H268.735L263.503 190.8H264.319L259.087 202H256.831L262.591 190H265.231ZM262.799 186.592L265.135 189.024H262.959L260.335 186.592H262.799ZM283.573 200.72L282.709 200.816V190H284.757V202H282.069L273.653 191.184L274.501 191.088V202H272.453V190H275.205L283.573 200.72ZM297.096 190C298.461 190 299.656 190.251 300.68 190.752C301.715 191.253 302.52 191.957 303.096 192.864C303.672 193.76 303.96 194.805 303.96 196C303.96 197.195 303.672 198.245 303.096 199.152C302.52 200.048 301.715 200.747 300.68 201.248C299.656 201.749 298.461 202 297.096 202H291.672V190H297.096ZM293.784 201.264L292.616 200.144H297.24C298.157 200.144 298.957 199.973 299.64 199.632C300.333 199.28 300.867 198.795 301.24 198.176C301.624 197.547 301.816 196.821 301.816 196C301.816 195.168 301.624 194.443 301.24 193.824C300.867 193.205 300.333 192.725 299.64 192.384C298.957 192.032 298.157 191.856 297.24 191.856H292.616L293.784 190.736V201.264ZM306.016 190H308.128V202H306.016V190ZM320.397 195.12V196.88H312.013V195.12H320.397ZM313.405 196L312.557 201.36L311.549 200.176H320.861V202H310.397L311.357 196L310.397 190H320.781V191.824H311.549L312.557 190.64L313.405 196ZM315.997 205.296C315.602 205.296 315.277 205.184 315.021 204.96C314.765 204.747 314.637 204.464 314.637 204.112C314.637 203.76 314.765 203.472 315.021 203.248C315.277 203.035 315.602 202.928 315.997 202.928C316.402 202.928 316.727 203.035 316.973 203.248C317.229 203.472 317.357 203.76 317.357 204.112C317.357 204.464 317.229 204.747 316.973 204.96C316.727 205.184 316.402 205.296 315.997 205.296ZM314.477 186.592H316.813L319.181 189.024H317.277L315.197 187.36H316.093L314.013 189.024H312.125L314.477 186.592ZM334.183 200.72L333.319 200.816V190H335.367V202H332.679L324.263 191.184L325.111 191.088V202H323.063V190H325.815L334.183 200.72Z" fill="white"/>
<path d="M40.448 232.24C40.2133 234.267 39.4987 236.059 38.304 237.616C37.1307 239.152 35.5733 240.347 33.632 241.2C31.712 242.053 29.5147 242.48 27.04 242.48C24.3093 242.48 21.9093 241.957 19.84 240.912C17.792 239.867 16.192 238.416 15.04 236.56C13.888 234.683 13.312 232.496 13.312 230C13.312 227.504 13.888 225.328 15.04 223.472C16.192 221.595 17.792 220.133 19.84 219.088C21.9093 218.043 24.3093 217.52 27.04 217.52C29.5147 217.52 31.712 217.947 33.632 218.8C35.5733 219.653 37.1307 220.848 38.304 222.384C39.4987 223.92 40.2133 225.712 40.448 227.76H34.976C34.7627 226.629 34.304 225.659 33.6 224.848C32.896 224.016 31.9893 223.376 30.88 222.928C29.7707 222.48 28.48 222.256 27.008 222.256C25.3227 222.256 23.8613 222.576 22.624 223.216C21.408 223.835 20.4693 224.731 19.808 225.904C19.1467 227.056 18.816 228.421 18.816 230C18.816 231.579 19.1467 232.955 19.808 234.128C20.4693 235.28 21.408 236.176 22.624 236.816C23.8613 237.435 25.3227 237.744 27.008 237.744C28.48 237.744 29.7707 237.531 30.88 237.104C31.9893 236.656 32.896 236.027 33.6 235.216C34.304 234.384 34.7627 233.392 34.976 232.24H40.448ZM43.9953 218H49.4353V242H43.9953V218ZM63.1953 218H68.6353V242H63.1953V218ZM46.9713 227.472H65.5953V232.24H46.9713V227.472ZM86.3898 242.48C83.5951 242.48 81.1418 241.957 79.0298 240.912C76.9391 239.867 75.3071 238.416 74.1338 236.56C72.9604 234.683 72.3738 232.496 72.3738 230C72.3738 227.504 72.9604 225.328 74.1338 223.472C75.3071 221.595 76.9391 220.133 79.0298 219.088C81.1418 218.043 83.5951 217.52 86.3898 217.52C89.1844 217.52 91.6271 218.043 93.7178 219.088C95.8298 220.133 97.4724 221.595 98.6458 223.472C99.8191 225.328 100.406 227.504 100.406 230C100.406 232.496 99.8191 234.683 98.6458 236.56C97.4724 238.416 95.8298 239.867 93.7178 240.912C91.6271 241.957 89.1844 242.48 86.3898 242.48ZM86.3898 237.648C88.1391 237.648 89.6431 237.339 90.9018 236.72C92.1818 236.101 93.1631 235.216 93.8458 234.064C94.5498 232.912 94.9018 231.557 94.9018 230C94.9018 228.443 94.5498 227.088 93.8458 225.936C93.1631 224.784 92.1818 223.899 90.9018 223.28C89.6431 222.661 88.1391 222.352 86.3898 222.352C84.6618 222.352 83.1578 222.661 81.8778 223.28C80.5978 223.899 79.6058 224.784 78.9018 225.936C78.2191 227.088 77.8778 228.443 77.8778 230C77.8778 231.557 78.2191 232.912 78.9018 234.064C79.6058 235.216 80.5978 236.101 81.8778 236.72C83.1578 237.339 84.6618 237.648 86.3898 237.648ZM118.925 220.432H124.333V242H118.925V220.432ZM109.357 218H133.869V222.8H109.357V218ZM142.022 231.472C142.022 232.752 142.267 233.851 142.758 234.768C143.248 235.685 143.963 236.4 144.902 236.912C145.862 237.403 147.014 237.648 148.358 237.648C149.723 237.648 150.875 237.403 151.814 236.912C152.752 236.4 153.467 235.685 153.958 234.768C154.448 233.851 154.694 232.752 154.694 231.472V218H160.134V231.728C160.134 233.883 159.643 235.771 158.662 237.392C157.68 238.992 156.304 240.24 154.534 241.136C152.763 242.032 150.704 242.48 148.358 242.48C146.011 242.48 143.952 242.032 142.182 241.136C140.432 240.24 139.056 238.992 138.054 237.392C137.072 235.771 136.582 233.883 136.582 231.728V218H142.022V231.472ZM165.606 216.848C165.606 218.128 165.072 219.152 164.006 219.92C162.939 220.667 161.488 221.04 159.654 221.04C159.59 221.04 159.504 221.04 159.398 221.04C159.291 221.04 159.206 221.04 159.142 221.04V218C159.184 218 159.206 218 159.206 218C159.206 218 159.216 218 159.238 218C159.899 218 160.422 217.84 160.806 217.52C161.19 217.179 161.382 216.731 161.382 216.176C161.382 215.835 161.307 215.461 161.158 215.056C161.008 214.629 160.795 214.224 160.518 213.84H164.646C165.286 214.8 165.606 215.803 165.606 216.848ZM178.92 242.48C176.147 242.48 173.704 241.957 171.592 240.912C169.502 239.867 167.87 238.416 166.696 236.56C165.523 234.683 164.936 232.496 164.936 230C164.936 227.504 165.523 225.328 166.696 223.472C167.87 221.595 169.502 220.133 171.592 219.088C173.704 218.043 176.147 217.52 178.92 217.52C179.774 217.52 180.531 217.563 181.192 217.648C181.854 217.712 182.462 217.808 183.016 217.936C183.507 218.043 183.987 218.139 184.456 218.224C184.926 218.288 185.406 218.32 185.896 218.32C187.006 218.32 187.795 218.117 188.264 217.712C188.734 217.285 188.968 216.773 188.968 216.176C188.968 215.813 188.894 215.429 188.744 215.024C188.616 214.619 188.403 214.213 188.104 213.808H192.456C192.755 214.299 192.979 214.811 193.128 215.344C193.299 215.877 193.384 216.4 193.384 216.912C193.384 217.979 193.011 218.885 192.264 219.632C191.539 220.357 190.462 220.837 189.032 221.072C190.27 222.139 191.23 223.429 191.912 224.944C192.595 226.459 192.936 228.144 192.936 230C192.936 232.496 192.35 234.683 191.176 236.56C190.003 238.416 188.36 239.867 186.248 240.912C184.158 241.957 181.715 242.48 178.92 242.48ZM178.92 237.648C180.691 237.648 182.206 237.339 183.464 236.72C184.723 236.101 185.694 235.216 186.376 234.064C187.08 232.912 187.432 231.557 187.432 230C187.432 228.443 187.08 227.088 186.376 225.936C185.694 224.784 184.723 223.899 183.464 223.28C182.206 222.661 180.691 222.352 178.92 222.352C177.192 222.352 175.688 222.661 174.408 223.28C173.15 223.899 172.168 224.784 171.464 225.936C170.782 227.088 170.44 228.443 170.44 230C170.44 231.557 170.782 232.912 171.464 234.064C172.168 235.216 173.15 236.101 174.408 236.72C175.688 237.339 177.192 237.648 178.92 237.648ZM218.985 238.416L217.097 238.704V218H222.377V242H215.497L200.137 221.296L201.993 221.008V242H196.745V218H203.785L218.985 238.416ZM251.565 231.6C251.543 233.051 251.255 234.437 250.701 235.76C250.167 237.061 249.399 238.224 248.397 239.248C247.394 240.251 246.157 241.04 244.685 241.616C243.213 242.192 241.506 242.48 239.565 242.48C237.687 242.48 235.927 242.203 234.285 241.648C232.663 241.072 231.234 240.251 229.997 239.184C228.781 238.117 227.831 236.816 227.149 235.28C226.466 233.723 226.125 231.963 226.125 230C226.125 228.037 226.466 226.288 227.149 224.752C227.853 223.195 228.823 221.883 230.061 220.816C231.298 219.749 232.749 218.939 234.413 218.384C236.077 217.808 237.89 217.52 239.853 217.52C242.413 217.52 244.631 217.925 246.509 218.736C248.386 219.525 249.901 220.624 251.053 222.032C252.226 223.44 252.951 225.051 253.229 226.864H247.757C247.543 225.883 247.074 225.04 246.349 224.336C245.645 223.632 244.738 223.088 243.628 222.704C242.541 222.32 241.282 222.128 239.853 222.128C238.167 222.128 236.706 222.437 235.469 223.056C234.253 223.653 233.303 224.539 232.621 225.712C231.959 226.885 231.629 228.315 231.629 230C231.629 231.685 231.981 233.125 232.685 234.32C233.389 235.515 234.391 236.432 235.693 237.072C236.994 237.691 238.53 238 240.301 238C242.029 238 243.543 237.733 244.845 237.2C246.146 236.645 247.17 235.877 247.917 234.896C248.685 233.893 249.122 232.709 249.229 231.344L251.565 231.6ZM241.037 233.808V229.872H253.485V242H249.581L248.845 232.272L249.965 233.808H241.037ZM271.467 218V239.6L269.003 237.2H287.019V242H266.027V218H271.467ZM293.994 236.944V232.528H310.634V236.944H293.994ZM305.93 218L317.162 242H311.37L301.546 220.208H303.338L293.514 242H287.722L298.954 218H305.93ZM319.745 218H325.185V242H319.745V218ZM27.84 279.6H25.44L35.232 258H40.992L29.6 282H23.488L12.128 258H17.952L27.84 279.6ZM43.589 258H49.029V282H43.589V258ZM73.7728 267.92V272.08H56.5888V267.92H73.7728ZM60.2368 270L58.6368 280.176L56.2688 277.488H74.7648V282H53.1648L55.0208 270L53.1648 258H74.6048V262.512H56.2688L58.6368 259.824L60.2368 270ZM64.6208 289.232C63.6608 289.232 62.8714 288.976 62.2528 288.464C61.6554 287.973 61.3568 287.312 61.3568 286.48C61.3568 285.627 61.6554 284.944 62.2528 284.432C62.8714 283.941 63.6608 283.696 64.6208 283.696C65.6021 283.696 66.3914 283.941 66.9888 284.432C67.5861 284.944 67.8848 285.627 67.8848 286.48C67.8848 287.312 67.5861 287.973 66.9888 288.464C66.3914 288.976 65.6021 289.232 64.6208 289.232ZM61.1328 250.992H66.9248L71.7248 256.144H67.1488L62.8288 252.816H65.2288L60.9088 256.144H56.3648L61.1328 250.992ZM86.2058 260.432H91.6138V282H86.2058V260.432ZM76.6378 258H101.15V262.8H76.6378V258ZM133.548 278.416L131.66 278.704V258H136.94V282H130.06L114.7 261.296L116.556 261.008V282H111.308V258H118.348L133.548 278.416ZM145.775 276.944V272.528H162.415V276.944H145.775ZM157.711 258L168.943 282H163.151L153.327 260.208H155.119L145.295 282H139.503L150.735 258H157.711ZM205.222 258V282H200.039V259.824L201.415 259.92L191.175 282H185.575L175.335 259.984L176.679 259.856V282H171.527V258H179.879L189.543 279.376H187.207L196.871 258H205.222Z" fill="#24CBFF"/>
<path d="M13.4091 310V298.364H17.4773C18.2879 298.364 18.9564 298.504 19.483 298.784C20.0095 299.061 20.4015 299.434 20.6591 299.903C20.9167 300.369 21.0455 300.886 21.0455 301.455C21.0455 301.955 20.9564 302.367 20.7784 302.693C20.6042 303.019 20.3731 303.277 20.0852 303.466C19.8011 303.655 19.4924 303.795 19.1591 303.886V304C19.5152 304.023 19.8731 304.148 20.233 304.375C20.5928 304.602 20.8939 304.928 21.1364 305.352C21.3788 305.777 21.5 306.295 21.5 306.909C21.5 307.492 21.3674 308.017 21.1023 308.483C20.8371 308.949 20.4186 309.318 19.8466 309.591C19.2746 309.864 18.5303 310 17.6136 310H13.4091ZM14.8182 308.75H17.6136C18.5341 308.75 19.1875 308.572 19.5739 308.216C19.964 307.856 20.1591 307.42 20.1591 306.909C20.1591 306.515 20.0587 306.152 19.858 305.818C19.6572 305.481 19.3712 305.212 19 305.011C18.6288 304.807 18.1894 304.705 17.6818 304.705H14.8182V308.75ZM14.8182 303.477H17.4318C17.8561 303.477 18.2386 303.394 18.5795 303.227C18.9242 303.061 19.197 302.826 19.3977 302.523C19.6023 302.22 19.7045 301.864 19.7045 301.455C19.7045 300.943 19.5265 300.509 19.1705 300.153C18.8144 299.794 18.25 299.614 17.4773 299.614H14.8182V303.477ZM26.2017 310.205C25.6487 310.205 25.1468 310.1 24.696 309.892C24.2453 309.68 23.8873 309.375 23.6222 308.977C23.357 308.576 23.2244 308.091 23.2244 307.523C23.2244 307.023 23.3229 306.617 23.5199 306.307C23.7169 305.992 23.9801 305.746 24.3097 305.568C24.6392 305.39 25.0028 305.258 25.4006 305.17C25.8021 305.08 26.2055 305.008 26.6108 304.955C27.1411 304.886 27.571 304.835 27.9006 304.801C28.2339 304.763 28.4763 304.701 28.6278 304.614C28.7831 304.527 28.8608 304.375 28.8608 304.159V304.114C28.8608 303.553 28.7074 303.117 28.4006 302.807C28.0975 302.496 27.6373 302.341 27.0199 302.341C26.3797 302.341 25.8778 302.481 25.5142 302.761C25.1506 303.042 24.8949 303.341 24.7472 303.659L23.4744 303.205C23.7017 302.674 24.0047 302.261 24.3835 301.966C24.7661 301.667 25.1828 301.458 25.6335 301.341C26.0881 301.22 26.535 301.159 26.9744 301.159C27.2547 301.159 27.5767 301.193 27.9403 301.261C28.3078 301.326 28.6619 301.46 29.0028 301.665C29.3475 301.869 29.6335 302.178 29.8608 302.591C30.0881 303.004 30.2017 303.557 30.2017 304.25V310H28.8608V308.818H28.7926C28.7017 309.008 28.5502 309.21 28.3381 309.426C28.1259 309.642 27.8438 309.826 27.4915 309.977C27.1392 310.129 26.7093 310.205 26.2017 310.205ZM26.4062 309C26.9366 309 27.3835 308.896 27.7472 308.688C28.1146 308.479 28.3911 308.21 28.5767 307.881C28.7661 307.551 28.8608 307.205 28.8608 306.841V305.614C28.804 305.682 28.679 305.744 28.4858 305.801C28.2964 305.854 28.0767 305.902 27.8267 305.943C27.5805 305.981 27.34 306.015 27.1051 306.045C26.8741 306.072 26.6866 306.095 26.5426 306.114C26.1941 306.159 25.8684 306.233 25.5653 306.335C25.2661 306.434 25.0237 306.583 24.8381 306.784C24.6563 306.981 24.5653 307.25 24.5653 307.591C24.5653 308.057 24.7377 308.409 25.0824 308.648C25.4309 308.883 25.8722 309 26.4062 309ZM26.4517 300.091L27.8381 297.455H29.4062L27.6335 300.091H26.4517ZM36.1946 310.182C35.4067 310.182 34.7154 309.994 34.1207 309.619C33.5298 309.244 33.0677 308.72 32.7344 308.045C32.4048 307.371 32.2401 306.583 32.2401 305.682C32.2401 304.773 32.4048 303.979 32.7344 303.301C33.0677 302.623 33.5298 302.097 34.1207 301.722C34.7154 301.347 35.4067 301.159 36.1946 301.159C36.9825 301.159 37.6719 301.347 38.2628 301.722C38.8575 302.097 39.3196 302.623 39.6491 303.301C39.9825 303.979 40.1491 304.773 40.1491 305.682C40.1491 306.583 39.9825 307.371 39.6491 308.045C39.3196 308.72 38.8575 309.244 38.2628 309.619C37.6719 309.994 36.9825 310.182 36.1946 310.182ZM36.1946 308.977C36.7931 308.977 37.2855 308.824 37.6719 308.517C38.0582 308.21 38.3442 307.807 38.5298 307.307C38.7154 306.807 38.8082 306.265 38.8082 305.682C38.8082 305.098 38.7154 304.555 38.5298 304.051C38.3442 303.547 38.0582 303.14 37.6719 302.83C37.2855 302.519 36.7931 302.364 36.1946 302.364C35.5961 302.364 35.1037 302.519 34.7173 302.83C34.331 303.14 34.045 303.547 33.8594 304.051C33.6738 304.555 33.581 305.098 33.581 305.682C33.581 306.265 33.6738 306.807 33.8594 307.307C34.045 307.807 34.331 308.21 34.7173 308.517C35.1037 308.824 35.5961 308.977 36.1946 308.977ZM50.2415 310.182C49.4233 310.182 48.7188 309.989 48.1278 309.602C47.5369 309.216 47.0824 308.684 46.7642 308.006C46.446 307.328 46.2869 306.553 46.2869 305.682C46.2869 304.795 46.4498 304.013 46.7756 303.335C47.1051 302.653 47.5634 302.121 48.1506 301.739C48.7415 301.352 49.4309 301.159 50.2188 301.159C50.8324 301.159 51.3854 301.273 51.8778 301.5C52.3703 301.727 52.7737 302.045 53.0881 302.455C53.4025 302.864 53.5975 303.341 53.6733 303.886H52.3324C52.2301 303.489 52.0028 303.136 51.6506 302.83C51.3021 302.519 50.8324 302.364 50.2415 302.364C49.7188 302.364 49.2604 302.5 48.8665 302.773C48.4763 303.042 48.1714 303.422 47.9517 303.915C47.7358 304.403 47.6278 304.977 47.6278 305.636C47.6278 306.311 47.7339 306.898 47.946 307.398C48.1619 307.898 48.465 308.286 48.8551 308.562C49.2491 308.839 49.7112 308.977 50.2415 308.977C50.59 308.977 50.9062 308.917 51.1903 308.795C51.4744 308.674 51.715 308.5 51.9119 308.273C52.1089 308.045 52.2491 307.773 52.3324 307.455H53.6733C53.5975 307.97 53.41 308.434 53.1108 308.847C52.8153 309.256 52.4233 309.581 51.9347 309.824C51.4498 310.062 50.8854 310.182 50.2415 310.182ZM58.2017 310.205C57.6487 310.205 57.1468 310.1 56.696 309.892C56.2453 309.68 55.8873 309.375 55.6222 308.977C55.357 308.576 55.2244 308.091 55.2244 307.523C55.2244 307.023 55.3229 306.617 55.5199 306.307C55.7169 305.992 55.9801 305.746 56.3097 305.568C56.6392 305.39 57.0028 305.258 57.4006 305.17C57.8021 305.08 58.2055 305.008 58.6108 304.955C59.1411 304.886 59.571 304.835 59.9006 304.801C60.2339 304.763 60.4763 304.701 60.6278 304.614C60.7831 304.527 60.8608 304.375 60.8608 304.159V304.114C60.8608 303.553 60.7074 303.117 60.4006 302.807C60.0975 302.496 59.6373 302.341 59.0199 302.341C58.3797 302.341 57.8778 302.481 57.5142 302.761C57.1506 303.042 56.8949 303.341 56.7472 303.659L55.4744 303.205C55.7017 302.674 56.0047 302.261 56.3835 301.966C56.7661 301.667 57.1828 301.458 57.6335 301.341C58.0881 301.22 58.535 301.159 58.9744 301.159C59.2547 301.159 59.5767 301.193 59.9403 301.261C60.3078 301.326 60.6619 301.46 61.0028 301.665C61.3475 301.869 61.6335 302.178 61.8608 302.591C62.0881 303.004 62.2017 303.557 62.2017 304.25V310H60.8608V308.818H60.7926C60.7017 309.008 60.5502 309.21 60.3381 309.426C60.1259 309.642 59.8438 309.826 59.4915 309.977C59.1392 310.129 58.7093 310.205 58.2017 310.205ZM58.4062 309C58.9366 309 59.3835 308.896 59.7472 308.688C60.1146 308.479 60.3911 308.21 60.5767 307.881C60.7661 307.551 60.8608 307.205 60.8608 306.841V305.614C60.804 305.682 60.679 305.744 60.4858 305.801C60.2964 305.854 60.0767 305.902 59.8267 305.943C59.5805 305.981 59.34 306.015 59.1051 306.045C58.8741 306.072 58.6866 306.095 58.5426 306.114C58.1941 306.159 57.8684 306.233 57.5653 306.335C57.2661 306.434 57.0237 306.583 56.8381 306.784C56.6563 306.981 56.5653 307.25 56.5653 307.591C56.5653 308.057 56.7377 308.409 57.0824 308.648C57.4309 308.883 57.8722 309 58.4062 309ZM58.4517 300.091L59.8381 297.455H61.4062L59.6335 300.091H58.4517ZM68.1946 310.182C67.4067 310.182 66.7154 309.994 66.1207 309.619C65.5298 309.244 65.0677 308.72 64.7344 308.045C64.4048 307.371 64.2401 306.583 64.2401 305.682C64.2401 304.773 64.4048 303.979 64.7344 303.301C65.0677 302.623 65.5298 302.097 66.1207 301.722C66.7154 301.347 67.4067 301.159 68.1946 301.159C68.9825 301.159 69.6719 301.347 70.2628 301.722C70.8575 302.097 71.3196 302.623 71.6491 303.301C71.9825 303.979 72.1491 304.773 72.1491 305.682C72.1491 306.583 71.9825 307.371 71.6491 308.045C71.3196 308.72 70.8575 309.244 70.2628 309.619C69.6719 309.994 68.9825 310.182 68.1946 310.182ZM68.1946 308.977C68.7931 308.977 69.2855 308.824 69.6719 308.517C70.0582 308.21 70.3442 307.807 70.5298 307.307C70.7154 306.807 70.8082 306.265 70.8082 305.682C70.8082 305.098 70.7154 304.555 70.5298 304.051C70.3442 303.547 70.0582 303.14 69.6719 302.83C69.2855 302.519 68.7931 302.364 68.1946 302.364C67.5961 302.364 67.1037 302.519 66.7173 302.83C66.331 303.14 66.045 303.547 65.8594 304.051C65.6738 304.555 65.581 305.098 65.581 305.682C65.581 306.265 65.6738 306.807 65.8594 307.307C66.045 307.807 66.331 308.21 66.7173 308.517C67.1037 308.824 67.5961 308.977 68.1946 308.977ZM82.4915 301.273V302.409H77.9688V301.273H82.4915ZM79.2869 299.182H80.6278V307.5C80.6278 307.879 80.6828 308.163 80.7926 308.352C80.9063 308.538 81.0502 308.663 81.2244 308.727C81.4025 308.788 81.59 308.818 81.7869 308.818C81.9347 308.818 82.0559 308.811 82.1506 308.795C82.2453 308.777 82.321 308.761 82.3778 308.75L82.6506 309.955C82.5597 309.989 82.4328 310.023 82.2699 310.057C82.107 310.095 81.9006 310.114 81.6506 310.114C81.2718 310.114 80.9006 310.032 80.5369 309.869C80.1771 309.706 79.8778 309.458 79.6392 309.125C79.4044 308.792 79.2869 308.371 79.2869 307.864V299.182ZM86.0369 304.75V310H84.696V298.364H86.0369V302.636H86.1506C86.3551 302.186 86.6619 301.828 87.071 301.562C87.4839 301.294 88.0331 301.159 88.7188 301.159C89.3134 301.159 89.8343 301.278 90.2812 301.517C90.7282 301.752 91.0748 302.114 91.321 302.602C91.571 303.087 91.696 303.705 91.696 304.455V310H90.3551V304.545C90.3551 303.852 90.1752 303.316 89.8153 302.938C89.4593 302.555 88.965 302.364 88.3324 302.364C87.893 302.364 87.4991 302.456 87.1506 302.642C86.8059 302.828 86.5331 303.098 86.3324 303.455C86.1354 303.811 86.0369 304.242 86.0369 304.75ZM102.013 300.886H103.195C103.195 301.462 103.119 301.945 102.967 302.335C102.816 302.722 102.551 303.013 102.172 303.21C101.793 303.403 101.263 303.5 100.581 303.5V302.568C101.051 302.568 101.384 302.511 101.581 302.398C101.782 302.28 101.903 302.098 101.945 301.852C101.99 301.602 102.013 301.28 102.013 300.886ZM99.6491 306.432V301.273H100.99V310H99.6491V308.523H99.5582C99.3537 308.966 99.0355 309.343 98.6037 309.653C98.1719 309.96 97.6264 310.114 96.9673 310.114C96.4219 310.114 95.937 309.994 95.5128 309.756C95.0885 309.513 94.7552 309.15 94.5128 308.665C94.2704 308.176 94.1491 307.561 94.1491 306.818V301.273H95.4901V306.727C95.4901 307.364 95.6681 307.871 96.0241 308.25C96.384 308.629 96.8423 308.818 97.3991 308.818C97.7325 308.818 98.0715 308.733 98.4162 308.562C98.7647 308.392 99.0563 308.131 99.2912 307.778C99.5298 307.426 99.6491 306.977 99.6491 306.432ZM111.193 300.614H112.443C112.443 301.477 112.254 302.163 111.875 302.67C111.5 303.178 110.841 303.432 109.898 303.432V302.477C110.277 302.477 110.557 302.4 110.739 302.244C110.924 302.089 111.045 301.871 111.102 301.591C111.163 301.311 111.193 300.985 111.193 300.614ZM107.648 310.182C106.86 310.182 106.169 309.994 105.574 309.619C104.983 309.244 104.521 308.72 104.188 308.045C103.858 307.371 103.693 306.583 103.693 305.682C103.693 304.773 103.858 303.979 104.188 303.301C104.521 302.623 104.983 302.097 105.574 301.722C106.169 301.347 106.86 301.159 107.648 301.159C108.436 301.159 109.125 301.347 109.716 301.722C110.311 302.097 110.773 302.623 111.102 303.301C111.436 303.979 111.602 304.773 111.602 305.682C111.602 306.583 111.436 307.371 111.102 308.045C110.773 308.72 110.311 309.244 109.716 309.619C109.125 309.994 108.436 310.182 107.648 310.182ZM107.648 308.977C108.246 308.977 108.739 308.824 109.125 308.517C109.511 308.21 109.797 307.807 109.983 307.307C110.169 306.807 110.261 306.265 110.261 305.682C110.261 305.098 110.169 304.555 109.983 304.051C109.797 303.547 109.511 303.14 109.125 302.83C108.739 302.519 108.246 302.364 107.648 302.364C107.049 302.364 106.557 302.519 106.17 302.83C105.784 303.14 105.498 303.547 105.312 304.051C105.127 304.555 105.034 305.098 105.034 305.682C105.034 306.265 105.127 306.807 105.312 307.307C105.498 307.807 105.784 308.21 106.17 308.517C106.557 308.824 107.049 308.977 107.648 308.977ZM107.08 300.091L105.307 297.455H106.875L108.261 300.091H107.08ZM115.006 304.75V310H113.665V301.273H114.96V302.636H115.074C115.278 302.193 115.589 301.837 116.006 301.568C116.422 301.295 116.96 301.159 117.619 301.159C118.21 301.159 118.727 301.28 119.17 301.523C119.614 301.761 119.958 302.125 120.205 302.614C120.451 303.098 120.574 303.712 120.574 304.455V310H119.233V304.545C119.233 303.86 119.055 303.326 118.699 302.943C118.343 302.557 117.854 302.364 117.233 302.364C116.805 302.364 116.422 302.456 116.085 302.642C115.752 302.828 115.489 303.098 115.295 303.455C115.102 303.811 115.006 304.242 115.006 304.75ZM126.547 313.455C125.899 313.455 125.342 313.371 124.876 313.205C124.411 313.042 124.022 312.826 123.712 312.557C123.405 312.292 123.161 312.008 122.979 311.705L124.047 310.955C124.168 311.114 124.321 311.295 124.507 311.5C124.693 311.708 124.946 311.888 125.268 312.04C125.594 312.195 126.02 312.273 126.547 312.273C127.251 312.273 127.833 312.102 128.291 311.761C128.75 311.42 128.979 310.886 128.979 310.159V308.386H128.865C128.767 308.545 128.626 308.742 128.445 308.977C128.267 309.208 128.009 309.415 127.672 309.597C127.339 309.775 126.888 309.864 126.32 309.864C125.615 309.864 124.982 309.697 124.422 309.364C123.865 309.03 123.424 308.545 123.098 307.909C122.776 307.273 122.615 306.5 122.615 305.591C122.615 304.697 122.772 303.919 123.087 303.256C123.401 302.589 123.839 302.074 124.399 301.71C124.96 301.343 125.607 301.159 126.342 301.159C126.911 301.159 127.361 301.254 127.695 301.443C128.032 301.629 128.289 301.841 128.467 302.08C128.649 302.314 128.789 302.508 128.888 302.659H129.024V301.273H130.32V310.25C130.32 311 130.149 311.61 129.808 312.08C129.471 312.553 129.017 312.9 128.445 313.119C127.876 313.343 127.244 313.455 126.547 313.455ZM126.501 308.659C127.039 308.659 127.494 308.536 127.865 308.29C128.236 308.044 128.518 307.689 128.712 307.227C128.905 306.765 129.001 306.212 129.001 305.568C129.001 304.939 128.907 304.384 128.717 303.903C128.528 303.422 128.248 303.045 127.876 302.773C127.505 302.5 127.047 302.364 126.501 302.364C125.933 302.364 125.46 302.508 125.081 302.795C124.706 303.083 124.424 303.47 124.234 303.955C124.049 304.439 123.956 304.977 123.956 305.568C123.956 306.174 124.051 306.71 124.24 307.176C124.433 307.638 124.717 308.002 125.092 308.267C125.471 308.528 125.941 308.659 126.501 308.659ZM138.615 304.75V310H137.274V301.273H138.57V302.636H138.683C138.888 302.193 139.198 301.837 139.615 301.568C140.032 301.295 140.57 301.159 141.229 301.159C141.82 301.159 142.337 301.28 142.78 301.523C143.223 301.761 143.568 302.125 143.814 302.614C144.06 303.098 144.183 303.712 144.183 304.455V310H142.842V304.545C142.842 303.86 142.664 303.326 142.308 302.943C141.952 302.557 141.464 302.364 140.842 302.364C140.414 302.364 140.032 302.456 139.695 302.642C139.361 302.828 139.098 303.098 138.905 303.455C138.712 303.811 138.615 304.242 138.615 304.75ZM146.634 310V301.273H147.974V310H146.634ZM147.315 299.818C147.054 299.818 146.829 299.729 146.639 299.551C146.454 299.373 146.361 299.159 146.361 298.909C146.361 298.659 146.454 298.445 146.639 298.267C146.829 298.089 147.054 298 147.315 298C147.577 298 147.8 298.089 147.986 298.267C148.175 298.445 148.27 298.659 148.27 298.909C148.27 299.159 148.175 299.373 147.986 299.551C147.8 299.729 147.577 299.818 147.315 299.818ZM154.089 310.182C153.249 310.182 152.523 309.996 151.913 309.625C151.307 309.25 150.839 308.727 150.51 308.057C150.184 307.383 150.021 306.598 150.021 305.705C150.021 304.811 150.184 304.023 150.51 303.341C150.839 302.655 151.298 302.121 151.885 301.739C152.476 301.352 153.165 301.159 153.953 301.159C154.408 301.159 154.857 301.235 155.3 301.386C155.743 301.538 156.146 301.784 156.51 302.125C156.874 302.462 157.163 302.909 157.379 303.466C157.595 304.023 157.703 304.708 157.703 305.523V306.091H150.976V304.932H156.339C156.339 304.439 156.241 304 156.044 303.614C155.851 303.227 155.574 302.922 155.214 302.699C154.858 302.475 154.438 302.364 153.953 302.364C153.419 302.364 152.957 302.496 152.567 302.761C152.18 303.023 151.883 303.364 151.675 303.784C151.466 304.205 151.362 304.655 151.362 305.136V305.909C151.362 306.568 151.476 307.127 151.703 307.585C151.934 308.04 152.254 308.386 152.663 308.625C153.072 308.86 153.548 308.977 154.089 308.977C154.442 308.977 154.76 308.928 155.044 308.83C155.332 308.727 155.58 308.576 155.788 308.375C155.997 308.17 156.158 307.917 156.271 307.614L157.567 307.977C157.43 308.417 157.201 308.803 156.879 309.136C156.557 309.466 156.16 309.723 155.686 309.909C155.213 310.091 154.68 310.182 154.089 310.182ZM155.067 300.227L153.885 298.636L152.703 300.227H151.43V300.136L153.271 297.773H154.499L156.339 300.136V300.227H155.067ZM161.084 304.75V310H159.743V301.273H161.038V302.636H161.152C161.357 302.193 161.667 301.837 162.084 301.568C162.5 301.295 163.038 301.159 163.697 301.159C164.288 301.159 164.805 301.28 165.249 301.523C165.692 301.761 166.036 302.125 166.283 302.614C166.529 303.098 166.652 303.712 166.652 304.455V310H165.311V304.545C165.311 303.86 165.133 303.326 164.777 302.943C164.421 302.557 163.932 302.364 163.311 302.364C162.883 302.364 162.5 302.456 162.163 302.642C161.83 302.828 161.567 303.098 161.374 303.455C161.18 303.811 161.084 304.242 161.084 304.75ZM173.58 310V308.977L177.42 304.773C177.871 304.28 178.242 303.852 178.534 303.489C178.826 303.121 179.042 302.777 179.182 302.455C179.326 302.129 179.398 301.788 179.398 301.432C179.398 301.023 179.299 300.669 179.102 300.369C178.909 300.07 178.644 299.839 178.307 299.676C177.97 299.513 177.591 299.432 177.17 299.432C176.723 299.432 176.333 299.525 176 299.71C175.67 299.892 175.415 300.148 175.233 300.477C175.055 300.807 174.966 301.193 174.966 301.636H173.625C173.625 300.955 173.782 300.356 174.097 299.841C174.411 299.326 174.839 298.924 175.381 298.636C175.926 298.348 176.538 298.205 177.216 298.205C177.898 298.205 178.502 298.348 179.028 298.636C179.555 298.924 179.968 299.312 180.267 299.801C180.566 300.29 180.716 300.833 180.716 301.432C180.716 301.86 180.638 302.278 180.483 302.688C180.331 303.093 180.066 303.545 179.688 304.045C179.312 304.542 178.792 305.148 178.125 305.864L175.511 308.659V308.75H180.92V310H173.58ZM187.062 310.159C186.206 310.159 185.477 309.926 184.875 309.46C184.273 308.991 183.813 308.311 183.494 307.42C183.176 306.527 183.017 305.447 183.017 304.182C183.017 302.924 183.176 301.85 183.494 300.96C183.816 300.066 184.278 299.384 184.881 298.915C185.487 298.441 186.214 298.205 187.062 298.205C187.911 298.205 188.636 298.441 189.239 298.915C189.845 299.384 190.307 300.066 190.625 300.96C190.947 301.85 191.108 302.924 191.108 304.182C191.108 305.447 190.949 306.527 190.631 307.42C190.312 308.311 189.852 308.991 189.25 309.46C188.648 309.926 187.919 310.159 187.062 310.159ZM187.062 308.909C187.911 308.909 188.57 308.5 189.04 307.682C189.509 306.864 189.744 305.697 189.744 304.182C189.744 303.174 189.636 302.316 189.42 301.608C189.208 300.9 188.902 300.36 188.5 299.989C188.102 299.617 187.623 299.432 187.062 299.432C186.222 299.432 185.564 299.847 185.091 300.676C184.617 301.502 184.381 302.67 184.381 304.182C184.381 305.189 184.487 306.045 184.699 306.75C184.911 307.455 185.216 307.991 185.614 308.358C186.015 308.725 186.498 308.909 187.062 308.909ZM193.267 310V308.977L197.108 304.773C197.559 304.28 197.93 303.852 198.222 303.489C198.513 303.121 198.729 302.777 198.869 302.455C199.013 302.129 199.085 301.788 199.085 301.432C199.085 301.023 198.987 300.669 198.79 300.369C198.597 300.07 198.331 299.839 197.994 299.676C197.657 299.513 197.278 299.432 196.858 299.432C196.411 299.432 196.021 299.525 195.688 299.71C195.358 299.892 195.102 300.148 194.92 300.477C194.742 300.807 194.653 301.193 194.653 301.636H193.312C193.312 300.955 193.47 300.356 193.784 299.841C194.098 299.326 194.527 298.924 195.068 298.636C195.614 298.348 196.225 298.205 196.903 298.205C197.585 298.205 198.189 298.348 198.716 298.636C199.242 298.924 199.655 299.312 199.955 299.801C200.254 300.29 200.403 300.833 200.403 301.432C200.403 301.86 200.326 302.278 200.17 302.688C200.019 303.093 199.754 303.545 199.375 304.045C199 304.542 198.479 305.148 197.812 305.864L195.199 308.659V308.75H200.608V310H193.267ZM206.886 310.159C206.136 310.159 205.468 310.03 204.881 309.773C204.297 309.515 203.833 309.157 203.489 308.699C203.148 308.237 202.962 307.701 202.932 307.091H204.364C204.394 307.466 204.523 307.79 204.75 308.062C204.977 308.331 205.275 308.54 205.642 308.688C206.009 308.835 206.417 308.909 206.864 308.909C207.364 308.909 207.807 308.822 208.193 308.648C208.58 308.473 208.883 308.231 209.102 307.92C209.322 307.61 209.432 307.25 209.432 306.841C209.432 306.413 209.326 306.036 209.114 305.71C208.902 305.381 208.591 305.123 208.182 304.938C207.773 304.752 207.273 304.659 206.682 304.659H205.75V303.409H206.682C207.144 303.409 207.549 303.326 207.898 303.159C208.25 302.992 208.525 302.758 208.722 302.455C208.922 302.152 209.023 301.795 209.023 301.386C209.023 300.992 208.936 300.65 208.761 300.358C208.587 300.066 208.341 299.839 208.023 299.676C207.708 299.513 207.337 299.432 206.909 299.432C206.508 299.432 206.129 299.506 205.773 299.653C205.42 299.797 205.133 300.008 204.909 300.284C204.686 300.557 204.564 300.886 204.545 301.273H203.182C203.205 300.663 203.388 300.129 203.733 299.67C204.078 299.208 204.528 298.848 205.085 298.591C205.646 298.333 206.261 298.205 206.932 298.205C207.652 298.205 208.269 298.35 208.784 298.642C209.299 298.93 209.695 299.311 209.972 299.784C210.248 300.258 210.386 300.769 210.386 301.318C210.386 301.973 210.214 302.532 209.869 302.994C209.528 303.456 209.064 303.777 208.477 303.955V304.045C209.212 304.167 209.786 304.479 210.199 304.983C210.612 305.483 210.818 306.102 210.818 306.841C210.818 307.473 210.646 308.042 210.301 308.545C209.96 309.045 209.494 309.439 208.903 309.727C208.313 310.015 207.64 310.159 206.886 310.159Z" fill="#24CBFF"/>
</svg>
