<svg width="100%" viewBox="0 0 417 193" fill="none" xmlns="http://www.w3.org/2000/svg">
<path d="M25.48 43.84C20.776 43.84 16.7067 42.944 13.272 41.152C9.87467 39.3227 7.24267 36.7653 5.376 33.48C3.50933 30.1947 2.576 26.368 2.576 22C2.576 17.632 3.50933 13.8053 5.376 10.52C7.24267 7.23466 9.87467 4.696 13.272 2.904C16.7067 1.07466 20.776 0.159997 25.48 0.159997C30.1467 0.159997 34.1787 1.07466 37.576 2.904C41.0107 4.696 43.6613 7.23466 45.528 10.52C47.3947 13.8053 48.328 17.632 48.328 22C48.328 26.368 47.3947 30.1947 45.528 33.48C43.6613 36.7653 41.0107 39.3227 37.576 41.152C34.1787 42.944 30.1467 43.84 25.48 43.84ZM25.48 36.112C29.6987 36.112 32.9653 34.88 35.28 32.416C37.632 29.9147 38.808 26.4427 38.808 22C38.808 17.52 37.632 14.048 35.28 11.584C32.9653 9.12 29.6987 7.888 25.48 7.888C21.2613 7.888 17.976 9.12 15.624 11.584C13.272 14.048 12.096 17.52 12.096 22C12.096 26.48 13.272 29.952 15.624 32.416C17.976 34.88 21.2613 36.112 25.48 36.112ZM75.6101 0.159997C79.1194 0.159997 82.2181 0.682664 84.9061 1.728C87.5941 2.77333 89.7781 4.21066 91.4581 6.04C93.1754 7.832 94.2207 9.88533 94.5941 12.2H85.5781C85.0181 10.856 83.9914 9.736 82.4981 8.84C81.0047 7.90666 78.8021 7.44 75.8901 7.44C72.8287 7.44 70.3087 8.01866 68.3301 9.176C66.3514 10.296 64.8954 11.92 63.9621 14.048C63.0287 16.1387 62.5621 18.6773 62.5621 21.664C62.5621 24.8373 63.0847 27.544 64.1301 29.784C65.1754 31.9867 66.7061 33.6667 68.7221 34.824C70.7754 35.944 73.2767 36.504 76.2261 36.504C78.3541 36.504 80.1461 36.2053 81.6021 35.608C83.0581 35.0107 84.1594 34.1893 84.9061 33.144C85.6527 32.0987 86.0261 30.9227 86.0261 29.616C86.0261 28.3467 85.6901 27.2267 85.0181 26.256C84.3461 25.248 83.3194 24.464 81.9381 23.904C80.5567 23.344 78.8207 23.064 76.7301 23.064C73.8927 23.064 71.2421 23.7173 68.7781 25.024C66.3141 26.3307 64.1674 28.1227 62.3381 30.4L58.8101 27.936C60.0047 25.6213 61.5541 23.5493 63.4581 21.72C65.3621 19.8907 67.6021 18.4533 70.1781 17.408C72.7541 16.3253 75.6474 15.784 78.8581 15.784C82.2554 15.784 85.2047 16.344 87.7061 17.464C90.2074 18.584 92.1301 20.1707 93.4741 22.224C94.8554 24.24 95.5461 26.6107 95.5461 29.336C95.5461 32.1733 94.7621 34.6933 93.1941 36.896C91.6634 39.0613 89.4421 40.76 86.5301 41.992C83.6554 43.224 80.1834 43.84 76.1141 43.84C71.1487 43.84 66.9861 42.9253 63.6261 41.096C60.2661 39.2293 57.7461 36.6533 56.0661 33.368C54.3861 30.0453 53.5461 26.256 53.5461 22C53.5461 17.744 54.3861 13.9733 56.0661 10.688C57.7461 7.40267 60.2287 4.82667 63.5141 2.96C66.7994 1.09333 70.8314 0.159997 75.6101 0.159997Z" fill="white"/>
<rect y="80" width="417" height="18" fill="url(#paint0_linear_0_1)"/>
<path d="M2.81818 153V129.727H10.9545C12.5758 129.727 13.9129 130.008 14.9659 130.568C16.0189 131.121 16.803 131.867 17.3182 132.807C17.8333 133.739 18.0909 134.773 18.0909 135.909C18.0909 136.909 17.9129 137.735 17.5568 138.386C17.2083 139.038 16.7462 139.553 16.1705 139.932C15.6023 140.311 14.9848 140.591 14.3182 140.773V141C15.0303 141.045 15.7462 141.295 16.4659 141.75C17.1856 142.205 17.7879 142.856 18.2727 143.705C18.7576 144.553 19 145.591 19 146.818C19 147.985 18.7348 149.034 18.2045 149.966C17.6742 150.898 16.8371 151.636 15.6932 152.182C14.5492 152.727 13.0606 153 11.2273 153H2.81818ZM5.63636 150.5H11.2273C13.0682 150.5 14.375 150.144 15.1477 149.432C15.928 148.712 16.3182 147.841 16.3182 146.818C16.3182 146.03 16.1174 145.303 15.7159 144.636C15.3144 143.962 14.7424 143.424 14 143.023C13.2576 142.614 12.3788 142.409 11.3636 142.409H5.63636V150.5ZM5.63636 139.955H10.8636C11.7121 139.955 12.4773 139.788 13.1591 139.455C13.8485 139.121 14.3939 138.652 14.7955 138.045C15.2045 137.439 15.4091 136.727 15.4091 135.909C15.4091 134.886 15.053 134.019 14.3409 133.307C13.6288 132.587 12.5 132.227 10.9545 132.227H5.63636V139.955ZM24.5852 153H21.6307L30.1761 129.727H33.0852L41.6307 153H38.6761L31.7216 133.409H31.5398L24.5852 153ZM25.6761 143.909H37.5852V146.409H25.6761V143.909ZM30.4034 127.364L33.1761 122.091H36.3125L32.767 127.364H30.4034ZM63.7983 141.364C63.7983 143.818 63.3551 145.939 62.4688 147.727C61.5824 149.515 60.3665 150.894 58.821 151.864C57.2756 152.833 55.5104 153.318 53.5256 153.318C51.5407 153.318 49.7756 152.833 48.2301 151.864C46.6847 150.894 45.4688 149.515 44.5824 147.727C43.696 145.939 43.2528 143.818 43.2528 141.364C43.2528 138.909 43.696 136.788 44.5824 135C45.4688 133.212 46.6847 131.833 48.2301 130.864C49.7756 129.894 51.5407 129.409 53.5256 129.409C55.5104 129.409 57.2756 129.894 58.821 130.864C60.3665 131.833 61.5824 133.212 62.4688 135C63.3551 136.788 63.7983 138.909 63.7983 141.364ZM61.071 141.364C61.071 139.348 60.7339 137.648 60.0597 136.261C59.393 134.875 58.4877 133.826 57.3438 133.114C56.2074 132.402 54.9347 132.045 53.5256 132.045C52.1165 132.045 50.84 132.402 49.696 133.114C48.5597 133.826 47.6544 134.875 46.9801 136.261C46.3134 137.648 45.9801 139.348 45.9801 141.364C45.9801 143.379 46.3134 145.08 46.9801 146.466C47.6544 147.852 48.5597 148.902 49.696 149.614C50.84 150.326 52.1165 150.682 53.5256 150.682C54.9347 150.682 56.2074 150.326 57.3438 149.614C58.4877 148.902 59.393 147.852 60.0597 146.466C60.7339 145.08 61.071 143.379 61.071 141.364ZM96.2642 137H93.446C93.2794 136.189 92.9877 135.477 92.571 134.864C92.1619 134.25 91.6619 133.735 91.071 133.318C90.4877 132.894 89.84 132.576 89.1278 132.364C88.4157 132.152 87.6733 132.045 86.9006 132.045C85.4915 132.045 84.215 132.402 83.071 133.114C81.9347 133.826 81.0294 134.875 80.3551 136.261C79.6884 137.648 79.3551 139.348 79.3551 141.364C79.3551 143.379 79.6884 145.08 80.3551 146.466C81.0294 147.852 81.9347 148.902 83.071 149.614C84.215 150.326 85.4915 150.682 86.9006 150.682C87.6733 150.682 88.4157 150.576 89.1278 150.364C89.84 150.152 90.4877 149.837 91.071 149.42C91.6619 148.996 92.1619 148.477 92.571 147.864C92.9877 147.242 93.2794 146.53 93.446 145.727H96.2642C96.0521 146.917 95.6657 147.981 95.1051 148.92C94.5445 149.86 93.8475 150.659 93.0142 151.318C92.1809 151.97 91.2453 152.466 90.2074 152.807C89.1771 153.148 88.0748 153.318 86.9006 153.318C84.9157 153.318 83.1506 152.833 81.6051 151.864C80.0597 150.894 78.8438 149.515 77.9574 147.727C77.071 145.939 76.6278 143.818 76.6278 141.364C76.6278 138.909 77.071 136.788 77.9574 135C78.8438 133.212 80.0597 131.833 81.6051 130.864C83.1506 129.894 84.9157 129.409 86.9006 129.409C88.0748 129.409 89.1771 129.58 90.2074 129.92C91.2453 130.261 92.1809 130.761 93.0142 131.42C93.8475 132.072 94.5445 132.867 95.1051 133.807C95.6657 134.739 96.0521 135.803 96.2642 137ZM101.773 153H98.8182L107.364 129.727H110.273L118.818 153H115.864L108.909 133.409H108.727L101.773 153ZM102.864 143.909H114.773V146.409H102.864V143.909ZM107.591 127.364L110.364 122.091H113.5L109.955 127.364H107.591ZM140.986 141.364C140.986 143.818 140.543 145.939 139.656 147.727C138.77 149.515 137.554 150.894 136.009 151.864C134.463 152.833 132.698 153.318 130.713 153.318C128.728 153.318 126.963 152.833 125.418 151.864C123.872 150.894 122.656 149.515 121.77 147.727C120.884 145.939 120.44 143.818 120.44 141.364C120.44 138.909 120.884 136.788 121.77 135C122.656 133.212 123.872 131.833 125.418 130.864C126.963 129.894 128.728 129.409 130.713 129.409C132.698 129.409 134.463 129.894 136.009 130.864C137.554 131.833 138.77 133.212 139.656 135C140.543 136.788 140.986 138.909 140.986 141.364ZM138.259 141.364C138.259 139.348 137.921 137.648 137.247 136.261C136.58 134.875 135.675 133.826 134.531 133.114C133.395 132.402 132.122 132.045 130.713 132.045C129.304 132.045 128.027 132.402 126.884 133.114C125.747 133.826 124.842 134.875 124.168 136.261C123.501 137.648 123.168 139.348 123.168 141.364C123.168 143.379 123.501 145.08 124.168 146.466C124.842 147.852 125.747 148.902 126.884 149.614C128.027 150.326 129.304 150.682 130.713 150.682C132.122 150.682 133.395 150.326 134.531 149.614C135.675 148.902 136.58 147.852 137.247 146.466C137.921 145.08 138.259 143.379 138.259 141.364ZM1.54545 171.227V168.727H19V171.227H11.6818V192H8.86364V171.227H1.54545ZM21.5852 192H18.6307L27.1761 168.727H30.0852L38.6307 192H35.6761L28.7216 172.409H28.5398L21.5852 192ZM22.6761 182.909H34.5852V185.409H22.6761V182.909ZM27.4943 166.364L23.9489 161.091H27.0852L29.858 166.364H27.4943ZM45.0739 168.727V192H42.2557V168.727H45.0739ZM78.4517 176H75.6335C75.4669 175.189 75.1752 174.477 74.7585 173.864C74.3494 173.25 73.8494 172.735 73.2585 172.318C72.6752 171.894 72.0275 171.576 71.3153 171.364C70.6032 171.152 69.8608 171.045 69.0881 171.045C67.679 171.045 66.4025 171.402 65.2585 172.114C64.1222 172.826 63.2169 173.875 62.5426 175.261C61.8759 176.648 61.5426 178.348 61.5426 180.364C61.5426 182.379 61.8759 184.08 62.5426 185.466C63.2169 186.852 64.1222 187.902 65.2585 188.614C66.4025 189.326 67.679 189.682 69.0881 189.682C69.8608 189.682 70.6032 189.576 71.3153 189.364C72.0275 189.152 72.6752 188.837 73.2585 188.42C73.8494 187.996 74.3494 187.477 74.7585 186.864C75.1752 186.242 75.4669 185.53 75.6335 184.727H78.4517C78.2396 185.917 77.8532 186.981 77.2926 187.92C76.732 188.86 76.035 189.659 75.2017 190.318C74.3684 190.97 73.4328 191.466 72.3949 191.807C71.3646 192.148 70.2623 192.318 69.0881 192.318C67.1032 192.318 65.3381 191.833 63.7926 190.864C62.2472 189.894 61.0313 188.515 60.1449 186.727C59.2585 184.939 58.8153 182.818 58.8153 180.364C58.8153 177.909 59.2585 175.788 60.1449 174C61.0313 172.212 62.2472 170.833 63.7926 169.864C65.3381 168.894 67.1032 168.409 69.0881 168.409C70.2623 168.409 71.3646 168.58 72.3949 168.92C73.4328 169.261 74.3684 169.761 75.2017 170.42C76.035 171.072 76.732 171.867 77.2926 172.807C77.8532 173.739 78.2396 174.803 78.4517 176ZM83.0057 192V168.727H85.8239V179.091H98.233V168.727H101.051V192H98.233V181.591H85.8239V192H83.0057ZM109.511 168.727V192H106.693V168.727H109.511ZM106.875 166.364L109.648 161.091H112.784L109.239 166.364H106.875ZM133.616 168.727V192H130.889L118.207 173.727H117.98V192H115.162V168.727H117.889L130.616 187.045H130.844V168.727H133.616ZM139.256 192V168.727H142.074V179.091H154.483V168.727H157.301V192H154.483V181.591H142.074V192H139.256Z" fill="white"/>
<defs>
<linearGradient id="paint0_linear_0_1" x1="0" y1="89" x2="417" y2="89" gradientUnits="userSpaceOnUse">
<stop stop-color="white"/>
<stop offset="1" stop-color="#24408E" stop-opacity="0"/>
</linearGradient>
</defs>
</svg>
