<svg width="100%" viewBox="0 0 418 198" fill="none" xmlns="http://www.w3.org/2000/svg">
<path d="M26.48 43.84C21.776 43.84 17.7067 42.944 14.272 41.152C10.8747 39.3227 8.24267 36.7653 6.376 33.48C4.50933 30.1947 3.576 26.368 3.576 22C3.576 17.632 4.50933 13.8053 6.376 10.52C8.24267 7.23466 10.8747 4.696 14.272 2.904C17.7067 1.07466 21.776 0.159997 26.48 0.159997C31.1467 0.159997 35.1787 1.07466 38.576 2.904C42.0107 4.696 44.6613 7.23466 46.528 10.52C48.3947 13.8053 49.328 17.632 49.328 22C49.328 26.368 48.3947 30.1947 46.528 33.48C44.6613 36.7653 42.0107 39.3227 38.576 41.152C35.1787 42.944 31.1467 43.84 26.48 43.84ZM26.48 36.112C30.6987 36.112 33.9653 34.88 36.28 32.416C38.632 29.9147 39.808 26.4427 39.808 22C39.808 17.52 38.632 14.048 36.28 11.584C33.9653 9.12 30.6987 7.888 26.48 7.888C22.2613 7.888 18.976 9.12 16.624 11.584C14.272 14.048 13.096 17.52 13.096 22C13.096 26.48 14.272 29.952 16.624 32.416C18.976 34.88 22.2613 36.112 26.48 36.112ZM54.8261 14.272C55.0501 11.6213 55.9834 9.232 57.6261 7.104C59.3061 4.976 61.6767 3.296 64.7381 2.064C67.7994 0.794665 71.4767 0.159997 75.7701 0.159997C79.5407 0.159997 82.8074 0.645331 85.5701 1.616C88.3327 2.58666 90.4794 3.93066 92.0101 5.648C93.5407 7.36533 94.3061 9.4 94.3061 11.752C94.3061 13.656 93.7274 15.392 92.5701 16.96C91.4501 18.4907 89.6954 19.7227 87.3061 20.656C84.9167 21.552 81.8927 21.9813 78.2341 21.944V20.88C81.7807 20.6933 84.8047 20.9733 87.3061 21.72C89.8447 22.4293 91.8047 23.5493 93.1861 25.08C94.5674 26.6107 95.2581 28.5333 95.2581 30.848C95.2581 33.3493 94.4554 35.5893 92.8501 37.568C91.2821 39.5093 88.9861 41.04 85.9621 42.16C82.9381 43.28 79.2607 43.84 74.9301 43.84C70.7114 43.84 67.0341 43.2427 63.8981 42.048C60.7621 40.8533 58.3167 39.1733 56.5621 37.008C54.8074 34.8427 53.8554 32.304 53.7061 29.392H63.2261C63.5247 31.632 64.6447 33.3493 66.5861 34.544C68.5274 35.7387 71.3087 36.336 74.9301 36.336C78.4394 36.336 81.0901 35.7947 82.8821 34.712C84.6741 33.6293 85.5701 32.1173 85.5701 30.176C85.5701 29.0187 85.2714 28.048 84.6741 27.264C84.0767 26.48 83.0501 25.9013 81.5941 25.528C80.1754 25.1173 78.2341 24.912 75.7701 24.912H68.3781V18.248H75.7701C78.9807 18.248 81.2767 17.7627 82.6581 16.792C84.0394 15.8213 84.7301 14.5707 84.7301 13.04C84.7301 11.3227 83.9461 9.99733 82.3781 9.064C80.8101 8.13066 78.4394 7.664 75.2661 7.664C72.0181 7.664 69.4794 8.24266 67.6501 9.4C65.8207 10.52 64.7194 12.144 64.3461 14.272H54.8261Z" fill="white"/>
<rect x="1" y="80" width="417" height="18" fill="url(#paint0_linear_0_1)"/>
<path d="M3.81818 153V129.727H6.63636V141.273H6.90909L17.3636 129.727H21.0455L11.2727 140.227L21.0455 153H17.6364L9.54545 142.182L6.63636 145.455V153H3.81818ZM24.6932 153V129.727H38.7386V132.227H27.5114V140.091H38.0114V142.591H27.5114V150.5H38.9205V153H24.6932ZM25.8295 127.545L30.4659 123.409H32.9659L37.6023 127.545H34.3295L31.7386 125.136L29.1477 127.545H25.8295ZM36.375 124.773L38.6023 120.682H41.9205L38.7386 124.773H36.375ZM42.5455 132.227V129.727H60V132.227H52.6818V153H49.8636V132.227H42.5455ZM81.804 145.727H84.8949L87.4858 149.136L88.1676 150.045L92.0312 155.182H88.9403L86.3949 151.773L85.7585 150.909L81.804 145.727ZM92.9858 141.364C92.9858 143.818 92.5426 145.939 91.6562 147.727C90.7699 149.515 89.554 150.894 88.0085 151.864C86.4631 152.833 84.6979 153.318 82.7131 153.318C80.7282 153.318 78.9631 152.833 77.4176 151.864C75.8722 150.894 74.6563 149.515 73.7699 147.727C72.8835 145.939 72.4403 143.818 72.4403 141.364C72.4403 138.909 72.8835 136.788 73.7699 135C74.6563 133.212 75.8722 131.833 77.4176 130.864C78.9631 129.894 80.7282 129.409 82.7131 129.409C84.6979 129.409 86.4631 129.894 88.0085 130.864C89.554 131.833 90.7699 133.212 91.6562 135C92.5426 136.788 92.9858 138.909 92.9858 141.364ZM90.2585 141.364C90.2585 139.348 89.9214 137.648 89.2472 136.261C88.5805 134.875 87.6752 133.826 86.5312 133.114C85.3949 132.402 84.1222 132.045 82.7131 132.045C81.304 132.045 80.0275 132.402 78.8835 133.114C77.7472 133.826 76.8419 134.875 76.1676 136.261C75.5009 137.648 75.1676 139.348 75.1676 141.364C75.1676 143.379 75.5009 145.08 76.1676 146.466C76.8419 147.852 77.7472 148.902 78.8835 149.614C80.0275 150.326 81.304 150.682 82.7131 150.682C84.1222 150.682 85.3949 150.326 86.5312 149.614C87.6752 148.902 88.5805 147.852 89.2472 146.466C89.9214 145.08 90.2585 143.379 90.2585 141.364ZM112.997 129.727H115.815V145.136C115.815 146.727 115.44 148.148 114.69 149.398C113.948 150.64 112.899 151.621 111.543 152.341C110.187 153.053 108.596 153.409 106.77 153.409C104.944 153.409 103.353 153.053 101.997 152.341C100.641 151.621 99.5881 150.64 98.8381 149.398C98.0956 148.148 97.7244 146.727 97.7244 145.136V129.727H100.543V144.909C100.543 146.045 100.793 147.057 101.293 147.943C101.793 148.822 102.505 149.515 103.429 150.023C104.361 150.523 105.474 150.773 106.77 150.773C108.065 150.773 109.179 150.523 110.111 150.023C111.043 149.515 111.755 148.822 112.247 147.943C112.747 147.057 112.997 146.045 112.997 144.909V129.727ZM122.398 153H119.443L127.989 129.727H130.898L139.443 153H136.489L129.534 133.409H129.352L122.398 153ZM123.489 143.909H135.398V146.409H123.489V143.909ZM130.625 127.364H128.398V124.909C129.193 124.864 129.754 124.754 130.08 124.58C130.413 124.405 130.58 124.136 130.58 123.773C130.58 123.364 130.341 123.064 129.864 122.875C129.386 122.686 128.807 122.591 128.125 122.591L128.216 120.864C129.784 120.864 130.97 121.136 131.773 121.682C132.583 122.227 132.989 122.955 132.989 123.864C132.989 124.636 132.742 125.201 132.25 125.557C131.758 125.913 131.216 126.136 130.625 126.227V127.364ZM159.25 153H153.659V150.5H159.068C160.992 150.5 162.587 150.129 163.852 149.386C165.117 148.644 166.061 147.587 166.682 146.216C167.303 144.845 167.614 143.212 167.614 141.318C167.614 139.439 167.307 137.822 166.693 136.466C166.08 135.102 165.163 134.057 163.943 133.33C162.723 132.595 161.205 132.227 159.386 132.227H153.523V129.727H159.568C161.826 129.727 163.758 130.193 165.364 131.125C166.97 132.049 168.201 133.379 169.057 135.114C169.913 136.841 170.341 138.909 170.341 141.318C170.341 143.742 169.909 145.83 169.045 147.58C168.182 149.322 166.924 150.663 165.273 151.602C163.621 152.534 161.614 153 159.25 153ZM154.886 129.727V153H152.068V129.727H154.886ZM148.477 142.045V139.955H158.477V142.045H148.477ZM176.023 153H173.068L181.614 129.727H184.523L193.068 153H190.114L183.159 133.409H182.977L176.023 153ZM177.114 143.909H189.023V146.409H177.114V143.909ZM183.068 158.773C182.545 158.773 182.095 158.595 181.716 158.239C181.345 157.883 181.159 157.455 181.159 156.955C181.159 156.455 181.345 156.027 181.716 155.67C182.095 155.314 182.545 155.136 183.068 155.136C183.591 155.136 184.038 155.314 184.409 155.67C184.788 156.027 184.977 156.455 184.977 156.955C184.977 157.455 184.788 157.883 184.409 158.239C184.038 158.595 183.591 158.773 183.068 158.773ZM192.702 132.227V129.727H210.156V132.227H202.838V153H200.02V132.227H192.702ZM11 192H5.40909V189.5H10.8182C12.7424 189.5 14.3371 189.129 15.6023 188.386C16.8674 187.644 17.8106 186.587 18.4318 185.216C19.053 183.845 19.3636 182.212 19.3636 180.318C19.3636 178.439 19.0568 176.822 18.4432 175.466C17.8295 174.102 16.9129 173.057 15.6932 172.33C14.4735 171.595 12.9545 171.227 11.1364 171.227H5.27273V168.727H11.3182C13.5758 168.727 15.5076 169.193 17.1136 170.125C18.7197 171.049 19.9508 172.379 20.8068 174.114C21.6629 175.841 22.0909 177.909 22.0909 180.318C22.0909 182.742 21.6591 184.83 20.7955 186.58C19.9318 188.322 18.6742 189.663 17.0227 190.602C15.3712 191.534 13.3636 192 11 192ZM6.63636 168.727V192H3.81818V168.727H6.63636ZM0.227273 181.045V178.955H10.2273V181.045H0.227273ZM47.5 167.318H50.1364C50.1364 168.803 49.9129 170.053 49.4659 171.068C49.0265 172.076 48.3144 172.841 47.3295 173.364C46.3523 173.879 45.0606 174.136 43.4545 174.136V171.909C44.5152 171.909 45.3371 171.735 45.9205 171.386C46.5114 171.038 46.9205 170.523 47.1477 169.841C47.3826 169.159 47.5 168.318 47.5 167.318ZM42.0909 168.727H44.9091V184.136C44.9091 185.727 44.5341 187.148 43.7841 188.398C43.0417 189.64 41.9924 190.621 40.6364 191.341C39.2803 192.053 37.6894 192.409 35.8636 192.409C34.0379 192.409 32.447 192.053 31.0909 191.341C29.7348 190.621 28.6818 189.64 27.9318 188.398C27.1894 187.148 26.8182 185.727 26.8182 184.136V168.727H29.6364V183.909C29.6364 185.045 29.8864 186.057 30.3864 186.943C30.8864 187.822 31.5985 188.515 32.5227 189.023C33.4545 189.523 34.5682 189.773 35.8636 189.773C37.1591 189.773 38.2727 189.523 39.2045 189.023C40.1364 188.515 40.8485 187.822 41.3409 186.943C41.8409 186.057 42.0909 185.045 42.0909 183.909V168.727ZM72.3551 167.045H75.0369C75.0369 169.091 74.5256 170.67 73.5028 171.784C72.4877 172.898 70.9688 173.455 68.946 173.455V171.227C70.1278 171.227 70.9915 170.86 71.5369 170.125C72.0824 169.39 72.3551 168.364 72.3551 167.045ZM73.1733 180.364C73.1733 182.818 72.7301 184.939 71.8438 186.727C70.9574 188.515 69.7415 189.894 68.196 190.864C66.6506 191.833 64.8854 192.318 62.9006 192.318C60.9157 192.318 59.1506 191.833 57.6051 190.864C56.0597 189.894 54.8438 188.515 53.9574 186.727C53.071 184.939 52.6278 182.818 52.6278 180.364C52.6278 177.909 53.071 175.788 53.9574 174C54.8438 172.212 56.0597 170.833 57.6051 169.864C59.1506 168.894 60.9157 168.409 62.9006 168.409C64.8854 168.409 66.6506 168.894 68.196 169.864C69.7415 170.833 70.9574 172.212 71.8438 174C72.7301 175.788 73.1733 177.909 73.1733 180.364ZM70.446 180.364C70.446 178.348 70.1089 176.648 69.4347 175.261C68.768 173.875 67.8627 172.826 66.7188 172.114C65.5824 171.402 64.3097 171.045 62.9006 171.045C61.4915 171.045 60.215 171.402 59.071 172.114C57.9347 172.826 57.0294 173.875 56.3551 175.261C55.6884 176.648 55.3551 178.348 55.3551 180.364C55.3551 182.379 55.6884 184.08 56.3551 185.466C57.0294 186.852 57.9347 187.902 59.071 188.614C60.215 189.326 61.4915 189.682 62.9006 189.682C64.3097 189.682 65.5824 189.326 66.7188 188.614C67.8627 187.902 68.768 186.852 69.4347 185.466C70.1089 184.08 70.446 182.379 70.446 180.364ZM62.9006 197.773C62.3778 197.773 61.9271 197.595 61.5483 197.239C61.1771 196.883 60.9915 196.455 60.9915 195.955C60.9915 195.455 61.1771 195.027 61.5483 194.67C61.9271 194.314 62.3778 194.136 62.9006 194.136C63.4233 194.136 63.8703 194.314 64.2415 194.67C64.6203 195.027 64.8097 195.455 64.8097 195.955C64.8097 196.455 64.6203 196.883 64.2415 197.239C63.8703 197.595 63.4233 197.773 62.9006 197.773ZM97.0455 176H94.2273C94.0606 175.189 93.7689 174.477 93.3523 173.864C92.9432 173.25 92.4432 172.735 91.8523 172.318C91.2689 171.894 90.6212 171.576 89.9091 171.364C89.197 171.152 88.4545 171.045 87.6818 171.045C86.2727 171.045 84.9962 171.402 83.8523 172.114C82.7159 172.826 81.8106 173.875 81.1364 175.261C80.4697 176.648 80.1364 178.348 80.1364 180.364C80.1364 182.379 80.4697 184.08 81.1364 185.466C81.8106 186.852 82.7159 187.902 83.8523 188.614C84.9962 189.326 86.2727 189.682 87.6818 189.682C88.4545 189.682 89.197 189.576 89.9091 189.364C90.6212 189.152 91.2689 188.837 91.8523 188.42C92.4432 187.996 92.9432 187.477 93.3523 186.864C93.7689 186.242 94.0606 185.53 94.2273 184.727H97.0455C96.8333 185.917 96.447 186.981 95.8864 187.92C95.3258 188.86 94.6288 189.659 93.7955 190.318C92.9621 190.97 92.0265 191.466 90.9886 191.807C89.9583 192.148 88.8561 192.318 87.6818 192.318C85.697 192.318 83.9318 191.833 82.3864 190.864C80.8409 189.894 79.625 188.515 78.7386 186.727C77.8523 184.939 77.4091 182.818 77.4091 180.364C77.4091 177.909 77.8523 175.788 78.7386 174C79.625 172.212 80.8409 170.833 82.3864 169.864C83.9318 168.894 85.697 168.409 87.6818 168.409C88.8561 168.409 89.9583 168.58 90.9886 168.92C92.0265 169.261 92.9621 169.761 93.7955 170.42C94.6288 171.072 95.3258 171.867 95.8864 172.807C96.447 173.739 96.8333 174.803 97.0455 176ZM109.327 171.227V168.727H126.781V171.227H119.463V192H116.645V171.227H109.327ZM131.131 192V168.727H138.994C140.813 168.727 142.305 169.038 143.472 169.659C144.638 170.273 145.502 171.117 146.062 172.193C146.623 173.269 146.903 174.492 146.903 175.864C146.903 177.235 146.623 178.451 146.062 179.511C145.502 180.572 144.642 181.405 143.483 182.011C142.324 182.61 140.843 182.909 139.04 182.909H132.676V180.364H138.949C140.191 180.364 141.191 180.182 141.949 179.818C142.714 179.455 143.267 178.939 143.608 178.273C143.956 177.598 144.131 176.795 144.131 175.864C144.131 174.932 143.956 174.117 143.608 173.42C143.259 172.723 142.703 172.186 141.938 171.807C141.172 171.42 140.161 171.227 138.903 171.227H133.949V192H131.131ZM142.085 181.545L147.812 192H144.54L138.903 181.545H142.085ZM171.236 180.364C171.236 182.818 170.793 184.939 169.906 186.727C169.02 188.515 167.804 189.894 166.259 190.864C164.713 191.833 162.948 192.318 160.963 192.318C158.978 192.318 157.213 191.833 155.668 190.864C154.122 189.894 152.906 188.515 152.02 186.727C151.134 184.939 150.69 182.818 150.69 180.364C150.69 177.909 151.134 175.788 152.02 174C152.906 172.212 154.122 170.833 155.668 169.864C157.213 168.894 158.978 168.409 160.963 168.409C162.948 168.409 164.713 168.894 166.259 169.864C167.804 170.833 169.02 172.212 169.906 174C170.793 175.788 171.236 177.909 171.236 180.364ZM168.509 180.364C168.509 178.348 168.171 176.648 167.497 175.261C166.83 173.875 165.925 172.826 164.781 172.114C163.645 171.402 162.372 171.045 160.963 171.045C159.554 171.045 158.277 171.402 157.134 172.114C155.997 172.826 155.092 173.875 154.418 175.261C153.751 176.648 153.418 178.348 153.418 180.364C153.418 182.379 153.751 184.08 154.418 185.466C155.092 186.852 155.997 187.902 157.134 188.614C158.277 189.326 159.554 189.682 160.963 189.682C162.372 189.682 163.645 189.326 164.781 188.614C165.925 187.902 166.83 186.852 167.497 185.466C168.171 184.08 168.509 182.379 168.509 180.364ZM194.429 168.727V192H191.702L179.02 173.727H178.793V192H175.974V168.727H178.702L191.429 187.045H191.656V168.727H194.429ZM215.977 176C215.727 175.235 215.398 174.549 214.989 173.943C214.587 173.33 214.106 172.807 213.545 172.375C212.992 171.943 212.364 171.614 211.659 171.386C210.955 171.159 210.182 171.045 209.341 171.045C207.962 171.045 206.708 171.402 205.58 172.114C204.451 172.826 203.553 173.875 202.886 175.261C202.22 176.648 201.886 178.348 201.886 180.364C201.886 182.379 202.223 184.08 202.898 185.466C203.572 186.852 204.485 187.902 205.636 188.614C206.788 189.326 208.083 189.682 209.523 189.682C210.856 189.682 212.03 189.398 213.045 188.83C214.068 188.254 214.864 187.443 215.432 186.398C216.008 185.345 216.295 184.106 216.295 182.682L217.159 182.864H210.159V180.364H219.023V182.864C219.023 184.78 218.614 186.447 217.795 187.864C216.985 189.28 215.864 190.379 214.432 191.159C213.008 191.932 211.371 192.318 209.523 192.318C207.462 192.318 205.652 191.833 204.091 190.864C202.538 189.894 201.326 188.515 200.455 186.727C199.591 184.939 199.159 182.818 199.159 180.364C199.159 178.523 199.405 176.867 199.898 175.398C200.398 173.92 201.102 172.663 202.011 171.625C202.92 170.587 203.996 169.792 205.239 169.239C206.481 168.686 207.848 168.409 209.341 168.409C210.568 168.409 211.712 168.595 212.773 168.966C213.841 169.33 214.792 169.848 215.625 170.523C216.466 171.189 217.167 171.989 217.727 172.92C218.288 173.845 218.674 174.871 218.886 176H215.977ZM251.304 168.727V192H248.577L235.895 173.727H235.668V192H232.849V168.727H235.577L248.304 187.045H248.531V168.727H251.304ZM257.898 192H254.943L263.489 168.727H266.398L274.943 192H271.989L265.034 172.409H264.852L257.898 192ZM258.989 182.909H270.898V185.409H258.989V182.909ZM267.17 162.909H269.67C269.67 164.136 269.246 165.14 268.398 165.92C267.549 166.701 266.398 167.091 264.943 167.091C263.511 167.091 262.371 166.701 261.523 165.92C260.682 165.14 260.261 164.136 260.261 162.909H262.761C262.761 163.5 262.924 164.019 263.25 164.466C263.583 164.913 264.148 165.136 264.943 165.136C265.739 165.136 266.307 164.913 266.648 164.466C266.996 164.019 267.17 163.5 267.17 162.909ZM278.568 168.727H281.932L289.841 188.045H290.114L298.023 168.727H301.386V192H298.75V174.318H298.523L291.25 192H288.705L281.432 174.318H281.205V192H278.568V168.727Z" fill="white"/>
<defs>
<linearGradient id="paint0_linear_0_1" x1="1" y1="89" x2="418" y2="89" gradientUnits="userSpaceOnUse">
<stop stop-color="#24CBFF" stop-opacity="0.5"/>
<stop offset="1" stop-color="#24408E" stop-opacity="0"/>
</linearGradient>
</defs>
</svg>
