<svg width="100%" viewBox="0 0 417 193" fill="none" xmlns="http://www.w3.org/2000/svg">
<path d="M25.48 43.84C20.776 43.84 16.7067 42.944 13.272 41.152C9.87467 39.3227 7.24267 36.7653 5.376 33.48C3.50933 30.1947 2.576 26.368 2.576 22C2.576 17.632 3.50933 13.8053 5.376 10.52C7.24267 7.23466 9.87467 4.696 13.272 2.904C16.7067 1.07466 20.776 0.159997 25.48 0.159997C30.1467 0.159997 34.1787 1.07466 37.576 2.904C41.0107 4.696 43.6613 7.23466 45.528 10.52C47.3947 13.8053 48.328 17.632 48.328 22C48.328 26.368 47.3947 30.1947 45.528 33.48C43.6613 36.7653 41.0107 39.3227 37.576 41.152C34.1787 42.944 30.1467 43.84 25.48 43.84ZM25.48 36.112C29.6987 36.112 32.9653 34.88 35.28 32.416C37.632 29.9147 38.808 26.4427 38.808 22C38.808 17.52 37.632 14.048 35.28 11.584C32.9653 9.12 29.6987 7.888 25.48 7.888C21.2613 7.888 17.976 9.12 15.624 11.584C13.272 14.048 12.096 17.52 12.096 22C12.096 26.48 13.272 29.952 15.624 32.416C17.976 34.88 21.2613 36.112 25.48 36.112ZM73.6606 0.999997V43H64.2526V4.136L68.9566 8.392L51.0926 11.528V4.136L66.6606 0.999997H73.6606Z" fill="white"/>
<rect y="80" width="417" height="18" fill="url(#paint0_linear_0_1)"/>
<path d="M1.54545 132.227V129.727H19V132.227H11.6818V153H8.86364V132.227H1.54545ZM21.5852 153H18.6307L27.1761 129.727H30.0852L38.6307 153H35.6761L28.7216 133.409H28.5398L21.5852 153ZM22.6761 143.909H34.5852V146.409H22.6761V143.909ZM29.858 123.455L34.4943 127.591H31.2216L28.6307 125.182L26.0398 127.591H22.767L27.358 123.455H29.858ZM21.767 120.682L23.9489 124.818H21.6307L18.4034 120.682H21.767ZM42.2557 129.727H45.6193L53.5284 149.045H53.8011L61.7102 129.727H65.0739V153H62.4375V135.318H62.2102L54.9375 153H52.392L45.1193 135.318H44.892V153H42.2557V129.727ZM98.179 129.727V153H95.4517L82.7699 134.727H82.5426V153H79.7244V129.727H82.4517L95.179 148.045H95.4062V129.727H98.179ZM103.818 153V129.727H106.636V140.091H119.045V129.727H121.864V153H119.045V142.591H106.636V153H103.818ZM130.324 129.727V153H127.506V129.727H130.324ZM127.778 127.364L124.233 122.091H127.369L130.142 127.364H127.778ZM154.429 129.727V153H151.702L139.02 134.727H138.793V153H135.974V129.727H138.702L151.429 148.045H151.656V129.727H154.429ZM187.795 137H184.977C184.811 136.189 184.519 135.477 184.102 134.864C183.693 134.25 183.193 133.735 182.602 133.318C182.019 132.894 181.371 132.576 180.659 132.364C179.947 132.152 179.205 132.045 178.432 132.045C177.023 132.045 175.746 132.402 174.602 133.114C173.466 133.826 172.561 134.875 171.886 136.261C171.22 137.648 170.886 139.348 170.886 141.364C170.886 143.379 171.22 145.08 171.886 146.466C172.561 147.852 173.466 148.902 174.602 149.614C175.746 150.326 177.023 150.682 178.432 150.682C179.205 150.682 179.947 150.576 180.659 150.364C181.371 150.152 182.019 149.837 182.602 149.42C183.193 148.996 183.693 148.477 184.102 147.864C184.519 147.242 184.811 146.53 184.977 145.727H187.795C187.583 146.917 187.197 147.981 186.636 148.92C186.076 149.86 185.379 150.659 184.545 151.318C183.712 151.97 182.777 152.466 181.739 152.807C180.708 153.148 179.606 153.318 178.432 153.318C176.447 153.318 174.682 152.833 173.136 151.864C171.591 150.894 170.375 149.515 169.489 147.727C168.602 145.939 168.159 143.818 168.159 141.364C168.159 138.909 168.602 136.788 169.489 135C170.375 133.212 171.591 131.833 173.136 130.864C174.682 129.894 176.447 129.409 178.432 129.409C179.606 129.409 180.708 129.58 181.739 129.92C182.777 130.261 183.712 130.761 184.545 131.42C185.379 132.072 186.076 132.867 186.636 133.807C187.197 134.739 187.583 135.803 187.795 137ZM207.622 129.727H210.44V145.136C210.44 146.727 210.065 148.148 209.315 149.398C208.573 150.64 207.524 151.621 206.168 152.341C204.812 153.053 203.221 153.409 201.395 153.409C199.569 153.409 197.978 153.053 196.622 152.341C195.266 151.621 194.213 150.64 193.463 149.398C192.721 148.148 192.349 146.727 192.349 145.136V129.727H195.168V144.909C195.168 146.045 195.418 147.057 195.918 147.943C196.418 148.822 197.13 149.515 198.054 150.023C198.986 150.523 200.099 150.773 201.395 150.773C202.69 150.773 203.804 150.523 204.736 150.023C205.668 149.515 206.38 148.822 206.872 147.943C207.372 147.057 207.622 146.045 207.622 144.909V129.727ZM202.577 127.364H200.349V124.909C201.145 124.864 201.705 124.754 202.031 124.58C202.365 124.405 202.531 124.136 202.531 123.773C202.531 123.364 202.293 123.064 201.815 122.875C201.338 122.686 200.759 122.591 200.077 122.591L200.168 120.864C201.736 120.864 202.921 121.136 203.724 121.682C204.535 122.227 204.94 122.955 204.94 123.864C204.94 124.636 204.694 125.201 204.202 125.557C203.709 125.913 203.168 126.136 202.577 126.227V127.364ZM217.023 153H214.068L222.614 129.727H225.523L234.068 153H231.114L224.159 133.409H223.977L217.023 153ZM218.114 143.909H230.023V146.409H218.114V143.909ZM21.5455 176H18.7273C18.5606 175.189 18.2689 174.477 17.8523 173.864C17.4432 173.25 16.9432 172.735 16.3523 172.318C15.7689 171.894 15.1212 171.576 14.4091 171.364C13.697 171.152 12.9545 171.045 12.1818 171.045C10.7727 171.045 9.49621 171.402 8.35227 172.114C7.21591 172.826 6.31061 173.875 5.63636 175.261C4.9697 176.648 4.63636 178.348 4.63636 180.364C4.63636 182.379 4.9697 184.08 5.63636 185.466C6.31061 186.852 7.21591 187.902 8.35227 188.614C9.49621 189.326 10.7727 189.682 12.1818 189.682C12.9545 189.682 13.697 189.576 14.4091 189.364C15.1212 189.152 15.7689 188.837 16.3523 188.42C16.9432 187.996 17.4432 187.477 17.8523 186.864C18.2689 186.242 18.5606 185.53 18.7273 184.727H21.5455C21.3333 185.917 20.947 186.981 20.3864 187.92C19.8258 188.86 19.1288 189.659 18.2955 190.318C17.4621 190.97 16.5265 191.466 15.4886 191.807C14.4583 192.148 13.3561 192.318 12.1818 192.318C10.197 192.318 8.43182 191.833 6.88636 190.864C5.34091 189.894 4.125 188.515 3.23864 186.727C2.35227 184.939 1.90909 182.818 1.90909 180.364C1.90909 177.909 2.35227 175.788 3.23864 174C4.125 172.212 5.34091 170.833 6.88636 169.864C8.43182 168.894 10.197 168.409 12.1818 168.409C13.3561 168.409 14.4583 168.58 15.4886 168.92C16.5265 169.261 17.4621 169.761 18.2955 170.42C19.1288 171.072 19.8258 171.867 20.3864 172.807C20.947 173.739 21.3333 174.803 21.5455 176ZM26.0994 192V168.727H28.9176V179.091H41.3267V168.727H44.1449V192H41.3267V181.591H28.9176V192H26.0994ZM65.0597 168.727H67.8778V184.136C67.8778 185.727 67.5028 187.148 66.7528 188.398C66.0104 189.64 64.9612 190.621 63.6051 191.341C62.2491 192.053 60.6581 192.409 58.8324 192.409C57.0066 192.409 55.4157 192.053 54.0597 191.341C52.7036 190.621 51.6506 189.64 50.9006 188.398C50.1581 187.148 49.7869 185.727 49.7869 184.136V168.727H52.6051V183.909C52.6051 185.045 52.8551 186.057 53.3551 186.943C53.8551 187.822 54.5672 188.515 55.4915 189.023C56.4233 189.523 57.5369 189.773 58.8324 189.773C60.1278 189.773 61.2415 189.523 62.1733 189.023C63.1051 188.515 63.8172 187.822 64.3097 186.943C64.8097 186.057 65.0597 185.045 65.0597 183.909V168.727ZM57.6051 166.364L60.3778 161.091H63.5142L59.9688 166.364H57.6051ZM91.9602 168.727V192H89.233L76.5511 173.727H76.3239V192H73.5057V168.727H76.233L88.9602 187.045H89.1875V168.727H91.9602ZM113.509 176C113.259 175.235 112.929 174.549 112.52 173.943C112.118 173.33 111.637 172.807 111.077 172.375C110.524 171.943 109.895 171.614 109.19 171.386C108.486 171.159 107.713 171.045 106.872 171.045C105.493 171.045 104.24 171.402 103.111 172.114C101.982 172.826 101.084 173.875 100.418 175.261C99.7509 176.648 99.4176 178.348 99.4176 180.364C99.4176 182.379 99.7547 184.08 100.429 185.466C101.103 186.852 102.016 187.902 103.168 188.614C104.319 189.326 105.615 189.682 107.054 189.682C108.387 189.682 109.562 189.398 110.577 188.83C111.599 188.254 112.395 187.443 112.963 186.398C113.539 185.345 113.827 184.106 113.827 182.682L114.69 182.864H107.69V180.364H116.554V182.864C116.554 184.78 116.145 186.447 115.327 187.864C114.516 189.28 113.395 190.379 111.963 191.159C110.539 191.932 108.902 192.318 107.054 192.318C104.993 192.318 103.183 191.833 101.622 190.864C100.069 189.894 98.857 188.515 97.9858 186.727C97.1222 184.939 96.6903 182.818 96.6903 180.364C96.6903 178.523 96.9366 176.867 97.429 175.398C97.929 173.92 98.6335 172.663 99.5426 171.625C100.452 170.587 101.527 169.792 102.77 169.239C104.012 168.686 105.38 168.409 106.872 168.409C108.099 168.409 109.243 168.595 110.304 168.966C111.372 169.33 112.323 169.848 113.156 170.523C113.997 171.189 114.698 171.989 115.259 172.92C115.819 173.845 116.205 174.871 116.418 176H113.509ZM129.108 171.227V168.727H146.562V171.227H139.244V192H136.426V171.227H129.108ZM169.58 180.364C169.58 182.818 169.136 184.939 168.25 186.727C167.364 188.515 166.148 189.894 164.602 190.864C163.057 191.833 161.292 192.318 159.307 192.318C157.322 192.318 155.557 191.833 154.011 190.864C152.466 189.894 151.25 188.515 150.364 186.727C149.477 184.939 149.034 182.818 149.034 180.364C149.034 177.909 149.477 175.788 150.364 174C151.25 172.212 152.466 170.833 154.011 169.864C155.557 168.894 157.322 168.409 159.307 168.409C161.292 168.409 163.057 168.894 164.602 169.864C166.148 170.833 167.364 172.212 168.25 174C169.136 175.788 169.58 177.909 169.58 180.364ZM166.852 180.364C166.852 178.348 166.515 176.648 165.841 175.261C165.174 173.875 164.269 172.826 163.125 172.114C161.989 171.402 160.716 171.045 159.307 171.045C157.898 171.045 156.621 171.402 155.477 172.114C154.341 172.826 153.436 173.875 152.761 175.261C152.095 176.648 151.761 178.348 151.761 180.364C151.761 182.379 152.095 184.08 152.761 185.466C153.436 186.852 154.341 187.902 155.477 188.614C156.621 189.326 157.898 189.682 159.307 189.682C160.716 189.682 161.989 189.326 163.125 188.614C164.269 187.902 165.174 186.852 165.841 185.466C166.515 184.08 166.852 182.379 166.852 180.364ZM161.67 166.636L159.307 163.455L156.943 166.636H154.398V166.455L158.08 161.727H160.534L164.216 166.455V166.636H161.67ZM177.136 168.727V192H174.318V168.727H177.136Z" fill="white"/>
<defs>
<linearGradient id="paint0_linear_0_1" x1="0" y1="89" x2="417" y2="89" gradientUnits="userSpaceOnUse">
<stop stop-color="white" stop-opacity="0.4"/>
<stop offset="1" stop-color="#24408E" stop-opacity="0"/>
</linearGradient>
</defs>
</svg>
