<svg width="100%" viewBox="0 0 163 100" fill="none" xmlns="http://www.w3.org/2000/svg">
<path d="M10.92 19.36C8.904 19.36 7.16 18.976 5.688 18.208C4.232 17.424 3.104 16.328 2.304 14.92C1.504 13.512 1.104 11.872 1.104 10C1.104 8.128 1.504 6.488 2.304 5.08C3.104 3.672 4.232 2.584 5.688 1.816C7.16 1.032 8.904 0.639999 10.92 0.639999C12.92 0.639999 14.648 1.032 16.104 1.816C17.576 2.584 18.712 3.672 19.512 5.08C20.312 6.488 20.712 8.128 20.712 10C20.712 11.872 20.312 13.512 19.512 14.92C18.712 16.328 17.576 17.424 16.104 18.208C14.648 18.976 12.92 19.36 10.92 19.36ZM10.92 16.048C12.728 16.048 14.128 15.52 15.12 14.464C16.128 13.392 16.632 11.904 16.632 10C16.632 8.08 16.128 6.592 15.12 5.536C14.128 4.48 12.728 3.952 10.92 3.952C9.112 3.952 7.704 4.48 6.696 5.536C5.688 6.592 5.184 8.08 5.184 10C5.184 11.92 5.688 13.408 6.696 14.464C7.704 15.52 9.112 16.048 10.92 16.048ZM37.9723 0.999999V19H33.9403V2.752H35.3323L25.4923 13.648L25.4443 12.304H41.0443V15.424H22.3963V12.544L32.8123 0.999999H37.9723Z" fill="white"/>
<rect y="41" width="163" height="9" fill="url(#paint0_linear_0_1)"/>
<path d="M5.63636 77.3636H7.18182L8.47727 79.0682L8.81818 79.5227L10.75 82.0909H9.20455L7.93182 80.3864L7.61364 79.9545L5.63636 77.3636ZM11.2273 75.1818C11.2273 76.4091 11.0057 77.4697 10.5625 78.3636C10.1193 79.2576 9.51136 79.947 8.73864 80.4318C7.96591 80.9167 7.08333 81.1591 6.09091 81.1591C5.09849 81.1591 4.21591 80.9167 3.44318 80.4318C2.67045 79.947 2.0625 79.2576 1.61932 78.3636C1.17614 77.4697 0.954545 76.4091 0.954545 75.1818C0.954545 73.9545 1.17614 72.8939 1.61932 72C2.0625 71.1061 2.67045 70.4167 3.44318 69.9318C4.21591 69.447 5.09849 69.2045 6.09091 69.2045C7.08333 69.2045 7.96591 69.447 8.73864 69.9318C9.51136 70.4167 10.1193 71.1061 10.5625 72C11.0057 72.8939 11.2273 73.9545 11.2273 75.1818ZM9.86364 75.1818C9.86364 74.1742 9.69508 73.3239 9.35795 72.6307C9.02462 71.9375 8.57197 71.4129 8 71.0568C7.43182 70.7008 6.79545 70.5227 6.09091 70.5227C5.38636 70.5227 4.74811 70.7008 4.17614 71.0568C3.60795 71.4129 3.1553 71.9375 2.81818 72.6307C2.48485 73.3239 2.31818 74.1742 2.31818 75.1818C2.31818 76.1894 2.48485 77.0398 2.81818 77.733C3.1553 78.4261 3.60795 78.9508 4.17614 79.3068C4.74811 79.6629 5.38636 79.8409 6.09091 79.8409C6.79545 79.8409 7.43182 79.6629 8 79.3068C8.57197 78.9508 9.02462 78.4261 9.35795 77.733C9.69508 77.0398 9.86364 76.1894 9.86364 75.1818ZM21.233 69.3636H22.642V77.0682C22.642 77.8636 22.4545 78.5739 22.0795 79.1989C21.7083 79.8201 21.1837 80.3106 20.5057 80.6705C19.8277 81.0265 19.0322 81.2045 18.1193 81.2045C17.2064 81.2045 16.411 81.0265 15.733 80.6705C15.0549 80.3106 14.5284 79.8201 14.1534 79.1989C13.7822 78.5739 13.5966 77.8636 13.5966 77.0682V69.3636H15.0057V76.9545C15.0057 77.5227 15.1307 78.0284 15.3807 78.4716C15.6307 78.911 15.9867 79.2576 16.4489 79.5114C16.9148 79.7614 17.4716 79.8864 18.1193 79.8864C18.767 79.8864 19.3239 79.7614 19.7898 79.5114C20.2557 79.2576 20.6117 78.911 20.858 78.4716C21.108 78.0284 21.233 77.5227 21.233 76.9545V69.3636ZM25.9332 81H24.456L28.7287 69.3636H30.1832L34.456 81H32.9787L29.5014 71.2045H29.4105L25.9332 81ZM26.4787 76.4545H32.4332V77.7045H26.4787V76.4545ZM30.0469 68.1818H28.9332V66.9545C29.331 66.9318 29.6113 66.8769 29.7741 66.7898C29.9408 66.7027 30.0241 66.5682 30.0241 66.3864C30.0241 66.1818 29.9048 66.0322 29.6662 65.9375C29.4276 65.8428 29.1378 65.7955 28.7969 65.7955L28.8423 64.9318C29.6264 64.9318 30.2192 65.0682 30.6207 65.3409C31.026 65.6136 31.2287 65.9773 31.2287 66.4318C31.2287 66.8182 31.1056 67.1004 30.8594 67.2784C30.6132 67.4564 30.3423 67.5682 30.0469 67.6136V68.1818ZM45.4957 69.3636V81H44.1321L37.7912 71.8636H37.6776V81H36.2685V69.3636H37.6321L43.9957 78.5227H44.1094V69.3636H45.4957ZM52.179 70.6136V69.3636H60.9062V70.6136H57.2472V81H55.8381V70.6136H52.179ZM63.081 81V69.3636H67.0128C67.9219 69.3636 68.6681 69.5189 69.2514 69.8295C69.8348 70.1364 70.2666 70.5587 70.5469 71.0966C70.8272 71.6345 70.9673 72.2462 70.9673 72.9318C70.9673 73.6174 70.8272 74.2254 70.5469 74.7557C70.2666 75.286 69.8366 75.7027 69.2571 76.0057C68.6776 76.3049 67.937 76.4545 67.0355 76.4545H63.8537V75.1818H66.9901C67.6113 75.1818 68.1113 75.0909 68.4901 74.9091C68.8726 74.7273 69.1491 74.4697 69.3196 74.1364C69.4938 73.7992 69.581 73.3977 69.581 72.9318C69.581 72.4659 69.4938 72.0587 69.3196 71.7102C69.1454 71.3617 68.867 71.0928 68.4844 70.9034C68.1018 70.7102 67.5961 70.6136 66.9673 70.6136H64.4901V81H63.081ZM68.5582 75.7727L71.4219 81H69.7855L66.9673 75.7727H68.5582ZM74.7244 69.3636V81H73.3153V69.3636H74.7244ZM74.0199 83.8864C73.7585 83.8864 73.5331 83.7973 73.3438 83.6193C73.1581 83.4413 73.0653 83.2273 73.0653 82.9773C73.0653 82.7273 73.1581 82.5133 73.3438 82.3352C73.5331 82.1572 73.7585 82.0682 74.0199 82.0682C74.2813 82.0682 74.5047 82.1572 74.6903 82.3352C74.8797 82.5133 74.9744 82.7273 74.9744 82.9773C74.9744 83.2273 74.8797 83.4413 74.6903 83.6193C74.5047 83.7973 74.2813 83.8864 74.0199 83.8864ZM91.4134 73H90.0043C89.9209 72.5947 89.7751 72.2386 89.5668 71.9318C89.3622 71.625 89.1122 71.3674 88.8168 71.1591C88.5251 70.947 88.2012 70.7879 87.8452 70.6818C87.4891 70.5758 87.1179 70.5227 86.7315 70.5227C86.027 70.5227 85.3887 70.7008 84.8168 71.0568C84.2486 71.4129 83.7959 71.9375 83.4588 72.6307C83.1255 73.3239 82.9588 74.1742 82.9588 75.1818C82.9588 76.1894 83.1255 77.0398 83.4588 77.733C83.7959 78.4261 84.2486 78.9508 84.8168 79.3068C85.3887 79.6629 86.027 79.8409 86.7315 79.8409C87.1179 79.8409 87.4891 79.7879 87.8452 79.6818C88.2012 79.5758 88.5251 79.4186 88.8168 79.2102C89.1122 78.9981 89.3622 78.7386 89.5668 78.4318C89.7751 78.1212 89.9209 77.7652 90.0043 77.3636H91.4134C91.3073 77.9583 91.1141 78.4905 90.8338 78.9602C90.5535 79.4299 90.205 79.8295 89.7884 80.1591C89.3717 80.4848 88.9039 80.733 88.3849 80.9034C87.8698 81.0739 87.3187 81.1591 86.7315 81.1591C85.7391 81.1591 84.8565 80.9167 84.0838 80.4318C83.3111 79.947 82.7031 79.2576 82.2599 78.3636C81.8168 77.4697 81.5952 76.4091 81.5952 75.1818C81.5952 73.9545 81.8168 72.8939 82.2599 72C82.7031 71.1061 83.3111 70.4167 84.0838 69.9318C84.8565 69.447 85.7391 69.2045 86.7315 69.2045C87.3187 69.2045 87.8698 69.2898 88.3849 69.4602C88.9039 69.6307 89.3717 69.8807 89.7884 70.2102C90.205 70.536 90.5535 70.9337 90.8338 71.4034C91.1141 71.8693 91.3073 72.4015 91.4134 73ZM103.509 75.1818C103.509 76.4091 103.287 77.4697 102.844 78.3636C102.401 79.2576 101.793 79.947 101.02 80.4318C100.247 80.9167 99.3646 81.1591 98.3722 81.1591C97.3797 81.1591 96.4972 80.9167 95.7244 80.4318C94.9517 79.947 94.3438 79.2576 93.9006 78.3636C93.4574 77.4697 93.2358 76.4091 93.2358 75.1818C93.2358 73.9545 93.4574 72.8939 93.9006 72C94.3438 71.1061 94.9517 70.4167 95.7244 69.9318C96.4972 69.447 97.3797 69.2045 98.3722 69.2045C99.3646 69.2045 100.247 69.447 101.02 69.9318C101.793 70.4167 102.401 71.1061 102.844 72C103.287 72.8939 103.509 73.9545 103.509 75.1818ZM102.145 75.1818C102.145 74.1742 101.976 73.3239 101.639 72.6307C101.306 71.9375 100.853 71.4129 100.281 71.0568C99.7131 70.7008 99.0767 70.5227 98.3722 70.5227C97.6676 70.5227 97.0294 70.7008 96.4574 71.0568C95.8892 71.4129 95.4366 71.9375 95.0994 72.6307C94.7661 73.3239 94.5994 74.1742 94.5994 75.1818C94.5994 76.1894 94.7661 77.0398 95.0994 77.733C95.4366 78.4261 95.8892 78.9508 96.4574 79.3068C97.0294 79.6629 97.6676 79.8409 98.3722 79.8409C99.0767 79.8409 99.7131 79.6629 100.281 79.3068C100.853 78.9508 101.306 78.4261 101.639 77.733C101.976 77.0398 102.145 76.1894 102.145 75.1818ZM99.554 68.3182L98.3722 66.7273L97.1903 68.3182H95.9176V68.2273L97.7585 65.8636H98.9858L100.827 68.2273V68.3182H99.554ZM115.105 69.3636V81H113.741L107.401 71.8636H107.287V81H105.878V69.3636H107.241L113.605 78.5227H113.719V69.3636H115.105ZM125.879 73C125.754 72.6174 125.589 72.2746 125.385 71.9716C125.184 71.6648 124.944 71.4034 124.663 71.1875C124.387 70.9716 124.072 70.8068 123.72 70.6932C123.368 70.5795 122.982 70.5227 122.561 70.5227C121.872 70.5227 121.245 70.7008 120.68 71.0568C120.116 71.4129 119.667 71.9375 119.334 72.6307C119 73.3239 118.834 74.1742 118.834 75.1818C118.834 76.1894 119.002 77.0398 119.339 77.733C119.677 78.4261 120.133 78.9508 120.709 79.3068C121.285 79.6629 121.932 79.8409 122.652 79.8409C123.319 79.8409 123.906 79.6989 124.413 79.4148C124.925 79.1269 125.322 78.7216 125.607 78.1989C125.894 77.6723 126.038 77.053 126.038 76.3409L126.47 76.4318H122.97V75.1818H127.402V76.4318C127.402 77.3902 127.197 78.2235 126.788 78.9318C126.383 79.6402 125.822 80.1894 125.107 80.5795C124.394 80.9659 123.576 81.1591 122.652 81.1591C121.622 81.1591 120.716 80.9167 119.936 80.4318C119.16 79.947 118.554 79.2576 118.118 78.3636C117.686 77.4697 117.47 76.4091 117.47 75.1818C117.47 74.2614 117.593 73.4337 117.839 72.6989C118.089 71.9602 118.442 71.3314 118.896 70.8125C119.351 70.2936 119.889 69.8958 120.51 69.6193C121.131 69.3428 121.815 69.2045 122.561 69.2045C123.175 69.2045 123.747 69.2973 124.277 69.483C124.811 69.6648 125.286 69.9242 125.703 70.2614C126.124 70.5947 126.474 70.9943 126.754 71.4602C127.035 71.9223 127.228 72.4356 127.334 73H125.879ZM0.772727 89.6136V88.3636H9.5V89.6136H5.84091V100H4.43182V89.6136H0.772727ZM10.6747 88.3636H12.2884L15.5156 93.7955H15.652L18.8793 88.3636H20.4929L16.2884 95.2045V100H14.8793V95.2045L10.6747 88.3636Z" fill="white"/>
<defs>
<linearGradient id="paint0_linear_0_1" x1="0" y1="45.5" x2="163" y2="45.5" gradientUnits="userSpaceOnUse">
<stop stop-color="#24CBFF"/>
<stop offset="1" stop-color="#24408E" stop-opacity="0"/>
</linearGradient>
</defs>
</svg>
