<svg width="100%" viewBox="0 0 417 193" fill="none" xmlns="http://www.w3.org/2000/svg">
<path d="M25.48 43.84C20.776 43.84 16.7067 42.944 13.272 41.152C9.87467 39.3227 7.24267 36.7653 5.376 33.48C3.50933 30.1947 2.576 26.368 2.576 22C2.576 17.632 3.50933 13.8053 5.376 10.52C7.24267 7.23466 9.87467 4.696 13.272 2.904C16.7067 1.07466 20.776 0.159997 25.48 0.159997C30.1467 0.159997 34.1787 1.07466 37.576 2.904C41.0107 4.696 43.6613 7.23466 45.528 10.52C47.3947 13.8053 48.328 17.632 48.328 22C48.328 26.368 47.3947 30.1947 45.528 33.48C43.6613 36.7653 41.0107 39.3227 37.576 41.152C34.1787 42.944 30.1467 43.84 25.48 43.84ZM25.48 36.112C29.6987 36.112 32.9653 34.88 35.28 32.416C37.632 29.9147 38.808 26.4427 38.808 22C38.808 17.52 37.632 14.048 35.28 11.584C32.9653 9.12 29.6987 7.888 25.48 7.888C21.2613 7.888 17.976 9.12 15.624 11.584C13.272 14.048 12.096 17.52 12.096 22C12.096 26.48 13.272 29.952 15.624 32.416C17.976 34.88 21.2613 36.112 25.48 36.112ZM88.6021 0.999997V43H79.1941V5.088H82.4421L59.4821 30.512L59.3701 27.376H95.7701V34.656H52.2581V27.936L76.5621 0.999997H88.6021Z" fill="white"/>
<rect y="80" width="417" height="18" fill="url(#paint0_linear_0_1)"/>
<path d="M11.2727 145.727H14.3636L16.9545 149.136L17.6364 150.045L21.5 155.182H18.4091L15.8636 151.773L15.2273 150.909L11.2727 145.727ZM22.4545 141.364C22.4545 143.818 22.0114 145.939 21.125 147.727C20.2386 149.515 19.0227 150.894 17.4773 151.864C15.9318 152.833 14.1667 153.318 12.1818 153.318C10.197 153.318 8.43182 152.833 6.88636 151.864C5.34091 150.894 4.125 149.515 3.23864 147.727C2.35227 145.939 1.90909 143.818 1.90909 141.364C1.90909 138.909 2.35227 136.788 3.23864 135C4.125 133.212 5.34091 131.833 6.88636 130.864C8.43182 129.894 10.197 129.409 12.1818 129.409C14.1667 129.409 15.9318 129.894 17.4773 130.864C19.0227 131.833 20.2386 133.212 21.125 135C22.0114 136.788 22.4545 138.909 22.4545 141.364ZM19.7273 141.364C19.7273 139.348 19.3902 137.648 18.7159 136.261C18.0492 134.875 17.1439 133.826 16 133.114C14.8636 132.402 13.5909 132.045 12.1818 132.045C10.7727 132.045 9.49621 132.402 8.35227 133.114C7.21591 133.826 6.31061 134.875 5.63636 136.261C4.9697 137.648 4.63636 139.348 4.63636 141.364C4.63636 143.379 4.9697 145.08 5.63636 146.466C6.31061 147.852 7.21591 148.902 8.35227 149.614C9.49621 150.326 10.7727 150.682 12.1818 150.682C13.5909 150.682 14.8636 150.326 16 149.614C17.1439 148.902 18.0492 147.852 18.7159 146.466C19.3902 145.08 19.7273 143.379 19.7273 141.364ZM42.4659 129.727H45.2841V145.136C45.2841 146.727 44.9091 148.148 44.1591 149.398C43.4167 150.64 42.3674 151.621 41.0114 152.341C39.6553 153.053 38.0644 153.409 36.2386 153.409C34.4129 153.409 32.822 153.053 31.4659 152.341C30.1098 151.621 29.0568 150.64 28.3068 149.398C27.5644 148.148 27.1932 146.727 27.1932 145.136V129.727H30.0114V144.909C30.0114 146.045 30.2614 147.057 30.7614 147.943C31.2614 148.822 31.9735 149.515 32.8977 150.023C33.8295 150.523 34.9432 150.773 36.2386 150.773C37.5341 150.773 38.6477 150.523 39.5795 150.023C40.5114 149.515 41.2235 148.822 41.7159 147.943C42.2159 147.057 42.4659 146.045 42.4659 144.909V129.727ZM51.8665 153H48.9119L57.4574 129.727H60.3665L68.9119 153H65.9574L59.0028 133.409H58.821L51.8665 153ZM52.9574 143.909H64.8665V146.409H52.9574V143.909ZM60.0938 127.364H57.8665V124.909C58.6619 124.864 59.2225 124.754 59.5483 124.58C59.8816 124.405 60.0483 124.136 60.0483 123.773C60.0483 123.364 59.8097 123.064 59.3324 122.875C58.8551 122.686 58.2756 122.591 57.5938 122.591L57.6847 120.864C59.2528 120.864 60.4384 121.136 61.2415 121.682C62.0521 122.227 62.4574 122.955 62.4574 123.864C62.4574 124.636 62.2112 125.201 61.7188 125.557C61.2263 125.913 60.6847 126.136 60.0938 126.227V127.364ZM90.9915 129.727V153H88.2642L75.5824 134.727H75.3551V153H72.5369V129.727H75.2642L87.9915 148.045H88.2188V129.727H90.9915ZM104.358 132.227V129.727H121.812V132.227H114.494V153H111.676V132.227H104.358ZM126.162 153V129.727H134.026C135.844 129.727 137.336 130.038 138.503 130.659C139.67 131.273 140.533 132.117 141.094 133.193C141.654 134.269 141.935 135.492 141.935 136.864C141.935 138.235 141.654 139.451 141.094 140.511C140.533 141.572 139.673 142.405 138.514 143.011C137.355 143.61 135.874 143.909 134.071 143.909H127.707V141.364H133.98C135.223 141.364 136.223 141.182 136.98 140.818C137.745 140.455 138.298 139.939 138.639 139.273C138.988 138.598 139.162 137.795 139.162 136.864C139.162 135.932 138.988 135.117 138.639 134.42C138.291 133.723 137.734 133.186 136.969 132.807C136.204 132.42 135.192 132.227 133.935 132.227H128.98V153H126.162ZM137.116 142.545L142.844 153H139.571L133.935 142.545H137.116ZM149.449 129.727V153H146.631V129.727H149.449ZM148.04 158.773C147.517 158.773 147.066 158.595 146.688 158.239C146.316 157.883 146.131 157.455 146.131 156.955C146.131 156.455 146.316 156.027 146.688 155.67C147.066 155.314 147.517 155.136 148.04 155.136C148.563 155.136 149.009 155.314 149.381 155.67C149.759 156.027 149.949 156.455 149.949 156.955C149.949 157.455 149.759 157.883 149.381 158.239C149.009 158.595 148.563 158.773 148.04 158.773ZM21.5455 176H18.7273C18.5606 175.189 18.2689 174.477 17.8523 173.864C17.4432 173.25 16.9432 172.735 16.3523 172.318C15.7689 171.894 15.1212 171.576 14.4091 171.364C13.697 171.152 12.9545 171.045 12.1818 171.045C10.7727 171.045 9.49621 171.402 8.35227 172.114C7.21591 172.826 6.31061 173.875 5.63636 175.261C4.9697 176.648 4.63636 178.348 4.63636 180.364C4.63636 182.379 4.9697 184.08 5.63636 185.466C6.31061 186.852 7.21591 187.902 8.35227 188.614C9.49621 189.326 10.7727 189.682 12.1818 189.682C12.9545 189.682 13.697 189.576 14.4091 189.364C15.1212 189.152 15.7689 188.837 16.3523 188.42C16.9432 187.996 17.4432 187.477 17.8523 186.864C18.2689 186.242 18.5606 185.53 18.7273 184.727H21.5455C21.3333 185.917 20.947 186.981 20.3864 187.92C19.8258 188.86 19.1288 189.659 18.2955 190.318C17.4621 190.97 16.5265 191.466 15.4886 191.807C14.4583 192.148 13.3561 192.318 12.1818 192.318C10.197 192.318 8.43182 191.833 6.88636 190.864C5.34091 189.894 4.125 188.515 3.23864 186.727C2.35227 184.939 1.90909 182.818 1.90909 180.364C1.90909 177.909 2.35227 175.788 3.23864 174C4.125 172.212 5.34091 170.833 6.88636 169.864C8.43182 168.894 10.197 168.409 12.1818 168.409C13.3561 168.409 14.4583 168.58 15.4886 168.92C16.5265 169.261 17.4621 169.761 18.2955 170.42C19.1288 171.072 19.8258 171.867 20.3864 172.807C20.947 173.739 21.3333 174.803 21.5455 176ZM45.7358 180.364C45.7358 182.818 45.2926 184.939 44.4062 186.727C43.5199 188.515 42.304 189.894 40.7585 190.864C39.2131 191.833 37.4479 192.318 35.4631 192.318C33.4782 192.318 31.7131 191.833 30.1676 190.864C28.6222 189.894 27.4063 188.515 26.5199 186.727C25.6335 184.939 25.1903 182.818 25.1903 180.364C25.1903 177.909 25.6335 175.788 26.5199 174C27.4063 172.212 28.6222 170.833 30.1676 169.864C31.7131 168.894 33.4782 168.409 35.4631 168.409C37.4479 168.409 39.2131 168.894 40.7585 169.864C42.304 170.833 43.5199 172.212 44.4062 174C45.2926 175.788 45.7358 177.909 45.7358 180.364ZM43.0085 180.364C43.0085 178.348 42.6714 176.648 41.9972 175.261C41.3305 173.875 40.4252 172.826 39.2812 172.114C38.1449 171.402 36.8722 171.045 35.4631 171.045C34.054 171.045 32.7775 171.402 31.6335 172.114C30.4972 172.826 29.5919 173.875 28.9176 175.261C28.2509 176.648 27.9176 178.348 27.9176 180.364C27.9176 182.379 28.2509 184.08 28.9176 185.466C29.5919 186.852 30.4972 187.902 31.6335 188.614C32.7775 189.326 34.054 189.682 35.4631 189.682C36.8722 189.682 38.1449 189.326 39.2812 188.614C40.4252 187.902 41.3305 186.852 41.9972 185.466C42.6714 184.08 43.0085 182.379 43.0085 180.364ZM37.8267 166.636L35.4631 163.455L33.0994 166.636H30.554V166.455L34.2358 161.727H36.6903L40.3722 166.455V166.636H37.8267ZM68.929 168.727V192H66.2017L53.5199 173.727H53.2926V192H50.4744V168.727H53.2017L65.929 187.045H66.1562V168.727H68.929ZM90.4773 176C90.2273 175.235 89.8977 174.549 89.4886 173.943C89.0871 173.33 88.6061 172.807 88.0455 172.375C87.4924 171.943 86.8636 171.614 86.1591 171.386C85.4545 171.159 84.6818 171.045 83.8409 171.045C82.4621 171.045 81.2083 171.402 80.0795 172.114C78.9508 172.826 78.053 173.875 77.3864 175.261C76.7197 176.648 76.3864 178.348 76.3864 180.364C76.3864 182.379 76.7235 184.08 77.3977 185.466C78.072 186.852 78.9848 187.902 80.1364 188.614C81.2879 189.326 82.5833 189.682 84.0227 189.682C85.3561 189.682 86.5303 189.398 87.5455 188.83C88.5682 188.254 89.3636 187.443 89.9318 186.398C90.5076 185.345 90.7955 184.106 90.7955 182.682L91.6591 182.864H84.6591V180.364H93.5227V182.864C93.5227 184.78 93.1136 186.447 92.2955 187.864C91.4848 189.28 90.3636 190.379 88.9318 191.159C87.5076 191.932 85.8712 192.318 84.0227 192.318C81.9621 192.318 80.1515 191.833 78.5909 190.864C77.0379 189.894 75.8258 188.515 74.9545 186.727C74.0909 184.939 73.6591 182.818 73.6591 180.364C73.6591 178.523 73.9053 176.867 74.3977 175.398C74.8977 173.92 75.6023 172.663 76.5114 171.625C77.4205 170.587 78.4962 169.792 79.7386 169.239C80.9811 168.686 82.3485 168.409 83.8409 168.409C85.0682 168.409 86.2121 168.595 87.2727 168.966C88.3409 169.33 89.2917 169.848 90.125 170.523C90.9659 171.189 91.6667 171.989 92.2273 172.92C92.7879 173.845 93.1742 174.871 93.3864 176H90.4773ZM106.077 171.227V168.727H123.531V171.227H116.213V192H113.395V171.227H106.077ZM125.881 168.727H129.108L135.562 179.591H135.835L142.29 168.727H145.517L137.108 182.409V192H134.29V182.409L125.881 168.727Z" fill="white"/>
<defs>
<linearGradient id="paint0_linear_0_1" x1="0" y1="89" x2="417" y2="89" gradientUnits="userSpaceOnUse">
<stop stop-color="#24CBFF"/>
<stop offset="1" stop-color="#24408E" stop-opacity="0"/>
</linearGradient>
</defs>
</svg>
