<svg width="100%" viewBox="0 0 163 101" fill="none" xmlns="http://www.w3.org/2000/svg">
<path d="M10.92 19.36C8.904 19.36 7.16 18.976 5.688 18.208C4.232 17.424 3.104 16.328 2.304 14.92C1.504 13.512 1.104 11.872 1.104 10C1.104 8.128 1.504 6.488 2.304 5.08C3.104 3.672 4.232 2.584 5.688 1.816C7.16 1.032 8.904 0.639999 10.92 0.639999C12.92 0.639999 14.648 1.032 16.104 1.816C17.576 2.584 18.712 3.672 19.512 5.08C20.312 6.488 20.712 8.128 20.712 10C20.712 11.872 20.312 13.512 19.512 14.92C18.712 16.328 17.576 17.424 16.104 18.208C14.648 18.976 12.92 19.36 10.92 19.36ZM10.92 16.048C12.728 16.048 14.128 15.52 15.12 14.464C16.128 13.392 16.632 11.904 16.632 10C16.632 8.08 16.128 6.592 15.12 5.536C14.128 4.48 12.728 3.952 10.92 3.952C9.112 3.952 7.704 4.48 6.696 5.536C5.688 6.592 5.184 8.08 5.184 10C5.184 11.92 5.688 13.408 6.696 14.464C7.704 15.52 9.112 16.048 10.92 16.048ZM22.7323 7.336C22.8283 5.96 23.2763 4.776 24.0763 3.784C24.8763 2.776 25.9323 2 27.2443 1.456C28.5723 0.911999 30.0763 0.639999 31.7563 0.639999C33.3563 0.639999 34.7563 0.887999 35.9563 1.384C37.1563 1.864 38.0923 2.544 38.7643 3.424C39.4363 4.304 39.7723 5.328 39.7723 6.496C39.7723 7.392 39.5403 8.224 39.0763 8.992C38.6123 9.76 37.8683 10.536 36.8443 11.32C35.8363 12.088 34.4923 12.92 32.8123 13.816L27.3643 16.816L27.0523 15.712H40.2763V19H22.9963V16.12L30.7003 11.608C31.9803 10.872 32.9803 10.24 33.7003 9.712C34.4203 9.168 34.9323 8.664 35.2363 8.2C35.5403 7.736 35.6923 7.24 35.6923 6.712C35.6923 6.152 35.5403 5.656 35.2363 5.224C34.9323 4.792 34.4763 4.456 33.8683 4.216C33.2763 3.976 32.5243 3.856 31.6123 3.856C30.5403 3.856 29.6603 4.016 28.9723 4.336C28.2843 4.64 27.7643 5.056 27.4123 5.584C27.0763 6.112 26.8763 6.696 26.8123 7.336H22.7323Z" fill="white"/>
<rect y="41" width="163" height="9" fill="url(#paint0_linear_0_1)"/>
<path d="M10.7727 73H9.36364C9.2803 72.5947 9.13447 72.2386 8.92614 71.9318C8.72159 71.625 8.47159 71.3674 8.17614 71.1591C7.88447 70.947 7.56061 70.7879 7.20455 70.6818C6.84849 70.5758 6.47727 70.5227 6.09091 70.5227C5.38636 70.5227 4.74811 70.7008 4.17614 71.0568C3.60795 71.4129 3.1553 71.9375 2.81818 72.6307C2.48485 73.3239 2.31818 74.1742 2.31818 75.1818C2.31818 76.1894 2.48485 77.0398 2.81818 77.733C3.1553 78.4261 3.60795 78.9508 4.17614 79.3068C4.74811 79.6629 5.38636 79.8409 6.09091 79.8409C6.47727 79.8409 6.84849 79.7879 7.20455 79.6818C7.56061 79.5758 7.88447 79.4186 8.17614 79.2102C8.47159 78.9981 8.72159 78.7386 8.92614 78.4318C9.13447 78.1212 9.2803 77.7652 9.36364 77.3636H10.7727C10.6667 77.9583 10.4735 78.4905 10.1932 78.9602C9.91288 79.4299 9.56439 79.8295 9.14773 80.1591C8.73106 80.4848 8.26326 80.733 7.74432 80.9034C7.22917 81.0739 6.67803 81.1591 6.09091 81.1591C5.09849 81.1591 4.21591 80.9167 3.44318 80.4318C2.67045 79.947 2.0625 79.2576 1.61932 78.3636C1.17614 77.4697 0.954545 76.4091 0.954545 75.1818C0.954545 73.9545 1.17614 72.8939 1.61932 72C2.0625 71.1061 2.67045 70.4167 3.44318 69.9318C4.21591 69.447 5.09849 69.2045 6.09091 69.2045C6.67803 69.2045 7.22917 69.2898 7.74432 69.4602C8.26326 69.6307 8.73106 69.8807 9.14773 70.2102C9.56439 70.536 9.91288 70.9337 10.1932 71.4034C10.4735 71.8693 10.6667 72.4015 10.7727 73ZM13.527 81H12.0497L16.3224 69.3636H17.777L22.0497 81H20.5724L17.0952 71.2045H17.0043L13.527 81ZM14.0724 76.4545H20.027V77.7045H14.0724V76.4545ZM18.2315 68.3182L17.0497 66.7273L15.8679 68.3182H14.5952V68.2273L16.4361 65.8636H17.6634L19.5043 68.2273V68.3182H18.2315ZM31.4986 69.3636H32.9077V77.0682C32.9077 77.8636 32.7202 78.5739 32.3452 79.1989C31.974 79.8201 31.4493 80.3106 30.7713 80.6705C30.0933 81.0265 29.2978 81.2045 28.3849 81.2045C27.4721 81.2045 26.6766 81.0265 25.9986 80.6705C25.3205 80.3106 24.794 79.8201 24.419 79.1989C24.0478 78.5739 23.8622 77.8636 23.8622 77.0682V69.3636H25.2713V76.9545C25.2713 77.5227 25.3963 78.0284 25.6463 78.4716C25.8963 78.911 26.2524 79.2576 26.7145 79.5114C27.1804 79.7614 27.7372 79.8864 28.3849 79.8864C29.0327 79.8864 29.5895 79.7614 30.0554 79.5114C30.5213 79.2576 30.8774 78.911 31.1236 78.4716C31.3736 78.0284 31.4986 77.5227 31.4986 76.9545V69.3636ZM49.5852 73H48.1761C48.0928 72.5947 47.947 72.2386 47.7386 71.9318C47.5341 71.625 47.2841 71.3674 46.9886 71.1591C46.697 70.947 46.3731 70.7879 46.017 70.6818C45.661 70.5758 45.2898 70.5227 44.9034 70.5227C44.1989 70.5227 43.5606 70.7008 42.9886 71.0568C42.4205 71.4129 41.9678 71.9375 41.6307 72.6307C41.2973 73.3239 41.1307 74.1742 41.1307 75.1818C41.1307 76.1894 41.2973 77.0398 41.6307 77.733C41.9678 78.4261 42.4205 78.9508 42.9886 79.3068C43.5606 79.6629 44.1989 79.8409 44.9034 79.8409C45.2898 79.8409 45.661 79.7879 46.017 79.6818C46.3731 79.5758 46.697 79.4186 46.9886 79.2102C47.2841 78.9981 47.5341 78.7386 47.7386 78.4318C47.947 78.1212 48.0928 77.7652 48.1761 77.3636H49.5852C49.4792 77.9583 49.286 78.4905 49.0057 78.9602C48.7254 79.4299 48.3769 79.8295 47.9602 80.1591C47.5436 80.4848 47.0758 80.733 46.5568 80.9034C46.0417 81.0739 45.4905 81.1591 44.9034 81.1591C43.911 81.1591 43.0284 80.9167 42.2557 80.4318C41.483 79.947 40.875 79.2576 40.4318 78.3636C39.9886 77.4697 39.767 76.4091 39.767 75.1818C39.767 73.9545 39.9886 72.8939 40.4318 72C40.875 71.1061 41.483 70.4167 42.2557 69.9318C43.0284 69.447 43.911 69.2045 44.9034 69.2045C45.4905 69.2045 46.0417 69.2898 46.5568 69.4602C47.0758 69.6307 47.5436 69.8807 47.9602 70.2102C48.3769 70.536 48.7254 70.9337 49.0057 71.4034C49.286 71.8693 49.4792 72.4015 49.5852 73ZM51.8622 81V69.3636H53.2713V74.5455H59.4759V69.3636H60.8849V81H59.4759V75.7955H53.2713V81H51.8622ZM71.3423 69.3636H72.7514V77.0682C72.7514 77.8636 72.5639 78.5739 72.1889 79.1989C71.8177 79.8201 71.2931 80.3106 70.6151 80.6705C69.937 81.0265 69.1416 81.2045 68.2287 81.2045C67.3158 81.2045 66.5204 81.0265 65.8423 80.6705C65.1643 80.3106 64.6378 79.8201 64.2628 79.1989C63.8916 78.5739 63.706 77.8636 63.706 77.0682V69.3636H65.1151V76.9545C65.1151 77.5227 65.2401 78.0284 65.4901 78.4716C65.7401 78.911 66.0961 79.2576 66.5582 79.5114C67.0241 79.7614 67.581 79.8864 68.2287 79.8864C68.8764 79.8864 69.4332 79.7614 69.8991 79.5114C70.3651 79.2576 70.7211 78.911 70.9673 78.4716C71.2173 78.0284 71.3423 77.5227 71.3423 76.9545V69.3636ZM74.5653 69.3636H76.179L79.4062 74.7955H79.5426L82.7699 69.3636H84.3835L80.179 76.2045V81H78.7699V76.2045L74.5653 69.3636ZM86.206 81V69.3636H93.2287V70.6136H87.6151V74.5455H92.8651V75.7955H87.6151V79.75H93.3196V81H86.206ZM90.8878 68.3182L89.706 66.7273L88.5241 68.3182H87.2514V68.2273L89.0923 65.8636H90.3196L92.1605 68.2273V68.3182H90.8878ZM89.5923 83.8864C89.331 83.8864 89.1056 83.7973 88.9162 83.6193C88.7306 83.4413 88.6378 83.2273 88.6378 82.9773C88.6378 82.7273 88.7306 82.5133 88.9162 82.3352C89.1056 82.1572 89.331 82.0682 89.5923 82.0682C89.8537 82.0682 90.0772 82.1572 90.2628 82.3352C90.4522 82.5133 90.5469 82.7273 90.5469 82.9773C90.5469 83.2273 90.4522 83.4413 90.2628 83.6193C90.0772 83.7973 89.8537 83.8864 89.5923 83.8864ZM104.996 69.3636V81H103.632L97.2912 71.8636H97.1776V81H95.7685V69.3636H97.1321L103.496 78.5227H103.609V69.3636H104.996ZM121.679 73H120.27C120.187 72.5947 120.041 72.2386 119.832 71.9318C119.628 71.625 119.378 71.3674 119.082 71.1591C118.791 70.947 118.467 70.7879 118.111 70.6818C117.755 70.5758 117.384 70.5227 116.997 70.5227C116.293 70.5227 115.654 70.7008 115.082 71.0568C114.514 71.4129 114.062 71.9375 113.724 72.6307C113.391 73.3239 113.224 74.1742 113.224 75.1818C113.224 76.1894 113.391 77.0398 113.724 77.733C114.062 78.4261 114.514 78.9508 115.082 79.3068C115.654 79.6629 116.293 79.8409 116.997 79.8409C117.384 79.8409 117.755 79.7879 118.111 79.6818C118.467 79.5758 118.791 79.4186 119.082 79.2102C119.378 78.9981 119.628 78.7386 119.832 78.4318C120.041 78.1212 120.187 77.7652 120.27 77.3636H121.679C121.573 77.9583 121.38 78.4905 121.099 78.9602C120.819 79.4299 120.471 79.8295 120.054 80.1591C119.637 80.4848 119.17 80.733 118.651 80.9034C118.135 81.0739 117.584 81.1591 116.997 81.1591C116.005 81.1591 115.122 80.9167 114.349 80.4318C113.577 79.947 112.969 79.2576 112.526 78.3636C112.082 77.4697 111.861 76.4091 111.861 75.1818C111.861 73.9545 112.082 72.8939 112.526 72C112.969 71.1061 113.577 70.4167 114.349 69.9318C115.122 69.447 116.005 69.2045 116.997 69.2045C117.584 69.2045 118.135 69.2898 118.651 69.4602C119.17 69.6307 119.637 69.8807 120.054 70.2102C120.471 70.536 120.819 70.9337 121.099 71.4034C121.38 71.8693 121.573 72.4015 121.679 73ZM131.592 69.3636H133.001V77.0682C133.001 77.8636 132.814 78.5739 132.439 79.1989C132.068 79.8201 131.543 80.3106 130.865 80.6705C130.187 81.0265 129.392 81.2045 128.479 81.2045C127.566 81.2045 126.77 81.0265 126.092 80.6705C125.414 80.3106 124.888 79.8201 124.513 79.1989C124.142 78.5739 123.956 77.8636 123.956 77.0682V69.3636H125.365V76.9545C125.365 77.5227 125.49 78.0284 125.74 78.4716C125.99 78.911 126.346 79.2576 126.808 79.5114C127.274 79.7614 127.831 79.8864 128.479 79.8864C129.126 79.8864 129.683 79.7614 130.149 79.5114C130.615 79.2576 130.971 78.911 131.217 78.4716C131.467 78.0284 131.592 77.5227 131.592 76.9545V69.3636ZM129.07 68.1818H127.956V66.9545C128.354 66.9318 128.634 66.8769 128.797 66.7898C128.964 66.7027 129.047 66.5682 129.047 66.3864C129.047 66.1818 128.928 66.0322 128.689 65.9375C128.45 65.8428 128.161 65.7955 127.82 65.7955L127.865 64.9318C128.649 64.9318 129.242 65.0682 129.643 65.3409C130.049 65.6136 130.251 65.9773 130.251 66.4318C130.251 66.8182 130.128 67.1004 129.882 67.2784C129.636 67.4564 129.365 67.5682 129.07 67.6136V68.1818ZM136.293 81H134.815L139.088 69.3636H140.543L144.815 81H143.338L139.861 71.2045H139.77L136.293 81ZM136.838 76.4545H142.793V77.7045H136.838V76.4545ZM10.7727 92H9.36364C9.2803 91.5947 9.13447 91.2386 8.92614 90.9318C8.72159 90.625 8.47159 90.3674 8.17614 90.1591C7.88447 89.947 7.56061 89.7879 7.20455 89.6818C6.84849 89.5758 6.47727 89.5227 6.09091 89.5227C5.38636 89.5227 4.74811 89.7008 4.17614 90.0568C3.60795 90.4129 3.1553 90.9375 2.81818 91.6307C2.48485 92.3239 2.31818 93.1742 2.31818 94.1818C2.31818 95.1894 2.48485 96.0398 2.81818 96.733C3.1553 97.4261 3.60795 97.9508 4.17614 98.3068C4.74811 98.6629 5.38636 98.8409 6.09091 98.8409C6.47727 98.8409 6.84849 98.7879 7.20455 98.6818C7.56061 98.5758 7.88447 98.4186 8.17614 98.2102C8.47159 97.9981 8.72159 97.7386 8.92614 97.4318C9.13447 97.1212 9.2803 96.7652 9.36364 96.3636H10.7727C10.6667 96.9583 10.4735 97.4905 10.1932 97.9602C9.91288 98.4299 9.56439 98.8295 9.14773 99.1591C8.73106 99.4848 8.26326 99.733 7.74432 99.9034C7.22917 100.074 6.67803 100.159 6.09091 100.159C5.09849 100.159 4.21591 99.9167 3.44318 99.4318C2.67045 98.947 2.0625 98.2576 1.61932 97.3636C1.17614 96.4697 0.954545 95.4091 0.954545 94.1818C0.954545 92.9545 1.17614 91.8939 1.61932 91C2.0625 90.1061 2.67045 89.4167 3.44318 88.9318C4.21591 88.447 5.09849 88.2045 6.09091 88.2045C6.67803 88.2045 7.22917 88.2898 7.74432 88.4602C8.26326 88.6307 8.73106 88.8807 9.14773 89.2102C9.56439 89.536 9.91288 89.9337 10.1932 90.4034C10.4735 90.8693 10.6667 91.4015 10.7727 92ZM13.0497 100V88.3636H14.4588V93.5455H20.6634V88.3636H22.0724V100H20.6634V94.7955H14.4588V100H13.0497ZM32.5298 88.3636H33.9389V96.0682C33.9389 96.8636 33.7514 97.5739 33.3764 98.1989C33.0052 98.8201 32.4806 99.3106 31.8026 99.6705C31.1245 100.027 30.3291 100.205 29.4162 100.205C28.5033 100.205 27.7079 100.027 27.0298 99.6705C26.3518 99.3106 25.8253 98.8201 25.4503 98.1989C25.0791 97.5739 24.8935 96.8636 24.8935 96.0682V88.3636H26.3026V95.9545C26.3026 96.5227 26.4276 97.0284 26.6776 97.4716C26.9276 97.911 27.2836 98.2576 27.7457 98.5114C28.2116 98.7614 28.7685 98.8864 29.4162 98.8864C30.0639 98.8864 30.6207 98.7614 31.0866 98.5114C31.5526 98.2576 31.9086 97.911 32.1548 97.4716C32.4048 97.0284 32.5298 96.5227 32.5298 95.9545V88.3636ZM28.8026 87.1818L30.1889 84.5455H31.7571L29.9844 87.1818H28.8026ZM45.9801 88.3636V100H44.6165L38.2756 90.8636H38.1619V100H36.7528V88.3636H38.1165L44.4801 97.5227H44.5938V88.3636H45.9801ZM56.7543 92C56.6293 91.6174 56.4645 91.2746 56.2599 90.9716C56.0592 90.6648 55.8187 90.4034 55.5384 90.1875C55.2618 89.9716 54.9474 89.8068 54.5952 89.6932C54.2429 89.5795 53.8565 89.5227 53.4361 89.5227C52.7467 89.5227 52.1198 89.7008 51.5554 90.0568C50.991 90.4129 50.5421 90.9375 50.2088 91.6307C49.8755 92.3239 49.7088 93.1742 49.7088 94.1818C49.7088 95.1894 49.8774 96.0398 50.2145 96.733C50.5516 97.4261 51.008 97.9508 51.5838 98.3068C52.1596 98.6629 52.8073 98.8409 53.527 98.8409C54.1937 98.8409 54.7808 98.6989 55.2884 98.4148C55.7997 98.1269 56.1974 97.7216 56.4815 97.1989C56.7694 96.6723 56.9134 96.053 56.9134 95.3409L57.3452 95.4318H53.8452V94.1818H58.277V95.4318C58.277 96.3902 58.0724 97.2235 57.6634 97.9318C57.258 98.6402 56.6974 99.1894 55.9815 99.5795C55.2694 99.9659 54.4512 100.159 53.527 100.159C52.4967 100.159 51.5914 99.9167 50.8111 99.4318C50.0346 98.947 49.4285 98.2576 48.9929 97.3636C48.5611 96.4697 48.3452 95.4091 48.3452 94.1818C48.3452 93.2614 48.4683 92.4337 48.7145 91.6989C48.9645 90.9602 49.3168 90.3314 49.7713 89.8125C50.2259 89.2936 50.7637 88.8958 51.3849 88.6193C52.0062 88.3428 52.6899 88.2045 53.4361 88.2045C54.0497 88.2045 54.6217 88.2973 55.152 88.483C55.6861 88.6648 56.1615 88.9242 56.5781 89.2614C56.9986 89.5947 57.349 89.9943 57.6293 90.4602C57.9096 90.9223 58.1027 91.4356 58.2088 92H56.7543ZM64.554 89.6136V88.3636H73.2812V89.6136H69.6222V100H68.2131V89.6136H64.554ZM84.7898 94.1818C84.7898 95.4091 84.5682 96.4697 84.125 97.3636C83.6818 98.2576 83.0739 98.947 82.3011 99.4318C81.5284 99.9167 80.6458 100.159 79.6534 100.159C78.661 100.159 77.7784 99.9167 77.0057 99.4318C76.233 98.947 75.625 98.2576 75.1818 97.3636C74.7386 96.4697 74.517 95.4091 74.517 94.1818C74.517 92.9545 74.7386 91.8939 75.1818 91C75.625 90.1061 76.233 89.4167 77.0057 88.9318C77.7784 88.447 78.661 88.2045 79.6534 88.2045C80.6458 88.2045 81.5284 88.447 82.3011 88.9318C83.0739 89.4167 83.6818 90.1061 84.125 91C84.5682 91.8939 84.7898 92.9545 84.7898 94.1818ZM83.4261 94.1818C83.4261 93.1742 83.2576 92.3239 82.9205 91.6307C82.5871 90.9375 82.1345 90.4129 81.5625 90.0568C80.9943 89.7008 80.358 89.5227 79.6534 89.5227C78.9489 89.5227 78.3106 89.7008 77.7386 90.0568C77.1705 90.4129 76.7178 90.9375 76.3807 91.6307C76.0473 92.3239 75.8807 93.1742 75.8807 94.1818C75.8807 95.1894 76.0473 96.0398 76.3807 96.733C76.7178 97.4261 77.1705 97.9508 77.7386 98.3068C78.3106 98.6629 78.9489 98.8409 79.6534 98.8409C80.358 98.8409 80.9943 98.6629 81.5625 98.3068C82.1345 97.9508 82.5871 97.4261 82.9205 96.733C83.2576 96.0398 83.4261 95.1894 83.4261 94.1818ZM80.8352 87.3182L79.6534 85.7273L78.4716 87.3182H77.1989V87.2273L79.0398 84.8636H80.267L82.108 87.2273V87.3182H80.8352ZM88.5682 88.3636V100H87.1591V88.3636H88.5682Z" fill="white"/>
<defs>
<linearGradient id="paint0_linear_0_1" x1="0" y1="45.5" x2="163" y2="45.5" gradientUnits="userSpaceOnUse">
<stop stop-color="#24408E"/>
<stop offset="1" stop-color="#24408E" stop-opacity="0"/>
</linearGradient>
</defs>
</svg>
