<svg width="100%" viewBox="0 0 164 82" fill="none" xmlns="http://www.w3.org/2000/svg">
<path d="M11.92 19.36C9.904 19.36 8.16 18.976 6.688 18.208C5.232 17.424 4.104 16.328 3.304 14.92C2.504 13.512 2.104 11.872 2.104 10C2.104 8.128 2.504 6.488 3.304 5.08C4.104 3.672 5.232 2.584 6.688 1.816C8.16 1.032 9.904 0.639999 11.92 0.639999C13.92 0.639999 15.648 1.032 17.104 1.816C18.576 2.584 19.712 3.672 20.512 5.08C21.312 6.488 21.712 8.128 21.712 10C21.712 11.872 21.312 13.512 20.512 14.92C19.712 16.328 18.576 17.424 17.104 18.208C15.648 18.976 13.92 19.36 11.92 19.36ZM11.92 16.048C13.728 16.048 15.128 15.52 16.12 14.464C17.128 13.392 17.632 11.904 17.632 10C17.632 8.08 17.128 6.592 16.12 5.536C15.128 4.48 13.728 3.952 11.92 3.952C10.112 3.952 8.704 4.48 7.696 5.536C6.688 6.592 6.184 8.08 6.184 10C6.184 11.92 6.688 13.408 7.696 14.464C8.704 15.52 10.112 16.048 11.92 16.048ZM25.8203 0.999999H39.4523V4.12H27.0683L28.7243 3.28L27.7163 10.312H26.6363C27.0043 9.736 27.4923 9.2 28.1003 8.704C28.7243 8.208 29.4843 7.808 30.3803 7.504C31.2763 7.2 32.3083 7.048 33.4763 7.048C35.0283 7.048 36.3563 7.312 37.4603 7.84C38.5643 8.352 39.4043 9.064 39.9803 9.976C40.5723 10.872 40.8683 11.896 40.8683 13.048C40.8683 14.28 40.5243 15.368 39.8363 16.312C39.1483 17.256 38.1723 18 36.9083 18.544C35.6443 19.088 34.1403 19.36 32.3963 19.36C30.6683 19.36 29.1643 19.112 27.8843 18.616C26.6043 18.104 25.5963 17.408 24.8603 16.528C24.1403 15.648 23.7163 14.672 23.5883 13.6H27.6443C27.8363 14.384 28.3403 15.008 29.1563 15.472C29.9723 15.92 31.0523 16.144 32.3963 16.144C33.2923 16.144 34.0683 16.024 34.7243 15.784C35.3803 15.528 35.8843 15.168 36.2363 14.704C36.6043 14.24 36.7883 13.688 36.7883 13.048C36.7883 12.424 36.6283 11.88 36.3083 11.416C36.0043 10.936 35.5403 10.568 34.9163 10.312C34.3083 10.056 33.5323 9.928 32.5883 9.928C31.8203 9.928 31.1243 10.016 30.5003 10.192C29.8923 10.368 29.3643 10.6 28.9163 10.888C28.4843 11.16 28.1163 11.448 27.8123 11.752H24.3323L25.8203 0.999999Z" fill="white"/>
<rect x="1" y="41" width="163" height="9" fill="url(#paint0_linear_0_1)"/>
<path d="M6 81H3.20455V79.75H5.90909C6.87121 79.75 7.66856 79.5644 8.30114 79.1932C8.93371 78.822 9.4053 78.2936 9.71591 77.608C10.0265 76.9223 10.1818 76.1061 10.1818 75.1591C10.1818 74.2197 10.0284 73.411 9.72159 72.733C9.41477 72.0511 8.95644 71.5284 8.34659 71.1648C7.73674 70.7973 6.97727 70.6136 6.06818 70.6136H3.13636V69.3636H6.15909C7.28788 69.3636 8.25379 69.5966 9.05682 70.0625C9.85985 70.5246 10.4754 71.1894 10.9034 72.0568C11.3314 72.9205 11.5455 73.9545 11.5455 75.1591C11.5455 76.3712 11.3295 77.4148 10.8977 78.2898C10.4659 79.161 9.83712 79.8314 9.01136 80.3011C8.18561 80.767 7.18182 81 6 81ZM3.81818 69.3636V81H2.40909V69.3636H3.81818ZM0.613636 75.5227V74.4773H5.61364V75.5227H0.613636ZM23.7273 75.1818C23.7273 76.4091 23.5057 77.4697 23.0625 78.3636C22.6193 79.2576 22.0114 79.947 21.2386 80.4318C20.4659 80.9167 19.5833 81.1591 18.5909 81.1591C17.5985 81.1591 16.7159 80.9167 15.9432 80.4318C15.1705 79.947 14.5625 79.2576 14.1193 78.3636C13.6761 77.4697 13.4545 76.4091 13.4545 75.1818C13.4545 73.9545 13.6761 72.8939 14.1193 72C14.5625 71.1061 15.1705 70.4167 15.9432 69.9318C16.7159 69.447 17.5985 69.2045 18.5909 69.2045C19.5833 69.2045 20.4659 69.447 21.2386 69.9318C22.0114 70.4167 22.6193 71.1061 23.0625 72C23.5057 72.8939 23.7273 73.9545 23.7273 75.1818ZM22.3636 75.1818C22.3636 74.1742 22.1951 73.3239 21.858 72.6307C21.5246 71.9375 21.072 71.4129 20.5 71.0568C19.9318 70.7008 19.2955 70.5227 18.5909 70.5227C17.8864 70.5227 17.2481 70.7008 16.6761 71.0568C16.108 71.4129 15.6553 71.9375 15.3182 72.6307C14.9848 73.3239 14.8182 74.1742 14.8182 75.1818C14.8182 76.1894 14.9848 77.0398 15.3182 77.733C15.6553 78.4261 16.108 78.9508 16.6761 79.3068C17.2481 79.6629 17.8864 79.8409 18.5909 79.8409C19.2955 79.8409 19.9318 79.6629 20.5 79.3068C21.072 78.9508 21.5246 78.4261 21.858 77.733C22.1951 77.0398 22.3636 76.1894 22.3636 75.1818ZM19.3636 66.3636L21.5227 68.4318H20.1136L18.5682 67L17.0455 68.4318H15.6364L17.7955 66.3636H19.3636ZM21.75 67.3409H20.7955V66.2955C21.1136 66.2727 21.3485 66.2311 21.5 66.1705C21.6515 66.1061 21.7273 65.9886 21.7273 65.8182C21.7273 65.6364 21.625 65.5076 21.4205 65.4318C21.2197 65.3561 20.9659 65.3182 20.6591 65.3182L20.7045 64.5682C21.3864 64.5682 21.9015 64.6837 22.25 64.9148C22.5985 65.1458 22.7727 65.4545 22.7727 65.8409C22.7727 66.1818 22.6667 66.4299 22.4545 66.5852C22.2462 66.7367 22.0114 66.8295 21.75 66.8636V67.3409ZM27.5057 69.3636V81H26.0966V69.3636H27.5057ZM34.831 69.3636H36.5128L40.4673 79.0227H40.6037L44.5582 69.3636H46.2401V81H44.9219V72.1591H44.8082L41.1719 81H39.8991L36.2628 72.1591H36.1491V81H34.831V69.3636ZM58.4744 68.5227H59.8153C59.8153 69.5455 59.5597 70.3352 59.0483 70.892C58.5407 71.4489 57.7813 71.7273 56.7699 71.7273V70.6136C57.3608 70.6136 57.7926 70.4299 58.0653 70.0625C58.3381 69.6951 58.4744 69.1818 58.4744 68.5227ZM58.8835 75.1818C58.8835 76.4091 58.6619 77.4697 58.2188 78.3636C57.7756 79.2576 57.1676 79.947 56.3949 80.4318C55.6222 80.9167 54.7396 81.1591 53.7472 81.1591C52.7547 81.1591 51.8722 80.9167 51.0994 80.4318C50.3267 79.947 49.7188 79.2576 49.2756 78.3636C48.8324 77.4697 48.6108 76.4091 48.6108 75.1818C48.6108 73.9545 48.8324 72.8939 49.2756 72C49.7188 71.1061 50.3267 70.4167 51.0994 69.9318C51.8722 69.447 52.7547 69.2045 53.7472 69.2045C54.7396 69.2045 55.6222 69.447 56.3949 69.9318C57.1676 70.4167 57.7756 71.1061 58.2188 72C58.6619 72.8939 58.8835 73.9545 58.8835 75.1818ZM57.5199 75.1818C57.5199 74.1742 57.3513 73.3239 57.0142 72.6307C56.6809 71.9375 56.2282 71.4129 55.6562 71.0568C55.0881 70.7008 54.4517 70.5227 53.7472 70.5227C53.0426 70.5227 52.4044 70.7008 51.8324 71.0568C51.2642 71.4129 50.8116 71.9375 50.4744 72.6307C50.1411 73.3239 49.9744 74.1742 49.9744 75.1818C49.9744 76.1894 50.1411 77.0398 50.4744 77.733C50.8116 78.4261 51.2642 78.9508 51.8324 79.3068C52.4044 79.6629 53.0426 79.8409 53.7472 79.8409C54.4517 79.8409 55.0881 79.6629 55.6562 79.3068C56.2282 78.9508 56.6809 78.4261 57.0142 77.733C57.3513 77.0398 57.5199 76.1894 57.5199 75.1818ZM53.1335 68.1818L54.5199 65.5455H56.0881L54.3153 68.1818H53.1335ZM62.8651 69.3636V81H61.456V69.3636H62.8651Z" fill="white"/>
<defs>
<linearGradient id="paint0_linear_0_1" x1="1" y1="45.5" x2="164" y2="45.5" gradientUnits="userSpaceOnUse">
<stop stop-color="#00A93C"/>
<stop offset="1" stop-color="#24408E" stop-opacity="0"/>
</linearGradient>
</defs>
</svg>
