<svg width="100%" viewBox="0 0 163 101" fill="none" xmlns="http://www.w3.org/2000/svg">
<path d="M10.92 19.36C8.904 19.36 7.16 18.976 5.688 18.208C4.232 17.424 3.104 16.328 2.304 14.92C1.504 13.512 1.104 11.872 1.104 10C1.104 8.128 1.504 6.488 2.304 5.08C3.104 3.672 4.232 2.584 5.688 1.816C7.16 1.032 8.904 0.639999 10.92 0.639999C12.92 0.639999 14.648 1.032 16.104 1.816C17.576 2.584 18.712 3.672 19.512 5.08C20.312 6.488 20.712 8.128 20.712 10C20.712 11.872 20.312 13.512 19.512 14.92C18.712 16.328 17.576 17.424 16.104 18.208C14.648 18.976 12.92 19.36 10.92 19.36ZM10.92 16.048C12.728 16.048 14.128 15.52 15.12 14.464C16.128 13.392 16.632 11.904 16.632 10C16.632 8.08 16.128 6.592 15.12 5.536C14.128 4.48 12.728 3.952 10.92 3.952C9.112 3.952 7.704 4.48 6.696 5.536C5.688 6.592 5.184 8.08 5.184 10C5.184 11.92 5.688 13.408 6.696 14.464C7.704 15.52 9.112 16.048 10.92 16.048ZM31.5688 0.999999V19H27.5368V2.344L29.5528 4.168L21.8968 5.512V2.344L28.5688 0.999999H31.5688Z" fill="white"/>
<rect y="41" width="163" height="9" fill="url(#paint0_linear_0_1)"/>
<path d="M0.772727 70.6136V69.3636H9.5V70.6136H5.84091V81H4.43182V70.6136H0.772727ZM10.7926 81H9.31534L13.5881 69.3636H15.0426L19.3153 81H17.8381L14.3608 71.2045H14.2699L10.7926 81ZM11.3381 76.4545H17.2926V77.7045H11.3381V76.4545ZM14.929 66.2273L17.2472 68.2955H15.6108L14.3153 67.0909L13.0199 68.2955H11.3835L13.679 66.2273H14.929ZM10.8835 64.8409L11.9744 66.9091H10.8153L9.2017 64.8409H10.8835ZM21.1278 69.3636H22.8097L26.7642 79.0227H26.9006L30.8551 69.3636H32.5369V81H31.2188V72.1591H31.1051L27.4688 81H26.196L22.5597 72.1591H22.446V81H21.1278V69.3636ZM49.0895 69.3636V81H47.7259L41.3849 71.8636H41.2713V81H39.8622V69.3636H41.2259L47.5895 78.5227H47.7031V69.3636H49.0895ZM51.9091 81V69.3636H53.3182V74.5455H59.5227V69.3636H60.9318V81H59.5227V75.7955H53.3182V81H51.9091ZM65.1619 69.3636V81H63.7528V69.3636H65.1619ZM63.8892 68.1818L62.1165 65.5455H63.6847L65.071 68.1818H63.8892ZM77.2145 69.3636V81H75.8509L69.5099 71.8636H69.3963V81H67.9872V69.3636H69.3509L75.7145 78.5227H75.8281V69.3636H77.2145ZM93.8977 73H92.4886C92.4053 72.5947 92.2595 72.2386 92.0511 71.9318C91.8466 71.625 91.5966 71.3674 91.3011 71.1591C91.0095 70.947 90.6856 70.7879 90.3295 70.6818C89.9735 70.5758 89.6023 70.5227 89.2159 70.5227C88.5114 70.5227 87.8731 70.7008 87.3011 71.0568C86.733 71.4129 86.2803 71.9375 85.9432 72.6307C85.6098 73.3239 85.4432 74.1742 85.4432 75.1818C85.4432 76.1894 85.6098 77.0398 85.9432 77.733C86.2803 78.4261 86.733 78.9508 87.3011 79.3068C87.8731 79.6629 88.5114 79.8409 89.2159 79.8409C89.6023 79.8409 89.9735 79.7879 90.3295 79.6818C90.6856 79.5758 91.0095 79.4186 91.3011 79.2102C91.5966 78.9981 91.8466 78.7386 92.0511 78.4318C92.2595 78.1212 92.4053 77.7652 92.4886 77.3636H93.8977C93.7917 77.9583 93.5985 78.4905 93.3182 78.9602C93.0379 79.4299 92.6894 79.8295 92.2727 80.1591C91.8561 80.4848 91.3883 80.733 90.8693 80.9034C90.3542 81.0739 89.803 81.1591 89.2159 81.1591C88.2235 81.1591 87.3409 80.9167 86.5682 80.4318C85.7955 79.947 85.1875 79.2576 84.7443 78.3636C84.3011 77.4697 84.0795 76.4091 84.0795 75.1818C84.0795 73.9545 84.3011 72.8939 84.7443 72C85.1875 71.1061 85.7955 70.4167 86.5682 69.9318C87.3409 69.447 88.2235 69.2045 89.2159 69.2045C89.803 69.2045 90.3542 69.2898 90.8693 69.4602C91.3883 69.6307 91.8561 69.8807 92.2727 70.2102C92.6894 70.536 93.0379 70.9337 93.3182 71.4034C93.5985 71.8693 93.7917 72.4015 93.8977 73ZM103.811 69.3636H105.22V77.0682C105.22 77.8636 105.033 78.5739 104.658 79.1989C104.286 79.8201 103.762 80.3106 103.084 80.6705C102.406 81.0265 101.61 81.2045 100.697 81.2045C99.7846 81.2045 98.9891 81.0265 98.3111 80.6705C97.633 80.3106 97.1065 79.8201 96.7315 79.1989C96.3603 78.5739 96.1747 77.8636 96.1747 77.0682V69.3636H97.5838V76.9545C97.5838 77.5227 97.7088 78.0284 97.9588 78.4716C98.2088 78.911 98.5649 79.2576 99.027 79.5114C99.4929 79.7614 100.05 79.8864 100.697 79.8864C101.345 79.8864 101.902 79.7614 102.368 79.5114C102.834 79.2576 103.19 78.911 103.436 78.4716C103.686 78.0284 103.811 77.5227 103.811 76.9545V69.3636ZM101.288 68.1818H100.175V66.9545C100.572 66.9318 100.853 66.8769 101.016 66.7898C101.182 66.7027 101.266 66.5682 101.266 66.3864C101.266 66.1818 101.146 66.0322 100.908 65.9375C100.669 65.8428 100.379 65.7955 100.038 65.7955L100.084 64.9318C100.868 64.9318 101.461 65.0682 101.862 65.3409C102.268 65.6136 102.47 65.9773 102.47 66.4318C102.47 66.8182 102.347 67.1004 102.101 67.2784C101.855 67.4564 101.584 67.5682 101.288 67.6136V68.1818ZM108.511 81H107.034L111.307 69.3636H112.761L117.034 81H115.557L112.08 71.2045H111.989L108.511 81ZM109.057 76.4545H115.011V77.7045H109.057V76.4545ZM10.7727 92H9.36364C9.2803 91.5947 9.13447 91.2386 8.92614 90.9318C8.72159 90.625 8.47159 90.3674 8.17614 90.1591C7.88447 89.947 7.56061 89.7879 7.20455 89.6818C6.84849 89.5758 6.47727 89.5227 6.09091 89.5227C5.38636 89.5227 4.74811 89.7008 4.17614 90.0568C3.60795 90.4129 3.1553 90.9375 2.81818 91.6307C2.48485 92.3239 2.31818 93.1742 2.31818 94.1818C2.31818 95.1894 2.48485 96.0398 2.81818 96.733C3.1553 97.4261 3.60795 97.9508 4.17614 98.3068C4.74811 98.6629 5.38636 98.8409 6.09091 98.8409C6.47727 98.8409 6.84849 98.7879 7.20455 98.6818C7.56061 98.5758 7.88447 98.4186 8.17614 98.2102C8.47159 97.9981 8.72159 97.7386 8.92614 97.4318C9.13447 97.1212 9.2803 96.7652 9.36364 96.3636H10.7727C10.6667 96.9583 10.4735 97.4905 10.1932 97.9602C9.91288 98.4299 9.56439 98.8295 9.14773 99.1591C8.73106 99.4848 8.26326 99.733 7.74432 99.9034C7.22917 100.074 6.67803 100.159 6.09091 100.159C5.09849 100.159 4.21591 99.9167 3.44318 99.4318C2.67045 98.947 2.0625 98.2576 1.61932 97.3636C1.17614 96.4697 0.954545 95.4091 0.954545 94.1818C0.954545 92.9545 1.17614 91.8939 1.61932 91C2.0625 90.1061 2.67045 89.4167 3.44318 88.9318C4.21591 88.447 5.09849 88.2045 6.09091 88.2045C6.67803 88.2045 7.22917 88.2898 7.74432 88.4602C8.26326 88.6307 8.73106 88.8807 9.14773 89.2102C9.56439 89.536 9.91288 89.9337 10.1932 90.4034C10.4735 90.8693 10.6667 91.4015 10.7727 92ZM13.0497 100V88.3636H14.4588V93.5455H20.6634V88.3636H22.0724V100H20.6634V94.7955H14.4588V100H13.0497ZM32.5298 88.3636H33.9389V96.0682C33.9389 96.8636 33.7514 97.5739 33.3764 98.1989C33.0052 98.8201 32.4806 99.3106 31.8026 99.6705C31.1245 100.027 30.3291 100.205 29.4162 100.205C28.5033 100.205 27.7079 100.027 27.0298 99.6705C26.3518 99.3106 25.8253 98.8201 25.4503 98.1989C25.0791 97.5739 24.8935 96.8636 24.8935 96.0682V88.3636H26.3026V95.9545C26.3026 96.5227 26.4276 97.0284 26.6776 97.4716C26.9276 97.911 27.2836 98.2576 27.7457 98.5114C28.2116 98.7614 28.7685 98.8864 29.4162 98.8864C30.0639 98.8864 30.6207 98.7614 31.0866 98.5114C31.5526 98.2576 31.9086 97.911 32.1548 97.4716C32.4048 97.0284 32.5298 96.5227 32.5298 95.9545V88.3636ZM28.8026 87.1818L30.1889 84.5455H31.7571L29.9844 87.1818H28.8026ZM45.9801 88.3636V100H44.6165L38.2756 90.8636H38.1619V100H36.7528V88.3636H38.1165L44.4801 97.5227H44.5938V88.3636H45.9801ZM56.7543 92C56.6293 91.6174 56.4645 91.2746 56.2599 90.9716C56.0592 90.6648 55.8187 90.4034 55.5384 90.1875C55.2618 89.9716 54.9474 89.8068 54.5952 89.6932C54.2429 89.5795 53.8565 89.5227 53.4361 89.5227C52.7467 89.5227 52.1198 89.7008 51.5554 90.0568C50.991 90.4129 50.5421 90.9375 50.2088 91.6307C49.8755 92.3239 49.7088 93.1742 49.7088 94.1818C49.7088 95.1894 49.8774 96.0398 50.2145 96.733C50.5516 97.4261 51.008 97.9508 51.5838 98.3068C52.1596 98.6629 52.8073 98.8409 53.527 98.8409C54.1937 98.8409 54.7808 98.6989 55.2884 98.4148C55.7997 98.1269 56.1974 97.7216 56.4815 97.1989C56.7694 96.6723 56.9134 96.053 56.9134 95.3409L57.3452 95.4318H53.8452V94.1818H58.277V95.4318C58.277 96.3902 58.0724 97.2235 57.6634 97.9318C57.258 98.6402 56.6974 99.1894 55.9815 99.5795C55.2694 99.9659 54.4512 100.159 53.527 100.159C52.4967 100.159 51.5914 99.9167 50.8111 99.4318C50.0346 98.947 49.4285 98.2576 48.9929 97.3636C48.5611 96.4697 48.3452 95.4091 48.3452 94.1818C48.3452 93.2614 48.4683 92.4337 48.7145 91.6989C48.9645 90.9602 49.3168 90.3314 49.7713 89.8125C50.2259 89.2936 50.7637 88.8958 51.3849 88.6193C52.0062 88.3428 52.6899 88.2045 53.4361 88.2045C54.0497 88.2045 54.6217 88.2973 55.152 88.483C55.6861 88.6648 56.1615 88.9242 56.5781 89.2614C56.9986 89.5947 57.349 89.9943 57.6293 90.4602C57.9096 90.9223 58.1027 91.4356 58.2088 92H56.7543ZM64.554 89.6136V88.3636H73.2812V89.6136H69.6222V100H68.2131V89.6136H64.554ZM84.7898 94.1818C84.7898 95.4091 84.5682 96.4697 84.125 97.3636C83.6818 98.2576 83.0739 98.947 82.3011 99.4318C81.5284 99.9167 80.6458 100.159 79.6534 100.159C78.661 100.159 77.7784 99.9167 77.0057 99.4318C76.233 98.947 75.625 98.2576 75.1818 97.3636C74.7386 96.4697 74.517 95.4091 74.517 94.1818C74.517 92.9545 74.7386 91.8939 75.1818 91C75.625 90.1061 76.233 89.4167 77.0057 88.9318C77.7784 88.447 78.661 88.2045 79.6534 88.2045C80.6458 88.2045 81.5284 88.447 82.3011 88.9318C83.0739 89.4167 83.6818 90.1061 84.125 91C84.5682 91.8939 84.7898 92.9545 84.7898 94.1818ZM83.4261 94.1818C83.4261 93.1742 83.2576 92.3239 82.9205 91.6307C82.5871 90.9375 82.1345 90.4129 81.5625 90.0568C80.9943 89.7008 80.358 89.5227 79.6534 89.5227C78.9489 89.5227 78.3106 89.7008 77.7386 90.0568C77.1705 90.4129 76.7178 90.9375 76.3807 91.6307C76.0473 92.3239 75.8807 93.1742 75.8807 94.1818C75.8807 95.1894 76.0473 96.0398 76.3807 96.733C76.7178 97.4261 77.1705 97.9508 77.7386 98.3068C78.3106 98.6629 78.9489 98.8409 79.6534 98.8409C80.358 98.8409 80.9943 98.6629 81.5625 98.3068C82.1345 97.9508 82.5871 97.4261 82.9205 96.733C83.2576 96.0398 83.4261 95.1894 83.4261 94.1818ZM80.8352 87.3182L79.6534 85.7273L78.4716 87.3182H77.1989V87.2273L79.0398 84.8636H80.267L82.108 87.2273V87.3182H80.8352ZM88.5682 88.3636V100H87.1591V88.3636H88.5682Z" fill="white"/>
<defs>
<linearGradient id="paint0_linear_0_1" x1="0" y1="45.5" x2="163" y2="45.5" gradientUnits="userSpaceOnUse">
<stop stop-color="white" stop-opacity="0.4"/>
<stop offset="1" stop-color="#24408E" stop-opacity="0"/>
</linearGradient>
</defs>
</svg>
