<svg width="100%" viewBox="0 0 163 101" fill="none" xmlns="http://www.w3.org/2000/svg">
<path d="M10.92 19.36C8.904 19.36 7.16 18.976 5.688 18.208C4.232 17.424 3.104 16.328 2.304 14.92C1.504 13.512 1.104 11.872 1.104 10C1.104 8.128 1.504 6.488 2.304 5.08C3.104 3.672 4.232 2.584 5.688 1.816C7.16 1.032 8.904 0.639999 10.92 0.639999C12.92 0.639999 14.648 1.032 16.104 1.816C17.576 2.584 18.712 3.672 19.512 5.08C20.312 6.488 20.712 8.128 20.712 10C20.712 11.872 20.312 13.512 19.512 14.92C18.712 16.328 17.576 17.424 16.104 18.208C14.648 18.976 12.92 19.36 10.92 19.36ZM10.92 16.048C12.728 16.048 14.128 15.52 15.12 14.464C16.128 13.392 16.632 11.904 16.632 10C16.632 8.08 16.128 6.592 15.12 5.536C14.128 4.48 12.728 3.952 10.92 3.952C9.112 3.952 7.704 4.48 6.696 5.536C5.688 6.592 5.184 8.08 5.184 10C5.184 11.92 5.688 13.408 6.696 14.464C7.704 15.52 9.112 16.048 10.92 16.048ZM23.0683 6.688C23.1643 5.552 23.5643 4.528 24.2683 3.616C24.9883 2.704 26.0043 1.984 27.3163 1.456C28.6283 0.911999 30.2043 0.639999 32.0443 0.639999C33.6603 0.639999 35.0603 0.847999 36.2443 1.264C37.4283 1.68 38.3483 2.256 39.0043 2.992C39.6603 3.728 39.9883 4.6 39.9883 5.608C39.9883 6.424 39.7403 7.168 39.2443 7.84C38.7643 8.496 38.0123 9.024 36.9883 9.424C35.9643 9.808 34.6683 9.992 33.1003 9.976V9.52C34.6203 9.44 35.9163 9.56 36.9883 9.88C38.0763 10.184 38.9163 10.664 39.5083 11.32C40.1003 11.976 40.3963 12.8 40.3963 13.792C40.3963 14.864 40.0523 15.824 39.3643 16.672C38.6923 17.504 37.7083 18.16 36.4123 18.64C35.1163 19.12 33.5403 19.36 31.6843 19.36C29.8763 19.36 28.3003 19.104 26.9563 18.592C25.6123 18.08 24.5643 17.36 23.8123 16.432C23.0603 15.504 22.6523 14.416 22.5883 13.168H26.6683C26.7963 14.128 27.2763 14.864 28.1083 15.376C28.9403 15.888 30.1323 16.144 31.6843 16.144C33.1883 16.144 34.3243 15.912 35.0923 15.448C35.8603 14.984 36.2443 14.336 36.2443 13.504C36.2443 13.008 36.1163 12.592 35.8603 12.256C35.6043 11.92 35.1643 11.672 34.5403 11.512C33.9323 11.336 33.1003 11.248 32.0443 11.248H28.8763V8.392H32.0443C33.4203 8.392 34.4043 8.184 34.9963 7.768C35.5883 7.352 35.8843 6.816 35.8843 6.16C35.8843 5.424 35.5483 4.856 34.8763 4.456C34.2043 4.056 33.1883 3.856 31.8283 3.856C30.4363 3.856 29.3483 4.104 28.5643 4.6C27.7803 5.08 27.3083 5.776 27.1483 6.688H23.0683Z" fill="white"/>
<rect y="41" width="163" height="9" fill="url(#paint0_linear_0_1)"/>
<path d="M1.40909 81V69.3636H2.81818V75.1364H2.95455L8.18182 69.3636H10.0227L5.13636 74.6136L10.0227 81H8.31818L4.27273 75.5909L2.81818 77.2273V81H1.40909ZM11.8466 81V69.3636H18.8693V70.6136H13.2557V74.5455H18.5057V75.7955H13.2557V79.75H18.9602V81H11.8466ZM12.4148 68.2727L14.733 66.2045H15.983L18.3011 68.2727H16.6648L15.3693 67.0682L14.0739 68.2727H12.4148ZM17.6875 66.8864L18.8011 64.8409H20.4602L18.8693 66.8864H17.6875ZM20.7727 70.6136V69.3636H29.5V70.6136H25.8409V81H24.4318V70.6136H20.7727ZM40.402 77.3636H41.9474L43.2429 79.0682L43.5838 79.5227L45.5156 82.0909H43.9702L42.6974 80.3864L42.3793 79.9545L40.402 77.3636ZM45.9929 75.1818C45.9929 76.4091 45.7713 77.4697 45.3281 78.3636C44.8849 79.2576 44.277 79.947 43.5043 80.4318C42.7315 80.9167 41.849 81.1591 40.8565 81.1591C39.8641 81.1591 38.9815 80.9167 38.2088 80.4318C37.4361 79.947 36.8281 79.2576 36.3849 78.3636C35.9418 77.4697 35.7202 76.4091 35.7202 75.1818C35.7202 73.9545 35.9418 72.8939 36.3849 72C36.8281 71.1061 37.4361 70.4167 38.2088 69.9318C38.9815 69.447 39.8641 69.2045 40.8565 69.2045C41.849 69.2045 42.7315 69.447 43.5043 69.9318C44.277 70.4167 44.8849 71.1061 45.3281 72C45.7713 72.8939 45.9929 73.9545 45.9929 75.1818ZM44.6293 75.1818C44.6293 74.1742 44.4607 73.3239 44.1236 72.6307C43.7902 71.9375 43.3376 71.4129 42.7656 71.0568C42.1974 70.7008 41.5611 70.5227 40.8565 70.5227C40.152 70.5227 39.5137 70.7008 38.9418 71.0568C38.3736 71.4129 37.9209 71.9375 37.5838 72.6307C37.2505 73.3239 37.0838 74.1742 37.0838 75.1818C37.0838 76.1894 37.2505 77.0398 37.5838 77.733C37.9209 78.4261 38.3736 78.9508 38.9418 79.3068C39.5137 79.6629 40.152 79.8409 40.8565 79.8409C41.5611 79.8409 42.1974 79.6629 42.7656 79.3068C43.3376 78.9508 43.7902 78.4261 44.1236 77.733C44.4607 77.0398 44.6293 76.1894 44.6293 75.1818ZM55.9986 69.3636H57.4077V77.0682C57.4077 77.8636 57.2202 78.5739 56.8452 79.1989C56.474 79.8201 55.9493 80.3106 55.2713 80.6705C54.5933 81.0265 53.7978 81.2045 52.8849 81.2045C51.9721 81.2045 51.1766 81.0265 50.4986 80.6705C49.8205 80.3106 49.294 79.8201 48.919 79.1989C48.5478 78.5739 48.3622 77.8636 48.3622 77.0682V69.3636H49.7713V76.9545C49.7713 77.5227 49.8963 78.0284 50.1463 78.4716C50.3963 78.911 50.7524 79.2576 51.2145 79.5114C51.6804 79.7614 52.2372 79.8864 52.8849 79.8864C53.5327 79.8864 54.0895 79.7614 54.5554 79.5114C55.0213 79.2576 55.3774 78.911 55.6236 78.4716C55.8736 78.0284 55.9986 77.5227 55.9986 76.9545V69.3636ZM60.6989 81H59.2216L63.4943 69.3636H64.9489L69.2216 81H67.7443L64.267 71.2045H64.1761L60.6989 81ZM61.2443 76.4545H67.1989V77.7045H61.2443V76.4545ZM64.8125 68.1818H63.6989V66.9545C64.0966 66.9318 64.3769 66.8769 64.5398 66.7898C64.7064 66.7027 64.7898 66.5682 64.7898 66.3864C64.7898 66.1818 64.6705 66.0322 64.4318 65.9375C64.1932 65.8428 63.9034 65.7955 63.5625 65.7955L63.608 64.9318C64.392 64.9318 64.9848 65.0682 65.3864 65.3409C65.7917 65.6136 65.9943 65.9773 65.9943 66.4318C65.9943 66.8182 65.8712 67.1004 65.625 67.2784C65.3788 67.4564 65.108 67.5682 64.8125 67.6136V68.1818ZM79.125 81H76.3295V79.75H79.0341C79.9962 79.75 80.7936 79.5644 81.4261 79.1932C82.0587 78.822 82.5303 78.2936 82.8409 77.608C83.1515 76.9223 83.3068 76.1061 83.3068 75.1591C83.3068 74.2197 83.1534 73.411 82.8466 72.733C82.5398 72.0511 82.0814 71.5284 81.4716 71.1648C80.8617 70.7973 80.1023 70.6136 79.1932 70.6136H76.2614V69.3636H79.2841C80.4129 69.3636 81.3788 69.5966 82.1818 70.0625C82.9848 70.5246 83.6004 71.1894 84.0284 72.0568C84.4564 72.9205 84.6705 73.9545 84.6705 75.1591C84.6705 76.3712 84.4545 77.4148 84.0227 78.2898C83.5909 79.161 82.9621 79.8314 82.1364 80.3011C81.3106 80.767 80.3068 81 79.125 81ZM76.9432 69.3636V81H75.5341V69.3636H76.9432ZM73.7386 75.5227V74.4773H78.7386V75.5227H73.7386ZM87.5114 81H86.0341L90.3068 69.3636H91.7614L96.0341 81H94.5568L91.0795 71.2045H90.9886L87.5114 81ZM88.0568 76.4545H94.0114V77.7045H88.0568V76.4545ZM91.0341 83.8864C90.7727 83.8864 90.5473 83.7973 90.358 83.6193C90.1723 83.4413 90.0795 83.2273 90.0795 82.9773C90.0795 82.7273 90.1723 82.5133 90.358 82.3352C90.5473 82.1572 90.7727 82.0682 91.0341 82.0682C91.2955 82.0682 91.5189 82.1572 91.7045 82.3352C91.8939 82.5133 91.9886 82.7273 91.9886 82.9773C91.9886 83.2273 91.8939 83.4413 91.7045 83.6193C91.5189 83.7973 91.2955 83.8864 91.0341 83.8864ZM95.8509 70.6136V69.3636H104.578V70.6136H100.919V81H99.5099V70.6136H95.8509ZM114.844 81H112.048V79.75H114.753C115.715 79.75 116.512 79.5644 117.145 79.1932C117.777 78.822 118.249 78.2936 118.56 77.608C118.87 76.9223 119.026 76.1061 119.026 75.1591C119.026 74.2197 118.872 73.411 118.565 72.733C118.259 72.0511 117.8 71.5284 117.19 71.1648C116.58 70.7973 115.821 70.6136 114.912 70.6136H111.98V69.3636H115.003C116.132 69.3636 117.098 69.5966 117.901 70.0625C118.704 70.5246 119.319 71.1894 119.747 72.0568C120.175 72.9205 120.389 73.9545 120.389 75.1591C120.389 76.3712 120.173 77.4148 119.741 78.2898C119.31 79.161 118.681 79.8314 117.855 80.3011C117.029 80.767 116.026 81 114.844 81ZM112.662 69.3636V81H111.253V69.3636H112.662ZM109.457 75.5227V74.4773H114.457V75.5227H109.457ZM133.094 68.6591H134.412C134.412 69.4015 134.3 70.0265 134.077 70.5341C133.857 71.0379 133.501 71.4205 133.009 71.6818C132.52 71.9394 131.874 72.0682 131.071 72.0682V70.9545C131.601 70.9545 132.012 70.8674 132.304 70.6932C132.599 70.5189 132.804 70.2614 132.918 69.9205C133.035 69.5795 133.094 69.1591 133.094 68.6591ZM130.389 69.3636H131.798V77.0682C131.798 77.8636 131.611 78.5739 131.236 79.1989C130.865 79.8201 130.34 80.3106 129.662 80.6705C128.984 81.0265 128.188 81.2045 127.276 81.2045C126.363 81.2045 125.567 81.0265 124.889 80.6705C124.211 80.3106 123.685 79.8201 123.31 79.1989C122.938 78.5739 122.753 77.8636 122.753 77.0682V69.3636H124.162V76.9545C124.162 77.5227 124.287 78.0284 124.537 78.4716C124.787 78.911 125.143 79.2576 125.605 79.5114C126.071 79.7614 126.628 79.8864 127.276 79.8864C127.923 79.8864 128.48 79.7614 128.946 79.5114C129.412 79.2576 129.768 78.911 130.014 78.4716C130.264 78.0284 130.389 77.5227 130.389 76.9545V69.3636ZM145.521 68.5227H146.862C146.862 69.5455 146.607 70.3352 146.095 70.892C145.588 71.4489 144.828 71.7273 143.817 71.7273V70.6136C144.408 70.6136 144.839 70.4299 145.112 70.0625C145.385 69.6951 145.521 69.1818 145.521 68.5227ZM145.93 75.1818C145.93 76.4091 145.709 77.4697 145.266 78.3636C144.822 79.2576 144.214 79.947 143.442 80.4318C142.669 80.9167 141.786 81.1591 140.794 81.1591C139.802 81.1591 138.919 80.9167 138.146 80.4318C137.374 79.947 136.766 79.2576 136.322 78.3636C135.879 77.4697 135.658 76.4091 135.658 75.1818C135.658 73.9545 135.879 72.8939 136.322 72C136.766 71.1061 137.374 70.4167 138.146 69.9318C138.919 69.447 139.802 69.2045 140.794 69.2045C141.786 69.2045 142.669 69.447 143.442 69.9318C144.214 70.4167 144.822 71.1061 145.266 72C145.709 72.8939 145.93 73.9545 145.93 75.1818ZM144.567 75.1818C144.567 74.1742 144.398 73.3239 144.061 72.6307C143.728 71.9375 143.275 71.4129 142.703 71.0568C142.135 70.7008 141.499 70.5227 140.794 70.5227C140.089 70.5227 139.451 70.7008 138.879 71.0568C138.311 71.4129 137.858 71.9375 137.521 72.6307C137.188 73.3239 137.021 74.1742 137.021 75.1818C137.021 76.1894 137.188 77.0398 137.521 77.733C137.858 78.4261 138.311 78.9508 138.879 79.3068C139.451 79.6629 140.089 79.8409 140.794 79.8409C141.499 79.8409 142.135 79.6629 142.703 79.3068C143.275 78.9508 143.728 78.4261 144.061 77.733C144.398 77.0398 144.567 76.1894 144.567 75.1818ZM140.794 83.8864C140.533 83.8864 140.307 83.7973 140.118 83.6193C139.932 83.4413 139.839 83.2273 139.839 82.9773C139.839 82.7273 139.932 82.5133 140.118 82.3352C140.307 82.1572 140.533 82.0682 140.794 82.0682C141.055 82.0682 141.279 82.1572 141.464 82.3352C141.654 82.5133 141.749 82.7273 141.749 82.9773C141.749 83.2273 141.654 83.4413 141.464 83.6193C141.279 83.7973 141.055 83.8864 140.794 83.8864ZM157.866 73H156.457C156.374 72.5947 156.228 72.2386 156.02 71.9318C155.815 71.625 155.565 71.3674 155.27 71.1591C154.978 70.947 154.654 70.7879 154.298 70.6818C153.942 70.5758 153.571 70.5227 153.185 70.5227C152.48 70.5227 151.842 70.7008 151.27 71.0568C150.702 71.4129 150.249 71.9375 149.912 72.6307C149.579 73.3239 149.412 74.1742 149.412 75.1818C149.412 76.1894 149.579 77.0398 149.912 77.733C150.249 78.4261 150.702 78.9508 151.27 79.3068C151.842 79.6629 152.48 79.8409 153.185 79.8409C153.571 79.8409 153.942 79.7879 154.298 79.6818C154.654 79.5758 154.978 79.4186 155.27 79.2102C155.565 78.9981 155.815 78.7386 156.02 78.4318C156.228 78.1212 156.374 77.7652 156.457 77.3636H157.866C157.76 77.9583 157.567 78.4905 157.287 78.9602C157.007 79.4299 156.658 79.8295 156.241 80.1591C155.825 80.4848 155.357 80.733 154.838 80.9034C154.323 81.0739 153.772 81.1591 153.185 81.1591C152.192 81.1591 151.31 80.9167 150.537 80.4318C149.764 79.947 149.156 79.2576 148.713 78.3636C148.27 77.4697 148.048 76.4091 148.048 75.1818C148.048 73.9545 148.27 72.8939 148.713 72C149.156 71.1061 149.764 70.4167 150.537 69.9318C151.31 69.447 152.192 69.2045 153.185 69.2045C153.772 69.2045 154.323 69.2898 154.838 69.4602C155.357 69.6307 155.825 69.8807 156.241 70.2102C156.658 70.536 157.007 70.9337 157.287 71.4034C157.567 71.8693 157.76 72.4015 157.866 73ZM0.772727 89.6136V88.3636H9.5V89.6136H5.84091V100H4.43182V89.6136H0.772727ZM11.6747 100V88.3636H15.6065C16.5156 88.3636 17.2618 88.5189 17.8452 88.8295C18.4285 89.1364 18.8603 89.5587 19.1406 90.0966C19.4209 90.6345 19.5611 91.2462 19.5611 91.9318C19.5611 92.6174 19.4209 93.2254 19.1406 93.7557C18.8603 94.286 18.4304 94.7027 17.8509 95.0057C17.2713 95.3049 16.5308 95.4545 15.6293 95.4545H12.4474V94.1818H15.5838C16.205 94.1818 16.705 94.0909 17.0838 93.9091C17.4664 93.7273 17.7429 93.4697 17.9134 93.1364C18.0876 92.7992 18.1747 92.3977 18.1747 91.9318C18.1747 91.4659 18.0876 91.0587 17.9134 90.7102C17.7391 90.3617 17.4607 90.0928 17.0781 89.9034C16.6955 89.7102 16.1899 89.6136 15.5611 89.6136H13.0838V100H11.6747ZM17.152 94.7727L20.0156 100H18.3793L15.5611 94.7727H17.152ZM31.7273 94.1818C31.7273 95.4091 31.5057 96.4697 31.0625 97.3636C30.6193 98.2576 30.0114 98.947 29.2386 99.4318C28.4659 99.9167 27.5833 100.159 26.5909 100.159C25.5985 100.159 24.7159 99.9167 23.9432 99.4318C23.1705 98.947 22.5625 98.2576 22.1193 97.3636C21.6761 96.4697 21.4545 95.4091 21.4545 94.1818C21.4545 92.9545 21.6761 91.8939 22.1193 91C22.5625 90.1061 23.1705 89.4167 23.9432 88.9318C24.7159 88.447 25.5985 88.2045 26.5909 88.2045C27.5833 88.2045 28.4659 88.447 29.2386 88.9318C30.0114 89.4167 30.6193 90.1061 31.0625 91C31.5057 91.8939 31.7273 92.9545 31.7273 94.1818ZM30.3636 94.1818C30.3636 93.1742 30.1951 92.3239 29.858 91.6307C29.5246 90.9375 29.072 90.4129 28.5 90.0568C27.9318 89.7008 27.2955 89.5227 26.5909 89.5227C25.8864 89.5227 25.2481 89.7008 24.6761 90.0568C24.108 90.4129 23.6553 90.9375 23.3182 91.6307C22.9848 92.3239 22.8182 93.1742 22.8182 94.1818C22.8182 95.1894 22.9848 96.0398 23.3182 96.733C23.6553 97.4261 24.108 97.9508 24.6761 98.3068C25.2481 98.6629 25.8864 98.8409 26.5909 98.8409C27.2955 98.8409 27.9318 98.6629 28.5 98.3068C29.072 97.9508 29.5246 97.4261 29.858 96.733C30.1951 96.0398 30.3636 95.1894 30.3636 94.1818ZM43.3239 88.3636V100H41.9602L35.6193 90.8636H35.5057V100H34.0966V88.3636H35.4602L41.8239 97.5227H41.9375V88.3636H43.3239ZM54.098 92C53.973 91.6174 53.8082 91.2746 53.6037 90.9716C53.4029 90.6648 53.1624 90.4034 52.8821 90.1875C52.6056 89.9716 52.2912 89.8068 51.9389 89.6932C51.5866 89.5795 51.2003 89.5227 50.7798 89.5227C50.0904 89.5227 49.4635 89.7008 48.8991 90.0568C48.3348 90.4129 47.8859 90.9375 47.5526 91.6307C47.2192 92.3239 47.0526 93.1742 47.0526 94.1818C47.0526 95.1894 47.2211 96.0398 47.5582 96.733C47.8954 97.4261 48.3518 97.9508 48.9276 98.3068C49.5033 98.6629 50.151 98.8409 50.8707 98.8409C51.5374 98.8409 52.1245 98.6989 52.6321 98.4148C53.1435 98.1269 53.5412 97.7216 53.8253 97.1989C54.1132 96.6723 54.2571 96.053 54.2571 95.3409L54.6889 95.4318H51.1889V94.1818H55.6207V95.4318C55.6207 96.3902 55.4162 97.2235 55.0071 97.9318C54.6018 98.6402 54.0412 99.1894 53.3253 99.5795C52.6132 99.9659 51.795 100.159 50.8707 100.159C49.8404 100.159 48.9351 99.9167 48.1548 99.4318C47.3783 98.947 46.7723 98.2576 46.3366 97.3636C45.9048 96.4697 45.6889 95.4091 45.6889 94.1818C45.6889 93.2614 45.812 92.4337 46.0582 91.6989C46.3082 90.9602 46.6605 90.3314 47.1151 89.8125C47.5696 89.2936 48.1075 88.8958 48.7287 88.6193C49.3499 88.3428 50.0336 88.2045 50.7798 88.2045C51.3935 88.2045 51.9654 88.2973 52.4957 88.483C53.0298 88.6648 53.5052 88.9242 53.9219 89.2614C54.3423 89.5947 54.6927 89.9943 54.973 90.4602C55.2533 90.9223 55.4465 91.4356 55.5526 92H54.098ZM71.7614 88.3636V100H70.3977L64.0568 90.8636H63.9432V100H62.5341V88.3636H63.8977L70.2614 97.5227H70.375V88.3636H71.7614ZM75.0582 100H73.581L77.8537 88.3636H79.3082L83.581 100H82.1037L78.6264 90.2045H78.5355L75.0582 100ZM75.6037 95.4545H81.5582V96.7045H75.6037V95.4545ZM79.6946 85.4545H80.9446C80.9446 86.0682 80.7325 86.5701 80.3082 86.9602C79.884 87.3504 79.3082 87.5455 78.581 87.5455C77.8651 87.5455 77.295 87.3504 76.8707 86.9602C76.4503 86.5701 76.2401 86.0682 76.2401 85.4545H77.4901C77.4901 85.75 77.5715 86.0095 77.7344 86.233C77.901 86.4564 78.1832 86.5682 78.581 86.5682C78.9787 86.5682 79.2628 86.4564 79.4332 86.233C79.6075 86.0095 79.6946 85.75 79.6946 85.4545ZM85.3935 88.3636H87.0753L91.0298 98.0227H91.1662L95.1207 88.3636H96.8026V100H95.4844V91.1591H95.3707L91.7344 100H90.4616L86.8253 91.1591H86.7116V100H85.3935V88.3636Z" fill="white"/>
<defs>
<linearGradient id="paint0_linear_0_1" x1="0" y1="45.5" x2="163" y2="45.5" gradientUnits="userSpaceOnUse">
<stop stop-color="#24CBFF" stop-opacity="0.5"/>
<stop offset="1" stop-color="#24408E" stop-opacity="0"/>
</linearGradient>
</defs>
</svg>
