<svg width="100%" viewBox="0 0 418 193" fill="none" xmlns="http://www.w3.org/2000/svg">
<path d="M25.98 43.84C21.276 43.84 17.2067 42.944 13.772 41.152C10.3747 39.3227 7.74267 36.7653 5.876 33.48C4.00933 30.1947 3.076 26.368 3.076 22C3.076 17.632 4.00933 13.8053 5.876 10.52C7.74267 7.23466 10.3747 4.696 13.772 2.904C17.2067 1.07466 21.276 0.159997 25.98 0.159997C30.6467 0.159997 34.6787 1.07466 38.076 2.904C41.5107 4.696 44.1613 7.23466 46.028 10.52C47.8947 13.8053 48.828 17.632 48.828 22C48.828 26.368 47.8947 30.1947 46.028 33.48C44.1613 36.7653 41.5107 39.3227 38.076 41.152C34.6787 42.944 30.6467 43.84 25.98 43.84ZM25.98 36.112C30.1987 36.112 33.4653 34.88 35.78 32.416C38.132 29.9147 39.308 26.4427 39.308 22C39.308 17.52 38.132 14.048 35.78 11.584C33.4653 9.12 30.1987 7.888 25.98 7.888C21.7613 7.888 18.476 9.12 16.124 11.584C13.772 14.048 12.596 17.52 12.596 22C12.596 26.48 13.772 29.952 16.124 32.416C18.476 34.88 21.7613 36.112 25.98 36.112ZM53.5421 15.784C53.7661 12.5733 54.8114 9.81067 56.6781 7.496C58.5447 5.144 61.0087 3.33333 64.0701 2.064C67.1687 0.794665 70.6781 0.159997 74.5981 0.159997C78.3314 0.159997 81.5981 0.738664 84.3981 1.896C87.1981 3.016 89.3821 4.60266 90.9501 6.656C92.5181 8.70933 93.3021 11.0987 93.3021 13.824C93.3021 15.9147 92.7607 17.856 91.6781 19.648C90.5954 21.44 88.8594 23.2507 86.4701 25.08C84.1181 26.872 80.9821 28.8133 77.0621 30.904L64.3501 37.904L63.6221 35.328H94.4781V43H54.1581V36.28L72.1341 25.752C75.1207 24.0347 77.4541 22.56 79.1341 21.328C80.8141 20.0587 82.0087 18.8827 82.7181 17.8C83.4274 16.7173 83.7821 15.56 83.7821 14.328C83.7821 13.0213 83.4274 11.864 82.7181 10.856C82.0087 9.848 80.9447 9.064 79.5261 8.504C78.1447 7.944 76.3901 7.664 74.2621 7.664C71.7607 7.664 69.7074 8.03733 68.1021 8.784C66.4967 9.49333 65.2834 10.464 64.4621 11.696C63.6781 12.928 63.2114 14.2907 63.0621 15.784H53.5421Z" fill="white"/>
<rect x="0.5" y="80" width="417" height="18" fill="url(#paint0_linear_0_1)"/>
<path d="M22.0455 137H19.2273C19.0606 136.189 18.7689 135.477 18.3523 134.864C17.9432 134.25 17.4432 133.735 16.8523 133.318C16.2689 132.894 15.6212 132.576 14.9091 132.364C14.197 132.152 13.4545 132.045 12.6818 132.045C11.2727 132.045 9.99621 132.402 8.85227 133.114C7.71591 133.826 6.81061 134.875 6.13636 136.261C5.4697 137.648 5.13636 139.348 5.13636 141.364C5.13636 143.379 5.4697 145.08 6.13636 146.466C6.81061 147.852 7.71591 148.902 8.85227 149.614C9.99621 150.326 11.2727 150.682 12.6818 150.682C13.4545 150.682 14.197 150.576 14.9091 150.364C15.6212 150.152 16.2689 149.837 16.8523 149.42C17.4432 148.996 17.9432 148.477 18.3523 147.864C18.7689 147.242 19.0606 146.53 19.2273 145.727H22.0455C21.8333 146.917 21.447 147.981 20.8864 148.92C20.3258 149.86 19.6288 150.659 18.7955 151.318C17.9621 151.97 17.0265 152.466 15.9886 152.807C14.9583 153.148 13.8561 153.318 12.6818 153.318C10.697 153.318 8.93182 152.833 7.38636 151.864C5.84091 150.894 4.625 149.515 3.73864 147.727C2.85227 145.939 2.40909 143.818 2.40909 141.364C2.40909 138.909 2.85227 136.788 3.73864 135C4.625 133.212 5.84091 131.833 7.38636 130.864C8.93182 129.894 10.697 129.409 12.6818 129.409C13.8561 129.409 14.9583 129.58 15.9886 129.92C17.0265 130.261 17.9621 130.761 18.7955 131.42C19.6288 132.072 20.3258 132.867 20.8864 133.807C21.447 134.739 21.8333 135.803 22.0455 137ZM27.554 153H24.5994L33.1449 129.727H36.054L44.5994 153H41.6449L34.6903 133.409H34.5085L27.554 153ZM28.6449 143.909H40.554V146.409H28.6449V143.909ZM36.9631 127.636L34.5994 124.455L32.2358 127.636H29.6903V127.455L33.3722 122.727H35.8267L39.5085 127.455V127.636H36.9631ZM63.4972 129.727H66.3153V145.136C66.3153 146.727 65.9403 148.148 65.1903 149.398C64.4479 150.64 63.3987 151.621 62.0426 152.341C60.6866 153.053 59.0956 153.409 57.2699 153.409C55.4441 153.409 53.8532 153.053 52.4972 152.341C51.1411 151.621 50.0881 150.64 49.3381 149.398C48.5956 148.148 48.2244 146.727 48.2244 145.136V129.727H51.0426V144.909C51.0426 146.045 51.2926 147.057 51.7926 147.943C52.2926 148.822 53.0047 149.515 53.929 150.023C54.8608 150.523 55.9744 150.773 57.2699 150.773C58.5653 150.773 59.679 150.523 60.6108 150.023C61.5426 149.515 62.2547 148.822 62.7472 147.943C63.2472 147.057 63.4972 146.045 63.4972 144.909V129.727ZM99.6705 137H96.8523C96.6856 136.189 96.3939 135.477 95.9773 134.864C95.5682 134.25 95.0682 133.735 94.4773 133.318C93.8939 132.894 93.2462 132.576 92.5341 132.364C91.822 132.152 91.0795 132.045 90.3068 132.045C88.8977 132.045 87.6212 132.402 86.4773 133.114C85.3409 133.826 84.4356 134.875 83.7614 136.261C83.0947 137.648 82.7614 139.348 82.7614 141.364C82.7614 143.379 83.0947 145.08 83.7614 146.466C84.4356 147.852 85.3409 148.902 86.4773 149.614C87.6212 150.326 88.8977 150.682 90.3068 150.682C91.0795 150.682 91.822 150.576 92.5341 150.364C93.2462 150.152 93.8939 149.837 94.4773 149.42C95.0682 148.996 95.5682 148.477 95.9773 147.864C96.3939 147.242 96.6856 146.53 96.8523 145.727H99.6705C99.4583 146.917 99.072 147.981 98.5114 148.92C97.9508 149.86 97.2538 150.659 96.4205 151.318C95.5871 151.97 94.6515 152.466 93.6136 152.807C92.5833 153.148 91.4811 153.318 90.3068 153.318C88.322 153.318 86.5568 152.833 85.0114 151.864C83.4659 150.894 82.25 149.515 81.3636 147.727C80.4773 145.939 80.0341 143.818 80.0341 141.364C80.0341 138.909 80.4773 136.788 81.3636 135C82.25 133.212 83.4659 131.833 85.0114 130.864C86.5568 129.894 88.322 129.409 90.3068 129.409C91.4811 129.409 92.5833 129.58 93.6136 129.92C94.6515 130.261 95.5871 130.761 96.4205 131.42C97.2538 132.072 97.9508 132.867 98.5114 133.807C99.072 134.739 99.4583 135.803 99.6705 137ZM104.224 153V129.727H107.043V140.091H119.452V129.727H122.27V153H119.452V142.591H107.043V153H104.224ZM143.185 129.727H146.003V145.136C146.003 146.727 145.628 148.148 144.878 149.398C144.135 150.64 143.086 151.621 141.73 152.341C140.374 153.053 138.783 153.409 136.957 153.409C135.132 153.409 133.541 153.053 132.185 152.341C130.829 151.621 129.776 150.64 129.026 149.398C128.283 148.148 127.912 146.727 127.912 145.136V129.727H130.73V144.909C130.73 146.045 130.98 147.057 131.48 147.943C131.98 148.822 132.692 149.515 133.616 150.023C134.548 150.523 135.662 150.773 136.957 150.773C138.253 150.773 139.366 150.523 140.298 150.023C141.23 149.515 141.942 148.822 142.435 147.943C142.935 147.057 143.185 146.045 143.185 144.909V129.727ZM149.631 129.727H152.858L159.312 140.591H159.585L166.04 129.727H169.267L160.858 143.409V153H158.04V143.409L149.631 129.727ZM172.912 153V129.727H186.957V132.227H175.73V140.091H186.23V142.591H175.73V150.5H187.139V153H172.912ZM182.276 127.636L179.912 124.455L177.548 127.636H175.003V127.455L178.685 122.727H181.139L184.821 127.455V127.636H182.276ZM179.685 158.773C179.162 158.773 178.711 158.595 178.332 158.239C177.961 157.883 177.776 157.455 177.776 156.955C177.776 156.455 177.961 156.027 178.332 155.67C178.711 155.314 179.162 155.136 179.685 155.136C180.207 155.136 180.654 155.314 181.026 155.67C181.404 156.027 181.594 156.455 181.594 156.955C181.594 157.455 181.404 157.883 181.026 158.239C180.654 158.595 180.207 158.773 179.685 158.773ZM210.491 129.727V153H207.764L195.082 134.727H194.855V153H192.037V129.727H194.764L207.491 148.045H207.719V129.727H210.491ZM22.0455 176H19.2273C19.0606 175.189 18.7689 174.477 18.3523 173.864C17.9432 173.25 17.4432 172.735 16.8523 172.318C16.2689 171.894 15.6212 171.576 14.9091 171.364C14.197 171.152 13.4545 171.045 12.6818 171.045C11.2727 171.045 9.99621 171.402 8.85227 172.114C7.71591 172.826 6.81061 173.875 6.13636 175.261C5.4697 176.648 5.13636 178.348 5.13636 180.364C5.13636 182.379 5.4697 184.08 6.13636 185.466C6.81061 186.852 7.71591 187.902 8.85227 188.614C9.99621 189.326 11.2727 189.682 12.6818 189.682C13.4545 189.682 14.197 189.576 14.9091 189.364C15.6212 189.152 16.2689 188.837 16.8523 188.42C17.4432 187.996 17.9432 187.477 18.3523 186.864C18.7689 186.242 19.0606 185.53 19.2273 184.727H22.0455C21.8333 185.917 21.447 186.981 20.8864 187.92C20.3258 188.86 19.6288 189.659 18.7955 190.318C17.9621 190.97 17.0265 191.466 15.9886 191.807C14.9583 192.148 13.8561 192.318 12.6818 192.318C10.697 192.318 8.93182 191.833 7.38636 190.864C5.84091 189.894 4.625 188.515 3.73864 186.727C2.85227 184.939 2.40909 182.818 2.40909 180.364C2.40909 177.909 2.85227 175.788 3.73864 174C4.625 172.212 5.84091 170.833 7.38636 169.864C8.93182 168.894 10.697 168.409 12.6818 168.409C13.8561 168.409 14.9583 168.58 15.9886 168.92C17.0265 169.261 17.9621 169.761 18.7955 170.42C19.6288 171.072 20.3258 171.867 20.8864 172.807C21.447 173.739 21.8333 174.803 22.0455 176ZM41.8722 168.727H44.6903V184.136C44.6903 185.727 44.3153 187.148 43.5653 188.398C42.8229 189.64 41.7737 190.621 40.4176 191.341C39.0616 192.053 37.4706 192.409 35.6449 192.409C33.8191 192.409 32.2282 192.053 30.8722 191.341C29.5161 190.621 28.4631 189.64 27.7131 188.398C26.9706 187.148 26.5994 185.727 26.5994 184.136V168.727H29.4176V183.909C29.4176 185.045 29.6676 186.057 30.1676 186.943C30.6676 187.822 31.3797 188.515 32.304 189.023C33.2358 189.523 34.3494 189.773 35.6449 189.773C36.9403 189.773 38.054 189.523 38.9858 189.023C39.9176 188.515 40.6297 187.822 41.1222 186.943C41.6222 186.057 41.8722 185.045 41.8722 183.909V168.727ZM36.8267 166.364H34.5994V163.909C35.3949 163.864 35.9555 163.754 36.2812 163.58C36.6146 163.405 36.7812 163.136 36.7812 162.773C36.7812 162.364 36.5426 162.064 36.0653 161.875C35.5881 161.686 35.0085 161.591 34.3267 161.591L34.4176 159.864C35.9858 159.864 37.1714 160.136 37.9744 160.682C38.785 161.227 39.1903 161.955 39.1903 162.864C39.1903 163.636 38.9441 164.201 38.4517 164.557C37.9593 164.913 37.4176 165.136 36.8267 165.227V166.364ZM51.2727 192H48.3182L56.8636 168.727H59.7727L68.3182 192H65.3636L58.4091 172.409H58.2273L51.2727 192ZM52.3636 182.909H64.2727V185.409H52.3636V182.909ZM99.6705 176H96.8523C96.6856 175.189 96.3939 174.477 95.9773 173.864C95.5682 173.25 95.0682 172.735 94.4773 172.318C93.8939 171.894 93.2462 171.576 92.5341 171.364C91.822 171.152 91.0795 171.045 90.3068 171.045C88.8977 171.045 87.6212 171.402 86.4773 172.114C85.3409 172.826 84.4356 173.875 83.7614 175.261C83.0947 176.648 82.7614 178.348 82.7614 180.364C82.7614 182.379 83.0947 184.08 83.7614 185.466C84.4356 186.852 85.3409 187.902 86.4773 188.614C87.6212 189.326 88.8977 189.682 90.3068 189.682C91.0795 189.682 91.822 189.576 92.5341 189.364C93.2462 189.152 93.8939 188.837 94.4773 188.42C95.0682 187.996 95.5682 187.477 95.9773 186.864C96.3939 186.242 96.6856 185.53 96.8523 184.727H99.6705C99.4583 185.917 99.072 186.981 98.5114 187.92C97.9508 188.86 97.2538 189.659 96.4205 190.318C95.5871 190.97 94.6515 191.466 93.6136 191.807C92.5833 192.148 91.4811 192.318 90.3068 192.318C88.322 192.318 86.5568 191.833 85.0114 190.864C83.4659 189.894 82.25 188.515 81.3636 186.727C80.4773 184.939 80.0341 182.818 80.0341 180.364C80.0341 177.909 80.4773 175.788 81.3636 174C82.25 172.212 83.4659 170.833 85.0114 169.864C86.5568 168.894 88.322 168.409 90.3068 168.409C91.4811 168.409 92.5833 168.58 93.6136 168.92C94.6515 169.261 95.5871 169.761 96.4205 170.42C97.2538 171.072 97.9508 171.867 98.5114 172.807C99.072 173.739 99.4583 174.803 99.6705 176ZM104.224 192V168.727H107.043V179.091H119.452V168.727H122.27V192H119.452V181.591H107.043V192H104.224ZM143.185 168.727H146.003V184.136C146.003 185.727 145.628 187.148 144.878 188.398C144.135 189.64 143.086 190.621 141.73 191.341C140.374 192.053 138.783 192.409 136.957 192.409C135.132 192.409 133.541 192.053 132.185 191.341C130.829 190.621 129.776 189.64 129.026 188.398C128.283 187.148 127.912 185.727 127.912 184.136V168.727H130.73V183.909C130.73 185.045 130.98 186.057 131.48 186.943C131.98 187.822 132.692 188.515 133.616 189.023C134.548 189.523 135.662 189.773 136.957 189.773C138.253 189.773 139.366 189.523 140.298 189.023C141.23 188.515 141.942 187.822 142.435 186.943C142.935 186.057 143.185 185.045 143.185 183.909V168.727ZM135.73 166.364L138.503 161.091H141.639L138.094 166.364H135.73ZM170.085 168.727V192H167.358L154.676 173.727H154.449V192H151.631V168.727H154.358L167.085 187.045H167.312V168.727H170.085ZM191.634 176C191.384 175.235 191.054 174.549 190.645 173.943C190.243 173.33 189.762 172.807 189.202 172.375C188.649 171.943 188.02 171.614 187.315 171.386C186.611 171.159 185.838 171.045 184.997 171.045C183.618 171.045 182.365 171.402 181.236 172.114C180.107 172.826 179.209 173.875 178.543 175.261C177.876 176.648 177.543 178.348 177.543 180.364C177.543 182.379 177.88 184.08 178.554 185.466C179.228 186.852 180.141 187.902 181.293 188.614C182.444 189.326 183.74 189.682 185.179 189.682C186.512 189.682 187.687 189.398 188.702 188.83C189.724 188.254 190.52 187.443 191.088 186.398C191.664 185.345 191.952 184.106 191.952 182.682L192.815 182.864H185.815V180.364H194.679V182.864C194.679 184.78 194.27 186.447 193.452 187.864C192.641 189.28 191.52 190.379 190.088 191.159C188.664 191.932 187.027 192.318 185.179 192.318C183.118 192.318 181.308 191.833 179.747 190.864C178.194 189.894 176.982 188.515 176.111 186.727C175.247 184.939 174.815 182.818 174.815 180.364C174.815 178.523 175.062 176.867 175.554 175.398C176.054 173.92 176.759 172.663 177.668 171.625C178.577 170.587 179.652 169.792 180.895 169.239C182.137 168.686 183.505 168.409 184.997 168.409C186.224 168.409 187.368 168.595 188.429 168.966C189.497 169.33 190.448 169.848 191.281 170.523C192.122 171.189 192.823 171.989 193.384 172.92C193.944 173.845 194.33 174.871 194.543 176H191.634ZM207.233 171.227V168.727H224.688V171.227H217.369V192H214.551V171.227H207.233ZM247.705 180.364C247.705 182.818 247.261 184.939 246.375 186.727C245.489 188.515 244.273 189.894 242.727 190.864C241.182 191.833 239.417 192.318 237.432 192.318C235.447 192.318 233.682 191.833 232.136 190.864C230.591 189.894 229.375 188.515 228.489 186.727C227.602 184.939 227.159 182.818 227.159 180.364C227.159 177.909 227.602 175.788 228.489 174C229.375 172.212 230.591 170.833 232.136 169.864C233.682 168.894 235.447 168.409 237.432 168.409C239.417 168.409 241.182 168.894 242.727 169.864C244.273 170.833 245.489 172.212 246.375 174C247.261 175.788 247.705 177.909 247.705 180.364ZM244.977 180.364C244.977 178.348 244.64 176.648 243.966 175.261C243.299 173.875 242.394 172.826 241.25 172.114C240.114 171.402 238.841 171.045 237.432 171.045C236.023 171.045 234.746 171.402 233.602 172.114C232.466 172.826 231.561 173.875 230.886 175.261C230.22 176.648 229.886 178.348 229.886 180.364C229.886 182.379 230.22 184.08 230.886 185.466C231.561 186.852 232.466 187.902 233.602 188.614C234.746 189.326 236.023 189.682 237.432 189.682C238.841 189.682 240.114 189.326 241.25 188.614C242.394 187.902 243.299 186.852 243.966 185.466C244.64 184.08 244.977 182.379 244.977 180.364ZM239.795 166.636L237.432 163.455L235.068 166.636H232.523V166.455L236.205 161.727H238.659L242.341 166.455V166.636H239.795ZM255.261 168.727V192H252.443V168.727H255.261Z" fill="white"/>
<defs>
<linearGradient id="paint0_linear_0_1" x1="0.5" y1="89" x2="417.5" y2="89" gradientUnits="userSpaceOnUse">
<stop stop-color="#24408E"/>
<stop offset="1" stop-color="#24408E" stop-opacity="0"/>
</linearGradient>
</defs>
</svg>
