<svg width="100%" viewBox="0 0 419 154" fill="none" xmlns="http://www.w3.org/2000/svg">
<path d="M26.98 43.84C22.276 43.84 18.2067 42.944 14.772 41.152C11.3747 39.3227 8.74267 36.7653 6.876 33.48C5.00933 30.1947 4.076 26.368 4.076 22C4.076 17.632 5.00933 13.8053 6.876 10.52C8.74267 7.23466 11.3747 4.696 14.772 2.904C18.2067 1.07466 22.276 0.159997 26.98 0.159997C31.6467 0.159997 35.6787 1.07466 39.076 2.904C42.5107 4.696 45.1613 7.23466 47.028 10.52C48.8947 13.8053 49.828 17.632 49.828 22C49.828 26.368 48.8947 30.1947 47.028 33.48C45.1613 36.7653 42.5107 39.3227 39.076 41.152C35.6787 42.944 31.6467 43.84 26.98 43.84ZM26.98 36.112C31.1987 36.112 34.4653 34.88 36.78 32.416C39.132 29.9147 40.308 26.4427 40.308 22C40.308 17.52 39.132 14.048 36.78 11.584C34.4653 9.12 31.1987 7.888 26.98 7.888C22.7613 7.888 19.476 9.12 17.124 11.584C14.772 14.048 13.596 17.52 13.596 22C13.596 26.48 14.772 29.952 17.124 32.416C19.476 34.88 22.7613 36.112 26.98 36.112ZM59.4141 0.999997H91.2221V8.28H62.3261L66.1901 6.32L63.8381 22.728H61.3181C62.1767 21.384 63.3154 20.1333 64.7341 18.976C66.1901 17.8187 67.9634 16.8853 70.0541 16.176C72.1447 15.4667 74.5527 15.112 77.2781 15.112C80.8994 15.112 83.9981 15.728 86.5741 16.96C89.1501 18.1547 91.1101 19.816 92.4541 21.944C93.8354 24.0347 94.5261 26.424 94.5261 29.112C94.5261 31.9867 93.7234 34.5253 92.1181 36.728C90.5127 38.9307 88.2354 40.6667 85.2861 41.936C82.3367 43.2053 78.8274 43.84 74.7581 43.84C70.7261 43.84 67.2167 43.2613 64.2301 42.104C61.2434 40.9093 58.8914 39.2853 57.1741 37.232C55.4941 35.1787 54.5047 32.9013 54.2061 30.4H63.6701C64.1181 32.2293 65.2941 33.6853 67.1981 34.768C69.1021 35.8133 71.6221 36.336 74.7581 36.336C76.8487 36.336 78.6594 36.056 80.1901 35.496C81.7207 34.8987 82.8967 34.0587 83.7181 32.976C84.5767 31.8933 85.0061 30.6053 85.0061 29.112C85.0061 27.656 84.6327 26.3867 83.8861 25.304C83.1767 24.184 82.0941 23.3253 80.6381 22.728C79.2194 22.1307 77.4087 21.832 75.2061 21.832C73.4141 21.832 71.7901 22.0373 70.3341 22.448C68.9154 22.8587 67.6834 23.4 66.6381 24.072C65.6301 24.7067 64.7714 25.3787 64.0621 26.088H55.9421L59.4141 0.999997Z" fill="white"/>
<rect x="1.5" y="80" width="417" height="18" fill="url(#paint0_linear_0_1)"/>
<path d="M11.5 153H5.90909V150.5H11.3182C13.2424 150.5 14.8371 150.129 16.1023 149.386C17.3674 148.644 18.3106 147.587 18.9318 146.216C19.553 144.845 19.8636 143.212 19.8636 141.318C19.8636 139.439 19.5568 137.822 18.9432 136.466C18.3295 135.102 17.4129 134.057 16.1932 133.33C14.9735 132.595 13.4545 132.227 11.6364 132.227H5.77273V129.727H11.8182C14.0758 129.727 16.0076 130.193 17.6136 131.125C19.2197 132.049 20.4508 133.379 21.3068 135.114C22.1629 136.841 22.5909 138.909 22.5909 141.318C22.5909 143.742 22.1591 145.83 21.2955 147.58C20.4318 149.322 19.1742 150.663 17.5227 151.602C15.8712 152.534 13.8636 153 11.5 153ZM7.13636 129.727V153H4.31818V129.727H7.13636ZM0.727273 142.045V139.955H10.7273V142.045H0.727273ZM46.9545 141.364C46.9545 143.818 46.5114 145.939 45.625 147.727C44.7386 149.515 43.5227 150.894 41.9773 151.864C40.4318 152.833 38.6667 153.318 36.6818 153.318C34.697 153.318 32.9318 152.833 31.3864 151.864C29.8409 150.894 28.625 149.515 27.7386 147.727C26.8523 145.939 26.4091 143.818 26.4091 141.364C26.4091 138.909 26.8523 136.788 27.7386 135C28.625 133.212 29.8409 131.833 31.3864 130.864C32.9318 129.894 34.697 129.409 36.6818 129.409C38.6667 129.409 40.4318 129.894 41.9773 130.864C43.5227 131.833 44.7386 133.212 45.625 135C46.5114 136.788 46.9545 138.909 46.9545 141.364ZM44.2273 141.364C44.2273 139.348 43.8902 137.648 43.2159 136.261C42.5492 134.875 41.6439 133.826 40.5 133.114C39.3636 132.402 38.0909 132.045 36.6818 132.045C35.2727 132.045 33.9962 132.402 32.8523 133.114C31.7159 133.826 30.8106 134.875 30.1364 136.261C29.4697 137.648 29.1364 139.348 29.1364 141.364C29.1364 143.379 29.4697 145.08 30.1364 146.466C30.8106 147.852 31.7159 148.902 32.8523 149.614C33.9962 150.326 35.2727 150.682 36.6818 150.682C38.0909 150.682 39.3636 150.326 40.5 149.614C41.6439 148.902 42.5492 147.852 43.2159 146.466C43.8902 145.08 44.2273 143.379 44.2273 141.364ZM38.2273 123.727L42.5455 127.864H39.7273L36.6364 125L33.5909 127.864H30.7727L35.0909 123.727H38.2273ZM43 125.682H41.0909V123.591C41.7273 123.545 42.197 123.462 42.5 123.341C42.803 123.212 42.9545 122.977 42.9545 122.636C42.9545 122.273 42.75 122.015 42.3409 121.864C41.9394 121.712 41.4318 121.636 40.8182 121.636L40.9091 120.136C42.2727 120.136 43.303 120.367 44 120.83C44.697 121.292 45.0455 121.909 45.0455 122.682C45.0455 123.364 44.8333 123.86 44.4091 124.17C43.9924 124.473 43.5227 124.659 43 124.727V125.682ZM54.5114 129.727V153H51.6932V129.727H54.5114ZM69.1619 129.727H72.5256L80.4347 149.045H80.7074L88.6165 129.727H91.9801V153H89.3438V135.318H89.1165L81.8438 153H79.2983L72.0256 135.318H71.7983V153H69.1619V129.727ZM116.449 128.045H119.131C119.131 130.091 118.619 131.67 117.597 132.784C116.581 133.898 115.063 134.455 113.04 134.455V132.227C114.222 132.227 115.085 131.86 115.631 131.125C116.176 130.39 116.449 129.364 116.449 128.045ZM117.267 141.364C117.267 143.818 116.824 145.939 115.938 147.727C115.051 149.515 113.835 150.894 112.29 151.864C110.744 152.833 108.979 153.318 106.994 153.318C105.009 153.318 103.244 152.833 101.699 151.864C100.153 150.894 98.9375 149.515 98.0511 147.727C97.1648 145.939 96.7216 143.818 96.7216 141.364C96.7216 138.909 97.1648 136.788 98.0511 135C98.9375 133.212 100.153 131.833 101.699 130.864C103.244 129.894 105.009 129.409 106.994 129.409C108.979 129.409 110.744 129.894 112.29 130.864C113.835 131.833 115.051 133.212 115.938 135C116.824 136.788 117.267 138.909 117.267 141.364ZM114.54 141.364C114.54 139.348 114.203 137.648 113.528 136.261C112.862 134.875 111.956 133.826 110.812 133.114C109.676 132.402 108.403 132.045 106.994 132.045C105.585 132.045 104.309 132.402 103.165 133.114C102.028 133.826 101.123 134.875 100.449 136.261C99.7822 137.648 99.4489 139.348 99.4489 141.364C99.4489 143.379 99.7822 145.08 100.449 146.466C101.123 147.852 102.028 148.902 103.165 149.614C104.309 150.326 105.585 150.682 106.994 150.682C108.403 150.682 109.676 150.326 110.812 149.614C111.956 148.902 112.862 147.852 113.528 146.466C114.203 145.08 114.54 143.379 114.54 141.364ZM105.767 127.364L108.54 122.091H111.676L108.131 127.364H105.767ZM125.23 129.727V153H122.412V129.727H125.23Z" fill="white"/>
<defs>
<linearGradient id="paint0_linear_0_1" x1="1.5" y1="89" x2="418.5" y2="89" gradientUnits="userSpaceOnUse">
<stop stop-color="#00A93C"/>
<stop offset="1" stop-color="#24408E" stop-opacity="0"/>
</linearGradient>
</defs>
</svg>
