<svg width="100%" viewBox="0 0 163 101" fill="none" xmlns="http://www.w3.org/2000/svg">
<path d="M10.92 19.36C8.904 19.36 7.16 18.976 5.688 18.208C4.232 17.424 3.104 16.328 2.304 14.92C1.504 13.512 1.104 11.872 1.104 10C1.104 8.128 1.504 6.488 2.304 5.08C3.104 3.672 4.232 2.584 5.688 1.816C7.16 1.032 8.904 0.639999 10.92 0.639999C12.92 0.639999 14.648 1.032 16.104 1.816C17.576 2.584 18.712 3.672 19.512 5.08C20.312 6.488 20.712 8.128 20.712 10C20.712 11.872 20.312 13.512 19.512 14.92C18.712 16.328 17.576 17.424 16.104 18.208C14.648 18.976 12.92 19.36 10.92 19.36ZM10.92 16.048C12.728 16.048 14.128 15.52 15.12 14.464C16.128 13.392 16.632 11.904 16.632 10C16.632 8.08 16.128 6.592 15.12 5.536C14.128 4.48 12.728 3.952 10.92 3.952C9.112 3.952 7.704 4.48 6.696 5.536C5.688 6.592 5.184 8.08 5.184 10C5.184 11.92 5.688 13.408 6.696 14.464C7.704 15.52 9.112 16.048 10.92 16.048ZM32.4043 0.639999C33.9083 0.639999 35.2363 0.863999 36.3883 1.312C37.5403 1.76 38.4763 2.376 39.1963 3.16C39.9323 3.928 40.3803 4.808 40.5403 5.8H36.6763C36.4363 5.224 35.9963 4.744 35.3563 4.36C34.7163 3.96 33.7723 3.76 32.5243 3.76C31.2123 3.76 30.1323 4.008 29.2843 4.504C28.4363 4.984 27.8123 5.68 27.4123 6.592C27.0123 7.488 26.8123 8.576 26.8123 9.856C26.8123 11.216 27.0363 12.376 27.4843 13.336C27.9323 14.28 28.5883 15 29.4523 15.496C30.3323 15.976 31.4043 16.216 32.6683 16.216C33.5803 16.216 34.3483 16.088 34.9723 15.832C35.5963 15.576 36.0683 15.224 36.3883 14.776C36.7083 14.328 36.8683 13.824 36.8683 13.264C36.8683 12.72 36.7243 12.24 36.4363 11.824C36.1483 11.392 35.7083 11.056 35.1163 10.816C34.5243 10.576 33.7803 10.456 32.8843 10.456C31.6683 10.456 30.5323 10.736 29.4763 11.296C28.4203 11.856 27.5003 12.624 26.7163 13.6L25.2043 12.544C25.7163 11.552 26.3803 10.664 27.1963 9.88C28.0123 9.096 28.9723 8.48 30.0763 8.032C31.1803 7.568 32.4203 7.336 33.7963 7.336C35.2523 7.336 36.5163 7.576 37.5883 8.056C38.6603 8.536 39.4843 9.216 40.0603 10.096C40.6523 10.96 40.9483 11.976 40.9483 13.144C40.9483 14.36 40.6123 15.44 39.9403 16.384C39.2843 17.312 38.3323 18.04 37.0843 18.568C35.8523 19.096 34.3643 19.36 32.6203 19.36C30.4923 19.36 28.7083 18.968 27.2683 18.184C25.8283 17.384 24.7483 16.28 24.0283 14.872C23.3083 13.448 22.9483 11.824 22.9483 10C22.9483 8.176 23.3083 6.56 24.0283 5.152C24.7483 3.744 25.8123 2.64 27.2203 1.84C28.6283 1.04 30.3563 0.639999 32.4043 0.639999Z" fill="white"/>
<rect y="41" width="163" height="9" fill="url(#paint0_linear_0_1)"/>
<path d="M1.40909 81V69.3636H5.47727C6.28788 69.3636 6.95644 69.5038 7.48295 69.7841C8.00947 70.0606 8.40152 70.4337 8.65909 70.9034C8.91667 71.3693 9.04545 71.8864 9.04545 72.4545C9.04545 72.9545 8.95644 73.3674 8.77841 73.6932C8.60417 74.0189 8.37311 74.2765 8.08523 74.4659C7.80114 74.6553 7.49242 74.7955 7.15909 74.8864V75C7.51515 75.0227 7.87311 75.1477 8.23295 75.375C8.5928 75.6023 8.89394 75.928 9.13636 76.3523C9.37879 76.7765 9.5 77.2955 9.5 77.9091C9.5 78.4924 9.36742 79.017 9.10227 79.483C8.83712 79.9489 8.41856 80.3182 7.84659 80.5909C7.27462 80.8636 6.5303 81 5.61364 81H1.40909ZM2.81818 79.75H5.61364C6.53409 79.75 7.1875 79.572 7.57386 79.2159C7.96402 78.8561 8.15909 78.4205 8.15909 77.9091C8.15909 77.5152 8.05871 77.1515 7.85795 76.8182C7.6572 76.4811 7.37121 76.2121 7 76.0114C6.62879 75.8068 6.18939 75.7045 5.68182 75.7045H2.81818V79.75ZM2.81818 74.4773H5.43182C5.85606 74.4773 6.23864 74.3939 6.57955 74.2273C6.92424 74.0606 7.19697 73.8258 7.39773 73.5227C7.60227 73.2197 7.70455 72.8636 7.70455 72.4545C7.70455 71.9432 7.52652 71.5095 7.17045 71.1534C6.81439 70.7936 6.25 70.6136 5.47727 70.6136H2.81818V74.4773ZM12.2926 81H10.8153L15.0881 69.3636H16.5426L20.8153 81H19.3381L15.8608 71.2045H15.7699L12.2926 81ZM12.8381 76.4545H18.7926V77.7045H12.8381V76.4545ZM15.2017 68.1818L16.5881 65.5455H18.1562L16.3835 68.1818H15.2017ZM31.8991 75.1818C31.8991 76.4091 31.6776 77.4697 31.2344 78.3636C30.7912 79.2576 30.1832 79.947 29.4105 80.4318C28.6378 80.9167 27.7552 81.1591 26.7628 81.1591C25.7704 81.1591 24.8878 80.9167 24.1151 80.4318C23.3423 79.947 22.7344 79.2576 22.2912 78.3636C21.848 77.4697 21.6264 76.4091 21.6264 75.1818C21.6264 73.9545 21.848 72.8939 22.2912 72C22.7344 71.1061 23.3423 70.4167 24.1151 69.9318C24.8878 69.447 25.7704 69.2045 26.7628 69.2045C27.7552 69.2045 28.6378 69.447 29.4105 69.9318C30.1832 70.4167 30.7912 71.1061 31.2344 72C31.6776 72.8939 31.8991 73.9545 31.8991 75.1818ZM30.5355 75.1818C30.5355 74.1742 30.367 73.3239 30.0298 72.6307C29.6965 71.9375 29.2438 71.4129 28.6719 71.0568C28.1037 70.7008 27.4673 70.5227 26.7628 70.5227C26.0582 70.5227 25.42 70.7008 24.848 71.0568C24.2798 71.4129 23.8272 71.9375 23.4901 72.6307C23.1567 73.3239 22.9901 74.1742 22.9901 75.1818C22.9901 76.1894 23.1567 77.0398 23.4901 77.733C23.8272 78.4261 24.2798 78.9508 24.848 79.3068C25.42 79.6629 26.0582 79.8409 26.7628 79.8409C27.4673 79.8409 28.1037 79.6629 28.6719 79.3068C29.2438 78.9508 29.6965 78.4261 30.0298 77.733C30.367 77.0398 30.5355 76.1894 30.5355 75.1818ZM48.1321 73H46.723C46.6397 72.5947 46.4938 72.2386 46.2855 71.9318C46.081 71.625 45.831 71.3674 45.5355 71.1591C45.2438 70.947 44.92 70.7879 44.5639 70.6818C44.2079 70.5758 43.8366 70.5227 43.4503 70.5227C42.7457 70.5227 42.1075 70.7008 41.5355 71.0568C40.9673 71.4129 40.5147 71.9375 40.1776 72.6307C39.8442 73.3239 39.6776 74.1742 39.6776 75.1818C39.6776 76.1894 39.8442 77.0398 40.1776 77.733C40.5147 78.4261 40.9673 78.9508 41.5355 79.3068C42.1075 79.6629 42.7457 79.8409 43.4503 79.8409C43.8366 79.8409 44.2079 79.7879 44.5639 79.6818C44.92 79.5758 45.2438 79.4186 45.5355 79.2102C45.831 78.9981 46.081 78.7386 46.2855 78.4318C46.4938 78.1212 46.6397 77.7652 46.723 77.3636H48.1321C48.026 77.9583 47.8329 78.4905 47.5526 78.9602C47.2723 79.4299 46.9238 79.8295 46.5071 80.1591C46.0904 80.4848 45.6226 80.733 45.1037 80.9034C44.5885 81.0739 44.0374 81.1591 43.4503 81.1591C42.4579 81.1591 41.5753 80.9167 40.8026 80.4318C40.0298 79.947 39.4219 79.2576 38.9787 78.3636C38.5355 77.4697 38.3139 76.4091 38.3139 75.1818C38.3139 73.9545 38.5355 72.8939 38.9787 72C39.4219 71.1061 40.0298 70.4167 40.8026 69.9318C41.5753 69.447 42.4579 69.2045 43.4503 69.2045C44.0374 69.2045 44.5885 69.2898 45.1037 69.4602C45.6226 69.6307 46.0904 69.8807 46.5071 70.2102C46.9238 70.536 47.2723 70.9337 47.5526 71.4034C47.8329 71.8693 48.026 72.4015 48.1321 73ZM50.8864 81H49.4091L53.6818 69.3636H55.1364L59.4091 81H57.9318L54.4545 71.2045H54.3636L50.8864 81ZM51.4318 76.4545H57.3864V77.7045H51.4318V76.4545ZM53.7955 68.1818L55.1818 65.5455H56.75L54.9773 68.1818H53.7955ZM70.4929 75.1818C70.4929 76.4091 70.2713 77.4697 69.8281 78.3636C69.3849 79.2576 68.777 79.947 68.0043 80.4318C67.2315 80.9167 66.349 81.1591 65.3565 81.1591C64.3641 81.1591 63.4815 80.9167 62.7088 80.4318C61.9361 79.947 61.3281 79.2576 60.8849 78.3636C60.4418 77.4697 60.2202 76.4091 60.2202 75.1818C60.2202 73.9545 60.4418 72.8939 60.8849 72C61.3281 71.1061 61.9361 70.4167 62.7088 69.9318C63.4815 69.447 64.3641 69.2045 65.3565 69.2045C66.349 69.2045 67.2315 69.447 68.0043 69.9318C68.777 70.4167 69.3849 71.1061 69.8281 72C70.2713 72.8939 70.4929 73.9545 70.4929 75.1818ZM69.1293 75.1818C69.1293 74.1742 68.9607 73.3239 68.6236 72.6307C68.2902 71.9375 67.8376 71.4129 67.2656 71.0568C66.6974 70.7008 66.0611 70.5227 65.3565 70.5227C64.652 70.5227 64.0137 70.7008 63.4418 71.0568C62.8736 71.4129 62.4209 71.9375 62.0838 72.6307C61.7505 73.3239 61.5838 74.1742 61.5838 75.1818C61.5838 76.1894 61.7505 77.0398 62.0838 77.733C62.4209 78.4261 62.8736 78.9508 63.4418 79.3068C64.0137 79.6629 64.652 79.8409 65.3565 79.8409C66.0611 79.8409 66.6974 79.6629 67.2656 79.3068C67.8376 78.9508 68.2902 78.4261 68.6236 77.733C68.9607 77.0398 69.1293 76.1894 69.1293 75.1818ZM76.7259 70.6136V69.3636H85.4531V70.6136H81.794V81H80.3849V70.6136H76.7259ZM86.7457 81H85.2685L89.5412 69.3636H90.9957L95.2685 81H93.7912L90.3139 71.2045H90.223L86.7457 81ZM87.2912 76.4545H93.2457V77.7045H87.2912V76.4545ZM89.7003 68.1818L87.9276 65.5455H89.4957L90.8821 68.1818H89.7003ZM98.4901 69.3636V81H97.081V69.3636H98.4901ZM10.7727 92H9.36364C9.2803 91.5947 9.13447 91.2386 8.92614 90.9318C8.72159 90.625 8.47159 90.3674 8.17614 90.1591C7.88447 89.947 7.56061 89.7879 7.20455 89.6818C6.84849 89.5758 6.47727 89.5227 6.09091 89.5227C5.38636 89.5227 4.74811 89.7008 4.17614 90.0568C3.60795 90.4129 3.1553 90.9375 2.81818 91.6307C2.48485 92.3239 2.31818 93.1742 2.31818 94.1818C2.31818 95.1894 2.48485 96.0398 2.81818 96.733C3.1553 97.4261 3.60795 97.9508 4.17614 98.3068C4.74811 98.6629 5.38636 98.8409 6.09091 98.8409C6.47727 98.8409 6.84849 98.7879 7.20455 98.6818C7.56061 98.5758 7.88447 98.4186 8.17614 98.2102C8.47159 97.9981 8.72159 97.7386 8.92614 97.4318C9.13447 97.1212 9.2803 96.7652 9.36364 96.3636H10.7727C10.6667 96.9583 10.4735 97.4905 10.1932 97.9602C9.91288 98.4299 9.56439 98.8295 9.14773 99.1591C8.73106 99.4848 8.26326 99.733 7.74432 99.9034C7.22917 100.074 6.67803 100.159 6.09091 100.159C5.09849 100.159 4.21591 99.9167 3.44318 99.4318C2.67045 98.947 2.0625 98.2576 1.61932 97.3636C1.17614 96.4697 0.954545 95.4091 0.954545 94.1818C0.954545 92.9545 1.17614 91.8939 1.61932 91C2.0625 90.1061 2.67045 89.4167 3.44318 88.9318C4.21591 88.447 5.09849 88.2045 6.09091 88.2045C6.67803 88.2045 7.22917 88.2898 7.74432 88.4602C8.26326 88.6307 8.73106 88.8807 9.14773 89.2102C9.56439 89.536 9.91288 89.9337 10.1932 90.4034C10.4735 90.8693 10.6667 91.4015 10.7727 92ZM13.0497 100V88.3636H14.4588V93.5455H20.6634V88.3636H22.0724V100H20.6634V94.7955H14.4588V100H13.0497ZM26.3026 88.3636V100H24.8935V88.3636H26.3026ZM24.9844 87.1818L26.3707 84.5455H27.9389L26.1662 87.1818H24.9844ZM38.3551 88.3636V100H36.9915L30.6506 90.8636H30.5369V100H29.1278V88.3636H30.4915L36.8551 97.5227H36.9688V88.3636H38.3551ZM41.1747 100V88.3636H42.5838V93.5455H48.7884V88.3636H50.1974V100H48.7884V94.7955H42.5838V100H41.1747Z" fill="white"/>
<defs>
<linearGradient id="paint0_linear_0_1" x1="0" y1="45.5" x2="163" y2="45.5" gradientUnits="userSpaceOnUse">
<stop stop-color="white"/>
<stop offset="1" stop-color="#24408E" stop-opacity="0"/>
</linearGradient>
</defs>
</svg>
